# Blender 5.1.2
# www.blender.org
o debris_02
v 0.000000 0.412714 0.000000
v 0.000000 0.432963 -0.179339
v 0.000000 0.199283 -0.481112
v 0.000000 0.000000 -0.455224
v 0.000000 -0.167867 -0.405266
v 0.000000 -0.519382 -0.215135
v 0.000000 -0.626689 0.000000
v 0.072998 0.406177 -0.151583
v 0.133777 0.308324 -0.277790
v 0.188717 0.180162 -0.391875
v 0.249789 0.000000 -0.518693
v 0.186794 -0.178326 -0.387882
v 0.164528 -0.379198 -0.341645
v 0.085388 -0.475114 -0.177309
v 0.151467 0.467715 -0.120791
v 0.266142 0.340408 -0.212241
v 0.430930 0.228307 -0.343656
v 0.358854 0.000000 -0.286176
v 0.300026 -0.158953 -0.239263
v 0.237521 -0.303801 -0.189417
v 0.136682 -0.422060 -0.109000
v 0.197780 0.489761 -0.045142
v 0.385469 0.395382 -0.087981
v 0.508193 0.215914 -0.115992
v 0.487994 0.000000 -0.111381
v 0.508057 -0.215856 -0.115961
v 0.362446 -0.371767 -0.082726
v 0.193078 -0.478118 -0.044069
v 0.148144 0.366849 0.033813
v 0.323873 0.332203 0.073922
v 0.473222 0.201056 0.108010
v 0.427951 0.000000 0.097677
v 0.403743 -0.171536 0.092152
v 0.341097 -0.349869 0.077853
v 0.186696 -0.462314 0.042612
v 0.131040 0.404637 0.104501
v 0.325107 0.415827 0.259264
v 0.359461 0.190442 0.286661
v 0.321732 0.000000 0.256573
v 0.344301 -0.182410 0.274571
v 0.325901 -0.416844 0.259898
v 0.160641 -0.496041 0.128107
v 0.077584 0.431690 0.161104
v 0.140333 0.323435 0.291405
v 0.202899 0.193700 0.421324
v 0.203379 0.000000 0.422322
v 0.186739 -0.178274 0.387769
v 0.204437 -0.471180 0.424519
v 0.084895 -0.472371 0.176286
v -0.000000 0.449473 0.186178
v -0.000000 0.277690 0.277690
v -0.000000 0.204976 0.494855
v -0.000000 0.000000 0.536665
v -0.000000 -0.200315 0.483604
v -0.000000 -0.374877 0.374876
v -0.000000 -0.534268 0.221301
v -0.068593 0.381667 0.142436
v -0.138952 0.320250 0.288536
v -0.231967 0.221451 0.481685
v -0.230447 0.000000 0.478528
v -0.203649 -0.194416 0.422881
v -0.149938 -0.345572 0.311350
v -0.094197 -0.524129 0.195602
v -0.119765 0.369821 0.095509
v -0.234748 0.300254 0.187205
v -0.311103 0.164822 0.248096
v -0.393984 0.000000 0.314191
v -0.375160 -0.198759 0.299180
v -0.277114 -0.354442 0.220991
v -0.136952 -0.422894 0.109216
v -0.140939 0.349006 0.032168
v -0.366863 0.376298 0.083734
v -0.475520 0.202032 0.108534
v -0.488661 0.000000 0.111534
v -0.446344 -0.189636 0.101875
v -0.399479 -0.409753 0.091178
v -0.187528 -0.464376 0.042802
v -0.151001 0.373923 -0.034465
v -0.329130 0.337594 -0.075122
v -0.460074 0.195470 -0.105009
v -0.494106 0.000000 -0.112777
v -0.487409 -0.207084 -0.111248
v -0.308450 -0.316382 -0.070402
v -0.209378 -0.518483 -0.047789
v -0.134204 0.414406 -0.107024
v -0.253006 0.323607 -0.201766
v -0.275336 0.145873 -0.219573
v -0.316183 0.000000 -0.252148
v -0.380693 -0.201691 -0.303593
v -0.283096 -0.362094 -0.225762
v -0.186993 -0.577414 -0.149122
v -0.078808 0.438502 -0.163646
v -0.154094 0.355150 -0.319979
v -0.190545 0.181906 -0.395670
v -0.199874 0.000000 -0.415043
v -0.210200 -0.200671 -0.436485
v -0.190654 -0.439412 -0.395897
v -0.101745 -0.566128 -0.211275
v 0.000000 0.353639 -0.353639
v 0.000000 -0.337865 -0.337865
vn -0.0765 -0.2156 -0.9735
vn -0.2113 0.5137 -0.8315
vn 0.4773 0.7998 -0.3640
vn 0.5493 -0.4680 -0.6922
vn 0.0730 -0.2845 -0.9559
vn 0.3943 0.5852 -0.7086
vn 0.3065 0.9459 0.1068
vn 0.5518 -0.7463 -0.3722
vn 0.7406 -0.6710 -0.0350
vn 0.7453 -0.4270 -0.5121
vn -0.0174 0.7498 -0.6614
vn -0.5197 0.8054 -0.2850
vn 0.7912 -0.5977 -0.1299
vn 0.9187 -0.1824 -0.3502
vn 0.7743 0.5182 -0.3632
vn 0.0924 0.8080 -0.5820
vn 0.4913 0.8627 -0.1198
vn -0.3712 0.9276 -0.0431
vn 0.2824 -0.5911 -0.7556
vn 0.4237 -0.4528 -0.7845
vn 0.8012 -0.0876 -0.5919
vn 0.2540 0.7705 -0.5847
vn 0.2269 -0.6310 -0.7419
vn 0.5222 0.0666 -0.8502
vn 0.6255 -0.7582 0.1843
vn 0.9255 -0.3387 0.1692
vn 0.9366 -0.2247 0.2690
vn 0.4797 0.7401 0.4713
vn 0.5496 -0.8138 0.1888
vn 0.8978 0.0742 0.4342
vn 0.6330 0.7596 0.1492
vn -0.0219 0.5466 0.8371
vn 0.2667 0.8778 -0.3978
vn 0.6027 -0.7878 -0.1271
vn 0.9378 0.1471 0.3144
vn 0.5533 0.7329 0.3958
vn 0.3511 0.8584 -0.3739
vn 0.6694 -0.7378 -0.0870
vn 0.9953 -0.0814 0.0531
vn 0.8061 -0.2448 0.5388
vn 0.0339 -0.8749 0.4832
vn 0.5794 0.1507 0.8010
vn 0.4542 0.7302 0.5104
vn 0.2385 0.9444 -0.2261
vn 0.1455 -0.7781 0.6111
vn 0.7784 0.1242 0.6153
vn 0.8138 0.0050 0.5811
vn -0.3576 0.8499 0.3870
vn 0.1602 0.9684 -0.1912
vn 0.6594 -0.6937 0.2897
vn -0.1847 0.1114 0.9765
vn 0.4825 0.1751 0.8582
vn -0.2844 0.6656 0.6900
vn 0.6639 -0.5189 0.5385
vn 0.4659 -0.2101 0.8595
vn 0.1655 0.9352 0.3131
vn -0.4201 -0.4798 0.7703
vn -0.2400 0.1940 0.9512
vn 0.2904 0.8241 0.4863
vn -0.2617 -0.6697 0.6950
vn -0.2835 -0.2456 0.9270
vn 0.0361 0.8826 0.4688
vn -0.6460 0.7489 -0.1479
vn -0.2003 -0.9041 0.3776
vn -0.9387 -0.3377 0.0689
vn -0.5791 -0.1158 0.8070
vn -0.6758 0.7353 0.0507
vn -0.2860 0.9556 0.0706
vn -0.8563 -0.4930 -0.1539
vn -0.4197 -0.6307 0.6527
vn -0.5972 0.5386 0.5943
vn -0.3900 0.9008 0.1909
vn -0.9362 -0.1138 0.3325
vn -0.4554 0.5658 0.6874
vn -0.4350 0.8884 -0.1465
vn -0.3838 -0.6231 0.6815
vn -0.6768 -0.1788 0.7141
vn -0.7682 0.5302 0.3589
vn 0.1997 0.8937 0.4018
vn 0.0051 -0.8499 0.5269
vn -0.4814 -0.6965 0.5321
vn -0.8225 -0.1484 -0.5491
vn -0.9851 0.1706 0.0239
vn 0.0671 0.9729 -0.2211
vn -0.8336 -0.3620 0.4172
vn -0.9810 -0.0303 0.1915
vn -0.7257 0.6841 -0.0735
vn -0.3099 0.8742 0.3737
vn -0.5823 0.3291 -0.7434
vn -0.1522 0.9682 -0.1984
vn -0.9166 -0.3987 0.0294
vn -0.8736 -0.0318 -0.4856
vn -0.3576 0.4959 -0.7913
vn -0.3133 0.8583 0.4064
vn -0.4919 -0.7955 0.3540
vn -0.8568 -0.5155 0.0119
vn -0.4762 -0.4758 -0.7395
vn -0.6111 0.1151 -0.7831
vn -0.9022 0.1537 -0.4030
vn -0.1755 0.9560 0.2351
vn -0.0548 -0.9665 -0.2507
vn -0.8955 -0.1449 -0.4208
vn -0.7663 0.3368 -0.5471
vn -0.5081 0.8373 -0.2017
vn -0.3744 0.5904 -0.7150
vn 0.0918 0.9895 0.1117
vn 0.3667 -0.8325 -0.4152
vn 0.3510 -0.1289 -0.9275
vn -0.1958 0.1138 -0.9740
vn -0.0813 0.9072 -0.4129
vn 0.3028 -0.7115 -0.6341
vn 0.1311 0.0987 -0.9864
vn 0.0657 -0.3678 -0.9276
vn 0.4148 -0.1172 -0.9023
vn 0.4466 0.7984 -0.4040
vn -0.2129 -0.7957 -0.5670
vn -0.2089 -0.5294 -0.8223
vn 0.5219 0.6810 -0.5137
vn 0.7497 -0.6610 -0.0321
vn 0.7655 -0.5338 -0.3591
vn 0.1763 0.6956 -0.6965
vn 0.7261 -0.4821 -0.4904
vn 0.2443 -0.3086 -0.9193
vn -0.0845 0.5300 -0.8438
vn 0.5240 0.4693 -0.7108
vn 0.3414 -0.4899 -0.8021
vn 0.8784 -0.3572 -0.3175
vn 0.4429 0.7509 -0.4900
vn 0.2318 -0.6744 -0.7010
vn 0.7271 -0.4276 -0.5372
vn 0.6943 -0.5493 0.4650
vn 0.9850 -0.0890 0.1479
vn -0.0776 0.5608 0.8243
vn 0.5525 -0.8129 0.1843
vn 0.9513 -0.1430 0.2732
vn 0.7628 0.4490 0.4654
vn 0.2648 0.8756 -0.4040
vn 0.5693 -0.7858 -0.2416
vn 0.8239 -0.1340 0.5507
vn 0.9874 0.1419 -0.0706
vn 0.9005 -0.3382 0.2733
vn 0.8298 -0.2133 0.5157
vn 0.2628 -0.9571 -0.1220
vn 0.7997 -0.1853 0.5710
vn 0.1036 0.1356 0.9853
vn 0.5791 -0.0961 0.8096
vn 0.6299 -0.2414 0.7382
vn 0.6500 0.7083 0.2754
vn 0.4458 -0.4733 0.7598
vn 0.3410 0.0057 0.9400
vn 0.3658 0.4376 0.8214
vn -0.4594 -0.8591 0.2254
vn 0.4775 -0.2250 0.8493
vn -0.2721 0.6122 0.7424
vn -0.2386 -0.6300 0.7390
vn -0.0577 -0.0146 0.9982
vn -0.7167 0.3279 0.6155
vn -0.4109 -0.5828 0.7011
vn -0.2336 -0.2972 0.9258
vn 0.3006 0.9044 0.3028
vn -0.1783 -0.9228 0.3415
vn -0.6790 -0.2870 0.6757
vn -0.6439 0.5848 0.4933
vn -0.4528 -0.6112 0.6492
vn -0.9462 -0.0111 0.3233
vn -0.3883 0.9004 0.1961
vn -0.8841 -0.2183 0.4131
vn -0.4240 0.3813 0.8215
vn -0.7596 -0.6020 0.2462
vn -0.6392 0.0530 0.7672
vn -0.5630 0.8224 -0.0820
vn -0.1149 -0.8702 0.4791
vn -0.5417 -0.8228 0.1717
vn -0.9952 0.0636 -0.0739
vn -0.2663 0.8889 0.3726
vn -0.3254 -0.7277 -0.6038
vn -0.9755 -0.2189 0.0237
vn -0.8258 0.4706 -0.3108
vn -0.4995 0.1211 -0.8578
vn -0.6969 0.6827 0.2196
vn -0.8971 -0.4416 -0.0165
vn -0.5729 0.3698 -0.7314
vn -0.8386 0.1576 -0.5215
vn -0.4544 -0.8470 -0.2758
vn -0.7402 -0.6650 -0.1000
vn -0.7534 0.3782 -0.5379
vn -0.7549 0.3894 -0.5277
vn -0.4881 -0.6031 -0.6309
vn -0.9044 0.0908 -0.4169
vn -0.5208 0.8400 -0.1520
vn -0.1890 0.4263 -0.8846
vn 0.1919 -0.3617 -0.9123
vn -0.3973 -0.1182 -0.9100
vn -0.0291 0.8878 -0.4593
vn 0.4822 -0.4907 -0.7257
vn -0.1892 -0.2801 -0.9411
vt 0.750000 0.250000
vt 0.678571 0.375000
vt 0.678571 0.250000
vt 0.750000 0.500000
vt 0.678571 0.625000
vt 0.678571 0.500000
vt 0.750000 0.875000
vt 0.678571 0.750000
vt 0.750000 0.750000
vt 0.678571 0.125000
vt 0.750000 0.125000
vt 0.750000 0.375000
vt 0.750000 0.625000
vt 0.714286 0.999890
vt 0.678571 0.875000
vt 0.714286 0.000000
vt 0.607143 0.125000
vt 0.607143 0.500000
vt 0.607143 0.375000
vt 0.607143 0.750000
vt 0.607143 0.625000
vt 0.642857 0.999890
vt 0.607143 0.875000
vt 0.642857 0.000000
vt 0.607143 0.250000
vt 0.535714 0.625000
vt 0.571429 0.999890
vt 0.535714 0.875000
vt 0.571429 0.000000
vt 0.535714 0.125000
vt 0.535714 0.250000
vt 0.535714 0.500000
vt 0.535714 0.750000
vt 0.535714 0.375000
vt 0.500000 0.000000
vt 0.464286 0.125000
vt 0.464286 0.375000
vt 0.464286 0.250000
vt 0.464286 0.625000
vt 0.464286 0.500000
vt 0.464286 0.750000
vt 0.500000 0.999890
vt 0.464286 0.875000
vt 0.392857 0.875000
vt 0.392857 0.750000
vt 0.392857 0.125000
vt 0.392857 0.500000
vt 0.392857 0.375000
vt 0.392857 0.625000
vt 0.428571 0.999890
vt 0.428571 0.000000
vt 0.392857 0.250000
vt 0.321429 0.125000
vt 0.321429 0.375000
vt 0.321429 0.750000
vt 0.321429 0.625000
vt 0.357143 0.999890
vt 0.321429 0.875000
vt 0.357143 0.000000
vt 0.321429 0.250000
vt 0.321429 0.500000
vt 0.285714 0.999890
vt 0.250000 0.875000
vt 0.285714 0.000000
vt 0.250000 0.125000
vt 0.250000 0.250000
vt 0.250000 0.625000
vt 0.250000 0.500000
vt 0.250000 0.750000
vt 0.250000 0.375000
vt 0.178571 0.250000
vt 0.178571 0.500000
vt 0.178571 0.875000
vt 0.178571 0.750000
vt 0.178571 0.125000
vt 0.178571 0.375000
vt 0.178571 0.625000
vt 0.214286 0.999890
vt 0.214286 0.000000
vt 0.107143 0.125000
vt 0.107143 0.500000
vt 0.107143 0.375000
vt 0.107143 0.625000
vt 0.142857 0.999890
vt 0.107143 0.875000
vt 0.142857 0.000000
vt 0.107143 0.250000
vt 0.107143 0.750000
vt 0.035714 0.375000
vt 0.035714 0.625000
vt 0.071429 0.999890
vt 0.035714 0.875000
vt 0.071429 0.000000
vt 0.035714 0.125000
vt 0.035714 0.250000
vt 0.035714 0.500000
vt 0.035714 0.750000
vt 1.000000 0.000000
vt 1.035714 0.125000
vt 0.964286 0.125000
vt 1.035714 0.375000
vt 0.964286 0.250000
vt 1.035714 0.250000
vt 1.035714 0.500000
vt 0.964286 0.625000
vt 0.964286 0.500000
vt 1.035714 0.875000
vt 0.964286 0.750000
vt 1.035714 0.750000
vt 0.964286 0.375000
vt 1.035714 0.625000
vt 1.000000 0.999890
vt 0.964286 0.875000
vt 0.892857 0.625000
vt 0.892857 0.500000
vt 0.892857 0.750000
vt 0.892857 0.250000
vt 0.892857 0.125000
vt 0.892857 0.375000
vt 0.928571 0.999890
vt 0.892857 0.875000
vt 0.928571 0.000000
vt 0.821429 0.125000
vt 0.821429 0.500000
vt 0.821429 0.375000
vt 0.821429 0.625000
vt 0.857143 0.999890
vt 0.821429 0.875000
vt 0.857143 0.000000
vt 0.821428 0.250000
vt 0.821428 0.750000
vt 0.785714 0.999890
vt 0.785714 0.000000
s 0
f 100/1/1 12/2/1 13/3/1
f 4/4/2 10/5/2 11/6/2
f 2/7/3 9/8/3 99/9/3
f 100/1/4 14/10/4 6/11/4
f 4/4/5 12/2/5 5/12/5
f 99/9/6 10/5/6 3/13/6
f 2/7/7 1/14/7 8/15/7
f 7/16/8 6/11/8 14/10/8
f 13/3/9 21/17/9 14/10/9
f 12/2/10 18/18/10 19/19/10
f 10/5/11 16/20/11 17/21/11
f 8/15/12 1/22/12 15/23/12
f 7/24/13 14/10/13 21/17/13
f 12/2/14 20/25/14 13/3/14
f 10/5/15 18/18/15 11/6/15
f 8/15/16 16/20/16 9/8/16
f 16/20/17 24/26/17 17/21/17
f 15/23/18 1/27/18 22/28/18
f 7/29/19 21/17/19 28/30/19
f 19/19/20 27/31/20 20/25/20
f 18/18/21 24/26/21 25/32/21
f 16/20/22 22/28/22 23/33/22
f 21/17/23 27/31/23 28/30/23
f 19/19/24 25/32/24 26/34/24
f 7/35/25 28/30/25 35/36/25
f 27/31/26 33/37/26 34/38/26
f 25/32/27 31/39/27 32/40/27
f 22/28/28 30/41/28 23/33/28
f 28/30/29 34/38/29 35/36/29
f 25/32/30 33/37/30 26/34/30
f 24/26/31 30/41/31 31/39/31
f 22/28/32 1/42/32 29/43/32
f 30/41/33 36/44/33 37/45/33
f 34/38/34 42/46/34 35/36/34
f 33/37/35 39/47/35 40/48/35
f 30/41/36 38/49/36 31/39/36
f 29/43/37 1/50/37 36/44/37
f 7/51/38 35/36/38 42/46/38
f 34/38/39 40/48/39 41/52/39
f 32/40/40 38/49/40 39/47/40
f 41/52/41 49/53/41 42/46/41
f 39/47/42 47/54/42 40/48/42
f 38/49/43 44/55/43 45/56/43
f 36/44/44 1/57/44 43/58/44
f 7/59/45 42/46/45 49/53/45
f 41/52/46 47/54/46 48/60/46
f 39/47/47 45/56/47 46/61/47
f 36/44/48 44/55/48 37/45/48
f 43/58/49 1/62/49 50/63/49
f 7/64/50 49/53/50 56/65/50
f 47/54/51 55/66/51 48/60/51
f 46/61/52 52/67/52 53/68/52
f 43/58/53 51/69/53 44/55/53
f 49/53/54 55/66/54 56/65/54
f 46/61/55 54/70/55 47/54/55
f 45/56/56 51/69/56 52/67/56
f 54/70/57 62/71/57 55/66/57
f 52/67/58 60/72/58 53/68/58
f 51/69/59 57/73/59 58/74/59
f 55/66/60 63/75/60 56/65/60
f 53/68/61 61/76/61 54/70/61
f 52/67/62 58/74/62 59/77/62
f 50/63/63 1/78/63 57/73/63
f 7/79/64 56/65/64 63/75/64
f 62/71/65 70/80/65 63/75/65
f 61/76/66 67/81/66 68/82/66
f 58/74/67 66/83/67 59/77/67
f 57/73/68 1/84/68 64/85/68
f 7/86/69 63/75/69 70/80/69
f 61/76/70 69/87/70 62/71/70
f 60/72/71 66/83/71 67/81/71
f 57/73/72 65/88/72 58/74/72
f 67/81/73 75/89/73 68/82/73
f 65/88/74 73/90/74 66/83/74
f 64/85/75 1/91/75 71/92/75
f 7/93/76 70/80/76 77/94/76
f 69/87/77 75/89/77 76/95/77
f 66/83/78 74/96/78 67/81/78
f 65/88/79 71/92/79 72/97/79
f 69/87/80 77/94/80 70/80/80
f 7/98/81 77/99/81 84/100/81
f 75/101/82 83/102/82 76/103/82
f 74/104/83 80/105/83 81/106/83
f 71/107/84 79/108/84 72/109/84
f 77/99/85 83/102/85 84/100/85
f 75/101/86 81/106/86 82/110/86
f 73/111/87 79/108/87 80/105/87
f 71/107/88 1/112/88 78/113/88
f 81/106/89 87/114/89 88/115/89
f 78/113/90 86/116/90 79/108/90
f 84/100/91 90/117/91 91/118/91
f 81/106/92 89/119/92 82/110/92
f 79/108/93 87/114/93 80/105/93
f 78/113/94 1/120/94 85/121/94
f 7/122/95 84/100/95 91/118/95
f 83/102/96 89/119/96 90/117/96
f 90/117/97 98/123/97 91/118/97
f 89/119/98 95/124/98 96/125/98
f 86/116/99 94/126/99 87/114/99
f 85/121/100 1/127/100 92/128/100
f 7/129/101 91/118/101 98/123/101
f 90/117/102 96/125/102 97/130/102
f 87/114/103 95/124/103 88/115/103
f 86/116/104 92/128/104 93/131/104
f 94/126/105 99/9/105 3/13/105
f 92/128/106 1/132/106 2/7/106
f 7/133/107 98/123/107 6/11/107
f 96/125/108 100/1/108 97/130/108
f 94/126/109 4/4/109 95/124/109
f 93/131/110 2/7/110 99/9/110
f 97/130/111 6/11/111 98/123/111
f 95/124/112 5/12/112 96/125/112
f 100/1/113 5/12/113 12/2/113
f 4/4/114 3/13/114 10/5/114
f 2/7/115 8/15/115 9/8/115
f 100/1/116 13/3/116 14/10/116
f 4/4/117 11/6/117 12/2/117
f 99/9/118 9/8/118 10/5/118
f 13/3/119 20/25/119 21/17/119
f 12/2/120 11/6/120 18/18/120
f 10/5/121 9/8/121 16/20/121
f 12/2/122 19/19/122 20/25/122
f 10/5/123 17/21/123 18/18/123
f 8/15/124 15/23/124 16/20/124
f 16/20/125 23/33/125 24/26/125
f 19/19/126 26/34/126 27/31/126
f 18/18/127 17/21/127 24/26/127
f 16/20/128 15/23/128 22/28/128
f 21/17/129 20/25/129 27/31/129
f 19/19/130 18/18/130 25/32/130
f 27/31/131 26/34/131 33/37/131
f 25/32/132 24/26/132 31/39/132
f 22/28/133 29/43/133 30/41/133
f 28/30/134 27/31/134 34/38/134
f 25/32/135 32/40/135 33/37/135
f 24/26/136 23/33/136 30/41/136
f 30/41/137 29/43/137 36/44/137
f 34/38/138 41/52/138 42/46/138
f 33/37/139 32/40/139 39/47/139
f 30/41/140 37/45/140 38/49/140
f 34/38/141 33/37/141 40/48/141
f 32/40/142 31/39/142 38/49/142
f 41/52/143 48/60/143 49/53/143
f 39/47/144 46/61/144 47/54/144
f 38/49/145 37/45/145 44/55/145
f 41/52/146 40/48/146 47/54/146
f 39/47/147 38/49/147 45/56/147
f 36/44/148 43/58/148 44/55/148
f 47/54/149 54/70/149 55/66/149
f 46/61/150 45/56/150 52/67/150
f 43/58/151 50/63/151 51/69/151
f 49/53/152 48/60/152 55/66/152
f 46/61/153 53/68/153 54/70/153
f 45/56/154 44/55/154 51/69/154
f 54/70/155 61/76/155 62/71/155
f 52/67/156 59/77/156 60/72/156
f 51/69/157 50/63/157 57/73/157
f 55/66/158 62/71/158 63/75/158
f 53/68/159 60/72/159 61/76/159
f 52/67/160 51/69/160 58/74/160
f 62/71/161 69/87/161 70/80/161
f 61/76/162 60/72/162 67/81/162
f 58/74/163 65/88/163 66/83/163
f 61/76/164 68/82/164 69/87/164
f 60/72/165 59/77/165 66/83/165
f 57/73/166 64/85/166 65/88/166
f 67/81/167 74/96/167 75/89/167
f 65/88/168 72/97/168 73/90/168
f 69/87/169 68/82/169 75/89/169
f 66/83/170 73/90/170 74/96/170
f 65/88/171 64/85/171 71/92/171
f 69/87/172 76/95/172 77/94/172
f 75/101/173 82/110/173 83/102/173
f 74/104/174 73/111/174 80/105/174
f 71/107/175 78/113/175 79/108/175
f 77/99/176 76/103/176 83/102/176
f 75/101/177 74/104/177 81/106/177
f 73/111/178 72/109/178 79/108/178
f 81/106/179 80/105/179 87/114/179
f 78/113/180 85/121/180 86/116/180
f 84/100/181 83/102/181 90/117/181
f 81/106/182 88/115/182 89/119/182
f 79/108/183 86/116/183 87/114/183
f 83/102/184 82/110/184 89/119/184
f 90/117/185 97/130/185 98/123/185
f 89/119/186 88/115/186 95/124/186
f 86/116/187 93/131/187 94/126/187
f 90/117/188 89/119/188 96/125/188
f 87/114/189 94/126/189 95/124/189
f 86/116/190 85/121/190 92/128/190
f 94/126/191 93/131/191 99/9/191
f 96/125/192 5/12/192 100/1/192
f 94/126/193 3/13/193 4/4/193
f 93/131/194 92/128/194 2/7/194
f 97/130/195 100/1/195 6/11/195
f 95/124/196 4/4/196 5/12/196
