# Blender 5.1.2
# www.blender.org
o debris_00
v 0.000000 0.533014 0.000000
v 0.000000 0.415166 -0.171968
v 0.000000 0.211054 -0.509530
v 0.000000 0.000000 -0.479150
v 0.000000 -0.177416 -0.428320
v 0.000000 -0.406304 -0.168297
v 0.000000 -0.487616 0.000000
v 0.079503 0.442369 -0.165089
v 0.154973 0.357175 -0.321804
v 0.195557 0.186691 -0.406078
v 0.190341 0.000000 -0.395246
v 0.161874 -0.154536 -0.336135
v 0.142057 -0.327407 -0.294983
v 0.093105 -0.518052 -0.193334
v 0.154211 0.476189 -0.122979
v 0.269241 0.344372 -0.214712
v 0.317278 0.168094 -0.253021
v 0.325388 0.000000 -0.259489
v 0.356062 -0.188642 -0.283950
v 0.313743 -0.401292 -0.250202
v 0.168543 -0.520442 -0.134408
v 0.172837 0.427996 -0.039449
v 0.322260 0.330547 -0.073554
v 0.401859 0.170736 -0.091722
v 0.534003 0.000000 -0.121883
v 0.471781 -0.200444 -0.107681
v 0.405852 -0.416289 -0.092633
v 0.181705 -0.449957 -0.041473
v 0.192180 0.475894 0.043864
v 0.326047 0.334432 0.074418
v 0.503163 0.213777 0.114844
v 0.438637 0.000000 0.100116
v 0.443061 -0.188242 0.101126
v 0.353502 -0.362593 0.080684
v 0.161411 -0.399702 0.036841
v 0.164204 0.507043 0.130948
v 0.315449 0.403474 0.251562
v 0.346580 0.183618 0.276388
v 0.425361 0.000000 0.339215
v 0.406111 -0.215157 0.323863
v 0.281909 -0.360575 0.224815
v 0.144646 -0.446650 0.115351
v 0.094040 0.523260 0.195277
v 0.147389 0.339697 0.306057
v 0.242557 0.231560 0.503674
v 0.261291 0.000000 0.542577
v 0.219180 -0.209243 0.455131
v 0.159546 -0.367715 0.331300
v 0.088591 -0.492940 0.183962
v -0.000000 0.417244 0.172828
v -0.000000 0.375214 0.375214
v -0.000000 0.185573 0.448014
v -0.000000 0.000000 0.470529
v -0.000000 -0.150403 0.363105
v -0.000000 -0.259224 0.259224
v -0.000000 -0.479547 0.198635
v -0.088783 0.494004 0.184359
v -0.143865 0.331575 0.298738
v -0.147339 0.140660 0.305953
v -0.235146 0.000000 0.488286
v -0.207006 -0.197621 0.429851
v -0.147479 -0.339904 0.306243
v -0.085097 -0.473495 0.176705
v -0.154517 0.477134 0.123224
v -0.296614 0.379384 0.236542
v -0.324102 0.171709 0.258462
v -0.414331 0.000000 0.330418
v -0.416955 -0.220902 0.332510
v -0.260020 -0.332579 0.207359
v -0.134999 -0.416863 0.107658
v -0.209495 0.518772 0.047816
v -0.313228 0.321283 0.071492
v -0.446328 0.189629 0.101871
v -0.508769 0.000000 0.116123
v -0.402068 -0.170825 0.091769
v -0.393715 -0.403841 0.089863
v -0.168640 -0.417602 0.038491
v -0.196245 0.485961 -0.044792
v -0.357549 0.366744 -0.081608
v -0.463810 0.197057 -0.105862
v -0.482650 0.000000 -0.110162
v -0.347962 -0.147837 -0.079420
v -0.353993 -0.363096 -0.080797
v -0.146212 -0.362064 -0.033372
v -0.150985 0.466225 -0.120406
v -0.275335 0.352167 -0.219573
v -0.380264 0.201463 -0.303250
v -0.368522 0.000000 -0.293887
v -0.370628 -0.196359 -0.295566
v -0.280800 -0.359157 -0.223931
v -0.094811 -0.292765 -0.075609
v -0.090228 0.502045 -0.187360
v -0.159910 0.368555 -0.332057
v -0.220020 0.210046 -0.456877
v -0.209779 0.000000 -0.435611
v -0.206921 -0.197540 -0.429676
v -0.146613 -0.337909 -0.304445
v -0.063669 -0.354267 -0.132210
v 0.000000 0.382922 -0.382922
v 0.000000 -0.373092 -0.373092
vn 0.4969 -0.3884 -0.7761
vn 0.4471 0.5305 -0.7202
vn -0.2272 0.8033 -0.5505
vn -0.7676 -0.5771 -0.2788
vn 0.5248 -0.2312 -0.8192
vn 0.4025 -0.0642 -0.9132
vn 0.2184 0.9647 -0.1474
vn -0.5478 -0.2797 -0.7885
vn -0.1111 -0.9885 0.1021
vn 0.1715 -0.1876 -0.9671
vn 0.7076 0.0612 -0.7039
vn 0.3760 0.8780 -0.2962
vn 0.5226 -0.5017 -0.6893
vn 0.2833 0.1685 -0.9441
vn 0.7582 0.3290 -0.5630
vn -0.0960 0.8523 -0.5142
vn 0.5243 0.8439 -0.1143
vn 0.7428 -0.5799 0.3346
vn 0.8248 0.2026 -0.5279
vn 0.7914 0.4422 -0.4222
vn 0.5442 0.7735 0.3249
vn 0.2882 -0.7822 0.5524
vn 0.8157 -0.2843 -0.5039
vn 0.4776 0.4976 -0.7241
vn 0.0369 -0.8367 0.5465
vn 0.9906 0.0240 0.1348
vn 0.5736 0.6990 -0.4270
vn 0.3504 0.7745 -0.5266
vn 0.2894 -0.7698 0.5690
vn 0.9023 -0.2512 0.3504
vn 0.7734 0.5399 0.3322
vn 0.5401 0.8408 -0.0359
vn 0.3244 0.9189 -0.2245
vn 0.5083 -0.7826 -0.3594
vn 0.7948 -0.4553 0.4012
vn 0.9114 0.4084 0.0506
vn 0.6696 0.7047 -0.2346
vn 0.2675 -0.8511 -0.4518
vn 0.9836 -0.0988 0.1512
vn 0.3948 0.7550 0.5236
vn 0.5266 -0.6376 0.5623
vn 0.6823 0.4811 0.5505
vn -0.0520 0.7245 0.6873
vn 0.7486 -0.6377 0.1814
vn 0.5689 -0.1091 0.8151
vn 0.6234 0.7723 0.1224
vn 0.1885 0.9812 -0.0418
vn 0.4329 -0.8706 -0.2337
vn -0.0073 -0.7602 0.6496
vn -0.4456 -0.5203 0.7285
vn -0.2766 0.7807 0.5604
vn -0.7304 0.5674 0.3801
vn -0.1428 -0.9889 0.0402
vn -0.6229 -0.5402 0.5658
vn -0.2640 0.1162 0.9575
vn 0.3145 0.9294 0.1930
vn 0.3673 -0.5406 0.7569
vn -0.6998 0.0397 0.7132
vn 0.6202 0.6517 0.4366
vn -0.0813 -0.9959 0.0405
vn 0.5197 -0.5899 0.6180
vn 0.0471 0.7798 0.6243
vn -0.3755 0.9075 0.1885
vn -0.2188 -0.7300 0.6475
vn -0.5842 -0.7816 -0.2189
vn -0.5110 -0.6755 0.5315
vn -0.5513 0.5519 0.6257
vn -0.0195 0.7690 0.6389
vn -0.8279 -0.5385 0.1567
vn -0.4218 0.0136 0.9066
vn -0.2525 0.0411 0.9667
vn -0.2984 0.9527 0.0579
vn -0.7673 0.5449 0.3381
vn -0.6553 0.7308 -0.1913
vn -0.4224 -0.8806 0.2148
vn -0.9982 0.0113 -0.0594
vn -0.5468 0.6690 0.5034
vn 0.0442 0.8878 0.4580
vn -0.3428 -0.9227 0.1766
vn -0.6509 -0.0295 0.7586
vn 0.1361 -0.8040 -0.5789
vn -0.6722 -0.6755 -0.3032
vn -0.6910 0.7180 0.0838
vn -0.1425 0.9264 -0.3486
vn -0.4155 -0.6524 -0.6339
vn -0.9717 -0.0329 -0.2340
vn -0.9466 0.3035 -0.1093
vn -0.6040 0.6992 0.3825
vn -0.7056 0.6491 -0.2842
vn -0.1477 0.9318 -0.3316
vn -0.1607 -0.4240 -0.8913
vn -0.8903 0.0278 -0.4545
vn -0.8458 0.0923 -0.5254
vn -0.4588 0.8126 -0.3593
vn 0.5847 -0.6919 -0.4235
vn -0.9947 0.0098 0.1021
vn -0.8970 -0.4417 -0.0136
vn -0.3697 -0.5375 -0.7579
vn -0.6642 -0.0733 -0.7440
vn -0.4618 0.8126 -0.3555
vn -0.2556 -0.7216 0.6434
vn -0.6336 0.0134 -0.7735
vn -0.5521 0.6349 -0.5404
vn -0.4491 0.8908 0.0690
vn -0.1356 0.9794 -0.1497
vn -0.5545 -0.8102 0.1901
vn 0.0095 -0.0299 -0.9995
vn -0.1797 0.6498 -0.7386
vn 0.6651 0.6160 -0.4221
vn -0.7008 -0.6423 -0.3103
vn -0.4584 -0.2414 -0.8553
vn -0.2020 -0.1084 -0.9734
vn 0.3902 -0.2536 -0.8851
vn 0.3897 0.4810 -0.7854
vn 0.5055 -0.2542 -0.8245
vn 0.4514 -0.1271 -0.8832
vn -0.2281 0.8051 -0.5475
vn 0.3758 -0.9148 -0.1483
vn 0.2103 -0.2492 -0.9454
vn 0.7779 -0.0580 -0.6257
vn 0.1345 0.6424 -0.7545
vn -0.0786 -0.6439 -0.7611
vn 0.6582 -0.3717 -0.6547
vn 0.6345 0.4586 -0.6222
vn 0.7961 0.5838 0.1593
vn 0.1112 -0.9811 -0.1584
vn 0.5366 -0.2242 -0.8135
vn 0.8991 0.3118 -0.3072
vn 0.8026 -0.2460 -0.5434
vn 0.8836 0.0605 -0.4643
vn 0.2164 -0.9122 0.3480
vn 0.8898 -0.2491 0.3823
vn 0.8930 0.4487 -0.0346
vn 0.8727 -0.4655 0.1472
vn 0.8901 -0.2421 -0.3861
vn 0.6881 0.5485 -0.4751
vn 0.7450 -0.6657 0.0431
vn 0.7171 -0.2610 0.6463
vn 0.7275 0.6860 -0.0116
vn 0.3947 -0.8948 0.2086
vn 0.9982 0.0238 0.0554
vn 0.9900 0.1407 0.0044
vn 0.3830 -0.7207 0.5779
vn 0.9112 0.1389 0.3878
vn 0.6378 0.5253 0.5633
vn 0.3186 -0.8972 0.3060
vn 0.7178 -0.3865 0.5791
vn 0.2553 0.1441 0.9561
vn -0.5244 -0.2258 0.8210
vn -0.2509 -0.3298 0.9101
vn 0.4644 0.3174 0.8268
vn -0.4455 -0.4411 0.7791
vn -0.2468 0.1411 0.9587
vn -0.5404 0.3140 0.7806
vn 0.0724 -0.2733 0.9592
vn -0.5176 0.3066 0.7988
vn 0.3672 -0.5177 0.7727
vn -0.7049 0.0854 0.7041
vn 0.4535 0.4052 0.7938
vn 0.4122 -0.2416 0.8785
vn -0.1584 -0.8270 0.5394
vn -0.0223 0.7967 0.6039
vn -0.6302 0.5784 0.5180
vn -0.3398 -0.8840 0.3212
vn -0.6303 -0.3013 0.7155
vn -0.3346 0.1426 0.9315
vn -0.7384 0.2889 0.6094
vn -0.6176 0.4052 0.6740
vn 0.0540 -0.8798 0.4722
vn -0.7746 -0.5325 0.3413
vn -0.9893 0.1364 0.0516
vn -0.6657 -0.7213 -0.1912
vn -0.1172 -0.9595 -0.2563
vn -0.8503 -0.5171 -0.0981
vn -0.8104 0.4546 0.3696
vn -0.9542 0.0286 -0.2977
vn -0.9919 0.0929 0.0868
vn -0.8648 0.4215 -0.2731
vn -0.7118 0.5141 -0.4785
vn -0.8926 -0.4108 0.1858
vn -0.9180 -0.0716 -0.3901
vn -0.4532 0.7580 -0.4691
vn 0.0101 -0.9997 -0.0224
vn -0.6365 -0.6622 -0.3954
vn -0.4599 -0.6930 -0.5553
vn -0.6851 -0.1064 -0.7206
vn -0.6957 0.6630 -0.2766
vn 0.0777 -0.9883 -0.1313
vn -0.6656 -0.0320 -0.7456
vn -0.5676 0.6648 -0.4856
vn 0.5588 0.4578 -0.6915
vn -0.2977 -0.9424 -0.1528
vn -0.1957 -0.2701 -0.9427
vn -0.2956 0.5666 -0.7692
vn 0.0680 -0.6478 -0.7588
vn -0.2299 -0.1387 -0.9633
vt 0.750000 0.375000
vt 0.678571 0.500000
vt 0.678571 0.375000
vt 0.750000 0.750000
vt 0.678571 0.625000
vt 0.750000 0.625000
vt 0.750000 0.875000
vt 0.714286 1.000000
vt 0.678571 0.875000
vt 0.714286 0.000000
vt 0.750000 0.125000
vt 0.678571 0.125000
vt 0.678571 0.250000
vt 0.750000 0.250000
vt 0.750000 0.500000
vt 0.678571 0.750000
vt 0.642857 0.000000
vt 0.607143 0.125000
vt 0.607143 0.375000
vt 0.607143 0.250000
vt 0.607143 0.625000
vt 0.607143 0.500000
vt 0.607143 0.750000
vt 0.642857 1.000000
vt 0.607143 0.875000
vt 0.535714 0.875000
vt 0.535714 0.750000
vt 0.535714 0.125000
vt 0.535714 0.375000
vt 0.535714 0.625000
vt 0.571429 1.000000
vt 0.571429 0.000000
vt 0.535714 0.250000
vt 0.535714 0.500000
vt 0.464286 0.250000
vt 0.464286 0.125000
vt 0.464286 0.500000
vt 0.464286 0.375000
vt 0.464286 0.750000
vt 0.464286 0.625000
vt 0.500000 1.000000
vt 0.464286 0.875000
vt 0.500000 0.000000
vt 0.428571 1.000000
vt 0.392857 0.875000
vt 0.428571 0.000000
vt 0.392857 0.125000
vt 0.392857 0.250000
vt 0.392857 0.625000
vt 0.392857 0.500000
vt 0.392857 0.750000
vt 0.392857 0.375000
vt 0.321429 0.375000
vt 0.321429 0.250000
vt 0.321429 0.500000
vt 0.321429 0.750000
vt 0.321429 0.125000
vt 0.321429 0.625000
vt 0.357143 1.000000
vt 0.321429 0.875000
vt 0.357143 0.000000
vt 0.250000 0.125000
vt 0.250000 0.500000
vt 0.250000 0.375000
vt 0.250000 0.625000
vt 0.285714 1.000000
vt 0.250000 0.875000
vt 0.285714 0.000000
vt 0.250000 0.250000
vt 0.250000 0.750000
vt 0.178571 0.375000
vt 0.178571 0.750000
vt 0.178571 0.625000
vt 0.214286 1.000000
vt 0.178571 0.875000
vt 0.214286 0.000000
vt 0.178571 0.125000
vt 0.178571 0.250000
vt 0.178571 0.500000
vt 0.142857 0.000000
vt 0.107143 0.125000
vt 0.107143 0.250000
vt 0.107143 0.625000
vt 0.107143 0.500000
vt 0.107143 0.875000
vt 0.107143 0.750000
vt 0.107143 0.375000
vt 0.142857 1.000000
vt 0.035714 0.500000
vt 0.035714 0.750000
vt 0.035714 0.125000
vt 0.035714 0.375000
vt 0.035714 0.625000
vt 0.071429 1.000000
vt 0.035714 0.875000
vt 0.071429 0.000000
vt 0.035714 0.250000
vt 1.035714 0.125000
vt 0.964286 0.250000
vt 0.964286 0.125000
vt 1.035714 0.375000
vt 0.964286 0.500000
vt 0.964286 0.375000
vt 1.035714 0.750000
vt 0.964286 0.625000
vt 1.035714 0.625000
vt 1.035714 0.875000
vt 1.000000 1.000000
vt 0.964286 0.875000
vt 1.000000 0.000000
vt 1.035714 0.250000
vt 1.035714 0.500000
vt 0.964286 0.750000
vt 0.892857 0.750000
vt 0.892857 0.625000
vt 0.928571 1.000000
vt 0.892857 0.875000
vt 0.928571 0.000000
vt 0.892857 0.125000
vt 0.892857 0.250000
vt 0.892857 0.500000
vt 0.892857 0.375000
vt 0.857143 0.000000
vt 0.821429 0.125000
vt 0.821428 0.250000
vt 0.821429 0.500000
vt 0.821428 0.750000
vt 0.821429 0.375000
vt 0.821429 0.625000
vt 0.857143 1.000000
vt 0.821429 0.875000
vt 0.785714 1.000000
vt 0.785714 0.000000
s 0
f 5/1/1 11/2/1 12/3/1
f 99/4/2 10/5/2 3/6/2
f 2/7/3 1/8/3 8/9/3
f 7/10/4 6/11/4 14/12/4
f 5/1/5 13/13/5 100/14/5
f 4/15/6 10/5/6 11/2/6
f 2/7/7 9/16/7 99/4/7
f 6/11/8 13/13/8 14/12/8
f 7/17/9 14/12/9 21/18/9
f 13/13/10 19/19/10 20/20/10
f 11/2/11 17/21/11 18/22/11
f 8/9/12 16/23/12 9/16/12
f 13/13/13 21/18/13 14/12/13
f 12/3/14 18/22/14 19/19/14
f 10/5/15 16/23/15 17/21/15
f 8/9/16 1/24/16 15/25/16
f 16/23/17 22/26/17 23/27/17
f 20/20/18 28/28/18 21/18/18
f 18/22/19 26/29/19 19/19/19
f 17/21/20 23/27/20 24/30/20
f 15/25/21 1/31/21 22/26/21
f 7/32/22 21/18/22 28/28/22
f 20/20/23 26/29/23 27/33/23
f 18/22/24 24/30/24 25/34/24
f 28/28/25 34/35/25 35/36/25
f 26/29/26 32/37/26 33/38/26
f 24/30/27 30/39/27 31/40/27
f 22/26/28 1/41/28 29/42/28
f 7/43/29 28/28/29 35/36/29
f 26/29/30 34/35/30 27/33/30
f 24/30/31 32/37/31 25/34/31
f 22/26/32 30/39/32 23/27/32
f 29/42/33 1/44/33 36/45/33
f 7/46/34 35/36/34 42/47/34
f 33/38/35 41/48/35 34/35/35
f 32/37/36 38/49/36 39/50/36
f 30/39/37 36/45/37 37/51/37
f 34/35/38 42/47/38 35/36/38
f 33/38/39 39/50/39 40/52/39
f 30/39/40 38/49/40 31/40/40
f 41/48/41 47/53/41 48/54/41
f 38/49/42 46/55/42 39/50/42
f 36/45/43 44/56/43 37/51/43
f 42/47/44 48/54/44 49/57/44
f 39/50/45 47/53/45 40/52/45
f 38/49/46 44/56/46 45/58/46
f 36/45/47 1/59/47 43/60/47
f 7/61/48 42/47/48 49/57/48
f 48/54/49 56/62/49 49/57/49
f 47/53/50 53/63/50 54/64/50
f 44/56/51 52/65/51 45/58/51
f 43/60/52 1/66/52 50/67/52
f 7/68/53 49/57/53 56/62/53
f 48/54/54 54/64/54 55/69/54
f 46/55/55 52/65/55 53/63/55
f 44/56/56 50/67/56 51/70/56
f 53/63/57 61/71/57 54/64/57
f 52/65/58 58/72/58 59/73/58
f 50/67/59 1/74/59 57/75/59
f 7/76/60 56/62/60 63/77/60
f 54/64/61 62/78/61 55/69/61
f 53/63/62 59/73/62 60/79/62
f 50/67/63 58/72/63 51/70/63
f 56/62/64 62/78/64 63/77/64
f 7/80/65 63/77/65 70/81/65
f 61/71/66 69/82/66 62/78/66
f 60/79/67 66/83/67 67/84/67
f 58/72/68 64/85/68 65/86/68
f 62/78/69 70/81/69 63/77/69
f 61/71/70 67/84/70 68/87/70
f 58/72/71 66/83/71 59/73/71
f 57/75/72 1/88/72 64/85/72
f 66/83/73 74/89/73 67/84/73
f 64/85/74 72/90/74 65/86/74
f 69/82/75 77/91/75 70/81/75
f 67/84/76 75/92/76 68/87/76
f 66/83/77 72/90/77 73/93/77
f 64/85/78 1/94/78 71/95/78
f 7/96/79 70/81/79 77/91/79
f 69/82/80 75/92/80 76/97/80
f 77/98/81 83/99/81 84/100/81
f 75/101/82 81/102/82 82/103/82
f 72/104/83 80/105/83 73/106/83
f 71/107/84 1/108/84 78/109/84
f 7/110/85 77/98/85 84/100/85
f 75/101/86 83/99/86 76/111/86
f 73/106/87 81/102/87 74/112/87
f 72/104/88 78/109/88 79/113/88
f 80/105/89 86/114/89 87/115/89
f 78/109/90 1/116/90 85/117/90
f 7/118/91 84/100/91 91/119/91
f 82/103/92 90/120/92 83/99/92
f 80/105/93 88/121/93 81/102/93
f 79/113/94 85/117/94 86/114/94
f 84/100/95 90/120/95 91/119/95
f 82/103/96 88/121/96 89/122/96
f 7/123/97 91/119/97 98/124/97
f 89/122/98 97/125/98 90/120/98
f 87/115/99 95/126/99 88/121/99
f 85/117/100 93/127/100 86/114/100
f 90/120/101 98/124/101 91/119/101
f 88/121/102 96/128/102 89/122/102
f 87/115/103 93/127/103 94/129/103
f 85/117/104 1/130/104 92/131/104
f 93/127/105 2/7/105 99/4/105
f 97/125/106 6/11/106 98/124/106
f 95/126/107 5/1/107 96/128/107
f 93/127/108 3/6/108 94/129/108
f 92/131/109 1/132/109 2/7/109
f 7/133/110 98/124/110 6/11/110
f 97/125/111 5/1/111 100/14/111
f 94/129/112 4/15/112 95/126/112
f 5/1/113 4/15/113 11/2/113
f 99/4/114 9/16/114 10/5/114
f 5/1/115 12/3/115 13/13/115
f 4/15/116 3/6/116 10/5/116
f 2/7/117 8/9/117 9/16/117
f 6/11/118 100/14/118 13/13/118
f 13/13/119 12/3/119 19/19/119
f 11/2/120 10/5/120 17/21/120
f 8/9/121 15/25/121 16/23/121
f 13/13/122 20/20/122 21/18/122
f 12/3/123 11/2/123 18/22/123
f 10/5/124 9/16/124 16/23/124
f 16/23/125 15/25/125 22/26/125
f 20/20/126 27/33/126 28/28/126
f 18/22/127 25/34/127 26/29/127
f 17/21/128 16/23/128 23/27/128
f 20/20/129 19/19/129 26/29/129
f 18/22/130 17/21/130 24/30/130
f 28/28/131 27/33/131 34/35/131
f 26/29/132 25/34/132 32/37/132
f 24/30/133 23/27/133 30/39/133
f 26/29/134 33/38/134 34/35/134
f 24/30/135 31/40/135 32/37/135
f 22/26/136 29/42/136 30/39/136
f 33/38/137 40/52/137 41/48/137
f 32/37/138 31/40/138 38/49/138
f 30/39/139 29/42/139 36/45/139
f 34/35/140 41/48/140 42/47/140
f 33/38/141 32/37/141 39/50/141
f 30/39/142 37/51/142 38/49/142
f 41/48/143 40/52/143 47/53/143
f 38/49/144 45/58/144 46/55/144
f 36/45/145 43/60/145 44/56/145
f 42/47/146 41/48/146 48/54/146
f 39/50/147 46/55/147 47/53/147
f 38/49/148 37/51/148 44/56/148
f 48/54/149 55/69/149 56/62/149
f 47/53/150 46/55/150 53/63/150
f 44/56/151 51/70/151 52/65/151
f 48/54/152 47/53/152 54/64/152
f 46/55/153 45/58/153 52/65/153
f 44/56/154 43/60/154 50/67/154
f 53/63/155 60/79/155 61/71/155
f 52/65/156 51/70/156 58/72/156
f 54/64/157 61/71/157 62/78/157
f 53/63/158 52/65/158 59/73/158
f 50/67/159 57/75/159 58/72/159
f 56/62/160 55/69/160 62/78/160
f 61/71/161 68/87/161 69/82/161
f 60/79/162 59/73/162 66/83/162
f 58/72/163 57/75/163 64/85/163
f 62/78/164 69/82/164 70/81/164
f 61/71/165 60/79/165 67/84/165
f 58/72/166 65/86/166 66/83/166
f 66/83/167 73/93/167 74/89/167
f 64/85/168 71/95/168 72/90/168
f 69/82/169 76/97/169 77/91/169
f 67/84/170 74/89/170 75/92/170
f 66/83/171 65/86/171 72/90/171
f 69/82/172 68/87/172 75/92/172
f 77/98/173 76/111/173 83/99/173
f 75/101/174 74/112/174 81/102/174
f 72/104/175 79/113/175 80/105/175
f 75/101/176 82/103/176 83/99/176
f 73/106/177 80/105/177 81/102/177
f 72/104/178 71/107/178 78/109/178
f 80/105/179 79/113/179 86/114/179
f 82/103/180 89/122/180 90/120/180
f 80/105/181 87/115/181 88/121/181
f 79/113/182 78/109/182 85/117/182
f 84/100/183 83/99/183 90/120/183
f 82/103/184 81/102/184 88/121/184
f 89/122/185 96/128/185 97/125/185
f 87/115/186 94/129/186 95/126/186
f 85/117/187 92/131/187 93/127/187
f 90/120/188 97/125/188 98/124/188
f 88/121/189 95/126/189 96/128/189
f 87/115/190 86/114/190 93/127/190
f 93/127/191 92/131/191 2/7/191
f 97/125/192 100/14/192 6/11/192
f 95/126/193 4/15/193 5/1/193
f 93/127/194 99/4/194 3/6/194
f 97/125/195 96/128/195 5/1/195
f 94/129/196 3/6/196 4/15/196
