# Blender 5.1.2
# www.blender.org
o debris_03
v 0.000000 0.448813 0.000000
v 0.000000 0.468587 -0.194095
v 0.000000 0.180653 -0.436134
v 0.000000 0.000000 -0.475655
v 0.000000 -0.168289 -0.406286
v 0.000000 -0.409799 -0.169744
v 0.000000 -0.517998 0.000000
v 0.079499 0.442347 -0.165081
v 0.149617 0.344832 -0.310683
v 0.179352 0.171221 -0.372428
v 0.203277 0.000000 -0.422108
v 0.180316 -0.172141 -0.374430
v 0.131306 -0.302629 -0.272660
v 0.059353 -0.330253 -0.123248
v 0.140892 0.435059 -0.112357
v 0.233479 0.298631 -0.186193
v 0.337658 0.178891 -0.269273
v 0.371508 0.000000 -0.296268
v 0.397159 -0.210414 -0.316724
v 0.238689 -0.305295 -0.190348
v 0.127007 -0.392185 -0.101285
v 0.180481 0.446926 -0.041194
v 0.332195 0.340739 -0.075821
v 0.440462 0.187137 -0.100533
v 0.460643 0.000000 -0.105139
v 0.416188 -0.176824 -0.094992
v 0.357332 -0.366521 -0.081559
v 0.152055 -0.376534 -0.034706
v 0.192048 0.475569 0.043834
v 0.342637 0.351449 0.078205
v 0.506939 0.215381 0.115705
v 0.456810 0.000000 0.104264
v 0.435172 -0.184890 0.099325
v 0.315040 -0.323142 0.071906
v 0.143484 -0.355310 0.032749
v 0.146322 0.451826 0.116688
v 0.270219 0.345623 0.215492
v 0.381498 0.202117 0.304234
v 0.349851 0.000000 0.278997
v 0.351014 -0.185967 0.279925
v 0.260332 -0.332977 0.207608
v 0.147194 -0.454521 0.117384
v 0.088285 0.491233 0.183325
v 0.173824 0.400624 0.360950
v 0.254436 0.242902 0.528343
v 0.209489 0.000000 0.435008
v 0.177235 -0.169200 0.368032
v 0.160985 -0.371032 0.334289
v 0.076428 -0.425263 0.158705
v -0.000000 0.472994 0.195921
v -0.000000 0.378851 0.378851
v -0.000000 0.208173 0.502574
v -0.000000 0.000000 0.516255
v -0.000000 -0.181801 0.438907
v -0.000000 -0.314196 0.314196
v -0.000000 -0.458976 0.190114
v -0.090128 0.501487 0.187152
v -0.157478 0.362950 0.327007
v -0.177159 0.169127 0.367874
v -0.196375 0.000000 0.407776
v -0.156925 -0.149811 0.325858
v -0.121281 -0.279525 0.251843
v -0.082185 -0.457291 0.170658
v -0.162320 0.501226 0.129446
v -0.318716 0.407653 0.254167
v -0.356499 0.188873 0.284299
v -0.304744 0.000000 0.243025
v -0.257242 -0.136286 0.205143
v -0.206549 -0.264185 0.164717
v -0.149132 -0.460504 0.118929
v -0.214942 0.532261 0.049059
v -0.363140 0.372479 0.082884
v -0.502531 0.213508 0.114699
v -0.511889 0.000000 0.116835
v -0.460516 -0.195658 0.105110
v -0.323730 -0.332056 0.073889
v -0.180530 -0.447047 0.041205
v -0.184030 0.455713 -0.042004
v -0.326064 0.334449 -0.074422
v -0.463948 0.197116 -0.105893
v -0.475970 0.000000 -0.108637
v -0.506780 -0.215314 -0.115669
v -0.369148 -0.378641 -0.084256
v -0.190691 -0.472209 -0.043524
v -0.144118 0.445021 -0.114930
v -0.229453 0.293482 -0.182983
v -0.330578 0.175140 -0.263627
v -0.365459 0.000000 -0.291444
v -0.395705 -0.209644 -0.315565
v -0.269909 -0.345227 -0.215245
v -0.137562 -0.424776 -0.109702
v -0.088685 0.493460 -0.184156
v -0.125894 0.290155 -0.261421
v -0.231337 0.220849 -0.480376
v -0.193784 0.000000 -0.402397
v -0.218938 -0.209013 -0.454630
v -0.180427 -0.415842 -0.374661
v -0.087665 -0.487784 -0.182038
v 0.000000 0.285288 -0.285288
v 0.000000 -0.318639 -0.318639
vn 0.8405 -0.4569 -0.2912
vn 0.3420 -0.4733 -0.8118
vn 0.2429 0.3015 -0.9220
vn -0.3765 0.6757 -0.6338
vn 0.7150 -0.6631 0.2217
vn 0.1610 -0.2833 -0.9454
vn 0.2386 0.7979 -0.5535
vn 0.2797 0.9551 0.0973
vn 0.6593 0.7318 -0.1726
vn -0.2288 -0.5377 -0.8115
vn 0.2759 0.1263 -0.9529
vn 0.3534 0.7210 -0.5960
vn 0.1071 0.9942 0.0127
vn -0.1816 -0.4989 -0.8474
vn 0.4533 -0.6478 -0.6123
vn 0.5711 0.3013 -0.7635
vn 0.5958 -0.8023 -0.0356
vn 0.9860 0.1303 -0.1044
vn 0.5551 0.7428 -0.3745
vn -0.0242 0.9882 -0.1513
vn 0.6694 -0.7387 -0.0782
vn 0.5873 -0.2370 -0.7739
vn 0.8822 0.2290 -0.4114
vn 0.4360 0.6389 -0.6338
vn -0.0611 0.9484 -0.3112
vn 0.6859 -0.6646 0.2963
vn 0.9098 -0.2593 0.3240
vn 0.9941 0.1068 0.0182
vn 0.5562 0.8256 -0.0951
vn 0.1062 -0.9446 0.3107
vn 0.9884 -0.1130 -0.1013
vn 0.6487 0.7031 -0.2913
vn 0.7582 -0.5968 0.2624
vn 0.8365 -0.1949 0.5121
vn 0.4801 0.8284 0.2884
vn 0.7908 -0.3798 -0.4799
vn 0.9064 0.0078 0.4224
vn 0.5272 0.7478 0.4034
vn -0.1800 0.9629 0.2008
vn 0.6653 -0.4700 -0.5801
vn 0.1450 -0.6732 0.7251
vn 0.4528 0.0073 0.8916
vn 0.7023 0.6550 0.2790
vn 0.2429 0.9128 -0.3282
vn -0.0481 -0.8522 0.5211
vn 0.7995 -0.1611 0.5786
vn 0.7290 -0.1960 0.6559
vn 0.6097 0.7854 0.1070
vn 0.3645 -0.4020 0.8400
vn -0.1650 0.6769 0.7173
vn -0.2172 0.9688 -0.1196
vn 0.4773 -0.8392 0.2605
vn -0.1740 -0.1487 0.9734
vn 0.3609 0.0612 0.9306
vn -0.0608 0.8770 0.4766
vn 0.5139 -0.5582 0.6514
vn -0.0894 -0.9512 0.2953
vn -0.5028 -0.5285 0.6841
vn -0.4678 0.2530 0.8469
vn -0.2338 0.8645 0.4449
vn -0.1896 -0.6389 0.7455
vn -0.5700 -0.5047 0.6484
vn -0.5974 0.4707 0.6493
vn 0.3097 0.9437 -0.1165
vn -0.8152 0.2191 0.5362
vn -0.0322 0.8185 0.5736
vn -0.5339 -0.4456 0.7186
vn -0.7244 -0.4071 0.5564
vn -0.3906 0.2277 0.8920
vn 0.1547 0.9679 -0.1979
vn -0.1574 -0.9519 0.2628
vn -0.6611 -0.5006 0.5589
vn -0.8932 -0.3320 0.3033
vn -0.3264 -0.3570 0.8752
vn -0.5587 0.6037 0.5687
vn 0.3807 0.9187 0.1054
vn -0.3682 -0.9297 -0.0122
vn -0.3946 -0.4155 0.8196
vn -0.4942 -0.3127 0.8112
vn -0.5336 0.8450 -0.0351
vn -0.7572 0.6281 -0.1791
vn 0.1664 0.7819 -0.6008
vn -0.2875 -0.9082 0.3042
vn -0.6082 -0.6969 0.3800
vn -0.9856 0.0623 -0.1570
vn -0.5727 0.7557 -0.3177
vn -0.5557 -0.7765 0.2972
vn -0.9724 0.1329 0.1919
vn -0.0512 -0.7918 -0.6086
vn -0.5656 -0.5878 -0.5784
vn -0.8297 0.2449 -0.5016
vn -0.4935 0.5721 -0.6551
vn -0.0145 -0.8071 -0.5902
vn -0.8672 0.1397 -0.4779
vn -0.5295 0.6551 -0.5390
vn 0.0626 0.9918 -0.1112
vn -0.4841 0.5705 -0.6634
vn -0.6256 -0.7484 0.2204
vn -0.6090 0.1768 -0.7732
vn -0.4891 0.8713 -0.0402
vn -0.3129 0.8775 0.3634
vn -0.6506 -0.7349 0.1913
vn -0.8819 -0.3036 -0.3606
vn -0.5276 0.2348 -0.8164
vn 0.6395 -0.6556 -0.4014
vn 0.1713 0.2194 -0.9605
vn 0.2298 0.8906 -0.3926
vn 0.2789 0.9554 0.0973
vn 0.6366 -0.6503 -0.4145
vn 0.4117 -0.2609 -0.8732
vn -0.3464 0.2005 -0.9164
vn -0.1508 0.4403 -0.8851
vn 0.1207 -0.6383 -0.7603
vn 0.3372 0.2012 -0.9197
vn 0.4282 0.4025 -0.8091
vn 0.2757 -0.8198 -0.5019
vn 0.2366 -0.3703 -0.8983
vn -0.2684 0.2817 -0.9212
vn 0.5364 0.6532 -0.5343
vn 0.0842 -0.9863 -0.1418
vn 0.5735 -0.2888 -0.7666
vn 0.8385 0.3043 -0.4519
vn 0.0141 -0.8080 -0.5890
vn 0.5245 0.2232 -0.8216
vn -0.0571 -0.8954 -0.4416
vn 0.8788 -0.2445 -0.4098
vn 0.5461 0.4938 -0.6768
vn 0.5569 -0.8270 0.0775
vn 0.8471 0.1042 -0.5212
vn 0.4660 0.7934 -0.3915
vn 0.7608 -0.6411 -0.1009
vn 0.9427 -0.2054 -0.2630
vn 0.6449 0.6934 -0.3213
vn 0.1145 -0.9473 0.2993
vn 0.9699 -0.2428 0.0178
vn 0.8064 0.5837 -0.0953
vn 0.6846 -0.6573 0.3151
vn 0.8194 -0.2189 0.5298
vn 0.4668 0.7117 0.5249
vn 0.1837 -0.9830 0.0028
vn 0.8474 -0.1130 0.5187
vn 0.6189 0.7001 0.3562
vn 0.4327 -0.8989 0.0693
vn 0.6887 -0.3766 0.6196
vn 0.7049 0.6772 0.2111
vn 0.3265 -0.5717 0.7527
vn 0.7894 -0.3420 0.5098
vn 0.6155 0.7849 0.0719
vn 0.3361 -0.3687 0.8666
vn 0.0099 0.5869 0.8096
vn 0.3218 -0.6492 0.6892
vn -0.0469 -0.3507 0.9353
vn -0.1176 0.8830 0.4544
vn -0.3480 -0.8353 0.4256
vn -0.5533 -0.5712 0.6064
vn -0.6117 0.0519 0.7894
vn 0.1404 0.6688 0.7301
vn -0.5068 -0.4479 0.7366
vn -0.4531 -0.3490 0.8203
vn -0.3251 0.2266 0.9181
vn -0.4297 -0.3036 0.8504
vn -0.4234 0.7373 0.5264
vn -0.6996 -0.3499 0.6230
vn -0.7411 -0.4617 0.4875
vn -0.3606 0.1881 0.9136
vn -0.7103 -0.4521 0.5396
vn -0.2759 -0.5646 0.7779
vn -0.5113 -0.1846 0.8393
vn -0.9585 0.1943 0.2087
vn -0.2760 -0.4688 0.8391
vn -0.7543 0.0396 0.6553
vn -0.5297 0.6150 0.5842
vn -0.6311 0.7068 -0.3196
vn -0.7668 -0.6049 0.2145
vn -0.9837 0.0414 -0.1751
vn -0.6415 0.4659 -0.6094
vn -0.4962 -0.7838 0.3734
vn -0.9581 -0.2424 -0.1526
vn -0.5569 -0.7617 -0.3311
vn -0.7586 0.0553 -0.6492
vn -0.5391 0.7393 -0.4035
vn -0.3281 -0.8256 -0.4591
vn -0.8418 0.1800 -0.5089
vn -0.3644 0.7166 -0.5947
vn -0.8361 0.3219 -0.4443
vn -0.6164 -0.7874 0.0028
vn -0.5233 0.2653 -0.8098
vn -0.4011 0.7246 -0.5604
vn -0.4032 -0.7558 -0.5159
vn -0.8413 -0.3015 -0.4488
vn 0.5254 -0.6826 -0.5080
vn -0.3299 -0.3598 -0.8728
vn -0.0761 0.8193 -0.5683
vn 0.2736 -0.4844 -0.8310
vn 0.1261 -0.3112 -0.9420
vn -0.0049 0.3560 -0.9345
vt 0.714286 0.000000
vt 0.750000 0.125000
vt 0.678571 0.125000
vt 0.750000 0.375000
vt 0.678571 0.250000
vt 0.750000 0.250000
vt 0.750000 0.500000
vt 0.678571 0.625000
vt 0.678571 0.500000
vt 0.750000 0.750000
vt 0.678571 0.875000
vt 0.678571 0.750000
vt 0.678571 0.375000
vt 0.750000 0.625000
vt 0.750000 0.875000
vt 0.714286 1.000000
vt 0.607143 0.750000
vt 0.607143 0.250000
vt 0.607143 0.125000
vt 0.607143 0.500000
vt 0.607143 0.375000
vt 0.607143 0.625000
vt 0.642857 1.000000
vt 0.607143 0.875000
vt 0.642857 0.000000
vt 0.535714 0.125000
vt 0.535714 0.375000
vt 0.535714 0.625000
vt 0.571429 1.000000
vt 0.535714 0.875000
vt 0.571429 0.000000
vt 0.535714 0.250000
vt 0.535714 0.500000
vt 0.535714 0.750000
vt 0.500000 1.000000
vt 0.464286 0.875000
vt 0.500000 0.000000
vt 0.464286 0.125000
vt 0.464286 0.250000
vt 0.464286 0.500000
vt 0.464286 0.750000
vt 0.464286 0.375000
vt 0.464286 0.625000
vt 0.392857 0.375000
vt 0.392857 0.250000
vt 0.392857 0.625000
vt 0.392857 0.500000
vt 0.392857 0.875000
vt 0.392857 0.750000
vt 0.392857 0.125000
vt 0.428571 1.000000
vt 0.428571 0.000000
vt 0.321429 0.125000
vt 0.321429 0.375000
vt 0.321429 0.750000
vt 0.321429 0.625000
vt 0.357143 1.000000
vt 0.321429 0.875000
vt 0.357143 0.000000
vt 0.321429 0.250000
vt 0.321429 0.500000
vt 0.250000 0.375000
vt 0.250000 0.625000
vt 0.285714 1.000000
vt 0.250000 0.875000
vt 0.285714 0.000000
vt 0.250000 0.125000
vt 0.250000 0.250000
vt 0.250000 0.500000
vt 0.250000 0.750000
vt 0.214286 0.000000
vt 0.178571 0.125000
vt 0.178571 0.375000
vt 0.178571 0.250000
vt 0.178571 0.625000
vt 0.178571 0.500000
vt 0.178571 0.750000
vt 0.214286 1.000000
vt 0.178571 0.875000
vt 0.107143 0.500000
vt 0.107143 0.875000
vt 0.107143 0.750000
vt 0.107143 0.125000
vt 0.107143 0.375000
vt 0.107143 0.625000
vt 0.142857 1.000000
vt 0.142857 0.000000
vt 0.107143 0.250000
vt 0.035714 0.125000
vt 0.035714 0.375000
vt 0.035714 0.750000
vt 0.035714 0.625000
vt 0.071429 1.000000
vt 0.035714 0.875000
vt 0.071429 0.000000
vt 0.035714 0.250000
vt 0.035714 0.500000
vt 1.035714 0.750000
vt 0.964286 0.625000
vt 1.035714 0.625000
vt 1.035714 0.875000
vt 1.000000 1.000000
vt 0.964286 0.875000
vt 1.000000 0.000000
vt 1.035714 0.125000
vt 0.964286 0.125000
vt 1.035714 0.375000
vt 0.964286 0.250000
vt 1.035714 0.250000
vt 1.035714 0.500000
vt 0.964286 0.500000
vt 0.964286 0.750000
vt 0.964286 0.375000
vt 0.928571 0.000000
vt 0.892857 0.125000
vt 0.892857 0.250000
vt 0.892857 0.625000
vt 0.892857 0.500000
vt 0.892857 0.875000
vt 0.892857 0.750000
vt 0.892857 0.375000
vt 0.928571 1.000000
vt 0.821428 0.750000
vt 0.821429 0.125000
vt 0.821429 0.375000
vt 0.821429 0.625000
vt 0.857143 1.000000
vt 0.821429 0.875000
vt 0.857143 0.000000
vt 0.821428 0.250000
vt 0.821429 0.500000
vt 0.785714 1.000000
vt 0.785714 0.000000
s 0
f 7/1/1 6/2/1 14/3/1
f 5/4/2 13/5/2 100/6/2
f 4/7/3 10/8/3 11/9/3
f 99/10/4 8/11/4 9/12/4
f 6/2/5 13/5/5 14/3/5
f 5/4/6 11/9/6 12/13/6
f 99/10/7 10/8/7 3/14/7
f 2/15/8 1/16/8 8/11/8
f 8/11/9 16/17/9 9/12/9
f 14/3/10 20/18/10 21/19/10
f 12/13/11 18/20/11 19/21/11
f 10/8/12 16/17/12 17/22/12
f 8/11/13 1/23/13 15/24/13
f 7/25/14 14/3/14 21/19/14
f 12/13/15 20/18/15 13/5/15
f 10/8/16 18/20/16 11/9/16
f 20/18/17 28/26/17 21/19/17
f 18/20/18 26/27/18 19/21/18
f 16/17/19 24/28/19 17/22/19
f 15/24/20 1/29/20 22/30/20
f 7/31/21 21/19/21 28/26/21
f 20/18/22 26/27/22 27/32/22
f 17/22/23 25/33/23 18/20/23
f 15/24/24 23/34/24 16/17/24
f 22/30/25 1/35/25 29/36/25
f 7/37/26 28/26/26 35/38/26
f 26/27/27 34/39/27 27/32/27
f 24/28/28 32/40/28 25/33/28
f 22/30/29 30/41/29 23/34/29
f 28/26/30 34/39/30 35/38/30
f 26/27/31 32/40/31 33/42/31
f 24/28/32 30/41/32 31/43/32
f 34/39/33 40/44/33 41/45/33
f 32/40/34 38/46/34 39/47/34
f 30/41/35 36/48/35 37/49/35
f 35/38/36 41/45/36 42/50/36
f 33/42/37 39/47/37 40/44/37
f 30/41/38 38/46/38 31/43/38
f 29/36/39 1/51/39 36/48/39
f 7/52/40 35/38/40 42/50/40
f 41/45/41 49/53/41 42/50/41
f 39/47/42 47/54/42 40/44/42
f 38/46/43 44/55/43 45/56/43
f 36/48/44 1/57/44 43/58/44
f 7/59/45 42/50/45 49/53/45
f 41/45/46 47/54/46 48/60/46
f 38/46/47 46/61/47 39/47/47
f 37/49/48 43/58/48 44/55/48
f 46/61/49 54/62/49 47/54/49
f 44/55/50 52/63/50 45/56/50
f 43/58/51 1/64/51 50/65/51
f 7/66/52 49/53/52 56/67/52
f 47/54/53 55/68/53 48/60/53
f 46/61/54 52/63/54 53/69/54
f 43/58/55 51/70/55 44/55/55
f 49/53/56 55/68/56 56/67/56
f 7/71/57 56/67/57 63/72/57
f 55/68/58 61/73/58 62/74/58
f 53/69/59 59/75/59 60/76/59
f 50/65/60 58/77/60 51/70/60
f 55/68/61 63/72/61 56/67/61
f 54/62/62 60/76/62 61/73/62
f 51/70/63 59/75/63 52/63/63
f 50/65/64 1/78/64 57/79/64
f 59/75/65 67/80/65 60/76/65
f 58/77/66 64/81/66 65/82/66
f 62/74/67 70/83/67 63/72/67
f 61/73/68 67/80/68 68/84/68
f 58/77/69 66/85/69 59/75/69
f 57/79/70 1/86/70 64/81/70
f 7/87/71 63/72/71 70/83/71
f 61/73/72 69/88/72 62/74/72
f 69/88/73 77/89/73 70/83/73
f 67/80/74 75/90/74 68/84/74
f 66/85/75 72/91/75 73/92/75
f 64/81/76 1/93/76 71/94/76
f 7/95/77 70/83/77 77/89/77
f 68/84/78 76/96/78 69/88/78
f 66/85/79 74/97/79 67/80/79
f 64/81/80 72/91/80 65/82/80
f 72/98/81 80/99/81 73/100/81
f 71/101/82 1/102/82 78/103/82
f 7/104/83 77/105/83 84/106/83
f 75/107/84 83/108/84 76/109/84
f 74/110/85 80/99/85 81/111/85
f 72/98/86 78/103/86 79/112/86
f 76/109/87 84/106/87 77/105/87
f 75/107/88 81/111/88 82/113/88
f 7/114/89 84/106/89 91/115/89
f 82/113/90 90/116/90 83/108/90
f 81/111/91 87/117/91 88/118/91
f 79/112/92 85/119/92 86/120/92
f 84/106/93 90/116/93 91/115/93
f 81/111/94 89/121/94 82/113/94
f 79/112/95 87/117/95 80/99/95
f 78/103/96 1/122/96 85/119/96
f 85/119/97 93/123/97 86/120/97
f 90/116/98 98/124/98 91/115/98
f 88/118/99 96/125/99 89/121/99
f 87/117/100 93/123/100 94/126/100
f 85/119/101 1/127/101 92/128/101
f 7/129/102 91/115/102 98/124/102
f 90/116/103 96/125/103 97/130/103
f 87/117/104 95/131/104 88/118/104
f 98/124/105 100/6/105 6/2/105
f 95/131/106 5/4/106 96/125/106
f 93/123/107 3/14/107 94/126/107
f 92/128/108 1/132/108 2/15/108
f 7/133/109 98/124/109 6/2/109
f 96/125/110 100/6/110 97/130/110
f 95/131/111 3/14/111 4/7/111
f 93/123/112 2/15/112 99/10/112
f 5/4/113 12/13/113 13/5/113
f 4/7/114 3/14/114 10/8/114
f 99/10/115 2/15/115 8/11/115
f 6/2/116 100/6/116 13/5/116
f 5/4/117 4/7/117 11/9/117
f 99/10/118 9/12/118 10/8/118
f 8/11/119 15/24/119 16/17/119
f 14/3/120 13/5/120 20/18/120
f 12/13/121 11/9/121 18/20/121
f 10/8/122 9/12/122 16/17/122
f 12/13/123 19/21/123 20/18/123
f 10/8/124 17/22/124 18/20/124
f 20/18/125 27/32/125 28/26/125
f 18/20/126 25/33/126 26/27/126
f 16/17/127 23/34/127 24/28/127
f 20/18/128 19/21/128 26/27/128
f 17/22/129 24/28/129 25/33/129
f 15/24/130 22/30/130 23/34/130
f 26/27/131 33/42/131 34/39/131
f 24/28/132 31/43/132 32/40/132
f 22/30/133 29/36/133 30/41/133
f 28/26/134 27/32/134 34/39/134
f 26/27/135 25/33/135 32/40/135
f 24/28/136 23/34/136 30/41/136
f 34/39/137 33/42/137 40/44/137
f 32/40/138 31/43/138 38/46/138
f 30/41/139 29/36/139 36/48/139
f 35/38/140 34/39/140 41/45/140
f 33/42/141 32/40/141 39/47/141
f 30/41/142 37/49/142 38/46/142
f 41/45/143 48/60/143 49/53/143
f 39/47/144 46/61/144 47/54/144
f 38/46/145 37/49/145 44/55/145
f 41/45/146 40/44/146 47/54/146
f 38/46/147 45/56/147 46/61/147
f 37/49/148 36/48/148 43/58/148
f 46/61/149 53/69/149 54/62/149
f 44/55/150 51/70/150 52/63/150
f 47/54/151 54/62/151 55/68/151
f 46/61/152 45/56/152 52/63/152
f 43/58/153 50/65/153 51/70/153
f 49/53/154 48/60/154 55/68/154
f 55/68/155 54/62/155 61/73/155
f 53/69/156 52/63/156 59/75/156
f 50/65/157 57/79/157 58/77/157
f 55/68/158 62/74/158 63/72/158
f 54/62/159 53/69/159 60/76/159
f 51/70/160 58/77/160 59/75/160
f 59/75/161 66/85/161 67/80/161
f 58/77/162 57/79/162 64/81/162
f 62/74/163 69/88/163 70/83/163
f 61/73/164 60/76/164 67/80/164
f 58/77/165 65/82/165 66/85/165
f 61/73/166 68/84/166 69/88/166
f 69/88/167 76/96/167 77/89/167
f 67/80/168 74/97/168 75/90/168
f 66/85/169 65/82/169 72/91/169
f 68/84/170 75/90/170 76/96/170
f 66/85/171 73/92/171 74/97/171
f 64/81/172 71/94/172 72/91/172
f 72/98/173 79/112/173 80/99/173
f 75/107/174 82/113/174 83/108/174
f 74/110/175 73/100/175 80/99/175
f 72/98/176 71/101/176 78/103/176
f 76/109/177 83/108/177 84/106/177
f 75/107/178 74/110/178 81/111/178
f 82/113/179 89/121/179 90/116/179
f 81/111/180 80/99/180 87/117/180
f 79/112/181 78/103/181 85/119/181
f 84/106/182 83/108/182 90/116/182
f 81/111/183 88/118/183 89/121/183
f 79/112/184 86/120/184 87/117/184
f 85/119/185 92/128/185 93/123/185
f 90/116/186 97/130/186 98/124/186
f 88/118/187 95/131/187 96/125/187
f 87/117/188 86/120/188 93/123/188
f 90/116/189 89/121/189 96/125/189
f 87/117/190 94/126/190 95/131/190
f 98/124/191 97/130/191 100/6/191
f 95/131/192 4/7/192 5/4/192
f 93/123/193 99/10/193 3/14/193
f 96/125/194 5/4/194 100/6/194
f 95/131/195 94/126/195 3/14/195
f 93/123/196 92/128/196 2/15/196
