# Blender 5.1.2
# www.blender.org
o debris_01
v 0.000000 0.486657 0.000000
v 0.000000 0.428585 -0.177526
v 0.000000 0.180829 -0.436559
v 0.000000 0.000000 -0.478982
v 0.000000 -0.182568 -0.440757
v 0.000000 -0.431511 -0.178738
v 0.000000 -0.454010 0.000000
v 0.095247 0.529974 -0.197783
v 0.190380 0.438781 -0.395328
v 0.154840 0.147821 -0.321529
v 0.205990 0.000000 -0.427743
v 0.195723 -0.186850 -0.406423
v 0.156817 -0.361426 -0.325634
v 0.089074 -0.495627 -0.184965
v 0.173083 0.534463 -0.138029
v 0.282504 0.361336 -0.225289
v 0.397858 0.210785 -0.317281
v 0.434010 0.000000 -0.346111
v 0.378949 -0.200767 -0.302201
v 0.287099 -0.367213 -0.228954
v 0.140668 -0.434368 -0.112179
v 0.226298 0.560381 -0.051651
v 0.392007 0.402088 -0.089473
v 0.430288 0.182815 -0.098210
v 0.496618 0.000000 -0.113350
v 0.513092 -0.217995 -0.117110
v 0.332370 -0.340918 -0.075861
v 0.186123 -0.460897 -0.042481
v 0.198784 0.492248 0.045371
v 0.390270 0.400307 0.089077
v 0.460742 0.195753 0.105161
v 0.500991 0.000000 0.114348
v 0.418891 -0.177973 0.095609
v 0.374584 -0.384217 0.085496
v 0.171416 -0.424477 0.039125
v 0.150005 0.463201 0.119625
v 0.239190 0.305935 0.190748
v 0.349551 0.185192 0.278758
v 0.369253 0.000000 0.294469
v 0.404500 -0.214304 0.322578
v 0.300464 -0.384308 0.239612
v 0.154212 -0.476191 0.122980
v 0.074314 0.413496 0.154314
v 0.133991 0.308818 0.278236
v 0.180077 0.171914 0.373935
v 0.215810 0.000000 0.448134
v 0.210679 -0.201128 0.437479
v 0.133817 -0.308416 0.277873
v 0.085655 -0.476602 0.177865
v -0.000000 0.494651 0.204891
v -0.000000 0.343060 0.343060
v -0.000000 0.137835 0.332764
v -0.000000 0.000000 0.543652
v -0.000000 -0.207893 0.501898
v -0.000000 -0.370728 0.370728
v -0.000000 -0.494633 0.204884
v -0.072895 0.405602 0.151368
v -0.157474 0.362941 0.326999
v -0.223118 0.213003 0.463310
v -0.211000 0.000000 0.438146
v -0.230344 -0.219901 0.478313
v -0.168025 -0.387257 0.348907
v -0.090130 -0.501498 0.187156
v -0.135638 0.418837 0.108168
v -0.317968 0.406696 0.253571
v -0.374811 0.198574 0.298902
v -0.440518 0.000000 0.351301
v -0.334912 -0.177436 0.267083
v -0.279322 -0.357267 0.222752
v -0.169317 -0.522834 0.135026
v -0.172493 0.427144 0.039370
v -0.373954 0.383571 0.085352
v -0.439630 0.186784 0.100343
v -0.502031 0.000000 0.114585
v -0.441502 -0.187579 0.100770
v -0.406302 -0.416751 0.092736
v -0.185234 -0.458694 0.042278
v -0.178737 0.442607 -0.040796
v -0.353562 0.362655 -0.080698
v -0.456982 0.194156 -0.104303
v -0.393512 0.000000 -0.089817
v -0.429066 -0.182295 -0.097932
v -0.392305 -0.402394 -0.089541
v -0.184261 -0.456284 -0.042056
v -0.134622 0.415697 -0.107357
v -0.259201 0.331530 -0.206706
v -0.445229 0.235882 -0.355058
v -0.403873 0.000000 -0.322078
v -0.441700 -0.234012 -0.352244
v -0.336722 -0.430684 -0.268527
v -0.159507 -0.492541 -0.127203
v -0.074160 0.412643 -0.153996
v -0.164341 0.378768 -0.341259
v -0.170517 0.162786 -0.354082
v -0.243982 0.000000 -0.506635
v -0.207812 -0.198391 -0.431527
v -0.165277 -0.380925 -0.343201
v -0.079339 -0.441459 -0.164750
v 0.000000 0.364331 -0.364331
v 0.000000 -0.330254 -0.330254
vn -0.3821 0.7552 -0.5326
vn -0.4367 -0.5365 -0.7221
vn 0.1689 -0.1209 -0.9782
vn 0.6098 0.2903 -0.7375
vn -0.7331 0.6464 -0.2115
vn -0.5859 -0.8041 -0.1012
vn -0.0545 -0.4093 -0.9108
vn 0.1903 0.6154 -0.7649
vn 0.4833 -0.1254 -0.8664
vn -0.1036 0.4596 -0.8821
vn -0.1611 0.9775 0.1365
vn 0.4239 -0.8183 0.3882
vn 0.5187 -0.4516 -0.7260
vn 0.3313 0.1834 -0.9255
vn 0.6672 0.7445 -0.0224
vn 0.8270 -0.5482 -0.1248
vn -0.1024 -0.9501 -0.2948
vn 0.8342 -0.5289 -0.1558
vn 0.9051 0.3486 -0.2435
vn 0.5081 0.6216 -0.5962
vn 0.4467 -0.6996 -0.5576
vn 0.8108 0.0713 -0.5810
vn 0.7824 0.6217 -0.0364
vn -0.3256 0.9419 -0.0820
vn 0.9394 0.3423 -0.0180
vn 0.4303 0.9026 0.0132
vn 0.6330 -0.6581 0.4078
vn 0.9169 0.0625 0.3943
vn 0.9371 0.3103 -0.1601
vn -0.1466 0.8286 0.5403
vn 0.0614 -0.9073 0.4160
vn 0.9370 -0.1868 -0.2953
vn 0.2729 -0.8429 -0.4638
vn 0.9808 0.1731 0.0899
vn 0.5257 0.7596 0.3829
vn -0.0967 0.9468 0.3069
vn 0.2529 -0.8458 -0.4697
vn 0.8811 -0.2101 0.4236
vn 0.7924 0.1901 0.5796
vn 0.2384 0.5092 0.8270
vn 0.2939 0.7237 0.6243
vn -0.2892 0.8035 0.5203
vn -0.0686 -0.9933 -0.0931
vn -0.2068 -0.7630 0.6125
vn 0.6448 0.4119 0.6439
vn 0.4090 0.7847 0.4659
vn 0.5277 -0.5407 0.6551
vn 0.5100 0.1938 0.8381
vn 0.1436 -0.9707 -0.1925
vn 0.5522 -0.7904 0.2654
vn 0.2353 0.8136 0.5317
vn 0.4216 0.7826 0.4580
vn 0.3366 -0.7544 0.5636
vn 0.2936 -0.0580 0.9542
vn -0.2811 0.4845 0.8284
vn 0.7289 0.6841 -0.0267
vn 0.0925 0.9564 0.2769
vn -0.0566 -0.7998 0.5976
vn -0.1097 0.1879 0.9760
vn 0.5596 0.4099 0.7203
vn -0.7661 0.6422 -0.0251
vn 0.1123 -0.9747 -0.1933
vn -0.0394 -0.6268 0.7782
vn -0.2639 0.8074 0.5277
vn -0.3203 -0.6008 0.7324
vn -0.8712 0.1613 0.4637
vn -0.5709 0.6749 0.4675
vn -0.1063 0.8970 0.4291
vn 0.3133 -0.9455 -0.0890
vn -0.7390 -0.3676 0.5646
vn -0.3326 0.3420 0.8789
vn 0.1423 0.9555 0.2583
vn -0.2633 0.9308 0.2535
vn -0.1054 -0.8263 -0.5533
vn -0.6791 -0.1296 0.7225
vn -0.9027 0.3606 0.2346
vn -0.1374 0.9864 -0.0899
vn -0.8607 -0.4758 -0.1813
vn -0.7960 -0.2958 0.5282
vn -0.9051 0.3231 0.2763
vn -0.9851 -0.1482 -0.0873
vn -0.8550 0.2510 -0.4539
vn -0.2417 0.9586 -0.1504
vn -0.2441 -0.9693 -0.0305
vn -0.9795 0.1935 -0.0562
vn -0.8544 0.5117 0.0909
vn -0.2777 0.9390 0.2028
vn 0.0188 -0.9994 -0.0283
vn -0.3025 -0.9055 0.2976
vn -0.9874 0.1574 0.0170
vn -0.5256 0.8429 0.1156
vn -0.1193 0.8905 -0.4391
vn -0.0736 -0.9251 0.3725
vn -0.8350 -0.5210 -0.1770
vn -0.9506 -0.3076 0.0424
vn -0.2925 0.8541 -0.4300
vn -0.3398 0.1741 -0.9242
vn 0.1888 0.7004 -0.6883
vn -0.2140 0.9167 -0.3375
vn 0.4242 -0.8643 -0.2701
vn -0.2285 -0.4820 -0.8458
vn -0.5467 0.6905 -0.4736
vn -0.4089 0.9120 0.0319
vn 0.3263 -0.8362 -0.4408
vn 0.1019 -0.9870 -0.1242
vn 0.1905 -0.3913 -0.9003
vn 0.0845 0.6608 -0.7458
vn 0.0572 0.9772 -0.2043
vn 0.0063 -0.8314 -0.5556
vn -0.0279 -0.2049 -0.9784
vn -0.4392 0.3290 -0.8360
vn -0.2899 0.9096 -0.2976
vn -0.7324 0.6438 -0.2214
vn -0.1473 -0.8224 -0.5496
vn 0.2366 -0.1991 -0.9510
vn -0.0648 -0.2379 -0.9691
vn 0.1263 -0.5943 -0.7943
vn 0.6111 0.1808 -0.7707
vn 0.3230 -0.2859 -0.9022
vn 0.8052 -0.2363 -0.5439
vn 0.3843 -0.5412 -0.7479
vn -0.1279 0.5492 -0.8259
vn 0.4582 0.6137 -0.6430
vn 0.1850 -0.9341 -0.3052
vn 0.4509 -0.7974 -0.4010
vn 0.9755 0.1839 -0.1209
vn 0.5228 0.6725 -0.5239
vn 0.4340 -0.9005 0.0263
vn 0.9193 -0.3062 -0.2473
vn 0.7456 0.1560 -0.6479
vn 0.9688 0.1918 -0.1573
vn 0.6371 0.5341 0.5558
vn 0.2527 -0.9159 -0.3119
vn 0.9086 -0.4173 -0.0174
vn 0.9851 0.1715 0.0113
vn 0.5770 -0.7173 0.3905
vn 0.4058 -0.8930 0.1946
vn 0.7403 -0.3985 0.5414
vn 0.4453 0.2216 0.8675
vn 0.8586 -0.5120 -0.0275
vn 0.8307 0.1342 0.5403
vn 0.2782 0.8184 0.5029
vn 0.5213 0.5998 0.6070
vn 0.3842 -0.5841 0.7150
vn 0.4784 0.1246 0.8692
vn 0.1038 0.4581 0.8828
vn -0.1451 -0.6806 0.7181
vn 0.7065 -0.0554 0.7055
vn 0.2501 -0.6074 0.7540
vn -0.2697 0.3338 0.9032
vn 0.7781 0.4232 0.4643
vn 0.6370 -0.5205 0.5686
vn 0.3981 -0.1806 0.8994
vn 0.4256 -0.0453 0.9038
vn -0.8068 0.3980 0.4367
vn 0.0051 -0.8156 0.5785
vn -0.4402 -0.1768 0.8803
vn -0.1076 -0.0498 0.9929
vn -0.0476 -0.6220 0.7815
vn 0.4845 -0.0754 0.8715
vn -0.5441 -0.7861 0.2932
vn -0.2961 -0.5477 0.7826
vn -0.3329 0.2866 0.8984
vn -0.8008 -0.5234 0.2912
vn -0.7242 -0.1214 0.6788
vn 0.0318 0.9676 0.2503
vn -0.7730 -0.3666 0.5178
vn -0.9050 0.3234 0.2762
vn -0.1624 0.9655 0.2036
vn -0.0616 -0.8835 0.4644
vn -0.7946 -0.5709 0.2065
vn -0.9149 0.3070 0.2623
vn -0.9838 -0.1668 -0.0660
vn -0.9497 -0.3053 0.0695
vn -0.4452 0.8722 0.2029
vn -0.2060 -0.9742 -0.0925
vn -0.8568 -0.2430 -0.4549
vn -0.9408 0.3023 -0.1536
vn -0.3556 -0.9339 0.0372
vn -0.9809 0.1894 0.0438
vn -0.6423 0.4781 -0.5991
vn -0.9835 -0.1612 0.0816
vn -0.9802 -0.1825 -0.0763
vn -0.1978 0.8562 -0.4773
vn -0.7052 -0.3599 -0.6109
vn -0.8253 0.0570 -0.5618
vn -0.2196 -0.4659 -0.8571
vn -0.0349 -0.1444 -0.9889
vn -0.2680 0.8743 -0.4047
vn 0.0571 -0.8863 -0.4595
vn 0.0101 -0.5991 -0.8006
vn -0.4437 0.2047 -0.8725
vn -0.2930 0.9041 -0.3110
vn 0.2952 -0.8525 -0.4313
vn 0.1061 -0.3351 -0.9362
vn -0.1334 0.0625 -0.9891
vt 0.750000 0.750000
vt 0.678571 0.875000
vt 0.678571 0.750000
vt 0.750000 0.125000
vt 0.678571 0.250000
vt 0.678571 0.125000
vt 0.750000 0.375000
vt 0.678571 0.500000
vt 0.678571 0.375000
vt 0.678571 0.625000
vt 0.750000 0.625000
vt 0.750000 0.875000
vt 0.714286 0.999890
vt 0.714286 0.000000
vt 0.750000 0.250000
vt 0.750000 0.500000
vt 0.607143 0.375000
vt 0.607143 0.750000
vt 0.607143 0.625000
vt 0.642857 0.999890
vt 0.607143 0.875000
vt 0.642857 0.000000
vt 0.607143 0.125000
vt 0.607143 0.250000
vt 0.607143 0.500000
vt 0.571429 0.000000
vt 0.535714 0.125000
vt 0.535714 0.250000
vt 0.535714 0.625000
vt 0.535714 0.500000
vt 0.535714 0.750000
vt 0.535714 0.375000
vt 0.571429 0.999890
vt 0.535714 0.875000
vt 0.464286 0.500000
vt 0.464286 0.875000
vt 0.464286 0.750000
vt 0.464286 0.125000
vt 0.464286 0.375000
vt 0.464286 0.625000
vt 0.500000 0.999890
vt 0.500000 0.000000
vt 0.464286 0.250000
vt 0.392857 0.125000
vt 0.392857 0.500000
vt 0.392857 0.375000
vt 0.392857 0.750000
vt 0.392857 0.625000
vt 0.428571 0.999890
vt 0.392857 0.875000
vt 0.428571 0.000000
vt 0.392857 0.250000
vt 0.321429 0.625000
vt 0.357143 0.999890
vt 0.321429 0.875000
vt 0.357143 0.000000
vt 0.321429 0.125000
vt 0.321429 0.375000
vt 0.321429 0.250000
vt 0.321429 0.500000
vt 0.321429 0.750000
vt 0.285714 0.000000
vt 0.250000 0.125000
vt 0.250000 0.250000
vt 0.250000 0.625000
vt 0.250000 0.500000
vt 0.250000 0.750000
vt 0.250000 0.375000
vt 0.285714 0.999890
vt 0.250000 0.875000
vt 0.178571 0.875000
vt 0.178571 0.750000
vt 0.178571 0.125000
vt 0.178571 0.500000
vt 0.178571 0.375000
vt 0.178571 0.625000
vt 0.214286 0.999890
vt 0.214286 0.000000
vt 0.178571 0.250000
vt 0.107143 0.250000
vt 0.107143 0.125000
vt 0.107143 0.375000
vt 0.107143 0.625000
vt 0.142857 0.999890
vt 0.107143 0.875000
vt 0.142857 0.000000
vt 0.107143 0.500000
vt 0.107143 0.750000
vt 0.071429 0.999890
vt 0.035714 0.875000
vt 0.071429 0.000000
vt 0.035714 0.125000
vt 0.035714 0.375000
vt 0.035714 0.250000
vt 0.035714 0.500000
vt 0.035714 0.750000
vt 0.035714 0.625000
vt 1.035714 0.375000
vt 0.964286 0.250000
vt 1.035714 0.250000
vt 1.035714 0.625000
vt 0.964286 0.500000
vt 1.035714 0.500000
vt 1.035714 0.875000
vt 0.964286 0.750000
vt 1.035714 0.750000
vt 1.035714 0.125000
vt 0.964286 0.125000
vt 0.964286 0.375000
vt 0.964286 0.625000
vt 1.000000 0.999890
vt 0.964286 0.875000
vt 1.000000 0.000000
vt 0.892857 0.125000
vt 0.892857 0.500000
vt 0.892857 0.375000
vt 0.892857 0.750000
vt 0.892857 0.625000
vt 0.928571 0.999890
vt 0.892857 0.875000
vt 0.928571 0.000000
vt 0.892857 0.250000
vt 0.821429 0.375000
vt 0.821429 0.625000
vt 0.857143 0.999890
vt 0.821429 0.875000
vt 0.857143 0.000000
vt 0.821429 0.125000
vt 0.821428 0.250000
vt 0.821429 0.500000
vt 0.821428 0.750000
vt 0.785714 0.000000
vt 0.785714 0.999890
s 0
f 99/1/1 8/2/1 9/3/1
f 6/4/2 13/5/2 14/6/2
f 5/7/3 11/8/3 12/9/3
f 99/1/4 10/10/4 3/11/4
f 2/12/5 1/13/5 8/2/5
f 7/14/6 6/4/6 14/6/6
f 100/15/7 12/9/7 13/5/7
f 4/16/8 10/10/8 11/8/8
f 11/8/9 19/17/9 12/9/9
f 10/10/10 16/18/10 17/19/10
f 8/2/11 1/20/11 15/21/11
f 7/22/12 14/6/12 21/23/12
f 12/9/13 20/24/13 13/5/13
f 11/8/14 17/19/14 18/25/14
f 8/2/15 16/18/15 9/3/15
f 13/5/16 21/23/16 14/6/16
f 7/26/17 21/23/17 28/27/17
f 19/17/18 27/28/18 20/24/18
f 18/25/19 24/29/19 25/30/19
f 15/21/20 23/31/20 16/18/20
f 21/23/21 27/28/21 28/27/21
f 19/17/22 25/30/22 26/32/22
f 16/18/23 24/29/23 17/19/23
f 15/21/24 1/33/24 22/34/24
f 24/29/25 32/35/25 25/30/25
f 23/31/26 29/36/26 30/37/26
f 27/28/27 35/38/27 28/27/27
f 25/30/28 33/39/28 26/32/28
f 24/29/29 30/37/29 31/40/29
f 22/34/30 1/41/30 29/36/30
f 7/42/31 28/27/31 35/38/31
f 27/28/32 33/39/32 34/43/32
f 34/43/33 42/44/33 35/38/33
f 33/39/34 39/45/34 40/46/34
f 31/40/35 37/47/35 38/48/35
f 29/36/36 1/49/36 36/50/36
f 7/51/37 35/38/37 42/44/37
f 33/39/38 41/52/38 34/43/38
f 31/40/39 39/45/39 32/35/39
f 30/37/40 36/50/40 37/47/40
f 37/47/41 45/53/41 38/48/41
f 36/50/42 1/54/42 43/55/42
f 7/56/43 42/44/43 49/57/43
f 41/52/44 47/58/44 48/59/44
f 39/45/45 45/53/45 46/60/45
f 37/47/46 43/55/46 44/61/46
f 42/44/47 48/59/47 49/57/47
f 39/45/48 47/58/48 40/46/48
f 7/62/49 49/57/49 56/63/49
f 47/58/50 55/64/50 48/59/50
f 46/60/51 52/65/51 53/66/51
f 43/55/52 51/67/52 44/61/52
f 49/57/53 55/64/53 56/63/53
f 46/60/54 54/68/54 47/58/54
f 44/61/55 52/65/55 45/53/55
f 43/55/56 1/69/56 50/70/56
f 51/67/57 57/71/57 58/72/57
f 55/64/58 63/73/58 56/63/58
f 54/68/59 60/74/59 61/75/59
f 52/65/60 58/72/60 59/76/60
f 50/70/61 1/77/61 57/71/61
f 7/78/62 56/63/62 63/73/62
f 54/68/63 62/79/63 55/64/63
f 52/65/64 60/74/64 53/66/64
f 63/73/65 69/80/65 70/81/65
f 60/74/66 68/82/66 61/75/66
f 58/72/67 66/83/67 59/76/67
f 57/71/68 1/84/68 64/85/68
f 7/86/69 63/73/69 70/81/69
f 62/79/70 68/82/70 69/80/70
f 60/74/71 66/83/71 67/87/71
f 58/72/72 64/85/72 65/88/72
f 64/85/73 1/89/73 71/90/73
f 7/91/74 70/81/74 77/92/74
f 69/80/75 75/93/75 76/94/75
f 66/83/76 74/95/76 67/87/76
f 64/85/77 72/96/77 65/88/77
f 69/80/78 77/92/78 70/81/78
f 68/82/79 74/95/79 75/93/79
f 66/83/80 72/96/80 73/97/80
f 75/98/81 83/99/81 76/100/81
f 73/101/82 81/102/82 74/103/82
f 71/104/83 79/105/83 72/106/83
f 77/107/84 83/99/84 84/108/84
f 75/98/85 81/102/85 82/109/85
f 73/101/86 79/105/86 80/110/86
f 71/104/87 1/111/87 78/112/87
f 7/113/88 77/107/88 84/108/88
f 83/99/89 91/114/89 84/108/89
f 82/109/90 88/115/90 89/116/90
f 80/110/91 86/117/91 87/118/91
f 78/112/92 1/119/92 85/120/92
f 7/121/93 84/108/93 91/114/93
f 83/99/94 89/116/94 90/122/94
f 80/110/95 88/115/95 81/102/95
f 78/112/96 86/117/96 79/105/96
f 88/115/97 96/123/97 89/116/97
f 86/117/98 94/124/98 87/118/98
f 85/120/99 1/125/99 92/126/99
f 7/127/100 91/114/100 98/128/100
f 89/116/101 97/129/101 90/122/101
f 88/115/102 94/124/102 95/130/102
f 86/117/103 92/126/103 93/131/103
f 91/114/104 97/129/104 98/128/104
f 7/132/105 98/128/105 6/4/105
f 96/123/106 100/15/106 97/129/106
f 94/124/107 4/16/107 95/130/107
f 92/126/108 99/1/108 93/131/108
f 98/128/109 100/15/109 6/4/109
f 96/123/110 4/16/110 5/7/110
f 94/124/111 99/1/111 3/11/111
f 92/126/112 1/133/112 2/12/112
f 99/1/113 2/12/113 8/2/113
f 6/4/114 100/15/114 13/5/114
f 5/7/115 4/16/115 11/8/115
f 99/1/116 9/3/116 10/10/116
f 100/15/117 5/7/117 12/9/117
f 4/16/118 3/11/118 10/10/118
f 11/8/119 18/25/119 19/17/119
f 10/10/120 9/3/120 16/18/120
f 12/9/121 19/17/121 20/24/121
f 11/8/122 10/10/122 17/19/122
f 8/2/123 15/21/123 16/18/123
f 13/5/124 20/24/124 21/23/124
f 19/17/125 26/32/125 27/28/125
f 18/25/126 17/19/126 24/29/126
f 15/21/127 22/34/127 23/31/127
f 21/23/128 20/24/128 27/28/128
f 19/17/129 18/25/129 25/30/129
f 16/18/130 23/31/130 24/29/130
f 24/29/131 31/40/131 32/35/131
f 23/31/132 22/34/132 29/36/132
f 27/28/133 34/43/133 35/38/133
f 25/30/134 32/35/134 33/39/134
f 24/29/135 23/31/135 30/37/135
f 27/28/136 26/32/136 33/39/136
f 34/43/137 41/52/137 42/44/137
f 33/39/138 32/35/138 39/45/138
f 31/40/139 30/37/139 37/47/139
f 33/39/140 40/46/140 41/52/140
f 31/40/141 38/48/141 39/45/141
f 30/37/142 29/36/142 36/50/142
f 37/47/143 44/61/143 45/53/143
f 41/52/144 40/46/144 47/58/144
f 39/45/145 38/48/145 45/53/145
f 37/47/146 36/50/146 43/55/146
f 42/44/147 41/52/147 48/59/147
f 39/45/148 46/60/148 47/58/148
f 47/58/149 54/68/149 55/64/149
f 46/60/150 45/53/150 52/65/150
f 43/55/151 50/70/151 51/67/151
f 49/57/152 48/59/152 55/64/152
f 46/60/153 53/66/153 54/68/153
f 44/61/154 51/67/154 52/65/154
f 51/67/155 50/70/155 57/71/155
f 55/64/156 62/79/156 63/73/156
f 54/68/157 53/66/157 60/74/157
f 52/65/158 51/67/158 58/72/158
f 54/68/159 61/75/159 62/79/159
f 52/65/160 59/76/160 60/74/160
f 63/73/161 62/79/161 69/80/161
f 60/74/162 67/87/162 68/82/162
f 58/72/163 65/88/163 66/83/163
f 62/79/164 61/75/164 68/82/164
f 60/74/165 59/76/165 66/83/165
f 58/72/166 57/71/166 64/85/166
f 69/80/167 68/82/167 75/93/167
f 66/83/168 73/97/168 74/95/168
f 64/85/169 71/90/169 72/96/169
f 69/80/170 76/94/170 77/92/170
f 68/82/171 67/87/171 74/95/171
f 66/83/172 65/88/172 72/96/172
f 75/98/173 82/109/173 83/99/173
f 73/101/174 80/110/174 81/102/174
f 71/104/175 78/112/175 79/105/175
f 77/107/176 76/100/176 83/99/176
f 75/98/177 74/103/177 81/102/177
f 73/101/178 72/106/178 79/105/178
f 83/99/179 90/122/179 91/114/179
f 82/109/180 81/102/180 88/115/180
f 80/110/181 79/105/181 86/117/181
f 83/99/182 82/109/182 89/116/182
f 80/110/183 87/118/183 88/115/183
f 78/112/184 85/120/184 86/117/184
f 88/115/185 95/130/185 96/123/185
f 86/117/186 93/131/186 94/124/186
f 89/116/187 96/123/187 97/129/187
f 88/115/188 87/118/188 94/124/188
f 86/117/189 85/120/189 92/126/189
f 91/114/190 90/122/190 97/129/190
f 96/123/191 5/7/191 100/15/191
f 94/124/192 3/11/192 4/16/192
f 92/126/193 2/12/193 99/1/193
f 98/128/194 97/129/194 100/15/194
f 96/123/195 95/130/195 4/16/195
f 94/124/196 93/131/196 99/1/196
