# Blender 5.1.2
# www.blender.org
o moon_piece_06
v 0.310641 0.311910 0.038960
v -0.284302 -0.077439 0.169152
v 0.312927 0.313307 0.019051
v 0.255882 0.292493 0.044073
v 0.328606 0.244320 0.068226
v 0.326501 0.196930 -0.169152
v 0.330891 0.168663 -0.168865
v 0.333620 0.119655 -0.167865
v 0.331516 0.070646 -0.166369
v 0.324598 0.022110 -0.164391
v -0.088859 -0.031548 -0.120516
v 0.262959 -0.167004 -0.036176
v 0.269584 -0.158130 -0.035263
v 0.302645 -0.100428 -0.026120
v 0.295116 -0.116044 -0.029047
v 0.350307 0.087245 0.022733
v 0.349761 0.070646 0.017240
v 0.313999 0.314747 -0.016653
v 0.343274 0.022110 0.002741
v 0.291921 0.306753 -0.009041
v -0.236910 -0.086264 -0.070811
v -0.229875 -0.024008 -0.000917
v -0.354299 -0.312865 0.111128
v -0.354106 -0.313649 0.108909
v 0.329887 0.239105 -0.120720
v 0.329054 0.217200 -0.146600
v 0.326296 0.276504 -0.072608
v 0.328201 0.264797 -0.088280
v 0.316999 0.308872 -0.026120
v 0.316077 0.310996 -0.022824
v 0.311017 0.310996 0.039363
v 0.318061 -0.004564 -0.163023
v 0.331972 -0.025488 -0.009900
v 0.315965 -0.071687 -0.020561
v 0.336089 0.211561 0.069714
v 0.345114 0.168663 0.052187
v 0.350271 0.119655 0.033809
v 0.309819 -0.064687 -0.116729
v 0.316680 -0.025488 -0.146992
v 0.287201 -0.125994 -0.068757
v 0.308096 -0.071687 -0.111298
v 0.292058 -0.116044 -0.076607
v 0.269191 -0.158130 -0.043279
v 0.324729 0.264797 0.059445
v -0.258807 -0.018444 0.145871
v 0.331393 0.225868 0.076098
v 0.334629 0.217200 0.072106
v -0.351553 -0.314747 0.109609
v 0.335269 0.217200 -0.121791
v 0.342330 0.168663 -0.123195
v 0.344691 0.119655 -0.123665
v 0.342330 0.070646 -0.123195
v 0.335269 0.022110 -0.121791
v 0.323575 -0.025488 -0.119465
v 0.330465 0.264797 -0.073018
v 0.342330 0.217200 -0.074187
v 0.349495 0.168663 -0.074893
v 0.351891 0.119655 -0.075129
v 0.349495 0.070646 -0.074893
v 0.342330 0.022110 -0.074187
v 0.330465 -0.025488 -0.073018
v 0.314014 -0.071687 -0.071398
v 0.293136 -0.116044 -0.069342
v 0.332769 0.264797 -0.026120
v 0.344691 0.217200 -0.026120
v 0.351891 0.168663 -0.026120
v 0.354299 0.119655 -0.026120
v 0.351891 0.070646 -0.026120
v 0.344691 0.022110 -0.026120
v 0.332769 -0.025488 -0.026120
v 0.316238 -0.071687 -0.026120
v 0.314014 0.310996 0.019158
v 0.330465 0.264797 0.020778
v 0.342330 0.217200 0.021947
v 0.349495 0.168663 0.022653
v 0.351891 0.119655 0.022889
v 0.335269 0.217200 0.069551
vn -0.0428 -0.6058 -0.7944
vn -0.4463 0.6901 -0.5697
vn -0.0506 0.3855 0.9213
vn 0.9525 0.2899 0.0938
vn 0.9571 0.2899 -0.0000
vn 0.9342 0.3537 0.0459
vn 0.9334 -0.2721 -0.2338
vn 0.9410 -0.2427 -0.2357
vn 0.9620 -0.1948 -0.1914
vn 0.9031 0.4271 0.0444
vn 0.9197 0.3821 0.0906
vn 0.9620 0.1948 0.1914
vn 0.9410 0.2427 0.2357
vn 0.9487 0.2087 0.2376
vn 0.9554 0.2429 -0.1680
vn 0.9542 0.2634 -0.1415
vn 0.9761 0.1948 -0.0961
vn 0.2893 -0.3093 0.9059
vn -0.4414 -0.8575 0.2645
vn 0.9620 0.1948 -0.1914
vn 0.9388 0.3368 -0.0728
vn 0.9525 0.2899 -0.0938
vn -0.3317 0.9430 0.0281
vn 0.9561 0.1691 -0.2395
vn 0.9761 0.0979 -0.1942
vn 1.0000 -0.0000 -0.0000
vn 0.9952 -0.0000 0.0980
vn 0.9970 -0.0490 0.0592
vn 0.9761 0.1948 0.0961
vn 0.9579 0.2428 0.1532
vn -0.9260 0.3233 -0.1948
vn 0.9904 0.0979 0.0975
vn 0.9891 0.0107 0.1467
vn 0.9414 0.3368 0.0183
vn 0.8944 0.4271 0.1327
vn 0.9180 0.3726 0.1362
vn 0.9952 -0.0979 -0.0000
vn 0.9812 -0.1870 0.0482
vn 0.9808 -0.1948 -0.0000
vn 0.9571 -0.2899 -0.0000
vn 0.9250 -0.3773 0.0454
vn 0.9241 -0.3821 -0.0000
vn 0.9700 0.0008 -0.2430
vn 0.9808 -0.0000 -0.1951
vn 0.9654 -0.0975 -0.2418
vn 0.9761 -0.0979 -0.1942
vn 0.9514 -0.1949 -0.2383
vn 0.9387 -0.2899 -0.1867
vn 0.9286 -0.3368 -0.1556
vn 0.9498 0.2793 0.1409
vn 0.9904 0.0979 -0.0975
vn 0.9952 -0.0000 -0.0980
vn 0.9904 -0.0979 -0.0975
vn 0.9761 -0.1948 -0.0961
vn 0.9525 -0.2899 -0.0938
vn 0.9197 -0.3821 -0.0906
vn 0.8806 -0.4555 -0.1306
vn 0.8780 -0.4708 -0.0865
vn 0.8559 -0.5139 -0.0573
vn 0.9808 0.1948 -0.0000
vn 0.9952 0.0979 -0.0000
vn -0.1022 -0.0260 -0.9944
vn 0.8026 -0.5952 -0.0394
vn 0.8404 -0.5404 -0.0413
vn 0.8330 -0.5517 -0.0409
vn -0.5319 0.8357 -0.1365
vn 0.9033 -0.4272 -0.0395
vn 0.9949 -0.0887 0.0489
vn 0.9832 0.1098 0.1458
vn 0.8998 0.4275 0.0869
vn 0.9578 -0.2835 0.0471
vn 0.9653 0.0991 -0.2418
vn 0.8835 -0.4663 -0.0434
vn 0.9208 -0.3653 -0.1366
vn 0.9765 0.1466 0.1582
vn 0.9596 0.1466 -0.2404
vt 2.806432 2.535341
vt 2.803031 2.529846
vt 2.539789 2.566077
vt 2.806335 2.488045
vt 2.832329 2.584336
vt 2.829301 2.440104
vt 2.781108 2.450865
vt 2.832015 2.433958
vt 0.484375 0.593750
vt 0.500000 0.593750
vt 0.498864 0.625037
vt 0.540694 0.406148
vt 0.545685 0.419960
vt 0.531250 0.437500
vt 2.833966 2.428447
vt 0.496723 0.627731
vt 0.484375 0.625000
vt 0.468750 0.562500
vt 0.466409 0.568227
vt 0.467896 0.562515
vt 0.531250 0.576881
vt 0.520757 0.593844
vt 0.515625 0.562500
vt 2.808572 2.502049
vt 2.813842 2.500000
vt 2.786062 2.507040
vt 0.092775 0.164332
vt 0.092620 0.166658
vt 0.091500 0.165649
vt 0.531250 0.562500
vt 0.515625 0.601664
vt 0.515625 0.593750
vt 2.821039 2.468380
vt 2.821790 2.493373
vt 2.843571 2.445185
vt 2.837253 2.432916
vt 0.539554 0.562573
vt 0.531250 0.531250
vt 2.846823 2.469648
vt 2.847205 2.465803
vt 2.402979 2.363310
vt 2.353982 2.403926
vt 2.355904 2.404990
vt 0.500000 0.500000
vt 0.484375 0.500000
vt 0.484375 0.479330
vt 0.484375 0.562500
vt 0.468750 0.580307
vt 2.847181 2.458050
vt 2.436154 2.531284
vt 2.441078 2.482358
vt 0.484375 0.531250
vt 0.480862 0.500000
vt 0.500000 0.623565
vt 0.477455 0.625777
vt 0.477335 0.625134
vt 2.420826 2.379606
vt 0.500000 0.468750
vt 0.490617 0.437430
vt 0.500000 0.437500
vt 2.790700 2.506400
vt 2.823167 2.496109
vt 2.834371 2.488646
vt 0.500000 0.406250
vt 0.498084 0.374942
vt 0.500000 0.375000
vt 2.819703 2.454162
vt 2.354117 2.405480
vt 0.545761 0.500000
vt 0.531250 0.500000
vt 0.545493 0.468738
vt 0.531250 0.468750
vt 0.545510 0.437477
vt 0.531250 0.406250
vt 0.531250 0.379730
vt 0.471365 0.593809
vt 0.515625 0.531250
vt 0.515625 0.500000
vt 0.515625 0.468750
vt 0.515625 0.437500
vt 0.515625 0.406250
vt 0.515625 0.375000
vt 0.518275 0.343660
vt 0.515625 0.343750
vt 0.515625 0.336367
vt 0.500000 0.562500
vt 0.500000 0.531250
vt 2.835525 2.599222
vt 2.834052 2.598175
vt 2.830398 2.532541
vt 2.831732 2.543512
vt 0.503916 0.305334
vt 0.506579 0.312327
vt 0.503503 0.312377
vt 0.500000 0.354748
vt 2.842282 2.479797
vt 0.486107 0.468735
vt 0.474820 0.531286
vt 0.484375 0.626626
vt 0.494598 0.406154
vt 0.546315 0.531255
vt 0.501057 0.343710
vt 0.529530 0.374947
vt 0.468750 0.558873
vt 2.830542 2.600122
vt 2.833614 2.599921
vt 2.829209 2.596790
vt 2.832912 2.566220
vt 2.823244 2.497693
vt 2.824634 2.595832
vt 2.817658 2.559624
vt 2.818864 2.563426
vt 2.823667 2.584610
vt 2.823890 2.500000
vt 2.790424 2.512011
vt 2.836231 2.431242
vt 0.546810 0.549452
vt 2.819439 2.454444
s 0
f 42/1/1 40/2/1 11/3/1
f 11/3/2 20/4/2 26/5/2
f 44/6/3 4/7/3 5/8/3
s 1
f 73/9/4 64/10/5 30/11/6
f 39/12/7 32/13/8 53/14/9
s 0
f 46/15/3 5/8/3 4/7/3
s 1
f 18/16/10 72/17/11 30/11/6
f 77/18/12 46/19/13 47/20/14
f 25/21/15 28/22/16 56/23/17
s 0
f 15/24/18 14/25/18 12/26/18
s 1
f 48/27/19 23/28/19 24/29/19
f 56/23/17 49/30/20 25/21/15
f 27/31/21 64/10/5 55/32/22
f 30/11/6 72/17/11 73/9/4
s 0
f 3/33/23 18/34/23 20/4/23
f 36/35/18 35/36/18 46/15/18
s 1
f 26/37/24 49/30/20 50/38/25
f 28/22/16 55/32/22 56/23/17
s 0
f 17/39/18 16/40/18 2/41/18
s 1
f 28/22/16 27/31/21 55/32/22
s 0
f 2/41/18 23/42/18 48/43/18
s 1
f 67/44/26 76/45/27 16/46/28
f 77/18/12 74/47/29 5/48/30
f 77/18/12 5/48/30 46/19/13
s 0
f 16/40/18 37/49/18 2/41/18
f 21/50/31 2/41/31 22/51/31
s 1
f 75/52/32 37/53/33 76/45/27
f 27/31/21 29/54/34 64/10/5
f 72/17/11 1/55/35 31/56/36
s 0
f 45/57/3 2/41/3 46/15/3
s 1
f 68/58/37 19/59/38 69/60/39
s 0
f 4/7/3 45/57/3 46/15/3
f 12/26/18 13/61/18 15/24/18
f 34/62/18 33/63/18 2/41/18
f 37/49/18 36/35/18 2/41/18
s 1
f 70/64/40 34/65/41 71/66/42
s 0
f 46/15/18 2/41/18 36/35/18
f 2/41/18 12/26/18 14/25/18
f 44/6/3 31/67/3 4/7/3
s 1
f 26/37/24 25/21/15 49/30/20
s 0
f 24/68/31 23/42/31 2/41/31
s 1
f 8/69/43 50/38/25 51/70/44
f 9/71/45 51/70/44 52/72/46
f 9/71/45 53/14/9 10/73/47
f 53/14/9 54/74/48 39/12/7
f 38/75/49 39/12/7 54/74/48
f 73/9/4 44/76/50 5/48/30
f 50/38/25 56/23/17 57/77/51
f 50/38/25 58/78/52 51/70/44
f 52/72/46 58/78/52 59/79/53
f 52/72/46 60/80/54 53/14/9
f 53/14/9 61/81/55 54/74/48
f 62/82/56 38/75/49 61/81/55
f 42/83/57 62/82/56 63/84/58
f 40/85/59 42/83/57 63/84/58
f 56/23/17 64/10/5 65/86/60
f 57/77/51 65/86/60 66/87/61
f 57/77/51 67/44/26 58/78/52
f 59/79/53 67/44/26 68/58/37
f 59/79/53 69/60/39 60/80/54
f 60/80/54 70/64/40 61/81/55
f 62/82/56 70/64/40 71/66/42
s 0
f 8/88/62 9/89/62 11/3/62
f 27/90/2 28/91/2 20/4/2
s 1
f 12/92/63 43/93/64 13/94/65
f 65/86/60 73/9/4 74/47/29
f 66/87/61 74/47/29 75/52/32
f 66/87/61 76/45/27 67/44/26
f 73/9/4 31/56/36 44/76/50
s 0
f 48/43/18 12/26/18 2/41/18
f 22/51/66 4/7/66 20/4/66
f 14/25/18 34/62/18 2/41/18
s 1
f 14/95/67 71/66/42 34/65/41
s 0
f 33/63/18 19/96/18 2/41/18
s 1
f 17/97/68 68/58/37 16/46/28
s 0
f 19/96/18 17/39/18 2/41/18
s 1
f 68/58/37 67/44/26 16/46/28
s 0
f 21/50/31 24/68/31 2/41/31
s 1
f 16/46/28 76/45/27 37/53/33
s 0
f 2/41/31 45/57/31 22/51/31
s 1
f 75/52/32 36/98/69 37/53/33
f 72/17/11 3/99/70 1/55/35
f 68/58/37 17/97/68 19/59/38
f 70/64/40 33/100/71 34/65/41
f 8/69/43 7/101/72 50/38/25
f 9/71/45 52/72/46 53/14/9
f 9/71/45 8/69/43 51/70/44
f 15/102/73 13/94/65 43/93/64
f 18/16/10 3/99/70 72/17/11
f 50/38/25 49/30/20 56/23/17
f 50/38/25 57/77/51 58/78/52
f 52/72/46 51/70/44 58/78/52
f 52/72/46 59/79/53 60/80/54
f 53/14/9 60/80/54 61/81/55
f 41/103/74 38/75/49 62/82/56
f 38/75/49 54/74/48 61/81/55
f 42/83/57 41/103/74 62/82/56
f 57/77/51 56/23/17 65/86/60
f 56/23/17 55/32/22 64/10/5
f 62/82/56 71/66/42 14/95/67
f 32/13/8 10/73/47 53/14/9
f 35/104/75 77/18/12 47/20/14
f 74/47/29 73/9/4 5/48/30
s 0
f 11/3/62 6/105/62 7/106/62
f 10/107/62 11/3/62 9/89/62
f 7/106/62 8/88/62 11/3/62
f 28/91/2 25/108/2 20/4/2
f 25/108/2 26/5/2 20/4/2
f 26/5/2 6/105/2 11/3/2
f 11/3/2 21/50/2 22/51/2
f 20/4/2 18/34/2 30/109/2
s 1
f 69/60/39 33/100/71 70/64/40
s 0
f 22/51/2 20/4/2 11/3/2
s 1
f 59/79/53 58/78/52 67/44/26
f 59/79/53 68/58/37 69/60/39
f 60/80/54 69/60/39 70/64/40
f 62/82/56 61/81/55 70/64/40
s 0
f 32/110/62 11/3/62 10/107/62
s 1
f 43/93/64 40/85/59 15/102/73
f 40/85/59 63/84/58 15/102/73
f 15/102/73 63/84/58 14/95/67
f 63/84/58 62/82/56 14/95/67
f 69/60/39 19/59/38 33/100/71
s 0
f 41/111/1 42/1/1 11/3/1
f 38/112/1 11/3/1 39/113/1
f 38/112/1 41/111/1 11/3/1
f 30/109/2 29/114/2 20/4/2
f 29/114/2 27/90/2 20/4/2
s 1
f 65/86/60 64/10/5 73/9/4
f 66/87/61 65/86/60 74/47/29
f 66/87/61 75/52/32 76/45/27
f 73/9/4 72/17/11 31/56/36
s 0
f 22/51/66 45/57/66 4/7/66
s 1
f 57/77/51 66/87/61 67/44/26
s 0
f 40/2/1 43/115/1 11/3/1
f 43/115/1 12/26/1 11/3/1
f 12/26/1 48/43/1 21/50/1
f 48/43/1 24/68/1 21/50/1
f 21/50/1 11/3/1 12/26/1
f 11/3/1 32/110/1 39/113/1
s 1
f 36/98/69 75/52/32 74/47/29
f 74/47/29 77/18/12 35/104/75
s 0
f 35/36/18 47/116/18 46/15/18
s 1
f 64/10/5 29/54/34 30/11/6
f 50/38/25 7/101/72 6/117/76
s 0
f 20/4/23 4/7/23 3/33/23
f 4/7/23 1/118/23 3/33/23
s 1
f 6/117/76 26/37/24 50/38/25
s 0
f 31/67/3 1/118/3 4/7/3
s 1
f 74/47/29 35/104/75 36/98/69
