# Blender 5.1.2
# www.blender.org
o moon_piece_03
v -0.087882 -0.105441 -0.203541
v -0.213593 0.100644 -0.010298
v -0.323218 -0.121195 0.204922
v -0.347263 -0.107372 -0.069822
v -0.206022 0.106191 0.025201
v 0.340707 0.127767 -0.020716
v 0.347568 0.166967 -0.050979
v 0.318089 0.066461 0.027255
v 0.338984 0.120767 -0.015285
v -0.307787 -0.128851 0.204887
v 0.322947 0.076411 0.019406
v -0.328114 -0.125159 0.183904
v 0.300079 0.034324 0.052734
v -0.060109 -0.101684 -0.205123
v -0.114813 -0.166361 -0.075250
v -0.114813 -0.185483 0.020884
v -0.114813 -0.187891 0.069893
v -0.332989 -0.128579 0.160264
v -0.336911 -0.130557 0.137265
v -0.333474 -0.128851 0.157563
v -0.340225 -0.131628 0.114730
v -0.343017 -0.131874 0.092369
v -0.345325 -0.131304 0.069893
v -0.347173 -0.129898 0.047007
v -0.348417 -0.127364 0.023426
v -0.347810 -0.128851 0.036228
v -0.348949 -0.123473 -0.001132
v -0.348854 -0.118287 -0.027050
v -0.320665 -0.122293 0.205621
v -0.073449 -0.103626 -0.204458
v -0.031237 -0.096115 -0.205621
v -0.000880 -0.088840 -0.205166
v 0.031400 -0.079608 -0.203652
v -0.348061 -0.111602 -0.054781
v -0.091711 -0.128851 -0.164671
v -0.096058 -0.149831 -0.120528
v -0.100587 -0.166361 -0.074551
v -0.105252 -0.178283 -0.027183
v -0.110009 -0.185483 0.021120
v 0.293847 0.025451 0.059836
v 0.274193 -0.001716 0.069893
v 0.199845 -0.075149 0.100884
v 0.271630 -0.005087 0.071163
v 0.237952 -0.041444 0.085945
v 0.200879 -0.074396 0.100517
v 0.140913 -0.113845 0.120760
v 0.158973 -0.103626 0.115062
v 0.096556 -0.135860 0.134011
v 0.112974 -0.128851 0.129380
v 0.062606 -0.149502 0.143382
v 0.035360 -0.157367 0.150162
v 0.061726 -0.149831 0.143619
v 0.065751 -0.067317 -0.200341
v 0.047109 -0.074396 -0.202419
v 0.102499 -0.051417 -0.194902
v 0.141853 -0.031043 -0.186773
v -0.060620 -0.103626 -0.202555
v -0.068831 -0.128851 -0.161277
v -0.077484 -0.149831 -0.117773
v -0.086497 -0.166361 -0.072461
v -0.095783 -0.178283 -0.025778
v -0.105252 -0.185483 0.021826
v 0.013319 -0.163155 0.155508
v -0.005243 -0.167212 0.159814
v -0.000194 -0.166361 0.158703
v -0.021409 -0.169630 0.163296
v -0.035691 -0.171476 0.166303
v -0.048619 -0.172873 0.168959
v -0.060582 -0.173900 0.171352
v -0.071877 -0.174613 0.173550
v -0.082745 -0.175046 0.175605
v -0.093397 -0.175220 0.177558
v -0.104023 -0.175143 0.179447
v -0.114813 -0.174810 0.181303
v -0.125969 -0.174208 0.183160
v -0.137720 -0.173306 0.185052
v -0.150342 -0.172059 0.187018
v -0.339048 -0.108481 -0.079936
v -0.321810 -0.109622 -0.099985
v -0.304127 -0.109653 -0.119421
v 0.348949 0.187891 -0.067010
v 0.123042 -0.041444 -0.191115
v -0.057971 0.160906 -0.024503
v 0.183903 -0.005168 -0.175257
v -0.034176 -0.103626 -0.195931
v -0.046393 -0.128851 -0.155657
v -0.059269 -0.149831 -0.113210
v -0.072680 -0.166361 -0.069000
v -0.086497 -0.178283 -0.023452
v -0.100587 -0.185483 0.022994
v -0.164192 -0.170396 0.189103
v -0.179744 -0.168215 0.191370
v 0.227200 0.028393 -0.158633
v 0.184022 -0.005087 -0.175220
v 0.270886 0.070370 -0.136268
v 0.234147 0.034324 -0.155589
v 0.312315 0.121830 -0.107030
v 0.311599 0.120767 -0.107654
v 0.276460 0.076411 -0.132942
v -0.197602 -0.164975 0.193796
v 0.346867 0.182871 -0.070156
v -0.191381 -0.166361 0.193013
v -0.285803 -0.108572 -0.138459
v -0.266620 -0.106346 -0.157303
v -0.246291 -0.102790 -0.176086
v -0.250590 -0.103626 -0.172197
v 0.339135 0.166967 -0.079955
v -0.175287 0.113623 -0.039469
v -0.219892 -0.105544 -0.183791
v -0.008509 -0.103626 -0.186747
v -0.024615 -0.128851 -0.147864
v -0.041590 -0.149831 -0.106884
v -0.059269 -0.166361 -0.064201
v -0.077484 -0.178283 -0.020227
v -0.096058 -0.185483 0.024615
v -0.218559 -0.159779 0.196308
v -0.244155 -0.152845 0.199234
v -0.276123 -0.141631 0.202276
v -0.254487 -0.149831 0.200364
v -0.317717 -0.123858 0.205468
v -0.234942 -0.103626 -0.180209
v -0.193439 -0.107778 -0.189302
v 0.016134 -0.103626 -0.175092
v -0.003706 -0.128851 -0.137975
v -0.024615 -0.149831 -0.098856
v -0.046393 -0.166361 -0.058111
v -0.068831 -0.178283 -0.016135
v -0.091711 -0.185483 0.026671
v -0.167300 -0.108867 -0.193978
v -0.141187 -0.108847 -0.197885
v -0.114813 -0.107717 -0.201066
v 0.061412 -0.074396 -0.193847
v 0.039516 -0.103626 -0.161077
v 0.016134 -0.128851 -0.126083
v -0.008509 -0.149831 -0.089202
v -0.034176 -0.166361 -0.050789
v -0.060620 -0.178283 -0.011213
v -0.087585 -0.185483 0.029143
v 0.086414 -0.074396 -0.175304
v 0.061412 -0.103626 -0.144838
v 0.034712 -0.128851 -0.112305
v 0.006573 -0.149831 -0.078017
v -0.022736 -0.166361 -0.042304
v -0.052931 -0.178283 -0.005511
v -0.083722 -0.185483 0.032008
v 0.135187 -0.041444 -0.180107
v 0.109479 -0.074396 -0.154399
v 0.081611 -0.103626 -0.126531
v 0.051851 -0.128851 -0.096771
v 0.020486 -0.149831 -0.065406
v -0.012182 -0.166361 -0.032739
v -0.045838 -0.178283 0.000918
v -0.080159 -0.185483 0.035238
v 0.158487 -0.041444 -0.154399
v 0.130383 -0.074396 -0.131335
v 0.099918 -0.103626 -0.106332
v 0.067384 -0.128851 -0.079633
v 0.033096 -0.149831 -0.051493
v -0.002616 -0.166361 -0.022185
v -0.039410 -0.178283 0.008011
v -0.076929 -0.185483 0.038802
v 0.206554 -0.005087 -0.144838
v 0.179156 -0.041444 -0.126531
v 0.148926 -0.074396 -0.106332
v 0.116157 -0.103626 -0.084437
v 0.081163 -0.128851 -0.061054
v 0.044282 -0.149831 -0.036411
v 0.005868 -0.166361 -0.010744
v -0.033707 -0.178283 0.015699
v -0.074064 -0.185483 0.042665
v 0.251832 0.034324 -0.126083
v 0.226054 -0.005087 -0.112305
v 0.196993 -0.041444 -0.096771
v 0.164929 -0.074396 -0.079633
v 0.130172 -0.103626 -0.061054
v 0.093054 -0.128851 -0.041215
v 0.053935 -0.149831 -0.020305
v 0.013191 -0.166361 0.001473
v -0.028786 -0.178283 0.023910
v -0.071591 -0.185483 0.046790
v 0.311964 0.120767 -0.106884
v 0.292581 0.076411 -0.098856
v 0.269276 0.034324 -0.089202
v 0.242271 -0.005087 -0.078017
v 0.211828 -0.041444 -0.065406
v 0.178238 -0.074396 -0.051493
v 0.141827 -0.103626 -0.036411
v 0.102944 -0.128851 -0.020305
v 0.061964 -0.149831 -0.003331
v 0.019281 -0.166361 0.014349
v -0.024693 -0.178283 0.032564
v -0.069535 -0.185483 0.051138
v -0.244176 -0.102257 -0.177880
v 0.343054 0.166967 -0.069000
v 0.327236 0.120767 -0.064201
v 0.307160 0.076411 -0.058111
v 0.283020 0.034324 -0.050789
v 0.255049 -0.005087 -0.042304
v 0.223516 -0.041444 -0.032738
v 0.188725 -0.074396 -0.022185
v 0.151011 -0.103626 -0.010744
v 0.110736 -0.128851 0.001473
v 0.068290 -0.149831 0.014349
v 0.024080 -0.166361 0.027760
v -0.021468 -0.178283 0.041577
v -0.067915 -0.185483 0.055666
v 0.338251 0.120767 -0.020227
v 0.317675 0.076411 -0.016135
v 0.292934 0.034324 -0.011213
v 0.264266 -0.005087 -0.005511
v 0.231947 -0.041444 0.000918
v 0.196289 -0.074396 0.008011
v 0.157635 -0.103626 0.015699
v 0.116356 -0.128851 0.023910
v 0.072852 -0.149831 0.032564
v 0.027540 -0.166361 0.041577
v -0.019142 -0.178283 0.050862
v -0.066746 -0.185483 0.060332
v 0.298920 0.034324 0.029143
v 0.269831 -0.005087 0.032008
v 0.237038 -0.041444 0.035238
v 0.200856 -0.074396 0.038802
v 0.161635 -0.103626 0.042665
v 0.119750 -0.128851 0.046790
v 0.075607 -0.149831 0.051138
v 0.029630 -0.166361 0.055666
v -0.017738 -0.178283 0.060332
v -0.066040 -0.185483 0.065089
v 0.271692 -0.005087 0.069893
v 0.238740 -0.041444 0.069893
v 0.202384 -0.074396 0.069893
v 0.162972 -0.103626 0.069893
v 0.120885 -0.128851 0.069893
v 0.076529 -0.149831 0.069893
v 0.030329 -0.166361 0.069893
v -0.017268 -0.178283 0.069893
v -0.065804 -0.185483 0.069893
v 0.161635 -0.103626 0.097120
v 0.119750 -0.128851 0.092995
v 0.075607 -0.149831 0.088647
v 0.029630 -0.166361 0.084119
v -0.017738 -0.178283 0.079454
v -0.066040 -0.185483 0.074696
v 0.116356 -0.128851 0.115875
v 0.072852 -0.149831 0.107222
v 0.027540 -0.166361 0.098208
v -0.019142 -0.178283 0.088923
v -0.066746 -0.185483 0.079454
v 0.068290 -0.149831 0.125436
v 0.024080 -0.166361 0.112025
v -0.021468 -0.178283 0.098208
v -0.067915 -0.185483 0.084119
v 0.061964 -0.149831 0.143116
v 0.019281 -0.166361 0.125436
v -0.024693 -0.178283 0.107222
v -0.069535 -0.185483 0.088647
v 0.013191 -0.166361 0.138312
v -0.028786 -0.178283 0.115875
v -0.071591 -0.185483 0.092995
v 0.005868 -0.166361 0.150529
v -0.033707 -0.178283 0.124086
v -0.074064 -0.185483 0.097120
v -0.039410 -0.178283 0.131775
v -0.076929 -0.185483 0.100983
v -0.045838 -0.178283 0.138867
v -0.080159 -0.185483 0.104547
v -0.052931 -0.178283 0.145296
v -0.083722 -0.185483 0.107777
v -0.060620 -0.178283 0.150998
v -0.087585 -0.185483 0.110642
v -0.068831 -0.178283 0.155920
v -0.091711 -0.185483 0.113114
v -0.077484 -0.178283 0.160013
v -0.096058 -0.185483 0.115171
v -0.086497 -0.178283 0.163238
v -0.100587 -0.185483 0.116791
v -0.095783 -0.178283 0.165563
v -0.105252 -0.185483 0.117959
v -0.105252 -0.178283 0.166968
v -0.110009 -0.185483 0.118665
v -0.114813 -0.178283 0.167438
v -0.114813 -0.185483 0.118901
v -0.124374 -0.178283 0.166968
v -0.119617 -0.185483 0.118665
v -0.133843 -0.178283 0.165563
v -0.124374 -0.185483 0.117959
v -0.143129 -0.178283 0.163238
v -0.129039 -0.185483 0.116791
v -0.152142 -0.178283 0.160013
v -0.133568 -0.185483 0.115171
v -0.160795 -0.178283 0.155920
v -0.137915 -0.185483 0.113114
v -0.195450 -0.166361 0.190574
v -0.169006 -0.178283 0.150998
v -0.142041 -0.185483 0.110642
v -0.206890 -0.166361 0.182089
v -0.176695 -0.178283 0.145296
v -0.145904 -0.185483 0.107777
v -0.217444 -0.166361 0.172524
v -0.183788 -0.178283 0.138867
v -0.149467 -0.185483 0.104547
v -0.262722 -0.149831 0.191278
v -0.227010 -0.166361 0.161970
v -0.190216 -0.178283 0.131775
v -0.152697 -0.185483 0.100983
v -0.310789 -0.128851 0.200840
v -0.273908 -0.149831 0.176196
v -0.235494 -0.166361 0.150529
v -0.195919 -0.178283 0.124086
v -0.155562 -0.185483 0.097120
v -0.322680 -0.128851 0.181000
v -0.283561 -0.149831 0.160090
v -0.242817 -0.166361 0.138312
v -0.200840 -0.178283 0.115875
v -0.158035 -0.185483 0.092995
v -0.332570 -0.128851 0.160090
v -0.291590 -0.149831 0.143116
v -0.248907 -0.166361 0.125436
v -0.204933 -0.178283 0.107222
v -0.160091 -0.185483 0.088647
v -0.297915 -0.149831 0.125436
v -0.253706 -0.166361 0.112025
v -0.208158 -0.178283 0.098208
v -0.161711 -0.185483 0.084119
v -0.302478 -0.149831 0.107221
v -0.257166 -0.166361 0.098208
v -0.210484 -0.178283 0.088923
v -0.162880 -0.185483 0.079454
v -0.305233 -0.149831 0.088647
v -0.259256 -0.166361 0.084119
v -0.211888 -0.178283 0.079454
v -0.163586 -0.185483 0.074696
v -0.306155 -0.149831 0.069893
v -0.259955 -0.166361 0.069893
v -0.212358 -0.178283 0.069893
v -0.163822 -0.185483 0.069893
v -0.305233 -0.149831 0.051138
v -0.259256 -0.166361 0.055666
v -0.211888 -0.178283 0.060332
v -0.163586 -0.185483 0.065089
v -0.345982 -0.128851 0.023910
v -0.302478 -0.149831 0.032564
v -0.257166 -0.166361 0.041577
v -0.210484 -0.178283 0.050862
v -0.162880 -0.185483 0.060332
v -0.340362 -0.128851 0.001473
v -0.297915 -0.149831 0.014349
v -0.253706 -0.166361 0.027760
v -0.208158 -0.178283 0.041577
v -0.161711 -0.185483 0.055666
v -0.332570 -0.128851 -0.020305
v -0.291590 -0.149831 -0.003331
v -0.248907 -0.166361 0.014349
v -0.204933 -0.178283 0.032564
v -0.160091 -0.185483 0.051138
v -0.322680 -0.128851 -0.041215
v -0.283561 -0.149831 -0.020305
v -0.242817 -0.166361 0.001473
v -0.200840 -0.178283 0.023910
v -0.158035 -0.185483 0.046790
v -0.310789 -0.128851 -0.061054
v -0.273908 -0.149831 -0.036411
v -0.235494 -0.166361 -0.010744
v -0.195919 -0.178283 0.015699
v -0.155562 -0.185483 0.042665
v -0.297010 -0.128851 -0.079633
v -0.262722 -0.149831 -0.051493
v -0.227010 -0.166361 -0.022185
v -0.190216 -0.178283 0.008011
v -0.152697 -0.185483 0.038802
v -0.281477 -0.128851 -0.096771
v -0.250112 -0.149831 -0.065406
v -0.217444 -0.166361 -0.032739
v -0.183788 -0.178283 0.000918
v -0.149467 -0.185483 0.035238
v -0.264338 -0.128851 -0.112305
v -0.236199 -0.149831 -0.078016
v -0.206890 -0.166361 -0.042304
v -0.176695 -0.178283 -0.005511
v -0.145904 -0.185483 0.032008
v -0.245760 -0.128851 -0.126083
v -0.221117 -0.149831 -0.089202
v -0.195450 -0.166361 -0.050789
v -0.169006 -0.178283 -0.011213
v -0.142041 -0.185483 0.029144
v -0.245760 -0.103626 -0.175092
v -0.225920 -0.128851 -0.137975
v -0.205011 -0.149831 -0.098856
v -0.183233 -0.166361 -0.058112
v -0.160795 -0.178283 -0.016135
v -0.137915 -0.185483 0.026671
v -0.205011 -0.128851 -0.147864
v -0.188036 -0.149831 -0.106884
v -0.170357 -0.166361 -0.064201
v -0.152142 -0.178283 -0.020227
v -0.133568 -0.185483 0.024615
v -0.183233 -0.128851 -0.155657
v -0.170356 -0.149831 -0.113210
v -0.156946 -0.166361 -0.069000
v -0.143129 -0.178283 -0.023452
v -0.129039 -0.185483 0.022994
v -0.160795 -0.128851 -0.161277
v -0.152142 -0.149831 -0.117772
v -0.143129 -0.166361 -0.072461
v -0.133843 -0.178283 -0.025778
v -0.124374 -0.185483 0.021826
v -0.137915 -0.128851 -0.164671
v -0.133568 -0.149831 -0.120528
v -0.129039 -0.166361 -0.074551
v -0.124374 -0.178283 -0.027183
v -0.119617 -0.185483 0.021120
v -0.114813 -0.128851 -0.165806
v -0.114813 -0.149831 -0.121449
v -0.114813 -0.178283 -0.027653
vn -0.1228 0.5630 -0.8173
vn 0.0571 -0.9805 0.1881
vn 0.0714 -0.9700 0.2323
vn 0.0475 -0.9700 0.2383
vn 0.1621 -0.9565 -0.2425
vn 0.1850 -0.9565 -0.2255
vn 0.1247 -0.9805 -0.1519
vn -0.1227 0.5631 -0.8172
vn -0.0000 -0.8813 -0.4726
vn 0.0376 -0.9233 -0.3821
vn -0.0000 -0.9233 -0.3840
vn 0.0286 -0.9565 -0.2903
vn -0.0000 -0.9565 -0.2917
vn 0.0193 -0.9805 -0.1956
vn -0.0000 -0.9805 -0.1966
vn -0.0739 -0.9700 0.2315
vn -0.0969 -0.9700 0.2229
vn -0.0752 -0.9805 0.1816
vn 0.0098 -0.9950 -0.0991
vn -0.0000 -0.9950 -0.0995
vn -0.0000 -1.0000 -0.0000
vn 0.8956 -0.3086 -0.3204
vn 0.9159 -0.2899 -0.2778
vn 0.8843 -0.3821 -0.2683
vn 0.0232 -0.9700 0.2419
vn -0.0013 -0.9700 0.2430
vn -0.0000 -0.9805 0.1966
vn 0.0752 -0.9805 0.1816
vn 0.0945 -0.9700 0.2239
vn 0.0194 -0.9950 -0.0976
vn 0.2861 -0.9565 -0.0569
vn 0.2903 -0.9565 -0.0286
vn 0.1956 -0.9805 -0.0193
vn 0.1719 0.2302 0.9578
vn -0.0497 -0.8577 -0.5117
vn -0.0463 -0.8813 -0.4703
vn -0.1009 -0.8577 -0.5041
vn -0.0922 -0.8813 -0.4635
vn -0.2228 -0.8536 -0.4710
vn -0.1997 -0.8577 -0.4737
vn -0.1809 -0.8813 -0.4366
vn -0.2624 -0.8308 -0.4909
vn -0.2549 -0.8029 -0.5389
vn 0.7686 -0.5549 -0.3184
vn 0.7961 -0.5549 -0.2415
vn 0.7403 -0.6336 -0.2246
vn -0.5034 -0.8577 -0.1045
vn -0.4522 -0.8813 -0.1372
vn -0.4635 -0.8813 -0.0922
vn 0.0765 -0.8535 -0.5154
vn 0.1214 -0.8032 -0.5832
vn 0.1086 -0.8308 -0.5459
vn -0.8498 0.5174 0.1004
vn -0.4723 -0.8577 -0.2032
vn -0.4168 -0.8813 -0.2228
vn -0.4366 -0.8813 -0.1809
vn 0.3136 -0.7924 -0.5232
vn 0.3530 -0.7723 -0.5282
vn 0.3092 -0.8308 -0.4628
vn 0.6540 -0.7063 -0.2709
vn 0.7147 -0.6336 -0.2961
vn 0.0922 -0.8813 -0.4635
vn 0.0749 -0.9233 -0.3766
vn 0.4620 -0.7258 -0.5097
vn 0.5005 -0.7063 -0.5005
vn 0.4492 -0.7723 -0.4492
vn 0.0569 -0.9565 -0.2861
vn 0.0383 -0.9805 -0.1928
vn 0.3675 -0.9233 -0.1115
vn 0.3766 -0.9233 -0.0749
vn -0.2709 -0.9307 0.2456
vn -0.3391 -0.9039 0.2607
vn -0.2968 -0.9233 0.2436
vn -0.1511 -0.8577 -0.4914
vn -0.1372 -0.8813 -0.4522
vn 0.8160 -0.5549 -0.1623
vn 0.8653 -0.4708 -0.1721
vn 0.8506 -0.5139 -0.1111
vn 0.2968 -0.9233 -0.2436
vn 0.3193 -0.9233 -0.2133
vn 0.2425 -0.9565 -0.1621
vn -0.4296 -0.9007 -0.0637
vn -0.3766 -0.9233 -0.0749
vn 0.6243 -0.7063 -0.3337
vn 0.5869 -0.7723 -0.2431
vn -0.3766 -0.9233 0.0749
vn -0.4255 -0.9040 0.0417
vn -0.3821 -0.9233 0.0376
vn -0.3840 -0.9233 -0.0000
vn 0.1372 -0.8813 -0.4522
vn 0.1115 -0.9233 -0.3675
vn 0.0847 -0.9565 -0.2791
vn -0.1189 -0.9700 0.2120
vn -0.1621 -0.9565 0.2425
vn -0.1092 -0.9805 0.1634
vn 0.0571 -0.9805 -0.1881
vn -0.1359 -0.9644 0.2267
vn -0.1937 -0.9415 0.2758
vn -0.0927 -0.9805 0.1734
vn 0.0289 -0.9950 -0.0952
vn 0.0428 0.6058 0.7944
vn 0.0927 -0.9805 0.1734
vn 0.7079 -0.7063 -0.0000
vn 0.7660 -0.6417 0.0376
vn 0.6995 -0.7138 0.0344
vn -0.4086 -0.9040 0.1261
vn -0.3548 -0.9233 0.1469
vn -0.4081 -0.9012 0.1460
vn -0.3548 -0.9233 -0.1469
vn -0.2572 -0.9565 -0.1375
vn -0.2425 -0.9565 -0.1621
vn -0.1634 -0.9805 -0.1092
vn -0.4366 -0.8813 0.1809
vn -0.4735 -0.8577 0.2002
vn -0.1966 -0.9805 -0.0000
vn -0.1956 -0.9805 -0.0193
vn -0.0991 -0.9950 -0.0098
vn -0.4495 -0.8577 -0.2496
vn -0.4286 -0.8577 -0.2839
vn -0.3929 -0.8813 -0.2626
vn -0.2903 -0.9565 0.0286
vn -0.4168 -0.8813 0.2228
vn -0.2572 -0.9565 0.1375
vn -0.2695 -0.9565 0.1116
vn -0.1816 -0.9805 0.0752
vn 0.1616 -0.8308 -0.5327
vn 0.1809 -0.8813 -0.4366
vn 0.1469 -0.9233 -0.3548
vn 0.8538 -0.3821 -0.3536
vn 0.8800 -0.3368 -0.3349
vn -0.0569 -0.9565 -0.2861
vn -0.0286 -0.9565 -0.2903
vn -0.0193 -0.9805 -0.1956
vn 0.1116 -0.9565 -0.2695
vn 0.0752 -0.9805 -0.1816
vn 0.8279 -0.5549 -0.0815
vn 0.7699 -0.6336 -0.0758
vn -0.1469 -0.9233 -0.3548
vn -0.1115 -0.9233 -0.3675
vn -0.0847 -0.9565 -0.2791
vn 0.0381 -0.9950 -0.0920
vn 0.1390 -0.9805 0.1390
vn 0.1750 -0.9700 0.1686
vn 0.1571 -0.9700 0.1854
vn -0.0553 -0.9950 -0.0828
vn -0.1092 -0.9805 -0.1634
vn -0.0927 -0.9805 -0.1734
vn 0.1634 -0.9805 0.1092
vn 0.2425 -0.9565 0.1621
vn 0.1911 -0.9700 0.1501
vn -0.1116 -0.9565 -0.2695
vn -0.0571 -0.9805 -0.1881
vn 0.6795 -0.5956 -0.4285
vn 0.7337 -0.5549 -0.3922
vn 0.6823 -0.6336 -0.3647
vn -0.0769 -0.9950 -0.0631
vn -0.1519 -0.9805 -0.1247
vn -0.1390 -0.9805 -0.1390
vn 0.9363 -0.2429 -0.2537
vn 0.9229 -0.3080 -0.2312
vn -0.3342 -0.8813 -0.3342
vn -0.2998 -0.8813 -0.3653
vn -0.2436 -0.9233 -0.2968
vn 0.7736 -0.6336 -0.0000
vn 0.2130 -0.8308 -0.5143
vn 0.2228 -0.8813 -0.4168
vn -0.0704 -0.9950 0.0704
vn -0.1390 -0.9805 0.1390
vn -0.1519 -0.9805 0.1247
vn 0.1810 -0.9233 -0.3386
vn -0.0878 -0.9950 0.0469
vn -0.1734 -0.9805 0.0927
vn 0.1375 -0.9565 -0.2572
vn 0.4522 -0.8813 -0.1372
vn 0.5327 -0.8308 -0.1616
vn 0.5459 -0.8308 -0.1086
vn 0.0194 -0.9950 0.0976
vn 0.0383 -0.9805 0.1928
vn 0.0193 -0.9805 0.1956
vn 0.0927 -0.9805 -0.1734
vn 0.6774 -0.7063 -0.2055
vn 0.6943 -0.7063 -0.1381
vn 0.6231 -0.7723 -0.1239
vn -0.6147 0.5553 -0.5602
vn 0.0469 -0.9950 -0.0878
vn -0.4276 -0.9040 -0.0014
vn -0.3821 -0.9233 -0.0376
vn -0.0000 -0.9950 0.0995
vn 0.1881 -0.9805 0.0571
vn 0.1816 -0.9805 0.0752
vn 0.0920 -0.9950 0.0381
vn 0.3821 -0.9233 0.0376
vn 0.3766 -0.9233 0.0749
vn 0.2861 -0.9565 0.0569
vn -0.4413 -0.8575 0.2645
vn -0.4510 -0.8577 0.2468
vn -0.4372 -0.8576 0.2709
vn 0.2695 -0.9565 0.1116
vn 0.2572 -0.9565 0.1375
vn 0.1734 -0.9805 0.0927
vn 0.5843 -0.6715 -0.4558
vn 0.6432 -0.6336 -0.4298
vn 0.5886 -0.7063 -0.3933
vn 0.4726 -0.8813 -0.0000
vn 0.4703 -0.8813 0.0463
vn -0.3656 0.9283 -0.0671
vn 0.3840 -0.9233 -0.0000
vn 0.2903 -0.9565 0.0286
vn -0.3675 -0.9233 0.1115
vn 0.2624 -0.8308 -0.4909
vn 0.2626 -0.8813 -0.3929
vn 0.5358 -0.6715 -0.5119
vn 0.5472 -0.7063 -0.4491
vn 0.2133 -0.9233 -0.3193
vn -0.4414 -0.8575 -0.2645
vn 0.1092 -0.9805 -0.1634
vn 0.0553 -0.9950 -0.0828
vn 0.2355 -0.8032 -0.5472
vn 0.8207 -0.5699 -0.0403
vn 0.7029 -0.5732 -0.4213
vn 0.3834 -0.7409 -0.5515
vn -0.4903 -0.8577 -0.1546
vn 0.2436 -0.9233 -0.2968
vn 0.7045 -0.7063 -0.0694
vn 0.6322 -0.7723 -0.0623
vn 0.0463 -0.8813 -0.4703
vn 0.0631 -0.9950 -0.0769
vn 0.4030 -0.7723 -0.4911
vn -0.3929 -0.8813 0.2626
vn 0.3531 -0.8308 -0.4303
vn 0.2998 -0.8813 -0.3653
vn 0.0976 -0.9950 -0.0194
vn 0.1928 -0.9805 -0.0383
vn 0.1390 -0.9805 -0.1390
vn 0.0704 -0.9950 -0.0704
vn 0.4168 -0.8813 -0.2228
vn 0.4909 -0.8308 -0.2624
vn 0.5143 -0.8308 -0.2130
vn 0.6090 -0.6520 -0.4517
vn -0.4253 -0.9040 -0.0444
vn 0.3936 -0.8308 -0.3936
vn 0.3342 -0.8813 -0.3342
vn 0.2715 -0.9233 -0.2715
vn 0.2063 -0.9565 -0.2063
vn -0.3631 -0.8577 -0.3640
vn 0.0769 -0.9950 -0.0631
vn 0.2893 -0.8032 -0.5208
vn 0.4911 -0.7723 -0.4030
vn 0.4303 -0.8308 -0.3531
vn 0.3653 -0.8813 -0.2998
vn 0.2255 -0.9565 -0.1850
vn 0.8642 -0.4865 -0.1282
vn 0.1519 -0.9805 -0.1247
vn -0.3246 -0.8577 -0.3986
vn -0.2626 -0.8813 -0.3929
vn 0.5282 -0.7723 -0.3530
vn 0.4628 -0.8308 -0.3092
vn 0.3929 -0.8813 -0.2626
vn 0.9174 -0.3367 -0.2119
vn 0.1634 -0.9805 -0.1092
vn 0.9063 -0.3821 -0.1803
vn 0.9069 -0.3994 -0.1345
vn 0.0828 -0.9950 -0.0553
vn 0.5603 -0.7723 -0.2995
vn 0.3387 -0.9233 -0.1810
vn 0.2572 -0.9565 -0.1375
vn -0.2205 -0.9415 0.2548
vn -0.2063 -0.9565 0.2063
vn -0.1850 -0.9565 0.2255
vn 0.1734 -0.9805 -0.0927
vn 0.0878 -0.9950 -0.0469
vn 0.7675 -0.5140 -0.3831
vn 0.4366 -0.8813 -0.1809
vn 0.3548 -0.9233 -0.1469
vn 0.2695 -0.9565 -0.1116
vn 0.1816 -0.9805 -0.0752
vn 0.0920 -0.9950 -0.0381
vn 0.8280 -0.4012 -0.3917
vn 0.8151 -0.4708 -0.3376
vn 0.7886 -0.4889 -0.3730
vn 0.2791 -0.9565 -0.0847
vn 0.1881 -0.9805 -0.0571
vn -0.0571 -0.9805 0.1881
vn 0.0952 -0.9950 -0.0289
vn -0.0258 -0.9700 0.2416
vn -0.0383 -0.9805 0.1928
vn -0.0193 -0.9805 0.1956
vn -0.0501 -0.9700 0.2378
vn 0.8443 -0.4708 -0.2561
vn 0.6080 -0.7723 -0.1844
vn 0.7588 -0.6336 -0.1509
vn 0.4635 -0.8813 -0.0922
vn 0.0991 -0.9950 -0.0098
vn 0.1247 -0.9805 0.1519
vn 0.1375 -0.9700 0.2003
vn 0.1092 -0.9805 0.1634
vn 0.2131 -0.9642 0.1581
vn 0.2846 -0.9415 0.1804
vn 0.1519 -0.9805 0.1247
vn 0.5539 -0.8308 -0.0546
vn 0.4703 -0.8813 -0.0463
vn 0.3821 -0.9233 -0.0376
vn 0.1166 -0.9700 0.2132
vn 0.3675 -0.9233 0.1115
vn 0.3999 -0.9039 0.1518
vn 0.3548 -0.9233 0.1470
vn 0.5539 -0.8308 0.0546
vn 0.5398 -0.8380 0.0801
vn 0.5077 -0.8576 0.0824
vn 0.6353 -0.7723 -0.0000
vn 0.6263 -0.7790 0.0308
vn 0.4635 -0.8813 0.0922
vn 0.4448 -0.8887 0.1114
vn 0.5566 -0.8308 -0.0000
vn 0.2917 -0.9565 -0.0000
vn 0.1966 -0.9805 -0.0000
vn 0.0995 -0.9950 -0.0000
vn 0.3291 -0.9314 0.1557
vn 0.4132 -0.9039 0.1107
vn -0.3193 -0.9233 0.2133
vn -0.2679 -0.8535 -0.4469
vn -0.2228 -0.8813 -0.4168
vn 0.4367 -0.7409 -0.5103
vn 0.1956 -0.9805 0.0193
vn 0.5949 -0.8030 0.0359
vn 0.0991 -0.9950 0.0098
vn 0.8028 -0.5954 -0.0321
vn 0.8026 -0.5952 -0.0394
vn -0.3978 -0.8577 -0.3256
vn -0.3653 -0.8813 -0.2998
vn 0.1794 -0.8032 -0.5681
vn 0.0020 -0.8577 -0.5141
vn 0.1928 -0.9805 0.0383
vn 0.0976 -0.9950 0.0194
vn -0.2829 -0.8577 -0.4293
vn -0.2451 -0.9415 0.2313
vn -0.2255 -0.9565 0.1850
vn 0.2791 -0.9565 0.0847
vn 0.0952 -0.9950 0.0289
vn 0.3014 -0.9415 0.1507
vn -0.3676 -0.8891 0.2726
vn 0.0878 -0.9950 0.0469
vn 0.0537 -0.8577 -0.5113
vn 0.0828 -0.9950 0.0553
vn 0.0704 -0.9950 0.0704
vn -0.6147 0.5553 -0.5601
vn -0.4192 -0.9040 0.0843
vn 0.0631 -0.9950 0.0769
vn 0.0553 -0.9950 0.0828
vn 0.0469 -0.9950 0.0878
vn 0.0289 -0.9950 0.0952
vn 0.0769 -0.9950 0.0631
vn -0.0289 -0.9950 0.0952
vn -0.0381 -0.9950 0.0920
vn -0.0469 -0.9950 0.0878
vn -0.1247 -0.9805 0.1519
vn -0.0631 -0.9950 0.0769
vn -0.0194 -0.9950 0.0976
vn -0.3386 -0.9233 0.1810
vn -0.2425 -0.9565 0.1621
vn -0.0828 -0.9950 0.0553
vn -0.1634 -0.9805 0.1092
vn -0.0769 -0.9950 0.0631
vn -0.2861 -0.9565 0.0569
vn -0.1956 -0.9805 0.0193
vn -0.0976 -0.9950 0.0194
vn -0.1928 -0.9805 0.0383
vn -0.2791 -0.9565 0.0847
vn -0.1881 -0.9805 0.0571
vn -0.0952 -0.9950 0.0289
vn -0.2917 -0.9565 -0.0000
vn -0.0995 -0.9950 -0.0000
vn -0.2903 -0.9565 -0.0286
vn 0.0381 -0.9950 0.0920
vn -0.2861 -0.9565 -0.0569
vn -0.1928 -0.9805 -0.0383
vn -0.0976 -0.9950 -0.0194
vn -0.3675 -0.9233 -0.1115
vn -0.2791 -0.9565 -0.0847
vn -0.1881 -0.9805 -0.0571
vn -0.0952 -0.9950 -0.0289
vn -0.1816 -0.9805 -0.0752
vn -0.0920 -0.9950 -0.0381
vn -0.2695 -0.9565 -0.1116
vn -0.1734 -0.9805 -0.0927
vn -0.3386 -0.9233 -0.1810
vn -0.3193 -0.9233 -0.2133
vn -0.2968 -0.9233 -0.2436
vn -0.2255 -0.9565 -0.1850
vn -0.2715 -0.9233 -0.2715
vn -0.2063 -0.9565 -0.2063
vn -0.0878 -0.9950 -0.0469
vn -0.2133 -0.9233 -0.3193
vn -0.1621 -0.9565 -0.2425
vn -0.1850 -0.9565 -0.2255
vn -0.1375 -0.9565 -0.2572
vn -0.0631 -0.9950 -0.0769
vn -0.1247 -0.9805 -0.1519
vn 0.0098 -0.9950 0.0991
vn -0.0704 -0.9950 -0.0704
vn -0.0752 -0.9805 -0.1816
vn -0.0469 -0.9950 -0.0878
vn -0.1810 -0.9233 -0.3386
vn -0.0749 -0.9233 -0.3766
vn -0.0098 -0.9950 0.0991
vn -0.0381 -0.9950 -0.0920
vn -0.0383 -0.9805 -0.1928
vn -0.0194 -0.9950 -0.0976
vn -0.0376 -0.9233 -0.3821
vn -0.0098 -0.9950 -0.0991
vn 0.1719 0.2301 0.9579
vn 0.1719 0.2302 0.9579
vn 0.1719 0.2304 0.9578
vn 0.1719 0.2303 0.9578
vn 0.1718 0.2302 0.9578
vn -0.0553 -0.9950 0.0828
vn -0.0920 -0.9950 0.0381
vn -0.2762 -0.8032 -0.5278
vn -0.0991 -0.9950 0.0098
vn 0.9410 -0.2427 -0.2357
vn -0.0828 -0.9950 -0.0553
vn -0.0289 -0.9950 -0.0952
vt 2.709184 2.671579
vt 2.709101 2.671605
vt 2.539789 2.566077
vt 0.296875 0.062500
vt 0.296875 0.070981
vt 0.281250 0.070525
vt 0.656250 0.093750
vt 0.640625 0.093750
vt 0.640625 0.062500
vt 2.518852 2.691404
vt 2.500000 2.689671
vt 2.457668 2.576553
vt 0.750000 0.156250
vt 0.734375 0.125000
vt 0.750000 0.125000
vt 0.734375 0.093750
vt 0.750000 0.093750
vt 0.734375 0.062500
vt 0.750000 0.062500
vt 0.203125 0.078816
vt 0.187500 0.083177
vt 0.187500 0.062500
vt 0.734375 0.031250
vt 0.750000 0.031250
vt 0.742188 0.000000
vt 0.550744 0.406171
vt 0.546875 0.406250
vt 0.546875 0.375000
vt 2.528955 2.692045
vt 0.265625 0.070728
vt 0.250000 0.071599
vt 0.250000 0.062500
vt 0.312500 0.062500
vt 0.312500 0.072116
vt 2.613346 2.690619
vt 2.602349 2.691481
vt 0.726562 0.000000
vt 0.718750 0.031250
vt 0.531250 0.093750
vt 0.515625 0.093750
vt 0.515625 0.062500
vt 2.605121 2.443812
vt 2.679008 2.464393
vt 2.786062 2.507040
vt 0.765625 0.181036
vt 0.765625 0.156250
vt 0.781250 0.181011
vt 0.781250 0.156250
vt 0.821266 0.187326
vt 0.812500 0.185127
vt 0.812500 0.156250
vt 0.828125 0.187500
vt 0.826581 0.188897
vt 0.562500 0.312500
vt 0.546875 0.312500
vt 0.546875 0.281250
vt 0.968750 0.158090
vt 0.953125 0.156250
vt 0.968750 0.156250
vt 0.726183 0.187323
vt 0.718750 0.189573
vt 0.718750 0.187500
vt 2.346937 2.438631
vt 2.347277 2.436740
vt 2.436154 2.531284
vt 0.937500 0.169336
vt 0.921875 0.156250
vt 0.937500 0.156250
vt 0.664621 0.218563
vt 0.656250 0.218750
vt 0.656250 0.187500
vt 0.562500 0.250000
vt 0.562500 0.281250
vt 0.718750 0.156250
vt 0.718750 0.125000
vt 0.632381 0.249809
vt 0.625000 0.250000
vt 0.625000 0.218750
vt 0.718750 0.093750
vt 0.718750 0.062500
vt 0.546875 0.125000
vt 0.531250 0.125000
vt 0.119580 0.124877
vt 0.109375 0.137211
vt 0.109375 0.125000
vt 0.796875 0.182361
vt 0.796875 0.156250
vt 0.531250 0.312500
vt 0.531250 0.343750
vt 0.515625 0.336367
vt 2.817763 2.604893
vt 2.823176 2.598034
vt 0.609375 0.125000
vt 0.593750 0.125000
vt 0.593750 0.093750
vt 0.977163 0.156091
vt 0.968750 0.125000
vt 0.578125 0.250000
vt 0.562500 0.218750
vt 0.031250 0.125000
vt 0.015625 0.151752
vt 0.015625 0.125000
vt 1.015625 0.151752
vt 1.000000 0.125000
vt 1.015625 0.125000
vt 2.355904 2.404990
vt 2.357968 2.405097
vt 2.387083 2.407331
vt 0.703125 0.156250
vt 2.647958 2.455117
vt 2.659451 2.458359
vt 2.336902 2.523565
vt 2.337348 2.516020
vt 0.703125 0.125000
vt 2.624193 2.448558
vt 0.703125 0.093750
vt 0.171875 0.088896
vt 0.156250 0.093750
vt 0.156250 0.062500
vt 0.703125 0.062500
vt 0.161452 0.093655
vt 0.156250 0.096368
vt 0.171875 0.062500
vt 0.703125 0.031250
vt 0.328125 0.062500
vt 0.710938 0.000000
vt 2.790424 2.512011
vt 2.803031 2.529846
vt 0.500000 0.250000
vt 0.499477 0.281226
vt 0.492763 0.249809
vt 0.046875 0.153712
vt 0.062500 0.125000
vt 0.060689 0.156185
vt 0.937500 0.125000
vt 2.739409 2.659968
vt 0.921875 0.093750
vt 0.906250 0.093750
vt 0.906250 0.062500
vt 0.062500 0.156250
vt 0.062500 0.156587
vt 1.000000 0.062500
vt 0.984375 0.062500
vt 0.984375 0.031250
vt 0.921875 0.177623
vt 0.906250 0.181490
vt 0.906250 0.156250
vt 0.015625 0.093750
vt 0.078125 0.156250
vt 0.078125 0.093750
vt 0.062500 0.093750
vt 0.062500 0.062500
vt 0.703125 0.187500
vt 0.687500 0.156250
vt 2.537962 2.428978
vt 2.546336 2.430654
vt 2.492191 2.420713
vt 0.687500 0.125000
vt 0.562500 0.375000
vt 0.562500 0.375718
vt 0.781250 0.093750
vt 0.765625 0.093750
vt 0.765625 0.062500
vt 0.687500 0.093750
vt 2.483965 2.419388
vt 0.687500 0.062500
vt 0.515625 0.312500
vt 0.515625 0.281250
vt 0.812500 0.125000
vt 0.796875 0.125000
vt 0.796875 0.093750
vt 0.687500 0.031250
vt 0.375000 0.062500
vt 0.375000 0.085187
vt 0.359375 0.080344
vt 0.843750 0.031250
vt 0.843750 0.062500
vt 0.828125 0.062500
vt 0.695312 0.000000
vt 0.406250 0.062500
vt 0.406250 0.093750
vt 0.390625 0.091522
vt 0.812500 0.093750
vt 0.796875 0.062500
vt 0.593750 0.307801
vt 0.578125 0.312500
vt 0.578125 0.281250
vt 0.890625 0.031250
vt 0.890625 0.062500
vt 0.875000 0.062500
vt 0.546875 0.416688
vt 0.540694 0.406148
vt 0.875000 0.156250
vt 0.859375 0.156250
vt 0.859375 0.125000
vt 0.500000 0.281250
vt 0.687500 0.187500
vt 0.671875 0.156250
vt 0.125000 0.031250
vt 0.125000 0.062500
vt 0.109375 0.062500
vt 0.671875 0.125000
vt 0.078125 0.031250
vt 0.078125 0.062500
vt 0.671875 0.093750
vt 0.546875 0.156250
vt 0.546875 0.187500
vt 0.531250 0.187500
vt 0.281250 0.031250
vt 0.281250 0.062500
vt 0.265625 0.062500
vt 0.671875 0.062500
vt 0.546875 0.250000
vt 0.531250 0.250000
vt 0.531250 0.218750
vt 2.380307 2.645846
vt 2.367481 2.632519
vt 2.430854 2.556133
vt 0.671875 0.031250
vt 1.000000 0.152600
vt 0.984375 0.125000
vt 0.250000 0.031250
vt 0.679688 0.000000
vt 2.744272 2.657837
vt 0.453125 0.062500
vt 0.437500 0.062500
vt 0.437500 0.031250
vt 0.484375 0.125000
vt 0.468750 0.125000
vt 0.468750 0.093750
vt 0.091500 0.165649
vt 0.078125 0.160820
vt 0.093750 0.162432
vt 0.437500 0.093750
vt 0.421875 0.093750
vt 0.421875 0.062500
vt 0.609375 0.281181
vt 0.593750 0.281250
vt 0.593750 0.250000
vt 0.500000 0.156250
vt 0.484375 0.156250
vt 0.500000 0.125000
vt 0.484375 0.093750
vt 0.046875 0.125000
vt 0.671875 0.187500
vt 0.656250 0.156250
vt 0.625000 0.258935
vt 0.609375 0.250000
vt 0.656250 0.125000
vt 0.913866 0.182688
vt 0.656250 0.062500
vt 0.656250 0.031250
vt 0.687500 0.203308
vt 2.336478 2.532527
vt 0.664062 0.000000
vt 2.481538 2.687444
vt 0.506579 0.312327
vt 2.538293 2.692511
vt 0.591302 0.312406
vt 0.656250 0.225458
vt 0.953125 0.162908
vt 0.640625 0.125000
vt 0.515625 0.250000
vt 0.515625 0.218750
vt 2.806432 2.535341
vt 0.734375 0.156250
vt 0.640625 0.031250
vt 0.648438 0.000000
vt 0.640625 0.218750
vt 0.093750 0.156250
vt 0.640625 0.187500
vt 0.640625 0.156250
vt 0.531250 0.031250
vt 0.531250 0.062500
vt 0.625000 0.062500
vt 2.652118 2.685356
vt 2.626395 2.689163
vt 0.625000 0.031250
vt 0.578125 0.156250
vt 0.578125 0.187500
vt 0.562500 0.187500
vt 0.632812 0.000000
vt 0.609332 0.281248
vt 0.984375 0.154693
vt 0.625000 0.187500
vt 0.625000 0.156250
vt 0.625000 0.125000
vt 0.625000 0.093750
vt 0.875000 0.180039
vt 0.617188 0.000000
vt 0.609375 0.031250
vt 0.671875 0.213182
vt 2.337285 2.597800
vt 2.336726 2.587272
vt 2.336171 2.567860
vt 2.336105 2.549717
vt 0.609375 0.218750
vt 0.609375 0.187500
vt 0.609375 0.156250
vt 0.609375 0.093750
vt 0.518275 0.343660
vt 0.609375 0.062500
vt 0.859375 0.181377
vt 0.843750 0.156250
vt 2.342212 2.468614
vt 2.344532 2.452839
vt 2.350689 2.420192
vt 0.593750 0.218750
vt 0.593750 0.187500
vt 0.593750 0.156250
vt 0.531250 0.379730
vt 0.593750 0.062500
vt 0.531250 0.375000
vt 0.529530 0.374947
vt 0.593750 0.031250
vt 2.338641 2.500000
vt 0.601562 0.000000
vt 2.340257 2.484267
vt 0.578125 0.218750
vt 0.578125 0.125000
vt 2.354117 2.405480
vt 0.578125 0.093750
vt 0.140625 0.106190
vt 0.125000 0.093750
vt 0.140625 0.093750
vt 0.578125 0.062500
vt 2.798990 2.623846
vt 0.578125 0.031250
vt 2.463259 2.684709
vt 2.444962 2.681436
vt 0.585938 0.000000
vt 2.426445 2.677578
vt 2.415910 2.675071
vt 2.824634 2.595832
vt 0.578125 0.339269
vt 0.562500 0.156250
vt 0.562500 0.125000
vt 0.562500 0.093750
vt 0.562500 0.062500
vt 2.798489 2.624283
vt 0.562500 0.031250
vt 0.570312 0.000000
vt 2.769989 2.644312
vt 0.562793 0.374990
vt 0.562500 0.343750
vt 0.576117 0.343679
vt 2.409446 2.673440
vt 2.773891 2.641984
vt 0.546875 0.093750
vt 0.546875 0.062500
vt 0.203125 0.062500
vt 0.546875 0.031250
vt 0.234375 0.073179
vt 0.218750 0.062500
vt 0.234375 0.062500
vt 0.554688 0.000000
vt 0.218750 0.075544
vt 0.546875 0.343750
vt 0.546875 0.218750
vt 0.539062 0.000000
vt 0.531250 0.281250
vt 0.531250 0.156250
vt 0.515625 0.031250
vt 0.359375 0.062500
vt 0.343750 0.076681
vt 0.343750 0.062500
vt 0.523438 0.000000
vt 0.395084 0.093663
vt 0.406250 0.099807
vt 0.390625 0.062500
vt 0.515625 0.187500
vt 0.515625 0.156250
vt 0.515625 0.125000
vt 2.823667 2.584610
vt 0.328125 0.073986
vt 0.453125 0.125000
vt 0.437500 0.125489
vt 0.437500 0.125000
vt 0.484375 0.187500
vt 0.473977 0.187342
vt 0.468750 0.174843
vt 0.500000 0.218750
vt 0.484609 0.218739
vt 0.468750 0.156250
vt 0.459344 0.156097
vt 0.500000 0.187500
vt 0.500000 0.093750
vt 0.500000 0.062500
vt 0.500000 0.031250
vt 0.437038 0.124984
vt 0.507812 0.000000
vt 0.453125 0.145814
vt 2.558503 2.692860
vt 0.093750 0.125000
vt 0.831350 0.187384
vt 0.828125 0.156250
vt 2.679666 2.679666
vt 2.666498 2.682705
vt 0.640625 0.240547
vt 0.484375 0.062500
vt 0.484375 0.217946
vt 0.484375 0.031250
vt 0.492188 0.000000
vt 0.500000 0.283920
vt 0.503916 0.305334
vt 0.890625 0.180076
vt 0.890625 0.156250
vt 0.703125 0.195525
vt 0.750000 0.182436
vt 0.468750 0.062500
vt 0.468750 0.031250
vt 0.476562 0.000000
vt 0.843750 0.184133
vt 0.125000 0.119306
vt 0.109375 0.093750
vt 0.453125 0.093750
vt 0.453125 0.031250
vt 0.421875 0.110754
vt 0.460938 0.000000
vt 0.097151 0.156141
vt 0.445312 0.000000
vt 0.421875 0.031250
vt 0.734375 0.185254
vt 0.429688 0.000000
vt 0.414062 0.000000
vt 0.406250 0.031250
vt 0.375000 0.031250
vt 2.404956 2.669463
vt 2.407965 2.672185
vt 2.393735 2.659037
vt 2.465435 2.416553
vt 2.475129 2.418013
vt 2.427377 2.411509
vt 2.355102 2.618915
vt 2.343035 2.604880
vt 0.031250 0.152118
vt 0.359375 0.031250
vt 0.343750 0.031250
vt 0.328125 0.031250
vt 0.296875 0.031250
vt 0.390625 0.031250
vt 0.398438 0.000000
vt 0.203125 0.031250
vt 0.187500 0.031250
vt 0.171875 0.031250
vt 0.140625 0.062500
vt 0.140625 0.031250
vt 0.382812 0.000000
vt 0.218750 0.031250
vt 0.078125 0.125000
vt 0.093750 0.093750
vt 0.093750 0.031250
vt 0.093750 0.062500
vt 0.367187 0.000000
vt 0.109375 0.031250
vt 0.031250 0.093750
vt 0.015625 0.062500
vt 0.031250 0.031250
vt 0.031250 0.062500
vt 0.351562 0.000000
vt 0.046875 0.093750
vt 0.046875 0.062500
vt 0.046875 0.031250
vt 0.335937 0.000000
vt 1.015625 0.093750
vt 1.000000 0.093750
vt 1.015625 0.062500
vt 1.000000 0.031250
vt 0.984375 0.093750
vt 0.320312 0.000000
vt 0.312500 0.031250
vt 0.968750 0.093750
vt 0.968750 0.062500
vt 0.968750 0.031250
vt 0.953125 0.125000
vt 0.953125 0.093750
vt 0.953125 0.062500
vt 0.953125 0.031250
vt 0.937500 0.062500
vt 0.937500 0.031250
vt 0.937500 0.093750
vt 0.921875 0.062500
vt 0.921875 0.125000
vt 0.906250 0.125000
vt 0.304687 0.000000
vt 0.890625 0.125000
vt 0.890625 0.093750
vt 0.875000 0.125000
vt 0.875000 0.093750
vt 0.289062 0.000000
vt 0.921875 0.031250
vt 0.843750 0.125000
vt 0.843750 0.093750
vt 0.859375 0.093750
vt 0.828125 0.093750
vt 0.859375 0.031250
vt 0.859375 0.062500
vt 0.265625 0.031250
vt 0.273437 0.000000
vt 0.875000 0.031250
vt 0.812500 0.062500
vt 0.828125 0.031250
vt 0.257812 0.000000
vt 0.828125 0.125000
vt 0.781250 0.125000
vt 0.234375 0.031250
vt 0.242187 0.000000
vt 0.812500 0.031250
vt 0.781250 0.062500
vt 0.781250 0.031250
vt 0.765625 0.125000
vt 0.226562 0.000000
vt 0.765625 0.031250
vt 2.500000 2.422013
vt 2.522447 2.426001
vt 2.507553 2.423312
vt 2.514991 2.424634
vt 2.530056 2.427439
vt 0.210937 0.000000
vt 2.555385 2.432513
vt 2.565382 2.434618
vt 2.576699 2.437055
vt 2.589693 2.440069
vt 2.580233 2.437832
vt 2.623577 2.448392
vt 0.195312 0.000000
vt 2.691650 2.468381
vt 2.720261 2.478306
vt 2.720984 2.478563
vt 2.746935 2.488764
vt 2.770510 2.499111
vt 2.772304 2.500000
vt 0.179687 0.000000
vt 2.364918 2.405504
vt 2.402228 2.408670
vt 2.409461 2.409461
vt 2.454548 2.414966
vt 2.442047 2.413268
vt 2.446402 2.413816
vt 0.156250 0.031250
vt 0.164062 0.000000
vt 2.817658 2.559624
vt 0.148437 0.000000
vt 2.818864 2.563426
vt 0.132812 0.000000
vt 0.117187 0.000000
vt 0.101562 0.000000
vt 0.085937 0.000000
vt 0.062500 0.031250
vt 0.070312 0.000000
vt 0.828125 0.188392
vt 0.054687 0.000000
vt 0.039062 0.000000
vt 0.015625 0.031250
vt 0.023437 0.000000
vt 1.007812 0.000000
vt 1.015625 0.031250
vt 0.000000 0.062500
vt 0.992188 0.000000
vt 0.092775 0.164332
vt 0.976562 0.000000
vt 0.960938 0.000000
vt 0.945312 0.000000
vt 0.545685 0.419960
vt 0.929688 0.000000
vt 0.906250 0.031250
vt 0.914062 0.000000
vt 0.898438 0.000000
vt 0.882812 0.000000
vt 0.867188 0.000000
vt 0.851562 0.000000
vt 0.835938 0.000000
vt 0.820312 0.000000
vt 0.796875 0.031250
vt 0.804688 0.000000
vt 0.789062 0.000000
vt 2.579753 2.692541
vt 0.773438 0.000000
vt 0.757812 0.000000
s 0
f 94/1/1 84/2/1 83/3/1
s 1
f 275/4/2 71/5/3 72/6/4
f 136/7/5 143/8/6 144/9/7
s 0
f 1/10/8 131/11/8 108/12/8
s 1
f 412/13/9 36/14/10 413/15/11
f 413/15/11 37/16/12 15/17/13
f 15/17/13 38/18/14 414/19/15
f 77/20/16 91/21/17 289/22/18
f 414/19/15 39/23/19 16/24/20
f 17/25/21 16/24/20 39/23/19
f 107/26/22 194/27/23 195/28/24
s 0
f 30/29/8 1/10/8 108/12/8
s 1
f 73/30/25 74/31/26 281/32/27
f 273/33/28 70/34/29 71/5/3
s 0
f 54/35/8 33/36/8 83/3/8
s 1
f 17/37/21 39/23/19 62/38/30
f 216/39/31 226/40/32 227/41/33
s 0
f 51/42/34 46/43/34 40/44/34
s 1
f 130/45/35 412/13/9 407/46/36
f 129/47/37 407/46/36 402/48/38
f 121/49/39 109/50/40 392/51/41
f 386/52/42 193/53/43 121/49/39
f 183/54/44 197/55/45 198/56/46
f 25/57/47 346/58/48 341/59/49
f 30/60/50 14/61/51 57/62/52
s 0
f 20/63/53 18/64/53 5/65/53
s 1
f 28/66/54 356/67/55 351/68/56
f 54/69/57 132/70/58 133/71/59
f 185/72/60 184/73/61 198/56/46
f 36/14/10 58/74/62 59/75/63
f 82/76/64 146/77/65 147/78/66
f 37/16/12 59/75/63 60/79/67
f 38/18/14 60/79/67 61/80/68
f 203/81/69 215/82/70 216/39/31
f 38/18/14 62/38/30 39/23/19
f 119/83/71 118/84/72 302/85/73
f 392/51/41 122/86/74 397/87/75
f 209/88/76 208/89/77 8/90/78
s 0
f 107/91/8 83/3/8 101/92/8
s 1
f 158/93/79 167/94/80 168/95/81
f 26/96/82 341/59/49 342/97/83
f 173/98/84 185/72/60 186/99/85
f 397/87/75 129/47/37 402/48/38
f 325/100/86 22/101/87 329/102/88
f 22/103/87 333/104/89 329/105/88
s 0
f 29/106/34 120/107/34 118/108/34
s 1
f 57/62/52 86/109/90 58/74/62
s 0
f 48/110/34 49/111/34 46/43/34
f 26/112/53 24/113/53 5/65/53
s 1
f 58/74/62 87/114/91 59/75/63
s 0
f 48/110/34 51/42/34 50/115/34
s 1
f 60/79/67 87/114/91 88/116/92
f 92/117/93 293/118/94 294/119/95
f 60/79/67 89/120/96 61/80/68
f 102/121/97 100/122/98 293/118/94
f 91/21/17 291/123/99 289/22/18
f 62/38/30 89/120/96 90/124/100
s 0
f 83/3/101 5/65/101 40/44/101
s 1
f 271/125/102 70/34/29 273/33/28
f 17/126/21 62/38/30 90/124/100
s 0
f 13/127/101 8/128/101 83/3/101
s 1
f 230/129/103 43/130/104 44/131/105
f 19/132/106 317/133/107 20/134/108
f 346/58/48 351/68/56 352/135/109
s 0
f 93/136/8 94/1/8 83/3/8
s 1
f 358/137/110 363/138/111 364/139/112
f 316/140/113 18/141/114 20/134/108
f 335/142/115 339/143/116 340/144/117
f 34/145/118 78/146/119 361/147/120
f 325/100/86 329/102/88 330/148/121
f 311/149/122 18/141/114 316/140/113
f 313/150/123 318/151/124 319/152/125
f 85/153/126 111/154/127 86/109/90
s 0
f 69/155/34 68/156/34 75/157/34
s 1
f 86/109/90 112/158/128 87/114/91
f 195/28/24 181/159/129 97/160/130
f 404/161/131 409/162/132 410/163/133
f 88/116/92 112/158/128 113/164/134
s 0
f 76/165/34 75/157/34 68/156/34
s 1
f 88/116/92 114/166/135 89/120/96
f 209/88/76 219/167/136 220/168/137
f 393/169/138 398/170/139 399/171/140
f 90/124/100 114/166/135 115/172/141
f 265/173/142 66/174/143 67/175/144
f 385/176/145 384/177/146 390/178/147
f 17/179/21 90/124/100 115/172/141
f 261/180/148 260/181/149 64/182/150
f 394/183/151 399/171/140 400/184/152
f 93/185/153 171/186/154 172/187/155
f 370/188/156 369/189/157 374/190/158
f 101/191/159 7/192/160 194/27/23
f 371/193/161 376/194/162 377/195/163
f 230/129/103 229/196/164 43/130/104
f 361/147/120 356/67/55 34/145/118
f 97/160/130 107/26/22 195/28/24
f 317/133/107 316/140/113 20/134/108
f 110/197/165 124/198/166 111/154/127
f 301/199/167 300/200/168 304/201/169
f 112/158/128 124/198/166 125/202/170
f 315/203/171 314/204/172 319/152/125
f 112/158/128 126/205/173 113/164/134
f 202/206/174 201/207/175 213/208/176
f 278/209/177 277/210/178 279/211/179
f 113/164/134 127/212/180 114/166/135
f 199/213/181 211/214/182 212/215/183
s 0
f 103/216/184 80/217/184 2/218/184
s 1
f 115/172/141 127/212/180 128/219/185
f 23/220/186 337/221/187 333/104/89
f 279/211/179 281/32/27 282/222/188
f 17/223/21 115/172/141 128/219/185
s 0
f 96/224/8 93/136/8 83/3/8
s 1
f 251/225/189 255/226/190 256/227/191
f 414/19/15 38/18/14 39/23/19
f 240/228/192 245/229/193 246/230/194
f 3/231/195 12/232/196 120/233/197
f 254/234/198 257/235/199 258/236/200
f 84/237/201 162/238/202 163/239/203
f 233/240/204 239/241/205 240/228/192
s 0
f 108/12/206 5/65/206 83/3/206
s 1
f 234/242/207 240/228/192 241/243/208
f 321/244/209 317/133/107 19/132/106
f 123/245/210 134/246/211 124/198/166
f 56/247/212 154/248/213 146/77/65
f 125/202/170 134/246/211 135/249/214
f 125/202/170 136/7/5 126/205/173
f 34/145/118 4/250/215 78/146/119
f 126/205/173 137/251/216 127/212/180
f 60/79/67 59/75/63 87/114/91
f 128/219/185 137/251/216 138/252/217
f 32/253/218 123/245/210 110/197/165
s 0
f 5/65/53 2/218/53 25/254/53
s 1
f 17/255/21 128/219/185 138/252/217
f 198/56/46 197/55/45 209/88/76
f 56/247/212 84/237/201 154/248/213
s 0
f 131/11/8 130/256/8 108/12/8
s 1
f 88/116/92 87/114/91 112/158/128
f 219/167/136 8/90/78 13/257/219
f 88/116/92 113/164/134 114/166/135
f 90/124/100 89/120/96 114/166/135
s 0
f 14/258/8 30/29/8 108/12/8
s 1
f 93/185/153 96/259/220 171/186/154
f 60/79/67 88/116/92 89/120/96
f 54/69/57 53/260/221 132/70/58
f 25/57/47 27/261/222 346/58/48
f 134/246/211 142/262/223 135/249/214
f 211/214/182 221/263/224 222/264/225
f 135/249/214 143/8/6 136/7/5
f 397/87/75 122/86/74 129/47/37
s 0
f 8/128/101 11/265/101 83/3/101
s 1
f 136/7/5 144/9/7 137/251/216
f 412/13/9 35/266/226 36/14/10
f 137/251/216 145/267/227 138/252/217
f 38/18/14 61/80/68 62/38/30
f 17/268/21 138/252/217 145/267/227
f 53/260/221 139/269/228 132/70/58
f 112/158/128 111/154/127 124/198/166
f 112/158/128 125/202/170 126/205/173
f 113/164/134 126/205/173 127/212/180
f 115/172/141 114/166/135 127/212/180
f 306/270/229 120/233/197 12/232/196
f 311/149/122 306/270/229 12/232/196
f 132/70/58 140/271/230 133/71/59
f 134/246/211 140/271/230 141/272/231
f 218/273/232 217/274/233 227/41/33
f 143/8/6 152/275/234 144/9/7
s 0
f 55/276/8 53/277/8 83/3/8
s 1
f 144/9/7 153/278/235 145/267/227
f 176/279/236 175/280/237 187/281/238
f 17/282/21 145/267/227 153/278/235
f 163/239/203 154/248/213 84/237/201
f 84/237/201 94/283/239 162/238/202
s 0
f 108/12/206 2/218/206 5/65/206
s 1
f 123/245/210 133/71/59 134/246/211
f 125/202/170 124/198/166 134/246/211
f 82/76/64 56/247/212 146/77/65
f 23/220/186 24/284/240 337/221/187
f 139/269/228 148/285/241 140/271/230
f 141/272/231 148/285/241 149/286/242
f 141/272/231 150/287/243 142/262/223
f 142/262/223 151/288/244 143/8/6
f 80/289/245 376/194/162 371/193/161
f 17/290/21 153/278/235 161/291/246
f 128/219/185 127/212/180 137/251/216
f 32/253/218 33/292/247 123/245/210
s 0
f 2/218/53 4/293/53 34/294/53
f 34/294/53 28/295/53 2/218/53
f 25/254/53 26/112/53 5/65/53
f 27/296/53 25/254/53 2/218/53
s 1
f 146/77/65 155/297/248 147/78/66
f 147/78/66 156/298/249 148/285/241
f 149/286/242 156/298/249 157/299/250
f 149/286/242 158/93/79 150/287/243
f 150/287/243 159/300/251 151/288/244
f 208/89/77 11/301/252 8/90/78
f 151/288/244 160/302/253 152/275/234
f 125/202/170 135/249/214 136/7/5
f 152/275/234 161/291/246 153/278/235
f 103/303/254 381/304/255 376/194/162
s 0
f 21/305/53 19/306/53 5/65/53
f 18/64/53 12/307/53 5/65/53
s 1
f 94/283/239 93/185/153 162/238/202
s 0
f 28/295/53 27/296/53 2/218/53
s 1
f 154/248/213 164/308/256 155/297/248
f 156/298/249 164/308/256 165/309/257
f 157/299/250 165/309/257 166/310/258
f 157/299/250 167/94/80 158/93/79
f 6/311/259 195/28/24 7/192/160
f 158/93/79 168/95/81 159/300/251
f 107/26/22 101/191/159 194/27/23
f 159/300/251 169/312/260 160/302/253
f 207/313/261 6/311/259 9/314/262
f 160/302/253 170/315/263 161/291/246
s 0
f 24/113/53 23/316/53 5/65/53
s 1
f 17/317/21 161/291/246 170/315/263
s 0
f 23/316/53 22/318/53 5/65/53
f 22/318/53 21/305/53 5/65/53
f 19/306/53 20/63/53 5/65/53
s 1
f 163/239/203 172/187/155 173/98/84
f 163/239/203 174/319/264 164/308/256
f 164/308/256 175/280/237 165/309/257
f 166/310/258 175/280/237 176/279/236
f 166/310/258 177/320/265 167/94/80
s 0
f 12/307/53 3/321/53 5/65/53
s 1
f 168/95/81 177/320/265 178/322/266
f 116/323/267 299/324/268 296/325/269
f 169/312/260 178/322/266 179/326/270
s 0
f 107/91/8 97/327/8 83/3/8
s 1
f 170/315/263 179/326/270 180/328/271
s 0
f 129/329/8 122/330/8 108/12/8
s 1
f 17/331/21 170/315/263 180/328/271
s 0
f 122/330/8 109/332/8 108/12/8
f 109/332/8 121/333/8 108/12/8
f 83/3/8 81/334/8 101/92/8
s 1
f 96/259/220 95/335/272 171/186/154
f 173/98/84 186/99/85 174/319/264
f 174/319/264 187/281/238 175/280/237
f 176/279/236 187/281/238 188/336/273
f 176/279/236 189/337/274 177/320/265
f 177/320/265 190/338/275 178/322/266
f 100/122/98 296/325/269 293/118/94
f 178/322/266 191/339/276 179/326/270
s 0
f 97/327/8 98/340/8 83/3/8
s 1
f 180/328/271 191/339/276 192/341/277
s 0
f 40/44/101 13/127/101 83/3/101
s 1
f 17/342/21 180/328/271 192/341/277
s 0
f 95/343/8 96/224/8 83/3/8
s 1
f 98/344/278 97/160/130 181/159/129
f 98/344/278 182/345/279 99/346/280
s 0
f 121/333/8 193/347/8 108/12/8
s 1
f 172/187/155 183/54/44 184/73/61
f 173/98/84 184/73/61 185/72/60
f 188/336/273 201/207/175 202/206/174
f 188/336/273 203/81/69 189/337/274
s 0
f 99/348/8 95/343/8 83/3/8
s 1
f 189/337/274 204/349/281 190/338/275
f 190/338/275 205/350/282 191/339/276
f 77/20/16 289/22/18 287/351/283
f 191/339/276 206/352/284 192/341/277
f 75/353/285 285/354/286 283/355/287
f 17/356/21 192/341/277 206/352/284
f 76/357/288 287/351/283 285/354/286
s 0
f 98/340/8 99/348/8 83/3/8
s 1
f 181/159/129 196/358/289 182/345/279
f 182/345/279 197/55/45 183/54/44
f 183/54/44 198/56/46 184/73/61
f 185/72/60 198/56/46 199/213/181
f 185/72/60 200/359/290 186/99/85
f 186/99/85 201/207/175 187/281/238
f 203/81/69 216/39/31 204/349/281
f 204/349/281 217/274/233 205/350/282
f 73/30/25 281/32/27 279/211/179
f 205/350/282 218/273/232 206/352/284
f 72/6/4 279/211/179 277/210/178
f 17/360/21 206/352/284 218/273/232
f 273/33/28 71/5/3 275/4/2
f 275/4/2 72/6/4 277/210/178
f 195/28/24 208/89/77 196/358/289
f 196/358/289 209/88/76 197/55/45
f 198/56/46 209/88/76 210/361/291
f 199/213/181 210/361/291 211/214/182
f 199/213/181 212/215/183 200/359/290
f 200/359/290 213/208/176 201/207/175
f 202/206/174 213/208/176 214/362/292
f 141/272/231 149/286/242 150/287/243
f 203/81/69 214/362/292 215/82/70
f 149/286/242 148/285/241 156/298/249
f 218/273/232 227/41/33 228/363/293
f 267/364/294 68/365/295 269/366/296
f 17/367/21 218/273/232 228/363/293
f 265/173/142 67/175/144 267/364/294
f 260/181/149 65/368/297 64/182/150
f 260/181/149 63/369/298 65/368/297
f 263/370/299 66/174/143 265/173/142
f 209/88/76 220/168/137 210/361/291
f 211/214/182 220/168/137 221/263/224
f 211/214/182 222/264/225 212/215/183
f 212/215/183 223/371/300 213/208/176
f 214/362/292 223/371/300 224/372/301
f 144/9/7 152/275/234 153/278/235
f 215/82/70 224/372/301 225/373/302
s 0
f 7/374/101 81/334/101 83/3/101
s 1
f 215/82/70 226/40/32 216/39/31
f 216/39/31 227/41/33 217/274/233
f 269/366/296 69/375/303 271/125/102
f 249/376/304 50/377/305 253/378/306
f 238/379/307 47/380/308 46/381/309
f 231/382/310 44/131/105 45/383/311
f 244/384/312 46/381/309 49/385/313
f 221/263/224 229/196/164 230/129/103
f 221/263/224 231/382/310 222/264/225
f 222/264/225 232/386/314 223/371/300
f 224/372/301 232/386/314 233/240/204
f 224/372/301 234/242/207 225/373/302
f 143/8/6 151/288/244 152/275/234
f 226/40/32 234/242/207 235/387/315
f 227/41/33 235/387/315 236/388/316
f 257/235/199 63/369/298 260/181/149
f 227/41/33 237/389/317 228/363/293
f 253/378/306 50/377/305 52/390/318
f 17/391/21 228/363/293 237/389/317
f 244/384/312 49/385/313 48/392/319
f 413/15/11 36/14/10 37/16/12
s 0
f 31/393/8 14/258/8 108/12/8
s 1
f 118/84/72 306/270/229 307/394/320
f 106/395/321 386/52/42 387/396/322
s 0
f 56/397/8 82/398/8 83/3/8
s 1
f 233/240/204 238/379/307 239/241/205
f 233/240/204 240/228/192 234/242/207
f 53/260/221 55/399/323 139/269/228
f 234/242/207 241/243/208 235/387/315
f 235/387/315 242/400/324 236/388/316
f 231/382/310 45/383/311 42/401/325
f 236/388/316 243/402/326 237/389/317
f 238/379/307 42/401/325 47/380/308
f 17/403/21 237/389/317 243/402/326
f 229/196/164 41/404/327 43/130/104
f 40/405/328 41/404/327 220/168/137
f 15/17/13 37/16/12 38/18/14
f 224/372/301 233/240/204 234/242/207
f 224/372/301 223/371/300 232/386/314
f 361/147/120 79/406/329 366/407/330
f 366/407/330 80/289/245 371/193/161
f 239/241/205 245/229/193 240/228/192
f 31/408/331 110/197/165 85/153/126
f 240/228/192 246/230/194 241/243/208
f 131/409/332 35/266/226 412/13/9
f 241/243/208 247/410/333 242/400/324
f 249/376/304 48/392/319 50/377/305
f 242/400/324 248/411/334 243/402/326
f 244/384/312 239/241/205 46/381/309
f 17/412/21 243/402/326 248/411/334
f 239/241/205 238/379/307 46/381/309
f 231/382/310 230/129/103 44/131/105
f 221/263/224 220/168/137 229/196/164
f 221/263/224 230/129/103 231/382/310
f 222/264/225 231/382/310 232/386/314
f 104/413/335 106/395/321 387/396/322
f 271/125/102 69/375/303 70/34/29
f 62/38/30 61/80/68 89/120/96
f 117/414/336 302/85/73 303/415/337
f 245/229/193 250/416/338 246/230/194
f 36/14/10 35/266/226 58/74/62
f 246/230/194 251/225/189 247/410/333
f 227/41/33 226/40/32 235/387/315
f 247/410/333 252/417/339 248/411/334
f 257/235/199 51/418/340 63/369/298
f 17/419/21 248/411/334 252/417/339
f 227/41/33 236/388/316 237/389/317
f 249/376/304 245/229/193 48/392/319
f 245/229/193 244/384/312 48/392/319
f 307/394/320 302/85/73 118/84/72
f 118/84/72 10/420/341 306/270/229
f 387/396/322 381/304/255 104/413/335
f 233/240/204 232/386/314 238/379/307
f 92/117/93 102/121/97 293/118/94
f 250/416/338 253/378/306 254/234/198
f 129/47/37 130/45/35 407/46/36
f 250/416/338 255/226/190 251/225/189
f 235/387/315 241/243/208 242/400/324
f 251/225/189 256/227/191 252/417/339
f 238/379/307 232/386/314 42/401/325
f 17/421/21 252/417/339 256/227/191
f 232/386/314 231/382/310 42/401/325
f 236/388/316 242/400/324 243/402/326
f 229/196/164 220/168/137 41/404/327
f 220/168/137 219/167/136 40/405/328
f 219/167/136 13/257/219 40/405/328
f 361/147/120 78/146/119 79/406/329
f 366/407/330 79/406/329 80/289/245
f 31/408/331 32/253/218 110/197/165
f 239/241/205 244/384/312 245/229/193
f 254/234/198 258/236/200 255/226/190
f 256/227/191 258/236/200 259/422/342
f 131/409/332 1/423/343 35/266/226
f 17/424/21 256/227/191 259/422/342
f 241/243/208 246/230/194 247/410/333
f 242/400/324 247/410/333 248/411/334
f 303/415/337 299/324/268 117/414/336
f 117/414/336 119/83/71 302/85/73
f 245/229/193 249/376/304 250/416/338
f 246/230/194 250/416/338 251/225/189
f 247/410/333 251/225/189 252/417/339
f 250/416/338 254/234/198 255/226/190
f 250/416/338 249/376/304 253/378/306
f 58/74/62 86/109/90 87/114/91
f 38/18/14 37/16/12 60/79/67
f 256/227/191 255/226/190 258/236/200
f 17/425/21 259/422/342 262/426/344
f 14/61/51 31/408/331 85/153/126
f 257/235/199 260/181/149 261/180/148
f 259/422/342 258/236/200 261/180/148
f 262/426/344 261/180/148 263/370/299
f 263/370/299 265/173/142 266/427/345
s 0
f 2/218/184 108/12/184 106/428/184
f 108/12/184 193/347/184 106/428/184
f 193/347/346 105/429/346 106/428/346
f 104/430/184 103/216/184 2/218/184
f 106/428/184 104/430/184 2/218/184
s 1
f 14/61/51 85/153/126 57/62/52
s 0
f 91/431/34 77/432/34 116/433/34
s 1
f 257/235/199 261/180/148 258/236/200
s 0
f 68/156/34 51/42/34 40/44/34
s 1
f 259/422/342 261/180/148 262/426/344
s 0
f 79/434/184 78/435/184 2/218/184
s 1
f 266/427/345 265/173/142 267/364/294
f 321/244/209 19/132/106 21/436/347
f 268/437/348 267/364/294 269/366/296
f 27/261/222 28/66/54 351/68/56
f 270/438/349 269/366/296 271/125/102
f 272/439/350 271/125/102 273/33/28
f 276/440/351 275/4/2 277/210/178
f 273/33/28 275/4/2 276/440/351
f 110/197/165 123/245/210 124/198/166
f 172/187/155 162/238/202 93/185/153
f 262/426/344 263/370/299 264/441/352
f 215/82/70 225/373/302 226/40/32
f 17/442/21 262/426/344 264/441/352
s 0
f 80/217/184 79/434/184 2/218/184
s 1
f 288/443/353 287/351/283 289/22/18
f 290/444/354 289/22/18 291/123/99
f 292/445/355 291/123/99 294/119/95
f 294/119/95 293/118/94 296/325/269
f 294/119/95 297/446/356 298/447/357
f 297/446/356 300/200/168 301/199/167
f 296/325/269 299/324/268 300/200/168
f 311/149/122 12/232/196 18/141/114
f 86/109/90 111/154/127 112/158/128
f 263/370/299 266/427/345 264/441/352
f 17/448/21 264/441/352 266/427/345
f 282/222/188 281/32/27 283/355/287
f 283/355/287 285/354/286 286/449/358
f 286/449/358 285/354/286 287/351/283
f 307/394/320 306/270/229 311/149/122
f 307/394/320 312/450/359 313/150/123
f 308/451/360 313/150/123 314/204/172
f 310/452/361 309/453/362 314/204/172
f 313/150/123 312/450/359 317/133/107
f 311/149/122 316/140/113 317/133/107
s 0
f 78/435/184 4/293/184 2/218/184
s 1
f 266/427/345 267/364/294 268/437/348
f 17/454/21 266/427/345 268/437/348
f 299/324/268 303/415/337 304/201/169
f 303/415/337 302/85/73 307/394/320
f 303/415/337 308/451/360 309/453/362
f 305/455/363 304/201/169 309/453/362
f 326/456/364 330/148/121 331/457/365
f 328/458/366 327/459/367 331/457/365
f 254/234/198 253/378/306 51/418/340
f 257/235/199 254/234/198 51/418/340
f 321/244/209 21/436/347 325/100/86
f 268/437/348 269/366/296 270/438/349
f 17/460/21 268/437/348 270/438/349
f 318/151/124 317/133/107 321/244/209
f 318/151/124 322/461/368 323/462/369
f 319/152/125 323/462/369 324/463/370
f 322/461/368 321/244/209 325/100/86
f 322/461/368 326/456/364 327/459/367
f 323/462/369 327/459/367 328/458/366
f 27/261/222 351/68/56 346/58/48
f 270/438/349 271/125/102 272/439/350
f 17/464/21 270/438/349 272/439/350
f 74/31/26 75/353/285 283/355/287
f 330/465/121 329/105/88 333/104/89
f 330/465/121 334/466/371 335/142/115
f 331/467/365 335/142/115 336/468/372
f 208/89/77 207/313/261 9/314/262
f 58/74/62 35/266/226 30/60/50
f 35/266/226 1/423/343 30/60/50
f 334/466/371 338/469/373 339/143/116
f 334/466/371 333/104/89 337/221/187
f 17/470/21 272/439/350 274/471/374
f 338/469/373 343/472/375 344/473/376
f 339/143/116 344/473/376 345/474/377
f 341/59/49 346/58/48 347/475/378
f 343/472/375 342/97/83 347/475/378
f 343/472/375 348/476/379 349/477/380
f 344/473/376 349/477/380 350/478/381
f 348/476/379 347/475/378 352/135/109
f 349/477/380 354/479/382 355/480/383
f 348/476/379 353/481/384 354/479/382
f 199/213/181 198/56/46 210/361/291
f 272/439/350 273/33/28 274/471/374
f 355/480/383 354/479/382 359/482/385
f 183/54/44 171/186/154 95/335/272
f 95/335/272 99/346/280 182/345/279
f 351/68/56 356/67/55 357/483/386
f 352/135/109 357/483/386 358/137/110
f 353/481/384 358/137/110 359/482/385
f 357/483/386 362/484/387 363/138/111
f 356/67/55 361/147/120 362/484/387
f 200/359/290 212/215/183 213/208/176
f 273/33/28 276/440/351 274/471/374
f 17/485/21 274/471/374 276/440/351
f 361/147/120 366/407/330 367/486/388
f 362/484/387 367/486/388 368/487/389
f 363/138/111 368/487/389 369/189/157
f 364/139/112 369/189/157 370/188/156
f 366/407/330 371/193/161 372/488/390
f 368/487/389 373/489/391 374/190/158
f 367/486/388 372/488/390 373/489/391
f 203/81/69 202/206/174 214/362/292
f 276/440/351 277/210/178 278/209/177
f 17/490/21 276/440/351 278/209/177
f 360/491/392 359/482/385 364/139/112
f 377/195/163 376/194/162 381/304/255
f 377/195/163 382/492/393 383/493/394
f 378/494/395 383/493/394 384/177/146
f 383/493/394 389/495/396 390/178/147
f 380/496/397 379/497/398 384/177/146
f 267/364/294 67/175/144 68/365/295
f 278/209/177 279/211/179 280/498/399
f 17/499/21 278/209/177 280/498/399
f 373/489/391 372/488/390 377/195/163
f 373/489/391 378/494/395 379/497/398
f 375/500/400 374/190/158 379/497/398
f 389/495/396 394/183/151 395/501/401
f 392/51/41 397/87/75 398/170/139
f 391/502/402 390/178/147 395/501/401
f 263/370/299 261/180/148 64/182/150
f 279/211/179 282/222/188 280/498/399
f 17/503/21 280/498/399 282/222/188
f 381/304/255 387/396/322 388/504/403
f 382/492/393 388/504/403 389/495/396
f 387/396/322 392/51/41 393/169/138
f 388/504/403 393/169/138 394/183/151
f 403/505/404 402/48/38 407/46/36
f 263/370/299 64/182/150 66/174/143
f 282/222/188 283/355/287 284/506/405
f 17/507/21 282/222/188 284/506/405
f 396/508/406 395/501/401 400/184/152
f 397/87/75 402/48/38 403/505/404
f 398/170/139 403/505/404 404/161/131
f 399/171/140 404/161/131 405/509/407
f 400/184/152 405/509/407 406/510/408
f 403/505/404 408/511/409 409/162/132
f 283/355/287 286/449/358 284/506/405
f 17/512/21 284/506/405 286/449/358
f 405/509/407 410/163/133 411/513/410
f 407/46/36 412/13/9 413/15/11
f 409/162/132 408/511/409 413/15/11
f 410/163/133 409/162/132 15/17/13
s 0
f 77/432/34 76/165/34 68/156/34
s 1
f 410/163/133 414/19/15 16/24/20
f 211/214/182 210/361/291 220/168/137
s 0
f 77/432/34 68/156/34 40/44/34
f 75/157/411 74/514/411 71/515/411
f 74/514/412 73/516/412 71/515/412
f 73/516/413 72/517/413 71/515/413
f 70/518/411 69/155/411 75/157/411
f 71/515/414 70/518/414 75/157/414
s 1
f 212/215/183 222/264/225 223/371/300
f 286/449/358 287/351/283 288/443/353
f 17/519/21 286/449/358 288/443/353
s 0
f 68/156/34 67/520/34 51/42/34
f 67/520/34 66/521/34 51/42/34
f 66/521/34 64/522/34 63/523/34
f 64/522/414 65/524/414 63/523/414
f 51/42/415 52/525/415 50/115/415
f 63/523/34 51/42/34 66/521/34
s 1
f 215/82/70 214/362/292 224/372/301
f 288/443/353 289/22/18 290/444/354
f 17/526/21 288/443/353 290/444/354
s 0
f 46/43/34 47/527/34 42/528/34
f 42/528/34 45/529/34 44/530/34
f 44/530/34 43/531/34 41/532/34
f 41/532/34 40/44/34 44/530/34
f 46/43/34 51/42/34 48/110/34
f 40/44/34 29/106/34 118/108/34
f 40/44/101 5/65/101 29/106/101
s 1
f 290/444/354 291/123/99 292/445/355
f 17/533/21 290/444/354 292/445/355
s 0
f 120/107/34 10/534/34 118/108/34
f 118/108/34 119/535/34 117/536/34
f 116/433/34 118/108/34 117/536/34
f 92/537/414 91/431/414 116/433/414
f 100/538/34 102/539/34 92/537/34
f 5/65/101 3/321/101 29/106/101
s 1
f 292/445/355 294/119/95 295/540/416
f 17/541/21 292/445/355 295/540/416
s 0
f 118/108/34 116/433/34 77/432/34
f 11/265/101 9/542/101 83/3/101
f 116/433/34 100/538/34 92/537/34
s 1
f 294/119/95 296/325/269 297/446/356
f 294/119/95 298/447/357 295/540/416
f 17/543/21 295/540/416 298/447/357
s 0
f 46/43/34 42/528/34 44/530/34
f 46/43/34 44/530/34 40/44/34
f 6/544/101 7/374/101 83/3/101
s 1
f 296/325/269 300/200/168 297/446/356
f 297/446/356 301/199/167 298/447/357
f 17/545/21 298/447/357 301/199/167
f 301/199/167 304/201/169 305/455/363
f 17/546/21 301/199/167 305/455/363
f 172/187/155 171/186/154 183/54/44
s 0
f 9/542/101 6/544/101 83/3/101
s 1
f 299/324/268 304/201/169 300/200/168
f 177/320/265 189/337/274 190/338/275
f 10/420/341 120/233/197 306/270/229
f 303/415/337 307/394/320 308/451/360
f 303/415/337 309/453/362 304/201/169
f 305/455/363 309/453/362 310/452/361
f 17/547/21 305/455/363 310/452/361
f 164/308/256 174/319/264 175/280/237
f 307/394/320 311/149/122 312/450/359
f 307/394/320 313/150/123 308/451/360
f 308/451/360 314/204/172 309/453/362
f 310/452/361 314/204/172 315/203/171
f 17/548/21 310/452/361 315/203/171
f 156/298/249 155/297/248 164/308/256
f 130/45/35 131/409/332 412/13/9
f 311/149/122 317/133/107 312/450/359
f 313/150/123 317/133/107 318/151/124
f 313/150/123 319/152/125 314/204/172
f 315/203/171 319/152/125 320/549/417
f 17/550/21 315/203/171 320/549/417
f 386/52/42 105/551/418 193/53/43
f 387/396/322 386/52/42 121/49/39
f 318/151/124 321/244/209 322/461/368
f 318/151/124 323/462/369 319/152/125
f 319/152/125 324/463/370 320/549/417
f 17/552/21 320/549/417 324/463/370
f 147/78/66 155/297/248 156/298/249
f 133/71/59 123/245/210 33/292/247
f 322/461/368 325/100/86 326/456/364
f 322/461/368 327/459/367 323/462/369
f 323/462/369 328/458/366 324/463/370
f 17/553/21 324/463/370 328/458/366
f 269/366/296 68/365/295 69/375/303
f 28/66/54 34/145/118 356/67/55
f 33/292/247 54/69/57 133/71/59
f 326/456/364 331/457/365 327/459/367
f 328/458/366 331/457/365 332/554/419
f 17/555/21 328/458/366 332/554/419
f 253/378/306 52/390/318 51/418/340
f 147/78/66 139/269/228 55/399/323
f 37/16/12 36/14/10 59/75/63
f 55/399/323 82/76/64 147/78/66
f 325/100/86 330/148/121 326/456/364
f 17/556/21 332/557/419 336/468/372
f 74/31/26 283/355/287 281/32/27
f 392/51/41 109/50/40 122/86/74
f 337/221/187 24/284/240 26/96/82
f 342/97/83 337/221/187 26/96/82
f 330/465/121 333/104/89 334/466/371
f 330/148/121 335/558/115 331/457/365
f 331/467/365 336/468/372 332/557/419
f 208/89/77 9/314/262 11/301/252
s 0
f 130/256/8 129/329/8 108/12/8
s 1
f 30/60/50 57/62/52 58/74/62
f 57/62/52 85/153/126 86/109/90
f 22/103/87 23/220/186 333/104/89
f 334/466/371 337/221/187 338/469/373
f 334/466/371 339/143/116 335/142/115
f 335/142/115 340/144/117 336/468/372
f 17/559/21 336/468/372 340/144/117
f 226/40/32 225/373/302 234/242/207
f 120/233/197 29/560/195 3/231/195
f 137/251/216 144/9/7 145/267/227
f 26/96/82 25/57/47 341/59/49
f 325/100/86 21/436/347 22/101/87
f 338/469/373 342/97/83 343/472/375
f 338/469/373 344/473/376 339/143/116
f 339/143/116 345/474/377 340/144/117
f 17/561/21 340/144/117 345/474/377
f 132/70/58 139/269/228 140/271/230
f 126/205/173 136/7/5 137/251/216
f 134/246/211 133/71/59 140/271/230
f 294/119/95 291/123/99 92/117/93
f 341/59/49 347/475/378 342/97/83
f 343/472/375 347/475/378 348/476/379
f 343/472/375 349/477/380 344/473/376
f 344/473/376 350/478/381 345/474/377
f 17/562/21 345/474/377 350/478/381
f 348/476/379 352/135/109 353/481/384
f 348/476/379 354/479/382 349/477/380
f 349/477/380 355/480/383 350/478/381
f 17/563/21 350/478/381 355/480/383
f 101/191/159 81/564/420 7/192/160
f 85/153/126 110/197/165 111/154/127
f 141/272/231 140/271/230 148/285/241
f 139/269/228 147/78/66 148/285/241
f 91/21/17 92/117/93 291/123/99
f 346/58/48 352/135/109 347/475/378
f 355/480/383 359/482/385 360/491/392
f 17/565/21 355/480/383 360/491/392
f 95/335/272 182/345/279 183/54/44
f 392/51/41 387/396/322 121/49/39
f 142/262/223 150/287/243 151/288/244
f 146/77/65 154/248/213 155/297/248
f 80/289/245 103/303/254 376/194/162
f 351/68/56 357/483/386 352/135/109
f 352/135/109 358/137/110 353/481/384
f 353/481/384 359/482/385 354/479/382
s 0
f 108/12/8 83/3/8 31/393/8
s 1
f 149/286/242 157/299/250 158/93/79
f 219/167/136 209/88/76 8/90/78
f 150/287/243 158/93/79 159/300/251
f 356/67/55 362/484/387 357/483/386
f 357/483/386 363/138/111 358/137/110
f 358/137/110 364/139/112 359/482/385
f 360/491/392 364/139/112 365/566/421
f 17/567/21 360/491/392 365/566/421
f 151/288/244 159/300/251 160/302/253
f 152/275/234 160/302/253 161/291/246
f 154/248/213 163/239/203 164/308/256
f 103/303/254 104/413/335 381/304/255
f 361/147/120 367/486/388 362/484/387
f 362/484/387 368/487/389 363/138/111
f 363/138/111 369/189/157 364/139/112
f 364/139/112 370/188/156 365/566/421
f 17/568/21 365/566/421 370/188/156
f 157/299/250 156/298/249 165/309/257
f 157/299/250 166/310/258 167/94/80
f 195/28/24 194/27/23 7/192/160
f 207/313/261 195/28/24 6/311/259
f 366/407/330 372/488/390 367/486/388
f 367/486/388 373/489/391 368/487/389
f 368/487/389 374/190/158 369/189/157
f 370/188/156 374/190/158 375/500/400
f 17/569/21 370/188/156 375/500/400
f 163/239/203 173/98/84 174/319/264
f 163/239/203 162/238/202 172/187/155
f 371/193/161 377/195/163 372/488/390
f 373/489/391 377/195/163 378/494/395
f 373/489/391 379/497/398 374/190/158
f 375/500/400 379/497/398 380/496/397
f 17/570/21 375/500/400 380/496/397
f 159/300/251 168/95/81 169/312/260
f 160/302/253 169/312/260 170/315/263
f 377/195/163 381/304/255 382/492/393
f 377/195/163 383/493/394 378/494/395
f 378/494/395 384/177/146 379/497/398
f 380/496/397 384/177/146 385/176/145
f 17/571/21 380/496/397 385/176/145
f 166/310/258 165/309/257 175/280/237
f 166/310/258 176/279/236 177/320/265
f 169/312/260 168/95/81 178/322/266
f 116/323/267 117/414/336 299/324/268
f 383/493/394 390/178/147 384/177/146
f 385/176/145 390/178/147 391/502/402
f 17/572/21 385/176/145 391/502/402
f 170/315/263 169/312/260 179/326/270
f 174/319/264 186/99/85 187/281/238
f 176/279/236 188/336/273 189/337/274
f 106/395/321 105/551/418 386/52/42
f 168/95/81 167/94/80 177/320/265
f 381/304/255 388/504/403 382/492/393
f 382/492/393 389/495/396 383/493/394
f 17/573/21 391/502/402 396/508/406
f 100/122/98 116/323/267 296/325/269
f 178/322/266 190/338/275 191/339/276
f 98/344/278 181/159/129 182/345/279
f 180/328/271 179/326/270 191/339/276
s 0
f 84/2/8 56/397/8 83/3/8
s 1
f 387/396/322 393/169/138 388/504/403
f 388/504/403 394/183/151 389/495/396
f 389/495/396 395/501/401 390/178/147
f 391/502/402 395/501/401 396/508/406
f 173/98/84 172/187/155 184/73/61
f 188/336/273 187/281/238 201/207/175
f 189/337/274 203/81/69 204/349/281
f 188/336/273 202/206/174 203/81/69
s 0
f 82/398/8 55/276/8 83/3/8
s 1
f 392/51/41 398/170/139 393/169/138
f 393/169/138 399/171/140 394/183/151
f 394/183/151 400/184/152 395/501/401
f 396/508/406 400/184/152 401/574/422
f 17/575/21 396/508/406 401/574/422
f 191/339/276 205/350/282 206/352/284
f 75/353/285 76/357/288 285/354/286
f 182/345/279 196/358/289 197/55/45
f 181/159/129 195/28/24 196/358/289
s 0
f 53/277/8 54/35/8 83/3/8
s 1
f 397/87/75 403/505/404 398/170/139
f 398/170/139 404/161/131 399/171/140
f 399/171/140 405/509/407 400/184/152
f 400/184/152 406/510/408 401/574/422
f 17/576/21 401/574/422 406/510/408
f 190/338/275 204/349/281 205/350/282
f 204/349/281 216/39/31 217/274/233
s 0
f 33/36/8 32/577/8 83/3/8
s 1
f 76/357/288 77/20/16 287/351/283
s 0
f 32/577/8 31/393/8 83/3/8
s 1
f 403/505/404 407/46/36 408/511/409
f 403/505/404 409/162/132 404/161/131
f 404/161/131 410/163/133 405/509/407
f 405/509/407 411/513/410 406/510/408
f 17/578/21 406/510/408 411/513/410
f 185/72/60 199/213/181 200/359/290
f 186/99/85 200/359/290 201/207/175
f 135/249/214 142/262/223 143/8/6
f 134/246/211 141/272/231 142/262/223
f 407/46/36 413/15/11 408/511/409
f 409/162/132 413/15/11 15/17/13
f 410/163/133 15/17/13 414/19/15
f 410/163/133 16/24/20 411/513/410
f 17/579/21 411/513/410 16/24/20
f 205/350/282 217/274/233 218/273/232
f 72/6/4 73/30/25 279/211/179
f 196/358/289 208/89/77 209/88/76
f 195/28/24 207/313/261 208/89/77
s 0
f 40/44/34 118/108/34 77/432/34
s 1
f 338/469/373 337/221/187 342/97/83
f 214/362/292 213/208/176 223/371/300
