# Blender 5.1.2
# www.blender.org
o moon_piece_09
v 0.297224 0.220416 0.144548
v -0.118137 -0.008062 0.193185
v 0.301613 0.192150 0.144836
v 0.304342 0.143141 0.145835
v 0.302238 0.094133 0.147331
v 0.295320 0.045596 0.149309
v 0.288783 0.018923 0.150677
v 0.016963 0.240686 -0.163461
v -0.235453 -0.055345 0.178219
v 0.052412 0.272683 -0.137839
v 0.092449 0.276754 -0.112654
v 0.130220 0.277836 -0.084305
v 0.165539 0.275928 -0.052938
v 0.198224 0.271031 -0.018699
v 0.228090 0.263148 0.018259
v 0.254947 0.252281 0.057780
v 0.278412 0.238297 0.099780
v 0.274762 0.240686 0.092889
v -0.304342 -0.271226 0.039808
v -0.289090 -0.257462 0.012091
v -0.131757 -0.092557 -0.151257
v -0.134230 -0.134644 -0.126153
v -0.137095 -0.174056 -0.097064
v -0.140325 -0.210412 -0.064271
v -0.143888 -0.243364 -0.028089
v -0.147751 -0.272594 0.011133
v 0.297163 0.220502 0.144358
v -0.129855 -0.051534 -0.170566
v -0.156145 -0.092557 -0.152455
v -0.079833 0.034846 -0.190749
v -0.268880 -0.237669 -0.021971
v -0.274344 -0.243364 -0.013350
v -0.081634 -0.002001 -0.181696
v -0.084859 -0.048201 -0.165483
v -0.088952 -0.092557 -0.144907
v -0.093873 -0.134644 -0.120166
v -0.099576 -0.174056 -0.091498
v -0.106004 -0.210412 -0.059180
v -0.113097 -0.243364 -0.023521
v -0.100473 -0.002001 -0.184491
v -0.243949 -0.210434 -0.059155
v -0.212979 -0.172460 -0.098241
v -0.030536 0.094133 -0.188586
v -0.032625 0.045596 -0.181696
v -0.036086 -0.002001 -0.170287
v -0.040885 -0.048201 -0.154469
v -0.046975 -0.092557 -0.134393
v -0.054297 -0.134644 -0.110253
v -0.062782 -0.174056 -0.082282
v -0.072348 -0.210412 -0.050749
v -0.082902 -0.243364 -0.015958
v -0.214202 -0.174056 -0.096865
v -0.148048 -0.274409 0.014146
v -0.120275 -0.270652 0.012565
v -0.133615 -0.272594 0.013230
v -0.243929 -0.210412 -0.059183
v -0.184962 -0.134644 -0.127664
v 0.015441 0.192150 -0.172135
v 0.016363 0.143141 -0.174359
v 0.015441 0.094133 -0.172135
v 0.012686 0.045596 -0.165483
v 0.008124 -0.002001 -0.154469
v 0.001798 -0.048201 -0.139196
v -0.006231 -0.092557 -0.119814
v -0.015884 -0.134644 -0.096509
v -0.027070 -0.174056 -0.069504
v -0.039680 -0.210412 -0.039060
v -0.053593 -0.243364 -0.005471
v -0.091403 -0.265084 0.012066
v -0.061046 -0.257808 0.012521
v -0.028766 -0.248576 0.014036
v 0.005585 -0.236285 0.017347
v -0.013057 -0.243364 0.015268
v 0.042333 -0.220385 0.022785
v -0.174979 -0.120341 -0.136728
v 0.081687 -0.200011 0.030915
v 0.062876 -0.210412 0.026572
v 0.123737 -0.174136 0.042430
v 0.167034 -0.140575 0.059054
v 0.056191 0.240686 -0.144907
v 0.059584 0.192150 -0.151257
v 0.060719 0.143141 -0.153380
v 0.059584 0.094133 -0.151257
v 0.056191 0.045596 -0.144907
v 0.050570 -0.002001 -0.134393
v 0.042778 -0.048201 -0.119814
v 0.032888 -0.092557 -0.101312
v 0.020997 -0.134644 -0.079065
v 0.007218 -0.174056 -0.053287
v -0.008315 -0.210412 -0.024226
v -0.025453 -0.243364 0.007838
v 0.123856 -0.174056 0.042468
v 0.210720 -0.098598 0.081420
v 0.173981 -0.134644 0.062098
v 0.252149 -0.047138 0.110658
v 0.216294 -0.092557 0.084745
v 0.251433 -0.048201 0.110033
v 0.286701 0.013903 0.147531
v 0.278969 -0.002001 0.137733
v -0.127775 -0.048201 -0.171849
v 0.097469 0.240686 -0.120166
v 0.101469 0.192150 -0.126153
v 0.102806 0.143141 -0.128154
v 0.101469 0.094133 -0.126153
v 0.097469 0.045596 -0.120166
v 0.090845 -0.002001 -0.110253
v 0.081661 -0.048201 -0.096509
v 0.070006 -0.092557 -0.079065
v 0.055991 -0.134644 -0.058091
v 0.039752 -0.174056 -0.033787
v 0.021445 -0.210412 -0.006389
v -0.029983 0.132859 -0.190406
v 0.027381 0.268488 -0.150839
v -0.048894 0.094133 -0.193185
v -0.073968 0.045596 -0.192052
v 0.136123 0.240686 -0.091498
v 0.140690 0.192150 -0.097064
v 0.142218 0.143141 -0.098925
v 0.140690 0.094133 -0.097064
v 0.136123 0.045596 -0.091498
v 0.128559 -0.002001 -0.082282
v 0.118073 -0.048201 -0.069504
v 0.104764 -0.092557 -0.053287
v 0.088760 -0.134644 -0.033787
v 0.070217 -0.174056 -0.011192
v 0.049313 -0.210412 0.014280
v 0.171781 0.240686 -0.059180
v 0.176872 0.192150 -0.064271
v 0.178574 0.143141 -0.065973
v 0.176872 0.094133 -0.064271
v 0.171781 0.045596 -0.059180
v 0.163351 -0.002001 -0.050749
v 0.151662 -0.048201 -0.039060
v 0.136827 -0.092557 -0.024226
v 0.118990 -0.134644 -0.006389
v 0.098322 -0.174056 0.014280
v 0.204100 0.240686 -0.023521
v 0.209665 0.192150 -0.028089
v 0.211526 0.143141 -0.029616
v 0.209665 0.094133 -0.028089
v 0.204100 0.045596 -0.023521
v 0.194883 -0.002001 -0.015958
v 0.182105 -0.048201 -0.005471
v 0.165888 -0.092557 0.007838
v 0.146388 -0.134644 0.023841
v 0.123794 -0.174056 0.042384
v 0.232768 0.240686 0.015133
v 0.238754 0.192150 0.011133
v 0.240756 0.143141 0.009795
v 0.238754 0.094133 0.011133
v 0.232768 0.045596 0.015133
v 0.222854 -0.002001 0.021757
v 0.209110 -0.048201 0.030940
v 0.191666 -0.092557 0.042596
v 0.170692 -0.134644 0.056610
v 0.257509 0.240686 0.056411
v 0.263858 0.192150 0.053017
v 0.265982 0.143141 0.051882
v 0.263858 0.094133 0.053017
v 0.257509 0.045596 0.056411
v 0.246994 -0.002001 0.062031
v 0.232416 -0.048201 0.069823
v 0.213914 -0.092557 0.079713
v 0.284736 0.192150 0.097160
v 0.286961 0.143141 0.096239
v 0.284736 0.094133 0.097160
v 0.278085 0.045596 0.099915
v 0.267070 -0.002001 0.104478
v 0.301187 0.192150 0.143137
v 0.303491 0.143141 0.142438
v 0.301187 0.094133 0.143137
v 0.294297 0.045596 0.145227
v 0.013213 0.231407 -0.166755
v -0.003212 0.192150 -0.178809
v -0.025102 0.143141 -0.189196
v -0.280058 -0.274512 0.033897
v -0.295108 -0.272594 0.037479
v -0.253605 -0.276746 0.028386
v -0.227466 -0.277836 0.023710
v -0.201353 -0.277815 0.019803
v -0.174979 -0.276685 0.016621
v -0.281283 -0.272594 0.030940
v -0.267056 -0.243364 -0.015958
v -0.255616 -0.272594 0.021756
v -0.236861 -0.243364 -0.023521
v -0.229172 -0.272594 0.015133
v -0.212863 -0.174056 -0.097064
v -0.209633 -0.210412 -0.064270
v -0.206070 -0.243364 -0.028089
v -0.202207 -0.272594 0.011133
v -0.174979 -0.134644 -0.128155
v -0.174979 -0.174056 -0.098925
v -0.174979 -0.210412 -0.065973
v -0.174979 -0.243364 -0.029616
v -0.174979 -0.272594 0.009795
vn -0.8613 0.4390 -0.2560
vn 0.0429 -0.4849 -0.8735
vn 0.1190 -0.4274 -0.8962
vn 0.0865 -0.4708 -0.8780
vn -0.0000 -0.5549 -0.8319
vn 0.0758 -0.6336 -0.7699
vn -0.0000 -0.6336 -0.7736
vn 0.0694 -0.7063 -0.7045
vn -0.0000 -0.7063 -0.7079
vn 0.0623 -0.7723 -0.6323
vn -0.0000 -0.7723 -0.6353
vn -0.0000 -0.8308 -0.5566
vn 0.0546 -0.8308 -0.5539
vn 0.7143 -0.3821 -0.5862
vn 0.7684 -0.3821 -0.5134
vn 0.7336 -0.4708 -0.4902
vn 0.0471 -0.8577 -0.5119
vn -0.0020 -0.8577 -0.5141
vn 0.9194 -0.0979 -0.3808
vn 0.9239 -0.0000 -0.3827
vn 0.9569 -0.0000 -0.2903
vn 0.9194 0.0979 -0.3808
vn 0.9523 0.0979 -0.2889
vn 0.2221 -0.2428 -0.9443
vn 0.2376 -0.2088 -0.9487
vn 0.2847 -0.1948 -0.9386
vn -0.8613 0.4389 -0.2560
vn 0.5449 -0.1948 -0.8155
vn 0.6222 -0.1948 -0.7582
vn 0.6072 -0.2899 -0.7398
vn 0.5529 -0.0979 -0.8275
vn 0.6313 -0.0979 -0.7693
vn 0.1347 -0.3959 -0.9084
vn 0.1803 -0.3821 -0.9063
vn 0.1022 0.0260 0.9944
vn 0.9386 -0.1948 -0.2847
vn 0.9514 -0.1948 -0.2383
vn 0.9410 -0.2427 -0.2357
vn 0.7730 -0.0000 -0.6344
vn 0.8315 -0.0000 -0.5556
vn 0.8275 -0.0979 -0.5529
vn -0.3803 0.7927 0.4764
vn 0.6936 0.1948 -0.6936
vn 0.6843 0.2430 -0.6875
vn 0.7471 0.2430 -0.6187
vn 0.1398 -0.3041 -0.9423
vn 0.1867 -0.2899 -0.9387
vn 0.1623 -0.5549 -0.8160
vn 0.0815 -0.5549 -0.8279
vn 0.9430 0.1467 -0.2987
vn 0.1509 -0.6336 -0.7588
vn 0.1381 -0.7063 -0.6943
vn 0.1239 -0.7723 -0.6231
vn 0.1227 -0.5631 0.8172
vn 0.0866 -0.8074 -0.5836
vn 0.2778 -0.2899 -0.9159
vn 0.3663 -0.2899 -0.8842
vn 0.3536 -0.3821 -0.8538
vn 0.2414 -0.1121 -0.9639
vn 0.3231 -0.0490 -0.9451
vn 0.2889 -0.0979 -0.9523
vn 0.5449 0.1948 -0.8155
vn 0.6222 0.1948 -0.7582
vn 0.6313 0.0979 -0.7693
vn 0.4691 0.0979 -0.8777
vn 0.3808 0.0979 -0.9194
vn 0.4099 0.1466 -0.9003
vn 0.9062 -0.1948 -0.3754
vn 0.9194 -0.2429 -0.3092
vn 0.9062 -0.2712 -0.3243
vn 0.2683 -0.3821 -0.8843
vn 0.1721 -0.4708 -0.8653
vn 0.2561 -0.4708 -0.8443
vn 0.2415 -0.5549 -0.7961
vn 0.3369 -0.0142 -0.9414
vn 0.3827 -0.0000 -0.9239
vn 0.2246 -0.6336 -0.7403
vn 0.2055 -0.7063 -0.6774
vn 0.1844 -0.7723 -0.6080
vn 0.1665 -0.8032 -0.5720
vn 0.1110 -0.8032 -0.5853
vn 0.9523 -0.0979 -0.2889
vn 0.9700 -0.0008 -0.2430
vn 0.9653 -0.0983 -0.2418
vn 0.3376 -0.4708 -0.8151
vn 0.4159 -0.4708 -0.7781
vn 0.3922 -0.5549 -0.7337
vn 0.5862 -0.3821 -0.7143
vn 0.6767 -0.2899 -0.6768
vn 0.5470 -0.6336 -0.5470
vn 0.5980 -0.6337 -0.4908
vn 0.5610 -0.6715 -0.4841
vn -0.1779 -0.7408 -0.6477
vn -0.1120 -0.7408 -0.6623
vn -0.1239 -0.7723 -0.6231
vn -0.1086 -0.8308 -0.5459
vn -0.0546 -0.8308 -0.5539
vn -0.0511 -0.8577 -0.5116
vn -0.0694 -0.7063 -0.7045
vn -0.0623 -0.7723 -0.6323
vn 0.3184 -0.5549 -0.7686
vn 0.2961 -0.6336 -0.7147
vn 0.2709 -0.7063 -0.6540
vn 0.2431 -0.7723 -0.5869
vn 0.2204 -0.8032 -0.5535
vn 0.9655 0.0966 -0.2418
vn 0.6534 -0.3821 -0.6534
vn 0.6820 -0.4708 -0.5597
vn 0.3357 0.0837 -0.9382
vn -0.1844 -0.7723 -0.6080
vn -0.0403 -0.5695 -0.8210
vn 0.8930 0.1555 -0.4224
vn 0.9099 0.1467 -0.3880
vn 0.3808 -0.0979 -0.9194
vn 0.3754 -0.1948 -0.9062
vn 0.3647 -0.6336 -0.6823
vn 0.3337 -0.7063 -0.6243
vn 0.2995 -0.7723 -0.5603
vn 0.2723 -0.8032 -0.5299
vn 0.8650 0.1948 -0.4624
vn 0.8517 0.2430 -0.4643
vn 0.9595 0.1466 -0.2406
vn 0.8155 0.1948 -0.5449
vn 0.7582 0.1948 -0.6222
vn 0.8031 0.2430 -0.5440
vn 0.4714 -0.0000 -0.8819
vn 0.4691 -0.0979 -0.8777
vn 0.5404 0.2430 -0.8056
vn 0.4624 -0.1948 -0.8650
vn 0.4512 -0.2899 -0.8441
vn 0.4356 -0.3821 -0.8150
vn 0.4298 -0.6336 -0.6432
vn 0.3933 -0.7063 -0.5886
vn 0.4605 0.2430 -0.8537
vn 0.4624 0.1948 -0.8650
vn 0.3388 -0.7521 -0.5653
vn 0.5529 0.0979 -0.8275
vn 0.5556 -0.0000 -0.8315
vn 0.5317 -0.2899 -0.7958
vn 0.5134 -0.3821 -0.7684
vn 0.4902 -0.4708 -0.7336
vn 0.4622 -0.5549 -0.6917
vn 0.4153 -0.7409 -0.5279
vn 0.3628 -0.7409 -0.5652
vn 0.5597 -0.4708 -0.6820
vn 0.6239 -0.4708 -0.6239
vn 0.5883 -0.5549 -0.5883
vn 0.6344 -0.0000 -0.7730
vn 0.5278 -0.5549 -0.6431
vn 0.4908 -0.6336 -0.5980
vn 0.4491 -0.7063 -0.5472
vn 0.7071 -0.0000 -0.7071
vn 0.7037 -0.0979 -0.7037
vn 0.7037 0.0979 -0.7037
vn -0.8612 0.4390 -0.2561
vn 0.6936 -0.1948 -0.6936
vn 0.8777 -0.0979 -0.4691
vn 0.8819 -0.0000 -0.4714
vn 0.4880 -0.6871 -0.5384
vn -0.2146 -0.8031 -0.5558
vn -0.2076 -0.7875 -0.5803
vn -0.1616 -0.8308 -0.5327
vn 0.7693 0.0979 -0.6313
vn 0.8422 -0.3632 -0.3984
vn 0.8150 -0.3821 -0.4356
vn 0.8591 -0.3368 -0.3855
vn 0.7693 -0.0979 -0.6313
vn 0.8060 -0.4528 -0.3812
vn 0.7582 -0.1948 -0.6222
vn 0.8441 -0.2899 -0.4512
vn 0.7398 -0.2899 -0.6072
vn 0.6431 -0.5549 -0.5278
vn 0.5120 -0.6715 -0.5358
vn 0.7237 -0.5368 -0.4337
vn 0.6917 -0.5549 -0.4622
vn 0.7781 -0.4708 -0.4159
vn 0.7449 -0.5140 -0.4253
vn -0.2130 -0.8308 -0.5143
vn -0.1117 -0.6488 -0.7528
vn -0.0758 -0.6336 -0.7699
vn 0.8155 -0.1948 -0.5449
vn -0.1474 -0.8577 -0.4925
vn 0.7958 -0.2899 -0.5317
vn 0.6329 -0.6156 -0.4694
vn 0.4148 0.2427 -0.8770
vn -0.2523 -0.8073 -0.5334
vn 0.8275 0.0979 -0.5529
vn -0.1938 -0.8577 -0.4762
vn 0.6559 -0.5956 -0.4638
vn 0.8777 0.0979 -0.4691
vn 0.8650 -0.1948 -0.4624
vn 0.8842 -0.2899 -0.3663
vn 0.4206 0.1803 -0.8892
vn -0.1017 -0.7202 -0.6863
vn -0.0542 -0.5955 -0.8015
vn 0.0278 -0.5139 -0.8574
vn -0.2549 -0.8029 -0.5389
vn 0.6152 0.2430 -0.7500
vn -0.0997 -0.8577 -0.5043
vt 2.451721 2.742715
vt 2.434269 2.716686
vt 2.457668 2.576553
vt 0.743192 0.343593
vt 0.734375 0.372654
vt 0.734375 0.343750
vt 2.500000 2.797016
vt 2.493012 2.790671
vt 0.750000 0.312500
vt 0.734375 0.281250
vt 0.750000 0.281250
vt 0.734375 0.250000
vt 0.750000 0.250000
vt 0.734375 0.218750
vt 0.750000 0.218750
vt 0.750000 0.187500
vt 0.734375 0.187500
vt 0.609375 0.375000
vt 0.593750 0.375000
vt 0.593750 0.343750
vt 0.734375 0.185254
vt 0.750000 0.182436
vt 0.562500 0.468750
vt 0.562500 0.500000
vt 0.546875 0.500000
vt 0.562500 0.531250
vt 0.546875 0.531250
vt 0.718750 0.430447
vt 0.716964 0.437470
vt 0.703125 0.437500
vt 2.473400 2.770075
vt 2.472544 2.769112
vt 0.656250 0.437500
vt 0.640625 0.437500
vt 0.640625 0.406250
vt 2.601497 2.834591
vt 2.588259 2.836535
vt 0.656250 0.468750
vt 0.640625 0.468750
vt 0.733705 0.374978
vt 0.718750 0.375000
vt 2.829209 2.596790
vt 2.834052 2.598175
vt 2.539789 2.566077
vt 0.546875 0.437500
vt 0.545510 0.437477
vt 0.545685 0.419960
vt 2.641652 2.806894
vt 2.631734 2.818035
vt 0.609375 0.500000
vt 0.593750 0.500000
vt 0.593750 0.468750
vt 2.634359 2.815729
vt 2.814818 2.636284
vt 2.800948 2.660860
vt 2.604913 2.833743
vt 0.625000 0.562500
vt 0.625000 0.585643
vt 0.609375 0.582426
vt 0.725086 0.406147
vt 0.718750 0.406250
vt 2.451735 2.742734
vt 0.718750 0.312500
vt 0.734375 0.312500
vt 0.546875 0.549506
vt 0.718750 0.281250
vt 0.718750 0.250000
vt 0.718750 0.218750
vt 2.579753 2.692541
vt 2.602349 2.691481
vt 2.463259 2.684709
vt 2.481538 2.687444
vt 0.726183 0.187323
vt 2.430444 2.710651
vt 2.420122 2.692842
vt 0.703125 0.406250
vt 0.687500 0.406250
vt 0.687500 0.375000
vt 0.709180 0.468714
vt 0.703125 0.493448
vt 0.703125 0.468750
vt 0.656250 0.562500
vt 0.640625 0.562500
vt 0.640625 0.531250
vt 0.671875 0.531250
vt 0.687500 0.531250
vt 0.687500 0.556530
vt 2.620237 2.826473
vt 0.562500 0.437500
vt 0.546875 0.416688
vt 0.550744 0.406171
vt 0.703125 0.375000
vt 0.718750 0.343750
vt 0.703125 0.343750
vt 0.703125 0.312500
vt 0.701526 0.500000
vt 0.687500 0.500000
vt 0.703125 0.281250
vt 0.703125 0.250000
vt 0.703125 0.218750
vt 0.703125 0.195525
vt 0.718750 0.189573
vt 0.546875 0.468750
vt 0.545761 0.500000
vt 0.545493 0.468738
vt 0.687500 0.343750
vt 0.671875 0.343750
vt 0.671875 0.312500
vt 0.640625 0.375000
vt 0.625000 0.406250
vt 0.625000 0.281250
vt 0.609375 0.281250
vt 0.609375 0.281181
vt 2.533043 2.821601
vt 2.531586 2.820702
vt 0.796875 0.224146
vt 0.781250 0.249979
vt 0.781250 0.218750
vt 0.781250 0.187500
vt 0.765625 0.187500
vt 0.765625 0.181036
vt 0.765625 0.250000
vt 0.765625 0.218750
vt 0.687500 0.312500
vt 0.687500 0.281250
vt 0.687500 0.250000
vt 0.687500 0.218750
vt 2.613346 2.690619
vt 2.626395 2.689163
vt 0.687500 0.203308
vt 2.824634 2.595832
vt 0.546315 0.531255
vt 0.625000 0.375000
vt 0.609375 0.343750
vt 0.693838 0.531286
vt 0.796875 0.218750
vt 0.753826 0.312369
vt 2.513184 2.808025
vt 0.565021 0.562540
vt 0.562500 0.560964
vt 0.687500 0.468750
vt 0.687500 0.437500
vt 0.671875 0.281250
vt 0.671875 0.250000
vt 0.671875 0.218750
vt 0.671875 0.213182
vt 2.713639 2.760320
vt 2.687200 2.780164
vt 0.578125 0.562500
vt 0.578125 0.570108
vt 0.546810 0.549452
vt 0.593750 0.562500
vt 0.609375 0.562500
vt 0.593750 0.577246
vt 0.671875 0.500000
vt 0.671875 0.468750
vt 0.656250 0.586185
vt 0.671875 0.437500
vt 0.671875 0.406250
vt 0.671875 0.375000
vt 0.656250 0.281250
vt 0.656250 0.250000
vt 0.671875 0.583511
vt 0.671875 0.562500
vt 0.664621 0.218563
vt 2.835525 2.599222
vt 0.656250 0.531250
vt 2.552154 2.830450
vt 0.656250 0.500000
vt 2.409446 2.673440
vt 2.666498 2.682705
vt 2.679666 2.679666
vt 2.570708 2.835742
vt 0.656250 0.406250
vt 0.656250 0.375000
vt 0.656250 0.343750
vt 0.656250 0.312500
vt 0.640625 0.240547
vt 0.656250 0.225458
vt 0.640625 0.343750
vt 0.625000 0.343750
vt 0.625000 0.312500
vt 2.709101 2.671605
vt 2.709184 2.671579
vt 2.566602 2.834830
vt 2.739409 2.659968
vt 2.744272 2.657837
vt 2.769989 2.644312
vt 0.640625 0.500000
vt 2.773891 2.641984
vt 2.798489 2.624283
vt 2.798990 2.623846
vt 0.640625 0.312500
vt 0.640625 0.281250
vt 0.640625 0.250000
vt 2.558503 2.692860
vt 0.625000 0.500000
vt 0.625000 0.468750
vt 2.415910 2.675071
vt 0.625000 0.531250
vt 2.426445 2.677578
vt 2.444962 2.681436
vt 0.625000 0.437500
vt 0.578125 0.468750
vt 0.578125 0.500000
vt 2.817763 2.604893
vt 0.632381 0.249809
vt 2.823176 2.598034
vt 0.812500 0.203678
vt 0.800758 0.218609
vt 0.796875 0.187500
vt 0.609375 0.531250
vt 0.562793 0.374990
vt 0.578125 0.375000
vt 0.562500 0.375718
vt 0.609375 0.468750
vt 0.576117 0.343679
vt 0.609375 0.437500
vt 0.578125 0.406250
vt 0.609375 0.406250
vt 0.609375 0.312500
vt 0.625000 0.258935
vt 0.591302 0.312406
vt 0.593750 0.312500
vt 0.578125 0.343750
vt 0.578125 0.339269
vt 0.812500 0.187500
vt 0.766182 0.281224
vt 0.765625 0.281250
vt 0.593750 0.437500
vt 0.796875 0.182361
vt 0.593750 0.406250
vt 0.609332 0.281248
vt 0.681176 0.580845
vt 0.821266 0.187326
vt 0.593750 0.531250
vt 0.812500 0.185127
vt 0.593750 0.307801
vt 0.578125 0.531250
vt 0.578125 0.437500
vt 0.562500 0.406250
vt 2.659174 2.797794
vt 2.833614 2.599921
vt 2.830542 2.600122
vt 0.685966 0.562526
vt 0.781239 0.249999
vt 0.765625 0.282514
vt 0.750000 0.323117
vt 2.830499 2.600256
vt 2.817374 2.631460
vt 0.826581 0.188897
vt 2.782148 2.688525
vt 2.761242 2.714396
vt 2.738363 2.738363
vt 0.640625 0.586895
vt 0.781250 0.181011
vt 2.500000 2.689671
vt 2.518852 2.691404
vt 2.528955 2.692045
vt 2.538293 2.692511
vt 2.652118 2.685356
s 0
f 41/1/1 31/2/1 9/3/1
s 1
f 29/4/2 28/5/3 21/6/4
s 0
f 75/7/1 57/8/1 9/3/1
s 1
f 191/9/5 23/10/6 192/11/7
f 192/11/7 24/12/8 193/13/9
f 193/13/9 25/14/10 194/15/11
f 195/16/12 25/14/10 26/17/13
f 143/18/14 153/19/15 154/20/16
f 195/16/12 53/21/17 181/22/18
f 166/23/19 165/24/20 170/25/21
f 164/26/22 169/27/23 170/25/21
f 30/28/24 115/29/25 44/30/26
s 0
f 57/8/1 42/31/1 9/3/1
f 42/31/27 52/32/27 9/3/27
s 1
f 105/33/28 120/34/29 121/35/30
s 0
f 112/36/1 114/37/1 9/3/1
s 1
f 105/33/28 104/38/31 119/39/32
f 28/5/3 100/40/33 34/41/34
s 0
f 6/42/35 5/43/35 2/44/35
s 1
f 172/45/36 6/46/37 7/47/38
s 0
f 9/3/1 113/48/1 173/49/1
s 1
f 139/50/39 149/51/40 150/52/41
s 0
f 113/48/27 8/53/27 173/49/27
f 18/54/42 16/55/42 2/44/42
f 175/56/1 112/36/1 9/3/1
s 1
f 127/57/43 13/58/44 14/59/45
f 40/60/46 30/28/24 33/61/47
f 40/60/46 34/41/34 100/40/33
s 0
f 52/32/1 56/62/1 9/3/1
s 1
f 21/6/4 36/63/48 22/64/49
f 164/26/22 27/65/50 169/27/23
f 22/64/49 37/66/51 23/10/6
f 23/10/6 38/67/52 24/12/8
f 25/14/10 38/67/52 39/68/53
s 0
f 70/69/54 71/70/54 2/44/54
f 179/71/54 180/72/54 9/3/54
s 1
f 53/21/17 26/17/13 55/73/55
s 0
f 32/74/1 20/75/1 9/3/1
s 1
f 45/76/56 62/77/57 63/78/58
f 114/79/59 112/80/60 43/81/61
f 101/82/62 116/83/63 117/84/64
f 114/79/59 44/30/26 115/29/25
f 81/85/65 58/86/66 173/87/67
s 0
f 173/49/1 174/88/1 9/3/1
s 1
f 167/89/68 98/90/69 99/91/70
f 33/61/47 46/92/71 34/41/34
f 35/93/72 46/92/71 47/94/73
f 36/63/48 47/94/73 48/95/74
f 112/80/60 175/96/75 59/97/76
f 36/63/48 49/98/77 37/66/51
f 38/67/52 49/98/77 50/99/78
f 39/68/53 50/99/78 51/100/79
f 39/68/53 69/101/80 54/102/81
f 171/103/82 4/104/83 5/105/84
f 64/106/85 87/107/86 88/108/87
f 172/45/36 5/105/84 6/46/37
f 122/109/88 121/35/30 132/110/89
f 136/111/90 146/112/91 78/113/92
s 0
f 100/114/1 28/115/1 9/3/1
s 1
f 31/116/93 41/117/94 185/118/95
f 191/9/5 22/64/49 23/10/6
f 186/119/96 190/120/97 180/121/98
f 41/117/94 188/122/99 189/123/100
f 44/30/26 62/77/57 45/76/56
f 45/76/56 63/78/58 46/92/71
f 47/94/73 63/78/58 64/106/85
f 48/95/74 64/106/85 65/124/101
f 48/95/74 66/125/102 49/98/77
f 50/99/78 66/125/102 67/126/103
f 50/99/78 68/127/104 51/100/79
s 0
f 73/128/54 72/129/54 2/44/54
s 1
f 51/100/79 70/130/105 69/101/80
s 0
f 2/44/35 7/131/35 6/42/35
s 1
f 39/68/53 38/67/52 50/99/78
f 170/25/21 3/132/106 4/104/83
f 133/133/107 143/18/14 144/134/108
f 174/135/109 173/87/67 58/86/66
f 31/116/93 185/118/95 183/136/110
f 174/135/109 59/97/76 175/96/75
f 57/137/111 191/9/5 192/11/7
s 0
f 28/115/1 29/138/1 9/3/1
s 1
f 18/139/112 17/140/113 164/26/22
f 44/30/26 60/141/114 61/142/115
f 63/78/58 87/107/86 64/106/85
f 64/106/85 88/108/87 65/124/101
f 65/124/101 89/143/116 66/125/102
f 67/126/103 89/143/116 90/144/117
f 68/127/104 90/144/117 91/145/118
f 68/127/104 71/146/119 70/130/105
s 0
f 12/147/42 11/148/42 2/44/42
s 1
f 156/149/120 16/150/121 18/139/112
f 169/27/23 1/151/122 3/132/106
f 147/152/123 16/150/121 156/149/120
f 193/13/9 24/12/8 25/14/10
f 137/153/124 15/154/125 147/152/123
f 59/97/76 81/85/65 82/155/126
f 127/57/43 14/59/45 137/153/124
f 59/97/76 83/156/127 60/141/114
f 11/157/128 116/83/63 101/82/62
f 61/142/115 83/156/127 84/158/129
f 116/83/63 13/58/44 127/57/43
f 61/142/115 85/159/130 62/77/57
f 62/77/57 86/160/131 63/78/58
f 88/108/87 110/161/132 89/143/116
f 90/144/117 110/161/132 111/162/133
f 10/163/134 101/82/62 80/164/135
f 71/146/119 91/145/118 73/165/136
f 173/87/67 80/164/135 81/85/65
s 0
f 5/43/35 4/166/35 2/44/35
s 1
f 195/16/12 194/15/11 25/14/10
f 172/45/36 7/47/38 98/90/69
f 80/164/135 102/167/137 81/85/65
s 0
f 40/168/1 100/114/1 9/3/1
s 1
f 82/155/126 102/167/137 103/169/138
s 0
f 20/75/1 19/170/1 9/3/1
s 1
f 82/155/126 104/38/31 83/156/127
s 0
f 77/171/54 76/172/54 2/44/54
s 1
f 84/158/129 104/38/31 105/33/28
s 0
f 114/37/1 115/173/1 9/3/1
s 1
f 84/158/129 106/174/139 85/159/130
f 86/160/131 106/174/139 107/175/140
f 86/160/131 108/176/141 87/107/86
f 87/107/86 109/177/142 88/108/87
f 111/162/133 74/178/143 72/179/144
f 123/180/145 134/181/146 135/182/147
s 0
f 78/183/54 92/184/54 2/44/54
f 115/173/1 30/185/1 9/3/1
f 92/184/54 79/186/54 2/44/54
s 1
f 195/16/12 26/17/13 53/21/17
s 0
f 79/186/54 94/187/54 2/44/54
s 1
f 101/82/62 117/84/64 102/167/137
s 0
f 94/187/54 93/188/54 2/44/54
s 1
f 103/169/138 117/84/64 118/189/148
s 0
f 93/188/54 96/190/54 2/44/54
s 1
f 103/169/138 119/39/32 104/38/31
s 0
f 97/191/54 95/192/54 2/44/54
s 1
f 105/33/28 119/39/32 120/34/29
s 0
f 96/190/54 97/191/54 2/44/54
s 1
f 105/33/28 121/35/30 106/174/139
f 107/175/140 121/35/30 122/109/88
f 107/175/140 123/180/145 108/176/141
f 108/176/141 124/193/149 109/177/142
f 109/177/142 125/194/150 110/161/132
f 125/194/150 124/193/149 135/182/147
f 111/162/133 125/194/150 126/195/151
f 60/141/114 43/81/61 112/80/60
s 0
f 2/44/54 9/3/54 69/196/54
f 29/138/1 75/7/1 9/3/1
s 1
f 118/189/148 129/197/152 130/198/153
s 0
f 9/3/54 19/170/54 177/199/54
s 1
f 116/83/63 128/200/154 117/84/64
f 109/177/142 124/193/149 125/194/150
s 0
f 177/199/54 176/201/54 9/3/54
s 1
f 118/189/148 128/200/154 129/197/152
f 118/189/148 117/84/64 128/200/154
s 0
f 176/201/54 178/202/54 9/3/54
s 1
f 118/189/148 130/198/153 119/39/32
s 0
f 56/62/155 41/1/155 9/3/155
s 1
f 25/14/10 39/68/53 55/73/55
f 120/34/29 130/198/153 131/203/156
f 159/204/157 158/205/158 165/24/20
f 55/73/55 26/17/13 25/14/10
f 120/34/29 132/110/89 121/35/30
f 122/109/88 132/110/89 133/133/107
f 122/109/88 134/181/146 123/180/145
f 123/180/145 135/182/147 124/193/149
f 125/194/150 135/182/147 136/111/90
s 0
f 95/192/54 99/206/54 2/44/54
s 1
f 74/178/143 126/195/151 77/207/159
s 0
f 98/208/54 7/131/54 2/44/54
s 1
f 112/80/60 59/97/76 60/141/114
f 20/209/160 32/210/161 184/211/162
f 129/197/152 138/212/163 139/50/39
f 97/213/164 162/214/165 95/215/166
f 129/197/152 140/216/167 130/198/153
f 162/214/165 97/213/164 96/217/168
f 130/198/153 141/218/169 131/203/156
f 162/214/165 161/219/170 95/215/166
f 131/203/156 142/220/171 132/110/89
f 133/133/107 142/220/171 143/18/14
f 133/133/107 144/134/108 134/181/146
f 134/181/146 145/221/172 135/182/147
f 135/182/147 146/112/91 136/111/90
f 136/111/90 78/113/92 76/222/173
f 90/144/117 111/162/133 72/179/144
f 94/223/174 155/224/175 154/20/16
s 0
f 174/88/1 175/56/1 9/3/1
s 1
f 154/20/16 163/225/176 93/226/177
s 0
f 31/2/1 32/74/1 9/3/1
s 1
f 184/211/162 182/227/178 20/209/160
f 127/57/43 138/212/163 128/200/154
f 52/228/179 187/229/180 188/122/99
f 140/216/167 151/230/181 141/218/169
f 178/231/182 184/211/162 186/119/96
f 141/218/169 152/232/183 142/220/171
f 143/18/14 152/232/183 153/19/15
f 143/18/14 154/20/16 144/134/108
f 144/134/108 155/224/175 145/221/172
f 92/233/184 146/112/91 145/221/172
f 78/113/92 146/112/91 92/233/184
f 77/207/159 126/195/151 125/194/150
f 125/194/150 136/111/90 76/222/173
f 29/4/2 21/6/4 22/64/49
f 113/234/185 10/163/134 80/164/135
f 30/28/24 44/30/26 45/76/56
f 20/209/160 182/227/178 177/235/186
f 137/153/124 148/236/187 138/212/163
f 176/237/188 182/227/178 184/211/162
f 139/50/39 148/236/187 149/51/40
f 184/211/162 183/136/110 185/118/95
f 139/50/39 150/52/41 140/216/167
f 153/19/15 161/219/170 162/214/165
f 153/19/15 163/225/176 154/20/16
f 185/118/95 189/123/100 190/120/97
f 79/238/189 155/224/175 94/223/174
f 188/122/99 187/229/180 192/11/7
f 188/122/99 193/13/9 194/15/11
f 189/123/100 194/15/11 195/16/12
f 108/176/141 123/180/145 124/193/149
f 190/120/97 195/16/12 181/22/18
f 28/5/3 34/41/34 35/93/72
f 148/236/187 156/149/120 157/239/190
f 148/236/187 158/205/158 149/51/40
f 149/51/40 159/204/157 150/52/41
f 150/52/41 160/240/191 151/230/181
f 151/230/181 161/219/170 152/232/183
f 93/226/177 163/225/176 96/217/168
f 116/83/63 127/57/43 128/200/154
f 111/162/133 110/161/132 125/194/150
f 157/239/190 165/24/20 158/205/158
f 159/204/157 165/24/20 166/23/19
f 159/204/157 167/89/68 160/240/191
f 160/240/191 168/241/192 161/219/170
f 120/34/29 131/203/156 132/110/89
f 120/34/29 119/39/32 130/198/153
f 164/26/22 170/25/21 165/24/20
f 166/23/19 170/25/21 171/103/82
f 166/23/19 172/45/36 167/89/68
f 95/215/166 168/241/192 99/91/70
f 122/109/88 133/133/107 134/181/146
f 147/152/123 15/154/125 16/150/121
s 0
f 178/202/54 179/71/54 9/3/54
s 1
f 103/169/138 118/189/148 119/39/32
f 129/197/152 139/50/39 140/216/167
s 0
f 10/242/42 2/44/42 11/148/42
s 1
f 129/197/152 128/200/154 138/212/163
f 137/153/124 147/152/123 148/236/187
f 45/76/56 33/61/47 30/28/24
f 170/25/21 169/27/23 3/132/106
f 44/30/26 61/142/115 62/77/57
f 131/203/156 141/218/169 142/220/171
s 0
f 3/243/35 1/244/35 2/44/35
s 1
f 39/68/53 54/102/81 55/73/55
f 167/89/68 172/45/36 98/90/69
f 23/10/6 37/66/51 38/67/52
f 90/144/117 72/179/144 73/165/136
f 164/26/22 17/140/113 27/65/50
f 154/20/16 93/226/177 94/223/174
s 0
f 4/166/35 3/243/35 2/44/35
s 1
f 32/210/161 183/136/110 184/211/162
f 35/93/72 21/6/4 28/5/3
f 192/11/7 23/10/6 24/12/8
f 161/219/170 168/241/192 95/215/166
f 162/214/165 96/217/168 163/225/176
f 145/221/172 79/238/189 92/233/184
f 73/165/136 91/145/118 90/144/117
f 125/194/150 76/222/173 77/207/159
f 130/198/153 140/216/167 141/218/169
s 0
f 76/172/54 78/183/54 2/44/54
s 1
f 40/60/46 33/61/47 34/41/34
f 145/221/172 155/224/175 79/238/189
f 21/6/4 35/93/72 36/63/48
f 113/234/185 80/164/135 8/245/193
f 141/218/169 151/230/181 152/232/183
f 22/64/49 36/63/48 37/66/51
s 0
f 99/206/54 98/208/54 2/44/54
s 1
f 114/79/59 43/81/61 44/30/26
f 25/14/10 24/12/8 38/67/52
f 99/91/70 168/241/192 167/89/68
f 133/133/107 132/110/89 142/220/171
f 33/61/47 45/76/56 46/92/71
f 35/93/72 34/41/34 46/92/71
f 36/63/48 48/95/74 49/98/77
f 36/63/48 35/93/72 47/94/73
f 173/87/67 8/245/193 80/164/135
f 39/68/53 51/100/79 69/101/80
f 171/103/82 170/25/21 4/104/83
f 172/45/36 171/103/82 5/105/84
f 41/117/94 56/246/194 188/122/99
f 189/123/100 185/118/95 41/117/94
f 135/182/147 145/221/172 146/112/91
f 38/67/52 37/66/51 49/98/77
f 50/99/78 49/98/77 66/125/102
f 51/100/79 68/127/104 70/130/105
f 50/99/78 67/126/103 68/127/104
f 140/216/167 150/52/41 151/230/181
f 134/181/146 144/134/108 145/221/172
f 47/94/73 46/92/71 63/78/58
f 48/95/74 47/94/73 64/106/85
f 48/95/74 65/124/101 66/125/102
f 44/30/26 43/81/61 60/141/114
f 143/18/14 142/220/171 152/232/183
f 127/57/43 137/153/124 138/212/163
f 174/135/109 58/86/66 59/97/76
f 192/11/7 187/229/180 42/247/195
f 42/247/195 57/137/111 192/11/7
f 164/26/22 157/239/190 18/139/112
f 157/239/190 156/149/120 18/139/112
f 63/78/58 86/160/131 87/107/86
f 144/134/108 154/20/16 155/224/175
f 75/248/196 29/4/2 22/64/49
f 65/124/101 88/108/87 89/143/116
f 67/126/103 66/125/102 89/143/116
f 68/127/104 67/126/103 90/144/117
f 68/127/104 91/145/118 71/146/119
s 0
f 10/242/42 113/48/42 2/44/42
f 113/48/42 9/3/42 2/44/42
f 27/249/42 17/250/42 2/44/42
s 1
f 20/209/160 177/235/186 19/251/197
f 176/237/188 177/235/186 182/227/178
s 0
f 17/250/42 18/54/42 2/44/42
s 1
f 22/64/49 191/9/5 75/248/196
s 0
f 16/55/42 15/252/42 2/44/42
f 15/252/42 14/253/42 2/44/42
f 14/253/42 13/254/42 2/44/42
f 13/254/42 12/147/42 2/44/42
s 1
f 169/27/23 27/65/50 1/151/122
f 137/153/124 14/59/45 15/154/125
f 32/210/161 31/116/93 183/136/110
s 0
f 2/44/42 1/244/42 27/249/42
s 1
f 176/237/188 184/211/162 178/231/182
f 153/19/15 152/232/183 161/219/170
f 11/157/128 12/255/198 116/83/63
f 61/142/115 60/141/114 83/156/127
f 116/83/63 12/255/198 13/58/44
f 61/142/115 84/158/129 85/159/130
f 62/77/57 85/159/130 86/160/131
f 10/163/134 11/157/128 101/82/62
f 90/144/117 89/143/116 110/161/132
f 184/211/162 185/118/95 186/119/96
f 153/19/15 162/214/165 163/225/176
f 178/231/182 186/119/96 179/256/199
f 148/236/187 147/152/123 156/149/120
f 59/97/76 58/86/66 81/85/65
f 139/50/39 138/212/163 148/236/187
f 59/97/76 82/155/126 83/156/127
f 86/160/131 107/175/140 108/176/141
f 103/169/138 102/167/137 117/84/64
f 52/228/179 42/247/195 187/229/180
f 52/228/179 188/122/99 56/246/194
f 88/108/87 109/177/142 110/161/132
f 185/118/95 190/120/97 186/119/96
f 186/119/96 180/121/98 179/256/199
f 149/51/40 158/205/158 159/204/157
f 157/239/190 164/26/22 165/24/20
f 151/230/181 160/240/191 161/219/170
f 80/164/135 101/82/62 102/167/137
f 82/155/126 103/169/138 104/38/31
f 84/158/129 83/156/127 104/38/31
f 84/158/129 105/33/28 106/174/139
f 111/162/133 126/195/151 74/178/143
f 188/122/99 192/11/7 193/13/9
f 188/122/99 194/15/11 189/123/100
f 189/123/100 195/16/12 190/120/97
f 190/120/97 181/22/18 180/121/98
f 166/23/19 171/103/82 172/45/36
s 0
f 30/185/1 40/168/1 9/3/1
s 1
f 150/52/41 159/204/157 160/240/191
f 82/155/126 81/85/65 102/167/137
f 107/175/140 106/174/139 121/35/30
f 107/175/140 122/109/88 123/180/145
f 86/160/131 85/159/130 106/174/139
f 87/107/86 108/176/141 109/177/142
f 57/137/111 75/248/196 191/9/5
f 148/236/187 157/239/190 158/205/158
f 159/204/157 166/23/19 167/89/68
f 160/240/191 167/89/68 168/241/192
s 0
f 180/72/54 181/257/54 9/3/54
f 181/257/54 53/258/54 9/3/54
f 53/258/54 55/259/54 9/3/54
f 55/259/54 54/260/54 9/3/54
f 54/260/54 69/196/54 9/3/54
f 69/196/54 70/69/54 2/44/54
f 71/70/54 73/128/54 2/44/54
f 74/261/54 77/171/54 2/44/54
f 72/129/54 74/261/54 2/44/54
