# Blender 5.1.2
# www.blender.org
o moon_piece_05
v 0.306627 0.166018 0.217096
v 0.284549 0.158024 0.224708
v -0.244283 -0.234993 0.162938
v 0.049287 0.096272 -0.230790
v -0.096231 -0.180278 0.113233
v 0.319129 0.048201 0.064597
v 0.074318 0.100467 -0.217790
v 0.114355 0.104538 -0.192605
v 0.319068 0.048286 0.064407
v 0.152125 0.105620 -0.164256
v 0.187445 0.103712 -0.132889
v -0.067094 0.207029 -0.224620
v 0.274014 0.215810 0.122676
v 0.291419 0.194609 0.163851
v 0.282248 0.206624 0.140708
v -0.019974 0.169512 -0.231140
v -0.251853 -0.240540 0.127439
v 0.304634 0.171216 0.207629
v -0.066521 0.206624 -0.224727
v 0.029372 0.120868 -0.232833
v 0.267826 0.221312 0.111529
v 0.046132 0.186857 0.109381
v 0.321682 0.068470 0.087149
v 0.318924 0.127775 0.161142
v 0.320829 0.116068 0.145469
v 0.220130 0.098815 -0.098650
v 0.249995 0.090932 -0.061692
v 0.276853 0.080065 -0.022171
v 0.300318 0.066081 0.019829
v 0.296667 0.068470 0.012938
v -0.213548 -0.227561 0.098268
v 0.309627 0.160142 0.207629
v 0.308704 0.162267 0.210925
v -0.237247 -0.172738 0.232833
v -0.025069 0.206624 -0.214344
v -0.322515 0.042684 0.012609
v 0.015675 0.206624 -0.199765
v 0.023703 0.162267 -0.219147
v -0.011817 0.162267 -0.231857
v -0.305486 0.026162 0.073717
v 0.054794 0.206624 -0.181263
v 0.064683 0.162267 -0.199765
v 0.072476 0.116068 -0.214344
v 0.033695 0.116068 -0.232686
v 0.091911 0.206624 -0.159016
v 0.103567 0.162267 -0.176460
v 0.112750 0.116068 -0.190204
v -0.097743 0.226250 -0.217534
v -0.304699 0.164699 -0.064634
v 0.126669 0.206624 -0.133238
v 0.139978 0.162267 -0.149455
v 0.150465 0.116068 -0.162233
v 0.158733 0.206624 -0.104177
v 0.173567 0.162267 -0.119011
v 0.185256 0.116068 -0.130700
v 0.187794 0.206624 -0.072113
v 0.204011 0.162267 -0.085422
v 0.216789 0.116068 -0.095909
v 0.213572 0.206624 -0.037355
v 0.231015 0.162267 -0.049011
v 0.244760 0.116068 -0.058194
v 0.235819 0.206624 -0.000238
v 0.254321 0.162267 -0.010128
v 0.268900 0.116068 -0.017920
v 0.254321 0.206624 0.038881
v 0.273703 0.162267 0.030853
v 0.288975 0.116068 0.024527
v 0.299990 0.068470 0.019964
v 0.268900 0.206624 0.079625
v 0.288975 0.162267 0.073535
v 0.304794 0.116068 0.068737
v 0.316203 0.068470 0.065276
v 0.279414 0.206624 0.121602
v 0.299990 0.162267 0.117509
v 0.316203 0.116068 0.114284
v 0.306642 0.162267 0.162351
v 0.308866 0.162267 0.207629
v -0.284672 0.156344 -0.003991
v 0.322515 0.090375 0.113029
v 0.258222 0.225239 0.082864
v 0.241417 0.229927 0.044226
v 0.221469 0.233770 0.007432
v 0.198553 0.236759 -0.027320
v 0.172845 0.238887 -0.059845
v 0.144524 0.240148 -0.089969
v 0.113773 0.240540 -0.117524
v 0.080777 0.240061 -0.142352
v 0.045727 0.238713 -0.164301
v 0.008822 0.236499 -0.183222
v -0.029732 0.233424 -0.198972
v -0.069721 0.229496 -0.211413
vn 0.3803 -0.7927 -0.4764
vn 0.3083 0.4032 -0.8616
vn 0.2835 0.4275 -0.8584
vn 0.3376 0.4708 -0.8151
vn -0.4504 -0.4297 -0.7826
vn 0.8790 0.2336 -0.4157
vn 0.8591 0.2430 -0.4504
vn 0.8842 0.2899 -0.3663
vn 0.5134 0.3821 -0.7684
vn 0.5862 0.3821 -0.7143
vn 0.6072 0.2899 -0.7398
vn 0.9039 0.4275 -0.0152
vn 0.9108 0.4103 0.0447
vn 0.9241 0.3821 -0.0000
vn -0.3191 0.5228 0.7904
vn 0.9063 0.3821 -0.1803
vn 0.9197 0.3821 -0.0906
vn 0.9349 0.3368 -0.1116
vn 0.8653 0.4708 -0.1721
vn 0.8386 0.5141 -0.1803
vn 0.8876 0.4415 -0.1317
vn 0.8323 0.5136 -0.2085
vn 0.9414 0.3368 -0.0181
vn 0.6820 0.4708 -0.5597
vn 0.7336 0.4708 -0.4902
vn 0.7684 0.3821 -0.5134
vn 0.4148 0.2427 -0.8770
vn 0.4066 0.3090 -0.8597
vn 0.4512 0.2899 -0.8441
vn 0.3840 0.3368 -0.8597
vn 0.3536 0.3821 -0.8538
vn 0.4356 0.3821 -0.8150
vn -0.1378 0.8557 0.4988
vn 0.6534 0.3821 -0.6534
vn 0.6767 0.2899 -0.6767
vn 0.2561 0.4708 -0.8443
vn 0.4159 0.4708 -0.7781
vn 0.9384 0.3161 -0.1392
vn 0.9387 0.2899 -0.1867
vn 0.6156 0.2430 -0.7497
vn 0.2113 0.4935 -0.8437
vn -0.8775 0.3414 0.3368
vn 0.5317 0.2899 -0.7958
vn 0.5375 0.2430 -0.8075
vn 0.4463 -0.6901 0.5697
vn 0.8151 0.4708 -0.3376
vn 0.7912 0.5141 -0.3311
vn 0.8197 0.5141 -0.2525
vn 0.3656 -0.9283 0.0671
vn 0.4902 0.4708 -0.7336
vn 0.5597 0.4708 -0.6820
vn 0.6239 0.4708 -0.6239
vn 0.4541 0.2430 -0.8572
vn -0.9624 -0.1475 0.2283
vn 0.6875 0.2430 -0.6843
vn 0.7398 0.2899 -0.6072
vn 0.7143 0.3821 -0.5862
vn 0.8150 0.3821 -0.4356
vn 0.8441 0.2899 -0.4512
vn 0.8443 0.4708 -0.2561
vn 0.8981 0.4275 -0.1030
vn 0.9031 0.4271 0.0444
vn 0.7525 0.2430 -0.6122
vn 0.7958 0.2899 -0.5317
vn 0.8099 0.2430 -0.5339
vn 0.7781 0.4708 -0.4159
vn 0.8538 0.3821 -0.3536
vn 0.9062 0.1948 -0.3754
vn 0.9177 0.1467 -0.3692
vn 0.9159 0.2899 -0.2778
vn 0.9386 0.1948 -0.2847
vn 0.8843 0.3821 -0.2683
vn 0.9595 0.1466 -0.2404
vn 0.9499 0.1467 -0.2760
vn 0.9470 0.2429 -0.2103
vn 0.6622 0.5141 -0.5451
vn 0.7121 0.5141 -0.4781
vn -0.1527 0.9710 0.1842
vn 0.9462 0.2204 -0.2370
vn 0.7553 0.5141 -0.4066
vn 0.3301 0.5141 -0.7917
vn 0.4055 0.5141 -0.7558
vn 0.2515 0.5141 -0.8200
vn 0.1853 0.5140 -0.8375
vn 0.1705 0.5141 -0.8406
vn 0.6061 0.5141 -0.6069
vn 0.5442 0.5141 -0.6630
vn 0.4771 0.5141 -0.7128
vn 0.1259 0.5136 -0.8487
vt 2.800948 2.660860
vt 2.814818 2.636284
vt 2.539789 2.566077
vt 0.700505 0.625076
vt 0.703125 0.630100
vt 0.687500 0.656250
vt 2.593169 2.807139
vt 2.598879 2.807640
vt 2.381391 2.636514
vt 2.627712 2.808323
vt 0.565021 0.562540
vt 0.578125 0.570108
vt 0.562500 0.593750
vt 0.656250 0.625000
vt 0.640625 0.625000
vt 0.640625 0.593750
vt 2.782148 2.688525
vt 0.500000 0.631300
vt 0.498864 0.625037
vt 0.500000 0.625000
vt 2.441078 2.482358
vt 2.806335 2.488045
vt 2.639444 2.568774
vt 0.531250 0.625000
vt 0.515625 0.625000
vt 0.515625 0.601664
vt 0.531250 0.656250
vt 0.531250 0.663066
vt 0.524276 0.656408
vt 0.535726 0.667289
vt 0.500000 0.623565
vt 0.609375 0.656250
vt 0.593750 0.656250
vt 0.593750 0.625000
vt 2.761242 2.714396
vt 0.681176 0.580845
vt 0.686152 0.593784
vt 0.671875 0.593750
vt 0.687500 0.596993
vt 0.687500 0.625000
vt 0.671875 0.625000
vt 2.820395 2.500000
vt 2.811145 2.530645
vt 2.659174 2.797794
vt 2.641652 2.806894
vt 0.625000 0.625000
vt 0.625000 0.593750
vt 2.804725 2.546844
vt 0.703125 0.656250
vt 2.817374 2.631460
vt 0.671875 0.656250
vt 2.798961 2.559467
vt 2.794630 2.567270
vt 0.520757 0.593844
vt 0.531250 0.593750
vt 0.640625 0.586895
vt 0.718555 0.656258
vt 2.393311 2.593739
vt 2.407881 2.648134
vt 0.656250 0.593750
vt 0.656250 0.586185
vt 2.436154 2.531284
vt 2.830542 2.600122
vt 2.832329 2.584336
vt 2.832912 2.566220
vt 2.830398 2.532541
vt 2.823890 2.500000
vt 2.823244 2.497693
vt 2.821790 2.493373
vt 0.562500 0.656250
vt 0.562500 0.673554
vt 0.546875 0.670071
vt 2.430854 2.556133
vt 2.457668 2.576553
vt 0.656250 0.656250
vt 0.640625 0.656250
vt 0.625000 0.656250
vt 0.671875 0.583511
vt 2.393862 2.690584
vt 0.625000 0.585643
vt 0.609375 0.593750
vt 0.609375 0.625000
vt 0.578125 0.625000
vt 0.578125 0.593750
vt 2.687200 2.780164
vt 2.713639 2.760320
vt 2.738363 2.738363
vt 0.546875 0.656250
vt 0.515625 0.647790
vt 0.496723 0.627731
vt 0.609375 0.582426
vt 2.630738 2.808220
vt 0.593750 0.593750
vt 0.593750 0.577246
vt 2.538731 2.797614
vt 2.560186 2.802574
vt 2.560587 2.802649
vt 0.578125 0.656250
vt 0.562500 0.625000
vt 0.562500 0.562500
vt 0.562500 0.560964
vt 0.546875 0.593750
vt 0.546875 0.562500
vt 2.831732 2.543512
vt 0.546875 0.625000
vt 0.546810 0.549452
vt 0.546875 0.549506
vt 0.531250 0.576881
vt 2.830499 2.600256
vt 0.609375 0.680211
vt 0.593750 0.678630
vt 2.586339 2.784621
vt 2.663695 2.744987
vt 2.639161 2.760351
vt 0.539554 0.562573
vt 2.558347 2.793329
vt 2.787907 2.587336
vt 2.776143 2.614382
vt 2.746139 2.664465
vt 2.728143 2.687232
vt 2.762180 2.640138
vt 2.613327 2.773596
vt 0.578125 0.676410
vt 2.708318 2.708318
vt 2.686792 2.727607
vt 0.687500 0.678437
vt 0.671875 0.680082
vt 0.703125 0.676153
vt 0.718750 0.656551
vt 0.718750 0.673234
vt 0.625000 0.681147
vt 0.640625 0.681438
vt 0.656250 0.681082
vt 0.729403 0.670969
s 0
f 28/1/1 30/2/1 5/3/1
s 1
f 39/4/2 16/5/3 37/6/4
s 0
f 16/7/5 39/8/5 36/9/5
f 39/8/5 20/10/5 36/9/5
s 1
f 30/11/6 28/12/7 67/13/8
f 46/14/9 51/15/10 52/16/11
s 0
f 27/17/1 28/1/1 5/3/1
s 1
f 18/18/12 33/19/13 77/20/14
s 0
f 34/21/15 2/22/15 22/23/15
s 1
f 74/24/16 76/25/17 24/26/18
f 76/25/17 18/18/12 77/20/14
f 73/27/19 13/28/20 15/29/21
f 21/30/22 13/28/20 73/27/19
f 32/31/23 77/20/14 33/19/13
f 56/32/24 59/33/25 60/34/26
s 0
f 26/35/1 27/17/1 5/3/1
s 1
f 4/36/27 44/37/28 43/38/29
f 20/39/30 38/40/31 42/41/32
s 0
f 18/42/33 14/43/33 2/22/33
f 7/44/1 5/3/1 4/45/1
s 1
f 51/15/10 54/46/34 55/47/35
s 0
f 36/9/5 20/10/5 4/45/5
f 2/22/33 15/48/33 22/23/33
s 1
f 16/5/3 35/49/36 37/6/4
s 0
f 30/2/1 29/50/1 5/3/1
s 1
f 37/6/4 41/51/37 42/41/32
s 0
f 13/52/33 21/53/33 22/23/33
s 1
f 25/54/38 75/55/39 74/24/16
f 10/56/40 52/16/11 55/47/35
f 16/5/3 19/57/41 35/49/36
s 0
f 36/9/42 40/58/42 78/59/42
s 1
f 42/41/32 46/14/9 47/60/43
f 47/60/43 52/16/11 10/56/40
f 43/38/29 47/60/43 8/61/44
s 0
f 3/62/45 5/3/45 34/21/45
f 5/3/45 6/63/45 23/64/45
f 2/22/45 23/64/45 79/65/45
f 5/3/45 23/64/45 2/22/45
s 1
f 37/6/4 38/40/31 39/4/2
f 20/39/30 39/4/2 38/40/31
s 0
f 24/66/45 32/67/45 2/22/45
f 33/68/45 1/69/45 2/22/45
s 1
f 65/70/46 81/71/47 80/72/48
s 0
f 3/62/49 17/73/49 31/74/49
s 1
f 42/41/32 41/51/37 45/75/50
f 45/75/50 50/76/51 51/15/10
f 51/15/10 50/76/51 53/77/52
f 37/6/4 42/41/32 38/40/31
f 42/41/32 43/38/29 20/39/30
f 4/36/27 43/38/29 7/78/53
s 0
f 36/9/42 78/59/42 49/79/42
f 17/73/54 3/62/54 34/21/54
f 34/21/54 40/58/54 17/73/54
s 1
f 11/80/55 55/47/35 58/81/56
f 54/46/34 57/82/57 58/81/56
f 42/41/32 47/60/43 43/38/29
f 43/38/29 8/61/44 7/78/53
s 0
f 2/22/45 34/21/45 5/3/45
f 3/62/49 31/74/49 5/3/49
s 1
f 60/34/26 63/83/58 64/84/59
f 54/46/34 53/77/52 56/32/24
f 42/41/32 45/75/50 46/14/9
s 0
f 7/44/1 8/85/1 5/3/1
f 8/85/1 10/86/1 5/3/1
f 11/87/1 26/35/1 5/3/1
f 10/86/1 11/87/1 5/3/1
f 36/9/5 49/79/5 16/7/5
s 1
f 45/75/50 51/15/10 46/14/9
f 46/14/9 52/16/11 47/60/43
f 47/60/43 10/56/40 8/61/44
f 74/24/16 24/26/18 25/54/38
f 73/27/19 69/88/60 21/30/22
f 76/25/17 14/89/61 18/18/12
f 51/15/10 53/77/52 54/46/34
f 51/15/10 55/47/35 52/16/11
f 10/56/40 55/47/35 11/80/55
s 0
f 40/58/54 36/9/54 17/73/54
s 1
f 18/18/12 1/90/62 33/19/13
s 0
f 32/67/45 33/68/45 2/22/45
f 22/23/15 78/59/15 40/58/15
s 1
f 54/46/34 56/32/24 57/82/57
f 54/46/34 58/81/56 55/47/35
f 11/80/55 58/81/56 26/91/63
s 0
f 44/92/5 4/45/5 20/10/5
f 31/74/5 17/73/5 36/9/5
f 40/58/15 34/21/15 22/23/15
s 1
f 56/32/24 60/34/26 57/82/57
f 57/82/57 61/93/64 58/81/56
f 26/91/63 61/93/64 27/94/65
s 0
f 49/79/5 48/95/5 12/96/5
f 19/97/5 16/7/5 49/79/5
f 19/97/5 49/79/5 12/96/5
s 1
f 60/34/26 62/98/66 63/83/58
f 60/34/26 64/84/59 61/93/64
f 27/94/65 64/84/59 28/12/7
s 0
f 1/69/33 18/42/33 2/22/33
f 15/48/33 13/52/33 22/23/33
f 14/43/33 15/48/33 2/22/33
s 1
f 63/83/58 65/70/46 66/99/67
f 63/83/58 67/13/8 64/84/59
f 67/13/8 68/100/68 30/11/6
f 29/101/69 30/11/6 68/100/68
f 27/94/65 61/93/64 64/84/59
f 66/99/67 71/102/70 67/13/8
f 68/100/68 71/102/70 72/103/71
s 0
f 25/104/45 24/66/45 2/22/45
s 1
f 44/37/28 20/39/30 43/38/29
f 65/70/46 70/105/72 66/99/67
f 72/103/71 6/106/73 9/107/74
f 26/91/63 58/81/56 61/93/64
f 70/105/72 73/27/19 74/24/16
f 70/105/72 75/55/39 71/102/70
s 0
f 79/65/45 25/104/45 2/22/45
f 5/3/1 31/74/1 4/45/1
s 1
f 79/108/75 75/55/39 25/54/38
f 63/83/58 66/99/67 67/13/8
f 76/25/17 32/31/23 24/26/18
s 0
f 29/50/1 9/109/1 5/3/1
s 1
f 56/32/24 84/110/76 83/111/77
s 0
f 78/59/78 22/23/78 90/112/78
s 1
f 76/25/17 77/20/14 32/31/23
s 0
f 87/113/78 88/114/78 22/23/78
s 1
f 28/12/7 64/84/59 67/13/8
f 29/101/69 72/103/71 9/107/74
f 72/103/71 23/115/79 6/106/73
f 57/82/57 60/34/26 61/93/64
s 0
f 4/45/5 31/74/5 36/9/5
f 9/109/1 6/63/1 5/3/1
s 1
f 60/34/26 59/33/25 62/98/66
f 14/89/61 74/24/16 15/29/21
s 0
f 90/112/78 91/116/78 78/59/78
s 1
f 63/83/58 62/98/66 65/70/46
f 66/99/67 70/105/72 71/102/70
f 68/100/68 67/13/8 71/102/70
f 65/70/46 69/88/60 70/105/72
f 70/105/72 69/88/60 73/27/19
f 70/105/72 74/24/16 75/55/39
f 76/25/17 74/24/16 14/89/61
f 29/101/69 68/100/68 72/103/71
f 74/24/16 73/27/19 15/29/21
s 0
f 91/116/78 48/95/78 78/59/78
f 48/95/78 49/79/78 78/59/78
f 22/23/78 21/53/78 80/117/78
f 80/117/78 81/118/78 22/23/78
f 83/119/78 84/120/78 22/23/78
f 82/121/78 83/119/78 22/23/78
f 88/114/78 89/122/78 22/23/78
f 89/122/78 90/112/78 22/23/78
s 1
f 23/115/79 72/103/71 71/102/70
f 71/102/70 75/55/39 79/108/75
f 62/98/66 82/123/80 81/71/47
s 0
f 81/118/78 82/121/78 22/23/78
f 84/120/78 85/124/78 22/23/78
f 85/124/78 86/125/78 22/23/78
f 86/125/78 87/113/78 22/23/78
s 1
f 89/126/81 88/127/82 41/51/37
f 90/128/83 89/126/81 37/6/4
f 19/57/41 12/129/84 91/130/85
f 91/130/85 90/128/83 35/49/36
f 53/77/52 85/131/86 84/110/76
f 50/76/51 86/132/87 85/131/86
f 87/133/88 86/132/87 50/76/51
f 88/127/82 87/133/88 45/75/50
f 59/33/25 83/111/77 82/123/80
f 69/88/60 80/72/48 21/30/22
f 71/102/70 79/108/75 23/115/79
f 65/70/46 80/72/48 69/88/60
f 62/98/66 81/71/47 65/70/46
f 59/33/25 82/123/80 62/98/66
f 56/32/24 83/111/77 59/33/25
f 53/77/52 84/110/76 56/32/24
f 50/76/51 85/131/86 53/77/52
f 87/133/88 50/76/51 45/75/50
f 88/127/82 45/75/50 41/51/37
f 89/126/81 41/51/37 37/6/4
f 90/128/83 37/6/4 35/49/36
f 91/130/85 35/49/36 19/57/41
f 12/129/84 48/134/89 91/130/85
