# Blender 5.1.2
# www.blender.org
o moon_piece_11
v -0.271335 0.213619 0.138896
v -0.233610 0.132193 0.012001
v 0.393966 0.119822 -0.171944
v -0.308415 0.190892 0.129893
v 0.391064 0.084221 -0.138653
v 0.362940 0.228404 -0.193784
v 0.342103 0.250471 -0.153505
v 0.318110 0.268844 -0.116284
v 0.333046 0.257975 -0.138715
v 0.291877 0.283987 -0.082022
v 0.264184 0.296493 -0.050381
v 0.234682 0.306027 -0.021607
v 0.253811 0.300062 -0.039982
v 0.203892 0.313050 0.004618
v 0.172076 0.317910 0.028595
v 0.139212 0.320671 0.050422
v 0.105261 0.321370 0.070169
v 0.070166 0.320015 0.087877
v 0.033858 0.316589 0.103564
v -0.003749 0.311046 0.117217
v -0.042753 0.303313 0.128794
v -0.083266 0.292777 0.137561
v -0.055886 0.300062 0.131850
v -0.125226 0.279444 0.143491
v -0.168655 0.263427 0.146743
v -0.213222 0.243754 0.145870
v -0.181642 0.257975 0.146854
v -0.258760 0.220705 0.141140
v -0.393966 -0.050904 0.101331
v -0.304401 0.193589 0.131175
v 0.318317 0.195115 -0.212346
v 0.378290 0.030739 -0.091357
v 0.373076 0.214532 -0.217460
v 0.388900 0.071286 -0.126916
v 0.355774 -0.022050 -0.047868
v 0.375350 0.022277 -0.084170
v 0.324886 -0.071986 -0.009822
v 0.353289 -0.026732 -0.044168
v 0.287649 -0.117432 0.021862
v -0.320294 -0.307290 0.008349
v -0.255675 -0.018895 -0.042292
v -0.221866 -0.174816 -0.087268
v -0.196371 -0.115822 -0.110549
v -0.358972 0.080275 0.130084
v -0.343210 0.119822 0.132701
v -0.321023 0.167419 0.132116
v 0.322508 -0.075268 -0.007433
v 0.391042 0.146942 -0.188194
v 0.246306 -0.157481 0.047032
v 0.387165 0.167419 -0.196975
v 0.282566 -0.122865 0.025446
v 0.202919 -0.191949 0.066178
v 0.232696 -0.169065 0.053780
v 0.159116 -0.221238 0.080210
v 0.171652 -0.213421 0.076738
v 0.115556 -0.245438 0.089429
v 0.073046 -0.265314 0.094830
v 0.095000 -0.255508 0.092482
v 0.031854 -0.281344 0.096958
v -0.007804 -0.294516 0.096833
v -0.046205 -0.304186 0.093747
v -0.009272 -0.294920 0.096748
v -0.083266 -0.311559 0.088884
v -0.119204 -0.316818 0.082352
v -0.392279 -0.075268 0.098088
v -0.389590 -0.026732 0.109035
v -0.377540 0.022277 0.120966
v -0.362343 0.071286 0.129243
v -0.154222 -0.320068 0.074184
v -0.188503 -0.321370 0.064382
v -0.385613 -0.122865 0.088206
v -0.375707 -0.169065 0.074997
v -0.362656 -0.213421 0.058589
v -0.222216 -0.320750 0.052915
v -0.346585 -0.255508 0.039139
v -0.255518 -0.318196 0.039722
v 0.393828 0.128491 -0.180321
v -0.288560 -0.313659 0.024705
v -0.327649 -0.294920 0.016835
v 0.369798 0.213619 -0.192420
v 0.386011 0.167419 -0.189195
v 0.358783 0.213619 -0.148446
v 0.374602 0.167419 -0.143647
v 0.386011 0.119822 -0.140186
v 0.324129 0.257975 -0.113791
v 0.343511 0.213619 -0.105763
v 0.358783 0.167419 -0.099437
v 0.369798 0.119822 -0.094875
v 0.376450 0.071286 -0.092119
v 0.305627 0.257975 -0.074672
v 0.324129 0.213619 -0.064783
v 0.338707 0.167419 -0.056990
v 0.349222 0.119822 -0.051370
v 0.355572 0.071286 -0.047976
v 0.357695 0.022277 -0.046841
v 0.283380 0.257975 -0.037555
v 0.300823 0.213619 -0.025900
v 0.314568 0.167419 -0.016716
v 0.324481 0.119822 -0.010092
v 0.330467 0.071286 -0.006092
v 0.332469 0.022277 -0.004755
v 0.330467 -0.026732 -0.006092
v 0.238102 0.300062 -0.018800
v 0.257601 0.257975 -0.002797
v 0.273818 0.213619 0.010512
v 0.286597 0.167419 0.020999
v 0.295813 0.119822 0.028562
v 0.301378 0.071286 0.033130
v 0.303239 0.022277 0.034657
v 0.301378 -0.026732 0.033130
v 0.295813 -0.075268 0.028562
v 0.210703 0.300062 0.011429
v 0.228540 0.257975 0.029266
v 0.243375 0.213619 0.044101
v 0.255064 0.167419 0.055790
v 0.263494 0.119822 0.064220
v 0.268585 0.071286 0.069311
v 0.270288 0.022277 0.071014
v 0.268585 -0.026732 0.069311
v 0.263494 -0.075268 0.064220
v 0.255064 -0.122865 0.055790
v 0.180474 0.300062 0.038828
v 0.196477 0.257975 0.058327
v 0.209786 0.213619 0.074544
v 0.220273 0.167419 0.087323
v 0.227836 0.119822 0.096539
v 0.232403 0.071286 0.102104
v 0.233931 0.022277 0.103965
v 0.232403 -0.026732 0.102104
v 0.227836 -0.075268 0.096539
v 0.220273 -0.122865 0.087323
v 0.209786 -0.169065 0.074544
v 0.147704 0.300062 0.063131
v 0.161719 0.257975 0.084106
v 0.173374 0.213619 0.101549
v 0.182558 0.167419 0.115294
v 0.189182 0.119822 0.125207
v 0.193182 0.071286 0.131193
v 0.194519 0.022277 0.133195
v 0.193182 -0.026732 0.131193
v 0.189182 -0.075268 0.125207
v 0.182558 -0.122865 0.115294
v 0.173374 -0.169065 0.101549
v 0.161719 -0.213421 0.084106
v 0.112710 0.300062 0.084106
v 0.124602 0.257975 0.106353
v 0.134491 0.213619 0.124855
v 0.142284 0.167419 0.139433
v 0.147904 0.119822 0.149948
v 0.151298 0.071286 0.156298
v 0.152433 0.022277 0.158421
v 0.151298 -0.026732 0.156298
v 0.147904 -0.075268 0.149948
v 0.142284 -0.122865 0.139433
v 0.134491 -0.169065 0.124855
v 0.124602 -0.213421 0.106353
v 0.075829 0.300062 0.101549
v 0.085483 0.257975 0.124855
v 0.093511 0.213619 0.144237
v 0.099837 0.167419 0.159509
v 0.104399 0.119822 0.170524
v 0.107155 0.071286 0.177176
v 0.108076 0.022277 0.179400
v 0.107155 -0.026732 0.177176
v 0.104399 -0.075268 0.170524
v 0.099837 -0.122865 0.159509
v 0.093511 -0.169065 0.144237
v 0.085483 -0.213421 0.124855
v 0.075829 -0.255508 0.101549
v 0.037416 0.300062 0.115294
v 0.044738 0.257975 0.139433
v 0.050828 0.213619 0.159509
v 0.055627 0.167419 0.175328
v 0.059088 0.119822 0.186737
v 0.061178 0.071286 0.193626
v 0.061877 0.022277 0.195930
v 0.061178 -0.026732 0.193626
v 0.059088 -0.075268 0.186737
v 0.055627 -0.122865 0.175328
v 0.050828 -0.169065 0.159509
v 0.044738 -0.213421 0.139433
v 0.037416 -0.255508 0.115294
v -0.002160 0.300062 0.125207
v 0.002761 0.257975 0.149948
v 0.006854 0.213619 0.170524
v 0.010079 0.167419 0.186737
v 0.012405 0.119822 0.198430
v 0.013810 0.071286 0.205491
v 0.014279 0.022277 0.207853
v 0.013810 -0.026732 0.205491
v 0.012405 -0.075268 0.198430
v 0.010079 -0.122865 0.186737
v 0.006854 -0.169065 0.170524
v 0.002761 -0.213421 0.149948
v -0.002160 -0.255508 0.125207
v -0.042516 0.300062 0.131193
v -0.040044 0.257975 0.156297
v -0.037988 0.213619 0.177175
v -0.036367 0.167419 0.193626
v -0.035199 0.119822 0.205491
v -0.034493 0.071286 0.212656
v -0.034257 0.022277 0.215053
v -0.034493 -0.026732 0.212656
v -0.035199 -0.075268 0.205491
v -0.036367 -0.122865 0.193626
v -0.037988 -0.169065 0.177175
v -0.040044 -0.213421 0.156297
v -0.042516 -0.255508 0.131193
v -0.045381 -0.294920 0.102104
v -0.083266 0.257975 0.158421
v -0.083266 0.213619 0.179400
v -0.083266 0.167419 0.195930
v -0.083266 0.119822 0.207853
v -0.083266 0.071286 0.215053
v -0.083266 0.022277 0.217460
v -0.083266 -0.026732 0.215053
v -0.083266 -0.075268 0.207853
v -0.083266 -0.122865 0.195930
v -0.083266 -0.169065 0.179400
v -0.083266 -0.213421 0.158421
v -0.083266 -0.255508 0.133195
v -0.083266 -0.294920 0.103965
v -0.126487 0.257975 0.156297
v -0.128544 0.213619 0.177175
v -0.130164 0.167419 0.193626
v -0.131333 0.119822 0.205491
v -0.132038 0.071286 0.212656
v -0.132274 0.022277 0.215053
v -0.132038 -0.026732 0.212656
v -0.131333 -0.075268 0.205491
v -0.130164 -0.122865 0.193626
v -0.128544 -0.169065 0.177175
v -0.126487 -0.213421 0.156297
v -0.124015 -0.255508 0.131193
v -0.121150 -0.294920 0.102104
v -0.169293 0.257975 0.149948
v -0.173386 0.213619 0.170524
v -0.176611 0.167419 0.186737
v -0.178937 0.119822 0.198430
v -0.180341 0.071286 0.205491
v -0.180811 0.022277 0.207853
v -0.180341 -0.026732 0.205491
v -0.178937 -0.075268 0.198430
v -0.176611 -0.122865 0.186737
v -0.173386 -0.169065 0.170524
v -0.169293 -0.213421 0.149948
v -0.164371 -0.255508 0.125207
v -0.158669 -0.294920 0.096539
v -0.217360 0.213619 0.159509
v -0.222158 0.167419 0.175328
v -0.225619 0.119822 0.186737
v -0.227709 0.071286 0.193626
v -0.228408 0.022277 0.195930
v -0.227709 -0.026732 0.193626
v -0.225619 -0.075268 0.186737
v -0.222158 -0.122865 0.175328
v -0.217360 -0.169065 0.159509
v -0.211270 -0.213421 0.139433
v -0.203947 -0.255508 0.115294
v -0.195462 -0.294920 0.087323
v -0.260042 0.213619 0.144237
v -0.266368 0.167419 0.159509
v -0.270931 0.119822 0.170524
v -0.273686 0.071286 0.177176
v -0.274607 0.022277 0.179400
v -0.273686 -0.026732 0.177176
v -0.270931 -0.075268 0.170524
v -0.266368 -0.122865 0.159509
v -0.260042 -0.169065 0.144237
v -0.252014 -0.213421 0.124855
v -0.242360 -0.255508 0.101549
v -0.231175 -0.294920 0.074544
v -0.308815 0.167419 0.139433
v -0.314435 0.119822 0.149948
v -0.317829 0.071286 0.156297
v -0.318964 0.022277 0.158421
v -0.317829 -0.026732 0.156297
v -0.314435 -0.075268 0.149948
v -0.308815 -0.122865 0.139433
v -0.301023 -0.169065 0.124855
v -0.291133 -0.213421 0.106353
v -0.279242 -0.255508 0.084106
v -0.265463 -0.294920 0.058327
v -0.359713 0.071286 0.131193
v -0.361051 0.022277 0.133195
v -0.359713 -0.026732 0.131193
v -0.355713 -0.075268 0.125207
v -0.349089 -0.122865 0.115294
v -0.339906 -0.169065 0.101549
v -0.328250 -0.213421 0.084105
v -0.314236 -0.255508 0.063131
v -0.297996 -0.294920 0.038828
v 0.373453 0.213619 -0.217057
vn 0.3922 0.5549 0.7337
vn 0.3091 0.5957 0.7413
vn 0.3184 0.5549 0.7686
vn 0.2365 0.5957 0.7676
vn 0.2415 0.5549 0.7961
vn 0.6506 -0.3368 0.6806
vn 0.6768 -0.2899 0.6767
vn 0.6072 -0.2899 0.7398
vn 0.5647 0.5957 0.5712
vn 0.5278 0.5549 0.6431
vn 0.5883 0.5549 0.5883
vn 0.4512 -0.2899 0.8441
vn 0.4624 -0.1948 0.8650
vn 0.3754 -0.1948 0.9062
vn 0.5072 0.5957 0.6228
vn 0.4622 0.5549 0.6917
vn 0.6170 0.5957 0.5143
vn 0.6431 0.5549 0.5278
vn 0.4451 0.5957 0.6686
vn 0.5529 -0.0979 0.8275
vn 0.4691 -0.0979 0.8777
vn 0.1617 0.5957 0.7868
vn 0.1623 0.5549 0.8160
vn -0.5529 0.0979 0.8275
vn -0.4691 0.0979 0.8777
vn -0.5177 0.1466 0.8429
vn 0.0854 0.5957 0.7987
vn 0.0815 0.5549 0.8279
vn 0.8538 0.3821 0.3536
vn 0.8150 0.3821 0.4356
vn 0.8441 0.2899 0.4512
vn -0.0000 0.4708 0.8823
vn -0.0738 0.5141 0.8546
vn -0.0865 0.4708 0.8780
vn 0.8151 0.4708 0.3376
vn 0.7781 0.4708 0.4159
vn 0.0419 0.5215 0.8522
vn 0.0088 0.5141 0.8577
vn 0.0865 0.4708 0.8780
vn -0.1557 0.5141 0.8435
vn -0.1721 0.4708 0.8653
vn -0.2182 0.4403 0.8709
vn -0.2683 0.3821 0.8843
vn -0.3317 0.4275 0.8410
vn -0.3536 0.3821 0.8538
vn -0.2489 0.4275 0.8691
vn -0.1803 0.3821 0.9063
vn -0.0000 -0.0979 0.9952
vn -0.0975 -0.0979 0.9904
vn -0.0961 -0.1948 0.9761
vn 0.8554 -0.0741 0.5127
vn 0.8685 -0.0491 0.4932
vn 0.8315 -0.0000 0.5556
vn 0.5556 -0.0000 0.8315
vn 0.4714 -0.0000 0.8819
vn -0.4624 0.1948 0.8650
vn -0.4937 0.2789 0.8237
vn -0.5053 0.1838 0.8431
vn -0.1942 -0.0979 0.9761
vn -0.2889 -0.0979 0.9523
vn -0.2847 -0.1948 0.9386
vn -0.5934 0.0874 0.8001
vn -0.2246 -0.6336 0.7403
vn -0.2415 -0.5549 0.7961
vn -0.3184 -0.5549 0.7686
vn -0.1867 -0.2899 0.9387
vn -0.2778 -0.2899 0.9159
vn -0.2683 -0.3821 0.8843
vn -0.0906 0.3821 0.9197
vn -0.1867 0.2899 0.9387
vn -0.0938 0.2899 0.9525
vn -0.1914 0.1948 0.9620
vn 0.4356 -0.3821 0.8150
vn 0.3663 -0.2899 0.8842
vn -0.3203 0.7512 -0.5772
vn -0.4691 -0.0979 0.8777
vn -0.5529 -0.0979 0.8275
vn -0.5449 -0.1948 0.8155
vn -0.5556 -0.0000 0.8315
vn -0.5957 -0.0104 0.8032
vn -0.5922 -0.1080 0.7985
vn 0.5862 -0.3821 0.7143
vn 0.5317 -0.2899 0.7958
vn 0.4627 -0.5140 0.7223
vn 0.4902 -0.4708 0.7336
vn 0.4159 -0.4708 0.7781
vn 0.1867 0.2899 0.9387
vn 0.0938 0.2899 0.9525
vn 0.0961 0.1948 0.9761
vn 0.2264 -0.6750 -0.7022
vn 0.2778 0.2899 0.9159
vn 0.1914 0.1948 0.9620
vn -0.0000 -0.3821 0.9241
vn -0.0906 -0.3821 0.9197
vn -0.0865 -0.4708 0.8780
vn 0.7880 0.5141 0.3387
vn 0.7518 0.5141 0.4130
vn 0.8777 0.0979 0.4691
vn 0.8275 0.0979 0.5529
vn -0.7162 0.3263 -0.6169
vn 0.1721 0.4708 0.8653
vn 0.0906 0.3821 0.9197
vn -0.5893 -0.1466 0.7945
vn 0.5529 0.0979 0.8275
vn 0.5449 0.1948 0.8155
vn 0.4624 0.1948 0.8650
vn 0.3808 -0.0979 0.9194
vn -0.4284 0.3368 0.8384
vn -0.3663 0.2899 0.8842
vn -0.4000 0.3531 0.8457
vn 0.0506 -0.3855 -0.9213
vn -0.4512 0.2899 0.8441
vn -0.4841 0.3365 0.8077
vn 0.3632 -0.5278 0.7678
vn 0.3910 -0.5140 0.7635
vn 0.3376 -0.4708 0.8151
vn 0.7336 0.4708 0.4902
vn 0.2889 -0.0979 0.9523
vn 0.2847 -0.1948 0.9386
vn 0.3536 0.3821 0.8538
vn 0.2683 0.3821 0.8843
vn 0.9434 0.3007 0.1399
vn 0.9063 0.3821 0.1803
vn 0.9387 0.2899 0.1867
vn 0.8456 0.4398 0.3026
vn 0.8836 0.4275 0.1910
vn 0.8843 0.3821 0.2683
vn -0.7243 0.0415 -0.6882
vn 0.3536 -0.3821 0.8538
vn -0.4902 -0.4708 0.7336
vn -0.5134 -0.3821 0.7684
vn -0.5505 -0.3821 0.7423
vn 0.3376 0.4708 0.8151
vn 0.2561 0.4708 0.8443
vn 0.3808 0.0979 0.9194
vn 0.3754 0.1948 0.9062
vn 0.2847 0.1948 0.9386
vn 0.3663 0.2899 0.8842
vn 0.3827 -0.0000 0.9239
vn 0.2889 0.0979 0.9523
vn 0.2903 -0.0000 0.9569
vn 0.2778 -0.2899 0.9159
vn 0.2561 -0.4708 0.8443
vn 0.2415 -0.5549 0.7961
vn 0.2683 -0.3821 0.8843
vn 0.2958 -0.5957 0.7468
vn 0.3184 -0.5549 0.7686
vn 0.1803 0.3821 0.9063
vn 0.1942 0.0979 0.9761
vn 0.1951 -0.0000 0.9808
vn 0.1942 -0.0979 0.9761
vn 0.1914 -0.1948 0.9620
vn 0.1867 -0.2899 0.9387
vn 0.0975 0.0979 0.9904
vn 0.0980 -0.0000 0.9952
vn 0.0975 -0.0979 0.9904
vn 0.0961 -0.1948 0.9761
vn 0.1803 -0.3821 0.9063
vn 0.0938 -0.2899 0.9525
vn 0.1721 -0.4708 0.8653
vn 0.0906 -0.3821 0.9197
vn 0.1170 -0.6036 0.7887
vn 0.1476 -0.5957 0.7896
vn 0.1623 -0.5549 0.8160
vn 0.0865 -0.4708 0.8780
vn 0.0815 -0.5549 0.8279
vn 0.2227 -0.5957 0.7718
vn -0.0000 -0.4708 0.8823
vn -0.0000 -0.5549 0.8319
vn 0.0758 -0.6336 0.7699
vn 0.0657 -0.6715 0.7380
vn -0.0000 -0.6336 0.7736
vn -0.0000 0.3821 0.9241
vn -0.0000 0.2899 0.9571
vn -0.0000 0.1948 0.9808
vn -0.0000 0.0979 0.9952
vn -0.0000 -0.0000 1.0000
vn -0.0000 -0.1948 0.9808
vn -0.0000 -0.2899 0.9571
vn -0.1721 -0.4708 0.8653
vn -0.1623 -0.5549 0.8160
vn -0.0815 -0.5549 0.8279
vn -0.1509 -0.6336 0.7588
vn -0.0763 -0.6716 0.7370
vn -0.0758 -0.6336 0.7699
vn -0.0053 -0.6715 0.7409
vn -0.0961 0.1948 0.9761
vn -0.0975 0.0979 0.9904
vn -0.0980 -0.0000 0.9952
vn -0.0938 -0.2899 0.9525
vn 0.5597 0.4708 0.6820
vn -0.1803 -0.3821 0.9063
vn 0.9037 0.0233 0.4274
vn 0.9125 0.0491 0.4061
vn -0.1951 -0.0000 0.9808
vn -0.1942 0.0979 0.9761
vn -0.2889 0.0979 0.9523
vn -0.2847 0.1948 0.9386
vn -0.1914 -0.1948 0.9620
vn -0.2561 -0.4708 0.8443
vn -0.1465 -0.6716 0.7263
vn -0.5317 -0.2899 0.7958
vn -0.5701 -0.2901 0.7687
vn 0.9410 0.2427 0.2357
vn 0.9436 0.2428 0.2252
vn 0.9159 0.2899 0.2778
vn 0.9386 0.1948 0.2847
vn 0.5134 0.3821 0.7684
vn 0.4902 0.4708 0.7336
vn 0.4159 0.4708 0.7781
vn -0.2778 0.2899 0.9159
vn -0.2961 -0.6336 0.7147
vn -0.2823 -0.6716 0.6851
vn -0.3754 0.1948 0.9062
vn 0.7071 -0.0000 0.7071
vn 0.6344 -0.0000 0.7730
vn 0.6313 -0.0979 0.7693
vn -0.2903 -0.0000 0.9569
vn -0.3808 0.0979 0.9194
vn -0.3827 -0.0000 0.9239
vn -0.3808 -0.0979 0.9194
vn -0.3754 -0.1948 0.9062
vn 0.8842 0.2899 0.3663
vn -0.3663 -0.2899 0.8842
vn -0.3536 -0.3821 0.8538
vn 0.8819 -0.0000 0.4714
vn -0.3376 -0.4708 0.8151
vn -0.5257 -0.4704 0.7088
vn -0.4958 -0.5542 0.6686
vn 0.8650 0.1948 0.4624
vn 0.8155 0.1948 0.5449
vn -0.4714 -0.0000 0.8819
vn -0.4624 -0.1948 0.8650
vn 0.6767 0.2899 0.6767
vn 0.6072 0.2899 0.7398
vn 0.6222 0.1948 0.7582
vn -0.4512 -0.2899 0.8441
vn -0.4356 -0.3821 0.8150
vn -0.4159 -0.4708 0.7781
vn 0.9388 0.1467 0.3117
vn 0.9468 0.2175 0.2372
vn -0.3922 -0.5549 0.7337
vn -0.4622 -0.5549 0.6917
vn 0.8610 0.4275 0.2754
vn -0.3647 -0.6336 0.6823
vn -0.3466 -0.6716 0.6549
vn 0.7037 0.0979 0.7037
vn 0.6936 0.1948 0.6936
vn -0.4298 -0.6336 0.6432
vn 0.9062 0.1948 0.3754
vn -0.4077 -0.6716 0.6187
vn 0.9194 0.0979 0.3808
vn 0.9346 0.1208 0.3344
vn 0.6820 0.4708 0.5597
vn 0.6856 0.5210 0.5085
vn 0.7085 0.5141 0.4834
vn -0.3862 0.3614 -0.8487
vn -0.4416 -0.6711 0.5955
vn -0.5842 -0.1954 0.7877
vn 0.7684 0.3821 0.5134
vn 0.7958 0.2899 0.5317
vn 0.6534 0.3821 0.6534
vn 0.5862 0.3821 0.7143
vn 0.8275 -0.0979 0.5529
vn 0.8086 -0.1467 0.5698
vn 0.4512 0.2899 0.8441
vn 0.7693 -0.0979 0.6313
vn 0.7914 -0.1705 0.5870
vn 0.6239 0.4708 0.6239
vn 0.7730 -0.0000 0.6344
vn 0.7582 -0.1948 0.6222
vn 0.7350 -0.2429 0.6331
vn 0.9100 0.3921 0.1350
vn 0.7582 0.1948 0.6222
vn 0.7398 0.2899 0.6072
vn 0.7143 0.3821 0.5862
vn -0.4612 -0.6328 0.6219
vn 0.7693 0.0979 0.6313
vn 0.8944 0.4271 0.1327
vn 0.6936 -0.1948 0.6936
vn 0.7145 -0.2650 0.6475
vn 0.7037 -0.0979 0.7037
vn 0.6273 -0.3569 0.6922
vn 0.5587 -0.4275 0.7107
vn -0.7243 0.0414 -0.6882
vn 0.6313 0.0979 0.7693
vn 0.6222 -0.1948 0.7582
vn 0.5334 -0.4452 0.7192
vn 0.5317 0.2899 0.7958
vn 0.5449 -0.1948 0.8155
vn 0.5134 -0.3821 0.7684
vn 0.4356 0.3821 0.8150
vn 0.4691 0.0979 0.8777
vn -0.2154 -0.6716 0.7090
vn 0.3789 0.5957 0.7082
vt 0.328125 0.687500
vt 0.312500 0.703321
vt 0.312500 0.687500
vt 0.296875 0.700602
vt 0.296875 0.687500
vt 0.375000 0.382831
vt 0.375000 0.406250
vt 0.359375 0.406250
vt 0.375000 0.697795
vt 0.359375 0.687500
vt 0.375000 0.687500
vt 0.328125 0.406250
vt 0.328125 0.437500
vt 0.312500 0.437500
vt 0.359375 0.701651
vt 0.343750 0.687500
vt 0.390625 0.692225
vt 0.390625 0.687500
vt 0.343750 0.703842
vt 0.343750 0.468750
vt 0.328125 0.468750
vt 0.281250 0.696205
vt 0.281250 0.687500
vt 0.156250 0.531250
vt 0.171875 0.531250
vt 0.156250 0.537033
vt 0.265625 0.690075
vt 0.265625 0.687500
vt 0.437500 0.625000
vt 0.421875 0.625000
vt 0.421875 0.593750
vt 0.250000 0.656250
vt 0.234375 0.672191
vt 0.234375 0.656250
vt 0.437500 0.656250
vt 0.421875 0.656250
vt 0.260500 0.687656
vt 0.250000 0.682096
vt 0.265625 0.656250
vt 0.218750 0.660294
vt 0.218750 0.656250
vt 0.214155 0.656383
vt 0.203125 0.625000
vt 0.187500 0.629988
vt 0.187500 0.625000
vt 0.203125 0.646235
vt 0.218750 0.625000
vt 0.250000 0.468750
vt 0.234375 0.468750
vt 0.234375 0.437500
vt 0.420456 0.468738
vt 0.421875 0.471732
vt 0.406250 0.500000
vt 0.343750 0.500000
vt 0.328125 0.500000
vt 0.171875 0.562500
vt 0.167141 0.593840
vt 0.160981 0.562562
vt 0.218750 0.468750
vt 0.203125 0.468750
vt 0.203125 0.437500
vt 0.155204 0.531259
vt 0.203125 0.281250
vt 0.203125 0.312500
vt 0.187500 0.312500
vt 0.218750 0.406250
vt 0.203125 0.406250
vt 0.203125 0.375000
vt 0.234375 0.625000
vt 0.218750 0.593750
vt 0.234375 0.593750
vt 0.218750 0.562500
vt 0.328125 0.375000
vt 0.312500 0.406250
vt 2.780963 2.383621
vt 2.791419 2.399323
vt 2.781108 2.450865
vt 0.171875 0.468750
vt 0.156250 0.468750
vt 0.156250 0.437500
vt 2.500000 2.205929
vt 2.394759 2.293822
vt 2.470628 2.201778
vt 0.156250 0.500000
vt 0.149714 0.500000
vt 0.144346 0.468723
vt 0.359375 0.375000
vt 0.343750 0.406250
vt 0.343750 0.337951
vt 0.343750 0.343750
vt 0.328125 0.343750
vt 0.281250 0.593750
vt 0.265625 0.593750
vt 0.265625 0.562500
vt 2.639175 2.239622
vt 2.624786 2.237485
vt 2.402979 2.363310
vt 0.296875 0.593750
vt 0.281250 0.562500
vt 0.250000 0.375000
vt 0.234375 0.375000
vt 0.234375 0.343750
vt 0.437500 0.664315
vt 0.421875 0.675567
vt 2.830516 2.391063
vt 2.823089 2.366172
vt 0.421875 0.531250
vt 0.406250 0.531250
vt 2.294008 2.217546
vt 2.304646 2.211752
vt 2.379313 2.331827
vt 0.281250 0.656250
vt 0.265625 0.625000
vt 0.141705 0.453173
vt 0.343750 0.531250
vt 0.343750 0.562500
vt 0.328125 0.562500
vt 0.312500 0.468750
vt 0.171875 0.611453
vt 0.187500 0.593750
vt 0.183196 0.625108
vt 2.832015 2.433958
vt 2.833966 2.428447
vt 0.171875 0.593750
vt 0.170471 0.609667
vt 0.320622 0.312323
vt 0.328125 0.319973
vt 0.312500 0.343750
vt 0.406250 0.656250
vt 0.296875 0.468750
vt 0.296875 0.437500
vt 0.312500 0.625000
vt 0.296875 0.625000
vt 0.471365 0.593809
vt 0.468750 0.625000
vt 0.468750 0.593750
vt 0.447059 0.656402
vt 0.468750 0.635413
vt 0.453125 0.625000
vt 2.525943 2.236600
vt 2.500000 2.240003
vt 2.295291 2.249724
vt 0.312500 0.375000
vt 0.156250 0.343750
vt 0.156250 0.375000
vt 0.140886 0.374991
vt 0.312500 0.656250
vt 0.296875 0.656250
vt 0.312500 0.531250
vt 0.312500 0.562500
vt 0.296875 0.562500
vt 0.312500 0.593750
vt 0.312500 0.500000
vt 0.296875 0.531250
vt 0.296875 0.500000
vt 0.296875 0.406250
vt 0.296875 0.343750
vt 0.296875 0.312500
vt 0.296875 0.375000
vt 0.312500 0.304729
vt 0.312500 0.312500
vt 0.281250 0.625000
vt 0.281250 0.531250
vt 0.281250 0.500000
vt 0.281250 0.468750
vt 0.281250 0.437500
vt 0.281250 0.406250
vt 0.265625 0.531250
vt 0.265625 0.500000
vt 0.265625 0.468750
vt 0.265625 0.437500
vt 0.281250 0.375000
vt 0.265625 0.406250
vt 0.281250 0.343750
vt 0.265625 0.375000
vt 0.280664 0.281223
vt 0.281250 0.281570
vt 0.281250 0.312500
vt 0.265625 0.343750
vt 0.265625 0.312500
vt 0.296875 0.292011
vt 0.250000 0.343750
vt 0.250000 0.312500
vt 0.265625 0.281250
vt 0.265625 0.273290
vt 0.250000 0.281250
vt 0.250000 0.625000
vt 0.250000 0.593750
vt 0.250000 0.562500
vt 0.250000 0.531250
vt 0.250000 0.500000
vt 0.250000 0.437500
vt 0.250000 0.406250
vt 0.218750 0.343750
vt 0.218750 0.312500
vt 0.234375 0.312500
vt 0.218750 0.281250
vt 0.234375 0.262425
vt 0.234375 0.281250
vt 0.250000 0.266949
vt 0.234375 0.562500
vt 0.234375 0.531250
vt 0.234375 0.500000
vt 0.234375 0.406250
vt 0.359375 0.656250
vt 0.218750 0.375000
vt 0.435027 0.500000
vt 0.437500 0.505391
vt 0.218750 0.500000
vt 0.218750 0.531250
vt 0.203125 0.531250
vt 0.203125 0.562500
vt 0.218750 0.437500
vt 0.203125 0.343750
vt 0.218750 0.259630
vt 0.156250 0.406250
vt 0.141118 0.406237
vt 0.466409 0.568227
vt 0.468750 0.580307
vt 0.453125 0.593750
vt 0.453125 0.562500
vt 2.784042 2.307425
vt 2.759640 2.286919
vt 0.343750 0.625000
vt 0.343750 0.656250
vt 0.328125 0.656250
vt 0.203125 0.593750
vt 2.721173 2.264576
vt 2.700330 2.255898
vt 0.187500 0.281250
vt 0.187500 0.259043
vt 0.187500 0.562500
vt 0.375000 0.500000
vt 0.359375 0.500000
vt 0.359375 0.468750
vt 0.203125 0.500000
vt 0.187500 0.531250
vt 0.187500 0.500000
vt 0.187500 0.468750
vt 0.187500 0.437500
vt 2.834062 2.422583
vt 0.437500 0.593750
vt 0.187500 0.406250
vt 0.187500 0.375000
vt 0.421875 0.500000
vt 0.187500 0.343750
vt 0.140783 0.343744
vt 0.140825 0.312491
vt 0.421875 0.562500
vt 0.406250 0.562500
vt 0.171875 0.500000
vt 0.171875 0.437500
vt 0.375000 0.593750
vt 0.359375 0.593750
vt 0.359375 0.562500
vt 0.171875 0.406250
vt 0.171875 0.375000
vt 0.171875 0.343750
vt 0.453125 0.539574
vt 0.463756 0.562564
vt 0.171875 0.312500
vt 0.156250 0.312500
vt 2.315676 2.274825
vt 2.328932 2.290437
vt 0.453125 0.650968
vt 0.171875 0.281250
vt 0.171875 0.261239
vt 2.282510 2.231290
vt 2.285573 2.225898
vt 0.375000 0.531250
vt 0.375000 0.562500
vt 0.156250 0.281250
vt 0.437500 0.562500
vt 0.156250 0.265142
vt 0.437500 0.531250
vt 0.449328 0.531278
vt 0.390625 0.656250
vt 0.400726 0.687662
vt 0.406250 0.684853
vt 2.420826 2.379606
vt 2.342396 2.211297
vt 2.345205 2.210399
vt 2.474843 2.244576
vt 2.450330 2.250293
vt 2.678739 2.282206
vt 0.141182 0.270595
vt 2.829301 2.440104
vt 0.141468 0.437485
vt 2.409030 2.200114
vt 2.431136 2.199424
vt 2.440227 2.199502
vt 2.519166 2.209927
vt 2.528359 2.212066
vt 2.555662 2.220170
vt 2.581986 2.229727
vt 2.307005 2.211163
vt 2.318039 2.209332
vt 2.333570 2.209741
vt 0.406250 0.625000
vt 0.406250 0.593750
vt 2.368351 2.204995
vt 2.377154 2.203424
vt 0.375000 0.625000
vt 0.359375 0.625000
vt 2.701010 2.298990
vt 2.722564 2.317347
vt 2.735954 2.330209
vt 2.743215 2.337489
vt 0.406250 0.468750
vt 2.762600 2.359637
vt 0.406250 0.439611
vt 0.328125 0.593750
vt 0.390625 0.468750
vt 0.405176 0.437481
vt 0.375000 0.656250
vt 2.631969 2.253104
vt 2.655735 2.266927
vt 0.390625 0.500000
vt 0.390625 0.437500
vt 0.390625 0.409813
vt 0.477335 0.625134
vt 0.390625 0.562500
vt 0.390625 0.593750
vt 0.390625 0.625000
vt 2.797758 2.409676
vt 2.812344 2.437871
vt 0.141041 0.281230
vt 0.390625 0.531250
vt 0.477455 0.625777
vt 0.375000 0.437500
vt 0.388630 0.406202
vt 2.283691 2.233561
vt 2.334080 2.296378
vt 0.375000 0.468750
vt 2.288357 2.240478
vt 0.370034 0.374882
vt 0.359375 0.358877
vt 2.304427 2.261210
vt 0.359375 0.531250
vt 0.359375 0.437500
vt 0.348213 0.343620
vt 2.426334 2.257155
vt 2.402735 2.265182
vt 0.343750 0.593750
vt 0.343750 0.437500
vt 0.343750 0.375000
vt 2.356294 2.284929
vt 0.328125 0.625000
vt 0.328125 0.531250
vt 2.379423 2.274417
vt 2.785706 2.309097
vt 2.805588 2.333140
vt 2.832031 2.399279
vt 2.756082 2.284410
vt 2.730700 2.269300
vt 2.821031 2.361141
vt 2.807328 2.335730
vt 2.678442 2.248505
vt 2.669667 2.246075
vt 2.609418 2.235841
vt 2.580584 2.234352
vt 2.552823 2.234439
vt 2.551796 2.234499
vt 0.203125 0.258510
vt 2.819703 2.454162
vt 0.328125 0.704396
vt 2.607402 2.240708
vt 2.819439 2.454444
s 1
f 145/1/1 18/2/2 157/3/3
f 157/3/3 19/4/4 170/5/5
f 49/6/6 121/7/7 131/8/8
f 14/9/9 122/10/10 112/11/11
f 154/12/12 153/13/13 165/14/14
f 15/15/15 133/16/16 122/10/10
f 12/17/17 112/11/11 103/18/18
f 16/19/19 145/1/1 133/16/16
f 140/20/20 152/21/21 153/13/13
f 170/5/5 20/22/22 183/23/23
f 284/24/24 275/25/25 44/26/26
f 183/23/23 21/27/27 196/28/28
f 86/29/29 91/30/30 92/31/31
f 210/32/32 24/33/33 223/34/34
f 85/35/35 90/36/36 91/30/30
f 23/37/37 22/38/38 197/39/39
f 210/32/32 22/38/38 24/33/33
f 223/34/34 25/40/40 236/41/41
f 170/5/5 19/4/4 20/22/22
f 236/41/41 25/40/40 27/42/42
f 196/28/28 21/27/27 23/37/37
f 249/43/43 28/44/44 261/45/45
f 26/46/46 237/47/47 27/42/42
f 216/48/48 229/49/49 230/50/50
f 38/51/51 35/52/52 101/53/53
f 139/54/54 151/55/55 152/21/21
f 274/56/56 46/57/57 45/58/58
f 242/59/59 254/60/60 255/61/61
f 284/24/24 44/26/26 68/62/62
f 260/63/63 259/64/64 271/65/65
f 44/26/26 275/25/25 45/58/58
f 244/66/66 256/67/67 257/68/68
f 224/69/69 237/47/47 238/70/70
f 225/71/71 238/70/70 239/72/72
f 155/73/73 154/12/12 166/74/74
s 0
f 8/75/75 9/76/75 31/77/75
s 1
f 277/78/76 286/79/77 287/80/78
f 237/47/47 236/41/41 27/42/42
s 0
f 22/81/75 2/82/75 24/83/75
s 1
f 249/43/43 237/47/47 26/46/46
f 285/84/79 68/62/62 67/85/80
f 286/79/77 67/85/80 66/86/81
f 132/87/82 131/8/8 142/88/83
f 12/17/17 14/9/9 112/11/11
f 15/15/15 16/19/19 133/16/16
f 54/89/84 144/90/85 156/91/86
f 186/92/87 199/93/88 200/94/89
s 0
f 56/95/90 58/96/90 42/97/90
s 1
f 173/98/91 186/92/87 187/99/92
f 219/100/93 232/101/94 233/102/95
f 8/103/96 10/104/97 90/36/36
s 0
f 34/105/90 32/106/90 42/97/90
s 1
f 285/84/79 284/24/24 68/62/62
f 94/107/98 100/108/99 101/53/53
s 0
f 67/109/100 68/110/100 41/111/100
s 1
f 184/112/101 197/39/39 198/113/102
f 286/79/77 66/86/81 29/114/103
f 138/115/104 137/116/105 149/117/106
f 152/21/21 164/118/107 165/14/14
f 30/119/108 262/120/109 1/121/110
s 0
f 48/122/111 77/123/111 31/77/111
s 1
f 8/103/96 90/36/36 85/35/35
f 273/124/112 4/125/113 46/57/57
f 58/126/114 56/127/115 168/128/116
f 10/104/97 96/129/117 90/36/36
f 164/118/107 177/130/118 178/131/119
f 159/132/120 172/133/121 173/98/91
f 50/134/122 80/135/123 81/136/124
f 9/137/125 85/35/35 86/29/29
f 6/138/126 82/139/127 80/135/123
s 0
f 61/140/90 63/141/90 42/97/90
f 72/142/128 41/111/128 42/97/128
s 1
f 261/45/45 28/44/44 1/121/110
f 155/73/73 167/143/129 168/128/116
f 290/144/130 289/145/131 72/146/132
f 158/147/133 157/3/3 170/5/5
f 159/132/120 158/147/133 171/148/134
f 162/149/135 161/150/136 174/151/137
f 160/152/138 173/98/91 174/151/137
f 163/153/139 162/149/135 175/154/140
f 163/153/139 176/155/141 177/130/118
f 166/74/74 165/14/14 178/131/119
f 167/143/129 166/74/74 179/156/142
f 168/128/116 181/157/143 182/158/144
f 167/143/129 180/159/145 181/157/143
f 57/160/146 169/161/147 182/158/144
f 171/148/134 184/112/101 185/162/148
f 172/133/121 185/162/148 186/92/87
f 175/154/140 174/151/137 187/99/92
f 176/155/141 175/154/140 188/163/149
f 176/155/141 189/164/150 190/165/151
f 177/130/118 190/165/151 191/166/152
f 180/159/145 179/156/142 192/167/153
f 179/156/142 178/131/119 191/166/152
f 189/164/150 188/163/149 201/168/154
f 189/164/150 202/169/155 203/170/156
f 190/165/151 203/170/156 204/171/157
f 192/167/153 191/166/152 204/171/157
f 193/172/158 192/167/153 205/173/159
f 194/174/160 193/172/158 206/175/161
f 62/176/162 60/177/163 195/178/164
f 194/174/160 207/179/165 208/180/166
f 180/159/145 193/172/158 194/174/160
f 181/157/143 194/174/160 195/178/164
f 59/181/167 182/158/144 195/178/164
f 171/148/134 170/5/5 183/23/23
f 188/163/149 187/99/92 200/94/89
f 207/179/165 220/182/168 221/183/169
f 209/184/170 208/180/166 221/183/169
f 61/185/171 209/184/170 222/186/172
f 197/39/39 210/32/32 211/187/173
f 195/178/164 208/180/166 62/176/162
f 199/93/88 212/188/174 213/189/175
f 184/112/101 183/23/23 196/28/28
f 198/113/102 211/187/173 212/188/174
f 185/162/148 198/113/102 199/93/88
f 202/169/155 201/168/154 214/190/176
f 202/169/155 215/191/177 216/48/48
f 203/170/156 216/48/48 217/192/178
f 205/173/159 204/171/157 217/192/178
f 206/175/161 205/173/159 218/193/179
f 206/175/161 219/100/93 220/182/168
f 233/102/95 246/194/180 247/195/181
f 218/193/179 217/192/178 230/50/50
f 234/196/182 247/195/181 248/197/183
f 224/69/69 223/34/34 236/41/41
f 220/182/168 233/102/95 234/196/182
f 64/198/184 235/199/185 248/197/183
f 222/186/172 221/183/169 234/196/182
f 63/200/186 222/186/172 235/199/185
f 211/187/173 210/32/32 223/34/34
f 212/188/174 211/187/173 224/69/69
f 212/188/174 225/71/71 226/201/187
f 214/190/176 213/189/175 226/201/187
f 215/191/177 214/190/176 227/202/188
f 215/191/177 228/203/189 229/49/49
f 232/101/94 231/204/190 244/66/66
f 123/205/191 122/10/10 133/16/16
f 232/101/94 245/206/192 246/194/180
f 36/207/193 32/208/194 94/107/98
f 241/209/195 240/210/196 252/211/197
f 227/202/188 226/201/187 239/72/72
f 240/210/196 239/72/72 251/212/198
f 228/203/189 241/209/195 242/59/59
f 229/49/49 242/59/59 243/213/199
f 231/204/190 230/50/50 243/213/199
f 246/194/180 258/214/200 259/64/64
f 248/197/183 247/195/181 259/64/64
f 69/215/201 248/197/183 260/63/63
f 289/145/131 288/216/202 71/217/203
f 77/218/204 48/219/205 83/220/206
f 48/219/205 81/136/124 83/220/206
f 83/220/206 84/221/207 77/218/204
s 0
f 47/222/90 39/223/90 42/97/90
s 1
f 238/70/70 237/47/47 249/43/43
f 135/224/208 134/225/209 146/226/210
f 238/70/70 250/227/211 251/212/198
s 0
f 53/228/90 52/229/90 42/97/90
s 1
f 244/66/66 243/213/199 255/61/61
f 245/206/192 257/68/68 258/214/200
f 260/63/63 272/230/212 74/231/213
f 250/227/211 249/43/43 261/45/45
f 250/227/211 262/120/109 263/232/214
f 118/233/215 128/234/216 129/235/217
f 252/211/197 251/212/198 263/232/214
f 253/236/218 252/211/197 264/237/219
f 253/236/218 265/238/220 266/239/221
f 48/219/205 50/134/122 81/136/124
f 254/60/60 266/239/221 267/240/222
s 0
f 42/97/90 77/123/90 3/241/90
s 1
f 256/67/67 255/61/61 267/240/222
f 84/221/207 83/220/206 87/242/223
f 256/67/67 268/243/224 269/244/225
f 35/52/52 95/245/226 101/53/53
f 258/214/200 270/246/227 271/65/65
f 290/144/130 73/247/228 75/248/229
f 258/214/200 257/68/68 269/244/225
f 94/107/98 93/249/230 99/250/231
f 264/237/219 263/232/214 274/56/56
f 265/238/220 264/237/219 275/25/25
f 265/238/220 276/251/232 277/78/76
f 266/239/221 277/78/76 278/252/233
f 115/253/234 125/254/235 126/255/236
f 268/243/224 267/240/222 278/252/233
f 80/135/123 83/220/206 81/136/124
f 268/243/224 279/256/237 280/257/238
f 14/9/9 15/15/15 122/10/10
f 269/244/225 280/257/238 281/258/239
f 5/259/240 3/260/241 84/221/207
f 270/246/227 281/258/239 282/261/242
f 290/144/130 75/248/229 291/262/243
f 272/230/212 271/65/65 282/261/242
s 0
f 75/263/128 42/97/128 79/264/128
s 1
f 276/251/232 275/25/25 284/24/24
f 82/139/127 7/265/244 9/137/125
f 272/230/212 283/266/245 76/267/246
f 262/120/109 261/45/45 1/121/110
s 0
f 2/82/100 41/111/100 68/110/100
f 41/111/100 29/268/100 66/269/100
s 1
f 151/55/55 163/153/139 164/118/107
f 279/256/237 288/216/202 289/145/131
f 281/258/239 280/257/238 289/145/131
f 117/270/247 116/271/248 126/255/236
f 281/258/239 290/144/130 291/262/243
f 82/139/127 87/242/223 83/220/206
f 282/261/242 291/262/243 292/272/249
f 84/221/207 87/242/223 88/273/250
f 283/266/245 292/272/249 78/274/251
f 88/273/250 89/275/252 34/276/253
f 104/277/254 96/129/117 13/278/255
f 32/208/194 34/276/253 89/275/252
f 96/129/117 11/279/256 13/278/255
s 0
f 43/280/257 2/82/257 31/77/257
f 2/82/75 4/281/75 30/282/75
f 64/283/90 69/284/90 42/97/90
f 31/77/75 2/82/75 15/285/75
s 1
f 292/272/249 40/286/258 78/274/251
s 0
f 50/287/111 48/122/111 31/77/111
s 1
f 290/144/130 72/146/132 73/247/228
f 288/216/202 65/288/259 71/217/203
f 279/256/237 278/252/233 287/80/78
f 85/35/35 91/30/30 86/29/29
s 0
f 26/289/75 27/290/75 2/82/75
s 1
f 86/29/29 92/31/31 87/242/223
s 0
f 27/290/75 25/291/75 2/82/75
s 1
f 87/242/223 93/249/230 88/273/250
s 0
f 25/291/75 24/83/75 2/82/75
s 1
f 89/275/252 93/249/230 94/107/98
s 0
f 22/81/75 23/292/75 2/82/75
s 1
f 94/107/98 95/245/226 36/207/193
s 0
f 23/292/75 21/293/75 2/82/75
s 1
f 35/52/52 36/207/193 95/245/226
s 0
f 20/294/75 19/295/75 2/82/75
f 44/296/100 45/297/100 2/82/100
f 21/293/75 20/294/75 2/82/75
f 46/298/100 4/281/100 2/82/100
f 45/297/100 46/298/100 2/82/100
f 68/110/100 44/296/100 2/82/100
s 1
f 91/30/30 97/299/260 98/300/261
f 90/36/36 96/129/117 97/299/260
s 0
f 1/301/75 28/302/75 2/82/75
s 1
f 114/303/262 124/304/263 125/254/235
s 0
f 28/302/75 26/289/75 2/82/75
s 1
f 92/31/31 99/250/231 93/249/230
s 0
f 14/305/75 12/306/75 31/77/75
s 1
f 94/107/98 99/250/231 100/108/99
s 0
f 12/306/75 13/307/75 31/77/75
s 1
f 94/107/98 101/53/53 95/245/226
s 0
f 13/307/75 11/308/75 31/77/75
s 1
f 101/53/53 102/309/264 38/51/51
s 0
f 10/310/75 8/75/75 31/77/75
s 1
f 37/311/265 38/51/51 102/309/264
s 0
f 11/308/75 10/310/75 31/77/75
f 66/269/100 67/109/100 41/111/100
s 1
f 65/288/259 287/80/78 29/114/103
f 273/124/112 262/120/109 30/119/108
f 287/80/78 286/79/77 29/114/103
f 148/312/266 160/152/138 161/150/136
f 37/311/265 102/309/264 110/313/267
f 47/314/268 37/311/265 110/313/267
f 113/315/269 112/11/11 122/10/10
s 0
f 17/316/75 16/317/75 2/82/75
s 1
f 90/36/36 97/299/260 91/30/30
s 0
f 16/317/75 15/285/75 2/82/75
s 1
f 91/30/30 98/300/261 92/31/31
s 0
f 15/285/75 14/305/75 31/77/75
s 1
f 100/108/99 109/318/270 101/53/53
f 101/53/53 110/313/267 102/309/264
f 110/313/267 111/319/271 47/314/268
f 39/320/272 47/314/268 111/319/271
f 273/124/112 30/119/108 4/125/113
f 10/104/97 11/279/256 96/129/117
f 86/29/29 82/139/127 9/137/125
f 50/134/122 293/321/273 80/135/123
f 13/278/255 12/17/17 103/18/18
f 100/108/99 99/250/231 107/322/274
f 114/303/262 113/315/269 123/205/191
f 99/250/231 98/300/261 106/323/275
f 97/299/260 104/277/254 105/324/276
s 0
f 9/76/75 7/325/75 31/77/75
s 1
f 97/299/260 106/323/275 98/300/261
s 0
f 7/325/75 6/326/75 31/77/75
s 1
f 99/250/231 106/323/275 107/322/274
f 291/262/243 75/248/229 79/327/277
f 100/108/99 107/322/274 108/328/278
f 33/329/279 6/138/126 80/135/123
f 110/313/267 120/330/280 111/319/271
f 120/330/280 121/7/7 51/331/281
f 49/6/6 51/331/281 121/7/7
s 0
f 29/268/128 41/111/128 65/332/128
f 41/111/128 43/280/128 42/97/128
f 42/97/128 40/333/128 79/264/128
s 1
f 109/318/270 118/233/215 119/334/282
s 0
f 65/332/128 41/111/128 71/335/128
s 1
f 104/277/254 112/11/11 113/315/269
f 110/313/267 119/334/282 120/330/280
f 105/324/276 113/315/269 114/303/262
f 105/324/276 115/253/234 106/323/275
f 106/323/275 116/271/248 107/322/274
f 108/328/278 116/271/248 117/270/247
f 109/318/270 117/270/247 118/233/215
f 109/318/270 119/334/282 110/313/267
f 131/8/8 132/87/82 53/336/283
f 52/337/284 53/336/283 132/87/82
s 0
f 73/338/285 72/142/285 42/97/285
f 72/142/128 71/335/128 41/111/128
s 1
f 53/336/283 49/6/6 131/8/8
f 80/135/123 82/139/127 83/220/206
f 113/315/269 122/10/10 123/205/191
f 105/324/276 114/303/262 115/253/234
f 114/303/262 123/205/191 124/304/263
f 105/324/276 104/277/254 113/315/269
f 114/303/262 125/254/235 115/253/234
f 115/253/234 126/255/236 116/271/248
f 117/270/247 126/255/236 127/339/286
f 118/233/215 127/339/286 128/234/216
f 118/233/215 129/235/217 119/334/282
f 119/334/282 130/340/287 120/330/280
f 120/330/280 131/8/8 121/7/7
f 54/89/84 55/341/288 144/90/85
f 82/139/127 86/29/29 87/242/223
f 108/328/278 107/322/274 116/271/248
s 0
f 70/342/90 74/343/90 42/97/90
s 1
f 123/205/191 133/16/16 134/225/209
s 0
f 69/284/90 70/342/90 42/97/90
s 1
f 124/304/263 134/225/209 135/224/208
f 118/233/215 117/270/247 127/339/286
f 124/304/263 136/344/289 125/254/235
f 126/255/236 136/344/289 137/116/105
f 127/339/286 137/116/105 138/115/104
f 128/234/216 138/115/104 139/54/54
f 128/234/216 140/20/20 129/235/217
f 129/235/217 141/345/290 130/340/287
f 131/8/8 141/345/290 142/88/83
f 132/87/82 142/88/83 143/346/291
f 143/346/291 144/90/85 55/341/288
f 143/346/291 154/12/12 155/73/73
f 143/346/291 156/91/86 144/90/85
f 54/89/84 156/91/86 56/127/115
f 5/259/240 84/221/207 88/273/250
f 106/323/275 115/253/234 116/271/248
s 0
f 43/280/257 41/111/257 2/82/257
s 1
f 134/225/209 145/1/1 146/226/210
s 0
f 78/347/90 40/333/90 42/97/90
s 1
f 135/224/208 146/226/210 147/348/292
f 120/330/280 130/340/287 131/8/8
f 135/224/208 148/312/266 136/344/289
f 119/334/282 129/235/217 130/340/287
f 136/344/289 149/117/106 137/116/105
f 138/115/104 149/117/106 150/349/293
f 139/54/54 150/349/293 151/55/55
f 139/54/54 152/21/21 140/20/20
f 140/20/20 153/13/13 141/345/290
f 142/88/83 153/13/13 154/12/12
f 168/128/116 169/161/147 58/126/114
f 57/160/146 58/126/114 169/161/147
f 109/318/270 108/328/278 117/270/247
s 0
f 76/350/90 78/347/90 42/97/90
s 1
f 146/226/210 157/3/3 158/147/133
s 0
f 37/351/90 47/222/90 42/97/90
s 1
f 147/348/292 158/147/133 159/132/120
s 0
f 38/352/90 37/351/90 42/97/90
s 1
f 147/348/292 160/152/138 148/312/266
f 124/304/263 123/205/191 134/225/209
f 148/312/266 161/150/136 149/117/106
f 150/349/293 161/150/136 162/149/135
f 151/55/55 162/149/135 163/153/139
f 151/55/55 164/118/107 152/21/21
f 152/21/21 165/14/14 153/13/13
f 154/12/12 165/14/14 166/74/74
f 155/73/73 166/74/74 167/143/129
f 155/73/73 168/128/116 156/91/86
f 39/320/272 111/319/271 120/330/280
s 0
f 3/241/90 5/353/90 42/97/90
s 1
f 158/147/133 170/5/5 171/148/134
s 0
f 5/353/90 34/105/90 42/97/90
s 1
f 159/132/120 171/148/134 172/133/121
s 0
f 51/354/90 49/355/90 42/97/90
s 1
f 159/132/120 173/98/91 160/152/138
f 124/304/263 135/224/208 136/344/289
f 160/152/138 174/151/137 161/150/136
f 162/149/135 174/151/137 175/154/140
f 163/153/139 175/154/140 176/155/141
f 163/153/139 177/130/118 164/118/107
f 164/118/107 178/131/119 165/14/14
f 166/74/74 178/131/119 179/156/142
f 167/143/129 179/156/142 180/159/145
f 167/143/129 181/157/143 168/128/116
f 168/128/116 182/158/144 169/161/147
f 57/160/146 182/158/144 59/181/167
f 171/148/134 185/162/148 172/133/121
s 0
f 49/355/90 53/228/90 42/97/90
s 1
f 172/133/121 186/92/87 173/98/91
f 126/255/236 125/254/235 136/344/289
f 173/98/91 187/99/92 174/151/137
f 175/154/140 187/99/92 188/163/149
f 176/155/141 188/163/149 189/164/150
f 176/155/141 190/165/151 177/130/118
f 177/130/118 191/166/152 178/131/119
f 179/156/142 191/166/152 192/167/153
f 180/159/145 192/167/153 193/172/158
f 180/159/145 194/174/160 181/157/143
f 181/157/143 195/178/164 182/158/144
f 59/181/167 195/178/164 60/177/163
f 51/331/281 39/320/272 120/330/280
s 0
f 36/356/90 35/357/90 42/97/90
s 1
f 171/148/134 183/23/23 184/112/101
s 0
f 35/357/90 38/352/90 42/97/90
s 1
f 186/92/87 200/94/89 187/99/92
f 188/163/149 200/94/89 201/168/154
f 189/164/150 201/168/154 202/169/155
f 189/164/150 203/170/156 190/165/151
f 190/165/151 204/171/157 191/166/152
f 192/167/153 204/171/157 205/173/159
f 193/172/158 205/173/159 206/175/161
f 194/174/160 206/175/161 207/179/165
f 194/174/160 208/180/166 195/178/164
f 208/180/166 209/184/170 62/176/162
f 104/277/254 103/18/18 112/11/11
f 61/185/171 62/176/162 209/184/170
f 184/112/101 196/28/28 197/39/39
s 0
f 39/223/90 51/354/90 42/97/90
s 1
f 184/112/101 198/113/102 185/162/148
s 0
f 55/358/90 54/359/90 42/97/90
s 1
f 185/162/148 199/93/88 186/92/87
f 128/234/216 127/339/286 138/115/104
f 202/169/155 214/190/176 215/191/177
f 202/169/155 216/48/48 203/170/156
f 203/170/156 217/192/178 204/171/157
f 205/173/159 217/192/178 218/193/179
f 206/175/161 218/193/179 219/100/93
f 206/175/161 220/182/168 207/179/165
f 207/179/165 221/183/169 208/180/166
f 209/184/170 221/183/169 222/186/172
f 97/299/260 96/129/117 104/277/254
f 61/185/171 222/186/172 63/200/186
f 97/299/260 105/324/276 106/323/275
s 0
f 52/229/90 55/358/90 42/97/90
s 1
f 197/39/39 211/187/173 198/113/102
s 0
f 54/359/90 56/95/90 42/97/90
s 1
f 198/113/102 212/188/174 199/93/88
f 128/234/216 139/54/54 140/20/20
f 199/93/88 213/189/175 200/94/89
f 201/168/154 213/189/175 214/190/176
f 216/48/48 230/50/50 217/192/178
f 218/193/179 230/50/50 231/204/190
f 218/193/179 232/101/94 219/100/93
f 219/100/93 233/102/95 220/182/168
f 220/182/168 234/196/182 221/183/169
f 222/186/172 234/196/182 235/199/185
f 101/53/53 109/318/270 110/313/267
f 63/200/186 235/199/185 64/198/184
f 157/3/3 18/2/2 19/4/4
s 0
f 58/96/90 57/360/90 42/97/90
s 1
f 211/187/173 223/34/34 224/69/69
s 0
f 57/360/90 59/361/90 42/97/90
s 1
f 212/188/174 224/69/69 225/71/71
f 129/235/217 140/20/20 141/345/290
f 212/188/174 226/201/187 213/189/175
f 214/190/176 226/201/187 227/202/188
f 215/191/177 227/202/188 228/203/189
f 215/191/177 229/49/49 216/48/48
f 232/101/94 244/66/66 245/206/192
f 232/101/94 246/194/180 233/102/95
f 233/102/95 247/195/181 234/196/182
f 234/196/182 248/197/183 235/199/185
f 64/198/184 248/197/183 69/215/201
f 100/108/99 108/328/278 109/318/270
s 0
f 60/362/90 62/363/90 42/97/90
s 1
f 224/69/69 236/41/41 237/47/47
s 0
f 62/363/90 61/140/90 42/97/90
s 1
f 224/69/69 238/70/70 225/71/71
f 131/8/8 130/340/287 141/345/290
f 225/71/71 239/72/72 226/201/187
f 227/202/188 239/72/72 240/210/196
f 228/203/189 240/210/196 241/209/195
f 228/203/189 242/59/59 229/49/49
f 229/49/49 243/213/199 230/50/50
f 231/204/190 243/213/199 244/66/66
f 246/194/180 259/64/64 247/195/181
f 248/197/183 259/64/64 260/63/63
f 69/215/201 260/63/63 70/364/294
f 289/145/131 71/217/203 72/146/132
f 292/272/249 79/327/277 40/286/258
f 84/221/207 3/260/241 77/218/204
s 0
f 63/141/90 64/283/90 42/97/90
s 1
f 238/70/70 249/43/43 250/227/211
f 55/341/288 52/337/284 143/346/291
f 238/70/70 251/212/198 239/72/72
f 240/210/196 251/212/198 252/211/197
f 241/209/195 252/211/197 253/236/218
f 241/209/195 254/60/60 242/59/59
f 242/59/59 255/61/61 243/213/199
f 244/66/66 255/61/61 256/67/67
f 244/66/66 257/68/68 245/206/192
f 245/206/192 258/214/200 246/194/180
f 260/63/63 74/231/213 70/364/294
s 0
f 31/77/111 77/123/111 43/280/111
s 1
f 6/138/126 7/265/244 82/139/127
s 0
f 77/123/111 42/97/111 43/280/111
s 1
f 250/227/211 261/45/45 262/120/109
f 52/337/284 132/87/82 143/346/291
f 250/227/211 263/232/214 251/212/198
f 252/211/197 263/232/214 264/237/219
f 253/236/218 264/237/219 265/238/220
f 253/236/218 266/239/221 254/60/60
f 254/60/60 267/240/222 255/61/61
f 256/67/67 267/240/222 268/243/224
f 256/67/67 269/244/225 257/68/68
f 258/214/200 269/244/225 270/246/227
f 258/214/200 271/65/65 259/64/64
f 260/63/63 271/65/65 272/230/212
f 87/242/223 92/31/31 93/249/230
f 89/275/252 88/273/250 93/249/230
f 143/346/291 142/88/83 154/12/12
f 262/120/109 274/56/56 263/232/214
f 264/237/219 274/56/56 275/25/25
f 265/238/220 275/25/25 276/251/232
f 265/238/220 277/78/76 266/239/221
f 266/239/221 278/252/233 267/240/222
f 268/243/224 278/252/233 279/256/237
f 268/243/224 280/257/238 269/244/225
f 269/244/225 281/258/239 270/246/227
f 270/246/227 282/261/242 271/65/65
f 272/230/212 282/261/242 283/266/245
f 272/230/212 76/267/246 74/231/213
s 0
f 293/365/111 50/287/111 31/77/111
s 1
f 276/251/232 284/24/24 285/84/79
f 276/251/232 286/79/77 277/78/76
f 277/78/76 287/80/78 278/252/233
f 279/256/237 287/80/78 288/216/202
f 279/256/237 289/145/131 280/257/238
f 281/258/239 289/145/131 290/144/130
f 281/258/239 291/262/243 282/261/242
f 282/261/242 292/272/249 283/266/245
f 283/266/245 78/274/251 76/267/246
f 127/339/286 126/255/236 137/116/105
f 143/346/291 155/73/73 156/91/86
f 16/19/19 17/366/295 145/1/1
f 183/23/23 20/22/22 21/27/27
f 210/32/32 197/39/39 22/38/38
f 197/39/39 196/28/28 23/37/37
f 249/43/43 26/46/46 28/44/44
f 223/34/34 24/33/33 25/40/40
f 32/208/194 89/275/252 94/107/98
f 135/224/208 147/348/292 148/312/266
s 0
f 18/367/75 17/316/75 2/82/75
f 30/282/75 1/301/75 2/82/75
f 19/295/75 18/367/75 2/82/75
s 1
f 274/56/56 273/124/112 46/57/57
f 286/79/77 285/84/79 67/85/80
f 134/225/209 133/16/16 145/1/1
f 92/31/31 98/300/261 99/250/231
f 136/344/289 148/312/266 149/117/106
f 228/203/189 227/202/188 240/210/196
f 218/193/179 231/204/190 232/101/94
f 241/209/195 253/236/218 254/60/60
f 275/25/25 274/56/56 45/58/58
f 139/54/54 138/115/104 150/349/293
f 276/251/232 285/84/79 286/79/77
f 262/120/109 273/124/112 274/56/56
f 201/168/154 200/94/89 213/189/175
f 13/278/255 103/18/18 104/277/254
f 34/276/253 5/259/240 88/273/250
s 0
f 75/263/128 73/338/128 42/97/128
f 59/361/90 60/362/90 42/97/90
f 74/343/90 76/350/90 42/97/90
f 32/106/90 36/356/90 42/97/90
s 1
f 145/1/1 17/366/295 18/2/2
s 0
f 31/77/111 33/368/111 293/365/111
f 6/326/75 33/368/75 31/77/75
s 1
f 142/88/83 141/345/290 153/13/13
f 291/262/243 79/327/277 292/272/249
f 56/127/115 156/91/86 168/128/116
f 146/226/210 145/1/1 157/3/3
f 147/348/292 146/226/210 158/147/133
f 147/348/292 159/132/120 160/152/138
f 150/349/293 149/117/106 161/150/136
f 151/55/55 150/349/293 162/149/135
f 9/137/125 8/103/96 85/35/35
f 33/329/279 80/135/123 293/321/273
f 288/216/202 287/80/78 65/288/259
