# Blender 5.1.2
# www.blender.org
o moon_piece_01
v -0.264205 0.149285 -0.253080
v -0.216780 -0.179797 -0.016256
v -0.285019 0.019103 -0.175372
v 0.305016 0.150964 -0.024381
v -0.282951 0.073782 0.253080
v -0.262967 0.170784 -0.113954
v -0.245712 -0.174233 0.130531
v -0.305016 -0.077306 0.198787
v 0.268977 0.136704 0.028733
v 0.066600 0.179797 -0.139708
vn -0.0065 0.9669 0.2552
vn 0.3191 -0.5228 -0.7904
vn -0.9887 0.1495 -0.0143
vn -0.0389 0.9876 -0.1523
vn 0.5319 -0.8357 0.1365
vn -0.8880 -0.4316 -0.1587
vn 0.3862 -0.3614 0.8487
vt 2.408747 2.550746
vt 2.394759 2.293822
vt 2.639444 2.568774
vt 2.393311 2.593739
vt 2.407881 2.648134
vt 2.379313 2.331827
vt 2.806335 2.488045
vt 2.441078 2.482358
vt 2.781108 2.450865
vt 2.420826 2.379606
s 0
f 6/1/1 5/2/1 10/3/1
f 3/4/2 1/5/2 10/3/2
f 3/4/3 8/6/3 6/1/3
f 10/3/2 4/7/2 2/8/2
f 5/2/1 9/9/1 10/3/1
f 10/3/4 1/5/4 6/1/4
f 8/6/3 5/2/3 6/1/3
f 9/9/5 2/8/5 4/7/5
f 9/9/1 4/7/1 10/3/1
f 2/8/2 3/4/2 10/3/2
f 2/8/6 8/6/6 3/4/6
f 1/5/3 3/4/3 6/1/3
f 9/9/5 7/10/5 2/8/5
f 5/2/7 8/6/7 7/10/7
f 5/2/7 7/10/7 9/9/7
f 2/8/6 7/10/6 8/6/6
