# Blender 5.1.2
# www.blender.org
o moon_piece_07
v -0.338087 -0.241962 -0.047472
v 0.285796 -0.087227 -0.193863
v 0.311327 -0.045141 -0.187647
v 0.347604 0.296771 -0.082502
v -0.366518 -0.139009 0.106168
v 0.347741 0.288103 -0.074124
v 0.344840 0.252502 -0.040834
v -0.366346 -0.141143 0.103890
v 0.332177 -0.000784 -0.179162
v 0.365972 0.141549 -0.141361
v 0.352300 0.282464 -0.088886
v 0.361326 0.239566 -0.106413
v 0.366483 0.190558 -0.124792
v 0.350840 0.288103 -0.086495
v 0.332066 0.199020 0.006462
v 0.342676 0.239566 -0.029096
v -0.335342 -0.243844 -0.048992
v 0.309550 0.146231 0.049951
v 0.329126 0.190558 0.013649
v 0.278662 0.096295 0.087998
v 0.307065 0.141549 0.053651
v 0.241425 0.050848 0.119681
v -0.358912 -0.189371 0.044702
v 0.276284 0.093013 0.090387
v -0.364009 -0.162996 0.079311
v -0.338807 -0.240786 -0.044859
v 0.279170 -0.096101 -0.194777
v -0.349055 -0.220539 -0.004528
v -0.357410 -0.195947 0.035569
v -0.347252 -0.225177 -0.012583
v -0.268091 -0.006536 0.010551
v 0.259516 -0.123267 -0.184721
v 0.200082 0.010800 0.144851
v 0.236342 0.045415 0.123265
v 0.156695 -0.023668 0.163997
v 0.186472 -0.000784 0.151599
v 0.185169 -0.196701 -0.153729
v 0.256953 -0.126639 -0.183450
v 0.223275 -0.162996 -0.168669
v 0.186202 -0.195947 -0.154096
v 0.126236 -0.235396 -0.133854
v 0.144296 -0.225177 -0.139551
v 0.081879 -0.257411 -0.120602
v 0.098297 -0.250403 -0.125233
v 0.047929 -0.271053 -0.111231
v 0.020683 -0.278918 -0.104451
v 0.047049 -0.271382 -0.110994
v -0.001357 -0.284706 -0.099105
v -0.258832 -0.274396 -0.055379
v -0.290800 -0.263183 -0.052337
v -0.269164 -0.271382 -0.054249
v -0.332393 -0.245409 -0.049145
v -0.322464 -0.250403 -0.049726
v 0.318856 -0.029525 -0.184720
v 0.366518 0.158148 -0.135868
v 0.348184 0.045415 -0.168500
v 0.359485 0.093013 -0.155859
v 0.311471 -0.045141 -0.184720
v 0.286245 -0.087227 -0.184721
v 0.365707 0.141549 -0.135948
v 0.358541 0.093013 -0.136654
v 0.346676 0.045415 -0.137822
v 0.330226 -0.000784 -0.139442
v 0.309347 -0.045141 -0.141499
v 0.284243 -0.087227 -0.143971
v 0.255154 -0.126639 -0.146836
v 0.222361 -0.162996 -0.150066
v 0.186179 -0.195947 -0.153630
v 0.358541 0.239566 -0.087645
v 0.360903 0.190558 -0.087175
v 0.358541 0.141549 -0.087645
v 0.351480 0.093013 -0.089050
v 0.339787 0.045415 -0.091376
v 0.323574 -0.000784 -0.094600
v 0.302998 -0.045141 -0.098693
v 0.278257 -0.087227 -0.103615
v 0.249589 -0.126639 -0.109317
v 0.217270 -0.162996 -0.115746
v 0.181612 -0.195947 -0.122839
v 0.142958 -0.225177 -0.130527
v 0.112892 -0.052957 0.178030
v 0.346676 0.239566 -0.040277
v 0.348980 0.190558 -0.039578
v 0.346676 0.141549 -0.040277
v 0.339787 0.093013 -0.042367
v 0.328378 0.045415 -0.045828
v 0.312559 -0.000784 -0.050626
v 0.292483 -0.045141 -0.056716
v 0.268344 -0.087227 -0.064039
v 0.240373 -0.126639 -0.072524
v 0.208840 -0.162996 -0.082089
v 0.174048 -0.195947 -0.092643
v 0.136334 -0.225177 -0.104084
v 0.096059 -0.250403 -0.116301
v 0.332450 0.190558 0.006621
v 0.330226 0.141549 0.005700
v 0.323574 0.093013 0.002945
v 0.312559 0.045415 -0.001618
v 0.297287 -0.000784 -0.007944
v 0.277905 -0.045141 -0.015972
v 0.254599 -0.087227 -0.025626
v 0.227595 -0.126639 -0.036811
v 0.197151 -0.162996 -0.049421
v 0.163562 -0.195947 -0.063335
v 0.127150 -0.225177 -0.078417
v 0.088267 -0.250403 -0.094523
v 0.309347 0.141549 0.049843
v 0.302998 0.093013 0.046449
v 0.292483 0.045415 0.040829
v 0.277905 -0.000784 0.033036
v 0.259403 -0.045141 0.023147
v 0.237156 -0.087227 0.011256
v 0.211377 -0.126639 -0.002523
v 0.182316 -0.162996 -0.018057
v 0.150253 -0.195947 -0.035195
v 0.115495 -0.225177 -0.053773
v 0.078378 -0.250403 -0.073613
v 0.039259 -0.271382 -0.094523
v 0.278257 0.093013 0.087727
v 0.268344 0.045415 0.081103
v 0.254599 -0.000784 0.071919
v 0.237155 -0.045141 0.060264
v 0.216181 -0.087227 0.046249
v 0.191878 -0.126639 0.030010
v 0.164479 -0.162996 0.011703
v 0.134250 -0.195947 -0.008496
v 0.101480 -0.225177 -0.030391
v 0.066486 -0.250403 -0.053774
v 0.029605 -0.271382 -0.078417
v 0.240373 0.045415 0.118818
v 0.227594 -0.000784 0.108331
v 0.211377 -0.045141 0.095022
v 0.191878 -0.087227 0.079019
v 0.169283 -0.126639 0.060476
v 0.143811 -0.162996 0.039571
v 0.115707 -0.195947 0.016507
v 0.085241 -0.225177 -0.008495
v 0.052707 -0.250403 -0.035195
v 0.018419 -0.271382 -0.063335
v -0.017293 -0.287912 -0.092643
v 0.197151 -0.000784 0.141920
v 0.182316 -0.045141 0.127086
v 0.164479 -0.087227 0.109248
v 0.143811 -0.126639 0.088580
v 0.120510 -0.162996 0.065280
v 0.094802 -0.195947 0.039571
v 0.066934 -0.225177 0.011703
v 0.037174 -0.250403 -0.018057
v 0.005809 -0.271382 -0.049422
v -0.026859 -0.287912 -0.082089
v 0.150253 -0.045141 0.156147
v 0.134250 -0.087227 0.136647
v 0.115707 -0.126639 0.114052
v 0.094802 -0.162996 0.088580
v 0.071738 -0.195947 0.060476
v 0.046735 -0.225177 0.030010
v 0.020036 -0.250403 -0.002523
v -0.008104 -0.271382 -0.036811
v -0.037412 -0.287912 -0.072524
v 0.101480 -0.087227 0.160950
v 0.085241 -0.126639 0.136647
v 0.066934 -0.162996 0.109248
v 0.046735 -0.195947 0.079019
v 0.024839 -0.225177 0.046249
v 0.001457 -0.250403 0.011256
v -0.023186 -0.271382 -0.025626
v -0.048853 -0.287912 -0.064039
v 0.066486 -0.087227 0.181925
v 0.052708 -0.126639 0.156147
v 0.037174 -0.162996 0.127086
v 0.020036 -0.195947 0.095022
v 0.001457 -0.225177 0.060264
v -0.018382 -0.250403 0.023147
v -0.039292 -0.271382 -0.015972
v -0.061070 -0.287912 -0.056716
v 0.018419 -0.126639 0.172364
v 0.005809 -0.162996 0.141920
v -0.008104 -0.195947 0.108331
v -0.023186 -0.225177 0.071920
v -0.039292 -0.250403 0.033036
v -0.056266 -0.271382 -0.007944
v -0.073946 -0.287912 -0.050626
v -0.017293 -0.126639 0.185142
v -0.026859 -0.162996 0.153609
v -0.037412 -0.195947 0.118818
v -0.048853 -0.225177 0.081103
v -0.061070 -0.250403 0.040829
v -0.073946 -0.271382 -0.001618
v -0.087357 -0.287912 -0.045828
v -0.054086 -0.126639 0.194358
v -0.060515 -0.162996 0.162039
v -0.067608 -0.195947 0.126381
v -0.075297 -0.225177 0.087727
v -0.083507 -0.250403 0.046449
v -0.092161 -0.271382 0.002945
v -0.101174 -0.287912 -0.042367
v -0.094836 -0.162996 0.167130
v -0.098399 -0.195947 0.130949
v -0.102262 -0.225177 0.091727
v -0.106387 -0.250403 0.049843
v -0.110735 -0.271382 0.005700
v -0.115263 -0.287912 -0.040277
v -0.129490 -0.162996 0.168833
v -0.129490 -0.195947 0.132476
v -0.129490 -0.225177 0.093065
v -0.129490 -0.250403 0.050978
v -0.129490 -0.271382 0.006621
v -0.129490 -0.287912 -0.039578
v -0.164144 -0.162996 0.167130
v -0.160580 -0.195947 0.130949
v -0.156717 -0.225177 0.091727
v -0.152592 -0.250403 0.049843
v -0.148245 -0.271382 0.005700
v -0.143716 -0.287912 -0.040277
v -0.198465 -0.162996 0.162039
v -0.191372 -0.195947 0.126381
v -0.183683 -0.225177 0.087727
v -0.175472 -0.250403 0.046449
v -0.166819 -0.271382 0.002945
v -0.157806 -0.287912 -0.042367
v -0.232121 -0.162996 0.153609
v -0.221567 -0.195947 0.118818
v -0.210127 -0.225177 0.081103
v -0.197909 -0.250403 0.040829
v -0.185033 -0.271382 -0.001618
v -0.171622 -0.287912 -0.045828
v -0.264789 -0.162996 0.141920
v -0.250876 -0.195947 0.108331
v -0.235794 -0.225177 0.071920
v -0.219688 -0.250403 0.033036
v -0.202713 -0.271382 -0.007944
v -0.185033 -0.287912 -0.050626
v -0.019920 -0.288764 -0.094799
v 0.125428 -0.045141 0.174558
v -0.296154 -0.162996 0.127086
v -0.279015 -0.195947 0.095022
v -0.260437 -0.225177 0.060264
v -0.240597 -0.250403 0.023147
v -0.219688 -0.271382 -0.015972
v -0.197909 -0.287912 -0.056716
v -0.014871 -0.287912 -0.095910
v 0.069332 -0.077157 0.187248
v 0.026822 -0.097033 0.192649
v -0.325914 -0.162996 0.109248
v -0.305715 -0.195947 0.079019
v -0.283819 -0.225177 0.046250
v -0.260437 -0.250403 0.011255
v -0.235793 -0.271382 -0.025626
v -0.036086 -0.291181 -0.091317
v 0.048776 -0.087227 0.190301
v -0.014370 -0.113063 0.194777
v -0.054028 -0.126235 0.194652
v -0.353782 -0.162996 0.088580
v -0.330717 -0.195947 0.060476
v -0.305715 -0.225177 0.030010
v -0.279015 -0.250403 -0.002523
v -0.250876 -0.271382 -0.036811
v -0.050368 -0.293028 -0.088310
v -0.092429 -0.135905 0.191566
v -0.055496 -0.126639 0.194567
v -0.129490 -0.143278 0.186704
v -0.353782 -0.195947 0.039571
v -0.325914 -0.225177 0.011703
v -0.296154 -0.250403 -0.018057
v -0.264789 -0.271382 -0.049422
v -0.063296 -0.294424 -0.085654
v -0.165428 -0.148538 0.180171
v -0.200447 -0.151787 0.172003
v -0.234727 -0.153089 0.162201
v -0.344221 -0.225177 -0.008495
v -0.311687 -0.250403 -0.035195
v -0.075258 -0.295452 -0.083261
v -0.086553 -0.296164 -0.081063
v -0.268440 -0.152469 0.150734
v -0.301742 -0.149916 0.137541
v -0.334784 -0.145379 0.122524
v -0.097422 -0.296598 -0.079008
v -0.108074 -0.296771 -0.077055
v -0.118700 -0.296694 -0.075167
v -0.129490 -0.296362 -0.073310
v -0.140646 -0.295759 -0.071453
v -0.152396 -0.294858 -0.069561
v -0.165019 -0.293610 -0.067596
v -0.178868 -0.291948 -0.065510
v -0.194421 -0.289766 -0.063243
v -0.212279 -0.286526 -0.060817
v -0.206058 -0.287912 -0.061600
v -0.233236 -0.281331 -0.058305
vn 0.3933 -0.7063 0.5886
vn 0.4298 -0.6336 0.6432
vn 0.3647 -0.6336 0.6823
vn 0.9555 0.1722 0.2393
vn 0.9537 0.1467 0.2624
vn 0.9761 0.0979 0.1942
vn 0.9523 0.0979 0.2889
vn 0.9569 -0.0000 0.2903
vn 0.4050 -0.9039 0.1375
vn 0.4522 -0.8813 0.1372
vn 0.4366 -0.8813 0.1809
vn 0.9855 0.0857 0.1462
vn 0.9808 -0.0000 0.1951
vn 0.5905 -0.8030 0.0809
vn 0.6322 -0.7723 0.0623
vn 0.6231 -0.7723 0.1239
vn -0.1719 -0.2302 -0.9578
vn 0.6540 -0.7063 0.2709
vn 0.6243 -0.7063 0.3337
vn 0.5603 -0.7723 0.2995
vn 0.7147 -0.6336 0.2961
vn 0.6823 -0.6336 0.3647
vn 0.9894 -0.0490 0.1368
vn 0.9891 -0.0110 0.1467
vn 0.9761 -0.0979 0.1942
vn -0.4191 -0.8576 0.2980
vn -0.4413 -0.8575 0.2645
vn -0.4176 -0.8576 0.3003
vn -0.2264 0.6750 0.7022
vn 0.8028 -0.5954 0.0321
vn 0.8319 -0.5549 -0.0000
vn 0.8279 -0.5549 0.0815
vn -0.3342 -0.8813 0.3342
vn -0.3653 -0.8813 0.2998
vn -0.3219 -0.9039 0.2817
vn -0.2893 0.3093 -0.9059
vn -0.0000 -0.7063 0.7079
vn 0.0053 -0.6715 0.7409
vn -0.0690 -0.6716 0.7377
vn 0.6239 -0.4708 0.6239
vn 0.6534 -0.3821 0.6534
vn 0.6133 -0.4073 0.6767
vn 0.9033 -0.4272 0.0396
vn 0.9208 -0.3874 0.0452
vn 0.9197 -0.3821 0.0906
vn -0.2148 -0.6716 0.7091
vn -0.2709 -0.7063 0.6540
vn -0.2055 -0.7063 0.6774
vn -0.2966 -0.9164 0.2688
vn -0.2715 -0.9233 0.2715
vn -0.3520 -0.6716 0.6520
vn -0.3933 -0.7063 0.5886
vn -0.3337 -0.7063 0.6243
vn -0.4156 -0.6716 0.6135
vn -0.4492 -0.7723 0.4492
vn -0.4588 -0.7408 0.4907
vn -0.4608 -0.7831 0.4177
vn -0.4303 -0.8308 0.3531
vn -0.4339 -0.8415 0.3218
vn 0.9324 0.0491 0.3582
vn 0.9389 0.0750 0.3359
vn 0.8780 -0.4708 0.0865
vn 0.2968 -0.9233 0.2436
vn 0.3653 -0.8813 0.2998
vn 0.3342 -0.8813 0.3342
vn 0.4492 -0.7723 0.4492
vn 0.4030 -0.7723 0.4911
vn 0.3531 -0.8308 0.4303
vn 0.2998 -0.8813 0.3653
vn 0.3092 -0.8308 0.4628
vn 0.2626 -0.8813 0.3929
vn 0.2133 -0.9233 0.3193
vn 0.1512 -0.9700 0.1902
vn 0.1850 -0.9565 0.2255
vn 0.1621 -0.9565 0.2425
vn -0.4485 -0.8031 0.3923
vn -0.3936 -0.8308 0.3936
vn 0.2436 -0.9233 0.2968
vn 0.5597 -0.4708 0.6820
vn 0.5880 -0.4275 0.6867
vn 0.5172 -0.4962 0.6973
vn 0.7398 -0.2899 0.6072
vn 0.7642 -0.2429 0.5974
vn 0.7033 -0.3146 0.6375
vn -0.4030 -0.7723 0.4911
vn -0.4491 -0.7063 0.5472
vn -0.4682 -0.7169 0.5166
vn 0.3530 -0.7723 0.5282
vn 0.2995 -0.7723 0.5603
vn 0.2624 -0.8308 0.4909
vn -0.3092 -0.8308 0.4628
vn -0.3530 -0.7723 0.5282
vn 0.2228 -0.8813 0.4168
vn 0.1810 -0.9233 0.3387
vn 0.4622 -0.5549 0.6917
vn 0.3922 -0.5549 0.7337
vn 0.1325 -0.9700 0.2037
vn 0.1375 -0.9565 0.2572
vn 0.2063 -0.9565 0.2063
vn 0.2715 -0.9233 0.2715
vn 0.1686 -0.9700 0.1750
vn 0.3337 -0.7063 0.6243
vn 0.2961 -0.6336 0.7147
vn -0.1239 -0.7723 0.6231
vn -0.1844 -0.7723 0.6080
vn -0.1616 -0.8308 0.5327
vn -0.4414 -0.8574 0.2645
vn 0.2709 -0.7063 0.6540
vn 0.2431 -0.7723 0.5869
vn 0.0286 -0.9565 0.2903
vn -0.0000 -0.9565 0.2917
vn 0.0013 -0.9700 0.2430
vn 0.2130 -0.8308 0.5143
vn 0.1809 -0.8813 0.4366
vn 0.1469 -0.9233 0.3548
vn 0.5886 -0.7063 0.3933
vn 0.5472 -0.7063 0.4491
vn 0.4911 -0.7723 0.4030
vn 0.9239 -0.0000 0.3827
vn 0.9037 -0.0232 0.4274
vn 0.2255 -0.9565 0.1850
vn 0.2055 -0.7063 0.6774
vn 0.1844 -0.7723 0.6080
vn 0.1616 -0.8308 0.5327
vn 0.1372 -0.8813 0.4522
vn 0.1116 -0.9565 0.2695
vn 0.1115 -0.9233 0.3675
vn 0.0694 -0.7063 0.7045
vn 0.0915 -0.9700 0.2251
vn 0.0847 -0.9565 0.2791
vn 0.1381 -0.7063 0.6943
vn 0.1239 -0.7723 0.6231
vn 0.2246 -0.6336 0.7403
vn 0.1125 -0.9700 0.2154
vn 0.1086 -0.8308 0.5459
vn 0.0749 -0.9233 0.3766
vn 0.0569 -0.9565 0.2861
vn 0.0922 -0.8813 0.4635
vn 0.2436 -0.5957 0.7654
vn 0.0795 -0.6715 0.7367
vn 0.1098 -0.6633 0.7402
vn 0.8358 -0.1467 0.5290
vn 0.8650 -0.1948 0.4624
vn 0.8514 -0.1215 0.5103
vn 0.0623 -0.7723 0.6322
vn 0.0546 -0.8308 0.5539
vn 0.0463 -0.8813 0.4703
vn -0.0000 -0.7723 0.6353
vn -0.0000 -0.8308 0.5566
vn -0.0000 -0.8813 0.4726
vn -0.0000 -0.9233 0.3840
vn -0.0694 -0.7063 0.7045
vn 0.7336 -0.4708 0.4902
vn 0.6820 -0.4708 0.5597
vn 0.6431 -0.5549 0.5278
vn 0.1509 -0.6336 0.7588
vn 0.3189 -0.5957 0.7372
vn 0.3477 -0.5818 0.7352
vn 0.0376 -0.9233 0.3821
vn 0.0244 -0.9700 0.2418
vn -0.1381 -0.7063 0.6943
vn -0.0623 -0.7723 0.6322
vn -0.1086 -0.8308 0.5459
vn -0.0463 -0.8813 0.4703
vn -0.0546 -0.8308 0.5539
vn -0.0376 -0.9233 0.3821
vn -0.0922 -0.8813 0.4635
vn -0.0286 -0.9565 0.2903
vn -0.0569 -0.9565 0.2861
vn -0.0447 -0.9700 0.2388
vn -0.0749 -0.9233 0.3766
vn -0.1426 -0.6716 0.7271
vn -0.0218 -0.9700 0.2420
vn -0.0847 -0.9565 0.2791
vn -0.1116 -0.9565 0.2695
vn -0.0891 -0.9700 0.2261
vn -0.1809 -0.8813 0.4366
vn -0.2130 -0.8308 0.5143
vn -0.2624 -0.8308 0.4909
vn -0.1469 -0.9233 0.3548
vn -0.1810 -0.9233 0.3387
vn -0.2228 -0.8813 0.4168
vn -0.1372 -0.8813 0.4522
vn -0.1115 -0.9233 0.3675
vn -0.0672 -0.9700 0.2335
vn -0.2431 -0.7723 0.5869
vn 0.5278 -0.5549 0.6431
vn 0.4902 -0.5140 0.7039
vn -0.4416 -0.6711 0.5955
vn -0.4495 -0.6713 0.5893
vn -0.2995 -0.7723 0.5603
vn 0.1658 -0.5957 0.7859
vn -0.2626 -0.8813 0.3929
vn -0.2133 -0.9233 0.3193
vn -0.1628 -0.9485 0.2717
vn -0.1375 -0.9565 0.2572
vn -0.1807 -0.9415 0.2844
vn 0.4175 -0.5140 0.7493
vn -0.1102 -0.9700 0.2166
vn -0.2436 -0.9233 0.2968
vn -0.2069 -0.9415 0.2660
vn 0.7143 -0.3821 0.5862
vn 0.6806 -0.3368 0.6507
vn 0.7958 -0.2899 0.5317
vn 0.8155 -0.1948 0.5449
vn 0.7837 -0.2190 0.5812
vn -0.2998 -0.8813 0.3653
vn -0.3531 -0.8308 0.4303
vn -0.2313 -0.9415 0.2451
vn 0.8777 -0.0979 0.4691
vn 0.9194 -0.0979 0.3808
vn 0.8926 -0.0491 0.4482
vn 0.0697 -0.9700 0.2328
vn -0.8511 0.3496 -0.3917
vn -0.8511 0.3496 -0.3918
vn 0.4303 -0.8308 0.3531
vn 0.3936 -0.8308 0.3936
vn 0.5883 -0.5549 0.5883
vn -0.2848 -0.6716 0.6840
vn 0.6917 -0.5549 0.4622
vn 0.5980 -0.6336 0.4908
vn 0.5005 -0.7063 0.5005
vn 0.5470 -0.6336 0.5470
vn 0.4908 -0.6336 0.5980
vn 0.4491 -0.7063 0.5472
vn -0.3903 -0.8740 0.2894
vn 0.8786 -0.4757 -0.0432
vn 0.8823 -0.4708 -0.0000
vn 0.8285 -0.5586 -0.0407
vn 0.9626 0.1466 0.2279
vn 0.9541 0.1806 0.2390
vn 0.9780 -0.2030 0.0480
vn 0.9525 -0.2899 0.0938
vn 0.9538 -0.2966 0.0469
vn 0.7699 -0.6336 0.0758
vn 0.7138 -0.6995 0.0351
vn 0.7045 -0.7063 0.0694
vn 0.6418 -0.7663 0.0315
vn 0.9930 -0.1073 0.0488
vn 0.9904 -0.0979 0.0975
vn 0.9761 -0.1948 0.0961
vn 0.8653 -0.4708 0.1721
vn 0.8160 -0.5549 0.1623
vn 0.7588 -0.6336 0.1509
vn 0.6943 -0.7063 0.1381
vn 0.5459 -0.8308 0.1086
vn 0.5602 -0.8242 0.0831
vn 0.5006 -0.8576 0.1182
vn 0.9620 -0.1948 0.1914
vn 0.9387 -0.2899 0.1867
vn 0.9063 -0.3821 0.1803
vn 0.7403 -0.6336 0.2246
vn 0.6774 -0.7063 0.2055
vn 0.6080 -0.7723 0.1844
vn 0.5327 -0.8308 0.1616
vn 0.4704 -0.8745 0.1178
vn 0.9523 -0.0979 0.2889
vn 0.9386 -0.1948 0.2847
vn 0.9159 -0.2899 0.2778
vn 0.8843 -0.3821 0.2683
vn 0.8443 -0.4708 0.2561
vn 0.7961 -0.5549 0.2415
vn 0.5869 -0.7723 0.2431
vn 0.5143 -0.8308 0.2130
vn 0.3901 -0.9039 0.1755
vn 0.9062 -0.1948 0.3754
vn 0.8842 -0.2899 0.3663
vn 0.8538 -0.3821 0.3536
vn 0.8151 -0.4708 0.3376
vn 0.7686 -0.5549 0.3184
vn 0.4909 -0.8308 0.2624
vn 0.4168 -0.8813 0.2228
vn 0.3386 -0.9233 0.1810
vn 0.2928 -0.9415 0.1669
vn 0.3633 -0.9157 0.1719
vn 0.8441 -0.2899 0.4512
vn 0.8150 -0.3821 0.4356
vn 0.7781 -0.4708 0.4159
vn 0.7337 -0.5549 0.3922
vn 0.3193 -0.9233 0.2133
vn 0.2756 -0.9415 0.1940
vn 0.7684 -0.3821 0.5134
vn 0.6432 -0.6336 0.4298
vn 0.5282 -0.7723 0.3530
vn 0.4628 -0.8308 0.3092
vn 0.3929 -0.8813 0.2626
vn 0.1845 -0.9700 0.1582
vn 0.2535 -0.9489 0.1880
vn 0.8026 -0.5952 -0.0394
vn 0.7788 -0.6261 0.0383
vn 0.0473 -0.9700 0.2383
vn -0.1719 -0.2303 -0.9578
vn -0.1719 -0.2305 -0.9578
vn 0.9410 0.2427 0.2357
vt 0.343750 0.250000
vt 0.343750 0.281250
vt 0.328125 0.281250
vt 0.463756 0.562564
vt 0.453125 0.539574
vt 0.468750 0.531250
vt 0.453125 0.531250
vt 0.453125 0.500000
vt 0.453125 0.145814
vt 0.453125 0.156250
vt 0.437500 0.156250
vt 0.474820 0.531286
vt 0.468750 0.500000
vt 0.484375 0.217946
vt 0.484375 0.218750
vt 0.468750 0.218750
vt 2.605121 2.443812
vt 2.589693 2.440069
vt 2.565382 2.434618
vt 0.437500 0.250000
vt 0.421875 0.250000
vt 0.421875 0.218750
vt 0.437500 0.281250
vt 0.421875 0.281250
vt 0.484375 0.479330
vt 0.480862 0.500000
vt 0.468750 0.468750
vt 0.093750 0.168161
vt 0.092775 0.164332
vt 0.093750 0.162432
vt 2.483965 2.419388
vt 2.475129 2.418013
vt 2.546336 2.430654
vt 2.678442 2.248505
vt 2.700330 2.255898
vt 2.402979 2.363310
vt 0.500000 0.283920
vt 0.500000 0.312500
vt 0.484375 0.312500
vt 2.785706 2.309097
vt 2.805588 2.333140
vt 0.125000 0.156250
vt 0.109375 0.156250
vt 0.109375 0.137211
vt 2.823167 2.496109
vt 2.813842 2.500000
vt 2.746935 2.488764
vt 2.720261 2.478306
vt 2.679008 2.464393
vt 0.250000 0.250000
vt 0.250000 0.266949
vt 0.234375 0.262425
vt 0.375000 0.343750
vt 0.375000 0.375000
vt 0.370034 0.374882
vt 2.772304 2.500000
vt 2.770510 2.499111
vt 0.500000 0.354748
vt 0.498084 0.374942
vt 0.484375 0.375000
vt 2.786062 2.507040
vt 0.203125 0.258510
vt 0.187500 0.250000
vt 0.203125 0.250000
vt 2.730700 2.269300
vt 2.756082 2.284410
vt 0.119580 0.124877
vt 0.125000 0.125000
vt 2.379423 2.274417
vt 2.402735 2.265182
vt 2.832031 2.399279
vt 2.834062 2.422583
vt 2.830516 2.391063
vt 0.171875 0.261239
vt 0.156250 0.250000
vt 0.171875 0.250000
vt 2.821031 2.361141
vt 2.823089 2.366172
vt 0.156250 0.265142
vt 2.525943 2.236600
vt 2.551796 2.234499
vt 0.125000 0.218750
vt 0.125000 0.224982
vt 0.122291 0.218642
vt 2.552823 2.234439
vt 0.109375 0.187500
vt 0.106461 0.187393
vt 2.580584 2.234352
vt 0.437500 0.505391
vt 0.449328 0.531278
vt 2.609418 2.235841
vt 0.484375 0.343750
vt 2.426334 2.257155
vt 2.624786 2.237485
vt 0.390625 0.125000
vt 0.390625 0.156250
vt 0.375000 0.156250
vt 0.375000 0.218750
vt 0.359375 0.218750
vt 0.359375 0.187500
vt 0.359375 0.156250
vt 0.343750 0.187500
vt 2.450330 2.250293
vt 2.474843 2.244576
vt 0.343750 0.156250
vt 0.343750 0.125000
vt 2.500000 2.240003
vt 0.359375 0.080344
vt 0.359375 0.093750
vt 0.343750 0.093750
vt 0.109375 0.192454
vt 0.125000 0.187500
vt 2.334080 2.296378
vt 2.356294 2.284929
vt 0.359375 0.125000
vt 0.359375 0.343750
vt 0.359375 0.358877
vt 0.348213 0.343620
vt 0.390625 0.406250
vt 0.390625 0.409813
vt 0.388630 0.406202
vt 0.140625 0.218750
vt 0.140625 0.250000
vt 0.134410 0.249816
vt 0.343750 0.218750
vt 0.328125 0.218750
vt 0.328125 0.187500
vt 0.156250 0.187500
vt 0.156250 0.218750
vt 0.328125 0.156250
vt 0.328125 0.125000
vt 0.343750 0.312500
vt 0.328125 0.312500
vt 0.343750 0.076681
vt 0.328125 0.093750
vt 0.375000 0.093750
vt 0.375000 0.125000
vt 0.375000 0.085187
vt 0.328125 0.250000
vt 0.312500 0.281250
vt 0.218750 0.218750
vt 0.203125 0.218750
vt 0.203125 0.187500
vt 0.092620 0.166658
vt 0.312500 0.250000
vt 0.312500 0.218750
vt 0.265625 0.093750
vt 0.250000 0.093750
vt 0.250000 0.071599
vt 0.312500 0.187500
vt 0.312500 0.156250
vt 0.312500 0.125000
vt 0.406250 0.250000
vt 0.390625 0.250000
vt 0.390625 0.218750
vt 0.437500 0.500000
vt 0.435027 0.500000
vt 2.721173 2.264576
vt 0.390625 0.093750
vt 0.296875 0.250000
vt 0.296875 0.218750
vt 0.296875 0.187500
vt 0.296875 0.156250
vt 0.312500 0.093750
vt 0.296875 0.125000
vt 0.265625 0.250000
vt 0.312500 0.072116
vt 0.296875 0.093750
vt 0.281250 0.250000
vt 0.281250 0.218750
vt 0.296875 0.281250
vt 0.328125 0.073986
vt 0.281250 0.187500
vt 2.807328 2.335730
vt 0.281250 0.125000
vt 0.281250 0.093750
vt 0.281250 0.156250
vt 0.296875 0.292011
vt 0.265625 0.273290
vt 0.280664 0.281223
vt 2.843571 2.445185
vt 2.847181 2.458050
vt 0.406250 0.439611
vt 0.421875 0.437500
vt 0.420456 0.468738
vt 2.500000 2.422013
vt 2.492191 2.420713
vt 2.530056 2.427439
vt 0.265625 0.218750
vt 0.265625 0.187500
vt 0.265625 0.156250
vt 0.250000 0.218750
vt 0.250000 0.187500
vt 0.250000 0.156250
vt 0.250000 0.125000
vt 0.234375 0.250000
vt 0.406250 0.343750
vt 0.390625 0.343750
vt 0.390625 0.312500
vt 0.281250 0.281250
vt 0.312500 0.304729
vt 0.320622 0.312323
vt 0.265625 0.125000
vt 0.265625 0.070728
vt 0.218750 0.250000
vt 0.234375 0.218750
vt 0.218750 0.187500
vt 0.234375 0.156250
vt 0.234375 0.187500
vt 0.234375 0.125000
vt 0.218750 0.156250
vt 0.234375 0.093750
vt 0.218750 0.093750
vt 0.218750 0.075544
vt 0.218750 0.125000
vt 0.218750 0.259630
vt 0.234375 0.073179
vt 0.203125 0.093750
vt 0.187500 0.093750
vt 0.187500 0.083177
vt 0.187500 0.156250
vt 0.187500 0.187500
vt 0.171875 0.187500
vt 0.187500 0.125000
vt 0.171875 0.125000
vt 0.171875 0.156250
vt 0.203125 0.156250
vt 0.203125 0.125000
vt 0.203125 0.078816
vt 0.187500 0.218750
vt 0.359375 0.312500
vt 0.343750 0.337951
vt 0.141182 0.270595
vt 0.140625 0.268785
vt 0.171875 0.218750
vt 0.281250 0.281570
vt 0.156250 0.156250
vt 0.156250 0.125000
vt 0.161452 0.093655
vt 0.171875 0.093750
vt 0.156250 0.096368
vt 0.328125 0.319973
vt 0.171875 0.088896
vt 0.140625 0.125000
vt 0.140625 0.106190
vt 0.390625 0.375000
vt 0.375000 0.382831
vt 0.406250 0.406250
vt 0.406250 0.437500
vt 0.405176 0.437481
vt 0.140625 0.156250
vt 0.140625 0.187500
vt 0.125000 0.119306
vt 0.421875 0.468750
vt 0.437500 0.468750
vt 0.421875 0.471732
vt 0.296875 0.070981
vt 2.340456 2.345798
vt 2.339404 2.339404
vt 2.335837 2.315178
vt 2.334201 2.297973
vt 2.353982 2.403926
vt 2.353478 2.402097
vt 2.347566 2.379503
vt 2.346305 2.373865
vt 0.390625 0.187500
vt 0.375000 0.187500
vt 2.759640 2.286919
vt 2.784042 2.307425
vt 0.375000 0.312500
vt 0.187500 0.259043
vt 0.406250 0.312500
vt 0.390625 0.281250
vt 0.375000 0.250000
vt 0.375000 0.281250
vt 0.359375 0.281250
vt 0.359375 0.250000
vt 0.097151 0.156141
vt 0.501057 0.343710
vt 0.500000 0.343750
vt 0.503503 0.312377
vt 2.669667 2.246075
vt 0.468750 0.558873
vt 0.467896 0.562515
vt 0.490617 0.437430
vt 0.484375 0.406250
vt 0.494598 0.406154
vt 0.484375 0.281250
vt 0.492763 0.249809
vt 0.484375 0.250000
vt 0.484609 0.218739
vt 2.639175 2.239622
vt 0.486107 0.468735
vt 0.484375 0.468750
vt 0.484375 0.437500
vt 0.468750 0.343750
vt 0.468750 0.312500
vt 0.468750 0.281250
vt 0.468750 0.250000
vt 0.468750 0.187500
vt 0.473977 0.187342
vt 0.468750 0.174843
vt 0.468750 0.437500
vt 0.468750 0.406250
vt 0.468750 0.375000
vt 0.453125 0.281250
vt 0.453125 0.250000
vt 0.453125 0.218750
vt 0.453125 0.187500
vt 0.459344 0.156097
vt 0.453125 0.468750
vt 0.453125 0.437500
vt 0.453125 0.406250
vt 0.453125 0.375000
vt 0.453125 0.343750
vt 0.453125 0.312500
vt 0.437500 0.218750
vt 0.437500 0.187500
vt 0.437500 0.125489
vt 0.437500 0.437500
vt 0.437500 0.406250
vt 0.437500 0.375000
vt 0.437500 0.343750
vt 0.437500 0.312500
vt 0.421875 0.187500
vt 0.421875 0.156250
vt 0.421875 0.125000
vt 0.421875 0.110754
vt 0.437038 0.124984
vt 0.421875 0.406250
vt 0.421875 0.375000
vt 0.421875 0.343750
vt 0.421875 0.312500
vt 0.406250 0.125000
vt 0.406250 0.099807
vt 0.406250 0.375000
vt 0.406250 0.281250
vt 0.406250 0.218750
vt 0.406250 0.187500
vt 2.387083 2.407331
vt 0.406250 0.156250
vt 2.846823 2.469648
vt 2.842282 2.479797
vt 2.834371 2.488646
vt 0.390625 0.091522
vt 0.395084 0.093663
vt 2.833966 2.428447
vt 2.837253 2.432916
vt 2.836231 2.431242
vt 0.503916 0.305334
vt 2.808572 2.502049
vt 2.790700 2.506400
vt 2.355904 2.404990
vt 2.847205 2.465803
vt 0.499477 0.281226
vt 0.281250 0.070525
vt 2.576699 2.437055
vt 2.555385 2.432513
vt 2.537962 2.428978
vt 2.514991 2.424634
vt 2.507553 2.423312
vt 2.522447 2.426001
vt 2.580233 2.437832
vt 2.427377 2.411509
vt 2.454548 2.414966
vt 2.442047 2.413268
vt 2.409461 2.409461
vt 2.402228 2.408670
vt 2.364918 2.405504
vt 2.357968 2.405097
vt 2.465435 2.416553
vt 2.446402 2.413816
vt 2.624193 2.448558
vt 2.623577 2.448392
vt 2.720984 2.478563
vt 2.691650 2.468381
vt 2.659451 2.458359
vt 2.647958 2.455117
vt 0.466409 0.568227
s 1
f 162/1/1 161/2/2 169/3/3
f 6/4/4 7/5/5 69/6/6
f 69/6/6 82/7/7 83/8/8
f 43/9/9 94/10/10 106/11/11
f 12/12/12 69/6/6 70/13/13
f 37/14/14 68/15/15 79/16/16
s 0
f 46/17/17 48/18/17 249/19/17
s 1
f 103/20/18 114/21/19 115/22/20
f 103/20/18 102/23/21 113/24/22
f 55/25/23 13/26/24 71/27/25
f 26/28/26 17/29/27 52/30/28
s 0
f 282/31/17 283/32/17 266/33/17
f 234/34/29 35/35/29 31/36/29
s 1
f 32/37/30 59/38/31 65/39/32
s 0
f 20/40/29 21/41/29 31/36/29
s 1
f 264/42/33 271/43/34 50/44/35
s 0
f 9/45/36 54/46/36 31/36/36
f 39/47/17 37/48/17 41/49/17
s 1
f 203/50/37 261/51/38 267/52/39
f 82/7/7 69/6/6 7/5/5
f 142/53/40 141/54/41 36/55/42
s 0
f 32/56/17 38/57/17 39/47/17
s 1
f 54/58/43 9/59/44 63/60/45
s 0
f 27/61/17 32/56/17 39/47/17
s 1
f 269/62/46 227/63/47 221/64/48
s 0
f 33/65/29 34/66/29 31/36/29
s 1
f 51/67/49 265/68/50 50/44/35
s 0
f 275/69/29 274/70/29 31/36/29
f 7/71/29 6/72/29 31/36/29
f 16/73/29 7/71/29 31/36/29
s 1
f 275/74/51 244/75/52 235/76/53
s 0
f 19/77/29 15/78/29 31/36/29
s 1
f 275/74/51 276/79/54 244/75/52
s 0
f 259/80/29 260/81/29 31/36/29
s 1
f 262/82/55 23/83/56 29/84/57
s 0
f 260/81/29 252/85/29 31/36/29
s 1
f 270/86/58 30/87/59 26/28/26
s 0
f 252/85/29 251/88/29 31/36/29
s 1
f 15/89/60 83/8/8 16/90/61
s 0
f 251/88/29 243/91/29 31/36/29
s 1
f 54/58/43 63/60/45 64/92/62
s 0
f 274/70/29 269/93/29 31/36/29
f 243/91/29 250/94/29 31/36/29
s 1
f 139/95/63 138/96/64 148/97/65
f 146/98/66 155/99/67 156/100/68
f 157/101/69 156/100/68 164/102/70
s 0
f 268/103/29 267/104/29 31/36/29
s 1
f 157/101/69 165/105/71 166/106/72
s 0
f 267/104/29 261/107/29 31/36/29
s 1
f 258/108/73 159/109/74 167/110/75
f 28/111/76 263/112/77 29/84/57
s 0
f 31/36/29 5/113/29 276/114/29
s 1
f 159/109/74 158/115/78 166/106/72
f 151/116/79 35/117/80 234/118/81
f 130/119/82 22/120/83 34/121/84
f 254/122/85 253/123/86 25/124/87
f 163/125/88 171/126/89 172/127/90
f 165/105/71 164/102/70 172/127/90
f 246/128/91 245/129/92 254/122/85
f 165/105/71 173/130/93 174/131/94
f 160/132/95 168/133/96 169/3/3
f 167/110/75 166/106/72 174/131/94
f 253/123/86 244/75/52 276/79/54
f 266/134/97 167/110/75 175/135/98
f 150/136/99 149/137/100 158/115/78
f 249/138/101 150/136/99 159/109/74
f 170/139/102 169/3/3 176/140/103
f 216/141/104 222/142/105 223/143/106
f 26/28/26 1/144/107 17/29/27
f 170/139/102 177/145/108 178/146/109
f 202/147/110 208/148/111 280/149/112
f 171/126/89 178/146/109 179/150/113
f 265/68/50 264/42/33 50/44/35
f 173/130/93 180/151/114 181/152/115
f 125/153/116 135/154/117 136/155/118
f 173/130/93 172/127/90 179/150/113
f 95/156/119 15/89/60 19/157/120
s 0
f 35/35/29 36/158/29 31/36/29
s 1
f 140/159/121 139/95/63 149/137/100
f 177/145/108 184/160/122 185/161/123
f 178/146/109 185/161/123 186/162/124
f 180/151/114 179/150/113 186/162/124
f 181/152/115 180/151/114 187/163/125
f 182/164/126 181/152/115 188/165/127
f 197/166/128 261/51/38 203/50/37
f 273/167/129 182/164/126 189/168/130
f 184/160/122 191/169/131 192/170/132
f 177/145/108 176/140/103 183/171/133
f 272/172/134 175/135/98 182/164/126
f 187/163/125 186/162/124 193/173/135
s 0
f 18/174/29 19/77/29 31/36/29
s 1
f 188/165/127 195/175/136 196/176/137
f 35/117/80 142/53/40 36/55/42
f 162/1/1 170/139/102 171/126/89
f 187/163/125 194/177/138 195/175/136
f 176/140/103 251/178/139 183/171/133
f 259/179/140 191/169/131 260/180/141
s 0
f 261/107/29 259/80/29 31/36/29
s 1
f 174/131/94 181/152/115 182/164/126
s 0
f 12/181/36 13/182/36 31/36/36
s 1
f 20/183/142 108/184/143 21/185/144
s 0
f 280/186/17 281/187/17 273/188/17
s 1
f 191/169/131 197/166/128 198/189/145
f 192/170/132 198/189/145 199/190/146
f 194/177/138 193/173/135 199/190/146
f 195/175/136 194/177/138 200/191/147
f 197/166/128 203/50/37 204/192/148
f 198/189/145 204/192/148 205/193/149
f 200/191/147 206/194/150 207/195/151
f 203/50/37 267/52/39 209/196/152
f 200/191/147 199/190/146 205/193/149
f 122/197/153 132/198/154 133/199/155
f 184/160/122 183/171/133 190/200/156
f 243/201/157 169/3/3 250/202/158
f 185/161/123 192/170/132 193/173/135
f 195/175/136 201/203/159 202/147/110
f 196/176/137 202/147/110 279/204/160
f 209/196/152 215/205/161 216/141/104
f 210/206/162 216/141/104 217/207/163
f 212/208/164 211/209/165 217/207/163
f 213/210/166 212/208/164 218/211/167
s 0
f 27/61/17 39/47/17 41/49/17
s 1
f 214/212/168 220/213/169 282/214/170
f 213/210/166 219/215/171 220/213/169
f 202/147/110 201/203/159 207/195/151
f 209/196/152 268/216/172 215/205/161
f 203/50/37 209/196/152 210/206/162
f 204/192/148 210/206/162 211/209/165
f 206/194/150 205/193/149 211/209/165
f 206/194/150 212/208/164 213/210/166
f 208/148/111 207/195/151 213/210/166
f 208/148/111 214/212/168 281/217/173
f 226/218/174 232/219/175 284/220/176
f 230/221/177 229/222/178 237/223/179
s 0
f 21/41/29 18/174/29 31/36/29
s 1
f 232/219/175 231/224/180 239/225/181
f 215/205/161 221/64/48 222/142/105
f 230/221/177 238/226/182 239/225/181
f 218/211/167 217/207/163 223/143/106
f 219/215/171 218/211/167 224/227/183
f 220/213/169 219/215/171 225/228/184
f 220/213/169 226/218/174 283/229/185
f 221/64/48 227/63/47 228/230/186
f 223/143/106 222/142/105 228/230/186
f 224/227/183 223/143/106 229/222/178
f 224/227/183 230/221/177 231/224/180
f 225/228/184 231/224/180 232/219/175
f 152/231/187 151/116/79 234/118/81
f 160/132/95 152/231/187 81/232/188
f 276/79/54 5/233/189 8/234/190
f 215/205/161 268/216/172 269/62/46
f 227/63/47 235/76/53 236/235/191
f 228/230/186 236/235/191 237/223/179
f 183/171/133 251/178/139 252/236/192
f 235/76/53 244/75/52 245/129/92
f 236/235/191 245/129/92 246/128/91
f 238/226/182 237/223/179 246/128/91
f 238/226/182 247/237/193 248/238/194
f 287/239/195 240/240/196 286/241/197
f 240/240/196 239/225/181 286/241/197
f 160/132/95 81/232/188 242/242/198
f 232/219/175 240/240/196 285/243/199
f 248/238/194 257/244/200 288/245/201
f 141/54/41 131/246/202 33/247/203
f 131/246/202 130/119/82 34/121/84
f 130/119/82 120/248/204 22/120/83
f 120/248/204 119/249/205 24/250/206
f 254/122/85 262/82/55 263/112/77
f 256/251/207 255/252/208 263/112/77
f 256/251/207 264/42/33 265/68/50
f 257/244/200 265/68/50 49/253/209
f 107/254/210 96/255/211 18/256/212
f 244/75/52 253/123/86 254/122/85
f 96/255/211 95/156/119 19/157/120
f 277/257/213 189/168/130 196/176/137
f 262/82/55 254/122/85 23/83/56
f 247/237/193 246/128/91 255/252/208
f 264/42/33 263/112/77 270/86/58
f 247/237/193 256/251/207 257/244/200
s 0
f 29/258/214 23/259/214 31/36/214
f 23/259/214 25/260/214 31/36/214
f 8/261/215 5/113/215 31/36/215
f 31/36/214 1/262/214 26/263/214
f 26/263/214 30/264/214 31/36/214
f 30/264/214 28/265/214 31/36/214
f 28/265/214 29/258/214 31/36/214
f 31/36/36 54/46/36 27/61/36
s 1
f 138/96/64 137/266/216 147/267/217
s 0
f 22/268/29 24/269/29 31/36/29
s 1
f 132/198/154 142/53/40 143/270/218
f 131/246/202 141/54/41 142/53/40
f 274/271/219 235/76/53 227/63/47
f 123/272/220 133/199/155 134/273/221
f 145/274/222 144/275/223 153/276/224
f 145/274/222 154/277/225 155/99/67
f 53/278/226 271/43/34 52/30/28
f 148/97/65 157/101/69 158/115/78
f 3/279/227 54/58/43 58/280/228
f 3/279/227 59/38/31 2/281/229
f 143/270/218 152/231/187 153/276/224
s 0
f 81/282/29 234/34/29 31/36/29
s 1
f 11/283/230 14/284/231 6/4/4
f 57/285/232 62/286/233 56/287/234
f 56/287/234 63/60/45 9/59/44
f 148/97/65 147/267/217 156/100/68
f 58/280/228 65/39/32 59/38/31
f 66/288/235 32/37/30 65/39/32
f 39/289/236 66/288/235 67/290/237
f 40/291/238 67/290/237 68/15/15
f 37/14/14 40/291/238 68/15/15
f 271/43/34 270/86/58 26/28/26
f 154/277/225 153/276/224 161/2/2
s 0
f 242/292/29 81/282/29 31/36/29
s 1
f 10/293/239 55/25/23 60/294/240
f 10/293/239 61/295/241 57/285/232
f 63/60/45 75/296/242 64/92/62
f 64/92/62 76/297/243 65/39/32
f 66/288/235 76/297/243 77/298/244
f 67/290/237 77/298/244 78/299/245
f 67/290/237 79/16/16 68/15/15
f 79/16/16 80/300/246 42/301/247
f 41/302/248 42/301/247 80/300/246
s 0
f 34/66/29 22/268/29 31/36/29
s 1
f 12/12/12 11/283/230 69/6/6
f 12/12/12 70/13/13 13/26/24
f 154/277/225 162/1/1 163/125/88
f 60/294/240 72/303/249 61/295/241
f 61/295/241 73/304/250 62/286/233
f 63/60/45 73/304/250 74/305/251
f 76/297/243 90/306/252 77/298/244
f 78/299/245 90/306/252 91/307/253
f 78/299/245 92/308/254 79/16/16
f 79/16/16 93/309/255 80/300/246
f 94/10/10 41/302/248 93/309/255
f 269/62/46 274/271/219 227/63/47
f 43/9/9 44/310/256 94/10/10
s 0
f 36/158/29 33/65/29 31/36/29
s 1
f 69/6/6 83/8/8 70/13/13
f 71/27/25 83/8/8 84/311/257
f 71/27/25 85/312/258 72/303/249
f 72/303/249 86/313/259 73/304/250
f 74/305/251 86/313/259 87/314/260
f 74/305/251 88/315/261 75/296/242
f 75/296/242 89/316/262 76/297/243
f 91/307/253 104/317/263 92/308/254
f 92/308/254 105/318/264 93/309/255
f 270/86/58 28/111/76 30/87/59
f 94/10/10 105/318/264 106/11/11
f 95/156/119 83/8/8 15/89/60
f 43/9/9 106/11/11 45/319/265
f 64/92/62 58/280/228 54/58/43
f 83/8/8 82/7/7 16/90/61
f 84/311/257 95/156/119 96/255/211
f 84/311/257 97/320/266 85/312/258
f 85/312/258 98/321/267 86/313/259
f 87/314/260 98/321/267 99/322/268
f 88/315/261 99/322/268 100/323/269
f 88/315/261 101/324/270 89/316/262
f 90/306/252 101/324/270 102/23/21
f 91/307/253 102/23/21 103/20/18
f 13/26/24 70/13/13 71/27/25
f 106/11/11 116/325/271 117/326/272
f 270/86/58 263/112/77 28/111/76
f 118/327/273 45/319/265 117/326/272
f 263/112/77 262/82/55 29/84/57
f 46/328/274 47/329/275 118/327/273
f 151/116/79 142/53/40 35/117/80
f 197/166/128 259/179/140 261/51/38
f 96/255/211 108/184/143 97/320/266
f 97/320/266 109/330/276 98/321/267
f 99/322/268 109/330/276 110/331/277
f 100/323/269 110/331/277 111/332/278
f 100/323/269 112/333/279 101/324/270
f 101/324/270 113/24/22 102/23/21
f 103/20/18 113/24/22 114/21/19
f 103/20/18 115/22/20 104/317/263
f 104/317/263 116/325/271 105/318/264
f 197/166/128 191/169/131 259/179/140
f 46/328/274 129/334/280 48/335/281
f 191/169/131 190/200/156 260/180/141
f 108/184/143 107/254/210 21/185/144
f 119/249/205 108/184/143 20/183/142
f 108/184/143 120/248/204 109/330/276
f 110/331/277 120/248/204 121/336/282
f 111/332/278 121/336/282 122/197/153
f 111/332/278 123/272/220 112/333/279
f 112/333/279 124/337/283 113/24/22
f 114/21/19 124/337/283 125/153/116
f 114/21/19 126/338/284 115/22/20
f 115/22/20 127/339/285 116/325/271
s 0
f 27/61/17 283/32/17 50/340/17
s 1
f 117/326/272 127/339/285 128/341/286
f 176/140/103 243/201/157 251/178/139
f 118/327/273 128/341/286 129/334/280
s 0
f 10/342/36 57/343/36 31/36/36
f 56/344/36 9/45/36 31/36/36
f 57/343/36 56/344/36 31/36/36
s 1
f 121/336/282 130/119/82 131/246/202
f 121/336/282 132/198/154 122/197/153
f 122/197/153 133/199/155 123/272/220
f 123/272/220 134/273/221 124/337/283
f 125/153/116 134/273/221 135/154/117
f 125/153/116 136/155/118 126/338/284
f 126/338/284 137/266/216 127/339/285
f 253/123/86 8/234/190 25/124/87
f 128/341/286 137/266/216 138/96/64
f 176/140/103 169/3/3 243/201/157
f 128/341/286 139/95/63 129/334/280
f 169/3/3 168/133/96 250/202/158
f 140/159/121 48/335/281 139/95/63
f 209/196/152 267/52/39 268/216/172
f 233/345/287 241/346/288 140/159/121
s 0
f 12/181/36 4/347/36 11/348/36
f 4/347/36 14/349/36 11/348/36
s 1
f 131/246/202 142/53/40 132/198/154
f 132/198/154 143/270/218 133/199/155
f 133/199/155 144/275/223 134/273/221
f 135/154/117 144/275/223 145/274/222
f 135/154/117 146/98/66 136/155/118
f 136/155/118 147/267/217 137/266/216
f 27/350/289 59/38/31 32/37/30
f 138/96/64 147/267/217 148/97/65
s 0
f 54/46/36 3/351/36 27/61/36
s 1
f 139/95/63 148/97/65 149/137/100
s 0
f 3/351/36 2/352/36 27/61/36
s 1
f 140/159/121 149/137/100 150/136/99
s 0
f 27/61/36 17/353/36 31/36/36
s 1
f 233/345/287 150/136/99 249/138/101
s 0
f 17/353/36 1/262/36 31/36/36
f 31/36/36 4/347/36 12/181/36
s 1
f 58/280/228 64/92/62 65/39/32
f 142/53/40 152/231/187 143/270/218
f 143/270/218 153/276/224 144/275/223
f 145/274/222 153/276/224 154/277/225
f 145/274/222 155/99/67 146/98/66
f 146/98/66 156/100/68 147/267/217
f 26/28/26 52/30/28 271/43/34
f 148/97/65 156/100/68 157/101/69
s 0
f 13/182/36 55/354/36 31/36/36
s 1
f 148/97/65 158/115/78 149/137/100
s 0
f 55/354/36 10/342/36 31/36/36
s 1
f 150/136/99 158/115/78 159/109/74
f 274/271/219 275/74/51 235/76/53
f 249/138/101 159/109/74 258/108/73
f 3/279/227 58/280/228 59/38/31
f 57/285/232 61/295/241 62/286/233
f 56/287/234 62/286/233 63/60/45
f 38/355/290 32/37/30 66/288/235
f 152/231/187 161/2/2 153/276/224
f 154/277/225 161/2/2 162/1/1
f 154/277/225 163/125/88 155/99/67
f 155/99/67 164/102/70 156/100/68
s 0
f 250/94/29 242/292/29 31/36/29
s 1
f 157/101/69 164/102/70 165/105/71
f 39/289/236 38/355/290 66/288/235
f 157/101/69 166/106/72 158/115/78
f 40/291/238 39/289/236 67/290/237
f 159/109/74 166/106/72 167/110/75
f 10/293/239 60/294/240 61/295/241
f 258/108/73 167/110/75 266/134/97
f 63/60/45 74/305/251 75/296/242
f 64/92/62 75/296/242 76/297/243
f 66/288/235 65/39/32 76/297/243
f 67/290/237 66/288/235 77/298/244
f 42/301/247 37/14/14 79/16/16
f 67/290/237 78/299/245 79/16/16
f 41/302/248 80/300/246 93/309/255
f 44/310/256 41/302/248 94/10/10
f 160/132/95 169/3/3 161/2/2
f 162/1/1 169/3/3 170/139/102
f 162/1/1 171/126/89 163/125/88
f 163/125/88 172/127/90 164/102/70
s 0
f 15/78/29 16/73/29 31/36/29
s 1
f 165/105/71 172/127/90 173/130/93
f 60/294/240 71/27/25 72/303/249
f 165/105/71 174/131/94 166/106/72
f 61/295/241 72/303/249 73/304/250
f 167/110/75 174/131/94 175/135/98
f 63/60/45 62/286/233 73/304/250
f 266/134/97 175/135/98 272/172/134
f 76/297/243 89/316/262 90/306/252
f 78/299/245 77/298/244 90/306/252
f 78/299/245 91/307/253 92/308/254
f 79/16/16 92/308/254 93/309/255
f 92/308/254 104/317/263 105/318/264
f 170/139/102 176/140/103 177/145/108
f 170/139/102 178/146/109 171/126/89
f 171/126/89 179/150/113 172/127/90
f 173/130/93 179/150/113 180/151/114
s 0
f 6/72/29 4/347/29 31/36/29
s 1
f 173/130/93 181/152/115 174/131/94
f 71/27/25 70/13/13 83/8/8
f 174/131/94 182/164/126 175/135/98
f 71/27/25 84/311/257 85/312/258
f 272/172/134 182/164/126 273/167/129
f 72/303/249 85/312/258 86/313/259
f 74/305/251 73/304/250 86/313/259
f 74/305/251 87/314/260 88/315/261
f 75/296/242 88/315/261 89/316/262
f 91/307/253 103/20/18 104/317/263
f 94/10/10 93/309/255 105/318/264
f 177/145/108 185/161/123 178/146/109
f 178/146/109 186/162/124 179/150/113
f 180/151/114 186/162/124 187/163/125
s 0
f 276/114/29 275/69/29 31/36/29
s 1
f 181/152/115 187/163/125 188/165/127
f 84/311/257 83/8/8 95/156/119
f 182/164/126 188/165/127 189/168/130
f 84/311/257 96/255/211 97/320/266
f 273/167/129 189/168/130 277/257/213
f 85/312/258 97/320/266 98/321/267
f 87/314/260 86/313/259 98/321/267
f 88/315/261 87/314/260 99/322/268
f 88/315/261 100/323/269 101/324/270
f 90/306/252 89/316/262 101/324/270
f 71/27/25 60/294/240 55/25/23
f 91/307/253 90/306/252 102/23/21
f 177/145/108 183/171/133 184/160/122
f 187/163/125 193/173/135 194/177/138
s 0
f 269/93/29 268/103/29 31/36/29
s 1
f 187/163/125 195/175/136 188/165/127
f 106/11/11 105/318/264 116/325/271
f 188/165/127 196/176/137 189/168/130
f 47/329/275 45/319/265 118/327/273
f 277/257/213 196/176/137 278/356/291
f 45/319/265 106/11/11 117/326/272
f 96/255/211 107/254/210 108/184/143
f 97/320/266 108/184/143 109/330/276
f 99/322/268 98/321/267 109/330/276
f 100/323/269 99/322/268 110/331/277
f 101/324/270 112/333/279 113/24/22
f 100/323/269 111/332/278 112/333/279
f 184/160/122 190/200/156 191/169/131
f 184/160/122 192/170/132 185/161/123
f 185/161/123 193/173/135 186/162/124
f 104/317/263 115/22/20 116/325/271
f 195/175/136 202/147/110 196/176/137
f 46/328/274 118/327/273 129/334/280
f 196/176/137 279/204/160 278/356/291
f 108/184/143 119/249/205 120/248/204
f 110/331/277 109/330/276 120/248/204
f 111/332/278 110/331/277 121/336/282
f 111/332/278 122/197/153 123/272/220
f 112/333/279 123/272/220 124/337/283
f 114/21/19 113/24/22 124/337/283
f 115/22/20 126/338/284 127/339/285
f 114/21/19 125/153/116 126/338/284
f 191/169/131 198/189/145 192/170/132
f 192/170/132 199/190/146 193/173/135
f 194/177/138 199/190/146 200/191/147
f 195/175/136 200/191/147 201/203/159
s 0
f 249/19/17 48/18/17 233/357/17
f 249/19/17 258/358/17 46/17/17
f 258/358/17 266/33/17 46/17/17
f 266/33/17 272/359/17 282/31/17
f 272/359/17 273/188/17 281/187/17
f 282/31/17 272/359/17 281/187/17
f 278/360/292 279/361/292 280/186/292
f 273/188/292 277/362/292 278/360/292
s 1
f 197/166/128 204/192/148 198/189/145
f 198/189/145 205/193/149 199/190/146
f 200/191/147 205/193/149 206/194/150
f 200/191/147 207/195/151 201/203/159
f 202/147/110 207/195/151 208/148/111
s 0
f 48/18/17 241/363/17 233/357/17
s 1
f 202/147/110 280/149/112 279/204/160
s 0
f 288/364/17 285/365/17 286/366/17
f 288/364/17 49/367/17 50/340/17
f 49/367/17 51/368/17 50/340/17
f 50/340/17 53/369/17 52/370/17
f 17/353/17 27/61/17 50/340/17
f 17/353/17 50/340/17 52/370/17
s 1
f 203/50/37 210/206/162 204/192/148
f 204/192/148 211/209/165 205/193/149
f 206/194/150 211/209/165 212/208/164
f 206/194/150 213/210/166 207/195/151
f 208/148/111 213/210/166 214/212/168
s 0
f 283/32/17 284/371/17 288/364/17
s 1
f 208/148/111 281/217/173 280/149/112
s 0
f 284/371/17 285/365/17 288/364/17
f 285/365/17 287/372/17 286/366/17
f 45/373/293 47/374/293 46/17/293
f 273/188/17 278/360/17 280/186/17
f 283/32/17 27/61/17 266/33/17
f 283/32/17 288/364/17 50/340/17
s 1
f 209/196/152 216/141/104 210/206/162
f 210/206/162 217/207/163 211/209/165
f 212/208/164 217/207/163 218/211/167
f 213/210/166 218/211/167 219/215/171
f 213/210/166 220/213/169 214/212/168
f 214/212/168 282/214/170 281/217/173
s 0
f 39/47/292 40/375/292 37/48/292
f 37/48/17 42/376/17 41/49/17
f 41/49/17 44/377/17 43/378/17
f 43/378/17 45/373/17 46/17/17
s 1
f 121/336/282 131/246/202 132/198/154
f 121/336/282 120/248/204 130/119/82
f 215/205/161 222/142/105 216/141/104
f 216/141/104 223/143/106 217/207/163
f 218/211/167 223/143/106 224/227/183
f 219/215/171 224/227/183 225/228/184
f 220/213/169 225/228/184 226/218/174
f 220/213/169 283/229/185 282/214/170
s 0
f 41/49/17 43/378/17 46/17/17
f 46/17/17 27/61/17 41/49/17
f 46/17/17 266/33/17 27/61/17
s 1
f 117/326/272 116/325/271 127/339/285
f 118/327/273 117/326/272 128/341/286
f 221/64/48 228/230/186 222/142/105
f 223/143/106 228/230/186 229/222/178
f 224/227/183 229/222/178 230/221/177
f 224/227/183 231/224/180 225/228/184
f 225/228/184 232/219/175 226/218/174
f 226/218/174 284/220/176 283/229/185
f 125/153/116 124/337/283 134/273/221
f 126/338/284 136/155/118 137/266/216
f 128/341/286 127/339/285 137/266/216
f 128/341/286 138/96/64 139/95/63
f 48/335/281 129/334/280 139/95/63
f 241/346/288 48/335/281 140/159/121
f 230/221/177 237/223/179 238/226/182
f 230/221/177 239/225/181 231/224/180
f 232/219/175 239/225/181 240/240/196
f 232/219/175 285/243/199 284/220/176
f 276/79/54 8/234/190 253/123/86
f 215/205/161 269/62/46 221/64/48
f 133/199/155 143/270/218 144/275/223
f 135/154/117 145/274/222 146/98/66
f 27/350/289 2/281/229 59/38/31
f 136/155/118 146/98/66 147/267/217
f 227/63/47 236/235/191 228/230/186
f 228/230/186 237/223/179 229/222/178
f 285/243/199 240/240/196 287/239/195
f 183/171/133 252/236/192 190/200/156
f 190/200/156 252/236/192 260/180/141
f 142/53/40 151/116/79 152/231/187
f 233/345/287 140/159/121 150/136/99
f 235/76/53 245/129/92 236/235/191
f 236/235/191 246/128/91 237/223/179
f 238/226/182 246/128/91 247/237/193
f 238/226/182 248/238/194 239/225/181
f 239/225/181 248/238/194 286/241/197
f 168/133/96 242/242/198 250/202/158
f 160/132/95 242/242/198 168/133/96
f 81/232/188 152/231/187 234/118/81
f 244/75/52 254/122/85 245/129/92
f 246/128/91 254/122/85 255/252/208
f 247/237/193 255/252/208 256/251/207
f 247/237/193 257/244/200 248/238/194
f 248/238/194 288/245/201 286/241/197
f 33/247/203 131/246/202 34/121/84
f 22/120/83 120/248/204 24/250/206
f 141/54/41 33/247/203 36/55/42
f 254/122/85 263/112/77 255/252/208
f 256/251/207 263/112/77 264/42/33
f 256/251/207 265/68/50 257/244/200
f 257/244/200 49/253/209 288/245/201
f 119/249/205 20/183/142 24/250/206
f 107/254/210 18/256/212 21/185/144
f 18/256/212 96/255/211 19/157/120
f 264/42/33 270/86/58 271/43/34
f 49/253/209 265/68/50 51/67/49
f 82/7/7 7/5/5 16/90/61
f 14/284/231 4/379/294 6/4/4
f 50/44/35 271/43/34 53/278/226
f 135/154/117 134/273/221 144/275/223
s 0
f 24/269/29 20/40/29 31/36/29
s 1
f 23/83/56 254/122/85 25/124/87
f 155/99/67 163/125/88 164/102/70
f 69/6/6 11/283/230 6/4/4
s 0
f 25/260/214 8/261/214 31/36/214
s 1
f 152/231/187 160/132/95 161/2/2
