# Blender 5.1.2
# www.blender.org
o moon_piece_04
v -0.297287 -0.127640 0.248142
v 0.325432 -0.126114 -0.095380
v -0.206512 -0.092034 -0.238067
v -0.226496 -0.189035 0.128967
v -0.301300 -0.130337 0.246860
v 0.370054 -0.092825 -0.076817
v 0.349218 -0.070758 -0.036538
v 0.325225 -0.052385 0.000683
v 0.368341 -0.075268 -0.209351
v 0.381556 -0.098662 -0.165573
v 0.123054 -0.083020 -0.263821
v 0.350936 -0.054068 -0.250526
v 0.359170 -0.063254 -0.232494
v 0.344748 -0.048566 -0.261673
v 0.340161 -0.063254 -0.021748
v -0.326690 -0.084391 0.209385
v -0.314200 -0.107610 0.229659
v -0.381558 0.090279 -0.096062
v -0.347779 -0.041912 0.165406
v -0.337542 -0.063254 0.188905
v -0.362828 -0.007261 0.121103
v -0.357120 -0.021167 0.140179
v 0.382476 -0.105300 -0.120402
v 0.298991 -0.037242 0.034945
v 0.271298 -0.024736 0.066585
v 0.241796 -0.015202 0.095360
v 0.260925 -0.021167 0.076985
v 0.211006 -0.008179 0.121585
v 0.179190 -0.003318 0.145562
v 0.146327 -0.000558 0.167389
v -0.373172 0.020745 0.078186
v -0.372360 0.018245 0.082452
v -0.379212 0.042537 0.036926
v -0.382657 0.060049 -0.001742
v -0.381843 0.054601 0.011293
v -0.383549 0.073479 -0.038245
v -0.383074 0.084348 -0.072469
v -0.382442 0.087553 -0.084484
v 0.361471 -0.111854 -0.148494
v 0.308493 0.018245 -0.203457
v 0.337581 -0.021167 -0.206322
v 0.362686 -0.063254 -0.208794
v 0.277402 0.054601 -0.165573
v 0.310354 0.018245 -0.165573
v 0.339583 -0.021167 -0.165573
v 0.364809 -0.063254 -0.165573
v 0.239518 0.087553 -0.134482
v 0.275699 0.054601 -0.130918
v 0.308493 0.018245 -0.127689
v 0.337581 -0.021167 -0.124824
v 0.362686 -0.063254 -0.122351
v 0.196296 0.116783 -0.111380
v 0.234950 0.087553 -0.103691
v 0.270608 0.054601 -0.096598
v 0.302927 0.018245 -0.090169
v 0.331595 -0.021167 -0.084467
v 0.356336 -0.063254 -0.079546
v 0.149398 0.142009 -0.097153
v 0.189672 0.116783 -0.084936
v 0.227387 0.087553 -0.073495
v 0.262178 0.054601 -0.062942
v 0.293711 0.018245 -0.053376
v 0.321682 -0.021167 -0.044891
v 0.345821 -0.063254 -0.037569
v 0.100625 0.162988 -0.092349
v 0.141605 0.142009 -0.075375
v 0.180489 0.116783 -0.059269
v 0.216900 0.087553 -0.044187
v 0.250489 0.054601 -0.030274
v 0.280933 0.018245 -0.017664
v 0.307937 -0.021167 -0.006478
v 0.092597 0.162988 -0.075375
v 0.131716 0.142009 -0.054465
v 0.168833 0.116783 -0.034626
v 0.203591 0.087553 -0.016047
v 0.235655 0.054601 0.001091
v 0.264716 0.018245 0.016624
v 0.290494 -0.021167 0.030403
v -0.174528 -0.063254 0.263821
v 0.082943 0.162988 -0.059269
v 0.119824 0.142009 -0.034626
v 0.154819 0.116783 -0.011244
v 0.187588 0.087553 0.010652
v 0.217817 0.054601 0.030851
v 0.245216 0.018245 0.049158
v 0.269519 -0.021167 0.065397
v -0.251646 -0.100524 0.258107
v 0.036045 0.179518 -0.073495
v 0.071758 0.162988 -0.044187
v 0.106046 0.142009 -0.016047
v 0.138579 0.116783 0.010652
v 0.169045 0.087553 0.035655
v 0.197149 0.054601 0.058719
v 0.222621 0.018245 0.079623
v 0.380190 -0.106697 -0.100493
v 0.026480 0.179518 -0.062942
v 0.059147 0.162988 -0.030274
v 0.090512 0.142009 0.001091
v 0.120272 0.116783 0.030851
v 0.148140 0.087553 0.058719
v 0.173848 0.054601 0.084427
v 0.197149 0.018245 0.107728
v 0.112375 0.000141 0.187136
v 0.015926 0.179518 -0.053376
v 0.045234 0.162988 -0.017664
v 0.073374 0.142009 0.016624
v 0.100074 0.116783 0.049158
v 0.125076 0.087553 0.079623
v 0.148140 0.054601 0.107728
v 0.169045 0.018245 0.133200
v 0.077280 -0.001214 0.204844
v -0.264221 -0.107610 0.255863
v 0.004485 0.179518 -0.044891
v 0.030152 0.162988 -0.006478
v 0.054795 0.142009 0.030403
v 0.078178 0.116783 0.065397
v 0.100074 0.087553 0.098167
v 0.120272 0.054601 0.128396
v 0.138579 0.018245 0.155794
v 0.040972 -0.004640 0.220531
v -0.007732 0.179518 -0.037569
v 0.014046 0.162988 0.003175
v 0.034956 0.142009 0.042295
v 0.054796 0.116783 0.079412
v 0.073374 0.087553 0.114170
v 0.090512 0.054601 0.146233
v 0.106046 0.018245 0.175294
v 0.003365 -0.010183 0.234184
v -0.020608 0.179518 -0.031479
v -0.002928 0.162988 0.011204
v 0.014046 0.142009 0.052184
v 0.030152 0.116783 0.091067
v 0.045234 0.087553 0.127479
v 0.059147 0.054601 0.161068
v 0.071758 0.018245 0.191511
v -0.035639 -0.017916 0.245761
v -0.034019 0.179518 -0.026680
v -0.020608 0.162988 0.017530
v -0.007732 0.142009 0.059976
v 0.004485 0.116783 0.100251
v 0.015926 0.087553 0.137965
v 0.026480 0.054601 0.172757
v 0.036045 0.018245 0.204290
v -0.076151 -0.028452 0.254528
v -0.047836 0.179518 -0.023219
v -0.038823 0.162988 0.022092
v -0.030169 0.142009 0.065597
v -0.021958 0.116783 0.106875
v -0.014269 0.087553 0.145529
v -0.007177 0.054601 0.181187
v -0.000748 0.018245 0.213506
v -0.048772 -0.021167 0.248817
v -0.061925 0.179518 -0.021129
v -0.057397 0.162988 0.024847
v -0.053049 0.142009 0.068991
v -0.048924 0.116783 0.110875
v -0.045061 0.087553 0.150096
v -0.041497 0.054601 0.186278
v -0.038267 0.018245 0.219071
v -0.118112 -0.041785 0.260458
v -0.076151 0.179518 -0.020430
v -0.076151 0.162988 0.025769
v -0.076151 0.142009 0.070125
v -0.076151 0.116783 0.112213
v -0.076151 0.087553 0.151624
v -0.076152 0.054601 0.187981
v -0.076151 0.018245 0.220932
v -0.076151 -0.021167 0.250162
v -0.090378 0.179518 -0.021129
v -0.094906 0.162988 0.024847
v -0.099254 0.142009 0.068991
v -0.103379 0.116783 0.110875
v -0.107242 0.087553 0.150096
v -0.110806 0.054601 0.186278
v -0.114036 0.018245 0.219071
v -0.116901 -0.021167 0.248160
v -0.161541 -0.057802 0.263710
v -0.104467 0.179518 -0.023219
v -0.113480 0.162988 0.022092
v -0.122134 0.142009 0.065597
v -0.130345 0.116783 0.106875
v -0.138033 0.087553 0.145529
v -0.145126 0.054601 0.181187
v -0.151555 0.018245 0.213506
v -0.157257 -0.021167 0.242174
v -0.206108 -0.077475 0.262836
v -0.118284 0.179518 -0.026680
v -0.131695 0.162988 0.017530
v -0.144571 0.142009 0.059976
v -0.156788 0.116783 0.100251
v -0.168229 0.087553 0.137965
v -0.178783 0.054601 0.172757
v -0.188348 0.018245 0.204290
v -0.196833 -0.021167 0.232261
v -0.204156 -0.063254 0.256400
v -0.131695 0.179518 -0.031479
v -0.149375 0.162988 0.011204
v -0.166349 0.142009 0.052184
v -0.182455 0.116783 0.091067
v -0.197537 0.087553 0.127479
v -0.211451 0.054601 0.161068
v -0.224061 0.018245 0.191511
v -0.235246 -0.021167 0.218516
v -0.244900 -0.063254 0.241822
v -0.144571 0.179518 -0.037569
v -0.166349 0.162988 0.003175
v -0.187259 0.142009 0.042295
v -0.207099 0.116783 0.079412
v -0.225677 0.087553 0.114170
v -0.242815 0.054601 0.146233
v -0.258349 0.018245 0.175294
v -0.272128 -0.021167 0.201073
v -0.284019 -0.063254 0.223320
v -0.293908 -0.107610 0.241822
v -0.156788 0.179518 -0.044891
v -0.182455 0.162988 -0.006478
v -0.207098 0.142009 0.030403
v -0.230481 0.116783 0.065397
v -0.252376 0.087553 0.098167
v -0.272575 0.054601 0.128396
v -0.290882 0.018245 0.155795
v -0.307121 -0.021167 0.180098
v -0.321136 -0.063254 0.201072
v -0.340863 0.116783 -0.081828
v -0.346333 0.113406 -0.083614
v -0.168229 0.179518 -0.053376
v -0.197537 0.162988 -0.017664
v -0.225677 0.142009 0.016624
v -0.252377 0.116783 0.049158
v -0.277379 0.087553 0.079624
v -0.300443 0.054601 0.107728
v -0.321348 0.018245 0.133200
v -0.339891 -0.021167 0.155795
v -0.291060 0.142009 -0.069353
v -0.302171 0.136648 -0.071953
v -0.211450 0.162988 -0.030274
v -0.242815 0.142009 0.001091
v -0.272575 0.116783 0.030851
v -0.300443 0.087553 0.058719
v -0.326151 0.054601 0.084427
v -0.349452 0.018245 0.107728
v -0.235871 0.162988 -0.060312
v -0.264688 0.152375 -0.064798
v -0.224061 0.162988 -0.044187
v -0.258349 0.142009 -0.016047
v -0.290882 0.116783 0.010652
v -0.321348 0.087553 0.035655
v -0.349452 0.054601 0.058719
v -0.233973 0.163536 -0.060120
v -0.207475 0.170665 -0.057798
v -0.235246 0.162988 -0.059269
v -0.272127 0.142009 -0.034626
v -0.307122 0.116783 -0.011244
v -0.339891 0.087553 0.010652
v -0.370120 0.054601 0.030851
v -0.170374 0.179518 -0.055321
v -0.185530 0.176104 -0.056194
v -0.284019 0.142009 -0.054465
v -0.321136 0.116783 -0.034626
v -0.355894 0.087553 -0.016047
v -0.166683 0.180129 -0.055260
v -0.149915 0.182617 -0.055178
v -0.332792 0.116783 -0.059269
v -0.369203 0.087553 -0.044187
v -0.135100 0.184551 -0.055288
v -0.121721 0.186047 -0.055558
v -0.379690 0.087553 -0.073495
v -0.109399 0.187185 -0.055971
v -0.097844 0.188022 -0.056517
v -0.086826 0.188595 -0.057192
v -0.076151 0.188928 -0.057998
v -0.065649 0.189035 -0.058942
v -0.055159 0.188921 -0.060037
v -0.044521 0.188580 -0.061301
v -0.033565 0.188000 -0.062761
v -0.022101 0.187154 -0.064452
v -0.009901 0.186005 -0.066423
v 0.003319 0.184496 -0.068738
v 0.017930 0.182547 -0.071491
v 0.037506 0.179518 -0.075465
v 0.034441 0.180038 -0.074812
v 0.052821 0.175950 -0.079396
v 0.074166 0.170466 -0.085227
v 0.100836 0.162988 -0.092940
v 0.099891 0.163272 -0.092653
v 0.153218 0.142009 -0.112405
v 0.129267 0.151958 -0.103260
v 0.199683 0.116783 -0.134209
v 0.164824 0.136016 -0.117640
v 0.240684 0.087553 -0.158230
v 0.206066 0.112483 -0.137777
v 0.276482 0.054601 -0.184299
v 0.251216 0.078335 -0.165573
v 0.332337 -0.021167 -0.241678
v 0.307194 0.018245 -0.212211
v 0.296790 0.031219 -0.202304
v 0.383549 -0.103859 -0.156106
v 0.336359 -0.029271 -0.247626
vn 0.7403 0.6336 0.2246
vn 0.7147 0.6336 0.2961
vn 0.7686 0.5549 0.3184
vn 0.4491 0.7063 0.5472
vn 0.3933 0.7063 0.5886
vn 0.4298 0.6336 0.6432
vn 0.3203 -0.7512 0.5772
vn 0.6540 0.7063 0.2709
vn 0.6243 0.7063 0.3337
vn 0.6823 0.6336 0.3647
vn -0.4622 0.5549 0.6917
vn -0.5271 0.5140 0.6768
vn -0.5190 0.4909 0.6997
vn 0.5282 0.7723 0.3530
vn 0.4628 0.8308 0.3092
vn 0.4303 0.8308 0.3531
vn -0.5282 0.7723 0.3530
vn -0.5865 0.7409 0.3272
vn -0.5884 0.7276 0.3527
vn 0.5005 0.7063 0.5005
vn 0.4492 0.7723 0.4492
vn 0.4030 0.7723 0.4911
vn 0.4911 0.7723 0.4030
vn 0.3936 0.8308 0.3936
vn 0.0065 -0.9669 -0.2552
vn -0.5005 0.7063 0.5005
vn -0.5472 0.7063 0.4491
vn -0.5623 0.6715 0.4827
vn 0.3929 0.8813 0.2626
vn 0.3193 0.9233 0.2133
vn 0.2968 0.9233 0.2436
vn -0.4908 0.6336 0.5980
vn -0.5543 0.5956 0.5814
vn -0.5494 0.5752 0.6061
vn 0.8279 0.5549 -0.0815
vn 0.8780 0.4708 -0.0865
vn 0.8566 0.5001 -0.1271
vn 0.5980 0.6336 0.4908
vn 0.6248 0.5957 0.5048
vn 0.6495 0.5882 0.4817
vn 0.0912 0.9700 0.2252
vn 0.0693 0.9700 0.2329
vn 0.0847 0.9565 0.2791
vn -0.5643 0.8031 0.1915
vn -0.5878 0.7955 0.1472
vn -0.6079 0.7723 0.1844
vn 0.1122 0.9700 0.2155
vn 0.1116 0.9565 0.2695
vn -0.4159 0.4708 0.7781
vn -0.4818 0.4274 0.7649
vn -0.4707 0.4021 0.7853
vn -0.4356 0.3821 0.8150
vn 0.1378 -0.8557 -0.4988
vn -0.4591 0.3368 0.8221
vn -0.3898 0.4110 0.8241
vn 0.8160 0.5549 0.1623
vn 0.7588 0.6336 0.1509
vn 0.5869 0.7723 0.2431
vn 0.5143 0.8308 0.2130
vn 0.4909 0.8308 0.2624
vn 0.3386 0.9233 0.1810
vn -0.0797 0.5638 -0.8220
vn 0.6080 0.7723 0.1844
vn 0.5327 0.8308 0.1616
vn -0.4902 0.4708 0.7336
vn 0.4908 0.6336 0.5980
vn 0.4474 0.5957 0.6671
vn 0.8944 0.4271 0.1327
vn 0.8995 0.4276 0.0903
vn 0.8780 0.4708 0.0865
vn 0.8653 0.4708 0.1721
vn 0.8894 0.4275 0.1617
vn 0.2133 0.9233 0.3193
vn 0.1621 0.9565 0.2425
vn 0.1375 0.9565 0.2572
vn 0.2626 0.8813 0.3929
vn 0.1810 0.9233 0.3386
vn 0.2228 0.8813 0.4168
vn 0.2624 0.8308 0.4909
vn 0.3530 0.7723 0.5282
vn 0.3092 0.8308 0.4628
vn 0.3337 0.7063 0.6243
vn 0.3647 0.6336 0.6823
vn 0.2995 0.7723 0.5603
vn -0.7798 -0.5935 -0.1993
vn 0.3784 0.5957 0.7085
vn 0.1469 0.9233 0.3548
vn 0.1809 0.8813 0.4366
vn 0.2130 0.8308 0.5143
vn 0.2431 0.7723 0.5869
vn 0.2709 0.7063 0.6540
vn 0.1844 0.7723 0.6080
vn 0.2055 0.7063 0.6774
vn 0.2246 0.6336 0.7403
vn 0.3056 0.5957 0.7428
vn 0.2961 0.6336 0.7147
vn 0.1115 0.9233 0.3675
vn 0.0749 0.9233 0.3766
vn 0.0922 0.8813 0.4635
vn 0.0569 0.9565 0.2861
vn 0.1372 0.8813 0.4522
vn 0.1616 0.8308 0.5327
vn 0.1381 0.7063 0.6943
vn 0.0694 0.7063 0.7045
vn 0.0758 0.6336 0.7699
vn 0.8146 0.5014 0.2915
vn 0.8443 0.4708 0.2561
vn 0.7961 0.5549 0.2415
vn 0.1517 0.5957 0.7888
vn 0.1509 0.6336 0.7588
vn 0.1086 0.8308 0.5459
vn 0.1239 0.7723 0.6231
vn 0.2298 0.5957 0.7696
vn 0.0376 0.9233 0.3821
vn 0.0463 0.8813 0.4703
vn 0.0546 0.8308 0.5539
vn 0.0623 0.7723 0.6322
vn -0.0000 0.6336 0.7736
vn -0.0758 0.6336 0.7699
vn -0.0815 0.5549 0.8279
vn 0.7967 0.5141 0.3177
vn 0.0286 0.9565 0.2903
vn -0.0000 0.8308 0.5566
vn -0.0000 0.7723 0.6353
vn -0.0000 0.7063 0.7079
vn 0.0397 0.5877 0.8081
vn 0.0721 0.5957 0.8000
vn -0.0000 0.9565 0.2917
vn -0.0000 0.9233 0.3840
vn -0.0000 0.8813 0.4726
vn -0.0694 0.7063 0.7045
vn -0.0088 0.5141 0.8577
vn -0.0000 0.5549 0.8319
vn -0.0376 0.9233 0.3821
vn -0.0463 0.8813 0.4703
vn -0.0546 0.8308 0.5539
vn -0.0623 0.7723 0.6322
vn -0.0943 0.5141 0.8525
vn -0.1623 0.5549 0.8160
vn -0.0286 0.9565 0.2903
vn -0.0569 0.9565 0.2861
vn -0.0749 0.9233 0.3766
vn -0.0922 0.8813 0.4635
vn -0.1086 0.8308 0.5459
vn -0.1239 0.7723 0.6231
vn -0.1381 0.7063 0.6943
vn -0.1509 0.6336 0.7588
vn -0.0847 0.9565 0.2791
vn -0.1115 0.9233 0.3675
vn -0.2055 0.7063 0.6774
vn -0.2246 0.6336 0.7403
vn -0.2415 0.5549 0.7961
vn -0.2103 0.5010 0.8395
vn -0.1789 0.5141 0.8389
vn -0.1116 0.9565 0.2695
vn -0.1469 0.9233 0.3548
vn -0.1372 0.8813 0.4522
vn -0.1809 0.8813 0.4366
vn -0.2130 0.8308 0.5143
vn -0.1616 0.8308 0.5327
vn -0.2431 0.7723 0.5869
vn -0.1844 0.7723 0.6080
vn -0.2961 0.6336 0.7147
vn -0.3184 0.5549 0.7686
vn -0.2709 0.7063 0.6540
vn -0.3647 0.6336 0.6823
vn -0.3922 0.5549 0.7337
vn -0.3376 0.4708 0.8151
vn -0.3601 0.4275 0.8292
vn -0.2228 0.8813 0.4168
vn -0.2626 0.8813 0.3929
vn -0.3092 0.8308 0.4628
vn -0.2995 0.7723 0.5603
vn -0.2624 0.8308 0.4909
vn -0.2561 0.4708 0.8443
vn -0.3337 0.7063 0.6243
vn -0.3530 0.7723 0.5282
vn -0.2758 0.4275 0.8609
vn -0.4298 0.6336 0.6432
vn -0.1375 0.9565 0.2572
vn -0.1810 0.9233 0.3387
vn -0.3933 0.7063 0.5886
vn -0.2998 0.8813 0.3653
vn -0.3531 0.8308 0.4303
vn -0.4030 0.7723 0.4911
vn 0.3317 -0.9430 -0.0281
vn 0.9031 0.4271 0.0444
vn 0.9039 0.4275 0.0153
vn 0.8823 0.4708 -0.0000
vn -0.2436 0.9233 0.2968
vn -0.2715 0.9233 0.2715
vn -0.3342 0.8813 0.3342
vn -0.3936 0.8308 0.3936
vn -0.4492 0.7723 0.4492
vn -0.4841 0.3365 0.8077
vn -0.1621 0.9565 0.2425
vn -0.2133 0.9233 0.3193
vn -0.4491 0.7063 0.5472
vn -0.1850 0.9565 0.2255
vn -0.5869 0.7723 0.2431
vn -0.6400 0.7409 0.2036
vn -0.2968 0.9233 0.2436
vn -0.3653 0.8813 0.2998
vn -0.4303 0.8308 0.3531
vn -0.5143 0.8308 0.2130
vn -0.4911 0.7723 0.4030
vn -0.3193 0.9233 0.2133
vn -0.3929 0.8813 0.2626
vn -0.4628 0.8308 0.3092
vn -0.5886 0.7063 0.3933
vn -0.6077 0.6715 0.4240
vn -0.4168 0.8813 0.2228
vn -0.4909 0.8308 0.2624
vn 0.8323 0.5136 -0.2085
vn 0.8465 0.5139 -0.1391
vn 0.8438 0.5141 -0.1542
vn -0.5603 0.7723 0.2995
vn -0.6164 0.7409 0.2667
vn -0.5470 0.6336 0.5470
vn 0.0238 0.9700 0.2418
vn 0.0006 0.9700 0.2430
vn -0.3710 0.9039 0.2129
vn 0.0468 0.9700 0.2384
vn -0.2549 0.9415 0.2205
vn -0.2748 0.9415 0.1952
vn -0.2326 0.9415 0.2438
vn 0.7739 0.6229 -0.1148
vn 0.7396 0.6713 -0.0473
vn 0.7699 0.6336 -0.0758
vn -0.1312 0.9700 0.2046
vn -0.1501 0.9700 0.1911
vn 0.8311 0.5423 -0.1233
vn -0.1111 0.9700 0.2161
vn -0.0900 0.9700 0.2257
vn 0.9010 0.4275 -0.0740
vn -0.0680 0.9700 0.2333
vn -0.0455 0.9700 0.2387
vn -0.0225 0.9700 0.2419
vn -0.4687 0.8576 0.2117
vn 0.2930 0.9415 0.1665
vn 0.2757 0.9415 0.1937
vn 0.3075 0.9415 0.1378
vn 0.4366 0.8813 0.1809
vn 0.4522 0.8813 0.1372
vn 0.4054 0.9039 0.1364
vn 0.7170 0.6962 -0.0352
vn 0.6714 0.7408 0.0226
vn 0.7079 0.7063 -0.0000
vn 0.3775 0.9161 0.1351
vn 0.3548 0.9233 0.1469
vn 0.5459 0.8308 0.1086
vn 0.5010 0.8576 0.1162
vn 0.8319 0.5549 -0.0000
vn 0.4730 0.8731 0.1185
vn 0.6231 0.7723 0.1239
vn 0.6322 0.7723 0.0623
vn 0.5908 0.8031 0.0778
vn 0.5636 0.8218 0.0836
vn 0.1323 0.9700 0.2039
vn 0.7045 0.7063 0.0694
vn 0.1511 0.9700 0.1903
vn 0.6460 0.7627 0.0317
vn 0.1686 0.9700 0.1751
vn 0.1850 0.9565 0.2255
vn 0.7736 0.6336 -0.0000
vn 0.1845 0.9700 0.1582
vn 0.2063 0.9565 0.2063
vn 0.2535 0.9489 0.1880
vn 0.2255 0.9565 0.1850
vn 0.7699 0.6336 0.0758
vn 0.8279 0.5549 0.0815
vn 0.4168 0.8813 0.2228
vn 0.6943 0.7063 0.1381
vn 0.8689 0.4275 0.2494
vn -0.5606 0.6539 0.5081
vn 0.6774 0.7063 0.2055
vn -0.0797 0.5638 -0.8221
vn -0.5278 0.5549 0.6431
vn 0.5603 0.7723 0.2995
vn 0.7337 0.5549 0.3922
vn 0.7611 0.5141 0.3956
vn 0.5886 0.7063 0.3933
vn 0.6432 0.6336 0.4298
vn 0.6917 0.5549 0.4622
vn 0.7177 0.5141 0.4696
vn -0.5783 0.8029 0.1449
vn 0.5472 0.7063 0.4491
vn 0.3653 0.8813 0.2998
vn 0.5470 0.6336 0.5470
vn 0.5712 0.5957 0.5647
vn 0.2715 0.9233 0.2715
vn 0.3342 0.8813 0.3342
vn 0.5119 0.5957 0.6190
vn 0.2436 0.9233 0.2968
vn 0.2998 0.8813 0.3653
vn 0.3531 0.8308 0.4303
vn -0.5366 0.8217 0.1920
vn -0.4408 0.8730 0.2085
vn -0.3439 0.9161 0.2061
vn -0.2120 0.9489 0.2339
vt 0.453125 0.718750
vt 0.437500 0.718750
vt 0.437500 0.687500
vt 0.359375 0.750000
vt 0.343750 0.750000
vt 0.343750 0.718750
vt 2.345205 2.210399
vt 2.342396 2.211297
vt 2.394759 2.293822
vt 0.437500 0.750000
vt 0.421875 0.750000
vt 0.421875 0.718750
vt 0.156250 0.687500
vt 0.140625 0.672097
vt 0.148875 0.656409
vt 0.406250 0.781250
vt 0.406250 0.812500
vt 0.390625 0.812500
vt 2.780963 2.383621
vt 2.781108 2.450865
vt 2.791419 2.399323
vt 2.431136 2.199424
vt 2.409030 2.200114
vt 0.093750 0.781250
vt 0.078125 0.755161
vt 0.083480 0.750173
vt 0.375000 0.750000
vt 0.375000 0.781250
vt 0.359375 0.781250
vt 0.390625 0.781250
vt 0.375000 0.812500
vt 2.639444 2.568774
vt 0.125000 0.750000
vt 0.109375 0.750000
vt 0.109375 0.720896
vt 0.406250 0.843750
vt 0.406250 0.875000
vt 0.390625 0.875000
vt 0.140625 0.718750
vt 0.125000 0.698523
vt 0.131719 0.687674
vt 0.515625 0.687500
vt 0.515625 0.656250
vt 0.524276 0.656408
vt 0.390625 0.718750
vt 0.390625 0.692225
vt 0.400726 0.687662
vt 0.312500 0.928485
vt 0.296875 0.930008
vt 0.296875 0.906250
vt 0.046875 0.808894
vt 0.041190 0.781424
vt 0.046875 0.781250
vt 0.328125 0.926267
vt 0.312500 0.906250
vt 0.171875 0.656250
vt 0.156250 0.641359
vt 0.163720 0.625135
vt 0.171875 0.625000
vt 2.794630 2.567270
vt 2.798961 2.559467
vt 0.171875 0.611453
vt 0.183196 0.625108
vt 0.468750 0.687500
vt 0.468750 0.718750
vt 0.437500 0.781250
vt 0.437500 0.812500
vt 0.421875 0.812500
vt 0.421875 0.875000
vt 2.577415 2.436467
vt 2.590281 2.439677
vt 0.453125 0.781250
vt 0.453125 0.812500
vt 0.156250 0.656250
vt 0.359375 0.718750
vt 0.343750 0.703842
vt 0.477455 0.625777
vt 0.484375 0.626626
vt 0.484375 0.656250
vt 0.468750 0.656250
vt 0.468750 0.635413
vt 0.343750 0.875000
vt 0.343750 0.906250
vt 0.328125 0.906250
vt 0.343750 0.843750
vt 0.328125 0.875000
vt 0.328125 0.843750
vt 0.328125 0.812500
vt 0.343750 0.781250
vt 0.343750 0.812500
vt 0.328125 0.750000
vt 0.328125 0.718750
vt 0.328125 0.781250
vt 2.284822 2.410870
vt 2.285154 2.434827
vt 2.408747 2.550746
vt 2.285596 2.443238
vt 2.286216 2.451343
vt 2.287858 2.358251
vt 2.333366 2.223338
vt 2.324623 2.237530
vt 2.317026 2.251866
vt 2.309861 2.268315
vt 2.303322 2.285974
vt 0.328125 0.704396
vt 2.286016 2.376194
vt 2.285446 2.385319
vt 0.312500 0.875000
vt 0.312500 0.843750
vt 0.312500 0.812500
vt 0.312500 0.781250
vt 2.299327 2.299327
vt 2.292654 2.326383
vt 2.292085 2.329369
vt 0.312500 0.750000
vt 0.296875 0.781250
vt 0.296875 0.750000
vt 0.296875 0.718750
vt 0.312500 0.703321
vt 0.312500 0.718750
vt 0.296875 0.875000
vt 0.281250 0.875000
vt 0.281250 0.843750
vt 0.281250 0.906250
vt 0.296875 0.843750
vt 0.296875 0.812500
vt 0.281250 0.750000
vt 0.265625 0.750000
vt 0.265625 0.718750
vt 0.447059 0.656402
vt 0.453125 0.656250
vt 0.453125 0.687500
vt 0.281250 0.696205
vt 0.281250 0.718750
vt 0.281250 0.812500
vt 0.281250 0.781250
vt 0.296875 0.700602
vt 0.265625 0.875000
vt 0.265625 0.843750
vt 0.265625 0.812500
vt 0.265625 0.781250
vt 0.250000 0.718750
vt 0.234375 0.718750
vt 0.234375 0.687500
vt 0.437500 0.664315
vt 0.265625 0.906250
vt 0.250000 0.812500
vt 0.250000 0.781250
vt 0.250000 0.750000
vt 0.260500 0.687656
vt 0.265625 0.690075
vt 0.250000 0.906250
vt 0.250000 0.875000
vt 0.250000 0.843750
vt 0.234375 0.750000
vt 0.250000 0.682096
vt 0.250000 0.687500
vt 0.234375 0.875000
vt 0.234375 0.843750
vt 0.234375 0.812500
vt 0.234375 0.781250
vt 0.234375 0.672191
vt 0.218750 0.687500
vt 0.234375 0.906250
vt 0.218750 0.906250
vt 0.218750 0.875000
vt 0.218750 0.843750
vt 0.218750 0.812500
vt 0.218750 0.781250
vt 0.218750 0.750000
vt 0.218750 0.718750
vt 0.203125 0.906250
vt 0.203125 0.875000
vt 0.203125 0.750000
vt 0.203125 0.718750
vt 0.203125 0.687500
vt 0.214155 0.656383
vt 0.218750 0.660294
vt 0.187500 0.906250
vt 0.187500 0.875000
vt 0.203125 0.843750
vt 0.187500 0.843750
vt 0.187500 0.812500
vt 0.203125 0.812500
vt 0.187500 0.781250
vt 0.203125 0.781250
vt 0.187500 0.718750
vt 0.187500 0.687500
vt 0.187500 0.750000
vt 0.171875 0.718750
vt 0.171875 0.687500
vt 0.187500 0.656250
vt 0.187500 0.629988
vt 0.171875 0.843750
vt 0.156250 0.843750
vt 0.156250 0.812500
vt 0.171875 0.781250
vt 0.171875 0.812500
vt 0.203125 0.656250
vt 0.171875 0.750000
vt 0.156250 0.781250
vt 0.203125 0.646235
vt 0.156250 0.718750
vt 0.171875 0.906250
vt 0.171875 0.875000
vt 0.156250 0.750000
vt 0.140625 0.843750
vt 0.140625 0.812500
vt 0.140625 0.781250
vt 2.821039 2.468380
vt 2.819439 2.454444
vt 2.806335 2.488045
vt 0.496723 0.627731
vt 0.500000 0.631300
vt 0.500000 0.656250
vt 0.140625 0.875000
vt 0.125000 0.875000
vt 0.125000 0.843750
vt 0.125000 0.812500
vt 0.125000 0.781250
vt 0.170471 0.609667
vt 0.156250 0.906250
vt 0.156250 0.875000
vt 0.140625 0.750000
vt 0.140625 0.906250
vt 0.062500 0.781250
vt 0.046875 0.778214
vt 0.109375 0.875000
vt 0.109375 0.843750
vt 0.109375 0.812500
vt 0.062500 0.812500
vt 0.109375 0.781250
vt 2.804725 2.546844
vt 2.820395 2.500000
vt 2.821790 2.493373
vt 0.093750 0.875000
vt 0.093750 0.843750
vt 0.093750 0.812500
vt 0.093750 0.750000
vt 0.093750 0.739634
vt 0.078125 0.843750
vt 0.078125 0.812500
vt 0.535726 0.667289
vt 0.531250 0.681488
vt 0.531250 0.663066
vt 0.078125 0.781250
vt 0.062500 0.767905
vt 0.125000 0.718750
vt 0.265625 0.931201
vt 0.250000 0.930919
vt 0.078125 0.859192
vt 0.281250 0.930901
vt 0.109375 0.889512
vt 0.093750 0.876034
vt 0.125000 0.899800
vt 0.519268 0.718885
vt 0.515625 0.729899
vt 0.515625 0.718750
vt 0.156250 0.914368
vt 0.140625 0.907848
vt 0.529316 0.687577
vt 0.171875 0.919439
vt 0.187500 0.923363
vt 0.515625 0.647790
vt 0.203125 0.926350
vt 0.218750 0.928544
vt 2.811145 2.530645
vt 0.234375 0.930046
vt 0.062500 0.837114
vt 0.421875 0.889135
vt 0.406250 0.899510
vt 0.437500 0.875536
vt 0.437500 0.843750
vt 0.453125 0.843750
vt 0.453125 0.858570
vt 0.508444 0.750191
vt 0.500000 0.772512
vt 0.500000 0.750000
vt 0.438021 0.875018
vt 0.437500 0.875000
vt 0.468750 0.812500
vt 0.468750 0.836331
vt 0.500000 0.687500
vt 0.463748 0.843889
vt 0.468750 0.781250
vt 0.484375 0.781250
vt 0.484375 0.807907
vt 0.481981 0.812592
vt 0.343750 0.923253
vt 0.484375 0.750000
vt 0.359375 0.919296
vt 0.496312 0.781386
vt 0.375000 0.914184
vt 0.359375 0.906250
vt 0.500000 0.718750
vt 0.390625 0.907610
vt 0.375000 0.906250
vt 0.393313 0.906311
vt 0.390625 0.906250
vt 0.484375 0.718750
vt 0.484375 0.687500
vt 0.421875 0.843750
vt 0.468750 0.750000
vt 0.453125 0.650968
vt 0.110946 0.718818
vt 0.453125 0.750000
vt 2.468101 2.422990
vt 2.476727 2.423279
vt 0.140625 0.687500
vt 0.421875 0.781250
vt 0.421875 0.687500
vt 0.421875 0.675567
vt 2.788757 2.557437
vt 2.729157 2.500000
vt 2.746843 2.513108
vt 0.406250 0.750000
vt 0.406250 0.718750
vt 0.406250 0.687500
vt 0.406250 0.684853
vt 2.310873 2.442629
vt 2.555629 2.432216
vt 2.565857 2.434143
vt 0.035617 0.784312
vt 0.390625 0.750000
vt 2.314702 2.441379
vt 2.349564 2.432646
vt 2.368024 2.429458
vt 2.341786 2.434466
vt 0.390625 0.843750
vt 0.375000 0.718750
vt 0.375000 0.697795
vt 2.388196 2.426317
vt 2.389525 2.426183
vt 2.408073 2.424558
vt 2.423435 2.423435
vt 0.375000 0.875000
vt 0.375000 0.843750
vt 0.359375 0.701651
vt 2.436628 2.422781
vt 2.448366 2.422724
vt 2.458736 2.422800
vt 2.761059 2.525712
vt 0.359375 0.875000
vt 0.359375 0.843750
vt 0.359375 0.812500
vt 2.492528 2.424133
vt 2.500000 2.424697
vt 2.484815 2.423661
vt 2.605222 2.443758
vt 2.581986 2.229727
vt 2.555662 2.220170
vt 2.507352 2.425358
vt 2.514695 2.426125
vt 2.522141 2.427010
vt 2.529810 2.428032
vt 2.579560 2.436925
vt 2.537835 2.429216
vt 2.546375 2.430595
vt 2.434044 2.422824
vt 2.623230 2.448956
vt 2.623892 2.449157
vt 2.643793 2.456381
vt 2.660559 2.462782
vt 2.668683 2.466447
vt 2.693084 2.478045
vt 2.697552 2.480543
vt 2.721785 2.494860
vt 2.768342 2.532647
vt 2.785942 2.553274
vt 2.528359 2.212066
vt 2.519166 2.209927
vt 2.500000 2.205929
vt 2.440227 2.199502
vt 2.470628 2.201778
vt 2.377154 2.203424
vt 2.368351 2.204995
vt 2.678739 2.282206
vt 2.812344 2.437871
vt 2.797758 2.409676
vt 2.762600 2.359637
vt 2.743215 2.337489
vt 2.735954 2.330209
vt 2.701010 2.298990
vt 2.655735 2.266927
vt 2.631969 2.253104
vt 2.607402 2.240708
vt 2.722564 2.317347
vt 0.048765 0.812575
vt 0.066998 0.843881
vt 0.092740 0.875033
vt 0.137451 0.906319
s 1
f 62/1/1 70/2/2 71/3/3
f 109/4/4 118/5/5 119/6/6
s 0
f 1/7/7 5/8/7 4/9/7
s 1
f 69/10/8 76/11/9 77/12/10
f 222/13/11 19/14/12 20/15/13
f 83/16/14 82/17/15 91/18/16
s 0
f 8/19/7 2/20/7 15/21/7
f 79/22/7 186/23/7 4/9/7
s 1
f 254/24/17 34/25/18 35/26/19
f 101/27/20 100/28/21 108/29/22
f 92/30/23 91/18/16 99/31/24
s 0
f 2/20/25 4/9/25 11/32/25
s 1
f 240/33/26 248/34/27 31/35/28
f 81/36/29 80/37/30 89/38/31
f 232/39/32 21/40/33 22/41/34
f 41/42/35 42/43/36 13/44/37
f 94/45/38 26/46/39 27/47/40
f 275/48/41 274/49/42 137/50/43
f 225/51/44 38/52/45 267/53/46
f 276/54/47 275/48/41 129/55/48
f 213/56/49 16/57/50 17/58/51
f 17/58/51 214/59/52 213/56/49
s 0
f 11/32/53 14/60/53 12/61/53
s 1
f 1/62/54 112/63/55 214/59/52
f 56/64/56 55/65/57 62/1/1
f 68/66/58 67/67/59 74/68/60
f 72/69/61 80/37/30 81/36/29
s 0
f 281/70/62 282/71/62 11/32/62
s 1
f 60/72/63 59/73/64 67/67/59
f 20/15/13 223/74/65 222/13/11
f 110/75/66 119/6/6 30/76/67
f 95/77/68 23/78/69 51/79/70
f 51/79/70 57/80/71 6/81/72
f 114/82/73 113/83/74 121/84/75
f 115/85/76 114/82/73 122/86/77
f 115/85/76 123/87/78 124/88/79
f 117/89/80 116/90/81 124/88/79
f 118/5/5 126/91/82 127/92/83
f 118/5/5 117/89/80 125/93/84
s 0
f 36/94/85 37/95/85 3/96/85
f 37/95/85 38/97/85 3/96/85
f 38/97/85 18/98/85 3/96/85
f 3/96/85 4/9/85 33/99/85
f 4/9/85 5/8/85 17/100/85
f 16/101/85 4/9/85 17/100/85
f 16/101/85 20/102/85 4/9/85
f 19/103/85 22/104/85 4/9/85
f 20/102/85 19/103/85 4/9/85
s 1
f 119/6/6 127/92/83 103/105/86
s 0
f 33/99/85 35/106/85 3/96/85
f 35/106/85 34/107/85 3/96/85
s 1
f 121/84/75 129/55/48 130/108/87
f 123/87/78 122/86/77 130/108/87
f 123/87/78 131/109/88 132/110/89
f 126/91/82 125/93/84 133/111/90
f 125/93/84 124/88/79 132/110/89
s 0
f 22/104/85 21/112/85 4/9/85
f 21/112/85 32/113/85 4/9/85
f 32/113/85 31/114/85 4/9/85
f 31/114/85 33/99/85 4/9/85
s 1
f 134/115/91 133/111/90 141/116/92
f 134/115/91 142/117/93 143/118/94
f 111/119/95 135/120/96 143/118/94
f 138/121/97 146/122/98 147/123/99
f 137/50/43 145/124/100 146/122/98
f 126/91/82 134/115/91 135/120/96
f 103/105/86 127/92/83 135/120/96
f 129/55/48 137/50/43 138/121/97
f 130/108/87 138/121/97 139/125/101
f 131/109/88 139/125/101 140/126/102
f 132/110/89 140/126/102 141/116/92
f 150/127/103 158/128/104 159/129/105
f 15/130/106 64/131/107 63/132/108
f 128/133/109 151/134/110 159/129/105
f 139/125/101 147/123/99 148/135/111
f 140/126/102 148/135/111 149/136/112
f 142/117/93 141/116/92 149/136/112
f 142/117/93 150/127/103 151/134/110
f 120/137/113 143/118/94 151/134/110
f 146/122/98 154/138/114 155/139/115
f 147/123/99 155/139/115 156/140/116
f 149/136/112 148/135/111 156/140/116
f 150/127/103 149/136/112 157/141/117
f 167/142/118 175/143/119 176/144/120
f 63/132/108 71/3/3 8/145/121
f 146/122/98 145/124/100 153/146/122
f 156/140/116 164/147/123 165/148/124
f 158/128/104 157/141/117 165/148/124
f 158/128/104 166/149/125 167/142/118
f 152/150/126 136/151/127 159/129/105
f 159/129/105 167/142/118 152/150/126
f 153/146/122 161/152/128 162/153/129
f 155/139/115 154/138/114 162/153/129
f 155/139/115 163/154/130 164/147/123
f 166/149/125 174/155/131 175/143/119
f 144/156/132 168/157/133 176/144/120
f 162/153/129 170/158/134 171/159/135
f 163/154/130 171/159/135 172/160/136
f 164/147/123 172/160/136 173/161/137
f 166/149/125 165/148/124 173/161/137
f 160/162/138 176/144/120 185/163/139
f 169/164/140 178/165/141 179/166/142
f 170/158/134 179/166/142 180/167/143
f 171/159/135 180/167/143 181/168/144
f 173/161/137 172/160/136 181/168/144
f 174/155/131 173/161/137 182/169/145
f 174/155/131 183/170/146 184/171/147
f 178/165/141 187/172/148 188/173/149
f 176/144/120 175/143/119 184/171/147
f 161/152/128 169/164/140 170/158/134
f 183/170/146 192/174/150 193/175/151
f 184/171/147 193/175/151 194/176/152
f 79/177/153 177/178/154 185/163/139
f 185/163/139 194/176/152 79/177/153
f 187/172/148 196/179/155 197/180/156
f 189/181/157 188/173/149 197/180/156
f 189/181/157 198/182/158 199/183/159
f 190/184/160 199/183/159 200/185/161
f 192/174/150 191/186/162 200/185/161
f 193/175/151 202/187/163 203/188/164
f 179/166/142 188/173/149 189/181/157
f 192/174/150 201/189/165 202/187/163
f 180/167/143 189/181/157 190/184/160
f 181/168/144 190/184/160 191/186/162
f 183/170/146 182/169/145 191/186/162
f 202/187/163 211/190/166 212/191/167
f 204/192/168 203/188/164 212/191/167
f 112/63/55 87/193/169 204/192/168
f 204/192/168 213/56/49 112/63/55
f 207/194/170 217/195/171 218/196/172
f 209/197/173 208/198/174 218/196/172
f 195/199/175 194/176/152 203/188/164
f 210/200/176 209/197/173 219/201/177
f 186/202/178 195/199/175 204/192/168
f 212/191/167 211/190/166 221/203/179
f 196/179/155 205/204/180 206/205/181
f 210/200/176 220/206/182 221/203/179
f 198/182/158 197/180/156 206/205/181
f 198/182/158 207/194/170 208/198/174
f 200/185/161 199/183/159 208/198/174
f 201/189/165 200/185/161 209/197/173
f 201/189/165 210/200/176 211/190/166
f 217/195/171 228/207/183 229/208/184
f 218/196/172 229/208/184 230/209/185
s 0
f 23/210/186 95/211/186 2/20/186
s 1
f 213/56/49 212/191/167 222/13/11
s 0
f 2/20/186 39/212/186 23/210/186
s 1
f 297/213/187 10/214/188 46/215/189
f 227/216/190 236/217/191 237/218/192
f 46/215/189 51/79/70 297/213/187
f 229/208/184 238/219/193 239/220/194
f 214/59/52 17/58/51 5/221/195
f 228/207/183 237/218/192 238/219/193
f 206/205/181 205/204/180 215/222/196
f 207/194/170 206/205/181 216/223/197
f 220/206/182 219/201/177 230/209/185
f 220/206/182 231/224/198 232/39/32
f 222/13/11 221/203/179 232/39/32
f 215/222/196 226/225/199 227/216/190
f 216/223/197 227/216/190 228/207/183
f 264/226/200 267/53/46 37/227/201
f 237/218/192 236/217/191 244/228/202
f 267/53/46 264/226/200 225/51/44
f 237/218/192 245/229/203 246/230/204
f 264/226/200 263/231/205 225/51/44
f 238/219/193 246/230/204 247/232/206
s 0
f 39/212/53 11/32/53 13/233/53
s 1
f 240/33/26 239/220/194 247/232/206
s 0
f 10/234/53 297/235/53 39/212/53
s 1
f 244/228/202 251/236/207 252/237/208
f 245/229/203 252/237/208 253/238/209
f 246/230/204 253/238/209 254/24/17
f 248/34/27 247/232/206 254/24/17
f 248/34/27 255/239/210 33/240/211
f 252/237/208 258/241/212 259/242/213
f 14/243/214 298/244/215 12/245/216
f 253/238/209 259/242/213 260/246/217
f 259/242/213 263/231/205 264/226/200
f 231/224/198 230/209/185 239/220/194
f 260/246/217 264/226/200 36/247/218
f 231/224/198 240/33/26 241/248/219
f 153/146/122 272/249/220 271/250/221
f 258/241/212 252/237/208 243/251/222
f 274/49/42 273/252/223 145/124/100
f 252/237/208 251/236/207 243/251/222
f 273/252/223 272/249/220 153/146/122
f 244/228/202 250/253/224 249/254/225
f 236/217/191 227/216/190 257/255/226
f 227/216/190 226/225/199 257/255/226
f 236/217/191 257/255/226 250/253/224
f 295/256/227 296/257/228 40/258/229
f 215/222/196 262/259/230 261/260/231
f 295/256/227 41/42/35 294/261/232
f 205/204/180 265/262/233 262/259/230
f 196/179/155 266/263/234 265/262/233
f 9/264/235 13/44/37 42/43/36
f 187/172/148 268/265/236 266/263/234
s 0
f 13/233/53 11/32/53 12/61/53
s 1
f 178/165/141 269/266/237 268/265/236
s 0
f 13/233/53 9/267/53 39/212/53
s 1
f 169/164/140 270/268/238 269/266/237
f 263/231/205 259/242/213 235/269/239
f 161/152/128 271/250/221 270/268/238
f 259/242/213 258/241/212 235/269/239
f 13/44/37 12/245/216 298/244/215
f 283/270/240 282/271/241 80/37/30
f 285/272/242 283/270/240 72/69/61
f 66/273/243 58/274/244 287/275/245
f 292/276/246 293/277/247 43/278/248
f 287/275/245 284/279/249 65/280/250
f 59/73/64 52/281/251 289/282/252
f 40/258/229 45/283/253 41/42/35
f 289/282/252 286/284/254 58/274/244
f 42/43/36 45/283/253 46/215/189
f 53/285/255 47/286/256 291/287/257
f 9/264/235 46/215/189 10/214/188
f 291/287/257 288/288/258 52/281/251
f 277/289/259 276/54/47 121/84/75
f 48/290/260 43/278/248 293/277/247
f 278/291/261 277/289/259 113/83/74
f 293/277/247 290/292/262 47/286/256
f 279/293/263 278/291/261 104/294/264
f 44/295/265 40/258/229 296/257/228
f 281/296/266 279/293/263 96/297/267
f 296/257/228 292/276/246 44/295/265
f 89/38/31 80/37/30 282/271/241
f 298/244/215 294/261/232 41/42/35
f 282/271/241 280/298/268 88/299/269
f 290/292/262 291/287/257 47/286/256
f 43/278/248 49/300/270 44/295/265
f 44/295/265 50/301/271 45/283/253
f 46/215/189 50/301/271 51/79/70
f 295/256/227 40/258/229 41/42/35
f 73/302/272 81/36/29 82/17/15
f 48/290/260 55/65/57 49/300/270
f 49/300/270 56/64/56 50/301/271
f 51/79/70 56/64/56 57/80/71
f 254/24/17 260/246/217 34/25/18
f 35/26/19 255/239/210 254/24/17
f 288/288/258 289/282/252 52/281/251
f 48/290/260 53/285/255 54/303/273
f 57/80/71 63/132/108 64/131/107
f 57/80/71 7/304/274 6/81/72
f 32/305/275 241/248/219 31/35/28
f 286/284/254 287/275/245 58/274/244
f 53/285/255 59/73/64 60/72/63
f 54/303/273 60/72/63 61/306/276
f 54/303/273 62/1/1 55/65/57
f 56/64/56 62/1/1 63/132/108
f 65/280/250 72/69/61 73/302/272
s 0
f 266/307/277 268/308/277 3/96/277
s 1
f 284/279/249 285/272/242 65/280/250
f 58/274/244 67/67/59 59/73/64
f 60/72/63 67/67/59 68/66/58
f 61/306/276 68/66/58 69/10/8
f 61/306/276 70/2/2 62/1/1
f 62/1/1 71/3/3 63/132/108
f 22/41/34 233/309/278 232/39/32
f 7/304/274 64/131/107 15/130/106
f 65/280/250 73/302/272 66/273/243
f 66/273/243 74/68/60 67/67/59
f 68/66/58 74/68/60 75/310/279
f 69/10/8 75/310/279 76/11/9
f 69/10/8 77/12/10 70/2/2
f 71/3/3 77/12/10 78/311/280
f 71/3/3 24/312/281 8/145/121
s 0
f 14/60/277 11/32/277 298/313/277
s 1
f 213/56/49 223/74/65 16/57/50
s 0
f 293/314/62 292/315/62 11/32/62
s 1
f 72/69/61 81/36/29 73/302/272
f 73/302/272 82/17/15 74/68/60
f 75/310/279 82/17/15 83/16/14
f 76/11/9 83/16/14 84/316/282
f 76/11/9 85/317/283 77/12/10
f 78/311/280 85/317/283 86/318/284
f 78/311/280 25/319/285 24/312/281
s 0
f 3/96/277 18/98/277 225/320/277
f 11/32/277 278/321/277 279/322/277
s 1
f 225/51/44 18/323/286 38/52/45
f 81/36/29 91/18/16 82/17/15
f 83/16/14 91/18/16 92/30/23
f 84/316/282 92/30/23 93/324/287
f 84/316/282 94/45/38 85/317/283
s 0
f 225/320/277 224/325/277 3/96/277
s 1
f 25/319/285 86/318/284 27/47/40
s 0
f 234/326/277 243/327/277 3/96/277
f 235/328/277 234/326/277 3/96/277
f 11/32/25 39/212/25 2/20/25
s 1
f 280/298/268 281/296/266 88/299/269
f 81/36/29 89/38/31 90/329/288
f 93/324/287 100/28/21 101/27/20
f 93/324/287 102/330/289 94/45/38
f 94/45/38 28/331/290 26/46/39
s 0
f 242/332/62 249/333/62 3/96/62
f 250/334/277 257/335/277 3/96/277
f 249/333/277 250/334/277 3/96/277
s 1
f 44/295/265 49/300/270 50/301/271
f 88/299/269 97/336/291 89/38/31
f 89/38/31 98/337/292 90/329/288
f 90/329/288 99/31/24 91/18/16
f 92/30/23 99/31/24 100/28/21
f 102/330/289 29/338/293 28/331/290
s 0
f 261/339/277 262/340/277 3/96/277
f 265/341/277 266/307/277 3/96/277
f 262/340/62 265/341/62 3/96/62
f 292/315/277 296/342/277 11/32/277
f 11/32/277 3/96/277 278/321/277
s 1
f 96/297/267 105/343/294 97/336/291
f 98/337/292 105/343/294 106/344/295
f 98/337/292 107/345/296 99/31/24
f 100/28/21 107/345/296 108/29/22
f 101/27/20 108/29/22 109/4/4
f 101/27/20 110/75/66 102/330/289
s 0
f 270/346/62 271/347/62 3/96/62
f 269/348/62 270/346/62 3/96/62
f 282/71/277 283/349/277 11/32/277
f 120/350/7 128/351/7 4/9/7
s 1
f 104/294/264 114/82/73 105/343/294
f 105/343/294 115/85/76 106/344/295
f 106/344/295 116/90/81 107/345/296
f 108/29/22 116/90/81 117/89/80
f 109/4/4 117/89/80 118/5/5
f 109/4/4 119/6/6 110/75/66
f 110/75/66 30/76/67 29/338/293
s 0
f 268/308/277 269/348/277 3/96/277
f 272/352/62 273/353/62 3/96/62
f 274/354/62 275/355/62 3/96/62
f 273/353/277 274/354/277 3/96/277
s 1
f 51/79/70 6/81/72 95/77/68
f 71/3/3 78/311/280 24/312/281
f 114/82/73 121/84/75 122/86/77
f 115/85/76 122/86/77 123/87/78
f 115/85/76 124/88/79 116/90/81
f 117/89/80 124/88/79 125/93/84
f 118/5/5 125/93/84 126/91/82
f 118/5/5 127/92/83 119/6/6
f 119/6/6 103/105/86 30/76/67
s 0
f 281/70/277 280/356/277 282/71/277
f 279/322/62 281/70/62 11/32/62
f 34/107/85 36/94/85 3/96/85
s 1
f 121/84/75 130/108/87 122/86/77
f 123/87/78 130/108/87 131/109/88
f 123/87/78 132/110/89 124/88/79
f 125/93/84 132/110/89 133/111/90
f 126/91/82 133/111/90 134/115/91
f 126/91/82 135/120/96 127/92/83
f 103/105/86 135/120/96 111/119/95
s 0
f 276/357/277 277/358/277 3/96/277
f 277/358/277 278/321/277 3/96/277
f 257/335/277 256/359/277 261/339/277
s 1
f 129/55/48 138/121/97 130/108/87
f 130/108/87 139/125/101 131/109/88
f 131/109/88 140/126/102 132/110/89
f 132/110/89 141/116/92 133/111/90
f 134/115/91 141/116/92 142/117/93
f 134/115/91 143/118/94 135/120/96
f 111/119/95 143/118/94 120/137/113
s 0
f 283/349/62 285/360/62 11/32/62
f 285/360/62 284/361/62 11/32/62
f 287/362/62 286/363/62 11/32/62
f 284/361/277 287/362/277 11/32/277
s 1
f 137/50/43 146/122/98 138/121/97
f 138/121/97 147/123/99 139/125/101
f 139/125/101 148/135/111 140/126/102
f 140/126/102 149/136/112 141/116/92
f 142/117/93 149/136/112 150/127/103
f 142/117/93 151/134/110 143/118/94
f 120/137/113 151/134/110 128/133/109
s 0
f 289/364/277 288/365/277 11/32/277
f 288/365/277 291/366/277 11/32/277
f 290/367/277 293/314/277 11/32/277
f 291/366/277 290/367/277 11/32/277
f 243/327/277 242/332/277 3/96/277
s 1
f 146/122/98 155/139/115 147/123/99
f 147/123/99 156/140/116 148/135/111
f 149/136/112 156/140/116 157/141/117
f 150/127/103 157/141/117 158/128/104
f 150/127/103 159/129/105 151/134/110
f 128/133/109 159/129/105 136/151/127
s 0
f 296/342/62 295/368/62 11/32/62
f 295/368/277 294/369/277 11/32/277
f 257/335/62 261/339/62 3/96/62
f 294/369/62 298/313/62 11/32/62
s 1
f 63/132/108 8/145/121 15/130/106
f 146/122/98 153/146/122 154/138/114
f 156/140/116 165/148/124 157/141/117
f 158/128/104 165/148/124 166/149/125
f 158/128/104 167/142/118 159/129/105
f 167/142/118 168/157/133 152/150/126
f 144/156/132 152/150/126 168/157/133
f 40/258/229 44/295/265 45/283/253
f 42/43/36 41/42/35 45/283/253
f 43/278/248 48/290/260 49/300/270
f 9/264/235 42/43/36 46/215/189
f 153/146/122 162/153/129 154/138/114
f 155/139/115 162/153/129 163/154/130
f 155/139/115 164/147/123 156/140/116
f 166/149/125 175/143/119 167/142/118
f 167/142/118 176/144/120 168/157/133
f 144/156/132 176/144/120 160/162/138
f 46/215/189 45/283/253 50/301/271
f 48/290/260 54/303/273 55/65/57
f 51/79/70 50/301/271 56/64/56
f 49/300/270 55/65/57 56/64/56
f 161/152/128 170/158/134 162/153/129
f 162/153/129 171/159/135 163/154/130
f 163/154/130 172/160/136 164/147/123
f 164/147/123 173/161/137 165/148/124
f 166/149/125 173/161/137 174/155/131
f 160/162/138 185/163/139 177/178/154
f 57/80/71 64/131/107 7/304/274
f 53/285/255 52/281/251 59/73/64
f 54/303/273 61/306/276 62/1/1
f 54/303/273 53/285/255 60/72/63
f 169/164/140 179/166/142 170/158/134
f 170/158/134 180/167/143 171/159/135
f 171/159/135 181/168/144 172/160/136
f 173/161/137 181/168/144 182/169/145
f 174/155/131 182/169/145 183/170/146
f 174/155/131 184/171/147 175/143/119
f 176/144/120 184/171/147 185/163/139
f 58/274/244 66/273/243 67/67/59
f 61/306/276 69/10/8 70/2/2
f 61/306/276 60/72/63 68/66/58
f 178/165/141 188/173/149 179/166/142
f 179/166/142 189/181/157 180/167/143
f 180/167/143 190/184/160 181/168/144
f 181/168/144 191/186/162 182/169/145
f 183/170/146 191/186/162 192/174/150
f 183/170/146 193/175/151 184/171/147
f 184/171/147 194/176/152 185/163/139
f 194/176/152 195/199/175 79/177/153
f 186/202/178 79/177/153 195/199/175
s 0
f 271/347/277 272/352/277 3/96/277
s 1
f 187/172/148 197/180/156 188/173/149
f 189/181/157 197/180/156 198/182/158
f 189/181/157 199/183/159 190/184/160
f 190/184/160 200/185/161 191/186/162
f 192/174/150 200/185/161 201/189/165
f 192/174/150 202/187/163 193/175/151
f 193/175/151 203/188/164 194/176/152
f 195/199/175 203/188/164 204/192/168
f 186/202/178 204/192/168 87/193/169
f 69/10/8 68/66/58 75/310/279
s 0
f 224/325/277 235/328/277 3/96/277
s 1
f 196/179/155 206/205/181 197/180/156
f 198/182/158 206/205/181 207/194/170
f 198/182/158 208/198/174 199/183/159
f 200/185/161 208/198/174 209/197/173
f 201/189/165 209/197/173 210/200/176
f 201/189/165 211/190/166 202/187/163
f 202/187/163 212/191/167 203/188/164
f 204/192/168 212/191/167 213/56/49
f 213/56/49 214/59/52 112/63/55
f 57/80/71 56/64/56 63/132/108
f 66/273/243 73/302/272 74/68/60
f 85/317/283 94/45/38 27/47/40
f 207/194/170 218/196/172 208/198/174
f 209/197/173 218/196/172 219/201/177
f 210/200/176 219/201/177 220/206/182
f 210/200/176 221/203/179 211/190/166
f 212/191/167 221/203/179 222/13/11
f 213/56/49 222/13/11 223/74/65
f 51/79/70 23/78/69 297/213/187
f 214/59/52 5/221/195 1/62/54
f 222/13/11 233/309/278 19/14/12
f 232/39/32 241/248/219 21/40/33
f 206/205/181 215/222/196 216/223/197
f 207/194/170 216/223/197 217/195/171
f 220/206/182 230/209/185 231/224/198
f 220/206/182 232/39/32 221/203/179
f 222/13/11 232/39/32 233/309/278
f 48/290/260 47/286/256 53/285/255
f 16/57/50 223/74/65 20/15/13
f 241/248/219 240/33/26 31/35/28
s 0
f 275/355/277 276/357/277 3/96/277
s 1
f 71/3/3 70/2/2 77/12/10
f 215/222/196 227/216/190 216/223/197
f 216/223/197 228/207/183 217/195/171
f 217/195/171 229/208/184 218/196/172
f 218/196/172 230/209/185 219/201/177
s 0
f 39/212/186 297/235/186 23/210/186
s 1
f 19/14/12 233/309/278 22/41/34
f 75/310/279 74/68/60 82/17/15
f 76/11/9 75/310/279 83/16/14
f 78/311/280 86/318/284 25/319/285
f 78/311/280 77/12/10 85/317/283
f 227/216/190 237/218/192 228/207/183
f 228/207/183 238/219/193 229/208/184
f 229/208/184 239/220/194 230/209/185
f 231/224/198 239/220/194 240/33/26
f 231/224/198 241/248/219 232/39/32
f 84/316/282 93/324/287 94/45/38
s 0
f 4/9/25 3/96/25 11/32/25
s 1
f 76/11/9 84/316/282 85/317/283
f 237/218/192 244/228/202 245/229/203
f 237/218/192 246/230/204 238/219/193
f 238/219/193 247/232/206 239/220/194
f 240/33/26 247/232/206 248/34/27
f 81/36/29 90/329/288 91/18/16
f 21/40/33 241/248/219 32/305/275
f 84/316/282 83/16/14 92/30/23
f 88/299/269 96/297/267 97/336/291
f 244/228/202 252/237/208 245/229/203
f 245/229/203 253/238/209 246/230/204
f 246/230/204 254/24/17 247/232/206
f 248/34/27 254/24/17 255/239/210
f 248/34/27 33/240/211 31/35/28
f 93/324/287 92/30/23 100/28/21
f 93/324/287 101/27/20 102/330/289
f 94/45/38 102/330/289 28/331/290
f 89/38/31 97/336/291 98/337/292
f 252/237/208 259/242/213 253/238/209
f 253/238/209 260/246/217 254/24/17
f 90/329/288 98/337/292 99/31/24
f 33/240/211 255/239/210 35/26/19
f 102/330/289 110/75/66 29/338/293
f 96/297/267 104/294/264 105/343/294
f 98/337/292 97/336/291 105/343/294
f 100/28/21 99/31/24 107/345/296
f 98/337/292 106/344/295 107/345/296
f 259/242/213 264/226/200 260/246/217
f 260/246/217 36/247/218 34/25/18
f 101/27/20 109/4/4 110/75/66
s 0
f 128/351/7 136/370/7 4/9/7
f 136/370/7 152/371/7 4/9/7
f 152/371/7 144/372/7 4/9/7
f 177/373/7 79/22/7 4/9/7
f 160/374/7 177/373/7 4/9/7
s 1
f 264/226/200 37/227/201 36/247/218
s 0
f 186/23/7 87/375/7 4/9/7
f 87/375/7 112/376/7 4/9/7
f 112/376/7 1/7/7 4/9/7
f 4/9/7 2/20/7 29/377/7
f 144/372/7 160/374/7 4/9/7
f 6/378/7 7/379/7 2/20/7
f 7/379/7 15/21/7 2/20/7
f 8/19/7 24/380/7 2/20/7
f 25/381/7 27/382/7 2/20/7
f 24/380/7 25/381/7 2/20/7
f 28/383/7 29/377/7 2/20/7
f 30/384/7 103/385/7 4/9/7
f 111/386/7 120/350/7 4/9/7
f 103/385/7 111/386/7 4/9/7
s 1
f 109/4/4 108/29/22 117/89/80
f 108/29/22 107/345/296 116/90/81
f 106/344/295 115/85/76 116/90/81
f 27/47/40 86/318/284 85/317/283
s 0
f 29/377/7 30/384/7 4/9/7
s 1
f 105/343/294 114/82/73 115/85/76
f 104/294/264 113/83/74 114/82/73
s 0
f 26/387/7 28/383/7 2/20/7
f 27/382/7 26/387/7 2/20/7
s 1
f 37/227/201 267/53/46 38/52/45
s 0
f 2/20/7 95/211/7 6/378/7
s 1
f 263/231/205 224/388/297 225/51/44
s 0
f 9/267/53 10/234/53 39/212/53
s 1
f 258/241/212 234/389/298 235/269/239
f 263/231/205 235/269/239 224/388/297
f 251/236/207 242/390/299 243/251/222
f 258/241/212 243/251/222 234/389/298
f 251/236/207 249/254/225 242/390/299
f 244/228/202 249/254/225 251/236/207
f 226/225/199 256/391/300 257/255/226
f 236/217/191 250/253/224 244/228/202
f 226/225/199 261/260/231 256/391/300
f 215/222/196 261/260/231 226/225/199
f 205/204/180 262/259/230 215/222/196
f 196/179/155 265/262/233 205/204/180
f 187/172/148 266/263/234 196/179/155
f 178/165/141 268/265/236 187/172/148
f 169/164/140 269/266/237 178/165/141
f 161/152/128 270/268/238 169/164/140
f 153/146/122 271/250/221 161/152/128
f 273/252/223 153/146/122 145/124/100
f 274/49/42 145/124/100 137/50/43
f 275/48/41 137/50/43 129/55/48
f 276/54/47 129/55/48 121/84/75
f 277/289/259 121/84/75 113/83/74
f 278/291/261 113/83/74 104/294/264
f 279/293/263 104/294/264 96/297/267
f 281/296/266 96/297/267 88/299/269
f 282/271/241 88/299/269 89/38/31
f 283/270/240 80/37/30 72/69/61
f 285/272/242 72/69/61 65/280/250
f 287/275/245 65/280/250 66/273/243
f 289/282/252 58/274/244 59/73/64
f 291/287/257 52/281/251 53/285/255
f 293/277/247 47/286/256 48/290/260
f 292/276/246 43/278/248 44/295/265
f 298/244/215 41/42/35 13/44/37
s 0
f 286/363/62 289/364/62 11/32/62
