# Blender 5.1.2
# www.blender.org
o moon_piece_02
v 0.089204 0.010469 0.387220
v 0.144911 -0.086388 -0.220234
v 0.161940 -0.102910 -0.159126
v 0.182754 0.027272 -0.236834
v 0.164008 -0.048230 0.269327
v 0.038646 -0.100149 0.387411
v 0.076596 -0.013004 0.389443
v 0.054408 -0.060601 0.390027
v 0.008029 -0.207155 0.366362
v 0.035276 -0.109138 0.386569
v 0.020079 -0.158147 0.378292
v 0.003653 -0.231327 0.358657
v 0.141943 -0.199318 0.215034
v -0.031221 -0.041725 -0.366250
v 0.063814 0.056415 0.349744
v 0.076304 0.033195 0.370018
v 0.042725 0.098893 0.305766
v 0.000901 -0.230721 0.356729
v -0.036034 -0.221112 0.325174
v -0.069883 -0.210713 0.290121
v -0.099692 -0.199527 0.251442
v 0.052962 0.077552 0.329264
v 0.027676 0.133545 0.261463
v 0.033384 0.119639 0.280539
v 0.017332 0.161550 0.218546
v 0.018144 0.159050 0.222812
v 0.011292 0.183342 0.177285
v 0.162727 0.035627 -0.297477
v 0.008946 0.231085 0.044297
v 0.007847 0.200854 0.138617
v 0.083594 0.092576 -0.389899
v 0.008661 0.195407 0.151653
v 0.006955 0.214285 0.102115
v 0.007430 0.225153 0.067891
v 0.008062 0.228359 0.055875
v 0.183992 0.048771 -0.097708
v -0.079635 -0.207155 0.277858
v -0.125326 -0.187731 0.209800
v -0.146800 -0.175483 0.165802
v -0.163894 -0.162897 0.119861
v 0.060302 0.119639 -0.353766
v 0.076902 0.100178 -0.380583
v 0.054132 0.127117 -0.342293
v 0.029191 0.159050 -0.285427
v 0.036185 0.149769 -0.303381
v 0.022307 0.168652 -0.264889
v 0.005165 0.195407 -0.196246
v 0.011938 0.184199 -0.227280
v 0.004218 0.197124 -0.190984
v -0.000394 0.207075 -0.155586
v -0.003156 0.215127 -0.121529
v -0.004222 0.221453 -0.088582
v -0.002335 0.228359 -0.035568
v -0.003699 0.226189 -0.056539
v -0.175651 -0.150083 0.072254
v -0.168545 -0.158147 0.102255
v -0.182216 -0.137220 0.023694
v -0.183992 -0.124450 -0.025213
v -0.001544 0.229323 -0.025213
v 0.002163 0.230952 0.005535
v -0.180978 -0.111896 -0.073999
v -0.172314 -0.099756 -0.122017
v -0.179228 -0.109138 -0.084875
v -0.158832 -0.088134 -0.168752
v -0.028219 -0.036954 -0.367785
v 0.007176 0.231327 0.035888
v -0.140974 -0.077114 -0.213816
v -0.118945 -0.066790 -0.256815
v -0.092707 -0.057305 -0.297202
v -0.102107 -0.060601 -0.283124
v 0.057713 0.033195 0.358875
v 0.048529 -0.013004 0.372620
v 0.041905 -0.060601 0.382533
v -0.062439 -0.048792 -0.334439
v 0.034610 0.077552 0.315654
v 0.021301 0.033195 0.331871
v 0.010814 -0.013004 0.344649
v 0.003251 -0.060601 0.353865
v -0.001317 -0.109138 0.359431
v -0.002844 -0.158147 0.361292
v -0.001317 -0.207155 0.359431
v 0.020090 0.027858 -0.383774
v -0.011776 -0.013004 -0.374601
v 0.020384 0.119639 0.268756
v 0.002546 0.077552 0.286593
v -0.012288 0.033195 0.301427
v -0.023977 -0.013004 0.313116
v -0.032407 -0.060601 0.321547
v -0.037498 -0.109138 0.326638
v -0.039201 -0.158147 0.328340
v -0.037498 -0.207155 0.326638
v 0.070592 0.081226 -0.390027
v 0.015580 0.159050 0.219983
v -0.007015 0.119639 0.238526
v -0.026514 0.077552 0.254529
v -0.042732 0.033195 0.267838
v -0.055510 -0.013004 0.278325
v -0.064726 -0.060601 0.285888
v -0.070291 -0.109138 0.290456
v -0.072153 -0.158147 0.291983
v -0.070291 -0.207155 0.290456
v 0.066689 0.077552 -0.389871
v -0.007015 0.159050 0.189517
v -0.031318 0.119639 0.205757
v -0.052293 0.077552 0.219771
v -0.069736 0.033195 0.231426
v -0.083481 -0.013004 0.240610
v -0.093394 -0.060601 0.247234
v -0.099380 -0.109138 0.251234
v -0.101382 -0.158147 0.252572
v 0.024603 0.033195 -0.384746
v 0.002546 0.195407 0.141450
v -0.026514 0.159050 0.156984
v -0.052293 0.119639 0.170763
v -0.074540 0.077552 0.182654
v -0.093042 0.033195 0.192543
v -0.107620 -0.013004 0.200336
v -0.118135 -0.060601 0.205956
v -0.124485 -0.109138 0.209350
v -0.126608 -0.158147 0.210485
v -0.012288 0.195407 0.110086
v -0.042731 0.159050 0.122696
v -0.069736 0.119639 0.133882
v -0.093042 0.077552 0.143535
v -0.112424 0.033195 0.151563
v -0.127696 -0.013004 0.157889
v -0.138711 -0.060601 0.162452
v -0.145363 -0.109138 0.165207
v -0.147587 -0.158147 0.166128
v -0.023977 0.195407 0.077418
v -0.055510 0.159050 0.086983
v -0.083481 0.119639 0.095468
v -0.107620 0.077552 0.102791
v -0.127696 0.033195 0.108881
v -0.143515 -0.013004 0.113679
v -0.154924 -0.060601 0.117140
v -0.161813 -0.109138 0.119230
v -0.164117 -0.158147 0.119929
v 0.003251 0.228359 0.036669
v -0.032407 0.195407 0.043761
v -0.064726 0.159050 0.050190
v -0.093394 0.119639 0.055893
v -0.118135 0.077552 0.060814
v -0.138711 0.033195 0.064907
v -0.154924 -0.013004 0.068132
v -0.166617 -0.060601 0.070458
v -0.173678 -0.109138 0.071862
v -0.001317 0.228359 0.005877
v -0.037498 0.195407 0.009441
v -0.070291 0.159050 0.012671
v -0.099380 0.119639 0.015536
v -0.124485 0.077552 0.018008
v -0.145363 0.033195 0.020065
v -0.161814 -0.013004 0.021685
v -0.173679 -0.060601 0.022854
v -0.180844 -0.109138 0.023559
v -0.002844 0.228359 -0.025213
v -0.039201 0.195407 -0.025213
v -0.072152 0.159050 -0.025213
v -0.101382 0.119639 -0.025213
v -0.126608 0.077552 -0.025213
v -0.147587 0.033195 -0.025213
v -0.164118 -0.013004 -0.025213
v -0.176040 -0.060601 -0.025213
v -0.183240 -0.109138 -0.025213
v -0.037498 0.195407 -0.059868
v -0.070291 0.159050 -0.063097
v -0.099380 0.119639 -0.065962
v -0.124484 0.077552 -0.068435
v -0.145363 0.033195 -0.070491
v -0.161814 -0.013004 -0.072112
v -0.173679 -0.060601 -0.073280
v -0.180844 -0.109138 -0.073986
v -0.032407 0.195407 -0.094188
v -0.064726 0.159050 -0.100617
v -0.093394 0.119639 -0.106319
v -0.118135 0.077552 -0.111240
v -0.138711 0.033195 -0.115333
v -0.154924 -0.013004 -0.118558
v -0.166617 -0.060601 -0.120884
v -0.023977 0.195407 -0.127844
v -0.055510 0.159050 -0.137410
v -0.083481 0.119639 -0.145895
v -0.107620 0.077552 -0.153217
v -0.127696 0.033195 -0.159307
v -0.143515 -0.013004 -0.164106
v -0.154924 -0.060601 -0.167567
v -0.012288 0.195407 -0.160512
v -0.042732 0.159050 -0.173122
v -0.069736 0.119639 -0.184308
v -0.093042 0.077552 -0.193962
v -0.112424 0.033195 -0.201990
v -0.127696 -0.013004 -0.208316
v -0.138711 -0.060601 -0.212878
v 0.002546 0.195407 -0.191877
v -0.026514 0.159050 -0.207410
v -0.052293 0.119639 -0.221189
v -0.074540 0.077552 -0.233081
v -0.093042 0.033195 -0.242970
v -0.107620 -0.013004 -0.250763
v -0.118135 -0.060601 -0.256383
v -0.007015 0.159050 -0.239944
v -0.031318 0.119639 -0.256183
v -0.052293 0.077552 -0.270198
v -0.069736 0.033195 -0.281853
v -0.083481 -0.013004 -0.291037
v 0.015580 0.159050 -0.270409
v -0.007015 0.119639 -0.288953
v -0.026514 0.077552 -0.304956
v -0.042731 0.033195 -0.318265
v -0.055510 -0.013004 -0.328752
v 0.020384 0.119639 -0.319182
v 0.002547 0.077552 -0.337019
v -0.012288 0.033195 -0.351854
v -0.023977 -0.013004 -0.363543
v 0.050613 0.119639 -0.346581
v 0.034610 0.077552 -0.366080
v 0.021301 0.033195 -0.382297
vn -0.5883 0.5549 -0.5883
vn -0.6431 0.5549 -0.5278
vn -0.5784 0.5956 -0.5573
vn -0.0370 -0.9672 -0.2512
vn -0.7079 0.7063 -0.0000
vn -0.7045 0.7063 -0.0694
vn -0.7699 0.6336 -0.0758
vn 0.7798 0.5935 0.1993
vn -0.7958 0.2899 -0.5317
vn -0.8097 0.2430 -0.5341
vn -0.8334 0.2367 -0.4995
vn -0.9239 -0.0000 0.3827
vn -0.9569 -0.0000 0.2903
vn -0.9535 -0.0491 0.2975
vn -0.5219 0.5956 -0.6106
vn 0.7162 -0.3263 0.6169
vn 0.8775 -0.3414 -0.3368
vn -0.4792 0.3623 0.7994
vn -0.5134 0.3821 0.7684
vn -0.5317 0.2899 0.7958
vn -0.5851 0.6136 0.5303
vn -0.5980 0.6336 0.4908
vn -0.6431 0.5549 0.5278
vn -0.6248 0.6851 0.3745
vn -0.6243 0.7063 0.3337
vn -0.6823 0.6336 0.3647
vn -0.9062 0.1948 -0.3754
vn -0.8650 0.1948 -0.4624
vn -0.8754 0.1467 -0.4607
vn -0.6943 0.7063 -0.1381
vn -0.6597 0.7409 -0.1258
vn -0.6446 0.7409 -0.1886
vn -0.6245 0.7409 0.2472
vn -0.6774 0.7063 0.2055
vn -0.6540 0.7063 0.2709
vn 0.6681 0.7345 -0.1194
vn -0.7684 0.3821 -0.5134
vn -0.7143 0.3821 -0.5862
vn -0.4841 0.3365 0.8077
vn -0.5883 0.5549 0.5883
vn -0.5814 0.5956 0.5543
vn -0.6432 0.6336 0.4298
vn -0.6243 0.6715 0.3992
vn -0.8019 -0.0560 0.5948
vn -0.7693 -0.0979 0.6313
vn -0.7730 -0.0000 0.6344
vn -0.8315 -0.0000 0.5556
vn -0.8264 -0.0491 0.5609
vn -0.7398 0.2899 -0.6072
vn -0.7531 0.2430 -0.6113
vn -0.7403 0.6336 -0.2246
vn -0.7147 0.6336 -0.2961
vn -0.7686 0.5549 -0.3184
vn -0.6322 0.7723 0.0623
vn -0.5927 0.8032 0.0594
vn -0.5957 0.8032 0.0023
vn -0.6452 0.7409 0.1863
vn -0.6767 0.2899 -0.6767
vn -0.7068 0.2429 -0.6645
vn -0.7188 0.2427 -0.6515
vn 0.9887 -0.1495 0.0143
vn -0.9063 0.3821 -0.1803
vn -0.8653 0.4708 -0.1721
vn -0.8443 0.4708 -0.2561
vn -0.8151 0.4708 -0.3376
vn -0.7337 0.5549 -0.3922
vn -0.8160 0.5549 0.1623
vn -0.7588 0.6336 0.1509
vn -0.7699 0.6336 0.0758
vn -0.5223 0.4274 0.7379
vn -0.5031 0.2059 0.8394
vn -0.5449 0.1948 0.8155
vn -0.5806 0.1466 0.8009
vn -0.5893 -0.1466 0.7945
vn -0.6313 -0.0979 0.7693
vn -0.6230 -0.1467 0.7683
vn -0.5934 -0.0878 0.8001
vn -0.5597 0.4708 -0.6820
vn -0.5278 0.5549 -0.6431
vn -0.5046 0.5314 -0.6804
vn -0.5197 0.4886 -0.7008
vn -0.4915 0.5140 -0.7030
vn -0.7588 0.6336 -0.1509
vn -0.7961 0.5549 -0.2415
vn -0.4964 0.5140 -0.6996
vn -0.6820 0.4708 -0.5597
vn -0.6239 0.4708 -0.6239
vn -0.6534 0.3821 -0.6534
vn -0.6187 0.3368 -0.7098
vn -0.6390 0.3078 -0.7050
vn -0.5318 0.4507 0.7170
vn -0.5609 0.5140 0.6490
vn -0.5597 0.4708 0.6820
vn -0.6430 0.7487 0.1611
vn -0.6231 0.7723 0.1239
vn -0.6943 0.7063 0.1381
vn -0.8150 0.3821 -0.4356
vn -0.7781 0.4708 -0.4159
vn -0.7336 0.4708 -0.4902
vn -0.5862 0.3821 0.7143
vn -0.6072 0.2899 0.7398
vn -0.6222 0.1948 0.7582
vn -0.6313 0.0979 0.7693
vn -0.5957 0.0104 0.8032
vn -0.6344 -0.0000 0.7730
vn -0.5862 0.3821 -0.7143
vn -0.6823 0.6336 -0.3647
vn -0.6243 0.7063 -0.3337
vn -0.6273 0.6820 -0.3760
vn -0.8780 0.4708 -0.0865
vn -0.8279 0.5549 -0.0815
vn -0.8160 0.5549 -0.1623
vn -0.5675 0.5347 0.6261
vn -0.8441 0.2899 -0.4512
vn -0.5979 0.7409 0.3059
vn -0.6239 0.4708 0.6239
vn -0.6534 0.3821 0.6534
vn -0.6768 0.2899 0.6767
vn -0.6936 0.1948 0.6936
vn -0.7037 0.0979 0.7037
vn -0.7071 -0.0000 0.7071
vn -0.7037 -0.0979 0.7037
vn -0.6950 -0.1467 0.7039
vn -0.5831 0.6715 0.4573
vn -0.5922 0.1084 0.7985
vn -0.9904 0.0979 0.0975
vn -0.9761 0.1948 0.0961
vn -0.9808 0.1948 -0.0000
vn -0.6820 0.4708 0.5597
vn -0.9620 0.1948 -0.1914
vn -0.9386 0.1948 -0.2847
vn -0.9486 0.1467 -0.2803
vn -0.7143 0.3821 0.5862
vn -0.5843 0.8032 0.1160
vn -0.7398 0.2899 0.6072
vn -0.7582 0.1948 0.6222
vn -0.7693 0.0979 0.6313
vn -0.7603 -0.1467 0.6328
vn -0.6917 0.5549 0.4622
vn -0.7336 0.4708 0.4902
vn -0.4903 0.3009 0.8180
vn -0.7684 0.3821 0.5134
vn -0.9761 0.1948 -0.0961
vn -0.9716 0.1467 -0.1856
vn -0.7958 0.2899 0.5317
vn -0.8155 0.1948 0.5449
vn -0.8275 0.0979 0.5529
vn -0.6774 0.7063 -0.2055
vn -0.6235 0.7409 -0.2496
vn -0.8441 0.2899 0.4512
vn -0.8650 0.1948 0.4624
vn -0.8777 0.0979 0.4691
vn -0.8819 -0.0000 0.4714
vn -0.8773 -0.0491 0.4775
vn -0.6540 0.7063 -0.2709
vn -0.5966 0.7409 -0.3084
vn -0.7337 0.5549 0.3922
vn -0.7781 0.4708 0.4159
vn -0.8150 0.3821 0.4356
vn -0.9062 0.1948 0.3754
vn -0.9194 0.0979 0.3808
vn -0.9198 -0.0491 0.3894
vn -0.7147 0.6336 0.2961
vn -0.7686 0.5549 0.3184
vn -0.8151 0.4708 0.3376
vn -0.8538 0.3821 0.3536
vn -0.6432 0.6336 -0.4298
vn -0.8842 0.2899 0.3663
vn -0.7403 0.6336 0.2246
vn -0.7961 0.5549 0.2415
vn -0.8443 0.4708 0.2561
vn -0.8843 0.3821 0.2683
vn -0.5458 0.4007 -0.7359
vn -0.9159 0.2899 0.2778
vn -0.9386 0.1948 0.2847
vn -0.9523 0.0979 0.2889
vn -0.8653 0.4708 0.1721
vn -0.9063 0.3821 0.1803
vn -0.9387 0.2899 0.1867
vn -0.9620 0.1948 0.1914
vn -0.9761 0.0979 0.1942
vn -0.9692 0.0411 0.2428
vn -0.7045 0.7063 0.0694
vn -0.8279 0.5549 0.0815
vn -0.8780 0.4708 0.0865
vn -0.9197 0.3821 0.0906
vn -0.9525 0.2899 0.0938
vn -0.9932 0.0491 0.1059
vn -0.9780 0.0491 0.2027
vn -0.7736 0.6336 -0.0000
vn -0.8319 0.5549 -0.0000
vn -0.8823 0.4708 -0.0000
vn 0.4623 -0.5215 -0.7172
vn -0.9241 0.3821 -0.0000
vn -0.9571 0.2899 -0.0000
vn -0.9952 0.0979 -0.0000
vn -0.9988 0.0491 0.0079
vn -0.6353 0.7723 -0.0000
vn -0.9197 0.3821 -0.0906
vn -0.9525 0.2899 -0.0938
vn -0.9904 0.0979 -0.0975
vn -0.9947 0.0491 -0.0902
vn -0.9796 0.1390 -0.1453
vn -0.9387 0.2899 -0.1867
vn -0.8843 0.3821 -0.2683
vn -0.9159 0.2899 -0.2778
vn -0.8538 0.3821 -0.3536
vn -0.8842 0.2899 -0.3663
vn -0.9165 0.1467 -0.3723
vn -0.6917 0.5549 -0.4622
vn -0.5980 0.6336 -0.4908
vn -0.5874 0.6096 -0.5323
vn -0.4411 0.5136 -0.7359
vn -0.5808 0.6715 -0.4602
vn -0.6224 0.6715 -0.4021
vn -0.6676 0.7438 -0.0328
vn -0.6687 0.7409 -0.0619
vn -0.5783 0.8029 0.1449
vt 0.875000 0.687500
vt 0.890625 0.687500
vt 0.875000 0.711396
vt 2.224209 2.287850
vt 2.210169 2.306341
vt 2.379313 2.331827
vt 2.177193 2.366289
vt 2.165227 2.398448
vt 2.231035 2.279266
vt 2.181271 2.632022
vt 2.196692 2.662122
vt 2.381391 2.636514
vt 1.000000 0.750000
vt 0.984375 0.750000
vt 0.984375 0.718750
vt 2.192225 2.335491
vt 2.254729 2.254729
vt 2.280584 2.232641
vt 2.285154 2.434827
vt 2.284822 2.410870
vt 2.408747 2.550746
vt 0.906250 0.593750
vt 0.906250 0.564662
vt 0.911751 0.562567
vt 2.168771 2.600477
vt 2.393311 2.593739
vt 0.062500 0.500000
vt 0.046875 0.500000
vt 0.046875 0.496974
vt 0.859375 0.693425
vt 2.307005 2.211163
vt 2.304646 2.211752
vt 2.394759 2.293822
vt 2.393862 2.690584
vt 2.407881 2.648134
vt 0.163720 0.625135
vt 0.156250 0.625000
vt 0.156250 0.593750
vt 0.110946 0.718818
vt 0.109375 0.718750
vt 0.109375 0.687500
vt 0.083480 0.750173
vt 0.078125 0.750000
vt 0.078125 0.718750
vt 0.937500 0.562500
vt 0.921875 0.562500
vt 0.921875 0.558520
vt 2.161972 2.410773
vt 0.968750 0.750000
vt 0.968750 0.774706
vt 0.953125 0.768704
vt 0.062500 0.767905
vt 0.046875 0.750000
vt 0.062500 0.750000
vt 2.282906 2.616040
vt 2.279678 2.591261
vt 2.277744 2.567421
vt 2.276998 2.544358
vt 0.906250 0.625000
vt 0.890625 0.625000
vt 0.170471 0.609667
vt 2.318039 2.209332
vt 2.333570 2.209741
vt 0.125000 0.687500
vt 0.125000 0.698523
vt 0.093750 0.718750
vt 0.093750 0.739634
vt 2.322165 2.729987
vt 2.317845 2.721956
vt 2.215058 2.690392
vt 2.236246 2.716458
vt 2.294008 2.217546
vt 2.285573 2.225898
vt 0.104358 0.468717
vt 0.109375 0.468750
vt 0.109375 0.500000
vt 0.093750 0.500000
vt 0.093750 0.473609
vt 0.890625 0.593750
vt 0.890625 0.570248
vt 0.953125 0.718750
vt 0.937500 0.718750
vt 0.937500 0.687500
vt 2.287858 2.358251
vt 0.015625 0.781250
vt 0.015625 0.784019
vt 0.000000 0.782279
vt 2.288310 2.641447
vt 2.283569 2.619723
vt 0.046875 0.778214
vt 0.875000 0.593750
vt 0.875000 0.578026
vt 0.876051 0.574913
vt 0.968750 0.625000
vt 0.968750 0.656250
vt 0.953125 0.656250
vt 0.937500 0.656250
vt 0.921875 0.687500
vt 0.031250 0.687500
vt 0.031250 0.718750
vt 0.015625 0.718750
vt 2.285446 2.385319
vt 0.156250 0.641359
vt 2.153268 2.534150
vt 2.154493 2.541763
vt 0.160981 0.562562
vt 0.156250 0.562500
vt 0.156250 0.537033
vt 0.141705 0.453173
vt 0.140625 0.468750
vt 0.140625 0.453578
vt 0.144346 0.468723
vt 0.859375 0.656250
vt 0.859375 0.687500
vt 0.854757 0.687648
vt 0.844953 0.656295
vt 0.843750 0.673051
vt 0.968750 0.718750
vt 0.953125 0.687500
vt 0.843750 0.658975
vt 0.890625 0.656250
vt 0.875000 0.656250
vt 0.875000 0.625000
vt 0.859375 0.621394
vt 0.869522 0.593847
vt 0.148875 0.656409
vt 0.140625 0.672097
vt 0.140625 0.656250
vt 0.041190 0.781424
vt 0.031250 0.781250
vt 0.031250 0.750000
vt 0.921875 0.625000
vt 0.921875 0.656250
vt 0.906250 0.656250
vt 0.140625 0.625000
vt 0.140625 0.593750
vt 0.140625 0.562500
vt 0.140625 0.531250
vt 0.149714 0.500000
vt 0.140625 0.500000
vt 0.859375 0.625000
vt 0.921875 0.718750
vt 0.921875 0.750000
vt 0.919583 0.750096
vt 0.984375 0.656250
vt 0.984375 0.687500
vt 0.968750 0.687500
vt 0.131719 0.687674
vt 0.921875 0.593750
vt 0.078125 0.755161
vt 0.125000 0.656250
vt 0.125000 0.625000
vt 0.125000 0.593750
vt 0.125000 0.562500
vt 0.125000 0.531250
vt 0.125000 0.500000
vt 0.125000 0.468750
vt 0.125000 0.459768
vt 0.109375 0.720896
vt 0.155204 0.531259
vt 1.015625 0.531250
vt 1.015625 0.562500
vt 1.000000 0.562500
vt 0.109375 0.656250
vt 0.968750 0.562500
vt 0.953125 0.562500
vt 0.953125 0.544771
vt 0.109375 0.625000
vt 0.031250 0.784420
vt 0.109375 0.593750
vt 0.109375 0.562500
vt 0.109375 0.531250
vt 0.109375 0.466462
vt 0.093750 0.687500
vt 0.093750 0.656250
vt 0.167141 0.593840
vt 0.093750 0.625000
vt 0.984375 0.562500
vt 0.968750 0.537286
vt 0.093750 0.593750
vt 0.093750 0.562500
vt 0.093750 0.531250
vt 0.953125 0.750000
vt 0.937500 0.761063
vt 0.078125 0.593750
vt 2.277364 2.521928
vt 0.078125 0.562500
vt 0.078125 0.531250
vt 0.078125 0.500000
vt 0.078125 0.481133
vt 0.937500 0.750000
vt 0.921875 0.751627
vt 0.078125 0.687500
vt 0.078125 0.656250
vt 2.278318 2.507249
vt 2.278872 2.500000
vt 0.078125 0.625000
vt 0.062500 0.562500
vt 0.062500 0.531250
vt 0.062500 0.488949
vt 0.062500 0.718750
vt 0.062500 0.687500
vt 0.062500 0.656250
vt 0.062500 0.625000
vt 0.906250 0.718750
vt 0.062500 0.593750
vt 0.046875 0.718750
vt 0.046875 0.687500
vt 0.046875 0.656250
vt 0.046875 0.625000
vt 0.857960 0.625045
vt 0.046875 0.593750
vt 0.046875 0.562500
vt 0.046875 0.531250
vt 0.031250 0.656250
vt 0.031250 0.625000
vt 2.300387 2.682150
vt 0.031250 0.593750
vt 0.031250 0.562500
vt 0.031250 0.531250
vt 0.041074 0.500000
vt 0.015625 0.750000
vt 0.015625 0.687500
vt 0.015625 0.656250
vt 0.015625 0.625000
vt 0.015625 0.593750
vt 0.015625 0.562500
vt 0.015625 0.531250
vt 0.015625 0.513342
vt 0.031250 0.505137
vt 0.000000 0.718750
vt 0.000000 0.687500
vt 1.015625 0.656250
vt 1.000000 0.687500
vt 1.000000 0.656250
vt 2.329367 2.755370
vt 2.338469 2.755280
vt 1.015625 0.625000
vt 1.000000 0.625000
vt 1.000000 0.593750
vt 1.015625 0.593750
vt 1.000000 0.531250
vt 1.000000 0.521490
vt 1.015625 0.513342
vt 1.015625 0.750000
vt 1.000000 0.781250
vt 0.984375 0.625000
vt 0.984375 0.593750
vt 0.984375 0.531250
vt 0.984375 0.529494
vt 1.000000 0.718750
vt 2.258099 2.738726
vt 2.260200 2.739800
vt 0.980855 0.531276
vt 0.968750 0.593750
vt 2.271710 2.744571
vt 2.294016 2.750992
vt 2.297175 2.751673
vt 2.326635 2.755261
vt 0.000000 0.781250
vt 0.953125 0.625000
vt 0.953125 0.593750
vt 0.937500 0.625000
vt 0.937500 0.593750
vt 0.937500 0.551872
vt 2.342396 2.211297
vt 2.309861 2.268315
vt 2.317026 2.251866
vt 2.324623 2.237530
vt 2.333366 2.223338
vt 0.906250 0.687500
vt 2.282510 2.231290
vt 2.286216 2.451343
vt 2.285596 2.443238
vt 2.286016 2.376194
vt 2.305283 2.694717
vt 2.292654 2.326383
vt 2.299327 2.299327
vt 2.303322 2.285974
vt 2.281467 2.478476
vt 2.284977 2.457229
vt 2.292085 2.329369
vt 0.890625 0.718750
vt 2.333785 2.748759
vt 2.152402 2.465765
vt 2.151159 2.500000
vt 2.295568 2.667773
vt 2.159334 2.567763
vt 2.156997 2.431773
vt 0.882275 0.718937
vt 2.208478 2.680538
vt 0.839789 0.667529
vt 0.890625 0.726998
vt 0.906250 0.740371
vt 0.994798 0.781417
vt 0.984375 0.779195
vt 1.000000 0.782279
vt 0.035617 0.784312
s 1
f 212/1/1 208/2/2 45/3/3
s 0
f 37/4/4 21/5/4 13/6/4
f 39/7/4 40/8/4 13/6/4
f 20/9/4 37/4/4 13/6/4
f 67/10/4 68/11/4 2/12/4
s 1
f 158/13/5 166/14/6 167/15/7
s 0
f 21/5/4 38/16/4 13/6/4
f 19/17/4 13/6/4 18/18/4
f 34/19/8 33/20/8 36/21/8
s 1
f 206/22/9 69/23/10 70/24/11
s 0
f 64/25/4 67/10/4 3/26/4
s 1
f 129/27/12 138/28/13 40/29/14
f 212/1/1 45/3/3 43/30/15
s 0
f 6/31/16 10/32/16 5/33/16
f 2/12/17 28/34/17 4/35/17
s 1
f 16/36/18 71/37/19 72/38/20
s 0
f 2/12/17 4/35/17 3/26/17
s 1
f 26/39/21 93/40/22 94/41/23
f 32/42/24 112/43/25 113/44/26
f 194/45/27 201/46/28 68/47/29
s 0
f 40/8/4 56/48/4 13/6/4
s 1
f 174/49/30 52/50/31 51/51/32
f 33/52/33 130/53/34 121/54/35
s 0
f 49/55/36 50/56/36 36/21/36
f 51/57/36 52/58/36 36/21/36
s 1
f 206/22/9 205/59/37 210/60/38
f 1/61/39 16/36/18 72/38/20
s 0
f 8/62/16 5/33/16 7/63/16
s 1
f 94/41/23 84/64/40 23/65/41
f 113/44/26 103/66/42 27/67/43
f 23/65/41 26/39/21 94/41/23
s 0
f 41/68/36 43/69/36 28/34/36
f 69/70/4 74/71/4 2/12/4
f 10/32/16 11/72/16 13/6/16
f 11/72/16 9/73/16 13/6/16
f 13/6/16 5/33/16 10/32/16
s 1
f 37/74/44 101/75/45 100/76/46
f 110/77/47 21/78/48 37/74/44
f 206/22/9 211/79/49 74/80/50
f 182/81/51 189/82/52 190/83/53
s 0
f 5/33/8 36/21/8 27/84/8
s 1
f 148/85/54 60/86/55 59/87/56
s 0
f 48/88/36 47/89/36 36/21/36
f 36/21/36 4/35/36 48/88/36
s 1
f 33/52/33 34/90/57 130/53/34
f 100/76/46 110/77/47 37/74/44
f 211/79/49 215/91/58 65/92/59
f 14/93/60 74/80/50 211/79/49
f 27/67/43 32/42/24 113/44/26
s 0
f 36/21/61 5/33/61 13/6/61
s 1
f 178/94/62 177/95/63 184/96/64
f 191/97/65 190/83/53 197/98/66
f 211/79/49 65/92/59 14/93/60
f 142/99/67 141/100/68 150/101/69
s 0
f 33/20/8 30/102/8 36/21/8
s 1
f 16/36/18 15/103/70 71/37/19
s 0
f 61/104/4 63/105/4 3/26/4
s 1
f 8/106/71 72/38/20 73/107/72
f 6/108/73 8/106/71 73/107/72
f 12/109/74 81/110/75 18/111/76
f 12/109/74 9/112/77 81/110/75
f 217/113/78 216/114/79 41/115/80
f 102/116/81 217/113/78 42/117/82
f 175/118/83 182/81/51 183/119/84
f 42/117/82 92/120/85 102/116/81
f 210/60/38 209/121/86 213/122/87
f 214/123/88 82/124/89 83/125/90
f 22/126/91 17/127/92 75/128/93
f 35/129/94 139/130/95 140/131/96
f 199/132/97 198/133/98 204/134/99
f 72/38/20 76/135/100 77/136/101
f 72/38/20 78/137/102 73/107/72
f 79/138/103 6/108/73 78/137/102
f 11/139/104 79/138/103 80/140/105
f 9/112/77 80/140/105 81/110/75
f 214/123/88 218/141/106 82/124/89
f 34/90/57 35/129/94 140/131/96
f 196/142/107 195/143/108 47/144/109
f 140/131/96 130/53/34 34/90/57
f 169/145/110 168/146/111 176/147/112
f 24/148/113 23/65/41 84/64/40
f 130/53/34 140/131/96 141/100/68
f 70/24/11 201/46/28 200/149/114
f 30/150/115 121/54/35 112/43/25
f 76/135/100 85/151/116 86/152/117
f 77/136/101 86/152/117 87/153/118
f 77/136/101 88/154/119 78/137/102
f 79/138/103 88/154/119 89/155/120
f 80/140/105 89/155/120 90/156/121
f 80/140/105 91/157/122 81/110/75
f 81/110/75 19/158/123 18/111/76
f 83/125/90 215/91/58 214/123/88
f 9/112/77 11/139/104 80/140/105
f 26/39/21 25/159/124 93/40/22
f 11/139/104 10/160/125 79/138/103
f 209/121/86 208/2/2 212/1/1
f 156/161/126 155/162/127 164/163/128
f 85/151/116 94/41/23 95/164/129
f 180/165/130 187/166/131 64/167/132
f 86/152/117 95/164/129 96/168/133
f 139/130/95 66/169/134 60/86/55
f 86/152/117 97/170/135 87/153/118
f 87/153/118 98/171/136 88/154/119
f 89/155/120 98/171/136 99/172/137
f 90/156/121 99/172/137 100/76/46
f 90/156/121 101/75/45 91/157/122
f 91/157/122 20/173/138 19/158/123
f 72/38/20 77/136/101 78/137/102
f 10/160/125 6/108/73 79/138/103
f 6/108/73 73/107/72 78/137/102
f 81/110/75 91/157/122 19/158/123
f 95/164/129 104/174/139 105/175/140
f 8/106/71 7/176/141 72/38/20
f 96/168/133 105/175/140 106/177/142
f 172/178/143 180/165/130 62/179/144
f 96/168/133 107/180/145 97/170/135
f 25/159/124 103/66/42 93/40/22
f 97/170/135 108/181/146 98/171/136
f 99/172/137 108/181/146 109/182/147
f 100/76/46 109/182/147 110/77/47
f 76/135/100 75/128/93 85/151/116
f 20/173/138 101/75/45 37/74/44
f 77/136/101 87/153/118 88/154/119
f 79/138/103 78/137/102 88/154/119
f 80/140/105 79/138/103 89/155/120
f 80/140/105 90/156/121 91/157/122
f 181/183/148 51/51/32 50/184/149
f 85/151/116 84/64/40 94/41/23
f 93/40/22 104/174/139 94/41/23
f 24/148/113 84/64/40 85/151/116
f 106/177/142 117/185/150 107/180/145
s 0
f 52/58/36 54/186/36 36/21/36
s 1
f 107/180/145 118/187/151 108/181/146
f 109/182/147 118/187/151 119/188/152
f 110/77/47 119/188/152 120/189/153
f 110/77/47 38/190/154 21/78/48
f 86/152/117 96/168/133 97/170/135
f 87/153/118 97/170/135 98/171/136
f 89/155/120 88/154/119 98/171/136
f 90/156/121 89/155/120 99/172/137
f 90/156/121 100/76/46 101/75/45
f 188/191/155 50/184/149 49/192/156
f 95/164/129 94/41/23 104/174/139
f 103/66/42 114/193/157 104/174/139
f 91/157/122 101/75/45 20/173/138
f 105/175/140 114/193/157 115/194/158
s 0
f 53/195/36 59/196/36 36/21/36
s 1
f 106/177/142 115/194/158 116/197/159
f 119/188/152 127/198/160 128/199/161
f 120/189/153 128/199/161 129/27/12
f 120/189/153 39/200/162 38/190/154
f 96/168/133 106/177/142 107/180/145
f 25/159/124 27/67/43 103/66/42
f 97/170/135 107/180/145 108/181/146
f 99/172/137 98/171/136 108/181/146
f 100/76/46 99/172/137 109/182/147
f 112/43/25 122/201/163 113/44/26
f 93/40/22 103/66/42 104/174/139
f 113/44/26 123/202/164 114/193/157
f 17/127/92 24/148/113 85/151/116
f 115/194/158 123/202/164 124/203/165
f 85/151/116 75/128/93 17/127/92
f 116/197/159 124/203/165 125/204/166
f 197/98/66 196/142/107 202/205/167
f 117/185/150 125/204/166 126/206/168
f 22/126/91 75/128/93 76/135/100
f 117/185/150 127/198/160 118/187/151
f 129/27/12 40/29/14 39/200/162
f 107/180/145 117/185/150 118/187/151
f 109/182/147 108/181/146 118/187/151
f 110/77/47 109/182/147 119/188/152
f 110/77/47 120/189/153 38/190/154
f 103/66/42 113/44/26 114/193/157
f 121/54/35 131/207/169 122/201/163
f 105/175/140 104/174/139 114/193/157
f 122/201/163 132/208/170 123/202/164
f 119/188/152 118/187/151 127/198/160
f 124/203/165 132/208/170 133/209/171
f 106/177/142 105/175/140 115/194/158
f 125/204/166 133/209/171 134/210/172
f 217/113/78 111/211/173 218/141/106
f 125/204/166 135/212/174 126/206/168
s 0
f 8/62/16 6/31/16 5/33/16
s 1
f 126/206/168 136/213/175 127/198/160
f 128/199/161 136/213/175 137/214/176
f 129/27/12 137/214/176 138/28/13
f 113/44/26 122/201/163 123/202/164
f 115/194/158 114/193/157 123/202/164
f 116/197/159 115/194/158 124/203/165
f 117/185/150 116/197/159 125/204/166
f 130/53/34 141/100/68 131/207/169
f 76/135/100 71/37/19 15/103/70
f 131/207/169 142/99/67 132/208/170
f 117/185/150 126/206/168 127/198/160
f 133/209/171 142/99/67 143/215/177
f 15/103/70 22/126/91 76/135/100
f 134/210/172 143/215/177 144/216/178
s 0
f 4/35/36 28/34/36 44/217/36
s 1
f 134/210/172 145/218/179 135/212/174
f 135/212/174 146/219/180 136/213/175
f 137/214/176 146/219/180 147/220/181
f 120/189/153 119/188/152 128/199/161
f 40/29/14 138/28/13 56/221/182
f 112/43/25 121/54/35 122/201/163
f 217/113/78 102/116/81 111/211/173
f 140/131/96 148/85/54 149/222/183
f 125/204/166 134/210/172 135/212/174
f 140/131/96 150/101/69 141/100/68
f 126/206/168 135/212/174 136/213/175
f 142/99/67 150/101/69 151/223/184
f 129/27/12 128/199/161 137/214/176
f 143/215/177 151/223/184 152/224/185
f 128/199/161 127/198/160 136/213/175
f 144/216/178 152/224/185 153/225/186
f 145/218/179 153/225/186 154/226/187
f 145/218/179 155/227/127 146/219/180
f 147/220/181 155/227/127 156/228/126
f 147/220/181 57/229/188 55/230/189
f 121/54/35 130/53/34 131/207/169
f 122/201/163 131/207/169 132/208/170
f 124/203/165 123/202/164 132/208/170
f 125/204/166 124/203/165 133/209/171
f 149/222/183 159/231/190 150/101/69
f 140/131/96 139/130/95 148/85/54
f 150/101/69 160/232/191 151/223/184
f 143/215/177 142/99/67 151/223/184
f 152/233/185 160/234/191 161/235/192
s 0
f 92/236/193 31/237/193 28/34/193
s 1
f 153/238/186 161/235/192 162/239/194
f 153/238/186 163/240/195 154/241/187
f 154/241/187 164/163/128 155/162/127
f 156/161/126 164/163/128 165/242/196
f 156/161/126 58/243/197 57/244/188
f 131/207/169 141/100/68 142/99/67
f 133/209/171 132/208/170 142/99/67
f 134/210/172 133/209/171 143/215/177
f 134/210/172 144/216/178 145/218/179
f 135/212/174 145/218/179 146/219/180
f 149/245/183 157/246/198 158/13/5
f 137/214/176 136/213/175 146/219/180
f 161/235/192 168/146/111 169/145/110
f 140/131/96 149/222/183 150/101/69
f 162/239/194 169/145/110 170/247/199
f 163/240/195 170/247/199 171/248/200
f 163/240/195 172/178/143 164/163/128
f 165/242/196 172/178/143 173/249/201
f 165/242/196 61/250/202 58/243/197
f 145/218/179 144/216/178 153/225/186
f 145/218/179 154/226/187 155/227/127
f 147/220/181 146/219/180 155/227/127
f 147/220/181 156/228/126 57/229/188
f 149/245/183 158/13/5 159/251/190
f 150/101/69 159/231/190 160/232/191
f 158/13/5 167/15/7 159/251/190
s 0
f 2/12/193 14/252/193 65/253/193
s 1
f 159/251/190 168/146/111 160/234/191
f 172/178/143 62/179/144 63/254/203
f 171/248/200 178/94/62 179/255/204
f 171/248/200 180/165/130 172/178/143
s 0
f 83/256/193 2/12/193 65/253/193
s 1
f 61/250/202 173/249/201 63/254/203
s 0
f 82/257/193 111/258/193 28/34/193
f 111/258/193 102/259/193 28/34/193
f 102/259/193 92/236/193 28/34/193
s 1
f 153/238/186 152/233/185 161/235/192
f 153/238/186 162/239/194 163/240/195
f 156/161/126 165/242/196 58/243/197
f 166/14/6 175/118/83 167/15/7
f 149/222/183 148/85/54 157/260/198
f 167/15/7 176/147/112 168/146/111
f 152/224/185 151/223/184 160/232/191
f 169/145/110 176/147/112 177/95/63
f 144/216/178 143/215/177 152/224/185
f 170/247/199 177/95/63 178/94/62
f 180/165/130 64/167/132 62/179/144
f 161/235/192 160/234/191 168/146/111
f 162/239/194 161/235/192 169/145/110
f 163/240/195 162/239/194 170/247/199
f 163/240/195 171/248/200 172/178/143
f 165/242/196 164/163/128 172/178/143
f 159/251/190 167/15/7 168/146/111
f 147/220/181 55/230/189 56/221/182
f 174/49/30 182/81/51 175/118/83
f 154/241/187 163/240/195 164/163/128
f 175/118/83 183/119/84 176/147/112
f 177/95/63 183/119/84 184/96/64
s 0
f 83/256/193 82/257/193 28/34/193
s 1
f 178/94/62 184/96/64 185/261/205
f 179/255/204 185/261/205 186/262/206
f 179/255/204 187/166/131 180/165/130
f 96/168/133 95/164/129 105/175/140
f 165/242/196 173/249/201 61/250/202
f 181/183/148 189/82/52 182/81/51
f 77/136/101 76/135/100 86/152/117
f 182/81/51 190/83/53 183/119/84
f 86/152/117 85/151/116 95/164/129
f 184/96/64 190/83/53 191/97/65
f 185/261/205 191/97/65 192/263/207
f 186/262/206 192/263/207 193/264/208
f 186/262/206 194/45/27 187/166/131
f 187/166/131 67/265/209 64/167/132
f 171/248/200 170/247/199 178/94/62
f 171/248/200 179/255/204 180/165/130
f 166/14/6 174/49/30 175/118/83
f 170/247/199 169/145/110 177/95/63
f 106/177/142 116/197/159 117/185/150
f 185/261/205 184/96/64 191/97/65
f 189/82/52 197/98/66 190/83/53
s 0
f 5/33/16 1/266/16 7/63/16
s 1
f 191/97/65 197/98/66 198/133/98
f 192/263/207 198/133/98 199/132/97
f 192/263/207 200/149/114 193/264/208
f 193/264/208 201/46/28 194/45/27
f 194/45/27 68/47/29 67/265/209
f 56/221/182 138/28/13 137/214/176
f 137/214/176 147/220/181 56/221/182
f 177/95/63 176/147/112 183/119/84
f 72/38/20 71/37/19 76/135/100
f 167/15/7 175/118/83 176/147/112
f 200/149/114 206/22/9 70/24/11
s 0
f 17/267/8 22/268/8 5/33/8
s 1
f 188/191/155 196/142/107 189/82/52
f 199/132/97 204/134/99 205/59/37
f 199/132/97 206/22/9 200/149/114
f 179/255/204 178/94/62 185/261/205
f 68/47/29 201/46/28 70/24/11
f 184/96/64 183/119/84 190/83/53
s 0
f 13/6/61 3/26/61 36/21/61
f 3/26/61 4/35/61 36/21/61
s 1
f 174/49/30 181/183/148 182/81/51
f 192/263/207 191/97/65 198/133/98
f 192/263/207 199/132/97 200/149/114
s 0
f 15/269/8 16/270/8 5/33/8
s 1
f 197/98/66 202/205/167 203/271/210
s 0
f 9/73/16 12/272/16 13/6/16
s 1
f 198/133/98 203/271/210 204/134/99
f 206/22/9 74/80/50 69/23/10
f 189/82/52 196/142/107 197/98/66
s 0
f 16/270/8 1/266/8 5/33/8
s 1
f 181/183/148 188/191/155 189/82/52
s 0
f 15/269/8 5/33/8 22/268/8
f 36/21/8 29/273/8 35/274/8
f 35/274/8 34/19/8 36/21/8
f 30/102/8 32/275/8 36/21/8
f 45/276/36 28/34/36 43/69/36
s 1
f 193/264/208 200/149/114 201/46/28
f 202/205/167 208/2/2 203/271/210
f 204/134/99 208/2/2 209/121/86
f 205/59/37 209/121/86 210/60/38
f 206/22/9 210/60/38 211/79/49
f 186/262/206 193/264/208 194/45/27
s 0
f 26/277/8 23/278/8 5/33/8
f 23/278/8 24/279/8 5/33/8
f 24/279/8 17/267/8 5/33/8
s 1
f 199/132/97 205/59/37 206/22/9
f 72/38/20 7/176/141 1/61/39
s 0
f 60/280/36 66/281/36 36/21/36
s 1
f 209/121/86 212/1/1 213/122/87
f 210/60/38 213/122/87 214/123/88
f 211/79/49 214/123/88 215/91/58
s 0
f 32/275/8 27/84/8 36/21/8
f 27/84/8 25/282/8 5/33/8
f 60/280/36 36/21/36 59/196/36
s 1
f 187/166/131 194/45/27 67/265/209
s 0
f 25/282/8 26/277/8 5/33/8
s 1
f 188/191/155 195/143/108 196/142/107
f 42/117/82 217/113/78 41/115/80
f 213/122/87 216/114/79 217/113/78
f 214/123/88 217/113/78 218/141/106
f 198/133/98 197/98/66 203/271/210
f 65/92/59 215/91/58 83/125/90
f 202/205/167 207/283/211 208/2/2
f 204/134/99 203/271/210 208/2/2
f 205/59/37 204/134/99 209/121/86
f 211/79/49 210/60/38 214/123/88
f 63/254/203 173/249/201 172/178/143
s 0
f 42/284/36 41/68/36 28/34/36
s 1
f 82/124/89 218/141/106 111/211/173
s 0
f 45/276/36 44/217/36 28/34/36
f 47/89/36 49/55/36 36/21/36
f 57/285/4 58/286/4 3/26/4
s 1
f 120/189/153 129/27/12 39/200/162
s 0
f 28/34/193 2/12/193 83/256/193
f 29/273/36 36/21/36 66/281/36
s 1
f 213/122/87 212/1/1 216/114/79
f 214/123/88 213/122/87 217/113/78
s 0
f 58/286/4 61/104/4 3/26/4
f 46/287/36 48/88/36 4/35/36
f 63/105/4 62/288/4 3/26/4
f 62/288/4 64/25/4 3/26/4
f 3/26/4 67/10/4 2/12/4
s 1
f 30/150/115 33/52/33 121/54/35
s 0
f 50/56/36 51/57/36 36/21/36
f 74/71/4 14/252/4 2/12/4
f 3/26/4 13/6/4 55/289/4
f 13/6/4 12/272/4 18/18/4
f 19/17/4 20/9/4 13/6/4
f 38/16/4 39/7/4 13/6/4
s 1
f 208/2/2 207/283/211 44/290/212
s 0
f 55/289/4 57/285/4 3/26/4
s 1
f 186/262/206 185/261/205 192/263/207
s 0
f 56/48/4 55/289/4 13/6/4
f 68/11/4 70/291/4 2/12/4
f 54/186/36 53/195/36 36/21/36
f 70/291/4 69/70/4 2/12/4
f 28/34/36 31/237/36 42/284/36
s 1
f 92/120/85 42/117/82 31/292/213
f 216/114/79 43/30/15 41/115/80
f 45/3/3 208/2/2 44/290/212
f 212/1/1 43/30/15 216/114/79
f 207/283/211 46/293/214 44/290/212
f 48/294/215 196/142/107 47/144/109
f 202/205/167 46/293/214 207/283/211
f 195/143/108 49/192/156 47/144/109
f 188/191/155 49/192/156 195/143/108
f 181/183/148 50/184/149 188/191/155
f 174/49/30 51/51/32 181/183/148
f 53/295/216 54/296/217 166/14/6
f 166/14/6 52/50/31 174/49/30
f 157/246/198 59/297/56 53/295/216
f 148/85/54 59/87/56 157/260/198
f 139/130/95 60/86/55 148/85/54
f 29/298/218 139/130/95 35/129/94
f 179/255/204 186/262/206 187/166/131
f 32/42/24 30/150/115 112/43/25
f 166/14/6 158/13/5 53/295/216
f 202/205/167 196/142/107 48/294/215
f 202/205/167 48/294/215 46/293/214
f 158/13/5 157/246/198 53/295/216
f 166/14/6 54/296/217 52/50/31
f 29/298/218 66/169/134 139/130/95
s 0
f 44/217/36 46/287/36 4/35/36
