# Blender 5.1.2
# www.blender.org
o moon_piece_10
v 0.055058 -0.165786 0.269747
v 0.119677 0.122609 0.219106
v 0.139674 0.219018 -0.155054
v -0.018613 0.090600 0.362730
v 0.178981 0.025682 0.150850
v 0.153486 -0.033312 0.174131
v -0.000355 -0.027561 0.336395
v 0.054992 -0.251954 -0.165251
v 0.193307 -0.047684 -0.101332
v -0.053487 0.280202 -0.362178
v -0.010261 0.018639 0.349604
v 0.012697 -0.071918 0.319987
v -0.016926 0.066236 0.359487
v 0.047703 -0.153416 0.278234
v 0.028767 -0.114004 0.300538
v -0.021365 0.091207 0.360801
v -0.058300 0.100815 0.329246
v -0.092149 0.111214 0.294193
v -0.121958 0.122400 0.255514
v -0.101901 0.114772 0.281930
v -0.147592 0.134196 0.213872
v -0.169066 0.146445 0.169874
v -0.186160 0.159030 0.123933
v -0.197917 0.171844 0.076327
v -0.190811 0.163781 0.106327
v -0.204482 0.184707 0.027767
v -0.206258 0.197477 -0.021141
v -0.203244 0.210032 -0.069927
v -0.194579 0.222171 -0.117945
v -0.201494 0.212789 -0.080803
v -0.181098 0.233793 -0.164680
v -0.163240 0.244813 -0.209744
v -0.141210 0.255138 -0.252743
v -0.114973 0.264622 -0.293130
v 0.083489 -0.268739 0.116107
v 0.122645 0.235540 -0.216162
v 0.059637 -0.255701 -0.160856
v 0.055230 -0.167920 0.267469
v 0.062664 -0.216148 0.208281
v 0.057568 -0.189773 0.242890
v -0.124373 0.261326 -0.279052
v -0.084705 0.273135 -0.330366
v 0.012790 -0.205766 -0.207761
v 0.026194 -0.222724 -0.193774
v 0.200878 -0.042138 -0.065832
v 0.072522 -0.247316 0.159051
v 0.064167 -0.222724 0.199148
v 0.074324 -0.251954 0.150997
v 0.082770 -0.267563 0.118720
v 0.078786 -0.273487 0.092870
v 0.207913 0.020118 0.004062
v 0.073910 -0.276908 0.069230
v -0.076567 0.014268 -0.323687
v -0.068926 -0.027561 -0.308895
v -0.056791 -0.071918 -0.290083
v -0.041076 -0.114004 -0.268977
v 0.069989 -0.278886 0.046231
v 0.073426 -0.277180 0.066529
v 0.066675 -0.279956 0.023696
v 0.063883 -0.280202 0.001335
v 0.061574 -0.279633 -0.021141
v 0.059726 -0.278227 -0.044027
v 0.058483 -0.275692 -0.067608
v 0.059090 -0.277180 -0.054805
v -0.021933 -0.153416 -0.245779
v 0.000455 -0.189773 -0.220715
v 0.057950 -0.271801 -0.092166
v 0.058045 -0.266615 -0.118084
v 0.058839 -0.259930 -0.145815
v -0.081379 0.066236 -0.338436
v -0.081601 0.114772 -0.348899
v -0.077312 0.018639 -0.325191
v -0.059360 0.261326 -0.362730
v -0.070538 0.212789 -0.361105
v -0.077976 0.163781 -0.356480
v -0.019015 0.066236 0.357937
v -0.011452 0.018639 0.348721
v -0.000965 -0.027561 0.335943
v 0.012344 -0.071918 0.319726
v 0.028347 -0.114004 0.300226
v 0.046891 -0.153416 0.277631
v 0.083682 -0.269523 0.113888
v -0.054673 0.066236 0.325619
v -0.046243 0.018639 0.317188
v -0.034554 -0.027561 0.305499
v -0.019719 -0.071918 0.290665
v -0.001882 -0.114004 0.272828
v 0.018786 -0.153416 0.252159
v 0.042087 -0.189773 0.228859
v -0.086992 0.066236 0.289961
v -0.077776 0.018639 0.282397
v -0.064997 -0.027561 0.271910
v -0.048780 -0.071918 0.258601
v -0.029281 -0.114004 0.242598
v -0.006686 -0.153416 0.224055
v 0.018786 -0.189773 0.203151
v 0.046890 -0.222724 0.180086
v -0.121646 0.114772 0.255306
v -0.115660 0.066236 0.251306
v -0.105747 0.018639 0.244683
v -0.092002 -0.027561 0.235499
v -0.074558 -0.071918 0.223843
v -0.053584 -0.114004 0.209829
v -0.029280 -0.153416 0.193590
v -0.001882 -0.189773 0.175282
v 0.028347 -0.222724 0.155084
v 0.061117 -0.251954 0.133188
v -0.146750 0.114772 0.213422
v -0.140401 0.066236 0.210028
v -0.129886 0.018639 0.204408
v -0.115308 -0.027561 0.196616
v -0.096806 -0.071918 0.186726
v -0.074559 -0.114004 0.174835
v -0.048780 -0.153416 0.161056
v -0.019719 -0.189773 0.145523
v 0.012344 -0.222724 0.128384
v 0.047102 -0.251954 0.109806
v -0.167629 0.114772 0.169279
v -0.160977 0.066236 0.166524
v -0.149962 0.018639 0.161961
v -0.134690 -0.027561 0.155635
v -0.115308 -0.071918 0.147607
v -0.092002 -0.114004 0.137954
v -0.064997 -0.153416 0.126768
v -0.034554 -0.189773 0.114158
v -0.000965 -0.222724 0.100245
v 0.035447 -0.251954 0.085163
v -0.184079 0.114772 0.123302
v -0.177190 0.066236 0.121212
v -0.165781 0.018639 0.117751
v -0.149962 -0.027561 0.112953
v -0.129886 -0.071918 0.106863
v -0.105747 -0.114004 0.099540
v -0.077776 -0.153416 0.091055
v -0.046243 -0.189773 0.081490
v -0.011451 -0.222724 0.070936
v 0.026263 -0.251954 0.059496
v 0.066538 -0.277180 0.047278
v -0.198306 0.163781 0.076404
v -0.195944 0.114772 0.075934
v -0.188883 0.066236 0.074530
v -0.177190 0.018639 0.072204
v -0.160977 -0.027561 0.068979
v -0.140401 -0.071918 0.064886
v -0.115660 -0.114004 0.059965
v -0.086992 -0.153416 0.054262
v -0.054673 -0.189773 0.047834
v -0.019015 -0.222724 0.040741
v 0.019639 -0.251954 0.033052
v 0.060917 -0.277180 0.024841
v -0.205505 0.163781 0.027867
v -0.203109 0.114772 0.027631
v -0.195944 0.066236 0.026926
v -0.184079 0.018639 0.025757
v -0.167628 -0.027561 0.024137
v -0.146750 -0.071918 0.022080
v -0.121646 -0.114004 0.019608
v -0.092557 -0.153416 0.016743
v -0.059764 -0.189773 0.013513
v -0.023582 -0.222724 0.009950
v 0.015639 -0.251954 0.006087
v 0.057523 -0.277180 0.001961
v -0.207913 0.163781 -0.021141
v -0.205505 0.114772 -0.021141
v -0.198306 0.066236 -0.021141
v -0.186383 0.018639 -0.021141
v -0.169853 -0.027561 -0.021141
v -0.148874 -0.071918 -0.021141
v -0.123648 -0.114004 -0.021141
v -0.094418 -0.153416 -0.021141
v -0.061467 -0.189773 -0.021141
v -0.025110 -0.222724 -0.021141
v 0.014301 -0.251954 -0.021141
v 0.056389 -0.277180 -0.021141
v -0.205505 0.163781 -0.070150
v -0.203109 0.114772 -0.069914
v -0.195944 0.066236 -0.069208
v -0.184079 0.018639 -0.068040
v -0.167628 -0.027561 -0.066419
v -0.146750 -0.071918 -0.064363
v -0.121646 -0.114004 -0.061890
v -0.092557 -0.153416 -0.059025
v -0.059764 -0.189773 -0.055796
v -0.023582 -0.222724 -0.052232
v 0.015639 -0.251954 -0.048369
v 0.057523 -0.277180 -0.044244
v -0.195944 0.212789 -0.118217
v -0.198306 0.163781 -0.118686
v -0.195944 0.114772 -0.118217
v -0.188883 0.066236 -0.116812
v -0.177190 0.018639 -0.114486
v -0.160977 -0.027561 -0.111261
v -0.140401 -0.071918 -0.107168
v -0.115660 -0.114004 -0.102247
v -0.086992 -0.153416 -0.096545
v -0.054673 -0.189773 -0.090116
v -0.019015 -0.222724 -0.083023
v 0.019639 -0.251954 -0.075334
v -0.184079 0.212789 -0.165585
v -0.186383 0.163781 -0.166284
v -0.184079 0.114772 -0.165585
v -0.177190 0.066236 -0.163495
v -0.165781 0.018639 -0.160034
v -0.149962 -0.027561 -0.155235
v -0.129886 -0.071918 -0.149145
v -0.105747 -0.114004 -0.141823
v -0.077776 -0.153416 -0.133338
v -0.046243 -0.189773 -0.123772
v -0.011451 -0.222724 -0.113218
v 0.026263 -0.251954 -0.101778
v -0.167628 0.212789 -0.211562
v -0.169853 0.163781 -0.212483
v -0.167628 0.114772 -0.211562
v -0.160977 0.066236 -0.208806
v -0.149962 0.018639 -0.204244
v -0.134690 -0.027561 -0.197918
v -0.115308 -0.071918 -0.189889
v -0.092002 -0.114004 -0.180236
v -0.064997 -0.153416 -0.169050
v -0.034554 -0.189773 -0.156440
v -0.000965 -0.222724 -0.142527
v 0.035447 -0.251954 -0.127445
v -0.146750 0.212789 -0.255705
v -0.148874 0.163781 -0.256840
v -0.146750 0.114772 -0.255705
v -0.140401 0.066236 -0.252311
v -0.129886 0.018639 -0.246691
v -0.115307 -0.027561 -0.238898
v -0.096806 -0.071918 -0.229009
v -0.074559 -0.114004 -0.217117
v -0.048780 -0.153416 -0.203338
v -0.019719 -0.189773 -0.187805
v 0.012344 -0.222724 -0.170667
v 0.047102 -0.251954 -0.152088
v -0.115660 0.261326 -0.293589
v -0.121646 0.212789 -0.297589
v -0.123648 0.163781 -0.298926
v -0.121646 0.114772 -0.297589
v -0.115660 0.066236 -0.293589
v -0.105747 0.018639 -0.286965
v -0.092002 -0.027561 -0.277781
v -0.074558 -0.071918 -0.266126
v -0.053584 -0.114004 -0.252111
v -0.029281 -0.153416 -0.235872
v -0.001882 -0.189773 -0.217565
v -0.086992 0.261326 -0.332243
v -0.092557 0.212789 -0.336810
v -0.094418 0.163781 -0.338338
v -0.092557 0.114772 -0.336810
v -0.086992 0.066236 -0.332243
v -0.077776 0.018639 -0.324679
vn -0.8819 -0.0000 -0.4714
vn -0.8315 -0.0000 -0.5556
vn -0.8275 -0.0979 -0.5529
vn -0.4907 -0.7408 0.4588
vn -0.5005 -0.7063 0.5005
vn -0.5472 -0.7063 0.4491
vn -0.6432 -0.6336 0.4298
vn -0.6917 -0.5549 0.4622
vn -0.7337 -0.5549 0.3922
vn 0.6043 -0.1653 -0.7795
vn -0.5597 -0.4708 0.6820
vn -0.6239 -0.4708 0.6239
vn -0.5883 -0.5549 0.5883
vn -0.5701 -0.2898 0.7687
vn -0.6072 -0.2899 0.7398
vn -0.5862 -0.3821 0.7143
vn -0.5886 -0.7063 0.3933
vn -0.5282 -0.7723 0.3530
vn -0.5539 -0.8308 -0.0546
vn -0.5051 -0.8577 -0.0961
vn -0.5030 -0.8611 -0.0746
vn -0.9113 0.1467 -0.3848
vn -0.8777 0.0979 -0.4691
vn -0.9194 0.0979 -0.3808
vn -0.8477 0.1527 -0.5081
vn -0.8155 0.1948 -0.5449
vn -0.8275 0.0979 -0.5529
vn 0.8498 -0.5174 -0.1004
vn 0.8880 0.4316 0.1587
vn 0.8511 -0.3496 0.3917
vn -0.6431 -0.5549 0.5278
vn -0.6820 -0.4708 0.5597
vn -0.7336 -0.4708 0.4902
vn -0.6243 -0.7063 0.3337
vn -0.5603 -0.7723 0.2995
vn 0.7243 -0.0414 0.6882
vn -0.6823 -0.6336 0.3647
vn -0.6320 -0.1467 0.7609
vn -0.7039 -0.1467 0.6950
vn -0.6936 -0.1948 0.6936
vn -0.9952 -0.0000 -0.0980
vn -0.9932 0.0491 -0.1056
vn -0.9876 0.0567 -0.1465
vn -0.8033 0.2430 -0.5437
vn -0.7582 0.1948 -0.6222
vn -0.6243 -0.7063 -0.3337
vn -0.5886 -0.7063 -0.3933
vn -0.5745 -0.7406 -0.3484
vn -0.4357 -0.8576 0.2732
vn -0.4628 -0.8308 0.3092
vn -0.4909 -0.8308 0.2624
vn -0.8441 -0.2899 -0.4512
vn -0.7958 -0.2899 -0.5317
vn -0.7684 -0.3821 -0.5134
vn -0.8777 -0.0979 0.4691
vn -0.9194 -0.0979 0.3808
vn -0.9062 -0.1948 0.3754
vn -0.8441 -0.2899 0.4512
vn -0.8650 -0.1948 0.4624
vn -0.8842 -0.2899 0.3663
vn -0.8538 -0.3821 0.3536
vn -0.6540 -0.7063 -0.2709
vn -0.5603 -0.7723 -0.2995
vn -0.8150 -0.3821 0.4356
vn -0.8151 -0.4708 0.3376
vn -0.8842 -0.2899 -0.3663
vn -0.9062 -0.1948 -0.3754
vn -0.8650 -0.1948 -0.4624
vn -0.7686 -0.5549 0.3184
vn -0.9445 0.1467 -0.2940
vn -0.9523 0.0979 -0.2889
vn -0.7143 -0.3821 0.5862
vn -0.7684 -0.3821 0.5134
vn -0.7781 -0.4708 0.4159
vn -0.9687 0.1467 -0.2003
vn -0.9761 0.0979 -0.1942
vn -0.9808 -0.0000 -0.1951
vn -0.6917 -0.5549 -0.4622
vn -0.6234 -0.6305 -0.4624
vn -0.6432 -0.6336 -0.4298
vn -0.9988 0.0491 -0.0079
vn -1.0000 -0.0000 -0.0000
vn -0.9947 0.0491 0.0899
vn -0.9952 -0.0000 0.0980
vn -0.9811 0.0491 0.1870
vn -0.9808 -0.0000 0.1951
vn -0.7079 -0.7063 -0.0000
vn -0.7736 -0.6336 -0.0000
vn -0.7699 -0.6336 -0.0758
vn -0.5893 -0.1466 0.7945
vn -0.6222 -0.1948 0.7582
vn -0.5843 -0.1943 0.7879
vn -0.8823 -0.4708 -0.0000
vn -0.8780 -0.4708 -0.0865
vn -0.8279 -0.5549 -0.0815
vn -0.5869 -0.7723 0.2431
vn -0.5143 -0.8308 0.2130
vn -0.9571 -0.2899 -0.0000
vn -0.9525 -0.2899 -0.0938
vn -0.9197 -0.3821 -0.0906
vn -0.9569 -0.0000 -0.2903
vn -0.4558 -0.8577 0.2378
vn -0.4726 -0.8813 -0.0000
vn -0.4703 -0.8813 -0.0463
vn -0.4257 -0.9040 -0.0394
vn -0.6774 -0.7063 -0.2055
vn -0.7403 -0.6336 -0.2246
vn -0.7147 -0.6336 -0.2961
vn -0.9523 -0.0979 0.2889
vn -0.9386 -0.1948 0.2847
vn -0.9952 -0.0979 -0.0000
vn -0.9904 -0.0979 -0.0975
vn -0.9761 -0.1948 -0.0961
vn -0.9159 -0.2899 0.2778
vn -0.9692 -0.0410 0.2428
vn -0.9761 -0.0979 0.1942
vn -0.6943 -0.7063 -0.1381
vn -0.6080 -0.7723 -0.1844
vn -0.9257 -0.0491 0.3750
vn -0.8653 -0.4708 -0.1721
vn -0.8443 -0.4708 -0.2561
vn -0.7961 -0.5549 -0.2415
vn -0.8844 -0.0491 0.4642
vn -0.9761 -0.0979 -0.1942
vn -0.9523 -0.0979 -0.2889
vn -0.9386 -0.1948 -0.2847
vn -0.7045 -0.7063 -0.0694
vn -0.6231 -0.7723 -0.1239
vn -0.8345 -0.0491 0.5489
vn -0.8275 -0.0979 0.5529
vn -0.8160 -0.5549 -0.1623
vn -0.7953 -0.1396 0.5899
vn -0.8155 -0.1948 0.5449
vn -0.7582 -0.1948 0.6222
vn -0.9620 -0.1948 -0.1914
vn -0.6540 -0.7063 0.2709
vn -0.7147 -0.6336 0.2961
vn -0.7403 -0.6336 0.2246
vn -0.8780 -0.4708 0.0865
vn -0.8319 -0.5549 -0.0000
vn -0.6774 -0.7063 0.2055
vn -0.6080 -0.7723 0.1844
vn -0.7961 -0.5549 0.2415
vn -0.9904 -0.0979 0.0975
vn -0.9808 -0.1948 -0.0000
vn -0.5327 -0.8308 0.1616
vn -0.9197 -0.3821 0.0906
vn -0.9525 -0.2899 0.0938
vn -0.4796 -0.8606 0.1716
vn -0.4413 -0.8575 0.2645
vn -0.7045 -0.7063 0.0694
vn -0.6353 -0.7723 -0.0000
vn -0.4764 -0.8577 0.1933
vn -0.6323 -0.7723 0.0623
vn -0.5566 -0.8308 -0.0000
vn -0.7730 -0.0000 -0.6344
vn -0.7377 -0.0930 -0.6686
vn -0.7693 -0.0979 -0.6313
vn -0.9063 -0.3821 0.1803
vn -0.9387 -0.2899 0.1867
vn -0.6534 -0.3821 0.6534
vn -0.6768 -0.2899 0.6767
vn -0.7398 -0.2899 0.6072
vn -0.5459 -0.8308 0.1086
vn -0.6231 -0.7723 0.1239
vn -0.9620 -0.1948 0.1914
vn -0.7588 -0.6336 0.1509
vn -0.8160 -0.5549 0.1623
vn -0.8279 -0.5549 0.0815
vn -0.6943 -0.7063 0.1381
vn -0.6323 -0.7723 -0.0623
vn -0.8443 -0.4708 0.2561
vn -0.8653 -0.4708 0.1721
vn -0.4798 -0.7620 0.4349
vn -0.4911 -0.7723 0.4030
vn -0.8843 -0.3821 0.2683
vn -0.4413 -0.8575 0.2646
vn -0.4097 -0.9040 0.1222
vn -0.4522 -0.8813 0.1372
vn -0.4635 -0.8813 0.0922
vn -0.7699 -0.6336 0.0758
vn -0.4195 -0.9040 0.0825
vn -0.4703 -0.8813 0.0463
vn -0.5539 -0.8308 0.0546
vn -0.9761 -0.1948 0.0961
vn -0.4276 -0.9040 0.0013
vn -0.9241 -0.3821 -0.0000
vn -0.9063 -0.3821 -0.1803
vn -0.9387 -0.2899 -0.1867
vn -0.7588 -0.6336 -0.1509
vn -0.5459 -0.8308 -0.1086
vn -0.9159 -0.2899 -0.2778
vn -0.8843 -0.3821 -0.2683
vn -0.5327 -0.8308 -0.1616
vn -0.4936 -0.8577 -0.1438
vn -0.5869 -0.7723 -0.2431
vn -0.5143 -0.8308 -0.2130
vn -0.4776 -0.8577 -0.1903
vn -0.7686 -0.5549 -0.3184
vn -0.8538 -0.3821 -0.3536
vn -0.9239 -0.0000 -0.3827
vn -0.9194 -0.0979 -0.3808
vn -0.8151 -0.4708 -0.3376
vn -0.4909 -0.8308 -0.2624
vn -0.4573 -0.8577 -0.2351
vn -0.8777 -0.0979 -0.4691
vn -0.8150 -0.3821 -0.4356
vn -0.7781 -0.4708 -0.4159
vn -0.7337 -0.5549 -0.3922
vn -0.6823 -0.6336 -0.3647
vn -0.8155 -0.1948 -0.5449
vn -0.7336 -0.4708 -0.4902
vn -0.7693 0.0979 -0.6313
vn -0.7582 -0.1948 -0.6222
vn 0.9260 -0.3233 0.1948
vn -0.4416 -0.6711 0.5955
vn -0.4602 -0.6350 0.6205
vn -0.4908 -0.6336 0.5980
vn -0.7437 -0.3776 -0.5516
vn -0.7104 -0.4666 -0.5269
vn -0.7370 0.1033 -0.6680
vn -0.7409 0.0052 -0.6716
vn -0.7259 0.2003 -0.6580
vn -0.7465 0.2430 -0.6194
vn -0.4812 -0.8278 -0.2884
vn 0.0370 0.9672 0.2512
vn -0.5706 -0.7038 -0.4232
vn -0.7100 -0.2859 -0.6435
vn -0.7398 -0.2899 -0.6072
vn -0.6702 -0.5512 -0.4970
vn -0.7274 -0.1903 -0.6593
vn -0.7958 -0.2899 0.5317
vn -0.7537 -0.3366 -0.5644
vn 0.7243 -0.0415 0.6882
vn -0.4820 -0.6964 0.5318
vn -0.4903 -0.6713 0.5558
vn -0.5278 -0.5549 0.6431
vn -0.4414 -0.8575 -0.2645
vn 0.9624 0.1475 -0.2283
vn -0.5486 -0.7687 -0.3288
vn -0.5504 -0.3825 0.7421
vn -0.5253 -0.4715 0.7083
vn -0.4951 -0.5560 0.6676
vn -0.8694 0.1467 -0.4719
vn -0.5470 -0.6336 0.5470
vn -0.5980 -0.6336 0.4908
vn -0.4723 -0.8031 0.3634
vn -0.4591 -0.8205 0.3405
vn -0.4255 -0.9040 0.0421
vn -0.9581 -0.0491 0.2823
vn -0.7689 -0.1467 0.6223
vn -0.7188 0.2427 -0.6515
vn 0.9623 0.1475 -0.2283
vt 0.921875 0.500000
vt 0.906250 0.500000
vt 0.906250 0.468750
vt 0.125000 0.224982
vt 0.125000 0.250000
vt 0.109375 0.250000
vt 0.093750 0.281250
vt 0.093750 0.312500
vt 0.078125 0.312500
vt 2.295857 2.639702
vt 2.280186 2.657247
vt 2.430854 2.556133
vt 0.140625 0.343750
vt 0.125000 0.343750
vt 0.125000 0.312500
vt 0.141118 0.406237
vt 0.140625 0.406250
vt 0.140625 0.375000
vt 0.093750 0.250000
vt 0.093750 0.218750
vt 0.984375 0.187500
vt 0.968750 0.158090
vt 0.977163 0.156091
vt 0.937500 0.551872
vt 0.921875 0.531250
vt 0.937500 0.531250
vt 0.911751 0.562567
vt 0.906250 0.562500
vt 0.906250 0.531250
vt 2.338641 2.500000
vt 2.337348 2.516020
vt 2.436154 2.531284
vt 2.441078 2.482358
vt 2.379313 2.331827
vt 2.420826 2.379606
vt 2.340257 2.484267
vt 2.347566 2.379503
vt 2.353478 2.402097
vt 2.402979 2.363310
vt 0.109375 0.312500
vt 2.381391 2.636514
vt 2.247291 2.701428
vt 0.109375 0.343750
vt 0.093750 0.343750
vt 2.340456 2.345798
vt 2.346305 2.373865
vt 2.334033 2.600877
vt 2.313875 2.620843
vt 0.078125 0.250000
vt 0.078125 0.218750
vt 2.295291 2.249724
vt 2.304427 2.261210
vt 0.078125 0.281250
vt 0.140625 0.453578
vt 0.125000 0.459768
vt 0.125000 0.437500
vt 0.984375 0.500000
vt 0.984375 0.529494
vt 0.980855 0.531276
vt 0.906250 0.564662
vt 0.890625 0.562500
vt 0.921875 0.250000
vt 0.906250 0.250000
vt 0.906250 0.234833
vt 0.093750 0.168161
vt 0.093750 0.187500
vt 0.078125 0.187500
vt 0.921875 0.406250
vt 0.906250 0.406250
vt 0.906250 0.375000
vt 0.078125 0.468750
vt 0.062500 0.468750
vt 0.062500 0.437500
vt 0.078125 0.406250
vt 0.078125 0.437500
vt 0.062500 0.406250
vt 0.062500 0.375000
vt 0.937500 0.250000
vt 0.921875 0.218750
vt 0.078125 0.375000
vt 0.062500 0.343750
vt 0.937500 0.406250
vt 0.937500 0.437500
vt 0.921875 0.437500
vt 0.062500 0.312500
vt 0.953125 0.544771
vt 0.953125 0.531250
vt 0.109375 0.375000
vt 0.093750 0.375000
vt 0.078125 0.343750
vt 0.968750 0.537286
vt 0.968750 0.531250
vt 0.968750 0.500000
vt 0.906250 0.312500
vt 0.901171 0.281085
vt 0.906250 0.281250
vt 1.000000 0.521490
vt 1.000000 0.500000
vt 1.015625 0.513342
vt 1.015625 0.500000
vt 0.031250 0.505137
vt 0.015625 0.500000
vt 0.031250 0.500000
vt 1.000000 0.250000
vt 1.000000 0.281250
vt 0.984375 0.281250
vt 0.141705 0.453173
vt 0.140625 0.437500
vt 0.141468 0.437485
vt 1.000000 0.343750
vt 0.984375 0.343750
vt 0.984375 0.312500
vt 0.062500 0.218750
vt 0.062500 0.187500
vt 1.000000 0.406250
vt 0.984375 0.406250
vt 0.984375 0.375000
vt 0.953125 0.500000
vt 0.078125 0.160820
vt 1.000000 0.156250
vt 0.984375 0.156250
vt 0.984375 0.154693
vt 0.953125 0.250000
vt 0.953125 0.281250
vt 0.937500 0.281250
vt 0.046875 0.468750
vt 0.046875 0.437500
vt 1.000000 0.468750
vt 0.984375 0.468750
vt 0.984375 0.437500
vt 0.046875 0.406250
vt 0.041074 0.500000
vt 0.031250 0.468750
vt 0.968750 0.250000
vt 0.953125 0.218750
vt 0.062500 0.488949
vt 0.968750 0.343750
vt 0.953125 0.343750
vt 0.953125 0.312500
vt 0.078125 0.481133
vt 0.968750 0.468750
vt 0.953125 0.468750
vt 0.953125 0.437500
vt 0.984375 0.250000
vt 0.968750 0.218750
vt 0.093750 0.473609
vt 0.093750 0.468750
vt 0.968750 0.312500
vt 0.104358 0.468717
vt 0.093750 0.437500
vt 0.109375 0.437500
vt 0.968750 0.437500
vt 2.335837 2.315178
vt 2.339404 2.339404
vt 0.062500 0.250000
vt 0.062500 0.281250
vt 0.046875 0.281250
vt 1.015625 0.343750
vt 1.000000 0.312500
vt 0.046875 0.250000
vt 0.046875 0.218750
vt 0.046875 0.312500
vt 1.015625 0.468750
vt 1.000000 0.437500
vt 0.046875 0.187500
vt 1.015625 0.375000
vt 1.015625 0.406250
vt 0.060689 0.156185
vt 0.091500 0.165649
vt 1.015625 0.250000
vt 1.000000 0.218750
vt 0.062500 0.156587
vt 2.393311 2.593739
vt 0.015625 0.218750
vt 0.000000 0.218750
vt 0.000000 0.187500
vt 0.890625 0.500000
vt 0.885406 0.468717
vt 0.890625 0.468750
vt 0.031250 0.375000
vt 0.031250 0.406250
vt 0.015625 0.406250
vt 0.125000 0.375000
vt 0.125000 0.406250
vt 0.109375 0.406250
vt 0.015625 0.468750
vt 0.031250 0.187500
vt 0.031250 0.218750
vt 0.031250 0.437500
vt 0.031250 0.281250
vt 0.031250 0.312500
vt 0.015625 0.312500
vt 0.031250 0.250000
vt 1.000000 0.187500
vt 0.984375 0.218750
vt 2.241943 2.711782
vt 2.266786 2.673485
vt 2.255786 2.688259
vt 0.046875 0.343750
vt 0.031250 0.343750
vt 2.336902 2.523565
vt 2.336478 2.532527
vt 2.336105 2.549717
vt 2.336171 2.567860
vt 0.122291 0.218642
vt 0.109375 0.218750
vt 0.046875 0.375000
vt 2.241421 2.712835
vt 2.238574 2.722106
vt 2.238419 2.729430
vt 2.240956 2.734737
vt 0.092620 0.166658
vt 0.046875 0.153712
vt 0.046875 0.156250
vt 0.031250 0.156250
vt 0.015625 0.343750
vt 0.015625 0.250000
vt 0.015625 0.281250
vt 0.031250 0.152118
vt 0.015625 0.156250
vt 0.015625 0.187500
vt 0.015625 0.437500
vt 0.000000 0.281250
vt 0.015625 0.375000
vt 1.015625 0.156250
vt 1.000000 0.152600
vt 1.015625 0.437500
vt 1.000000 0.375000
vt 0.000000 0.312500
vt 0.968750 0.375000
vt 0.968750 0.406250
vt 0.968750 0.281250
vt 0.968750 0.187500
vt 0.953125 0.406250
vt 0.953125 0.375000
vt 0.953125 0.187500
vt 0.953125 0.162908
vt 0.937500 0.218750
vt 0.937500 0.187500
vt 0.937500 0.169336
vt 0.937500 0.312500
vt 0.937500 0.375000
vt 0.937500 0.500000
vt 0.937500 0.468750
vt 0.937500 0.343750
vt 0.921875 0.187500
vt 0.921875 0.177623
vt 0.921875 0.468750
vt 0.921875 0.375000
vt 0.921875 0.343750
vt 0.921875 0.312500
vt 0.921875 0.281250
vt 0.906250 0.437500
vt 0.906250 0.343750
vt 0.890625 0.531250
vt 0.890625 0.437500
vt 2.353982 2.403926
vt 2.354117 2.405480
vt 0.141182 0.270595
vt 0.141041 0.281230
vt 0.140625 0.281250
vt 0.892896 0.374932
vt 0.895478 0.343613
vt 0.880132 0.531283
vt 0.882828 0.500000
vt 0.877264 0.562536
vt 0.890625 0.570248
vt 2.337285 2.597800
vt 0.913078 0.187326
vt 2.236246 2.716458
vt 2.215058 2.690392
vt 2.208478 2.680538
vt 2.196692 2.662122
vt 2.181271 2.632022
vt 2.168771 2.600477
vt 2.159334 2.567763
vt 0.904486 0.249923
vt 0.890395 0.406244
vt 0.890625 0.406250
vt 0.898208 0.312323
vt 0.887914 0.437458
vt 2.258099 2.738726
vt 2.156997 2.431773
vt 2.161972 2.410773
vt 0.093750 0.406250
vt 2.165227 2.398448
vt 2.177193 2.366289
vt 2.192225 2.335491
vt 2.334080 2.296378
vt 2.334201 2.297973
vt 0.890625 0.403297
vt 0.134410 0.249816
vt 0.140625 0.268785
vt 0.140625 0.312500
vt 2.153268 2.534150
vt 2.151159 2.500000
vt 2.152402 2.465765
vt 0.913866 0.182688
vt 0.908350 0.218662
vt 2.336726 2.587272
vt 2.304492 2.630634
vt 2.210169 2.306341
vt 2.224209 2.287850
vt 2.231035 2.279266
vt 2.254729 2.254729
vt 0.140886 0.374991
vt 0.140783 0.343744
vt 0.140825 0.312491
vt 0.921875 0.558520
vt 0.125000 0.281250
vt 0.109375 0.281250
vt 2.246163 2.737974
vt 2.253987 2.739112
vt 2.344532 2.452839
vt 2.342212 2.468614
vt 2.283691 2.233561
vt 2.288357 2.240478
vt 0.109375 0.192454
vt 0.106461 0.187393
vt 2.154493 2.541763
vt 2.280584 2.232641
vt 2.282510 2.231290
vt 0.015625 0.151752
vt 1.015625 0.151752
vt 0.015625 0.513342
vt 0.046875 0.496974
vt 0.109375 0.466462
vt 0.876051 0.574913
vt 2.350689 2.420192
vt 2.347277 2.436740
vt 2.315676 2.274825
vt 2.328932 2.290437
vt 2.346937 2.438631
s 1
f 224/1/1 237/2/2 238/3/3
f 39/4/4 89/5/5 96/6/6
f 104/7/7 103/8/8 113/9/9
s 0
f 66/10/10 65/11/10 9/12/10
s 1
f 79/13/11 86/14/12 87/15/13
f 11/16/14 77/17/15 78/18/16
f 96/6/6 105/19/17 106/20/18
f 185/21/19 63/22/20 64/23/21
f 32/24/22 223/25/23 211/26/24
f 41/27/25 235/28/26 236/29/27
s 0
f 61/30/28 62/31/28 45/32/28
f 51/33/29 2/34/29 5/35/29
f 60/36/28 61/30/28 45/32/28
f 48/37/30 49/38/30 6/39/30
s 1
f 94/40/31 103/8/8 104/7/7
s 0
f 36/41/10 9/12/10 54/42/10
s 1
f 93/43/32 102/44/33 103/8/8
s 0
f 47/45/30 46/46/30 6/39/30
f 8/47/10 44/48/10 9/12/10
s 1
f 105/19/17 115/49/34 116/50/35
s 0
f 7/51/36 12/52/36 6/39/36
s 1
f 105/19/17 104/7/7 114/53/37
f 16/54/38 17/55/39 83/56/40
f 175/57/41 28/58/42 30/59/43
f 34/60/44 246/61/45 235/28/26
f 232/62/46 245/63/47 43/64/48
f 49/65/49 107/66/50 117/67/51
f 227/68/52 240/69/53 241/70/54
f 108/71/55 118/72/56 119/73/57
f 110/74/58 109/75/59 119/73/57
f 110/74/58 120/76/60 121/77/61
f 220/78/62 232/62/46 233/79/63
f 111/80/64 121/77/61 122/81/65
f 215/82/66 214/83/67 226/84/68
f 114/53/37 113/9/9 123/85/69
f 31/86/70 211/26/24 199/87/71
f 92/88/72 101/89/73 102/44/33
f 112/90/74 122/81/65 123/85/69
f 29/91/75 199/87/71 187/92/76
f 30/59/43 187/92/76 188/93/77
f 243/94/78 65/95/79 244/96/80
f 27/97/81 175/57/41 163/98/82
f 26/99/83 163/98/82 151/100/84
f 24/101/85 151/102/84 139/103/86
f 171/104/87 170/105/88 182/106/89
f 4/107/90 76/108/91 13/109/92
f 168/110/93 180/111/94 181/112/95
f 116/50/35 126/113/96 127/114/97
f 166/115/98 178/116/99 179/117/100
f 200/118/101 199/87/71 211/26/24
f 50/119/102 117/67/51 127/114/97
f 174/120/103 186/121/104 62/122/105
f 208/123/106 207/124/107 219/125/108
f 118/72/56 128/126/109 129/127/110
f 164/128/111 176/129/112 177/130/113
f 121/77/61 120/76/60 130/131/114
f 25/132/115 139/103/86 140/133/116
f 196/134/117 208/123/106 209/135/118
f 120/76/60 119/73/57 129/127/110
f 22/136/119 128/126/109 118/72/56
f 193/137/120 205/138/121 206/139/122
f 21/140/123 118/72/56 108/71/55
f 189/141/124 201/142/125 202/143/126
f 183/144/127 196/134/117 197/145/128
f 19/146/129 108/71/55 98/147/130
f 180/111/94 193/137/120 194/148/131
f 20/149/132 98/147/130 99/150/133
f 17/55/39 90/151/134 83/56/40
f 178/116/99 177/130/113 190/152/135
f 16/54/38 83/56/40 76/108/91
f 176/129/112 189/141/124 190/152/135
s 0
f 40/153/30 39/154/30 6/39/30
s 1
f 125/155/136 124/156/137 134/157/138
f 156/158/139 168/110/93 169/159/140
f 125/155/136 135/160/141 136/161/142
f 124/156/137 123/85/69 133/162/143
f 152/163/144 164/128/111 165/164/145
f 126/113/96 136/161/142 137/165/146
f 115/49/34 125/155/136 126/113/96
f 155/166/147 154/167/148 166/115/98
f 127/114/97 137/165/146 58/168/149
f 117/67/51 50/119/102 82/169/150
f 159/170/151 171/104/87 172/171/152
f 58/168/149 52/172/153 127/114/97
s 0
f 51/33/29 3/173/29 2/34/29
s 1
f 160/174/154 172/175/152 173/176/155
f 248/177/156 71/178/157 249/179/158
f 143/180/159 142/181/160 154/182/148
f 85/183/161 84/184/162 91/185/163
f 139/103/86 151/102/84 152/186/144
f 85/183/161 92/88/72 93/43/32
f 149/187/164 148/188/165 160/174/154
f 128/126/109 140/133/116 141/189/166
f 146/190/167 145/191/168 157/192/169
f 135/160/141 134/157/138 146/190/167
f 130/131/114 142/181/160 143/180/159
f 135/160/141 147/193/170 148/188/165
f 173/194/155 172/171/152 184/195/171
s 0
f 54/42/10 53/196/10 36/41/10
s 1
f 134/157/138 133/162/143 145/191/168
s 0
f 56/197/10 55/198/10 9/12/10
s 1
f 132/199/172 144/200/173 145/191/168
s 0
f 64/201/28 63/202/28 45/32/28
f 67/203/28 68/204/28 9/12/28
s 1
f 47/205/174 39/4/4 97/206/175
f 121/77/61 131/207/176 132/199/172
s 0
f 72/208/10 70/209/10 36/41/10
f 71/210/10 75/211/10 36/41/10
s 1
f 115/49/34 114/53/37 124/156/137
f 35/212/177 49/65/49 82/169/150
f 106/20/18 116/50/35 117/67/51
f 131/207/176 143/180/159 144/200/173
f 137/165/146 136/161/142 148/188/165
f 57/213/178 138/214/179 150/215/180
f 138/214/179 137/165/146 149/187/164
f 144/200/173 156/216/139 157/192/169
f 130/131/114 129/127/110 141/189/166
f 147/193/170 159/217/151 160/174/154
f 147/193/170 146/190/167 158/218/181
f 59/219/182 150/215/180 162/220/183
f 150/215/180 149/187/164 161/221/184
f 142/181/160 141/189/166 153/222/185
f 140/133/116 152/186/144 153/222/185
f 159/217/151 158/218/181 170/223/88
f 143/180/159 155/224/147 156/216/139
f 162/225/183 174/120/103 61/226/186
f 162/220/183 161/221/184 173/176/155
f 151/100/84 163/98/82 164/128/111
f 154/167/148 153/227/185 165/164/145
f 155/166/147 167/228/187 168/110/93
f 158/218/181 157/192/169 169/229/140
f 174/120/103 173/194/155 185/21/19
f 163/98/82 175/57/41 176/129/112
f 166/115/98 165/164/145 177/130/113
f 167/228/187 179/117/100 180/111/94
f 170/105/88 169/159/140 181/112/95
f 171/104/87 183/144/127 184/195/171
f 175/57/41 188/93/77 189/141/124
f 179/117/100 192/230/188 193/137/120
f 178/116/99 191/231/189 192/230/188
f 183/144/127 182/106/89 195/232/190
f 182/106/89 181/112/95 194/148/131
f 188/93/77 200/118/101 201/142/125
f 184/195/171 197/145/128 198/233/191
f 191/231/189 203/234/192 204/235/193
f 191/231/189 190/152/135 202/143/126
f 192/230/188 204/235/193 205/138/121
f 196/134/117 195/232/190 207/124/107
f 195/232/190 194/148/131 206/139/122
f 197/145/128 209/135/118 210/236/194
f 188/93/77 187/92/76 199/87/71
f 198/233/191 210/236/194 67/237/195
f 208/123/106 220/78/62 221/238/196
f 210/236/194 222/239/197 68/240/198
f 209/135/118 221/238/196 222/239/197
f 207/124/107 206/139/122 218/241/199
f 203/234/192 215/82/66 216/242/200
f 203/234/192 202/143/126 214/83/67
f 200/118/101 212/243/201 213/244/202
f 201/142/125 213/244/202 214/83/67
f 204/235/193 216/242/200 217/245/203
f 205/138/121 217/245/203 218/241/199
f 221/238/196 233/79/63 234/246/204
f 222/239/197 234/246/204 69/247/205
f 212/243/201 224/1/1 225/248/206
f 212/243/201 211/26/24 223/25/23
f 213/244/202 225/248/206 226/84/68
f 215/82/66 227/68/52 228/249/207
f 216/242/200 228/249/207 229/250/208
f 217/245/203 229/250/208 230/251/209
f 219/125/108 218/241/199 230/251/209
f 224/1/1 223/25/23 236/29/27
f 220/78/62 219/125/108 231/252/210
f 225/248/206 238/3/3 239/253/211
f 227/68/52 226/84/68 239/253/211
f 228/249/207 241/70/54 242/254/212
f 229/250/208 242/254/212 243/94/78
f 230/251/209 243/94/78 244/96/80
f 232/62/46 231/252/210 244/96/80
f 237/2/2 236/29/27 247/255/213
f 238/3/3 249/179/158 250/256/214
f 237/2/2 248/177/156 249/179/158
s 0
f 35/257/215 82/258/215 6/39/215
f 82/258/215 45/32/215 6/39/215
f 45/32/215 51/33/215 6/39/215
s 1
f 1/259/216 14/260/217 81/261/218
f 236/29/27 235/28/26 246/61/45
f 241/70/54 54/262/219 55/263/220
f 247/255/213 74/264/221 75/265/222
f 246/61/45 73/266/223 74/264/221
f 42/267/224 73/266/223 246/61/45
s 0
f 9/12/10 37/268/10 8/47/10
s 1
f 233/79/63 8/269/225 234/246/204
s 0
f 42/270/226 34/271/226 36/41/226
f 34/271/226 41/272/226 36/41/226
f 41/272/226 33/273/226 36/41/226
f 33/273/226 32/274/226 36/41/226
f 31/275/226 29/276/226 3/173/226
s 1
f 86/14/12 93/43/32 94/40/31
s 0
f 32/274/226 31/275/226 3/173/226
s 1
f 244/96/80 66/277/227 245/63/47
f 250/256/214 72/278/228 251/279/229
f 242/254/212 56/280/230 243/94/78
f 236/29/27 223/25/23 41/27/25
f 249/179/158 70/281/231 250/256/214
s 0
f 3/173/226 36/41/226 32/274/226
f 36/41/226 10/282/226 42/270/226
f 24/283/226 25/284/226 2/34/226
s 1
f 100/285/232 99/150/133 109/75/59
s 0
f 25/284/226 23/286/226 2/34/226
s 1
f 101/89/73 111/80/64 112/90/74
s 0
f 22/287/226 21/288/226 2/34/226
f 23/286/226 22/287/226 2/34/226
f 6/39/30 1/289/30 38/290/30
f 35/257/30 6/39/30 49/38/30
s 1
f 140/133/116 128/126/109 25/132/115
f 240/69/53 53/291/233 54/262/219
s 0
f 6/39/234 5/35/234 2/34/234
s 1
f 40/292/235 38/293/236 89/5/5
f 81/261/218 80/294/237 87/15/13
s 0
f 28/295/226 27/296/226 3/173/226
f 27/296/226 26/297/226 3/173/226
f 26/297/226 24/283/226 3/173/226
s 1
f 234/246/204 8/269/225 37/298/238
s 0
f 9/12/239 36/41/239 3/173/239
f 39/154/30 47/45/30 6/39/30
f 46/46/30 48/37/30 6/39/30
s 1
f 31/86/70 32/24/22 211/26/24
f 44/299/240 233/79/63 43/64/48
s 0
f 69/300/28 37/268/28 9/12/28
f 43/301/10 66/10/10 9/12/10
s 1
f 78/18/16 85/183/161 86/14/12
f 77/17/15 84/184/162 85/183/161
s 0
f 19/302/226 20/303/226 2/34/226
f 20/303/226 18/304/226 2/34/226
s 1
f 91/185/163 90/151/134 99/150/133
s 0
f 18/304/226 17/305/226 2/34/226
f 45/32/239 9/12/239 51/33/239
s 1
f 11/16/14 78/18/16 7/306/241
f 7/306/241 79/13/11 12/307/242
f 12/307/242 80/294/237 15/308/243
f 15/308/243 81/261/218 14/260/217
f 223/25/23 33/309/244 41/27/25
f 234/246/204 37/298/238 69/247/205
f 89/5/5 88/310/245 95/311/246
s 0
f 74/312/10 73/313/10 36/41/10
f 57/314/28 59/315/28 45/32/28
f 13/316/36 11/317/36 2/34/36
s 1
f 13/109/92 77/17/15 11/16/14
f 79/13/11 87/15/13 80/294/237
f 81/261/218 87/15/13 88/310/245
f 89/5/5 38/293/236 88/310/245
f 39/4/4 40/292/235 89/5/5
s 0
f 44/48/10 43/301/10 9/12/10
s 1
f 84/184/162 83/56/40 90/151/134
f 34/60/44 42/267/224 246/61/45
f 77/17/15 83/56/40 84/184/162
f 77/17/15 85/183/161 78/18/16
f 78/18/16 86/14/12 79/13/11
f 89/5/5 95/311/246 96/6/6
f 97/206/175 39/4/4 96/6/6
f 46/318/247 47/205/174 97/206/175
f 12/307/242 79/13/11 80/294/237
f 84/184/162 90/151/134 91/185/163
f 85/183/161 91/185/163 92/88/72
f 85/183/161 93/43/32 86/14/12
f 86/14/12 94/40/31 87/15/13
f 87/15/13 95/311/246 88/310/245
f 107/66/50 46/318/247 106/20/18
f 49/65/49 48/319/248 107/66/50
f 20/149/132 19/146/129 98/147/130
f 91/185/163 99/150/133 100/285/232
f 91/185/163 101/89/73 92/88/72
f 92/88/72 102/44/33 93/43/32
f 93/43/32 103/8/8 94/40/31
f 94/40/31 104/7/7 95/311/246
f 96/6/6 104/7/7 105/19/17
f 96/6/6 106/20/18 97/206/175
s 0
f 30/320/226 28/295/226 3/173/226
f 29/276/226 30/320/226 3/173/226
s 1
f 240/69/53 239/253/211 250/256/214
s 0
f 16/321/226 4/322/226 2/34/226
s 1
f 98/147/130 109/75/59 99/150/133
f 100/285/232 109/75/59 110/74/58
f 101/89/73 110/74/58 111/80/64
f 101/89/73 112/90/74 102/44/33
f 102/44/33 113/9/9 103/8/8
f 104/7/7 113/9/9 114/53/37
f 105/19/17 114/53/37 115/49/34
f 105/19/17 116/50/35 106/20/18
s 0
f 21/288/226 19/302/226 2/34/226
s 1
f 106/20/18 117/67/51 107/66/50
f 117/67/51 82/169/150 49/65/49
f 108/71/55 119/73/57 109/75/59
f 110/74/58 119/73/57 120/76/60
f 110/74/58 121/77/61 111/80/64
f 111/80/64 122/81/65 112/90/74
f 112/90/74 123/85/69 113/9/9
f 114/53/37 123/85/69 124/156/137
f 115/49/34 124/156/137 125/155/136
f 115/49/34 126/113/96 116/50/35
f 116/50/35 127/114/97 117/67/51
f 50/119/102 127/114/97 52/172/153
f 118/72/56 129/127/110 119/73/57
f 120/76/60 129/127/110 130/131/114
f 121/77/61 130/131/114 131/207/176
f 121/77/61 132/199/172 122/81/65
f 122/81/65 133/162/143 123/85/69
f 124/156/137 133/162/143 134/157/138
f 125/155/136 134/157/138 135/160/141
f 125/155/136 136/161/142 126/113/96
f 126/113/96 137/165/146 127/114/97
f 137/165/146 138/214/179 58/168/149
f 57/213/178 58/168/149 138/214/179
f 130/131/114 143/180/159 131/207/176
f 131/207/176 144/200/173 132/199/172
f 132/199/172 145/191/168 133/162/143
f 134/157/138 145/191/168 146/190/167
f 135/160/141 146/190/167 147/193/170
f 135/160/141 148/188/165 136/161/142
f 137/165/146 148/188/165 149/187/164
f 138/214/179 149/187/164 150/215/180
f 57/213/178 150/215/180 59/219/182
f 25/132/115 24/101/85 139/103/86
f 128/126/109 141/189/166 129/127/110
f 130/131/114 141/189/166 142/181/160
f 144/200/173 157/192/169 145/191/168
f 146/190/167 157/192/169 158/218/181
f 147/193/170 158/218/181 159/217/151
f 147/193/170 160/174/154 148/188/165
f 149/187/164 160/174/154 161/221/184
f 150/215/180 161/221/184 162/220/183
f 59/219/182 162/220/183 60/323/249
f 139/103/86 152/186/144 140/133/116
f 140/133/116 153/222/185 141/189/166
f 142/181/160 153/222/185 154/182/148
f 143/180/159 154/182/148 155/224/147
f 143/180/159 156/216/139 144/200/173
f 159/170/151 170/105/88 171/104/87
f 159/217/151 172/175/152 160/174/154
f 160/174/154 173/176/155 161/221/184
f 162/225/183 173/194/155 174/120/103
f 162/225/183 61/226/186 60/324/249
f 151/100/84 164/128/111 152/163/144
f 152/163/144 165/164/145 153/227/185
f 154/167/148 165/164/145 166/115/98
f 155/166/147 166/115/98 167/228/187
f 155/166/147 168/110/93 156/158/139
f 156/216/139 169/229/140 157/192/169
f 158/218/181 169/229/140 170/223/88
f 173/194/155 184/195/171 185/21/19
f 174/120/103 185/21/19 186/121/104
f 174/120/103 62/122/105 61/226/186
f 163/98/82 176/129/112 164/128/111
f 164/128/111 177/130/113 165/164/145
f 166/115/98 177/130/113 178/116/99
f 166/115/98 179/117/100 167/228/187
f 167/228/187 180/111/94 168/110/93
f 168/110/93 181/112/95 169/159/140
f 170/105/88 181/112/95 182/106/89
f 171/104/87 182/106/89 183/144/127
f 171/104/87 184/195/171 172/171/152
f 62/122/105 186/121/104 64/23/21
f 30/59/43 29/91/75 187/92/76
f 175/57/41 189/141/124 176/129/112
f 176/129/112 190/152/135 177/130/113
f 178/116/99 190/152/135 191/231/189
f 178/116/99 192/230/188 179/117/100
f 179/117/100 193/137/120 180/111/94
f 180/111/94 194/148/131 181/112/95
f 182/106/89 194/148/131 195/232/190
f 183/144/127 195/232/190 196/134/117
f 183/144/127 197/145/128 184/195/171
f 184/195/171 198/233/191 185/21/19
f 188/93/77 201/142/125 189/141/124
f 189/141/124 202/143/126 190/152/135
f 191/231/189 202/143/126 203/234/192
f 191/231/189 204/235/193 192/230/188
f 192/230/188 205/138/121 193/137/120
f 193/137/120 206/139/122 194/148/131
f 195/232/190 206/139/122 207/124/107
f 196/134/117 207/124/107 208/123/106
f 196/134/117 209/135/118 197/145/128
f 197/145/128 210/236/194 198/233/191
f 198/233/191 67/237/195 63/22/20
f 188/93/77 199/87/71 200/118/101
f 207/124/107 218/241/199 219/125/108
f 208/123/106 219/125/108 220/78/62
f 208/123/106 221/238/196 209/135/118
f 209/135/118 222/239/197 210/236/194
f 210/236/194 68/240/198 67/237/195
f 200/118/101 211/26/24 212/243/201
f 200/118/101 213/244/202 201/142/125
f 201/142/125 214/83/67 202/143/126
f 203/234/192 214/83/67 215/82/66
f 203/234/192 216/242/200 204/235/193
f 204/235/193 217/245/203 205/138/121
f 205/138/121 218/241/199 206/139/122
f 220/78/62 233/79/63 221/238/196
f 221/238/196 234/246/204 222/239/197
f 222/239/197 69/247/205 68/240/198
f 212/243/201 223/25/23 224/1/1
f 212/243/201 225/248/206 213/244/202
f 213/244/202 226/84/68 214/83/67
f 215/82/66 226/84/68 227/68/52
f 215/82/66 228/249/207 216/242/200
f 216/242/200 229/250/208 217/245/203
f 217/245/203 230/251/209 218/241/199
f 219/125/108 230/251/209 231/252/210
f 220/78/62 231/252/210 232/62/46
f 233/79/63 232/62/46 43/64/48
f 41/27/25 34/60/44 235/28/26
f 224/1/1 236/29/27 237/2/2
f 224/1/1 238/3/3 225/248/206
f 225/248/206 239/253/211 226/84/68
f 227/68/52 239/253/211 240/69/53
f 227/68/52 241/70/54 228/249/207
f 228/249/207 242/254/212 229/250/208
f 229/250/208 243/94/78 230/251/209
f 230/251/209 244/96/80 231/252/210
f 232/62/46 244/96/80 245/63/47
f 29/91/75 31/86/70 199/87/71
f 237/2/2 247/255/213 248/177/156
f 237/2/2 249/179/158 238/3/3
f 238/3/3 250/256/214 239/253/211
f 240/69/53 250/256/214 251/279/229
s 0
f 51/33/215 5/35/215 6/39/215
f 40/153/30 6/39/30 38/290/30
s 1
f 185/21/19 198/233/191 63/22/20
f 64/23/21 186/121/104 185/21/19
f 1/259/216 81/261/218 38/293/236
f 43/64/48 245/63/47 66/277/227
f 32/24/22 33/309/244 223/25/23
f 236/29/27 246/61/45 247/255/213
f 24/101/85 26/325/83 151/102/84
f 4/107/90 16/54/38 76/108/91
f 53/291/233 251/279/229 72/278/228
f 128/126/109 23/326/250 25/132/115
f 22/136/119 23/326/250 128/126/109
f 21/140/123 22/136/119 118/72/56
f 19/146/129 21/140/123 108/71/55
f 17/55/39 18/327/251 90/151/134
f 90/151/134 18/327/251 20/149/132
f 243/94/78 56/280/230 65/95/79
f 27/97/81 28/58/42 175/57/41
f 26/99/83 27/97/81 163/98/82
f 242/254/212 55/263/220 56/280/230
f 249/179/158 71/178/157 70/281/231
f 54/262/219 241/70/54 240/69/53
f 240/69/53 251/279/229 53/291/233
s 0
f 11/317/234 7/51/234 2/34/234
s 1
f 99/150/133 90/151/134 20/149/132
f 248/177/156 75/265/222 71/178/157
f 42/267/224 10/328/252 73/266/223
f 233/79/63 44/299/240 8/269/225
f 244/96/80 65/95/79 66/277/227
f 250/256/214 70/281/231 72/278/228
s 0
f 50/329/28 52/330/28 45/32/28
f 59/315/28 60/36/28 45/32/28
f 4/322/234 13/316/234 2/34/234
f 2/34/234 7/51/234 6/39/234
f 12/52/234 15/331/234 6/39/234
f 15/331/234 14/332/234 6/39/234
f 14/332/234 1/289/234 6/39/234
f 9/12/28 45/32/28 63/202/28
f 45/32/28 82/258/28 50/329/28
f 57/314/28 45/32/28 58/333/28
f 52/330/28 58/333/28 45/32/28
f 45/32/28 62/31/28 64/201/28
f 63/202/28 67/203/28 9/12/28
f 68/204/28 69/300/28 9/12/28
f 65/11/10 56/197/10 9/12/10
f 55/198/10 54/42/10 9/12/10
f 53/196/10 72/208/10 36/41/10
f 70/209/10 71/210/10 36/41/10
f 73/313/10 10/282/10 36/41/10
s 1
f 77/17/15 76/108/91 83/56/40
f 38/293/236 81/261/218 88/310/245
f 241/70/54 55/263/220 242/254/212
f 246/61/45 74/264/221 247/255/213
f 247/255/213 75/265/222 248/177/156
s 0
f 17/305/226 16/321/226 2/34/226
s 1
f 13/109/92 76/108/91 77/17/15
s 0
f 75/211/10 74/312/10 36/41/10
s 1
f 7/306/241 78/18/16 79/13/11
f 188/93/77 175/57/41 30/59/43
f 15/308/243 80/294/237 81/261/218
f 87/15/13 94/40/31 95/311/246
f 48/319/248 46/318/247 107/66/50
f 91/185/163 100/285/232 101/89/73
s 0
f 3/173/253 51/33/253 9/12/253
s 1
f 96/6/6 95/311/246 104/7/7
f 98/147/130 108/71/55 109/75/59
f 102/44/33 112/90/74 113/9/9
f 46/318/247 97/206/175 106/20/18
f 101/89/73 100/285/232 110/74/58
s 0
f 2/34/226 3/173/226 24/283/226
s 1
f 122/81/65 132/199/172 133/162/143
