# Blender 5.1.2
# www.blender.org
o moon_piece_00
v -0.051163 0.157291 0.157838
v -0.051163 0.154883 0.108829
v -0.051163 0.147683 0.060293
v -0.051163 0.135761 0.012696
v -0.051163 0.098251 -0.077860
v -0.009199 -0.085608 -0.268233
v -0.281921 -0.091987 -0.206848
v 0.032190 -0.084139 -0.261204
v -0.182761 -0.157291 -0.053783
v 0.072178 -0.080211 -0.248763
v 0.110733 -0.077136 -0.233013
v 0.147638 -0.074922 -0.214092
v 0.182687 -0.073574 -0.192144
v 0.215684 -0.073095 -0.167315
v -0.046359 0.154883 0.109065
v -0.041602 0.147683 0.060763
v -0.036936 0.135761 0.013395
v -0.032408 0.119230 -0.032582
v -0.028060 0.098251 -0.076725
v -0.023935 0.073025 -0.118610
v -0.020072 0.043796 -0.157831
v -0.016509 0.010844 -0.194013
v -0.013279 -0.025513 -0.226806
v -0.010414 -0.064924 -0.255895
v -0.051163 -0.081701 -0.267952
v -0.202789 -0.148935 -0.114425
v 0.246435 -0.073487 -0.139760
v 0.274756 -0.074748 -0.109637
v 0.300464 -0.076876 -0.077112
v -0.358339 0.046764 0.218939
v -0.363353 0.046389 0.188586
v -0.367059 0.044760 0.157838
v 0.323380 -0.079865 -0.042359
v -0.369214 0.041626 0.126513
v -0.367851 0.043796 0.147483
v -0.369737 0.036890 0.094470
v -0.368672 0.030564 0.061523
v -0.365909 0.022512 0.027466
v -0.361298 0.012561 -0.007933
v -0.353577 -0.000363 -0.044229
v -0.360350 0.010844 -0.013195
v -0.343208 -0.015911 -0.081837
v 0.004167 -0.087384 -0.267325
v -0.329330 -0.034794 -0.120330
v -0.092767 -0.079479 -0.264577
v -0.041602 0.154883 0.109771
v -0.032133 0.147683 0.062167
v -0.022847 0.135761 0.015485
v -0.013834 0.119230 -0.029827
v -0.005180 0.098251 -0.073332
v 0.003030 0.073025 -0.114610
v 0.010719 0.043796 -0.153264
v 0.017812 0.010844 -0.188922
v 0.024241 -0.025513 -0.221241
v 0.029943 -0.064924 -0.249909
v -0.253479 -0.087364 -0.220669
v -0.214373 -0.082867 -0.236187
v -0.336324 -0.025513 -0.102376
v -0.311384 -0.057446 -0.159242
v -0.288613 -0.084385 -0.197531
v -0.305213 -0.064924 -0.170715
v -0.174478 -0.080061 -0.248677
v -0.133907 -0.078934 -0.258144
v -0.036936 0.154883 0.110940
v -0.022847 0.147683 0.064493
v -0.009030 0.135761 0.018945
v 0.004381 0.119230 -0.025265
v 0.017257 0.098251 -0.067711
v 0.029474 0.073025 -0.107986
v 0.040915 0.043796 -0.145700
v 0.051468 0.010844 -0.180492
v 0.061034 -0.025513 -0.212024
v 0.069519 -0.064924 -0.239995
v -0.032408 0.154883 0.112560
v -0.013834 0.147683 0.067718
v 0.004381 0.135761 0.023744
v 0.022061 0.119230 -0.018939
v 0.039035 0.098251 -0.059919
v 0.055141 0.073025 -0.098802
v 0.070223 0.043796 -0.135214
v 0.084136 0.010844 -0.168803
v 0.096746 -0.025513 -0.199246
v 0.107932 -0.064924 -0.226251
v -0.028060 0.154883 0.114616
v -0.005180 0.147683 0.071811
v 0.017257 0.135761 0.029834
v 0.039035 0.119230 -0.010910
v 0.059945 0.098251 -0.050029
v 0.079784 0.073025 -0.087147
v 0.098363 0.043796 -0.121904
v 0.115501 0.010844 -0.153968
v 0.131034 -0.025513 -0.183029
v 0.144813 -0.064924 -0.208807
v -0.023935 0.154883 0.117089
v 0.003030 0.147683 0.076732
v 0.029474 0.135761 0.037157
v 0.055141 0.119230 -0.001257
v 0.079784 0.098251 -0.038138
v 0.103166 0.073025 -0.073132
v 0.125062 0.043796 -0.105901
v 0.145261 0.010844 -0.136131
v 0.163568 -0.025513 -0.163529
v 0.179807 -0.064924 -0.187833
v -0.020072 0.154883 0.119954
v 0.010719 0.147683 0.082435
v 0.040915 0.135761 0.045641
v 0.070223 0.119230 0.009929
v 0.098363 0.098251 -0.024359
v 0.125062 0.073025 -0.056893
v 0.150065 0.043796 -0.087358
v 0.173129 0.010844 -0.115462
v 0.194034 -0.025513 -0.140935
v 0.212577 -0.064924 -0.163529
v -0.016509 0.154883 0.123184
v 0.017812 0.147683 0.088863
v 0.051468 0.135761 0.055207
v 0.084136 0.119230 0.022539
v 0.115501 0.098251 -0.008826
v 0.145261 0.073025 -0.038586
v 0.173129 0.043796 -0.066454
v 0.198837 0.010844 -0.092162
v 0.222138 -0.025513 -0.115462
v 0.242806 -0.064924 -0.136131
v -0.013279 0.154883 0.126747
v 0.024241 0.147683 0.095956
v 0.061034 0.135761 0.065761
v 0.096746 0.119230 0.036452
v 0.131035 0.098251 0.008313
v 0.163568 0.073025 -0.018387
v 0.194034 0.043796 -0.043389
v 0.222138 0.010844 -0.066454
v 0.247610 -0.025513 -0.087358
v 0.270205 -0.064924 -0.105901
v -0.010414 0.154883 0.130610
v 0.029943 0.147683 0.103645
v 0.069519 0.135761 0.077201
v 0.107932 0.119230 0.051534
v 0.144813 0.098251 0.026891
v 0.179807 0.073025 0.003509
v 0.212577 0.043796 -0.018387
v 0.242806 0.010844 -0.038586
v 0.270205 -0.025513 -0.056893
v 0.294508 -0.064924 -0.073132
v -0.007941 0.154883 0.134735
v 0.034864 0.147683 0.111855
v 0.076841 0.135761 0.089418
v 0.117586 0.119230 0.067640
v 0.156705 0.098251 0.046731
v 0.193822 0.073025 0.026891
v 0.228580 0.043796 0.008313
v 0.260643 0.010844 -0.008826
v 0.289704 -0.025513 -0.024359
v 0.315483 -0.064924 -0.038138
v -0.005885 0.154883 0.139083
v 0.038957 0.147683 0.120509
v 0.082931 0.135761 0.102294
v 0.125614 0.119230 0.084615
v 0.166594 0.098251 0.067640
v 0.205477 0.073025 0.051534
v 0.241889 0.043796 0.036452
v 0.275478 0.010844 0.022539
v 0.305921 -0.025513 0.009929
v 0.332926 -0.064924 -0.001257
v -0.004265 0.154883 0.143612
v 0.042182 0.147683 0.129522
v 0.087730 0.135761 0.115705
v 0.131940 0.119230 0.102294
v 0.174386 0.098251 0.089418
v 0.214661 0.073025 0.077201
v 0.252375 0.043796 0.065761
v 0.287167 0.010844 0.055207
v 0.318700 -0.025513 0.045641
v 0.346671 -0.064924 0.037156
v -0.003096 0.154883 0.148277
v 0.044508 0.147683 0.138808
v 0.091191 0.135761 0.129522
v 0.136502 0.119230 0.120509
v 0.180007 0.098251 0.111856
v 0.221285 0.073025 0.103645
v 0.259939 0.043796 0.095956
v 0.295597 0.010844 0.088863
v 0.327916 -0.025513 0.082435
v 0.356584 -0.064924 0.076732
v 0.343328 -0.083708 -0.005565
v -0.002390 0.154883 0.153034
v 0.045913 0.147683 0.148277
v 0.093281 0.135761 0.143612
v 0.139258 0.119230 0.139083
v 0.183401 0.098251 0.134736
v 0.225285 0.073025 0.130610
v 0.264506 0.043796 0.126747
v 0.300688 0.010844 0.123184
v 0.360133 -0.088395 0.033073
v 0.369737 -0.092323 0.061738
v 0.148043 -0.126778 0.059589
v -0.002154 0.154883 0.157838
v 0.046382 0.147683 0.157838
v 0.093980 0.135761 0.157838
v 0.140179 0.119230 0.157838
v 0.184536 0.098251 0.157838
v 0.226622 0.073025 0.157838
v 0.266034 0.043796 0.157838
v -0.002390 0.154883 0.162642
v 0.045913 0.147683 0.167399
v 0.093281 0.135761 0.172064
v 0.139258 0.119230 0.176593
v 0.183401 0.098251 0.180940
v 0.225285 0.073025 0.185066
v -0.003096 0.154883 0.167399
v 0.044508 0.147683 0.176868
v 0.091191 0.135761 0.186154
v 0.136502 0.119230 0.195167
v 0.180007 0.098251 0.203820
v -0.004265 0.154883 0.172064
v 0.042182 0.147683 0.186154
v 0.087730 0.135761 0.199971
v 0.131940 0.119230 0.213382
v -0.005885 0.154883 0.176593
v 0.038957 0.147683 0.195167
v 0.082931 0.135761 0.213382
v -0.007941 0.154883 0.180940
v 0.034864 0.147683 0.203820
v 0.076841 0.135761 0.226258
v -0.010414 0.154883 0.185066
v 0.029943 0.147683 0.212031
v 0.069519 0.135761 0.238475
v -0.013279 0.154883 0.188929
v 0.024241 0.147683 0.219720
v -0.016509 0.154883 0.192492
v 0.017812 0.147683 0.226813
v -0.020072 0.154883 0.195722
v 0.010719 0.147683 0.233241
v -0.023935 0.154883 0.198587
v 0.003030 0.147683 0.238944
v -0.028060 0.154883 0.201060
v -0.005180 0.147683 0.243865
v -0.032408 0.154883 0.203116
v -0.013834 0.147683 0.247958
v -0.036936 0.154883 0.204736
v -0.022847 0.147683 0.251183
v -0.041602 0.154883 0.205905
v -0.032133 0.147683 0.253509
v -0.046359 0.154883 0.206611
v -0.041602 0.147683 0.254913
v -0.051163 0.154883 0.206847
v -0.051163 0.147683 0.255383
v -0.055966 0.154883 0.206611
v -0.060724 0.147683 0.254913
v -0.060724 0.154883 0.205905
v -0.070193 0.147683 0.253509
v -0.065389 0.154883 0.204736
v -0.079479 0.147683 0.251183
v -0.069918 0.154883 0.203116
v -0.088492 0.147683 0.247958
v -0.321344 0.069648 0.239797
v -0.074265 0.154883 0.201060
v -0.097145 0.147683 0.243865
v -0.181524 -0.135792 0.085343
v -0.356569 0.046522 0.227348
v -0.078390 0.154883 0.198587
v -0.105356 0.147683 0.238944
v 0.361348 -0.073028 0.075785
v 0.321779 -0.012539 0.121106
v 0.332183 -0.025513 0.111200
v -0.082253 0.154883 0.195722
v -0.113045 0.147683 0.233241
v 0.357325 -0.064924 0.081732
v 0.276205 0.034577 0.157838
v 0.301471 0.010844 0.139112
v 0.231055 0.068725 0.185634
v -0.085817 0.154883 0.192492
v -0.120138 0.147683 0.226813
v -0.153794 0.135761 0.260469
v 0.265673 0.043796 0.165181
v 0.189813 0.092258 0.205771
v 0.224671 0.073025 0.189202
v 0.154256 0.108201 0.220151
v 0.178207 0.098251 0.211006
v -0.089047 0.154883 0.188929
v -0.126566 0.147683 0.219720
v -0.163359 0.135761 0.249915
v 0.124880 0.119514 0.230757
v 0.125825 0.119230 0.230471
v 0.099154 0.126708 0.238184
v 0.077809 0.132193 0.244014
v 0.059430 0.136280 0.248599
v -0.091912 0.154883 0.185066
v -0.132269 0.147683 0.212031
v -0.171844 0.135761 0.238475
v 0.062495 0.135761 0.247945
v 0.042919 0.138789 0.251920
v 0.028307 0.140739 0.254672
v 0.015087 0.142247 0.256988
v 0.002887 0.143396 0.258959
v -0.094384 0.154883 0.180940
v -0.137190 0.147683 0.203820
v -0.179167 0.135761 0.226258
v -0.219911 0.119230 0.248036
v -0.008577 0.144242 0.260650
v -0.019532 0.144823 0.262110
v -0.030170 0.145164 0.263374
v -0.040661 0.145278 0.264469
v -0.051163 0.145171 0.265413
v -0.096441 0.154883 0.176593
v -0.141283 0.147683 0.195167
v -0.185257 0.135761 0.213382
v -0.227939 0.119230 0.231061
v -0.268920 0.098251 0.248036
v -0.061837 0.144838 0.266219
v -0.072855 0.144265 0.266894
v -0.084410 0.143428 0.267440
v -0.096732 0.142289 0.267853
v -0.110111 0.140793 0.268123
v -0.124926 0.138860 0.268233
v -0.098061 0.154883 0.172064
v -0.144508 0.147683 0.186154
v -0.190055 0.135761 0.199971
v -0.234265 0.119230 0.213381
v -0.276712 0.098251 0.226258
v -0.316987 0.073025 0.238475
v -0.141694 0.136371 0.268151
v -0.160541 0.132346 0.267217
v -0.145386 0.135761 0.268090
v -0.182487 0.126907 0.265613
v -0.208984 0.119778 0.263291
v -0.239699 0.108618 0.258613
v -0.099230 0.154883 0.167399
v -0.146834 0.147683 0.176868
v -0.193516 0.135761 0.186154
v -0.238828 0.119230 0.195167
v -0.282332 0.098251 0.203820
v -0.323611 0.073025 0.212031
v -0.210882 0.119230 0.263099
v -0.277182 0.092891 0.251458
v -0.266071 0.098251 0.254058
v -0.315875 0.073025 0.241583
v -0.099935 0.154883 0.162642
v -0.148238 0.147683 0.167399
v -0.195606 0.135761 0.172064
v -0.241583 0.119230 0.176593
v -0.285726 0.098251 0.180940
v -0.327610 0.073025 0.185066
v -0.100171 0.154883 0.157838
v -0.148708 0.147683 0.157838
v -0.196305 0.135761 0.157838
v -0.242504 0.119230 0.157838
v -0.286861 0.098251 0.157838
v -0.328948 0.073025 0.157838
v -0.099935 0.154883 0.153034
v -0.148238 0.147683 0.148277
v -0.195606 0.135761 0.143612
v -0.241583 0.119230 0.139083
v -0.285726 0.098251 0.134735
v -0.327610 0.073025 0.130610
v -0.366832 0.043796 0.126747
v -0.099230 0.154883 0.148277
v -0.146834 0.147683 0.138808
v -0.193516 0.135761 0.129522
v -0.238828 0.119230 0.120509
v -0.282332 0.098251 0.111855
v -0.323611 0.073025 0.103645
v -0.362265 0.043796 0.095956
v -0.098061 0.154883 0.143612
v -0.144508 0.147683 0.129522
v -0.190055 0.135761 0.115705
v -0.234265 0.119230 0.102294
v -0.276712 0.098251 0.089418
v -0.316987 0.073025 0.077201
v -0.354701 0.043796 0.065761
v -0.096441 0.154883 0.139083
v -0.141283 0.147683 0.120509
v -0.185257 0.135761 0.102294
v -0.227939 0.119230 0.084615
v -0.268920 0.098251 0.067640
v -0.307803 0.073025 0.051534
v -0.344214 0.043796 0.036452
v -0.094384 0.154883 0.134735
v -0.137190 0.147683 0.111856
v -0.179167 0.135761 0.089418
v -0.219911 0.119230 0.067640
v -0.259030 0.098251 0.046731
v -0.296148 0.073025 0.026891
v -0.330905 0.043796 0.008313
v -0.091912 0.154883 0.130610
v -0.132269 0.147683 0.103645
v -0.171844 0.135761 0.077201
v -0.210257 0.119230 0.051534
v -0.247139 0.098251 0.026891
v -0.282133 0.073025 0.003509
v -0.314902 0.043796 -0.018387
v -0.345132 0.010844 -0.038586
v -0.089047 0.154883 0.126747
v -0.126566 0.147683 0.095956
v -0.163359 0.135761 0.065761
v -0.199072 0.119230 0.036452
v -0.233360 0.098251 0.008313
v -0.265894 0.073025 -0.018387
v -0.296359 0.043796 -0.043389
v -0.324463 0.010844 -0.066454
v -0.085817 0.154883 0.123184
v -0.120138 0.147683 0.088863
v -0.153794 0.135761 0.055207
v -0.186462 0.119230 0.022539
v -0.217827 0.098251 -0.008826
v -0.247587 0.073025 -0.038586
v -0.275455 0.043796 -0.066454
v -0.301163 0.010844 -0.092162
v -0.324463 -0.025513 -0.115462
v -0.082253 0.154883 0.119954
v -0.113045 0.147683 0.082435
v -0.143240 0.135761 0.045641
v -0.172549 0.119230 0.009929
v -0.200688 0.098251 -0.024359
v -0.227388 0.073025 -0.056893
v -0.252390 0.043796 -0.087358
v -0.275455 0.010844 -0.115462
v -0.296359 -0.025513 -0.140934
v -0.078390 0.154883 0.117089
v -0.105356 0.147683 0.076732
v -0.131800 0.135761 0.037157
v -0.157466 0.119230 -0.001257
v -0.182110 0.098251 -0.038138
v -0.205492 0.073025 -0.073132
v -0.227388 0.043796 -0.105901
v -0.247586 0.010844 -0.136131
v -0.265894 -0.025513 -0.163529
v -0.282133 -0.064924 -0.187833
v -0.074265 0.154883 0.114616
v -0.097145 0.147683 0.071811
v -0.119582 0.135761 0.029834
v -0.141361 0.119230 -0.010910
v -0.162270 0.098251 -0.050029
v -0.182110 0.073025 -0.087147
v -0.200688 0.043796 -0.121904
v -0.217827 0.010844 -0.153968
v -0.233360 -0.025513 -0.183029
v -0.247139 -0.064924 -0.208807
v -0.069918 0.154883 0.112560
v -0.088492 0.147683 0.067718
v -0.106706 0.135761 0.023744
v -0.124386 0.119230 -0.018939
v -0.141361 0.098251 -0.059919
v -0.157467 0.073025 -0.098802
v -0.172549 0.043796 -0.135213
v -0.186462 0.010844 -0.168803
v -0.199072 -0.025513 -0.199246
v -0.210258 -0.064924 -0.226251
v -0.065389 0.154883 0.110940
v -0.079479 0.147683 0.064493
v -0.093295 0.135761 0.018945
v -0.106706 0.119230 -0.025264
v -0.119582 0.098251 -0.067711
v -0.131800 0.073025 -0.107986
v -0.143240 0.043796 -0.145700
v -0.153794 0.010844 -0.180491
v -0.163359 -0.025513 -0.212024
v -0.171844 -0.064924 -0.239995
v -0.060724 0.154883 0.109771
v -0.070193 0.147683 0.062167
v -0.079479 0.135761 0.015484
v -0.088492 0.119230 -0.029827
v -0.097145 0.098251 -0.073331
v -0.105356 0.073025 -0.114610
v -0.113045 0.043796 -0.153264
v -0.120138 0.010844 -0.188922
v -0.126566 -0.025513 -0.221240
v -0.132269 -0.064924 -0.249909
v -0.055966 0.154883 0.109065
v -0.060724 0.147683 0.060763
v -0.065389 0.135761 0.013395
v -0.069918 0.119230 -0.032582
v -0.074265 0.098251 -0.076725
v -0.078391 0.073025 -0.118610
v -0.082254 0.043796 -0.157831
v -0.085817 0.010844 -0.194013
v -0.089047 -0.025513 -0.226806
v -0.091912 -0.064924 -0.255895
v -0.051163 0.119230 -0.033504
v -0.051163 0.073025 -0.119947
v -0.051163 0.043796 -0.159359
v -0.051163 0.010844 -0.195715
v -0.051163 -0.025513 -0.228667
v -0.051163 -0.064924 -0.257897
vn -0.0000 0.9950 -0.0995
vn 0.0193 0.9805 -0.1956
vn -0.0000 0.9805 -0.1966
vn 0.0797 -0.5638 0.8221
vn 0.0286 0.9565 -0.2903
vn -0.0000 0.9565 -0.2917
vn 0.0797 -0.5638 0.8220
vn -0.0000 0.9233 -0.3840
vn 0.0376 0.9233 -0.3821
vn -0.0000 0.8813 -0.4726
vn 0.0463 0.8813 -0.4703
vn 0.0546 0.8308 -0.5539
vn -0.0000 0.8308 -0.5566
vn 0.0623 0.7723 -0.6322
vn -0.0000 0.7723 -0.6353
vn -0.0000 0.7063 -0.7079
vn 0.0694 0.7063 -0.7045
vn -0.0000 0.6336 -0.7736
vn 0.0758 0.6336 -0.7699
vn -0.0000 0.5549 -0.8319
vn 0.0815 0.5549 -0.8279
vn 0.0023 0.5141 -0.8577
vn 0.0876 0.5141 -0.8532
vn 0.0098 0.9950 -0.0991
vn 0.0194 0.9950 -0.0976
vn 0.3184 0.5549 -0.7686
vn 0.2961 0.6336 -0.7147
vn 0.3647 0.6336 -0.6823
vn -0.0000 1.0000 -0.0000
vn -0.3766 0.9233 0.0749
vn -0.3821 0.9233 0.0376
vn -0.4703 0.8813 0.0463
vn 0.1509 0.6336 -0.7588
vn 0.1623 0.5549 -0.8160
vn -0.5783 0.8029 0.1449
vn -0.5756 0.8031 0.1541
vn -0.5459 0.8308 0.1086
vn 0.1641 0.5141 -0.8419
vn 0.1259 0.5136 -0.8487
vn 0.7588 0.6336 -0.1509
vn 0.7558 0.6451 -0.1121
vn 0.8141 0.5680 -0.1208
vn 0.2128 0.9643 0.1578
vn 0.2425 0.9565 0.1621
vn 0.1912 0.9700 0.1501
vn 0.2431 0.7723 -0.5869
vn 0.2130 0.8308 -0.5143
vn 0.2624 0.8308 -0.4909
vn -0.2572 0.9565 0.1375
vn -0.1734 0.9805 0.0927
vn -0.1816 0.9805 0.0752
vn 0.0289 0.9950 -0.0952
vn 0.0571 0.9805 -0.1881
vn -0.3840 0.9233 -0.0000
vn -0.4726 0.8813 -0.0000
vn 0.0383 0.9805 -0.1928
vn 0.0847 0.9565 -0.2791
vn 0.1116 0.9565 -0.2695
vn 0.1469 0.9233 -0.3548
vn 0.0569 0.9565 -0.2861
vn 0.4703 0.8813 0.0463
vn 0.5073 0.8576 0.0843
vn 0.5359 0.8405 0.0795
vn 0.0383 0.9805 0.1928
vn 0.0193 0.9805 0.1956
vn 0.0238 0.9700 0.2418
vn 0.0749 0.9233 -0.3766
vn 0.4491 0.7063 -0.5472
vn 0.5005 0.7063 -0.5005
vn 0.5470 0.6336 -0.5470
vn -0.6681 -0.7345 0.1194
vn 0.0922 0.8813 -0.4635
vn -0.5101 0.8405 0.1825
vn -0.5327 0.8308 0.1616
vn 0.1086 0.8308 -0.5459
vn 0.6217 0.7826 0.0305
vn 0.6353 0.7723 -0.0000
vn 0.5566 0.8308 -0.0000
vn 0.1239 0.7723 -0.6231
vn 0.1381 0.7063 -0.6943
vn -0.3922 0.5549 -0.7337
vn -0.4078 0.5141 -0.7546
vn -0.4411 0.5136 -0.7359
vn 0.1809 0.8813 -0.4366
vn 0.2228 0.8813 -0.4168
vn 0.4366 0.8813 -0.1809
vn 0.3548 0.9233 -0.1469
vn 0.3675 0.9233 -0.1115
vn 0.3766 0.9233 -0.0749
vn 0.2861 0.9565 -0.0569
vn 0.2903 0.9565 -0.0286
vn -0.0850 -0.8791 -0.4689
vn 0.0704 0.9950 0.0704
vn 0.0631 0.9950 0.0769
vn 0.1247 0.9805 0.1519
vn 0.1115 0.9233 -0.3675
vn 0.0952 0.9950 0.0289
vn 0.0920 0.9950 0.0381
vn 0.1816 0.9805 0.0752
vn 0.1372 0.8813 -0.4522
vn 0.0553 0.9950 0.0828
vn 0.1092 0.9805 0.1634
vn 0.1616 0.8308 -0.5327
vn 0.0927 0.9805 0.1734
vn 0.0752 0.9805 0.1816
vn 0.0948 0.9700 0.2237
vn 0.1844 0.7723 -0.6080
vn 0.1527 -0.9710 -0.1842
vn 0.2055 0.7063 -0.6774
vn -0.0251 0.9700 0.2417
vn -0.0193 0.9805 0.1956
vn -0.0383 0.9805 0.1928
vn 0.2246 0.6336 -0.7403
vn -0.1675 0.5141 -0.8412
vn -0.1623 0.5549 -0.8160
vn -0.0815 0.5549 -0.8279
vn 0.2415 0.5549 -0.7961
vn -0.0098 0.9950 0.0991
vn -0.0194 0.9950 0.0976
vn 0.2465 0.5141 -0.8216
vn 0.0381 0.9950 -0.0920
vn 0.0752 0.9805 -0.1816
vn 0.2709 0.7063 -0.6540
vn 0.0796 -0.5638 0.8221
vn 0.3264 0.5141 -0.7932
vn 0.1810 0.9233 -0.3386
vn 0.0927 0.9805 -0.1734
vn -0.4703 0.8813 -0.0463
vn -0.3821 0.9233 -0.0376
vn -0.3766 0.9233 -0.0749
vn -0.0991 0.9950 0.0098
vn -0.0995 0.9950 -0.0000
vn -0.1966 0.9805 -0.0000
vn 0.1375 0.9565 -0.2572
vn -0.4635 0.8813 -0.0922
vn -0.5459 0.8308 -0.1086
vn -0.2903 0.9565 0.0286
vn -0.1956 0.9805 0.0193
vn -0.6679 0.7409 -0.0697
vn -0.6322 0.7723 -0.0623
vn -0.6231 0.7723 -0.1239
vn -0.2917 0.9565 -0.0000
vn -0.5539 0.8308 -0.0546
vn -0.5993 0.8000 -0.0294
vn -0.5957 0.8032 -0.0023
vn -0.5566 0.8308 -0.0000
vn 0.2995 0.7723 -0.5603
vn -0.0991 0.9950 -0.0098
vn -0.1956 0.9805 -0.0193
vn 0.3337 0.7063 -0.6243
vn -0.2903 0.9565 -0.0286
vn 0.3922 0.5549 -0.7337
vn 0.4031 0.5141 -0.7571
vn -0.0976 0.9950 -0.0194
vn -0.1928 0.9805 -0.0383
vn 0.0469 0.9950 -0.0878
vn -0.2861 0.9565 -0.0569
vn 0.2133 0.9233 -0.3193
vn -0.1816 0.9805 -0.0752
vn -0.1734 0.9805 -0.0927
vn -0.2572 0.9565 -0.1375
vn -0.5327 0.8308 -0.1616
vn -0.6080 0.7723 -0.1844
vn 0.2626 0.8813 -0.3929
vn -0.0920 0.9950 -0.0381
vn -0.0878 0.9950 -0.0469
vn -0.6576 0.7409 -0.1362
vn 0.3092 0.8308 -0.4628
vn -0.1881 0.9805 -0.0571
vn -0.2695 0.9565 -0.1116
vn 0.3530 0.7723 -0.5282
vn -0.3675 0.9233 -0.1115
vn -0.2791 0.9565 -0.0847
vn 0.3933 0.7063 -0.5886
vn -0.4522 0.8813 -0.1372
vn -0.3548 0.9233 -0.1469
vn 0.4298 0.6336 -0.6432
vn -0.4366 0.8813 -0.1809
vn -0.5143 0.8308 -0.2130
vn 0.4622 0.5549 -0.6917
vn -0.5869 0.7723 -0.2431
vn 0.4760 0.5141 -0.7136
vn -0.6407 0.7409 -0.2013
vn 0.4635 0.8813 0.0922
vn -0.0952 0.9950 -0.0289
vn -0.3387 0.9233 -0.1810
vn -0.4168 0.8813 -0.2228
vn 0.0553 0.9950 -0.0828
vn -0.4909 0.8308 -0.2624
vn 0.1092 0.9805 -0.1634
vn 0.1621 0.9565 -0.2425
vn -0.6174 0.7409 -0.2644
vn -0.5603 0.7723 -0.2995
vn 0.3531 0.8308 -0.4303
vn -0.3193 0.9233 -0.2133
vn 0.4030 0.7723 -0.4911
vn -0.3929 0.8813 -0.2626
vn -0.4628 0.8308 -0.3092
vn -0.6097 0.6715 -0.4212
vn -0.5886 0.7063 -0.3933
vn -0.5472 0.7063 -0.4491
vn 0.4908 0.6336 -0.5980
vn -0.0828 0.9950 -0.0553
vn -0.0769 0.9950 -0.0631
vn -0.1519 0.9805 -0.1247
vn 0.5278 0.5549 -0.6431
vn -0.1634 0.9805 -0.1092
vn -0.2255 0.9565 -0.1850
vn 0.5441 0.5141 -0.6631
vn -0.2425 0.9565 -0.1621
vn -0.2968 0.9233 -0.2436
vn -0.3653 0.8813 -0.2998
vn -0.4303 0.8308 -0.3531
vn 0.0631 0.9950 -0.0769
vn -0.5282 0.7723 -0.3530
vn -0.5856 0.7307 -0.3510
vn -0.5878 0.7409 -0.3248
vn 0.1247 0.9805 -0.1519
vn -0.4911 0.7723 -0.4030
vn 0.1850 0.9565 -0.2255
vn -0.0704 0.9950 -0.0704
vn -0.1390 0.9805 -0.1390
vn 0.2436 0.9233 -0.2968
vn -0.2063 0.9565 -0.2063
vn -0.2715 0.9233 -0.2715
vn 0.2998 0.8813 -0.3653
vn 0.4492 0.7723 -0.4492
vn -0.2436 0.9233 -0.2968
vn -0.2998 0.8813 -0.3653
vn -0.3342 0.8813 -0.3342
vn -0.3531 0.8308 -0.4303
vn 0.5883 0.5549 -0.5883
vn -0.3936 0.8308 -0.3936
vn -0.4030 0.7723 -0.4911
vn 0.6070 0.5141 -0.6061
vn -0.5005 0.7063 -0.5005
vn -0.4492 0.7723 -0.4492
vn -0.4491 0.7063 -0.5472
vn -0.4908 0.6336 -0.5980
vn -0.5573 0.5956 -0.5785
vn -0.5470 0.6336 -0.5470
vn 0.0704 0.9950 -0.0704
vn -0.0631 0.9950 -0.0769
vn -0.0553 0.9950 -0.0828
vn -0.1092 0.9805 -0.1634
vn 0.1390 0.9805 -0.1390
vn -0.1850 0.9565 -0.2255
vn -0.1247 0.9805 -0.1519
vn 0.2063 0.9565 -0.2063
vn -0.1621 0.9565 -0.2425
vn -0.2133 0.9233 -0.3193
vn -0.5581 0.6578 -0.5058
vn -0.5646 0.6715 -0.4799
vn 0.2715 0.9233 -0.2715
vn -0.2626 0.8813 -0.3929
vn -0.3092 0.8308 -0.4628
vn 0.3342 0.8813 -0.3342
vn 0.3936 0.8308 -0.3936
vn 0.6431 0.5549 -0.5278
vn -0.0469 0.9950 -0.0878
vn -0.0927 0.9805 -0.1734
vn 0.6638 0.5141 -0.5431
vn -0.1375 0.9565 -0.2572
vn -0.3530 0.7723 -0.5282
vn -0.2228 0.8813 -0.4168
vn -0.1809 0.8813 -0.4366
vn -0.2130 0.8308 -0.5143
vn -0.2624 0.8308 -0.4909
vn -0.2431 0.7723 -0.5869
vn -0.3933 0.7063 -0.5886
vn -0.4298 0.6336 -0.6432
vn 0.0769 0.9950 -0.0631
vn -0.3337 0.7063 -0.6243
vn -0.2995 0.7723 -0.5603
vn -0.4859 0.5785 -0.6551
vn -0.4969 0.5956 -0.6311
vn 0.1519 0.9805 -0.1247
vn -0.2709 0.7063 -0.6540
vn -0.2961 0.6336 -0.7147
vn 0.2255 0.9565 -0.1850
vn -0.3647 0.6336 -0.6823
vn -0.3184 0.5549 -0.7686
vn -0.1810 0.9233 -0.3387
vn 0.2968 0.9233 -0.2436
vn -0.0381 0.9950 -0.0920
vn -0.0752 0.9805 -0.1816
vn 0.3653 0.8813 -0.2998
vn -0.3307 0.5141 -0.7914
vn 0.4303 0.8308 -0.3531
vn 0.4911 0.7723 -0.4030
vn 0.5472 0.7063 -0.4491
vn 0.5980 0.6336 -0.4908
vn -0.2415 0.5549 -0.7961
vn -0.1116 0.9565 -0.2695
vn -0.0289 0.9950 -0.0952
vn -0.0194 0.9950 -0.0976
vn -0.0383 0.9805 -0.1928
vn -0.1469 0.9233 -0.3548
vn 0.0828 0.9950 -0.0553
vn -0.0571 0.9805 -0.1881
vn -0.0569 0.9565 -0.2861
vn -0.1844 0.7723 -0.6080
vn 0.1634 0.9805 -0.1092
vn -0.0847 0.9565 -0.2791
vn -0.0749 0.9233 -0.3766
vn -0.2055 0.7063 -0.6774
vn -0.2246 0.6336 -0.7403
vn 0.2425 0.9565 -0.1621
vn -0.1115 0.9233 -0.3675
vn -0.0922 0.8813 -0.4635
vn 0.3193 0.9233 -0.2133
vn -0.1616 0.8308 -0.5327
vn -0.1086 0.8308 -0.5459
vn -0.1239 0.7723 -0.6231
vn -0.2504 0.5141 -0.8204
vn 0.3929 0.8813 -0.2626
vn -0.1372 0.8813 -0.4522
vn 0.4628 0.8308 -0.3092
vn 0.5282 0.7723 -0.3530
vn 0.5886 0.7063 -0.3933
vn 0.6432 0.6336 -0.4298
vn 0.6917 0.5549 -0.4622
vn 0.7143 0.5141 -0.4749
vn -0.1509 0.6336 -0.7588
vn -0.0098 0.9950 -0.0991
vn -0.0193 0.9805 -0.1956
vn 0.0878 0.9950 -0.0469
vn -0.0546 0.8308 -0.5539
vn -0.0286 0.9565 -0.2903
vn 0.1734 0.9805 -0.0927
vn -0.0694 0.7063 -0.7045
vn -0.0623 0.7723 -0.6323
vn 0.2572 0.9565 -0.1375
vn -0.0376 0.9233 -0.3821
vn -0.0463 0.8813 -0.4703
vn 0.3387 0.9233 -0.1810
vn -0.0830 0.5141 -0.8537
vn 0.4168 0.8813 -0.2228
vn -0.0758 0.6336 -0.7699
vn 0.4909 0.8308 -0.2624
vn -0.1381 0.7063 -0.6943
vn 0.5603 0.7723 -0.2995
vn 0.6243 0.7063 -0.3337
vn 0.6823 0.6336 -0.3647
vn 0.7337 0.5549 -0.3922
vn 0.7577 0.5141 -0.4021
vn 0.2695 0.9565 -0.1116
vn 0.5143 0.8308 -0.2130
vn 0.5869 0.7723 -0.2431
vn 0.6540 0.7063 -0.2709
vn 0.7147 0.6336 -0.2961
vn 0.7686 0.5549 -0.3184
vn 0.7937 0.5141 -0.3253
vn 0.0920 0.9950 -0.0381
vn 0.1816 0.9805 -0.0752
vn 0.4522 0.8813 -0.1372
vn 0.5327 0.8308 -0.1616
vn 0.6080 0.7723 -0.1844
vn 0.6774 0.7063 -0.2055
vn 0.7403 0.6336 -0.2246
vn 0.7961 0.5549 -0.2415
vn 0.8219 0.5141 -0.2454
vn 0.0952 0.9950 -0.0289
vn 0.1881 0.9805 -0.0571
vn 0.2791 0.9565 -0.0847
vn 0.6231 0.7723 -0.1239
vn 0.6943 0.7063 -0.1381
vn 0.8160 0.5549 -0.1623
vn -0.4118 0.8902 0.1948
vn -0.3831 0.9039 0.1901
vn -0.4366 0.8813 0.1809
vn 0.0976 0.9950 -0.0194
vn 0.1928 0.9805 -0.0383
vn 0.4635 0.8813 -0.0922
vn 0.5459 0.8308 -0.1086
vn 0.8352 0.5139 -0.1957
vn -0.3387 0.9233 0.1810
vn -0.2695 0.9565 0.1116
vn 0.0991 0.9950 -0.0098
vn 0.1956 0.9805 -0.0193
vn 0.3821 0.9233 -0.0376
vn 0.4703 0.8813 -0.0463
vn 0.5539 0.8308 -0.0546
vn 0.6322 0.7723 -0.0623
vn 0.7045 0.7063 -0.0694
vn -0.0878 0.9950 0.0469
vn -0.0920 0.9950 0.0381
vn 0.0995 0.9950 -0.0000
vn 0.1966 0.9805 -0.0000
vn 0.2917 0.9565 -0.0000
vn 0.3840 0.9233 -0.0000
vn 0.4726 0.8813 -0.0000
vn 0.7346 0.6713 -0.0981
vn 0.6960 0.7173 -0.0342
vn -0.4622 0.5549 -0.6917
vn 0.0991 0.9950 0.0098
vn 0.1956 0.9805 0.0193
vn 0.2903 0.9565 0.0286
vn 0.3821 0.9233 0.0376
vn 0.5539 0.8308 0.0546
vn -0.4613 0.5140 -0.7232
vn 0.6714 0.7408 -0.0228
vn 0.1928 0.9805 0.0383
vn 0.2861 0.9565 0.0569
vn 0.3766 0.9233 0.0749
vn 0.5946 0.8031 0.0388
vn -0.2855 0.9415 0.1791
vn -0.2425 0.9565 0.1621
vn 0.0976 0.9950 0.0194
vn 0.3675 0.9233 0.1115
vn 0.4419 0.8902 0.1107
vn -0.3128 0.9311 0.1875
vn 0.1881 0.9805 0.0571
vn 0.2791 0.9565 0.0847
vn -0.1634 0.9805 0.1092
vn 0.2695 0.9565 0.1116
vn 0.4129 0.9039 0.1117
vn 0.3434 0.9311 0.1229
vn -0.0828 0.9950 0.0553
vn 0.0878 0.9950 0.0469
vn 0.1734 0.9805 0.0927
vn 0.2572 0.9565 0.1375
vn 0.3013 0.9415 0.1510
vn 0.3150 0.9415 0.1199
vn -0.2660 0.9415 0.2069
vn -0.2255 0.9565 0.1850
vn 0.0828 0.9950 0.0553
vn 0.1634 0.9805 0.1092
vn 0.2845 0.9415 0.1805
vn 0.0769 0.9950 0.0631
vn 0.1519 0.9805 0.1247
vn -0.1519 0.9805 0.1247
vn 0.1390 0.9805 0.1390
vn 0.1751 0.9700 0.1685
vn -0.0769 0.9950 0.0631
vn 0.1572 0.9700 0.1853
vn -0.0704 0.9950 0.0704
vn -0.2438 0.9415 0.2326
vn -0.2063 0.9565 0.2063
vn 0.1377 0.9700 0.2002
vn 0.1169 0.9700 0.2130
vn -0.1582 0.9700 0.1845
vn -0.1247 0.9805 0.1519
vn -0.1390 0.9805 0.1390
vn 0.0469 0.9950 0.0878
vn -0.1779 0.9643 0.1962
vn 0.0381 0.9950 0.0920
vn -0.0631 0.9950 0.0769
vn 0.0289 0.9950 0.0952
vn 0.0571 0.9805 0.1881
vn 0.0718 0.9700 0.2321
vn -0.1388 0.9700 0.1995
vn -0.1092 0.9805 0.1634
vn 0.0194 0.9950 0.0976
vn 0.0481 0.9700 0.2382
vn 0.0098 0.9950 0.0991
vn -0.0553 0.9950 0.0828
vn -0.0000 0.9950 0.0995
vn -0.0000 0.9805 0.1966
vn -0.0006 0.9700 0.2430
vn -0.1180 0.9700 0.2124
vn -0.0927 0.9805 0.1734
vn -0.0469 0.9950 0.0878
vn -0.0493 0.9700 0.2379
vn -0.0960 0.9700 0.2232
vn -0.0752 0.9805 0.1816
vn -0.0381 0.9950 0.0920
vn -0.0289 0.9950 0.0952
vn -0.0571 0.9805 0.1881
vn -0.0730 0.9700 0.2318
vn -0.2861 0.9565 0.0569
vn -0.1928 0.9805 0.0383
vn -0.4522 0.8813 0.1372
vn -0.4635 0.8813 0.0922
vn -0.3675 0.9233 0.1115
vn -0.4811 0.8576 0.1817
vn -0.3548 0.9233 0.1469
vn -0.0952 0.9950 0.0289
vn -0.1881 0.9805 0.0571
vn -0.2791 0.9565 0.0847
vn -0.0976 0.9950 0.0194
vn -0.5842 0.8032 0.1165
vn -0.5539 0.8308 0.0546
vn -0.5929 0.8032 0.0574
vn 0.8323 0.5136 -0.2085
vn 0.0389 -0.9876 0.1523
vn 0.0797 -0.5637 0.8221
vt 0.750000 0.968750
vt 0.734375 0.937500
vt 0.750000 0.937500
vt 2.314702 2.441379
vt 2.310873 2.442629
vt 2.408747 2.550746
vt 0.734375 0.906250
vt 0.750000 0.906250
vt 2.368024 2.429458
vt 2.349564 2.432646
vt 0.750000 0.875000
vt 0.734375 0.875000
vt 0.750000 0.843750
vt 0.734375 0.843750
vt 2.436628 2.422781
vt 2.423435 2.423435
vt 0.734375 0.812500
vt 0.750000 0.812500
vt 2.286216 2.451343
vt 0.734375 0.781250
vt 0.750000 0.781250
vt 2.408073 2.424558
vt 0.750000 0.750000
vt 0.734375 0.750000
vt 0.750000 0.718750
vt 0.734375 0.718750
vt 0.750000 0.687500
vt 0.734375 0.687500
vt 0.750000 0.675046
vt 0.734375 0.672142
vt 0.734375 0.968750
vt 0.718750 0.968750
vt 0.687500 0.687500
vt 0.687500 0.718750
vt 0.671875 0.718750
vt 0.742188 1.000000
vt 0.031250 0.875000
vt 0.015625 0.875000
vt 0.015625 0.843750
vt 0.718750 0.718750
vt 0.718750 0.687500
vt 0.035617 0.784312
vt 0.046875 0.808894
vt 0.031250 0.812500
vt 0.718750 0.673234
vt 0.729403 0.670969
vt 0.531250 0.718750
vt 0.519268 0.718885
vt 0.529316 0.687577
vt 0.393313 0.906311
vt 0.406250 0.906250
vt 0.390625 0.907610
vt 0.687500 0.781250
vt 0.687500 0.812500
vt 0.671875 0.812500
vt 0.078125 0.906250
vt 0.078125 0.937500
vt 0.062500 0.937500
vt 2.341786 2.434466
vt 0.726562 1.000000
vt 0.703125 0.968750
vt 0.703125 0.937500
vt 1.015625 0.875000
vt 1.000000 0.875000
vt 1.000000 0.843750
vt 0.718750 0.937500
vt 0.703125 0.906250
vt 0.687500 0.906250
vt 0.687500 0.875000
vt 2.468101 2.422990
vt 2.458736 2.422800
vt 0.718750 0.906250
vt 0.484375 0.843750
vt 0.468750 0.836331
vt 0.481981 0.812592
vt 0.281250 0.937500
vt 0.265625 0.937500
vt 0.265625 0.931201
vt 0.718750 0.875000
vt 0.640625 0.750000
vt 0.625000 0.750000
vt 0.625000 0.718750
vt 2.317845 2.721956
vt 2.322165 2.729987
vt 2.393862 2.690584
vt 0.718750 0.843750
vt 0.048765 0.812575
vt 0.046875 0.812500
vt 2.283569 2.619723
vt 2.288310 2.641447
vt 0.718750 0.812500
vt 0.496312 0.781386
vt 0.500000 0.781250
vt 0.500000 0.812500
vt 0.718750 0.781250
vt 2.278872 2.500000
vt 2.278318 2.507249
vt 0.718750 0.750000
vt 2.277364 2.521928
vt 2.639444 2.568774
vt 2.555629 2.432216
vt 0.828125 0.687500
vt 0.828125 0.670837
vt 0.839789 0.667529
vt 2.794630 2.567270
vt 2.788757 2.557437
vt 0.687500 0.843750
vt 0.671875 0.843750
vt 2.785942 2.553274
vt 0.562500 0.843750
vt 0.562500 0.875000
vt 0.546875 0.875000
vt 0.710938 1.000000
vt 2.768342 2.532647
vt 0.531250 0.875000
vt 0.531250 0.906250
vt 0.515625 0.906250
vt 2.761059 2.525712
vt 2.385753 2.775817
vt 2.413679 2.784561
vt 2.746843 2.513108
vt 0.375000 0.968750
vt 0.359375 0.968750
vt 0.359375 0.937500
vt 0.703125 0.875000
vt 2.729157 2.500000
vt 2.721785 2.494860
vt 0.453125 0.968750
vt 0.437500 0.968750
vt 0.437500 0.937500
vt 0.703125 0.843750
vt 0.343750 0.968750
vt 0.343750 0.937500
vt 0.703125 0.812500
vt 0.328125 0.937500
vt 0.312500 0.937500
vt 0.312500 0.928485
vt 0.703125 0.781250
vt 2.663695 2.744987
vt 2.686792 2.727607
vt 0.703125 0.750000
vt 0.234375 0.930046
vt 0.234375 0.937500
vt 0.218750 0.937500
vt 0.703125 0.718750
vt 0.781250 0.677102
vt 0.781250 0.687500
vt 0.765625 0.687500
vt 0.703125 0.687500
vt 0.234375 0.968750
vt 0.218750 0.968750
vt 0.703125 0.676153
vt 2.546375 2.430595
vt 2.537835 2.429216
vt 2.697552 2.480543
vt 2.693084 2.478045
vt 0.695312 1.000000
vt 0.687500 0.968750
vt 2.529810 2.428032
vt 2.668683 2.466447
vt 0.687500 0.937500
vt 2.522141 2.427010
vt 2.660559 2.462782
vt 2.514695 2.426125
vt 2.643793 2.456381
vt 2.507352 2.425358
vt 2.500000 2.424697
vt 2.623892 2.449157
vt 2.623230 2.448956
vt 2.605222 2.443758
vt 2.590281 2.439677
vt 0.687500 0.750000
vt 2.579560 2.436925
vt 2.577415 2.436467
vt 2.565857 2.434143
vt 0.687500 0.678437
vt 0.671875 0.875000
vt 0.671875 0.937500
vt 0.984375 0.843750
vt 0.984375 0.875000
vt 0.968750 0.875000
vt 1.015625 0.968750
vt 1.000000 0.968750
vt 1.000000 0.937500
vt 0.671875 0.906250
vt 0.968750 0.843750
vt 0.968750 0.812500
vt 0.015625 0.906250
vt 0.015625 0.937500
vt 0.000000 0.937500
vt 0.984375 0.779195
vt 0.984375 0.781250
vt 0.968750 0.781250
vt 1.015625 0.906250
vt 1.000000 0.906250
vt 0.984375 0.812500
vt 0.994798 0.781417
vt 1.000000 0.782279
vt 1.000000 0.812500
vt 0.671875 0.781250
vt 0.984375 0.968750
vt 0.984375 0.937500
vt 0.671875 0.750000
vt 0.984375 0.906250
vt 0.671875 0.687500
vt 0.671875 0.680082
vt 0.968750 0.968750
vt 0.968750 0.937500
vt 2.492528 2.424133
vt 2.484815 2.423661
vt 0.679688 1.000000
vt 0.671875 0.968750
vt 0.968750 0.906250
vt 2.476727 2.423279
vt 0.656250 0.875000
vt 0.937500 0.937500
vt 0.921875 0.937500
vt 0.921875 0.906250
vt 0.953125 0.812500
vt 0.953125 0.781250
vt 0.656250 0.843750
vt 0.937500 0.968750
vt 0.921875 0.968750
vt 0.968750 0.774706
vt 0.656250 0.812500
vt 0.953125 0.937500
vt 0.937500 0.906250
vt 0.656250 0.781250
vt 0.953125 0.875000
vt 0.953125 0.906250
vt 0.656250 0.750000
vt 0.953125 0.843750
vt 0.937500 0.875000
vt 0.656250 0.718750
vt 0.937500 0.843750
vt 0.937500 0.812500
vt 0.656250 0.687500
vt 0.937500 0.781250
vt 0.656250 0.681082
vt 0.953125 0.768704
vt 0.468750 0.843750
vt 0.953125 0.968750
vt 0.921875 0.875000
vt 0.921875 0.843750
vt 0.664062 1.000000
vt 0.656250 0.968750
vt 0.921875 0.812500
vt 0.656250 0.937500
vt 0.656250 0.906250
vt 0.937500 0.761063
vt 0.921875 0.781250
vt 0.640625 0.812500
vt 0.906250 0.875000
vt 0.640625 0.781250
vt 0.906250 0.843750
vt 0.906250 0.812500
vt 0.906250 0.740371
vt 0.906250 0.750000
vt 0.890625 0.750000
vt 0.640625 0.718750
vt 0.906250 0.968750
vt 0.890625 0.968750
vt 0.890625 0.937500
vt 0.640625 0.687500
vt 0.906250 0.937500
vt 0.890625 0.906250
vt 0.640625 0.681438
vt 0.906250 0.906250
vt 0.890625 0.875000
vt 0.890625 0.843750
vt 0.890625 0.812500
vt 0.648438 1.000000
vt 0.640625 0.968750
vt 0.906250 0.781250
vt 0.919583 0.750096
vt 0.921875 0.751627
vt 0.640625 0.937500
vt 0.890625 0.781250
vt 0.640625 0.906250
vt 0.875000 0.968750
vt 0.875000 0.937500
vt 0.640625 0.875000
vt 0.875000 0.906250
vt 0.875000 0.875000
vt 0.640625 0.843750
vt 0.625000 0.781250
vt 0.859375 0.875000
vt 0.859375 0.843750
vt 0.875000 0.843750
vt 0.859375 0.812500
vt 0.625000 0.687500
vt 0.875000 0.812500
vt 0.859375 0.781250
vt 0.625000 0.681147
vt 0.875000 0.750000
vt 0.875000 0.781250
vt 0.859375 0.750000
vt 0.859375 0.718750
vt 0.875000 0.711396
vt 0.875000 0.718750
vt 0.632812 1.000000
vt 0.625000 0.968750
vt 0.859375 0.968750
vt 0.843750 0.968750
vt 0.843750 0.937500
vt 0.625000 0.937500
vt 0.859375 0.906250
vt 0.859375 0.937500
vt 0.625000 0.906250
vt 0.843750 0.906250
vt 0.843750 0.875000
vt 0.882275 0.718937
vt 0.890625 0.726998
vt 0.625000 0.875000
vt 0.843750 0.843750
vt 0.843750 0.812500
vt 0.625000 0.843750
vt 0.625000 0.812500
vt 0.609375 0.687500
vt 0.828125 0.968750
vt 0.828125 0.937500
vt 0.609375 0.680211
vt 0.828125 0.906250
vt 0.843750 0.781250
vt 0.828125 0.843750
vt 0.812500 0.843750
vt 0.812500 0.812500
vt 0.828125 0.812500
vt 0.812500 0.781250
vt 0.843750 0.750000
vt 0.843750 0.718750
vt 0.617188 1.000000
vt 0.609375 0.968750
vt 0.828125 0.750000
vt 0.828125 0.781250
vt 0.854757 0.687648
vt 0.859375 0.693425
vt 0.609375 0.937500
vt 0.812500 0.750000
vt 0.812500 0.718750
vt 0.609375 0.906250
vt 0.828125 0.718750
vt 0.812500 0.687500
vt 0.828125 0.875000
vt 0.609375 0.875000
vt 0.812500 0.968750
vt 0.812500 0.937500
vt 0.609375 0.843750
vt 0.812500 0.674179
vt 0.609375 0.812500
vt 0.609375 0.781250
vt 0.609375 0.750000
vt 0.609375 0.718750
vt 0.796875 0.687500
vt 0.812500 0.906250
vt 0.796875 0.968750
vt 0.781250 0.968750
vt 0.781250 0.937500
vt 0.812500 0.875000
vt 0.601562 1.000000
vt 0.593750 0.968750
vt 0.796875 0.937500
vt 0.781250 0.906250
vt 0.796875 0.781250
vt 0.593750 0.937500
vt 0.796875 0.906250
vt 0.781250 0.875000
vt 0.796875 0.750000
vt 0.796875 0.718750
vt 0.593750 0.906250
vt 0.796875 0.875000
vt 0.781250 0.843750
vt 0.593750 0.875000
vt 0.796875 0.812500
vt 0.781250 0.812500
vt 0.781250 0.781250
vt 0.796875 0.676264
vt 0.593750 0.843750
vt 0.796875 0.843750
vt 0.593750 0.812500
vt 0.593750 0.781250
vt 0.593750 0.750000
vt 0.593750 0.718750
vt 0.593750 0.687500
vt 0.593750 0.678630
vt 0.781250 0.718750
vt 0.765625 0.968750
vt 0.765625 0.937500
vt 0.585938 1.000000
vt 0.578125 0.968750
vt 0.765625 0.812500
vt 0.765625 0.906250
vt 0.578125 0.937500
vt 0.765625 0.750000
vt 0.765625 0.781250
vt 0.578125 0.906250
vt 0.765625 0.875000
vt 0.765625 0.843750
vt 0.578125 0.875000
vt 0.765625 0.676696
vt 0.578125 0.843750
vt 0.765625 0.718750
vt 0.578125 0.812500
vt 0.781250 0.750000
vt 0.578125 0.781250
vt 0.578125 0.750000
vt 0.578125 0.718750
vt 0.578125 0.687500
vt 0.578125 0.676410
vt 0.562500 0.906250
vt 0.562500 0.812500
vt 0.562500 0.781250
vt 0.562500 0.750000
vt 0.562500 0.718750
vt 0.562500 0.687500
vt 0.562500 0.673554
vt 0.570312 1.000000
vt 0.562500 0.968750
vt 0.562500 0.937500
vt 0.546875 0.843750
vt 0.546875 0.812500
vt 0.546875 0.781250
vt 0.546875 0.750000
vt 0.546875 0.718750
vt 0.546875 0.687500
vt 0.546875 0.670071
vt 0.554688 1.000000
vt 0.546875 0.968750
vt 0.546875 0.937500
vt 0.546875 0.906250
vt 0.531250 0.781250
vt 0.531250 0.750000
vt 0.531250 0.687500
vt 0.066998 0.843881
vt 0.078125 0.859192
vt 0.062500 0.843750
vt 0.539062 1.000000
vt 0.531250 0.968750
vt 0.531250 0.937500
vt 0.531250 0.843750
vt 0.531250 0.812500
vt 0.531250 0.681488
vt 0.078125 0.875000
vt 0.062500 0.906250
vt 0.523438 1.000000
vt 0.515625 0.968750
vt 0.515625 0.937500
vt 0.515625 0.875000
vt 0.515625 0.843750
vt 0.515625 0.812500
vt 0.515625 0.781250
vt 0.515625 0.750000
vt 0.078125 0.968750
vt 0.062500 0.968750
vt 0.507812 1.000000
vt 0.500000 0.968750
vt 0.500000 0.937500
vt 0.500000 0.906250
vt 0.500000 0.875000
vt 0.500000 0.843750
vt 0.515625 0.729899
vt 0.508444 0.750191
vt 0.843750 0.687500
vt 0.492188 1.000000
vt 0.484375 0.968750
vt 0.484375 0.937500
vt 0.484375 0.906250
vt 0.484375 0.875000
vt 0.484375 0.812500
vt 0.843750 0.673051
vt 0.500000 0.772512
vt 0.468750 0.937500
vt 0.468750 0.906250
vt 0.468750 0.875000
vt 0.484375 0.807907
vt 2.338469 2.755280
vt 2.358379 2.764955
vt 0.093750 0.876034
vt 0.093750 0.906250
vt 0.476562 1.000000
vt 0.468750 0.968750
vt 0.453125 0.875000
vt 0.463748 0.843889
vt 2.407881 2.648134
vt 2.586339 2.784621
vt 0.092740 0.875033
vt 0.460938 1.000000
vt 0.453125 0.937500
vt 0.453125 0.906250
vt 0.093750 0.937500
vt 0.445312 1.000000
vt 0.437500 0.906250
vt 0.453125 0.858570
vt 0.438021 0.875018
vt 0.093750 0.968750
vt 0.429688 1.000000
vt 0.421875 0.968750
vt 0.421875 0.937500
vt 0.421875 0.906250
vt 0.421875 0.889135
vt 0.437500 0.875536
vt 0.109375 0.889512
vt 0.109375 0.906250
vt 0.414062 1.000000
vt 0.406250 0.968750
vt 0.406250 0.937500
vt 0.406250 0.899510
vt 0.398438 1.000000
vt 0.390625 0.968750
vt 0.390625 0.937500
vt 0.109375 0.937500
vt 0.382812 1.000000
vt 0.375000 0.937500
vt 0.375000 0.914184
vt 0.109375 0.968750
vt 0.359375 0.919296
vt 0.125000 0.968750
vt 0.367187 1.000000
vt 0.125000 0.899800
vt 0.125000 0.906250
vt 0.351562 1.000000
vt 0.343750 0.923253
vt 0.328125 0.926267
vt 0.140625 0.907848
vt 0.140625 0.937500
vt 0.125000 0.937500
vt 0.335937 1.000000
vt 0.328125 0.968750
vt 0.137451 0.906319
vt 0.320312 1.000000
vt 0.312500 0.968750
vt 0.140625 0.968750
vt 0.304687 1.000000
vt 0.296875 0.968750
vt 0.296875 0.937500
vt 0.296875 0.930008
vt 0.156250 0.914368
vt 0.156250 0.937500
vt 0.289062 1.000000
vt 0.281250 0.968750
vt 0.281250 0.930901
vt 0.273437 1.000000
vt 0.265625 0.968750
vt 0.156250 0.968750
vt 0.257812 1.000000
vt 0.250000 0.968750
vt 0.250000 0.937500
vt 0.250000 0.930919
vt 0.171875 0.919439
vt 0.171875 0.937500
vt 0.242187 1.000000
vt 0.171875 0.968750
vt 0.218750 0.928544
vt 0.187500 0.923363
vt 0.187500 0.937500
vt 0.226562 1.000000
vt 0.187500 0.968750
vt 0.210937 1.000000
vt 0.203125 0.968750
vt 0.203125 0.937500
vt 0.203125 0.926350
vt 2.500000 2.798053
vt 2.529375 2.798249
vt 2.538731 2.797614
vt 0.031250 0.906250
vt 2.281467 2.478476
vt 0.195312 1.000000
vt 2.442079 2.791188
vt 2.470877 2.795691
vt 2.284977 2.457229
vt 0.179687 1.000000
vt 2.558347 2.793329
vt 2.613327 2.773596
vt 2.639161 2.760351
vt 2.708318 2.708318
vt 0.031250 0.937500
vt 0.164062 1.000000
vt 2.728143 2.687232
vt 2.746139 2.664465
vt 2.762180 2.640138
vt 2.776143 2.614382
vt 2.787907 2.587336
vt 0.148437 1.000000
vt 0.046875 0.843750
vt 0.031250 0.843750
vt 0.046875 0.875000
vt 0.132812 1.000000
vt 0.062500 0.837114
vt 0.117187 1.000000
vt 0.101562 1.000000
vt 0.062500 0.875000
vt 0.085937 1.000000
vt 0.070312 1.000000
vt 0.054687 1.000000
vt 0.046875 0.968750
vt 0.046875 0.937500
vt 0.046875 0.906250
vt 0.039062 1.000000
vt 0.031250 0.968750
vt 0.031250 0.784420
vt 0.015625 0.812500
vt 0.015625 0.784019
vt 2.333785 2.748759
vt 0.023437 1.000000
vt 0.015625 0.968750
vt 1.015625 0.843750
vt 0.000000 0.812500
vt 0.000000 0.782279
vt 0.535726 0.667289
vt 1.007812 1.000000
vt 0.992188 1.000000
vt 0.976562 1.000000
vt 0.960938 1.000000
vt 2.300387 2.682150
vt 0.945312 1.000000
vt 2.276998 2.544358
vt 2.277744 2.567421
vt 2.279678 2.591261
vt 2.282906 2.616040
vt 0.929688 1.000000
vt 2.295568 2.667773
vt 2.305283 2.694717
vt 0.914062 1.000000
vt 0.898438 1.000000
vt 0.882812 1.000000
vt 2.448366 2.422724
vt 0.867188 1.000000
vt 2.434044 2.422824
vt 2.389525 2.426183
vt 2.388196 2.426317
vt 0.851562 1.000000
vt 0.835938 1.000000
vt 0.820312 1.000000
vt 0.804688 1.000000
vt 0.789062 1.000000
vt 0.773438 1.000000
vt 0.757812 1.000000
s 1
f 2/1/1 16/2/2 3/3/3
s 0
f 336/4/4 255/5/4 258/6/4
s 1
f 3/3/3 17/7/5 4/8/6
s 0
f 326/9/7 335/10/7 258/6/7
s 1
f 478/11/8 17/7/5 18/12/9
f 5/13/10 18/12/9 19/14/11
s 0
f 258/6/7 321/15/7 322/16/7
s 1
f 5/13/10 20/17/12 479/18/13
s 0
f 255/5/4 259/19/4 258/6/4
s 1
f 479/18/13 21/20/14 480/21/15
s 0
f 322/16/7 324/22/7 258/6/7
s 1
f 481/23/16 21/20/14 22/24/17
f 482/25/18 22/24/17 23/26/19
f 483/27/20 23/26/19 24/28/21
f 25/29/22 24/28/21 6/30/23
f 16/2/2 15/31/24 46/32/25
f 83/33/26 82/34/27 92/35/28
f 2/1/1 1/36/29 15/31/24
f 330/37/30 340/38/31 341/39/32
f 24/28/21 54/40/33 55/41/34
f 259/42/35 255/43/36 332/44/37
f 55/41/34 8/45/38 43/46/39
f 182/47/40 264/48/41 267/49/42
f 482/25/18 481/23/16 22/24/17
f 290/50/43 226/51/44 286/52/45
f 80/53/46 79/54/47 89/55/48
f 297/56/49 296/57/50 305/58/51
s 0
f 335/10/7 334/59/7 258/6/7
s 1
f 15/31/24 1/60/29 46/32/25
f 46/32/25 64/61/52 65/62/53
f 340/63/31 346/64/54 347/65/55
f 16/2/2 46/32/25 47/66/56
f 66/67/57 76/68/58 77/69/59
s 0
f 312/70/7 313/71/7 258/6/7
s 1
f 17/7/5 47/66/56 48/72/60
f 207/73/61 275/74/62 276/75/63
f 242/76/64 244/77/65 302/78/66
f 17/7/5 49/79/67 18/12/9
f 111/80/68 121/81/69 122/82/70
s 0
f 59/83/71 61/84/71 26/85/71
s 1
f 18/12/9 50/86/72 19/14/11
f 255/43/36 336/87/73 320/88/74
s 0
f 41/89/71 40/90/71 258/6/71
s 1
f 19/14/11 51/91/75 20/17/12
f 274/92/76 202/93/77 201/94/78
f 20/17/12 52/95/79 21/20/14
s 0
f 32/96/71 35/97/71 258/6/71
s 1
f 21/20/14 53/98/80 22/24/17
s 0
f 35/97/71 34/99/71 258/6/71
s 1
f 23/26/19 53/98/80 54/40/33
s 0
f 258/6/7 195/100/7 292/101/7
s 1
f 437/102/81 56/103/82 7/104/83
s 0
f 195/100/7 194/105/7 262/106/7
s 1
f 78/107/84 88/108/85 89/55/48
s 0
f 262/106/7 267/109/7 195/100/7
s 1
f 158/110/86 157/111/87 167/112/88
f 46/32/25 1/113/29 64/61/52
s 0
f 267/109/4 264/114/4 195/100/4
s 1
f 177/115/89 176/116/90 187/117/91
f 46/32/25 65/62/53 47/66/56
s 0
f 264/114/4 263/118/4 195/100/4
f 57/119/92 62/120/92 26/85/92
s 1
f 47/66/56 66/67/57 48/72/60
s 0
f 263/118/4 269/121/4 195/100/4
s 1
f 229/122/93 231/123/94 232/124/95
f 49/79/67 66/67/57 67/125/96
s 0
f 268/126/7 274/127/7 195/100/7
s 1
f 214/128/97 218/129/98 219/130/99
f 49/79/67 68/131/100 50/86/72
s 0
f 269/121/7 268/126/7 195/100/7
s 1
f 231/123/94 233/132/101 234/133/102
f 51/91/75 68/131/100 69/134/103
f 236/135/104 238/136/105 299/137/106
f 52/95/79 69/134/103 70/138/107
s 0
f 13/139/108 14/140/108 195/100/108
s 1
f 52/95/79 71/141/109 53/98/80
f 309/142/110 248/143/111 250/144/112
f 53/98/80 72/145/113 54/40/33
f 63/146/114 467/147/115 477/148/116
f 55/41/34 72/145/113 73/149/117
f 247/150/118 249/151/119 250/144/112
f 55/41/34 10/152/120 8/45/38
s 0
f 293/153/7 294/154/7 258/6/7
f 270/155/7 276/156/7 195/100/7
s 1
f 64/61/52 1/157/29 74/158/121
s 0
f 294/154/7 299/159/7 258/6/7
f 276/156/7 275/160/7 195/100/7
s 1
f 64/61/52 75/161/122 65/62/53
s 0
f 299/159/7 300/162/7 258/6/7
f 275/160/4 278/163/4 195/100/4
s 1
f 65/62/53 76/68/58 66/67/57
s 0
f 300/162/4 301/164/4 258/6/4
f 278/163/7 277/165/7 195/100/7
s 1
f 66/67/57 77/69/59 67/125/96
s 0
f 302/166/7 303/167/7 258/6/7
f 277/165/7 283/168/7 195/100/7
s 1
f 67/125/96 78/107/84 68/131/100
s 0
f 301/164/7 302/166/7 258/6/7
f 283/168/4 282/169/4 195/100/4
s 1
f 68/131/100 79/54/47 69/134/103
s 0
f 282/169/4 284/170/4 195/100/4
s 1
f 70/138/107 79/54/47 80/53/46
s 0
f 284/170/7 285/171/7 195/100/7
s 1
f 70/138/107 81/172/123 71/141/109
s 0
f 285/171/124 290/173/124 286/174/124
s 1
f 71/141/109 82/34/27 72/145/113
s 0
f 195/100/7 285/171/7 286/174/7
s 1
f 73/149/117 82/34/27 83/33/26
s 0
f 286/174/4 291/175/4 195/100/4
s 1
f 73/149/117 11/176/125 10/152/120
s 0
f 291/175/7 292/101/7 195/100/7
s 1
f 478/11/8 4/8/6 17/7/5
s 0
f 292/101/4 293/153/4 258/6/4
s 1
f 77/69/59 87/177/126 88/108/85
f 74/158/121 85/178/127 75/161/122
f 353/179/128 352/180/129 359/181/130
f 337/182/131 343/183/132 344/184/133
f 76/68/58 85/178/127 86/185/134
f 353/179/128 360/186/135 361/187/136
f 339/188/137 338/189/138 344/190/133
f 77/69/59 86/185/134 87/177/126
f 34/191/139 355/192/140 362/193/141
f 339/194/137 345/195/142 346/64/54
f 77/69/59 88/108/85 78/107/84
f 355/192/140 354/196/143 361/187/136
f 35/197/144 32/198/145 348/199/146
f 78/107/84 89/55/48 79/54/47
f 348/199/146 354/196/143 35/197/144
f 80/53/46 89/55/48 90/200/147
f 343/183/132 349/201/148 350/202/149
f 80/53/46 91/203/150 81/172/123
f 345/195/142 344/184/133 350/202/149
f 81/172/123 92/35/28 82/34/27
f 345/195/142 351/204/151 352/180/129
f 83/33/26 92/35/28 93/205/152
f 347/65/55 346/64/54 352/180/129
f 83/33/26 12/206/153 11/176/125
f 347/65/55 353/179/128 354/196/143
f 17/7/5 16/2/2 47/66/56
f 350/202/149 349/201/148 356/207/154
f 77/69/59 76/68/58 86/185/134
f 351/204/151 350/202/149 357/208/155
s 0
f 309/209/7 310/210/7 258/6/7
s 1
f 74/158/121 1/211/29 84/212/156
f 351/204/151 358/213/157 359/181/130
s 0
f 310/210/4 311/214/4 258/6/4
s 1
f 86/185/134 97/215/158 87/177/126
f 371/216/159 378/217/160 379/218/161
f 361/187/136 368/219/162 369/220/163
f 87/177/126 98/221/164 88/108/85
f 370/222/165 377/223/166 378/217/160
f 36/224/167 362/193/141 369/220/163
f 88/108/85 99/225/168 89/55/48
f 364/226/169 371/216/159 372/227/170
f 90/200/147 99/225/168 100/228/171
f 366/229/172 365/230/173 372/227/170
f 91/203/150 100/228/171 101/231/174
f 367/232/175 366/229/172 373/233/176
f 91/203/150 102/234/177 92/35/28
f 367/232/175 374/235/178 375/236/179
f 93/205/152 102/234/177 103/237/180
f 368/219/162 375/236/179 376/238/181
f 93/205/152 13/239/182 12/206/153
f 37/240/183 369/220/163 376/238/181
f 207/73/61 213/241/184 275/74/62
f 363/242/185 370/222/165 371/216/159
f 76/68/58 75/161/122 85/178/127
f 373/233/176 380/243/186 381/244/187
f 357/208/155 364/226/169 365/230/173
f 84/212/156 1/245/29 94/246/188
f 374/235/178 381/244/187 382/247/189
f 358/213/157 365/230/173 366/229/172
f 84/212/156 95/248/190 85/178/127
f 376/238/181 375/236/179 382/247/189
f 359/181/130 366/229/172 367/232/175
f 86/185/134 95/248/190 96/249/191
f 38/250/192 376/238/181 383/251/193
f 360/186/135 367/232/175 368/219/162
f 98/221/164 109/252/194 99/225/168
f 381/244/187 380/243/186 387/253/195
f 100/228/171 109/252/194 110/254/196
f 381/244/187 388/255/197 389/256/198
f 101/231/174 110/254/196 111/80/68
f 40/257/199 391/258/200 399/259/201
f 101/231/174 112/260/202 102/234/177
f 384/261/203 392/262/204 393/263/205
f 103/237/180 112/260/202 113/264/206
f 385/265/207 393/263/205 394/266/208
f 103/237/180 14/267/209 13/239/182
f 386/268/210 394/266/208 395/269/211
f 18/12/9 49/79/67 50/86/72
f 387/253/195 395/269/211 396/270/212
f 74/158/121 84/212/156 85/178/127
f 388/255/197 396/270/212 397/271/213
f 383/251/193 382/247/189 389/256/198
f 94/246/188 1/272/29 104/273/214
f 390/274/215 389/256/198 397/271/213
f 41/275/216 39/276/217 383/251/193
f 95/248/190 104/273/214 105/277/218
f 391/258/200 390/274/215 398/278/219
f 383/251/193 390/274/215 41/275/216
f 95/248/190 106/279/220 96/249/191
f 392/262/204 400/280/221 401/281/222
f 377/223/166 384/261/203 385/265/207
f 97/215/158 106/279/220 107/282/223
f 394/266/208 402/283/224 403/284/225
f 378/217/160 385/265/207 386/268/210
f 97/215/158 108/285/226 98/221/164
f 394/266/208 393/263/205 401/281/222
f 380/243/186 379/218/161 386/268/210
f 111/80/68 120/286/227 121/81/69
f 403/284/225 412/287/228 413/288/229
f 111/80/68 122/82/70 112/260/202
f 404/289/230 413/288/229 414/290/231
f 112/260/202 123/291/232 113/264/206
f 405/292/233 414/290/231 415/293/234
f 14/267/209 123/291/232 27/294/235
f 407/295/236 406/296/237 415/293/234
f 20/17/12 51/91/75 52/95/79
f 407/295/236 416/297/238 417/298/239
f 73/149/117 83/33/26 11/176/125
f 44/299/240 408/300/241 417/298/239
f 396/270/212 404/289/230 405/292/233
f 104/273/214 1/301/29 114/302/242
f 409/303/243 418/304/244 419/305/245
f 397/271/213 405/292/233 406/296/237
f 104/273/214 115/306/246 105/277/218
f 411/307/247 410/308/248 419/305/245
f 399/259/201 398/278/219 406/296/237
f 105/277/218 116/309/249 106/279/220
f 411/307/247 420/310/250 421/311/251
f 58/312/252 42/313/253 407/295/236
f 107/282/223 116/309/249 117/314/254
f 413/288/229 422/315/255 423/316/256
f 42/313/253 399/259/201 407/295/236
f 108/285/226 117/314/254 118/317/257
f 413/288/229 412/287/228 421/311/251
f 400/280/221 409/303/243 410/308/248
f 108/285/226 119/318/258 109/252/194
f 401/281/222 410/308/248 411/307/247
f 109/252/194 120/286/227 110/254/196
f 402/283/224 411/307/247 412/287/228
f 122/82/70 133/319/259 123/291/232
f 418/304/244 428/320/260 429/321/261
f 27/294/235 133/319/259 28/322/262
f 419/305/245 429/321/261 430/323/263
f 414/290/231 423/316/256 424/324/264
f 432/325/265 442/326/266 443/327/267
f 73/149/117 72/145/113 82/34/27
f 433/328/268 443/327/267 444/329/269
f 416/297/238 425/330/270 426/331/271
f 114/302/242 1/332/29 124/333/272
f 435/334/273 434/335/274 444/329/269
f 61/336/275 59/337/276 426/331/271
f 114/302/242 125/338/277 115/306/246
f 435/334/273 445/339/278 446/340/279
f 59/337/276 417/298/239 426/331/271
f 115/306/246 126/341/280 116/309/249
f 436/342/281 446/340/279 447/343/282
f 420/310/250 430/323/263 431/344/283
f 116/309/249 127/345/284 117/314/254
f 428/320/260 438/346/285 439/347/286
f 421/311/251 431/344/283 432/325/265
f 118/317/257 127/345/284 128/348/287
f 437/102/81 447/343/282 57/349/288
f 422/315/255 432/325/265 433/328/268
f 118/317/257 129/350/289 119/318/258
f 423/316/256 433/328/268 434/335/274
f 120/286/227 129/350/289 130/351/290
f 425/330/270 424/324/264 434/335/274
f 121/81/69 130/351/290 131/352/291
f 425/330/270 435/334/273 436/342/281
f 121/81/69 132/353/292 122/82/70
f 426/331/271 436/342/281 437/102/81
f 70/138/107 80/53/46 81/172/123
f 457/354/293 467/147/115 63/146/114
f 431/344/283 430/323/263 440/355/294
f 448/356/295 458/357/296 459/358/297
f 431/344/283 441/359/298 442/326/266
f 124/333/272 1/360/29 134/361/299
f 449/362/300 459/358/297 460/363/301
f 445/339/278 444/329/269 454/364/302
f 125/338/277 134/361/299 135/365/303
f 450/366/304 460/363/301 461/367/305
f 445/339/278 455/368/306 456/369/307
f 126/341/280 135/365/303 136/370/308
f 451/371/309 461/367/305 462/372/310
f 446/340/279 456/369/307 457/354/293
f 126/341/280 137/373/311 127/345/284
f 453/374/312 463/375/313 464/376/314
f 447/343/282 457/354/293 62/377/315
f 128/348/287 137/373/311 138/378/316
f 452/379/317 462/372/310 463/375/313
f 438/346/285 448/356/295 449/362/300
f 128/348/287 139/380/318 129/350/289
f 439/347/286 449/362/300 450/366/304
f 129/350/289 140/381/319 130/351/290
f 440/355/294 450/366/304 451/371/309
f 131/352/291 140/381/319 141/382/320
f 441/359/298 451/371/309 452/379/317
f 131/352/291 142/383/321 132/353/292
f 442/326/266 452/379/317 453/374/312
f 132/353/292 143/384/322 133/319/259
f 444/329/269 443/327/267 453/374/312
f 28/322/262 143/384/322 29/385/323
f 456/369/307 466/386/324 467/147/115
f 458/357/296 468/387/325 469/388/326
f 134/361/299 1/389/29 144/390/327
f 473/391/328 479/18/13 480/21/15
f 459/358/297 469/388/326 470/392/329
f 134/361/299 145/393/330 135/365/303
f 475/394/331 474/395/332 480/21/15
f 461/367/305 460/363/301 470/392/329
f 135/365/303 146/396/333 136/370/308
f 475/394/331 481/23/16 482/25/18
f 461/367/305 471/397/334 472/398/335
f 136/370/308 147/399/336 137/373/311
f 45/400/337 477/148/116 483/27/20
f 462/372/310 472/398/335 473/391/328
f 138/378/316 147/399/336 148/401/338
f 476/402/339 482/25/18 483/27/20
f 464/376/314 463/375/313 473/391/328
f 138/378/316 149/403/340 139/380/318
f 465/404/341 464/376/314 474/395/332
f 140/381/319 149/403/340 150/405/342
f 465/404/341 475/394/331 476/402/339
f 141/382/320 150/405/342 151/406/343
f 466/386/324 476/402/339 477/148/116
f 141/382/320 152/407/344 142/383/321
f 469/388/326 468/387/325 2/1/1
f 142/383/321 153/408/345 143/384/322
f 470/392/329 469/388/326 3/3/3
f 29/385/323 153/408/345 33/409/346
f 470/392/329 4/8/6 478/11/8
f 70/138/107 69/134/103 79/54/47
f 472/398/335 471/397/334 478/11/8
f 455/368/306 465/404/341 466/386/324
f 473/391/328 472/398/335 5/13/10
f 145/393/330 156/410/347 146/396/333
f 147/399/336 156/410/347 157/111/87
f 147/399/336 158/110/86 148/401/338
f 148/401/338 159/411/348 149/403/340
f 149/403/340 160/412/349 150/405/342
f 151/406/343 160/412/349 161/413/350
f 151/406/343 162/414/351 152/407/344
f 152/407/344 163/415/352 153/408/345
f 33/409/346 163/415/352 184/416/353
f 68/131/100 78/107/84 79/54/47
f 144/390/327 1/417/29 154/418/354
f 144/390/327 155/419/355 145/393/330
f 158/110/86 167/112/88 168/420/356
f 158/110/86 169/421/357 159/411/348
f 159/411/348 170/422/358 160/412/349
f 161/413/350 170/422/358 171/423/359
f 161/413/350 172/424/360 162/414/351
f 162/414/351 173/425/361 163/415/352
f 184/416/353 173/425/361 193/426/362
f 67/125/96 77/69/59 78/107/84
f 154/418/354 1/427/29 164/428/363
f 154/418/354 165/429/364 155/419/355
f 156/410/347 165/429/364 166/430/365
f 157/111/87 166/430/365 167/112/88
f 169/421/357 180/431/366 170/422/358
f 171/423/359 180/431/366 181/432/367
f 171/423/359 182/47/40 172/424/360
f 172/424/360 183/433/368 173/425/361
f 53/98/80 71/141/109 72/145/113
f 335/434/369 326/435/370 308/436/371
f 164/428/363 1/437/29 174/438/372
f 164/428/363 175/439/373 165/429/364
f 165/429/364 176/116/90 166/430/365
f 166/430/365 177/115/89 167/112/88
f 167/112/88 178/440/374 168/420/356
f 168/420/356 179/441/375 169/421/357
f 64/61/52 74/158/121 75/161/122
f 52/95/79 70/138/107 71/141/109
f 262/442/376 183/433/368 267/49/42
f 298/443/377 297/56/49 306/444/378
f 174/438/372 1/445/29 185/446/379
f 174/438/372 186/447/380 175/439/373
f 175/439/373 187/117/91 176/116/90
f 177/115/89 187/117/91 188/448/381
f 177/115/89 189/449/382 178/440/374
f 178/440/374 190/450/383 179/441/375
f 180/431/366 190/450/383 191/451/384
f 181/432/367 191/451/384 192/452/385
f 295/453/386 304/454/387 305/58/51
f 185/446/379 1/455/29 196/456/388
f 185/446/379 197/457/389 186/447/380
f 187/117/91 197/457/389 198/458/390
f 187/117/91 199/459/391 188/448/381
f 188/448/381 200/460/392 189/449/382
f 189/449/382 201/94/78 190/450/383
f 190/450/383 202/93/77 191/451/384
f 47/66/56 65/62/53 66/67/57
f 263/461/393 192/452/385 269/462/394
f 427/463/395 437/102/81 7/104/83
f 196/456/388 1/464/29 203/465/396
f 196/456/388 204/466/397 197/457/389
f 198/458/390 204/466/397 205/467/398
f 198/458/390 206/468/399 199/459/391
f 199/459/391 207/73/61 200/460/392
f 200/460/392 208/469/400 201/94/78
f 7/104/83 60/470/401 427/463/395
f 268/471/402 202/93/77 274/92/76
f 21/20/14 52/95/79 53/98/80
f 19/14/11 50/86/72 51/91/75
f 264/48/41 182/47/40 263/461/393
f 203/465/396 210/472/403 204/466/397
f 205/467/398 210/472/403 211/473/404
f 205/467/398 212/474/405 206/468/399
f 206/468/399 213/241/184 207/73/61
f 17/7/5 48/72/60 49/79/67
f 270/475/406 208/469/400 276/75/63
s 0
f 26/85/92 7/476/92 56/477/92
s 1
f 2/1/1 15/31/24 16/2/2
f 51/91/75 50/86/72 68/131/100
f 325/478/407 289/479/408 297/56/49
f 203/465/396 1/480/29 209/481/409
f 211/473/404 217/482/410 212/474/405
f 481/23/16 480/21/15 21/20/14
f 275/74/62 213/241/184 278/483/411
f 80/53/46 90/200/147 91/203/150
f 5/13/10 478/11/8 18/12/9
f 25/29/22 483/27/20 24/28/21
s 0
f 195/100/108 9/484/108 10/485/108
s 1
f 333/486/412 325/478/407 298/443/377
f 209/481/409 1/487/29 214/128/97
f 209/481/409 215/488/413 210/472/403
f 210/472/403 216/489/414 211/473/404
f 87/177/126 97/215/158 98/221/164
f 88/108/85 98/221/164 99/225/168
f 90/200/147 89/55/48 99/225/168
f 91/203/150 90/200/147 100/228/171
f 91/203/150 101/231/174 102/234/177
f 289/479/408 288/490/415 296/57/50
f 214/128/97 1/491/29 218/129/98
f 214/128/97 219/130/99 215/488/413
f 215/488/413 220/492/416 216/489/414
f 83/33/26 93/205/152 12/206/153
f 277/493/417 217/482/410 283/494/418
f 98/221/164 108/285/226 109/252/194
f 100/228/171 99/225/168 109/252/194
f 101/231/174 100/228/171 110/254/196
f 287/495/419 295/453/386 296/57/50
f 218/129/98 1/496/29 221/497/420
f 218/129/98 222/498/421 219/130/99
f 220/492/416 222/498/421 223/499/422
f 220/492/416 284/500/423 282/501/424
f 93/205/152 103/237/180 13/239/182
f 84/212/156 94/246/188 95/248/190
f 86/185/134 85/178/127 95/248/190
f 97/215/158 107/282/223 108/285/226
f 324/502/425 281/503/426 289/479/408
f 221/497/420 1/504/29 224/505/427
f 221/497/420 225/506/428 222/498/421
f 223/499/422 225/506/428 226/51/44
f 223/499/422 285/507/429 284/500/423
f 103/237/180 102/234/177 112/260/202
f 103/237/180 113/264/206 14/267/209
f 95/248/190 94/246/188 104/273/214
f 95/248/190 105/277/218 106/279/220
f 97/215/158 96/249/191 106/279/220
f 224/505/427 1/508/29 227/509/430
f 224/505/427 228/510/431 225/506/428
f 111/80/68 110/254/196 120/286/227
f 285/507/429 226/51/44 290/50/43
f 112/260/202 122/82/70 123/291/232
f 14/267/209 113/264/206 123/291/232
f 104/273/214 114/302/242 115/306/246
f 105/277/218 115/306/246 116/309/249
f 107/282/223 106/279/220 116/309/249
f 108/285/226 107/282/223 117/314/254
f 281/503/426 280/511/432 288/490/415
f 227/509/430 1/512/29 229/122/93
f 227/509/430 230/513/433 228/510/431
f 228/510/431 291/514/434 286/52/45
f 109/252/194 119/318/258 120/286/227
f 122/82/70 132/353/292 133/319/259
f 27/294/235 123/291/232 133/319/259
f 114/302/242 124/333/272 125/338/277
f 115/306/246 125/338/277 126/341/280
f 116/309/249 126/341/280 127/345/284
f 279/515/435 287/495/419 288/490/415
f 229/122/93 232/124/95 230/513/433
f 230/513/433 292/516/436 291/514/434
f 118/317/257 128/348/287 129/350/289
f 120/286/227 119/318/258 129/350/289
f 121/81/69 120/286/227 130/351/290
f 121/81/69 131/352/291 132/353/292
f 125/338/277 124/333/272 134/361/299
f 126/341/280 125/338/277 135/365/303
f 271/517/437 279/515/435 280/511/432
f 229/122/93 1/518/29 231/123/94
f 128/348/287 127/345/284 137/373/311
f 128/348/287 138/378/316 139/380/318
f 129/350/289 139/380/318 140/381/319
f 131/352/291 130/351/290 140/381/319
f 131/352/291 141/382/320 142/383/321
f 132/353/292 142/383/321 143/384/322
f 322/519/438 273/520/439 281/503/426
f 231/123/94 1/521/29 233/132/101
f 231/123/94 234/133/102 232/124/95
f 232/124/95 293/522/440 292/516/436
f 234/133/102 294/523/441 293/522/440
f 134/361/299 144/390/327 145/393/330
f 135/365/303 145/393/330 146/396/333
f 136/370/308 146/396/333 147/399/336
f 138/378/316 137/373/311 147/399/336
f 138/378/316 148/401/338 149/403/340
f 140/381/319 139/380/318 149/403/340
f 321/524/442 266/525/443 272/526/444
f 233/132/101 1/527/29 235/528/445
f 233/132/101 236/135/104 234/133/102
f 142/383/321 152/407/344 153/408/345
f 29/385/323 143/384/322 153/408/345
f 145/393/330 155/419/355 156/410/347
f 147/399/336 146/396/333 156/410/347
f 147/399/336 157/111/87 158/110/86
f 323/529/446 321/524/442 273/520/439
f 235/528/445 1/530/29 237/531/447
f 235/528/445 238/136/105 236/135/104
f 236/135/104 299/137/106 294/523/441
f 141/382/320 151/406/343 152/407/344
f 152/407/344 162/414/351 163/415/352
f 33/409/346 153/408/345 163/415/352
f 144/390/327 154/418/354 155/419/355
f 265/532/448 271/517/437 272/526/444
f 237/531/447 1/533/29 239/534/449
f 237/531/447 240/535/450 238/136/105
f 238/136/105 300/536/451 299/137/106
f 149/403/340 159/411/348 160/412/349
f 151/406/343 150/405/342 160/412/349
f 151/406/343 161/413/350 162/414/351
f 184/416/353 163/415/352 173/425/361
f 314/537/452 261/538/453 266/525/443
f 239/534/449 1/539/29 241/540/454
f 239/534/449 242/76/64 240/535/450
f 240/535/450 301/541/455 300/536/451
f 158/110/86 168/420/356 169/421/357
f 159/411/348 169/421/357 170/422/358
f 161/413/350 160/412/349 170/422/358
f 161/413/350 171/423/359 172/424/360
f 162/414/351 172/424/360 173/425/361
f 241/540/454 1/542/29 243/543/456
f 241/540/454 244/77/65 242/76/64
f 242/76/64 302/78/66 301/541/455
f 156/410/347 155/419/355 165/429/364
f 157/111/87 156/410/347 166/430/365
f 169/421/357 179/441/375 180/431/366
f 171/423/359 170/422/358 180/431/366
f 171/423/359 181/432/367 182/47/40
f 172/424/360 182/47/40 183/433/368
f 260/544/457 265/532/448 266/525/443
f 243/543/456 1/545/29 245/546/458
f 243/543/456 246/547/459 244/77/65
f 302/78/66 246/547/459 303/548/460
f 165/429/364 175/439/373 176/116/90
f 166/430/365 176/116/90 177/115/89
f 167/112/88 177/115/89 178/440/374
f 168/420/356 178/440/374 179/441/375
f 174/438/372 185/446/379 186/447/380
f 175/439/373 186/447/380 187/117/91
f 313/549/461 257/550/462 261/538/453
f 245/546/458 1/551/29 247/150/118
f 245/546/458 248/143/111 246/547/459
f 303/548/460 248/143/111 309/142/110
f 177/115/89 188/448/381 189/449/382
f 178/440/374 189/449/382 190/450/383
f 180/431/366 179/441/375 190/450/383
f 181/432/367 180/431/366 191/451/384
f 185/446/379 196/456/388 197/457/389
f 187/117/91 186/447/380 197/457/389
f 256/552/463 260/544/457 261/538/453
f 309/142/110 250/144/112 310/553/464
f 188/448/381 199/459/391 200/460/392
f 189/449/382 200/460/392 201/94/78
f 190/450/383 201/94/78 202/93/77
f 196/456/388 203/465/396 204/466/397
f 198/458/390 197/457/389 204/466/397
f 198/458/390 205/467/398 206/468/399
f 312/554/465 254/555/466 257/550/462
f 247/150/118 1/556/29 249/151/119
f 247/150/118 250/144/112 248/143/111
f 203/465/396 209/481/409 210/472/403
f 205/467/398 204/466/397 210/472/403
f 205/467/398 211/473/404 212/474/405
f 206/468/399 212/474/405 213/241/184
s 0
f 56/477/92 57/119/92 26/85/92
s 1
f 253/557/467 256/552/463 257/550/462
f 249/151/119 1/558/29 251/559/468
f 249/151/119 252/560/469 250/144/112
f 310/553/464 252/560/469 311/561/470
f 200/460/392 207/73/61 208/469/400
s 0
f 25/562/92 6/563/92 26/85/92
f 6/563/92 43/564/92 26/85/92
f 9/484/108 26/85/108 43/564/108
s 1
f 330/37/30 329/565/471 339/188/137
s 0
f 31/566/71 32/96/71 258/6/71
s 1
f 251/559/468 1/567/29 253/557/467
f 251/559/468 254/555/466 252/560/469
f 311/561/470 254/555/466 312/554/465
s 0
f 62/120/92 63/568/92 26/85/92
f 63/568/92 45/569/92 26/85/92
f 45/569/92 25/562/92 26/85/92
s 1
f 63/146/114 477/148/116 45/400/337
f 211/473/404 216/489/414 217/482/410
s 0
f 30/570/71 31/566/71 258/6/71
s 1
f 253/557/467 1/571/29 256/552/463
f 253/557/467 257/550/462 254/555/466
f 312/554/465 257/550/462 313/549/461
s 0
f 8/572/108 10/485/108 9/484/108
f 10/485/108 11/573/108 195/100/108
f 11/573/108 12/574/108 195/100/108
f 12/574/108 13/139/108 195/100/108
f 14/140/108 27/575/108 195/100/108
s 1
f 328/576/472 338/189/138 339/188/137
f 256/552/463 1/577/29 260/544/457
f 256/552/463 261/538/453 257/550/462
f 313/549/461 261/538/453 314/537/452
s 0
f 28/578/108 29/579/108 195/100/108
f 29/579/108 33/580/108 195/100/108
f 33/580/108 184/581/108 195/100/108
f 184/581/108 193/582/108 195/100/108
s 1
f 209/481/409 214/128/97 215/488/413
s 0
f 193/582/108 194/105/108 195/100/108
s 1
f 243/543/456 245/546/458 246/547/459
f 260/544/457 1/583/29 265/532/448
f 260/544/457 266/525/443 261/538/453
f 314/537/452 266/525/443 321/524/442
f 215/488/413 219/130/99 220/492/416
f 218/129/98 221/497/420 222/498/421
f 220/492/416 219/130/99 222/498/421
f 220/492/416 223/499/422 284/500/423
f 223/499/422 226/51/44 285/507/429
f 223/499/422 222/498/421 225/506/428
f 237/531/447 239/534/449 240/535/450
f 319/584/473 331/585/474 332/44/37
f 265/532/448 272/526/444 266/525/443
f 273/520/439 321/524/442 272/526/444
f 322/519/438 323/529/446 273/520/439
f 227/509/430 229/122/93 230/513/433
f 228/510/431 230/513/433 291/514/434
f 230/513/433 232/124/95 292/516/436
f 224/505/427 227/509/430 228/510/431
f 221/497/420 224/505/427 225/506/428
f 210/472/403 215/488/413 216/489/414
f 318/586/475 330/37/30 331/585/474
f 265/532/448 1/587/29 271/517/437
f 322/519/438 281/503/426 324/502/425
f 232/124/95 234/133/102 293/522/440
f 234/133/102 236/135/104 294/523/441
f 235/528/445 237/531/447 238/136/105
f 233/132/101 235/528/445 236/135/104
s 0
f 27/575/108 28/578/108 195/100/108
f 43/564/108 8/572/108 9/484/108
s 1
f 334/588/476 308/436/371 319/584/473
f 271/517/437 1/589/29 279/515/435
f 271/517/437 280/511/432 272/526/444
f 273/520/439 280/511/432 281/503/426
f 239/534/449 241/540/454 242/76/64
f 241/540/454 243/543/456 244/77/65
f 240/535/450 242/76/64 301/541/455
f 199/459/391 206/468/399 207/73/61
f 187/117/91 198/458/390 199/459/391
f 336/87/73 334/588/476 319/584/473
f 279/515/435 1/590/29 287/495/419
f 279/515/435 288/490/415 280/511/432
f 281/503/426 288/490/415 289/479/408
f 324/502/425 289/479/408 325/478/407
f 238/136/105 240/535/450 300/536/451
f 245/546/458 247/150/118 248/143/111
f 164/428/363 174/438/372 175/439/373
f 154/418/354 164/428/363 165/429/364
f 326/435/370 298/443/377 307/591/477
f 287/495/419 1/592/29 295/453/386
f 287/495/419 296/57/50 288/490/415
f 289/479/408 296/57/50 297/56/49
f 298/443/377 325/478/407 297/56/49
f 326/435/370 333/486/412 298/443/377
f 302/78/66 244/77/65 246/547/459
f 303/548/460 246/547/459 248/143/111
f 141/382/320 140/381/319 150/405/342
f 311/561/470 252/560/469 254/555/466
f 181/432/367 192/452/385 263/461/393
f 295/453/386 1/593/29 304/454/387
f 295/453/386 305/58/51 296/57/50
f 297/56/49 305/58/51 306/444/378
f 298/443/377 306/444/378 307/591/477
f 308/436/371 326/435/370 307/591/477
f 334/588/476 335/434/369 308/436/371
f 251/559/468 253/557/467 254/555/466
f 310/553/464 250/144/112 252/560/469
f 148/401/338 158/110/86 159/411/348
f 182/47/40 267/49/42 183/433/368
f 304/454/387 1/594/29 315/595/478
f 304/454/387 316/596/479 305/58/51
f 305/58/51 317/597/480 306/444/378
f 306/444/378 318/586/475 307/591/477
f 307/591/477 319/584/473 308/436/371
f 319/584/473 320/88/74 336/87/73
f 28/322/262 133/319/259 143/384/322
f 249/151/119 251/559/468 252/560/469
f 118/317/257 117/314/254 127/345/284
f 225/506/428 228/510/431 286/52/45
f 108/285/226 118/317/257 119/318/258
f 315/595/478 1/598/29 327/599/481
f 315/595/478 328/576/472 316/596/479
f 317/597/480 328/576/472 329/565/471
f 317/597/480 330/37/30 318/586/475
f 318/586/475 331/585/474 319/584/473
f 319/584/473 332/44/37 320/88/74
f 332/44/37 30/600/482 259/42/35
f 101/231/174 111/80/68 112/260/202
f 216/489/414 220/492/416 282/501/424
f 93/205/152 92/35/28 102/234/177
f 212/474/405 217/482/410 277/493/417
f 86/185/134 96/249/191 97/215/158
f 328/576/472 339/188/137 329/565/471
f 330/37/30 339/188/137 340/38/31
f 330/37/30 341/39/32 331/585/474
f 331/585/474 342/601/483 332/44/37
f 30/600/482 342/601/483 31/602/484
s 0
f 61/84/71 60/603/71 26/85/71
s 1
f 201/94/78 270/475/406 274/92/76
f 276/75/63 208/469/400 207/73/61
f 23/26/19 22/24/17 53/98/80
f 191/451/384 268/471/402 269/462/394
f 327/599/481 1/604/29 337/605/131
f 327/599/481 338/189/138 328/576/472
f 340/63/31 347/65/55 341/606/32
f 341/39/32 348/607/146 342/601/483
f 31/602/484 348/607/146 32/608/145
f 173/425/361 262/442/376 194/609/485
s 0
f 311/214/4 312/70/4 258/6/4
f 9/484/486 195/100/486 258/6/486
s 1
f 49/79/67 48/72/60 66/67/57
f 3/3/3 16/2/2 17/7/5
f 337/182/131 1/610/29 343/183/132
f 337/605/131 344/190/133 338/189/138
f 339/194/137 344/184/133 345/195/142
f 339/194/137 346/64/54 340/63/31
f 354/196/143 355/192/140 35/197/144
f 34/191/139 35/197/144 355/192/140
f 304/454/387 315/595/478 316/596/479
f 305/58/51 316/596/479 317/597/480
f 307/591/477 318/586/475 319/584/473
f 306/444/378 317/597/480 318/586/475
f 343/183/132 1/611/29 349/201/148
f 343/183/132 350/202/149 344/184/133
f 345/195/142 350/202/149 351/204/151
f 345/195/142 352/180/129 346/64/54
f 347/65/55 352/180/129 353/179/128
f 347/65/55 354/196/143 348/199/146
f 226/51/44 225/506/428 286/52/45
f 315/595/478 327/599/481 328/576/472
f 317/597/480 329/565/471 330/37/30
f 317/597/480 316/596/479 328/576/472
f 349/201/148 1/612/29 356/207/154
f 350/202/149 356/207/154 357/208/155
f 351/204/151 357/208/155 358/213/157
f 351/204/151 359/181/130 352/180/129
f 353/179/128 359/181/130 360/186/135
f 353/179/128 361/187/136 354/196/143
f 355/192/140 361/187/136 362/193/141
f 34/191/139 362/193/141 36/224/167
f 217/482/410 216/489/414 282/501/424
f 213/241/184 212/474/405 277/493/417
f 278/483/411 213/241/184 277/493/417
f 356/207/154 1/613/29 363/242/185
f 356/207/154 364/226/169 357/208/155
f 357/208/155 365/230/173 358/213/157
f 358/213/157 366/229/172 359/181/130
f 359/181/130 367/232/175 360/186/135
f 360/186/135 368/219/162 361/187/136
f 361/187/136 369/220/163 362/193/141
f 36/224/167 369/220/163 37/240/183
f 255/43/36 320/88/74 332/44/37
f 283/494/418 217/482/410 282/501/424
f 364/226/169 372/227/170 365/230/173
f 366/229/172 372/227/170 373/233/176
f 367/232/175 373/233/176 374/235/178
f 367/232/175 375/236/179 368/219/162
f 368/219/162 376/238/181 369/220/163
f 37/240/183 376/238/181 38/250/192
f 331/585/474 341/39/32 342/601/483
f 30/600/482 332/44/37 342/601/483
s 0
f 60/603/71 7/476/71 26/85/71
f 9/484/71 258/6/71 40/90/71
f 26/85/71 9/484/71 58/614/71
s 1
f 363/242/185 1/615/29 370/222/165
f 363/242/185 371/216/159 364/226/169
f 373/233/176 381/244/187 374/235/178
f 374/235/178 382/247/189 375/236/179
f 376/238/181 382/247/189 383/251/193
f 38/250/192 383/251/193 39/276/217
s 0
f 34/99/71 36/616/71 258/6/71
f 36/616/71 37/617/71 258/6/71
f 37/617/71 38/618/71 258/6/71
f 39/619/71 41/89/71 258/6/71
f 38/618/71 39/619/71 258/6/71
s 1
f 370/222/165 1/620/29 377/223/166
f 370/222/165 378/217/160 371/216/159
f 371/216/159 379/218/161 372/227/170
f 372/227/170 380/243/186 373/233/176
f 383/251/193 389/256/198 390/274/215
f 390/274/215 391/258/200 41/275/216
f 40/257/199 41/275/216 391/258/200
s 0
f 40/90/71 42/621/71 9/484/71
f 42/621/71 58/614/71 9/484/71
f 44/622/71 59/83/71 26/85/71
f 58/614/71 44/622/71 26/85/71
s 1
f 377/223/166 1/623/29 384/261/203
f 377/223/166 385/265/207 378/217/160
f 378/217/160 386/268/210 379/218/161
f 380/243/186 386/268/210 387/253/195
f 381/244/187 387/253/195 388/255/197
f 381/244/187 389/256/198 382/247/189
f 40/257/199 399/259/201 42/313/253
f 201/94/78 208/469/400 270/475/406
f 269/462/394 192/452/385 191/451/384
f 327/599/481 337/605/131 338/189/138
f 191/451/384 202/93/77 268/471/402
f 384/261/203 1/624/29 392/262/204
f 384/261/203 393/263/205 385/265/207
f 385/265/207 394/266/208 386/268/210
f 386/268/210 395/269/211 387/253/195
f 387/253/195 396/270/212 388/255/197
f 388/255/197 397/271/213 389/256/198
f 390/274/215 397/271/213 398/278/219
f 391/258/200 398/278/219 399/259/201
f 341/606/32 347/65/55 348/199/146
f 194/609/485 193/426/362 173/425/361
f 31/602/484 342/601/483 348/607/146
f 392/262/204 1/625/29 400/280/221
f 392/262/204 401/281/222 393/263/205
f 394/266/208 401/281/222 402/283/224
f 394/266/208 403/284/225 395/269/211
f 395/269/211 404/289/230 396/270/212
f 396/270/212 405/292/233 397/271/213
f 397/271/213 406/296/237 398/278/219
f 399/259/201 406/296/237 407/295/236
f 407/295/236 408/300/241 58/312/252
f 44/299/240 58/312/252 408/300/241
s 0
f 314/626/7 321/15/7 258/6/7
s 1
f 400/280/221 1/627/29 409/303/243
f 400/280/221 410/308/248 401/281/222
f 401/281/222 411/307/247 402/283/224
f 402/283/224 412/287/228 403/284/225
f 403/284/225 413/288/229 404/289/230
f 404/289/230 414/290/231 405/292/233
f 405/292/233 415/293/234 406/296/237
f 407/295/236 415/293/234 416/297/238
f 407/295/236 417/298/239 408/300/241
f 44/299/240 417/298/239 59/337/276
s 0
f 313/71/4 314/626/4 258/6/4
f 321/15/487 323/628/487 322/16/487
s 1
f 409/303/243 419/305/245 410/308/248
f 411/307/247 419/305/245 420/310/250
f 411/307/247 421/311/251 412/287/228
f 413/288/229 421/311/251 422/315/255
f 413/288/229 423/316/256 414/290/231
f 414/290/231 424/324/264 415/293/234
f 416/297/238 424/324/264 425/330/270
f 416/297/238 426/331/271 417/298/239
f 426/331/271 427/463/395 61/336/275
f 60/470/401 61/336/275 427/463/395
s 0
f 325/629/4 333/630/4 258/6/4
f 324/22/7 325/629/7 258/6/7
s 1
f 409/303/243 1/631/29 418/304/244
f 420/310/250 431/344/283 421/311/251
f 421/311/251 432/325/265 422/315/255
f 422/315/255 433/328/268 423/316/256
f 423/316/256 434/335/274 424/324/264
f 425/330/270 434/335/274 435/334/273
f 425/330/270 436/342/281 426/331/271
f 426/331/271 437/102/81 427/463/395
f 479/18/13 20/17/12 21/20/14
f 5/13/10 19/14/11 20/17/12
s 0
f 333/630/4 326/9/4 258/6/4
s 1
f 418/304/244 1/632/29 428/320/260
f 418/304/244 429/321/261 419/305/245
f 419/305/245 430/323/263 420/310/250
f 432/325/265 443/327/267 433/328/268
f 433/328/268 444/329/269 434/335/274
f 435/334/273 444/329/269 445/339/278
f 435/334/273 446/340/279 436/342/281
f 436/342/281 447/343/282 437/102/81
f 437/102/81 57/349/288 56/103/82
f 24/28/21 55/41/34 43/46/39
s 0
f 334/59/7 336/4/7 258/6/7
s 1
f 428/320/260 1/633/29 438/346/285
f 428/320/260 439/347/286 429/321/261
f 430/323/263 439/347/286 440/355/294
f 431/344/283 440/355/294 441/359/298
f 431/344/283 442/326/266 432/325/265
f 445/339/278 454/364/302 455/368/306
f 445/339/278 456/369/307 446/340/279
f 446/340/279 457/354/293 447/343/282
f 447/343/282 62/377/315 57/349/288
f 483/27/20 482/25/18 23/26/19
f 49/79/67 67/125/96 68/131/100
f 438/346/285 1/634/29 448/356/295
f 438/346/285 449/362/300 439/347/286
f 439/347/286 450/366/304 440/355/294
f 440/355/294 451/371/309 441/359/298
f 441/359/298 452/379/317 442/326/266
f 442/326/266 453/374/312 443/327/267
f 444/329/269 453/374/312 454/364/302
f 456/369/307 467/147/115 457/354/293
f 457/354/293 63/146/114 62/377/315
f 43/46/39 6/30/23 24/28/21
f 52/95/79 51/91/75 69/134/103
f 448/356/295 1/635/29 458/357/296
f 448/356/295 459/358/297 449/362/300
f 449/362/300 460/363/301 450/366/304
f 450/366/304 461/367/305 451/371/309
f 451/371/309 462/372/310 452/379/317
f 452/379/317 463/375/313 453/374/312
f 453/374/312 464/376/314 454/364/302
f 455/368/306 464/376/314 465/404/341
f 455/368/306 466/386/324 456/369/307
f 24/28/21 23/26/19 54/40/33
f 55/41/34 73/149/117 10/152/120
f 458/357/296 1/636/29 468/387/325
f 458/357/296 469/388/326 459/358/297
f 459/358/297 470/392/329 460/363/301
f 461/367/305 470/392/329 471/397/334
f 461/367/305 472/398/335 462/372/310
f 462/372/310 473/391/328 463/375/313
f 464/376/314 473/391/328 474/395/332
f 465/404/341 474/395/332 475/394/331
f 465/404/341 476/402/339 466/386/324
f 466/386/324 477/148/116 467/147/115
f 55/41/34 54/40/33 72/145/113
f 468/387/325 1/637/29 2/1/1
f 469/388/326 2/1/1 3/3/3
f 470/392/329 3/3/3 4/8/6
f 470/392/329 478/11/8 471/397/334
f 472/398/335 478/11/8 5/13/10
f 473/391/328 5/13/10 479/18/13
f 473/391/328 480/21/15 474/395/332
f 475/394/331 480/21/15 481/23/16
f 475/394/331 482/25/18 476/402/339
f 476/402/339 483/27/20 477/148/116
f 45/400/337 483/27/20 25/29/22
f 65/62/53 75/161/122 76/68/58
f 81/172/123 91/203/150 92/35/28
f 273/520/439 272/526/444 280/511/432
f 182/47/40 181/432/367 263/461/393
f 455/368/306 454/364/302 464/376/314
f 71/141/109 81/172/123 82/34/27
f 430/323/263 429/321/261 439/347/286
f 416/297/238 415/293/234 424/324/264
f 395/269/211 403/284/225 404/289/230
f 372/227/170 379/218/161 380/243/186
f 356/207/154 363/242/185 364/226/169
s 0
f 303/167/7 309/209/7 258/6/7
f 274/127/4 270/155/4 195/100/4
s 1
f 126/341/280 136/370/308 137/373/311
f 173/425/361 183/433/368 262/442/376
s 0
f 258/6/71 259/19/71 30/570/71
