# Blender 5.1.2
# www.blender.org
o moon_piece_08
v 0.171643 0.315097 -0.142154
v 0.218763 0.277580 -0.148674
v 0.085664 0.314691 -0.150865
v 0.085664 0.270335 -0.171845
v 0.085664 0.224135 -0.188375
v 0.085664 0.128002 -0.207497
v 0.085664 0.078993 -0.209905
v 0.085664 0.029984 -0.207497
v 0.085664 -0.066149 -0.188375
v 0.085664 -0.112349 -0.171845
v 0.085664 -0.156705 -0.150865
v 0.172216 0.314691 -0.142261
v 0.268109 0.228936 -0.150367
v 0.226920 0.270335 -0.149391
v -0.265783 0.176538 -0.051493
v 0.272433 0.224135 -0.150220
v -0.083778 0.150752 0.095074
v -0.013116 -0.132472 0.209905
v -0.276961 0.128002 -0.049868
v -0.259910 0.195414 -0.050942
v -0.146787 -0.340489 0.150380
v -0.065962 0.272767 0.017832
v 0.140994 0.334318 -0.135068
v 0.130787 -0.115682 -0.168051
v 0.128885 0.314691 -0.148742
v 0.130942 0.270335 -0.169620
v 0.132562 0.224135 -0.186071
v 0.133731 0.176538 -0.197936
v 0.134436 0.128002 -0.205101
v 0.134672 0.078993 -0.207497
v 0.134436 0.029984 -0.205101
v 0.133731 -0.018552 -0.197936
v 0.132562 -0.066149 -0.186071
v 0.130942 -0.112349 -0.169620
v -0.193633 -0.290554 0.103475
v -0.180229 -0.307512 0.117462
v -0.151431 -0.336742 0.145985
v -0.282990 -0.070520 -0.012451
v 0.171691 0.314691 -0.142392
v 0.175784 0.270335 -0.162969
v 0.179009 0.224135 -0.179181
v 0.181335 0.176538 -0.190875
v 0.182739 0.128002 -0.197936
v 0.183209 0.078993 -0.200297
v 0.182739 0.029984 -0.197936
v 0.181335 -0.018552 -0.190875
v -0.275349 -0.112349 0.002341
v -0.263214 -0.156705 0.021154
v -0.247499 -0.198792 0.042260
v -0.228356 -0.238204 0.065457
v -0.205969 -0.274560 0.090521
v 0.288024 0.204340 -0.148324
v 0.219758 0.270335 -0.151954
v 0.224556 0.224135 -0.167772
v 0.228017 0.176538 -0.179181
v 0.230107 0.128002 -0.186071
v 0.230806 0.078993 -0.188375
v -0.284399 0.078993 -0.045243
v -0.288024 0.029984 -0.037663
v -0.287802 -0.018552 -0.027200
v -0.283735 -0.066149 -0.013955
v 0.104497 -0.156705 -0.149940
v -0.028448 -0.321610 0.014606
v 0.268766 0.224135 -0.151954
v 0.273329 0.176538 -0.162968
v 0.180809 -0.029302 -0.188234
v 0.160170 -0.066149 -0.181976
v 0.132868 -0.112349 -0.169335
v 0.230659 0.068710 -0.187892
v 0.211748 0.029984 -0.190670
v 0.186675 -0.018552 -0.189537
v 0.273856 0.167259 -0.164240
v 0.235540 0.078993 -0.186681
v 0.257431 0.128002 -0.176295
v 0.277606 0.176538 -0.160946
v 0.025190 -0.119494 0.180734
v -0.043699 -0.335374 0.042323
v -0.008238 -0.301817 -0.019456
v -0.013702 -0.307512 -0.010835
v 0.016694 -0.274583 -0.056641
v 0.047663 -0.236608 -0.095727
v 0.046441 -0.238204 -0.094350
v 0.016713 -0.274560 -0.056668
v 0.075680 -0.198792 -0.125149
v 0.085664 -0.184489 -0.134213
v -0.145095 0.329716 -0.074591
v -0.256908 0.200186 -0.052476
v -0.208599 0.264997 -0.068465
v -0.240465 0.224135 -0.059293
v -0.158097 0.318366 -0.074719
v -0.204086 0.270335 -0.069437
v -0.162000 0.314691 -0.074563
v 0.085664 0.340002 -0.135695
v 0.044059 0.342223 -0.132320
v 0.002920 0.342769 -0.125887
v -0.037651 0.341641 -0.116420
v -0.077547 0.338835 -0.103930
v -0.116653 0.334338 -0.088412
v -0.138571 -0.341597 0.140266
v -0.121333 -0.342739 0.120217
v -0.103650 -0.342769 0.100782
v -0.085326 -0.341688 0.081744
v -0.066144 -0.339463 0.062900
v -0.045815 -0.335906 0.044117
v -0.050113 -0.336742 0.048005
v -0.178076 -0.307512 0.113870
v -0.145306 -0.336742 0.135766
v -0.271420 -0.112349 -0.002956
v -0.255203 -0.156705 0.010353
v -0.235704 -0.198792 0.026356
v -0.213109 -0.238204 0.044899
v -0.187637 -0.274560 0.065803
v -0.159533 -0.307512 0.088868
v -0.129067 -0.336742 0.113870
v -0.261096 0.176538 -0.056665
v -0.266187 0.128002 -0.061756
v -0.267889 0.078993 -0.063458
v -0.266187 0.029984 -0.061756
v -0.261096 -0.018552 -0.056665
v -0.252666 -0.066149 -0.048234
v -0.240977 -0.112349 -0.036545
v -0.226142 -0.156705 -0.021711
v -0.208305 -0.198792 -0.003874
v -0.187637 -0.238204 0.016795
v -0.164336 -0.274560 0.040095
v -0.138628 -0.307512 0.065803
v -0.110760 -0.336742 0.093671
v -0.217875 0.224135 -0.079767
v -0.225438 0.176538 -0.088983
v -0.230005 0.128002 -0.094549
v -0.231533 0.078993 -0.096410
v -0.230005 0.029984 -0.094549
v -0.225438 -0.018552 -0.088983
v -0.217875 -0.066149 -0.079767
v -0.207388 -0.112349 -0.066989
v -0.194079 -0.156705 -0.050772
v -0.178076 -0.198792 -0.031272
v -0.159533 -0.238204 -0.008677
v -0.138628 -0.274560 0.016795
v -0.115564 -0.307512 0.044899
v -0.090562 -0.336742 0.075364
v -0.159321 0.314691 -0.076550
v -0.170976 0.270335 -0.093994
v -0.180160 0.224135 -0.107738
v -0.186784 0.176538 -0.117651
v -0.190784 0.128002 -0.123638
v -0.192121 0.078993 -0.125640
v -0.190784 0.029984 -0.123638
v -0.186784 -0.018552 -0.117651
v -0.180160 -0.066149 -0.107738
v -0.170976 -0.112349 -0.093994
v -0.159321 -0.156705 -0.076550
v -0.145306 -0.198792 -0.055576
v -0.129067 -0.238204 -0.031272
v -0.110760 -0.274560 -0.003874
v -0.090561 -0.307512 0.026356
v -0.068666 -0.336742 0.059125
v -0.122204 0.314691 -0.098797
v -0.132093 0.270335 -0.117299
v -0.139886 0.224135 -0.131878
v -0.145506 0.176538 -0.142392
v -0.148900 0.128002 -0.148742
v -0.150034 0.078993 -0.150865
v -0.148900 0.029984 -0.148742
v -0.145506 -0.018552 -0.142392
v -0.139886 -0.066149 -0.131878
v -0.132093 -0.112349 -0.117299
v -0.122204 -0.156705 -0.098797
v -0.110312 -0.198792 -0.076550
v -0.096534 -0.238204 -0.050772
v -0.081000 -0.274560 -0.021711
v -0.063862 -0.307512 0.010353
v -0.083085 0.314691 -0.117299
v -0.091113 0.270335 -0.136681
v -0.097439 0.224135 -0.151954
v -0.102001 0.176538 -0.162968
v -0.104757 0.128002 -0.169620
v -0.105678 0.078993 -0.171844
v -0.104757 0.029984 -0.169620
v -0.102001 -0.018552 -0.162968
v -0.097439 -0.066149 -0.151954
v -0.091113 -0.112349 -0.136681
v -0.083085 -0.156705 -0.117299
v -0.073431 -0.198792 -0.093994
v -0.062245 -0.238204 -0.066989
v -0.049635 -0.274560 -0.036545
v -0.035722 -0.307512 -0.002956
v -0.042340 0.314691 -0.131878
v -0.048430 0.270335 -0.151953
v -0.053229 0.224135 -0.167772
v -0.056690 0.176538 -0.179181
v -0.058780 0.128002 -0.186071
v -0.059478 0.078993 -0.188375
v -0.058780 0.029984 -0.186071
v -0.056690 -0.018552 -0.179181
v -0.053229 -0.066149 -0.167772
v -0.048430 -0.112349 -0.151953
v -0.042340 -0.156705 -0.131878
v -0.035018 -0.198792 -0.107738
v -0.026533 -0.238204 -0.079767
v -0.016967 -0.274560 -0.048234
v -0.000363 0.314691 -0.142392
v -0.004456 0.270335 -0.162968
v -0.007681 0.224135 -0.179181
v -0.010007 0.176538 -0.190875
v -0.011412 0.128002 -0.197936
v -0.011881 0.078993 -0.200297
v -0.011412 0.029984 -0.197936
v -0.010007 -0.018552 -0.190875
v -0.007681 -0.066149 -0.179181
v -0.004456 -0.112349 -0.162968
v -0.000363 -0.156705 -0.142392
v 0.004558 -0.198792 -0.117651
v 0.010260 -0.238204 -0.088983
v 0.016689 -0.274560 -0.056665
v 0.042442 0.314691 -0.148742
v 0.040386 0.270335 -0.169620
v 0.038765 0.224135 -0.186071
v 0.037597 0.176538 -0.197936
v 0.036891 0.128002 -0.205101
v 0.036655 0.078993 -0.207497
v 0.036891 0.029984 -0.205101
v 0.037597 -0.018552 -0.197936
v 0.038765 -0.066149 -0.186071
v 0.040386 -0.112349 -0.169620
v 0.042442 -0.156705 -0.148742
v 0.044914 -0.198792 -0.123638
v 0.085664 0.176538 -0.200297
v 0.085664 -0.018552 -0.200297
v 0.127628 0.336094 -0.135975
vn 0.0850 0.8791 0.4689
vn -0.0000 -0.1948 -0.9808
vn 0.0938 -0.2899 -0.9525
vn -0.0000 -0.2899 -0.9571
vn 0.0906 -0.3821 -0.9197
vn -0.0000 -0.3821 -0.9241
vn -0.6043 0.1653 0.7795
vn -0.0278 -0.5139 -0.8574
vn -0.0000 -0.4708 -0.8823
vn 0.0436 -0.4569 -0.8885
vn 0.2847 0.1948 -0.9386
vn 0.3753 0.1948 -0.9062
vn 0.3467 0.1466 -0.9264
vn -0.1509 -0.6336 -0.7588
vn -0.1054 -0.6929 -0.7133
vn -0.1379 -0.7064 -0.6943
vn 0.1942 -0.0979 -0.9761
vn 0.2421 -0.0837 -0.9666
vn 0.2390 -0.1810 -0.9540
vn -0.0000 0.4708 -0.8823
vn 0.0906 0.3821 -0.9197
vn -0.0000 0.3821 -0.9241
vn -0.0000 0.2899 -0.9571
vn 0.0938 0.2899 -0.9525
vn -0.0000 0.1948 -0.9808
vn 0.0961 0.1948 -0.9761
vn 0.0975 0.0979 -0.9904
vn -0.0000 0.0979 -0.9952
vn 0.0980 -0.0000 -0.9952
vn -0.0000 -0.0000 -1.0000
vn 0.0975 -0.0979 -0.9904
vn -0.0000 -0.0979 -0.9952
vn 0.0961 -0.1948 -0.9761
vn 0.1803 0.3821 -0.9063
vn 0.1867 0.2899 -0.9387
vn 0.6147 -0.5553 0.5602
vn 0.1914 0.1948 -0.9620
vn 0.6147 -0.5552 0.5602
vn 0.1942 0.0979 -0.9761
vn 0.8613 -0.4390 0.2560
vn 0.1951 -0.0000 -0.9808
vn 0.4181 0.2094 -0.8840
vn 0.3361 0.3368 -0.8796
vn 0.2778 0.2899 -0.9159
vn 0.3142 0.3608 -0.8781
vn 0.1914 -0.1948 -0.9620
vn -0.4911 -0.7723 -0.4030
vn -0.5282 -0.7723 -0.3530
vn -0.5417 -0.7406 -0.3975
vn 0.0582 -0.4274 -0.9022
vn 0.1364 -0.3687 -0.9195
vn 0.3663 0.2899 -0.8842
vn 0.0865 0.4708 -0.8780
vn 0.2889 0.0979 -0.9523
vn -0.6644 0.2429 -0.7068
vn -0.6462 0.2720 -0.7130
vn -0.6222 0.1948 -0.7582
vn 0.2903 -0.0000 -0.9569
vn -0.7378 0.0925 -0.6687
vn -0.7037 0.0979 -0.7037
vn -0.7071 -0.0000 -0.7071
vn 0.0806 0.5141 -0.8539
vn 0.1259 0.5136 -0.8487
vn -0.4902 0.4708 -0.7336
vn -0.4563 0.5139 -0.7264
vn -0.4411 0.5136 -0.7359
vn -0.7006 -0.3366 -0.6292
vn -0.6767 -0.2899 -0.6768
vn -0.6534 -0.3821 -0.6534
vn -0.4159 0.4708 -0.7781
vn 0.1562 -0.2428 -0.9574
vn -0.5472 -0.7063 -0.4491
vn 0.4116 0.2704 -0.8703
vn 0.2683 0.3821 -0.8843
vn 0.2408 0.4274 -0.8714
vn 0.1721 0.4708 -0.8653
vn 0.1490 0.5140 -0.8447
vn 0.2172 0.4478 -0.8674
vn -0.6936 0.1948 -0.6936
vn 0.2564 -0.0490 -0.9653
vn 0.3369 0.0142 -0.9414
vn -0.5404 -0.7765 -0.3239
vn -0.4628 -0.8308 -0.3092
vn -0.0815 -0.5549 -0.8279
vn -0.0865 -0.4708 -0.8780
vn -0.3034 -0.8073 -0.5061
vn -0.3092 -0.8308 -0.4628
vn -0.3530 -0.7723 -0.5282
vn 0.1410 -0.2758 -0.9508
vn -0.0413 -0.5405 -0.8403
vn -0.4726 -0.8345 -0.2833
vn -0.4263 -0.8577 -0.2873
vn -0.7406 -0.3870 -0.5493
vn -0.7143 -0.3821 -0.5862
vn -0.6820 -0.4708 -0.5597
vn -0.6660 -0.5590 -0.4939
vn -0.6431 -0.5549 -0.5278
vn -0.5980 -0.6336 -0.4908
vn -0.6189 -0.6374 -0.4590
vn -0.4303 -0.8308 -0.3531
vn -0.6239 -0.4708 -0.6239
vn -0.5883 -0.5549 -0.5883
vn -0.1623 -0.5549 -0.8160
vn -0.1033 -0.5955 -0.7967
vn -0.4623 0.5215 0.7172
vn -0.5470 -0.6336 -0.5470
vn -0.5005 -0.7063 -0.5005
vn -0.4492 -0.7723 -0.4492
vn -0.3970 -0.8577 -0.3267
vn -0.3936 -0.8308 -0.3936
vn -0.7409 -0.0052 -0.6716
vn -0.7037 -0.0979 -0.7037
vn -0.7370 -0.1028 -0.6680
vn -0.6936 -0.1948 -0.6936
vn -0.7261 -0.1994 -0.6581
vn -0.4908 -0.6336 -0.5980
vn -0.4491 -0.7063 -0.5472
vn -0.4030 -0.7723 -0.4911
vn 0.3348 0.1121 -0.9356
vn -0.3531 -0.8308 -0.4303
vn -0.3276 -0.8577 -0.3962
vn -0.6313 0.0979 -0.7693
vn -0.2709 -0.7063 -0.6540
vn -0.2055 -0.7063 -0.6774
vn -0.2119 -0.7408 -0.6374
vn -0.6313 -0.0979 -0.7693
vn -0.6222 -0.1948 -0.7582
vn -0.6344 -0.0000 -0.7730
vn -0.7188 0.2427 -0.6515
vn -0.5311 0.4531 -0.7160
vn -0.5134 0.3821 -0.7684
vn -0.2903 -0.0000 -0.9569
vn -0.1951 -0.0000 -0.9808
vn -0.1942 -0.0979 -0.9761
vn -0.0938 0.2899 -0.9525
vn -0.0906 0.3821 -0.9197
vn -0.2883 -0.8577 -0.4257
vn -0.6072 0.2899 -0.7398
vn -0.5317 0.2899 -0.7958
vn -0.5449 0.1948 -0.8155
vn -0.5529 0.0979 -0.8275
vn -0.5556 -0.0000 -0.8315
vn -0.5529 -0.0979 -0.8275
vn -0.5449 -0.1948 -0.8155
vn -0.6072 -0.2899 -0.7398
vn -0.5317 -0.2899 -0.7958
vn -0.5134 -0.3821 -0.7684
vn -0.5862 -0.3821 -0.7143
vn -0.5597 -0.4708 -0.6820
vn -0.0980 -0.0000 -0.9952
vn -0.0975 0.0979 -0.9904
vn -0.5278 -0.5549 -0.6431
vn -0.4691 -0.0979 -0.8777
vn -0.4624 -0.1948 -0.8650
vn -0.4512 -0.2899 -0.8441
vn -0.4356 -0.3821 -0.8150
vn -0.2889 0.0979 -0.9523
vn -0.2847 0.1948 -0.9386
vn -0.1914 0.1948 -0.9620
vn -0.4159 -0.4708 -0.7781
vn 0.4148 0.2427 -0.8770
vn -0.2778 0.2899 -0.9159
vn -0.1867 0.2899 -0.9387
vn -0.4902 -0.4708 -0.7336
vn -0.3922 -0.5549 -0.7337
vn -0.4298 -0.6336 -0.6432
vn -0.4622 -0.5549 -0.6917
vn -0.3376 -0.4708 -0.8151
vn -0.2561 -0.4708 -0.8443
vn -0.2415 -0.5549 -0.7961
vn -0.3933 -0.7063 -0.5886
vn -0.3337 -0.7063 -0.6243
vn -0.2995 -0.7723 -0.5603
vn 0.4504 0.4297 0.7826
vn -0.3536 -0.3821 -0.8538
vn -0.2683 -0.3821 -0.8843
vn -0.3647 -0.6336 -0.6823
vn -0.4512 0.2899 -0.8441
vn -0.4624 0.1948 -0.8650
vn -0.4691 0.0979 -0.8777
vn -0.4714 -0.0000 -0.8819
vn -0.4356 0.3821 -0.8150
vn -0.3536 0.3821 -0.8538
vn -0.3663 0.2899 -0.8842
vn -0.3754 0.1948 -0.9062
vn -0.2412 -0.8031 -0.5448
vn -0.2549 -0.8029 -0.5389
vn -0.3808 -0.0979 -0.9194
vn -0.2889 -0.0979 -0.9523
vn -0.2847 -0.1948 -0.9386
vn -0.3827 -0.0000 -0.9239
vn -0.3663 -0.2899 -0.8842
vn -0.2778 -0.2899 -0.9159
vn -0.3754 -0.1948 -0.9062
vn -0.3184 -0.5549 -0.7686
vn -0.2961 -0.6336 -0.7147
vn -0.2431 -0.7723 -0.5869
vn -0.3376 0.4708 -0.8151
vn -0.2246 -0.6336 -0.7403
vn -0.1498 -0.7408 -0.6548
vn -0.2683 0.3821 -0.8843
vn -0.1803 0.3821 -0.9063
vn -0.2561 0.4708 -0.8443
vn -0.1721 0.4708 -0.8653
vn -0.3808 0.0979 -0.9194
vn -0.1867 -0.2899 -0.9387
vn -0.1803 -0.3821 -0.9063
vn -0.1721 -0.4708 -0.8653
vn -0.0865 0.4708 -0.8780
vn -0.1942 0.0979 -0.9761
vn -0.0906 -0.3821 -0.9197
vn -0.1914 -0.1948 -0.9620
vn -0.0961 0.1948 -0.9761
vn -0.0975 -0.0979 -0.9904
vn -0.0961 -0.1948 -0.9761
vn -0.0938 -0.2899 -0.9525
vn -0.5754 0.3368 -0.7453
vn -0.0851 0.5141 -0.8535
vn -0.0023 0.5141 -0.8577
vn -0.1671 0.5141 -0.8413
vn -0.2476 0.5141 -0.8212
vn -0.3257 0.5141 -0.7935
vn -0.4009 0.5141 -0.7583
vn -0.7082 -0.2941 -0.6419
vn -0.5549 0.3637 -0.7482
vn -0.2854 -0.8032 -0.5229
vn -0.6043 0.1653 0.7794
vn -0.1153 -0.6189 -0.7770
vn -0.7275 0.1894 -0.6594
vn -0.7067 -0.4753 -0.5241
vn 0.8613 -0.4389 0.2560
vn -0.4414 -0.8575 -0.2645
vn -0.5659 -0.7096 -0.4197
vn -0.3640 -0.8577 -0.3631
vn -0.2200 -0.7573 -0.6148
vt 2.393862 2.690584
vt 2.538731 2.797614
vt 2.529375 2.798249
vt 0.750000 0.437500
vt 0.734375 0.406250
vt 0.750000 0.406250
vt 0.734375 0.375000
vt 0.750000 0.375000
vt 2.240956 2.734737
vt 2.238419 2.729430
vt 2.381391 2.636514
vt 0.750000 0.323117
vt 0.750000 0.343750
vt 0.743192 0.343593
vt 0.703125 0.562500
vt 0.687500 0.562500
vt 0.687500 0.556530
vt 0.781250 0.281250
vt 0.781239 0.249999
vt 0.781250 0.250000
vt 0.718750 0.468750
vt 0.709180 0.468714
vt 0.716964 0.437470
vt 0.750000 0.656250
vt 0.734375 0.625000
vt 0.750000 0.625000
vt 0.750000 0.593750
vt 0.734375 0.593750
vt 0.750000 0.562500
vt 0.734375 0.562500
vt 0.734375 0.531250
vt 0.750000 0.531250
vt 0.734375 0.500000
vt 0.750000 0.500000
vt 0.734375 0.468750
vt 0.750000 0.468750
vt 0.734375 0.437500
vt 0.718750 0.625000
vt 0.718750 0.593750
vt 2.409446 2.673440
vt 2.457668 2.576553
vt 2.404956 2.669463
vt 0.718750 0.562500
vt 2.407965 2.672185
vt 0.718750 0.531250
vt 2.493012 2.790671
vt 2.500000 2.797016
vt 0.718750 0.500000
vt 0.685966 0.562526
vt 0.687500 0.596993
vt 0.703125 0.593750
vt 0.700505 0.625076
vt 0.718750 0.437500
vt 2.238574 2.722106
vt 2.241421 2.712835
vt 0.890625 0.218750
vt 0.906250 0.218750
vt 0.906250 0.234833
vt 0.734375 0.372654
vt 0.733705 0.374978
vt 2.313875 2.620843
vt 2.334033 2.600877
vt 2.430854 2.556133
vt 0.687500 0.593750
vt 2.266786 2.673485
vt 2.280186 2.657247
vt 2.380307 2.645846
vt 2.393735 2.659037
vt 0.734375 0.656250
vt 2.337285 2.597800
vt 2.343035 2.604880
vt 0.703125 0.531250
vt 0.875000 0.578026
vt 0.869522 0.593847
vt 0.859375 0.562500
vt 0.703125 0.500000
vt 0.880132 0.531283
vt 0.875000 0.531250
vt 0.875000 0.500000
vt 0.734375 0.672142
vt 0.729403 0.670969
vt 0.843750 0.656250
vt 0.843750 0.658975
vt 0.839789 0.667529
vt 0.890625 0.403297
vt 0.875000 0.406250
vt 0.875000 0.375000
vt 0.828125 0.656250
vt 0.718750 0.430447
vt 0.890625 0.250000
vt 2.420122 2.692842
vt 0.686152 0.593784
vt 2.295857 2.639702
vt 0.703125 0.625000
vt 0.703125 0.630100
vt 2.500000 2.798053
vt 0.718750 0.656250
vt 0.718750 0.656551
vt 0.718555 0.656258
vt 0.875000 0.562500
vt 0.703125 0.493448
vt 0.701526 0.500000
vt 0.908350 0.218662
vt 0.906250 0.187500
vt 2.442079 2.791188
vt 2.413679 2.784561
vt 0.765625 0.312500
vt 0.765625 0.343750
vt 2.385753 2.775817
vt 2.470877 2.795691
vt 0.831350 0.187384
vt 0.843750 0.187500
vt 0.843750 0.218750
vt 2.304492 2.630634
vt 0.725086 0.406147
vt 2.246163 2.737974
vt 0.753826 0.312369
vt 2.255786 2.688259
vt 0.913078 0.187326
vt 0.906250 0.181490
vt 0.892896 0.374932
vt 0.890625 0.375000
vt 0.890625 0.343750
vt 2.258099 2.738726
vt 2.253987 2.739112
vt 0.898208 0.312323
vt 0.890625 0.312500
vt 0.890625 0.281250
vt 0.901171 0.281085
vt 0.890625 0.187500
vt 2.358379 2.764955
vt 0.875000 0.343750
vt 0.875000 0.312500
vt 0.781250 0.312500
vt 0.765625 0.282514
vt 2.294016 2.750992
vt 2.271710 2.744571
vt 0.875000 0.281250
vt 2.241943 2.711782
vt 2.247291 2.701428
vt 0.875000 0.250000
vt 0.875000 0.218750
vt 0.890625 0.180076
vt 0.875000 0.187500
vt 0.882828 0.500000
vt 0.875000 0.468750
vt 0.885406 0.468717
vt 0.875000 0.437500
vt 0.887914 0.437458
vt 0.859375 0.281250
vt 0.859375 0.250000
vt 0.859375 0.218750
vt 0.693838 0.531286
vt 2.297175 2.751673
vt 0.859375 0.187500
vt 0.859375 0.181377
vt 2.329367 2.755370
vt 2.326635 2.755261
vt 0.859375 0.531250
vt 0.812500 0.250000
vt 0.796875 0.250000
vt 0.796875 0.224146
vt 0.859375 0.468750
vt 0.859375 0.437500
vt 2.355102 2.618915
vt 2.367481 2.632519
vt 0.859375 0.500000
vt 0.876051 0.574913
vt 0.844953 0.656295
vt 0.843750 0.625000
vt 0.796875 0.500000
vt 0.781250 0.500000
vt 0.781250 0.468750
vt 0.765625 0.593750
vt 0.765625 0.625000
vt 0.843750 0.184133
vt 0.859375 0.593750
vt 0.843750 0.593750
vt 0.843750 0.562500
vt 0.843750 0.531250
vt 0.843750 0.500000
vt 0.843750 0.468750
vt 0.843750 0.437500
vt 0.859375 0.406250
vt 0.843750 0.406250
vt 0.843750 0.375000
vt 0.859375 0.375000
vt 0.859375 0.343750
vt 0.765625 0.500000
vt 0.765625 0.531250
vt 0.859375 0.312500
vt 0.828125 0.468750
vt 0.828125 0.437500
vt 0.828125 0.406250
vt 0.828125 0.375000
vt 2.260200 2.739800
vt 0.796875 0.531250
vt 0.796875 0.562500
vt 0.781250 0.562500
vt 0.828125 0.343750
vt 0.681176 0.580845
vt 0.796875 0.593750
vt 0.781250 0.593750
vt 0.843750 0.343750
vt 0.828125 0.312500
vt 0.843750 0.281250
vt 0.843750 0.312500
vt 0.812500 0.343750
vt 0.796875 0.343750
vt 0.796875 0.312500
vt 0.843750 0.250000
vt 0.828125 0.250000
vt 0.828125 0.218750
vt 2.641652 2.806894
vt 2.627712 2.808323
vt 0.812500 0.375000
vt 0.796875 0.375000
vt 0.828125 0.281250
vt 2.630738 2.808220
vt 0.828125 0.593750
vt 0.828125 0.562500
vt 2.430444 2.710651
vt 2.434269 2.716686
vt 2.598879 2.807640
vt 0.828125 0.531250
vt 0.828125 0.500000
vt 0.828125 0.625000
vt 0.812500 0.625000
vt 0.812500 0.593750
vt 0.812500 0.562500
vt 0.812500 0.203678
vt 0.826581 0.188897
vt 0.812500 0.468750
vt 0.796875 0.468750
vt 0.796875 0.437500
vt 0.812500 0.500000
vt 0.812500 0.406250
vt 0.796875 0.406250
vt 0.812500 0.437500
vt 0.812500 0.312500
vt 0.812500 0.281250
vt 0.812500 0.218750
vt 0.812500 0.656250
vt 0.796875 0.281250
vt 0.781250 0.249979
vt 0.796875 0.625000
vt 0.781250 0.625000
vt 0.796875 0.656250
vt 0.781250 0.656250
vt 0.812500 0.531250
vt 0.781250 0.406250
vt 0.781250 0.375000
vt 0.781250 0.343750
vt 0.765625 0.656250
vt 0.781250 0.531250
vt 0.765625 0.375000
vt 0.781250 0.437500
vt 0.765625 0.562500
vt 0.765625 0.468750
vt 0.765625 0.437500
vt 0.765625 0.406250
vt 0.859375 0.621394
vt 0.765625 0.676696
vt 0.750000 0.675046
vt 0.781250 0.677102
vt 0.796875 0.676264
vt 0.812500 0.674179
vt 0.828125 0.670837
vt 0.890395 0.406244
vt 2.451735 2.742734
vt 2.472544 2.769112
vt 2.570708 2.835742
vt 2.588259 2.836535
vt 2.513184 2.808025
vt 0.857960 0.625045
vt 0.828125 0.188392
vt 2.338469 2.755280
vt 0.766182 0.281224
vt 0.877264 0.562536
vt 0.895478 0.343613
vt 2.531586 2.820702
vt 2.533043 2.821601
vt 2.552154 2.830450
vt 2.566602 2.834830
vt 2.601497 2.834591
vt 2.604913 2.833743
vt 2.620237 2.826473
vt 2.631734 2.818035
vt 2.634359 2.815729
vt 2.451721 2.742715
vt 2.473400 2.770075
vt 0.913866 0.182688
vt 0.904486 0.249923
vt 0.875000 0.180039
vt 0.800758 0.218609
vt 2.593169 2.807139
vt 2.560587 2.802649
vt 2.560186 2.802574
s 0
f 22/1/1 23/2/1 230/3/1
s 1
f 229/4/2 33/5/3 9/6/4
f 9/6/4 34/7/5 10/8/6
s 0
f 58/9/7 59/10/7 17/11/7
s 1
f 85/12/8 11/13/9 62/14/10
f 55/15/11 65/16/12 72/17/13
f 214/18/14 83/19/15 215/20/16
f 45/21/17 70/22/18 71/23/19
f 3/24/20 26/25/21 4/26/22
f 5/27/23 26/25/21 27/28/24
f 228/29/25 27/28/24 28/30/26
f 228/29/25 29/31/27 6/32/28
f 6/32/28 30/33/29 7/34/30
f 7/34/30 31/35/31 8/36/32
f 8/36/32 32/37/33 229/4/2
f 27/28/24 40/38/34 41/39/35
s 0
f 77/40/36 76/41/36 105/42/36
s 1
f 27/28/24 42/43/37 28/30/26
s 0
f 104/44/38 77/40/38 105/42/38
s 1
f 28/30/26 43/45/39 29/31/27
s 0
f 84/46/40 85/47/40 76/41/40
s 1
f 30/33/29 43/45/39 44/48/41
f 72/17/13 65/16/12 75/49/42
f 30/33/29 45/21/17 31/35/31
f 13/50/43 54/51/44 14/52/45
f 32/37/33 45/21/17 46/53/46
s 0
f 60/54/7 61/55/7 17/11/7
s 1
f 113/56/47 106/57/48 35/58/49
f 43/45/39 42/43/37 55/15/11
f 24/59/50 34/7/5 68/60/51
s 0
f 36/61/7 37/62/7 18/63/7
s 1
f 64/64/52 54/51/44 13/50/43
f 30/33/29 29/31/27 43/45/39
f 10/8/6 24/59/50 62/14/10
s 0
f 49/65/7 50/66/7 18/63/7
f 102/67/36 103/68/36 18/63/36
s 1
f 25/69/53 40/38/34 26/25/21
s 0
f 18/63/36 21/70/36 99/71/36
s 1
f 43/45/39 55/15/11 56/72/54
f 87/73/55 89/74/56 129/75/57
f 44/48/41 56/72/54 57/76/58
f 19/77/59 116/78/60 117/79/61
f 25/69/53 230/80/62 23/81/63
f 142/82/64 90/83/65 86/84/66
f 38/85/67 120/86/68 121/87/69
f 158/88/70 142/82/64 86/84/66
f 66/89/71 46/53/46 71/23/19
f 10/8/6 34/7/5 24/59/50
f 35/58/49 112/90/72 113/56/47
s 0
f 76/41/40 77/40/40 63/91/40
s 1
f 64/64/52 13/50/43 16/92/73
s 0
f 50/66/7 51/93/7 18/63/7
s 1
f 53/94/74 2/95/75 14/52/45
s 0
f 230/3/1 93/96/1 22/1/1
s 1
f 39/97/76 1/98/77 12/99/78
f 41/39/35 53/94/74 54/51/44
f 1/98/77 25/69/53 23/81/63
f 41/39/35 55/15/11 42/43/37
f 129/75/57 115/100/79 87/73/55
f 69/101/80 57/76/58 73/102/81
f 36/103/82 106/57/48 107/104/83
s 0
f 95/105/1 96/106/1 22/1/1
s 1
f 227/107/84 226/108/85 85/12/8
s 0
f 96/106/1 97/109/1 22/1/1
f 94/110/1 95/105/1 22/1/1
f 59/10/7 60/54/7 17/11/7
s 1
f 105/111/86 157/112/87 156/113/88
s 0
f 35/114/7 36/61/7 18/63/7
s 1
f 67/115/89 33/5/3 32/37/33
f 32/37/33 46/53/46 66/89/71
f 70/22/18 45/21/17 44/48/41
s 0
f 19/116/7 58/9/7 17/11/7
s 1
f 44/48/41 57/76/58 69/101/80
f 55/15/11 64/64/52 65/16/12
f 53/94/74 40/38/34 2/95/75
f 44/48/41 43/45/39 56/72/54
f 40/38/34 39/97/76 12/99/78
s 0
f 103/68/36 105/42/36 18/63/36
s 1
f 84/117/90 227/107/84 85/12/8
s 0
f 48/118/7 49/65/7 18/63/7
s 1
f 37/119/91 107/104/83 99/120/92
f 47/121/93 108/122/94 109/123/95
s 0
f 17/11/7 20/124/7 15/125/7
s 1
f 49/126/96 110/127/97 111/128/98
f 50/129/99 111/128/98 112/90/72
f 106/57/48 113/56/47 114/130/100
f 99/120/92 107/104/83 114/130/100
s 0
f 97/109/1 98/131/1 22/1/1
s 1
f 109/123/95 122/132/101 123/133/102
f 213/134/103 227/107/84 81/135/104
f 111/128/98 110/127/97 123/133/102
s 0
f 88/136/105 89/137/105 22/1/105
s 1
f 112/90/72 111/128/98 124/138/106
s 0
f 38/139/7 47/140/7 17/11/7
s 1
f 112/90/72 125/141/107 126/142/108
s 0
f 47/140/7 48/118/7 18/63/7
s 1
f 100/143/109 114/130/100 127/144/110
s 0
f 17/11/7 47/140/7 18/63/7
s 1
f 114/130/100 113/56/47 126/142/108
f 58/145/111 117/79/61 118/146/112
f 59/147/113 118/146/112 119/148/114
f 60/149/115 119/148/114 120/86/68
f 108/122/94 121/87/69 122/132/101
f 125/141/107 124/138/106 138/150/116
f 125/141/107 139/151/117 140/152/118
f 74/153/119 56/72/54 55/15/11
f 127/144/110 126/142/108 140/152/118
s 0
f 91/154/105 88/136/105 22/1/105
s 1
f 127/144/110 141/155/120 102/156/121
s 0
f 90/157/105 92/158/105 22/1/105
s 1
f 115/100/79 129/75/57 130/159/122
f 186/160/123 201/161/124 78/162/125
f 117/79/61 116/78/60 130/159/122
s 0
f 76/41/36 18/63/36 105/42/36
s 1
f 118/146/112 132/163/126 133/164/127
s 0
f 100/165/36 101/166/36 18/63/36
s 1
f 117/79/61 131/167/128 132/163/126
f 20/168/129 87/73/55 115/100/79
f 55/15/11 54/51/44 64/64/52
f 92/169/130 142/82/64 143/170/131
f 193/171/132 207/172/133 208/173/134
f 141/155/120 140/152/118 156/113/88
f 218/174/135 217/175/136 4/26/22
f 141/155/120 157/112/87 103/176/137
f 218/174/135 5/27/23 228/29/25
f 128/177/138 144/178/139 145/179/140
f 56/72/54 73/102/81 57/76/58
f 130/159/122 129/75/57 145/179/140
f 55/15/11 72/17/13 74/153/119
f 131/167/128 130/159/122 146/180/141
s 0
f 61/55/7 38/139/7 17/11/7
s 1
f 131/167/128 147/181/142 148/182/143
f 45/21/17 71/23/19 46/53/46
f 132/163/126 148/182/143 149/183/144
f 33/5/3 68/60/51 34/7/5
f 134/184/145 150/185/146 151/186/147
f 120/86/68 119/148/114 133/164/127
f 134/184/145 133/164/127 149/183/144
s 0
f 101/166/36 102/67/36 18/63/36
s 1
f 121/87/69 135/187/148 136/188/149
f 221/189/150 220/190/151 6/32/28
f 122/132/101 136/188/149 137/191/152
f 124/138/106 123/133/102 137/191/152
f 148/182/143 164/192/153 165/193/154
f 150/185/146 149/183/144 165/193/154
f 150/185/146 166/194/155 167/195/156
s 0
f 87/196/105 20/124/105 17/11/105
s 1
f 192/197/157 191/198/158 205/199/159
f 151/186/147 167/195/156 168/200/160
f 64/64/52 16/92/73 52/201/161
f 190/202/162 204/203/163 205/199/159
f 152/204/164 168/200/160 169/205/165
f 135/187/148 151/186/147 152/204/164
f 32/37/33 31/35/31 45/21/17
f 154/206/166 153/207/167 169/205/165
f 136/188/149 152/204/164 153/207/167
f 183/208/168 198/209/169 199/210/170
f 155/211/171 171/212/172 172/213/173
s 0
f 52/214/174 13/215/174 17/11/174
s 1
f 182/216/175 197/217/176 198/209/169
f 155/211/171 154/206/166 170/218/177
f 139/151/117 138/150/116 154/206/166
s 0
f 52/214/174 16/219/174 13/215/174
s 1
f 139/151/117 155/211/171 156/113/88
f 214/18/14 213/134/103 81/135/104
f 144/178/139 160/220/178 161/221/179
s 0
f 79/222/40 78/223/40 76/41/40
s 1
f 146/180/141 145/179/140 161/221/179
s 0
f 13/215/174 14/224/174 17/11/174
s 1
f 147/181/142 146/180/141 162/225/180
f 147/181/142 163/226/181 164/192/153
f 160/220/178 159/227/182 174/228/183
f 160/220/178 175/229/184 176/230/185
f 144/178/139 143/170/131 159/227/182
f 162/225/180 161/221/179 176/230/185
f 172/213/173 63/231/186 77/232/187
f 179/233/188 194/234/189 195/235/190
f 163/226/181 178/236/191 179/233/188
f 181/237/192 196/238/193 197/217/176
f 164/192/153 179/233/188 180/239/194
f 181/237/192 180/239/194 195/235/190
f 166/194/155 165/193/154 180/239/194
f 166/194/155 181/237/192 182/216/175
f 168/200/160 167/195/156 182/216/175
f 168/200/160 183/208/168 184/240/195
f 170/218/177 169/205/165 184/240/195
f 171/212/172 170/218/177 185/241/196
f 171/212/172 186/160/123 187/242/197
f 158/88/70 173/243/198 174/228/183
f 201/161/124 200/244/199 214/18/14
f 201/161/124 215/20/16 80/245/200
f 185/241/196 184/240/195 199/210/170
f 190/202/162 189/246/201 203/247/202
f 186/160/123 185/241/196 200/244/199
f 188/248/203 202/249/204 203/247/202
f 173/243/198 188/248/203 189/246/201
f 175/229/184 174/228/183 189/246/201
f 175/229/184 190/202/162 191/198/158
f 177/250/205 176/230/185 191/198/158
f 178/236/191 177/250/205 192/197/157
f 178/236/191 193/171/132 194/234/189
f 196/238/193 210/251/206 211/252/207
f 198/209/169 197/217/176 211/252/207
f 198/209/169 212/253/208 213/134/103
f 200/244/199 199/210/170 213/134/103
f 217/175/136 216/254/209 3/24/20
f 193/171/132 192/197/157 206/255/210
f 211/252/207 225/256/211 226/108/85
f 194/234/189 208/173/134 209/257/212
f 196/238/193 195/235/190 209/257/212
f 212/253/208 226/108/85 227/107/84
f 202/249/204 216/254/209 217/175/136
f 204/203/163 203/247/202 217/175/136
f 204/203/163 218/174/135 219/258/213
f 206/255/210 205/199/159 219/258/213
f 207/172/133 206/255/210 220/190/151
f 207/172/133 221/189/150 222/259/214
f 208/173/134 222/259/214 223/260/215
f 210/251/206 209/257/212 223/260/215
f 210/251/206 224/261/216 225/256/211
f 88/262/217 143/170/131 144/178/139
f 220/190/151 219/258/213 228/29/25
f 221/189/150 7/34/30 8/36/32
f 222/259/214 8/36/32 229/4/2
f 224/261/216 223/260/215 229/4/2
f 224/261/216 9/6/4 10/8/6
f 225/256/211 10/8/6 11/13/9
f 216/254/209 94/263/218 93/264/219
f 202/249/204 95/265/220 94/263/218
f 96/266/221 95/265/220 202/249/204
f 97/267/222 96/266/221 188/248/203
f 98/268/223 97/267/222 173/243/198
f 89/74/56 128/177/138 129/75/57
f 19/77/59 117/79/61 58/145/111
f 3/24/20 93/264/219 230/80/62
f 38/85/67 61/269/224 120/86/68
s 0
f 83/270/40 82/271/40 76/41/40
f 71/272/40 70/273/40 76/41/40
s 1
f 86/84/66 98/268/223 158/88/70
s 0
f 85/47/40 62/274/40 76/41/40
s 1
f 6/32/28 29/31/27 30/33/29
f 65/16/12 64/64/52 52/201/161
s 0
f 19/116/7 17/11/7 15/125/7
s 1
f 3/24/20 25/69/53 26/25/21
f 9/6/4 33/5/3 34/7/5
s 0
f 93/96/1 94/110/1 22/1/1
s 1
f 88/262/217 91/275/225 143/170/131
f 172/213/173 104/276/226 105/111/86
f 41/39/35 40/38/34 53/94/74
s 0
f 18/63/174 76/41/174 17/11/174
s 1
f 56/72/54 74/153/119 73/102/81
f 32/37/33 66/89/71 67/115/89
f 163/226/181 162/225/180 177/250/205
s 0
f 76/41/174 52/214/174 17/11/174
s 1
f 44/48/41 69/101/80 70/22/18
f 138/150/116 137/191/152 153/207/167
s 0
f 100/165/36 18/63/36 99/71/36
f 37/62/227 21/70/227 18/63/227
f 98/131/1 86/277/1 22/1/1
s 1
f 142/82/64 158/88/70 159/227/182
f 229/4/2 32/37/33 33/5/3
s 0
f 51/93/7 35/114/7 18/63/7
s 1
f 156/113/88 172/213/173 105/111/86
f 2/95/75 40/38/34 12/99/78
f 214/18/14 82/278/228 83/19/15
f 120/86/68 134/184/145 135/187/148
f 228/29/25 5/27/23 27/28/24
f 5/27/23 4/26/22 26/25/21
f 15/279/229 115/100/79 116/78/60
f 48/280/230 109/123/95 110/127/97
f 228/29/25 28/30/26 29/31/27
f 226/108/85 11/13/9 85/12/8
f 7/34/30 30/33/29 31/35/31
f 27/28/24 26/25/21 40/38/34
f 8/36/32 31/35/31 32/37/33
f 27/28/24 41/39/35 42/43/37
f 28/30/26 42/43/37 43/45/39
s 0
f 62/274/40 24/281/40 76/41/40
f 24/281/40 68/282/40 76/41/40
f 67/283/40 66/284/40 76/41/40
f 68/282/40 67/283/40 76/41/40
f 66/284/40 71/272/40 76/41/40
f 70/273/40 69/285/40 76/41/40
f 69/285/40 73/286/40 76/41/40
f 73/286/40 74/287/40 76/41/40
f 74/287/40 72/288/40 76/41/40
f 72/288/231 75/289/231 52/214/231
f 63/91/40 79/222/40 76/41/40
f 76/41/40 72/288/40 52/214/40
f 80/290/40 83/270/40 76/41/40
f 82/271/40 81/291/40 76/41/40
f 81/291/40 84/46/40 76/41/40
s 1
f 30/33/29 44/48/41 45/21/17
f 54/51/44 53/94/74 14/52/45
f 25/69/53 39/97/76 40/38/34
f 36/103/82 35/58/49 106/57/48
f 36/103/82 107/104/83 37/119/91
f 37/119/91 99/120/92 21/292/232
s 0
f 78/223/40 80/290/40 76/41/40
s 1
f 47/121/93 38/85/67 108/122/94
f 47/121/93 109/123/95 48/280/230
f 48/280/230 110/127/97 49/126/96
f 49/126/96 111/128/98 50/129/99
f 50/129/99 112/90/72 51/293/233
f 62/14/10 11/13/9 10/8/6
f 106/57/48 114/130/100 107/104/83
f 99/120/92 114/130/100 100/143/109
f 121/87/69 108/122/94 38/85/67
f 35/58/49 51/293/233 112/90/72
f 41/39/35 54/51/44 55/15/11
f 109/123/95 123/133/102 110/127/97
f 111/128/98 123/133/102 124/138/106
f 112/90/72 124/138/106 125/141/107
f 112/90/72 126/142/108 113/56/47
f 114/130/100 126/142/108 127/144/110
f 100/143/109 127/144/110 101/294/234
f 20/168/129 115/100/79 15/279/229
f 15/279/229 116/78/60 19/77/59
f 58/145/111 118/146/112 59/147/113
f 59/147/113 119/148/114 60/149/115
f 60/149/115 120/86/68 61/269/224
f 39/97/76 25/69/53 1/98/77
f 108/122/94 122/132/101 109/123/95
f 125/141/107 138/150/116 139/151/117
f 125/141/107 140/152/118 126/142/108
f 127/144/110 140/152/118 141/155/120
f 89/74/56 88/262/217 128/177/138
f 127/144/110 102/156/121 101/294/234
f 115/100/79 130/159/122 116/78/60
f 117/79/61 130/159/122 131/167/128
f 117/79/61 132/163/126 118/146/112
f 118/146/112 133/164/127 119/148/114
f 120/86/68 133/164/127 134/184/145
f 120/86/68 135/187/148 121/87/69
f 121/87/69 136/188/149 122/132/101
f 122/132/101 137/191/152 123/133/102
f 124/138/106 137/191/152 138/150/116
f 92/169/130 143/170/131 91/275/225
f 141/155/120 156/113/88 157/112/87
f 141/155/120 103/176/137 102/156/121
f 128/177/138 145/179/140 129/75/57
f 130/159/122 145/179/140 146/180/141
f 131/167/128 146/180/141 147/181/142
f 131/167/128 148/182/143 132/163/126
f 132/163/126 149/183/144 133/164/127
f 134/184/145 149/183/144 150/185/146
f 134/184/145 151/186/147 135/187/148
f 135/187/148 152/204/164 136/188/149
f 136/188/149 153/207/167 137/191/152
f 138/150/116 153/207/167 154/206/166
f 139/151/117 154/206/166 155/211/171
f 139/151/117 156/113/88 140/152/118
f 144/178/139 161/221/179 145/179/140
f 146/180/141 161/221/179 162/225/180
f 147/181/142 162/225/180 163/226/181
f 147/181/142 164/192/153 148/182/143
f 148/182/143 165/193/154 149/183/144
f 150/185/146 165/193/154 166/194/155
f 150/185/146 167/195/156 151/186/147
f 151/186/147 168/200/160 152/204/164
f 152/204/164 169/205/165 153/207/167
f 154/206/166 169/205/165 170/218/177
f 155/211/171 170/218/177 171/212/172
f 155/211/171 172/213/173 156/113/88
f 142/82/64 159/227/182 143/170/131
f 144/178/139 159/227/182 160/220/178
f 103/176/137 157/112/87 105/111/86
f 163/226/181 177/250/205 178/236/191
f 163/226/181 179/233/188 164/192/153
f 164/192/153 180/239/194 165/193/154
f 166/194/155 180/239/194 181/237/192
f 166/194/155 182/216/175 167/195/156
f 168/200/160 182/216/175 183/208/168
f 168/200/160 184/240/195 169/205/165
f 170/218/177 184/240/195 185/241/196
f 171/212/172 185/241/196 186/160/123
f 171/212/172 187/242/197 172/213/173
f 158/88/70 174/228/183 159/227/182
f 82/278/228 214/18/14 81/135/104
f 160/220/178 174/228/183 175/229/184
f 160/220/178 176/230/185 161/221/179
f 162/225/180 176/230/185 177/250/205
f 179/233/188 195/235/190 180/239/194
f 181/237/192 195/235/190 196/238/193
f 181/237/192 197/217/176 182/216/175
f 182/216/175 198/209/169 183/208/168
f 183/208/168 199/210/170 184/240/195
f 185/241/196 199/210/170 200/244/199
f 186/160/123 200/244/199 201/161/124
s 0
f 17/11/105 22/1/105 89/137/105
s 1
f 173/243/198 189/246/201 174/228/183
f 63/231/186 187/242/197 79/295/235
f 175/229/184 189/246/201 190/202/162
f 175/229/184 191/198/158 176/230/185
f 177/250/205 191/198/158 192/197/157
f 178/236/191 192/197/157 193/171/132
f 178/236/191 194/234/189 179/233/188
f 196/238/193 211/252/207 197/217/176
f 198/209/169 211/252/207 212/253/208
f 198/209/169 213/134/103 199/210/170
f 200/244/199 213/134/103 214/18/14
f 201/161/124 214/18/14 215/20/16
f 201/161/124 80/245/200 78/162/125
f 188/248/203 203/247/202 189/246/201
s 0
f 17/11/105 89/137/105 87/196/105
s 1
f 190/202/162 203/247/202 204/203/163
f 190/202/162 205/199/159 191/198/158
f 192/197/157 205/199/159 206/255/210
f 193/171/132 206/255/210 207/172/133
f 193/171/132 208/173/134 194/234/189
f 194/234/189 209/257/212 195/235/190
f 196/238/193 209/257/212 210/251/206
f 212/253/208 227/107/84 213/134/103
s 0
f 92/158/105 91/154/105 22/1/105
s 1
f 79/295/235 187/242/197 78/162/125
f 202/249/204 217/175/136 203/247/202
s 0
f 22/1/105 86/277/105 90/157/105
s 1
f 204/203/163 217/175/136 218/174/135
f 204/203/163 219/258/213 205/199/159
f 206/255/210 219/258/213 220/190/151
f 207/172/133 220/190/151 221/189/150
f 207/172/133 222/259/214 208/173/134
f 208/173/134 223/260/215 209/257/212
f 210/251/206 223/260/215 224/261/216
f 210/251/206 225/256/211 211/252/207
f 211/252/207 226/108/85 212/253/208
f 75/49/42 65/16/12 52/201/161
f 33/5/3 67/115/89 68/60/51
f 217/175/136 3/24/20 4/26/22
f 218/174/135 4/26/22 5/27/23
f 218/174/135 228/29/25 219/258/213
f 220/190/151 228/29/25 6/32/28
f 221/189/150 6/32/28 7/34/30
f 221/189/150 8/36/32 222/259/214
f 222/259/214 229/4/2 223/260/215
f 224/261/216 229/4/2 9/6/4
f 224/261/216 10/8/6 225/256/211
f 225/256/211 11/13/9 226/108/85
f 187/242/197 186/160/123 78/162/125
f 81/135/104 227/107/84 84/117/90
f 216/254/209 93/264/219 3/24/20
f 202/249/204 94/263/218 216/254/209
f 96/266/221 202/249/204 188/248/203
f 97/267/222 188/248/203 173/243/198
f 98/268/223 173/243/198 158/88/70
f 80/245/200 215/20/16 83/19/15
f 92/169/130 90/83/65 142/82/64
s 0
f 14/224/174 2/296/174 17/11/174
f 2/296/174 12/297/174 22/1/174
f 12/297/174 1/298/174 22/1/174
f 22/1/174 17/11/174 2/296/174
f 1/298/174 23/2/174 22/1/174
s 1
f 77/232/187 104/276/226 172/213/173
f 144/178/139 128/177/138 88/262/217
f 172/213/173 187/242/197 63/231/186
f 3/24/20 230/80/62 25/69/53
