# Blender 5.1.2
# www.blender.org
o shard_02
v 0.091895 0.070000 -0.121862
v -0.055435 0.070000 -0.140789
v -0.126239 0.070000 -0.122550
v -0.159211 0.070000 0.047924
v -0.110944 0.070000 0.135077
v 0.178658 -0.014000 -0.221568
v -0.095035 -0.014000 -0.255980
v -0.191978 -0.014000 -0.222819
v -0.220169 -0.014000 0.087134
v -0.174338 -0.014000 0.245595
v 0.040129 0.154086 0.031465
vn -0.0000 1.0000 -0.0000
vn 0.0758 0.7941 -0.6030
vn -0.1419 0.8224 -0.5509
vn -0.7448 0.6638 -0.0677
vn -0.6629 0.6525 0.3672
vn 0.7661 0.2175 0.6048
vn -0.0000 -1.0000 -0.0000
vn 0.0777 0.7926 -0.6047
vn -0.1897 0.8103 -0.5545
vn -0.8330 0.5293 -0.1611
vn -0.6492 0.7370 0.1878
vn 0.7932 0.1079 0.5993
vt 0.584112 0.621862
vt 0.348520 0.622550
vt 0.294199 0.452076
vt 0.392176 0.755980
vt 0.652932 0.721568
vt 0.440697 0.640789
vt 0.125817 0.412866
vt 0.224581 0.722819
vt 0.370652 0.364923
vt 0.264823 0.254405
s 0
f 1/1/1 3/2/1 4/3/1
f 7/4/2 1/1/2 6/5/2
f 7/4/3 3/2/3 2/6/3
f 9/7/4 3/2/4 8/8/4
f 9/7/5 5/9/5 4/3/5
f 10/10/6 1/1/6 5/9/6
f 10/10/7 8/8/7 7/4/7
f 4/3/1 5/9/1 1/1/1
f 1/1/1 2/6/1 3/2/1
f 7/4/8 2/6/8 1/1/8
f 7/4/9 8/8/9 3/2/9
f 9/7/10 4/3/10 3/2/10
f 9/7/11 10/10/11 5/9/11
f 10/10/12 6/5/12 1/1/12
f 7/4/7 6/5/7 10/10/7
f 10/10/7 9/7/7 8/8/7
