# Blender 5.1.2
# www.blender.org
o shard_01
v 0.322763 0.070000 -0.060309
v -0.113785 0.070000 -0.124397
v -0.180385 0.070000 0.004164
v -0.148043 0.070000 0.035539
v -0.134829 0.070000 0.093241
v 0.691240 -0.014000 -0.109652
v -0.177787 -0.014000 -0.226176
v -0.227259 -0.014000 0.007572
v -0.212456 -0.014000 0.064616
v -0.200783 -0.014000 0.169529
v -0.023817 0.119521 0.033893
vn -0.0000 1.0000 -0.0000
vn 0.0866 0.7588 -0.6455
vn -0.6931 0.7058 -0.1467
vn -0.8480 0.4821 0.2201
vn -0.7520 0.6363 0.1722
vn 0.2714 0.5215 0.8089
vn -0.0000 -1.0000 -0.0000
vn 0.0983 0.7363 -0.6695
vn -0.8015 0.4304 -0.4152
vn -0.5484 0.6162 0.5653
vn -0.7458 0.6610 0.0830
vn 0.2390 0.5998 0.7636
vt 0.752584 0.560309
vt 0.251913 0.495836
vt 0.313833 0.464461
vt 0.257557 0.726176
vt 0.959244 0.609652
vt 0.048933 0.492428
vt 0.366656 0.624397
vt 0.161515 0.435384
vt 0.335351 0.406759
vt 0.200638 0.330471
s 0
f 1/1/1 3/2/1 4/3/1
f 7/4/2 1/1/2 6/5/2
f 8/6/3 2/7/3 7/4/3
f 9/8/4 3/2/4 8/6/4
f 9/8/5 5/9/5 4/3/5
f 10/10/6 1/1/6 5/9/6
f 10/10/7 9/8/7 7/4/7
f 4/3/1 5/9/1 1/1/1
f 1/1/1 2/7/1 3/2/1
f 7/4/8 2/7/8 1/1/8
f 8/6/9 3/2/9 2/7/9
f 9/8/10 4/3/10 3/2/10
f 9/8/11 10/10/11 5/9/11
f 10/10/12 6/5/12 1/1/12
f 7/4/7 6/5/7 10/10/7
f 9/8/7 8/6/7 7/4/7
