# Blender 5.1.2
# www.blender.org
o shard_00
v 0.081278 0.070000 -0.081721
v -0.087046 0.070000 -0.074983
v -0.150114 0.070000 -0.084039
v -0.146566 0.070000 0.004414
v 0.276434 0.070000 0.038718
v 0.157001 -0.014000 -0.148583
v -0.142709 -0.014000 -0.136333
v -0.214050 -0.014000 -0.152798
v -0.211277 -0.014000 0.008026
v 0.583362 -0.014000 0.070397
v 0.014989 0.097971 0.029551
vn -0.0000 1.0000 -0.0000
vn -0.0325 0.6043 -0.7961
vn 0.1203 0.5323 -0.8380
vn -0.8011 0.5984 0.0138
vn -0.0804 0.1045 0.9913
vn 0.2740 0.8001 -0.5336
vn -0.0000 -1.0000 -0.0000
vn -0.0319 0.6032 -0.7970
vn 0.1906 0.5309 -0.8257
vn -0.7911 0.6108 0.0317
vn -0.0779 0.0897 0.9929
vn 0.3445 0.7548 -0.5582
vt 0.575077 0.581721
vt 0.402496 0.574983
vt 0.316323 0.495586
vt 0.322720 0.636333
vt 0.636504 0.648583
vt 0.310302 0.584039
vt 0.166042 0.491975
vt 0.155095 0.652798
vt 0.722149 0.461282
vt 0.903907 0.429603
s 0
f 1/1/1 2/2/1 4/3/1
f 7/4/2 1/1/2 6/5/2
f 7/4/3 3/6/3 2/2/3
f 9/7/4 3/6/4 8/8/4
f 9/7/5 5/9/5 4/3/5
f 6/5/6 5/9/6 10/10/6
f 10/10/7 8/8/7 7/4/7
f 4/3/1 5/9/1 1/1/1
f 2/2/1 3/6/1 4/3/1
f 7/4/8 2/2/8 1/1/8
f 7/4/9 8/8/9 3/6/9
f 9/7/10 4/3/10 3/6/10
f 9/7/11 10/10/11 5/9/11
f 6/5/12 1/1/12 5/9/12
f 7/4/7 6/5/7 10/10/7
f 10/10/7 9/7/7 8/8/7
