# Blender 5.1.2
# www.blender.org
o shard_05
v 0.328706 0.070000 -0.001954
v 0.152988 0.070000 -0.066124
v -0.064035 0.070000 -0.154017
v -0.132978 0.070000 0.015050
v -0.144928 0.070000 0.052455
v 0.705219 -0.014000 -0.003553
v 0.307285 -0.014000 -0.120225
v -0.108564 -0.014000 -0.280031
v -0.198960 -0.014000 0.027363
v -0.209931 -0.014000 0.095372
v 0.045144 0.136559 -0.034679
vn -0.0000 1.0000 -0.0000
vn 0.1733 0.7879 -0.5910
vn 0.2230 0.7833 -0.5803
vn -0.7019 0.6817 -0.2064
vn -0.7790 0.5755 -0.2489
vn 0.1052 0.3867 0.9162
vn -0.0000 -1.0000 -0.0000
vn 0.2159 0.7772 -0.5911
vn 0.2413 0.7660 -0.5959
vn -0.7686 0.5578 -0.3134
vn -0.8154 0.5638 -0.1315
vn 0.0975 0.4200 0.9023
vt 0.756394 0.501954
vt 0.633410 0.566124
vt 0.338239 0.484950
vt 0.742564 0.620225
vt 0.966172 0.503553
vt 0.373962 0.780031
vt 0.205888 0.472637
vt 0.430679 0.654017
vt 0.319058 0.447545
vt 0.171014 0.404628
s 0
f 1/1/1 2/2/1 4/3/1
f 7/4/2 1/1/2 6/5/2
f 8/6/3 2/2/3 7/4/3
f 9/7/4 3/8/4 8/6/4
f 9/7/5 5/9/5 4/3/5
f 10/10/6 1/1/6 5/9/6
f 10/10/7 8/6/7 7/4/7
f 4/3/1 5/9/1 1/1/1
f 2/2/1 3/8/1 4/3/1
f 7/4/8 2/2/8 1/1/8
f 8/6/9 3/8/9 2/2/9
f 9/7/10 4/3/10 3/8/10
f 9/7/11 10/10/11 5/9/11
f 10/10/12 6/5/12 1/1/12
f 7/4/7 6/5/7 10/10/7
f 10/10/7 9/7/7 8/6/7
