# Blender 5.1.2
# www.blender.org
o shard_03
v -0.102550 0.070000 0.132355
v -0.066393 0.070000 0.137995
v -0.070889 0.070000 0.170767
v -0.014207 0.070000 0.162772
v 0.075044 0.070000 0.117424
v 0.230284 0.070000 0.090060
v -0.163739 -0.014000 0.240645
v -0.112205 -0.014000 0.250899
v -0.119061 -0.014000 0.310485
v -0.025489 -0.014000 0.295950
v 0.144393 -0.014000 0.213498
v 0.478023 -0.014000 0.163745
v 0.049754 0.171180 0.045594
vn -0.0000 1.0000 -0.0000
vn -0.1131 0.8150 0.5683
vn -0.9329 0.3368 -0.1280
vn 0.0830 0.8412 0.5343
vn 0.2577 0.8072 0.5310
vn 0.1074 0.7856 0.6093
vn -0.0754 -0.7739 -0.6289
vn -0.0000 -1.0000 -0.0000
vn -0.0891 0.8161 0.5710
vn -0.9288 0.3549 -0.1069
vn 0.0757 0.8405 0.5365
vn 0.2641 0.8125 0.5197
vn 0.0898 0.7932 0.6023
vn -0.0812 -0.7648 -0.6391
vt 0.427887 0.362005
vt 0.485564 0.337228
vt 0.569700 0.382576
vt 0.368885 0.249101
vt 0.382181 0.367645
vt 0.285783 0.259355
vt 0.422506 0.329233
vt 0.473753 0.204050
vt 0.359101 0.189515
vt 0.626727 0.286502
vt 0.690405 0.409940
vt 0.846191 0.336255
s 0
f 2/1/1 4/2/1 5/3/1
f 8/4/2 1/5/2 7/6/2
f 8/4/3 3/7/3 2/1/3
f 10/8/4 3/7/4 9/9/4
f 11/10/5 4/2/5 10/8/5
f 11/10/6 6/11/6 5/3/6
f 7/6/7 6/11/7 12/12/7
f 11/10/8 9/9/8 8/4/8
f 5/3/1 6/11/1 1/5/1
f 2/1/1 3/7/1 4/2/1
f 5/3/1 1/5/1 2/1/1
f 8/4/9 2/1/9 1/5/9
f 8/4/10 9/9/10 3/7/10
f 10/8/11 4/2/11 3/7/11
f 11/10/12 5/3/12 4/2/12
f 11/10/13 12/12/13 6/11/13
f 7/6/14 1/5/14 6/11/14
f 8/4/8 7/6/8 12/12/8
f 11/10/8 10/8/8 9/9/8
f 8/4/8 12/12/8 11/10/8
