# Blender 5.1.2
# www.blender.org
o shard_04
v 0.036548 0.070000 -0.184547
v -0.068314 0.070000 -0.099515
v -0.037095 0.070000 0.124308
v -0.028757 0.070000 0.193279
v 0.068477 -0.014000 -0.335541
v -0.115149 -0.014000 -0.180936
v -0.064989 -0.014000 0.226014
v -0.050840 -0.014000 0.351416
v -0.036584 0.107970 -0.015533
vn -0.0000 1.0000 -0.0000
vn -0.4268 0.7489 -0.5069
vn -0.9137 0.3859 0.1274
vn -0.8968 0.4290 0.1084
vn 0.9833 0.0630 0.1708
vn -0.0000 -1.0000 -0.0000
vn -0.4228 0.7412 -0.5214
vn -0.8956 0.4310 0.1104
vn -0.8985 0.4271 0.1014
vn 0.9831 0.0682 0.1699
vt 0.535186 0.684547
vt 0.461253 0.375692
vt 0.470270 0.306721
vt 0.364720 0.680936
vt 0.563975 0.835541
vt 0.425596 0.599515
vt 0.429552 0.273986
vt 0.445946 0.148584
s 0
f 1/1/1 3/2/1 4/3/1
f 6/4/2 1/1/2 5/5/2
f 6/4/3 3/2/3 2/6/3
f 7/7/4 4/3/4 3/2/4
f 5/5/5 4/3/5 8/8/5
f 5/5/6 7/7/6 6/4/6
f 1/1/1 2/6/1 3/2/1
f 6/4/7 2/6/7 1/1/7
f 6/4/8 7/7/8 3/2/8
f 7/7/9 8/8/9 4/3/9
f 5/5/10 1/1/10 4/3/10
f 5/5/6 8/8/6 7/7/6
