# Blender 5.1.2
# www.blender.org
o st_archfrag_01
v 2.311894 0.644316 0.450000
v 2.090357 1.179156 0.450000
v 2.787143 1.572208 0.450000
v 3.082526 0.859089 0.450000
v 3.082526 0.859089 -0.450000
v 2.787143 1.572208 -0.450000
v 2.090357 1.179156 -0.450000
v 2.311894 0.644316 -0.450000
v 2.311894 0.644316 0.450000
v 2.311894 0.644316 -0.450000
v 2.090357 1.179156 -0.450000
v 2.090357 1.179156 0.450000
v 2.090357 1.179156 0.450000
v 2.090357 1.179156 -0.450000
v 2.787143 1.572208 -0.450000
v 2.787143 1.572208 0.450000
v 2.787143 1.572208 0.450000
v 2.787143 1.572208 -0.450000
v 3.082526 0.859089 -0.450000
v 3.082526 0.859089 0.450000
v 3.082526 0.859089 0.450000
v 3.082526 0.859089 -0.450000
v 2.311894 0.644316 -0.450000
v 2.311894 0.644316 0.450000
v 2.066357 1.220724 0.450000
v 1.713942 1.680001 0.450000
v 2.285256 2.240001 0.450000
v 2.755143 1.627632 0.450000
v 2.755143 1.627632 -0.450000
v 2.285256 2.240001 -0.450000
v 1.713942 1.680001 -0.450000
v 2.066357 1.220724 -0.450000
v 2.066357 1.220724 0.450000
v 2.066357 1.220724 -0.450000
v 1.713942 1.680001 -0.450000
v 1.713942 1.680001 0.450000
v 1.713942 1.680001 0.450000
v 1.713942 1.680001 -0.450000
v 2.285256 2.240001 -0.450000
v 2.285256 2.240001 0.450000
v 2.285256 2.240001 0.450000
v 2.285256 2.240001 -0.450000
v 2.755143 1.627632 -0.450000
v 2.755143 1.627632 0.450000
v 2.755143 1.627632 0.450000
v 2.755143 1.627632 -0.450000
v 2.066357 1.220724 -0.450000
v 2.066357 1.220724 0.450000
v 1.680001 1.713942 0.450000
v 1.220724 2.066357 0.450000
v 1.627632 2.755143 0.450000
v 2.240001 2.285256 0.450000
v 2.240001 2.285256 -0.450000
v 1.627632 2.755143 -0.450000
v 1.220724 2.066357 -0.450000
v 1.680001 1.713942 -0.450000
v 1.680001 1.713942 0.450000
v 1.680001 1.713942 -0.450000
v 1.220724 2.066357 -0.450000
v 1.220724 2.066357 0.450000
v 1.220724 2.066357 0.450000
v 1.220724 2.066357 -0.450000
v 1.627632 2.755143 -0.450000
v 1.627632 2.755143 0.450000
v 1.627632 2.755143 0.450000
v 1.627632 2.755143 -0.450000
v 2.240001 2.285256 -0.450000
v 2.240001 2.285256 0.450000
v 2.240001 2.285256 0.450000
v 2.240001 2.285256 -0.450000
v 1.680001 1.713942 -0.450000
v 1.680001 1.713942 0.450000
v 1.179156 2.090357 0.450000
v 0.644316 2.311894 0.450000
v 0.859089 3.082526 0.450000
v 1.572208 2.787143 0.450000
v 1.572208 2.787143 -0.450000
v 0.859089 3.082526 -0.450000
v 0.644316 2.311894 -0.450000
v 1.179156 2.090357 -0.450000
v 1.179156 2.090357 0.450000
v 1.179156 2.090357 -0.450000
v 0.644316 2.311894 -0.450000
v 0.644316 2.311894 0.450000
v 0.644316 2.311894 0.450000
v 0.644316 2.311894 -0.450000
v 0.859089 3.082526 -0.450000
v 0.859089 3.082526 0.450000
v 0.859089 3.082526 0.450000
v 0.859089 3.082526 -0.450000
v 1.572208 2.787143 -0.450000
v 1.572208 2.787143 0.450000
v 1.572208 2.787143 0.450000
v 1.572208 2.787143 -0.450000
v 1.179156 2.090357 -0.450000
v 1.179156 2.090357 0.450000
v 0.597953 2.324318 0.450000
v 0.024000 2.399880 0.450000
v 0.031999 3.199840 0.450000
v 0.797270 3.099090 0.450000
v 0.797270 3.099090 -0.450000
v 0.031999 3.199840 -0.450000
v 0.024000 2.399880 -0.450000
v 0.597953 2.324318 -0.450000
v 0.597953 2.324318 0.450000
v 0.597953 2.324318 -0.450000
v 0.024000 2.399880 -0.450000
v 0.024000 2.399880 0.450000
v 0.024000 2.399880 0.450000
v 0.024000 2.399880 -0.450000
v 0.031999 3.199840 -0.450000
v 0.031999 3.199840 0.450000
v 0.031999 3.199840 0.450000
v 0.031999 3.199840 -0.450000
v 0.797270 3.099090 -0.450000
v 0.797270 3.099090 0.450000
v 0.797270 3.099090 0.450000
v 0.797270 3.099090 -0.450000
v 0.597953 2.324318 -0.450000
v 0.597953 2.324318 0.450000
v -0.024000 2.399880 0.450000
v -0.597953 2.324318 0.450000
v -0.797270 3.099090 0.450000
v -0.031999 3.199840 0.450000
v -0.031999 3.199840 -0.450000
v -0.797270 3.099090 -0.450000
v -0.597953 2.324318 -0.450000
v -0.024000 2.399880 -0.450000
v -0.024000 2.399880 0.450000
v -0.024000 2.399880 -0.450000
v -0.597953 2.324318 -0.450000
v -0.597953 2.324318 0.450000
v -0.597953 2.324318 0.450000
v -0.597953 2.324318 -0.450000
v -0.797270 3.099090 -0.450000
v -0.797270 3.099090 0.450000
v -0.797270 3.099090 0.450000
v -0.797270 3.099090 -0.450000
v -0.031999 3.199840 -0.450000
v -0.031999 3.199840 0.450000
v -0.031999 3.199840 0.450000
v -0.031999 3.199840 -0.450000
v -0.024000 2.399880 -0.450000
v -0.024000 2.399880 0.450000
v -2.600000 3.200000 0.550000
v -2.600000 3.200000 -0.550000
v 2.600000 3.200000 -0.550000
v 2.600000 3.200000 0.550000
v -2.600000 4.000000 0.550000
v 2.600000 4.000000 0.550000
v 2.600000 4.000000 -0.550000
v -2.600000 4.000000 -0.550000
v -2.600000 3.200000 0.550000
v 2.600000 3.200000 0.550000
v 2.600000 4.000000 0.550000
v -2.600000 4.000000 0.550000
v -2.600000 3.200000 -0.550000
v -2.600000 4.000000 -0.550000
v 2.600000 4.000000 -0.550000
v 2.600000 3.200000 -0.550000
v -2.600000 3.200000 0.550000
v -2.600000 4.000000 0.550000
v -2.600000 4.000000 -0.550000
v -2.600000 3.200000 -0.550000
v 2.600000 3.200000 0.550000
v 2.600000 3.200000 -0.550000
v 2.600000 4.000000 -0.550000
v 2.600000 4.000000 0.550000
vn -0.0000 -0.0000 -1.0000
vn -0.0000 -0.0000 1.0000
vn -0.9239 -0.3827 -0.0000
vn 0.4913 -0.8710 -0.0000
vn 0.2685 -0.9633 -0.0000
vn 0.7934 0.6088 -0.0000
vn 0.7000 -0.7141 -0.0000
vn -0.7934 -0.6088 -0.0000
vn 0.5086 -0.8610 -0.0000
vn 0.6088 0.7934 -0.0000
vn -0.8610 0.5086 -0.0000
vn -0.6088 -0.7934 -0.0000
vn 0.7141 -0.7000 -0.0000
vn -0.3827 -0.9239 -0.0000
vn -0.9633 0.2685 -0.0000
vn 0.3827 0.9239 -0.0000
vn 0.8710 -0.4913 -0.0000
vn 0.1305 0.9914 -0.0000
vn 0.9999 -0.0100 -0.0000
vn -0.1305 -0.9914 -0.0000
vn 0.9685 -0.2491 -0.0000
vn -0.1305 0.9914 -0.0000
vn -0.9685 -0.2491 -0.0000
vn -1.0000 -0.0100 -0.0000
vn -0.0000 1.0000 -0.0000
vn -1.0000 -0.0000 -0.0000
vn 1.0000 -0.0000 -0.0000
vt 0.522589 0.294789
vt 0.770631 0.214772
vt 0.577974 0.161079
vt 0.696786 0.393052
vt 0.887500 0.294789
vt 0.112400 0.161079
vt 0.887500 0.161079
vt 0.522589 0.112400
vt 0.696786 0.887500
vt 0.522589 0.887500
vt 0.112400 0.393052
vt 0.887500 0.214772
vt 0.887500 0.393052
vt 2.577974 2.887500
vt 2.770632 2.112400
vt 2.770632 2.887500
vt 0.428485 0.420000
vt 0.688786 0.406908
vt 0.516589 0.305181
vt 0.571314 0.560000
vt 0.112400 0.305181
vt 0.887500 0.420000
vt 0.887500 0.305181
vt 0.428485 0.112400
vt 0.571314 0.887500
vt 0.428485 0.887500
vt 0.112400 0.560000
vt 0.887500 0.406908
vt 0.887500 0.560000
vt 0.516589 0.887500
vt 0.688786 0.112400
vt 0.688786 0.887500
vt 0.420000 0.428485
vt 0.406908 0.688786
vt 0.560000 0.571314
vt 0.420000 0.112400
vt 0.305181 0.887500
vt 0.420000 0.887500
vt 0.887500 0.688786
vt 0.112400 0.516589
vt 0.887500 0.516589
vt 0.406908 0.112400
vt 0.560000 0.887500
vt 0.406908 0.887500
vt 0.887500 0.428485
vt 0.112400 0.571314
vt 0.887500 0.571314
vt 0.161079 0.577974
vt 0.393052 0.696786
vt 0.294789 0.522589
vt 0.214772 0.770631
vt 0.161079 0.887500
vt 0.294789 0.112400
vt 0.294789 0.887500
vt 0.887500 0.770631
vt 0.112400 0.577974
vt 0.887500 0.577974
vt 0.393052 0.887500
vt 0.214772 0.112400
vt 0.214772 0.887500
vt 0.887500 0.522589
vt 0.112400 0.696786
vt 0.887500 0.696786
vt 0.006000 0.599970
vt 0.199318 0.774773
vt 0.149488 0.581079
vt 0.008000 0.799960
vt 0.149488 0.112400
vt 0.006000 0.887500
vt 0.149488 0.887500
vt 0.112400 0.599970
vt 0.887500 0.799960
vt 0.887500 0.599970
vt 0.008000 0.112400
vt 0.199318 0.887500
vt 0.008000 0.887500
vt 0.887500 0.581079
vt 0.112400 0.774773
vt 0.887500 0.774773
vt 0.850512 0.581079
vt 0.992000 0.799960
vt 0.994000 0.599970
vt 0.800682 0.774773
vt 0.994000 0.112400
vt 0.850512 0.887500
vt 0.994000 0.887500
vt 2.887500 2.774773
vt 2.112400 2.581079
vt 2.887500 2.581079
vt 0.992000 0.887500
vt 0.800682 0.112400
vt 0.800682 0.887500
vt 0.112400 0.799960
vt 0.649900 0.862500
vt 0.350000 0.137400
vt 0.350000 0.862500
vt 0.350000 0.999000
vt 0.649900 0.800000
vt 0.350000 0.800000
vt 0.862500 0.999000
vt 0.137400 0.800000
vt 0.862500 0.800000
vt 0.112400 0.294789
vt 0.696786 0.112400
vt 0.112400 0.214772
vt 2.577974 2.112400
vt 0.112400 0.420000
vt 0.571314 0.112400
vt 0.112400 0.406908
vt 0.516589 0.112400
vt 0.305181 0.516589
vt 0.305181 0.112400
vt 0.112400 0.688786
vt 0.560000 0.112400
vt 0.112400 0.428485
vt 0.161079 0.112400
vt 0.112400 0.770631
vt 0.393052 0.112400
vt 0.112400 0.522589
vt 0.006000 0.112400
vt 0.199318 0.112400
vt 0.112400 0.581079
vt 0.850512 0.112400
vt 2.112400 2.774773
vt 0.992000 0.112400
vt 0.649900 0.137400
vt 0.649900 0.999000
vt 0.137400 0.999000
s 0
f 2/1/1 4/2/1 1/3/1
f 6/4/2 8/3/2 5/2/2
f 12/5/3 10/6/3 9/7/3
f 14/8/4 16/9/4 13/10/4
f 18/11/3 20/12/3 17/13/3
f 24/14/5 22/15/5 21/16/5
f 26/17/1 28/18/1 25/19/1
f 30/20/2 32/19/2 29/18/2
f 34/21/6 36/22/6 33/23/6
f 38/24/7 40/25/7 37/26/7
f 42/27/8 44/28/8 41/29/8
f 48/30/9 46/31/9 45/32/9
f 49/33/1 51/34/1 52/35/1
f 54/34/2 56/33/2 53/35/2
f 58/36/10 60/37/10 57/38/10
f 64/39/11 62/40/11 61/41/11
f 66/42/12 68/43/12 65/44/12
f 72/45/13 70/46/13 69/47/13
f 74/48/1 76/49/1 73/50/1
f 78/51/2 80/50/2 77/49/2
f 84/52/14 82/53/14 81/54/14
f 88/55/15 86/56/15 85/57/15
f 92/58/16 90/59/16 89/60/16
f 96/61/17 94/62/17 93/63/17
f 98/64/1 100/65/1 97/66/1
f 102/67/2 104/66/2 101/65/2
f 106/68/18 108/69/18 105/70/18
f 110/71/19 112/72/19 109/73/19
f 114/74/20 116/75/20 113/76/20
f 120/77/21 118/78/21 117/79/21
f 122/80/1 124/81/1 121/82/1
f 126/83/2 128/82/2 125/81/2
f 130/84/22 132/85/22 129/86/22
f 136/87/23 134/88/23 133/89/23
f 140/90/22 138/91/22 137/92/22
f 142/93/24 144/73/24 141/72/24
f 148/94/25 146/95/25 145/96/25
f 150/94/25 152/95/25 149/96/25
f 156/97/1 154/98/1 153/99/1
f 160/98/2 158/97/2 157/99/2
f 162/100/26 164/101/26 161/102/26
f 166/101/27 168/100/27 165/102/27
f 2/1/1 3/4/1 4/2/1
f 6/4/2 7/1/2 8/3/2
f 12/5/3 11/103/3 10/6/3
f 14/8/4 15/104/4 16/9/4
f 18/11/3 19/105/3 20/12/3
f 24/14/5 23/106/5 22/15/5
f 26/17/1 27/20/1 28/18/1
f 30/20/2 31/17/2 32/19/2
f 34/21/6 35/107/6 36/22/6
f 38/24/7 39/108/7 40/25/7
f 42/27/8 43/109/8 44/28/8
f 48/30/9 47/110/9 46/31/9
f 49/33/1 50/111/1 51/34/1
f 54/34/2 55/111/2 56/33/2
f 58/36/10 59/112/10 60/37/10
f 64/39/11 63/113/11 62/40/11
f 66/42/12 67/114/12 68/43/12
f 72/45/13 71/115/13 70/46/13
f 74/48/1 75/51/1 76/49/1
f 78/51/2 79/48/2 80/50/2
f 84/52/14 83/116/14 82/53/14
f 88/55/15 87/117/15 86/56/15
f 92/58/16 91/118/16 90/59/16
f 96/61/17 95/119/17 94/62/17
f 98/64/1 99/67/1 100/65/1
f 102/67/2 103/64/2 104/66/2
f 106/68/18 107/120/18 108/69/18
f 110/71/19 111/93/19 112/72/19
f 114/74/20 115/121/20 116/75/20
f 120/77/21 119/122/21 118/78/21
f 122/80/1 123/83/1 124/81/1
f 126/83/2 127/80/2 128/82/2
f 130/84/22 131/123/22 132/85/22
f 136/87/23 135/124/23 134/88/23
f 140/90/22 139/125/22 138/91/22
f 142/93/24 143/71/24 144/73/24
f 148/94/25 147/126/25 146/95/25
f 150/94/25 151/126/25 152/95/25
f 156/97/1 155/127/1 154/98/1
f 160/98/2 159/127/2 158/97/2
f 162/100/26 163/128/26 164/101/26
f 166/101/27 167/128/27 168/100/27
