# Blender 5.1.2
# www.blender.org
o st_chrono_plate
v 1.000000 0.000000 0.020000
v 0.998795 0.049068 0.020000
v 0.995185 0.098017 0.020000
v 0.989177 0.146730 0.020000
v 0.980785 0.195090 0.020000
v 0.970031 0.242980 0.020000
v 0.956940 0.290285 0.020000
v 0.941544 0.336890 0.020000
v 0.923880 0.382683 0.020000
v 0.903989 0.427555 0.020000
v 0.881921 0.471397 0.020000
v 0.857729 0.514103 0.020000
v 0.831470 0.555570 0.020000
v 0.803208 0.595699 0.020000
v 0.773010 0.634393 0.020000
v 0.740951 0.671559 0.020000
v 0.707107 0.707107 0.020000
v 0.671559 0.740951 0.020000
v 0.634393 0.773010 0.020000
v 0.595699 0.803208 0.020000
v 0.555570 0.831470 0.020000
v 0.514103 0.857729 0.020000
v 0.471397 0.881921 0.020000
v 0.427555 0.903989 0.020000
v 0.382683 0.923880 0.020000
v 0.336890 0.941544 0.020000
v 0.290285 0.956940 0.020000
v 0.242980 0.970031 0.020000
v 0.195090 0.980785 0.020000
v 0.146730 0.989177 0.020000
v 0.098017 0.995185 0.020000
v 0.049068 0.998795 0.020000
v 0.000000 1.000000 0.020000
v -0.049068 0.998795 0.020000
v -0.098017 0.995185 0.020000
v -0.146730 0.989177 0.020000
v -0.195090 0.980785 0.020000
v -0.242980 0.970031 0.020000
v -0.290285 0.956940 0.020000
v -0.336890 0.941544 0.020000
v -0.382683 0.923880 0.020000
v -0.427555 0.903989 0.020000
v -0.471397 0.881921 0.020000
v -0.514103 0.857729 0.020000
v -0.555570 0.831470 0.020000
v -0.595699 0.803208 0.020000
v -0.634393 0.773010 0.020000
v -0.671559 0.740951 0.020000
v -0.707107 0.707107 0.020000
v -0.740951 0.671559 0.020000
v -0.773010 0.634393 0.020000
v -0.803208 0.595699 0.020000
v -0.831470 0.555570 0.020000
v -0.857729 0.514103 0.020000
v -0.881921 0.471397 0.020000
v -0.903989 0.427555 0.020000
v -0.923880 0.382683 0.020000
v -0.941544 0.336890 0.020000
v -0.956940 0.290285 0.020000
v -0.970031 0.242980 0.020000
v -0.980785 0.195090 0.020000
v -0.989177 0.146730 0.020000
v -0.995185 0.098017 0.020000
v -0.998795 0.049068 0.020000
v -1.000000 0.000000 0.020000
v -0.998795 -0.049068 0.020000
v -0.995185 -0.098017 0.020000
v -0.989177 -0.146730 0.020000
v -0.980785 -0.195090 0.020000
v -0.970031 -0.242980 0.020000
v -0.956940 -0.290285 0.020000
v -0.941544 -0.336890 0.020000
v -0.923880 -0.382683 0.020000
v -0.903989 -0.427555 0.020000
v -0.881921 -0.471397 0.020000
v -0.857729 -0.514103 0.020000
v -0.831470 -0.555570 0.020000
v -0.803208 -0.595699 0.020000
v -0.773010 -0.634393 0.020000
v -0.740951 -0.671559 0.020000
v -0.707107 -0.707107 0.020000
v -0.671559 -0.740951 0.020000
v -0.634393 -0.773010 0.020000
v -0.595699 -0.803208 0.020000
v -0.555570 -0.831470 0.020000
v -0.514103 -0.857729 0.020000
v -0.471397 -0.881921 0.020000
v -0.427555 -0.903989 0.020000
v -0.382683 -0.923880 0.020000
v -0.336890 -0.941544 0.020000
v -0.290285 -0.956940 0.020000
v -0.242980 -0.970031 0.020000
v -0.195090 -0.980785 0.020000
v -0.146730 -0.989177 0.020000
v -0.098017 -0.995185 0.020000
v -0.049068 -0.998795 0.020000
v -0.000000 -1.000000 0.020000
v 0.049068 -0.998795 0.020000
v 0.098017 -0.995185 0.020000
v 0.146730 -0.989177 0.020000
v 0.195090 -0.980785 0.020000
v 0.242980 -0.970031 0.020000
v 0.290285 -0.956940 0.020000
v 0.336890 -0.941544 0.020000
v 0.382683 -0.923880 0.020000
v 0.427555 -0.903989 0.020000
v 0.471397 -0.881921 0.020000
v 0.514103 -0.857729 0.020000
v 0.555570 -0.831470 0.020000
v 0.595699 -0.803208 0.020000
v 0.634393 -0.773010 0.020000
v 0.671559 -0.740951 0.020000
v 0.707107 -0.707107 0.020000
v 0.740951 -0.671559 0.020000
v 0.773010 -0.634393 0.020000
v 0.803208 -0.595699 0.020000
v 0.831470 -0.555570 0.020000
v 0.857729 -0.514103 0.020000
v 0.881921 -0.471397 0.020000
v 0.903989 -0.427555 0.020000
v 0.923880 -0.382683 0.020000
v 0.941544 -0.336890 0.020000
v 0.956940 -0.290285 0.020000
v 0.970031 -0.242980 0.020000
v 0.980785 -0.195090 0.020000
v 0.989177 -0.146730 0.020000
v 0.995185 -0.098017 0.020000
v 0.998795 -0.049068 0.020000
v 1.000000 0.000000 0.000000
v 0.998795 0.049068 0.000000
v 0.995185 0.098017 0.000000
v 0.989177 0.146730 0.000000
v 0.980785 0.195090 0.000000
v 0.970031 0.242980 0.000000
v 0.956940 0.290285 0.000000
v 0.941544 0.336890 0.000000
v 0.923880 0.382683 0.000000
v 0.903989 0.427555 0.000000
v 0.881921 0.471397 0.000000
v 0.857729 0.514103 0.000000
v 0.831470 0.555570 0.000000
v 0.803208 0.595699 0.000000
v 0.773010 0.634393 0.000000
v 0.740951 0.671559 0.000000
v 0.707107 0.707107 0.000000
v 0.671559 0.740951 0.000000
v 0.634393 0.773010 0.000000
v 0.595699 0.803208 0.000000
v 0.555570 0.831470 0.000000
v 0.514103 0.857729 0.000000
v 0.471397 0.881921 0.000000
v 0.427555 0.903989 0.000000
v 0.382683 0.923880 0.000000
v 0.336890 0.941544 0.000000
v 0.290285 0.956940 0.000000
v 0.242980 0.970031 0.000000
v 0.195090 0.980785 0.000000
v 0.146730 0.989177 0.000000
v 0.098017 0.995185 0.000000
v 0.049068 0.998795 0.000000
v 0.000000 1.000000 0.000000
v -0.049068 0.998795 0.000000
v -0.098017 0.995185 0.000000
v -0.146730 0.989177 0.000000
v -0.195090 0.980785 0.000000
v -0.242980 0.970031 0.000000
v -0.290285 0.956940 0.000000
v -0.336890 0.941544 0.000000
v -0.382683 0.923880 0.000000
v -0.427555 0.903989 0.000000
v -0.471397 0.881921 0.000000
v -0.514103 0.857729 0.000000
v -0.555570 0.831470 0.000000
v -0.595699 0.803208 0.000000
v -0.634393 0.773010 0.000000
v -0.671559 0.740951 0.000000
v -0.707107 0.707107 0.000000
v -0.740951 0.671559 0.000000
v -0.773010 0.634393 0.000000
v -0.803208 0.595699 0.000000
v -0.831470 0.555570 0.000000
v -0.857729 0.514103 0.000000
v -0.881921 0.471397 0.000000
v -0.903989 0.427555 0.000000
v -0.923880 0.382683 0.000000
v -0.941544 0.336890 0.000000
v -0.956940 0.290285 0.000000
v -0.970031 0.242980 0.000000
v -0.980785 0.195090 0.000000
v -0.989177 0.146730 0.000000
v -0.995185 0.098017 0.000000
v -0.998795 0.049068 0.000000
v -1.000000 0.000000 0.000000
v -0.998795 -0.049068 0.000000
v -0.995185 -0.098017 0.000000
v -0.989177 -0.146730 0.000000
v -0.980785 -0.195090 0.000000
v -0.970031 -0.242980 0.000000
v -0.956940 -0.290285 0.000000
v -0.941544 -0.336890 0.000000
v -0.923880 -0.382683 0.000000
v -0.903989 -0.427555 0.000000
v -0.881921 -0.471397 0.000000
v -0.857729 -0.514103 0.000000
v -0.831470 -0.555570 0.000000
v -0.803208 -0.595699 0.000000
v -0.773010 -0.634393 0.000000
v -0.740951 -0.671559 0.000000
v -0.707107 -0.707107 0.000000
v -0.671559 -0.740951 0.000000
v -0.634393 -0.773010 0.000000
v -0.595699 -0.803208 0.000000
v -0.555570 -0.831470 0.000000
v -0.514103 -0.857729 0.000000
v -0.471397 -0.881921 0.000000
v -0.427555 -0.903989 0.000000
v -0.382683 -0.923880 0.000000
v -0.336890 -0.941544 0.000000
v -0.290285 -0.956940 0.000000
v -0.242980 -0.970031 0.000000
v -0.195090 -0.980785 0.000000
v -0.146730 -0.989177 0.000000
v -0.098017 -0.995185 0.000000
v -0.049068 -0.998795 0.000000
v -0.000000 -1.000000 0.000000
v 0.049068 -0.998795 0.000000
v 0.098017 -0.995185 0.000000
v 0.146730 -0.989177 0.000000
v 0.195090 -0.980785 0.000000
v 0.242980 -0.970031 0.000000
v 0.290285 -0.956940 0.000000
v 0.336890 -0.941544 0.000000
v 0.382683 -0.923880 0.000000
v 0.427555 -0.903989 0.000000
v 0.471397 -0.881921 0.000000
v 0.514103 -0.857729 0.000000
v 0.555570 -0.831470 0.000000
v 0.595699 -0.803208 0.000000
v 0.634393 -0.773010 0.000000
v 0.671559 -0.740951 0.000000
v 0.707107 -0.707107 0.000000
v 0.740951 -0.671559 0.000000
v 0.773010 -0.634393 0.000000
v 0.803208 -0.595699 0.000000
v 0.831470 -0.555570 0.000000
v 0.857729 -0.514103 0.000000
v 0.881921 -0.471397 0.000000
v 0.903989 -0.427555 0.000000
v 0.923880 -0.382683 0.000000
v 0.941544 -0.336890 0.000000
v 0.956940 -0.290285 0.000000
v 0.970031 -0.242980 0.000000
v 0.980785 -0.195090 0.000000
v 0.989177 -0.146730 0.000000
v 0.995185 -0.098017 0.000000
v 0.998795 -0.049068 0.000000
vn -0.0000 -0.0000 1.0000
vn 0.9997 0.0245 -0.0000
vn 0.9973 0.0736 -0.0000
vn 0.9925 0.1224 -0.0000
vn 0.9853 0.1710 -0.0000
vn 0.9757 0.2191 -0.0000
vn 0.9638 0.2667 -0.0000
vn 0.9495 0.3137 -0.0000
vn 0.9330 0.3599 -0.0000
vn 0.9142 0.4052 -0.0000
vn 0.8932 0.4496 -0.0000
vn 0.8701 0.4929 -0.0000
vn 0.8449 0.5350 -0.0000
vn 0.8176 0.5758 -0.0000
vn 0.7883 0.6152 -0.0000
vn 0.7572 0.6532 -0.0000
vn 0.7242 0.6895 -0.0000
vn 0.6895 0.7242 -0.0000
vn 0.6532 0.7572 -0.0000
vn 0.6152 0.7883 -0.0000
vn 0.5758 0.8176 -0.0000
vn 0.5350 0.8449 -0.0000
vn 0.4929 0.8701 -0.0000
vn 0.4496 0.8932 -0.0000
vn 0.4052 0.9142 -0.0000
vn 0.3599 0.9330 -0.0000
vn 0.3137 0.9495 -0.0000
vn 0.2667 0.9638 -0.0000
vn 0.2191 0.9757 -0.0000
vn 0.1710 0.9853 -0.0000
vn 0.1224 0.9925 -0.0000
vn 0.0736 0.9973 -0.0000
vn 0.0245 0.9997 -0.0000
vn -0.0245 0.9997 -0.0000
vn -0.0736 0.9973 -0.0000
vn -0.1224 0.9925 -0.0000
vn -0.1710 0.9853 -0.0000
vn -0.2191 0.9757 -0.0000
vn -0.2667 0.9638 -0.0000
vn -0.3137 0.9495 -0.0000
vn -0.3599 0.9330 -0.0000
vn -0.4052 0.9142 -0.0000
vn -0.4496 0.8932 -0.0000
vn -0.4929 0.8701 -0.0000
vn -0.5350 0.8449 -0.0000
vn -0.5758 0.8176 -0.0000
vn -0.6152 0.7883 -0.0000
vn -0.6532 0.7572 -0.0000
vn -0.6895 0.7242 -0.0000
vn -0.7242 0.6895 -0.0000
vn -0.7572 0.6532 -0.0000
vn -0.7883 0.6152 -0.0000
vn -0.8176 0.5758 -0.0000
vn -0.8449 0.5350 -0.0000
vn -0.8701 0.4929 -0.0000
vn -0.8932 0.4496 -0.0000
vn -0.9142 0.4052 -0.0000
vn -0.9330 0.3599 -0.0000
vn -0.9495 0.3137 -0.0000
vn -0.9638 0.2667 -0.0000
vn -0.9757 0.2191 -0.0000
vn -0.9853 0.1710 -0.0000
vn -0.9925 0.1224 -0.0000
vn -0.9973 0.0736 -0.0000
vn -0.9997 0.0245 -0.0000
vn -0.9997 -0.0245 -0.0000
vn -0.9973 -0.0736 -0.0000
vn -0.9925 -0.1224 -0.0000
vn -0.9853 -0.1710 -0.0000
vn -0.9757 -0.2191 -0.0000
vn -0.9638 -0.2667 -0.0000
vn -0.9495 -0.3137 -0.0000
vn -0.9330 -0.3599 -0.0000
vn -0.9142 -0.4052 -0.0000
vn -0.8932 -0.4496 -0.0000
vn -0.8701 -0.4929 -0.0000
vn -0.8449 -0.5350 -0.0000
vn -0.8176 -0.5758 -0.0000
vn -0.7883 -0.6152 -0.0000
vn -0.7572 -0.6532 -0.0000
vn -0.7242 -0.6895 -0.0000
vn -0.6895 -0.7242 -0.0000
vn -0.6532 -0.7572 -0.0000
vn -0.6152 -0.7883 -0.0000
vn -0.5758 -0.8176 -0.0000
vn -0.5350 -0.8449 -0.0000
vn -0.4929 -0.8701 -0.0000
vn -0.4496 -0.8932 -0.0000
vn -0.4052 -0.9142 -0.0000
vn -0.3599 -0.9330 -0.0000
vn -0.3137 -0.9495 -0.0000
vn -0.2667 -0.9638 -0.0000
vn -0.2191 -0.9757 -0.0000
vn -0.1710 -0.9853 -0.0000
vn -0.1224 -0.9925 -0.0000
vn -0.0736 -0.9973 -0.0000
vn -0.0245 -0.9997 -0.0000
vn 0.0245 -0.9997 -0.0000
vn 0.0736 -0.9973 -0.0000
vn 0.1224 -0.9925 -0.0000
vn 0.1710 -0.9853 -0.0000
vn 0.2191 -0.9757 -0.0000
vn 0.2667 -0.9638 -0.0000
vn 0.3137 -0.9495 -0.0000
vn 0.3599 -0.9330 -0.0000
vn 0.4052 -0.9142 -0.0000
vn 0.4496 -0.8932 -0.0000
vn 0.4929 -0.8701 -0.0000
vn 0.5350 -0.8449 -0.0000
vn 0.5758 -0.8176 -0.0000
vn 0.6152 -0.7883 -0.0000
vn 0.6532 -0.7572 -0.0000
vn 0.6895 -0.7242 -0.0000
vn 0.7242 -0.6895 -0.0000
vn 0.7572 -0.6532 -0.0000
vn 0.7883 -0.6152 -0.0000
vn 0.8176 -0.5758 -0.0000
vn 0.8449 -0.5350 -0.0000
vn 0.8701 -0.4929 -0.0000
vn 0.8932 -0.4496 -0.0000
vn 0.9142 -0.4052 -0.0000
vn 0.9330 -0.3599 -0.0000
vn 0.9495 -0.3137 -0.0000
vn 0.9638 -0.2667 -0.0000
vn 0.9757 -0.2191 -0.0000
vn 0.9853 -0.1710 -0.0000
vn 0.9925 -0.1224 -0.0000
vn 0.9973 -0.0736 -0.0000
vn 0.9997 -0.0245 -0.0000
vt 0.500000 0.500000
vt 0.900000 0.100000
vt 0.100000 0.900000
vt 0.100000 0.100000
vt 0.900000 0.900000
s 0
f 96/1/1 97/1/1 98/1/1
f 98/1/1 93/1/1 96/1/1
f 93/1/1 95/1/1 96/1/1
f 98/1/1 99/1/1 101/1/1
f 93/1/1 94/1/1 95/1/1
f 99/1/1 100/1/1 101/1/1
f 93/1/1 98/1/1 101/1/1
f 101/1/1 89/1/1 93/1/1
f 90/1/1 91/1/1 93/1/1
f 91/1/1 92/1/1 93/1/1
f 44/1/1 41/1/1 42/1/1
f 101/1/1 105/1/1 89/1/1
f 105/1/1 101/1/1 104/1/1
f 27/1/1 28/1/1 29/1/1
f 89/1/1 90/1/1 93/1/1
f 88/1/1 89/1/1 105/1/1
f 88/1/1 105/1/1 106/1/1
f 87/1/1 88/1/1 106/1/1
f 87/1/1 106/1/1 107/1/1
f 86/1/1 87/1/1 107/1/1
f 86/1/1 107/1/1 108/1/1
f 85/1/1 86/1/1 108/1/1
f 85/1/1 108/1/1 109/1/1
f 84/1/1 85/1/1 109/1/1
f 84/1/1 109/1/1 110/1/1
f 83/1/1 84/1/1 110/1/1
f 83/1/1 110/1/1 111/1/1
f 82/1/1 83/1/1 111/1/1
f 82/1/1 111/1/1 112/1/1
f 81/1/1 82/1/1 112/1/1
f 81/1/1 112/1/1 113/1/1
f 113/1/1 79/1/1 81/1/1
f 17/1/1 49/1/1 50/1/1
f 79/1/1 80/1/1 81/1/1
f 79/1/1 113/1/1 115/1/1
f 78/1/1 79/1/1 115/1/1
f 78/1/1 115/1/1 116/1/1
f 77/1/1 78/1/1 116/1/1
f 77/1/1 116/1/1 117/1/1
f 76/1/1 77/1/1 117/1/1
f 76/1/1 117/1/1 118/1/1
f 75/1/1 76/1/1 118/1/1
f 75/1/1 118/1/1 119/1/1
f 119/1/1 73/1/1 75/1/1
f 127/1/1 67/1/1 68/1/1
f 73/1/1 74/1/1 75/1/1
f 73/1/1 119/1/1 121/1/1
f 72/1/1 73/1/1 121/1/1
f 122/1/1 71/1/1 121/1/1
f 2/1/1 65/1/1 128/1/1
f 71/1/1 122/1/1 123/1/1
f 70/1/1 71/1/1 123/1/1
f 70/1/1 123/1/1 124/1/1
f 69/1/1 70/1/1 124/1/1
f 69/1/1 124/1/1 125/1/1
f 68/1/1 69/1/1 125/1/1
f 126/1/1 127/1/1 125/1/1
f 71/1/1 72/1/1 121/1/1
f 127/1/1 68/1/1 125/1/1
f 66/1/1 67/1/1 127/1/1
f 66/1/1 127/1/1 128/1/1
f 65/1/1 66/1/1 128/1/1
f 1/1/1 2/1/1 128/1/1
f 113/1/1 114/1/1 115/1/1
f 64/1/1 65/1/1 2/1/1
f 63/1/1 64/1/1 2/1/1
f 63/1/1 2/1/1 3/1/1
f 3/1/1 4/1/1 63/1/1
f 63/1/1 4/1/1 61/1/1
f 62/1/1 63/1/1 61/1/1
f 61/1/1 4/1/1 5/1/1
f 60/1/1 61/1/1 5/1/1
f 60/1/1 5/1/1 6/1/1
f 59/1/1 60/1/1 6/1/1
f 59/1/1 6/1/1 7/1/1
f 58/1/1 59/1/1 7/1/1
f 58/1/1 7/1/1 8/1/1
f 57/1/1 58/1/1 8/1/1
f 57/1/1 8/1/1 9/1/1
f 56/1/1 57/1/1 9/1/1
f 56/1/1 9/1/1 10/1/1
f 55/1/1 56/1/1 10/1/1
f 55/1/1 10/1/1 11/1/1
f 54/1/1 55/1/1 11/1/1
f 54/1/1 11/1/1 12/1/1
f 53/1/1 54/1/1 12/1/1
f 53/1/1 12/1/1 13/1/1
f 52/1/1 53/1/1 13/1/1
f 52/1/1 13/1/1 14/1/1
f 51/1/1 52/1/1 14/1/1
f 51/1/1 14/1/1 15/1/1
f 50/1/1 51/1/1 15/1/1
f 16/1/1 17/1/1 15/1/1
f 29/1/1 30/1/1 31/1/1
f 17/1/1 50/1/1 15/1/1
f 17/1/1 18/1/1 49/1/1
f 49/1/1 18/1/1 47/1/1
f 48/1/1 49/1/1 47/1/1
f 47/1/1 18/1/1 19/1/1
f 46/1/1 47/1/1 19/1/1
f 46/1/1 19/1/1 20/1/1
f 45/1/1 46/1/1 20/1/1
f 45/1/1 20/1/1 21/1/1
f 44/1/1 45/1/1 21/1/1
f 44/1/1 21/1/1 22/1/1
f 22/1/1 41/1/1 44/1/1
f 37/1/1 41/1/1 22/1/1
f 22/1/1 23/1/1 24/1/1
f 130/2/2 1/3/2 129/4/2
f 43/1/1 44/1/1 42/1/1
f 25/1/1 37/1/1 22/1/1
f 101/1/1 103/1/1 104/1/1
f 25/1/1 26/1/1 29/1/1
f 41/1/1 37/1/1 40/1/1
f 37/1/1 39/1/1 40/1/1
f 101/1/1 102/1/1 103/1/1
f 26/1/1 27/1/1 29/1/1
f 37/1/1 38/1/1 39/1/1
f 37/1/1 25/1/1 29/1/1
f 29/1/1 34/1/1 37/1/1
f 25/1/1 22/1/1 24/1/1
f 35/1/1 36/1/1 37/1/1
f 34/1/1 35/1/1 37/1/1
f 29/1/1 31/1/1 32/1/1
f 34/1/1 29/1/1 32/1/1
f 33/1/1 34/1/1 32/1/1
f 119/1/1 120/1/1 121/1/1
f 131/2/3 2/3/3 130/4/3
f 132/2/4 3/3/4 131/4/4
f 133/2/5 4/3/5 132/4/5
f 134/2/6 5/3/6 133/4/6
f 135/2/7 6/3/7 134/4/7
f 136/2/8 7/3/8 135/4/8
f 137/2/9 8/3/9 136/4/9
f 138/2/10 9/3/10 137/4/10
f 139/2/11 10/3/11 138/4/11
f 140/2/12 11/3/12 139/4/12
f 141/2/13 12/3/13 140/4/13
f 142/2/14 13/3/14 141/4/14
f 143/2/15 14/3/15 142/4/15
f 144/2/16 15/3/16 143/4/16
f 145/2/17 16/3/17 144/4/17
f 146/2/18 17/3/18 145/4/18
f 147/2/19 18/3/19 146/4/19
f 148/2/20 19/3/20 147/4/20
f 149/2/21 20/3/21 148/4/21
f 150/2/22 21/3/22 149/4/22
f 151/2/23 22/3/23 150/4/23
f 152/2/24 23/3/24 151/4/24
f 153/2/25 24/3/25 152/4/25
f 154/2/26 25/3/26 153/4/26
f 155/2/27 26/3/27 154/4/27
f 156/2/28 27/3/28 155/4/28
f 157/2/29 28/3/29 156/4/29
f 158/2/30 29/3/30 157/4/30
f 159/2/31 30/3/31 158/4/31
f 160/2/32 31/3/32 159/4/32
f 161/2/33 32/3/33 160/4/33
f 162/2/34 33/3/34 161/4/34
f 163/2/35 34/3/35 162/4/35
f 164/2/36 35/3/36 163/4/36
f 165/2/37 36/3/37 164/4/37
f 166/2/38 37/3/38 165/4/38
f 167/2/39 38/3/39 166/4/39
f 168/2/40 39/3/40 167/4/40
f 169/2/41 40/3/41 168/4/41
f 170/2/42 41/3/42 169/4/42
f 171/2/43 42/3/43 170/4/43
f 172/2/44 43/3/44 171/4/44
f 173/2/45 44/3/45 172/4/45
f 174/2/46 45/3/46 173/4/46
f 175/2/47 46/3/47 174/4/47
f 176/2/48 47/3/48 175/4/48
f 177/2/49 48/3/49 176/4/49
f 178/2/50 49/3/50 177/4/50
f 179/2/51 50/3/51 178/4/51
f 180/2/52 51/3/52 179/4/52
f 181/2/53 52/3/53 180/4/53
f 182/2/54 53/3/54 181/4/54
f 183/2/55 54/3/55 182/4/55
f 184/2/56 55/3/56 183/4/56
f 185/2/57 56/3/57 184/4/57
f 186/2/58 57/3/58 185/4/58
f 187/2/59 58/3/59 186/4/59
f 188/2/60 59/3/60 187/4/60
f 189/2/61 60/3/61 188/4/61
f 190/2/62 61/3/62 189/4/62
f 191/2/63 62/3/63 190/4/63
f 192/2/64 63/3/64 191/4/64
f 193/2/65 64/3/65 192/4/65
f 194/2/66 65/3/66 193/4/66
f 195/2/67 66/3/67 194/4/67
f 196/2/68 67/3/68 195/4/68
f 197/2/69 68/3/69 196/4/69
f 198/2/70 69/3/70 197/4/70
f 199/2/71 70/3/71 198/4/71
f 200/2/72 71/3/72 199/4/72
f 201/2/73 72/3/73 200/4/73
f 202/2/74 73/3/74 201/4/74
f 203/2/75 74/3/75 202/4/75
f 204/2/76 75/3/76 203/4/76
f 205/2/77 76/3/77 204/4/77
f 206/2/78 77/3/78 205/4/78
f 207/2/79 78/3/79 206/4/79
f 208/2/80 79/3/80 207/4/80
f 209/2/81 80/3/81 208/4/81
f 210/2/82 81/3/82 209/4/82
f 211/2/83 82/3/83 210/4/83
f 212/2/84 83/3/84 211/4/84
f 213/2/85 84/3/85 212/4/85
f 214/2/86 85/3/86 213/4/86
f 215/2/87 86/3/87 214/4/87
f 216/2/88 87/3/88 215/4/88
f 217/2/89 88/3/89 216/4/89
f 218/2/90 89/3/90 217/4/90
f 219/2/91 90/3/91 218/4/91
f 220/2/92 91/3/92 219/4/92
f 221/2/93 92/3/93 220/4/93
f 222/2/94 93/3/94 221/4/94
f 223/2/95 94/3/95 222/4/95
f 224/2/96 95/3/96 223/4/96
f 225/2/97 96/3/97 224/4/97
f 226/2/98 97/3/98 225/4/98
f 227/2/99 98/3/99 226/4/99
f 228/2/100 99/3/100 227/4/100
f 229/2/101 100/3/101 228/4/101
f 230/2/102 101/3/102 229/4/102
f 231/2/103 102/3/103 230/4/103
f 232/2/104 103/3/104 231/4/104
f 233/2/105 104/3/105 232/4/105
f 234/2/106 105/3/106 233/4/106
f 235/2/107 106/3/107 234/4/107
f 236/2/108 107/3/108 235/4/108
f 237/2/109 108/3/109 236/4/109
f 238/2/110 109/3/110 237/4/110
f 239/2/111 110/3/111 238/4/111
f 240/2/112 111/3/112 239/4/112
f 241/2/113 112/3/113 240/4/113
f 242/2/114 113/3/114 241/4/114
f 243/2/115 114/3/115 242/4/115
f 244/2/116 115/3/116 243/4/116
f 245/2/117 116/3/117 244/4/117
f 246/2/118 117/3/118 245/4/118
f 247/2/119 118/3/119 246/4/119
f 248/2/120 119/3/120 247/4/120
f 249/2/121 120/3/121 248/4/121
f 250/2/122 121/3/122 249/4/122
f 251/2/123 122/3/123 250/4/123
f 252/2/124 123/3/124 251/4/124
f 253/2/125 124/3/125 252/4/125
f 254/2/126 125/3/126 253/4/126
f 255/2/127 126/3/127 254/4/127
f 256/2/128 127/3/128 255/4/128
f 129/2/129 128/3/129 256/4/129
f 130/2/2 2/5/2 1/3/2
f 131/2/3 3/5/3 2/3/3
f 132/2/4 4/5/4 3/3/4
f 133/2/5 5/5/5 4/3/5
f 134/2/6 6/5/6 5/3/6
f 135/2/7 7/5/7 6/3/7
f 136/2/8 8/5/8 7/3/8
f 137/2/9 9/5/9 8/3/9
f 138/2/10 10/5/10 9/3/10
f 139/2/11 11/5/11 10/3/11
f 140/2/12 12/5/12 11/3/12
f 141/2/13 13/5/13 12/3/13
f 142/2/14 14/5/14 13/3/14
f 143/2/15 15/5/15 14/3/15
f 144/2/16 16/5/16 15/3/16
f 145/2/17 17/5/17 16/3/17
f 146/2/18 18/5/18 17/3/18
f 147/2/19 19/5/19 18/3/19
f 148/2/20 20/5/20 19/3/20
f 149/2/21 21/5/21 20/3/21
f 150/2/22 22/5/22 21/3/22
f 151/2/23 23/5/23 22/3/23
f 152/2/24 24/5/24 23/3/24
f 153/2/25 25/5/25 24/3/25
f 154/2/26 26/5/26 25/3/26
f 155/2/27 27/5/27 26/3/27
f 156/2/28 28/5/28 27/3/28
f 157/2/29 29/5/29 28/3/29
f 158/2/30 30/5/30 29/3/30
f 159/2/31 31/5/31 30/3/31
f 160/2/32 32/5/32 31/3/32
f 161/2/33 33/5/33 32/3/33
f 162/2/34 34/5/34 33/3/34
f 163/2/35 35/5/35 34/3/35
f 164/2/36 36/5/36 35/3/36
f 165/2/37 37/5/37 36/3/37
f 166/2/38 38/5/38 37/3/38
f 167/2/39 39/5/39 38/3/39
f 168/2/40 40/5/40 39/3/40
f 169/2/41 41/5/41 40/3/41
f 170/2/42 42/5/42 41/3/42
f 171/2/43 43/5/43 42/3/43
f 172/2/44 44/5/44 43/3/44
f 173/2/45 45/5/45 44/3/45
f 174/2/46 46/5/46 45/3/46
f 175/2/47 47/5/47 46/3/47
f 176/2/48 48/5/48 47/3/48
f 177/2/49 49/5/49 48/3/49
f 178/2/50 50/5/50 49/3/50
f 179/2/51 51/5/51 50/3/51
f 180/2/52 52/5/52 51/3/52
f 181/2/53 53/5/53 52/3/53
f 182/2/54 54/5/54 53/3/54
f 183/2/55 55/5/55 54/3/55
f 184/2/56 56/5/56 55/3/56
f 185/2/57 57/5/57 56/3/57
f 186/2/58 58/5/58 57/3/58
f 187/2/59 59/5/59 58/3/59
f 188/2/60 60/5/60 59/3/60
f 189/2/61 61/5/61 60/3/61
f 190/2/62 62/5/62 61/3/62
f 191/2/63 63/5/63 62/3/63
f 192/2/64 64/5/64 63/3/64
f 193/2/65 65/5/65 64/3/65
f 194/2/66 66/5/66 65/3/66
f 195/2/67 67/5/67 66/3/67
f 196/2/68 68/5/68 67/3/68
f 197/2/69 69/5/69 68/3/69
f 198/2/70 70/5/70 69/3/70
f 199/2/71 71/5/71 70/3/71
f 200/2/72 72/5/72 71/3/72
f 201/2/73 73/5/73 72/3/73
f 202/2/74 74/5/74 73/3/74
f 203/2/75 75/5/75 74/3/75
f 204/2/76 76/5/76 75/3/76
f 205/2/77 77/5/77 76/3/77
f 206/2/78 78/5/78 77/3/78
f 207/2/79 79/5/79 78/3/79
f 208/2/80 80/5/80 79/3/80
f 209/2/81 81/5/81 80/3/81
f 210/2/82 82/5/82 81/3/82
f 211/2/83 83/5/83 82/3/83
f 212/2/84 84/5/84 83/3/84
f 213/2/85 85/5/85 84/3/85
f 214/2/86 86/5/86 85/3/86
f 215/2/87 87/5/87 86/3/87
f 216/2/88 88/5/88 87/3/88
f 217/2/89 89/5/89 88/3/89
f 218/2/90 90/5/90 89/3/90
f 219/2/91 91/5/91 90/3/91
f 220/2/92 92/5/92 91/3/92
f 221/2/93 93/5/93 92/3/93
f 222/2/94 94/5/94 93/3/94
f 223/2/95 95/5/95 94/3/95
f 224/2/96 96/5/96 95/3/96
f 225/2/97 97/5/97 96/3/97
f 226/2/98 98/5/98 97/3/98
f 227/2/99 99/5/99 98/3/99
f 228/2/100 100/5/100 99/3/100
f 229/2/101 101/5/101 100/3/101
f 230/2/102 102/5/102 101/3/102
f 231/2/103 103/5/103 102/3/103
f 232/2/104 104/5/104 103/3/104
f 233/2/105 105/5/105 104/3/105
f 234/2/106 106/5/106 105/3/106
f 235/2/107 107/5/107 106/3/107
f 236/2/108 108/5/108 107/3/108
f 237/2/109 109/5/109 108/3/109
f 238/2/110 110/5/110 109/3/110
f 239/2/111 111/5/111 110/3/111
f 240/2/112 112/5/112 111/3/112
f 241/2/113 113/5/113 112/3/113
f 242/2/114 114/5/114 113/3/114
f 243/2/115 115/5/115 114/3/115
f 244/2/116 116/5/116 115/3/116
f 245/2/117 117/5/117 116/3/117
f 246/2/118 118/5/118 117/3/118
f 247/2/119 119/5/119 118/3/119
f 248/2/120 120/5/120 119/3/120
f 249/2/121 121/5/121 120/3/121
f 250/2/122 122/5/122 121/3/122
f 251/2/123 123/5/123 122/3/123
f 252/2/124 124/5/124 123/3/124
f 253/2/125 125/5/125 124/3/125
f 254/2/126 126/5/126 125/3/126
f 255/2/127 127/5/127 126/3/127
f 256/2/128 128/5/128 127/3/128
f 129/2/129 1/5/129 128/3/129
