# Blender 5.1.2
# www.blender.org
o st_chrono_rim
v 0.993478 0.000000 0.070000
v 0.993179 0.024381 0.070000
v 1.049684 0.025768 0.070000
v 1.049684 0.025768 0.020000
v 0.993179 0.024381 0.020000
v 0.992282 0.048748 0.070000
v 1.048735 0.051521 0.070000
v 1.048735 0.051521 0.020000
v 0.992282 0.048748 0.020000
v 0.990786 0.073085 0.070000
v 1.047155 0.077243 0.070000
v 1.047155 0.077243 0.020000
v 0.990786 0.073085 0.020000
v 0.988694 0.097378 0.070000
v 1.044944 0.102918 0.070000
v 1.044944 0.102918 0.020000
v 0.988694 0.097378 0.020000
v 0.986007 0.121612 0.070000
v 1.042104 0.128531 0.070000
v 1.042104 0.128531 0.020000
v 0.986007 0.121612 0.020000
v 0.982725 0.145774 0.070000
v 1.038635 0.154067 0.070000
v 1.038635 0.154067 0.020000
v 0.982725 0.145774 0.020000
v 0.978852 0.169847 0.070000
v 1.034541 0.179510 0.070000
v 1.034541 0.179510 0.020000
v 0.978852 0.169847 0.020000
v 0.974389 0.193818 0.070000
v 1.029824 0.204845 0.070000
v 1.029824 0.204845 0.020000
v 0.974389 0.193818 0.020000
v 0.969339 0.217672 0.070000
v 1.024487 0.230056 0.070000
v 1.024487 0.230056 0.020000
v 0.969339 0.217672 0.020000
v 0.963705 0.241396 0.070000
v 1.018533 0.255129 0.070000
v 1.018533 0.255129 0.020000
v 0.963705 0.241396 0.020000
v 0.957491 0.264973 0.070000
v 1.011965 0.280048 0.070000
v 1.011965 0.280048 0.020000
v 0.957491 0.264973 0.020000
v 0.950699 0.288392 0.070000
v 1.004787 0.304799 0.070000
v 1.004787 0.304799 0.020000
v 0.950699 0.288392 0.020000
v 0.943336 0.311636 0.070000
v 0.997005 0.329366 0.070000
v 0.997005 0.329366 0.020000
v 0.943336 0.311636 0.020000
v 0.935404 0.334693 0.070000
v 0.988621 0.353734 0.070000
v 0.988621 0.353734 0.020000
v 0.935404 0.334693 0.020000
v 0.926908 0.357548 0.070000
v 0.979642 0.377890 0.070000
v 0.979642 0.377890 0.020000
v 0.926908 0.357548 0.020000
v 0.917854 0.380188 0.070000
v 0.970074 0.401818 0.070000
v 0.970074 0.401818 0.020000
v 0.917854 0.380188 0.020000
v 0.908248 0.402598 0.070000
v 0.959920 0.425503 0.070000
v 0.959920 0.425503 0.020000
v 0.908248 0.402598 0.020000
v 0.898094 0.424767 0.070000
v 0.949189 0.448933 0.070000
v 0.949189 0.448933 0.020000
v 0.898094 0.424767 0.020000
v 0.887399 0.446679 0.070000
v 0.937886 0.472092 0.070000
v 0.937886 0.472092 0.020000
v 0.887399 0.446679 0.020000
v 0.876170 0.468322 0.070000
v 0.926017 0.494967 0.070000
v 0.926017 0.494967 0.020000
v 0.876170 0.468322 0.020000
v 0.864412 0.489684 0.070000
v 0.913591 0.517543 0.070000
v 0.913591 0.517543 0.020000
v 0.864412 0.489684 0.020000
v 0.852135 0.510750 0.070000
v 0.900615 0.539808 0.070000
v 0.900615 0.539808 0.020000
v 0.852135 0.510750 0.020000
v 0.839344 0.531509 0.070000
v 0.887096 0.561747 0.070000
v 0.887096 0.561747 0.020000
v 0.839344 0.531509 0.020000
v 0.826047 0.551947 0.070000
v 0.873043 0.583349 0.070000
v 0.873043 0.583349 0.020000
v 0.826047 0.551947 0.020000
v 0.812253 0.572053 0.070000
v 0.858464 0.604599 0.070000
v 0.858464 0.604599 0.020000
v 0.812253 0.572053 0.020000
v 0.797969 0.591814 0.070000
v 0.843368 0.625484 0.070000
v 0.843368 0.625484 0.020000
v 0.797969 0.591814 0.020000
v 0.783205 0.611219 0.070000
v 0.827764 0.645993 0.070000
v 0.827764 0.645993 0.020000
v 0.783205 0.611219 0.020000
v 0.767969 0.630256 0.070000
v 0.811661 0.666113 0.070000
v 0.811661 0.666113 0.020000
v 0.767969 0.630256 0.020000
v 0.752271 0.648913 0.070000
v 0.795069 0.685831 0.070000
v 0.795069 0.685831 0.020000
v 0.752271 0.648913 0.020000
v 0.736119 0.667179 0.070000
v 0.777999 0.705137 0.070000
v 0.777999 0.705137 0.020000
v 0.736119 0.667179 0.020000
v 0.719524 0.685044 0.070000
v 0.760459 0.724018 0.070000
v 0.760459 0.724018 0.020000
v 0.719524 0.685044 0.020000
v 0.702495 0.702495 0.070000
v 0.742462 0.742462 0.070000
v 0.742462 0.742462 0.020000
v 0.702495 0.702495 0.020000
v 0.685044 0.719524 0.070000
v 0.724018 0.760459 0.070000
v 0.724018 0.760459 0.020000
v 0.685044 0.719524 0.020000
v 0.667179 0.736119 0.070000
v 0.705137 0.777999 0.070000
v 0.705137 0.777999 0.020000
v 0.667179 0.736119 0.020000
v 0.648913 0.752271 0.070000
v 0.685831 0.795069 0.070000
v 0.685831 0.795069 0.020000
v 0.648913 0.752271 0.020000
v 0.630256 0.767969 0.070000
v 0.666113 0.811661 0.070000
v 0.666113 0.811661 0.020000
v 0.630256 0.767969 0.020000
v 0.611219 0.783205 0.070000
v 0.645993 0.827764 0.070000
v 0.645993 0.827764 0.020000
v 0.611219 0.783205 0.020000
v 0.591814 0.797969 0.070000
v 0.625484 0.843368 0.070000
v 0.625484 0.843368 0.020000
v 0.591814 0.797969 0.020000
v 0.572053 0.812253 0.070000
v 0.604599 0.858464 0.070000
v 0.604599 0.858464 0.020000
v 0.572053 0.812253 0.020000
v 0.551947 0.826047 0.070000
v 0.583349 0.873043 0.070000
v 0.583349 0.873043 0.020000
v 0.551947 0.826047 0.020000
v 0.531509 0.839344 0.070000
v 0.561747 0.887096 0.070000
v 0.561747 0.887096 0.020000
v 0.531509 0.839344 0.020000
v 0.510750 0.852135 0.070000
v 0.539808 0.900615 0.070000
v 0.539808 0.900615 0.020000
v 0.510750 0.852135 0.020000
v 0.489684 0.864412 0.070000
v 0.517543 0.913591 0.070000
v 0.517543 0.913591 0.020000
v 0.489684 0.864412 0.020000
v 0.468322 0.876170 0.070000
v 0.494967 0.926017 0.070000
v 0.494967 0.926017 0.020000
v 0.468322 0.876170 0.020000
v 0.446679 0.887399 0.070000
v 0.472092 0.937886 0.070000
v 0.472092 0.937886 0.020000
v 0.446679 0.887399 0.020000
v 0.424767 0.898094 0.070000
v 0.448933 0.949189 0.070000
v 0.448933 0.949189 0.020000
v 0.424767 0.898094 0.020000
v 0.402598 0.908248 0.070000
v 0.425503 0.959920 0.070000
v 0.425503 0.959920 0.020000
v 0.402598 0.908248 0.020000
v 0.380188 0.917854 0.070000
v 0.401818 0.970074 0.070000
v 0.401818 0.970074 0.020000
v 0.380188 0.917854 0.020000
v 0.357548 0.926908 0.070000
v 0.377890 0.979642 0.070000
v 0.377890 0.979642 0.020000
v 0.357548 0.926908 0.020000
v 0.334693 0.935404 0.070000
v 0.353734 0.988621 0.070000
v 0.353734 0.988621 0.020000
v 0.334693 0.935404 0.020000
v 0.311636 0.943336 0.070000
v 0.329366 0.997005 0.070000
v 0.329366 0.997005 0.020000
v 0.311636 0.943336 0.020000
v 0.288392 0.950699 0.070000
v 0.304799 1.004787 0.070000
v 0.304799 1.004787 0.020000
v 0.288392 0.950699 0.020000
v 0.264973 0.957491 0.070000
v 0.280048 1.011965 0.070000
v 0.280048 1.011965 0.020000
v 0.264973 0.957491 0.020000
v 0.241396 0.963705 0.070000
v 0.255129 1.018533 0.070000
v 0.255129 1.018533 0.020000
v 0.241396 0.963705 0.020000
v 0.217672 0.969339 0.070000
v 0.230056 1.024487 0.070000
v 0.230056 1.024487 0.020000
v 0.217672 0.969339 0.020000
v 0.193818 0.974389 0.070000
v 0.204845 1.029824 0.070000
v 0.204845 1.029824 0.020000
v 0.193818 0.974389 0.020000
v 0.169847 0.978852 0.070000
v 0.179510 1.034541 0.070000
v 0.179510 1.034541 0.020000
v 0.169847 0.978852 0.020000
v 0.145774 0.982725 0.070000
v 0.154067 1.038635 0.070000
v 0.154067 1.038635 0.020000
v 0.145774 0.982725 0.020000
v 0.121612 0.986007 0.070000
v 0.128531 1.042104 0.070000
v 0.128531 1.042104 0.020000
v 0.121612 0.986007 0.020000
v 0.097378 0.988694 0.070000
v 0.102918 1.044944 0.070000
v 0.102918 1.044944 0.020000
v 0.097378 0.988694 0.020000
v 0.073085 0.990786 0.070000
v 0.077243 1.047155 0.070000
v 0.077243 1.047155 0.020000
v 0.073085 0.990786 0.020000
v 0.048748 0.992282 0.070000
v 0.051521 1.048735 0.070000
v 0.051521 1.048735 0.020000
v 0.048748 0.992282 0.020000
v 0.024381 0.993179 0.070000
v 0.025768 1.049684 0.070000
v 0.025768 1.049684 0.020000
v 0.024381 0.993179 0.020000
v 0.000000 0.993478 0.070000
v 0.000000 1.050000 0.070000
v 0.000000 1.050000 0.020000
v 0.000000 0.993478 0.020000
v -0.024381 0.993179 0.070000
v -0.025768 1.049684 0.070000
v -0.025768 1.049684 0.020000
v -0.024381 0.993179 0.020000
v -0.048748 0.992282 0.070000
v -0.051521 1.048735 0.070000
v -0.051521 1.048735 0.020000
v -0.048748 0.992282 0.020000
v -0.073085 0.990786 0.070000
v -0.077243 1.047155 0.070000
v -0.077243 1.047155 0.020000
v -0.073085 0.990786 0.020000
v -0.097378 0.988694 0.070000
v -0.102918 1.044944 0.070000
v -0.102918 1.044944 0.020000
v -0.097378 0.988694 0.020000
v -0.121612 0.986007 0.070000
v -0.128531 1.042104 0.070000
v -0.128531 1.042104 0.020000
v -0.121612 0.986007 0.020000
v -0.145774 0.982725 0.070000
v -0.154067 1.038635 0.070000
v -0.154067 1.038635 0.020000
v -0.145774 0.982725 0.020000
v -0.169847 0.978852 0.070000
v -0.179510 1.034541 0.070000
v -0.179510 1.034541 0.020000
v -0.169847 0.978852 0.020000
v -0.193818 0.974389 0.070000
v -0.204845 1.029824 0.070000
v -0.204845 1.029824 0.020000
v -0.193818 0.974389 0.020000
v -0.217672 0.969339 0.070000
v -0.230056 1.024487 0.070000
v -0.230056 1.024487 0.020000
v -0.217672 0.969339 0.020000
v -0.241396 0.963705 0.070000
v -0.255129 1.018533 0.070000
v -0.255129 1.018533 0.020000
v -0.241396 0.963705 0.020000
v -0.264973 0.957491 0.070000
v -0.280048 1.011965 0.070000
v -0.280048 1.011965 0.020000
v -0.264973 0.957491 0.020000
v -0.288392 0.950699 0.070000
v -0.304799 1.004787 0.070000
v -0.304799 1.004787 0.020000
v -0.288392 0.950699 0.020000
v -0.311636 0.943336 0.070000
v -0.329366 0.997005 0.070000
v -0.329366 0.997005 0.020000
v -0.311636 0.943336 0.020000
v -0.334693 0.935404 0.070000
v -0.353734 0.988621 0.070000
v -0.353734 0.988621 0.020000
v -0.334693 0.935404 0.020000
v -0.357548 0.926908 0.070000
v -0.377890 0.979642 0.070000
v -0.377890 0.979642 0.020000
v -0.357548 0.926908 0.020000
v -0.380188 0.917854 0.070000
v -0.401818 0.970074 0.070000
v -0.401818 0.970074 0.020000
v -0.380188 0.917854 0.020000
v -0.402598 0.908248 0.070000
v -0.425503 0.959920 0.070000
v -0.425503 0.959920 0.020000
v -0.402598 0.908248 0.020000
v -0.424767 0.898094 0.070000
v -0.448933 0.949189 0.070000
v -0.448933 0.949189 0.020000
v -0.424767 0.898094 0.020000
v -0.446679 0.887399 0.070000
v -0.472092 0.937886 0.070000
v -0.472092 0.937886 0.020000
v -0.446679 0.887399 0.020000
v -0.468322 0.876170 0.070000
v -0.494967 0.926017 0.070000
v -0.494967 0.926017 0.020000
v -0.468322 0.876170 0.020000
v -0.489684 0.864412 0.070000
v -0.517543 0.913591 0.070000
v -0.517543 0.913591 0.020000
v -0.489684 0.864412 0.020000
v -0.510750 0.852135 0.070000
v -0.539808 0.900615 0.070000
v -0.539808 0.900615 0.020000
v -0.510750 0.852135 0.020000
v -0.531509 0.839344 0.070000
v -0.561747 0.887096 0.070000
v -0.561747 0.887096 0.020000
v -0.531509 0.839344 0.020000
v -0.551947 0.826047 0.070000
v -0.583349 0.873043 0.070000
v -0.583349 0.873043 0.020000
v -0.551947 0.826047 0.020000
v -0.572053 0.812253 0.070000
v -0.604599 0.858464 0.070000
v -0.604599 0.858464 0.020000
v -0.572053 0.812253 0.020000
v -0.591814 0.797969 0.070000
v -0.625484 0.843368 0.070000
v -0.625484 0.843368 0.020000
v -0.591814 0.797969 0.020000
v -0.611219 0.783205 0.070000
v -0.645993 0.827764 0.070000
v -0.645993 0.827764 0.020000
v -0.611219 0.783205 0.020000
v -0.630256 0.767969 0.070000
v -0.666113 0.811661 0.070000
v -0.666113 0.811661 0.020000
v -0.630256 0.767969 0.020000
v -0.648913 0.752271 0.070000
v -0.685831 0.795069 0.070000
v -0.685831 0.795069 0.020000
v -0.648913 0.752271 0.020000
v -0.667179 0.736119 0.070000
v -0.705137 0.777999 0.070000
v -0.705137 0.777999 0.020000
v -0.667179 0.736119 0.020000
v -0.685044 0.719524 0.070000
v -0.724018 0.760459 0.070000
v -0.724018 0.760459 0.020000
v -0.685044 0.719524 0.020000
v -0.702495 0.702495 0.070000
v -0.742462 0.742462 0.070000
v -0.742462 0.742462 0.020000
v -0.702495 0.702495 0.020000
v -0.719524 0.685044 0.070000
v -0.760459 0.724018 0.070000
v -0.760459 0.724018 0.020000
v -0.719524 0.685044 0.020000
v -0.736119 0.667179 0.070000
v -0.777999 0.705137 0.070000
v -0.777999 0.705137 0.020000
v -0.736119 0.667179 0.020000
v -0.752271 0.648913 0.070000
v -0.795069 0.685831 0.070000
v -0.795069 0.685831 0.020000
v -0.752271 0.648913 0.020000
v -0.767969 0.630256 0.070000
v -0.811661 0.666113 0.070000
v -0.811661 0.666113 0.020000
v -0.767969 0.630256 0.020000
v -0.783205 0.611219 0.070000
v -0.827764 0.645993 0.070000
v -0.827764 0.645993 0.020000
v -0.783205 0.611219 0.020000
v -0.797969 0.591814 0.070000
v -0.843368 0.625484 0.070000
v -0.843368 0.625484 0.020000
v -0.797969 0.591814 0.020000
v -0.812253 0.572053 0.070000
v -0.858464 0.604599 0.070000
v -0.858464 0.604599 0.020000
v -0.812253 0.572053 0.020000
v -0.826047 0.551947 0.070000
v -0.873043 0.583349 0.070000
v -0.873043 0.583349 0.020000
v -0.826047 0.551947 0.020000
v -0.839344 0.531509 0.070000
v -0.887096 0.561747 0.070000
v -0.887096 0.561747 0.020000
v -0.839344 0.531509 0.020000
v -0.852135 0.510750 0.070000
v -0.900615 0.539808 0.070000
v -0.900615 0.539808 0.020000
v -0.852135 0.510750 0.020000
v -0.864412 0.489684 0.070000
v -0.913591 0.517543 0.070000
v -0.913591 0.517543 0.020000
v -0.864412 0.489684 0.020000
v -0.876170 0.468322 0.070000
v -0.926017 0.494967 0.070000
v -0.926017 0.494967 0.020000
v -0.876170 0.468322 0.020000
v -0.887399 0.446679 0.070000
v -0.937886 0.472092 0.070000
v -0.937886 0.472092 0.020000
v -0.887399 0.446679 0.020000
v -0.898094 0.424767 0.070000
v -0.949189 0.448933 0.070000
v -0.949189 0.448933 0.020000
v -0.898094 0.424767 0.020000
v -0.908248 0.402598 0.070000
v -0.959920 0.425503 0.070000
v -0.959920 0.425503 0.020000
v -0.908248 0.402598 0.020000
v -0.917854 0.380188 0.070000
v -0.970074 0.401818 0.070000
v -0.970074 0.401818 0.020000
v -0.917854 0.380188 0.020000
v -0.926908 0.357548 0.070000
v -0.979642 0.377890 0.070000
v -0.979642 0.377890 0.020000
v -0.926908 0.357548 0.020000
v -0.935404 0.334693 0.070000
v -0.988621 0.353734 0.070000
v -0.988621 0.353734 0.020000
v -0.935404 0.334693 0.020000
v -0.943336 0.311636 0.070000
v -0.997005 0.329366 0.070000
v -0.997005 0.329366 0.020000
v -0.943336 0.311636 0.020000
v -0.950699 0.288392 0.070000
v -1.004787 0.304799 0.070000
v -1.004787 0.304799 0.020000
v -0.950699 0.288392 0.020000
v -0.957491 0.264973 0.070000
v -1.011965 0.280048 0.070000
v -1.011965 0.280048 0.020000
v -0.957491 0.264973 0.020000
v -0.963705 0.241396 0.070000
v -1.018533 0.255129 0.070000
v -1.018533 0.255129 0.020000
v -0.963705 0.241396 0.020000
v -0.969339 0.217672 0.070000
v -1.024487 0.230056 0.070000
v -1.024487 0.230056 0.020000
v -0.969339 0.217672 0.020000
v -0.974389 0.193818 0.070000
v -1.029824 0.204845 0.070000
v -1.029824 0.204845 0.020000
v -0.974389 0.193818 0.020000
v -0.978852 0.169847 0.070000
v -1.034541 0.179510 0.070000
v -1.034541 0.179510 0.020000
v -0.978852 0.169847 0.020000
v -0.982725 0.145774 0.070000
v -1.038635 0.154067 0.070000
v -1.038635 0.154067 0.020000
v -0.982725 0.145774 0.020000
v -0.986007 0.121612 0.070000
v -1.042104 0.128531 0.070000
v -1.042104 0.128531 0.020000
v -0.986007 0.121612 0.020000
v -0.988694 0.097378 0.070000
v -1.044944 0.102918 0.070000
v -1.044944 0.102918 0.020000
v -0.988694 0.097378 0.020000
v -0.990786 0.073085 0.070000
v -1.047155 0.077243 0.070000
v -1.047155 0.077243 0.020000
v -0.990786 0.073085 0.020000
v -0.992282 0.048748 0.070000
v -1.048735 0.051521 0.070000
v -1.048735 0.051521 0.020000
v -0.992282 0.048748 0.020000
v -0.993179 0.024381 0.070000
v -1.049684 0.025768 0.070000
v -1.049684 0.025768 0.020000
v -0.993179 0.024381 0.020000
v -0.993478 0.000000 0.070000
v -1.050000 0.000000 0.070000
v -1.050000 0.000000 0.020000
v -0.993478 0.000000 0.020000
v -0.993179 -0.024381 0.070000
v -1.049684 -0.025768 0.070000
v -1.049684 -0.025768 0.020000
v -0.993179 -0.024381 0.020000
v -0.992282 -0.048748 0.070000
v -1.048735 -0.051521 0.070000
v -1.048735 -0.051521 0.020000
v -0.992282 -0.048748 0.020000
v -0.990786 -0.073085 0.070000
v -1.047155 -0.077243 0.070000
v -1.047155 -0.077243 0.020000
v -0.990786 -0.073085 0.020000
v -0.988694 -0.097378 0.070000
v -1.044944 -0.102918 0.070000
v -1.044944 -0.102918 0.020000
v -0.988694 -0.097378 0.020000
v -0.986007 -0.121612 0.070000
v -1.042104 -0.128531 0.070000
v -1.042104 -0.128531 0.020000
v -0.986007 -0.121612 0.020000
v -0.982725 -0.145774 0.070000
v -1.038635 -0.154067 0.070000
v -1.038635 -0.154067 0.020000
v -0.982725 -0.145774 0.020000
v -0.978852 -0.169847 0.070000
v -1.034541 -0.179510 0.070000
v -1.034541 -0.179510 0.020000
v -0.978852 -0.169847 0.020000
v -0.974389 -0.193818 0.070000
v -1.029824 -0.204845 0.070000
v -1.029824 -0.204845 0.020000
v -0.974389 -0.193818 0.020000
v -0.969339 -0.217672 0.070000
v -1.024487 -0.230056 0.070000
v -1.024487 -0.230056 0.020000
v -0.969339 -0.217672 0.020000
v -0.963705 -0.241396 0.070000
v -1.018533 -0.255129 0.070000
v -1.018533 -0.255129 0.020000
v -0.963705 -0.241396 0.020000
v -0.957491 -0.264973 0.070000
v -1.011965 -0.280048 0.070000
v -1.011965 -0.280048 0.020000
v -0.957491 -0.264973 0.020000
v -0.950699 -0.288392 0.070000
v -1.004787 -0.304799 0.070000
v -1.004787 -0.304799 0.020000
v -0.950699 -0.288392 0.020000
v -0.943336 -0.311636 0.070000
v -0.997005 -0.329366 0.070000
v -0.997005 -0.329366 0.020000
v -0.943336 -0.311636 0.020000
v -0.935404 -0.334693 0.070000
v -0.988621 -0.353734 0.070000
v -0.988621 -0.353734 0.020000
v -0.935404 -0.334693 0.020000
v -0.926908 -0.357548 0.070000
v -0.979642 -0.377890 0.070000
v -0.979642 -0.377890 0.020000
v -0.926908 -0.357548 0.020000
v -0.917854 -0.380188 0.070000
v -0.970074 -0.401818 0.070000
v -0.970074 -0.401818 0.020000
v -0.917854 -0.380188 0.020000
v -0.908248 -0.402598 0.070000
v -0.959920 -0.425503 0.070000
v -0.959920 -0.425503 0.020000
v -0.908248 -0.402598 0.020000
v -0.898094 -0.424767 0.070000
v -0.949189 -0.448933 0.070000
v -0.949189 -0.448933 0.020000
v -0.898094 -0.424767 0.020000
v -0.887399 -0.446679 0.070000
v -0.937886 -0.472092 0.070000
v -0.937886 -0.472092 0.020000
v -0.887399 -0.446679 0.020000
v -0.876170 -0.468322 0.070000
v -0.926017 -0.494967 0.070000
v -0.926017 -0.494967 0.020000
v -0.876170 -0.468322 0.020000
v -0.864412 -0.489684 0.070000
v -0.913591 -0.517543 0.070000
v -0.913591 -0.517543 0.020000
v -0.864412 -0.489684 0.020000
v -0.852135 -0.510750 0.070000
v -0.900615 -0.539808 0.070000
v -0.900615 -0.539808 0.020000
v -0.852135 -0.510750 0.020000
v -0.839344 -0.531509 0.070000
v -0.887096 -0.561747 0.070000
v -0.887096 -0.561747 0.020000
v -0.839344 -0.531509 0.020000
v -0.826047 -0.551947 0.070000
v -0.873043 -0.583349 0.070000
v -0.873043 -0.583349 0.020000
v -0.826047 -0.551947 0.020000
v -0.812253 -0.572053 0.070000
v -0.858464 -0.604599 0.070000
v -0.858464 -0.604599 0.020000
v -0.812253 -0.572053 0.020000
v -0.797969 -0.591814 0.070000
v -0.843368 -0.625484 0.070000
v -0.843368 -0.625484 0.020000
v -0.797969 -0.591814 0.020000
v -0.783205 -0.611219 0.070000
v -0.827764 -0.645993 0.070000
v -0.827764 -0.645993 0.020000
v -0.783205 -0.611219 0.020000
v -0.767969 -0.630256 0.070000
v -0.811661 -0.666113 0.070000
v -0.811661 -0.666113 0.020000
v -0.767969 -0.630256 0.020000
v -0.752271 -0.648913 0.070000
v -0.795069 -0.685831 0.070000
v -0.795069 -0.685831 0.020000
v -0.752271 -0.648913 0.020000
v -0.736119 -0.667179 0.070000
v -0.777999 -0.705137 0.070000
v -0.777999 -0.705137 0.020000
v -0.736119 -0.667179 0.020000
v -0.719524 -0.685044 0.070000
v -0.760459 -0.724018 0.070000
v -0.760459 -0.724018 0.020000
v -0.719524 -0.685044 0.020000
v -0.702495 -0.702495 0.070000
v -0.742462 -0.742462 0.070000
v -0.742462 -0.742462 0.020000
v -0.702495 -0.702495 0.020000
v -0.685044 -0.719524 0.070000
v -0.724018 -0.760459 0.070000
v -0.724018 -0.760459 0.020000
v -0.685044 -0.719524 0.020000
v -0.667179 -0.736119 0.070000
v -0.705137 -0.777999 0.070000
v -0.705137 -0.777999 0.020000
v -0.667179 -0.736119 0.020000
v -0.648913 -0.752271 0.070000
v -0.685831 -0.795069 0.070000
v -0.685831 -0.795069 0.020000
v -0.648913 -0.752271 0.020000
v -0.630256 -0.767969 0.070000
v -0.666113 -0.811661 0.070000
v -0.666113 -0.811661 0.020000
v -0.630256 -0.767969 0.020000
v -0.611219 -0.783205 0.070000
v -0.645993 -0.827764 0.070000
v -0.645993 -0.827764 0.020000
v -0.611219 -0.783205 0.020000
v -0.591814 -0.797969 0.070000
v -0.625484 -0.843368 0.070000
v -0.625484 -0.843368 0.020000
v -0.591814 -0.797969 0.020000
v -0.572053 -0.812253 0.070000
v -0.604599 -0.858464 0.070000
v -0.604599 -0.858464 0.020000
v -0.572053 -0.812253 0.020000
v -0.551947 -0.826047 0.070000
v -0.583349 -0.873043 0.070000
v -0.583349 -0.873043 0.020000
v -0.551947 -0.826047 0.020000
v -0.531509 -0.839344 0.070000
v -0.561747 -0.887096 0.070000
v -0.561747 -0.887096 0.020000
v -0.531509 -0.839344 0.020000
v -0.510750 -0.852135 0.070000
v -0.539808 -0.900615 0.070000
v -0.539808 -0.900615 0.020000
v -0.510750 -0.852135 0.020000
v -0.489684 -0.864412 0.070000
v -0.517543 -0.913591 0.070000
v -0.517543 -0.913591 0.020000
v -0.489684 -0.864412 0.020000
v -0.468322 -0.876170 0.070000
v -0.494967 -0.926017 0.070000
v -0.494967 -0.926017 0.020000
v -0.468322 -0.876170 0.020000
v -0.446679 -0.887399 0.070000
v -0.472092 -0.937886 0.070000
v -0.472092 -0.937886 0.020000
v -0.446679 -0.887399 0.020000
v -0.424767 -0.898094 0.070000
v -0.448933 -0.949189 0.070000
v -0.448933 -0.949189 0.020000
v -0.424767 -0.898094 0.020000
v -0.402598 -0.908248 0.070000
v -0.425503 -0.959920 0.070000
v -0.425503 -0.959920 0.020000
v -0.402598 -0.908248 0.020000
v -0.380188 -0.917854 0.070000
v -0.401818 -0.970074 0.070000
v -0.401818 -0.970074 0.020000
v -0.380188 -0.917854 0.020000
v -0.357548 -0.926908 0.070000
v -0.377890 -0.979642 0.070000
v -0.377890 -0.979642 0.020000
v -0.357548 -0.926908 0.020000
v -0.334693 -0.935404 0.070000
v -0.353734 -0.988621 0.070000
v -0.353734 -0.988621 0.020000
v -0.334693 -0.935404 0.020000
v -0.311636 -0.943336 0.070000
v -0.329366 -0.997005 0.070000
v -0.329366 -0.997005 0.020000
v -0.311636 -0.943336 0.020000
v -0.288392 -0.950699 0.070000
v -0.304799 -1.004787 0.070000
v -0.304799 -1.004787 0.020000
v -0.288392 -0.950699 0.020000
v -0.264973 -0.957491 0.070000
v -0.280048 -1.011965 0.070000
v -0.280048 -1.011965 0.020000
v -0.264973 -0.957491 0.020000
v -0.241396 -0.963705 0.070000
v -0.255129 -1.018533 0.070000
v -0.255129 -1.018533 0.020000
v -0.241396 -0.963705 0.020000
v -0.217672 -0.969339 0.070000
v -0.230056 -1.024487 0.070000
v -0.230056 -1.024487 0.020000
v -0.217672 -0.969339 0.020000
v -0.193818 -0.974389 0.070000
v -0.204845 -1.029824 0.070000
v -0.204845 -1.029824 0.020000
v -0.193818 -0.974389 0.020000
v -0.169847 -0.978852 0.070000
v -0.179510 -1.034541 0.070000
v -0.179510 -1.034541 0.020000
v -0.169847 -0.978852 0.020000
v -0.145774 -0.982725 0.070000
v -0.154067 -1.038635 0.070000
v -0.154067 -1.038635 0.020000
v -0.145774 -0.982725 0.020000
v -0.121612 -0.986007 0.070000
v -0.128531 -1.042104 0.070000
v -0.128531 -1.042104 0.020000
v -0.121612 -0.986007 0.020000
v -0.097378 -0.988694 0.070000
v -0.102918 -1.044944 0.070000
v -0.102918 -1.044944 0.020000
v -0.097378 -0.988694 0.020000
v -0.073085 -0.990786 0.070000
v -0.077243 -1.047155 0.070000
v -0.077243 -1.047155 0.020000
v -0.073085 -0.990786 0.020000
v -0.048748 -0.992282 0.070000
v -0.051521 -1.048735 0.070000
v -0.051521 -1.048735 0.020000
v -0.048748 -0.992282 0.020000
v -0.024381 -0.993179 0.070000
v -0.025768 -1.049684 0.070000
v -0.025768 -1.049684 0.020000
v -0.024381 -0.993179 0.020000
v -0.000000 -0.993478 0.070000
v -0.000000 -1.050000 0.070000
v -0.000000 -1.050000 0.020000
v -0.000000 -0.993478 0.020000
v 0.024381 -0.993179 0.070000
v 0.025768 -1.049684 0.070000
v 0.025768 -1.049684 0.020000
v 0.024381 -0.993179 0.020000
v 0.048748 -0.992282 0.070000
v 0.051521 -1.048735 0.070000
v 0.051521 -1.048735 0.020000
v 0.048748 -0.992282 0.020000
v 0.073085 -0.990786 0.070000
v 0.077243 -1.047155 0.070000
v 0.077243 -1.047155 0.020000
v 0.073085 -0.990786 0.020000
v 0.097378 -0.988694 0.070000
v 0.102918 -1.044944 0.070000
v 0.102918 -1.044944 0.020000
v 0.097378 -0.988694 0.020000
v 0.121612 -0.986007 0.070000
v 0.128531 -1.042104 0.070000
v 0.128531 -1.042104 0.020000
v 0.121612 -0.986007 0.020000
v 0.145774 -0.982725 0.070000
v 0.154067 -1.038635 0.070000
v 0.154067 -1.038635 0.020000
v 0.145774 -0.982725 0.020000
v 0.169847 -0.978852 0.070000
v 0.179510 -1.034541 0.070000
v 0.179510 -1.034541 0.020000
v 0.169847 -0.978852 0.020000
v 0.193818 -0.974389 0.070000
v 0.204845 -1.029824 0.070000
v 0.204845 -1.029824 0.020000
v 0.193818 -0.974389 0.020000
v 0.217672 -0.969339 0.070000
v 0.230056 -1.024487 0.070000
v 0.230056 -1.024487 0.020000
v 0.217672 -0.969339 0.020000
v 0.241396 -0.963705 0.070000
v 0.255129 -1.018533 0.070000
v 0.255129 -1.018533 0.020000
v 0.241396 -0.963705 0.020000
v 0.264973 -0.957491 0.070000
v 0.280048 -1.011965 0.070000
v 0.280048 -1.011965 0.020000
v 0.264973 -0.957491 0.020000
v 0.288392 -0.950699 0.070000
v 0.304799 -1.004787 0.070000
v 0.304799 -1.004787 0.020000
v 0.288392 -0.950699 0.020000
v 0.311636 -0.943336 0.070000
v 0.329366 -0.997005 0.070000
v 0.329366 -0.997005 0.020000
v 0.311636 -0.943336 0.020000
v 0.334693 -0.935404 0.070000
v 0.353734 -0.988621 0.070000
v 0.353734 -0.988621 0.020000
v 0.334693 -0.935404 0.020000
v 0.357548 -0.926908 0.070000
v 0.377890 -0.979642 0.070000
v 0.377890 -0.979642 0.020000
v 0.357548 -0.926908 0.020000
v 0.380188 -0.917854 0.070000
v 0.401818 -0.970074 0.070000
v 0.401818 -0.970074 0.020000
v 0.380188 -0.917854 0.020000
v 0.402598 -0.908248 0.070000
v 0.425503 -0.959920 0.070000
v 0.425503 -0.959920 0.020000
v 0.402598 -0.908248 0.020000
v 0.424767 -0.898094 0.070000
v 0.448933 -0.949189 0.070000
v 0.448933 -0.949189 0.020000
v 0.424767 -0.898094 0.020000
v 0.446679 -0.887399 0.070000
v 0.472092 -0.937886 0.070000
v 0.472092 -0.937886 0.020000
v 0.446679 -0.887399 0.020000
v 0.468322 -0.876170 0.070000
v 0.494967 -0.926017 0.070000
v 0.494967 -0.926017 0.020000
v 0.468322 -0.876170 0.020000
v 0.489684 -0.864412 0.070000
v 0.517543 -0.913591 0.070000
v 0.517543 -0.913591 0.020000
v 0.489684 -0.864412 0.020000
v 0.510750 -0.852135 0.070000
v 0.539808 -0.900615 0.070000
v 0.539808 -0.900615 0.020000
v 0.510750 -0.852135 0.020000
v 0.531509 -0.839344 0.070000
v 0.561747 -0.887096 0.070000
v 0.561747 -0.887096 0.020000
v 0.531509 -0.839344 0.020000
v 0.551947 -0.826047 0.070000
v 0.583349 -0.873043 0.070000
v 0.583349 -0.873043 0.020000
v 0.551947 -0.826047 0.020000
v 0.572053 -0.812253 0.070000
v 0.604599 -0.858464 0.070000
v 0.604599 -0.858464 0.020000
v 0.572053 -0.812253 0.020000
v 0.591814 -0.797969 0.070000
v 0.625484 -0.843368 0.070000
v 0.625484 -0.843368 0.020000
v 0.591814 -0.797969 0.020000
v 0.611219 -0.783205 0.070000
v 0.645993 -0.827764 0.070000
v 0.645993 -0.827764 0.020000
v 0.611219 -0.783205 0.020000
v 0.630256 -0.767969 0.070000
v 0.666113 -0.811661 0.070000
v 0.666113 -0.811661 0.020000
v 0.630256 -0.767969 0.020000
v 0.648913 -0.752271 0.070000
v 0.685831 -0.795069 0.070000
v 0.685831 -0.795069 0.020000
v 0.648913 -0.752271 0.020000
v 0.667179 -0.736119 0.070000
v 0.705137 -0.777999 0.070000
v 0.705137 -0.777999 0.020000
v 0.667179 -0.736119 0.020000
v 0.685044 -0.719524 0.070000
v 0.724018 -0.760459 0.070000
v 0.724018 -0.760459 0.020000
v 0.685044 -0.719524 0.020000
v 0.702495 -0.702495 0.070000
v 0.742462 -0.742462 0.070000
v 0.742462 -0.742462 0.020000
v 0.702495 -0.702495 0.020000
v 0.719524 -0.685044 0.070000
v 0.760459 -0.724018 0.070000
v 0.760459 -0.724018 0.020000
v 0.719524 -0.685044 0.020000
v 0.736119 -0.667179 0.070000
v 0.777999 -0.705137 0.070000
v 0.777999 -0.705137 0.020000
v 0.736119 -0.667179 0.020000
v 0.752271 -0.648913 0.070000
v 0.795069 -0.685831 0.070000
v 0.795069 -0.685831 0.020000
v 0.752271 -0.648913 0.020000
v 0.767969 -0.630256 0.070000
v 0.811661 -0.666113 0.070000
v 0.811661 -0.666113 0.020000
v 0.767969 -0.630256 0.020000
v 0.783205 -0.611219 0.070000
v 0.827764 -0.645993 0.070000
v 0.827764 -0.645993 0.020000
v 0.783205 -0.611219 0.020000
v 0.797969 -0.591814 0.070000
v 0.843368 -0.625484 0.070000
v 0.843368 -0.625484 0.020000
v 0.797969 -0.591814 0.020000
v 0.812253 -0.572053 0.070000
v 0.858464 -0.604599 0.070000
v 0.858464 -0.604599 0.020000
v 0.812253 -0.572053 0.020000
v 0.826047 -0.551947 0.070000
v 0.873043 -0.583349 0.070000
v 0.873043 -0.583349 0.020000
v 0.826047 -0.551947 0.020000
v 0.839344 -0.531509 0.070000
v 0.887096 -0.561747 0.070000
v 0.887096 -0.561747 0.020000
v 0.839344 -0.531509 0.020000
v 0.852135 -0.510750 0.070000
v 0.900615 -0.539808 0.070000
v 0.900615 -0.539808 0.020000
v 0.852135 -0.510750 0.020000
v 0.864412 -0.489684 0.070000
v 0.913591 -0.517543 0.070000
v 0.913591 -0.517543 0.020000
v 0.864412 -0.489684 0.020000
v 0.876170 -0.468322 0.070000
v 0.926017 -0.494967 0.070000
v 0.926017 -0.494967 0.020000
v 0.876170 -0.468322 0.020000
v 0.887399 -0.446679 0.070000
v 0.937886 -0.472092 0.070000
v 0.937886 -0.472092 0.020000
v 0.887399 -0.446679 0.020000
v 0.898094 -0.424767 0.070000
v 0.949189 -0.448933 0.070000
v 0.949189 -0.448933 0.020000
v 0.898094 -0.424767 0.020000
v 0.908248 -0.402598 0.070000
v 0.959920 -0.425503 0.070000
v 0.959920 -0.425503 0.020000
v 0.908248 -0.402598 0.020000
v 0.917854 -0.380188 0.070000
v 0.970074 -0.401818 0.070000
v 0.970074 -0.401818 0.020000
v 0.917854 -0.380188 0.020000
v 0.926908 -0.357548 0.070000
v 0.979642 -0.377890 0.070000
v 0.979642 -0.377890 0.020000
v 0.926908 -0.357548 0.020000
v 0.935404 -0.334693 0.070000
v 0.988621 -0.353734 0.070000
v 0.988621 -0.353734 0.020000
v 0.935404 -0.334693 0.020000
v 0.943336 -0.311636 0.070000
v 0.997005 -0.329366 0.070000
v 0.997005 -0.329366 0.020000
v 0.943336 -0.311636 0.020000
v 0.950699 -0.288392 0.070000
v 1.004787 -0.304799 0.070000
v 1.004787 -0.304799 0.020000
v 0.950699 -0.288392 0.020000
v 0.957491 -0.264973 0.070000
v 1.011965 -0.280048 0.070000
v 1.011965 -0.280048 0.020000
v 0.957491 -0.264973 0.020000
v 0.963705 -0.241396 0.070000
v 1.018533 -0.255129 0.070000
v 1.018533 -0.255129 0.020000
v 0.963705 -0.241396 0.020000
v 0.969339 -0.217672 0.070000
v 1.024487 -0.230056 0.070000
v 1.024487 -0.230056 0.020000
v 0.969339 -0.217672 0.020000
v 0.974389 -0.193818 0.070000
v 1.029824 -0.204845 0.070000
v 1.029824 -0.204845 0.020000
v 0.974389 -0.193818 0.020000
v 0.978852 -0.169847 0.070000
v 1.034541 -0.179510 0.070000
v 1.034541 -0.179510 0.020000
v 0.978852 -0.169847 0.020000
v 0.982725 -0.145774 0.070000
v 1.038635 -0.154067 0.070000
v 1.038635 -0.154067 0.020000
v 0.982725 -0.145774 0.020000
v 0.986007 -0.121612 0.070000
v 1.042104 -0.128531 0.070000
v 1.042104 -0.128531 0.020000
v 0.986007 -0.121612 0.020000
v 0.988694 -0.097378 0.070000
v 1.044944 -0.102918 0.070000
v 1.044944 -0.102918 0.020000
v 0.988694 -0.097378 0.020000
v 0.990786 -0.073085 0.070000
v 1.047155 -0.077243 0.070000
v 1.047155 -0.077243 0.020000
v 0.990786 -0.073085 0.020000
v 0.992282 -0.048748 0.070000
v 1.048735 -0.051521 0.070000
v 1.048735 -0.051521 0.020000
v 0.992282 -0.048748 0.020000
v 0.993179 -0.024381 0.070000
v 1.049684 -0.025768 0.070000
v 1.049684 -0.025768 0.020000
v 0.993179 -0.024381 0.020000
v 1.050000 -0.000000 0.070000
v 1.050000 -0.000000 0.020000
v 0.993478 -0.000000 0.020000
v -0.076739 1.045022 0.070000
v 0.000000 1.108696 0.070000
v 0.076739 1.045022 0.070000
v -0.076739 1.045022 0.020000
v 0.000000 1.108696 0.020000
v 0.076739 1.045022 0.020000
v 0.196348 1.029261 0.070000
v 0.279065 1.041522 0.070000
v 0.344587 0.989543 0.070000
v 0.196348 1.029261 0.020000
v 0.279065 1.041522 0.020000
v 0.344587 0.989543 0.020000
v 0.456043 0.943370 0.070000
v 0.554348 0.960152 0.070000
v 0.588957 0.866630 0.070000
v 0.456043 0.943370 0.020000
v 0.554348 0.960152 0.020000
v 0.588957 0.866630 0.020000
v 0.684674 0.793196 0.070000
v 0.762435 0.762435 0.070000
v 0.793196 0.684674 0.070000
v 0.684674 0.793196 0.020000
v 0.762435 0.762435 0.020000
v 0.793196 0.684674 0.020000
v 0.866630 0.588957 0.070000
v 0.960152 0.554348 0.070000
v 0.943370 0.456043 0.070000
v 0.866630 0.588957 0.020000
v 0.960152 0.554348 0.020000
v 0.943370 0.456043 0.020000
v 0.989543 0.344587 0.070000
v 1.041522 0.279065 0.070000
v 1.029261 0.196348 0.070000
v 0.989543 0.344587 0.020000
v 1.041522 0.279065 0.020000
v 1.029261 0.196348 0.020000
v 1.045022 0.076739 0.070000
v 1.108696 0.000000 0.070000
v 1.045022 -0.076739 0.070000
v 1.045022 0.076739 0.020000
v 1.108696 0.000000 0.020000
v 1.045022 -0.076739 0.020000
v 1.029261 -0.196348 0.070000
v 1.041522 -0.279065 0.070000
v 0.989543 -0.344587 0.070000
v 1.029261 -0.196348 0.020000
v 1.041522 -0.279065 0.020000
v 0.989543 -0.344587 0.020000
v 0.943370 -0.456043 0.070000
v 0.960152 -0.554348 0.070000
v 0.866630 -0.588957 0.070000
v 0.943370 -0.456043 0.020000
v 0.960152 -0.554348 0.020000
v 0.866630 -0.588957 0.020000
v 0.793196 -0.684674 0.070000
v 0.762435 -0.762435 0.070000
v 0.684674 -0.793196 0.070000
v 0.793196 -0.684674 0.020000
v 0.762435 -0.762435 0.020000
v 0.684674 -0.793196 0.020000
v 0.588957 -0.866630 0.070000
v 0.554348 -0.960152 0.070000
v 0.456043 -0.943370 0.070000
v 0.588957 -0.866630 0.020000
v 0.554348 -0.960152 0.020000
v 0.456043 -0.943370 0.020000
v 0.344587 -0.989543 0.070000
v 0.279065 -1.041522 0.070000
v 0.196348 -1.029261 0.070000
v 0.344587 -0.989543 0.020000
v 0.279065 -1.041522 0.020000
v 0.196348 -1.029261 0.020000
v 0.076739 -1.045022 0.070000
v 0.000000 -1.108696 0.070000
v -0.076739 -1.045022 0.070000
v 0.076739 -1.045022 0.020000
v 0.000000 -1.108696 0.020000
v -0.076739 -1.045022 0.020000
v -0.196348 -1.029261 0.070000
v -0.279065 -1.041522 0.070000
v -0.344587 -0.989543 0.070000
v -0.196348 -1.029261 0.020000
v -0.279065 -1.041522 0.020000
v -0.344587 -0.989543 0.020000
v -0.456043 -0.943370 0.070000
v -0.554348 -0.960152 0.070000
v -0.588957 -0.866630 0.070000
v -0.456043 -0.943370 0.020000
v -0.554348 -0.960152 0.020000
v -0.588957 -0.866630 0.020000
v -0.684674 -0.793196 0.070000
v -0.762435 -0.762435 0.070000
v -0.793196 -0.684674 0.070000
v -0.684674 -0.793196 0.020000
v -0.762435 -0.762435 0.020000
v -0.793196 -0.684674 0.020000
v -0.866630 -0.588957 0.070000
v -0.960152 -0.554348 0.070000
v -0.943370 -0.456043 0.070000
v -0.866630 -0.588957 0.020000
v -0.960152 -0.554348 0.020000
v -0.943370 -0.456043 0.020000
v -0.989543 -0.344587 0.070000
v -1.041522 -0.279065 0.070000
v -1.029261 -0.196348 0.070000
v -0.989543 -0.344587 0.020000
v -1.041522 -0.279065 0.020000
v -1.029261 -0.196348 0.020000
v -1.045022 -0.076739 0.070000
v -1.108696 0.000000 0.070000
v -1.045022 0.076739 0.070000
v -1.045022 -0.076739 0.020000
v -1.108696 0.000000 0.020000
v -1.045022 0.076739 0.020000
v -1.029261 0.196348 0.070000
v -1.041522 0.279065 0.070000
v -0.989543 0.344587 0.070000
v -1.029261 0.196348 0.020000
v -1.041522 0.279065 0.020000
v -0.989543 0.344587 0.020000
v -0.943370 0.456043 0.070000
v -0.960152 0.554348 0.070000
v -0.866630 0.588957 0.070000
v -0.943370 0.456043 0.020000
v -0.960152 0.554348 0.020000
v -0.866630 0.588957 0.020000
v -0.793196 0.684674 0.070000
v -0.762435 0.762435 0.070000
v -0.684674 0.793196 0.070000
v -0.793196 0.684674 0.020000
v -0.762435 0.762435 0.020000
v -0.684674 0.793196 0.020000
v -0.588957 0.866630 0.070000
v -0.554348 0.960152 0.070000
v -0.456043 0.943370 0.070000
v -0.588957 0.866630 0.020000
v -0.554348 0.960152 0.020000
v -0.456043 0.943370 0.020000
v -0.344587 0.989543 0.070000
v -0.279065 1.041522 0.070000
v -0.196348 1.029261 0.070000
v -0.344587 0.989543 0.020000
v -0.279065 1.041522 0.020000
v -0.196348 1.029261 0.020000
vn -0.0000 -0.0000 1.0000
vn 0.9999 0.0123 -0.0000
vn -0.9999 -0.0123 -0.0000
vn 0.9993 0.0368 -0.0000
vn -0.9993 -0.0368 -0.0000
vn 0.9981 0.0613 -0.0000
vn -0.9981 -0.0613 -0.0000
vn 0.9963 0.0858 -0.0000
vn -0.9963 -0.0858 -0.0000
vn 0.9939 0.1102 -0.0000
vn -0.9939 -0.1102 -0.0000
vn 0.9909 0.1346 -0.0000
vn -0.9909 -0.1346 -0.0000
vn 0.9873 0.1589 -0.0000
vn -0.9873 -0.1589 -0.0000
vn 0.9831 0.1830 -0.0000
vn -0.9831 -0.1830 -0.0000
vn 0.9783 0.2071 -0.0000
vn -0.9783 -0.2071 -0.0000
vn 0.9729 0.2311 -0.0000
vn -0.9729 -0.2311 -0.0000
vn 0.9670 0.2549 -0.0000
vn -0.9670 -0.2549 -0.0000
vn 0.9604 0.2785 -0.0000
vn -0.9604 -0.2785 -0.0000
vn 0.9533 0.3020 -0.0000
vn -0.9533 -0.3020 -0.0000
vn 0.9456 0.3253 -0.0000
vn -0.9456 -0.3253 -0.0000
vn 0.9373 0.3484 -0.0000
vn -0.9373 -0.3484 -0.0000
vn 0.9285 0.3713 -0.0000
vn -0.9285 -0.3713 -0.0000
vn 0.9191 0.3940 -0.0000
vn -0.9191 -0.3940 -0.0000
vn 0.9092 0.4164 -0.0000
vn -0.9092 -0.4164 -0.0000
vn 0.8987 0.4386 -0.0000
vn -0.8987 -0.4386 -0.0000
vn 0.8876 0.4605 -0.0000
vn -0.8876 -0.4605 -0.0000
vn 0.8761 0.4822 -0.0000
vn -0.8761 -0.4822 -0.0000
vn 0.8640 0.5035 -0.0000
vn -0.8640 -0.5035 -0.0000
vn 0.8514 0.5246 -0.0000
vn -0.8514 -0.5246 -0.0000
vn 0.8382 0.5453 -0.0000
vn -0.8382 -0.5453 -0.0000
vn 0.8246 0.5657 -0.0000
vn -0.8246 -0.5657 -0.0000
vn 0.8105 0.5858 -0.0000
vn -0.8105 -0.5858 -0.0000
vn 0.7958 0.6055 -0.0000
vn -0.7958 -0.6055 -0.0000
vn 0.7807 0.6249 -0.0000
vn -0.7807 -0.6249 -0.0000
vn 0.7652 0.6438 -0.0000
vn -0.7652 -0.6438 -0.0000
vn 0.7491 0.6624 -0.0000
vn -0.7491 -0.6624 -0.0000
vn 0.7327 0.6806 -0.0000
vn -0.7327 -0.6806 -0.0000
vn 0.7157 0.6984 -0.0000
vn -0.7157 -0.6984 -0.0000
vn 0.6984 0.7157 -0.0000
vn -0.6984 -0.7157 -0.0000
vn 0.6806 0.7327 -0.0000
vn -0.6806 -0.7327 -0.0000
vn 0.6624 0.7491 -0.0000
vn -0.6624 -0.7491 -0.0000
vn 0.6438 0.7652 -0.0000
vn -0.6438 -0.7652 -0.0000
vn 0.6249 0.7807 -0.0000
vn -0.6249 -0.7807 -0.0000
vn 0.6055 0.7958 -0.0000
vn -0.6055 -0.7958 -0.0000
vn 0.5858 0.8105 -0.0000
vn -0.5858 -0.8105 -0.0000
vn 0.5657 0.8246 -0.0000
vn -0.5657 -0.8246 -0.0000
vn 0.5453 0.8382 -0.0000
vn -0.5453 -0.8382 -0.0000
vn 0.5246 0.8514 -0.0000
vn -0.5246 -0.8514 -0.0000
vn 0.5035 0.8640 -0.0000
vn -0.5035 -0.8640 -0.0000
vn 0.4822 0.8761 -0.0000
vn -0.4822 -0.8761 -0.0000
vn 0.4605 0.8876 -0.0000
vn -0.4605 -0.8876 -0.0000
vn 0.4386 0.8987 -0.0000
vn -0.4386 -0.8987 -0.0000
vn 0.4164 0.9092 -0.0000
vn -0.4164 -0.9092 -0.0000
vn 0.3940 0.9191 -0.0000
vn -0.3940 -0.9191 -0.0000
vn 0.3713 0.9285 -0.0000
vn -0.3713 -0.9285 -0.0000
vn 0.3484 0.9373 -0.0000
vn -0.3484 -0.9373 -0.0000
vn 0.3253 0.9456 -0.0000
vn -0.3253 -0.9456 -0.0000
vn 0.3020 0.9533 -0.0000
vn -0.3020 -0.9533 -0.0000
vn 0.2785 0.9604 -0.0000
vn -0.2785 -0.9604 -0.0000
vn 0.2549 0.9670 -0.0000
vn -0.2549 -0.9670 -0.0000
vn 0.2311 0.9729 -0.0000
vn -0.2311 -0.9729 -0.0000
vn 0.2071 0.9783 -0.0000
vn -0.2071 -0.9783 -0.0000
vn 0.1830 0.9831 -0.0000
vn -0.1830 -0.9831 -0.0000
vn 0.1589 0.9873 -0.0000
vn -0.1589 -0.9873 -0.0000
vn 0.1346 0.9909 -0.0000
vn -0.1346 -0.9909 -0.0000
vn 0.1102 0.9939 -0.0000
vn -0.1102 -0.9939 -0.0000
vn 0.0858 0.9963 -0.0000
vn -0.0858 -0.9963 -0.0000
vn 0.0613 0.9981 -0.0000
vn -0.0613 -0.9981 -0.0000
vn 0.0368 0.9993 -0.0000
vn -0.0368 -0.9993 -0.0000
vn 0.0123 0.9999 -0.0000
vn -0.0123 -0.9999 -0.0000
vn -0.0123 0.9999 -0.0000
vn 0.0123 -0.9999 -0.0000
vn -0.0368 0.9993 -0.0000
vn 0.0368 -0.9993 -0.0000
vn -0.0613 0.9981 -0.0000
vn 0.0613 -0.9981 -0.0000
vn -0.0858 0.9963 -0.0000
vn 0.0858 -0.9963 -0.0000
vn -0.1102 0.9939 -0.0000
vn 0.1102 -0.9939 -0.0000
vn -0.1346 0.9909 -0.0000
vn 0.1346 -0.9909 -0.0000
vn -0.1589 0.9873 -0.0000
vn 0.1589 -0.9873 -0.0000
vn -0.1830 0.9831 -0.0000
vn 0.1830 -0.9831 -0.0000
vn -0.2071 0.9783 -0.0000
vn 0.2071 -0.9783 -0.0000
vn -0.2311 0.9729 -0.0000
vn 0.2311 -0.9729 -0.0000
vn -0.2549 0.9670 -0.0000
vn 0.2549 -0.9670 -0.0000
vn -0.2785 0.9604 -0.0000
vn 0.2785 -0.9604 -0.0000
vn -0.3020 0.9533 -0.0000
vn 0.3020 -0.9533 -0.0000
vn -0.3253 0.9456 -0.0000
vn 0.3253 -0.9456 -0.0000
vn -0.3484 0.9373 -0.0000
vn 0.3484 -0.9373 -0.0000
vn -0.3713 0.9285 -0.0000
vn 0.3713 -0.9285 -0.0000
vn -0.3940 0.9191 -0.0000
vn 0.3940 -0.9191 -0.0000
vn -0.4164 0.9092 -0.0000
vn 0.4164 -0.9092 -0.0000
vn -0.4386 0.8987 -0.0000
vn 0.4386 -0.8987 -0.0000
vn -0.4605 0.8876 -0.0000
vn 0.4605 -0.8876 -0.0000
vn -0.4822 0.8761 -0.0000
vn 0.4822 -0.8761 -0.0000
vn -0.5035 0.8640 -0.0000
vn 0.5035 -0.8640 -0.0000
vn -0.5246 0.8514 -0.0000
vn 0.5246 -0.8514 -0.0000
vn -0.5453 0.8382 -0.0000
vn 0.5453 -0.8382 -0.0000
vn -0.5657 0.8246 -0.0000
vn 0.5657 -0.8246 -0.0000
vn -0.5858 0.8105 -0.0000
vn 0.5858 -0.8105 -0.0000
vn -0.6055 0.7958 -0.0000
vn 0.6055 -0.7958 -0.0000
vn -0.6249 0.7807 -0.0000
vn 0.6249 -0.7807 -0.0000
vn -0.6438 0.7652 -0.0000
vn 0.6438 -0.7652 -0.0000
vn -0.6624 0.7491 -0.0000
vn 0.6624 -0.7491 -0.0000
vn -0.6806 0.7327 -0.0000
vn 0.6806 -0.7327 -0.0000
vn -0.6984 0.7157 -0.0000
vn 0.6984 -0.7157 -0.0000
vn -0.7157 0.6984 -0.0000
vn 0.7157 -0.6984 -0.0000
vn -0.7327 0.6806 -0.0000
vn 0.7327 -0.6806 -0.0000
vn -0.7491 0.6624 -0.0000
vn 0.7491 -0.6624 -0.0000
vn -0.7652 0.6438 -0.0000
vn 0.7652 -0.6438 -0.0000
vn -0.7807 0.6249 -0.0000
vn 0.7807 -0.6249 -0.0000
vn -0.7958 0.6055 -0.0000
vn 0.7958 -0.6055 -0.0000
vn -0.8105 0.5858 -0.0000
vn 0.8105 -0.5858 -0.0000
vn -0.8246 0.5657 -0.0000
vn 0.8246 -0.5657 -0.0000
vn -0.8382 0.5453 -0.0000
vn 0.8382 -0.5453 -0.0000
vn -0.8514 0.5246 -0.0000
vn 0.8514 -0.5246 -0.0000
vn -0.8640 0.5035 -0.0000
vn 0.8640 -0.5035 -0.0000
vn -0.8761 0.4822 -0.0000
vn 0.8761 -0.4822 -0.0000
vn -0.8876 0.4605 -0.0000
vn 0.8876 -0.4605 -0.0000
vn -0.8987 0.4386 -0.0000
vn 0.8987 -0.4386 -0.0000
vn -0.9092 0.4164 -0.0000
vn 0.9092 -0.4164 -0.0000
vn -0.9191 0.3940 -0.0000
vn 0.9191 -0.3940 -0.0000
vn -0.9285 0.3713 -0.0000
vn 0.9285 -0.3713 -0.0000
vn -0.9373 0.3484 -0.0000
vn 0.9373 -0.3484 -0.0000
vn -0.9456 0.3253 -0.0000
vn 0.9456 -0.3253 -0.0000
vn -0.9533 0.3020 -0.0000
vn 0.9533 -0.3020 -0.0000
vn -0.9604 0.2785 -0.0000
vn 0.9604 -0.2785 -0.0000
vn -0.9670 0.2549 -0.0000
vn 0.9670 -0.2549 -0.0000
vn -0.9729 0.2311 -0.0000
vn 0.9729 -0.2311 -0.0000
vn -0.9783 0.2071 -0.0000
vn 0.9783 -0.2071 -0.0000
vn -0.9831 0.1830 -0.0000
vn 0.9831 -0.1830 -0.0000
vn -0.9873 0.1589 -0.0000
vn 0.9873 -0.1589 -0.0000
vn -0.9909 0.1346 -0.0000
vn 0.9909 -0.1346 -0.0000
vn -0.9939 0.1102 -0.0000
vn 0.9939 -0.1102 -0.0000
vn -0.9963 0.0858 -0.0000
vn 0.9963 -0.0858 -0.0000
vn -0.9981 0.0613 -0.0000
vn 0.9981 -0.0613 -0.0000
vn -0.9993 0.0368 -0.0000
vn 0.9993 -0.0368 -0.0000
vn -0.9999 0.0123 -0.0000
vn 0.9999 -0.0123 -0.0000
vn -0.6386 0.7696 -0.0000
vn 0.6386 0.7696 -0.0000
vn -0.0000 -1.0000 -0.0000
vn -0.1466 0.9892 -0.0000
vn 0.6215 0.7834 -0.0000
vn -0.2588 -0.9659 -0.0000
vn -0.1683 0.9857 -0.0000
vn 0.9378 0.3471 -0.0000
vn -0.5000 -0.8660 -0.0000
vn 0.3678 0.9299 -0.0000
vn 0.9299 0.3678 -0.0000
vn -0.7071 -0.7071 -0.0000
vn 0.3471 0.9378 -0.0000
vn 0.9857 -0.1683 -0.0000
vn -0.8660 -0.5000 -0.0000
vn 0.7834 0.6215 -0.0000
vn 0.9892 -0.1466 -0.0000
vn -0.9659 -0.2588 -0.0000
vn 0.7696 0.6386 -0.0000
vn 0.7696 -0.6386 -0.0000
vn -1.0000 -0.0000 -0.0000
vn 0.9892 0.1466 -0.0000
vn 0.7834 -0.6215 -0.0000
vn -0.9659 0.2588 -0.0000
vn 0.9857 0.1683 -0.0000
vn 0.3471 -0.9378 -0.0000
vn -0.8660 0.5000 -0.0000
vn 0.9299 -0.3678 -0.0000
vn 0.3678 -0.9299 -0.0000
vn -0.7071 0.7071 -0.0000
vn 0.9378 -0.3471 -0.0000
vn -0.1683 -0.9857 -0.0000
vn -0.5000 0.8660 -0.0000
vn 0.6215 -0.7834 -0.0000
vn -0.1466 -0.9892 -0.0000
vn -0.2588 0.9659 -0.0000
vn 0.6386 -0.7696 -0.0000
vn -0.6386 -0.7696 -0.0000
vn -0.0000 1.0000 -0.0000
vn 0.1466 -0.9892 -0.0000
vn -0.6215 -0.7834 -0.0000
vn 0.2588 0.9659 -0.0000
vn 0.1683 -0.9857 -0.0000
vn -0.9378 -0.3471 -0.0000
vn 0.5000 0.8660 -0.0000
vn -0.3678 -0.9299 -0.0000
vn -0.9299 -0.3678 -0.0000
vn 0.7071 0.7071 -0.0000
vn -0.3471 -0.9378 -0.0000
vn -0.9857 0.1683 -0.0000
vn 0.8660 0.5000 -0.0000
vn -0.7834 -0.6215 -0.0000
vn -0.9892 0.1466 -0.0000
vn 0.9659 0.2588 -0.0000
vn -0.7696 -0.6386 -0.0000
vn -0.7696 0.6386 -0.0000
vn 1.0000 -0.0000 -0.0000
vn -0.9892 -0.1466 -0.0000
vn -0.7834 0.6215 -0.0000
vn 0.9659 -0.2588 -0.0000
vn -0.9857 -0.1683 -0.0000
vn -0.3471 0.9378 -0.0000
vn 0.8660 -0.5000 -0.0000
vn -0.9299 0.3678 -0.0000
vn -0.3678 0.9299 -0.0000
vn 0.7071 -0.7071 -0.0000
vn -0.9378 0.3471 -0.0000
vn 0.1683 0.9857 -0.0000
vn 0.5000 -0.8660 -0.0000
vn -0.6215 0.7834 -0.0000
vn 0.1466 0.9892 -0.0000
vn 0.2588 -0.9659 -0.0000
vt 0.100000 0.900000
vt 0.900000 0.100000
vt 0.100000 0.100000
vt 0.900000 0.900000
vt 0.500000 0.500000
s 0
f 1022/1/1 2/2/1 1/3/1
f 4/1/2 1022/2/2 1023/3/2
f 1024/1/3 2/2/3 5/3/3
f 2/3/1 7/4/1 6/2/1
f 8/1/4 3/2/4 4/3/4
f 5/1/5 6/2/5 9/3/5
f 7/1/1 10/2/1 6/3/1
f 12/1/6 7/2/6 8/3/6
f 9/1/7 10/2/7 13/3/7
f 10/3/1 15/4/1 14/2/1
f 16/1/8 11/2/8 12/3/8
f 13/1/9 14/2/9 17/3/9
f 15/1/1 18/2/1 14/3/1
f 20/1/10 15/2/10 16/3/10
f 17/1/11 18/2/11 21/3/11
f 19/1/1 22/2/1 18/3/1
f 24/1/12 19/2/12 20/3/12
f 21/1/13 22/2/13 25/3/13
f 22/3/1 27/4/1 26/2/1
f 28/1/14 23/2/14 24/3/14
f 25/1/15 26/2/15 29/3/15
f 26/3/1 31/4/1 30/2/1
f 32/1/16 27/2/16 28/3/16
f 29/1/17 30/2/17 33/3/17
f 31/1/1 34/2/1 30/3/1
f 36/1/18 31/2/18 32/3/18
f 33/1/19 34/2/19 37/3/19
f 35/1/1 38/2/1 34/3/1
f 40/1/20 35/2/20 36/3/20
f 37/1/21 38/2/21 41/3/21
f 38/3/1 43/4/1 42/2/1
f 44/1/22 39/2/22 40/3/22
f 41/1/23 42/2/23 45/3/23
f 42/3/1 47/4/1 46/2/1
f 48/1/24 43/2/24 44/3/24
f 45/1/25 46/2/25 49/3/25
f 46/3/1 51/4/1 50/2/1
f 52/1/26 47/2/26 48/3/26
f 49/1/27 50/2/27 53/3/27
f 51/1/1 54/2/1 50/3/1
f 56/1/28 51/2/28 52/3/28
f 53/1/29 54/2/29 57/3/29
f 54/3/1 59/4/1 58/2/1
f 60/1/30 55/2/30 56/3/30
f 57/1/31 58/2/31 61/3/31
f 59/1/1 62/2/1 58/3/1
f 64/1/32 59/2/32 60/3/32
f 61/1/33 62/2/33 65/3/33
f 62/3/1 67/4/1 66/2/1
f 68/1/34 63/2/34 64/3/34
f 65/1/35 66/2/35 69/3/35
f 67/1/1 70/2/1 66/3/1
f 72/1/36 67/2/36 68/3/36
f 69/1/37 70/2/37 73/3/37
f 70/3/1 75/4/1 74/2/1
f 76/1/38 71/2/38 72/3/38
f 73/1/39 74/2/39 77/3/39
f 75/1/1 78/2/1 74/3/1
f 80/1/40 75/2/40 76/3/40
f 77/1/41 78/2/41 81/3/41
f 78/3/1 83/4/1 82/2/1
f 84/1/42 79/2/42 80/3/42
f 81/1/43 82/2/43 85/3/43
f 83/1/1 86/2/1 82/3/1
f 88/1/44 83/2/44 84/3/44
f 85/1/45 86/2/45 89/3/45
f 87/1/1 90/2/1 86/3/1
f 92/1/46 87/2/46 88/3/46
f 89/1/47 90/2/47 93/3/47
f 91/1/1 94/2/1 90/3/1
f 96/1/48 91/2/48 92/3/48
f 93/1/49 94/2/49 97/3/49
f 94/3/1 99/4/1 98/2/1
f 100/1/50 95/2/50 96/3/50
f 97/1/51 98/2/51 101/3/51
f 99/1/1 102/2/1 98/3/1
f 104/1/52 99/2/52 100/3/52
f 101/1/53 102/2/53 105/3/53
f 103/1/1 106/2/1 102/3/1
f 108/1/54 103/2/54 104/3/54
f 105/1/55 106/2/55 109/3/55
f 107/1/1 110/2/1 106/3/1
f 112/1/56 107/2/56 108/3/56
f 109/1/57 110/2/57 113/3/57
f 110/3/1 115/4/1 114/2/1
f 116/1/58 111/2/58 112/3/58
f 113/1/59 114/2/59 117/3/59
f 115/1/1 118/2/1 114/3/1
f 120/1/60 115/2/60 116/3/60
f 117/1/61 118/2/61 121/3/61
f 118/3/1 123/4/1 122/2/1
f 124/1/62 119/2/62 120/3/62
f 121/1/63 122/2/63 125/3/63
f 123/1/1 126/2/1 122/3/1
f 128/1/64 123/2/64 124/3/64
f 125/1/65 126/2/65 129/3/65
f 126/3/1 131/4/1 130/2/1
f 132/1/66 127/2/66 128/3/66
f 129/1/67 130/2/67 133/3/67
f 131/1/1 134/2/1 130/3/1
f 136/1/68 131/2/68 132/3/68
f 133/1/69 134/2/69 137/3/69
f 134/3/1 139/4/1 138/2/1
f 140/1/70 135/2/70 136/3/70
f 137/1/71 138/2/71 141/3/71
f 139/1/1 142/2/1 138/3/1
f 144/1/72 139/2/72 140/3/72
f 141/1/73 142/2/73 145/3/73
f 142/3/1 147/4/1 146/2/1
f 148/1/74 143/2/74 144/3/74
f 145/1/75 146/2/75 149/3/75
f 147/1/1 150/2/1 146/3/1
f 152/1/76 147/2/76 148/3/76
f 149/1/77 150/2/77 153/3/77
f 150/3/1 155/4/1 154/2/1
f 156/1/78 151/2/78 152/3/78
f 153/1/79 154/2/79 157/3/79
f 155/1/1 158/2/1 154/3/1
f 160/1/80 155/2/80 156/3/80
f 157/1/81 158/2/81 161/3/81
f 158/3/1 163/4/1 162/2/1
f 164/1/82 159/2/82 160/3/82
f 161/1/83 162/2/83 165/3/83
f 162/3/1 167/4/1 166/2/1
f 168/1/84 163/2/84 164/3/84
f 165/1/85 166/2/85 169/3/85
f 167/1/1 170/2/1 166/3/1
f 172/1/86 167/2/86 168/3/86
f 169/1/87 170/2/87 173/3/87
f 171/1/1 174/2/1 170/3/1
f 176/1/88 171/2/88 172/3/88
f 173/1/89 174/2/89 177/3/89
f 174/3/1 179/4/1 178/2/1
f 180/1/90 175/2/90 176/3/90
f 177/1/91 178/2/91 181/3/91
f 179/1/1 182/2/1 178/3/1
f 184/1/92 179/2/92 180/3/92
f 181/1/93 182/2/93 185/3/93
f 182/3/1 187/4/1 186/2/1
f 188/1/94 183/2/94 184/3/94
f 185/1/95 186/2/95 189/3/95
f 187/1/1 190/2/1 186/3/1
f 192/1/96 187/2/96 188/3/96
f 189/1/97 190/2/97 193/3/97
f 191/1/1 194/2/1 190/3/1
f 196/1/98 191/2/98 192/3/98
f 193/1/99 194/2/99 197/3/99
f 195/1/1 198/2/1 194/3/1
f 200/1/100 195/2/100 196/3/100
f 197/1/101 198/2/101 201/3/101
f 198/3/1 203/4/1 202/2/1
f 204/1/102 199/2/102 200/3/102
f 201/1/103 202/2/103 205/3/103
f 202/3/1 207/4/1 206/2/1
f 208/1/104 203/2/104 204/3/104
f 205/1/105 206/2/105 209/3/105
f 207/1/1 210/2/1 206/3/1
f 212/1/106 207/2/106 208/3/106
f 209/1/107 210/2/107 213/3/107
f 211/1/1 214/2/1 210/3/1
f 216/1/108 211/2/108 212/3/108
f 213/1/109 214/2/109 217/3/109
f 214/3/1 219/4/1 218/2/1
f 220/1/110 215/2/110 216/3/110
f 217/1/111 218/2/111 221/3/111
f 218/3/1 223/4/1 222/2/1
f 224/1/112 219/2/112 220/3/112
f 221/1/113 222/2/113 225/3/113
f 223/1/1 226/2/1 222/3/1
f 228/1/114 223/2/114 224/3/114
f 225/1/115 226/2/115 229/3/115
f 227/1/1 230/2/1 226/3/1
f 232/1/116 227/2/116 228/3/116
f 229/1/117 230/2/117 233/3/117
f 230/3/1 235/4/1 234/2/1
f 236/1/118 231/2/118 232/3/118
f 233/1/119 234/2/119 237/3/119
f 234/3/1 239/4/1 238/2/1
f 240/1/120 235/2/120 236/3/120
f 237/1/121 238/2/121 241/3/121
f 239/1/1 242/2/1 238/3/1
f 244/1/122 239/2/122 240/3/122
f 241/1/123 242/2/123 245/3/123
f 242/3/1 247/4/1 246/2/1
f 248/1/124 243/2/124 244/3/124
f 245/1/125 246/2/125 249/3/125
f 247/1/1 250/2/1 246/3/1
f 252/1/126 247/2/126 248/3/126
f 249/1/127 250/2/127 253/3/127
f 250/3/1 255/4/1 254/2/1
f 256/1/128 251/2/128 252/3/128
f 253/1/129 254/2/129 257/3/129
f 255/1/1 258/2/1 254/3/1
f 260/1/130 255/2/130 256/3/130
f 257/1/131 258/2/131 261/3/131
f 258/3/1 263/4/1 262/2/1
f 264/1/132 259/2/132 260/3/132
f 261/1/133 262/2/133 265/3/133
f 263/1/1 266/2/1 262/3/1
f 268/1/134 263/2/134 264/3/134
f 265/1/135 266/2/135 269/3/135
f 266/3/1 271/4/1 270/2/1
f 272/1/136 267/2/136 268/3/136
f 269/1/137 270/2/137 273/3/137
f 271/1/1 274/2/1 270/3/1
f 276/1/138 271/2/138 272/3/138
f 273/1/139 274/2/139 277/3/139
f 275/1/1 278/2/1 274/3/1
f 280/1/140 275/2/140 276/3/140
f 277/1/141 278/2/141 281/3/141
f 278/3/1 283/4/1 282/2/1
f 284/1/142 279/2/142 280/3/142
f 281/1/143 282/2/143 285/3/143
f 282/3/1 287/4/1 286/2/1
f 288/1/144 283/2/144 284/3/144
f 285/1/145 286/2/145 289/3/145
f 287/1/1 290/2/1 286/3/1
f 292/1/146 287/2/146 288/3/146
f 289/1/147 290/2/147 293/3/147
f 291/1/1 294/2/1 290/3/1
f 296/1/148 291/2/148 292/3/148
f 293/1/149 294/2/149 297/3/149
f 294/3/1 299/4/1 298/2/1
f 300/1/150 295/2/150 296/3/150
f 297/1/151 298/2/151 301/3/151
f 298/3/1 303/4/1 302/2/1
f 304/1/152 299/2/152 300/3/152
f 301/1/153 302/2/153 305/3/153
f 303/1/1 306/2/1 302/3/1
f 308/1/154 303/2/154 304/3/154
f 305/1/155 306/2/155 309/3/155
f 307/1/1 310/2/1 306/3/1
f 312/1/156 307/2/156 308/3/156
f 309/1/157 310/2/157 313/3/157
f 310/3/1 315/4/1 314/2/1
f 316/1/158 311/2/158 312/3/158
f 313/1/159 314/2/159 317/3/159
f 315/1/1 318/2/1 314/3/1
f 320/1/160 315/2/160 316/3/160
f 317/1/161 318/2/161 321/3/161
f 318/3/1 323/4/1 322/2/1
f 324/1/162 319/2/162 320/3/162
f 321/1/163 322/2/163 325/3/163
f 323/1/1 326/2/1 322/3/1
f 328/1/164 323/2/164 324/3/164
f 325/1/165 326/2/165 329/3/165
f 326/3/1 331/4/1 330/2/1
f 332/1/166 327/2/166 328/3/166
f 329/1/167 330/2/167 333/3/167
f 331/1/1 334/2/1 330/3/1
f 336/1/168 331/2/168 332/3/168
f 333/1/169 334/2/169 337/3/169
f 334/3/1 339/4/1 338/2/1
f 340/1/170 335/2/170 336/3/170
f 337/1/171 338/2/171 341/3/171
f 339/1/1 342/2/1 338/3/1
f 344/1/172 339/2/172 340/3/172
f 341/1/173 342/2/173 345/3/173
f 343/1/1 346/2/1 342/3/1
f 348/1/174 343/2/174 344/3/174
f 345/1/175 346/2/175 349/3/175
f 347/1/1 350/2/1 346/3/1
f 352/1/176 347/2/176 348/3/176
f 349/1/177 350/2/177 353/3/177
f 350/3/1 355/4/1 354/2/1
f 356/1/178 351/2/178 352/3/178
f 353/1/179 354/2/179 357/3/179
f 355/1/1 358/2/1 354/3/1
f 360/1/180 355/2/180 356/3/180
f 357/1/181 358/2/181 361/3/181
f 359/1/1 362/2/1 358/3/1
f 364/1/182 359/2/182 360/3/182
f 361/1/183 362/2/183 365/3/183
f 363/1/1 366/2/1 362/3/1
f 368/1/184 363/2/184 364/3/184
f 365/1/185 366/2/185 369/3/185
f 366/3/1 371/4/1 370/2/1
f 372/1/186 367/2/186 368/3/186
f 369/1/187 370/2/187 373/3/187
f 371/1/1 374/2/1 370/3/1
f 376/1/188 371/2/188 372/3/188
f 373/1/189 374/2/189 377/3/189
f 374/3/1 379/4/1 378/2/1
f 380/1/190 375/2/190 376/3/190
f 377/1/191 378/2/191 381/3/191
f 379/1/1 382/2/1 378/3/1
f 384/1/192 379/2/192 380/3/192
f 381/1/193 382/2/193 385/3/193
f 382/3/1 387/4/1 386/2/1
f 388/1/194 383/2/194 384/3/194
f 385/1/195 386/2/195 389/3/195
f 387/1/1 390/2/1 386/3/1
f 392/1/196 387/2/196 388/3/196
f 389/1/197 390/2/197 393/3/197
f 390/3/1 395/4/1 394/2/1
f 396/1/198 391/2/198 392/3/198
f 393/1/199 394/2/199 397/3/199
f 395/1/1 398/2/1 394/3/1
f 400/1/200 395/2/200 396/3/200
f 397/1/201 398/2/201 401/3/201
f 398/3/1 403/4/1 402/2/1
f 404/1/202 399/2/202 400/3/202
f 401/1/203 402/2/203 405/3/203
f 403/1/1 406/2/1 402/3/1
f 408/1/204 403/2/204 404/3/204
f 405/1/205 406/2/205 409/3/205
f 406/3/1 411/4/1 410/2/1
f 412/1/206 407/2/206 408/3/206
f 409/1/207 410/2/207 413/3/207
f 411/1/1 414/2/1 410/3/1
f 416/1/208 411/2/208 412/3/208
f 413/1/209 414/2/209 417/3/209
f 414/3/1 419/4/1 418/2/1
f 420/1/210 415/2/210 416/3/210
f 417/1/211 418/2/211 421/3/211
f 418/3/1 423/4/1 422/2/1
f 424/1/212 419/2/212 420/3/212
f 421/1/213 422/2/213 425/3/213
f 423/1/1 426/2/1 422/3/1
f 428/1/214 423/2/214 424/3/214
f 425/1/215 426/2/215 429/3/215
f 427/1/1 430/2/1 426/3/1
f 432/1/216 427/2/216 428/3/216
f 429/1/217 430/2/217 433/3/217
f 430/3/1 435/4/1 434/2/1
f 436/1/218 431/2/218 432/3/218
f 433/1/219 434/2/219 437/3/219
f 435/1/1 438/2/1 434/3/1
f 440/1/220 435/2/220 436/3/220
f 437/1/221 438/2/221 441/3/221
f 438/3/1 443/4/1 442/2/1
f 444/1/222 439/2/222 440/3/222
f 441/1/223 442/2/223 445/3/223
f 443/1/1 446/2/1 442/3/1
f 448/1/224 443/2/224 444/3/224
f 445/1/225 446/2/225 449/3/225
f 447/1/1 450/2/1 446/3/1
f 452/1/226 447/2/226 448/3/226
f 449/1/227 450/2/227 453/3/227
f 451/1/1 454/2/1 450/3/1
f 456/1/228 451/2/228 452/3/228
f 453/1/229 454/2/229 457/3/229
f 454/3/1 459/4/1 458/2/1
f 460/1/230 455/2/230 456/3/230
f 457/1/231 458/2/231 461/3/231
f 459/1/1 462/2/1 458/3/1
f 464/1/232 459/2/232 460/3/232
f 461/1/233 462/2/233 465/3/233
f 463/1/1 466/2/1 462/3/1
f 468/1/234 463/2/234 464/3/234
f 465/1/235 466/2/235 469/3/235
f 467/1/1 470/2/1 466/3/1
f 472/1/236 467/2/236 468/3/236
f 469/1/237 470/2/237 473/3/237
f 470/3/1 475/4/1 474/2/1
f 476/1/238 471/2/238 472/3/238
f 473/1/239 474/2/239 477/3/239
f 474/3/1 479/4/1 478/2/1
f 480/1/240 475/2/240 476/3/240
f 477/1/241 478/2/241 481/3/241
f 479/1/1 482/2/1 478/3/1
f 484/1/242 479/2/242 480/3/242
f 481/1/243 482/2/243 485/3/243
f 483/1/1 486/2/1 482/3/1
f 488/1/244 483/2/244 484/3/244
f 485/1/245 486/2/245 489/3/245
f 486/3/1 491/4/1 490/2/1
f 492/1/246 487/2/246 488/3/246
f 489/1/247 490/2/247 493/3/247
f 490/3/1 495/4/1 494/2/1
f 496/1/248 491/2/248 492/3/248
f 493/1/249 494/2/249 497/3/249
f 495/1/1 498/2/1 494/3/1
f 500/1/250 495/2/250 496/3/250
f 497/1/251 498/2/251 501/3/251
f 498/3/1 503/4/1 502/2/1
f 504/1/252 499/2/252 500/3/252
f 501/1/253 502/2/253 505/3/253
f 503/1/1 506/2/1 502/3/1
f 508/1/254 503/2/254 504/3/254
f 505/1/255 506/2/255 509/3/255
f 506/3/1 511/4/1 510/2/1
f 512/1/256 507/2/256 508/3/256
f 509/1/257 510/2/257 513/3/257
f 511/1/1 514/2/1 510/3/1
f 516/1/3 511/2/3 512/3/3
f 513/1/2 514/2/2 517/3/2
f 514/3/1 519/4/1 518/2/1
f 520/1/5 515/2/5 516/3/5
f 517/1/4 518/2/4 521/3/4
f 519/1/1 522/2/1 518/3/1
f 524/1/7 519/2/7 520/3/7
f 521/1/6 522/2/6 525/3/6
f 522/3/1 527/4/1 526/2/1
f 528/1/9 523/2/9 524/3/9
f 525/1/8 526/2/8 529/3/8
f 527/1/1 530/2/1 526/3/1
f 532/1/11 527/2/11 528/3/11
f 529/1/10 530/2/10 533/3/10
f 531/1/1 534/2/1 530/3/1
f 536/1/13 531/2/13 532/3/13
f 533/1/12 534/2/12 537/3/12
f 534/3/1 539/4/1 538/2/1
f 540/1/15 535/2/15 536/3/15
f 537/1/14 538/2/14 541/3/14
f 538/3/1 543/4/1 542/2/1
f 544/1/17 539/2/17 540/3/17
f 541/1/16 542/2/16 545/3/16
f 543/1/1 546/2/1 542/3/1
f 548/1/19 543/2/19 544/3/19
f 545/1/18 546/2/18 549/3/18
f 547/1/1 550/2/1 546/3/1
f 552/1/21 547/2/21 548/3/21
f 549/1/20 550/2/20 553/3/20
f 550/3/1 555/4/1 554/2/1
f 556/1/23 551/2/23 552/3/23
f 553/1/22 554/2/22 557/3/22
f 554/3/1 559/4/1 558/2/1
f 560/1/25 555/2/25 556/3/25
f 557/1/24 558/2/24 561/3/24
f 558/3/1 563/4/1 562/2/1
f 564/1/27 559/2/27 560/3/27
f 561/1/26 562/2/26 565/3/26
f 563/1/1 566/2/1 562/3/1
f 568/1/29 563/2/29 564/3/29
f 565/1/28 566/2/28 569/3/28
f 566/3/1 571/4/1 570/2/1
f 572/1/31 567/2/31 568/3/31
f 569/1/30 570/2/30 573/3/30
f 571/1/1 574/2/1 570/3/1
f 576/1/33 571/2/33 572/3/33
f 573/1/32 574/2/32 577/3/32
f 574/3/1 579/4/1 578/2/1
f 580/1/35 575/2/35 576/3/35
f 577/1/34 578/2/34 581/3/34
f 579/1/1 582/2/1 578/3/1
f 584/1/37 579/2/37 580/3/37
f 581/1/36 582/2/36 585/3/36
f 582/3/1 587/4/1 586/2/1
f 588/1/39 583/2/39 584/3/39
f 585/1/38 586/2/38 589/3/38
f 587/1/1 590/2/1 586/3/1
f 592/1/41 587/2/41 588/3/41
f 589/1/40 590/2/40 593/3/40
f 590/3/1 595/4/1 594/2/1
f 596/1/43 591/2/43 592/3/43
f 593/1/42 594/2/42 597/3/42
f 595/1/1 598/2/1 594/3/1
f 600/1/45 595/2/45 596/3/45
f 597/1/44 598/2/44 601/3/44
f 599/1/1 602/2/1 598/3/1
f 604/1/47 599/2/47 600/3/47
f 601/1/46 602/2/46 605/3/46
f 603/1/1 606/2/1 602/3/1
f 608/1/49 603/2/49 604/3/49
f 605/1/48 606/2/48 609/3/48
f 606/3/1 611/4/1 610/2/1
f 612/1/51 607/2/51 608/3/51
f 609/1/50 610/2/50 613/3/50
f 611/1/1 614/2/1 610/3/1
f 616/1/53 611/2/53 612/3/53
f 613/1/52 614/2/52 617/3/52
f 615/1/1 618/2/1 614/3/1
f 620/1/55 615/2/55 616/3/55
f 617/1/54 618/2/54 621/3/54
f 619/1/1 622/2/1 618/3/1
f 624/1/57 619/2/57 620/3/57
f 621/1/56 622/2/56 625/3/56
f 622/3/1 627/4/1 626/2/1
f 628/1/59 623/2/59 624/3/59
f 625/1/58 626/2/58 629/3/58
f 627/1/1 630/2/1 626/3/1
f 632/1/61 627/2/61 628/3/61
f 629/1/60 630/2/60 633/3/60
f 630/3/1 635/4/1 634/2/1
f 636/1/63 631/2/63 632/3/63
f 633/1/62 634/2/62 637/3/62
f 635/1/1 638/2/1 634/3/1
f 640/1/65 635/2/65 636/3/65
f 637/1/64 638/2/64 641/3/64
f 638/3/1 643/4/1 642/2/1
f 644/1/67 639/2/67 640/3/67
f 641/1/66 642/2/66 645/3/66
f 643/1/1 646/2/1 642/3/1
f 648/1/69 643/2/69 644/3/69
f 645/1/68 646/2/68 649/3/68
f 646/3/1 651/4/1 650/2/1
f 652/1/71 647/2/71 648/3/71
f 649/1/70 650/2/70 653/3/70
f 651/1/1 654/2/1 650/3/1
f 656/1/73 651/2/73 652/3/73
f 653/1/72 654/2/72 657/3/72
f 654/3/1 659/4/1 658/2/1
f 660/1/75 655/2/75 656/3/75
f 657/1/74 658/2/74 661/3/74
f 659/1/1 662/2/1 658/3/1
f 664/1/77 659/2/77 660/3/77
f 661/1/76 662/2/76 665/3/76
f 662/3/1 667/4/1 666/2/1
f 668/1/79 663/2/79 664/3/79
f 665/1/78 666/2/78 669/3/78
f 667/1/1 670/2/1 666/3/1
f 672/1/81 667/2/81 668/3/81
f 669/1/80 670/2/80 673/3/80
f 670/3/1 675/4/1 674/2/1
f 676/1/83 671/2/83 672/3/83
f 673/1/82 674/2/82 677/3/82
f 674/3/1 679/4/1 678/2/1
f 680/1/85 675/2/85 676/3/85
f 677/1/84 678/2/84 681/3/84
f 679/1/1 682/2/1 678/3/1
f 684/1/87 679/2/87 680/3/87
f 681/1/86 682/2/86 685/3/86
f 683/1/1 686/2/1 682/3/1
f 688/1/89 683/2/89 684/3/89
f 685/1/88 686/2/88 689/3/88
f 686/3/1 691/4/1 690/2/1
f 692/1/91 687/2/91 688/3/91
f 689/1/90 690/2/90 693/3/90
f 691/1/1 694/2/1 690/3/1
f 696/1/93 691/2/93 692/3/93
f 693/1/92 694/2/92 697/3/92
f 694/3/1 699/4/1 698/2/1
f 700/1/95 695/2/95 696/3/95
f 697/1/94 698/2/94 701/3/94
f 699/1/1 702/2/1 698/3/1
f 704/1/97 699/2/97 700/3/97
f 701/1/96 702/2/96 705/3/96
f 703/1/1 706/2/1 702/3/1
f 708/1/99 703/2/99 704/3/99
f 705/1/98 706/2/98 709/3/98
f 707/1/1 710/2/1 706/3/1
f 712/1/101 707/2/101 708/3/101
f 709/1/100 710/2/100 713/3/100
f 710/3/1 715/4/1 714/2/1
f 716/1/103 711/2/103 712/3/103
f 713/1/102 714/2/102 717/3/102
f 714/3/1 719/4/1 718/2/1
f 720/1/105 715/2/105 716/3/105
f 717/1/104 718/2/104 721/3/104
f 719/1/1 722/2/1 718/3/1
f 724/1/107 719/2/107 720/3/107
f 721/1/106 722/2/106 725/3/106
f 723/1/1 726/2/1 722/3/1
f 728/1/109 723/2/109 724/3/109
f 725/1/108 726/2/108 729/3/108
f 726/3/1 731/4/1 730/2/1
f 732/1/111 727/2/111 728/3/111
f 729/1/110 730/2/110 733/3/110
f 730/3/1 735/4/1 734/2/1
f 736/1/113 731/2/113 732/3/113
f 733/1/112 734/2/112 737/3/112
f 735/1/1 738/2/1 734/3/1
f 740/1/115 735/2/115 736/3/115
f 737/1/114 738/2/114 741/3/114
f 739/1/1 742/2/1 738/3/1
f 744/1/117 739/2/117 740/3/117
f 741/1/116 742/2/116 745/3/116
f 742/3/1 747/4/1 746/2/1
f 748/1/119 743/2/119 744/3/119
f 745/1/118 746/2/118 749/3/118
f 746/3/1 751/4/1 750/2/1
f 752/1/121 747/2/121 748/3/121
f 749/1/120 750/2/120 753/3/120
f 751/1/1 754/2/1 750/3/1
f 756/1/123 751/2/123 752/3/123
f 753/1/122 754/2/122 757/3/122
f 754/3/1 759/4/1 758/2/1
f 760/1/125 755/2/125 756/3/125
f 757/1/124 758/2/124 761/3/124
f 759/1/1 762/2/1 758/3/1
f 764/1/127 759/2/127 760/3/127
f 761/1/126 762/2/126 765/3/126
f 762/3/1 767/4/1 766/2/1
f 768/1/129 763/2/129 764/3/129
f 765/1/128 766/2/128 769/3/128
f 767/1/1 770/2/1 766/3/1
f 772/1/131 767/2/131 768/3/131
f 769/1/130 770/2/130 773/3/130
f 770/3/1 775/4/1 774/2/1
f 776/1/133 771/2/133 772/3/133
f 773/1/132 774/2/132 777/3/132
f 775/1/1 778/2/1 774/3/1
f 780/1/135 775/2/135 776/3/135
f 777/1/134 778/2/134 781/3/134
f 778/3/1 783/4/1 782/2/1
f 784/1/137 779/2/137 780/3/137
f 781/1/136 782/2/136 785/3/136
f 783/1/1 786/2/1 782/3/1
f 788/1/139 783/2/139 784/3/139
f 785/1/138 786/2/138 789/3/138
f 787/1/1 790/2/1 786/3/1
f 792/1/141 787/2/141 788/3/141
f 789/1/140 790/2/140 793/3/140
f 790/3/1 795/4/1 794/2/1
f 796/1/143 791/2/143 792/3/143
f 793/1/142 794/2/142 797/3/142
f 794/3/1 799/4/1 798/2/1
f 800/1/145 795/2/145 796/3/145
f 797/1/144 798/2/144 801/3/144
f 799/1/1 802/2/1 798/3/1
f 804/1/147 799/2/147 800/3/147
f 801/1/146 802/2/146 805/3/146
f 803/1/1 806/2/1 802/3/1
f 808/1/149 803/2/149 804/3/149
f 805/1/148 806/2/148 809/3/148
f 806/3/1 811/4/1 810/2/1
f 812/1/151 807/2/151 808/3/151
f 809/1/150 810/2/150 813/3/150
f 810/3/1 815/4/1 814/2/1
f 816/1/153 811/2/153 812/3/153
f 813/1/152 814/2/152 817/3/152
f 815/1/1 818/2/1 814/3/1
f 820/1/155 815/2/155 816/3/155
f 817/1/154 818/2/154 821/3/154
f 819/1/1 822/2/1 818/3/1
f 824/1/157 819/2/157 820/3/157
f 821/1/156 822/2/156 825/3/156
f 822/3/1 827/4/1 826/2/1
f 828/1/159 823/2/159 824/3/159
f 825/1/158 826/2/158 829/3/158
f 827/1/1 830/2/1 826/3/1
f 832/1/161 827/2/161 828/3/161
f 829/1/160 830/2/160 833/3/160
f 830/3/1 835/4/1 834/2/1
f 836/1/163 831/2/163 832/3/163
f 833/1/162 834/2/162 837/3/162
f 835/1/1 838/2/1 834/3/1
f 840/1/165 835/2/165 836/3/165
f 837/1/164 838/2/164 841/3/164
f 838/3/1 843/4/1 842/2/1
f 844/1/167 839/2/167 840/3/167
f 841/1/166 842/2/166 845/3/166
f 843/1/1 846/2/1 842/3/1
f 848/1/169 843/2/169 844/3/169
f 845/1/168 846/2/168 849/3/168
f 846/3/1 851/4/1 850/2/1
f 852/1/171 847/2/171 848/3/171
f 849/1/170 850/2/170 853/3/170
f 851/1/1 854/2/1 850/3/1
f 856/1/173 851/2/173 852/3/173
f 853/1/172 854/2/172 857/3/172
f 855/1/1 858/2/1 854/3/1
f 860/1/175 855/2/175 856/3/175
f 857/1/174 858/2/174 861/3/174
f 859/1/1 862/2/1 858/3/1
f 864/1/177 859/2/177 860/3/177
f 861/1/176 862/2/176 865/3/176
f 862/3/1 867/4/1 866/2/1
f 868/1/179 863/2/179 864/3/179
f 865/1/178 866/2/178 869/3/178
f 867/1/1 870/2/1 866/3/1
f 872/1/181 867/2/181 868/3/181
f 869/1/180 870/2/180 873/3/180
f 871/1/1 874/2/1 870/3/1
f 876/1/183 871/2/183 872/3/183
f 873/1/182 874/2/182 877/3/182
f 875/1/1 878/2/1 874/3/1
f 880/1/185 875/2/185 876/3/185
f 877/1/184 878/2/184 881/3/184
f 878/3/1 883/4/1 882/2/1
f 884/1/187 879/2/187 880/3/187
f 881/1/186 882/2/186 885/3/186
f 883/1/1 886/2/1 882/3/1
f 888/1/189 883/2/189 884/3/189
f 885/1/188 886/2/188 889/3/188
f 886/3/1 891/4/1 890/2/1
f 892/1/191 887/2/191 888/3/191
f 889/1/190 890/2/190 893/3/190
f 891/1/1 894/2/1 890/3/1
f 896/1/193 891/2/193 892/3/193
f 893/1/192 894/2/192 897/3/192
f 894/3/1 899/4/1 898/2/1
f 900/1/195 895/2/195 896/3/195
f 897/1/194 898/2/194 901/3/194
f 899/1/1 902/2/1 898/3/1
f 904/1/197 899/2/197 900/3/197
f 901/1/196 902/2/196 905/3/196
f 902/3/1 907/4/1 906/2/1
f 908/1/199 903/2/199 904/3/199
f 905/1/198 906/2/198 909/3/198
f 907/1/1 910/2/1 906/3/1
f 912/1/201 907/2/201 908/3/201
f 909/1/200 910/2/200 913/3/200
f 910/3/1 915/4/1 914/2/1
f 916/1/203 911/2/203 912/3/203
f 913/1/202 914/2/202 917/3/202
f 915/1/1 918/2/1 914/3/1
f 920/1/205 915/2/205 916/3/205
f 917/1/204 918/2/204 921/3/204
f 918/3/1 923/4/1 922/2/1
f 924/1/207 919/2/207 920/3/207
f 921/1/206 922/2/206 925/3/206
f 923/1/1 926/2/1 922/3/1
f 928/1/209 923/2/209 924/3/209
f 925/1/208 926/2/208 929/3/208
f 926/3/1 931/4/1 930/2/1
f 932/1/211 927/2/211 928/3/211
f 929/1/210 930/2/210 933/3/210
f 930/3/1 935/4/1 934/2/1
f 936/1/213 931/2/213 932/3/213
f 933/1/212 934/2/212 937/3/212
f 935/1/1 938/2/1 934/3/1
f 940/1/215 935/2/215 936/3/215
f 937/1/214 938/2/214 941/3/214
f 939/1/1 942/2/1 938/3/1
f 944/1/217 939/2/217 940/3/217
f 941/1/216 942/2/216 945/3/216
f 942/3/1 947/4/1 946/2/1
f 948/1/219 943/2/219 944/3/219
f 945/1/218 946/2/218 949/3/218
f 947/1/1 950/2/1 946/3/1
f 952/1/221 947/2/221 948/3/221
f 949/1/220 950/2/220 953/3/220
f 950/3/1 955/4/1 954/2/1
f 956/1/223 951/2/223 952/3/223
f 953/1/222 954/2/222 957/3/222
f 955/1/1 958/2/1 954/3/1
f 960/1/225 955/2/225 956/3/225
f 957/1/224 958/2/224 961/3/224
f 959/1/1 962/2/1 958/3/1
f 964/1/227 959/2/227 960/3/227
f 961/1/226 962/2/226 965/3/226
f 963/1/1 966/2/1 962/3/1
f 968/1/229 963/2/229 964/3/229
f 965/1/228 966/2/228 969/3/228
f 966/3/1 971/4/1 970/2/1
f 972/1/231 967/2/231 968/3/231
f 969/1/230 970/2/230 973/3/230
f 971/1/1 974/2/1 970/3/1
f 976/1/233 971/2/233 972/3/233
f 973/1/232 974/2/232 977/3/232
f 975/1/1 978/2/1 974/3/1
f 980/1/235 975/2/235 976/3/235
f 977/1/234 978/2/234 981/3/234
f 979/1/1 982/2/1 978/3/1
f 984/1/237 979/2/237 980/3/237
f 981/1/236 982/2/236 985/3/236
f 982/3/1 987/4/1 986/2/1
f 988/1/239 983/2/239 984/3/239
f 985/1/238 986/2/238 989/3/238
f 986/3/1 991/4/1 990/2/1
f 992/1/241 987/2/241 988/3/241
f 989/1/240 990/2/240 993/3/240
f 991/1/1 994/2/1 990/3/1
f 996/1/243 991/2/243 992/3/243
f 993/1/242 994/2/242 997/3/242
f 995/1/1 998/2/1 994/3/1
f 1000/1/245 995/2/245 996/3/245
f 997/1/244 998/2/244 1001/3/244
f 998/3/1 1003/4/1 1002/2/1
f 1004/1/247 999/2/247 1000/3/247
f 1001/1/246 1002/2/246 1005/3/246
f 1002/3/1 1007/4/1 1006/2/1
f 1008/1/249 1003/2/249 1004/3/249
f 1005/1/248 1006/2/248 1009/3/248
f 1007/1/1 1010/2/1 1006/3/1
f 1012/1/251 1007/2/251 1008/3/251
f 1009/1/250 1010/2/250 1013/3/250
f 1010/3/1 1015/4/1 1014/2/1
f 1016/1/253 1011/2/253 1012/3/253
f 1013/1/252 1014/2/252 1017/3/252
f 1015/1/1 1018/2/1 1014/3/1
f 1020/1/255 1015/2/255 1016/3/255
f 1017/1/254 1018/2/254 1021/3/254
f 1018/3/1 1022/4/1 1/2/1
f 1023/1/257 1019/2/257 1020/3/257
f 1021/1/256 1/2/256 1024/3/256
f 1026/5/1 1025/5/1 1027/5/1
f 1025/1/258 1029/2/258 1028/3/258
f 1026/1/259 1030/2/259 1029/3/259
f 1027/1/260 1028/2/260 1030/3/260
f 1031/5/1 1033/5/1 1032/5/1
f 1031/1/261 1035/2/261 1034/3/261
f 1032/1/262 1036/2/262 1035/3/262
f 1033/1/263 1034/2/263 1036/3/263
f 1038/5/1 1037/5/1 1039/5/1
f 1037/1/264 1041/2/264 1040/3/264
f 1038/1/265 1042/2/265 1041/3/265
f 1039/1/266 1040/2/266 1042/3/266
f 1043/5/1 1045/5/1 1044/5/1
f 1043/1/267 1047/2/267 1046/3/267
f 1044/1/268 1048/2/268 1047/3/268
f 1045/1/269 1046/2/269 1048/3/269
f 1049/5/1 1051/5/1 1050/5/1
f 1049/1/270 1053/2/270 1052/3/270
f 1050/1/271 1054/2/271 1053/3/271
f 1051/1/272 1052/2/272 1054/3/272
f 1056/5/1 1055/5/1 1057/5/1
f 1055/1/273 1059/2/273 1058/3/273
f 1056/1/274 1060/2/274 1059/3/274
f 1057/1/275 1058/2/275 1060/3/275
f 1061/5/1 1063/5/1 1062/5/1
f 1061/1/276 1065/2/276 1064/3/276
f 1062/1/277 1066/2/277 1065/3/277
f 1063/1/278 1064/2/278 1066/3/278
f 1067/5/1 1069/5/1 1068/5/1
f 1067/1/279 1071/2/279 1070/3/279
f 1068/1/280 1072/2/280 1071/3/280
f 1069/1/281 1070/2/281 1072/3/281
f 1074/5/1 1073/5/1 1075/5/1
f 1073/1/282 1077/2/282 1076/3/282
f 1074/1/283 1078/2/283 1077/3/283
f 1075/1/284 1076/2/284 1078/3/284
f 1079/5/1 1081/5/1 1080/5/1
f 1079/1/285 1083/2/285 1082/3/285
f 1080/1/286 1084/2/286 1083/3/286
f 1081/1/287 1082/2/287 1084/3/287
f 1087/5/1 1086/5/1 1085/5/1
f 1085/1/288 1089/2/288 1088/3/288
f 1086/1/289 1090/2/289 1089/3/289
f 1087/1/290 1088/2/290 1090/3/290
f 1091/5/1 1093/5/1 1092/5/1
f 1091/1/291 1095/2/291 1094/3/291
f 1092/1/292 1096/2/292 1095/3/292
f 1093/1/293 1094/2/293 1096/3/293
f 1099/5/1 1098/5/1 1097/5/1
f 1097/1/294 1101/2/294 1100/3/294
f 1098/1/295 1102/2/295 1101/3/295
f 1099/1/296 1100/2/296 1102/3/296
f 1105/5/1 1104/5/1 1103/5/1
f 1103/1/297 1107/2/297 1106/3/297
f 1104/1/298 1108/2/298 1107/3/298
f 1105/1/299 1106/2/299 1108/3/299
f 1109/5/1 1111/5/1 1110/5/1
f 1109/1/300 1113/2/300 1112/3/300
f 1110/1/301 1114/2/301 1113/3/301
f 1111/1/302 1112/2/302 1114/3/302
f 1116/5/1 1115/5/1 1117/5/1
f 1115/1/303 1119/2/303 1118/3/303
f 1116/1/304 1120/2/304 1119/3/304
f 1117/1/305 1118/2/305 1120/3/305
f 1122/5/1 1121/5/1 1123/5/1
f 1121/1/306 1125/2/306 1124/3/306
f 1122/1/307 1126/2/307 1125/3/307
f 1123/1/308 1124/2/308 1126/3/308
f 1129/5/1 1128/5/1 1127/5/1
f 1127/1/309 1131/2/309 1130/3/309
f 1128/1/310 1132/2/310 1131/3/310
f 1129/1/311 1130/2/311 1132/3/311
f 1134/5/1 1133/5/1 1135/5/1
f 1133/1/312 1137/2/312 1136/3/312
f 1134/1/313 1138/2/313 1137/3/313
f 1135/1/314 1136/2/314 1138/3/314
f 1140/5/1 1139/5/1 1141/5/1
f 1139/1/315 1143/2/315 1142/3/315
f 1140/1/316 1144/2/316 1143/3/316
f 1141/1/317 1142/2/317 1144/3/317
f 1147/5/1 1146/5/1 1145/5/1
f 1145/1/318 1149/2/318 1148/3/318
f 1146/1/319 1150/2/319 1149/3/319
f 1147/1/320 1148/2/320 1150/3/320
f 1152/5/1 1151/5/1 1153/5/1
f 1151/1/321 1155/2/321 1154/3/321
f 1152/1/322 1156/2/322 1155/3/322
f 1153/1/323 1154/2/323 1156/3/323
f 1158/5/1 1157/5/1 1159/5/1
f 1157/1/324 1161/2/324 1160/3/324
f 1158/1/325 1162/2/325 1161/3/325
f 1159/1/326 1160/2/326 1162/3/326
f 1165/5/1 1164/5/1 1163/5/1
f 1163/1/327 1167/2/327 1166/3/327
f 1164/1/328 1168/2/328 1167/3/328
f 1165/1/329 1166/2/329 1168/3/329
f 1022/1/1 3/4/1 2/2/1
f 4/1/2 3/4/2 1022/2/2
f 1024/1/3 1/4/3 2/2/3
f 2/3/1 3/1/1 7/4/1
f 8/1/4 7/4/4 3/2/4
f 5/1/5 2/4/5 6/2/5
f 7/1/1 11/4/1 10/2/1
f 12/1/6 11/4/6 7/2/6
f 9/1/7 6/4/7 10/2/7
f 10/3/1 11/1/1 15/4/1
f 16/1/8 15/4/8 11/2/8
f 13/1/9 10/4/9 14/2/9
f 15/1/1 19/4/1 18/2/1
f 20/1/10 19/4/10 15/2/10
f 17/1/11 14/4/11 18/2/11
f 19/1/1 23/4/1 22/2/1
f 24/1/12 23/4/12 19/2/12
f 21/1/13 18/4/13 22/2/13
f 22/3/1 23/1/1 27/4/1
f 28/1/14 27/4/14 23/2/14
f 25/1/15 22/4/15 26/2/15
f 26/3/1 27/1/1 31/4/1
f 32/1/16 31/4/16 27/2/16
f 29/1/17 26/4/17 30/2/17
f 31/1/1 35/4/1 34/2/1
f 36/1/18 35/4/18 31/2/18
f 33/1/19 30/4/19 34/2/19
f 35/1/1 39/4/1 38/2/1
f 40/1/20 39/4/20 35/2/20
f 37/1/21 34/4/21 38/2/21
f 38/3/1 39/1/1 43/4/1
f 44/1/22 43/4/22 39/2/22
f 41/1/23 38/4/23 42/2/23
f 42/3/1 43/1/1 47/4/1
f 48/1/24 47/4/24 43/2/24
f 45/1/25 42/4/25 46/2/25
f 46/3/1 47/1/1 51/4/1
f 52/1/26 51/4/26 47/2/26
f 49/1/27 46/4/27 50/2/27
f 51/1/1 55/4/1 54/2/1
f 56/1/28 55/4/28 51/2/28
f 53/1/29 50/4/29 54/2/29
f 54/3/1 55/1/1 59/4/1
f 60/1/30 59/4/30 55/2/30
f 57/1/31 54/4/31 58/2/31
f 59/1/1 63/4/1 62/2/1
f 64/1/32 63/4/32 59/2/32
f 61/1/33 58/4/33 62/2/33
f 62/3/1 63/1/1 67/4/1
f 68/1/34 67/4/34 63/2/34
f 65/1/35 62/4/35 66/2/35
f 67/1/1 71/4/1 70/2/1
f 72/1/36 71/4/36 67/2/36
f 69/1/37 66/4/37 70/2/37
f 70/3/1 71/1/1 75/4/1
f 76/1/38 75/4/38 71/2/38
f 73/1/39 70/4/39 74/2/39
f 75/1/1 79/4/1 78/2/1
f 80/1/40 79/4/40 75/2/40
f 77/1/41 74/4/41 78/2/41
f 78/3/1 79/1/1 83/4/1
f 84/1/42 83/4/42 79/2/42
f 81/1/43 78/4/43 82/2/43
f 83/1/1 87/4/1 86/2/1
f 88/1/44 87/4/44 83/2/44
f 85/1/45 82/4/45 86/2/45
f 87/1/1 91/4/1 90/2/1
f 92/1/46 91/4/46 87/2/46
f 89/1/47 86/4/47 90/2/47
f 91/1/1 95/4/1 94/2/1
f 96/1/48 95/4/48 91/2/48
f 93/1/49 90/4/49 94/2/49
f 94/3/1 95/1/1 99/4/1
f 100/1/50 99/4/50 95/2/50
f 97/1/51 94/4/51 98/2/51
f 99/1/1 103/4/1 102/2/1
f 104/1/52 103/4/52 99/2/52
f 101/1/53 98/4/53 102/2/53
f 103/1/1 107/4/1 106/2/1
f 108/1/54 107/4/54 103/2/54
f 105/1/55 102/4/55 106/2/55
f 107/1/1 111/4/1 110/2/1
f 112/1/56 111/4/56 107/2/56
f 109/1/57 106/4/57 110/2/57
f 110/3/1 111/1/1 115/4/1
f 116/1/58 115/4/58 111/2/58
f 113/1/59 110/4/59 114/2/59
f 115/1/1 119/4/1 118/2/1
f 120/1/60 119/4/60 115/2/60
f 117/1/61 114/4/61 118/2/61
f 118/3/1 119/1/1 123/4/1
f 124/1/62 123/4/62 119/2/62
f 121/1/63 118/4/63 122/2/63
f 123/1/1 127/4/1 126/2/1
f 128/1/64 127/4/64 123/2/64
f 125/1/65 122/4/65 126/2/65
f 126/3/1 127/1/1 131/4/1
f 132/1/66 131/4/66 127/2/66
f 129/1/67 126/4/67 130/2/67
f 131/1/1 135/4/1 134/2/1
f 136/1/68 135/4/68 131/2/68
f 133/1/69 130/4/69 134/2/69
f 134/3/1 135/1/1 139/4/1
f 140/1/70 139/4/70 135/2/70
f 137/1/71 134/4/71 138/2/71
f 139/1/1 143/4/1 142/2/1
f 144/1/72 143/4/72 139/2/72
f 141/1/73 138/4/73 142/2/73
f 142/3/1 143/1/1 147/4/1
f 148/1/74 147/4/74 143/2/74
f 145/1/75 142/4/75 146/2/75
f 147/1/1 151/4/1 150/2/1
f 152/1/76 151/4/76 147/2/76
f 149/1/77 146/4/77 150/2/77
f 150/3/1 151/1/1 155/4/1
f 156/1/78 155/4/78 151/2/78
f 153/1/79 150/4/79 154/2/79
f 155/1/1 159/4/1 158/2/1
f 160/1/80 159/4/80 155/2/80
f 157/1/81 154/4/81 158/2/81
f 158/3/1 159/1/1 163/4/1
f 164/1/82 163/4/82 159/2/82
f 161/1/83 158/4/83 162/2/83
f 162/3/1 163/1/1 167/4/1
f 168/1/84 167/4/84 163/2/84
f 165/1/85 162/4/85 166/2/85
f 167/1/1 171/4/1 170/2/1
f 172/1/86 171/4/86 167/2/86
f 169/1/87 166/4/87 170/2/87
f 171/1/1 175/4/1 174/2/1
f 176/1/88 175/4/88 171/2/88
f 173/1/89 170/4/89 174/2/89
f 174/3/1 175/1/1 179/4/1
f 180/1/90 179/4/90 175/2/90
f 177/1/91 174/4/91 178/2/91
f 179/1/1 183/4/1 182/2/1
f 184/1/92 183/4/92 179/2/92
f 181/1/93 178/4/93 182/2/93
f 182/3/1 183/1/1 187/4/1
f 188/1/94 187/4/94 183/2/94
f 185/1/95 182/4/95 186/2/95
f 187/1/1 191/4/1 190/2/1
f 192/1/96 191/4/96 187/2/96
f 189/1/97 186/4/97 190/2/97
f 191/1/1 195/4/1 194/2/1
f 196/1/98 195/4/98 191/2/98
f 193/1/99 190/4/99 194/2/99
f 195/1/1 199/4/1 198/2/1
f 200/1/100 199/4/100 195/2/100
f 197/1/101 194/4/101 198/2/101
f 198/3/1 199/1/1 203/4/1
f 204/1/102 203/4/102 199/2/102
f 201/1/103 198/4/103 202/2/103
f 202/3/1 203/1/1 207/4/1
f 208/1/104 207/4/104 203/2/104
f 205/1/105 202/4/105 206/2/105
f 207/1/1 211/4/1 210/2/1
f 212/1/106 211/4/106 207/2/106
f 209/1/107 206/4/107 210/2/107
f 211/1/1 215/4/1 214/2/1
f 216/1/108 215/4/108 211/2/108
f 213/1/109 210/4/109 214/2/109
f 214/3/1 215/1/1 219/4/1
f 220/1/110 219/4/110 215/2/110
f 217/1/111 214/4/111 218/2/111
f 218/3/1 219/1/1 223/4/1
f 224/1/112 223/4/112 219/2/112
f 221/1/113 218/4/113 222/2/113
f 223/1/1 227/4/1 226/2/1
f 228/1/114 227/4/114 223/2/114
f 225/1/115 222/4/115 226/2/115
f 227/1/1 231/4/1 230/2/1
f 232/1/116 231/4/116 227/2/116
f 229/1/117 226/4/117 230/2/117
f 230/3/1 231/1/1 235/4/1
f 236/1/118 235/4/118 231/2/118
f 233/1/119 230/4/119 234/2/119
f 234/3/1 235/1/1 239/4/1
f 240/1/120 239/4/120 235/2/120
f 237/1/121 234/4/121 238/2/121
f 239/1/1 243/4/1 242/2/1
f 244/1/122 243/4/122 239/2/122
f 241/1/123 238/4/123 242/2/123
f 242/3/1 243/1/1 247/4/1
f 248/1/124 247/4/124 243/2/124
f 245/1/125 242/4/125 246/2/125
f 247/1/1 251/4/1 250/2/1
f 252/1/126 251/4/126 247/2/126
f 249/1/127 246/4/127 250/2/127
f 250/3/1 251/1/1 255/4/1
f 256/1/128 255/4/128 251/2/128
f 253/1/129 250/4/129 254/2/129
f 255/1/1 259/4/1 258/2/1
f 260/1/130 259/4/130 255/2/130
f 257/1/131 254/4/131 258/2/131
f 258/3/1 259/1/1 263/4/1
f 264/1/132 263/4/132 259/2/132
f 261/1/133 258/4/133 262/2/133
f 263/1/1 267/4/1 266/2/1
f 268/1/134 267/4/134 263/2/134
f 265/1/135 262/4/135 266/2/135
f 266/3/1 267/1/1 271/4/1
f 272/1/136 271/4/136 267/2/136
f 269/1/137 266/4/137 270/2/137
f 271/1/1 275/4/1 274/2/1
f 276/1/138 275/4/138 271/2/138
f 273/1/139 270/4/139 274/2/139
f 275/1/1 279/4/1 278/2/1
f 280/1/140 279/4/140 275/2/140
f 277/1/141 274/4/141 278/2/141
f 278/3/1 279/1/1 283/4/1
f 284/1/142 283/4/142 279/2/142
f 281/1/143 278/4/143 282/2/143
f 282/3/1 283/1/1 287/4/1
f 288/1/144 287/4/144 283/2/144
f 285/1/145 282/4/145 286/2/145
f 287/1/1 291/4/1 290/2/1
f 292/1/146 291/4/146 287/2/146
f 289/1/147 286/4/147 290/2/147
f 291/1/1 295/4/1 294/2/1
f 296/1/148 295/4/148 291/2/148
f 293/1/149 290/4/149 294/2/149
f 294/3/1 295/1/1 299/4/1
f 300/1/150 299/4/150 295/2/150
f 297/1/151 294/4/151 298/2/151
f 298/3/1 299/1/1 303/4/1
f 304/1/152 303/4/152 299/2/152
f 301/1/153 298/4/153 302/2/153
f 303/1/1 307/4/1 306/2/1
f 308/1/154 307/4/154 303/2/154
f 305/1/155 302/4/155 306/2/155
f 307/1/1 311/4/1 310/2/1
f 312/1/156 311/4/156 307/2/156
f 309/1/157 306/4/157 310/2/157
f 310/3/1 311/1/1 315/4/1
f 316/1/158 315/4/158 311/2/158
f 313/1/159 310/4/159 314/2/159
f 315/1/1 319/4/1 318/2/1
f 320/1/160 319/4/160 315/2/160
f 317/1/161 314/4/161 318/2/161
f 318/3/1 319/1/1 323/4/1
f 324/1/162 323/4/162 319/2/162
f 321/1/163 318/4/163 322/2/163
f 323/1/1 327/4/1 326/2/1
f 328/1/164 327/4/164 323/2/164
f 325/1/165 322/4/165 326/2/165
f 326/3/1 327/1/1 331/4/1
f 332/1/166 331/4/166 327/2/166
f 329/1/167 326/4/167 330/2/167
f 331/1/1 335/4/1 334/2/1
f 336/1/168 335/4/168 331/2/168
f 333/1/169 330/4/169 334/2/169
f 334/3/1 335/1/1 339/4/1
f 340/1/170 339/4/170 335/2/170
f 337/1/171 334/4/171 338/2/171
f 339/1/1 343/4/1 342/2/1
f 344/1/172 343/4/172 339/2/172
f 341/1/173 338/4/173 342/2/173
f 343/1/1 347/4/1 346/2/1
f 348/1/174 347/4/174 343/2/174
f 345/1/175 342/4/175 346/2/175
f 347/1/1 351/4/1 350/2/1
f 352/1/176 351/4/176 347/2/176
f 349/1/177 346/4/177 350/2/177
f 350/3/1 351/1/1 355/4/1
f 356/1/178 355/4/178 351/2/178
f 353/1/179 350/4/179 354/2/179
f 355/1/1 359/4/1 358/2/1
f 360/1/180 359/4/180 355/2/180
f 357/1/181 354/4/181 358/2/181
f 359/1/1 363/4/1 362/2/1
f 364/1/182 363/4/182 359/2/182
f 361/1/183 358/4/183 362/2/183
f 363/1/1 367/4/1 366/2/1
f 368/1/184 367/4/184 363/2/184
f 365/1/185 362/4/185 366/2/185
f 366/3/1 367/1/1 371/4/1
f 372/1/186 371/4/186 367/2/186
f 369/1/187 366/4/187 370/2/187
f 371/1/1 375/4/1 374/2/1
f 376/1/188 375/4/188 371/2/188
f 373/1/189 370/4/189 374/2/189
f 374/3/1 375/1/1 379/4/1
f 380/1/190 379/4/190 375/2/190
f 377/1/191 374/4/191 378/2/191
f 379/1/1 383/4/1 382/2/1
f 384/1/192 383/4/192 379/2/192
f 381/1/193 378/4/193 382/2/193
f 382/3/1 383/1/1 387/4/1
f 388/1/194 387/4/194 383/2/194
f 385/1/195 382/4/195 386/2/195
f 387/1/1 391/4/1 390/2/1
f 392/1/196 391/4/196 387/2/196
f 389/1/197 386/4/197 390/2/197
f 390/3/1 391/1/1 395/4/1
f 396/1/198 395/4/198 391/2/198
f 393/1/199 390/4/199 394/2/199
f 395/1/1 399/4/1 398/2/1
f 400/1/200 399/4/200 395/2/200
f 397/1/201 394/4/201 398/2/201
f 398/3/1 399/1/1 403/4/1
f 404/1/202 403/4/202 399/2/202
f 401/1/203 398/4/203 402/2/203
f 403/1/1 407/4/1 406/2/1
f 408/1/204 407/4/204 403/2/204
f 405/1/205 402/4/205 406/2/205
f 406/3/1 407/1/1 411/4/1
f 412/1/206 411/4/206 407/2/206
f 409/1/207 406/4/207 410/2/207
f 411/1/1 415/4/1 414/2/1
f 416/1/208 415/4/208 411/2/208
f 413/1/209 410/4/209 414/2/209
f 414/3/1 415/1/1 419/4/1
f 420/1/210 419/4/210 415/2/210
f 417/1/211 414/4/211 418/2/211
f 418/3/1 419/1/1 423/4/1
f 424/1/212 423/4/212 419/2/212
f 421/1/213 418/4/213 422/2/213
f 423/1/1 427/4/1 426/2/1
f 428/1/214 427/4/214 423/2/214
f 425/1/215 422/4/215 426/2/215
f 427/1/1 431/4/1 430/2/1
f 432/1/216 431/4/216 427/2/216
f 429/1/217 426/4/217 430/2/217
f 430/3/1 431/1/1 435/4/1
f 436/1/218 435/4/218 431/2/218
f 433/1/219 430/4/219 434/2/219
f 435/1/1 439/4/1 438/2/1
f 440/1/220 439/4/220 435/2/220
f 437/1/221 434/4/221 438/2/221
f 438/3/1 439/1/1 443/4/1
f 444/1/222 443/4/222 439/2/222
f 441/1/223 438/4/223 442/2/223
f 443/1/1 447/4/1 446/2/1
f 448/1/224 447/4/224 443/2/224
f 445/1/225 442/4/225 446/2/225
f 447/1/1 451/4/1 450/2/1
f 452/1/226 451/4/226 447/2/226
f 449/1/227 446/4/227 450/2/227
f 451/1/1 455/4/1 454/2/1
f 456/1/228 455/4/228 451/2/228
f 453/1/229 450/4/229 454/2/229
f 454/3/1 455/1/1 459/4/1
f 460/1/230 459/4/230 455/2/230
f 457/1/231 454/4/231 458/2/231
f 459/1/1 463/4/1 462/2/1
f 464/1/232 463/4/232 459/2/232
f 461/1/233 458/4/233 462/2/233
f 463/1/1 467/4/1 466/2/1
f 468/1/234 467/4/234 463/2/234
f 465/1/235 462/4/235 466/2/235
f 467/1/1 471/4/1 470/2/1
f 472/1/236 471/4/236 467/2/236
f 469/1/237 466/4/237 470/2/237
f 470/3/1 471/1/1 475/4/1
f 476/1/238 475/4/238 471/2/238
f 473/1/239 470/4/239 474/2/239
f 474/3/1 475/1/1 479/4/1
f 480/1/240 479/4/240 475/2/240
f 477/1/241 474/4/241 478/2/241
f 479/1/1 483/4/1 482/2/1
f 484/1/242 483/4/242 479/2/242
f 481/1/243 478/4/243 482/2/243
f 483/1/1 487/4/1 486/2/1
f 488/1/244 487/4/244 483/2/244
f 485/1/245 482/4/245 486/2/245
f 486/3/1 487/1/1 491/4/1
f 492/1/246 491/4/246 487/2/246
f 489/1/247 486/4/247 490/2/247
f 490/3/1 491/1/1 495/4/1
f 496/1/248 495/4/248 491/2/248
f 493/1/249 490/4/249 494/2/249
f 495/1/1 499/4/1 498/2/1
f 500/1/250 499/4/250 495/2/250
f 497/1/251 494/4/251 498/2/251
f 498/3/1 499/1/1 503/4/1
f 504/1/252 503/4/252 499/2/252
f 501/1/253 498/4/253 502/2/253
f 503/1/1 507/4/1 506/2/1
f 508/1/254 507/4/254 503/2/254
f 505/1/255 502/4/255 506/2/255
f 506/3/1 507/1/1 511/4/1
f 512/1/256 511/4/256 507/2/256
f 509/1/257 506/4/257 510/2/257
f 511/1/1 515/4/1 514/2/1
f 516/1/3 515/4/3 511/2/3
f 513/1/2 510/4/2 514/2/2
f 514/3/1 515/1/1 519/4/1
f 520/1/5 519/4/5 515/2/5
f 517/1/4 514/4/4 518/2/4
f 519/1/1 523/4/1 522/2/1
f 524/1/7 523/4/7 519/2/7
f 521/1/6 518/4/6 522/2/6
f 522/3/1 523/1/1 527/4/1
f 528/1/9 527/4/9 523/2/9
f 525/1/8 522/4/8 526/2/8
f 527/1/1 531/4/1 530/2/1
f 532/1/11 531/4/11 527/2/11
f 529/1/10 526/4/10 530/2/10
f 531/1/1 535/4/1 534/2/1
f 536/1/13 535/4/13 531/2/13
f 533/1/12 530/4/12 534/2/12
f 534/3/1 535/1/1 539/4/1
f 540/1/15 539/4/15 535/2/15
f 537/1/14 534/4/14 538/2/14
f 538/3/1 539/1/1 543/4/1
f 544/1/17 543/4/17 539/2/17
f 541/1/16 538/4/16 542/2/16
f 543/1/1 547/4/1 546/2/1
f 548/1/19 547/4/19 543/2/19
f 545/1/18 542/4/18 546/2/18
f 547/1/1 551/4/1 550/2/1
f 552/1/21 551/4/21 547/2/21
f 549/1/20 546/4/20 550/2/20
f 550/3/1 551/1/1 555/4/1
f 556/1/23 555/4/23 551/2/23
f 553/1/22 550/4/22 554/2/22
f 554/3/1 555/1/1 559/4/1
f 560/1/25 559/4/25 555/2/25
f 557/1/24 554/4/24 558/2/24
f 558/3/1 559/1/1 563/4/1
f 564/1/27 563/4/27 559/2/27
f 561/1/26 558/4/26 562/2/26
f 563/1/1 567/4/1 566/2/1
f 568/1/29 567/4/29 563/2/29
f 565/1/28 562/4/28 566/2/28
f 566/3/1 567/1/1 571/4/1
f 572/1/31 571/4/31 567/2/31
f 569/1/30 566/4/30 570/2/30
f 571/1/1 575/4/1 574/2/1
f 576/1/33 575/4/33 571/2/33
f 573/1/32 570/4/32 574/2/32
f 574/3/1 575/1/1 579/4/1
f 580/1/35 579/4/35 575/2/35
f 577/1/34 574/4/34 578/2/34
f 579/1/1 583/4/1 582/2/1
f 584/1/37 583/4/37 579/2/37
f 581/1/36 578/4/36 582/2/36
f 582/3/1 583/1/1 587/4/1
f 588/1/39 587/4/39 583/2/39
f 585/1/38 582/4/38 586/2/38
f 587/1/1 591/4/1 590/2/1
f 592/1/41 591/4/41 587/2/41
f 589/1/40 586/4/40 590/2/40
f 590/3/1 591/1/1 595/4/1
f 596/1/43 595/4/43 591/2/43
f 593/1/42 590/4/42 594/2/42
f 595/1/1 599/4/1 598/2/1
f 600/1/45 599/4/45 595/2/45
f 597/1/44 594/4/44 598/2/44
f 599/1/1 603/4/1 602/2/1
f 604/1/47 603/4/47 599/2/47
f 601/1/46 598/4/46 602/2/46
f 603/1/1 607/4/1 606/2/1
f 608/1/49 607/4/49 603/2/49
f 605/1/48 602/4/48 606/2/48
f 606/3/1 607/1/1 611/4/1
f 612/1/51 611/4/51 607/2/51
f 609/1/50 606/4/50 610/2/50
f 611/1/1 615/4/1 614/2/1
f 616/1/53 615/4/53 611/2/53
f 613/1/52 610/4/52 614/2/52
f 615/1/1 619/4/1 618/2/1
f 620/1/55 619/4/55 615/2/55
f 617/1/54 614/4/54 618/2/54
f 619/1/1 623/4/1 622/2/1
f 624/1/57 623/4/57 619/2/57
f 621/1/56 618/4/56 622/2/56
f 622/3/1 623/1/1 627/4/1
f 628/1/59 627/4/59 623/2/59
f 625/1/58 622/4/58 626/2/58
f 627/1/1 631/4/1 630/2/1
f 632/1/61 631/4/61 627/2/61
f 629/1/60 626/4/60 630/2/60
f 630/3/1 631/1/1 635/4/1
f 636/1/63 635/4/63 631/2/63
f 633/1/62 630/4/62 634/2/62
f 635/1/1 639/4/1 638/2/1
f 640/1/65 639/4/65 635/2/65
f 637/1/64 634/4/64 638/2/64
f 638/3/1 639/1/1 643/4/1
f 644/1/67 643/4/67 639/2/67
f 641/1/66 638/4/66 642/2/66
f 643/1/1 647/4/1 646/2/1
f 648/1/69 647/4/69 643/2/69
f 645/1/68 642/4/68 646/2/68
f 646/3/1 647/1/1 651/4/1
f 652/1/71 651/4/71 647/2/71
f 649/1/70 646/4/70 650/2/70
f 651/1/1 655/4/1 654/2/1
f 656/1/73 655/4/73 651/2/73
f 653/1/72 650/4/72 654/2/72
f 654/3/1 655/1/1 659/4/1
f 660/1/75 659/4/75 655/2/75
f 657/1/74 654/4/74 658/2/74
f 659/1/1 663/4/1 662/2/1
f 664/1/77 663/4/77 659/2/77
f 661/1/76 658/4/76 662/2/76
f 662/3/1 663/1/1 667/4/1
f 668/1/79 667/4/79 663/2/79
f 665/1/78 662/4/78 666/2/78
f 667/1/1 671/4/1 670/2/1
f 672/1/81 671/4/81 667/2/81
f 669/1/80 666/4/80 670/2/80
f 670/3/1 671/1/1 675/4/1
f 676/1/83 675/4/83 671/2/83
f 673/1/82 670/4/82 674/2/82
f 674/3/1 675/1/1 679/4/1
f 680/1/85 679/4/85 675/2/85
f 677/1/84 674/4/84 678/2/84
f 679/1/1 683/4/1 682/2/1
f 684/1/87 683/4/87 679/2/87
f 681/1/86 678/4/86 682/2/86
f 683/1/1 687/4/1 686/2/1
f 688/1/89 687/4/89 683/2/89
f 685/1/88 682/4/88 686/2/88
f 686/3/1 687/1/1 691/4/1
f 692/1/91 691/4/91 687/2/91
f 689/1/90 686/4/90 690/2/90
f 691/1/1 695/4/1 694/2/1
f 696/1/93 695/4/93 691/2/93
f 693/1/92 690/4/92 694/2/92
f 694/3/1 695/1/1 699/4/1
f 700/1/95 699/4/95 695/2/95
f 697/1/94 694/4/94 698/2/94
f 699/1/1 703/4/1 702/2/1
f 704/1/97 703/4/97 699/2/97
f 701/1/96 698/4/96 702/2/96
f 703/1/1 707/4/1 706/2/1
f 708/1/99 707/4/99 703/2/99
f 705/1/98 702/4/98 706/2/98
f 707/1/1 711/4/1 710/2/1
f 712/1/101 711/4/101 707/2/101
f 709/1/100 706/4/100 710/2/100
f 710/3/1 711/1/1 715/4/1
f 716/1/103 715/4/103 711/2/103
f 713/1/102 710/4/102 714/2/102
f 714/3/1 715/1/1 719/4/1
f 720/1/105 719/4/105 715/2/105
f 717/1/104 714/4/104 718/2/104
f 719/1/1 723/4/1 722/2/1
f 724/1/107 723/4/107 719/2/107
f 721/1/106 718/4/106 722/2/106
f 723/1/1 727/4/1 726/2/1
f 728/1/109 727/4/109 723/2/109
f 725/1/108 722/4/108 726/2/108
f 726/3/1 727/1/1 731/4/1
f 732/1/111 731/4/111 727/2/111
f 729/1/110 726/4/110 730/2/110
f 730/3/1 731/1/1 735/4/1
f 736/1/113 735/4/113 731/2/113
f 733/1/112 730/4/112 734/2/112
f 735/1/1 739/4/1 738/2/1
f 740/1/115 739/4/115 735/2/115
f 737/1/114 734/4/114 738/2/114
f 739/1/1 743/4/1 742/2/1
f 744/1/117 743/4/117 739/2/117
f 741/1/116 738/4/116 742/2/116
f 742/3/1 743/1/1 747/4/1
f 748/1/119 747/4/119 743/2/119
f 745/1/118 742/4/118 746/2/118
f 746/3/1 747/1/1 751/4/1
f 752/1/121 751/4/121 747/2/121
f 749/1/120 746/4/120 750/2/120
f 751/1/1 755/4/1 754/2/1
f 756/1/123 755/4/123 751/2/123
f 753/1/122 750/4/122 754/2/122
f 754/3/1 755/1/1 759/4/1
f 760/1/125 759/4/125 755/2/125
f 757/1/124 754/4/124 758/2/124
f 759/1/1 763/4/1 762/2/1
f 764/1/127 763/4/127 759/2/127
f 761/1/126 758/4/126 762/2/126
f 762/3/1 763/1/1 767/4/1
f 768/1/129 767/4/129 763/2/129
f 765/1/128 762/4/128 766/2/128
f 767/1/1 771/4/1 770/2/1
f 772/1/131 771/4/131 767/2/131
f 769/1/130 766/4/130 770/2/130
f 770/3/1 771/1/1 775/4/1
f 776/1/133 775/4/133 771/2/133
f 773/1/132 770/4/132 774/2/132
f 775/1/1 779/4/1 778/2/1
f 780/1/135 779/4/135 775/2/135
f 777/1/134 774/4/134 778/2/134
f 778/3/1 779/1/1 783/4/1
f 784/1/137 783/4/137 779/2/137
f 781/1/136 778/4/136 782/2/136
f 783/1/1 787/4/1 786/2/1
f 788/1/139 787/4/139 783/2/139
f 785/1/138 782/4/138 786/2/138
f 787/1/1 791/4/1 790/2/1
f 792/1/141 791/4/141 787/2/141
f 789/1/140 786/4/140 790/2/140
f 790/3/1 791/1/1 795/4/1
f 796/1/143 795/4/143 791/2/143
f 793/1/142 790/4/142 794/2/142
f 794/3/1 795/1/1 799/4/1
f 800/1/145 799/4/145 795/2/145
f 797/1/144 794/4/144 798/2/144
f 799/1/1 803/4/1 802/2/1
f 804/1/147 803/4/147 799/2/147
f 801/1/146 798/4/146 802/2/146
f 803/1/1 807/4/1 806/2/1
f 808/1/149 807/4/149 803/2/149
f 805/1/148 802/4/148 806/2/148
f 806/3/1 807/1/1 811/4/1
f 812/1/151 811/4/151 807/2/151
f 809/1/150 806/4/150 810/2/150
f 810/3/1 811/1/1 815/4/1
f 816/1/153 815/4/153 811/2/153
f 813/1/152 810/4/152 814/2/152
f 815/1/1 819/4/1 818/2/1
f 820/1/155 819/4/155 815/2/155
f 817/1/154 814/4/154 818/2/154
f 819/1/1 823/4/1 822/2/1
f 824/1/157 823/4/157 819/2/157
f 821/1/156 818/4/156 822/2/156
f 822/3/1 823/1/1 827/4/1
f 828/1/159 827/4/159 823/2/159
f 825/1/158 822/4/158 826/2/158
f 827/1/1 831/4/1 830/2/1
f 832/1/161 831/4/161 827/2/161
f 829/1/160 826/4/160 830/2/160
f 830/3/1 831/1/1 835/4/1
f 836/1/163 835/4/163 831/2/163
f 833/1/162 830/4/162 834/2/162
f 835/1/1 839/4/1 838/2/1
f 840/1/165 839/4/165 835/2/165
f 837/1/164 834/4/164 838/2/164
f 838/3/1 839/1/1 843/4/1
f 844/1/167 843/4/167 839/2/167
f 841/1/166 838/4/166 842/2/166
f 843/1/1 847/4/1 846/2/1
f 848/1/169 847/4/169 843/2/169
f 845/1/168 842/4/168 846/2/168
f 846/3/1 847/1/1 851/4/1
f 852/1/171 851/4/171 847/2/171
f 849/1/170 846/4/170 850/2/170
f 851/1/1 855/4/1 854/2/1
f 856/1/173 855/4/173 851/2/173
f 853/1/172 850/4/172 854/2/172
f 855/1/1 859/4/1 858/2/1
f 860/1/175 859/4/175 855/2/175
f 857/1/174 854/4/174 858/2/174
f 859/1/1 863/4/1 862/2/1
f 864/1/177 863/4/177 859/2/177
f 861/1/176 858/4/176 862/2/176
f 862/3/1 863/1/1 867/4/1
f 868/1/179 867/4/179 863/2/179
f 865/1/178 862/4/178 866/2/178
f 867/1/1 871/4/1 870/2/1
f 872/1/181 871/4/181 867/2/181
f 869/1/180 866/4/180 870/2/180
f 871/1/1 875/4/1 874/2/1
f 876/1/183 875/4/183 871/2/183
f 873/1/182 870/4/182 874/2/182
f 875/1/1 879/4/1 878/2/1
f 880/1/185 879/4/185 875/2/185
f 877/1/184 874/4/184 878/2/184
f 878/3/1 879/1/1 883/4/1
f 884/1/187 883/4/187 879/2/187
f 881/1/186 878/4/186 882/2/186
f 883/1/1 887/4/1 886/2/1
f 888/1/189 887/4/189 883/2/189
f 885/1/188 882/4/188 886/2/188
f 886/3/1 887/1/1 891/4/1
f 892/1/191 891/4/191 887/2/191
f 889/1/190 886/4/190 890/2/190
f 891/1/1 895/4/1 894/2/1
f 896/1/193 895/4/193 891/2/193
f 893/1/192 890/4/192 894/2/192
f 894/3/1 895/1/1 899/4/1
f 900/1/195 899/4/195 895/2/195
f 897/1/194 894/4/194 898/2/194
f 899/1/1 903/4/1 902/2/1
f 904/1/197 903/4/197 899/2/197
f 901/1/196 898/4/196 902/2/196
f 902/3/1 903/1/1 907/4/1
f 908/1/199 907/4/199 903/2/199
f 905/1/198 902/4/198 906/2/198
f 907/1/1 911/4/1 910/2/1
f 912/1/201 911/4/201 907/2/201
f 909/1/200 906/4/200 910/2/200
f 910/3/1 911/1/1 915/4/1
f 916/1/203 915/4/203 911/2/203
f 913/1/202 910/4/202 914/2/202
f 915/1/1 919/4/1 918/2/1
f 920/1/205 919/4/205 915/2/205
f 917/1/204 914/4/204 918/2/204
f 918/3/1 919/1/1 923/4/1
f 924/1/207 923/4/207 919/2/207
f 921/1/206 918/4/206 922/2/206
f 923/1/1 927/4/1 926/2/1
f 928/1/209 927/4/209 923/2/209
f 925/1/208 922/4/208 926/2/208
f 926/3/1 927/1/1 931/4/1
f 932/1/211 931/4/211 927/2/211
f 929/1/210 926/4/210 930/2/210
f 930/3/1 931/1/1 935/4/1
f 936/1/213 935/4/213 931/2/213
f 933/1/212 930/4/212 934/2/212
f 935/1/1 939/4/1 938/2/1
f 940/1/215 939/4/215 935/2/215
f 937/1/214 934/4/214 938/2/214
f 939/1/1 943/4/1 942/2/1
f 944/1/217 943/4/217 939/2/217
f 941/1/216 938/4/216 942/2/216
f 942/3/1 943/1/1 947/4/1
f 948/1/219 947/4/219 943/2/219
f 945/1/218 942/4/218 946/2/218
f 947/1/1 951/4/1 950/2/1
f 952/1/221 951/4/221 947/2/221
f 949/1/220 946/4/220 950/2/220
f 950/3/1 951/1/1 955/4/1
f 956/1/223 955/4/223 951/2/223
f 953/1/222 950/4/222 954/2/222
f 955/1/1 959/4/1 958/2/1
f 960/1/225 959/4/225 955/2/225
f 957/1/224 954/4/224 958/2/224
f 959/1/1 963/4/1 962/2/1
f 964/1/227 963/4/227 959/2/227
f 961/1/226 958/4/226 962/2/226
f 963/1/1 967/4/1 966/2/1
f 968/1/229 967/4/229 963/2/229
f 965/1/228 962/4/228 966/2/228
f 966/3/1 967/1/1 971/4/1
f 972/1/231 971/4/231 967/2/231
f 969/1/230 966/4/230 970/2/230
f 971/1/1 975/4/1 974/2/1
f 976/1/233 975/4/233 971/2/233
f 973/1/232 970/4/232 974/2/232
f 975/1/1 979/4/1 978/2/1
f 980/1/235 979/4/235 975/2/235
f 977/1/234 974/4/234 978/2/234
f 979/1/1 983/4/1 982/2/1
f 984/1/237 983/4/237 979/2/237
f 981/1/236 978/4/236 982/2/236
f 982/3/1 983/1/1 987/4/1
f 988/1/239 987/4/239 983/2/239
f 985/1/238 982/4/238 986/2/238
f 986/3/1 987/1/1 991/4/1
f 992/1/241 991/4/241 987/2/241
f 989/1/240 986/4/240 990/2/240
f 991/1/1 995/4/1 994/2/1
f 996/1/243 995/4/243 991/2/243
f 993/1/242 990/4/242 994/2/242
f 995/1/1 999/4/1 998/2/1
f 1000/1/245 999/4/245 995/2/245
f 997/1/244 994/4/244 998/2/244
f 998/3/1 999/1/1 1003/4/1
f 1004/1/247 1003/4/247 999/2/247
f 1001/1/246 998/4/246 1002/2/246
f 1002/3/1 1003/1/1 1007/4/1
f 1008/1/249 1007/4/249 1003/2/249
f 1005/1/248 1002/4/248 1006/2/248
f 1007/1/1 1011/4/1 1010/2/1
f 1012/1/251 1011/4/251 1007/2/251
f 1009/1/250 1006/4/250 1010/2/250
f 1010/3/1 1011/1/1 1015/4/1
f 1016/1/253 1015/4/253 1011/2/253
f 1013/1/252 1010/4/252 1014/2/252
f 1015/1/1 1019/4/1 1018/2/1
f 1020/1/255 1019/4/255 1015/2/255
f 1017/1/254 1014/4/254 1018/2/254
f 1018/3/1 1019/1/1 1022/4/1
f 1023/1/257 1022/4/257 1019/2/257
f 1021/1/256 1018/4/256 1/2/256
f 1025/1/258 1026/4/258 1029/2/258
f 1026/1/259 1027/4/259 1030/2/259
f 1027/1/260 1025/4/260 1028/2/260
f 1031/1/261 1032/4/261 1035/2/261
f 1032/1/262 1033/4/262 1036/2/262
f 1033/1/263 1031/4/263 1034/2/263
f 1037/1/264 1038/4/264 1041/2/264
f 1038/1/265 1039/4/265 1042/2/265
f 1039/1/266 1037/4/266 1040/2/266
f 1043/1/267 1044/4/267 1047/2/267
f 1044/1/268 1045/4/268 1048/2/268
f 1045/1/269 1043/4/269 1046/2/269
f 1049/1/270 1050/4/270 1053/2/270
f 1050/1/271 1051/4/271 1054/2/271
f 1051/1/272 1049/4/272 1052/2/272
f 1055/1/273 1056/4/273 1059/2/273
f 1056/1/274 1057/4/274 1060/2/274
f 1057/1/275 1055/4/275 1058/2/275
f 1061/1/276 1062/4/276 1065/2/276
f 1062/1/277 1063/4/277 1066/2/277
f 1063/1/278 1061/4/278 1064/2/278
f 1067/1/279 1068/4/279 1071/2/279
f 1068/1/280 1069/4/280 1072/2/280
f 1069/1/281 1067/4/281 1070/2/281
f 1073/1/282 1074/4/282 1077/2/282
f 1074/1/283 1075/4/283 1078/2/283
f 1075/1/284 1073/4/284 1076/2/284
f 1079/1/285 1080/4/285 1083/2/285
f 1080/1/286 1081/4/286 1084/2/286
f 1081/1/287 1079/4/287 1082/2/287
f 1085/1/288 1086/4/288 1089/2/288
f 1086/1/289 1087/4/289 1090/2/289
f 1087/1/290 1085/4/290 1088/2/290
f 1091/1/291 1092/4/291 1095/2/291
f 1092/1/292 1093/4/292 1096/2/292
f 1093/1/293 1091/4/293 1094/2/293
f 1097/1/294 1098/4/294 1101/2/294
f 1098/1/295 1099/4/295 1102/2/295
f 1099/1/296 1097/4/296 1100/2/296
f 1103/1/297 1104/4/297 1107/2/297
f 1104/1/298 1105/4/298 1108/2/298
f 1105/1/299 1103/4/299 1106/2/299
f 1109/1/300 1110/4/300 1113/2/300
f 1110/1/301 1111/4/301 1114/2/301
f 1111/1/302 1109/4/302 1112/2/302
f 1115/1/303 1116/4/303 1119/2/303
f 1116/1/304 1117/4/304 1120/2/304
f 1117/1/305 1115/4/305 1118/2/305
f 1121/1/306 1122/4/306 1125/2/306
f 1122/1/307 1123/4/307 1126/2/307
f 1123/1/308 1121/4/308 1124/2/308
f 1127/1/309 1128/4/309 1131/2/309
f 1128/1/310 1129/4/310 1132/2/310
f 1129/1/311 1127/4/311 1130/2/311
f 1133/1/312 1134/4/312 1137/2/312
f 1134/1/313 1135/4/313 1138/2/313
f 1135/1/314 1133/4/314 1136/2/314
f 1139/1/315 1140/4/315 1143/2/315
f 1140/1/316 1141/4/316 1144/2/316
f 1141/1/317 1139/4/317 1142/2/317
f 1145/1/318 1146/4/318 1149/2/318
f 1146/1/319 1147/4/319 1150/2/319
f 1147/1/320 1145/4/320 1148/2/320
f 1151/1/321 1152/4/321 1155/2/321
f 1152/1/322 1153/4/322 1156/2/322
f 1153/1/323 1151/4/323 1154/2/323
f 1157/1/324 1158/4/324 1161/2/324
f 1158/1/325 1159/4/325 1162/2/325
f 1159/1/326 1157/4/326 1160/2/326
f 1163/1/327 1164/4/327 1167/2/327
f 1164/1/328 1165/4/328 1168/2/328
f 1165/1/329 1163/4/329 1166/2/329
