# Blender 5.1.2
# www.blender.org
o st_chrono_hand_long
v 0.000000 0.934783 0.030000
v 0.065217 0.729130 0.030000
v 0.029348 -0.078261 0.030000
v 0.000000 -0.121739 0.030000
v -0.029348 -0.078261 0.030000
v -0.065217 0.729130 0.030000
v 0.000000 0.934783 0.000000
v 0.065217 0.729130 0.000000
v 0.029348 -0.078261 0.000000
v 0.000000 -0.121739 0.000000
v -0.029348 -0.078261 0.000000
v -0.065217 0.729130 0.000000
vn -0.0000 -0.0000 1.0000
vn 0.9532 0.3023 -0.0000
vn 0.9990 -0.0444 -0.0000
vn 0.8288 -0.5595 -0.0000
vn -0.8288 -0.5595 -0.0000
vn -0.9990 -0.0444 -0.0000
vn -0.9532 0.3023 -0.0000
vt 0.500000 0.500000
vt 0.100000 0.900000
vt 0.900000 0.100000
vt 0.100000 0.100000
vt 0.900000 0.900000
s 0
f 5/1/1 4/1/1 3/1/1
f 6/1/1 5/1/1 3/1/1
f 6/1/1 3/1/1 2/1/1
f 1/1/1 6/1/1 2/1/1
f 1/2/2 8/3/2 7/4/2
f 2/2/3 9/3/3 8/4/3
f 3/2/4 10/3/4 9/4/4
f 4/2/5 11/3/5 10/4/5
f 5/2/6 12/3/6 11/4/6
f 6/2/7 7/3/7 12/4/7
f 1/2/2 2/5/2 8/3/2
f 2/2/3 3/5/3 9/3/3
f 3/2/4 4/5/4 10/3/4
f 4/2/5 5/5/5 11/3/5
f 5/2/6 6/5/6 12/3/6
f 6/2/7 1/5/7 7/3/7
