# Blender 5.1.2
# www.blender.org
o st_door_02
v -7.900000 0.000000 2.300000
v -7.900000 0.000000 -2.300000
v 7.900000 0.000000 -2.300000
v 7.900000 0.000000 2.300000
v -7.900000 0.700000 2.300000
v 7.900000 0.700000 2.300000
v 7.900000 0.700000 -2.300000
v -7.900000 0.700000 -2.300000
v -7.900000 0.000000 2.300000
v 7.900000 0.000000 2.300000
v 7.900000 0.700000 2.300000
v -7.900000 0.700000 2.300000
v -7.900000 0.000000 -2.300000
v -7.900000 0.700000 -2.300000
v 7.900000 0.700000 -2.300000
v 7.900000 0.000000 -2.300000
v -7.900000 0.000000 2.300000
v -7.900000 0.700000 2.300000
v -7.900000 0.700000 -2.300000
v -7.900000 0.000000 -2.300000
v 7.900000 0.000000 2.300000
v 7.900000 0.000000 -2.300000
v 7.900000 0.700000 -2.300000
v 7.900000 0.700000 2.300000
v -7.400000 0.700000 2.000000
v -7.400000 0.700000 -2.000000
v 7.400000 0.700000 -2.000000
v 7.400000 0.700000 2.000000
v -7.400000 1.200000 2.000000
v 7.400000 1.200000 2.000000
v 7.400000 1.200000 -2.000000
v -7.400000 1.200000 -2.000000
v -7.400000 0.700000 2.000000
v 7.400000 0.700000 2.000000
v 7.400000 1.200000 2.000000
v -7.400000 1.200000 2.000000
v -7.400000 0.700000 -2.000000
v -7.400000 1.200000 -2.000000
v 7.400000 1.200000 -2.000000
v 7.400000 0.700000 -2.000000
v -7.400000 0.700000 2.000000
v -7.400000 1.200000 2.000000
v -7.400000 1.200000 -2.000000
v -7.400000 0.700000 -2.000000
v 7.400000 0.700000 2.000000
v 7.400000 0.700000 -2.000000
v 7.400000 1.200000 -2.000000
v 7.400000 1.200000 2.000000
v -7.100000 1.200000 1.750000
v -7.100000 1.200000 -1.750000
v -4.100000 1.200000 -1.750000
v -4.100000 1.200000 1.750000
v -7.100000 2.000000 1.750000
v -4.100000 2.000000 1.750000
v -4.100000 2.000000 -1.750000
v -7.100000 2.000000 -1.750000
v -7.100000 1.200000 1.750000
v -4.100000 1.200000 1.750000
v -4.100000 2.000000 1.750000
v -7.100000 2.000000 1.750000
v -7.100000 1.200000 -1.750000
v -7.100000 2.000000 -1.750000
v -4.100000 2.000000 -1.750000
v -4.100000 1.200000 -1.750000
v -7.100000 1.200000 1.750000
v -7.100000 2.000000 1.750000
v -7.100000 2.000000 -1.750000
v -7.100000 1.200000 -1.750000
v -4.100000 1.200000 1.750000
v -4.100000 1.200000 -1.750000
v -4.100000 2.000000 -1.750000
v -4.100000 2.000000 1.750000
v -6.700000 2.000000 1.500000
v -6.700000 2.000000 -1.500000
v -4.500000 2.000000 -1.500000
v -4.500000 2.000000 1.500000
v -6.700000 15.000000 1.500000
v -4.500000 15.000000 1.500000
v -4.500000 15.000000 -1.500000
v -6.700000 15.000000 -1.500000
v -6.700000 2.000000 1.500000
v -4.500000 2.000000 1.500000
v -4.500000 15.000000 1.500000
v -6.700000 15.000000 1.500000
v -6.700000 2.000000 -1.500000
v -6.700000 15.000000 -1.500000
v -4.500000 15.000000 -1.500000
v -4.500000 2.000000 -1.500000
v -6.700000 2.000000 1.500000
v -6.700000 15.000000 1.500000
v -6.700000 15.000000 -1.500000
v -6.700000 2.000000 -1.500000
v -4.500000 2.000000 1.500000
v -4.500000 2.000000 -1.500000
v -4.500000 15.000000 -1.500000
v -4.500000 15.000000 1.500000
v -5.900662 2.000000 1.598885
v -5.885000 2.000000 1.500000
v -5.885000 14.600000 1.500000
v -5.900662 14.600000 1.598885
v -5.946115 2.000000 1.688091
v -5.900662 2.000000 1.598885
v -5.900662 14.600000 1.598885
v -5.946115 14.600000 1.688091
v -6.016909 2.000000 1.758885
v -5.946115 2.000000 1.688091
v -5.946115 14.600000 1.688091
v -6.016909 14.600000 1.758885
v -6.106114 2.000000 1.804338
v -6.016909 2.000000 1.758885
v -6.016909 14.600000 1.758885
v -6.106114 14.600000 1.804338
v -6.205000 2.000000 1.820000
v -6.106114 2.000000 1.804338
v -6.106114 14.600000 1.804338
v -6.205000 14.600000 1.820000
v -6.303885 2.000000 1.804338
v -6.205000 2.000000 1.820000
v -6.205000 14.600000 1.820000
v -6.303885 14.600000 1.804338
v -6.393091 2.000000 1.758885
v -6.303885 2.000000 1.804338
v -6.303885 14.600000 1.804338
v -6.393091 14.600000 1.758885
v -6.463885 2.000000 1.688091
v -6.393091 2.000000 1.758885
v -6.393091 14.600000 1.758885
v -6.463885 14.600000 1.688091
v -6.509338 2.000000 1.598885
v -6.463885 2.000000 1.688091
v -6.463885 14.600000 1.688091
v -6.509338 14.600000 1.598885
v -6.525000 2.000000 1.500000
v -6.509338 2.000000 1.598885
v -6.509338 14.600000 1.598885
v -6.525000 14.600000 1.500000
v -4.690662 2.000000 1.598885
v -4.675000 2.000000 1.500000
v -4.675000 14.600000 1.500000
v -4.690662 14.600000 1.598885
v -4.736115 2.000000 1.688091
v -4.690662 2.000000 1.598885
v -4.690662 14.600000 1.598885
v -4.736115 14.600000 1.688091
v -4.806909 2.000000 1.758885
v -4.736115 2.000000 1.688091
v -4.736115 14.600000 1.688091
v -4.806909 14.600000 1.758885
v -4.896114 2.000000 1.804338
v -4.806909 2.000000 1.758885
v -4.806909 14.600000 1.758885
v -4.896114 14.600000 1.804338
v -4.995000 2.000000 1.820000
v -4.896114 2.000000 1.804338
v -4.896114 14.600000 1.804338
v -4.995000 14.600000 1.820000
v -5.093885 2.000000 1.804338
v -4.995000 2.000000 1.820000
v -4.995000 14.600000 1.820000
v -5.093885 14.600000 1.804338
v -5.183091 2.000000 1.758885
v -5.093885 2.000000 1.804338
v -5.093885 14.600000 1.804338
v -5.183091 14.600000 1.758885
v -5.253885 2.000000 1.688091
v -5.183091 2.000000 1.758885
v -5.183091 14.600000 1.758885
v -5.253885 14.600000 1.688091
v -5.299338 2.000000 1.598885
v -5.253885 2.000000 1.688091
v -5.253885 14.600000 1.688091
v -5.299338 14.600000 1.598885
v -5.315000 2.000000 1.500000
v -5.299338 2.000000 1.598885
v -5.299338 14.600000 1.598885
v -5.315000 14.600000 1.500000
v -6.150000 5.000000 1.610000
v -6.150000 5.000000 1.490000
v -5.050000 5.000000 1.490000
v -5.050000 5.000000 1.610000
v -6.150000 8.000000 1.610000
v -5.050000 8.000000 1.610000
v -5.050000 8.000000 1.490000
v -6.150000 8.000000 1.490000
v -6.150000 5.000000 1.610000
v -5.050000 5.000000 1.610000
v -5.050000 8.000000 1.610000
v -6.150000 8.000000 1.610000
v -6.150000 5.000000 1.490000
v -6.150000 8.000000 1.490000
v -5.050000 8.000000 1.490000
v -5.050000 5.000000 1.490000
v -6.150000 5.000000 1.610000
v -6.150000 8.000000 1.610000
v -6.150000 8.000000 1.490000
v -6.150000 5.000000 1.490000
v -5.050000 5.000000 1.610000
v -5.050000 5.000000 1.490000
v -5.050000 8.000000 1.490000
v -5.050000 8.000000 1.610000
v -6.150000 9.500000 1.610000
v -6.150000 9.500000 1.490000
v -5.050000 9.500000 1.490000
v -5.050000 9.500000 1.610000
v -6.150000 12.500000 1.610000
v -5.050000 12.500000 1.610000
v -5.050000 12.500000 1.490000
v -6.150000 12.500000 1.490000
v -6.150000 9.500000 1.610000
v -5.050000 9.500000 1.610000
v -5.050000 12.500000 1.610000
v -6.150000 12.500000 1.610000
v -6.150000 9.500000 1.490000
v -6.150000 12.500000 1.490000
v -5.050000 12.500000 1.490000
v -5.050000 9.500000 1.490000
v -6.150000 9.500000 1.610000
v -6.150000 12.500000 1.610000
v -6.150000 12.500000 1.490000
v -6.150000 9.500000 1.490000
v -5.050000 9.500000 1.610000
v -5.050000 9.500000 1.490000
v -5.050000 12.500000 1.490000
v -5.050000 12.500000 1.610000
v -7.150000 15.000000 1.800000
v -7.150000 15.000000 -1.800000
v -4.050000 15.000000 -1.800000
v -4.050000 15.000000 1.800000
v -7.150000 15.700000 1.800000
v -4.050000 15.700000 1.800000
v -4.050000 15.700000 -1.800000
v -7.150000 15.700000 -1.800000
v -7.150000 15.000000 1.800000
v -4.050000 15.000000 1.800000
v -4.050000 15.700000 1.800000
v -7.150000 15.700000 1.800000
v -7.150000 15.000000 -1.800000
v -7.150000 15.700000 -1.800000
v -4.050000 15.700000 -1.800000
v -4.050000 15.000000 -1.800000
v -7.150000 15.000000 1.800000
v -7.150000 15.700000 1.800000
v -7.150000 15.700000 -1.800000
v -7.150000 15.000000 -1.800000
v -4.050000 15.000000 1.800000
v -4.050000 15.000000 -1.800000
v -4.050000 15.700000 -1.800000
v -4.050000 15.700000 1.800000
v -6.950000 15.700000 1.650000
v -6.950000 15.700000 -1.650000
v -4.250000 15.700000 -1.650000
v -4.250000 15.700000 1.650000
v -6.950000 16.000000 1.650000
v -4.250000 16.000000 1.650000
v -4.250000 16.000000 -1.650000
v -6.950000 16.000000 -1.650000
v -6.950000 15.700000 1.650000
v -4.250000 15.700000 1.650000
v -4.250000 16.000000 1.650000
v -6.950000 16.000000 1.650000
v -6.950000 15.700000 -1.650000
v -6.950000 16.000000 -1.650000
v -4.250000 16.000000 -1.650000
v -4.250000 15.700000 -1.650000
v -6.950000 15.700000 1.650000
v -6.950000 16.000000 1.650000
v -6.950000 16.000000 -1.650000
v -6.950000 15.700000 -1.650000
v -4.250000 15.700000 1.650000
v -4.250000 15.700000 -1.650000
v -4.250000 16.000000 -1.650000
v -4.250000 16.000000 1.650000
v 4.100000 1.200000 1.750000
v 4.100000 1.200000 -1.750000
v 7.100000 1.200000 -1.750000
v 7.100000 1.200000 1.750000
v 4.100000 2.000000 1.750000
v 7.100000 2.000000 1.750000
v 7.100000 2.000000 -1.750000
v 4.100000 2.000000 -1.750000
v 4.100000 1.200000 1.750000
v 7.100000 1.200000 1.750000
v 7.100000 2.000000 1.750000
v 4.100000 2.000000 1.750000
v 4.100000 1.200000 -1.750000
v 4.100000 2.000000 -1.750000
v 7.100000 2.000000 -1.750000
v 7.100000 1.200000 -1.750000
v 4.100000 1.200000 1.750000
v 4.100000 2.000000 1.750000
v 4.100000 2.000000 -1.750000
v 4.100000 1.200000 -1.750000
v 7.100000 1.200000 1.750000
v 7.100000 1.200000 -1.750000
v 7.100000 2.000000 -1.750000
v 7.100000 2.000000 1.750000
v 4.500000 2.000000 1.500000
v 4.500000 2.000000 -1.500000
v 6.700000 2.000000 -1.500000
v 6.700000 2.000000 1.500000
v 4.500000 11.184374 1.500000
v 6.700000 11.184374 1.500000
v 6.700000 11.184374 -1.500000
v 4.500000 11.184374 -1.500000
v 4.500000 2.000000 1.500000
v 6.700000 2.000000 1.500000
v 6.700000 11.184374 1.500000
v 4.500000 11.184374 1.500000
v 4.500000 2.000000 -1.500000
v 4.500000 11.184374 -1.500000
v 6.700000 11.184374 -1.500000
v 6.700000 2.000000 -1.500000
v 4.500000 2.000000 1.500000
v 4.500000 11.184374 1.500000
v 4.500000 11.184374 -1.500000
v 4.500000 2.000000 -1.500000
v 6.700000 2.000000 1.500000
v 6.700000 2.000000 -1.500000
v 6.700000 11.184374 -1.500000
v 6.700000 11.184374 1.500000
v 5.299338 2.000000 1.598885
v 5.315000 2.000000 1.500000
v 5.315000 10.784373 1.500000
v 5.299338 10.784373 1.598885
v 5.253885 2.000000 1.688091
v 5.299338 2.000000 1.598885
v 5.299338 10.784373 1.598885
v 5.253885 10.784373 1.688091
v 5.183091 2.000000 1.758885
v 5.253885 2.000000 1.688091
v 5.253885 10.784373 1.688091
v 5.183091 10.784373 1.758885
v 5.093885 2.000000 1.804338
v 5.183091 2.000000 1.758885
v 5.183091 10.784373 1.758885
v 5.093885 10.784373 1.804338
v 4.995000 2.000000 1.820000
v 5.093885 2.000000 1.804338
v 5.093885 10.784373 1.804338
v 4.995000 10.784373 1.820000
v 4.896114 2.000000 1.804338
v 4.995000 2.000000 1.820000
v 4.995000 10.784373 1.820000
v 4.896114 10.784373 1.804338
v 4.806909 2.000000 1.758885
v 4.896114 2.000000 1.804338
v 4.896114 10.784373 1.804338
v 4.806909 10.784373 1.758885
v 4.736115 2.000000 1.688091
v 4.806909 2.000000 1.758885
v 4.806909 10.784373 1.758885
v 4.736115 10.784373 1.688091
v 4.690662 2.000000 1.598885
v 4.736115 2.000000 1.688091
v 4.736115 10.784373 1.688091
v 4.690662 10.784373 1.598885
v 4.675000 2.000000 1.500000
v 4.690662 2.000000 1.598885
v 4.690662 10.784373 1.598885
v 4.675000 10.784373 1.500000
v 6.509338 2.000000 1.598885
v 6.525000 2.000000 1.500000
v 6.525000 10.784373 1.500000
v 6.509338 10.784373 1.598885
v 6.463885 2.000000 1.688091
v 6.509338 2.000000 1.598885
v 6.509338 10.784373 1.598885
v 6.463885 10.784373 1.688091
v 6.393091 2.000000 1.758885
v 6.463885 2.000000 1.688091
v 6.463885 10.784373 1.688091
v 6.393091 10.784373 1.758885
v 6.303885 2.000000 1.804338
v 6.393091 2.000000 1.758885
v 6.393091 10.784373 1.758885
v 6.303885 10.784373 1.804338
v 6.205000 2.000000 1.820000
v 6.303885 2.000000 1.804338
v 6.303885 10.784373 1.804338
v 6.205000 10.784373 1.820000
v 6.106114 2.000000 1.804338
v 6.205000 2.000000 1.820000
v 6.205000 10.784373 1.820000
v 6.106114 10.784373 1.804338
v 6.016909 2.000000 1.758885
v 6.106114 2.000000 1.804338
v 6.106114 10.784373 1.804338
v 6.016909 10.784373 1.758885
v 5.946115 2.000000 1.688091
v 6.016909 2.000000 1.758885
v 6.016909 10.784373 1.758885
v 5.946115 10.784373 1.688091
v 5.900662 2.000000 1.598885
v 5.946115 2.000000 1.688091
v 5.946115 10.784373 1.688091
v 5.900662 10.784373 1.598885
v 5.885000 2.000000 1.500000
v 5.900662 2.000000 1.598885
v 5.900662 10.784373 1.598885
v 5.885000 10.784373 1.500000
v 5.050000 5.000000 1.610000
v 5.050000 5.000000 1.490000
v 6.150000 5.000000 1.490000
v 6.150000 5.000000 1.610000
v 5.050000 8.000000 1.610000
v 6.150000 8.000000 1.610000
v 6.150000 8.000000 1.490000
v 5.050000 8.000000 1.490000
v 5.050000 5.000000 1.610000
v 6.150000 5.000000 1.610000
v 6.150000 8.000000 1.610000
v 5.050000 8.000000 1.610000
v 5.050000 5.000000 1.490000
v 5.050000 8.000000 1.490000
v 6.150000 8.000000 1.490000
v 6.150000 5.000000 1.490000
v 5.050000 5.000000 1.610000
v 5.050000 8.000000 1.610000
v 5.050000 8.000000 1.490000
v 5.050000 5.000000 1.490000
v 6.150000 5.000000 1.610000
v 6.150000 5.000000 1.490000
v 6.150000 8.000000 1.490000
v 6.150000 8.000000 1.610000
v -4.560000 2.000000 0.825000
v -4.560000 2.000000 -0.225000
v -4.480000 2.000000 -0.225000
v -4.480000 2.000000 0.825000
v -4.560000 15.000000 0.825000
v -4.480000 15.000000 0.825000
v -4.480000 15.000000 -0.225000
v -4.560000 15.000000 -0.225000
v -4.560000 2.000000 0.825000
v -4.480000 2.000000 0.825000
v -4.480000 15.000000 0.825000
v -4.560000 15.000000 0.825000
v -4.560000 2.000000 -0.225000
v -4.560000 15.000000 -0.225000
v -4.480000 15.000000 -0.225000
v -4.480000 2.000000 -0.225000
v -4.560000 2.000000 0.825000
v -4.560000 15.000000 0.825000
v -4.560000 15.000000 -0.225000
v -4.560000 2.000000 -0.225000
v -4.480000 2.000000 0.825000
v -4.480000 2.000000 -0.225000
v -4.480000 15.000000 -0.225000
v -4.480000 15.000000 0.825000
v 4.480000 2.000000 0.825000
v 4.480000 2.000000 -0.225000
v 4.560000 2.000000 -0.225000
v 4.560000 2.000000 0.825000
v 4.480000 11.184374 0.825000
v 4.560000 11.184374 0.825000
v 4.560000 11.184374 -0.225000
v 4.480000 11.184374 -0.225000
v 4.480000 2.000000 0.825000
v 4.560000 2.000000 0.825000
v 4.560000 11.184374 0.825000
v 4.480000 11.184374 0.825000
v 4.480000 2.000000 -0.225000
v 4.480000 11.184374 -0.225000
v 4.560000 11.184374 -0.225000
v 4.560000 2.000000 -0.225000
v 4.480000 2.000000 0.825000
v 4.480000 11.184374 0.825000
v 4.480000 11.184374 -0.225000
v 4.480000 2.000000 -0.225000
v 4.560000 2.000000 0.825000
v 4.560000 2.000000 -0.225000
v 4.560000 11.184374 -0.225000
v 4.560000 11.184374 0.825000
v -4.500000 15.000000 1.500000
v -4.474366 15.625730 1.500000
v -5.567741 15.750656 1.500000
v -5.600000 15.000000 1.500000
v -5.600000 15.000000 -1.500000
v -5.567741 15.750656 -1.500000
v -4.474366 15.625730 -1.500000
v -4.500000 15.000000 -1.500000
v -4.500000 15.000000 1.500000
v -4.500000 15.000000 -1.500000
v -4.474366 15.625730 -1.500000
v -4.474366 15.625730 1.500000
v -4.474366 15.625730 1.500000
v -4.474366 15.625730 -1.500000
v -5.567741 15.750656 -1.500000
v -5.567741 15.750656 1.500000
v -5.567741 15.750656 1.500000
v -5.567741 15.750656 -1.500000
v -5.600000 15.000000 -1.500000
v -5.600000 15.000000 1.500000
v -5.600000 15.000000 1.500000
v -5.600000 15.000000 -1.500000
v -4.500000 15.000000 -1.500000
v -4.500000 15.000000 1.500000
v -4.474366 15.625730 1.500000
v -4.397637 16.247265 1.500000
v -5.471203 16.495777 1.500000
v -5.567741 15.750656 1.500000
v -5.567741 15.750656 -1.500000
v -5.471203 16.495777 -1.500000
v -4.397637 16.247265 -1.500000
v -4.474366 15.625730 -1.500000
v -4.474366 15.625730 1.500000
v -4.474366 15.625730 -1.500000
v -4.397637 16.247265 -1.500000
v -4.397637 16.247265 1.500000
v -4.397637 16.247265 1.500000
v -4.397637 16.247265 -1.500000
v -5.471203 16.495777 -1.500000
v -5.471203 16.495777 1.500000
v -5.471203 16.495777 1.500000
v -5.471203 16.495777 -1.500000
v -5.567741 15.750656 -1.500000
v -5.567741 15.750656 1.500000
v -5.567741 15.750656 1.500000
v -5.567741 15.750656 -1.500000
v -4.474366 15.625730 -1.500000
v -4.474366 15.625730 1.500000
v -4.397637 16.247265 1.500000
v -4.270327 16.860443 1.500000
v -5.311098 17.229870 1.500000
v -5.471203 16.495777 1.500000
v -5.471203 16.495777 -1.500000
v -5.311098 17.229870 -1.500000
v -4.270327 16.860443 -1.500000
v -4.397637 16.247265 -1.500000
v -4.397637 16.247265 1.500000
v -4.397637 16.247265 -1.500000
v -4.270327 16.860443 -1.500000
v -4.270327 16.860443 1.500000
v -4.270327 16.860443 1.500000
v -4.270327 16.860443 -1.500000
v -5.311098 17.229870 -1.500000
v -5.311098 17.229870 1.500000
v -5.311098 17.229870 1.500000
v -5.311098 17.229870 -1.500000
v -5.471203 16.495777 -1.500000
v -5.471203 16.495777 1.500000
v -5.471203 16.495777 1.500000
v -5.471203 16.495777 -1.500000
v -4.397637 16.247265 -1.500000
v -4.397637 16.247265 1.500000
v -4.270327 16.860443 1.500000
v -4.093288 17.461153 1.500000
v -5.088605 17.947521 1.500000
v -5.311098 17.229870 1.500000
v -5.311098 17.229870 -1.500000
v -5.088605 17.947521 -1.500000
v -4.093288 17.461153 -1.500000
v -4.270327 16.860443 -1.500000
v -4.270327 16.860443 1.500000
v -4.270327 16.860443 -1.500000
v -4.093288 17.461153 -1.500000
v -4.093288 17.461153 1.500000
v -4.093288 17.461153 1.500000
v -4.093288 17.461153 -1.500000
v -5.088605 17.947521 -1.500000
v -5.088605 17.947521 1.500000
v -5.088605 17.947521 1.500000
v -5.088605 17.947521 -1.500000
v -5.311098 17.229870 -1.500000
v -5.311098 17.229870 1.500000
v -5.311098 17.229870 1.500000
v -5.311098 17.229870 -1.500000
v -4.270327 16.860443 -1.500000
v -4.270327 16.860443 1.500000
v -4.093288 17.461153 1.500000
v -3.867708 18.045368 1.500000
v -4.805366 18.643438 1.500000
v -5.088605 17.947521 1.500000
v -5.088605 17.947521 -1.500000
v -4.805366 18.643438 -1.500000
v -3.867708 18.045368 -1.500000
v -4.093288 17.461153 -1.500000
v -4.093288 17.461153 1.500000
v -4.093288 17.461153 -1.500000
v -3.867708 18.045368 -1.500000
v -3.867708 18.045368 1.500000
v -3.867708 18.045368 1.500000
v -3.867708 18.045368 -1.500000
v -4.805366 18.643438 -1.500000
v -4.805366 18.643438 1.500000
v -4.805366 18.643438 1.500000
v -4.805366 18.643438 -1.500000
v -5.088605 17.947521 -1.500000
v -5.088605 17.947521 1.500000
v -5.088605 17.947521 1.500000
v -5.088605 17.947521 -1.500000
v -4.093288 17.461153 -1.500000
v -4.093288 17.461153 1.500000
v -3.867708 18.045368 1.500000
v -3.595098 18.609175 1.500000
v -4.463469 19.312492 1.500000
v -4.805366 18.643438 1.500000
v -4.805366 18.643438 -1.500000
v -4.463469 19.312492 -1.500000
v -3.595098 18.609175 -1.500000
v -3.867708 18.045368 -1.500000
v -3.867708 18.045368 1.500000
v -3.867708 18.045368 -1.500000
v -3.595098 18.609175 -1.500000
v -3.595098 18.609175 1.500000
v -3.595098 18.609175 1.500000
v -3.595098 18.609175 -1.500000
v -4.463469 19.312492 -1.500000
v -4.463469 19.312492 1.500000
v -4.463469 19.312492 1.500000
v -4.463469 19.312492 -1.500000
v -4.805366 18.643438 -1.500000
v -4.805366 18.643438 1.500000
v -4.805366 18.643438 1.500000
v -4.805366 18.643438 -1.500000
v -3.867708 18.045368 -1.500000
v -3.867708 18.045368 1.500000
v -3.595098 18.609175 1.500000
v -3.277286 19.148794 1.500000
v -4.065435 19.949747 1.500000
v -4.463469 19.312492 1.500000
v -4.463469 19.312492 -1.500000
v -4.065435 19.949747 -1.500000
v -3.277286 19.148794 -1.500000
v -3.595098 18.609175 -1.500000
v -3.595098 18.609175 1.500000
v -3.595098 18.609175 -1.500000
v -3.277286 19.148794 -1.500000
v -3.277286 19.148794 1.500000
v -3.277286 19.148794 1.500000
v -3.277286 19.148794 -1.500000
v -4.065435 19.949747 -1.500000
v -4.065435 19.949747 1.500000
v -4.065435 19.949747 1.500000
v -4.065435 19.949747 -1.500000
v -4.463469 19.312492 -1.500000
v -4.463469 19.312492 1.500000
v -4.463469 19.312492 1.500000
v -4.463469 19.312492 -1.500000
v -3.595098 18.609175 -1.500000
v -3.595098 18.609175 1.500000
v -3.277286 19.148794 1.500000
v -2.916399 19.660610 1.500000
v -3.614198 20.550507 1.500000
v -4.065435 19.949747 1.500000
v -4.065435 19.949747 -1.500000
v -3.614198 20.550507 -1.500000
v -2.916399 19.660610 -1.500000
v -3.277286 19.148794 -1.500000
v -3.277286 19.148794 1.500000
v -3.277286 19.148794 -1.500000
v -2.916399 19.660610 -1.500000
v -2.916399 19.660610 1.500000
v -2.916399 19.660610 1.500000
v -2.916399 19.660610 -1.500000
v -3.614198 20.550507 -1.500000
v -3.614198 20.550507 1.500000
v -3.614198 20.550507 1.500000
v -3.614198 20.550507 -1.500000
v -4.065435 19.949747 -1.500000
v -4.065435 19.949747 1.500000
v -4.065435 19.949747 1.500000
v -4.065435 19.949747 -1.500000
v -3.277286 19.148794 -1.500000
v -3.277286 19.148794 1.500000
v -2.916399 19.660610 1.500000
v -2.514859 20.141193 1.500000
v -3.113087 21.110340 1.500000
v -3.614198 20.550507 1.500000
v -3.614198 20.550507 -1.500000
v -3.113087 21.110340 -1.500000
v -2.514859 20.141193 -1.500000
v -2.916399 19.660610 -1.500000
v -2.916399 19.660610 1.500000
v -2.916399 19.660610 -1.500000
v -2.514859 20.141193 -1.500000
v -2.514859 20.141193 1.500000
v -2.514859 20.141193 1.500000
v -2.514859 20.141193 -1.500000
v -3.113087 21.110340 -1.500000
v -3.113087 21.110340 1.500000
v -3.113087 21.110340 1.500000
v -3.113087 21.110340 -1.500000
v -3.614198 20.550507 -1.500000
v -3.614198 20.550507 1.500000
v -3.614198 20.550507 1.500000
v -3.614198 20.550507 -1.500000
v -2.916399 19.660610 -1.500000
v -2.916399 19.660610 1.500000
v -2.514859 20.141193 1.500000
v -2.075355 20.587322 1.500000
v -2.565795 21.625118 1.500000
v -3.113087 21.110340 1.500000
v -3.113087 21.110340 -1.500000
v -2.565795 21.625118 -1.500000
v -2.075355 20.587322 -1.500000
v -2.514859 20.141193 -1.500000
v -2.514859 20.141193 1.500000
v -2.514859 20.141193 -1.500000
v -2.075355 20.587322 -1.500000
v -2.075355 20.587322 1.500000
v -2.075355 20.587322 1.500000
v -2.075355 20.587322 -1.500000
v -2.565795 21.625118 -1.500000
v -2.565795 21.625118 1.500000
v -2.565795 21.625118 1.500000
v -2.565795 21.625118 -1.500000
v -3.113087 21.110340 -1.500000
v -3.113087 21.110340 1.500000
v -3.113087 21.110340 1.500000
v -3.113087 21.110340 -1.500000
v -2.514859 20.141193 -1.500000
v -2.514859 20.141193 1.500000
v -2.075355 20.587322 1.500000
v -1.600832 20.996006 1.500000
v -1.976358 22.091047 1.500000
v -2.565795 21.625118 1.500000
v -2.565795 21.625118 -1.500000
v -1.976358 22.091047 -1.500000
v -1.600832 20.996006 -1.500000
v -2.075355 20.587322 -1.500000
v -2.075355 20.587322 1.500000
v -2.075355 20.587322 -1.500000
v -1.600832 20.996006 -1.500000
v -1.600832 20.996006 1.500000
v -1.600832 20.996006 1.500000
v -1.600832 20.996006 -1.500000
v -1.976358 22.091047 -1.500000
v -1.976358 22.091047 1.500000
v -1.976358 22.091047 1.500000
v -1.976358 22.091047 -1.500000
v -2.565795 21.625118 -1.500000
v -2.565795 21.625118 1.500000
v -2.565795 21.625118 1.500000
v -2.565795 21.625118 -1.500000
v -2.075355 20.587322 -1.500000
v -2.075355 20.587322 1.500000
v -1.600832 20.996006 1.500000
v -1.094472 21.364508 1.500000
v -1.349123 22.504692 1.500000
v -1.976358 22.091047 1.500000
v -1.976358 22.091047 -1.500000
v -1.349123 22.504692 -1.500000
v -1.094472 21.364508 -1.500000
v -1.600832 20.996006 -1.500000
v -1.600832 20.996006 1.500000
v -1.600832 20.996006 -1.500000
v -1.094472 21.364508 -1.500000
v -1.094472 21.364508 1.500000
v -1.094472 21.364508 1.500000
v -1.094472 21.364508 -1.500000
v -1.349123 22.504692 -1.500000
v -1.349123 22.504692 1.500000
v -1.349123 22.504692 1.500000
v -1.349123 22.504692 -1.500000
v -1.976358 22.091047 -1.500000
v -1.976358 22.091047 1.500000
v -1.976358 22.091047 1.500000
v -1.976358 22.091047 -1.500000
v -1.600832 20.996006 -1.500000
v -1.600832 20.996006 1.500000
v -1.094472 21.364508 1.500000
v -0.559666 21.690357 1.500000
v -0.688714 22.863001 1.500000
v -1.349123 22.504692 1.500000
v -1.349123 22.504692 -1.500000
v -0.688714 22.863001 -1.500000
v -0.559666 21.690357 -1.500000
v -1.094472 21.364508 -1.500000
v -1.094472 21.364508 1.500000
v -1.094472 21.364508 -1.500000
v -0.559666 21.690357 -1.500000
v -0.559666 21.690357 1.500000
v -0.559666 21.690357 1.500000
v -0.559666 21.690357 -1.500000
v -0.688714 22.863001 -1.500000
v -0.688714 22.863001 1.500000
v -0.688714 22.863001 1.500000
v -0.688714 22.863001 -1.500000
v -1.349123 22.504692 -1.500000
v -1.349123 22.504692 1.500000
v -1.349123 22.504692 1.500000
v -1.349123 22.504692 -1.500000
v -1.094472 21.364508 -1.500000
v -1.094472 21.364508 1.500000
v -0.559666 21.690357 1.500000
v 0.000000 21.971371 1.500000
v -0.000000 23.163332 1.500000
v -0.688714 22.863001 1.500000
v -0.688714 22.863001 -1.500000
v -0.000000 23.163332 -1.500000
v 0.000000 21.971371 -1.500000
v -0.559666 21.690357 -1.500000
v -0.559666 21.690357 1.500000
v -0.559666 21.690357 -1.500000
v 0.000000 21.971371 -1.500000
v 0.000000 21.971371 1.500000
v 0.000000 21.971371 1.500000
v 0.000000 21.971371 -1.500000
v -0.000000 23.163332 -1.500000
v -0.000000 23.163332 1.500000
v -0.000000 23.163332 1.500000
v -0.000000 23.163332 -1.500000
v -0.688714 22.863001 -1.500000
v -0.688714 22.863001 1.500000
v -0.688714 22.863001 1.500000
v -0.688714 22.863001 -1.500000
v -0.559666 21.690357 -1.500000
v -0.559666 21.690357 1.500000
v 0.000000 21.971371 1.500000
v 0.559666 21.690357 1.500000
v 0.688714 22.863001 1.500000
v -0.000000 23.163332 1.500000
v -0.000000 23.163332 -1.500000
v 0.688714 22.863001 -1.500000
v 0.559666 21.690357 -1.500000
v 0.000000 21.971371 -1.500000
v 0.000000 21.971371 1.500000
v 0.000000 21.971371 -1.500000
v 0.559666 21.690357 -1.500000
v 0.559666 21.690357 1.500000
v 0.559666 21.690357 1.500000
v 0.559666 21.690357 -1.500000
v 0.688714 22.863001 -1.500000
v 0.688714 22.863001 1.500000
v 0.688714 22.863001 1.500000
v 0.688714 22.863001 -1.500000
v -0.000000 23.163332 -1.500000
v -0.000000 23.163332 1.500000
v -0.000000 23.163332 1.500000
v -0.000000 23.163332 -1.500000
v 0.000000 21.971371 -1.500000
v 0.000000 21.971371 1.500000
v 0.559666 21.690357 1.500000
v 1.094472 21.364508 1.500000
v 1.349123 22.504692 1.500000
v 0.688714 22.863001 1.500000
v 0.688714 22.863001 -1.500000
v 1.349123 22.504692 -1.500000
v 1.094472 21.364508 -1.500000
v 0.559666 21.690357 -1.500000
v 0.559666 21.690357 1.500000
v 0.559666 21.690357 -1.500000
v 1.094472 21.364508 -1.500000
v 1.094472 21.364508 1.500000
v 1.094472 21.364508 1.500000
v 1.094472 21.364508 -1.500000
v 1.349123 22.504692 -1.500000
v 1.349123 22.504692 1.500000
v 1.349123 22.504692 1.500000
v 1.349123 22.504692 -1.500000
v 0.688714 22.863001 -1.500000
v 0.688714 22.863001 1.500000
v 0.688714 22.863001 1.500000
v 0.688714 22.863001 -1.500000
v 0.559666 21.690357 -1.500000
v 0.559666 21.690357 1.500000
v 1.094472 21.364508 1.500000
v 1.600832 20.996006 1.500000
v 1.976358 22.091047 1.500000
v 1.349123 22.504692 1.500000
v 1.349123 22.504692 -1.500000
v 1.976358 22.091047 -1.500000
v 1.600832 20.996006 -1.500000
v 1.094472 21.364508 -1.500000
v 1.094472 21.364508 1.500000
v 1.094472 21.364508 -1.500000
v 1.600832 20.996006 -1.500000
v 1.600832 20.996006 1.500000
v 1.600832 20.996006 1.500000
v 1.600832 20.996006 -1.500000
v 1.976358 22.091047 -1.500000
v 1.976358 22.091047 1.500000
v 1.976358 22.091047 1.500000
v 1.976358 22.091047 -1.500000
v 1.349123 22.504692 -1.500000
v 1.349123 22.504692 1.500000
v 1.349123 22.504692 1.500000
v 1.349123 22.504692 -1.500000
v 1.094472 21.364508 -1.500000
v 1.094472 21.364508 1.500000
v -5.600000 15.000000 1.200000
v -5.527474 16.124254 1.200000
v -6.415195 16.276537 1.200000
v -6.500000 15.000000 1.200000
v -6.500000 15.000000 -1.200000
v -6.415195 16.276537 -1.200000
v -5.527474 16.124254 -1.200000
v -5.600000 15.000000 -1.200000
v -5.600000 15.000000 1.200000
v -5.600000 15.000000 -1.200000
v -5.527474 16.124254 -1.200000
v -5.527474 16.124254 1.200000
v -5.527474 16.124254 1.200000
v -5.527474 16.124254 -1.200000
v -6.415195 16.276537 -1.200000
v -6.415195 16.276537 1.200000
v -6.415195 16.276537 1.200000
v -6.415195 16.276537 -1.200000
v -6.500000 15.000000 -1.200000
v -6.500000 15.000000 1.200000
v -6.500000 15.000000 1.200000
v -6.500000 15.000000 -1.200000
v -5.600000 15.000000 -1.200000
v -5.600000 15.000000 1.200000
v -5.527474 16.124254 1.200000
v -5.311098 17.229870 1.200000
v -6.162270 17.530640 1.200000
v -6.415195 16.276537 1.200000
v -6.415195 16.276537 -1.200000
v -6.162270 17.530640 -1.200000
v -5.311098 17.229870 -1.200000
v -5.527474 16.124254 -1.200000
v -5.527474 16.124254 1.200000
v -5.527474 16.124254 -1.200000
v -5.311098 17.229870 -1.200000
v -5.311098 17.229870 1.200000
v -5.311098 17.229870 1.200000
v -5.311098 17.229870 -1.200000
v -6.162270 17.530640 -1.200000
v -6.162270 17.530640 1.200000
v -6.162270 17.530640 1.200000
v -6.162270 17.530640 -1.200000
v -6.415195 16.276537 -1.200000
v -6.415195 16.276537 1.200000
v -6.415195 16.276537 1.200000
v -6.415195 16.276537 -1.200000
v -5.527474 16.124254 -1.200000
v -5.527474 16.124254 1.200000
v -5.311098 17.229870 1.200000
v -4.954459 18.298521 1.200000
v -5.745670 18.740261 1.200000
v -6.162270 17.530640 1.200000
v -6.162270 17.530640 -1.200000
v -5.745670 18.740261 -1.200000
v -4.954459 18.298521 -1.200000
v -5.311098 17.229870 -1.200000
v -5.311098 17.229870 1.200000
v -5.311098 17.229870 -1.200000
v -4.954459 18.298521 -1.200000
v -4.954459 18.298521 1.200000
v -4.954459 18.298521 1.200000
v -4.954459 18.298521 -1.200000
v -5.745670 18.740261 -1.200000
v -5.745670 18.740261 1.200000
v -5.745670 18.740261 1.200000
v -5.745670 18.740261 -1.200000
v -6.162270 17.530640 -1.200000
v -6.162270 17.530640 1.200000
v -6.162270 17.530640 1.200000
v -6.162270 17.530640 -1.200000
v -5.311098 17.229870 -1.200000
v -5.311098 17.229870 1.200000
v -4.954459 18.298521 1.200000
v -4.463469 19.312492 1.200000
v -5.172719 19.884144 1.200000
v -5.745670 18.740261 1.200000
v -5.745670 18.740261 -1.200000
v -5.172719 19.884144 -1.200000
v -4.463469 19.312492 -1.200000
v -4.954459 18.298521 -1.200000
v -4.954459 18.298521 1.200000
v -4.954459 18.298521 -1.200000
v -4.463469 19.312492 -1.200000
v -4.463469 19.312492 1.200000
v -4.463469 19.312492 1.200000
v -4.463469 19.312492 -1.200000
v -5.172719 19.884144 -1.200000
v -5.172719 19.884144 1.200000
v -5.172719 19.884144 1.200000
v -5.172719 19.884144 -1.200000
v -5.745670 18.740261 -1.200000
v -5.745670 18.740261 1.200000
v -5.745670 18.740261 1.200000
v -5.745670 18.740261 -1.200000
v -4.954459 18.298521 -1.200000
v -4.954459 18.298521 1.200000
v -4.463469 19.312492 1.200000
v -3.846268 20.254972 1.200000
v -4.453485 20.942181 1.200000
v -5.172719 19.884144 1.200000
v -5.172719 19.884144 -1.200000
v -4.453485 20.942181 -1.200000
v -3.846268 20.254972 -1.200000
v -4.463469 19.312492 -1.200000
v -4.463469 19.312492 1.200000
v -4.463469 19.312492 -1.200000
v -3.846268 20.254972 -1.200000
v -3.846268 20.254972 1.200000
v -3.846268 20.254972 1.200000
v -3.846268 20.254972 -1.200000
v -4.453485 20.942181 -1.200000
v -4.453485 20.942181 1.200000
v -4.453485 20.942181 1.200000
v -4.453485 20.942181 -1.200000
v -5.172719 19.884144 -1.200000
v -5.172719 19.884144 1.200000
v -5.172719 19.884144 1.200000
v -5.172719 19.884144 -1.200000
v -4.463469 19.312492 -1.200000
v -4.463469 19.312492 1.200000
v -3.846268 20.254972 1.200000
v -3.113087 21.110340 1.200000
v -3.600610 21.895779 1.200000
v -4.453485 20.942181 1.200000
v -4.453485 20.942181 -1.200000
v -3.600610 21.895779 -1.200000
v -3.113087 21.110340 -1.200000
v -3.846268 20.254972 -1.200000
v -3.846268 20.254972 1.200000
v -3.846268 20.254972 -1.200000
v -3.113087 21.110340 -1.200000
v -3.113087 21.110340 1.200000
v -3.113087 21.110340 1.200000
v -3.113087 21.110340 -1.200000
v -3.600610 21.895779 -1.200000
v -3.600610 21.895779 1.200000
v -3.600610 21.895779 1.200000
v -3.600610 21.895779 -1.200000
v -4.453485 20.942181 -1.200000
v -4.453485 20.942181 1.200000
v -4.453485 20.942181 1.200000
v -4.453485 20.942181 -1.200000
v -3.846268 20.254972 -1.200000
v -3.846268 20.254972 1.200000
v -3.113087 21.110340 1.200000
v -2.276080 21.864412 1.200000
v -2.629086 22.728172 1.200000
v -3.600610 21.895779 1.200000
v -3.600610 21.895779 -1.200000
v -2.629086 22.728172 -1.200000
v -2.276080 21.864412 -1.200000
v -3.113087 21.110340 -1.200000
v -3.113087 21.110340 1.200000
v -3.113087 21.110340 -1.200000
v -2.276080 21.864412 -1.200000
v -2.276080 21.864412 1.200000
v -2.276080 21.864412 1.200000
v -2.276080 21.864412 -1.200000
v -2.629086 22.728172 -1.200000
v -2.629086 22.728172 1.200000
v -2.629086 22.728172 1.200000
v -2.629086 22.728172 -1.200000
v -3.600610 21.895779 -1.200000
v -3.600610 21.895779 1.200000
v -3.600610 21.895779 1.200000
v -3.600610 21.895779 -1.200000
v -3.113087 21.110340 -1.200000
v -3.113087 21.110340 1.200000
v -2.276080 21.864412 1.200000
v -1.349123 22.504692 1.200000
v -1.555988 23.424736 1.200000
v -2.629086 22.728172 1.200000
v -2.629086 22.728172 -1.200000
v -1.555988 23.424736 -1.200000
v -1.349123 22.504692 -1.200000
v -2.276080 21.864412 -1.200000
v -2.276080 21.864412 1.200000
v -2.276080 21.864412 -1.200000
v -1.349123 22.504692 -1.200000
v -1.349123 22.504692 1.200000
v -1.349123 22.504692 1.200000
v -1.349123 22.504692 -1.200000
v -1.555988 23.424736 -1.200000
v -1.555988 23.424736 1.200000
v -1.555988 23.424736 1.200000
v -1.555988 23.424736 -1.200000
v -2.629086 22.728172 -1.200000
v -2.629086 22.728172 1.200000
v -2.629086 22.728172 1.200000
v -2.629086 22.728172 -1.200000
v -2.276080 21.864412 -1.200000
v -2.276080 21.864412 1.200000
v -1.349123 22.504692 1.200000
v -0.347582 23.020563 1.200000
v -0.400175 23.973225 1.200000
v -1.555988 23.424736 1.200000
v -1.555988 23.424736 -1.200000
v -0.400175 23.973225 -1.200000
v -0.347582 23.020563 -1.200000
v -1.349123 22.504692 -1.200000
v -1.349123 22.504692 1.200000
v -1.349123 22.504692 -1.200000
v -0.347582 23.020563 -1.200000
v -0.347582 23.020563 1.200000
v -0.347582 23.020563 1.200000
v -0.347582 23.020563 -1.200000
v -0.400175 23.973225 -1.200000
v -0.400175 23.973225 1.200000
v -0.400175 23.973225 1.200000
v -0.400175 23.973225 -1.200000
v -1.555988 23.424736 -1.200000
v -1.555988 23.424736 1.200000
v -1.555988 23.424736 1.200000
v -1.555988 23.424736 -1.200000
v -1.349123 22.504692 -1.200000
v -1.349123 22.504692 1.200000
v -0.347582 23.020563 1.200000
v 0.688714 22.863001 1.200000
v 0.793409 23.807499 1.200000
v -0.400175 23.973225 1.200000
v -0.400175 23.973225 -1.200000
v 0.793409 23.807499 -1.200000
v 0.688714 22.863001 -1.200000
v -0.347582 23.020563 -1.200000
v -0.347582 23.020563 1.200000
v -0.347582 23.020563 -1.200000
v 0.688714 22.863001 -1.200000
v 0.688714 22.863001 1.200000
v 0.688714 22.863001 1.200000
v 0.688714 22.863001 -1.200000
v 0.793409 23.807499 -1.200000
v 0.793409 23.807499 1.200000
v 0.793409 23.807499 1.200000
v 0.793409 23.807499 -1.200000
v -0.400175 23.973225 -1.200000
v -0.400175 23.973225 1.200000
v -0.400175 23.973225 1.200000
v -0.400175 23.973225 -1.200000
v -0.347582 23.020563 -1.200000
v -0.347582 23.020563 1.200000
v 0.688714 22.863001 1.200000
v 1.667182 22.304605 1.200000
v 1.923842 23.208448 1.200000
v 0.793409 23.807499 1.200000
v 0.793409 23.807499 -1.200000
v 1.923842 23.208448 -1.200000
v 1.667182 22.304605 -1.200000
v 0.688714 22.863001 -1.200000
v 0.688714 22.863001 1.200000
v 0.688714 22.863001 -1.200000
v 1.667182 22.304605 -1.200000
v 1.667182 22.304605 1.200000
v 1.667182 22.304605 1.200000
v 1.667182 22.304605 -1.200000
v 1.923842 23.208448 -1.200000
v 1.923842 23.208448 1.200000
v 1.923842 23.208448 1.200000
v 1.923842 23.208448 -1.200000
v 0.793409 23.807499 -1.200000
v 0.793409 23.807499 1.200000
v 0.793409 23.807499 1.200000
v 0.793409 23.807499 -1.200000
v 0.688714 22.863001 -1.200000
v 0.688714 22.863001 1.200000
v 1.667182 22.304605 1.200000
v 2.565795 21.625118 1.200000
v 2.965097 22.465124 1.200000
v 1.923842 23.208448 1.200000
v 1.923842 23.208448 -1.200000
v 2.965097 22.465124 -1.200000
v 2.565795 21.625118 -1.200000
v 1.667182 22.304605 -1.200000
v 1.667182 22.304605 1.200000
v 1.667182 22.304605 -1.200000
v 2.565795 21.625118 -1.200000
v 2.565795 21.625118 1.200000
v 2.565795 21.625118 1.200000
v 2.565795 21.625118 -1.200000
v 2.965097 22.465124 -1.200000
v 2.965097 22.465124 1.200000
v 2.965097 22.465124 1.200000
v 2.965097 22.465124 -1.200000
v 1.923842 23.208448 -1.200000
v 1.923842 23.208448 1.200000
v 1.923842 23.208448 1.200000
v 1.923842 23.208448 -1.200000
v 1.667182 22.304605 -1.200000
v 1.667182 22.304605 1.200000
v -6.500000 15.000000 0.900000
v -6.415195 16.276537 0.900000
v -7.204225 16.411570 0.900000
v -7.300000 15.000000 0.900000
v -7.300000 15.000000 -0.900000
v -7.204225 16.411570 -0.900000
v -6.415195 16.276537 -0.900000
v -6.500000 15.000000 -0.900000
v -6.500000 15.000000 0.900000
v -6.500000 15.000000 -0.900000
v -6.415195 16.276537 -0.900000
v -6.415195 16.276537 0.900000
v -6.415195 16.276537 0.900000
v -6.415195 16.276537 -0.900000
v -7.204225 16.411570 -0.900000
v -7.204225 16.411570 0.900000
v -7.204225 16.411570 0.900000
v -7.204225 16.411570 -0.900000
v -7.300000 15.000000 -0.900000
v -7.300000 15.000000 0.900000
v -7.300000 15.000000 0.900000
v -7.300000 15.000000 -0.900000
v -6.500000 15.000000 -0.900000
v -6.500000 15.000000 0.900000
v -6.415195 16.276537 0.900000
v -6.162270 17.530640 0.900000
v -6.918654 17.797266 0.900000
v -7.204225 16.411570 0.900000
v -7.204225 16.411570 -0.900000
v -6.918654 17.797266 -0.900000
v -6.162270 17.530640 -0.900000
v -6.415195 16.276537 -0.900000
v -6.415195 16.276537 0.900000
v -6.415195 16.276537 -0.900000
v -6.162270 17.530640 -0.900000
v -6.162270 17.530640 0.900000
v -6.162270 17.530640 0.900000
v -6.162270 17.530640 -0.900000
v -6.918654 17.797266 -0.900000
v -6.918654 17.797266 0.900000
v -6.918654 17.797266 0.900000
v -6.918654 17.797266 -0.900000
v -7.204225 16.411570 -0.900000
v -7.204225 16.411570 0.900000
v -7.204225 16.411570 0.900000
v -7.204225 16.411570 -0.900000
v -6.415195 16.276537 -0.900000
v -6.415195 16.276537 0.900000
v -6.162270 17.530640 0.900000
v -5.745670 18.740261 0.900000
v -6.448524 19.131689 0.900000
v -6.918654 17.797266 0.900000
v -6.918654 17.797266 -0.900000
v -6.448524 19.131689 -0.900000
v -5.745670 18.740261 -0.900000
v -6.162270 17.530640 -0.900000
v -6.162270 17.530640 0.900000
v -6.162270 17.530640 -0.900000
v -5.745670 18.740261 -0.900000
v -5.745670 18.740261 0.900000
v -5.745670 18.740261 0.900000
v -5.745670 18.740261 -0.900000
v -6.448524 19.131689 -0.900000
v -6.448524 19.131689 0.900000
v -6.448524 19.131689 0.900000
v -6.448524 19.131689 -0.900000
v -6.918654 17.797266 -0.900000
v -6.918654 17.797266 0.900000
v -6.918654 17.797266 0.900000
v -6.918654 17.797266 -0.900000
v -6.162270 17.530640 -0.900000
v -6.162270 17.530640 0.900000
v -5.745670 18.740261 0.900000
v -5.172719 19.884144 0.900000
v -5.802450 20.390375 0.900000
v -6.448524 19.131689 0.900000
v -6.448524 19.131689 -0.900000
v -5.802450 20.390375 -0.900000
v -5.172719 19.884144 -0.900000
v -5.745670 18.740261 -0.900000
v -5.745670 18.740261 0.900000
v -5.745670 18.740261 -0.900000
v -5.172719 19.884144 -0.900000
v -5.172719 19.884144 0.900000
v -5.172719 19.884144 0.900000
v -5.172719 19.884144 -0.900000
v -5.802450 20.390375 -0.900000
v -5.802450 20.390375 0.900000
v -5.802450 20.390375 0.900000
v -5.802450 20.390375 -0.900000
v -6.448524 19.131689 -0.900000
v -6.448524 19.131689 0.900000
v -6.448524 19.131689 0.900000
v -6.448524 19.131689 -0.900000
v -5.745670 18.740261 -0.900000
v -5.745670 18.740261 0.900000
v -5.172719 19.884144 0.900000
v -4.453485 20.942181 0.900000
v -4.992276 21.550255 0.900000
v -5.802450 20.390375 0.900000
v -5.802450 20.390375 -0.900000
v -4.992276 21.550255 -0.900000
v -4.453485 20.942181 -0.900000
v -5.172719 19.884144 -0.900000
v -5.172719 19.884144 0.900000
v -5.172719 19.884144 -0.900000
v -4.453485 20.942181 -0.900000
v -4.453485 20.942181 0.900000
v -4.453485 20.942181 0.900000
v -4.453485 20.942181 -0.900000
v -4.992276 21.550255 -0.900000
v -4.992276 21.550255 0.900000
v -4.992276 21.550255 0.900000
v -4.992276 21.550255 -0.900000
v -5.802450 20.390375 -0.900000
v -5.802450 20.390375 0.900000
v -5.802450 20.390375 0.900000
v -5.802450 20.390375 -0.900000
v -5.172719 19.884144 -0.900000
v -5.172719 19.884144 0.900000
v -4.453485 20.942181 0.900000
v -3.600610 21.895779 0.900000
v -4.032852 22.590069 0.900000
v -4.992276 21.550255 0.900000
v -4.992276 21.550255 -0.900000
v -4.032852 22.590069 -0.900000
v -3.600610 21.895779 -0.900000
v -4.453485 20.942181 -0.900000
v -4.453485 20.942181 0.900000
v -4.453485 20.942181 -0.900000
v -3.600610 21.895779 -0.900000
v -3.600610 21.895779 0.900000
v -3.600610 21.895779 0.900000
v -3.600610 21.895779 -0.900000
v -4.032852 22.590069 -0.900000
v -4.032852 22.590069 0.900000
v -4.032852 22.590069 0.900000
v -4.032852 22.590069 -0.900000
v -4.992276 21.550255 -0.900000
v -4.992276 21.550255 0.900000
v -4.992276 21.550255 0.900000
v -4.992276 21.550255 -0.900000
v -4.453485 20.942181 -0.900000
v -4.453485 20.942181 0.900000
v -3.600610 21.895779 0.900000
v -2.629086 22.728172 0.900000
v -2.941765 23.490753 0.900000
v -4.032852 22.590069 0.900000
v -4.032852 22.590069 -0.900000
v -2.941765 23.490753 -0.900000
v -2.629086 22.728172 -0.900000
v -3.600610 21.895779 -0.900000
v -3.600610 21.895779 0.900000
v -3.600610 21.895779 -0.900000
v -2.629086 22.728172 -0.900000
v -2.629086 22.728172 0.900000
v -2.629086 22.728172 0.900000
v -2.629086 22.728172 -0.900000
v -2.941765 23.490753 -0.900000
v -2.941765 23.490753 0.900000
v -2.941765 23.490753 0.900000
v -2.941765 23.490753 -0.900000
v -4.032852 22.590069 -0.900000
v -4.032852 22.590069 0.900000
v -4.032852 22.590069 0.900000
v -4.032852 22.590069 -0.900000
v -3.600610 21.895779 -0.900000
v -3.600610 21.895779 0.900000
v -2.629086 22.728172 0.900000
v -1.555988 23.424736 0.900000
v -1.739015 24.235802 0.900000
v -2.941765 23.490753 0.900000
v -2.941765 23.490753 -0.900000
v -1.739015 24.235802 -0.900000
v -1.555988 23.424736 -0.900000
v -2.629086 22.728172 -0.900000
v -2.629086 22.728172 0.900000
v -2.629086 22.728172 -0.900000
v -1.555988 23.424736 -0.900000
v -1.555988 23.424736 0.900000
v -1.555988 23.424736 0.900000
v -1.555988 23.424736 -0.900000
v -1.739015 24.235802 -0.900000
v -1.739015 24.235802 0.900000
v -1.739015 24.235802 0.900000
v -1.739015 24.235802 -0.900000
v -2.941765 23.490753 -0.900000
v -2.941765 23.490753 0.900000
v -2.941765 23.490753 0.900000
v -2.941765 23.490753 -0.900000
v -2.629086 22.728172 -0.900000
v -2.629086 22.728172 0.900000
v -1.555988 23.424736 0.900000
v -0.400175 23.973225 0.900000
v -0.446648 24.811556 0.900000
v -1.739015 24.235802 0.900000
v -1.739015 24.235802 -0.900000
v -0.446648 24.811556 -0.900000
v -0.400175 23.973225 -0.900000
v -1.555988 23.424736 -0.900000
v -1.555988 23.424736 0.900000
v -1.555988 23.424736 -0.900000
v -0.400175 23.973225 -0.900000
v -0.400175 23.973225 0.900000
v -0.400175 23.973225 0.900000
v -0.400175 23.973225 -0.900000
v -0.446648 24.811556 -0.900000
v -0.446648 24.811556 0.900000
v -0.446648 24.811556 0.900000
v -0.446648 24.811556 -0.900000
v -1.739015 24.235802 -0.900000
v -1.739015 24.235802 0.900000
v -1.739015 24.235802 0.900000
v -1.739015 24.235802 -0.900000
v -1.555988 23.424736 -0.900000
v -1.555988 23.424736 0.900000
v -0.400175 23.973225 0.900000
v 0.793409 23.807499 0.900000
v 0.885962 24.639166 0.900000
v -0.446648 24.811556 0.900000
v -0.446648 24.811556 -0.900000
v 0.885962 24.639166 -0.900000
v 0.793409 23.807499 -0.900000
v -0.400175 23.973225 -0.900000
v -0.400175 23.973225 0.900000
v -0.400175 23.973225 -0.900000
v 0.793409 23.807499 -0.900000
v 0.793409 23.807499 0.900000
v 0.793409 23.807499 0.900000
v 0.793409 23.807499 -0.900000
v 0.885962 24.639166 -0.900000
v 0.885962 24.639166 0.900000
v 0.885962 24.639166 0.900000
v 0.885962 24.639166 -0.900000
v -0.446648 24.811556 -0.900000
v -0.446648 24.811556 0.900000
v -0.446648 24.811556 0.900000
v -0.446648 24.811556 -0.900000
v -0.400175 23.973225 -0.900000
v -0.400175 23.973225 0.900000
v 0.793409 23.807499 0.900000
v 1.923842 23.208448 0.900000
v 2.151016 24.005650 0.900000
v 0.885962 24.639166 0.900000
v 0.885962 24.639166 -0.900000
v 2.151016 24.005650 -0.900000
v 1.923842 23.208448 -0.900000
v 0.793409 23.807499 -0.900000
v 0.793409 23.807499 0.900000
v 0.793409 23.807499 -0.900000
v 1.923842 23.208448 -0.900000
v 1.923842 23.208448 0.900000
v 1.923842 23.208448 0.900000
v 1.923842 23.208448 -0.900000
v 2.151016 24.005650 -0.900000
v 2.151016 24.005650 0.900000
v 2.151016 24.005650 0.900000
v 2.151016 24.005650 -0.900000
v 0.885962 24.639166 -0.900000
v 0.885962 24.639166 0.900000
v 0.885962 24.639166 0.900000
v 0.885962 24.639166 -0.900000
v 0.793409 23.807499 -0.900000
v 0.793409 23.807499 0.900000
v 1.923842 23.208448 0.900000
v 2.965097 22.465124 0.900000
v 3.318901 23.207060 0.900000
v 2.151016 24.005650 0.900000
v 2.151016 24.005650 -0.900000
v 3.318901 23.207060 -0.900000
v 2.965097 22.465124 -0.900000
v 1.923842 23.208448 -0.900000
v 1.923842 23.208448 0.900000
v 1.923842 23.208448 -0.900000
v 2.965097 22.465124 -0.900000
v 2.965097 22.465124 0.900000
v 2.965097 22.465124 0.900000
v 2.965097 22.465124 -0.900000
v 3.318901 23.207060 -0.900000
v 3.318901 23.207060 0.900000
v 3.318901 23.207060 0.900000
v 3.318901 23.207060 -0.900000
v 2.151016 24.005650 -0.900000
v 2.151016 24.005650 0.900000
v 2.151016 24.005650 0.900000
v 2.151016 24.005650 -0.900000
v 1.923842 23.208448 -0.900000
v 1.923842 23.208448 0.900000
v -6.230000 16.000000 0.630000
v -6.230000 16.000000 -0.630000
v -4.970000 16.000000 -0.630000
v -4.970000 16.000000 0.630000
v -6.230000 17.200001 0.630000
v -4.970000 17.200001 0.630000
v -4.970000 17.200001 -0.630000
v -6.230000 17.200001 -0.630000
v -6.230000 16.000000 0.630000
v -4.970000 16.000000 0.630000
v -4.970000 17.200001 0.630000
v -6.230000 17.200001 0.630000
v -6.230000 16.000000 -0.630000
v -6.230000 17.200001 -0.630000
v -4.970000 17.200001 -0.630000
v -4.970000 16.000000 -0.630000
v -6.230000 16.000000 0.630000
v -6.230000 17.200001 0.630000
v -6.230000 17.200001 -0.630000
v -6.230000 16.000000 -0.630000
v -4.970000 16.000000 0.630000
v -4.970000 16.000000 -0.630000
v -4.970000 17.200001 -0.630000
v -4.970000 17.200001 0.630000
v -4.963604 17.200001 -0.636396
v -6.236396 17.200001 -0.636396
v -5.600000 23.200001 0.000000
v -6.236396 17.200001 -0.636396
v -6.236396 17.200001 0.636396
v -5.600000 23.200001 0.000000
v -6.236396 17.200001 0.636396
v -4.963604 17.200001 0.636396
v -5.600000 23.200001 0.000000
v -4.963604 17.200001 0.636396
v -4.963604 17.200001 -0.636396
v -5.600000 23.200001 0.000000
vn -0.0000 -1.0000 -0.0000
vn -0.0000 1.0000 -0.0000
vn -0.0000 -0.0000 -1.0000
vn -0.0000 -0.0000 1.0000
vn -1.0000 -0.0000 -0.0000
vn 1.0000 -0.0000 -0.0000
vn -0.9877 -0.0000 -0.1564
vn 0.8910 -0.0000 0.4540
vn -0.7071 -0.0000 -0.7071
vn 0.4540 -0.0000 0.8910
vn 0.1564 -0.0000 0.9877
vn -0.1564 -0.0000 0.9877
vn 0.4540 -0.0000 -0.8910
vn 0.7071 -0.0000 -0.7071
vn 0.8910 -0.0000 -0.4540
vn -0.9877 -0.0000 0.1564
vn 0.9877 -0.0000 0.1564
vn 0.7071 -0.0000 0.7071
vn -0.8910 -0.0000 0.4540
vn -0.8910 -0.0000 -0.4540
vn -0.4540 -0.0000 -0.8910
vn -0.1564 -0.0000 -0.9877
vn 0.1564 -0.0000 -0.9877
vn 0.9877 -0.0000 -0.1564
vn -0.7071 -0.0000 0.7071
vn -0.9992 0.0409 -0.0000
vn 0.1135 0.9935 -0.0000
vn 0.9991 -0.0429 -0.0000
vn -0.9925 0.1225 -0.0000
vn 0.2255 0.9742 -0.0000
vn -0.9917 0.1285 -0.0000
vn -0.1135 -0.9935 -0.0000
vn -0.9791 0.2033 -0.0000
vn 0.3345 0.9424 -0.0000
vn 0.9770 -0.2131 -0.0000
vn -0.2255 -0.9742 -0.0000
vn 0.9592 -0.2827 -0.0000
vn -0.4390 -0.8985 -0.0000
vn -0.9551 0.2961 -0.0000
vn -0.9329 0.3602 -0.0000
vn -0.5378 -0.8431 -0.0000
vn 0.9262 -0.3770 -0.0000
vn 0.9003 -0.4353 -0.0000
vn -0.6294 -0.7771 -0.0000
vn 0.8905 -0.4550 -0.0000
vn 0.5378 0.8431 -0.0000
vn -0.8617 0.5075 -0.0000
vn 0.7128 0.7014 -0.0000
vn 0.8481 -0.5298 -0.0000
vn -0.8173 0.5763 -0.0000
vn 0.7869 0.6171 -0.0000
vn 0.7996 -0.6006 -0.0000
vn -0.7674 0.6412 -0.0000
vn -0.8509 -0.5253 -0.0000
vn -0.7451 0.6669 -0.0000
vn -0.7869 -0.6171 -0.0000
vn 0.7124 -0.7018 -0.0000
vn 0.9041 0.4273 -0.0000
vn 0.6851 -0.7284 -0.0000
vn 0.8509 0.5253 -0.0000
vn 0.6526 -0.7577 -0.0000
vn 0.9459 0.3244 -0.0000
vn -0.6201 0.7845 -0.0000
vn -0.9041 -0.4273 -0.0000
vn 0.5884 -0.8086 -0.0000
vn 0.9760 0.2180 -0.0000
vn 0.5505 -0.8348 -0.0000
vn -0.9459 -0.3244 -0.0000
vn -0.5203 0.8540 -0.0000
vn -0.9940 -0.1094 -0.0000
vn 0.4769 -0.8790 -0.0000
vn -0.9760 -0.2180 -0.0000
vn 0.4487 -0.8937 -0.0000
vn 0.3997 -0.9166 -0.0000
vn -0.4487 -0.8937 -0.0000
vn 0.9940 -0.1094 -0.0000
vn -0.3997 -0.9166 -0.0000
vn 0.5203 0.8540 -0.0000
vn -0.9760 0.2180 -0.0000
vn -0.4769 -0.8790 -0.0000
vn -0.5884 -0.8086 -0.0000
vn -0.9459 0.3244 -0.0000
vn -0.5505 -0.8348 -0.0000
vn 0.9760 -0.2180 -0.0000
vn 0.9979 -0.0644 -0.0000
vn -0.1691 -0.9856 -0.0000
vn 0.9978 -0.0663 -0.0000
vn 0.9814 -0.1921 -0.0000
vn 0.3332 0.9429 -0.0000
vn 0.9803 -0.1977 -0.0000
vn 0.9486 -0.3166 -0.0000
vn 0.4875 0.8731 -0.0000
vn 0.9455 -0.3256 -0.0000
vn -0.3332 -0.9429 -0.0000
vn -0.9000 0.4358 -0.0000
vn 0.6275 0.7786 -0.0000
vn 0.8941 -0.4478 -0.0000
vn -0.8366 0.5478 -0.0000
vn -0.7494 -0.6621 -0.0000
vn -0.8270 0.5622 -0.0000
vn -0.6275 -0.7786 -0.0000
vn -0.7593 0.6508 -0.0000
vn -0.8496 -0.5274 -0.0000
vn 0.7454 -0.6666 -0.0000
vn 0.6693 -0.7430 -0.0000
vn 0.9257 0.3783 -0.0000
vn 0.6506 -0.7594 -0.0000
vn 0.5683 -0.8228 -0.0000
vn -0.9756 -0.2194 -0.0000
vn -0.5445 0.8388 -0.0000
vn -0.4579 0.8890 -0.0000
vn 0.9985 0.0551 -0.0000
vn 0.4287 -0.9034 -0.0000
vn -0.1503 -0.9886 -0.0000
vn 0.9939 -0.1102 -0.0000
vn 0.1375 0.9905 -0.0000
vn 0.4957 0.8685 -0.0000
vn 0.9620 -0.2732 -0.0000
vn -0.4682 -0.8836 -0.0000
vn -0.6031 -0.7976 -0.0000
vn -0.9032 0.4293 -0.0000
vn -0.5810 -0.8139 -0.0000
vn -0.1687 -0.9857 -0.0000
vn -0.9977 0.0677 -0.0000
vn -0.3324 -0.9431 -0.0000
vn -0.9794 0.2018 -0.0000
vn -0.9455 0.3256 -0.0000
vn -0.4865 -0.8737 -0.0000
vn 0.9432 -0.3323 -0.0000
vn 0.3325 0.9431 -0.0000
vn -0.8941 0.4478 -0.0000
vn -0.6265 -0.7794 -0.0000
vn -0.8896 0.4566 -0.0000
vn 0.4866 0.8737 -0.0000
vn -0.7485 -0.6632 -0.0000
vn 0.8198 -0.5726 -0.0000
vn 0.6265 0.7794 -0.0000
vn -0.7454 0.6666 -0.0000
vn 0.8489 0.5285 -0.0000
vn -0.7349 0.6781 -0.0000
vn 0.7485 0.6632 -0.0000
vn 0.9252 0.3794 -0.0000
vn 0.6366 -0.7712 -0.0000
vn -0.9755 -0.2201 -0.0000
vn -0.5266 0.8501 -0.0000
vn -0.9252 -0.3794 -0.0000
vn -0.9985 -0.0553 -0.0000
vn -0.4069 0.9135 -0.0000
vn -0.9939 0.1106 -0.0000
vn -0.1283 -0.9917 -0.0000
vn -0.9985 -0.0554 -0.0000
vn 0.4682 0.8836 -0.0000
vn 0.9617 -0.2741 -0.0000
vn 0.4478 0.8941 -0.0000
vn -0.9026 0.4304 -0.0000
vn 0.5644 0.8255 -0.0000
vn -0.0000 -0.1055 0.9944
vn 0.9944 -0.1055 -0.0000
vn -0.0000 -0.1055 -0.9944
vn 0.9944 0.1055 -0.0000
vn -0.3325 -0.9431 -0.0000
vn -0.4866 -0.8737 -0.0000
vn 0.3324 0.9431 -0.0000
vn 0.4865 0.8737 -0.0000
vt 0.025000 0.574900
vt 0.974700 0.425000
vt 0.025000 0.425000
vt 0.025000 0.175000
vt 0.974700 0.000000
vt 0.025000 0.000000
vt 0.425000 0.175000
vt 0.574900 0.000000
vt 0.425000 0.000000
vt 0.849700 0.500000
vt 0.150000 0.499900
vt 0.150000 0.500000
vt 0.849700 0.175000
vt 0.150000 0.300000
vt 0.150000 0.175000
vt 0.500000 0.300000
vt 0.499900 0.175000
vt 0.500000 0.175000
vt 0.225000 0.437400
vt 0.975000 0.562500
vt 0.225000 0.562500
vt 0.225000 0.500000
vt 0.975000 0.300000
vt 0.225000 0.300000
vt 0.562500 0.500000
vt 0.437400 0.300000
vt 0.562500 0.300000
vt 0.325000 0.374900
vt 0.875000 0.625000
vt 0.325000 0.625000
vt 0.325000 0.749700
vt 0.875000 0.500000
vt 0.325000 0.500000
vt 0.625000 0.749700
vt 0.374900 0.500000
vt 0.625000 0.500000
vt 0.600279 0.649700
vt 0.600279 0.500000
vt 0.577977 0.649700
vt 0.577977 0.500000
vt 0.560279 0.649700
vt 0.560279 0.500000
vt 0.495773 0.500000
vt 0.473471 0.649700
vt 0.473471 0.500000
vt 0.448750 0.649700
vt 0.448750 0.500000
vt 0.424029 0.649700
vt 0.424029 0.500000
vt 0.401727 0.649700
vt 0.401727 0.500000
vt 0.625000 0.649700
vt 0.798273 0.500000
vt 0.775971 0.649700
vt 0.775971 0.500000
vt 0.751250 0.649700
vt 0.751250 0.500000
vt 0.726529 0.649700
vt 0.726529 0.500000
vt 0.704227 0.649700
vt 0.704227 0.500000
vt 0.737500 0.597500
vt 0.462500 0.627500
vt 0.462500 0.597500
vt 0.737500 0.250000
vt 0.462500 0.999000
vt 0.462500 0.250000
vt 0.627500 0.250000
vt 0.597500 0.999000
vt 0.597500 0.250000
vt 0.737500 0.375000
vt 0.462500 0.124900
vt 0.462500 0.375000
vt 0.597500 0.124900
vt 0.627500 0.375000
vt 0.597500 0.375000
vt 0.212500 0.449900
vt 0.987500 0.550000
vt 0.212500 0.550000
vt 0.987500 0.750000
vt 0.212500 0.925000
vt 0.212500 0.750000
vt 0.449900 0.750000
vt 0.550000 0.925000
vt 0.550000 0.750000
vt 0.262500 0.412400
vt 0.937500 0.587500
vt 0.262500 0.587500
vt 0.937500 0.925000
vt 0.262500 0.999000
vt 0.262500 0.925000
vt 0.587500 0.999000
vt 0.412400 0.925000
vt 0.587500 0.925000
vt 0.025000 0.437400
vt 0.775000 0.562500
vt 0.025000 0.562500
vt 0.025000 0.500000
vt 0.775000 0.300000
vt 0.025000 0.300000
vt 0.125000 0.374900
vt 0.675000 0.625000
vt 0.125000 0.625000
vt 0.675000 0.500000
vt 0.125000 0.795893
vt 0.125000 0.500000
vt 0.625000 0.795893
vt 0.600279 0.695893
vt 0.577977 0.695893
vt 0.560279 0.695893
vt 0.273471 0.695893
vt 0.295773 0.500000
vt 0.273471 0.500000
vt 0.248750 0.695893
vt 0.248750 0.500000
vt 0.224029 0.695893
vt 0.224029 0.500000
vt 0.201727 0.695893
vt 0.201727 0.500000
vt 0.625000 0.695893
vt 0.598273 0.500000
vt 0.575971 0.695893
vt 0.575971 0.500000
vt 0.551250 0.695893
vt 0.551250 0.500000
vt 0.526529 0.695893
vt 0.526529 0.500000
vt 0.504227 0.695893
vt 0.504227 0.500000
vt 0.537500 0.597500
vt 0.262500 0.627500
vt 0.262500 0.597500
vt 0.537500 0.250000
vt 0.262500 0.250000
vt 2.860000 2.056150
vt 2.880000 2.793750
vt 2.860000 2.793750
vt 2.880000 2.500000
vt 2.860000 2.749700
vt 2.860000 2.500000
vt 2.793750 2.749700
vt 2.056150 2.500000
vt 2.793750 2.500000
vt 2.120000 2.056150
vt 2.140000 2.793750
vt 2.120000 2.793750
vt 2.140000 2.500000
vt 2.120000 2.795893
vt 2.120000 2.500000
vt 2.793750 2.795893
vt 0.881408 0.906432
vt 0.600000 0.750000
vt 0.875000 0.750000
vt 2.625000 2.906432
vt 2.374900 2.750000
vt 2.625000 2.750000
vt 0.881408 0.374900
vt 0.608065 0.625000
vt 0.881408 0.625000
vt 0.625000 0.750000
vt 0.374900 0.937664
vt 0.625000 0.937664
vt 0.600000 0.374900
vt 0.600000 0.625000
vt 0.608065 0.937664
vt 0.900591 0.061716
vt 2.625000 2.061716
vt 2.374900 2.906432
vt 0.900591 0.374900
vt 0.632199 0.625000
vt 0.900591 0.625000
vt 0.374900 0.123844
vt 0.625000 0.123844
vt 0.608065 0.374900
vt 0.632199 0.123944
vt 0.932418 0.215111
vt 0.900591 0.061816
vt 0.672226 0.307468
vt 2.625000 2.215111
vt 2.374900 2.061816
vt 2.625000 2.061816
vt 0.932418 0.374900
vt 0.672226 0.625000
vt 0.932418 0.625000
vt 0.625000 0.123944
vt 0.374900 0.307468
vt 0.625000 0.307468
vt 0.632199 0.374900
vt 0.976678 0.365288
vt 2.374900 2.215111
vt 2.625000 2.365288
vt 0.727849 0.625000
vt 0.976678 0.374900
vt 0.976678 0.625000
vt 0.374900 0.486880
vt 0.625000 0.486880
vt 0.672226 0.374900
vt 0.032973 0.511342
vt 0.727849 0.486880
vt 2.625000 2.511342
vt 2.374900 2.365288
vt 0.798658 0.625000
vt 0.032973 0.374900
vt 0.032973 0.625000
vt 0.374900 0.660860
vt 0.625000 0.660860
vt 0.727849 0.374900
vt 0.798658 0.660860
vt 0.101125 0.652294
vt 2.374900 2.511342
vt 2.625000 2.652294
vt 0.884133 0.625000
vt 0.101125 0.374900
vt 0.101125 0.625000
vt 0.374900 0.828123
vt 0.625000 0.828123
vt 0.798658 0.374900
vt 0.180579 0.787199
vt 0.884133 0.828123
vt 2.625000 2.787199
vt 2.374900 2.652294
vt 0.374900 0.787199
vt 0.625000 0.987437
vt 0.625000 0.787199
vt 0.374900 0.987437
vt 0.884133 0.374900
vt 0.270800 0.915153
vt 0.983641 0.987437
vt 2.625000 2.915153
vt 2.374900 2.787199
vt 0.374900 0.915153
vt 0.625000 0.137527
vt 0.625000 0.915153
vt 0.374900 0.137527
vt 0.371285 0.035198
vt 0.096450 0.137527
vt 0.270900 0.915153
vt 2.625000 2.035198
vt 2.374900 2.915153
vt 0.625000 0.277585
vt 0.374900 0.035298
vt 0.625000 0.035298
vt 0.374900 0.277585
vt 0.625000 0.137627
vt 0.481161 0.146831
vt 0.221728 0.277585
vt 0.371285 0.035298
vt 2.374900 2.035298
vt 2.625000 2.146831
vt 2.625000 2.035298
vt 0.374900 0.146831
vt 0.625000 0.406280
vt 0.625000 0.146831
vt 0.221728 0.625000
vt 0.358551 0.374900
vt 0.358551 0.625000
vt 0.599792 0.249002
vt 0.358551 0.406280
vt 2.481161 2.374900
vt 2.599792 2.625000
vt 2.481161 2.625000
vt 0.374900 0.249002
vt 0.625000 0.522762
vt 0.625000 0.249002
vt 0.505910 0.374900
vt 0.505910 0.625000
vt 0.374900 0.406280
vt 0.726382 0.341127
vt 0.505910 0.522762
vt 2.599792 2.374900
vt 2.726382 2.625000
vt 0.374900 0.341127
vt 0.625000 0.626173
vt 0.625000 0.341127
vt 0.662719 0.374900
vt 0.662719 0.625000
vt 0.374900 0.522762
vt 0.662719 0.626173
vt 0.860083 0.422589
vt 0.827822 0.715750
vt 2.860084 2.625000
vt 2.726382 2.374900
vt 0.625000 0.715750
vt 0.374900 0.422589
vt 0.625000 0.422589
vt 0.827822 0.374900
vt 0.827822 0.625000
vt 0.374900 0.626173
vt 0.999000 0.492842
vt 2.860084 2.374900
vt 2.999000 2.625000
vt 0.374900 0.492842
vt 0.625000 0.790833
vt 0.625000 0.492842
vt 0.999000 0.374900
vt 0.999000 0.625000
vt 0.374900 0.715750
vt 0.172078 0.715750
vt 0.999000 0.790833
vt 2.000000 2.374900
vt 2.139916 2.625000
vt 2.000000 2.625000
vt 0.172078 0.374900
vt 0.172078 0.625000
vt 0.374900 0.790833
vt 0.139917 0.422589
vt 0.337281 0.626173
vt 0.273618 0.341127
vt 0.172178 0.715750
vt 2.273618 2.625000
vt 2.139916 2.374900
vt 0.172178 0.625000
vt 0.337281 0.374900
vt 0.337281 0.625000
vt 0.494090 0.522762
vt 2.273618 2.374900
vt 2.400208 2.625000
vt 0.494090 0.374900
vt 0.494090 0.625000
vt 0.618132 0.030963
vt 0.375000 0.750000
vt 0.299900 0.750000
vt 0.700000 0.030963
vt 0.700000 0.750000
vt 0.396201 0.700000
vt 0.618132 0.299900
vt 0.618132 0.700000
vt 0.299900 0.069034
vt 0.700000 0.069034
vt 0.375000 0.299900
vt 0.600000 0.700000
vt 0.375000 0.700000
vt 0.396201 0.069134
vt 0.618132 0.031063
vt 0.459433 0.382660
vt 0.299900 0.031063
vt 0.700000 0.307468
vt 0.700000 0.031063
vt 0.672226 0.299900
vt 0.459433 0.700000
vt 0.672226 0.700000
vt 0.700000 0.069134
vt 0.299900 0.382660
vt 0.700000 0.382660
vt 0.396201 0.299900
vt 0.761385 0.574630
vt 0.299900 0.307468
vt 0.700000 0.574630
vt 0.761385 0.299900
vt 0.563582 0.700000
vt 0.761385 0.700000
vt 0.299900 0.685065
vt 0.700000 0.685065
vt 0.459433 0.299900
vt 0.563582 0.685065
vt 0.700000 0.828123
vt 0.299900 0.574630
vt 0.884133 0.299900
vt 0.706820 0.700000
vt 0.884133 0.700000
vt 0.299900 0.971036
vt 0.700000 0.971036
vt 0.563582 0.299900
vt 0.038333 0.063643
vt 0.706820 0.971036
vt 0.700000 0.063643
vt 0.299900 0.828123
vt 0.700000 0.235545
vt 0.299900 0.063743
vt 0.700000 0.063743
vt 0.299900 0.235445
vt 0.700000 0.235445
vt 0.706820 0.299900
vt 0.886629 0.235545
vt 0.221628 0.277585
vt 0.038333 0.063743
vt 0.700000 0.277585
vt 0.700000 0.473945
vt 0.299900 0.277585
vt 0.299900 0.473945
vt 0.299900 0.235545
vt 0.430980 0.466103
vt 0.099847 0.473945
vt 0.221728 0.299900
vt 0.430980 0.700000
vt 0.221728 0.700000
vt 0.299900 0.466103
vt 0.700000 0.682043
vt 0.700000 0.466103
vt 0.099847 0.700000
vt 0.342728 0.299900
vt 0.342728 0.700000
vt 0.342728 0.682043
vt 0.430980 0.299900
vt 0.662719 0.700000
vt 0.700000 0.856184
vt 0.299900 0.626173
vt 0.700000 0.626173
vt 0.611003 0.299900
vt 0.611003 0.700000
vt 0.299900 0.682043
vt 0.913105 0.755141
vt 0.611003 0.856184
vt 0.913105 0.700000
vt 0.662719 0.299900
vt 0.299900 0.755141
vt 0.700000 0.993306
vt 0.700000 0.755141
vt 0.899956 0.299900
vt 0.899956 0.700000
vt 0.299900 0.856184
vt 0.198252 0.951875
vt 0.899956 0.993306
vt 0.913105 0.299900
vt 0.172078 0.700000
vt 0.299900 0.715750
vt 0.700000 0.951875
vt 0.700000 0.715750
vt 0.198252 0.299900
vt 0.198252 0.700000
vt 0.299900 0.993306
vt 0.480961 0.802112
vt 0.198352 0.951875
vt 0.416796 0.700000
vt 0.172178 0.299900
vt 0.172178 0.700000
vt 0.299900 0.576151
vt 0.700000 0.802112
vt 0.700000 0.576151
vt 0.198352 0.700000
vt 0.480961 0.299900
vt 0.480961 0.700000
vt 0.299900 0.951875
vt 0.416796 0.576151
vt 0.741274 0.616281
vt 0.416796 0.299900
vt 0.641449 0.700000
vt 0.700000 0.616281
vt 0.299900 0.406280
vt 0.700000 0.406280
vt 0.741274 0.299900
vt 0.741274 0.700000
vt 0.299900 0.802112
vt 0.396201 0.069034
vt 0.175000 0.750000
vt 0.224900 0.750000
vt 0.775000 0.069034
vt 0.775000 0.750000
vt 0.198944 0.775000
vt 0.396201 0.224900
vt 0.396201 0.775000
vt 0.224900 0.102793
vt 0.775000 0.102793
vt 0.175000 0.224900
vt 0.375000 0.775000
vt 0.175000 0.775000
vt 0.198944 0.102893
vt 0.224900 0.069134
vt 0.775000 0.382660
vt 0.775000 0.069134
vt 0.270336 0.775000
vt 0.459433 0.224900
vt 0.459433 0.775000
vt 0.224900 0.449317
vt 0.775000 0.102893
vt 0.775000 0.449317
vt 0.198944 0.224900
vt 0.270336 0.449317
vt 0.387869 0.782922
vt 0.775000 0.685065
vt 0.224900 0.382660
vt 0.387869 0.775000
vt 0.563582 0.224900
vt 0.563582 0.775000
vt 0.224900 0.782922
vt 0.775000 0.782922
vt 0.270336 0.224900
vt 0.549388 0.097494
vt 0.775000 0.971036
vt 0.224900 0.685065
vt 0.549388 0.775000
vt 0.706820 0.224900
vt 0.706820 0.775000
vt 0.224900 0.097494
vt 0.775000 0.097494
vt 0.387869 0.224900
vt 0.886629 0.235445
vt 0.775000 0.235445
vt 0.224900 0.971036
vt 0.775000 0.387564
vt 0.224900 0.235545
vt 0.775000 0.235545
vt 0.775000 0.097594
vt 0.224900 0.387564
vt 0.549388 0.224900
vt 0.099747 0.473945
vt 0.751931 0.387564
vt 0.775000 0.473945
vt 0.224900 0.473945
vt 0.775000 0.647517
vt 0.224900 0.647517
vt 0.991787 0.647517
vt 0.342628 0.682043
vt 0.099847 0.224900
vt 0.342728 0.775000
vt 0.099847 0.775000
vt 0.224900 0.682043
vt 0.775000 0.872688
vt 0.775000 0.682043
vt 0.991787 0.775000
vt 0.264459 0.224900
vt 0.264459 0.775000
vt 0.264559 0.872688
vt 0.611003 0.775000
vt 0.342728 0.224900
vt 0.775000 0.058850
vt 0.224900 0.856184
vt 0.775000 0.856184
vt 0.565246 0.224900
vt 0.264559 0.775000
vt 0.565246 0.775000
vt 0.224900 0.872688
vt 0.565246 0.058850
vt 0.611003 0.224900
vt 0.899956 0.775000
vt 0.775000 0.202789
vt 0.224900 0.993306
vt 0.775000 0.993306
vt 0.888338 0.224900
vt 0.888338 0.775000
vt 0.224900 0.058850
vt 0.221390 0.159691
vt 0.888338 0.202789
vt 0.198252 0.775000
vt 0.899956 0.224900
vt 0.775000 0.159691
vt 0.224900 0.951875
vt 0.775000 0.951875
vt 0.221390 0.224900
vt 0.221390 0.775000
vt 0.224900 0.202789
vt 0.537754 0.001313
vt 0.221490 0.159691
vt 0.480961 0.775000
vt 0.198352 0.224900
vt 0.198352 0.775000
vt 0.224900 0.802112
vt 0.775000 0.001313
vt 0.775000 0.802112
vt 0.537754 0.224900
vt 0.221490 0.775000
vt 0.537754 0.775000
vt 0.224900 0.159691
vt 0.829725 0.801765
vt 0.480961 0.224900
vt 0.741274 0.775000
vt 0.775000 0.801765
vt 0.224900 0.616281
vt 0.775000 0.616281
vt 0.829725 0.224900
vt 0.829725 0.775000
vt 0.224900 0.001313
vt 0.442500 0.157400
vt 0.757500 0.842500
vt 0.442500 0.842500
vt 0.442500 0.300000
vt 0.757500 0.000000
vt 0.442500 0.000000
vt 0.842500 0.300000
vt 0.157400 0.000000
vt 0.842500 0.000000
vt 0.759099 0.300000
vt 0.600000 0.799900
vt 0.440901 0.300000
vt 0.158999 0.300000
vt 0.999000 0.799900
vt 0.840901 0.300000
vt 0.974700 0.574900
vt 0.974700 0.175000
vt 0.574900 0.175000
vt 0.849700 0.499900
vt 0.849700 0.300000
vt 0.499900 0.300000
vt 0.975000 0.437400
vt 0.975000 0.500000
vt 0.437400 0.500000
vt 0.875000 0.374900
vt 0.875000 0.749700
vt 0.374900 0.749700
vt 0.495773 0.649700
vt 0.798273 0.649700
vt 0.737500 0.627500
vt 0.737500 0.999000
vt 0.627500 0.999000
vt 0.737500 0.124900
vt 0.627500 0.124900
vt 0.987500 0.449900
vt 0.987500 0.925000
vt 0.449900 0.925000
vt 0.937500 0.412400
vt 0.937500 0.999000
vt 0.412400 0.999000
vt 0.775000 0.437400
vt 0.775000 0.500000
vt 0.675000 0.374900
vt 0.675000 0.795893
vt 0.374900 0.795893
vt 0.295773 0.695893
vt 0.598273 0.695893
vt 0.537500 0.627500
vt 0.537500 0.999000
vt 2.880000 2.056150
vt 2.880000 2.749700
vt 2.056150 2.749700
vt 2.140000 2.056150
vt 2.140000 2.795893
vt 2.056150 2.795893
vt 0.374900 0.750000
vt 0.632199 0.123844
vt 2.374900 2.061716
vt 0.374900 0.123944
vt 0.096350 0.137527
vt 0.221728 0.277485
vt 2.374900 2.035198
vt 0.374900 0.137627
vt 2.374900 2.146831
vt 0.221728 0.374900
vt 2.999000 2.374900
vt 0.139817 0.422589
vt 0.172178 0.374900
vt 0.400208 0.249002
vt 2.400208 2.374900
vt 0.299900 0.030963
vt 0.600000 0.299900
vt 0.299900 0.069134
vt 0.299900 0.063643
vt 0.099847 0.299900
vt 0.172078 0.299900
vt 0.198352 0.299900
vt 0.641449 0.406280
vt 0.641449 0.299900
vt 0.299900 0.616281
vt 0.198944 0.102793
vt 0.224900 0.069034
vt 0.375000 0.224900
vt 0.224900 0.102893
vt 0.751931 0.387464
vt 0.224900 0.235445
vt 0.224900 0.097594
vt 0.264459 0.872688
vt 0.991787 0.224900
vt 0.264559 0.224900
vt 0.198252 0.224900
vt 0.221490 0.224900
vt 0.741274 0.224900
vt 0.224900 0.801765
vt 0.757500 0.157400
vt 0.757500 0.300000
vt 0.157400 0.300000
s 0
f 2/1/1 4/2/1 1/3/1
f 6/2/2 8/1/2 5/3/2
f 12/4/3 10/5/3 9/6/3
f 16/5/4 14/4/4 13/6/4
f 18/7/5 20/8/5 17/9/5
f 22/8/6 24/7/6 21/9/6
f 28/10/2 26/11/2 25/12/2
f 30/10/2 32/11/2 29/12/2
f 34/13/4 36/14/4 33/15/4
f 38/14/3 40/13/3 37/15/3
f 42/16/5 44/17/5 41/18/5
f 46/17/6 48/16/6 45/18/6
f 50/19/1 52/20/1 49/21/1
f 54/20/2 56/19/2 53/21/2
f 60/22/3 58/23/3 57/24/3
f 64/23/4 62/22/4 61/24/4
f 66/25/5 68/26/5 65/27/5
f 70/26/6 72/25/6 69/27/6
f 74/28/1 76/29/1 73/30/1
f 80/28/1 78/29/1 77/30/1
f 84/31/3 82/32/3 81/33/3
f 88/32/4 86/31/4 85/33/4
f 90/34/5 92/35/5 89/36/5
f 94/35/6 96/34/6 93/36/6
f 100/37/7 98/36/7 97/38/7
f 102/38/8 104/39/8 101/40/8
f 108/41/9 106/40/9 105/42/9
f 110/43/10 112/44/10 109/45/10
f 114/45/11 116/46/11 113/47/11
f 118/47/12 120/48/12 117/49/12
f 124/50/13 122/49/13 121/51/13
f 128/39/14 126/42/14 125/40/14
f 132/37/15 130/40/15 129/38/15
f 134/38/16 136/52/16 133/36/16
f 138/36/17 140/37/17 137/38/17
f 142/38/8 144/39/8 141/40/8
f 146/40/18 148/41/18 145/42/18
f 150/53/10 152/54/10 149/55/10
f 154/55/11 156/56/11 153/57/11
f 158/57/12 160/58/12 157/59/12
f 164/60/13 162/59/13 161/61/13
f 168/39/14 166/42/14 165/40/14
f 170/40/19 172/37/19 169/38/19
f 174/38/16 176/52/16 173/36/16
f 180/62/2 178/63/2 177/64/2
f 182/62/2 184/63/2 181/64/2
f 186/65/4 188/66/4 185/67/4
f 190/66/3 192/65/3 189/67/3
f 196/68/6 194/69/6 193/70/6
f 198/68/6 200/69/6 197/70/6
f 202/63/1 204/62/1 201/64/1
f 206/62/2 208/63/2 205/64/2
f 210/71/4 212/72/4 209/73/4
f 214/72/3 216/71/3 213/73/3
f 218/74/5 220/75/5 217/76/5
f 222/75/6 224/74/6 221/76/6
f 226/77/1 228/78/1 225/79/1
f 230/78/2 232/77/2 229/79/2
f 234/80/4 236/81/4 233/82/4
f 238/81/3 240/80/3 237/82/3
f 244/83/6 242/84/6 241/85/6
f 246/83/6 248/84/6 245/85/6
f 250/86/1 252/87/1 249/88/1
f 254/87/2 256/86/2 253/88/2
f 258/89/4 260/90/4 257/91/4
f 262/90/3 264/89/3 261/91/3
f 266/92/5 268/93/5 265/94/5
f 270/93/6 272/92/6 269/94/6
f 274/95/1 276/96/1 273/97/1
f 278/96/2 280/95/2 277/97/2
f 284/98/3 282/99/3 281/100/3
f 288/99/4 286/98/4 285/100/4
f 290/25/5 292/26/5 289/27/5
f 294/26/6 296/25/6 293/27/6
f 298/101/1 300/102/1 297/103/1
f 304/101/1 302/102/1 301/103/1
f 306/104/4 308/105/4 305/106/4
f 310/105/3 312/104/3 309/106/3
f 314/107/5 316/35/5 313/36/5
f 318/35/6 320/107/6 317/36/6
f 324/108/7 322/36/7 321/38/7
f 328/109/20 326/38/20 325/40/20
f 332/110/9 330/40/9 329/42/9
f 336/111/21 334/112/21 333/113/21
f 340/114/22 338/113/22 337/115/22
f 344/116/23 342/115/23 341/117/23
f 348/118/13 346/117/13 345/119/13
f 352/109/14 350/42/14 349/40/14
f 356/108/15 354/40/15 353/38/15
f 360/120/24 358/38/24 357/36/24
f 362/36/17 364/108/17 361/38/17
f 366/38/8 368/109/8 365/40/8
f 372/110/9 370/40/9 369/42/9
f 374/121/10 376/122/10 373/123/10
f 380/124/22 378/123/22 377/125/22
f 384/126/23 382/125/23 381/127/23
f 388/128/13 386/127/13 385/129/13
f 390/42/25 392/109/25 389/40/25
f 396/108/15 394/40/15 393/38/15
f 398/38/16 400/120/16 397/36/16
f 404/130/2 402/131/2 401/132/2
f 406/130/2 408/131/2 405/132/2
f 410/133/4 412/90/4 409/134/4
f 414/90/3 416/133/3 413/134/3
f 418/69/5 420/68/5 417/70/5
f 424/69/5 422/68/5 421/70/5
f 426/135/1 428/136/1 425/137/1
f 432/135/1 430/136/1 429/137/1
f 434/138/4 436/139/4 433/140/4
f 438/139/3 440/138/3 437/140/3
f 442/141/5 444/142/5 441/143/5
f 446/142/6 448/141/6 445/143/6
f 450/144/1 452/145/1 449/146/1
f 454/145/2 456/144/2 453/146/2
f 458/147/4 460/148/4 457/149/4
f 462/148/3 464/147/3 461/149/3
f 466/150/5 468/142/5 465/143/5
f 470/142/6 472/150/6 469/143/6
f 474/151/4 476/152/4 473/153/4
f 477/152/3 479/151/3 480/153/3
f 484/154/26 482/155/26 481/156/26
f 486/157/27 488/158/27 485/159/27
f 492/160/28 490/161/28 489/162/28
f 494/163/1 496/29/1 493/164/1
f 500/165/3 498/166/3 497/151/3
f 501/165/3 503/166/3 504/151/3
f 508/167/29 506/168/29 505/154/29
f 510/169/30 512/170/30 509/171/30
f 514/172/31 516/162/31 513/173/31
f 518/174/32 520/159/32 517/158/32
f 524/175/3 522/176/3 521/177/3
f 525/175/4 527/176/4 526/178/4
f 532/179/33 530/180/33 529/181/33
f 534/182/34 536/183/34 533/184/34
f 540/185/35 538/186/35 537/187/35
f 542/188/36 544/171/36 541/170/36
f 546/189/4 548/178/4 545/176/4
f 549/178/3 551/189/3 552/176/3
f 554/190/37 556/191/37 553/179/37
f 560/192/38 558/193/38 557/194/38
f 562/195/39 564/187/39 561/196/39
f 568/184/34 566/197/34 565/183/34
f 570/198/4 572/199/4 569/189/4
f 573/199/3 575/198/3 576/189/3
f 580/200/40 578/201/40 577/191/40
f 584/202/41 582/203/41 581/204/41
f 588/196/42 586/205/42 585/206/42
f 590/207/38 592/194/38 589/192/38
f 596/208/3 594/209/3 593/198/3
f 597/208/3 599/209/3 600/198/3
f 602/210/43 604/211/43 601/200/43
f 608/212/44 606/213/44 605/214/44
f 612/206/45 610/215/45 609/216/45
f 616/204/46 614/217/46 613/202/46
f 618/218/4 620/219/4 617/209/4
f 621/219/3 623/218/3 624/209/3
f 628/220/47 626/221/47 625/211/47
f 630/222/48 632/223/48 629/224/48
f 636/216/49 634/225/49 633/223/49
f 638/226/44 640/214/44 637/212/44
f 642/227/4 644/228/4 641/218/4
f 645/228/3 647/227/3 648/218/3
f 652/229/50 650/230/50 649/220/50
f 654/231/51 656/232/51 653/233/51
f 660/223/52 658/234/52 657/232/52
f 664/224/48 662/225/48 661/223/48
f 666/235/4 668/236/4 665/237/4
f 669/236/3 671/235/3 672/237/3
f 676/238/53 674/239/53 673/229/53
f 680/240/54 678/241/54 677/242/54
f 682/243/55 684/244/55 681/240/55
f 686/234/56 688/233/56 685/232/56
f 690/245/4 692/246/4 689/247/4
f 693/246/3 695/245/3 696/247/3
f 698/248/57 700/249/57 697/250/57
f 702/251/58 704/252/58 701/253/58
f 708/254/59 706/255/59 705/256/59
f 712/242/60 710/243/60 709/240/60
f 714/257/4 716/258/4 713/245/4
f 717/258/3 719/257/3 720/245/3
f 722/259/61 724/260/61 721/261/61
f 726/262/62 728/263/62 725/264/62
f 730/265/63 732/256/63 729/266/63
f 734/267/64 736/253/64 733/252/64
f 738/268/4 740/269/4 737/257/4
f 741/269/3 743/268/3 744/257/3
f 746/270/65 748/271/65 745/260/65
f 750/272/66 752/273/66 749/274/66
f 756/266/67 754/275/67 753/276/67
f 758/277/68 760/264/68 757/263/68
f 764/278/3 762/279/3 761/268/3
f 765/278/4 767/279/4 766/280/4
f 772/281/69 770/282/69 769/271/69
f 776/283/70 774/284/70 773/285/70
f 780/276/71 778/286/71 777/287/71
f 782/288/72 784/274/72 781/273/72
f 788/280/3 786/289/3 785/279/3
f 789/280/3 791/289/3 792/279/3
f 794/290/73 796/291/73 793/281/73
f 798/292/6 800/293/6 797/294/6
f 804/287/74 802/295/74 801/296/74
f 806/297/70 808/285/70 805/283/70
f 809/289/4 811/298/4 812/299/4
f 814/298/3 816/289/3 813/299/3
f 818/300/75 820/301/75 817/302/75
f 822/284/76 824/283/76 821/285/76
f 828/296/77 826/303/77 825/304/77
f 830/305/5 832/294/5 829/293/5
f 833/306/3 835/307/3 834/308/3
f 838/307/3 840/306/3 837/309/3
f 844/310/78 842/311/78 841/301/78
f 848/273/79 846/272/79 845/274/79
f 852/312/80 850/313/80 849/314/80
f 856/285/76 854/297/76 853/283/76
f 857/308/4 859/315/4 860/307/4
f 862/315/3 864/308/3 861/307/3
f 866/316/81 868/317/81 865/310/81
f 872/263/82 870/262/82 869/264/82
f 876/314/83 874/318/83 873/319/83
f 880/274/84 878/288/84 877/273/84
f 882/320/4 884/321/4 881/152/4
f 885/321/3 887/320/3 888/152/3
f 890/322/85 892/323/85 889/324/85
f 896/325/86 894/326/86 893/327/86
f 900/324/87 898/328/87 897/329/87
f 902/330/1 904/331/1 901/332/1
f 906/178/4 908/333/4 905/334/4
f 909/333/4 911/178/4 910/335/4
f 914/336/88 916/337/88 913/338/88
f 918/339/89 920/340/89 917/341/89
f 924/342/90 922/343/90 921/344/90
f 926/345/86 928/327/86 925/325/86
f 930/346/4 932/335/4 929/178/4
f 933/335/3 935/346/3 936/178/3
f 938/347/91 940/348/91 937/337/91
f 942/349/92 944/350/92 941/351/92
f 948/344/93 946/352/93 945/353/93
f 950/354/94 952/341/94 949/340/94
f 954/219/4 956/355/4 953/346/4
f 957/355/3 959/219/3 960/346/3
f 964/356/95 962/357/95 961/348/95
f 966/358/96 968/359/96 965/360/96
f 972/353/97 970/361/97 969/362/97
f 976/351/92 974/363/92 973/350/92
f 978/364/4 980/365/4 977/219/4
f 981/365/3 983/364/3 984/219/3
f 988/366/98 986/367/98 985/356/98
f 992/368/99 990/369/99 989/370/99
f 994/371/100 996/362/100 993/372/100
f 998/373/101 1000/360/101 997/359/101
f 1004/374/3 1002/375/3 1001/376/3
f 1005/374/3 1007/375/3 1008/376/3
f 1012/377/102 1010/369/102 1009/370/102
f 1016/378/103 1014/379/103 1013/377/103
f 1020/368/104 1018/380/104 1017/378/104
f 1022/381/99 1024/370/99 1021/368/99
f 1026/382/4 1028/383/4 1025/246/4
f 1029/383/3 1031/382/3 1032/246/3
f 1034/384/105 1036/385/105 1033/386/105
f 1038/387/106 1040/388/106 1037/389/106
f 1044/390/107 1042/391/107 1041/392/107
f 1046/380/103 1048/377/103 1045/378/103
f 1050/278/4 1052/393/4 1049/382/4
f 1053/393/3 1055/278/3 1056/382/3
f 1058/394/108 1060/395/108 1057/385/108
f 1064/396/109 1062/397/109 1061/398/109
f 1066/399/110 1068/392/110 1065/400/110
f 1072/389/106 1070/401/106 1069/388/106
f 1074/402/4 1076/403/4 1073/278/4
f 1077/403/3 1079/402/3 1080/278/3
f 1084/404/111 1082/405/111 1081/395/111
f 1086/406/112 1088/407/112 1085/408/112
f 1092/400/113 1090/409/113 1089/410/113
f 1094/411/109 1096/398/109 1093/396/109
f 1097/402/4 1099/412/4 1100/413/4
f 1102/412/3 1104/402/3 1101/413/3
f 1106/414/114 1108/415/114 1105/404/114
f 1110/416/115 1112/417/115 1109/418/115
f 1114/419/116 1116/410/116 1113/420/116
f 1120/408/112 1118/421/112 1117/407/112
f 1121/309/4 1123/422/4 1124/423/4
f 1126/422/3 1128/309/3 1125/423/3
f 1132/424/117 1130/425/117 1129/426/117
f 1134/427/118 1136/428/118 1133/429/118
f 1140/430/119 1138/431/119 1137/432/119
f 1144/418/115 1142/433/115 1141/417/115
f 1145/434/4 1147/435/4 1148/422/4
f 1150/435/3 1152/434/3 1149/422/3
f 1154/436/120 1156/437/120 1153/424/120
f 1160/438/121 1158/439/121 1157/440/121
f 1164/432/122 1162/441/122 1161/442/122
f 1168/429/118 1166/443/118 1165/428/118
f 1170/444/4 1172/445/4 1169/321/4
f 1173/445/3 1175/444/3 1176/321/3
f 1178/446/87 1180/447/87 1177/448/87
f 1184/449/123 1182/450/123 1181/451/123
f 1186/452/124 1188/448/124 1185/453/124
f 1190/454/1 1192/455/1 1189/456/1
f 1196/457/3 1194/335/3 1193/333/3
f 1197/457/3 1199/335/3 1200/333/3
f 1202/458/90 1204/459/90 1201/460/90
f 1208/461/125 1206/462/125 1205/463/125
f 1210/464/126 1212/465/126 1209/466/126
f 1214/467/123 1216/451/123 1213/449/123
f 1220/468/3 1218/355/3 1217/335/3
f 1221/468/4 1223/355/4 1222/469/4
f 1228/470/127 1226/471/127 1225/459/127
f 1232/472/128 1230/473/128 1229/474/128
f 1236/466/129 1234/475/129 1233/476/129
f 1240/463/130 1238/477/130 1237/461/130
f 1242/365/4 1244/469/4 1241/355/4
f 1245/469/4 1247/365/4 1246/478/4
f 1252/479/131 1250/480/131 1249/470/131
f 1256/481/132 1254/482/132 1253/483/132
f 1258/484/133 1260/476/133 1257/485/133
f 1264/474/134 1262/486/134 1261/472/134
f 1266/487/4 1268/478/4 1265/365/4
f 1269/478/3 1271/487/3 1272/365/3
f 1276/488/100 1274/489/100 1273/479/100
f 1280/490/135 1278/491/135 1277/492/135
f 1284/493/136 1282/494/136 1281/490/136
f 1288/483/137 1286/495/137 1285/481/137
f 1290/496/4 1292/497/4 1289/374/4
f 1293/497/3 1295/496/3 1296/374/3
f 1300/498/138 1298/491/138 1297/492/138
f 1302/499/139 1304/500/139 1301/498/139
f 1306/501/140 1308/490/140 1305/500/140
f 1312/492/141 1310/494/141 1309/490/141
f 1316/502/3 1314/503/3 1313/496/3
f 1317/502/3 1319/503/3 1320/496/3
f 1322/504/107 1324/505/107 1321/506/107
f 1326/507/142 1328/508/142 1325/509/142
f 1332/510/143 1330/511/143 1329/512/143
f 1336/498/139 1334/501/139 1333/500/139
f 1338/403/4 1340/513/4 1337/393/4
f 1341/513/3 1343/403/3 1344/393/3
f 1348/514/110 1346/515/110 1345/505/110
f 1352/516/144 1350/517/144 1349/518/144
f 1354/519/145 1356/520/145 1353/521/145
f 1358/522/146 1360/509/146 1357/508/146
f 1362/413/4 1364/523/4 1361/403/4
f 1365/523/3 1367/413/3 1368/403/3
f 1370/524/113 1372/525/113 1369/514/113
f 1376/526/147 1374/527/147 1373/528/147
f 1378/529/148 1380/521/148 1377/530/148
f 1382/531/144 1384/518/144 1381/516/144
f 1385/413/4 1387/532/4 1388/533/4
f 1390/532/3 1392/413/3 1389/533/3
f 1396/534/116 1394/535/116 1393/525/116
f 1400/536/149 1398/537/149 1397/538/149
f 1404/530/150 1402/539/150 1401/540/150
f 1406/541/151 1408/528/151 1405/526/151
f 1409/423/3 1411/542/3 1410/422/3
f 1416/423/4 1414/542/4 1413/543/4
f 1420/544/152 1418/545/152 1417/546/152
f 1422/547/153 1424/548/153 1421/549/153
f 1426/550/154 1428/551/154 1425/552/154
f 1430/553/149 1432/538/149 1429/536/149
f 1433/422/4 1435/554/4 1436/542/4
f 1438/554/3 1440/422/3 1437/542/3
f 1442/555/122 1444/556/122 1441/544/122
f 1448/557/155 1446/558/155 1445/559/155
f 1450/560/156 1452/552/156 1449/561/156
f 1456/549/153 1454/562/153 1453/548/153
f 1458/563/1 1460/564/1 1457/565/1
f 1462/564/2 1464/563/2 1461/565/2
f 1468/566/3 1466/567/3 1465/568/3
f 1472/567/4 1470/566/4 1469/568/4
f 1474/569/5 1476/570/5 1473/571/5
f 1478/570/6 1480/569/6 1477/571/6
f 1481/572/157 1483/573/157 1482/574/157
f 1484/575/158 1486/576/158 1485/577/158
f 1487/574/159 1489/573/159 1488/572/159
f 1490/577/160 1491/575/160 1492/576/160
f 2/1/1 3/578/1 4/2/1
f 6/2/2 7/578/2 8/1/2
f 12/4/3 11/579/3 10/5/3
f 16/5/4 15/579/4 14/4/4
f 18/7/5 19/580/5 20/8/5
f 22/8/6 23/580/6 24/7/6
f 28/10/2 27/581/2 26/11/2
f 30/10/2 31/581/2 32/11/2
f 34/13/4 35/582/4 36/14/4
f 38/14/3 39/582/3 40/13/3
f 42/16/5 43/583/5 44/17/5
f 46/17/6 47/583/6 48/16/6
f 50/19/1 51/584/1 52/20/1
f 54/20/2 55/584/2 56/19/2
f 60/22/3 59/585/3 58/23/3
f 64/23/4 63/585/4 62/22/4
f 66/25/5 67/586/5 68/26/5
f 70/26/6 71/586/6 72/25/6
f 74/28/1 75/587/1 76/29/1
f 80/28/1 79/587/1 78/29/1
f 84/31/3 83/588/3 82/32/3
f 88/32/4 87/588/4 86/31/4
f 90/34/5 91/589/5 92/35/5
f 94/35/6 95/589/6 96/34/6
f 100/37/7 99/52/7 98/36/7
f 102/38/8 103/37/8 104/39/8
f 108/41/9 107/39/9 106/40/9
f 110/43/10 111/590/10 112/44/10
f 114/45/11 115/44/11 116/46/11
f 118/47/12 119/46/12 120/48/12
f 124/50/13 123/48/13 122/49/13
f 128/39/14 127/41/14 126/42/14
f 132/37/15 131/39/15 130/40/15
f 134/38/16 135/37/16 136/52/16
f 138/36/17 139/52/17 140/37/17
f 142/38/8 143/37/8 144/39/8
f 146/40/18 147/39/18 148/41/18
f 150/53/10 151/591/10 152/54/10
f 154/55/11 155/54/11 156/56/11
f 158/57/12 159/56/12 160/58/12
f 164/60/13 163/58/13 162/59/13
f 168/39/14 167/41/14 166/42/14
f 170/40/19 171/39/19 172/37/19
f 174/38/16 175/37/16 176/52/16
f 180/62/2 179/592/2 178/63/2
f 182/62/2 183/592/2 184/63/2
f 186/65/4 187/593/4 188/66/4
f 190/66/3 191/593/3 192/65/3
f 196/68/6 195/594/6 194/69/6
f 198/68/6 199/594/6 200/69/6
f 202/63/1 203/592/1 204/62/1
f 206/62/2 207/592/2 208/63/2
f 210/71/4 211/595/4 212/72/4
f 214/72/3 215/595/3 216/71/3
f 218/74/5 219/596/5 220/75/5
f 222/75/6 223/596/6 224/74/6
f 226/77/1 227/597/1 228/78/1
f 230/78/2 231/597/2 232/77/2
f 234/80/4 235/598/4 236/81/4
f 238/81/3 239/598/3 240/80/3
f 244/83/6 243/599/6 242/84/6
f 246/83/6 247/599/6 248/84/6
f 250/86/1 251/600/1 252/87/1
f 254/87/2 255/600/2 256/86/2
f 258/89/4 259/601/4 260/90/4
f 262/90/3 263/601/3 264/89/3
f 266/92/5 267/602/5 268/93/5
f 270/93/6 271/602/6 272/92/6
f 274/95/1 275/603/1 276/96/1
f 278/96/2 279/603/2 280/95/2
f 284/98/3 283/604/3 282/99/3
f 288/99/4 287/604/4 286/98/4
f 290/25/5 291/586/5 292/26/5
f 294/26/6 295/586/6 296/25/6
f 298/101/1 299/605/1 300/102/1
f 304/101/1 303/605/1 302/102/1
f 306/104/4 307/606/4 308/105/4
f 310/105/3 311/606/3 312/104/3
f 314/107/5 315/607/5 316/35/5
f 318/35/6 319/607/6 320/107/6
f 324/108/7 323/120/7 322/36/7
f 328/109/20 327/108/20 326/38/20
f 332/110/9 331/109/9 330/40/9
f 336/111/21 335/608/21 334/112/21
f 340/114/22 339/111/22 338/113/22
f 344/116/23 343/114/23 342/115/23
f 348/118/13 347/116/13 346/117/13
f 352/109/14 351/110/14 350/42/14
f 356/108/15 355/109/15 354/40/15
f 360/120/24 359/108/24 358/38/24
f 362/36/17 363/120/17 364/108/17
f 366/38/8 367/108/8 368/109/8
f 372/110/9 371/109/9 370/40/9
f 374/121/10 375/609/10 376/122/10
f 380/124/22 379/122/22 378/123/22
f 384/126/23 383/124/23 382/125/23
f 388/128/13 387/126/13 386/127/13
f 390/42/25 391/110/25 392/109/25
f 396/108/15 395/109/15 394/40/15
f 398/38/16 399/108/16 400/120/16
f 404/130/2 403/610/2 402/131/2
f 406/130/2 407/610/2 408/131/2
f 410/133/4 411/611/4 412/90/4
f 414/90/3 415/611/3 416/133/3
f 418/69/5 419/594/5 420/68/5
f 424/69/5 423/594/5 422/68/5
f 426/135/1 427/612/1 428/136/1
f 432/135/1 431/612/1 430/136/1
f 434/138/4 435/613/4 436/139/4
f 438/139/3 439/613/3 440/138/3
f 442/141/5 443/614/5 444/142/5
f 446/142/6 447/614/6 448/141/6
f 450/144/1 451/615/1 452/145/1
f 454/145/2 455/615/2 456/144/2
f 458/147/4 459/616/4 460/148/4
f 462/148/3 463/616/3 464/147/3
f 466/150/5 467/617/5 468/142/5
f 470/142/6 471/617/6 472/150/6
f 474/151/4 475/165/4 476/152/4
f 477/152/3 478/165/3 479/151/3
f 484/154/26 483/168/26 482/155/26
f 486/157/27 487/174/27 488/158/27
f 492/160/28 491/618/28 490/161/28
f 494/163/1 495/587/1 496/29/1
f 500/165/3 499/619/3 498/166/3
f 501/165/3 502/619/3 503/166/3
f 508/167/29 507/620/29 506/168/29
f 510/169/30 511/188/30 512/170/30
f 514/172/31 515/161/31 516/162/31
f 518/174/32 519/157/32 520/159/32
f 524/175/3 523/178/3 522/176/3
f 525/175/4 528/177/4 527/176/4
f 532/179/33 531/190/33 530/180/33
f 534/182/34 535/197/34 536/183/34
f 540/185/35 539/621/35 538/186/35
f 542/188/36 543/169/36 544/171/36
f 546/189/4 547/199/4 548/178/4
f 549/178/3 550/199/3 551/189/3
f 554/190/37 555/201/37 556/191/37
f 560/192/38 559/207/38 558/193/38
f 562/195/39 563/186/39 564/187/39
f 568/184/34 567/182/34 566/197/34
f 570/198/4 571/208/4 572/199/4
f 573/199/3 574/208/3 575/198/3
f 580/200/40 579/210/40 578/201/40
f 584/202/41 583/217/41 582/203/41
f 588/196/42 587/195/42 586/205/42
f 590/207/38 591/193/38 592/194/38
f 596/208/3 595/219/3 594/209/3
f 597/208/3 598/219/3 599/209/3
f 602/210/43 603/221/43 604/211/43
f 608/212/44 607/226/44 606/213/44
f 612/206/45 611/205/45 610/215/45
f 616/204/46 615/203/46 614/217/46
f 618/218/4 619/228/4 620/219/4
f 621/219/3 622/228/3 623/218/3
f 628/220/47 627/230/47 626/221/47
f 630/222/48 631/225/48 632/223/48
f 636/216/49 635/215/49 634/225/49
f 638/226/44 639/213/44 640/214/44
f 642/227/4 643/622/4 644/228/4
f 645/228/3 646/622/3 647/227/3
f 652/229/50 651/239/50 650/230/50
f 654/231/51 655/234/51 656/232/51
f 660/223/52 659/225/52 658/234/52
f 664/224/48 663/222/48 662/225/48
f 666/235/4 667/623/4 668/236/4
f 669/236/3 670/623/3 671/235/3
f 676/238/53 675/624/53 674/239/53
f 680/240/54 679/243/54 678/241/54
f 682/243/55 683/625/55 684/244/55
f 686/234/56 687/231/56 688/233/56
f 690/245/4 691/258/4 692/246/4
f 693/246/3 694/258/3 695/245/3
f 698/248/57 699/626/57 700/249/57
f 702/251/58 703/267/58 704/252/58
f 708/254/59 707/627/59 706/255/59
f 712/242/60 711/241/60 710/243/60
f 714/257/4 715/269/4 716/258/4
f 717/258/3 718/269/3 719/257/3
f 722/259/61 723/270/61 724/260/61
f 726/262/62 727/277/62 728/263/62
f 730/265/63 731/255/63 732/256/63
f 734/267/64 735/251/64 736/253/64
f 738/268/4 739/278/4 740/269/4
f 741/269/3 742/278/3 743/268/3
f 746/270/65 747/282/65 748/271/65
f 750/272/66 751/288/66 752/273/66
f 756/266/67 755/265/67 754/275/67
f 758/277/68 759/262/68 760/264/68
f 764/278/3 763/280/3 762/279/3
f 765/278/4 768/268/4 767/279/4
f 772/281/69 771/290/69 770/282/69
f 776/283/70 775/297/70 774/284/70
f 780/276/71 779/275/71 778/286/71
f 782/288/72 783/272/72 784/274/72
f 788/280/3 787/299/3 786/289/3
f 789/280/3 790/299/3 791/289/3
f 794/290/73 795/628/73 796/291/73
f 798/292/6 799/305/6 800/293/6
f 804/287/74 803/286/74 802/295/74
f 806/297/70 807/284/70 808/285/70
f 809/289/4 810/629/4 811/298/4
f 814/298/3 815/629/3 816/289/3
f 818/300/75 819/311/75 820/301/75
f 822/284/76 823/297/76 824/283/76
f 828/296/77 827/295/77 826/303/77
f 830/305/5 831/292/5 832/294/5
f 833/306/3 836/309/3 835/307/3
f 838/307/3 839/308/3 840/306/3
f 844/310/78 843/316/78 842/311/78
f 848/273/79 847/288/79 846/272/79
f 852/312/80 851/630/80 850/313/80
f 856/285/76 855/284/76 854/297/76
f 857/308/4 858/631/4 859/315/4
f 862/315/3 863/631/3 864/308/3
f 866/316/81 867/632/81 868/317/81
f 872/263/82 871/277/82 870/262/82
f 876/314/83 875/313/83 874/318/83
f 880/274/84 879/272/84 878/288/84
f 882/320/4 883/444/4 884/321/4
f 885/321/3 886/444/3 887/320/3
f 890/322/85 891/633/85 892/323/85
f 896/325/86 895/345/86 894/326/86
f 900/324/87 899/322/87 898/328/87
f 902/330/1 903/634/1 904/331/1
f 906/178/4 907/335/4 908/333/4
f 909/333/4 912/334/4 911/178/4
f 914/336/88 915/347/88 916/337/88
f 918/339/89 919/354/89 920/340/89
f 924/342/90 923/635/90 922/343/90
f 926/345/86 927/326/86 928/327/86
f 930/346/4 931/355/4 932/335/4
f 933/335/3 934/355/3 935/346/3
f 938/347/91 939/357/91 940/348/91
f 942/349/92 943/363/92 944/350/92
f 948/344/93 947/343/93 946/352/93
f 950/354/94 951/339/94 952/341/94
f 954/219/4 955/365/4 956/355/4
f 957/355/3 958/365/3 959/219/3
f 964/356/95 963/367/95 962/357/95
f 966/358/96 967/373/96 968/359/96
f 972/353/97 971/352/97 970/361/97
f 976/351/92 975/349/92 974/363/92
f 978/364/4 979/487/4 980/365/4
f 981/365/3 982/487/3 983/364/3
f 988/366/98 987/636/98 986/367/98
f 992/368/99 991/381/99 990/369/99
f 994/371/100 995/361/100 996/362/100
f 998/373/101 999/358/101 1000/360/101
f 1004/374/3 1003/496/3 1002/375/3
f 1005/374/3 1006/496/3 1007/375/3
f 1012/377/102 1011/379/102 1010/369/102
f 1016/378/103 1015/380/103 1014/379/103
f 1020/368/104 1019/381/104 1018/380/104
f 1022/381/99 1023/369/99 1024/370/99
f 1026/382/4 1027/393/4 1028/383/4
f 1029/383/3 1030/393/3 1031/382/3
f 1034/384/105 1035/394/105 1036/385/105
f 1038/387/106 1039/401/106 1040/388/106
f 1044/390/107 1043/637/107 1042/391/107
f 1046/380/103 1047/379/103 1048/377/103
f 1050/278/4 1051/403/4 1052/393/4
f 1053/393/3 1054/403/3 1055/278/3
f 1058/394/108 1059/405/108 1060/395/108
f 1064/396/109 1063/411/109 1062/397/109
f 1066/399/110 1067/391/110 1068/392/110
f 1072/389/106 1071/387/106 1070/401/106
f 1074/402/4 1075/413/4 1076/403/4
f 1077/403/3 1078/413/3 1079/402/3
f 1084/404/111 1083/414/111 1082/405/111
f 1086/406/112 1087/421/112 1088/407/112
f 1092/400/113 1091/399/113 1090/409/113
f 1094/411/109 1095/397/109 1096/398/109
f 1097/402/4 1098/298/4 1099/412/4
f 1102/412/3 1103/298/3 1104/402/3
f 1106/414/114 1107/638/114 1108/415/114
f 1110/416/115 1111/433/115 1112/417/115
f 1114/419/116 1115/409/116 1116/410/116
f 1120/408/112 1119/406/112 1118/421/112
f 1121/309/4 1122/434/4 1123/422/4
f 1126/422/3 1127/434/3 1128/309/3
f 1132/424/117 1131/436/117 1130/425/117
f 1134/427/118 1135/443/118 1136/428/118
f 1140/430/119 1139/639/119 1138/431/119
f 1144/418/115 1143/416/115 1142/433/115
f 1145/434/4 1146/640/4 1147/435/4
f 1150/435/3 1151/640/3 1152/434/3
f 1154/436/120 1155/641/120 1156/437/120
f 1160/438/121 1159/642/121 1158/439/121
f 1164/432/122 1163/431/122 1162/441/122
f 1168/429/118 1167/427/118 1166/443/118
f 1170/444/4 1171/643/4 1172/445/4
f 1173/445/3 1174/643/3 1175/444/3
f 1178/446/87 1179/644/87 1180/447/87
f 1184/449/123 1183/467/123 1182/450/123
f 1186/452/124 1187/446/124 1188/448/124
f 1190/454/1 1191/645/1 1192/455/1
f 1196/457/3 1195/468/3 1194/335/3
f 1197/457/3 1198/468/3 1199/335/3
f 1202/458/90 1203/471/90 1204/459/90
f 1208/461/161 1207/477/161 1206/462/161
f 1210/464/126 1211/646/126 1212/465/126
f 1214/467/123 1215/450/123 1216/451/123
f 1220/468/3 1219/469/3 1218/355/3
f 1221/468/4 1224/335/4 1223/355/4
f 1228/470/127 1227/480/127 1226/471/127
f 1232/472/162 1231/486/162 1230/473/162
f 1236/466/129 1235/464/129 1234/475/129
f 1240/463/163 1239/462/163 1238/477/163
f 1242/365/4 1243/478/4 1244/469/4
f 1245/469/4 1248/355/4 1247/365/4
f 1252/479/131 1251/489/131 1250/480/131
f 1256/481/132 1255/495/132 1254/482/132
f 1258/484/133 1259/475/133 1260/476/133
f 1264/474/164 1263/473/164 1262/486/164
f 1266/487/4 1267/647/4 1268/478/4
f 1269/478/3 1270/647/3 1271/487/3
f 1276/488/100 1275/648/100 1274/489/100
f 1280/490/135 1279/494/135 1278/491/135
f 1284/493/136 1283/649/136 1282/494/136
f 1288/483/137 1287/482/137 1286/495/137
f 1290/496/4 1291/502/4 1292/497/4
f 1293/497/3 1294/502/3 1295/496/3
f 1300/498/138 1299/499/138 1298/491/138
f 1302/499/139 1303/501/139 1304/500/139
f 1306/501/140 1307/494/140 1308/490/140
f 1312/492/141 1311/491/141 1310/494/141
f 1316/502/3 1315/650/3 1314/503/3
f 1317/502/3 1318/650/3 1319/503/3
f 1322/504/107 1323/515/107 1324/505/107
f 1326/507/142 1327/522/142 1328/508/142
f 1332/510/143 1331/651/143 1330/511/143
f 1336/498/139 1335/499/139 1334/501/139
f 1338/403/4 1339/523/4 1340/513/4
f 1341/513/3 1342/523/3 1343/403/3
f 1348/514/110 1347/524/110 1346/515/110
f 1352/516/144 1351/531/144 1350/517/144
f 1354/519/145 1355/652/145 1356/520/145
f 1358/522/146 1359/507/146 1360/509/146
f 1362/413/4 1363/533/4 1364/523/4
f 1365/523/3 1366/533/3 1367/413/3
f 1370/524/113 1371/535/113 1372/525/113
f 1376/526/151 1375/541/151 1374/527/151
f 1378/529/148 1379/519/148 1380/521/148
f 1382/531/144 1383/517/144 1384/518/144
f 1385/413/4 1386/412/4 1387/532/4
f 1390/532/3 1391/412/3 1392/413/3
f 1396/534/116 1395/653/116 1394/535/116
f 1400/536/149 1399/553/149 1398/537/149
f 1404/530/150 1403/529/150 1402/539/150
f 1406/541/147 1407/527/147 1408/528/147
f 1409/423/3 1412/543/3 1411/542/3
f 1416/423/4 1415/422/4 1414/542/4
f 1420/544/152 1419/555/152 1418/545/152
f 1422/547/153 1423/562/153 1424/548/153
f 1426/550/154 1427/654/154 1428/551/154
f 1430/553/149 1431/537/149 1432/538/149
f 1433/422/4 1434/435/4 1435/554/4
f 1438/554/3 1439/435/3 1440/422/3
f 1442/555/122 1443/655/122 1444/556/122
f 1448/557/155 1447/656/155 1446/558/155
f 1450/560/156 1451/550/156 1452/552/156
f 1456/549/153 1455/547/153 1454/562/153
f 1458/563/1 1459/657/1 1460/564/1
f 1462/564/2 1463/657/2 1464/563/2
f 1468/566/3 1467/658/3 1466/567/3
f 1472/567/4 1471/658/4 1470/566/4
f 1474/569/5 1475/659/5 1476/570/5
f 1478/570/6 1479/659/6 1480/569/6
