# Blender 5.1.2
# www.blender.org
o st_isle_00_crystal
v 0.460939 0.072197 -0.645730
v 0.548771 0.034232 -0.399680
v 0.664312 1.886588 -0.155116
v 0.576480 1.924552 -0.401165
v 0.576480 1.924552 -0.401165
v 0.664312 1.886588 -0.155116
v 0.868130 2.424815 -0.286456
v 0.548771 0.034232 -0.399680
v 0.807832 0.012036 -0.353950
v 0.923373 1.864392 -0.109386
v 0.664312 1.886588 -0.155116
v 0.664312 1.886588 -0.155116
v 0.923373 1.864392 -0.109386
v 0.868130 2.424815 -0.286456
v 0.807832 0.012036 -0.353950
v 0.979061 0.027803 -0.554271
v 1.094602 1.880159 -0.309706
v 0.923373 1.864392 -0.109386
v 0.923373 1.864392 -0.109386
v 1.094602 1.880159 -0.309706
v 0.868130 2.424815 -0.286456
v 0.979061 0.027803 -0.554271
v 0.891229 0.065768 -0.800320
v 1.006770 1.918123 -0.555756
v 1.094602 1.880159 -0.309706
v 1.094602 1.880159 -0.309706
v 1.006770 1.918123 -0.555756
v 0.868130 2.424815 -0.286456
v 0.891229 0.065768 -0.800320
v 0.632168 0.087964 -0.846050
v 0.747709 1.940320 -0.601486
v 1.006770 1.918123 -0.555756
v 1.006770 1.918123 -0.555756
v 0.747709 1.940320 -0.601486
v 0.868130 2.424815 -0.286456
v 0.632168 0.087964 -0.846050
v 0.460939 0.072197 -0.645730
v 0.576480 1.924552 -0.401165
v 0.747709 1.940320 -0.601486
v 0.747709 1.940320 -0.601486
v 0.576480 1.924552 -0.401165
v 0.868130 2.424815 -0.286456
v 0.575139 -0.005124 -0.633701
v 0.637394 -0.028552 -0.489706
v 0.208945 0.892516 -0.154615
v 0.146692 0.915944 -0.298611
v 0.146692 0.915944 -0.298611
v 0.208945 0.892516 -0.154615
v 0.170709 1.230855 -0.170399
v 0.637394 -0.028552 -0.489706
v 0.782255 0.026572 -0.456006
v 0.353807 0.947639 -0.120915
v 0.208945 0.892516 -0.154615
v 0.208945 0.892516 -0.154615
v 0.353807 0.947639 -0.120915
v 0.170709 1.230855 -0.170399
v 0.782255 0.026572 -0.456006
v 0.864861 0.105124 -0.566299
v 0.436411 1.026191 -0.231211
v 0.353807 0.947639 -0.120915
v 0.353807 0.947639 -0.120915
v 0.436411 1.026191 -0.231211
v 0.170709 1.230855 -0.170399
v 0.864861 0.105124 -0.566299
v 0.802606 0.128552 -0.710294
v 0.374158 1.049619 -0.375206
v 0.436411 1.026191 -0.231211
v 0.436411 1.026191 -0.231211
v 0.374158 1.049619 -0.375206
v 0.170709 1.230855 -0.170399
v 0.802606 0.128552 -0.710294
v 0.657745 0.073428 -0.743994
v 0.229298 0.994496 -0.408905
v 0.374158 1.049619 -0.375206
v 0.374158 1.049619 -0.375206
v 0.229298 0.994496 -0.408905
v 0.170709 1.230855 -0.170399
v 0.657745 0.073428 -0.743994
v 0.575139 -0.005124 -0.633701
v 0.146692 0.915944 -0.298611
v 0.229298 0.994496 -0.408905
v 0.229298 0.994496 -0.408905
v 0.146692 0.915944 -0.298611
v 0.170709 1.230855 -0.170399
v 0.560330 0.030974 -0.632122
v 0.620175 -0.011972 -0.485623
v 0.460709 0.809670 -0.179617
v 0.400866 0.852617 -0.326117
v 0.400866 0.852617 -0.326117
v 0.460709 0.809670 -0.179617
v 0.515557 1.103389 -0.207685
v 0.620175 -0.011972 -0.485623
v 0.779843 0.007053 -0.453500
v 0.620377 0.828696 -0.147493
v 0.460709 0.809670 -0.179617
v 0.460709 0.809670 -0.179617
v 0.620377 0.828696 -0.147493
v 0.515557 1.103389 -0.207685
v 0.779843 0.007053 -0.453500
v 0.879670 0.069026 -0.567878
v 0.720203 0.890669 -0.261873
v 0.620377 0.828696 -0.147493
v 0.620377 0.828696 -0.147493
v 0.720203 0.890669 -0.261873
v 0.515557 1.103389 -0.207685
v 0.879670 0.069026 -0.567878
v 0.819825 0.111972 -0.714377
v 0.660359 0.933616 -0.408373
v 0.720203 0.890669 -0.261873
v 0.720203 0.890669 -0.261873
v 0.660359 0.933616 -0.408373
v 0.515557 1.103389 -0.207685
v 0.819825 0.111972 -0.714377
v 0.660157 0.092947 -0.746500
v 0.500691 0.914589 -0.440493
v 0.660359 0.933616 -0.408373
v 0.660359 0.933616 -0.408373
v 0.500691 0.914589 -0.440493
v 0.515557 1.103389 -0.207685
v 0.660157 0.092947 -0.746500
v 0.560330 0.030974 -0.632122
v 0.400866 0.852617 -0.326117
v 0.500691 0.914589 -0.440493
v 0.500691 0.914589 -0.440493
v 0.400866 0.852617 -0.326117
v 0.515557 1.103389 -0.207685
v 0.550551 0.148127 -0.619847
v 0.608426 0.086651 -0.442064
v 1.184388 1.115277 -0.273876
v 1.126512 1.176753 -0.451661
v 1.126512 1.176753 -0.451661
v 1.184388 1.115277 -0.273876
v 1.458412 1.368752 -0.384375
v 0.608426 0.086651 -0.442064
v 0.777877 -0.011476 -0.422215
v 1.353838 1.017151 -0.254029
v 1.184388 1.115277 -0.273876
v 1.184388 1.115277 -0.273876
v 1.353838 1.017151 -0.254029
v 1.458412 1.368752 -0.384375
v 0.777877 -0.011476 -0.422215
v 0.889449 -0.048127 -0.580153
v 1.465412 0.980499 -0.411965
v 1.353838 1.017151 -0.254029
v 1.353838 1.017151 -0.254029
v 1.465412 0.980499 -0.411965
v 1.458412 1.368752 -0.384375
v 0.889449 -0.048127 -0.580153
v 0.831574 0.013349 -0.757936
v 1.407536 1.041975 -0.589750
v 1.465412 0.980499 -0.411965
v 1.465412 0.980499 -0.411965
v 1.407536 1.041975 -0.589750
v 1.458412 1.368752 -0.384375
v 0.831574 0.013349 -0.757936
v 0.662124 0.111476 -0.777785
v 1.238086 1.140102 -0.609597
v 1.407536 1.041975 -0.589750
v 1.407536 1.041975 -0.589750
v 1.238086 1.140102 -0.609597
v 1.458412 1.368752 -0.384375
v 0.662124 0.111476 -0.777785
v 0.550551 0.148127 -0.619847
v 1.126512 1.176753 -0.451661
v 1.238086 1.140102 -0.609597
v 1.238086 1.140102 -0.609597
v 1.126512 1.176753 -0.451661
v 1.458412 1.368752 -0.384375
v 0.593641 0.059821 -0.622426
v 0.635906 -0.005174 -0.519688
v 0.609299 0.708655 -0.057148
v 0.567033 0.773652 -0.159887
v 0.567033 0.773652 -0.159887
v 0.609299 0.708655 -0.057148
v 0.685886 0.965166 -0.007001
v 0.635906 -0.005174 -0.519688
v 0.762266 -0.014996 -0.497260
v 0.735658 0.698834 -0.034722
v 0.609299 0.708655 -0.057148
v 0.609299 0.708655 -0.057148
v 0.735658 0.698834 -0.034722
v 0.685886 0.965166 -0.007001
v 0.762266 -0.014996 -0.497260
v 0.846359 0.040179 -0.577574
v 0.819751 0.754009 -0.115035
v 0.735658 0.698834 -0.034722
v 0.735658 0.698834 -0.034722
v 0.819751 0.754009 -0.115035
v 0.685886 0.965166 -0.007001
v 0.846359 0.040179 -0.577574
v 0.804094 0.105174 -0.680312
v 0.777487 0.819005 -0.217773
v 0.819751 0.754009 -0.115035
v 0.819751 0.754009 -0.115035
v 0.777487 0.819005 -0.217773
v 0.685886 0.965166 -0.007001
v 0.804094 0.105174 -0.680312
v 0.677734 0.114996 -0.702740
v 0.651126 0.828826 -0.240201
v 0.777487 0.819005 -0.217773
v 0.777487 0.819005 -0.217773
v 0.651126 0.828826 -0.240201
v 0.685886 0.965166 -0.007001
v 0.677734 0.114996 -0.702740
v 0.593641 0.059821 -0.622426
v 0.567033 0.773652 -0.159887
v 0.651126 0.828826 -0.240201
v 0.651126 0.828826 -0.240201
v 0.567033 0.773652 -0.159887
v 0.685886 0.965166 -0.007001
v 2.975574 -0.289967 2.244080
v 2.835926 -0.320009 2.235289
v 3.050976 -1.311360 2.206972
v 3.190624 -1.281318 2.215763
v 3.190624 -1.281318 2.215763
v 3.050976 -1.311360 2.206972
v 3.188167 -1.570963 2.079723
v 2.835926 -0.320009 2.235289
v 2.772813 -0.330042 2.107235
v 2.987863 -1.321393 2.078918
v 3.050976 -1.311360 2.206972
v 3.050976 -1.311360 2.206972
v 2.987863 -1.321393 2.078918
v 3.188167 -1.570963 2.079723
v 2.772813 -0.330042 2.107235
v 2.849349 -0.310033 1.987973
v 3.064399 -1.301384 1.959656
v 2.987863 -1.321393 2.078918
v 2.987863 -1.321393 2.078918
v 3.064399 -1.301384 1.959656
v 3.188167 -1.570963 2.079723
v 2.849349 -0.310033 1.987973
v 2.988997 -0.279991 1.996765
v 3.204047 -1.271342 1.968448
v 3.064399 -1.301384 1.959656
v 3.064399 -1.301384 1.959656
v 3.204047 -1.271342 1.968448
v 3.188167 -1.570963 2.079723
v 2.988997 -0.279991 1.996765
v 3.052109 -0.269958 2.124819
v 3.267160 -1.261309 2.096502
v 3.204047 -1.271342 1.968448
v 3.204047 -1.271342 1.968448
v 3.267160 -1.261309 2.096502
v 3.188167 -1.570963 2.079723
v 3.052109 -0.269958 2.124819
v 2.975574 -0.289967 2.244080
v 3.190624 -1.281318 2.215763
v 3.267160 -1.261309 2.096502
v 3.267160 -1.261309 2.096502
v 3.190624 -1.281318 2.215763
v 3.188167 -1.570963 2.079723
v 2.946259 -0.290150 2.186629
v 2.869334 -0.306961 2.181720
v 3.001536 -0.918367 2.203730
v 3.078459 -0.901558 2.208638
v 3.078459 -0.901558 2.208638
v 3.001536 -0.918367 2.203730
v 3.081949 -1.083856 2.144245
v 2.869334 -0.306961 2.181720
v 2.835538 -0.316809 2.111118
v 2.967738 -0.928217 2.133127
v 3.001536 -0.918367 2.203730
v 3.001536 -0.918367 2.203730
v 2.967738 -0.928217 2.133127
v 3.081949 -1.083856 2.144245
v 2.835538 -0.316809 2.111118
v 2.878664 -0.309850 2.045425
v 3.010865 -0.921256 2.067434
v 2.967738 -0.928217 2.133127
v 2.967738 -0.928217 2.133127
v 3.010865 -0.921256 2.067434
v 3.081949 -1.083856 2.144245
v 2.878664 -0.309850 2.045425
v 2.955588 -0.293039 2.050334
v 3.087788 -0.904447 2.072344
v 3.010865 -0.921256 2.067434
v 3.010865 -0.921256 2.067434
v 3.087788 -0.904447 2.072344
v 3.081949 -1.083856 2.144245
v 2.955588 -0.293039 2.050334
v 2.989385 -0.283191 2.120935
v 3.121585 -0.894598 2.142945
v 3.087788 -0.904447 2.072344
v 3.087788 -0.904447 2.072344
v 3.121585 -0.894598 2.142945
v 3.081949 -1.083856 2.144245
v 2.989385 -0.283191 2.120935
v 2.946259 -0.290150 2.186629
v 3.078459 -0.901558 2.208638
v 3.121585 -0.894598 2.142945
v 3.121585 -0.894598 2.142945
v 3.078459 -0.901558 2.208638
v 3.081949 -1.083856 2.144245
v 2.931758 -0.261553 2.171209
v 2.868018 -0.290339 2.169196
v 3.086808 -0.793970 2.443583
v 3.150549 -0.765182 2.445596
v 3.150549 -0.765182 2.445596
v 3.086808 -0.793970 2.443583
v 3.192961 -0.945679 2.467806
v 2.868018 -0.290339 2.169196
v 2.848722 -0.328787 2.114015
v 3.067512 -0.832416 2.388403
v 3.086808 -0.793970 2.443583
v 3.086808 -0.793970 2.443583
v 3.067512 -0.832416 2.388403
v 3.192961 -0.945679 2.467806
v 2.848722 -0.328787 2.114015
v 2.893165 -0.338447 2.060845
v 3.111955 -0.842076 2.335234
v 3.067512 -0.832416 2.388403
v 3.067512 -0.832416 2.388403
v 3.111955 -0.842076 2.335234
v 3.192961 -0.945679 2.467806
v 2.893165 -0.338447 2.060845
v 2.956904 -0.309661 2.062857
v 3.175695 -0.813289 2.337246
v 3.111955 -0.842076 2.335234
v 3.111955 -0.842076 2.335234
v 3.175695 -0.813289 2.337246
v 3.192961 -0.945679 2.467806
v 2.956904 -0.309661 2.062857
v 2.976201 -0.271213 2.118039
v 3.194992 -0.774843 2.392427
v 3.175695 -0.813289 2.337246
v 3.175695 -0.813289 2.337246
v 3.194992 -0.774843 2.392427
v 3.192961 -0.945679 2.467806
v 2.976201 -0.271213 2.118039
v 2.931758 -0.261553 2.171209
v 3.150549 -0.765182 2.445596
v 3.194992 -0.774843 2.392427
v 3.194992 -0.774843 2.392427
v 3.150549 -0.765182 2.445596
v 3.192961 -0.945679 2.467806
v 2.945705 -0.312934 2.175222
v 2.880587 -0.334481 2.166739
v 3.095387 -0.888460 1.925070
v 3.160505 -0.866913 1.933555
v 3.160505 -0.866913 1.933555
v 3.095387 -0.888460 1.925070
v 3.187846 -1.010229 1.806196
v 2.880587 -0.334481 2.166739
v 2.847344 -0.321548 2.107542
v 3.062144 -0.875527 1.865874
v 3.095387 -0.888460 1.925070
v 3.095387 -0.888460 1.925070
v 3.062144 -0.875527 1.865874
v 3.187846 -1.010229 1.806196
v 2.847344 -0.321548 2.107542
v 2.879218 -0.287066 2.056831
v 3.094018 -0.841044 1.815162
v 3.062144 -0.875527 1.865874
v 3.062144 -0.875527 1.865874
v 3.094018 -0.841044 1.815162
v 3.187846 -1.010229 1.806196
v 2.879218 -0.287066 2.056831
v 2.944336 -0.265519 2.065315
v 3.159136 -0.819498 1.823647
v 3.094018 -0.841044 1.815162
v 3.094018 -0.841044 1.815162
v 3.159136 -0.819498 1.823647
v 3.187846 -1.010229 1.806196
v 2.944336 -0.265519 2.065315
v 2.977579 -0.278452 2.124511
v 3.192379 -0.832431 1.882842
v 3.159136 -0.819498 1.823647
v 3.159136 -0.819498 1.823647
v 3.192379 -0.832431 1.882842
v 3.187846 -1.010229 1.806196
v 2.977579 -0.278452 2.124511
v 2.945705 -0.312934 2.175222
v 3.160505 -0.866913 1.933555
v 3.192379 -0.832431 1.882842
v 3.192379 -0.832431 1.882842
v 3.160505 -0.866913 1.933555
v 3.187846 -1.010229 1.806196
v 2.941670 -0.294994 2.175456
v 2.882080 -0.323802 2.170068
v 3.024191 -0.609206 2.124260
v 3.083782 -0.580398 2.129647
v 3.083782 -0.580398 2.129647
v 3.024191 -0.609206 2.124260
v 3.094656 -0.665903 2.057298
v 2.882080 -0.323802 2.170068
v 2.852871 -0.328808 2.110639
v 2.994982 -0.614212 2.064832
v 3.024191 -0.609206 2.124260
v 3.024191 -0.609206 2.124260
v 2.994982 -0.614212 2.064832
v 3.094656 -0.665903 2.057298
v 2.852871 -0.328808 2.110639
v 2.883252 -0.305006 2.056598
v 3.025364 -0.590409 2.010790
v 2.994982 -0.614212 2.064832
v 2.994982 -0.614212 2.064832
v 3.025364 -0.590409 2.010790
v 3.094656 -0.665903 2.057298
v 2.883252 -0.305006 2.056598
v 2.942843 -0.276198 2.061986
v 3.084955 -0.561602 2.016177
v 3.025364 -0.590409 2.010790
v 3.025364 -0.590409 2.010790
v 3.084955 -0.561602 2.016177
v 3.094656 -0.665903 2.057298
v 2.942843 -0.276198 2.061986
v 2.972052 -0.271192 2.121415
v 3.114164 -0.556596 2.075606
v 3.084955 -0.561602 2.016177
v 3.084955 -0.561602 2.016177
v 3.114164 -0.556596 2.075606
v 3.094656 -0.665903 2.057298
v 2.972052 -0.271192 2.121415
v 2.941670 -0.294994 2.175456
v 3.083782 -0.580398 2.129647
v 3.114164 -0.556596 2.075606
v 3.114164 -0.556596 2.075606
v 3.083782 -0.580398 2.129647
v 3.094656 -0.665903 2.057298
v 2.932606 -0.259530 2.173786
v 2.868859 -0.295791 2.174857
v 3.169227 -0.816145 2.434700
v 3.232974 -0.779884 2.433629
v 3.232974 -0.779884 2.433629
v 3.169227 -0.816145 2.434700
v 3.297548 -0.967121 2.449158
v 2.868859 -0.295791 2.174857
v 2.848714 -0.336263 2.117097
v 3.149082 -0.856617 2.376940
v 3.169227 -0.816145 2.434700
v 3.169227 -0.816145 2.434700
v 3.149082 -0.856617 2.376940
v 3.297548 -0.967121 2.449158
v 2.848714 -0.336263 2.117097
v 2.892316 -0.340470 2.058268
v 3.192683 -0.860825 2.318110
v 3.149082 -0.856617 2.376940
v 3.149082 -0.856617 2.376940
v 3.192683 -0.860825 2.318110
v 3.297548 -0.967121 2.449158
v 2.892316 -0.340470 2.058268
v 2.956063 -0.304209 2.057197
v 3.256431 -0.824563 2.317040
v 3.192683 -0.860825 2.318110
v 3.192683 -0.860825 2.318110
v 3.256431 -0.824563 2.317040
v 3.297548 -0.967121 2.449158
v 2.956063 -0.304209 2.057197
v 2.976208 -0.263737 2.114956
v 3.276576 -0.784092 2.374798
v 3.256431 -0.824563 2.317040
v 3.256431 -0.824563 2.317040
v 3.276576 -0.784092 2.374798
v 3.297548 -0.967121 2.449158
v 2.976208 -0.263737 2.114956
v 2.932606 -0.259530 2.173786
v 3.232974 -0.779884 2.433629
v 3.276576 -0.784092 2.374798
v 3.276576 -0.784092 2.374798
v 3.232974 -0.779884 2.433629
v 3.297548 -0.967121 2.449158
v 2.948964 -0.265953 2.202888
v 2.852775 -0.293144 2.196196
v 2.975634 -0.760110 2.327603
v 3.071824 -0.732920 2.334295
v 3.071824 -0.732920 2.334295
v 2.975634 -0.760110 2.327603
v 3.069973 -0.898675 2.284498
v 2.852775 -0.293144 2.196196
v 2.816272 -0.327190 2.109335
v 2.939131 -0.794158 2.240743
v 2.975634 -0.760110 2.327603
v 2.975634 -0.760110 2.327603
v 2.939131 -0.794158 2.240743
v 3.069973 -0.898675 2.284498
v 2.816272 -0.327190 2.109335
v 2.875958 -0.334047 2.029166
v 2.998817 -0.801014 2.160574
v 2.939131 -0.794158 2.240743
v 2.939131 -0.794158 2.240743
v 2.998817 -0.801014 2.160574
v 3.069973 -0.898675 2.284498
v 2.875958 -0.334047 2.029166
v 2.972147 -0.306856 2.035858
v 3.095006 -0.773824 2.167266
v 2.998817 -0.801014 2.160574
v 2.998817 -0.801014 2.160574
v 3.095006 -0.773824 2.167266
v 3.069973 -0.898675 2.284498
v 2.972147 -0.306856 2.035858
v 3.008651 -0.272810 2.122719
v 3.131509 -0.739777 2.254126
v 3.095006 -0.773824 2.167266
v 3.095006 -0.773824 2.167266
v 3.131509 -0.739777 2.254126
v 3.069973 -0.898675 2.284498
v 3.008651 -0.272810 2.122719
v 2.948964 -0.265953 2.202888
v 3.071824 -0.732920 2.334295
v 3.131509 -0.739777 2.254126
v 3.131509 -0.739777 2.254126
v 3.071824 -0.732920 2.334295
v 3.069973 -0.898675 2.284498
v 2.948060 -0.332686 2.170882
v 2.874972 -0.330998 2.170602
v 2.863152 -0.897954 1.840453
v 2.936237 -0.899641 1.840734
v 2.936237 -0.899641 1.840734
v 2.863152 -0.897954 1.840453
v 2.897305 -1.026867 1.692760
v 2.874972 -0.330998 2.170602
v 2.839374 -0.298313 2.115747
v 2.827553 -0.865269 1.785598
v 2.863152 -0.897954 1.840453
v 2.863152 -0.897954 1.840453
v 2.827553 -0.865269 1.785598
v 2.897305 -1.026867 1.692760
v 2.839374 -0.298313 2.115747
v 2.876863 -0.267315 2.061172
v 2.865041 -0.834272 1.731024
v 2.827553 -0.865269 1.785598
v 2.827553 -0.865269 1.785598
v 2.865041 -0.834272 1.731024
v 2.897305 -1.026867 1.692760
v 2.876863 -0.267315 2.061172
v 2.949950 -0.269002 2.061452
v 2.938128 -0.835958 1.731304
v 2.865041 -0.834272 1.731024
v 2.865041 -0.834272 1.731024
v 2.938128 -0.835958 1.731304
v 2.897305 -1.026867 1.692760
v 2.949950 -0.269002 2.061452
v 2.985548 -0.301687 2.116307
v 2.973726 -0.868644 1.786159
v 2.938128 -0.835958 1.731304
v 2.938128 -0.835958 1.731304
v 2.973726 -0.868644 1.786159
v 2.897305 -1.026867 1.692760
v 2.985548 -0.301687 2.116307
v 2.948060 -0.332686 2.170882
v 2.936237 -0.899641 1.840734
v 2.973726 -0.868644 1.786159
v 2.973726 -0.868644 1.786159
v 2.936237 -0.899641 1.840734
v 2.897305 -1.026867 1.692760
v -3.328634 -0.270702 1.538625
v -3.383175 -0.215580 1.582874
v -3.750308 -0.713969 1.751199
v -3.695766 -0.769091 1.706949
v -3.695766 -0.769091 1.706949
v -3.750308 -0.713969 1.751199
v -3.868886 -0.872562 1.712531
v -3.383175 -0.215580 1.582874
v -3.452745 -0.178482 1.540981
v -3.819878 -0.676869 1.709305
v -3.750308 -0.713969 1.751199
v -3.750308 -0.713969 1.751199
v -3.819878 -0.676869 1.709305
v -3.868886 -0.872562 1.712531
v -3.452745 -0.178482 1.540981
v -3.467773 -0.196506 1.454838
v -3.834906 -0.694893 1.623162
v -3.819878 -0.676869 1.709305
v -3.819878 -0.676869 1.709305
v -3.834906 -0.694893 1.623162
v -3.868886 -0.872562 1.712531
v -3.467773 -0.196506 1.454838
v -3.413231 -0.251628 1.410588
v -3.780364 -0.750016 1.578912
v -3.834906 -0.694893 1.623162
v -3.834906 -0.694893 1.623162
v -3.780364 -0.750016 1.578912
v -3.868886 -0.872562 1.712531
v -3.413231 -0.251628 1.410588
v -3.343663 -0.288727 1.452481
v -3.710794 -0.787114 1.620805
v -3.780364 -0.750016 1.578912
v -3.780364 -0.750016 1.578912
v -3.710794 -0.787114 1.620805
v -3.868886 -0.872562 1.712531
v -3.343663 -0.288727 1.452481
v -3.328634 -0.270702 1.538625
v -3.695766 -0.769091 1.706949
v -3.710794 -0.787114 1.620805
v -3.710794 -0.787114 1.620805
v -3.695766 -0.769091 1.706949
v -3.868886 -0.872562 1.712531
v -3.236315 -0.285011 1.366577
v -3.292478 -0.289278 1.395277
v -3.377242 -0.930325 1.134064
v -3.321078 -0.926057 1.105365
v -3.321078 -0.926057 1.105365
v -3.377242 -0.930325 1.134064
v -3.397300 -1.087761 1.001779
v -3.292478 -0.289278 1.395277
v -3.344791 -0.270174 1.365367
v -3.429554 -0.911221 1.104155
v -3.377242 -0.930325 1.134064
v -3.377242 -0.930325 1.134064
v -3.429554 -0.911221 1.104155
v -3.397300 -1.087761 1.001779
v -3.344791 -0.270174 1.365367
v -3.340940 -0.246801 1.306757
v -3.425704 -0.887848 1.045545
v -3.429554 -0.911221 1.104155
v -3.429554 -0.911221 1.104155
v -3.425704 -0.887848 1.045545
v -3.397300 -1.087761 1.001779
v -3.340940 -0.246801 1.306757
v -3.284777 -0.242533 1.278057
v -3.369541 -0.883579 1.016845
v -3.425704 -0.887848 1.045545
v -3.425704 -0.887848 1.045545
v -3.369541 -0.883579 1.016845
v -3.397300 -1.087761 1.001779
v -3.284777 -0.242533 1.278057
v -3.232465 -0.261638 1.307967
v -3.317229 -0.902684 1.046755
v -3.369541 -0.883579 1.016845
v -3.369541 -0.883579 1.016845
v -3.317229 -0.902684 1.046755
v -3.397300 -1.087761 1.001779
v -3.232465 -0.261638 1.307967
v -3.236315 -0.285011 1.366577
v -3.321078 -0.926057 1.105365
v -3.317229 -0.902684 1.046755
v -3.317229 -0.902684 1.046755
v -3.321078 -0.926057 1.105365
v -3.397300 -1.087761 1.001779
v -3.215876 -0.305076 1.381659
v -3.303902 -0.314487 1.417941
v -3.350605 -0.623547 1.224471
v -3.262579 -0.614136 1.188189
v -3.262579 -0.614136 1.188189
v -3.350605 -0.623547 1.224471
v -3.350472 -0.661898 1.088704
v -3.303902 -0.314487 1.417941
v -3.378621 -0.275079 1.373025
v -3.425323 -0.584140 1.179556
v -3.350605 -0.623547 1.224471
v -3.350605 -0.623547 1.224471
v -3.425323 -0.584140 1.179556
v -3.350472 -0.661898 1.088704
v -3.378621 -0.275079 1.373025
v -3.365316 -0.226261 1.291828
v -3.412019 -0.535320 1.098357
v -3.425323 -0.584140 1.179556
v -3.425323 -0.584140 1.179556
v -3.412019 -0.535320 1.098357
v -3.350472 -0.661898 1.088704
v -3.365316 -0.226261 1.291828
v -3.277290 -0.216849 1.255546
v -3.323993 -0.525909 1.062075
v -3.412019 -0.535320 1.098357
v -3.412019 -0.535320 1.098357
v -3.323993 -0.525909 1.062075
v -3.350472 -0.661898 1.088704
v -3.277290 -0.216849 1.255546
v -3.202571 -0.256258 1.300460
v -3.249274 -0.565317 1.106991
v -3.323993 -0.525909 1.062075
v -3.323993 -0.525909 1.062075
v -3.249274 -0.565317 1.106991
v -3.350472 -0.661898 1.088704
v -3.202571 -0.256258 1.300460
v -3.215876 -0.305076 1.381659
v -3.262579 -0.614136 1.188189
v -3.249274 -0.565317 1.106991
v -3.249274 -0.565317 1.106991
v -3.262579 -0.614136 1.188189
v -3.350472 -0.661898 1.088704
v -3.299319 -0.276509 1.411090
v -3.368718 -0.258362 1.455249
v -3.547068 -0.841928 1.414781
v -3.477671 -0.860075 1.370621
v -3.477671 -0.860075 1.370621
v -3.547068 -0.841928 1.414781
v -3.598127 -1.000466 1.319355
v -3.368718 -0.258362 1.455249
v -3.438869 -0.234158 1.415397
v -3.617221 -0.817724 1.374928
v -3.547068 -0.841928 1.414781
v -3.547068 -0.841928 1.414781
v -3.617221 -0.817724 1.374928
v -3.598127 -1.000466 1.319355
v -3.438869 -0.234158 1.415397
v -3.439623 -0.228101 1.331384
v -3.617976 -0.811667 1.290915
v -3.617221 -0.817724 1.374928
v -3.617221 -0.817724 1.374928
v -3.617976 -0.811667 1.290915
v -3.598127 -1.000466 1.319355
v -3.439623 -0.228101 1.331384
v -3.370226 -0.246248 1.287224
v -3.548578 -0.829814 1.246756
v -3.617976 -0.811667 1.290915
v -3.617976 -0.811667 1.290915
v -3.548578 -0.829814 1.246756
v -3.598127 -1.000466 1.319355
v -3.370226 -0.246248 1.287224
v -3.300075 -0.270452 1.327077
v -3.478426 -0.854018 1.286608
v -3.548578 -0.829814 1.246756
v -3.548578 -0.829814 1.246756
v -3.478426 -0.854018 1.286608
v -3.598127 -1.000466 1.319355
v -3.300075 -0.270452 1.327077
v -3.299319 -0.276509 1.411090
v -3.477671 -0.860075 1.370621
v -3.478426 -0.854018 1.286608
v -3.478426 -0.854018 1.286608
v -3.477671 -0.860075 1.370621
v -3.598127 -1.000466 1.319355
v -3.320704 -0.256265 1.520716
v -3.396591 -0.223032 1.570828
v -3.575830 -0.758250 1.654336
v -3.499940 -0.791483 1.604224
v -3.499940 -0.791483 1.604224
v -3.575830 -0.758250 1.654336
v -3.633360 -0.921812 1.582144
v -3.396591 -0.223032 1.570828
v -3.479456 -0.202402 1.525195
v -3.658695 -0.737620 1.608703
v -3.575830 -0.758250 1.654336
v -3.575830 -0.758250 1.654336
v -3.658695 -0.737620 1.608703
v -3.633360 -0.921812 1.582144
v -3.479456 -0.202402 1.525195
v -3.486434 -0.215004 1.429449
v -3.665671 -0.750223 1.512958
v -3.658695 -0.737620 1.608703
v -3.658695 -0.737620 1.608703
v -3.665671 -0.750223 1.512958
v -3.633360 -0.921812 1.582144
v -3.486434 -0.215004 1.429449
v -3.410546 -0.248237 1.379338
v -3.589782 -0.783456 1.462846
v -3.665671 -0.750223 1.512958
v -3.665671 -0.750223 1.512958
v -3.589782 -0.783456 1.462846
v -3.633360 -0.921812 1.582144
v -3.410546 -0.248237 1.379338
v -3.327681 -0.268867 1.424971
v -3.506917 -0.804086 1.508480
v -3.589782 -0.783456 1.462846
v -3.589782 -0.783456 1.462846
v -3.506917 -0.804086 1.508480
v -3.633360 -0.921812 1.582144
v -3.327681 -0.268867 1.424971
v -3.320704 -0.256265 1.520716
v -3.499940 -0.791483 1.604224
v -3.506917 -0.804086 1.508480
v -3.506917 -0.804086 1.508480
v -3.499940 -0.791483 1.604224
v -3.633360 -0.921812 1.582144
v -3.147424 -0.267751 1.395180
v -3.197164 -0.283729 1.428471
v -3.097444 -0.836723 1.312059
v -3.047704 -0.820746 1.278769
v -3.047704 -0.820746 1.278769
v -3.097444 -0.836723 1.312059
v -3.075039 -0.980979 1.218664
v -3.197164 -0.283729 1.428471
v -3.252625 -0.287990 1.401201
v -3.152905 -0.840983 1.284788
v -3.097444 -0.836723 1.312059
v -3.097444 -0.836723 1.312059
v -3.152905 -0.840983 1.284788
v -3.075039 -0.980979 1.218664
v -3.252625 -0.287990 1.401201
v -3.258345 -0.276272 1.340640
v -3.158625 -0.829266 1.224227
v -3.152905 -0.840983 1.284788
v -3.152905 -0.840983 1.284788
v -3.158625 -0.829266 1.224227
v -3.075039 -0.980979 1.218664
v -3.258345 -0.276272 1.340640
v -3.208604 -0.260294 1.307349
v -3.108885 -0.813288 1.190937
v -3.158625 -0.829266 1.224227
v -3.158625 -0.829266 1.224227
v -3.108885 -0.813288 1.190937
v -3.075039 -0.980979 1.218664
v -3.208604 -0.260294 1.307349
v -3.153144 -0.256034 1.334619
v -3.053424 -0.809028 1.218208
v -3.108885 -0.813288 1.190937
v -3.108885 -0.813288 1.190937
v -3.053424 -0.809028 1.218208
v -3.075039 -0.980979 1.218664
v -3.153144 -0.256034 1.334619
v -3.147424 -0.267751 1.395180
v -3.047704 -0.820746 1.278769
v -3.053424 -0.809028 1.218208
v -3.053424 -0.809028 1.218208
v -3.047704 -0.820746 1.278769
v -3.075039 -0.980979 1.218664
v -3.352771 -0.257215 1.507226
v -3.396676 -0.226687 1.539142
v -3.640290 -0.669170 1.627250
v -3.596385 -0.699698 1.595333
v -3.596385 -0.699698 1.595333
v -3.640290 -0.669170 1.627250
v -3.715445 -0.802639 1.590769
v -3.396676 -0.226687 1.539142
v -3.447025 -0.204824 1.509727
v -3.690639 -0.647308 1.597835
v -3.640290 -0.669170 1.627250
v -3.640290 -0.669170 1.627250
v -3.690639 -0.647308 1.597835
v -3.715445 -0.802639 1.590769
v -3.447025 -0.204824 1.509727
v -3.453468 -0.213490 1.448395
v -3.697082 -0.655973 1.536503
v -3.690639 -0.647308 1.597835
v -3.690639 -0.647308 1.597835
v -3.697082 -0.655973 1.536503
v -3.715445 -0.802639 1.590769
v -3.453468 -0.213490 1.448395
v -3.409564 -0.244018 1.416478
v -3.653177 -0.686500 1.504586
v -3.697082 -0.655973 1.536503
v -3.697082 -0.655973 1.536503
v -3.653177 -0.686500 1.504586
v -3.715445 -0.802639 1.590769
v -3.409564 -0.244018 1.416478
v -3.359215 -0.265880 1.445894
v -3.602829 -0.708362 1.534001
v -3.653177 -0.686500 1.504586
v -3.653177 -0.686500 1.504586
v -3.602829 -0.708362 1.534001
v -3.715445 -0.802639 1.590769
v -3.359215 -0.265880 1.445894
v -3.352771 -0.257215 1.507226
v -3.596385 -0.699698 1.595333
v -3.602829 -0.708362 1.534001
v -3.602829 -0.708362 1.534001
v -3.596385 -0.699698 1.595333
v -3.715445 -0.802639 1.590769
v -3.312643 -0.262648 1.561891
v -3.371473 -0.205508 1.605253
v -3.577989 -0.521937 1.742047
v -3.519158 -0.579077 1.698685
v -3.519158 -0.579077 1.698685
v -3.577989 -0.521937 1.742047
v -3.653236 -0.637801 1.693400
v -3.371473 -0.205508 1.605253
v -3.447303 -0.174983 1.561385
v -3.653819 -0.491410 1.698179
v -3.577989 -0.521937 1.742047
v -3.577989 -0.521937 1.742047
v -3.653819 -0.491410 1.698179
v -3.653236 -0.637801 1.693400
v -3.447303 -0.174983 1.561385
v -3.464303 -0.201598 1.474154
v -3.670818 -0.518026 1.610949
v -3.653819 -0.491410 1.698179
v -3.653819 -0.491410 1.698179
v -3.670818 -0.518026 1.610949
v -3.653236 -0.637801 1.693400
v -3.464303 -0.201598 1.474154
v -3.405472 -0.258739 1.430792
v -3.611987 -0.575168 1.567588
v -3.670818 -0.518026 1.610949
v -3.670818 -0.518026 1.610949
v -3.611987 -0.575168 1.567588
v -3.653236 -0.637801 1.693400
v -3.405472 -0.258739 1.430792
v -3.329642 -0.289264 1.474662
v -3.536157 -0.605693 1.611456
v -3.611987 -0.575168 1.567588
v -3.611987 -0.575168 1.567588
v -3.536157 -0.605693 1.611456
v -3.653236 -0.637801 1.693400
v -3.329642 -0.289264 1.474662
v -3.312643 -0.262648 1.561891
v -3.519158 -0.579077 1.698685
v -3.536157 -0.605693 1.611456
v -3.536157 -0.605693 1.611456
v -3.519158 -0.579077 1.698685
v -3.653236 -0.637801 1.693400
v -3.122295 -0.256266 1.409504
v -3.180720 -0.292972 1.453287
v -2.971232 -0.852569 1.263678
v -2.912806 -0.815862 1.219897
v -2.912806 -0.815862 1.219897
v -2.971232 -0.852569 1.263678
v -2.926393 -0.989416 1.132519
v -3.180720 -0.292972 1.453287
v -3.253394 -0.308693 1.419388
v -3.043906 -0.868288 1.229779
v -2.971232 -0.852569 1.263678
v -2.971232 -0.852569 1.263678
v -3.043906 -0.868288 1.229779
v -2.926393 -0.989416 1.132519
v -3.253394 -0.308693 1.419388
v -3.267643 -0.287706 1.341707
v -3.058154 -0.847302 1.152099
v -3.043906 -0.868288 1.229779
v -3.043906 -0.868288 1.229779
v -3.058154 -0.847302 1.152099
v -2.926393 -0.989416 1.132519
v -3.267643 -0.287706 1.341707
v -3.209218 -0.251000 1.297925
v -2.999728 -0.810595 1.108317
v -3.058154 -0.847302 1.152099
v -3.058154 -0.847302 1.152099
v -2.999728 -0.810595 1.108317
v -2.926393 -0.989416 1.132519
v -3.209218 -0.251000 1.297925
v -3.136544 -0.235279 1.331823
v -2.927055 -0.794875 1.142216
v -2.999728 -0.810595 1.108317
v -2.999728 -0.810595 1.108317
v -2.927055 -0.794875 1.142216
v -2.926393 -0.989416 1.132519
v -3.136544 -0.235279 1.331823
v -3.122295 -0.256266 1.409504
v -2.912806 -0.815862 1.219897
v -2.927055 -0.794875 1.142216
v -2.927055 -0.794875 1.142216
v -2.912806 -0.815862 1.219897
v -2.926393 -0.989416 1.132519
v -3.260589 -0.283800 1.373276
v -3.320037 -0.279760 1.406955
v -3.405788 -0.660158 1.301226
v -3.346339 -0.664199 1.267547
v -3.346339 -0.664199 1.267547
v -3.405788 -0.660158 1.301226
v -3.426794 -0.749806 1.205348
v -3.320037 -0.279760 1.406955
v -3.376308 -0.258076 1.374577
v -3.462058 -0.638475 1.268848
v -3.405788 -0.660158 1.301226
v -3.405788 -0.660158 1.301226
v -3.462058 -0.638475 1.268848
v -3.426794 -0.749806 1.205348
v -3.376308 -0.258076 1.374577
v -3.373129 -0.240433 1.308522
v -3.458879 -0.620831 1.202792
v -3.462058 -0.638475 1.268848
v -3.462058 -0.638475 1.268848
v -3.458879 -0.620831 1.202792
v -3.426794 -0.749806 1.205348
v -3.373129 -0.240433 1.308522
v -3.313680 -0.244474 1.274842
v -3.399430 -0.624871 1.169113
v -3.458879 -0.620831 1.202792
v -3.458879 -0.620831 1.202792
v -3.399430 -0.624871 1.169113
v -3.426794 -0.749806 1.205348
v -3.313680 -0.244474 1.274842
v -3.257409 -0.266157 1.307220
v -3.343159 -0.646555 1.201491
v -3.399430 -0.624871 1.169113
v -3.399430 -0.624871 1.169113
v -3.343159 -0.646555 1.201491
v -3.426794 -0.749806 1.205348
v -3.257409 -0.266157 1.307220
v -3.260589 -0.283800 1.373276
v -3.346339 -0.664199 1.267547
v -3.343159 -0.646555 1.201491
v -3.343159 -0.646555 1.201491
v -3.346339 -0.664199 1.267547
v -3.426794 -0.749806 1.205348
v -3.333328 -0.277002 1.531376
v -3.384686 -0.219008 1.576823
v -3.809204 -0.724044 1.741558
v -3.757845 -0.782038 1.696111
v -3.757845 -0.782038 1.696111
v -3.809204 -0.724044 1.741558
v -3.944658 -0.881692 1.700910
v -3.384686 -0.219008 1.576823
v -3.451764 -0.176215 1.535159
v -3.876280 -0.681253 1.699893
v -3.809204 -0.724044 1.741558
v -3.809204 -0.724044 1.741558
v -3.876280 -0.681253 1.699893
v -3.944658 -0.881692 1.700910
v -3.451764 -0.176215 1.535159
v -3.467481 -0.191416 1.448049
v -3.891999 -0.696454 1.612783
v -3.876280 -0.681253 1.699893
v -3.876280 -0.681253 1.699893
v -3.891999 -0.696454 1.612783
v -3.944658 -0.881692 1.700910
v -3.467481 -0.191416 1.448049
v -3.416123 -0.249410 1.402602
v -3.840641 -0.754448 1.567336
v -3.891999 -0.696454 1.612783
v -3.891999 -0.696454 1.612783
v -3.840641 -0.754448 1.567336
v -3.944658 -0.881692 1.700910
v -3.416123 -0.249410 1.402602
v -3.349047 -0.292203 1.444265
v -3.773563 -0.797240 1.609001
v -3.840641 -0.754448 1.567336
v -3.840641 -0.754448 1.567336
v -3.773563 -0.797240 1.609001
v -3.944658 -0.881692 1.700910
v -3.349047 -0.292203 1.444265
v -3.333328 -0.277002 1.531376
v -3.757845 -0.782038 1.696111
v -3.773563 -0.797240 1.609001
v -3.773563 -0.797240 1.609001
v -3.757845 -0.782038 1.696111
v -3.944658 -0.881692 1.700910
vn -0.9410 0.0141 0.3381
vn 0.8390 -0.4061 -0.3622
vn -0.1824 -0.1175 0.9762
vn 0.1428 -0.2854 -0.9477
vn 0.7586 -0.1316 0.6381
vn -0.7207 -0.2725 -0.6375
vn 0.9410 -0.0141 -0.3381
vn -0.8881 -0.3803 0.2583
vn 0.1824 0.1175 -0.9762
vn -0.1919 -0.5010 0.8439
vn -0.7586 0.1316 -0.6381
vn 0.6716 -0.5139 0.5336
vn -0.8280 -0.4866 0.2788
vn -0.9195 -0.0860 0.3835
vn -0.0741 -0.3712 0.9256
vn 0.2334 -0.0190 -0.9722
vn -0.7539 -0.1154 -0.6468
vn 0.5202 0.4618 0.7185
vn 0.8280 0.4866 -0.2788
vn 0.5876 0.7996 -0.1239
vn 0.0741 0.3712 -0.9256
vn -0.0986 0.6946 -0.7126
vn -0.8521 0.2518 -0.4589
vn -0.9137 -0.2852 0.2896
vn 0.8835 -0.2052 -0.4211
vn 0.1408 0.3694 -0.9185
vn 0.2106 -0.1319 -0.9686
vn -0.7729 0.0842 -0.6289
vn -0.5849 -0.3802 -0.7165
vn 0.9137 0.2852 -0.2896
vn 0.7075 0.7018 -0.0833
vn -0.1408 -0.3694 0.9185
vn -0.0345 -0.7752 0.6308
vn 0.7729 -0.0842 0.6289
vn -0.7609 0.5269 -0.3787
vn 0.8244 -0.3954 -0.4051
vn 0.5163 -0.7435 -0.4251
vn 0.1575 0.0728 -0.9848
vn -0.0784 -0.3259 -0.9421
vn 0.6669 -0.4682 0.5797
vn -0.8135 0.0266 -0.5809
vn -0.8244 0.3954 0.4051
vn 0.9540 0.0383 -0.2973
vn -0.3593 -0.4558 0.8143
vn -0.6669 0.4682 -0.5797
vn 0.3758 -0.8084 0.4531
vn 0.9440 0.2034 -0.2597
vn -0.8694 0.1688 0.4644
vn 0.1876 0.5390 -0.8211
vn -0.1833 -0.1356 0.9737
vn -0.7564 0.3356 -0.5614
vn 0.6729 0.0489 0.7381
vn -0.9440 -0.2034 0.2597
vn 0.8430 0.5378 -0.0066
vn 0.1570 0.8422 -0.5158
vn -0.6992 0.6577 -0.2803
vn -0.6669 0.4682 -0.5798
vn -0.0542 -0.0402 0.9977
vn -0.0345 0.4251 -0.9045
vn -0.8721 -0.2019 0.4457
vn 0.7161 0.5735 -0.3979
vn -0.8180 -0.1617 -0.5521
vn 0.6664 0.5365 0.5177
vn 0.0542 0.0402 -0.9977
vn -0.1339 0.3512 0.9267
vn 0.8721 0.2019 -0.4457
vn -0.8845 0.2029 0.4201
vn 0.8180 0.1617 0.5521
vn -0.8348 0.2398 -0.4955
vn 0.0683 -0.0211 -0.9974
vn -0.0126 0.3328 -0.9429
vn 0.8786 0.1740 -0.4448
vn 0.7431 0.5148 -0.4275
vn 0.8103 0.1951 0.5526
vn -0.6794 -0.5345 -0.5027
vn -0.0683 0.0211 0.9974
vn -0.1399 0.3723 0.9175
vn 0.8786 0.1739 -0.4448
vn -0.8956 0.1903 0.4022
vn 0.8319 -0.1706 0.5280
vn -0.2075 0.3970 0.8941
vn -0.0781 0.1037 0.9915
vn 0.8927 0.1578 -0.4221
vn 0.7248 0.4200 -0.5461
vn -0.6852 -0.5548 -0.4719
vn -0.5290 -0.7947 -0.2978
vn -0.3136 0.6457 0.6962
vn -0.9603 0.1221 0.2508
vn -0.7645 -0.2526 -0.5931
vn -0.0114 0.3961 -0.9181
vn 0.1160 -0.6473 0.7533
vn 0.8102 0.4680 -0.3527
vn 0.8102 0.4681 -0.3528
vn -0.6640 -0.7156 0.2166
vn -0.8217 -0.0720 -0.5654
vn -0.6749 -0.3396 -0.6551
vn -0.0943 -0.1048 0.9900
vn 0.8102 0.4680 -0.3528
vn -0.8744 -0.1731 0.4532
vn 0.8217 0.0720 0.5654
vn 0.8853 -0.2029 0.4184
vn -0.0102 -0.1634 0.9865
vn -0.2274 0.6120 -0.7575
vn -0.7822 -0.4574 0.4230
vn -0.4249 -0.8604 0.2813
vn -0.7720 -0.2940 -0.5635
vn -0.4163 -0.7223 -0.5522
vn 0.2446 -0.3359 -0.9096
vn 0.7822 0.4574 -0.4230
vn 0.8969 -0.0875 -0.4335
vn -0.8883 0.2255 -0.4001
vn -0.1846 0.3517 0.9177
vn 0.0253 -0.0740 -0.9969
vn -0.8450 -0.2523 0.4715
vn 0.6498 0.4972 -0.5750
vn 0.6604 0.6040 0.4462
vn 0.4752 0.8298 0.2928
vn 0.1846 -0.3517 -0.9177
vn -0.3239 0.5912 0.7387
vn -0.9483 0.0200 0.3167
vn -0.6604 -0.6040 -0.4462
vn 0.7737 0.3125 0.5511
vn -0.1336 0.2357 0.9626
vn -0.0147 0.2878 -0.9576
vn 0.8983 0.1172 -0.4234
vn -0.6367 -0.5885 0.4983
vn -0.7647 -0.3529 -0.5391
vn -0.5229 -0.7893 -0.3218
vn 0.2424 -0.6895 -0.6825
vn -0.8983 -0.1172 0.4234
vn -0.8939 0.3888 0.2232
vn 0.7647 0.3529 0.5391
vn 0.7800 -0.1880 0.5968
vn -0.0149 -0.5029 0.8642
vn -0.0200 -0.7555 0.6548
vn -0.8733 -0.2315 0.4288
vn 0.8321 0.4987 -0.2428
vn -0.8583 0.2714 -0.4354
vn 0.8180 0.0228 0.5748
vn 0.0083 0.1962 -0.9805
vn 0.8733 0.2315 -0.4288
vn 0.8204 -0.0606 -0.5685
vn -0.8583 0.2715 -0.4354
vn 0.8063 -0.5365 0.2491
vn -0.0541 -0.0402 0.9977
vn -0.5471 0.1234 -0.8280
vn -0.2781 0.4187 -0.8645
vn -0.2555 0.4730 0.8432
vn 0.4599 -0.1296 -0.8785
vn -0.8026 0.5964 0.0152
vn 0.9629 -0.2431 -0.1171
vn -0.7279 -0.1919 -0.6582
vn 0.2555 -0.4730 -0.8432
vn -0.0101 0.7403 0.6722
vn -0.5131 0.8537 -0.0891
vn 0.4426 -0.3880 0.8084
vn 0.4426 -0.3880 0.8085
vn -0.3938 0.6202 -0.6784
vn 0.5481 0.2525 -0.7974
vn 0.5481 0.2524 -0.7974
vn 0.5606 0.4897 -0.6678
vn 0.9907 -0.1355 0.0110
vn 0.9870 0.1159 0.1111
vn 0.4426 -0.3879 0.8084
vn -0.4590 0.1273 -0.8793
vn 0.4955 -0.0033 -0.8686
vn -0.9907 0.1355 -0.0110
vn -0.9907 0.1355 -0.0111
vn -0.9218 0.3770 0.0898
vn 0.3706 -0.5324 0.7610
vn -0.2102 0.9408 -0.2660
vn 0.6115 0.3514 -0.7089
vn -0.5570 -0.7994 0.2253
vn -0.9821 0.1810 -0.0521
vn -0.8465 -0.3835 -0.3693
vn 0.3688 0.1089 0.9231
vn -0.6115 -0.3514 0.7089
vn 0.3984 -0.2504 -0.8824
vn -0.6879 0.6663 0.2879
vn 0.4860 -0.2074 0.8490
vn 0.3340 -0.5627 0.7562
vn 0.4705 -0.0829 -0.8785
vn 0.5469 0.2954 -0.7833
vn 0.9565 -0.2903 -0.0295
vn 0.9945 0.1043 -0.0014
vn -0.4860 0.2074 -0.8490
vn 0.5612 0.1807 0.8077
vn -0.4705 0.0829 0.8785
vn 0.3197 -0.4480 -0.8349
vn -0.9565 0.2903 0.0295
vn -0.7673 0.6390 0.0530
vn 0.5357 -0.0479 0.8430
vn 0.3299 -0.4759 0.8153
vn -0.4109 0.2733 0.8697
vn 0.5096 0.1911 -0.8389
vn -0.9466 0.3212 0.0267
vn -0.9847 -0.1486 0.0913
vn -0.5357 0.0479 -0.8430
vn -0.6202 -0.3910 -0.6800
vn -0.2193 0.6758 0.7037
vn 0.6944 -0.7183 0.0439
vn -0.5702 0.0695 -0.8186
vn -0.5959 0.3692 -0.7132
vn 0.4103 0.2581 -0.8747
vn 0.3348 0.5482 -0.7664
vn 0.9804 0.1886 -0.0561
vn 0.8760 0.4822 0.0106
vn 0.5702 -0.0695 0.8186
vn 0.4865 0.2372 0.8408
vn -0.4103 -0.2581 0.8747
vn -0.4102 -0.2581 0.8747
vn -0.4441 0.0582 0.8941
vn -0.9804 -0.1886 0.0561
vn 0.9853 -0.1242 -0.1171
vn -0.5265 0.1224 -0.8413
vn -0.5265 0.1223 -0.8413
vn 0.3273 -0.4162 0.8483
vn -0.3473 0.3633 0.8645
vn -0.4914 0.0389 0.8701
vn 0.8738 -0.4857 -0.0232
vn 0.9848 -0.1536 -0.0818
vn 0.6593 0.1869 0.7282
vn -0.3473 0.3634 0.8645
vn -0.1594 0.6420 0.7500
vn 0.6527 -0.7566 0.0383
vn -0.5777 0.0243 -0.8159
vn 0.1741 -0.4752 0.8625
vn 0.2603 -0.5213 -0.8127
vn 0.5096 0.0301 -0.8599
vn 0.8380 -0.5456 0.0032
vn 0.9809 0.0102 -0.1943
vn 0.5777 -0.0243 0.8159
vn -0.7685 -0.4355 -0.4688
vn -0.2603 0.5213 0.8127
vn 0.0848 0.8806 0.4662
vn -0.8380 0.5456 -0.0032
vn -0.8380 0.5456 -0.0031
vn 0.3865 -0.9005 0.1994
vn -0.6141 0.0372 -0.7883
vn 0.6943 -0.3662 0.6195
vn 0.3121 0.4076 -0.8582
vn -0.1656 -0.7101 0.6843
vn -0.9262 -0.3704 0.0698
vn 0.7357 0.6756 0.0476
vn -0.4460 -0.2972 -0.8443
vn -0.3121 -0.4076 0.8582
vn -0.4140 -0.0467 0.9091
vn -0.9841 -0.0122 0.1772
vn 0.4478 -0.3317 0.8303
vn 0.2994 -0.7288 0.6158
vn 0.5283 0.1147 -0.8413
vn -0.5666 -0.5363 0.6256
vn 0.9761 -0.2170 -0.0110
vn 0.9639 0.2420 0.1110
vn -0.4952 -0.1402 -0.8574
vn -0.5283 -0.1147 0.8413
vn -0.3707 0.3327 0.8671
vn -0.7680 0.6270 0.1305
vn 0.5322 -0.1774 0.8278
vn 0.2586 -0.4435 0.8582
vn -0.2291 0.4705 0.8521
vn 0.4469 -0.1569 -0.8807
vn 0.7613 -0.6479 -0.0243
vn -0.9401 0.3213 0.1136
vn -0.5322 0.1774 -0.8278
vn -0.7278 -0.1147 -0.6761
vn 0.0223 0.7151 0.6986
vn 0.4709 -0.8795 0.0685
vt 0.166667 0.524418
vt 0.000000 0.524418
vt 0.083333 0.524418
vt 2.333333 2.524418
vt 2.166667 2.524418
vt 0.250000 0.524418
vt 0.333333 0.524418
vt 0.500000 0.524418
vt 0.416667 0.524418
vt 2.666667 2.524418
vt 2.500000 2.524418
vt 0.583333 0.524418
vt 0.666667 0.524418
vt 0.833333 0.524418
vt 0.750000 0.524418
vt 3.000000 2.524418
vt 2.833333 2.524418
vt 0.916667 0.524418
vt 1.000000 0.524418
vt 0.166667 0.437249
vt 0.000000 0.437249
vt 0.083333 0.437249
vt 2.333333 2.437249
vt 2.166667 2.437249
vt 0.250000 0.437249
vt 0.333333 0.437249
vt 0.500000 0.437249
vt 0.416667 0.437249
vt 2.666667 2.437249
vt 2.500000 2.437249
vt 0.583333 0.437249
vt 0.666667 0.437249
vt 0.833333 0.437249
vt 0.750000 0.437249
vt 3.000000 2.437249
vt 2.833333 2.437249
vt 0.916667 0.437249
vt 1.000000 0.437249
vt 0.000000 0.020141
vt 0.166667 0.020141
vt 0.083333 0.020141
vt 2.333333 2.020141
vt 2.166667 2.020141
vt 0.250000 0.020141
vt 0.333333 0.020141
vt 0.500000 0.020141
vt 0.416667 0.020141
vt 2.666667 2.020141
vt 2.500000 2.020141
vt 0.666667 0.020141
vt 0.583333 0.020141
vt 0.833333 0.020141
vt 0.750000 0.020141
vt 2.833333 2.020141
vt 3.000000 2.020141
vt 0.916667 0.020141
vt 1.000000 0.020141
s 1
f 2/1/1 4/2/1 1/2/1
f 5/2/2 7/3/2 6/1/2
f 9/4/3 11/5/3 8/5/3
f 12/1/4 14/6/4 13/7/4
f 16/8/5 18/7/5 15/7/5
f 19/7/6 21/9/6 20/8/6
f 23/10/7 25/11/7 22/11/7
f 26/8/8 28/12/8 27/13/8
f 30/14/9 32/13/9 29/13/9
f 33/13/10 35/15/10 34/14/10
f 37/16/11 39/17/11 36/17/11
f 40/14/12 42/18/12 41/19/12
f 44/1/13 46/2/13 43/2/13
f 47/2/14 48/1/14 49/3/14
f 50/5/15 52/4/15 53/5/15
f 54/1/16 56/6/16 55/7/16
f 60/7/17 58/8/17 57/7/17
f 61/7/18 62/8/18 63/9/18
f 64/11/19 66/10/19 67/11/19
f 68/8/20 69/13/20 70/12/20
f 72/14/21 74/13/21 71/13/21
f 75/13/22 76/14/22 77/15/22
f 78/17/17 80/16/17 81/17/17
f 82/14/23 83/19/23 84/18/23
f 86/1/24 88/2/24 85/2/24
f 89/2/25 91/3/25 90/1/25
f 95/5/26 93/4/26 92/5/26
f 96/1/27 98/6/27 97/7/27
f 102/7/28 100/8/28 99/7/28
f 103/7/29 105/9/29 104/8/29
f 106/11/30 108/10/30 109/11/30
f 110/8/31 111/13/31 112/12/31
f 116/13/32 114/14/32 113/13/32
f 117/13/33 119/15/33 118/14/33
f 123/17/34 121/16/34 120/17/34
f 124/14/35 125/19/35 126/18/35
f 130/2/36 128/1/36 127/2/36
f 131/2/37 133/3/37 132/1/37
f 137/5/38 135/4/38 134/5/38
f 138/1/39 140/6/39 139/7/39
f 142/8/40 144/7/40 141/7/40
f 145/7/41 147/9/41 146/8/41
f 148/11/42 150/10/42 149/10/42
f 152/8/43 153/13/43 154/12/43
f 155/13/38 157/14/38 158/13/38
f 159/13/44 161/15/44 160/14/44
f 163/16/45 165/17/45 162/17/45
f 166/14/46 168/18/46 167/19/46
f 172/2/47 170/1/47 169/2/47
f 173/2/48 174/1/48 175/3/48
f 176/5/49 178/4/49 177/4/49
f 180/1/50 181/7/50 182/6/50
f 186/7/51 184/8/51 183/7/51
f 187/7/52 188/8/52 189/9/52
f 193/11/53 191/10/53 190/11/53
f 194/8/54 195/13/54 196/12/54
f 198/14/49 200/13/49 197/13/49
f 201/13/55 202/14/55 203/15/55
f 205/16/51 207/17/51 204/17/51
f 208/14/56 209/19/56 210/18/56
f 2/1/1 3/1/1 4/2/1
f 9/4/3 10/4/3 11/5/3
f 16/8/5 17/8/5 18/7/5
f 23/10/7 24/10/7 25/11/7
f 30/14/9 31/14/9 32/13/9
f 37/16/11 38/16/11 39/17/11
f 44/1/13 45/1/13 46/2/13
f 50/5/15 51/4/15 52/4/15
f 60/7/17 59/8/17 58/8/17
f 64/11/19 65/10/19 66/10/19
f 72/14/21 73/14/21 74/13/21
f 78/17/17 79/16/17 80/16/17
f 86/1/24 87/1/24 88/2/24
f 95/5/26 94/4/26 93/4/26
f 102/7/28 101/8/28 100/8/28
f 106/11/30 107/10/30 108/10/30
f 116/13/32 115/14/32 114/14/32
f 123/17/34 122/16/34 121/16/34
f 130/2/36 129/1/36 128/1/36
f 137/5/38 136/4/38 135/4/38
f 142/8/40 143/8/40 144/7/40
f 148/11/42 151/11/42 150/10/42
f 155/13/38 156/14/38 157/14/38
f 163/16/45 164/16/57 165/17/45
f 172/2/47 171/1/47 170/1/47
f 176/5/49 179/5/49 178/4/49
f 186/7/51 185/8/51 184/8/51
f 193/11/53 192/10/53 191/10/53
f 198/14/49 199/14/49 200/13/49
f 205/16/51 206/16/51 207/17/51
f 212/20/58 214/21/58 211/21/58
f 215/21/59 217/22/59 216/20/59
f 219/23/60 221/24/60 218/24/60
f 222/20/61 224/25/61 223/26/61
f 226/27/62 228/26/62 225/26/62
f 229/26/63 231/28/63 230/27/63
f 233/29/64 235/30/64 232/30/64
f 236/27/65 238/31/65 237/32/65
f 240/33/66 242/32/66 239/32/66
f 243/32/67 245/34/67 244/33/67
f 247/35/68 249/36/68 246/36/68
f 250/33/69 252/37/69 251/38/69
f 256/21/70 254/20/70 253/21/70
f 257/21/71 259/22/71 258/20/71
f 263/24/72 261/23/72 260/24/72
f 264/20/73 266/25/73 265/26/73
f 267/26/74 269/27/74 268/27/74
f 271/26/75 272/27/75 273/28/75
f 277/30/76 275/29/76 274/30/76
f 278/27/77 280/31/77 279/32/77
f 282/33/72 284/32/78 281/32/72
f 285/32/79 287/34/79 286/33/79
f 289/35/74 291/36/74 288/36/74
f 292/33/80 293/38/80 294/37/80
f 296/20/81 298/21/81 295/21/81
f 299/21/82 300/20/82 301/22/82
f 305/24/83 303/23/83 302/24/83
f 306/20/84 308/25/84 307/26/84
f 310/27/85 312/26/85 309/26/85
f 313/26/86 314/27/86 315/28/86
f 319/30/81 317/29/81 316/30/81
f 320/27/87 322/31/87 321/32/87
f 323/32/83 325/33/83 326/32/83
f 327/32/88 329/34/88 328/33/88
f 330/36/85 332/35/85 331/35/85
f 334/33/89 336/37/89 335/38/89
f 337/21/90 339/20/90 338/20/90
f 341/21/91 342/20/91 343/22/91
f 344/24/92 346/23/93 345/23/92
f 348/20/94 349/26/94 350/25/94
f 352/27/95 354/26/95 351/26/95
f 355/26/96 356/27/96 357/28/96
f 359/29/90 361/30/90 358/30/90
f 362/27/97 364/31/97 363/32/97
f 366/33/98 368/32/93 365/32/92
f 369/32/99 371/34/99 370/33/99
f 372/36/100 374/35/100 375/36/100
f 376/33/101 377/38/101 378/37/101
f 380/20/102 382/21/102 379/21/102
f 383/21/103 385/22/103 384/20/103
f 387/23/104 389/24/104 386/24/104
f 390/20/105 391/26/105 392/25/105
f 394/27/106 396/26/106 393/26/106
f 397/26/107 398/27/107 399/28/107
f 403/30/102 401/29/102 400/30/102
f 404/27/108 405/32/108 406/31/108
f 408/33/109 410/32/109 407/32/109
f 411/32/110 412/33/110 413/34/110
f 414/36/106 416/35/106 415/35/106
f 418/33/111 420/37/111 419/38/111
f 421/21/112 423/20/112 424/21/112
f 425/21/113 427/22/113 426/20/113
f 429/23/114 431/24/114 428/24/114
f 432/20/115 434/25/115 433/26/115
f 435/26/116 437/27/116 436/27/116
f 439/26/117 441/28/117 440/27/117
f 442/30/118 444/29/118 445/30/118
f 446/27/119 448/31/119 447/32/119
f 449/32/114 451/33/114 450/33/114
f 453/32/120 455/34/120 454/33/120
f 459/36/121 457/35/121 456/36/121
f 460/33/122 461/38/122 462/37/122
f 464/20/123 466/21/123 463/21/123
f 467/21/124 469/22/124 468/20/124
f 473/24/125 471/23/125 470/24/125
f 474/20/126 475/26/126 476/25/126
f 478/27/127 480/26/127 477/26/127
f 481/26/128 482/27/128 483/28/128
f 484/30/123 486/29/123 485/29/123
f 488/27/129 489/32/129 490/31/129
f 494/32/130 492/33/130 491/32/130
f 495/32/131 497/34/131 496/33/131
f 499/35/132 501/36/132 498/36/132
f 502/33/133 503/38/133 504/37/133
f 505/21/134 507/20/134 508/21/134
f 509/21/135 510/20/135 511/22/135
f 512/24/136 514/23/136 515/24/136
f 516/20/137 518/25/137 517/26/137
f 520/27/138 522/26/138 519/26/138
f 523/26/139 525/28/139 524/27/139
f 529/30/134 527/29/134 526/30/134
f 530/27/140 531/32/140 532/31/140
f 533/32/141 535/33/141 536/32/141
f 537/32/142 538/33/142 539/34/142
f 540/36/143 542/35/143 541/35/143
f 544/33/144 545/38/144 546/37/144
f 212/20/58 213/20/145 214/21/58
f 219/23/60 220/23/60 221/24/60
f 226/27/62 227/27/62 228/26/62
f 233/29/64 234/29/64 235/30/64
f 240/33/66 241/33/66 242/32/66
f 247/35/68 248/35/68 249/36/68
f 256/21/70 255/20/70 254/20/70
f 263/24/72 262/23/72 261/23/72
f 267/26/74 270/26/74 269/27/74
f 277/30/76 276/29/76 275/29/76
f 282/33/72 283/33/78 284/32/78
f 289/35/74 290/35/74 291/36/74
f 296/20/81 297/20/81 298/21/81
f 305/24/83 304/23/83 303/23/83
f 310/27/85 311/27/85 312/26/85
f 319/30/81 318/29/81 317/29/81
f 323/32/83 324/33/83 325/33/83
f 330/36/85 333/36/85 332/35/85
f 337/21/90 340/21/90 339/20/90
f 344/24/92 347/24/93 346/23/93
f 352/27/95 353/27/95 354/26/95
f 359/29/90 360/29/90 361/30/90
f 366/33/98 367/33/93 368/32/93
f 372/36/100 373/35/100 374/35/100
f 380/20/102 381/20/102 382/21/102
f 387/23/104 388/23/104 389/24/104
f 394/27/106 395/27/106 396/26/106
f 403/30/102 402/29/102 401/29/102
f 408/33/109 409/33/109 410/32/109
f 414/36/106 417/36/106 416/35/106
f 421/21/112 422/20/112 423/20/112
f 429/23/114 430/23/114 431/24/114
f 435/26/116 438/26/116 437/27/116
f 442/30/118 443/29/118 444/29/118
f 449/32/114 452/32/114 451/33/114
f 459/36/121 458/35/121 457/35/121
f 464/20/123 465/20/123 466/21/123
f 473/24/125 472/23/125 471/23/125
f 478/27/127 479/27/127 480/26/127
f 484/30/123 487/30/123 486/29/123
f 494/32/130 493/33/130 492/33/130
f 499/35/132 500/35/132 501/36/132
f 505/21/134 506/20/134 507/20/134
f 512/24/136 513/23/136 514/23/136
f 520/27/138 521/27/138 522/26/138
f 529/30/134 528/29/134 527/29/134
f 533/32/141 534/33/141 535/33/141
f 540/36/143 543/36/143 542/35/143
f 547/39/146 549/40/146 548/40/146
f 551/39/147 553/41/147 552/40/147
f 555/42/148 557/43/148 554/43/148
f 558/40/149 560/44/149 559/45/149
f 562/46/150 564/45/150 561/45/150
f 565/45/151 567/47/151 566/46/151
f 569/48/146 571/49/146 568/49/146
f 572/46/152 573/50/152 574/51/152
f 576/52/153 578/50/153 575/50/153
f 579/50/154 581/53/154 580/52/154
f 585/54/150 583/55/150 582/54/150
f 586/52/155 588/56/155 587/57/155
f 589/39/156 591/40/157 592/39/157
f 593/39/158 595/41/158 594/40/158
f 599/43/159 597/42/160 596/43/160
f 600/40/161 602/44/161 601/45/161
f 606/45/162 604/46/162 603/45/162
f 607/45/163 609/47/163 608/46/163
f 613/49/164 611/48/157 610/49/157
f 614/46/165 615/50/165 616/51/165
f 617/50/160 619/52/160 620/50/160
f 621/50/166 622/52/166 623/53/166
f 624/54/167 626/55/167 625/55/168
f 628/52/169 630/56/169 629/57/169
f 631/39/170 633/40/170 634/39/170
f 635/39/171 637/41/171 636/40/171
f 641/43/172 639/42/172 638/43/172
f 642/40/173 643/45/173 644/44/173
f 646/46/174 648/45/174 645/45/174
f 649/45/175 650/46/175 651/47/175
f 655/49/170 653/48/170 652/49/170
f 656/46/176 658/51/176 657/50/176
f 662/50/177 660/52/177 659/50/177
f 663/50/178 664/52/178 665/53/178
f 666/54/174 668/55/174 667/55/174
f 670/52/179 672/56/179 671/57/179
f 673/39/180 675/40/180 676/39/180
f 677/39/181 678/40/181 679/41/181
f 683/43/182 681/42/182 680/43/182
f 684/40/183 686/44/183 685/45/183
f 687/45/184 689/46/184 688/46/184
f 691/45/185 693/47/185 692/46/185
f 695/48/186 697/49/186 694/49/186
f 698/46/187 700/51/187 699/50/187
f 704/50/188 702/52/188 701/50/188
f 705/50/189 706/52/189 707/53/189
f 711/54/190 709/55/190 708/54/190
f 712/52/191 714/56/191 713/57/191
f 716/40/192 718/39/192 715/39/192
f 719/39/193 720/40/193 721/41/193
f 723/42/194 725/43/194 722/43/194
f 726/40/195 728/44/195 727/45/195
f 730/46/196 732/45/196 729/45/196
f 733/45/197 734/46/197 735/47/197
f 736/49/198 738/48/198 739/49/198
f 740/46/199 741/50/199 742/51/199
f 746/50/194 744/52/194 743/50/194
f 747/50/200 749/53/200 748/52/200
f 753/54/196 751/55/196 750/54/196
f 754/52/201 755/57/201 756/56/201
f 760/39/202 758/40/202 757/39/202
f 761/39/203 763/41/203 762/40/203
f 767/43/204 765/42/204 764/43/204
f 768/40/205 770/44/205 769/45/205
f 771/45/206 773/46/206 772/46/206
f 775/45/207 777/47/207 776/46/207
f 781/49/208 779/48/208 778/49/208
f 782/46/209 784/51/209 783/50/209
f 788/50/210 786/52/211 785/50/211
f 789/50/212 791/53/212 790/52/212
f 795/54/213 793/55/213 792/54/213
f 796/52/214 797/57/214 798/56/214
f 802/39/215 800/40/215 799/39/216
f 803/39/217 804/40/217 805/41/217
f 807/42/218 809/43/218 806/43/218
f 810/40/219 811/45/219 812/44/219
f 813/45/220 815/46/220 814/46/220
f 817/45/221 819/47/221 818/46/221
f 821/48/215 823/49/215 820/49/215
f 824/46/222 826/51/222 825/50/222
f 830/50/218 828/52/223 827/50/223
f 831/50/224 833/53/224 832/52/224
f 834/54/220 836/55/220 837/54/220
f 838/52/225 839/57/225 840/56/225
f 844/39/226 842/40/226 841/39/226
f 845/39/227 846/40/227 847/41/227
f 848/43/228 850/42/228 849/42/228
f 852/40/229 854/44/229 853/45/229
f 858/45/230 856/46/230 855/45/230
f 859/45/231 861/47/231 860/46/231
f 865/49/232 863/48/232 862/49/232
f 866/46/233 867/50/233 868/51/233
f 869/50/234 871/52/234 870/52/234
f 873/50/235 875/53/235 874/52/235
f 879/54/236 877/55/236 876/54/237
f 880/52/238 881/57/238 882/56/238
f 886/39/239 884/40/239 883/39/239
f 887/39/240 888/40/240 889/41/240
f 893/43/241 891/42/241 890/43/241
f 894/40/242 895/45/242 896/44/242
f 897/45/243 899/46/243 900/45/243
f 901/45/244 903/47/244 902/46/244
f 905/48/239 907/49/239 904/49/239
f 908/46/245 909/50/245 910/51/245
f 914/50/246 912/52/246 911/50/246
f 915/50/247 917/53/247 916/52/247
f 921/54/243 919/55/243 918/54/243
f 922/52/248 924/56/248 923/57/248
f 926/40/249 928/39/249 925/39/249
f 929/39/250 930/40/250 931/41/250
f 932/43/251 934/42/251 933/42/251
f 936/40/252 937/45/252 938/44/252
f 942/45/253 940/46/253 939/45/253
f 943/45/254 945/47/254 944/46/254
f 949/49/249 947/48/249 946/49/249
f 950/46/255 951/50/255 952/51/255
f 953/50/256 955/52/256 954/52/256
f 957/50/257 959/53/257 958/52/257
f 961/55/253 963/54/253 960/54/253
f 964/52/258 966/56/258 965/57/258
f 967/39/259 969/40/259 970/39/259
f 971/39/260 972/40/260 973/41/260
f 974/43/261 976/42/261 977/43/261
f 978/40/262 980/44/262 979/45/262
f 984/45/263 982/46/263 981/45/263
f 985/45/264 986/46/264 987/47/264
f 988/49/265 990/48/265 991/49/265
f 992/46/266 993/50/266 994/51/266
f 998/50/261 996/52/261 995/50/261
f 999/50/267 1001/53/267 1000/52/267
f 1003/55/263 1005/54/263 1002/54/263
f 1006/52/268 1007/57/268 1008/56/268
f 547/39/146 550/39/146 549/40/146
f 555/42/148 556/42/148 557/43/148
f 562/46/150 563/46/150 564/45/150
f 569/48/146 570/48/146 571/49/146
f 576/52/153 577/52/153 578/50/153
f 585/54/150 584/55/150 583/55/150
f 589/39/156 590/40/164 591/40/157
f 599/43/159 598/42/159 597/42/160
f 606/45/162 605/46/162 604/46/162
f 613/49/164 612/48/164 611/48/157
f 617/50/160 618/52/160 619/52/160
f 624/54/167 627/54/167 626/55/167
f 631/39/170 632/40/170 633/40/170
f 641/43/172 640/42/172 639/42/172
f 646/46/174 647/46/174 648/45/174
f 655/49/170 654/48/170 653/48/170
f 662/50/177 661/52/177 660/52/177
f 666/54/174 669/54/174 668/55/174
f 673/39/180 674/40/180 675/40/180
f 683/43/182 682/42/182 681/42/182
f 687/45/184 690/45/184 689/46/184
f 695/48/186 696/48/186 697/49/186
f 704/50/188 703/52/188 702/52/188
f 711/54/190 710/55/190 709/55/190
f 716/40/192 717/40/192 718/39/192
f 723/42/194 724/42/194 725/43/194
f 730/46/196 731/46/196 732/45/196
f 736/49/198 737/48/198 738/48/198
f 746/50/194 745/52/194 744/52/194
f 753/54/196 752/55/196 751/55/196
f 760/39/202 759/40/202 758/40/202
f 767/43/204 766/42/204 765/42/204
f 771/45/206 774/45/206 773/46/206
f 781/49/208 780/48/208 779/48/208
f 788/50/210 787/52/210 786/52/211
f 795/54/213 794/55/213 793/55/213
f 802/39/215 801/40/215 800/40/215
f 807/42/218 808/42/218 809/43/218
f 813/45/220 816/45/220 815/46/220
f 821/48/215 822/48/215 823/49/215
f 830/50/218 829/52/218 828/52/223
f 834/54/220 835/55/220 836/55/220
f 844/39/226 843/40/226 842/40/226
f 848/43/228 851/43/228 850/42/228
f 858/45/230 857/46/230 856/46/230
f 865/49/232 864/48/232 863/48/232
f 869/50/234 872/50/234 871/52/234
f 879/54/236 878/55/236 877/55/236
f 886/39/239 885/40/239 884/40/239
f 893/43/241 892/42/241 891/42/241
f 897/45/243 898/46/243 899/46/243
f 905/48/239 906/48/239 907/49/239
f 914/50/246 913/52/246 912/52/246
f 921/54/243 920/55/243 919/55/243
f 926/40/249 927/40/249 928/39/249
f 932/43/251 935/43/251 934/42/251
f 942/45/253 941/46/253 940/46/253
f 949/49/249 948/48/249 947/48/249
f 953/50/256 956/50/256 955/52/256
f 961/55/253 962/55/253 963/54/253
f 967/39/259 968/40/259 969/40/259
f 974/43/261 975/42/261 976/42/261
f 984/45/263 983/46/263 982/46/263
f 988/49/265 989/48/265 990/48/265
f 998/50/261 997/52/261 996/52/261
f 1003/55/263 1004/55/263 1005/54/263
