# Blender 5.1.2
# www.blender.org
o st_isle_03_crystal
v 2.829092 -0.072640 -1.825051
v 2.877104 -0.063635 -1.960911
v 3.108517 1.409037 -1.781504
v 3.060507 1.400031 -1.645644
v 3.060507 1.400031 -1.645644
v 3.108517 1.409037 -1.781504
v 3.033451 1.843006 -1.702550
v 2.877104 -0.063635 -1.960911
v 2.784776 -0.036030 -2.068420
v 3.016192 1.436644 -1.889013
v 3.108517 1.409037 -1.781504
v 3.108517 1.409037 -1.781504
v 3.016192 1.436644 -1.889013
v 3.033451 1.843006 -1.702550
v 2.784776 -0.036030 -2.068420
v 2.644441 -0.017431 -2.040066
v 2.875854 1.455241 -1.860661
v 3.016192 1.436644 -1.889013
v 3.016192 1.436644 -1.889013
v 2.875854 1.455241 -1.860661
v 3.033451 1.843006 -1.702550
v 2.644441 -0.017431 -2.040066
v 2.596429 -0.026437 -1.904207
v 2.827844 1.446235 -1.724800
v 2.875854 1.455241 -1.860661
v 2.875854 1.455241 -1.860661
v 2.827844 1.446235 -1.724800
v 3.033451 1.843006 -1.702550
v 2.596429 -0.026437 -1.904207
v 2.688756 -0.054042 -1.796697
v 2.920170 1.418630 -1.617292
v 2.827844 1.446235 -1.724800
v 2.827844 1.446235 -1.724800
v 2.920170 1.418630 -1.617292
v 3.033451 1.843006 -1.702550
v 2.688756 -0.054042 -1.796697
v 2.829092 -0.072640 -1.825051
v 3.060507 1.400031 -1.645644
v 2.920170 1.418630 -1.617292
v 2.920170 1.418630 -1.617292
v 3.060507 1.400031 -1.645644
v 3.033451 1.843006 -1.702550
v 2.699236 -0.019201 -1.955134
v 2.729291 0.002910 -2.022489
v 2.810597 0.436435 -1.843887
v 2.780542 0.414322 -1.776531
v 2.780542 0.414322 -1.776531
v 2.810597 0.436435 -1.843887
v 2.758175 0.567389 -1.780273
v 2.729291 0.002910 -2.022489
v 2.683990 0.033703 -2.076607
v 2.765296 0.467225 -1.898005
v 2.810597 0.436435 -1.843887
v 2.810597 0.436435 -1.843887
v 2.765296 0.467225 -1.898005
v 2.758175 0.567389 -1.780273
v 2.683990 0.033703 -2.076607
v 2.608634 0.042381 -2.063369
v 2.689940 0.475905 -1.884767
v 2.765296 0.467225 -1.898005
v 2.765296 0.467225 -1.898005
v 2.689940 0.475905 -1.884767
v 2.758175 0.567389 -1.780273
v 2.608634 0.042381 -2.063369
v 2.578580 0.020270 -1.996013
v 2.659886 0.453793 -1.817411
v 2.689940 0.475905 -1.884767
v 2.689940 0.475905 -1.884767
v 2.659886 0.453793 -1.817411
v 2.758175 0.567389 -1.780273
v 2.578580 0.020270 -1.996013
v 2.623881 -0.010523 -1.941896
v 2.705187 0.423000 -1.763293
v 2.659886 0.453793 -1.817411
v 2.659886 0.453793 -1.817411
v 2.705187 0.423000 -1.763293
v 2.758175 0.567389 -1.780273
v 2.623881 -0.010523 -1.941896
v 2.699236 -0.019201 -1.955134
v 2.780542 0.414322 -1.776531
v 2.705187 0.423000 -1.763293
v 2.705187 0.423000 -1.763293
v 2.780542 0.414322 -1.776531
v 2.758175 0.567389 -1.780273
v 2.953960 -0.061507 -1.880904
v 2.984639 -0.036809 -1.947069
v 3.060997 0.425536 -1.739084
v 3.030320 0.400838 -1.672919
v 3.030320 0.400838 -1.672919
v 3.060997 0.425536 -1.739084
v 3.006844 0.562903 -1.668113
v 2.984639 -0.036809 -1.947069
v 2.939626 -0.005147 -2.000925
v 3.015986 0.457197 -1.792940
v 3.060997 0.425536 -1.739084
v 3.060997 0.425536 -1.739084
v 3.015986 0.457197 -1.792940
v 3.006844 0.562903 -1.668113
v 2.939626 -0.005147 -2.000925
v 2.863936 0.001817 -1.988616
v 2.940296 0.464161 -1.780631
v 3.015986 0.457197 -1.792940
v 3.015986 0.457197 -1.792940
v 2.940296 0.464161 -1.780631
v 3.006844 0.562903 -1.668113
v 2.863936 0.001817 -1.988616
v 2.833259 -0.022881 -1.922451
v 2.909616 0.439464 -1.714467
v 2.940296 0.464161 -1.780631
v 2.940296 0.464161 -1.780631
v 2.909616 0.439464 -1.714467
v 3.006844 0.562903 -1.668113
v 2.833259 -0.022881 -1.922451
v 2.878269 -0.054543 -1.868595
v 2.954629 0.407802 -1.660610
v 2.909616 0.439464 -1.714467
v 2.909616 0.439464 -1.714467
v 2.954629 0.407802 -1.660610
v 3.006844 0.562903 -1.668113
v 2.878269 -0.054543 -1.868595
v 2.953960 -0.061507 -1.880904
v 3.030320 0.400838 -1.672919
v 2.954629 0.407802 -1.660610
v 2.954629 0.407802 -1.660610
v 3.030320 0.400838 -1.672919
v 3.006844 0.562903 -1.668113
v -0.383453 -0.017337 2.775887
v -0.443418 0.014227 2.607512
v 0.031199 1.209251 2.662505
v 0.091164 1.177687 2.830880
v 0.091164 1.177687 2.830880
v 0.031199 1.209251 2.662505
v 0.058483 1.582083 2.820504
v -0.443418 0.014227 2.607512
v -0.609965 0.081564 2.581625
v -0.135349 1.276589 2.636618
v 0.031199 1.209251 2.662505
v 0.031199 1.209251 2.662505
v -0.135349 1.276589 2.636618
v 0.058483 1.582083 2.820504
v -0.609965 0.081564 2.581625
v -0.716547 0.117337 2.724113
v -0.241931 1.312362 2.779107
v -0.135349 1.276589 2.636618
v -0.135349 1.276589 2.636618
v -0.241931 1.312362 2.779107
v 0.058483 1.582083 2.820504
v -0.716547 0.117337 2.724113
v -0.656582 0.085773 2.892488
v -0.181965 1.280797 2.947482
v -0.241931 1.312362 2.779107
v -0.241931 1.312362 2.779107
v -0.181965 1.280797 2.947482
v 0.058483 1.582083 2.820504
v -0.656582 0.085773 2.892488
v -0.490035 0.018436 2.918375
v -0.015418 1.213460 2.973369
v -0.181965 1.280797 2.947482
v -0.181965 1.280797 2.947482
v -0.015418 1.213460 2.973369
v 0.058483 1.582083 2.820504
v -0.490035 0.018436 2.918375
v -0.383453 -0.017337 2.775887
v 0.091164 1.177687 2.830880
v -0.015418 1.213460 2.973369
v -0.015418 1.213460 2.973369
v 0.091164 1.177687 2.830880
v 0.058483 1.582083 2.820504
v -0.476776 -0.029903 2.762062
v -0.518974 -0.009008 2.663704
v 0.024243 0.468948 2.532191
v 0.066440 0.448054 2.630550
v 0.066440 0.448054 2.630550
v 0.024243 0.468948 2.532191
v 0.146431 0.662764 2.581395
v -0.518974 -0.009008 2.663704
v -0.592198 0.070895 2.651642
v -0.048981 0.548850 2.520129
v 0.024243 0.468948 2.532191
v 0.024243 0.468948 2.532191
v -0.048981 0.548850 2.520129
v 0.146431 0.662764 2.581395
v -0.592198 0.070895 2.651642
v -0.623224 0.129903 2.737938
v -0.080006 0.607858 2.606426
v -0.048981 0.548850 2.520129
v -0.048981 0.548850 2.520129
v -0.080006 0.607858 2.606426
v 0.146431 0.662764 2.581395
v -0.623224 0.129903 2.737938
v -0.581026 0.109008 2.836296
v -0.037809 0.586964 2.704785
v -0.080006 0.607858 2.606426
v -0.080006 0.607858 2.606426
v -0.037809 0.586964 2.704785
v 0.146431 0.662764 2.581395
v -0.581026 0.109008 2.836296
v -0.507802 0.029105 2.848358
v 0.035414 0.507061 2.716846
v -0.037809 0.586964 2.704785
v -0.037809 0.586964 2.704785
v 0.035414 0.507061 2.716846
v 0.146431 0.662764 2.581395
v -0.507802 0.029105 2.848358
v -0.476776 -0.029903 2.762062
v 0.066440 0.448054 2.630550
v 0.035414 0.507061 2.716846
v 0.035414 0.507061 2.716846
v 0.066440 0.448054 2.630550
v 0.146431 0.662764 2.581395
v -0.456990 -0.011963 2.764786
v -0.503329 -0.003406 2.662375
v -0.157124 0.488696 2.546850
v -0.110787 0.480139 2.649263
v -0.110787 0.480139 2.649263
v -0.157124 0.488696 2.546850
v -0.106148 0.680900 2.601893
v -0.503329 -0.003406 2.662375
v -0.596337 0.058557 2.647587
v -0.250132 0.550659 2.532063
v -0.157124 0.488696 2.546850
v -0.157124 0.488696 2.546850
v -0.250132 0.550659 2.532063
v -0.106148 0.680900 2.601893
v -0.596337 0.058557 2.647587
v -0.643010 0.111963 2.735214
v -0.296804 0.604064 2.619690
v -0.250132 0.550659 2.532063
v -0.250132 0.550659 2.532063
v -0.296804 0.604064 2.619690
v -0.106148 0.680900 2.601893
v -0.643010 0.111963 2.735214
v -0.596672 0.103406 2.837625
v -0.250467 0.595507 2.722103
v -0.296804 0.604064 2.619690
v -0.296804 0.604064 2.619690
v -0.250467 0.595507 2.722103
v -0.106148 0.680900 2.601893
v -0.596672 0.103406 2.837625
v -0.503663 0.041443 2.852413
v -0.157458 0.533544 2.736888
v -0.250467 0.595507 2.722103
v -0.250467 0.595507 2.722103
v -0.157458 0.533544 2.736888
v -0.106148 0.680900 2.601893
v -0.503663 0.041443 2.852413
v -0.456990 -0.011963 2.764786
v -0.110787 0.480139 2.649263
v -0.157458 0.533544 2.736888
v -0.157458 0.533544 2.736888
v -0.110787 0.480139 2.649263
v -0.106148 0.680900 2.601893
v -0.416420 0.058259 2.769920
v -0.466211 0.058626 2.644105
v -0.520237 0.875196 2.667870
v -0.470445 0.874828 2.793686
v -0.470445 0.874828 2.793686
v -0.520237 0.875196 2.667870
v -0.619263 1.096884 2.780468
v -0.466211 0.058626 2.644105
v -0.599792 0.050368 2.624184
v -0.653817 0.866937 2.647950
v -0.520237 0.875196 2.667870
v -0.520237 0.875196 2.667870
v -0.653817 0.866937 2.647950
v -0.619263 1.096884 2.780468
v -0.599792 0.050368 2.624184
v -0.683581 0.041741 2.730080
v -0.737607 0.858311 2.753845
v -0.653817 0.866937 2.647950
v -0.653817 0.866937 2.647950
v -0.737607 0.858311 2.753845
v -0.619263 1.096884 2.780468
v -0.683581 0.041741 2.730080
v -0.633789 0.041374 2.855895
v -0.687814 0.857943 2.879661
v -0.737607 0.858311 2.753845
v -0.737607 0.858311 2.753845
v -0.687814 0.857943 2.879661
v -0.619263 1.096884 2.780468
v -0.633789 0.041374 2.855895
v -0.500208 0.049632 2.875816
v -0.554234 0.866202 2.899580
v -0.687814 0.857943 2.879661
v -0.687814 0.857943 2.879661
v -0.554234 0.866202 2.899580
v -0.619263 1.096884 2.780468
v -0.500208 0.049632 2.875816
v -0.416420 0.058259 2.769920
v -0.470445 0.874828 2.793686
v -0.554234 0.866202 2.899580
v -0.554234 0.866202 2.899580
v -0.470445 0.874828 2.793686
v -0.619263 1.096884 2.780468
v -0.469062 0.016527 2.762591
v -0.511924 0.001293 2.686692
v -0.276175 0.484764 2.456521
v -0.233311 0.499997 2.532422
v -0.233311 0.499997 2.532422
v -0.276175 0.484764 2.456521
v -0.247756 0.669833 2.454911
v -0.511924 0.001293 2.686692
v -0.592863 0.034767 2.674100
v -0.357113 0.518237 2.443931
v -0.276175 0.484764 2.456521
v -0.276175 0.484764 2.456521
v -0.357113 0.518237 2.443931
v -0.247756 0.669833 2.454911
v -0.592863 0.034767 2.674100
v -0.630938 0.083473 2.737409
v -0.395188 0.566943 2.507241
v -0.357113 0.518237 2.443931
v -0.357113 0.518237 2.443931
v -0.395188 0.566943 2.507241
v -0.247756 0.669833 2.454911
v -0.630938 0.083473 2.737409
v -0.588076 0.098707 2.813308
v -0.352326 0.582177 2.583139
v -0.395188 0.566943 2.507241
v -0.395188 0.566943 2.507241
v -0.352326 0.582177 2.583139
v -0.247756 0.669833 2.454911
v -0.588076 0.098707 2.813308
v -0.507137 0.065233 2.825900
v -0.271386 0.548703 2.595731
v -0.352326 0.582177 2.583139
v -0.352326 0.582177 2.583139
v -0.271386 0.548703 2.595731
v -0.247756 0.669833 2.454911
v -0.507137 0.065233 2.825900
v -0.469062 0.016527 2.762591
v -0.233311 0.499997 2.532422
v -0.271386 0.548703 2.595731
v -0.271386 0.548703 2.595731
v -0.233311 0.499997 2.532422
v -0.247756 0.669833 2.454911
v -3.013314 -0.282947 -1.340490
v -3.061921 -0.213844 -1.513882
v -3.522258 -1.235264 -1.791901
v -3.473650 -1.304365 -1.618508
v -3.473650 -1.304365 -1.618508
v -3.522258 -1.235264 -1.791901
v -3.614164 -1.538599 -1.877120
v -3.061921 -0.213844 -1.513882
v -3.034663 -0.175230 -1.700883
v -3.494999 -1.196648 -1.978901
v -3.522258 -1.235264 -1.791901
v -3.522258 -1.235264 -1.791901
v -3.494999 -1.196648 -1.978901
v -3.614164 -1.538599 -1.877120
v -3.034663 -0.175230 -1.700883
v -2.986057 -0.244332 -1.527490
v -3.446393 -1.265751 -1.805507
v -3.494999 -1.196648 -1.978901
v -3.494999 -1.196648 -1.978901
v -3.446393 -1.265751 -1.805507
v -3.614164 -1.538599 -1.877120
v -2.986057 -0.244332 -1.527490
v -3.013314 -0.282947 -1.340490
v -3.473650 -1.304365 -1.618508
v -3.446393 -1.265751 -1.805507
v -3.446393 -1.265751 -1.805507
v -3.473650 -1.304365 -1.618508
v -3.614164 -1.538599 -1.877120
v -2.813094 -0.274054 -1.111866
v -2.869711 -0.256140 -1.308315
v -3.020643 -1.240799 -1.354611
v -2.964023 -1.258713 -1.158162
v -2.964023 -1.258713 -1.158162
v -3.020643 -1.240799 -1.354611
v -3.019720 -1.525037 -1.370900
v -2.869711 -0.256140 -1.308315
v -2.839346 -0.251253 -1.511227
v -2.990277 -1.235912 -1.557522
v -3.020643 -1.240799 -1.354611
v -3.020643 -1.240799 -1.354611
v -2.990277 -1.235912 -1.557522
v -3.019720 -1.525037 -1.370900
v -2.839346 -0.251253 -1.511227
v -2.782727 -0.269168 -1.314777
v -2.933658 -1.253827 -1.361073
v -2.990277 -1.235912 -1.557522
v -2.990277 -1.235912 -1.557522
v -2.933658 -1.253827 -1.361073
v -3.019720 -1.525037 -1.370900
v -2.782727 -0.269168 -1.314777
v -2.813094 -0.274054 -1.111866
v -2.964023 -1.258713 -1.158162
v -2.933658 -1.253827 -1.361073
v -2.933658 -1.253827 -1.361073
v -2.964023 -1.258713 -1.158162
v -3.019720 -1.525037 -1.370900
v -2.929102 -0.290177 -1.180684
v -2.984792 -0.242152 -1.373871
v -3.195709 -1.286357 -1.572657
v -3.140020 -1.334383 -1.379472
v -3.140020 -1.334383 -1.379472
v -3.195709 -1.286357 -1.572657
v -3.211717 -1.588840 -1.633030
v -2.984792 -0.242152 -1.373871
v -2.953520 -0.210053 -1.575664
v -3.164436 -1.254258 -1.774452
v -3.195709 -1.286357 -1.572657
v -3.195709 -1.286357 -1.572657
v -3.164436 -1.254258 -1.774452
v -3.211717 -1.588840 -1.633030
v -2.953520 -0.210053 -1.575664
v -2.897830 -0.258079 -1.382478
v -3.108745 -1.302284 -1.581265
v -3.164436 -1.254258 -1.774452
v -3.164436 -1.254258 -1.774452
v -3.108745 -1.302284 -1.581265
v -3.211717 -1.588840 -1.633030
v -2.897830 -0.258079 -1.382478
v -2.929102 -0.290177 -1.180684
v -3.140020 -1.334383 -1.379472
v -3.108745 -1.302284 -1.581265
v -3.108745 -1.302284 -1.581265
v -3.140020 -1.334383 -1.379472
v -3.211717 -1.588840 -1.633030
v -3.069444 -0.288863 -1.400383
v -3.116755 -0.200936 -1.571104
v -3.551796 -0.938610 -1.830468
v -3.504486 -1.026538 -1.659746
v -3.504486 -1.026538 -1.659746
v -3.551796 -0.938610 -1.830468
v -3.637435 -1.165271 -1.912895
v -3.116755 -0.200936 -1.571104
v -3.089934 -0.150206 -1.760375
v -3.524976 -0.887881 -2.019738
v -3.551796 -0.938610 -1.830468
v -3.551796 -0.938610 -1.830468
v -3.524976 -0.887881 -2.019738
v -3.637435 -1.165271 -1.912895
v -3.089934 -0.150206 -1.760375
v -3.042624 -0.238133 -1.589652
v -3.477664 -0.975808 -1.849014
v -3.524976 -0.887881 -2.019738
v -3.524976 -0.887881 -2.019738
v -3.477664 -0.975808 -1.849014
v -3.637435 -1.165271 -1.912895
v -3.042624 -0.238133 -1.589652
v -3.069444 -0.288863 -1.400383
v -3.504486 -1.026538 -1.659746
v -3.477664 -0.975808 -1.849014
v -3.477664 -0.975808 -1.849014
v -3.504486 -1.026538 -1.659746
v -3.637435 -1.165271 -1.912895
v -2.975421 -0.199361 -1.293569
v -3.029892 -0.241639 -1.474831
v -2.847129 -1.348806 -1.271527
v -2.792657 -1.306529 -1.090265
v -2.792657 -1.306529 -1.090265
v -2.847129 -1.348806 -1.271527
v -2.754558 -1.655074 -1.218336
v -3.029892 -0.241639 -1.474831
v -3.002317 -0.271896 -1.664396
v -2.819554 -1.379063 -1.461092
v -2.847129 -1.348806 -1.271527
v -2.847129 -1.348806 -1.271527
v -2.819554 -1.379063 -1.461092
v -2.754558 -1.655074 -1.218336
v -3.002317 -0.271896 -1.664396
v -2.947846 -0.229618 -1.483132
v -2.765082 -1.336786 -1.279828
v -2.819554 -1.379063 -1.461092
v -2.819554 -1.379063 -1.461092
v -2.765082 -1.336786 -1.279828
v -2.754558 -1.655074 -1.218336
v -2.947846 -0.229618 -1.483132
v -2.975421 -0.199361 -1.293569
v -2.792657 -1.306529 -1.090265
v -2.765082 -1.336786 -1.279828
v -2.765082 -1.336786 -1.279828
v -2.792657 -1.306529 -1.090265
v -2.754558 -1.655074 -1.218336
v 2.510060 -0.098275 -2.321198
v 2.586198 -0.183239 -2.250212
v 1.957752 -1.128828 -2.707923
v 1.881612 -1.043863 -2.778910
v 1.881612 -1.043863 -2.778910
v 1.957752 -1.128828 -2.707923
v 1.667430 -1.346145 -2.783808
v 2.586198 -0.183239 -2.250212
v 2.549272 -0.218814 -2.126012
v 1.920824 -1.164404 -2.583724
v 1.957752 -1.128828 -2.707923
v 1.957752 -1.128828 -2.707923
v 1.920824 -1.164404 -2.583724
v 1.667430 -1.346145 -2.783808
v 2.549272 -0.218814 -2.126012
v 2.436205 -0.169428 -2.072798
v 1.807758 -1.115016 -2.530510
v 1.920824 -1.164404 -2.583724
v 1.920824 -1.164404 -2.583724
v 1.807758 -1.115016 -2.530510
v 1.667430 -1.346145 -2.783808
v 2.436205 -0.169428 -2.072798
v 2.360066 -0.084463 -2.143785
v 1.731619 -1.030054 -2.601496
v 1.807758 -1.115016 -2.530510
v 1.807758 -1.115016 -2.530510
v 1.731619 -1.030054 -2.601496
v 1.667430 -1.346145 -2.783808
v 2.360066 -0.084463 -2.143785
v 2.396993 -0.048889 -2.267984
v 1.768546 -0.994477 -2.725696
v 1.731619 -1.030054 -2.601496
v 1.731619 -1.030054 -2.601496
v 1.768546 -0.994477 -2.725696
v 1.667430 -1.346145 -2.783808
v 2.396993 -0.048889 -2.267984
v 2.510060 -0.098275 -2.321198
v 1.881612 -1.043863 -2.778910
v 1.768546 -0.994477 -2.725696
v 1.768546 -0.994477 -2.725696
v 1.881612 -1.043863 -2.778910
v 1.667430 -1.346145 -2.783808
v 2.949995 -0.198047 -2.417190
v 3.035594 -0.253309 -2.339338
v 2.877109 -1.257196 -2.877699
v 2.791509 -1.201931 -2.955550
v 2.791509 -1.201931 -2.955550
v 2.877109 -1.257196 -2.877699
v 2.708356 -1.538120 -2.997169
v 3.035594 -0.253309 -2.339338
v 2.997141 -0.306350 -2.229111
v 2.838656 -1.310237 -2.767472
v 2.877109 -1.257196 -2.877699
v 2.877109 -1.257196 -2.877699
v 2.838656 -1.310237 -2.767472
v 2.708356 -1.538120 -2.997169
v 2.997141 -0.306350 -2.229111
v 2.873090 -0.304129 -2.196736
v 2.714603 -1.308015 -2.735096
v 2.838656 -1.310237 -2.767472
v 2.838656 -1.310237 -2.767472
v 2.714603 -1.308015 -2.735096
v 2.708356 -1.538120 -2.997169
v 2.873090 -0.304129 -2.196736
v 2.787489 -0.248865 -2.274587
v 2.629004 -1.252752 -2.812948
v 2.714603 -1.308015 -2.735096
v 2.714603 -1.308015 -2.735096
v 2.629004 -1.252752 -2.812948
v 2.708356 -1.538120 -2.997169
v 2.787489 -0.248865 -2.274587
v 2.825942 -0.195824 -2.384813
v 2.667458 -1.199709 -2.923175
v 2.629004 -1.252752 -2.812948
v 2.629004 -1.252752 -2.812948
v 2.667458 -1.199709 -2.923175
v 2.708356 -1.538120 -2.997169
v 2.825942 -0.195824 -2.384813
v 2.949995 -0.198047 -2.417190
v 2.791509 -1.201931 -2.955550
v 2.667458 -1.199709 -2.923175
v 2.667458 -1.199709 -2.923175
v 2.791509 -1.201931 -2.955550
v 2.708356 -1.538120 -2.997169
v 3.252958 -0.292840 -2.228101
v 3.332073 -0.309952 -2.144198
v 3.422304 -0.984694 -2.366887
v 3.343190 -0.967584 -2.450791
v 3.343190 -0.967584 -2.450791
v 3.422304 -0.984694 -2.366887
v 3.335139 -1.196908 -2.408969
v 3.332073 -0.309952 -2.144198
v 3.298572 -0.348962 -2.039570
v 3.388804 -1.023707 -2.262258
v 3.422304 -0.984694 -2.366887
v 3.422304 -0.984694 -2.366887
v 3.388804 -1.023707 -2.262258
v 3.335139 -1.196908 -2.408969
v 3.298572 -0.348962 -2.039570
v 3.185958 -0.370864 -2.018843
v 3.276188 -1.045606 -2.241531
v 3.388804 -1.023707 -2.262258
v 3.388804 -1.023707 -2.262258
v 3.276188 -1.045606 -2.241531
v 3.335139 -1.196908 -2.408969
v 3.185958 -0.370864 -2.018843
v 3.106843 -0.353752 -2.102746
v 3.197073 -1.028497 -2.325433
v 3.276188 -1.045606 -2.241531
v 3.276188 -1.045606 -2.241531
v 3.197073 -1.028497 -2.325433
v 3.335139 -1.196908 -2.408969
v 3.106843 -0.353752 -2.102746
v 3.140344 -0.314742 -2.207374
v 3.230575 -0.989485 -2.430062
v 3.197073 -1.028497 -2.325433
v 3.197073 -1.028497 -2.325433
v 3.230575 -0.989485 -2.430062
v 3.335139 -1.196908 -2.408969
v 3.140344 -0.314742 -2.207374
v 3.252958 -0.292840 -2.228101
v 3.343190 -0.967584 -2.450791
v 3.230575 -0.989485 -2.430062
v 3.230575 -0.989485 -2.430062
v 3.343190 -0.967584 -2.450791
v 3.335139 -1.196908 -2.408969
v 3.377385 -0.358065 -1.874640
v 3.450845 -0.340665 -1.801659
v 3.641120 -1.109197 -1.809963
v 3.567661 -1.126597 -1.882945
v 3.567661 -1.126597 -1.882945
v 3.641120 -1.109197 -1.809963
v 3.596868 -1.350518 -1.783426
v 3.450845 -0.340665 -1.801659
v 3.426385 -0.347821 -1.699797
v 3.616660 -1.116355 -1.708102
v 3.641120 -1.109197 -1.809963
v 3.641120 -1.109197 -1.809963
v 3.616660 -1.116355 -1.708102
v 3.596868 -1.350518 -1.783426
v 3.426385 -0.347821 -1.699797
v 3.328465 -0.372376 -1.670918
v 3.518740 -1.140910 -1.679222
v 3.616660 -1.116355 -1.708102
v 3.616660 -1.116355 -1.708102
v 3.518740 -1.140910 -1.679222
v 3.596868 -1.350518 -1.783426
v 3.328465 -0.372376 -1.670918
v 3.255006 -0.389776 -1.743900
v 3.445281 -1.158307 -1.752202
v 3.518740 -1.140910 -1.679222
v 3.518740 -1.140910 -1.679222
v 3.445281 -1.158307 -1.752202
v 3.596868 -1.350518 -1.783426
v 3.255006 -0.389776 -1.743900
v 3.279466 -0.382620 -1.845761
v 3.469742 -1.151152 -1.854064
v 3.445281 -1.158307 -1.752202
v 3.445281 -1.158307 -1.752202
v 3.469742 -1.151152 -1.854064
v 3.596868 -1.350518 -1.783426
v 3.279466 -0.382620 -1.845761
v 3.377385 -0.358065 -1.874640
v 3.567661 -1.126597 -1.882945
v 3.469742 -1.151152 -1.854064
v 3.469742 -1.151152 -1.854064
v 3.567661 -1.126597 -1.882945
v 3.596868 -1.350518 -1.783426
v 3.272142 -0.369260 -1.548441
v 3.367768 -0.332925 -1.479544
v 3.471862 -0.964176 -1.291091
v 3.376237 -1.000513 -1.359989
v 3.376237 -1.000513 -1.359989
v 3.471862 -0.964176 -1.291091
v 3.388046 -1.146302 -1.189095
v 3.367768 -0.332925 -1.479544
v 3.350217 -0.300669 -1.361804
v 3.454310 -0.931921 -1.173351
v 3.471862 -0.964176 -1.291091
v 3.471862 -0.964176 -1.291091
v 3.454310 -0.931921 -1.173351
v 3.388046 -1.146302 -1.189095
v 3.350217 -0.300669 -1.361804
v 3.237039 -0.304751 -1.312961
v 3.341135 -0.936001 -1.124510
v 3.454310 -0.931921 -1.173351
v 3.454310 -0.931921 -1.173351
v 3.341135 -0.936001 -1.124510
v 3.388046 -1.146302 -1.189095
v 3.237039 -0.304751 -1.312961
v 3.141416 -0.341087 -1.381858
v 3.245510 -0.972339 -1.193405
v 3.341135 -0.936001 -1.124510
v 3.341135 -0.936001 -1.124510
v 3.245510 -0.972339 -1.193405
v 3.388046 -1.146302 -1.189095
v 3.141416 -0.341087 -1.381858
v 3.158967 -0.373343 -1.499597
v 3.263061 -1.004594 -1.311144
v 3.245510 -0.972339 -1.193405
v 3.245510 -0.972339 -1.193405
v 3.263061 -1.004594 -1.311144
v 3.388046 -1.146302 -1.189095
v 3.158967 -0.373343 -1.499597
v 3.272142 -0.369260 -1.548441
v 3.376237 -1.000513 -1.359989
v 3.263061 -1.004594 -1.311144
v 3.263061 -1.004594 -1.311144
v 3.376237 -1.000513 -1.359989
v 3.388046 -1.146302 -1.189095
v 2.933868 -0.298559 -1.294855
v 3.018769 -0.280496 -1.239604
v 2.915879 -1.000805 -0.846022
v 2.830978 -1.018866 -0.901273
v 2.830978 -1.018866 -0.901273
v 2.915879 -1.000805 -0.846022
v 2.795301 -1.172065 -0.700560
v 3.018769 -0.280496 -1.239604
v 3.012115 -0.230531 -1.149900
v 2.909225 -0.950840 -0.756317
v 2.915879 -1.000805 -0.846022
v 2.915879 -1.000805 -0.846022
v 2.909225 -0.950840 -0.756317
v 2.795301 -1.172065 -0.700560
v 3.012115 -0.230531 -1.149900
v 2.920558 -0.198628 -1.115449
v 2.817667 -0.918936 -0.721867
v 2.909225 -0.950840 -0.756317
v 2.909225 -0.950840 -0.756317
v 2.817667 -0.918936 -0.721867
v 2.795301 -1.172065 -0.700560
v 2.920558 -0.198628 -1.115449
v 2.835654 -0.216690 -1.170701
v 2.732764 -0.936999 -0.777119
v 2.817667 -0.918936 -0.721867
v 2.817667 -0.918936 -0.721867
v 2.732764 -0.936999 -0.777119
v 2.795301 -1.172065 -0.700560
v 2.835654 -0.216690 -1.170701
v 2.842309 -0.266656 -1.260404
v 2.739419 -0.986964 -0.866822
v 2.732764 -0.936999 -0.777119
v 2.732764 -0.936999 -0.777119
v 2.739419 -0.986964 -0.866822
v 2.795301 -1.172065 -0.700560
v 2.842309 -0.266656 -1.260404
v 2.933868 -0.298559 -1.294855
v 2.830978 -1.018866 -0.901273
v 2.739419 -0.986964 -0.866822
v 2.739419 -0.986964 -0.866822
v 2.830978 -1.018866 -0.901273
v 2.795301 -1.172065 -0.700560
v 2.542370 -0.200817 -1.365633
v 2.624886 -0.208914 -1.290579
v 2.132775 -1.045901 -0.839838
v 2.050258 -1.037805 -0.914892
v 2.050258 -1.037805 -0.914892
v 2.132775 -1.045901 -0.839838
v 1.904846 -1.217957 -0.691134
v 2.624886 -0.208914 -1.290579
v 2.618274 -0.152989 -1.193953
v 2.126163 -0.989979 -0.743211
v 2.132775 -1.045901 -0.839838
v 2.132775 -1.045901 -0.839838
v 2.126163 -0.989979 -0.743211
v 1.904846 -1.217957 -0.691134
v 2.618274 -0.152989 -1.193953
v 2.529146 -0.088969 -1.172383
v 2.037035 -0.925959 -0.721640
v 2.126163 -0.989979 -0.743211
v 2.126163 -0.989979 -0.743211
v 2.037035 -0.925959 -0.721640
v 1.904846 -1.217957 -0.691134
v 2.529146 -0.088969 -1.172383
v 2.446630 -0.080872 -1.247438
v 1.954519 -0.917862 -0.796695
v 2.037035 -0.925959 -0.721640
v 2.037035 -0.925959 -0.721640
v 1.954519 -0.917862 -0.796695
v 1.904846 -1.217957 -0.691134
v 2.446630 -0.080872 -1.247438
v 2.453243 -0.136797 -1.344063
v 1.961131 -0.973786 -0.893321
v 1.954519 -0.917862 -0.796695
v 1.954519 -0.917862 -0.796695
v 1.961131 -0.973786 -0.893321
v 1.904846 -1.217957 -0.691134
v 2.453243 -0.136797 -1.344063
v 2.542370 -0.200817 -1.365633
v 2.050258 -1.037805 -0.914892
v 1.961131 -0.973786 -0.893321
v 1.961131 -0.973786 -0.893321
v 2.050258 -1.037805 -0.914892
v 1.904846 -1.217957 -0.691134
v 2.322451 -0.127945 -1.649223
v 2.393694 -0.168434 -1.560544
v 1.754081 -0.883550 -1.373186
v 1.682839 -0.843061 -1.461865
v 1.682839 -0.843061 -1.461865
v 1.754081 -0.883550 -1.373186
v 1.488596 -1.002930 -1.296605
v 2.393694 -0.168434 -1.560544
v 2.379855 -0.126604 -1.448128
v 1.740244 -0.841718 -1.260769
v 1.754081 -0.883550 -1.373186
v 1.754081 -0.883550 -1.373186
v 1.740244 -0.841718 -1.260769
v 1.488596 -1.002930 -1.296605
v 2.379855 -0.126604 -1.448128
v 2.294773 -0.044285 -1.424388
v 1.655161 -0.759401 -1.237031
v 1.740244 -0.841718 -1.260769
v 1.740244 -0.841718 -1.260769
v 1.655161 -0.759401 -1.237031
v 1.488596 -1.002930 -1.296605
v 2.294773 -0.044285 -1.424388
v 2.223531 -0.003796 -1.513067
v 1.583918 -0.718912 -1.325710
v 1.655161 -0.759401 -1.237031
v 1.655161 -0.759401 -1.237031
v 1.583918 -0.718912 -1.325710
v 1.488596 -1.002930 -1.296605
v 2.223531 -0.003796 -1.513067
v 2.237368 -0.045626 -1.625485
v 1.597756 -0.760742 -1.438128
v 1.583918 -0.718912 -1.325710
v 1.583918 -0.718912 -1.325710
v 1.597756 -0.760742 -1.438128
v 1.488596 -1.002930 -1.296605
v 2.237368 -0.045626 -1.625485
v 2.322451 -0.127945 -1.649223
v 1.682839 -0.843061 -1.461865
v 1.597756 -0.760742 -1.438128
v 1.597756 -0.760742 -1.438128
v 1.682839 -0.843061 -1.461865
v 1.488596 -1.002930 -1.296605
v 2.337198 -0.083446 -2.099531
v 2.404783 -0.163591 -2.019094
v 1.821829 -0.816066 -2.179387
v 1.754245 -0.735921 -2.259827
v 1.754245 -0.735921 -2.259827
v 1.821829 -0.816066 -2.179387
v 1.560009 -0.924917 -2.176401
v 2.404783 -0.163591 -2.019094
v 2.374970 -0.168558 -1.890455
v 1.792017 -0.821031 -2.050751
v 1.821829 -0.816066 -2.179387
v 1.821829 -0.816066 -2.179387
v 1.792017 -0.821031 -2.050751
v 1.560009 -0.924917 -2.176401
v 2.374970 -0.168558 -1.890455
v 2.277572 -0.093380 -1.842256
v 1.694619 -0.745853 -2.002552
v 1.792017 -0.821031 -2.050751
v 1.792017 -0.821031 -2.050751
v 1.694619 -0.745853 -2.002552
v 1.560009 -0.924917 -2.176401
v 2.277572 -0.093380 -1.842256
v 2.209988 -0.013235 -1.922696
v 1.627035 -0.665708 -2.082990
v 1.694619 -0.745853 -2.002552
v 1.694619 -0.745853 -2.002552
v 1.627035 -0.665708 -2.082990
v 1.560009 -0.924917 -2.176401
v 2.209988 -0.013235 -1.922696
v 2.239800 -0.008268 -2.051332
v 1.656847 -0.660743 -2.211628
v 1.627035 -0.665708 -2.082990
v 1.627035 -0.665708 -2.082990
v 1.656847 -0.660743 -2.211628
v 1.560009 -0.924917 -2.176401
v 2.239800 -0.008268 -2.051332
v 2.337198 -0.083446 -2.099531
v 1.754245 -0.735921 -2.259827
v 1.656847 -0.660743 -2.211628
v 1.656847 -0.660743 -2.211628
v 1.754245 -0.735921 -2.259827
v 1.560009 -0.924917 -2.176401
v 2.835945 -0.228423 -1.882911
v 2.930218 -0.252958 -1.794930
v 2.742294 -0.959714 -1.790658
v 2.648021 -0.935179 -1.878638
v 2.648021 -0.935179 -1.878638
v 2.742294 -0.959714 -1.790658
v 2.568642 -1.126732 -1.749084
v 2.930218 -0.252958 -1.794930
v 2.903842 -0.245169 -1.666579
v 2.715919 -0.951925 -1.662306
v 2.742294 -0.959714 -1.790658
v 2.742294 -0.959714 -1.790658
v 2.715919 -0.951925 -1.662306
v 2.568642 -1.126732 -1.749084
v 2.903842 -0.245169 -1.666579
v 2.783196 -0.212845 -1.626212
v 2.595272 -0.919601 -1.621940
v 2.715919 -0.951925 -1.662306
v 2.715919 -0.951925 -1.662306
v 2.595272 -0.919601 -1.621940
v 2.568642 -1.126732 -1.749084
v 2.783196 -0.212845 -1.626212
v 2.688923 -0.188310 -1.714193
v 2.500999 -0.895067 -1.709920
v 2.595272 -0.919601 -1.621940
v 2.595272 -0.919601 -1.621940
v 2.500999 -0.895067 -1.709920
v 2.568642 -1.126732 -1.749084
v 2.688923 -0.188310 -1.714193
v 2.715298 -0.196099 -1.842545
v 2.527375 -0.902856 -1.838272
v 2.500999 -0.895067 -1.709920
v 2.500999 -0.895067 -1.709920
v 2.527375 -0.902856 -1.838272
v 2.568642 -1.126732 -1.749084
v 2.715298 -0.196099 -1.842545
v 2.835945 -0.228423 -1.882911
v 2.648021 -0.935179 -1.878638
v 2.527375 -0.902856 -1.838272
v 2.527375 -0.902856 -1.838272
v 2.648021 -0.935179 -1.878638
v 2.568642 -1.126732 -1.749084
vn 0.9304 -0.1848 0.3166
vn 0.9304 -0.1848 0.3165
vn -0.9360 -0.1005 -0.3374
vn 0.7532 -0.0384 -0.6567
vn 0.7660 0.2409 -0.5960
vn 0.1772 -0.1464 0.9732
vn -0.1263 0.4181 -0.8996
vn -0.8487 0.4549 -0.2698
vn -0.7532 0.0384 0.6567
vn -0.6787 0.3145 0.6636
vn 0.2136 0.1373 0.9672
vn -0.9047 0.2960 -0.3065
vn 0.8862 0.1403 0.4415
vn -0.7904 -0.1007 0.6043
vn -0.7838 -0.4956 0.3742
vn 0.1143 -0.3967 0.9108
vn -0.0263 0.7606 -0.6487
vn 0.9047 -0.2959 0.3065
vn -0.7342 0.6704 -0.1075
vn -0.6318 0.3151 0.7082
vn 0.1784 0.0501 0.9827
vn 0.9050 -0.2896 0.3115
vn 0.8842 0.1147 0.4528
vn 0.7976 0.1330 -0.5884
vn -0.7866 -0.4984 0.3644
vn -0.1075 0.4226 -0.8999
vn -0.0352 0.7614 -0.6473
vn -0.7595 0.6406 -0.1130
vn -0.7976 -0.1330 0.5884
vn -0.7975 -0.1330 0.5884
vn 0.6619 -0.2569 -0.7042
vn -0.1600 0.0061 -0.9871
vn -0.9047 0.2959 -0.3065
vn 0.8688 -0.3280 -0.3709
vn -0.9438 -0.0680 0.3234
vn 0.1483 -0.0134 -0.9889
vn -0.2826 -0.3567 0.8905
vn -0.7205 0.3146 -0.6179
vn 0.5147 -0.6577 0.5501
vn -0.8688 0.3280 0.3709
vn 0.6507 -0.6699 -0.3574
vn -0.1483 0.0134 0.9889
vn -0.0105 -0.3812 -0.9244
vn 0.7205 -0.3146 0.6179
vn -0.8077 -0.0803 -0.5840
vn 0.5519 -0.7355 -0.3930
vn 0.5519 -0.7354 -0.3930
vn 0.8084 -0.4000 -0.4318
vn -0.0591 -0.2018 -0.9776
vn -0.2523 -0.0857 0.9639
vn 0.6111 -0.5337 0.5846
vn -0.2501 0.7550 -0.6062
vn -0.5519 0.7355 0.3930
vn -0.1963 0.9386 0.2836
vn 0.0591 0.2018 0.9776
vn 0.3599 0.4529 0.8157
vn 0.8622 -0.2164 0.4580
vn 0.7154 -0.5908 -0.3730
vn 0.7154 -0.5908 -0.3731
vn -0.9008 0.1193 0.4175
vn -0.0017 0.2297 0.9733
vn -0.2795 -0.1951 0.9401
vn 0.7137 -0.3612 0.6002
vn 0.7136 -0.3612 0.6002
vn 0.3434 -0.7095 0.6153
vn -0.7154 0.5908 0.3730
vn -0.3449 0.9095 0.2320
vn 0.0017 -0.2297 -0.9733
vn -0.2765 -0.5951 -0.7546
vn -0.7136 0.3612 -0.6002
vn 0.8993 0.0806 0.4298
vn -0.9275 -0.0720 0.3668
vn -0.7972 -0.5156 0.3140
vn -0.1451 -0.0384 0.9887
vn -0.0995 -0.4856 0.8685
vn -0.7824 -0.0337 -0.6218
vn 0.7276 -0.4213 0.5414
vn 0.9275 0.0720 -0.3668
vn -0.8569 0.3871 0.3403
vn 0.1592 -0.4171 -0.8948
vn 0.7824 0.0337 0.6218
vn -0.6679 -0.4814 -0.5677
vn -0.7765 0.5362 0.3309
vn 0.8740 -0.1383 -0.4658
vn 0.0312 0.4172 0.9083
vn 0.1414 -0.0303 -0.9895
vn 0.8078 -0.1190 0.5774
vn -0.5629 0.4560 -0.6893
vn 0.7765 -0.5362 -0.3309
vn -0.5346 0.8344 0.1344
vn 0.1980 0.7264 0.6581
vn 0.9023 0.2401 0.3580
vn 0.8817 -0.2978 -0.3659
vn 0.9242 -0.1864 -0.3334
vn 0.9061 -0.4207 0.0452
vn -0.9484 0.3083 -0.0746
vn -0.8817 0.2978 0.3659
vn 0.8258 -0.4047 -0.3928
vn 0.8500 -0.5266 0.0151
vn 0.9492 -0.1321 -0.2856
vn 0.9612 0.0189 -0.2753
vn 0.9773 -0.1565 0.1425
vn -0.9890 0.0053 -0.1479
vn 0.9154 -0.2800 -0.2894
vn 0.9432 -0.3041 0.1338
vn -0.9432 0.1325 0.3048
vn -0.9611 -0.0042 0.2760
vn -0.9691 0.2178 -0.1156
vn -0.9869 0.0802 -0.1402
vn 0.9432 -0.1325 -0.3048
vn 0.9064 -0.2666 -0.3276
vn -0.9322 0.3510 -0.0886
vn -0.8405 0.3503 0.4134
vn -0.8405 0.3503 0.4133
vn -0.9082 0.2119 0.3608
vn -0.8633 0.5046 0.0129
vn 0.9307 -0.3641 0.0343
vn -0.7505 0.4795 0.4549
vn 0.8633 -0.5046 -0.0129
vn -0.7729 0.6317 0.0598
vn 0.9463 0.0997 -0.3076
vn 0.9187 0.2208 -0.3276
vn 0.9768 0.1820 0.1130
vn -0.9489 -0.3024 -0.0898
vn -0.9463 -0.0997 0.3076
vn 0.9589 -0.0229 -0.2828
vn -0.9768 -0.1820 -0.1130
vn -0.9892 -0.0587 -0.1345
vn -0.6445 0.0593 0.7623
vn 0.4468 -0.3029 -0.8418
vn -0.8130 0.5773 -0.0764
vn -0.6064 0.7937 0.0471
vn 0.1685 -0.5179 0.8387
vn 0.0043 0.7375 -0.6753
vn -0.7747 -0.1905 0.6030
vn 0.8130 -0.5773 0.0764
vn -0.9344 0.3003 -0.1918
vn -0.1685 0.5179 -0.8387
vn -0.3236 0.2441 -0.9142
vn -0.7317 -0.2288 0.6421
vn 0.6476 -0.0662 -0.7591
vn -0.9440 0.2588 -0.2048
vn -0.8485 0.5276 -0.0421
vn 0.2123 -0.4877 0.8468
vn 0.1562 -0.7441 0.6496
vn -0.7369 -0.4992 0.4559
vn 0.9377 0.0378 0.3453
vn -0.2123 0.4877 -0.8468
vn 0.2455 -0.1787 0.9528
vn -0.7236 -0.3016 0.6208
vn -0.7236 -0.3017 0.6208
vn -0.7036 0.1513 0.6943
vn 0.9495 0.0237 0.3129
vn 0.9057 -0.3999 0.1409
vn -0.2259 0.2779 -0.9337
vn 0.2584 -0.6698 0.6962
vn 0.5909 0.6910 -0.4163
vn 0.7930 0.4424 0.4189
vn -0.1458 -0.1725 -0.9742
vn 0.6729 0.1744 -0.7189
vn 0.7139 -0.2046 -0.6698
vn -0.9423 -0.2307 -0.2425
vn -0.9634 0.1524 -0.2206
vn -0.2694 -0.0563 -0.9614
vn 0.3401 -0.3139 0.8864
vn -0.6729 -0.1744 0.7189
vn 0.5326 0.5275 -0.6619
vn 0.7821 0.5797 0.2285
vn 0.1589 0.4182 0.8943
vn -0.6120 0.1319 0.7798
vn 0.6092 -0.5820 -0.5386
vn 0.9774 0.1892 0.0939
vn -0.9270 0.3028 -0.2211
vn 0.3655 0.3211 0.8737
vn 0.3949 -0.1881 0.8993
vn 0.4551 0.3526 -0.8176
vn -0.7729 -0.6319 0.0579
vn -0.3655 -0.3211 -0.8737
vn 0.2408 0.7465 0.6202
vn 0.5511 -0.4594 -0.6966
vn 0.4704 -0.7398 -0.4810
vn -0.9901 0.0777 -0.1167
vn -0.8806 0.3832 -0.2788
vn 0.4390 0.3817 0.8134
vn 0.4390 0.3817 0.8133
vn 0.3658 0.0459 0.9296
vn -0.5511 0.4594 0.6966
vn 0.5592 -0.1185 -0.8205
vn 0.9901 -0.0777 0.1167
vn 0.9693 0.2381 -0.0607
vn -0.4390 -0.3817 -0.8133
vn -0.4390 -0.3817 -0.8134
vn -0.4545 -0.6672 -0.5901
vn 0.4942 -0.6192 -0.6102
vn 0.3302 -0.8284 -0.4524
vn 0.8861 -0.3723 0.2761
vn 0.7033 -0.5933 0.3915
vn 0.3918 0.2469 0.8863
vn 0.2327 -0.0037 0.9725
vn 0.6110 -0.3508 -0.7096
vn -0.8861 0.3723 -0.2761
vn 0.9842 -0.1157 0.1343
vn -0.3918 -0.2469 -0.8863
vn -0.5135 -0.4739 -0.7153
vn -0.4730 0.5936 0.6510
vn 0.2102 -0.8145 -0.5408
vn 0.7475 -0.5872 0.3105
vn -0.4669 0.8085 -0.3583
vn 0.2745 0.0064 0.9616
vn 0.0246 -0.2534 0.9670
vn -0.6743 0.2957 0.6767
vn -0.7475 0.5872 -0.3105
vn -0.9309 0.2897 -0.2224
vn -0.2745 -0.0064 -0.9616
vn -0.4887 -0.2654 -0.8311
vn 0.5558 -0.3068 -0.7726
vn 0.2337 -0.5835 -0.7777
vn 0.7208 -0.6786 0.1409
vn 0.3839 -0.9218 0.0534
vn -0.1650 0.3719 -0.9135
vn -0.1218 -0.6427 0.7563
vn -0.7777 -0.0253 0.6282
vn -0.7208 0.6786 -0.1409
vn 0.9278 -0.3130 0.2029
vn 0.4221 -0.0339 0.9059
vn -0.6467 0.1764 0.7421
vn 0.4423 -0.6210 -0.6471
vn -0.9453 0.2501 -0.2094
vn 0.7039 -0.6855 0.1862
vn -0.2986 0.0737 -0.9515
vn -0.1375 0.5310 -0.8362
vn 0.6467 -0.1764 -0.7421
vn -0.6904 -0.3119 0.6528
vn 0.9453 -0.2501 0.2094
vn -0.9519 -0.2474 -0.1806
vn 0.2986 -0.0737 0.9515
vn 0.3856 0.4019 0.8305
vt 0.166667 0.966164
vt 0.000000 0.966164
vt 0.083333 0.966164
vt 2.333333 2.966164
vt 2.166667 2.966164
vt 0.333333 0.966164
vt 0.250000 0.966164
vt 0.500000 0.966164
vt 0.416667 0.966164
vt 2.500000 2.966164
vt 2.666667 2.966164
vt 0.666667 0.966164
vt 0.583333 0.966164
vt 0.833333 0.966164
vt 0.750000 0.966164
vt 3.000000 2.966164
vt 2.833333 2.966164
vt 1.000000 0.966164
vt 0.916667 0.966164
vt 0.166667 0.786285
vt 0.000000 0.786285
vt 0.083333 0.786285
vt 2.333333 2.786285
vt 2.166667 2.786285
vt 0.250000 0.786285
vt 0.333333 0.786285
vt 0.500000 0.786285
vt 0.416667 0.786285
vt 2.666667 2.786285
vt 2.500000 2.786285
vt 0.583333 0.786285
vt 0.666667 0.786285
vt 0.833333 0.786285
vt 0.750000 0.786285
vt 3.000000 2.786285
vt 2.833333 2.786285
vt 0.916667 0.786285
vt 1.000000 0.786285
vt 0.000000 0.752536
vt 0.250000 0.752536
vt 0.125000 0.752536
vt 2.250000 2.752537
vt 2.500000 2.752537
vt 0.500000 0.752536
vt 0.375000 0.752536
vt 0.750000 0.752536
vt 0.625000 0.752536
vt 3.000000 2.752537
vt 2.750000 2.752537
vt 1.000000 0.752536
vt 0.875000 0.752536
vt 0.000000 0.552262
vt 0.166667 0.552262
vt 0.083333 0.552262
vt 2.166667 2.552263
vt 2.333333 2.552263
vt 0.250000 0.552262
vt 0.333333 0.552262
vt 0.500000 0.552262
vt 0.416667 0.552262
vt 2.666667 2.552263
vt 2.500000 2.552263
vt 0.666667 0.552262
vt 0.583333 0.552262
vt 0.833333 0.552262
vt 0.750000 0.552262
vt 3.000000 2.552263
vt 2.833333 2.552263
vt 1.000000 0.552262
vt 0.916667 0.552262
s 1
f 2/1/1 4/2/2 1/2/1
f 5/2/3 7/3/3 6/1/3
f 9/4/4 11/5/4 8/5/4
f 12/1/5 13/6/5 14/7/5
f 18/6/6 16/8/6 15/6/6
f 19/6/7 20/8/7 21/9/7
f 25/10/2 23/11/1 22/10/1
f 26/8/8 27/12/8 28/13/8
f 30/14/9 32/12/9 29/12/9
f 33/12/10 34/14/10 35/15/10
f 37/16/6 39/17/6 36/17/6
f 40/14/11 41/18/11 42/19/11
f 46/2/12 44/1/12 43/2/12
f 47/2/13 48/1/13 49/3/13
f 50/5/14 52/4/14 51/4/14
f 54/1/15 56/7/15 55/6/15
f 60/6/16 58/8/16 57/6/16
f 61/6/17 62/8/17 63/9/17
f 67/10/18 65/11/18 64/10/18
f 68/8/19 69/12/19 70/13/19
f 72/14/14 74/12/14 71/12/14
f 75/12/20 76/14/20 77/15/20
f 79/16/16 81/17/16 78/17/16
f 82/14/21 83/18/21 84/19/21
f 86/1/22 88/2/22 85/2/22
f 89/2/23 90/1/23 91/3/23
f 93/4/24 95/5/24 92/5/24
f 96/1/25 98/7/25 97/6/25
f 100/8/26 102/6/26 99/6/26
f 103/6/27 104/8/27 105/9/27
f 109/10/22 107/11/22 106/10/22
f 110/8/28 111/12/28 112/13/28
f 113/12/29 115/14/29 116/12/30
f 117/12/31 119/15/31 118/14/31
f 123/17/26 121/16/26 120/17/26
f 124/14/32 126/19/32 125/18/32
f 2/1/1 3/1/2 4/2/2
f 9/4/4 10/4/4 11/5/4
f 18/6/6 17/8/6 16/8/6
f 25/10/2 24/11/2 23/11/1
f 30/14/9 31/14/9 32/12/9
f 37/16/6 38/16/6 39/17/6
f 46/2/12 45/1/33 44/1/12
f 50/5/14 53/5/14 52/4/14
f 60/6/16 59/8/16 58/8/16
f 67/10/18 66/11/18 65/11/18
f 72/14/14 73/14/14 74/12/14
f 79/16/16 80/16/16 81/17/16
f 86/1/22 87/1/22 88/2/22
f 93/4/24 94/4/24 95/5/24
f 100/8/26 101/8/26 102/6/26
f 109/10/22 108/11/22 107/11/22
f 113/12/29 114/14/29 115/14/29
f 123/17/26 122/16/26 121/16/26
f 128/20/34 130/21/34 127/21/34
f 131/21/35 133/22/35 132/20/35
f 135/23/36 137/24/36 134/24/36
f 138/20/37 140/25/37 139/26/37
f 142/27/38 144/26/38 141/26/38
f 145/26/39 147/28/39 146/27/39
f 149/29/40 151/30/40 148/30/40
f 152/27/41 154/31/41 153/32/41
f 156/33/42 158/32/42 155/32/42
f 159/32/43 161/34/43 160/33/43
f 163/35/44 165/36/44 162/36/44
f 166/33/45 168/37/45 167/38/45
f 170/20/46 172/21/46 169/21/47
f 173/21/48 174/20/48 175/22/48
f 176/24/49 178/23/49 179/24/49
f 180/20/50 182/25/50 181/26/50
f 186/26/51 184/27/51 183/26/51
f 187/26/52 188/27/52 189/28/52
f 190/30/53 192/29/53 193/30/53
f 194/27/54 195/32/54 196/31/54
f 198/33/55 200/32/55 197/32/55
f 201/32/56 202/33/56 203/34/56
f 204/36/51 206/35/51 207/36/51
f 208/33/57 209/38/57 210/37/57
f 212/20/58 214/21/58 211/21/59
f 215/21/60 217/22/60 216/20/60
f 221/24/61 219/23/61 218/24/61
f 222/20/62 224/25/62 223/26/62
f 228/26/63 226/27/64 225/26/64
f 229/26/65 231/28/65 230/27/65
f 232/30/66 234/29/66 235/30/66
f 236/27/67 237/32/67 238/31/67
f 242/32/68 240/33/68 239/32/68
f 243/32/69 245/34/69 244/33/69
f 249/36/70 247/35/70 246/36/70
f 250/33/71 251/38/71 252/37/71
f 256/21/72 254/20/72 253/21/72
f 257/21/73 259/22/73 258/20/73
f 263/24/74 261/23/74 260/24/74
f 264/20/75 266/25/75 265/26/75
f 268/27/76 270/26/76 267/26/76
f 271/26/77 273/28/77 272/27/77
f 274/30/78 276/29/78 275/29/78
f 278/27/79 279/32/79 280/31/79
f 281/32/74 283/33/74 284/32/74
f 285/32/80 287/34/80 286/33/80
f 289/35/81 291/36/81 288/36/81
f 292/33/82 294/37/82 293/38/82
f 298/21/83 296/20/83 295/21/83
f 299/21/84 300/20/84 301/22/84
f 302/24/85 304/23/85 303/23/85
f 306/20/86 307/26/86 308/25/86
f 312/26/87 310/27/87 309/26/87
f 313/26/88 314/27/88 315/28/88
f 319/30/89 317/29/89 316/30/89
f 320/27/90 321/32/90 322/31/90
f 324/33/85 326/32/85 323/32/85
f 327/32/91 328/33/91 329/34/91
f 331/35/87 333/36/87 330/36/87
f 334/33/92 335/38/92 336/37/92
f 128/20/34 129/20/34 130/21/34
f 135/23/36 136/23/36 137/24/36
f 142/27/38 143/27/38 144/26/38
f 149/29/40 150/29/40 151/30/40
f 156/33/42 157/33/42 158/32/42
f 163/35/44 164/35/44 165/36/44
f 170/20/46 171/20/46 172/21/46
f 176/24/49 177/23/49 178/23/49
f 186/26/51 185/27/51 184/27/51
f 190/30/53 191/29/53 192/29/53
f 198/33/55 199/33/55 200/32/55
f 204/36/51 205/35/51 206/35/51
f 212/20/58 213/20/58 214/21/58
f 221/24/61 220/23/61 219/23/61
f 228/26/63 227/27/63 226/27/64
f 232/30/66 233/29/66 234/29/66
f 242/32/68 241/33/68 240/33/68
f 249/36/70 248/35/70 247/35/70
f 256/21/72 255/20/72 254/20/72
f 263/24/74 262/23/74 261/23/74
f 268/27/76 269/27/76 270/26/76
f 274/30/78 277/30/78 276/29/78
f 281/32/74 282/33/74 283/33/74
f 289/35/81 290/35/81 291/36/81
f 298/21/83 297/20/83 296/20/83
f 302/24/85 305/24/85 304/23/85
f 312/26/87 311/27/87 310/27/87
f 319/30/89 318/29/89 317/29/89
f 324/33/85 325/33/85 326/32/85
f 331/35/87 332/35/87 333/36/87
f 340/39/93 338/40/93 337/39/93
f 341/39/94 343/41/94 342/40/94
f 347/42/95 345/43/95 344/42/95
f 348/40/96 349/44/96 350/45/96
f 354/44/97 352/46/97 351/44/97
f 355/44/98 356/46/98 357/47/98
f 359/48/95 361/49/95 358/49/95
f 362/46/99 363/50/99 364/51/99
f 368/39/100 366/40/100 365/39/100
f 369/39/101 371/41/101 370/40/101
f 375/42/102 373/43/102 372/42/102
f 376/40/103 377/44/103 378/45/103
f 380/46/100 382/44/100 379/44/100
f 383/44/104 384/46/104 385/47/104
f 387/48/102 389/49/102 386/49/102
f 390/46/105 391/50/105 392/51/105
f 394/40/106 396/39/106 393/39/106
f 397/39/107 398/40/107 399/41/107
f 401/43/108 403/42/108 400/42/108
f 404/40/109 405/44/109 406/45/109
f 408/46/110 410/44/110 407/44/110
f 411/44/111 412/46/111 413/47/111
f 417/49/108 415/48/108 414/49/108
f 418/46/112 420/51/112 419/50/112
f 421/39/113 423/40/114 424/39/114
f 425/39/115 426/40/115 427/41/115
f 429/43/116 431/42/116 428/42/116
f 432/40/117 434/45/117 433/44/117
f 435/44/114 437/46/114 436/46/114
f 439/44/118 441/47/118 440/46/118
f 443/48/119 445/49/119 442/49/119
f 446/46/120 448/51/120 447/50/120
f 452/39/121 450/40/121 449/39/121
f 453/39/122 455/41/122 454/40/122
f 456/42/123 458/43/123 457/43/123
f 460/40/124 461/44/124 462/45/124
f 466/44/125 464/46/125 463/44/125
f 467/44/126 468/46/126 469/47/126
f 470/49/127 472/48/127 471/48/127
f 474/46/128 476/51/128 475/50/128
f 340/39/93 339/40/93 338/40/93
f 347/42/95 346/43/95 345/43/95
f 354/44/97 353/46/97 352/46/97
f 359/48/95 360/48/95 361/49/95
f 368/39/100 367/40/100 366/40/100
f 375/42/102 374/43/102 373/43/102
f 380/46/100 381/46/100 382/44/100
f 387/48/102 388/48/102 389/49/102
f 394/40/106 395/40/106 396/39/106
f 401/43/108 402/43/108 403/42/108
f 408/46/110 409/46/110 410/44/110
f 417/49/108 416/48/108 415/48/108
f 421/39/113 422/40/113 423/40/114
f 429/43/116 430/43/116 431/42/116
f 435/44/114 438/44/114 437/46/114
f 443/48/119 444/48/119 445/49/119
f 452/39/121 451/40/121 450/40/121
f 456/42/123 459/42/123 458/43/123
f 466/44/125 465/46/125 464/46/125
f 470/49/127 473/49/127 472/48/127
f 480/52/129 478/53/129 477/52/129
f 481/52/130 482/53/130 483/54/130
f 484/55/131 486/56/131 485/56/131
f 488/53/132 490/57/132 489/58/132
f 491/58/133 493/59/133 494/58/133
f 495/58/134 497/60/134 496/59/134
f 499/61/129 501/62/129 498/62/129
f 502/59/135 503/63/135 504/64/135
f 508/63/136 506/65/136 505/63/136
f 509/63/137 510/65/137 511/66/137
f 513/67/138 515/68/138 512/68/138
f 516/65/139 517/69/139 518/70/139
f 519/52/140 521/53/140 520/53/140
f 523/52/141 524/53/141 525/54/141
f 529/55/142 527/56/142 526/55/142
f 530/53/143 532/57/143 531/58/143
f 534/59/144 536/58/144 533/58/144
f 537/58/145 538/59/145 539/60/145
f 540/62/140 542/61/140 543/62/140
f 544/59/146 545/63/146 546/64/146
f 547/63/142 549/65/142 550/63/142
f 551/63/147 553/66/147 552/65/147
f 554/68/148 556/67/148 557/68/148
f 558/65/149 560/70/149 559/69/149
f 564/52/150 562/53/151 561/52/151
f 565/52/152 567/54/152 566/53/152
f 569/56/153 571/55/153 568/55/153
f 572/53/154 573/58/154 574/57/154
f 578/58/155 576/59/155 575/58/155
f 579/58/156 580/59/156 581/60/156
f 582/62/150 584/61/151 585/62/151
f 586/59/157 588/64/157 587/63/157
f 592/63/153 590/65/153 589/63/153
f 593/63/158 595/66/158 594/65/158
f 597/67/155 599/68/155 596/68/155
f 600/65/159 601/69/159 602/70/159
f 604/53/160 606/52/160 603/52/160
f 607/52/161 608/53/161 609/54/161
f 613/55/162 611/56/162 610/55/162
f 614/53/163 616/57/163 615/58/163
f 620/58/164 618/59/164 617/58/164
f 621/58/165 622/59/165 623/60/165
f 625/61/166 627/62/166 624/62/166
f 628/59/167 630/64/167 629/63/167
f 631/63/162 633/65/162 634/63/162
f 635/63/168 637/66/168 636/65/168
f 639/67/164 641/68/164 638/68/164
f 642/65/169 644/70/169 643/69/169
f 648/52/170 646/53/170 645/52/170
f 649/52/171 650/53/171 651/54/171
f 653/56/172 655/55/172 652/55/172
f 656/53/173 658/57/173 657/58/173
f 660/59/174 662/58/174 659/58/174
f 663/58/175 664/59/175 665/60/175
f 666/62/170 668/61/170 669/62/170
f 670/59/176 672/64/176 671/63/176
f 673/63/172 675/65/172 674/65/172
f 677/63/177 678/65/177 679/66/177
f 681/67/178 683/68/178 680/68/178
f 684/65/179 686/70/179 685/69/179
f 688/53/180 690/52/180 687/52/180
f 691/52/181 692/53/181 693/54/181
f 697/55/182 695/56/182 694/55/182
f 698/53/183 700/57/183 699/58/183
f 701/58/184 703/59/185 704/58/185
f 705/58/186 706/59/186 707/60/186
f 709/61/187 711/62/187 708/62/187
f 712/59/188 714/64/188 713/63/188
f 715/63/189 717/65/189 716/65/189
f 719/63/190 721/66/190 720/65/190
f 723/67/191 725/68/192 722/68/191
f 726/65/193 727/69/193 728/70/193
f 730/53/194 732/52/194 729/52/194
f 733/52/195 734/53/195 735/54/195
f 736/55/196 738/56/196 739/55/196
f 740/53/197 741/58/197 742/57/197
f 744/59/198 746/58/198 743/58/198
f 747/58/199 748/59/199 749/60/199
f 753/62/194 751/61/194 750/62/194
f 754/59/200 756/64/200 755/63/200
f 758/65/201 760/63/201 757/63/201
f 761/63/202 763/66/202 762/65/202
f 764/68/203 766/67/203 767/68/203
f 768/65/204 769/69/204 770/70/204
f 771/52/205 773/53/205 772/53/205
f 775/52/206 776/53/206 777/54/206
f 778/55/207 780/56/207 781/55/207
f 782/53/208 784/57/208 783/58/208
f 786/59/209 788/58/209 785/58/209
f 789/58/210 790/59/210 791/60/210
f 792/62/205 794/61/205 795/62/205
f 796/59/211 797/63/211 798/64/211
f 800/65/212 802/63/212 799/63/212
f 803/63/213 804/65/213 805/66/213
f 806/68/214 808/67/214 809/68/214
f 810/65/215 811/69/215 812/70/215
f 814/53/216 816/52/216 813/52/216
f 817/52/217 818/53/217 819/54/217
f 821/56/218 823/55/218 820/55/218
f 824/53/219 825/58/219 826/57/219
f 830/58/220 828/59/220 827/58/220
f 831/58/221 832/59/221 833/60/221
f 837/62/216 835/61/216 834/62/216
f 838/59/222 839/63/222 840/64/222
f 842/65/223 844/63/223 841/63/223
f 845/63/224 847/66/224 846/65/224
f 849/67/220 851/68/220 848/68/220
f 852/65/225 854/70/225 853/69/225
f 858/52/226 856/53/226 855/52/226
f 859/52/227 860/53/227 861/54/227
f 865/55/228 863/56/228 862/55/228
f 866/53/229 867/58/229 868/57/229
f 872/58/230 870/59/230 869/58/230
f 873/58/231 875/60/231 874/59/231
f 879/62/232 877/61/232 876/62/232
f 880/59/233 881/63/233 882/64/233
f 886/63/234 884/65/234 883/63/234
f 887/63/235 888/65/235 889/66/235
f 893/68/236 891/67/236 890/68/236
f 894/65/237 896/70/237 895/69/237
f 480/52/129 479/53/129 478/53/129
f 484/55/131 487/55/131 486/56/131
f 491/58/133 492/59/133 493/59/133
f 499/61/129 500/61/129 501/62/129
f 508/63/136 507/65/136 506/65/136
f 513/67/138 514/67/138 515/68/138
f 519/52/140 522/52/140 521/53/140
f 529/55/142 528/56/142 527/56/142
f 534/59/144 535/59/144 536/58/144
f 540/62/140 541/61/140 542/61/140
f 547/63/142 548/65/142 549/65/142
f 554/68/148 555/67/148 556/67/148
f 564/52/150 563/53/150 562/53/151
f 569/56/153 570/56/153 571/55/153
f 578/58/155 577/59/155 576/59/155
f 582/62/150 583/61/150 584/61/151
f 592/63/153 591/65/153 590/65/153
f 597/67/155 598/67/155 599/68/155
f 604/53/160 605/53/160 606/52/160
f 613/55/162 612/56/162 611/56/162
f 620/58/164 619/59/164 618/59/164
f 625/61/166 626/61/166 627/62/166
f 631/63/162 632/65/162 633/65/162
f 639/67/164 640/67/164 641/68/164
f 648/52/170 647/53/170 646/53/170
f 653/56/172 654/56/172 655/55/172
f 660/59/174 661/59/174 662/58/174
f 666/62/170 667/61/170 668/61/170
f 673/63/172 676/63/172 675/65/172
f 681/67/178 682/67/178 683/68/178
f 688/53/180 689/53/180 690/52/180
f 697/55/182 696/56/182 695/56/182
f 701/58/184 702/59/184 703/59/185
f 709/61/187 710/61/187 711/62/187
f 715/63/189 718/63/189 717/65/189
f 723/67/191 724/67/192 725/68/192
f 730/53/194 731/53/194 732/52/194
f 736/55/196 737/56/196 738/56/196
f 744/59/198 745/59/198 746/58/198
f 753/62/194 752/61/194 751/61/194
f 758/65/201 759/65/201 760/63/201
f 764/68/203 765/67/203 766/67/203
f 771/52/205 774/52/205 773/53/205
f 778/55/207 779/56/207 780/56/207
f 786/59/209 787/59/209 788/58/209
f 792/62/205 793/61/205 794/61/205
f 800/65/212 801/65/212 802/63/212
f 806/68/214 807/67/214 808/67/214
f 814/53/216 815/53/216 816/52/216
f 821/56/218 822/56/218 823/55/218
f 830/58/220 829/59/220 828/59/220
f 837/62/216 836/61/216 835/61/216
f 842/65/223 843/65/223 844/63/223
f 849/67/220 850/67/220 851/68/220
f 858/52/226 857/53/226 856/53/226
f 865/55/228 864/56/228 863/56/228
f 872/58/230 871/59/230 870/59/230
f 879/62/232 878/61/232 877/61/232
f 886/63/234 885/65/234 884/65/234
f 893/68/236 892/67/236 891/67/236
