# Blender 5.1.2
# www.blender.org
o st_isle_05_crystal
v 1.410977 -0.983327 -1.240492
v 1.002284 -0.766402 0.366665
v -0.495937 -0.768538 -1.055503
v 0.762748 -0.374200 -2.628595
v 2.568638 -0.276612 -2.188550
v 2.782828 -0.529494 -0.309386
v -0.085931 -0.040323 0.097915
v -0.041467 0.179315 -1.913814
v 1.675227 0.430771 -2.622485
v 2.900212 0.344417 -1.192499
v 1.993365 0.067832 0.572076
v 1.264881 0.676052 -1.014881
v 0.433332 -0.961902 -1.157067
v 1.182506 -0.987885 -0.314290
v 0.238342 -0.811072 -0.226330
v 1.974681 -0.735914 0.241523
v 2.223662 -0.858939 -0.716378
v 0.998308 -0.833387 -2.208308
v -0.008020 -0.620209 -2.045256
v 2.091290 -0.686893 -1.804833
v 1.691285 -0.338959 -2.517709
v 3.017842 -0.460453 -1.305769
v 1.483503 -0.392367 0.620308
v 2.305604 -0.235599 -0.000372
v -0.755144 -0.466655 -0.282948
v 0.255159 -0.501929 0.630722
v 0.304675 -0.093929 -2.338078
v -0.234352 -0.252872 -1.518094
v 2.396819 0.159479 -2.847127
v 1.194465 0.058450 -2.882644
v 3.499716 -0.049489 -0.595967
v 2.834887 0.046729 -1.734171
v 0.883897 0.054893 0.664907
v -0.413766 0.139074 -0.945496
v 0.695127 0.409118 -2.518767
v 2.558511 0.546114 -2.130047
v 2.731120 0.300953 -0.183301
v 0.612419 0.334959 -0.477086
v 1.667753 0.475235 -0.089300
v 0.608048 0.404576 -1.470991
v 1.497876 0.664761 -1.955904
v 2.321473 0.694741 -1.099660
v 2.345289 0.129232 -0.492311
v 2.277938 0.301250 -1.021914
v 2.443207 1.442596 -0.672210
v 2.510554 1.270577 -0.142606
v 2.510554 1.270577 -0.142606
v 2.443207 1.442596 -0.672210
v 2.045882 1.724479 -0.233106
v 2.277938 0.301250 -1.021914
v 1.766650 0.433231 -1.211045
v 1.931918 1.574582 -0.861341
v 2.443207 1.442596 -0.672210
v 2.443207 1.442596 -0.672210
v 1.931918 1.574582 -0.861341
v 2.045882 1.724479 -0.233106
v 1.766650 0.433231 -1.211045
v 1.322713 0.393196 -0.870574
v 1.487978 1.534546 -0.520868
v 1.931918 1.574582 -0.861341
v 1.931918 1.574582 -0.861341
v 1.487978 1.534546 -0.520868
v 2.045882 1.724479 -0.233106
v 1.322713 0.393196 -0.870574
v 1.390060 0.221177 -0.340970
v 1.555329 1.362523 0.008734
v 1.487978 1.534546 -0.520868
v 1.487978 1.534546 -0.520868
v 1.555329 1.362523 0.008734
v 2.045882 1.724479 -0.233106
v 1.390060 0.221177 -0.340970
v 1.901348 0.089195 -0.151838
v 2.066617 1.230542 0.197865
v 1.555329 1.362523 0.008734
v 1.555329 1.362523 0.008734
v 2.066617 1.230542 0.197865
v 2.045882 1.724479 -0.233106
v 1.901348 0.089195 -0.151838
v 2.345289 0.129232 -0.492311
v 2.510554 1.270577 -0.142606
v 2.066617 1.230542 0.197865
v 2.066617 1.230542 0.197865
v 2.510554 1.270577 -0.142606
v 2.045882 1.724479 -0.233106
v 1.241237 0.406868 -1.198835
v 1.183660 0.394918 -1.758986
v 0.722017 2.006976 -1.745926
v 0.779594 2.018927 -1.185774
v 0.779594 2.018927 -1.185774
v 0.722017 2.006976 -1.745926
v 0.154337 2.333698 -1.411381
v 1.183660 0.394918 -1.758986
v 0.688605 0.255008 -1.988273
v 0.226967 1.867067 -1.975215
v 0.722017 2.006976 -1.745926
v 0.722017 2.006976 -1.745926
v 0.226967 1.867067 -1.975215
v 0.154337 2.333698 -1.411381
v 0.688605 0.255008 -1.988273
v 0.251131 0.127050 -1.657411
v -0.210509 1.739105 -1.644357
v 0.226967 1.867067 -1.975215
v 0.226967 1.867067 -1.975215
v -0.210509 1.739105 -1.644357
v 0.154337 2.333698 -1.411381
v 0.251131 0.127050 -1.657411
v 0.308710 0.139002 -1.097265
v -0.152932 1.751056 -1.084205
v -0.210509 1.739105 -1.644357
v -0.210509 1.739105 -1.644357
v -0.152932 1.751056 -1.084205
v 0.154337 2.333698 -1.411381
v 0.308710 0.139002 -1.097265
v 0.803763 0.278910 -0.867972
v 0.342118 1.890969 -0.854916
v -0.152932 1.751056 -1.084205
v -0.152932 1.751056 -1.084205
v 0.342118 1.890969 -0.854916
v 0.154337 2.333698 -1.411381
v 0.803763 0.278910 -0.867972
v 1.241237 0.406868 -1.198835
v 0.779594 2.018927 -1.185774
v 0.342118 1.890969 -0.854916
v 0.342118 1.890969 -0.854916
v 0.779594 2.018927 -1.185774
v 0.154337 2.333698 -1.411381
v 1.740706 0.169225 -0.182448
v 1.605236 0.513836 -0.794422
v 1.213605 1.986329 0.121456
v 1.349075 1.641713 0.733429
v 1.349075 1.641713 0.733429
v 1.213605 1.986329 0.121456
v 0.578144 2.052144 0.717195
v 1.605236 0.513836 -0.794422
v 0.944767 0.508947 -1.068981
v 0.553137 1.981439 -0.153103
v 1.213605 1.986329 0.121456
v 1.213605 1.986329 0.121456
v 0.553137 1.981439 -0.153103
v 0.578144 2.052144 0.717195
v 0.944767 0.508947 -1.068981
v 0.419774 0.159447 -0.731563
v 0.028139 1.631935 0.184312
v 0.553137 1.981439 -0.153103
v 0.553137 1.981439 -0.153103
v 0.028139 1.631935 0.184312
v 0.578144 2.052144 0.717195
v 0.419774 0.159447 -0.731563
v 0.555244 -0.185164 -0.119589
v 0.163610 1.287323 0.796289
v 0.028139 1.631935 0.184312
v 0.028139 1.631935 0.184312
v 0.163610 1.287323 0.796289
v 0.578144 2.052144 0.717195
v 0.555244 -0.185164 -0.119589
v 1.215709 -0.180275 0.154971
v 0.824077 1.292213 1.070844
v 0.163610 1.287323 0.796289
v 0.163610 1.287323 0.796289
v 0.824077 1.292213 1.070844
v 0.578144 2.052144 0.717195
v 1.215709 -0.180275 0.154971
v 1.740706 0.169225 -0.182448
v 1.349075 1.641713 0.733429
v 0.824077 1.292213 1.070844
v 0.824077 1.292213 1.070844
v 1.349075 1.641713 0.733429
v 0.578144 2.052144 0.717195
v 2.485668 0.124415 -0.845218
v 2.397822 0.241665 -1.419493
v 3.022042 2.224687 -1.110101
v 3.109887 2.107438 -0.535831
v 3.109887 2.107438 -0.535831
v 3.022042 2.224687 -1.110101
v 2.757860 2.861880 -0.633773
v 2.397822 0.241665 -1.419493
v 1.869731 0.436791 -1.604698
v 2.493951 2.419813 -1.295307
v 3.022042 2.224687 -1.110101
v 3.022042 2.224687 -1.110101
v 2.493951 2.419813 -1.295307
v 2.757860 2.861880 -0.633773
v 1.869731 0.436791 -1.604698
v 1.429491 0.514668 -1.215631
v 2.053711 2.497695 -0.906239
v 2.493951 2.419813 -1.295307
v 2.493951 2.419813 -1.295307
v 2.053711 2.497695 -0.906239
v 2.757860 2.861880 -0.633773
v 1.429491 0.514668 -1.215631
v 1.517334 0.397418 -0.641355
v 2.141556 2.380446 -0.331968
v 2.053711 2.497695 -0.906239
v 2.053711 2.497695 -0.906239
v 2.141556 2.380446 -0.331968
v 2.757860 2.861880 -0.633773
v 1.517334 0.397418 -0.641355
v 2.045424 0.202292 -0.456149
v 2.669643 2.185315 -0.146762
v 2.141556 2.380446 -0.331968
v 2.141556 2.380446 -0.331968
v 2.669643 2.185315 -0.146762
v 2.757860 2.861880 -0.633773
v 2.045424 0.202292 -0.456149
v 2.485668 0.124415 -0.845218
v 3.109887 2.107438 -0.535831
v 2.669643 2.185315 -0.146762
v 2.669643 2.185315 -0.146762
v 3.109887 2.107438 -0.535831
v 2.757860 2.861880 -0.633773
v 2.534843 0.094199 -0.662796
v 2.448542 0.268168 -1.305868
v 2.771117 1.554072 -1.001284
v 2.857420 1.380103 -0.358209
v 2.857420 1.380103 -0.358209
v 2.771117 1.554072 -1.001284
v 2.345050 1.945107 -0.487455
v 2.448542 0.268168 -1.305868
v 1.845194 0.470484 -1.521026
v 2.167767 1.756388 -1.216436
v 2.771117 1.554072 -1.001284
v 2.771117 1.554072 -1.001284
v 2.167767 1.756388 -1.216436
v 2.345050 1.945107 -0.487455
v 1.845194 0.470484 -1.521026
v 1.328145 0.498831 -1.093106
v 1.650716 1.784734 -0.788521
v 2.167767 1.756388 -1.216436
v 2.167767 1.756388 -1.216436
v 1.650716 1.784734 -0.788521
v 2.345050 1.945107 -0.487455
v 1.328145 0.498831 -1.093106
v 1.414446 0.324862 -0.450034
v 1.737018 1.610761 -0.145450
v 1.650716 1.784734 -0.788521
v 1.650716 1.784734 -0.788521
v 1.737018 1.610761 -0.145450
v 2.345050 1.945107 -0.487455
v 1.414446 0.324862 -0.450034
v 2.017795 0.122545 -0.234877
v 2.340370 1.408445 0.069707
v 1.737018 1.610761 -0.145450
v 1.737018 1.610761 -0.145450
v 2.340370 1.408445 0.069707
v 2.345050 1.945107 -0.487455
v 2.017795 0.122545 -0.234877
v 2.534843 0.094199 -0.662796
v 2.857420 1.380103 -0.358209
v 2.340370 1.408445 0.069707
v 2.340370 1.408445 0.069707
v 2.857420 1.380103 -0.358209
v 2.345050 1.945107 -0.487455
v 2.629585 0.366906 -1.065977
v 2.521297 0.457000 -1.869039
v 2.426582 2.051935 -1.677329
v 2.534870 1.961841 -0.874268
v 2.534870 1.961841 -0.874268
v 2.426582 2.051935 -1.677329
v 1.755413 2.404639 -1.133370
v 2.521297 0.457000 -1.869039
v 1.768551 0.449941 -2.182213
v 1.673836 2.044880 -1.990504
v 2.426582 2.051935 -1.677329
v 2.426582 2.051935 -1.677329
v 1.673836 2.044880 -1.990504
v 1.755413 2.404639 -1.133370
v 1.768551 0.449941 -2.182213
v 1.124095 0.352788 -1.692327
v 1.029379 1.947727 -1.500617
v 1.673836 2.044880 -1.990504
v 1.673836 2.044880 -1.990504
v 1.029379 1.947727 -1.500617
v 1.755413 2.404639 -1.133370
v 1.124095 0.352788 -1.692327
v 1.232385 0.262693 -0.889262
v 1.137670 1.857628 -0.697552
v 1.029379 1.947727 -1.500617
v 1.029379 1.947727 -1.500617
v 1.137670 1.857628 -0.697552
v 1.755413 2.404639 -1.133370
v 1.232385 0.262693 -0.889262
v 1.985130 0.269752 -0.576087
v 1.890415 1.864686 -0.384378
v 1.137670 1.857628 -0.697552
v 1.137670 1.857628 -0.697552
v 1.890415 1.864686 -0.384378
v 1.755413 2.404639 -1.133370
v 1.985130 0.269752 -0.576087
v 2.629585 0.366906 -1.065977
v 2.534870 1.961841 -0.874268
v 1.890415 1.864686 -0.384378
v 1.890415 1.864686 -0.384378
v 2.534870 1.961841 -0.874268
v 1.755413 2.404639 -1.133370
v 1.391691 0.386338 -1.356896
v 1.328372 0.386920 -1.914456
v 1.104785 1.630807 -1.887766
v 1.168105 1.630226 -1.330206
v 1.168105 1.630226 -1.330206
v 1.104785 1.630807 -1.887766
v 0.598232 1.894795 -1.547591
v 1.328372 0.386920 -1.914456
v 0.821566 0.300647 -2.139368
v 0.597978 1.544535 -2.112681
v 1.104785 1.630807 -1.887766
v 1.104785 1.630807 -1.887766
v 0.597978 1.544535 -2.112681
v 0.598232 1.894795 -1.547591
v 0.821566 0.300647 -2.139368
v 0.378073 0.213793 -1.806721
v 0.154487 1.457681 -1.780031
v 0.597978 1.544535 -2.112681
v 0.597978 1.544535 -2.112681
v 0.154487 1.457681 -1.780031
v 0.598232 1.894795 -1.547591
v 0.378073 0.213793 -1.806721
v 0.441388 0.213211 -1.249160
v 0.217806 1.457100 -1.222471
v 0.154487 1.457681 -1.780031
v 0.154487 1.457681 -1.780031
v 0.217806 1.457100 -1.222471
v 0.598232 1.894795 -1.547591
v 0.441388 0.213211 -1.249160
v 0.948200 0.299484 -1.024246
v 0.724612 1.543372 -0.997559
v 0.217806 1.457100 -1.222471
v 0.217806 1.457100 -1.222471
v 0.724612 1.543372 -0.997559
v 0.598232 1.894795 -1.547591
v 0.948200 0.299484 -1.024246
v 1.391691 0.386338 -1.356896
v 1.168105 1.630226 -1.330206
v 0.724612 1.543372 -0.997559
v 0.724612 1.543372 -0.997559
v 1.168105 1.630226 -1.330206
v 0.598232 1.894795 -1.547591
v 2.163902 -0.015704 -0.219570
v 2.110676 0.391857 -0.811452
v 2.259438 1.978490 0.267704
v 2.312668 1.570926 0.859584
v 2.312668 1.570926 0.859584
v 2.259438 1.978490 0.267704
v 1.707531 2.235992 0.933303
v 2.110676 0.391857 -0.811452
v 1.463582 0.609411 -1.042108
v 1.612344 2.196041 0.037048
v 2.259438 1.978490 0.267704
v 2.259438 1.978490 0.267704
v 1.612344 2.196041 0.037048
v 1.707531 2.235992 0.933303
v 1.463582 0.609411 -1.042108
v 0.869714 0.419405 -0.680878
v 1.018479 2.006036 0.398271
v 1.612344 2.196041 0.037048
v 1.612344 2.196041 0.037048
v 1.018479 2.006036 0.398271
v 1.707531 2.235992 0.933303
v 0.869714 0.419405 -0.680878
v 0.922944 0.011845 -0.088998
v 1.071708 1.598476 0.990152
v 1.018479 2.006036 0.398271
v 1.018479 2.006036 0.398271
v 1.071708 1.598476 0.990152
v 1.707531 2.235992 0.933303
v 0.922944 0.011845 -0.088998
v 1.570037 -0.205709 0.141654
v 1.718803 1.380921 1.220808
v 1.071708 1.598476 0.990152
v 1.071708 1.598476 0.990152
v 1.718803 1.380921 1.220808
v 1.707531 2.235992 0.933303
v 1.570037 -0.205709 0.141654
v 2.163902 -0.015704 -0.219570
v 2.312668 1.570926 0.859584
v 1.718803 1.380921 1.220808
v 1.718803 1.380921 1.220808
v 2.312668 1.570926 0.859584
v 1.707531 2.235992 0.933303
v 5.047910 -0.431713 -5.127925
v 5.144254 -0.545111 -4.951893
v 4.466809 -2.364214 -5.752941
v 4.370464 -2.250816 -5.928977
v 4.370464 -2.250816 -5.928977
v 4.466809 -2.364214 -5.752941
v 4.058041 -2.803243 -5.962937
v 5.144254 -0.545111 -4.951893
v 5.022906 -0.584454 -4.759915
v 4.345460 -2.403560 -5.560966
v 4.466809 -2.364214 -5.752941
v 4.466809 -2.364214 -5.752941
v 4.345460 -2.403560 -5.560966
v 4.058041 -2.803243 -5.962937
v 5.022906 -0.584454 -4.759915
v 4.805212 -0.510406 -4.743973
v 4.127767 -2.329509 -5.545024
v 4.345460 -2.403560 -5.560966
v 4.345460 -2.403560 -5.560966
v 4.127767 -2.329509 -5.545024
v 4.058041 -2.803243 -5.962937
v 4.805212 -0.510406 -4.743973
v 4.708868 -0.397008 -4.920008
v 4.031422 -2.216114 -5.721056
v 4.127767 -2.329509 -5.545024
v 4.127767 -2.329509 -5.545024
v 4.031422 -2.216114 -5.721056
v 4.058041 -2.803243 -5.962937
v 4.708868 -0.397008 -4.920008
v 4.830216 -0.357665 -5.111982
v 4.152771 -2.176768 -5.913034
v 4.031422 -2.216114 -5.721056
v 4.031422 -2.216114 -5.721056
v 4.152771 -2.176768 -5.913034
v 4.058041 -2.803243 -5.962937
v 4.830216 -0.357665 -5.111982
v 5.047910 -0.431713 -5.127925
v 4.370464 -2.250816 -5.928977
v 4.152771 -2.176768 -5.913034
v 4.152771 -2.176768 -5.913034
v 4.370464 -2.250816 -5.928977
v 4.058041 -2.803243 -5.962937
v 5.826277 -0.538855 -5.035223
v 5.931094 -0.598731 -4.851346
v 6.068225 -2.445782 -5.530980
v 5.963406 -2.385903 -5.714856
v 5.963406 -2.385903 -5.714856
v 6.068225 -2.445782 -5.530980
v 5.887546 -2.979143 -5.733230
v 5.931094 -0.598731 -4.851346
v 5.816556 -0.671007 -4.678028
v 5.953687 -2.518059 -5.357662
v 6.068225 -2.445782 -5.530980
v 6.068225 -2.445782 -5.530980
v 5.953687 -2.518059 -5.357662
v 5.887546 -2.979143 -5.733230
v 5.816556 -0.671007 -4.678028
v 5.597200 -0.683408 -4.688587
v 5.734329 -2.530459 -5.368220
v 5.953687 -2.518059 -5.357662
v 5.953687 -2.518059 -5.357662
v 5.734329 -2.530459 -5.368220
v 5.887546 -2.979143 -5.733230
v 5.597200 -0.683408 -4.688587
v 5.492381 -0.623532 -4.872463
v 5.629512 -2.470583 -5.552097
v 5.734329 -2.530459 -5.368220
v 5.734329 -2.530459 -5.368220
v 5.629512 -2.470583 -5.552097
v 5.887546 -2.979143 -5.733230
v 5.492381 -0.623532 -4.872463
v 5.606919 -0.551256 -5.045782
v 5.744051 -2.398304 -5.725416
v 5.629512 -2.470583 -5.552097
v 5.629512 -2.470583 -5.552097
v 5.744051 -2.398304 -5.725416
v 5.887546 -2.979143 -5.733230
v 5.606919 -0.551256 -5.045782
v 5.826277 -0.538855 -5.035223
v 5.963406 -2.385903 -5.714856
v 5.744051 -2.398304 -5.725416
v 5.744051 -2.398304 -5.725416
v 5.963406 -2.385903 -5.714856
v 5.887546 -2.979143 -5.733230
v 6.231305 -0.599709 -4.551493
v 6.318095 -0.594969 -4.371381
v 6.657798 -1.768234 -4.504183
v 6.571010 -1.772979 -4.684295
v 6.571010 -1.772979 -4.684295
v 6.657798 -1.768234 -4.504183
v 6.561714 -2.152778 -4.558785
v 6.318095 -0.594969 -4.371381
v 6.212985 -0.643846 -4.208420
v 6.552691 -1.817115 -4.341219
v 6.657798 -1.768234 -4.504183
v 6.657798 -1.768234 -4.504183
v 6.552691 -1.817115 -4.341219
v 6.561714 -2.152778 -4.558785
v 6.212985 -0.643846 -4.208420
v 6.021088 -0.697470 -4.225564
v 6.360790 -1.870735 -4.358366
v 6.552691 -1.817115 -4.341219
v 6.552691 -1.817115 -4.341219
v 6.360790 -1.870735 -4.358366
v 6.561714 -2.152778 -4.558785
v 6.021088 -0.697470 -4.225564
v 5.934298 -0.702210 -4.405675
v 6.274000 -1.875479 -4.538474
v 6.360790 -1.870735 -4.358366
v 6.360790 -1.870735 -4.358366
v 6.274000 -1.875479 -4.538474
v 6.561714 -2.152778 -4.558785
v 5.934298 -0.702210 -4.405675
v 6.039408 -0.653333 -4.568637
v 6.379110 -1.826599 -4.701439
v 6.274000 -1.875479 -4.538474
v 6.274000 -1.875479 -4.538474
v 6.379110 -1.826599 -4.701439
v 6.561714 -2.152778 -4.558785
v 6.039408 -0.653333 -4.568637
v 6.231305 -0.599709 -4.551493
v 6.571010 -1.772979 -4.684295
v 6.379110 -1.826599 -4.701439
v 6.379110 -1.826599 -4.701439
v 6.571010 -1.772979 -4.684295
v 6.561714 -2.152778 -4.558785
v 6.255859 -0.607519 -3.899537
v 6.335289 -0.547950 -3.749250
v 6.736020 -1.812982 -3.459636
v 6.656590 -1.872551 -3.609923
v 6.656590 -1.872551 -3.609923
v 6.736020 -1.812982 -3.459636
v 6.677111 -2.223302 -3.373806
v 6.335289 -0.547950 -3.749250
v 6.242782 -0.541898 -3.594820
v 6.643513 -1.806932 -3.305205
v 6.736020 -1.812982 -3.459636
v 6.736020 -1.812982 -3.459636
v 6.643513 -1.806932 -3.305205
v 6.677111 -2.223302 -3.373806
v 6.242782 -0.541898 -3.594820
v 6.070847 -0.595414 -3.590676
v 6.471577 -1.860449 -3.301061
v 6.643513 -1.806932 -3.305205
v 6.643513 -1.806932 -3.305205
v 6.471577 -1.860449 -3.301061
v 6.677111 -2.223302 -3.373806
v 6.070847 -0.595414 -3.590676
v 5.991417 -0.654983 -3.740962
v 6.392147 -1.920013 -3.451344
v 6.471577 -1.860449 -3.301061
v 6.471577 -1.860449 -3.301061
v 6.392147 -1.920013 -3.451344
v 6.677111 -2.223302 -3.373806
v 5.991417 -0.654983 -3.740962
v 6.083924 -0.661035 -3.895393
v 6.484656 -1.926067 -3.605775
v 6.392147 -1.920013 -3.451344
v 6.392147 -1.920013 -3.451344
v 6.484656 -1.926067 -3.605775
v 6.677111 -2.223302 -3.373806
v 6.083924 -0.661035 -3.895393
v 6.255859 -0.607519 -3.899537
v 6.656590 -1.872551 -3.609923
v 6.484656 -1.926067 -3.605775
v 6.484656 -1.926067 -3.605775
v 6.656590 -1.872551 -3.609923
v 6.677111 -2.223302 -3.373806
v 5.914452 -0.573400 -3.421676
v 6.030012 -0.478558 -3.271971
v 6.171642 -1.483827 -2.744404
v 6.056085 -1.578674 -2.894110
v 6.056085 -1.578674 -2.894110
v 6.171642 -1.483827 -2.744404
v 6.002019 -1.784689 -2.572355
v 6.030012 -0.478558 -3.271971
v 5.936000 -0.401035 -3.099019
v 6.077630 -1.406308 -2.571451
v 6.171642 -1.483827 -2.744404
v 6.171642 -1.483827 -2.744404
v 6.077630 -1.406308 -2.571451
v 6.002019 -1.784689 -2.572355
v 5.936000 -0.401035 -3.099019
v 5.726428 -0.418361 -3.075771
v 5.868061 -1.423632 -2.548205
v 6.077630 -1.406308 -2.571451
v 6.077630 -1.406308 -2.571451
v 5.868061 -1.423632 -2.548205
v 6.002019 -1.784689 -2.572355
v 5.726428 -0.418361 -3.075771
v 5.610871 -0.513205 -3.225474
v 5.752501 -1.518478 -2.697906
v 5.868061 -1.423632 -2.548205
v 5.868061 -1.423632 -2.548205
v 5.752501 -1.518478 -2.697906
v 6.002019 -1.784689 -2.572355
v 5.610871 -0.513205 -3.225474
v 5.704883 -0.590727 -3.398426
v 5.846513 -1.595997 -2.870859
v 5.752501 -1.518478 -2.697906
v 5.752501 -1.518478 -2.697906
v 5.846513 -1.595997 -2.870859
v 6.002019 -1.784689 -2.572355
v 5.704883 -0.590727 -3.398426
v 5.914452 -0.573400 -3.421676
v 6.056085 -1.578674 -2.894110
v 5.846513 -1.595997 -2.870859
v 5.846513 -1.595997 -2.870859
v 6.056085 -1.578674 -2.894110
v 6.002019 -1.784689 -2.572355
v 5.222280 -0.461015 -3.200494
v 5.329580 -0.402129 -3.073321
v 5.036326 -1.551127 -2.293869
v 4.929027 -1.610010 -2.421041
v 4.929027 -1.610010 -2.421041
v 5.036326 -1.551127 -2.293869
v 4.782776 -1.830841 -2.072906
v 5.329580 -0.402129 -3.073321
v 5.266047 -0.298883 -2.945028
v 4.972793 -1.447881 -2.165576
v 5.036326 -1.551127 -2.293869
v 5.036326 -1.551127 -2.293869
v 4.972793 -1.447881 -2.165576
v 4.782776 -1.830841 -2.072906
v 5.266047 -0.298883 -2.945028
v 5.095208 -0.254522 -2.943913
v 4.801955 -1.403521 -2.164460
v 4.972793 -1.447881 -2.165576
v 4.972793 -1.447881 -2.165576
v 4.801955 -1.403521 -2.164460
v 4.782776 -1.830841 -2.072906
v 5.095208 -0.254522 -2.943913
v 4.987904 -0.313408 -3.071087
v 4.694651 -1.462406 -2.291635
v 4.801955 -1.403521 -2.164460
v 4.801955 -1.403521 -2.164460
v 4.694651 -1.462406 -2.291635
v 4.782776 -1.830841 -2.072906
v 4.987904 -0.313408 -3.071087
v 5.051438 -0.416654 -3.199377
v 4.758184 -1.565652 -2.419925
v 4.694651 -1.462406 -2.291635
v 4.694651 -1.462406 -2.291635
v 4.758184 -1.565652 -2.419925
v 4.782776 -1.830841 -2.072906
v 5.051438 -0.416654 -3.199377
v 5.222280 -0.461015 -3.200494
v 4.929027 -1.610010 -2.421041
v 4.758184 -1.565652 -2.419925
v 4.758184 -1.565652 -2.419925
v 4.929027 -1.610010 -2.421041
v 4.782776 -1.830841 -2.072906
v 4.610581 -0.385434 -3.538107
v 4.706544 -0.366790 -3.373035
v 3.762254 -1.773629 -2.665201
v 3.666291 -1.792273 -2.830274
v 3.666291 -1.792273 -2.830274
v 3.762254 -1.773629 -2.665201
v 3.332185 -2.074206 -2.492723
v 4.706544 -0.366790 -3.373035
v 4.638775 -0.251918 -3.235130
v 3.694485 -1.658760 -2.527297
v 3.762254 -1.773629 -2.665201
v 3.762254 -1.773629 -2.665201
v 3.694485 -1.658760 -2.527297
v 3.332185 -2.074206 -2.492723
v 4.638775 -0.251918 -3.235130
v 4.475047 -0.155690 -3.262302
v 3.530757 -1.562532 -2.554465
v 3.694485 -1.658760 -2.527297
v 3.694485 -1.658760 -2.527297
v 3.530757 -1.562532 -2.554465
v 3.332185 -2.074206 -2.492723
v 4.475047 -0.155690 -3.262302
v 4.379084 -0.174333 -3.427374
v 3.434795 -1.581175 -2.719538
v 3.530757 -1.562532 -2.554465
v 3.530757 -1.562532 -2.554465
v 3.434795 -1.581175 -2.719538
v 3.332185 -2.074206 -2.492723
v 4.379084 -0.174333 -3.427374
v 4.446853 -0.289206 -3.565276
v 3.502563 -1.696048 -2.857442
v 3.434795 -1.581175 -2.719538
v 3.434795 -1.581175 -2.719538
v 3.502563 -1.696048 -2.857442
v 3.332185 -2.074206 -2.492723
v 4.446853 -0.289206 -3.565276
v 4.610581 -0.385434 -3.538107
v 3.666291 -1.792273 -2.830274
v 3.502563 -1.696048 -2.857442
v 3.502563 -1.696048 -2.857442
v 3.666291 -1.792273 -2.830274
v 3.332185 -2.074206 -2.492723
v 4.392916 -0.367091 -4.127073
v 4.467000 -0.402281 -3.936881
v 3.406922 -1.689783 -3.762162
v 3.332838 -1.654593 -3.952354
v 3.332838 -1.654593 -3.952354
v 3.406922 -1.689783 -3.762162
v 2.947595 -1.924520 -3.739453
v 4.467000 -0.402281 -3.936881
v 4.380754 -0.309066 -3.773260
v 3.320678 -1.596565 -3.598538
v 3.406922 -1.689783 -3.762162
v 3.406922 -1.689783 -3.762162
v 3.320678 -1.596565 -3.598538
v 2.947595 -1.924520 -3.739453
v 4.380754 -0.309066 -3.773260
v 4.220423 -0.180660 -3.799827
v 3.160345 -1.468163 -3.625108
v 3.320678 -1.596565 -3.598538
v 3.320678 -1.596565 -3.598538
v 3.160345 -1.468163 -3.625108
v 2.947595 -1.924520 -3.739453
v 4.220423 -0.180660 -3.799827
v 4.146338 -0.145470 -3.990019
v 3.086261 -1.432972 -3.815300
v 3.160345 -1.468163 -3.625108
v 3.160345 -1.468163 -3.625108
v 3.086261 -1.432972 -3.815300
v 2.947595 -1.924520 -3.739453
v 4.146338 -0.145470 -3.990019
v 4.232583 -0.238685 -4.153644
v 3.172506 -1.526187 -3.978925
v 3.086261 -1.432972 -3.815300
v 3.086261 -1.432972 -3.815300
v 3.172506 -1.526187 -3.978925
v 2.947595 -1.924520 -3.739453
v 4.232583 -0.238685 -4.153644
v 4.392916 -0.367091 -4.127073
v 3.332838 -1.654593 -3.952354
v 3.172506 -1.526187 -3.978925
v 3.172506 -1.526187 -3.978925
v 3.332838 -1.654593 -3.952354
v 2.947595 -1.924520 -3.739453
v 4.648271 -0.389712 -4.860180
v 4.725176 -0.494465 -4.674456
v 3.932825 -1.743082 -5.050600
v 3.855921 -1.638329 -5.236328
v 3.855921 -1.638329 -5.236328
v 3.932825 -1.743082 -5.050600
v 3.516912 -1.975773 -5.147953
v 4.725176 -0.494465 -4.674456
v 4.609648 -0.479738 -4.479985
v 3.817300 -1.728353 -4.856133
v 3.932825 -1.743082 -5.050600
v 3.932825 -1.743082 -5.050600
v 3.817300 -1.728353 -4.856133
v 3.516912 -1.975773 -5.147953
v 4.609648 -0.479738 -4.479985
v 4.417217 -0.360259 -4.471242
v 3.624868 -1.608874 -4.847391
v 3.817300 -1.728353 -4.856133
v 3.817300 -1.728353 -4.856133
v 3.624868 -1.608874 -4.847391
v 3.516912 -1.975773 -5.147953
v 4.417217 -0.360259 -4.471242
v 4.340313 -0.255507 -4.656971
v 3.547965 -1.504122 -5.033116
v 3.624868 -1.608874 -4.847391
v 3.624868 -1.608874 -4.847391
v 3.547965 -1.504122 -5.033116
v 3.516912 -1.975773 -5.147953
v 4.340313 -0.255507 -4.656971
v 4.455839 -0.270233 -4.851438
v 3.663489 -1.518850 -5.227586
v 3.547965 -1.504122 -5.033116
v 3.547965 -1.504122 -5.033116
v 3.663489 -1.518850 -5.227586
v 3.516912 -1.975773 -5.147953
v 4.455839 -0.270233 -4.851438
v 4.648271 -0.389712 -4.860180
v 3.855921 -1.638329 -5.236328
v 3.663489 -1.518850 -5.227586
v 3.663489 -1.518850 -5.227586
v 3.855921 -1.638329 -5.236328
v 3.516912 -1.975773 -5.147953
v 5.363474 -0.492324 -4.219982
v 5.473654 -0.496361 -4.023654
v 5.244650 -1.725474 -3.920411
v 5.134470 -1.721437 -4.116739
v 5.134470 -1.721437 -4.116739
v 5.244650 -1.725474 -3.920411
v 4.958673 -2.031238 -3.895333
v 5.473654 -0.496361 -4.023654
v 5.362445 -0.459489 -3.831363
v 5.133441 -1.688602 -3.728120
v 5.244650 -1.725474 -3.920411
v 5.244650 -1.725474 -3.920411
v 5.133441 -1.688602 -3.728120
v 4.958673 -2.031238 -3.895333
v 5.362445 -0.459489 -3.831363
v 5.141061 -0.418582 -3.835408
v 4.912057 -1.647694 -3.732165
v 5.133441 -1.688602 -3.728120
v 5.133441 -1.688602 -3.728120
v 4.912057 -1.647694 -3.732165
v 4.958673 -2.031238 -3.895333
v 5.141061 -0.418582 -3.835408
v 5.030881 -0.414544 -4.031737
v 4.801877 -1.643657 -3.928494
v 4.912057 -1.647694 -3.732165
v 4.912057 -1.647694 -3.732165
v 4.801877 -1.643657 -3.928494
v 4.958673 -2.031238 -3.895333
v 5.030881 -0.414544 -4.031737
v 5.142090 -0.451416 -4.224028
v 4.913086 -1.680529 -4.120785
v 4.801877 -1.643657 -3.928494
v 4.801877 -1.643657 -3.928494
v 4.913086 -1.680529 -4.120785
v 4.958673 -2.031238 -3.895333
v 5.142090 -0.451416 -4.224028
v 5.363474 -0.492324 -4.219982
v 5.134470 -1.721437 -4.116739
v 4.913086 -1.680529 -4.120785
v 4.913086 -1.680529 -4.120785
v 5.134470 -1.721437 -4.116739
v 4.958673 -2.031238 -3.895333
v 0.777292 -0.465415 6.823289
v 0.568180 -0.507297 6.605092
v 0.387670 -2.586000 7.177077
v 0.596782 -2.544119 7.395275
v 0.596782 -2.544119 7.395275
v 0.387670 -2.586000 7.177077
v 0.632461 -3.215005 7.276533
v 0.568180 -0.507297 6.605092
v 0.654771 -0.591882 6.325020
v 0.474261 -2.670585 6.897006
v 0.387670 -2.586000 7.177077
v 0.387670 -2.586000 7.177077
v 0.474261 -2.670585 6.897006
v 0.632461 -3.215005 7.276533
v 0.654771 -0.591882 6.325020
v 0.950474 -0.634585 6.263147
v 0.769965 -2.713289 6.835132
v 0.474261 -2.670585 6.897006
v 0.474261 -2.670585 6.897006
v 0.769965 -2.713289 6.835132
v 0.632461 -3.215005 7.276533
v 0.950474 -0.634585 6.263147
v 1.159586 -0.592703 6.481345
v 0.979077 -2.671407 7.053330
v 0.769965 -2.713289 6.835132
v 0.769965 -2.713289 6.835132
v 0.979077 -2.671407 7.053330
v 0.632461 -3.215005 7.276533
v 1.159586 -0.592703 6.481345
v 1.072995 -0.508118 6.761416
v 0.892486 -2.586822 7.333402
v 0.979077 -2.671407 7.053330
v 0.979077 -2.671407 7.053330
v 0.892486 -2.586822 7.333402
v 0.632461 -3.215005 7.276533
v 1.072995 -0.508118 6.761416
v 0.777292 -0.465415 6.823289
v 0.596782 -2.544119 7.395275
v 0.892486 -2.586822 7.333402
v 0.892486 -2.586822 7.333402
v 0.596782 -2.544119 7.395275
v 0.632461 -3.215005 7.276533
v 0.823410 -0.428685 6.674555
v 0.706638 -0.456057 6.535920
v 0.144914 -1.345888 7.184754
v 0.261688 -1.318517 7.323388
v 0.261688 -1.318517 7.323388
v 0.144914 -1.345888 7.184754
v 0.143727 -1.690809 7.375056
v 0.706638 -0.456057 6.535920
v 0.747111 -0.577372 6.404583
v 0.185387 -1.467203 7.053417
v 0.144914 -1.345888 7.184754
v 0.144914 -1.345888 7.184754
v 0.185387 -1.467203 7.053417
v 0.143727 -1.690809 7.375056
v 0.747111 -0.577372 6.404583
v 0.904356 -0.671315 6.411881
v 0.342633 -1.561146 7.060718
v 0.185387 -1.467203 7.053417
v 0.185387 -1.467203 7.053417
v 0.342633 -1.561146 7.060718
v 0.143727 -1.690809 7.375056
v 0.904356 -0.671315 6.411881
v 1.021127 -0.643943 6.550517
v 0.459407 -1.533774 7.199352
v 0.342633 -1.561146 7.060718
v 0.342633 -1.561146 7.060718
v 0.459407 -1.533774 7.199352
v 0.143727 -1.690809 7.375056
v 1.021127 -0.643943 6.550517
v 0.980654 -0.522628 6.681853
v 0.418933 -1.412459 7.330686
v 0.459407 -1.533774 7.199352
v 0.459407 -1.533774 7.199352
v 0.418933 -1.412459 7.330686
v 0.143727 -1.690809 7.375056
v 0.980654 -0.522628 6.681853
v 0.823410 -0.428685 6.674555
v 0.261688 -1.318517 7.323388
v 0.418933 -1.412459 7.330686
v 0.418933 -1.412459 7.330686
v 0.261688 -1.318517 7.323388
v 0.143727 -1.690809 7.375056
v 0.814362 -0.462021 6.703598
v 0.693624 -0.468043 6.557654
v 0.300421 -1.348597 6.919282
v 0.421161 -1.342575 7.065226
v 0.421161 -1.342575 7.065226
v 0.300421 -1.348597 6.919282
v 0.359779 -1.678915 7.006845
v 0.693624 -0.468043 6.557654
v 0.743143 -0.556021 6.397275
v 0.349940 -1.436575 6.758904
v 0.300421 -1.348597 6.919282
v 0.300421 -1.348597 6.919282
v 0.349940 -1.436575 6.758904
v 0.359779 -1.678915 7.006845
v 0.743143 -0.556021 6.397275
v 0.913404 -0.637979 6.382838
v 0.520203 -1.518532 6.744469
v 0.349940 -1.436575 6.758904
v 0.349940 -1.436575 6.758904
v 0.520203 -1.518532 6.744469
v 0.359779 -1.678915 7.006845
v 0.913404 -0.637979 6.382838
v 1.034142 -0.631957 6.528782
v 0.640943 -1.512510 6.890412
v 0.520203 -1.518532 6.744469
v 0.520203 -1.518532 6.744469
v 0.640943 -1.512510 6.890412
v 0.359779 -1.678915 7.006845
v 1.034142 -0.631957 6.528782
v 0.984623 -0.543979 6.689161
v 0.591420 -1.424532 7.050789
v 0.640943 -1.512510 6.890412
v 0.640943 -1.512510 6.890412
v 0.591420 -1.424532 7.050789
v 0.359779 -1.678915 7.006845
v 0.984623 -0.543979 6.689161
v 0.814362 -0.462021 6.703598
v 0.421161 -1.342575 7.065226
v 0.591420 -1.424532 7.050789
v 0.591420 -1.424532 7.050789
v 0.421161 -1.342575 7.065226
v 0.359779 -1.678915 7.006845
v 0.797406 -0.586306 6.757699
v 0.643193 -0.577929 6.590705
v 0.774224 -1.934841 6.401636
v 0.928439 -1.943218 6.568631
v 0.928439 -1.943218 6.568631
v 0.774224 -1.934841 6.401636
v 1.031872 -2.289630 6.300823
v 0.643193 -0.577929 6.590705
v 0.709668 -0.541624 6.376223
v 0.840701 -1.898535 6.187155
v 0.774224 -1.934841 6.401636
v 0.774224 -1.934841 6.401636
v 0.840701 -1.898535 6.187155
v 1.031872 -2.289630 6.300823
v 0.709668 -0.541624 6.376223
v 0.930359 -0.513694 6.328738
v 1.061391 -1.870606 6.139668
v 0.840701 -1.898535 6.187155
v 0.840701 -1.898535 6.187155
v 1.061391 -1.870606 6.139668
v 1.031872 -2.289630 6.300823
v 0.930359 -0.513694 6.328738
v 1.084573 -0.522071 6.495731
v 1.215605 -1.878983 6.306663
v 1.061391 -1.870606 6.139668
v 1.061391 -1.870606 6.139668
v 1.215605 -1.878983 6.306663
v 1.031872 -2.289630 6.300823
v 1.084573 -0.522071 6.495731
v 1.018097 -0.558376 6.710213
v 1.149129 -1.915289 6.521143
v 1.215605 -1.878983 6.306663
v 1.215605 -1.878983 6.306663
v 1.149129 -1.915289 6.521143
v 1.031872 -2.289630 6.300823
v 1.018097 -0.558376 6.710213
v 0.797406 -0.586306 6.757699
v 0.928439 -1.943218 6.568631
v 1.149129 -1.915289 6.521143
v 1.149129 -1.915289 6.521143
v 0.928439 -1.943218 6.568631
v 1.031872 -2.289630 6.300823
v 0.821766 -0.507641 6.679449
v 0.737012 -0.474587 6.561759
v 0.250030 -1.321603 6.674567
v 0.334786 -1.354656 6.792259
v 0.334786 -1.354656 6.792259
v 0.250030 -1.321603 6.674567
v 0.239549 -1.635915 6.687847
v 0.737012 -0.474587 6.561759
v 0.779128 -0.516946 6.425526
v 0.292148 -1.363961 6.538336
v 0.250030 -1.321603 6.674567
v 0.250030 -1.321603 6.674567
v 0.292148 -1.363961 6.538336
v 0.239549 -1.635915 6.687847
v 0.779128 -0.516946 6.425526
v 0.906000 -0.592359 6.406988
v 0.419020 -1.439373 6.519798
v 0.292148 -1.363961 6.538336
v 0.292148 -1.363961 6.538336
v 0.419020 -1.439373 6.519798
v 0.239549 -1.635915 6.687847
v 0.906000 -0.592359 6.406988
v 0.990754 -0.625413 6.524677
v 0.503774 -1.472427 6.637488
v 0.419020 -1.439373 6.519798
v 0.419020 -1.439373 6.519798
v 0.503774 -1.472427 6.637488
v 0.239549 -1.635915 6.687847
v 0.990754 -0.625413 6.524677
v 0.948638 -0.583054 6.660910
v 0.461658 -1.430068 6.773721
v 0.503774 -1.472427 6.637488
v 0.503774 -1.472427 6.637488
v 0.461658 -1.430068 6.773721
v 0.239549 -1.635915 6.687847
v 0.948638 -0.583054 6.660910
v 0.821766 -0.507641 6.679449
v 0.334786 -1.354656 6.792259
v 0.461658 -1.430068 6.773721
v 0.461658 -1.430068 6.773721
v 0.334786 -1.354656 6.792259
v 0.239549 -1.635915 6.687847
v -6.491241 -0.627884 -2.564519
v -6.264391 -0.560321 -2.890008
v -5.692207 -3.350307 -3.070352
v -5.919057 -3.417870 -2.744863
v -5.919057 -3.417870 -2.744863
v -5.692207 -3.350307 -3.070352
v -5.364966 -4.126904 -2.754675
v -6.264391 -0.560321 -2.890008
v -5.871685 -0.482437 -2.848954
v -5.299501 -3.272422 -3.029298
v -5.692207 -3.350307 -3.070352
v -5.692207 -3.350307 -3.070352
v -5.299501 -3.272422 -3.029298
v -5.364966 -4.126904 -2.754675
v -5.871685 -0.482437 -2.848954
v -5.705828 -0.472116 -2.482410
v -5.133645 -3.262101 -2.662755
v -5.299501 -3.272422 -3.029298
v -5.299501 -3.272422 -3.029298
v -5.133645 -3.262101 -2.662755
v -5.364966 -4.126904 -2.754675
v -5.705828 -0.472116 -2.482410
v -5.932678 -0.539679 -2.156921
v -5.360495 -3.329664 -2.337265
v -5.133645 -3.262101 -2.662755
v -5.133645 -3.262101 -2.662755
v -5.360495 -3.329664 -2.337265
v -5.364966 -4.126904 -2.754675
v -5.932678 -0.539679 -2.156921
v -6.325385 -0.617563 -2.197976
v -5.753201 -3.407548 -2.378320
v -5.360495 -3.329664 -2.337265
v -5.360495 -3.329664 -2.337265
v -5.753201 -3.407548 -2.378320
v -5.364966 -4.126904 -2.754675
v -6.325385 -0.617563 -2.197976
v -6.491241 -0.627884 -2.564519
v -5.919057 -3.417870 -2.744863
v -5.753201 -3.407548 -2.378320
v -5.753201 -3.407548 -2.378320
v -5.919057 -3.417870 -2.744863
v -5.364966 -4.126904 -2.754675
v -6.243219 -0.663800 -2.545630
v -6.168587 -0.579016 -2.692656
v -5.326005 -1.616983 -2.863493
v -5.400639 -1.701767 -2.716464
v -5.400639 -1.701767 -2.716464
v -5.326005 -1.616983 -2.863493
v -5.018305 -1.880727 -2.742484
v -6.168587 -0.579016 -2.692656
v -6.023903 -0.465216 -2.670491
v -5.181321 -1.503183 -2.841328
v -5.326005 -1.616983 -2.863493
v -5.326005 -1.616983 -2.863493
v -5.181321 -1.503183 -2.841328
v -5.018305 -1.880727 -2.742484
v -6.023903 -0.465216 -2.670491
v -5.953850 -0.436200 -2.501300
v -5.111271 -1.474167 -2.672134
v -5.181321 -1.503183 -2.841328
v -5.181321 -1.503183 -2.841328
v -5.111271 -1.474167 -2.672134
v -5.018305 -1.880727 -2.742484
v -5.953850 -0.436200 -2.501300
v -6.028482 -0.520984 -2.354273
v -5.185903 -1.558948 -2.525108
v -5.111271 -1.474167 -2.672134
v -5.111271 -1.474167 -2.672134
v -5.185903 -1.558948 -2.525108
v -5.018305 -1.880727 -2.742484
v -6.028482 -0.520984 -2.354273
v -6.173166 -0.634784 -2.376438
v -5.330587 -1.672747 -2.547273
v -5.185903 -1.558948 -2.525108
v -5.185903 -1.558948 -2.525108
v -5.330587 -1.672747 -2.547273
v -5.018305 -1.880727 -2.742484
v -6.173166 -0.634784 -2.376438
v -6.243219 -0.663800 -2.545630
v -5.400639 -1.701767 -2.716464
v -5.330587 -1.672747 -2.547273
v -5.330587 -1.672747 -2.547273
v -5.400639 -1.701767 -2.716464
v -5.018305 -1.880727 -2.742484
v -6.398365 -0.498727 -2.545650
v -6.212316 -0.416124 -2.772765
v -6.376191 -1.622284 -3.345682
v -6.562241 -1.704886 -3.118567
v -6.562241 -1.704886 -3.118567
v -6.376191 -1.622284 -3.345682
v -6.308632 -2.096360 -3.257973
v -6.212316 -0.416124 -2.772765
v -5.912484 -0.467401 -2.750580
v -6.076360 -1.673560 -3.323497
v -6.376191 -1.622284 -3.345682
v -6.376191 -1.622284 -3.345682
v -6.076360 -1.673560 -3.323497
v -6.308632 -2.096360 -3.257973
v -5.912484 -0.467401 -2.750580
v -5.798704 -0.601273 -2.501280
v -5.962580 -1.807432 -3.074197
v -6.076360 -1.673560 -3.323497
v -6.076360 -1.673560 -3.323497
v -5.962580 -1.807432 -3.074197
v -6.308632 -2.096360 -3.257973
v -5.798704 -0.601273 -2.501280
v -5.984754 -0.683876 -2.274164
v -6.148629 -1.890035 -2.847081
v -5.962580 -1.807432 -3.074197
v -5.962580 -1.807432 -3.074197
v -6.148629 -1.890035 -2.847081
v -6.308632 -2.096360 -3.257973
v -5.984754 -0.683876 -2.274164
v -6.284585 -0.632599 -2.296349
v -6.448460 -1.838758 -2.869266
v -6.148629 -1.890035 -2.847081
v -6.148629 -1.890035 -2.847081
v -6.448460 -1.838758 -2.869266
v -6.308632 -2.096360 -3.257973
v -6.284585 -0.632599 -2.296349
v -6.398365 -0.498727 -2.545650
v -6.562241 -1.704886 -3.118567
v -6.448460 -1.838758 -2.869266
v -6.448460 -1.838758 -2.869266
v -6.562241 -1.704886 -3.118567
v -6.308632 -2.096360 -3.257973
v -6.338445 -0.601750 -2.548890
v -6.175008 -0.691932 -2.710249
v -6.074943 -1.400099 -2.213104
v -6.238380 -1.309916 -2.051745
v -6.238380 -1.309916 -2.051745
v -6.074943 -1.400099 -2.213104
v -5.970245 -1.457905 -1.886102
v -6.175008 -0.691932 -2.710249
v -5.935097 -0.640183 -2.684824
v -5.835032 -1.348349 -2.187678
v -6.074943 -1.400099 -2.213104
v -6.074943 -1.400099 -2.213104
v -5.835032 -1.348349 -2.187678
v -5.970245 -1.457905 -1.886102
v -5.935097 -0.640183 -2.684824
v -5.858624 -0.498250 -2.498039
v -5.758559 -1.206417 -2.000894
v -5.835032 -1.348349 -2.187678
v -5.835032 -1.348349 -2.187678
v -5.758559 -1.206417 -2.000894
v -5.970245 -1.457905 -1.886102
v -5.858624 -0.498250 -2.498039
v -6.022061 -0.408068 -2.336680
v -5.921996 -1.116234 -1.839535
v -5.758559 -1.206417 -2.000894
v -5.758559 -1.206417 -2.000894
v -5.921996 -1.116234 -1.839535
v -5.970245 -1.457905 -1.886102
v -6.022061 -0.408068 -2.336680
v -6.261972 -0.459817 -2.362106
v -6.161907 -1.167984 -1.864960
v -5.921996 -1.116234 -1.839535
v -5.921996 -1.116234 -1.839535
v -6.161907 -1.167984 -1.864960
v -5.970245 -1.457905 -1.886102
v -6.261972 -0.459817 -2.362106
v -6.338445 -0.601750 -2.548890
v -6.238380 -1.309916 -2.051745
v -6.161907 -1.167984 -1.864960
v -6.161907 -1.167984 -1.864960
v -6.238380 -1.309916 -2.051745
v -5.970245 -1.457905 -1.886102
v -6.376101 -0.510139 -2.544631
v -6.229855 -0.601636 -2.766714
v -6.508180 -2.271643 -2.261958
v -6.654431 -2.180147 -2.039876
v -6.654431 -2.180147 -2.039876
v -6.508180 -2.271643 -2.261958
v -6.455368 -2.691040 -1.876342
v -6.229855 -0.601636 -2.766714
v -5.952287 -0.641497 -2.745544
v -6.230613 -2.311508 -2.240791
v -6.508180 -2.271643 -2.261958
v -6.508180 -2.271643 -2.261958
v -6.230613 -2.311508 -2.240791
v -6.455368 -2.691040 -1.876342
v -5.952287 -0.641497 -2.745544
v -5.820969 -0.589861 -2.502298
v -6.099298 -2.259873 -1.997543
v -6.230613 -2.311508 -2.240791
v -6.230613 -2.311508 -2.240791
v -6.099298 -2.259873 -1.997543
v -6.455368 -2.691040 -1.876342
v -5.820969 -0.589861 -2.502298
v -5.967214 -0.498364 -2.280216
v -6.245543 -2.168375 -1.775460
v -6.099298 -2.259873 -1.997543
v -6.099298 -2.259873 -1.997543
v -6.245543 -2.168375 -1.775460
v -6.455368 -2.691040 -1.876342
v -5.967214 -0.498364 -2.280216
v -6.244782 -0.458503 -2.301385
v -6.523112 -2.128511 -1.796630
v -6.245543 -2.168375 -1.775460
v -6.245543 -2.168375 -1.775460
v -6.523112 -2.128511 -1.796630
v -6.455368 -2.691040 -1.876342
v -6.244782 -0.458503 -2.301385
v -6.376101 -0.510139 -2.544631
v -6.654431 -2.180147 -2.039876
v -6.523112 -2.128511 -1.796630
v -6.523112 -2.128511 -1.796630
v -6.654431 -2.180147 -2.039876
v -6.455368 -2.691040 -1.876342
v -6.268619 -0.664177 -2.547900
v -6.200019 -0.546780 -2.703058
v -5.311545 -1.758185 -3.226846
v -5.380149 -1.875587 -3.071688
v -5.380149 -1.875587 -3.071688
v -5.311545 -1.758185 -3.226846
v -4.959468 -2.103089 -3.194988
v -6.200019 -0.546780 -2.703058
v -6.029933 -0.432599 -2.678620
v -5.141461 -1.644008 -3.202411
v -5.311545 -1.758185 -3.226846
v -5.311545 -1.758185 -3.226846
v -5.141461 -1.644008 -3.202411
v -4.959468 -2.103089 -3.194988
v -6.029933 -0.432599 -2.678620
v -5.928450 -0.435823 -2.499030
v -5.039979 -1.647229 -3.022820
v -5.141461 -1.644008 -3.202411
v -5.141461 -1.644008 -3.202411
v -5.039979 -1.647229 -3.022820
v -4.959468 -2.103089 -3.194988
v -5.928450 -0.435823 -2.499030
v -5.997050 -0.553220 -2.343871
v -5.108578 -1.764630 -2.867661
v -5.039979 -1.647229 -3.022820
v -5.039979 -1.647229 -3.022820
v -5.108578 -1.764630 -2.867661
v -4.959468 -2.103089 -3.194988
v -5.997050 -0.553220 -2.343871
v -6.167136 -0.667401 -2.368309
v -5.278665 -1.878811 -2.892094
v -5.108578 -1.764630 -2.867661
v -5.108578 -1.764630 -2.867661
v -5.278665 -1.878811 -2.892094
v -4.959468 -2.103089 -3.194988
v -6.167136 -0.667401 -2.368309
v -6.268619 -0.664177 -2.547900
v -5.380149 -1.875587 -3.071688
v -5.278665 -1.878811 -2.892094
v -5.278665 -1.878811 -2.892094
v -5.380149 -1.875587 -3.071688
v -4.959468 -2.103089 -3.194988
vn -0.0228 -0.9997 -0.0105
vn 0.0715 -0.9428 0.3256
vn -0.0336 -0.9897 -0.1390
vn 0.2149 -0.9471 -0.2384
vn 0.2622 -0.9477 -0.1817
vn 0.1166 -0.6558 0.7459
vn -0.3300 -0.9115 0.2455
vn -0.5782 -0.1065 -0.8089
vn 0.2720 -0.7681 -0.5796
vn 0.5764 -0.8133 0.0796
vn 0.0614 -0.6131 0.7876
vn -0.9208 0.1406 -0.3639
vn -0.5249 0.0241 -0.8508
vn 0.9015 -0.2133 -0.3765
vn 0.4608 -0.1680 0.8714
vn -0.2587 0.9221 0.2876
vn -0.2842 0.9562 -0.0695
vn -0.0571 0.9372 -0.3442
vn 0.5173 0.8558 -0.0044
vn 0.1830 0.8747 0.4487
vn -0.0003 0.9772 0.2121
vn 0.1807 0.9304 0.3190
vn 0.5284 0.8398 0.1247
vn -0.0190 0.9997 -0.0167
vn 0.0906 0.9884 -0.1217
vn 0.0537 0.9466 -0.3180
vn -0.3252 0.9412 -0.0918
vn -0.2906 0.9566 -0.0200
vn -0.3142 0.9491 -0.0220
vn -0.4195 0.9054 0.0653
vn -0.2174 0.9736 0.0692
vn -0.2905 0.9236 0.2501
vn -0.2339 0.9241 0.3023
vn -0.2277 0.9318 0.2827
vn 0.0329 0.8581 0.5124
vn 0.7192 -0.3698 0.5883
vn 0.4526 -0.0555 0.8900
vn 0.4627 0.8790 0.1154
vn 0.9170 0.2924 -0.2713
vn 0.9115 0.2393 -0.3345
vn 0.1657 0.8520 -0.4967
vn -0.0942 0.6491 -0.7548
vn -0.5326 0.1121 -0.8389
vn -0.6600 0.2590 -0.7052
vn -0.9308 0.0912 -0.3541
vn -0.9222 0.1165 -0.3687
vn -0.6318 0.7060 0.3199
vn -0.4750 0.4915 0.7299
vn 0.0155 -0.0787 0.9968
vn 0.0832 0.0122 0.9965
vn 0.7439 0.5437 -0.3885
vn 0.8525 -0.1218 -0.5083
vn 0.8825 -0.0740 -0.4645
vn -0.0263 0.5952 -0.8032
vn 0.0753 -0.6218 -0.7796
vn 0.1179 -0.5877 -0.8005
vn -0.8118 -0.1536 -0.5634
vn -0.8348 0.2137 -0.5073
vn -0.8989 0.0675 -0.4330
vn -0.6217 0.3497 0.7009
vn -0.3262 -0.8872 0.3264
vn -0.2067 -0.9191 0.3356
vn 0.5641 -0.5615 0.6053
vn 0.6042 -0.0145 0.7967
vn 0.5573 0.0325 0.8297
vn 0.4785 -0.8765 0.0521
vn 0.3267 -0.9266 -0.1862
vn 0.4077 -0.8301 -0.3803
vn 0.2585 -0.8030 -0.5370
vn 0.3074 -0.7757 -0.5511
vn 0.1151 -0.6379 -0.7615
vn -0.2570 -0.7209 -0.6436
vn -0.2386 -0.9402 -0.2432
vn -0.2234 -0.9418 -0.2513
vn 0.3759 -0.9017 0.2135
vn 0.1865 -0.9672 0.1727
vn 0.1335 -0.9906 0.0281
vn -0.1899 -0.9747 0.1182
vn -0.1717 -0.9775 0.1225
vn -0.1530 -0.9510 0.2688
vn 0.9832 -0.0946 -0.1558
vn 0.6761 0.7217 0.1484
vn 0.3876 0.2183 -0.8956
vn -0.3346 -0.9011 0.2757
vn -0.5956 0.3129 -0.7398
vn 0.2291 -0.9554 0.1864
vn 0.4514 -0.8302 -0.3271
vn -0.3876 -0.2183 0.8956
vn 0.1099 -0.6508 -0.7512
vn -0.4538 -0.5966 -0.6619
vn -0.9559 -0.2746 0.1041
vn 0.4678 0.8813 -0.0669
vn -0.3894 -0.1189 0.9134
vn 0.0735 0.7729 -0.6302
vn 0.5665 0.1557 0.8092
vn -0.5920 0.5818 -0.5577
vn -0.8631 0.4990 0.0781
vn 0.3894 0.1189 -0.9134
vn 0.3894 0.1189 -0.9133
vn -0.4687 0.6074 0.6414
vn -0.5665 -0.1557 -0.8092
vn 0.1967 0.7985 0.5689
vn 0.9569 0.2861 -0.0507
vn -0.4308 -0.8238 -0.3685
vn -0.3144 -0.5603 0.7663
vn -0.0266 -0.9963 0.0817
vn 0.6425 -0.2742 0.7156
vn -0.5754 0.8163 -0.0498
vn 0.7733 -0.4638 -0.4324
vn 0.3144 0.5603 -0.7663
vn 0.3690 -0.2913 -0.8826
vn 0.2330 0.4713 0.8507
vn -0.9433 0.2660 0.1986
vn 0.9076 0.4165 -0.0538
vn -0.3433 -0.0384 0.9384
vn -0.4539 -0.6465 0.6131
vn 0.6000 -0.3043 0.7398
vn -0.2592 0.8476 -0.4630
vn 0.9433 -0.2660 -0.1986
vn 0.5188 -0.8186 -0.2465
vn 0.3433 0.0384 -0.9384
vn -0.0651 0.5886 0.8058
vn 0.6480 0.3875 0.6557
vn -0.9629 0.1982 0.1829
vn -0.7281 -0.6800 -0.0862
vn 0.3702 0.1252 -0.9205
vn 0.4018 0.8581 -0.3198
vn -0.5927 0.3234 -0.7376
vn -0.1284 0.9672 -0.2192
vn 0.9629 -0.1982 -0.1829
vn 0.3322 -0.8983 -0.2876
vn -0.0059 0.7202 0.6937
vn 0.5927 -0.3234 0.7376
vn -0.5243 -0.6111 -0.5930
vn -0.9894 -0.0738 0.1251
vn -0.4855 -0.8736 -0.0325
vn -0.3797 -0.1326 0.9156
vn -0.1558 -0.9054 0.3949
vn 0.6097 -0.0588 0.7904
vn 0.3792 -0.8655 0.3272
vn 0.5845 -0.7938 -0.1679
vn 0.3797 0.1326 -0.9156
vn 0.2548 -0.7620 -0.5953
vn -0.6097 0.0588 -0.7904
vn -0.2802 -0.8019 -0.5276
vn 0.9777 0.1781 -0.1109
vn -0.4358 -0.8987 0.0486
vn 0.3912 0.0900 -0.9159
vn -0.0888 -0.8466 0.5248
vn -0.5866 -0.0882 -0.8051
vn 0.4896 -0.7412 0.4592
vn 0.9777 0.1781 -0.1108
vn -0.7210 0.6880 0.0826
vn -0.3912 -0.0900 0.9159
vn 0.3740 -0.7402 -0.5588
vn 0.5866 0.0882 0.8051
vn -0.2044 -0.8455 -0.4933
vn 0.9943 -0.0221 -0.1046
vn -0.7109 -0.6075 -0.3544
vn 0.4332 0.4788 -0.7636
vn 0.3426 0.9362 -0.0781
vn -0.5611 0.5008 -0.6590
vn -0.3099 0.9507 -0.0095
vn 0.5942 -0.6365 -0.4917
vn -0.4332 -0.4788 0.7636
vn -0.2260 0.3078 0.9242
vn 0.5611 -0.5008 0.6590
vn 0.4266 0.2933 0.8556
vn -0.8492 0.0869 0.5208
vn 0.7017 -0.3590 -0.6153
vn -0.7866 0.4695 -0.4010
vn -0.6424 0.7216 -0.2582
vn -0.0626 -0.3826 0.9218
vn 0.1624 0.6392 -0.7517
vn -0.9078 -0.1943 0.3717
vn 0.7866 -0.4695 0.4010
vn -0.8485 0.1683 -0.5018
vn 0.0626 0.3826 -0.9218
vn -0.0437 0.0859 -0.9953
vn -0.8764 -0.2223 0.4272
vn 0.8517 -0.0929 -0.5158
vn -0.8509 0.1246 -0.5104
vn -0.8509 0.1246 -0.5103
vn -0.8275 0.4211 -0.3713
vn -0.0255 -0.3469 0.9376
vn -0.0016 -0.6314 0.7755
vn -0.8067 -0.5135 0.2926
vn 0.7825 0.1853 0.5944
vn 0.0255 0.3469 -0.9376
vn -0.0467 -0.0250 0.9986
vn -0.8575 -0.2959 0.4210
vn -0.8906 0.1622 0.4249
vn 0.8046 0.1685 0.5695
vn 0.8433 -0.2762 0.4611
vn 0.0529 0.1274 -0.9904
vn 0.0763 -0.5409 0.8376
vn -0.8574 -0.2959 0.4210
vn 0.6434 0.6916 -0.3282
vn 0.5961 0.5776 0.5577
vn 0.1709 -0.3129 -0.9343
vn 0.8476 0.1521 -0.5083
vn 0.8963 -0.2103 -0.3903
vn -0.8057 -0.3625 -0.4684
vn -0.8575 0.0155 -0.5143
vn 0.0419 -0.2103 -0.9767
vn 0.0724 -0.1564 0.9850
vn -0.8476 -0.1521 0.5083
vn 0.6738 0.4922 -0.5512
vn 0.6350 0.6870 0.3534
vn -0.1501 0.5461 0.8242
vn -0.8285 0.1643 0.5354
vn 0.7816 -0.5767 -0.2379
vn 0.8873 0.3061 0.3451
vn -0.8327 0.1677 -0.5278
vn 0.0588 0.4704 0.8805
vn 0.1122 -0.0248 0.9934
vn -0.8284 0.1643 0.5354
vn 0.6593 0.2910 -0.6933
vn -0.7104 -0.7000 -0.0724
vn -0.0588 -0.4704 -0.8805
vn -0.0100 0.8429 0.5380
vn 0.7666 -0.4828 -0.4233
vn 0.6424 -0.7399 -0.1995
vn -0.9098 -0.0475 -0.4123
vn -0.7762 0.2445 -0.5812
vn 0.1432 0.5303 0.8356
vn 0.0600 0.2065 0.9766
vn -0.7666 0.4828 0.4233
vn 0.7899 -0.1622 -0.5914
vn 0.9098 0.0475 0.4123
vn 0.9237 0.3333 0.1892
vn -0.1432 -0.5303 -0.8356
vn -0.2075 -0.7843 -0.5847
vn 0.6967 -0.6353 -0.3333
vn 0.5063 -0.8389 -0.1996
vn 0.7815 -0.2335 0.5785
vn 0.5871 -0.4563 0.6686
vn 0.0848 0.4018 0.9118
vn -0.0763 0.1486 0.9860
vn 0.8205 -0.3709 -0.4351
vn -0.7815 0.2335 -0.5785
vn 0.9012 0.0117 0.4331
vn -0.0848 -0.4018 -0.9118
vn -0.2379 -0.6166 -0.7505
vn -0.6873 0.6178 0.3820
vn 0.4185 -0.8499 -0.3203
vn 0.6534 -0.4560 0.6042
vn -0.3868 0.6986 -0.6019
vn -0.0339 0.1617 0.9863
vn -0.0339 0.1617 0.9862
vn -0.2559 -0.1210 0.9591
vn -0.8668 0.3054 0.3942
vn -0.6534 0.4560 -0.6042
vn -0.8351 0.1541 -0.5280
vn 0.0339 -0.1617 -0.9862
vn -0.1925 -0.4235 -0.8852
vn 0.7844 -0.3418 -0.5176
vn 0.4982 -0.6506 -0.5732
vn 0.6860 -0.5711 0.4508
vn 0.4086 -0.8592 0.3078
vn 0.0984 0.2293 -0.9684
vn -0.3050 -0.5482 0.7787
vn -0.9291 -0.0286 0.3686
vn -0.6860 0.5711 -0.4508
vn 0.8396 -0.1800 0.5124
vn 0.1260 0.1310 0.9833
vn -0.8528 0.1994 0.4827
vn 0.6588 -0.6476 -0.3830
vn -0.8502 0.1152 -0.5138
vn 0.6565 -0.5738 0.4897
vn 0.0027 -0.0842 -0.9964
vn 0.0026 -0.0842 -0.9964
vn 0.0904 0.3992 -0.9124
vn 0.8528 -0.1994 -0.4827
vn -0.8350 -0.2982 0.4625
vn 0.8502 -0.1152 0.5138
vn 0.8501 -0.1152 0.5138
vn -0.8327 -0.3720 -0.4102
vn -0.0027 0.0842 0.9964
vn 0.0858 0.5466 0.8330
vn -0.7234 0.2409 0.6470
vn 0.6970 0.1608 -0.6988
vn -0.9552 0.0016 -0.2958
vn 0.9097 0.3804 0.1664
vn -0.2318 -0.2393 -0.9429
vn 0.2459 0.6014 0.7602
vn 0.7234 -0.2409 -0.6470
vn -0.6307 0.6028 0.4887
vn 0.9552 -0.0016 0.2958
vn -0.8434 0.3832 -0.3765
vn 0.2318 0.2393 0.9429
vn -0.1796 0.1622 -0.9703
vn -0.6227 0.6780 0.3907
vn -0.7550 0.3188 0.5730
vn -0.8630 0.2097 -0.4596
vn 0.9737 0.1074 0.2008
vn 0.2403 0.4683 0.8503
vn -0.4070 -0.7245 -0.5564
vn 0.6227 -0.6780 -0.3907
vn 0.3785 -0.9153 -0.1381
vn 0.8630 -0.2097 0.4596
vn 0.5972 -0.4891 0.6358
vn 0.0304 0.1279 0.9913
vn -0.6696 0.5177 0.5326
vn 0.7708 -0.0302 -0.6364
vn 0.8865 -0.2313 0.4006
vn 0.9597 0.2191 0.1761
vn 0.2170 0.2864 0.9332
vn 0.3767 0.6699 0.6398
vn 0.6696 -0.5177 -0.5326
vn 0.3952 -0.8713 -0.2910
vn -0.8865 0.2313 -0.4007
vn -0.8865 0.2313 -0.4006
vn -0.5841 0.6220 -0.5215
vn -0.2170 -0.2864 -0.9332
vn 0.0011 -0.1712 0.9852
vn 0.7289 0.1630 -0.6649
vn 0.6069 0.5916 -0.5308
vn 0.9516 0.0496 0.3033
vn 0.8055 0.4904 0.3327
vn -0.2227 0.1134 -0.9683
vn 0.1555 0.3450 0.9256
vn -0.7289 -0.1630 0.6649
vn 0.6931 -0.3008 -0.6551
vn -0.8917 0.4019 -0.2083
vn 0.2227 -0.1134 0.9683
vn -0.2417 0.5473 -0.8013
vn 0.6559 -0.4571 -0.6007
vn -0.8034 0.0519 0.5931
vn 0.8214 -0.4210 0.3848
vn -0.9535 0.0191 -0.3007
vn 0.1655 0.0361 0.9856
vn -0.3586 -0.3955 -0.8456
vn -0.6559 0.4571 0.6007
vn 0.3863 -0.7773 -0.4965
vn 0.5364 -0.7446 0.3973
vn -0.0585 -0.3300 0.9422
vn -0.8013 -0.1265 -0.5847
vn 0.6556 0.5046 0.5617
vn 0.0875 0.0821 -0.9928
vn -0.1600 0.3131 0.9361
vn 0.8888 0.2087 -0.4080
vn -0.8953 0.1970 0.3996
vn 0.8013 0.1265 0.5847
vn -0.8150 0.2724 -0.5115
vn -0.0875 -0.0821 0.9928
vn 0.0006 0.4638 -0.8859
vn -0.8888 -0.2087 0.4080
vn 0.7359 0.5800 -0.3493
vn -0.6687 -0.4447 -0.5959
vn 0.3727 0.7093 0.5983
vn -0.0143 -0.1737 0.9847
vn 0.2564 -0.1397 -0.9564
vn -0.6829 -0.6184 0.3888
vn -0.6830 -0.6184 0.3888
vn 0.8724 0.2700 -0.4075
vn 0.6687 0.4447 0.5959
vn -0.8592 -0.1100 -0.4996
vn -0.2301 0.4596 -0.8578
vn -0.3859 -0.8693 0.3089
vn -0.7830 0.3505 -0.5139
vn 0.7122 0.2245 0.6651
vn -0.1368 -0.4098 0.9019
vn 0.0427 -0.1759 -0.9835
vn -0.9198 -0.0593 0.3879
vn 0.6853 -0.4635 -0.5617
vn 0.7830 -0.3505 0.5139
vn -0.5730 0.7999 -0.1785
vn 0.1819 0.8485 -0.4969
vn 0.8245 0.5609 -0.0751
vn 0.7403 0.4532 0.4966
vn 0.4832 0.8755 0.0001
vn 0.2035 -0.5431 -0.8146
vn 0.2289 -0.9434 -0.2401
vn -0.9438 0.0899 0.3181
vn 0.7875 -0.6014 0.1346
vn -0.7403 -0.4532 -0.4966
vn -0.6340 0.1916 -0.7492
vn -0.2035 0.5431 0.8146
vn -0.0781 -0.1238 0.9892
vn 0.9438 -0.0899 -0.3181
vn -0.6367 -0.4657 0.6146
vn -0.8395 -0.0242 -0.5429
vn -0.8234 -0.4368 -0.3623
vn 0.0307 -0.2939 -0.9554
vn 0.0416 0.6791 0.7329
vn 0.8701 -0.2697 -0.4125
vn 0.7126 -0.6574 -0.2451
vn 0.8395 0.0242 0.5429
vn -0.6850 0.3934 -0.6132
vn 0.0967 0.1511 -0.9838
vn 0.8509 0.1728 -0.4961
vn -0.7600 -0.3105 -0.5710
vn 0.4995 0.5701 0.6523
vn -0.0920 0.3376 -0.9368
vn -0.1211 -0.0320 0.9921
vn -0.6680 -0.6481 0.3658
vn -0.8272 -0.3204 0.4617
vn -0.9127 -0.0068 -0.4087
vn 0.0920 -0.3376 0.9368
vn 0.2921 -0.5953 0.7486
vn 0.4140 0.8838 -0.2181
vn 0.0306 -0.2939 -0.9554
vt 0.500000 0.653000
vt 0.586758 0.653000
vt 0.465784 0.653000
vt 0.647682 0.653000
vt 0.676777 0.653000
vt 0.379389 0.653000
vt 0.467734 0.653000
vt 0.588925 0.653000
vt 0.691310 0.653000
vt 0.433795 0.653000
vt 0.552870 0.653000
vt 0.320472 0.653000
vt 0.350248 0.653000
vt 0.327891 0.653000
vt 0.444281 0.653000
vt 0.372241 0.653000
vt 0.363512 0.653000
vt 0.652429 0.653000
vt 0.557962 0.653000
vt 0.648857 0.653000
vt 0.639877 0.653000
vt 0.391593 0.653000
vt 0.308331 0.653000
vt 0.660801 0.653000
vt 0.564580 0.653000
vt 0.665147 0.653000
vt 0.531173 0.653000
vt 0.354236 0.653000
vt 0.439477 0.653000
vt 0.426503 0.653000
vt 0.352637 0.653000
vt 0.320878 0.653000
vt 0.412056 0.653000
vt 0.556321 0.653000
vt 0.441433 0.653000
vt 0.537108 0.653000
vt 0.703784 0.653000
vt 0.654739 0.653000
vt 0.616301 0.653000
vt 0.166667 0.653000
vt 0.000000 0.653000
vt 0.083333 0.653000
vt 2.166667 2.653000
vt 2.333333 2.653000
vt 0.250000 0.653000
vt 0.333333 0.653000
vt 0.416667 0.653000
vt 2.500000 2.653000
vt 2.666667 2.653000
vt 0.583333 0.653000
vt 0.666667 0.653000
vt 0.833333 0.653000
vt 0.750000 0.653000
vt 2.833333 2.653000
vt 3.000000 2.653000
vt 0.916667 0.653000
vt 1.000000 0.653000
vt 0.000000 0.944037
vt 0.166667 0.944037
vt 0.083333 0.944037
vt 2.166667 2.944036
vt 2.333333 2.944036
vt 0.250000 0.944037
vt 0.333333 0.944037
vt 0.500000 0.944037
vt 0.416667 0.944037
vt 2.666667 2.944036
vt 2.500000 2.944036
vt 0.666667 0.944037
vt 0.583333 0.944037
vt 0.833333 0.944037
vt 0.750000 0.944037
vt 3.000000 2.944036
vt 2.833333 2.944036
vt 1.000000 0.944037
vt 0.916667 0.944037
vt 0.166667 0.852178
vt 0.000000 0.852178
vt 0.083333 0.852178
vt 2.333333 2.852178
vt 2.166667 2.852178
vt 0.250000 0.852178
vt 0.333333 0.852178
vt 0.500000 0.852178
vt 0.416667 0.852178
vt 2.666667 2.852178
vt 2.500000 2.852178
vt 0.583333 0.852178
vt 0.666667 0.852178
vt 0.833333 0.852178
vt 0.750000 0.852178
vt 3.000000 2.852178
vt 2.833333 2.852178
vt 0.916667 0.852178
vt 1.000000 0.852178
vt 0.166667 0.140029
vt 0.000000 0.140029
vt 0.083333 0.140029
vt 2.333333 2.140029
vt 2.166667 2.140029
vt 0.250000 0.140029
vt 0.333333 0.140029
vt 0.500000 0.140029
vt 0.416667 0.140029
vt 2.666667 2.140029
vt 2.500000 2.140029
vt 0.583333 0.140029
vt 0.666667 0.140029
vt 0.833333 0.140029
vt 0.750000 0.140029
vt 3.000000 2.140029
vt 2.833333 2.140029
vt 0.916667 0.140029
vt 1.000000 0.140029
s 1
f 1/1/1 14/2/1 13/3/1
f 2/4/2 14/2/2 16/5/2
f 1/1/3 13/3/3 18/6/3
f 1/1/4 18/6/4 20/7/4
f 1/1/5 20/7/5 17/8/5
f 2/4/6 16/5/6 23/9/6
f 3/10/7 15/11/7 25/1/7
f 4/12/8 19/13/8 27/14/8
f 5/15/9 21/16/9 29/17/9
f 6/18/10 22/19/10 31/20/10
f 2/4/11 23/9/11 26/21/11
f 3/10/12 25/1/12 28/22/12
f 4/12/13 27/14/13 30/23/13
f 5/15/14 29/17/14 32/1/14
f 6/18/15 31/20/15 24/24/15
f 7/25/16 33/26/16 38/27/16
f 8/28/17 34/29/17 40/30/17
f 9/31/18 35/32/18 41/33/18
f 10/34/19 36/35/19 42/36/19
f 11/37/20 37/38/20 39/39/20
f 39/39/21 42/36/21 12/1/21
f 39/39/22 37/38/22 42/36/22
f 37/38/23 10/34/23 42/36/23
f 42/36/24 41/33/24 12/1/24
f 42/36/25 36/35/25 41/33/25
f 36/35/26 9/31/26 41/33/26
f 41/33/27 40/30/27 12/1/27
f 41/33/28 35/32/28 40/30/28
f 35/32/29 8/28/29 40/30/29
f 40/30/30 38/27/30 12/1/30
f 40/30/31 34/29/31 38/27/31
f 34/29/32 7/25/32 38/27/32
f 38/27/33 39/39/33 12/1/33
f 38/27/34 33/26/34 39/39/34
f 33/26/35 11/37/35 39/39/35
f 24/24/36 37/38/36 11/37/36
f 24/24/37 31/20/37 37/38/37
f 31/20/38 10/34/38 37/38/38
f 32/1/39 36/35/39 10/34/39
f 32/1/40 29/17/40 36/35/40
f 29/17/41 9/31/41 36/35/41
f 30/23/42 35/32/42 9/31/42
f 30/23/43 27/14/43 35/32/43
f 27/14/44 8/28/44 35/32/44
f 28/22/45 34/29/45 8/28/45
f 28/22/46 25/1/46 34/29/46
f 25/1/47 7/25/47 34/29/47
f 26/21/48 33/26/48 7/25/48
f 26/21/49 23/9/49 33/26/49
f 23/9/50 11/37/50 33/26/50
f 31/20/51 32/1/51 10/34/51
f 31/20/52 22/19/52 32/1/52
f 22/19/53 5/15/53 32/1/53
f 29/17/54 30/23/54 9/31/54
f 29/17/55 21/16/55 30/23/55
f 21/16/56 4/12/56 30/23/56
f 27/14/57 28/22/57 8/28/57
f 27/14/58 19/13/58 28/22/58
f 19/13/59 3/10/59 28/22/59
f 25/1/60 26/21/60 7/25/60
f 25/1/61 15/11/61 26/21/61
f 15/11/62 2/4/62 26/21/62
f 23/9/63 24/24/63 11/37/63
f 23/9/64 16/5/64 24/24/64
f 16/5/65 6/18/65 24/24/65
f 17/8/66 22/19/66 6/18/66
f 17/8/67 20/7/67 22/19/67
f 20/7/68 5/15/68 22/19/68
f 20/7/69 21/16/69 5/15/69
f 20/7/70 18/6/70 21/16/70
f 18/6/71 4/12/71 21/16/71
f 18/6/72 19/13/72 4/12/72
f 18/6/73 13/3/73 19/13/73
f 13/3/74 3/10/74 19/13/74
f 16/5/75 17/8/75 6/18/75
f 16/5/76 14/2/76 17/8/76
f 14/2/77 1/1/77 17/8/77
f 13/3/78 15/11/78 3/10/78
f 13/3/79 14/2/79 15/11/79
f 14/2/80 2/4/80 15/11/80
f 44/40/81 46/41/81 43/41/81
f 47/41/82 48/40/82 49/42/82
f 50/43/83 52/44/83 53/43/83
f 54/40/84 56/45/84 55/46/84
f 58/1/85 60/46/85 57/46/85
f 61/46/86 63/47/86 62/1/86
f 64/48/81 66/49/81 65/49/81
f 68/1/87 70/50/87 69/51/87
f 72/52/88 74/51/88 71/51/88
f 75/51/89 77/53/89 76/52/89
f 81/54/85 79/55/85 78/54/85
f 82/52/90 84/56/90 83/57/90
f 88/41/91 86/40/91 85/41/91
f 89/41/92 90/40/92 91/42/92
f 95/43/93 93/44/93 92/43/93
f 96/40/94 97/46/94 98/45/94
f 102/46/95 100/1/95 99/46/95
f 103/46/96 104/1/96 105/47/96
f 106/48/91 108/49/91 109/48/91
f 110/1/97 111/51/97 112/50/97
f 116/51/98 114/52/99 113/51/99
f 117/51/100 118/52/100 119/53/100
f 123/54/101 121/55/101 120/54/101
f 124/52/102 125/57/102 126/56/102
f 127/41/103 129/40/103 130/41/103
f 131/41/104 133/42/104 132/40/104
f 134/43/105 136/44/105 135/44/105
f 138/40/106 140/45/106 139/46/106
f 141/46/107 143/1/107 142/1/107
f 145/46/108 146/1/108 147/47/108
f 151/48/103 149/49/103 148/48/103
f 152/1/109 154/50/109 153/51/109
f 155/51/110 157/52/110 156/52/110
f 159/51/111 161/53/111 160/52/111
f 163/55/107 165/54/107 162/54/107
f 166/52/112 167/57/112 168/56/112
f 169/41/113 171/40/113 170/40/113
f 173/41/114 174/40/114 175/42/114
f 179/43/115 177/44/115 176/43/115
f 180/40/116 182/45/116 181/46/116
f 186/46/117 184/1/117 183/46/117
f 187/46/118 188/1/118 189/47/118
f 193/48/119 191/49/119 190/48/119
f 194/1/120 196/50/120 195/51/120
f 200/51/121 198/52/121 197/51/121
f 201/51/122 202/52/122 203/53/122
f 204/54/117 206/55/117 207/54/117
f 208/52/123 209/57/123 210/56/123
f 214/41/124 212/40/124 211/41/124
f 215/41/125 217/42/125 216/40/125
f 218/43/126 220/44/126 221/43/126
f 222/40/127 223/46/127 224/45/127
f 226/1/128 228/46/128 225/46/128
f 229/46/129 230/1/129 231/47/129
f 232/48/130 234/49/130 233/49/130
f 236/1/131 238/50/131 237/51/131
f 239/51/126 241/52/126 240/52/126
f 243/51/132 244/52/132 245/53/132
f 247/55/133 249/54/133 246/54/133
f 250/52/134 252/56/134 251/57/134
f 256/41/135 254/40/135 253/41/135
f 257/41/136 259/42/136 258/40/136
f 263/43/137 261/44/137 260/43/137
f 264/40/138 266/45/138 265/46/138
f 270/46/139 268/1/139 267/46/139
f 271/46/140 273/47/140 272/1/140
f 274/48/135 276/49/135 277/48/135
f 278/1/141 280/50/141 279/51/141
f 284/51/142 282/52/142 281/51/142
f 285/51/143 287/53/143 286/52/143
f 288/54/144 290/55/144 289/55/144
f 292/52/145 294/56/145 293/57/145
f 296/40/146 298/41/146 295/41/146
f 299/41/147 301/42/147 300/40/147
f 302/43/148 304/44/148 305/43/148
f 306/40/149 308/45/149 307/46/149
f 310/1/150 312/46/150 309/46/150
f 313/46/151 315/47/151 314/1/151
f 319/48/152 317/49/152 316/48/152
f 320/1/153 321/51/153 322/50/153
f 324/52/154 326/51/154 323/51/154
f 327/51/155 329/53/155 328/52/155
f 331/55/156 333/54/156 330/54/156
f 334/52/157 336/56/157 335/57/157
f 338/40/158 340/41/158 337/41/158
f 341/41/159 343/42/159 342/40/159
f 345/44/160 347/43/160 344/43/160
f 348/40/161 349/46/161 350/45/161
f 351/46/162 353/1/162 354/46/162
f 355/46/163 356/1/163 357/47/163
f 358/48/158 360/49/158 359/49/158
f 362/1/164 364/50/164 363/51/164
f 365/51/165 367/52/165 368/51/165
f 369/51/166 370/52/166 371/53/166
f 372/54/167 374/55/167 375/54/167
f 376/52/168 377/57/168 378/56/168
f 44/40/81 45/40/81 46/41/81
f 50/43/83 51/44/83 52/44/83
f 58/1/85 59/1/85 60/46/85
f 64/48/81 67/48/81 66/49/81
f 72/52/88 73/52/88 74/51/88
f 81/54/85 80/55/85 79/55/85
f 88/41/91 87/40/91 86/40/91
f 95/43/93 94/44/93 93/44/93
f 102/46/95 101/1/95 100/1/95
f 106/48/91 107/49/91 108/49/91
f 116/51/98 115/52/98 114/52/99
f 123/54/101 122/55/101 121/55/101
f 127/41/103 128/40/103 129/40/103
f 134/43/105 137/43/105 136/44/105
f 141/46/107 144/46/107 143/1/107
f 151/48/103 150/49/103 149/49/103
f 155/51/110 158/51/110 157/52/110
f 163/55/107 164/55/107 165/54/107
f 169/41/113 172/41/113 171/40/113
f 179/43/115 178/44/115 177/44/115
f 186/46/117 185/1/117 184/1/117
f 193/48/119 192/49/119 191/49/119
f 200/51/121 199/52/121 198/52/121
f 204/54/117 205/55/117 206/55/117
f 214/41/124 213/40/124 212/40/124
f 218/43/126 219/44/126 220/44/126
f 226/1/128 227/1/128 228/46/128
f 232/48/130 235/48/130 234/49/130
f 239/51/126 242/51/126 241/52/126
f 247/55/133 248/55/133 249/54/133
f 256/41/135 255/40/135 254/40/135
f 263/43/137 262/44/137 261/44/137
f 270/46/139 269/1/139 268/1/139
f 274/48/135 275/49/135 276/49/135
f 284/51/142 283/52/142 282/52/142
f 288/54/144 291/54/144 290/55/144
f 296/40/146 297/40/146 298/41/146
f 302/43/148 303/44/148 304/44/148
f 310/1/150 311/1/150 312/46/150
f 319/48/152 318/49/146 317/49/152
f 324/52/154 325/52/154 326/51/154
f 331/55/156 332/55/156 333/54/156
f 338/40/158 339/40/158 340/41/158
f 345/44/160 346/44/160 347/43/160
f 351/46/162 352/1/162 353/1/162
f 358/48/158 361/48/158 360/49/158
f 365/51/165 366/52/165 367/52/165
f 372/54/167 373/55/167 374/55/167
f 382/58/169 380/59/169 379/58/169
f 383/58/170 384/59/170 385/60/170
f 386/61/171 388/62/171 387/62/171
f 390/59/172 392/63/172 391/64/172
f 393/64/173 395/65/173 396/64/173
f 397/64/174 399/66/174 398/65/174
f 401/67/169 403/68/169 400/68/169
f 404/65/175 405/69/175 406/70/175
f 410/69/176 408/71/176 407/69/176
f 411/69/177 412/71/177 413/72/177
f 415/73/178 417/74/178 414/74/178
f 418/71/179 419/75/179 420/76/179
f 421/58/180 423/59/180 422/59/180
f 425/58/181 426/59/181 427/60/181
f 431/61/182 429/62/183 428/61/183
f 432/59/184 434/63/184 433/64/184
f 436/65/185 438/64/185 435/64/185
f 439/64/186 440/65/186 441/66/186
f 442/68/180 444/67/180 445/68/180
f 446/65/187 447/69/187 448/70/187
f 449/69/182 451/71/183 452/69/183
f 453/69/188 455/72/188 454/71/188
f 456/74/189 458/73/189 459/74/189
f 460/71/190 462/76/190 461/75/190
f 466/58/191 464/59/191 463/58/191
f 467/58/192 469/60/192 468/59/192
f 471/62/193 473/61/193 470/61/193
f 474/59/194 475/64/194 476/63/194
f 480/64/195 478/65/195 477/64/195
f 481/64/196 482/65/196 483/66/196
f 484/68/191 486/67/197 487/68/197
f 488/65/198 490/70/198 489/69/198
f 494/69/193 492/71/193 491/69/193
f 495/69/199 497/72/199 496/71/199
f 499/73/195 501/74/195 498/74/195
f 502/71/200 503/75/200 504/76/200
f 506/59/201 508/58/201 505/58/201
f 509/58/202 510/59/202 511/60/202
f 515/61/203 513/62/203 512/61/203
f 516/59/204 518/63/204 517/64/204
f 522/64/205 520/65/205 519/64/205
f 523/64/206 524/65/206 525/66/206
f 527/67/207 529/68/207 526/68/207
f 530/65/208 532/70/208 531/69/208
f 533/69/203 535/71/203 536/69/203
f 537/69/209 539/72/209 538/71/209
f 541/73/205 543/74/205 540/74/205
f 544/71/210 546/76/210 545/75/210
f 550/58/211 548/59/211 547/58/211
f 551/58/212 552/59/212 553/60/212
f 555/62/213 557/61/213 554/61/213
f 558/59/214 560/63/214 559/64/214
f 562/65/215 564/64/215 561/64/215
f 565/64/216 566/65/216 567/66/216
f 568/68/211 570/67/211 571/68/217
f 572/65/218 574/70/218 573/69/218
f 575/69/213 577/71/213 576/71/213
f 579/69/219 580/71/219 581/72/219
f 583/73/220 585/74/220 582/74/220
f 586/71/221 588/76/221 587/75/221
f 590/59/222 592/58/222 589/58/222
f 593/58/223 594/59/223 595/60/223
f 599/61/224 597/62/224 596/61/224
f 600/59/225 602/63/225 601/64/225
f 603/64/226 605/65/226 606/64/226
f 607/64/227 608/65/227 609/66/227
f 611/67/228 613/68/228 610/68/228
f 614/65/229 616/70/229 615/69/229
f 617/69/230 619/71/230 618/71/230
f 621/69/231 623/72/231 622/71/231
f 625/73/232 627/74/232 624/74/232
f 628/71/233 629/75/233 630/76/233
f 632/59/234 634/58/234 631/58/234
f 635/58/235 636/59/235 637/60/235
f 638/61/236 640/62/236 641/61/236
f 642/59/237 643/64/237 644/63/237
f 646/65/238 648/64/238 645/64/238
f 649/64/239 650/65/239 651/66/239
f 655/68/234 653/67/234 652/68/234
f 656/65/240 658/70/240 657/69/240
f 660/71/241 662/69/241 659/69/241
f 663/69/242 665/72/242 664/71/242
f 666/74/243 668/73/243 669/74/243
f 670/71/244 671/75/244 672/76/244
f 673/58/245 675/59/245 674/59/245
f 677/58/246 678/59/246 679/60/246
f 680/61/247 682/62/247 683/61/247
f 684/59/248 686/63/248 685/64/248
f 688/65/249 690/64/250 687/64/249
f 691/64/251 692/65/251 693/66/251
f 694/68/245 696/67/245 697/68/245
f 698/65/252 699/69/252 700/70/252
f 702/71/253 704/69/253 701/69/253
f 705/69/254 706/71/254 707/72/254
f 708/74/255 710/73/255 711/74/255
f 712/71/256 713/75/256 714/76/256
f 716/59/257 718/58/257 715/58/257
f 719/58/258 720/59/258 721/60/258
f 723/62/259 725/61/259 722/61/259
f 726/59/260 727/64/260 728/63/260
f 732/64/261 730/65/261 729/64/261
f 733/64/262 734/65/262 735/66/262
f 739/68/257 737/67/257 736/68/257
f 740/65/263 741/69/263 742/70/263
f 744/71/264 746/69/264 743/69/264
f 747/69/265 749/72/265 748/71/265
f 751/73/261 753/74/261 750/74/261
f 754/71/266 756/76/266 755/75/266
f 760/58/267 758/59/267 757/58/267
f 761/58/268 762/59/268 763/60/268
f 767/61/269 765/62/269 764/61/269
f 768/59/270 769/64/270 770/63/270
f 774/64/271 772/65/272 771/64/272
f 775/64/273 777/66/273 776/65/273
f 781/68/274 779/67/274 778/68/274
f 782/65/275 783/69/275 784/70/275
f 788/69/276 786/71/276 785/69/277
f 789/69/278 790/71/278 791/72/278
f 795/74/279 793/73/279 792/74/279
f 796/71/280 798/76/280 797/75/280
f 382/58/169 381/59/169 380/59/169
f 386/61/171 389/61/171 388/62/171
f 393/64/173 394/65/173 395/65/173
f 401/67/169 402/67/169 403/68/169
f 410/69/176 409/71/176 408/71/176
f 415/73/178 416/73/178 417/74/178
f 421/58/180 424/58/180 423/59/180
f 431/61/182 430/62/182 429/62/183
f 436/65/185 437/65/185 438/64/185
f 442/68/180 443/67/180 444/67/180
f 449/69/182 450/71/182 451/71/183
f 456/74/189 457/73/189 458/73/189
f 466/58/191 465/59/191 464/59/191
f 471/62/193 472/62/193 473/61/193
f 480/64/195 479/65/195 478/65/195
f 484/68/191 485/67/191 486/67/197
f 494/69/193 493/71/193 492/71/193
f 499/73/195 500/73/195 501/74/195
f 506/59/201 507/59/201 508/58/201
f 515/61/203 514/62/203 513/62/203
f 522/64/205 521/65/205 520/65/205
f 527/67/207 528/67/207 529/68/207
f 533/69/203 534/71/203 535/71/203
f 541/73/205 542/73/205 543/74/205
f 550/58/211 549/59/211 548/59/211
f 555/62/213 556/62/213 557/61/213
f 562/65/215 563/65/215 564/64/215
f 568/68/211 569/67/211 570/67/211
f 575/69/213 578/69/213 577/71/213
f 583/73/220 584/73/220 585/74/220
f 590/59/222 591/59/222 592/58/222
f 599/61/224 598/62/224 597/62/224
f 603/64/226 604/65/226 605/65/226
f 611/67/228 612/67/228 613/68/228
f 617/69/230 620/69/230 619/71/230
f 625/73/232 626/73/232 627/74/232
f 632/59/234 633/59/234 634/58/234
f 638/61/236 639/62/236 640/62/236
f 646/65/238 647/65/238 648/64/238
f 655/68/234 654/67/234 653/67/234
f 660/71/241 661/71/241 662/69/241
f 666/74/243 667/73/243 668/73/243
f 673/58/245 676/58/245 675/59/245
f 680/61/247 681/62/247 682/62/247
f 688/65/249 689/65/250 690/64/250
f 694/68/245 695/67/245 696/67/245
f 702/71/253 703/71/253 704/69/253
f 708/74/255 709/73/255 710/73/255
f 716/59/257 717/59/257 718/58/257
f 723/62/259 724/62/259 725/61/259
f 732/64/261 731/65/261 730/65/261
f 739/68/257 738/67/257 737/67/257
f 744/71/264 745/71/264 746/69/264
f 751/73/261 752/73/261 753/74/261
f 760/58/267 759/59/267 758/59/267
f 767/61/269 766/62/269 765/62/269
f 774/64/271 773/65/271 772/65/272
f 781/68/274 780/67/274 779/67/274
f 788/69/276 787/71/276 786/71/276
f 795/74/279 794/73/279 793/73/279
f 800/77/281 802/78/281 799/78/281
f 803/78/282 805/79/282 804/77/282
f 807/80/283 809/81/283 806/81/283
f 810/77/284 812/82/284 811/83/284
f 814/84/285 816/83/285 813/83/285
f 817/83/286 819/85/286 818/84/286
f 821/86/287 823/87/287 820/87/287
f 824/84/288 826/88/288 825/89/288
f 828/90/289 830/89/289 827/89/289
f 831/89/290 833/91/290 832/90/290
f 835/92/291 837/93/291 834/93/291
f 838/90/292 840/94/292 839/95/292
f 842/77/293 844/78/293 841/78/293
f 845/78/294 846/77/294 847/79/294
f 848/81/295 850/80/295 851/81/295
f 852/77/296 854/82/296 853/83/296
f 858/83/297 856/84/297 855/83/297
f 859/83/298 860/84/298 861/85/298
f 862/87/299 864/86/299 865/87/299
f 866/84/300 867/89/300 868/88/300
f 870/90/301 872/89/301 869/89/301
f 873/89/302 874/90/302 875/91/302
f 876/93/297 878/92/297 879/93/297
f 880/90/303 881/95/303 882/94/303
f 884/77/304 886/78/304 883/78/304
f 887/78/305 889/79/305 888/77/305
f 893/81/306 891/80/306 890/81/306
f 894/77/307 896/82/307 895/83/307
f 900/83/308 898/84/308 897/83/308
f 901/83/309 903/85/309 902/84/309
f 904/87/310 906/86/310 907/87/310
f 908/84/311 909/89/311 910/88/311
f 914/89/312 912/90/313 911/89/313
f 915/89/314 917/91/314 916/90/314
f 921/93/315 919/92/315 918/93/315
f 922/90/316 923/95/316 924/94/316
f 928/78/317 926/77/317 925/78/317
f 929/78/318 931/79/318 930/77/318
f 935/81/319 933/80/319 932/81/319
f 936/77/320 938/82/320 937/83/320
f 940/84/321 942/83/321 939/83/321
f 943/83/322 945/85/322 944/84/322
f 946/87/323 948/86/323 947/86/323
f 950/84/324 951/89/324 952/88/324
f 953/89/319 955/90/319 956/89/319
f 957/89/325 959/91/325 958/90/325
f 961/92/326 963/93/326 960/93/326
f 964/90/327 966/94/327 965/95/327
f 970/78/328 968/77/328 967/78/328
f 971/78/329 972/77/329 973/79/329
f 974/81/330 976/80/330 975/80/330
f 978/77/331 979/83/331 980/82/331
f 984/83/332 982/84/332 981/83/332
f 985/83/333 986/84/333 987/85/333
f 991/87/334 989/86/334 988/87/334
f 992/84/335 993/89/335 994/88/335
f 996/90/330 998/89/330 995/89/330
f 999/89/336 1000/90/336 1001/91/336
f 1003/92/332 1005/93/332 1002/93/332
f 1006/90/337 1007/95/337 1008/94/337
f 800/77/281 801/77/281 802/78/281
f 807/80/283 808/80/283 809/81/283
f 814/84/285 815/84/285 816/83/285
f 821/86/287 822/86/287 823/87/287
f 828/90/289 829/90/289 830/89/289
f 835/92/291 836/92/291 837/93/291
f 842/77/293 843/77/293 844/78/293
f 848/81/295 849/80/295 850/80/295
f 858/83/297 857/84/297 856/84/297
f 862/87/299 863/86/299 864/86/299
f 870/90/301 871/90/301 872/89/301
f 876/93/297 877/92/297 878/92/297
f 884/77/304 885/77/304 886/78/304
f 893/81/306 892/80/306 891/80/306
f 900/83/308 899/84/308 898/84/308
f 904/87/310 905/86/310 906/86/310
f 914/89/312 913/90/312 912/90/313
f 921/93/315 920/92/315 919/92/315
f 928/78/317 927/77/317 926/77/317
f 935/81/319 934/80/319 933/80/319
f 940/84/321 941/84/321 942/83/321
f 946/87/323 949/87/323 948/86/323
f 953/89/319 954/90/319 955/90/319
f 961/92/326 962/92/326 963/93/326
f 970/78/328 969/77/328 968/77/328
f 974/81/330 977/81/330 976/80/330
f 984/83/332 983/84/332 982/84/332
f 991/87/334 990/86/334 989/86/334
f 996/90/330 997/90/330 998/89/330
f 1003/92/332 1004/92/332 1005/93/332
f 1010/96/338 1012/97/338 1009/97/338
f 1013/97/339 1015/98/339 1014/96/339
f 1017/99/340 1019/100/340 1016/100/340
f 1020/96/341 1022/101/341 1021/102/341
f 1024/103/342 1026/102/342 1023/102/342
f 1027/102/343 1029/104/343 1028/103/343
f 1031/105/344 1033/106/344 1030/106/344
f 1034/103/345 1036/107/345 1035/108/345
f 1038/109/346 1040/108/346 1037/108/346
f 1041/108/347 1043/110/347 1042/109/347
f 1045/111/348 1047/112/348 1044/112/348
f 1048/109/349 1050/113/349 1049/114/349
f 1052/96/350 1054/97/350 1051/97/350
f 1055/97/351 1057/98/351 1056/96/351
f 1061/100/352 1059/99/352 1058/100/352
f 1062/96/353 1063/102/353 1064/101/353
f 1065/102/354 1067/103/355 1066/103/354
f 1069/102/356 1070/103/356 1071/104/356
f 1073/105/357 1075/106/357 1072/106/357
f 1076/103/358 1078/107/358 1077/108/358
f 1079/108/352 1081/109/352 1082/108/352
f 1083/108/359 1085/110/359 1084/109/359
f 1087/111/354 1089/112/354 1086/112/354
f 1090/109/360 1091/114/360 1092/113/360
f 1094/96/361 1096/97/361 1093/97/361
f 1097/97/362 1099/98/362 1098/96/362
f 1100/100/363 1102/99/363 1101/99/363
f 1104/96/364 1105/102/364 1106/101/364
f 1110/102/365 1108/103/365 1107/102/365
f 1111/102/366 1112/103/366 1113/104/366
f 1115/105/367 1117/106/367 1114/106/367
f 1118/103/368 1120/107/368 1119/108/368
f 1121/108/363 1123/109/363 1124/108/363
f 1125/108/369 1127/110/369 1126/109/369
f 1129/111/365 1131/112/365 1128/112/365
f 1132/109/370 1134/113/370 1133/114/370
f 1138/97/371 1136/96/371 1135/97/371
f 1139/97/372 1141/98/372 1140/96/372
f 1143/99/373 1145/100/373 1142/100/373
f 1146/96/374 1147/102/374 1148/101/374
f 1152/102/375 1150/103/375 1149/102/375
f 1153/102/376 1154/103/376 1155/104/376
f 1159/106/377 1157/105/377 1156/106/377
f 1160/103/378 1162/107/378 1161/108/378
f 1164/109/379 1166/108/379 1163/108/379
f 1167/108/380 1168/109/380 1169/110/380
f 1173/112/381 1171/111/381 1170/112/381
f 1174/109/382 1175/114/382 1176/113/382
f 1178/96/383 1180/97/383 1177/97/383
f 1181/97/384 1182/96/384 1183/98/384
f 1185/99/385 1187/100/385 1184/100/385
f 1188/96/386 1190/101/386 1189/102/386
f 1192/103/387 1194/102/387 1191/102/387
f 1195/102/388 1196/103/388 1197/104/388
f 1199/105/389 1201/106/389 1198/106/389
f 1202/103/390 1204/107/390 1203/108/390
f 1205/108/385 1207/109/385 1206/109/385
f 1209/108/391 1211/110/391 1210/109/391
f 1215/112/387 1213/111/387 1212/112/387
f 1216/109/392 1218/113/392 1217/114/392
f 1220/96/393 1222/97/393 1219/97/393
f 1223/97/394 1225/98/394 1224/96/394
f 1226/100/395 1228/99/395 1229/100/395
f 1230/96/396 1232/101/396 1231/102/396
f 1233/102/397 1235/103/397 1234/103/397
f 1237/102/398 1239/104/398 1238/103/398
f 1243/106/393 1241/105/393 1240/106/393
f 1244/103/399 1246/107/399 1245/108/399
f 1247/108/400 1249/109/400 1250/108/400
f 1251/108/401 1252/109/401 1253/110/401
f 1255/111/397 1257/112/397 1254/112/397
f 1258/109/402 1260/113/402 1259/114/402
f 1010/96/338 1011/96/338 1012/97/338
f 1017/99/340 1018/99/340 1019/100/340
f 1024/103/342 1025/103/342 1026/102/342
f 1031/105/344 1032/105/344 1033/106/344
f 1038/109/346 1039/109/346 1040/108/346
f 1045/111/348 1046/111/348 1047/112/348
f 1052/96/350 1053/96/350 1054/97/350
f 1061/100/352 1060/99/352 1059/99/352
f 1065/102/354 1068/102/355 1067/103/355
f 1073/105/357 1074/105/357 1075/106/357
f 1079/108/352 1080/109/352 1081/109/352
f 1087/111/354 1088/111/354 1089/112/354
f 1094/96/361 1095/96/361 1096/97/361
f 1100/100/363 1103/100/363 1102/99/363
f 1110/102/365 1109/103/365 1108/103/365
f 1115/105/367 1116/105/367 1117/106/367
f 1121/108/363 1122/109/363 1123/109/363
f 1129/111/365 1130/111/365 1131/112/365
f 1138/97/371 1137/96/371 1136/96/371
f 1143/99/373 1144/99/373 1145/100/373
f 1152/102/375 1151/103/375 1150/103/375
f 1159/106/377 1158/105/377 1157/105/377
f 1164/109/379 1165/109/379 1166/108/379
f 1173/112/381 1172/111/381 1171/111/381
f 1178/96/383 1179/96/383 1180/97/383
f 1185/99/385 1186/99/403 1187/100/385
f 1192/103/387 1193/103/387 1194/102/387
f 1199/105/389 1200/105/389 1201/106/389
f 1205/108/385 1208/108/385 1207/109/385
f 1215/112/387 1214/111/387 1213/111/387
f 1220/96/393 1221/96/393 1222/97/393
f 1226/100/395 1227/99/395 1228/99/395
f 1233/102/397 1236/102/397 1235/103/397
f 1243/106/393 1242/105/393 1241/105/393
f 1247/108/400 1248/109/400 1249/109/400
f 1255/111/397 1256/111/397 1257/112/397
