# Blender 5.1.2
# www.blender.org
o st_isle_06_crystal
v 6.301892 -0.188350 -4.231339
v 6.092637 -0.205094 -4.466193
v 6.326864 3.032827 -4.905715
v 6.536121 3.049570 -4.670865
v 6.536121 3.049570 -4.670865
v 6.326864 3.032827 -4.905715
v 6.294587 3.993317 -4.734178
v 6.092637 -0.205094 -4.466193
v 5.785035 -0.174609 -4.405539
v 6.019264 3.063315 -4.845064
v 6.326864 3.032827 -4.905715
v 6.326864 3.032827 -4.905715
v 6.019264 3.063315 -4.845064
v 6.294587 3.993317 -4.734178
v 5.785035 -0.174609 -4.405539
v 5.686699 -0.127382 -4.110033
v 5.920922 3.110538 -4.549557
v 6.019264 3.063315 -4.845064
v 6.019264 3.063315 -4.845064
v 5.920922 3.110538 -4.549557
v 6.294587 3.993317 -4.734178
v 5.686699 -0.127382 -4.110033
v 5.895954 -0.110638 -3.875179
v 6.130183 3.127282 -4.314704
v 5.920922 3.110538 -4.549557
v 5.920922 3.110538 -4.549557
v 6.130183 3.127282 -4.314704
v 6.294587 3.993317 -4.734178
v 5.895954 -0.110638 -3.875179
v 6.203556 -0.141122 -3.935833
v 6.437779 3.096798 -4.375357
v 6.130183 3.127282 -4.314704
v 6.130183 3.127282 -4.314704
v 6.437779 3.096798 -4.375357
v 6.294587 3.993317 -4.734178
v 6.203556 -0.141122 -3.935833
v 6.301892 -0.188350 -4.231339
v 6.536121 3.049570 -4.670865
v 6.437779 3.096798 -4.375357
v 6.437779 3.096798 -4.375357
v 6.536121 3.049570 -4.670865
v 6.294587 3.993317 -4.734178
v 5.905854 -0.108161 -4.125787
v 5.804502 -0.078225 -4.256385
v 6.125876 0.908778 -4.279525
v 6.227227 0.878838 -4.148927
v 6.227227 0.878838 -4.148927
v 6.125876 0.908778 -4.279525
v 6.160261 1.209156 -4.129287
v 5.804502 -0.078225 -4.256385
v 5.646888 -0.026289 -4.230217
v 5.968262 0.960710 -4.253357
v 6.125876 0.908778 -4.279525
v 6.125876 0.908778 -4.279525
v 5.968262 0.960710 -4.253357
v 6.160261 1.209156 -4.129287
v 5.646888 -0.026289 -4.230217
v 5.590626 -0.004296 -4.073451
v 5.911999 0.982707 -4.096591
v 5.968262 0.960710 -4.253357
v 5.968262 0.960710 -4.253357
v 5.911999 0.982707 -4.096591
v 6.160261 1.209156 -4.129287
v 5.590626 -0.004296 -4.073451
v 5.691980 -0.034232 -3.942857
v 6.013353 0.952767 -3.965997
v 5.911999 0.982707 -4.096591
v 5.911999 0.982707 -4.096591
v 6.013353 0.952767 -3.965997
v 6.160261 1.209156 -4.129287
v 5.691980 -0.034232 -3.942857
v 5.849594 -0.086169 -3.969024
v 6.170967 0.900830 -3.992164
v 6.013353 0.952767 -3.965997
v 6.013353 0.952767 -3.965997
v 6.170967 0.900830 -3.992164
v 6.160261 1.209156 -4.129287
v 5.849594 -0.086169 -3.969024
v 5.905854 -0.108161 -4.125787
v 6.227227 0.878838 -4.148927
v 6.170967 0.900830 -3.992164
v 6.170967 0.900830 -3.992164
v 6.227227 0.878838 -4.148927
v 6.160261 1.209156 -4.129287
v 6.324743 -0.178652 -4.529746
v 6.225693 -0.142793 -4.660616
v 6.590738 0.914476 -4.647212
v 6.689792 0.878617 -4.516346
v 6.689792 0.878617 -4.516346
v 6.590738 0.914476 -4.647212
v 6.635733 1.230708 -4.486783
v 6.225693 -0.142793 -4.660616
v 6.068672 -0.088904 -4.634834
v 6.433720 0.968365 -4.621434
v 6.590738 0.914476 -4.647212
v 6.590738 0.914476 -4.647212
v 6.433720 0.968365 -4.621434
v 6.635733 1.230708 -4.486783
v 6.068672 -0.088904 -4.634834
v 6.010703 -0.070874 -4.478186
v 6.375751 0.986395 -4.464786
v 6.433720 0.968365 -4.621434
v 6.433720 0.968365 -4.621434
v 6.375751 0.986395 -4.464786
v 6.635733 1.230708 -4.486783
v 6.010703 -0.070874 -4.478186
v 6.109756 -0.106733 -4.347320
v 6.474802 0.950536 -4.333916
v 6.375751 0.986395 -4.464786
v 6.375751 0.986395 -4.464786
v 6.474802 0.950536 -4.333916
v 6.635733 1.230708 -4.486783
v 6.109756 -0.106733 -4.347320
v 6.266775 -0.160622 -4.373097
v 6.631823 0.896647 -4.359697
v 6.474802 0.950536 -4.333916
v 6.474802 0.950536 -4.333916
v 6.631823 0.896647 -4.359697
v 6.635733 1.230708 -4.486783
v 6.266775 -0.160622 -4.373097
v 6.324743 -0.178652 -4.529746
v 6.689792 0.878617 -4.516346
v 6.631823 0.896647 -4.359697
v 6.631823 0.896647 -4.359697
v 6.689792 0.878617 -4.516346
v 6.635733 1.230708 -4.486783
v -0.812070 0.069410 5.922862
v -1.070218 0.015306 5.627482
v -1.275056 2.796270 5.297118
v -1.016908 2.850374 5.592497
v -1.016908 2.850374 5.592497
v -1.275056 2.796270 5.297118
v -1.462613 3.615339 5.576456
v -1.070218 0.015306 5.627482
v -1.458148 -0.004104 5.704621
v -1.662987 2.776860 5.374256
v -1.275056 2.796270 5.297118
v -1.275056 2.796270 5.297118
v -1.662987 2.776860 5.374256
v -1.462613 3.615339 5.576456
v -1.458148 -0.004104 5.704621
v -1.587930 0.030590 6.077138
v -1.792769 2.811554 5.746774
v -1.662987 2.776860 5.374256
v -1.662987 2.776860 5.374256
v -1.792769 2.811554 5.746774
v -1.462613 3.615339 5.576456
v -1.587930 0.030590 6.077138
v -1.329782 0.084694 6.372518
v -1.534621 2.865658 6.042153
v -1.792769 2.811554 5.746774
v -1.792769 2.811554 5.746774
v -1.534621 2.865658 6.042153
v -1.462613 3.615339 5.576456
v -1.329782 0.084694 6.372518
v -0.941852 0.104104 6.295379
v -1.146690 2.885068 5.965014
v -1.534621 2.865658 6.042153
v -1.534621 2.865658 6.042153
v -1.146690 2.885068 5.965014
v -1.462613 3.615339 5.576456
v -0.941852 0.104104 6.295379
v -0.812070 0.069410 5.922862
v -1.016908 2.850374 5.592497
v -1.146690 2.885068 5.965014
v -1.146690 2.885068 5.965014
v -1.016908 2.850374 5.592497
v -1.462613 3.615339 5.576456
v -0.981924 -0.040313 5.970094
v -1.148225 -0.073194 5.803150
v -0.686933 1.281154 5.076897
v -0.520633 1.314036 5.243845
v -0.520633 1.314036 5.243845
v -0.686933 1.281154 5.076897
v -0.608601 1.786343 5.068911
v -1.148225 -0.073194 5.803150
v -1.366301 0.017119 5.833055
v -0.905009 1.371467 5.106803
v -0.686933 1.281154 5.076897
v -0.686933 1.281154 5.076897
v -0.905009 1.371467 5.106803
v -0.608601 1.786343 5.068911
v -1.366301 0.017119 5.833055
v -1.418077 0.140313 6.029906
v -0.956781 1.494661 5.303655
v -0.905009 1.371467 5.106803
v -0.905009 1.371467 5.106803
v -0.956781 1.494661 5.303655
v -0.608601 1.786343 5.068911
v -1.418077 0.140313 6.029906
v -1.251775 0.173194 6.196850
v -0.790482 1.527543 5.470602
v -0.956781 1.494661 5.303655
v -0.956781 1.494661 5.303655
v -0.790482 1.527543 5.470602
v -0.608601 1.786343 5.068911
v -1.251775 0.173194 6.196850
v -1.033699 0.082881 6.166945
v -0.572409 1.437230 5.440695
v -0.790482 1.527543 5.470602
v -0.790482 1.527543 5.470602
v -0.572409 1.437230 5.440695
v -0.608601 1.786343 5.068911
v -1.033699 0.082881 6.166945
v -0.981924 -0.040313 5.970094
v -0.520633 1.314036 5.243845
v -0.572409 1.437230 5.440695
v -0.572409 1.437230 5.440695
v -0.520633 1.314036 5.243845
v -0.608601 1.786343 5.068911
v -0.960344 0.012970 5.958863
v -1.125578 -0.049322 5.787648
v -1.029195 1.171014 5.250652
v -0.863963 1.233306 5.421870
v -0.863963 1.233306 5.421870
v -1.029195 1.171014 5.250652
v -1.076432 1.614534 5.311548
v -1.125578 -0.049322 5.787648
v -1.365233 -0.012292 5.828782
v -1.268849 1.208044 5.291787
v -1.029195 1.171014 5.250652
v -1.029195 1.171014 5.250652
v -1.268849 1.208044 5.291787
v -1.076432 1.614534 5.311548
v -1.365233 -0.012292 5.828782
v -1.439656 0.087030 6.041137
v -1.343270 1.307367 5.504144
v -1.268849 1.208044 5.291787
v -1.268849 1.208044 5.291787
v -1.343270 1.307367 5.504144
v -1.076432 1.614534 5.311548
v -1.439656 0.087030 6.041137
v -1.274422 0.149322 6.212352
v -1.178038 1.369659 5.675362
v -1.343270 1.307367 5.504144
v -1.343270 1.307367 5.504144
v -1.178038 1.369659 5.675362
v -1.076432 1.614534 5.311548
v -1.274422 0.149322 6.212352
v -1.034768 0.112292 6.171218
v -0.938384 1.332628 5.634223
v -1.178038 1.369659 5.675362
v -1.178038 1.369659 5.675362
v -0.938384 1.332628 5.634223
v -1.076432 1.614534 5.311548
v -1.034768 0.112292 6.171218
v -0.960344 0.012970 5.958863
v -0.863963 1.233306 5.421870
v -0.938384 1.332628 5.634223
v -0.938384 1.332628 5.634223
v -0.863963 1.233306 5.421870
v -1.076432 1.614534 5.311548
v -0.947687 0.187939 5.933167
v -1.128046 0.097508 5.717650
v -1.974608 1.669659 5.766433
v -1.794246 1.760091 5.981952
v -1.794246 1.760091 5.981952
v -1.974608 1.669659 5.766433
v -2.285333 2.065579 6.062543
v -1.128046 0.097508 5.717650
v -1.380362 -0.040432 5.784481
v -2.226921 1.531720 5.833265
v -1.974608 1.669659 5.766433
v -1.974608 1.669659 5.766433
v -2.226921 1.531720 5.833265
v -2.285333 2.065579 6.062543
v -1.380362 -0.040432 5.784481
v -1.452313 -0.087939 6.066833
v -2.298875 1.484212 6.115615
v -2.226921 1.531720 5.833265
v -2.226921 1.531720 5.833265
v -2.298875 1.484212 6.115615
v -2.285333 2.065579 6.062543
v -1.452313 -0.087939 6.066833
v -1.271954 0.002492 6.282350
v -2.118514 1.574644 6.331134
v -2.298875 1.484212 6.115615
v -2.298875 1.484212 6.115615
v -2.118514 1.574644 6.331134
v -2.285333 2.065579 6.062543
v -1.271954 0.002492 6.282350
v -1.019638 0.140432 6.215519
v -1.866200 1.712583 6.264302
v -2.118514 1.574644 6.331134
v -2.118514 1.574644 6.331134
v -1.866200 1.712583 6.264302
v -2.285333 2.065579 6.062543
v -1.019638 0.140432 6.215519
v -0.947687 0.187939 5.933167
v -1.794246 1.760091 5.981952
v -1.866200 1.712583 6.264302
v -1.866200 1.712583 6.264302
v -1.794246 1.760091 5.981952
v -2.285333 2.065579 6.062543
v -1.010767 0.057962 5.962572
v -1.128741 -0.037987 5.843622
v -1.308207 1.026755 5.162758
v -1.190230 1.122704 5.281709
v -1.190230 1.122704 5.281709
v -1.308207 1.026755 5.162758
v -1.430080 1.415053 5.127098
v -1.128741 -0.037987 5.843622
v -1.317976 -0.045950 5.881048
v -1.497439 1.018793 5.200186
v -1.308207 1.026755 5.162758
v -1.308207 1.026755 5.162758
v -1.497439 1.018793 5.200186
v -1.430080 1.415053 5.127098
v -1.317976 -0.045950 5.881048
v -1.389233 0.042038 6.037428
v -1.568696 1.106781 5.356565
v -1.497439 1.018793 5.200186
v -1.497439 1.018793 5.200186
v -1.568696 1.106781 5.356565
v -1.430080 1.415053 5.127098
v -1.389233 0.042038 6.037428
v -1.271260 0.137987 6.156378
v -1.450723 1.202730 5.475515
v -1.568696 1.106781 5.356565
v -1.568696 1.106781 5.356565
v -1.450723 1.202730 5.475515
v -1.430080 1.415053 5.127098
v -1.271260 0.137987 6.156378
v -1.082024 0.145950 6.118952
v -1.261487 1.210692 5.438089
v -1.450723 1.202730 5.475515
v -1.450723 1.202730 5.475515
v -1.261487 1.210692 5.438089
v -1.430080 1.415053 5.127098
v -1.082024 0.145950 6.118952
v -1.010767 0.057962 5.962572
v -1.190230 1.122704 5.281709
v -1.261487 1.210692 5.438089
v -1.261487 1.210692 5.438089
v -1.190230 1.122704 5.281709
v -1.430080 1.415053 5.127098
v 6.409096 -0.568179 2.469713
v 6.570205 -0.508743 2.142822
v 6.295010 -3.043327 1.546349
v 6.133901 -3.102763 1.873241
v 6.133901 -3.102763 1.873241
v 6.295010 -3.043327 1.546349
v 6.422606 -3.849466 1.671211
v 6.570205 -0.508743 2.142822
v 6.936528 -0.540564 2.109028
v 6.661333 -3.075148 1.512555
v 6.295010 -3.043327 1.546349
v 6.295010 -3.043327 1.546349
v 6.661333 -3.075148 1.512555
v 6.422606 -3.849466 1.671211
v 6.936528 -0.540564 2.109028
v 7.141742 -0.631821 2.402125
v 6.866547 -3.166405 1.805653
v 6.661333 -3.075148 1.512555
v 6.661333 -3.075148 1.512555
v 6.866547 -3.166405 1.805653
v 6.422606 -3.849466 1.671211
v 7.141742 -0.631821 2.402125
v 6.980633 -0.691257 2.729016
v 6.705438 -3.225841 2.132544
v 6.866547 -3.166405 1.805653
v 6.866547 -3.166405 1.805653
v 6.705438 -3.225841 2.132544
v 6.422606 -3.849466 1.671211
v 6.980633 -0.691257 2.729016
v 6.614310 -0.659436 2.762810
v 6.339115 -3.194020 2.166338
v 6.705438 -3.225841 2.132544
v 6.705438 -3.225841 2.132544
v 6.339115 -3.194020 2.166338
v 6.422606 -3.849466 1.671211
v 6.614310 -0.659436 2.762810
v 6.409096 -0.568179 2.469713
v 6.133901 -3.102763 1.873241
v 6.339115 -3.194020 2.166338
v 6.339115 -3.194020 2.166338
v 6.133901 -3.102763 1.873241
v 6.422606 -3.849466 1.671211
v 6.627583 -0.502843 2.470050
v 6.677998 -0.533367 2.299795
v 5.734926 -1.960124 2.276330
v 5.684509 -1.929600 2.446589
v 5.684509 -1.929600 2.446589
v 5.734926 -1.960124 2.276330
v 5.566353 -2.429176 2.405838
v 6.677998 -0.533367 2.299795
v 6.825834 -0.630524 2.265663
v 5.882763 -2.057281 2.242199
v 5.734926 -1.960124 2.276330
v 5.734926 -1.960124 2.276330
v 5.882763 -2.057281 2.242199
v 5.566353 -2.429176 2.405838
v 6.825834 -0.630524 2.265663
v 6.923255 -0.697157 2.401787
v 5.980186 -2.123915 2.378325
v 5.882763 -2.057281 2.242199
v 5.882763 -2.057281 2.242199
v 5.980186 -2.123915 2.378325
v 5.566353 -2.429176 2.405838
v 6.923255 -0.697157 2.401787
v 6.872840 -0.666633 2.572043
v 5.929769 -2.093390 2.548579
v 5.980186 -2.123915 2.378325
v 5.980186 -2.123915 2.378325
v 5.929769 -2.093390 2.548579
v 5.566353 -2.429176 2.405838
v 6.872840 -0.666633 2.572043
v 6.725003 -0.569476 2.606174
v 5.781930 -1.996233 2.582713
v 5.929769 -2.093390 2.548579
v 5.929769 -2.093390 2.548579
v 5.781930 -1.996233 2.582713
v 5.566353 -2.429176 2.405838
v 6.725003 -0.569476 2.606174
v 6.627583 -0.502843 2.470050
v 5.684509 -1.929600 2.446589
v 5.781930 -1.996233 2.582713
v 5.781930 -1.996233 2.582713
v 5.684509 -1.929600 2.446589
v 5.566353 -2.429176 2.405838
v 6.538763 -0.666950 2.436481
v 6.632065 -0.546631 2.243332
v 7.027580 -1.950426 1.559908
v 6.934282 -2.070745 1.753057
v 6.934282 -2.070745 1.753057
v 7.027580 -1.950426 1.559908
v 7.282493 -2.399738 1.559732
v 6.632065 -0.546631 2.243332
v 6.868719 -0.479682 2.242772
v 7.264235 -1.883476 1.559345
v 7.027580 -1.950426 1.559908
v 7.027580 -1.950426 1.559908
v 7.264235 -1.883476 1.559345
v 7.282493 -2.399738 1.559732
v 6.868719 -0.479682 2.242772
v 7.012074 -0.533050 2.435356
v 7.407589 -1.936845 1.751932
v 7.264235 -1.883476 1.559345
v 7.264235 -1.883476 1.559345
v 7.407589 -1.936845 1.751932
v 7.282493 -2.399738 1.559732
v 7.012074 -0.533050 2.435356
v 6.918772 -0.653369 2.628505
v 7.314291 -2.057163 1.945080
v 7.407589 -1.936845 1.751932
v 7.407589 -1.936845 1.751932
v 7.314291 -2.057163 1.945080
v 7.282493 -2.399738 1.559732
v 6.918772 -0.653369 2.628505
v 6.682118 -0.720318 2.629065
v 7.077635 -2.124116 1.945642
v 7.314291 -2.057163 1.945080
v 7.314291 -2.057163 1.945080
v 7.077635 -2.124116 1.945642
v 7.282493 -2.399738 1.559732
v 6.682118 -0.720318 2.629065
v 6.538763 -0.666950 2.436481
v 6.934282 -2.070745 1.753057
v 7.077635 -2.124116 1.945642
v 7.077635 -2.124116 1.945642
v 6.934282 -2.070745 1.753057
v 7.282493 -2.399738 1.559732
v 6.533123 -0.468485 2.485121
v 6.663511 -0.434579 2.239614
v 5.915356 -1.603852 1.680807
v 5.784971 -1.637755 1.926317
v 5.784971 -1.637755 1.926317
v 5.915356 -1.603852 1.680807
v 5.816249 -2.099068 1.719501
v 6.663511 -0.434579 2.239614
v 6.905802 -0.566097 2.190411
v 6.157650 -1.735367 1.631607
v 5.915356 -1.603852 1.680807
v 5.915356 -1.603852 1.680807
v 6.157650 -1.735367 1.631607
v 5.816249 -2.099068 1.719501
v 6.905802 -0.566097 2.190411
v 7.017715 -0.731515 2.386717
v 6.269557 -1.900788 1.827912
v 6.157650 -1.735367 1.631607
v 6.157650 -1.735367 1.631607
v 6.269557 -1.900788 1.827912
v 5.816249 -2.099068 1.719501
v 7.017715 -0.731515 2.386717
v 6.887327 -0.765421 2.632224
v 6.139174 -1.934694 2.073419
v 6.269557 -1.900788 1.827912
v 6.269557 -1.900788 1.827912
v 6.139174 -1.934694 2.073419
v 5.816249 -2.099068 1.719501
v 6.887327 -0.765421 2.632224
v 6.645036 -0.633903 2.681426
v 5.896879 -1.803176 2.122622
v 6.139174 -1.934694 2.073419
v 6.139174 -1.934694 2.073419
v 5.896879 -1.803176 2.122622
v 5.816249 -2.099068 1.719501
v 6.645036 -0.633903 2.681426
v 6.533123 -0.468485 2.485121
v 5.784971 -1.637755 1.926317
v 5.896879 -1.803176 2.122622
v 5.896879 -1.803176 2.122622
v 5.784971 -1.637755 1.926317
v 5.816249 -2.099068 1.719501
v 6.493938 -0.683229 2.435714
v 6.632287 -0.632897 2.181777
v 6.875843 -1.456519 2.151223
v 6.737496 -1.506851 2.405158
v 6.737496 -1.506851 2.405158
v 6.875843 -1.456519 2.151223
v 7.087670 -1.655927 2.396748
v 6.632287 -0.632897 2.181777
v 6.913768 -0.549668 2.181982
v 7.157323 -1.373291 2.151429
v 6.875843 -1.456519 2.151223
v 6.875843 -1.456519 2.151223
v 7.157323 -1.373291 2.151429
v 7.087670 -1.655927 2.396748
v 6.913768 -0.549668 2.181982
v 7.056900 -0.516771 2.436124
v 7.300455 -1.340394 2.405571
v 7.157323 -1.373291 2.151429
v 7.157323 -1.373291 2.151429
v 7.300455 -1.340394 2.405571
v 7.087670 -1.655927 2.396748
v 7.056900 -0.516771 2.436124
v 6.918550 -0.567104 2.690061
v 7.162106 -1.390726 2.659508
v 7.300455 -1.340394 2.405571
v 7.300455 -1.340394 2.405571
v 7.162106 -1.390726 2.659508
v 7.087670 -1.655927 2.396748
v 6.918550 -0.567104 2.690061
v 6.637070 -0.650332 2.689856
v 6.880625 -1.473955 2.659303
v 7.162106 -1.390726 2.659508
v 7.162106 -1.390726 2.659508
v 6.880625 -1.473955 2.659303
v 7.087670 -1.655927 2.396748
v 6.637070 -0.650332 2.689856
v 6.493938 -0.683229 2.435714
v 6.737496 -1.506851 2.405158
v 6.880625 -1.473955 2.659303
v 6.880625 -1.473955 2.659303
v 6.737496 -1.506851 2.405158
v 7.087670 -1.655927 2.396748
v 6.557101 -0.680112 2.431978
v 6.651532 -0.590341 2.239311
v 7.147779 -1.924092 1.861080
v 7.053350 -2.013862 2.053744
v 7.053350 -2.013862 2.053744
v 7.147779 -1.924092 1.861080
v 7.411635 -2.309937 1.951006
v 6.651532 -0.590341 2.239311
v 6.869849 -0.510229 2.243252
v 7.366096 -1.843980 1.865021
v 7.147779 -1.924092 1.861080
v 7.147779 -1.924092 1.861080
v 7.366096 -1.843980 1.865021
v 7.411635 -2.309937 1.951006
v 6.869849 -0.510229 2.243252
v 6.993736 -0.519889 2.439860
v 7.489987 -1.853640 2.061628
v 7.366096 -1.843980 1.865021
v 7.366096 -1.843980 1.865021
v 7.489987 -1.853640 2.061628
v 7.411635 -2.309937 1.951006
v 6.993736 -0.519889 2.439860
v 6.899306 -0.609659 2.632527
v 7.395557 -1.943411 2.254295
v 7.489987 -1.853640 2.061628
v 7.489987 -1.853640 2.061628
v 7.395557 -1.943411 2.254295
v 7.411635 -2.309937 1.951006
v 6.899306 -0.609659 2.632527
v 6.680988 -0.689771 2.628586
v 7.177239 -2.023522 2.250354
v 7.395557 -1.943411 2.254295
v 7.395557 -1.943411 2.254295
v 7.177239 -2.023522 2.250354
v 7.411635 -2.309937 1.951006
v 6.680988 -0.689771 2.628586
v 6.557101 -0.680112 2.431978
v 7.053350 -2.013862 2.053744
v 7.177239 -2.023522 2.250354
v 7.177239 -2.023522 2.250354
v 7.053350 -2.013862 2.053744
v 7.411635 -2.309937 1.951006
v 6.498168 -0.531920 2.472189
v 6.619758 -0.506699 2.212577
v 6.324168 -1.581101 1.969758
v 6.202581 -1.606324 2.229372
v 6.202581 -1.606324 2.229372
v 6.324168 -1.581101 1.969758
v 6.396459 -1.977440 2.124611
v 6.619758 -0.506699 2.212577
v 6.897004 -0.574778 2.176307
v 6.601417 -1.649181 1.933490
v 6.324168 -1.581101 1.969758
v 6.324168 -1.581101 1.969758
v 6.601417 -1.649181 1.933490
v 6.396459 -1.977440 2.124611
v 6.897004 -0.574778 2.176307
v 7.052670 -0.668080 2.399648
v 6.757080 -1.742482 2.156829
v 6.601417 -1.649181 1.933490
v 6.601417 -1.649181 1.933490
v 6.757080 -1.742482 2.156829
v 6.396459 -1.977440 2.124611
v 7.052670 -0.668080 2.399648
v 6.931080 -0.693301 2.659260
v 6.635493 -1.767705 2.416443
v 6.757080 -1.742482 2.156829
v 6.757080 -1.742482 2.156829
v 6.635493 -1.767705 2.416443
v 6.396459 -1.977440 2.124611
v 6.931080 -0.693301 2.659260
v 6.653833 -0.625222 2.695530
v 6.358244 -1.699625 2.452711
v 6.635493 -1.767705 2.416443
v 6.635493 -1.767705 2.416443
v 6.358244 -1.699625 2.452711
v 6.396459 -1.977440 2.124611
v 6.653833 -0.625222 2.695530
v 6.498168 -0.531920 2.472189
v 6.202581 -1.606324 2.229372
v 6.358244 -1.699625 2.452711
v 6.358244 -1.699625 2.452711
v 6.202581 -1.606324 2.229372
v 6.396459 -1.977440 2.124611
v 6.536552 -0.667824 2.436426
v 6.659407 -0.647566 2.221595
v 6.889427 -1.457252 2.276781
v 6.766575 -1.477510 2.491614
v 6.766575 -1.477510 2.491614
v 6.889427 -1.457252 2.276781
v 7.070314 -1.638059 2.506671
v 6.659407 -0.647566 2.221595
v 6.898270 -0.579742 2.221085
v 7.128293 -1.389428 2.276273
v 6.889427 -1.457252 2.276781
v 6.889427 -1.457252 2.276781
v 7.128293 -1.389428 2.276273
v 7.070314 -1.638059 2.506671
v 6.898270 -0.579742 2.221085
v 7.014285 -0.532176 2.435411
v 7.244303 -1.341865 2.490599
v 7.128293 -1.389428 2.276273
v 7.128293 -1.389428 2.276273
v 7.244303 -1.341865 2.490599
v 7.070314 -1.638059 2.506671
v 7.014285 -0.532176 2.435411
v 6.891431 -0.552434 2.650243
v 7.121449 -1.362123 2.705430
v 7.244303 -1.341865 2.490599
v 7.244303 -1.341865 2.490599
v 7.121449 -1.362123 2.705430
v 7.070314 -1.638059 2.506671
v 6.891431 -0.552434 2.650243
v 6.652567 -0.620258 2.650752
v 6.882587 -1.429943 2.705938
v 7.121449 -1.362123 2.705430
v 7.121449 -1.362123 2.705430
v 6.882587 -1.429943 2.705938
v 7.070314 -1.638059 2.506671
v 6.652567 -0.620258 2.650752
v 6.536552 -0.667824 2.436426
v 6.766575 -1.477510 2.491614
v 6.882587 -1.429943 2.705938
v 6.882587 -1.429943 2.705938
v 6.766575 -1.477510 2.491614
v 7.070314 -1.638059 2.506671
v -5.703039 -0.609646 4.456673
v -5.432812 -0.619704 4.375579
v -5.466437 -2.616666 4.511199
v -5.736664 -2.606609 4.592292
v -5.736664 -2.606609 4.592292
v -5.466437 -2.616666 4.511199
v -5.540386 -3.160209 4.823596
v -5.432812 -0.619704 4.375579
v -5.227050 -0.610057 4.568632
v -5.260675 -2.607020 4.704252
v -5.466437 -2.616666 4.511199
v -5.466437 -2.616666 4.511199
v -5.260675 -2.607020 4.704252
v -5.540386 -3.160209 4.823596
v -5.227050 -0.610057 4.568632
v -5.291515 -0.590354 4.842778
v -5.325140 -2.587317 4.978397
v -5.260675 -2.607020 4.704252
v -5.260675 -2.607020 4.704252
v -5.325140 -2.587317 4.978397
v -5.540386 -3.160209 4.823596
v -5.291515 -0.590354 4.842778
v -5.561742 -0.580297 4.923872
v -5.595367 -2.577259 5.059491
v -5.325140 -2.587317 4.978397
v -5.325140 -2.587317 4.978397
v -5.595367 -2.577259 5.059491
v -5.540386 -3.160209 4.823596
v -5.561742 -0.580297 4.923872
v -5.767504 -0.589943 4.730819
v -5.801129 -2.586905 4.866438
v -5.595367 -2.577259 5.059491
v -5.595367 -2.577259 5.059491
v -5.801129 -2.586905 4.866438
v -5.540386 -3.160209 4.823596
v -5.767504 -0.589943 4.730819
v -5.703039 -0.609646 4.456673
v -5.736664 -2.606609 4.592292
v -5.801129 -2.586905 4.866438
v -5.801129 -2.586905 4.866438
v -5.736664 -2.606609 4.592292
v -5.540386 -3.160209 4.823596
v -5.610378 -0.596592 4.542880
v -5.461391 -0.602636 4.498316
v -5.508341 -1.836422 4.508662
v -5.657325 -1.830380 4.553226
v -5.657325 -1.830380 4.553226
v -5.508341 -1.836422 4.508662
v -5.557466 -2.181779 4.662988
v -5.461391 -0.602636 4.498316
v -5.348292 -0.606042 4.605161
v -5.395239 -1.839831 4.615507
v -5.508341 -1.836422 4.508662
v -5.508341 -1.836422 4.508662
v -5.395239 -1.839831 4.615507
v -5.557466 -2.181779 4.662988
v -5.348292 -0.606042 4.605161
v -5.384175 -0.603408 4.756571
v -5.431125 -1.837194 4.766916
v -5.395239 -1.839831 4.615507
v -5.395239 -1.839831 4.615507
v -5.431125 -1.837194 4.766916
v -5.557466 -2.181779 4.662988
v -5.384175 -0.603408 4.756571
v -5.533163 -0.597364 4.801135
v -5.580110 -1.831153 4.811478
v -5.431125 -1.837194 4.766916
v -5.431125 -1.837194 4.766916
v -5.580110 -1.831153 4.811478
v -5.557466 -2.181779 4.662988
v -5.533163 -0.597364 4.801135
v -5.646261 -0.593958 4.694290
v -5.693209 -1.827744 4.704635
v -5.580110 -1.831153 4.811478
v -5.580110 -1.831153 4.811478
v -5.693209 -1.827744 4.704635
v -5.557466 -2.181779 4.662988
v -5.646261 -0.593958 4.694290
v -5.610378 -0.596592 4.542880
v -5.657325 -1.830380 4.553226
v -5.693209 -1.827744 4.704635
v -5.693209 -1.827744 4.704635
v -5.657325 -1.830380 4.553226
v -5.557466 -2.181779 4.662988
v -5.583215 -0.535191 4.563328
v -5.456102 -0.569172 4.521646
v -5.869855 -1.638152 4.131336
v -5.996971 -1.604170 4.173018
v -5.996971 -1.604170 4.173018
v -5.869855 -1.638152 4.131336
v -6.027731 -1.970485 4.149326
v -5.456102 -0.569172 4.521646
v -5.370163 -0.633981 4.608044
v -5.783919 -1.702959 4.217731
v -5.869855 -1.638152 4.131336
v -5.869855 -1.638152 4.131336
v -5.783919 -1.702959 4.217731
v -6.027731 -1.970485 4.149326
v -5.370163 -0.633981 4.608044
v -5.411338 -0.664810 4.736123
v -5.825093 -1.733787 4.345810
v -5.783919 -1.702959 4.217731
v -5.783919 -1.702959 4.217731
v -5.825093 -1.733787 4.345810
v -6.027731 -1.970485 4.149326
v -5.411338 -0.664810 4.736123
v -5.538451 -0.630828 4.777805
v -5.952207 -1.699806 4.387492
v -5.825093 -1.733787 4.345810
v -5.825093 -1.733787 4.345810
v -5.952207 -1.699806 4.387492
v -6.027731 -1.970485 4.149326
v -5.538451 -0.630828 4.777805
v -5.624390 -0.566019 4.691407
v -6.038145 -1.634999 4.301095
v -5.952207 -1.699806 4.387492
v -5.952207 -1.699806 4.387492
v -6.038145 -1.634999 4.301095
v -6.027731 -1.970485 4.149326
v -5.624390 -0.566019 4.691407
v -5.583215 -0.535191 4.563328
v -5.996971 -1.604170 4.173018
v -6.038145 -1.634999 4.301095
v -6.038145 -1.634999 4.301095
v -5.996971 -1.604170 4.173018
v -6.027731 -1.970485 4.149326
v -5.593801 -0.639974 4.562134
v -5.462224 -0.659043 4.531942
v -5.498678 -1.794031 5.090067
v -5.630254 -1.774961 5.120255
v -5.630254 -1.774961 5.120255
v -5.498678 -1.794031 5.090067
v -5.544013 -2.055112 5.365267
v -5.462224 -0.659043 4.531942
v -5.365701 -0.619072 4.619537
v -5.402155 -1.754059 5.177659
v -5.498678 -1.794031 5.090067
v -5.498678 -1.794031 5.090067
v -5.402155 -1.754059 5.177659
v -5.544013 -2.055112 5.365267
v -5.365701 -0.619072 4.619537
v -5.400753 -0.560026 4.737317
v -5.437207 -1.695014 5.295441
v -5.402155 -1.754059 5.177659
v -5.402155 -1.754059 5.177659
v -5.437207 -1.695014 5.295441
v -5.544013 -2.055112 5.365267
v -5.400753 -0.560026 4.737317
v -5.532329 -0.540957 4.767509
v -5.568783 -1.675944 5.325630
v -5.437207 -1.695014 5.295441
v -5.437207 -1.695014 5.295441
v -5.568783 -1.675944 5.325630
v -5.544013 -2.055112 5.365267
v -5.532329 -0.540957 4.767509
v -5.628853 -0.580928 4.679914
v -5.665307 -1.715916 5.238038
v -5.568783 -1.675944 5.325630
v -5.568783 -1.675944 5.325630
v -5.665307 -1.715916 5.238038
v -5.544013 -2.055112 5.365267
v -5.628853 -0.580928 4.679914
v -5.593801 -0.639974 4.562134
v -5.630254 -1.774961 5.120255
v -5.665307 -1.715916 5.238038
v -5.665307 -1.715916 5.238038
v -5.630254 -1.774961 5.120255
v -5.544013 -2.055112 5.365267
v -5.592741 -0.603769 4.560098
v -5.470859 -0.639012 4.527493
v -5.600645 -1.239137 4.690978
v -5.722528 -1.203895 4.723585
v -5.722528 -1.203895 4.723585
v -5.600645 -1.239137 4.690978
v -5.663669 -1.369392 4.859324
v -5.470859 -0.639012 4.527493
v -5.375394 -0.635242 4.617120
v -5.505180 -1.235368 4.780605
v -5.600645 -1.239137 4.690978
v -5.600645 -1.239137 4.690978
v -5.505180 -1.235368 4.780605
v -5.663669 -1.369392 4.859324
v -5.375394 -0.635242 4.617120
v -5.401812 -0.596231 4.739353
v -5.531599 -1.196354 4.902839
v -5.505180 -1.235368 4.780605
v -5.505180 -1.235368 4.780605
v -5.531599 -1.196354 4.902839
v -5.663669 -1.369392 4.859324
v -5.401812 -0.596231 4.739353
v -5.523695 -0.560988 4.771958
v -5.653482 -1.161114 4.935445
v -5.531599 -1.196354 4.902839
v -5.531599 -1.196354 4.902839
v -5.653482 -1.161114 4.935445
v -5.663669 -1.369392 4.859324
v -5.523695 -0.560988 4.771958
v -5.619160 -0.564758 4.682331
v -5.748947 -1.164883 4.845818
v -5.653482 -1.161114 4.935445
v -5.653482 -1.161114 4.935445
v -5.748947 -1.164883 4.845818
v -5.663669 -1.369392 4.859324
v -5.619160 -0.564758 4.682331
v -5.592741 -0.603769 4.560098
v -5.722528 -1.203895 4.723585
v -5.748947 -1.164883 4.845818
v -5.748947 -1.164883 4.845818
v -5.722528 -1.203895 4.723585
v -5.663669 -1.369392 4.859324
v -5.587212 -0.531704 4.559271
v -5.459643 -0.580379 4.511403
v -6.006107 -1.708881 4.202658
v -6.133676 -1.660205 4.250527
v -6.133676 -1.660205 4.250527
v -6.006107 -1.708881 4.202658
v -6.197872 -2.046795 4.253900
v -5.459643 -0.580379 4.511403
v -5.369709 -0.648678 4.601857
v -5.916173 -1.777179 4.293113
v -6.006107 -1.708881 4.202658
v -6.006107 -1.708881 4.202658
v -5.916173 -1.777179 4.293113
v -6.197872 -2.046795 4.253900
v -5.369709 -0.648678 4.601857
v -5.407342 -0.668296 4.740180
v -5.953806 -1.796797 4.431436
v -5.916173 -1.777179 4.293113
v -5.916173 -1.777179 4.293113
v -5.953806 -1.796797 4.431436
v -6.197872 -2.046795 4.253900
v -5.407342 -0.668296 4.740180
v -5.534910 -0.619621 4.788048
v -6.081374 -1.748122 4.479304
v -5.953806 -1.796797 4.431436
v -5.953806 -1.796797 4.431436
v -6.081374 -1.748122 4.479304
v -6.197872 -2.046795 4.253900
v -5.534910 -0.619621 4.788048
v -5.624845 -0.551322 4.697594
v -6.171309 -1.679823 4.388852
v -6.081374 -1.748122 4.479304
v -6.081374 -1.748122 4.479304
v -6.171309 -1.679823 4.388852
v -6.197872 -2.046795 4.253900
v -5.624845 -0.551322 4.697594
v -5.587212 -0.531704 4.559271
v -6.133676 -1.660205 4.250527
v -6.171309 -1.679823 4.388852
v -6.171309 -1.679823 4.388852
v -6.133676 -1.660205 4.250527
v -6.197872 -2.046795 4.253900
v -5.634669 -0.551486 4.516215
v -5.445886 -0.570995 4.461118
v -5.599914 -1.527546 4.272040
v -5.788696 -1.508039 4.327137
v -5.788696 -1.508039 4.327137
v -5.599914 -1.527546 4.272040
v -5.694746 -1.826348 4.407318
v -5.445886 -0.570995 4.461118
v -5.308494 -0.619506 4.594628
v -5.462521 -1.576060 4.405550
v -5.599914 -1.527546 4.272040
v -5.599914 -1.527546 4.272040
v -5.462521 -1.576060 4.405550
v -5.694746 -1.826348 4.407318
v -5.308494 -0.619506 4.594628
v -5.359885 -0.648514 4.783236
v -5.513912 -1.605065 4.594157
v -5.462521 -1.576060 4.405550
v -5.462521 -1.576060 4.405550
v -5.513912 -1.605065 4.594157
v -5.694746 -1.826348 4.407318
v -5.359885 -0.648514 4.783236
v -5.548667 -0.629005 4.838333
v -5.702694 -1.585559 4.649255
v -5.513912 -1.605065 4.594157
v -5.513912 -1.605065 4.594157
v -5.702694 -1.585559 4.649255
v -5.694746 -1.826348 4.407318
v -5.548667 -0.629005 4.838333
v -5.686059 -0.580494 4.704823
v -5.840084 -1.537045 4.515745
v -5.702694 -1.585559 4.649255
v -5.702694 -1.585559 4.649255
v -5.840084 -1.537045 4.515745
v -5.694746 -1.826348 4.407318
v -5.686059 -0.580494 4.704823
v -5.634669 -0.551486 4.516215
v -5.788696 -1.508039 4.327137
v -5.840084 -1.537045 4.515745
v -5.840084 -1.537045 4.515745
v -5.788696 -1.508039 4.327137
v -5.694746 -1.826348 4.407318
v -5.588378 -0.678878 4.570501
v -5.455843 -0.650586 4.521186
v -5.015229 -1.728053 5.087260
v -5.147761 -1.756343 5.136571
v -5.147761 -1.756343 5.136571
v -5.015229 -1.728053 5.087260
v -4.932385 -1.981367 5.375459
v -5.455843 -0.650586 4.521186
v -5.364742 -0.571711 4.600411
v -4.924127 -1.649175 5.166484
v -5.015229 -1.728053 5.087260
v -5.015229 -1.728053 5.087260
v -4.924127 -1.649175 5.166484
v -4.932385 -1.981367 5.375459
v -5.364742 -0.571711 4.600411
v -5.406175 -0.521122 4.728950
v -4.965558 -1.598590 5.295020
v -4.924127 -1.649175 5.166484
v -4.924127 -1.649175 5.166484
v -4.965558 -1.598590 5.295020
v -4.932385 -1.981367 5.375459
v -5.406175 -0.521122 4.728950
v -5.538710 -0.549414 4.778265
v -5.098093 -1.626879 5.344335
v -4.965558 -1.598590 5.295020
v -4.965558 -1.598590 5.295020
v -5.098093 -1.626879 5.344335
v -4.932385 -1.981367 5.375459
v -5.538710 -0.549414 4.778265
v -5.629812 -0.628289 4.699040
v -5.189195 -1.705757 5.265110
v -5.098093 -1.626879 5.344335
v -5.098093 -1.626879 5.344335
v -5.189195 -1.705757 5.265110
v -4.932385 -1.981367 5.375459
v -5.629812 -0.628289 4.699040
v -5.588378 -0.678878 4.570501
v -5.147761 -1.756343 5.136571
v -5.189195 -1.705757 5.265110
v -5.189195 -1.705757 5.265110
v -5.147761 -1.756343 5.136571
v -4.932385 -1.981367 5.375459
v -1.085500 -0.523228 -6.944156
v -0.978163 -0.366833 -6.779904
v -0.775860 -1.728418 -5.615679
v -0.883198 -1.884813 -5.779934
v -0.883198 -1.884813 -5.779934
v -0.775860 -1.728418 -5.615679
v -0.967365 -2.146581 -5.284032
v -0.978163 -0.366833 -6.779904
v -1.119390 -0.244570 -6.612372
v -0.917088 -1.606152 -5.448147
v -0.775860 -1.728418 -5.615679
v -0.775860 -1.728418 -5.615679
v -0.917088 -1.606152 -5.448147
v -0.967365 -2.146581 -5.284032
v -1.119390 -0.244570 -6.612372
v -1.367956 -0.278702 -6.609095
v -1.165653 -1.640284 -5.444870
v -0.917088 -1.606152 -5.448147
v -0.917088 -1.606152 -5.448147
v -1.165653 -1.640284 -5.444870
v -0.967365 -2.146581 -5.284032
v -1.367956 -0.278702 -6.609095
v -1.475294 -0.435097 -6.773351
v -1.272991 -1.796679 -5.609126
v -1.165653 -1.640284 -5.444870
v -1.165653 -1.640284 -5.444870
v -1.272991 -1.796679 -5.609126
v -0.967365 -2.146581 -5.284032
v -1.475294 -0.435097 -6.773351
v -1.334069 -0.557359 -6.940879
v -1.131764 -1.918941 -5.776658
v -1.272991 -1.796679 -5.609126
v -1.272991 -1.796679 -5.609126
v -1.131764 -1.918941 -5.776658
v -0.967365 -2.146581 -5.284032
v -1.334069 -0.557359 -6.940879
v -1.085500 -0.523228 -6.944156
v -0.883198 -1.884813 -5.779934
v -1.131764 -1.918941 -5.776658
v -1.131764 -1.918941 -5.776658
v -0.883198 -1.884813 -5.779934
v -0.967365 -2.146581 -5.284032
v -1.521140 -0.551091 -7.279075
v -1.468622 -0.558269 -7.109506
v -2.349790 -2.297597 -6.910247
v -2.402304 -2.290420 -7.079820
v -2.402304 -2.290420 -7.079820
v -2.349790 -2.297597 -6.910247
v -2.754271 -2.713944 -6.895674
v -1.468622 -0.558269 -7.109506
v -1.572055 -0.491212 -6.981566
v -2.453219 -2.230544 -6.782307
v -2.349790 -2.297597 -6.910247
v -2.349790 -2.297597 -6.910247
v -2.453219 -2.230544 -6.782307
v -2.754271 -2.713944 -6.895674
v -1.572055 -0.491212 -6.981566
v -1.728003 -0.416976 -7.023195
v -2.609168 -2.156308 -6.823936
v -2.453219 -2.230544 -6.782307
v -2.453219 -2.230544 -6.782307
v -2.609168 -2.156308 -6.823936
v -2.754271 -2.713944 -6.895674
v -1.728003 -0.416976 -7.023195
v -1.780518 -0.409798 -7.192764
v -2.661685 -2.149126 -6.993505
v -2.609168 -2.156308 -6.823936
v -2.609168 -2.156308 -6.823936
v -2.661685 -2.149126 -6.993505
v -2.754271 -2.713944 -6.895674
v -1.780518 -0.409798 -7.192764
v -1.677088 -0.476855 -7.320704
v -2.558252 -2.216183 -7.121445
v -2.661685 -2.149126 -6.993505
v -2.661685 -2.149126 -6.993505
v -2.558252 -2.216183 -7.121445
v -2.754271 -2.713944 -6.895674
v -1.677088 -0.476855 -7.320704
v -1.521140 -0.551091 -7.279075
v -2.402304 -2.290420 -7.079820
v -2.558252 -2.216183 -7.121445
v -2.558252 -2.216183 -7.121445
v -2.402304 -2.290420 -7.079820
v -2.754271 -2.713944 -6.895674
v -1.473682 -0.613129 -7.325716
v -1.415940 -0.630607 -7.063690
v -2.030247 -1.457343 -6.983454
v -2.087990 -1.439865 -7.245480
v -2.087990 -1.439865 -7.245480
v -2.030247 -1.457343 -6.983454
v -2.412802 -1.542969 -7.042818
v -1.415940 -0.630607 -7.063690
v -1.567486 -0.500527 -6.883662
v -2.181790 -1.327267 -6.803425
v -2.030247 -1.457343 -6.983454
v -2.030247 -1.457343 -6.983454
v -2.181790 -1.327267 -6.803425
v -2.412802 -1.542969 -7.042818
v -1.567486 -0.500527 -6.883662
v -1.776773 -0.352975 -6.965655
v -2.391081 -1.179712 -6.885418
v -2.181790 -1.327267 -6.803425
v -2.181790 -1.327267 -6.803425
v -2.391081 -1.179712 -6.885418
v -2.412802 -1.542969 -7.042818
v -1.776773 -0.352975 -6.965655
v -1.834516 -0.335497 -7.227681
v -2.448823 -1.162233 -7.147444
v -2.391081 -1.179712 -6.885418
v -2.391081 -1.179712 -6.885418
v -2.448823 -1.162233 -7.147444
v -2.412802 -1.542969 -7.042818
v -1.834516 -0.335497 -7.227681
v -1.682974 -0.465577 -7.407712
v -2.297277 -1.292313 -7.327473
v -2.448823 -1.162233 -7.147444
v -2.448823 -1.162233 -7.147444
v -2.297277 -1.292313 -7.327473
v -2.412802 -1.542969 -7.042818
v -1.682974 -0.465577 -7.407712
v -1.473682 -0.613129 -7.325716
v -2.087990 -1.439865 -7.245480
v -2.297277 -1.292313 -7.327473
v -2.297277 -1.292313 -7.327473
v -2.087990 -1.439865 -7.245480
v -2.412802 -1.542969 -7.042818
v -1.425686 -0.523902 -7.084853
v -1.332380 -0.468572 -6.874435
v -1.635779 -2.066729 -6.319646
v -1.729088 -2.122059 -6.530060
v -1.729088 -2.122059 -6.530060
v -1.635779 -2.066729 -6.319646
v -1.952917 -2.486904 -6.201694
v -1.332380 -0.468572 -6.874435
v -1.470636 -0.382655 -6.702549
v -1.774038 -1.980812 -6.147757
v -1.635779 -2.066729 -6.319646
v -1.635779 -2.066729 -6.319646
v -1.774038 -1.980812 -6.147757
v -1.952917 -2.486904 -6.201694
v -1.470636 -0.382655 -6.702549
v -1.702200 -0.352068 -6.741078
v -2.005602 -1.950225 -6.186285
v -1.774038 -1.980812 -6.147757
v -1.774038 -1.980812 -6.147757
v -2.005602 -1.950225 -6.186285
v -1.952917 -2.486904 -6.201694
v -1.702200 -0.352068 -6.741078
v -1.795509 -0.407397 -6.951492
v -2.098907 -2.005554 -6.396700
v -2.005602 -1.950225 -6.186285
v -2.005602 -1.950225 -6.186285
v -2.098907 -2.005554 -6.396700
v -1.952917 -2.486904 -6.201694
v -1.795509 -0.407397 -6.951492
v -1.657250 -0.493314 -7.123378
v -1.960652 -2.091471 -6.568588
v -2.098907 -2.005554 -6.396700
v -2.098907 -2.005554 -6.396700
v -1.960652 -2.091471 -6.568588
v -1.952917 -2.486904 -6.201694
v -1.657250 -0.493314 -7.123378
v -1.425686 -0.523902 -7.084853
v -1.729088 -2.122059 -6.530060
v -1.960652 -2.091471 -6.568588
v -1.960652 -2.091471 -6.568588
v -1.729088 -2.122059 -6.530060
v -1.952917 -2.486904 -6.201694
v -1.128659 -0.481238 -6.976569
v -1.019090 -0.383527 -6.747459
v -0.971031 -1.866041 -6.138181
v -1.080596 -1.963753 -6.367294
v -1.080596 -1.963753 -6.367294
v -0.971031 -1.866041 -6.138181
v -1.227849 -2.302936 -5.990630
v -1.019090 -0.383527 -6.747459
v -1.179898 -0.304566 -6.542643
v -1.131839 -1.787081 -5.933364
v -0.971031 -1.866041 -6.138181
v -0.971031 -1.866041 -6.138181
v -1.131839 -1.787081 -5.933364
v -1.227849 -2.302936 -5.990630
v -1.179898 -0.304566 -6.542643
v -1.450275 -0.323317 -6.566936
v -1.402213 -1.805831 -5.957658
v -1.131839 -1.787081 -5.933364
v -1.131839 -1.787081 -5.933364
v -1.402213 -1.805831 -5.957658
v -1.227849 -2.302936 -5.990630
v -1.450275 -0.323317 -6.566936
v -1.559841 -0.421027 -6.796046
v -1.511778 -1.903542 -6.186772
v -1.402213 -1.805831 -5.957658
v -1.402213 -1.805831 -5.957658
v -1.511778 -1.903542 -6.186772
v -1.227849 -2.302936 -5.990630
v -1.559841 -0.421027 -6.796046
v -1.399032 -0.499988 -7.000863
v -1.350970 -1.982503 -6.391588
v -1.511778 -1.903542 -6.186772
v -1.511778 -1.903542 -6.186772
v -1.350970 -1.982503 -6.391588
v -1.227849 -2.302936 -5.990630
v -1.399032 -0.499988 -7.000863
v -1.128659 -0.481238 -6.976569
v -1.080596 -1.963753 -6.367294
v -1.350970 -1.982503 -6.391588
v -1.350970 -1.982503 -6.391588
v -1.080596 -1.963753 -6.367294
v -1.227849 -2.302936 -5.990630
v -1.397575 -0.522201 -7.513856
v -1.331561 -0.563987 -7.358269
v -1.710266 -2.110792 -7.613019
v -1.776277 -2.069005 -7.768607
v -1.776277 -2.069005 -7.768607
v -1.710266 -2.110792 -7.613019
v -1.985037 -2.503565 -7.699336
v -1.331561 -0.563987 -7.358269
v -1.433507 -0.562271 -7.217146
v -1.812213 -2.109072 -7.471896
v -1.710266 -2.110792 -7.613019
v -1.710266 -2.110792 -7.613019
v -1.812213 -2.109072 -7.471896
v -1.985037 -2.503565 -7.699336
v -1.433507 -0.562271 -7.217146
v -1.601464 -0.518768 -7.231611
v -1.980169 -2.065569 -7.486361
v -1.812213 -2.109072 -7.471896
v -1.812213 -2.109072 -7.471896
v -1.980169 -2.065569 -7.486361
v -1.985037 -2.503565 -7.699336
v -1.601464 -0.518768 -7.231611
v -1.667474 -0.476981 -7.387199
v -2.046179 -2.023782 -7.641949
v -1.980169 -2.065569 -7.486361
v -1.980169 -2.065569 -7.486361
v -2.046179 -2.023782 -7.641949
v -1.985037 -2.503565 -7.699336
v -1.667474 -0.476981 -7.387199
v -1.565531 -0.478698 -7.528321
v -1.944233 -2.025502 -7.783072
v -2.046179 -2.023782 -7.641949
v -2.046179 -2.023782 -7.641949
v -1.944233 -2.025502 -7.783072
v -1.985037 -2.503565 -7.699336
v -1.565531 -0.478698 -7.528321
v -1.397575 -0.522201 -7.513856
v -1.776277 -2.069005 -7.768607
v -1.944233 -2.025502 -7.783072
v -1.944233 -2.025502 -7.783072
v -1.776277 -2.069005 -7.768607
v -1.985037 -2.503565 -7.699336
v -1.181022 -0.476373 -6.894102
v -1.107443 -0.388660 -6.761725
v -1.059253 -1.601420 -5.984945
v -1.132836 -1.689133 -6.117321
v -1.132836 -1.689133 -6.117321
v -1.059253 -1.601420 -5.984945
v -1.219883 -1.956820 -5.775871
v -1.107443 -0.388660 -6.761725
v -1.208080 -0.314287 -6.639364
v -1.159890 -1.527046 -5.862585
v -1.059253 -1.601420 -5.984945
v -1.059253 -1.601420 -5.984945
v -1.159890 -1.527046 -5.862585
v -1.219883 -1.956820 -5.775871
v -1.208080 -0.314287 -6.639364
v -1.382301 -0.327627 -6.649383
v -1.334111 -1.540386 -5.872603
v -1.159890 -1.527046 -5.862585
v -1.159890 -1.527046 -5.862585
v -1.334111 -1.540386 -5.872603
v -1.219883 -1.956820 -5.775871
v -1.382301 -0.327627 -6.649383
v -1.455884 -0.415340 -6.781759
v -1.407695 -1.628096 -6.004980
v -1.334111 -1.540386 -5.872603
v -1.334111 -1.540386 -5.872603
v -1.407695 -1.628096 -6.004980
v -1.219883 -1.956820 -5.775871
v -1.455884 -0.415340 -6.781759
v -1.355243 -0.489714 -6.904120
v -1.307057 -1.702470 -6.127341
v -1.407695 -1.628096 -6.004980
v -1.407695 -1.628096 -6.004980
v -1.307057 -1.702470 -6.127341
v -1.219883 -1.956820 -5.775871
v -1.355243 -0.489714 -6.904120
v -1.181022 -0.476373 -6.894102
v -1.132836 -1.689133 -6.117321
v -1.307057 -1.702470 -6.127341
v -1.307057 -1.702470 -6.127341
v -1.132836 -1.689133 -6.117321
v -1.219883 -1.956820 -5.775871
v -1.012235 -0.507079 -6.978496
v -0.908967 -0.344173 -6.803073
v -0.685434 -1.217898 -6.123271
v -0.788701 -1.380804 -6.298693
v -0.788701 -1.380804 -6.298693
v -0.685434 -1.217898 -6.123271
v -0.876473 -1.522022 -5.922132
v -0.908967 -0.344173 -6.803073
v -1.059786 -0.238957 -6.618250
v -0.836253 -1.112679 -5.938448
v -0.685434 -1.217898 -6.123271
v -0.685434 -1.217898 -6.123271
v -0.836253 -1.112679 -5.938448
v -0.876473 -1.522022 -5.922132
v -1.059786 -0.238957 -6.618250
v -1.313875 -0.296649 -6.608849
v -1.090338 -1.170371 -5.929047
v -0.836253 -1.112679 -5.938448
v -0.836253 -1.112679 -5.938448
v -1.090338 -1.170371 -5.929047
v -0.876473 -1.522022 -5.922132
v -1.313875 -0.296649 -6.608849
v -1.417142 -0.459556 -6.784271
v -1.193606 -1.333281 -6.104469
v -1.090338 -1.170371 -5.929047
v -1.090338 -1.170371 -5.929047
v -1.193606 -1.333281 -6.104469
v -0.876473 -1.522022 -5.922132
v -1.417142 -0.459556 -6.784271
v -1.266320 -0.564771 -6.969095
v -1.042787 -1.438496 -6.289292
v -1.193606 -1.333281 -6.104469
v -1.193606 -1.333281 -6.104469
v -1.042787 -1.438496 -6.289292
v -0.876473 -1.522022 -5.922132
v -1.266320 -0.564771 -6.969095
v -1.012235 -0.507079 -6.978496
v -0.788701 -1.380804 -6.298693
v -1.042787 -1.438496 -6.289292
v -1.042787 -1.438496 -6.289292
v -0.788701 -1.380804 -6.298693
v -0.876473 -1.522022 -5.922132
v -1.344160 -0.496535 -7.578184
v -1.257025 -0.596611 -7.390741
v -1.788455 -2.168491 -7.982944
v -1.875587 -2.068412 -8.170389
v -1.875587 -2.068412 -8.170389
v -1.788455 -2.168491 -7.982944
v -2.155875 -2.538201 -8.150232
v -1.257025 -0.596611 -7.390741
v -1.387424 -0.623051 -7.203549
v -1.918855 -2.194928 -7.795753
v -1.788455 -2.168491 -7.982944
v -1.788455 -2.168491 -7.982944
v -1.918855 -2.194928 -7.795753
v -2.155875 -2.538201 -8.150232
v -1.387424 -0.623051 -7.203549
v -1.604956 -0.549408 -7.203803
v -2.136387 -2.121290 -7.796010
v -1.918855 -2.194928 -7.795753
v -1.918855 -2.194928 -7.795753
v -2.136387 -2.121290 -7.796010
v -2.155875 -2.538201 -8.150232
v -1.604956 -0.549408 -7.203803
v -1.692091 -0.449332 -7.391246
v -2.223519 -2.021210 -7.983455
v -2.136387 -2.121290 -7.796010
v -2.136387 -2.121290 -7.796010
v -2.223519 -2.021210 -7.983455
v -2.155875 -2.538201 -8.150232
v -1.692091 -0.449332 -7.391246
v -1.561692 -0.422892 -7.578438
v -2.093118 -1.994773 -8.170642
v -2.223519 -2.021210 -7.983455
v -2.223519 -2.021210 -7.983455
v -2.093118 -1.994773 -8.170642
v -2.155875 -2.538201 -8.150232
v -1.561692 -0.422892 -7.578438
v -1.344160 -0.496535 -7.578184
v -1.875587 -2.068412 -8.170389
v -2.093118 -1.994773 -8.170642
v -2.093118 -1.994773 -8.170642
v -1.875587 -2.068412 -8.170389
v -2.155875 -2.538201 -8.150232
v -1.513649 -0.544720 -7.208910
v -1.447340 -0.528879 -7.029039
v -1.850401 -1.562993 -6.789379
v -1.916711 -1.578834 -6.969252
v -1.916711 -1.578834 -6.969252
v -1.850401 -1.562993 -6.789379
v -2.142008 -1.795168 -6.764292
v -1.447340 -0.528879 -7.029039
v -1.558953 -0.453542 -6.891671
v -1.962015 -1.487656 -6.652014
v -1.850401 -1.562993 -6.789379
v -1.850401 -1.562993 -6.789379
v -1.962015 -1.487656 -6.652014
v -2.142008 -1.795168 -6.764292
v -1.558953 -0.453542 -6.891671
v -1.736872 -0.394046 -6.934177
v -2.139935 -1.428157 -6.694521
v -1.962015 -1.487656 -6.652014
v -1.962015 -1.487656 -6.652014
v -2.139935 -1.428157 -6.694521
v -2.142008 -1.795168 -6.764292
v -1.736872 -0.394046 -6.934177
v -1.803182 -0.409888 -7.114051
v -2.206244 -1.443998 -6.874394
v -2.139935 -1.428157 -6.694521
v -2.139935 -1.428157 -6.694521
v -2.206244 -1.443998 -6.874394
v -2.142008 -1.795168 -6.764292
v -1.803182 -0.409888 -7.114051
v -1.691569 -0.485225 -7.251419
v -2.094631 -1.519335 -7.011763
v -2.206244 -1.443998 -6.874394
v -2.206244 -1.443998 -6.874394
v -2.094631 -1.519335 -7.011763
v -2.142008 -1.795168 -6.764292
v -1.691569 -0.485225 -7.251419
v -1.513649 -0.544720 -7.208910
v -1.916711 -1.578834 -6.969252
v -2.094631 -1.519335 -7.011763
v -2.094631 -1.519335 -7.011763
v -1.916711 -1.578834 -6.969252
v -2.142008 -1.795168 -6.764292
v -1.108898 -0.538922 -6.933734
v -0.996237 -0.375208 -6.778116
v -0.831728 -1.745246 -5.455903
v -0.944388 -1.908960 -5.611521
v -0.944388 -1.908960 -5.611521
v -0.831728 -1.745246 -5.455903
v -1.036364 -2.157624 -5.078631
v -0.996237 -0.375208 -6.778116
v -1.134614 -0.237450 -6.618157
v -0.970105 -1.607492 -5.295946
v -0.831728 -1.745246 -5.455903
v -0.831728 -1.745246 -5.455903
v -0.970105 -1.607492 -5.295946
v -1.036364 -2.157624 -5.078631
v -1.134614 -0.237450 -6.618157
v -1.385648 -0.263406 -6.613820
v -1.221138 -1.633447 -5.291605
v -0.970105 -1.607492 -5.295946
v -0.970105 -1.607492 -5.295946
v -1.221138 -1.633447 -5.291605
v -1.036364 -2.157624 -5.078631
v -1.385648 -0.263406 -6.613820
v -1.498309 -0.427119 -6.769438
v -1.333799 -1.797160 -5.447223
v -1.221138 -1.633447 -5.291605
v -1.221138 -1.633447 -5.291605
v -1.333799 -1.797160 -5.447223
v -1.036364 -2.157624 -5.078631
v -1.498309 -0.427119 -6.769438
v -1.359935 -0.564877 -6.929393
v -1.195423 -1.934915 -5.607183
v -1.333799 -1.797160 -5.447223
v -1.333799 -1.797160 -5.447223
v -1.195423 -1.934915 -5.607183
v -1.036364 -2.157624 -5.078631
v -1.359935 -0.564877 -6.929393
v -1.108898 -0.538922 -6.933734
v -0.944388 -1.908960 -5.611521
v -1.195423 -1.934915 -5.607183
v -1.195423 -1.934915 -5.607183
v -0.944388 -1.908960 -5.611521
v -1.036364 -2.157624 -5.078631
vn 0.7440 -0.1424 -0.6528
vn -0.7338 -0.1433 0.6641
vn -0.2033 -0.1172 -0.9721
vn -0.1747 0.1674 -0.9703
vn 0.9473 -0.0252 0.3193
vn -0.8883 0.3040 -0.3442
vn -0.6933 0.4165 0.5881
vn 0.2033 0.1172 0.9721
vn 0.2152 0.3923 0.8943
vn 0.9288 0.2557 0.2682
vn -0.7350 0.2541 0.6287
vn 0.7960 0.1954 -0.5729
vn 0.1550 -0.0273 0.9875
vn 0.0011 -0.4474 0.8943
vn 0.8900 -0.2814 0.3589
vn -0.6593 0.6750 -0.3313
vn 0.7350 -0.2541 -0.6287
vn -0.5205 0.6505 0.5531
vn 0.2765 0.3985 0.8745
vn 0.9347 0.1710 0.3115
vn 0.7388 -0.2472 -0.6269
vn 0.7388 -0.2471 -0.6269
vn 0.8076 0.1714 -0.5643
vn -0.1412 0.0613 -0.9881
vn -0.0085 -0.4515 0.8923
vn -0.8800 0.3084 -0.3612
vn -0.6625 0.6759 -0.3229
vn -0.5343 0.6203 0.5743
vn 0.1412 -0.0613 0.9881
vn -0.2649 -0.3402 -0.9023
vn -0.9358 -0.1157 -0.3330
vn 0.7548 -0.0223 -0.6556
vn -0.6637 -0.3731 0.6483
vn -0.1872 -0.1295 -0.9738
vn 0.2007 -0.2747 0.9403
vn -0.9420 -0.1072 -0.3182
vn 0.8934 -0.2952 0.3387
vn -0.7548 0.0223 0.6556
vn 0.7216 -0.4140 -0.5548
vn 0.1872 0.1295 0.9738
vn 0.1871 0.1295 0.9738
vn -0.1428 -0.5123 -0.8468
vn 0.9420 0.1072 0.3182
vn -0.8354 -0.4919 -0.2452
vn 0.6548 -0.5181 -0.5503
vn 0.6548 -0.5181 -0.5502
vn 0.7151 -0.1218 -0.6883
vn -0.2779 -0.3787 -0.8828
vn 0.1338 -0.0051 0.9910
vn 0.9327 -0.1394 0.3325
vn -0.7298 0.4766 -0.4902
vn -0.6548 0.5181 0.5503
vn -0.6548 0.5181 0.5502
vn -0.4768 0.8213 0.3132
vn 0.2779 0.3787 0.8828
vn 0.3721 0.6944 0.6159
vn 0.9680 0.2229 0.1151
vn 0.7372 -0.3201 -0.5950
vn -0.6773 -0.1704 0.7157
vn 0.2132 0.3794 0.9004
vn 0.1501 -0.1188 0.9815
vn 0.9504 0.0593 0.3053
vn 0.7920 -0.3974 0.4634
vn -0.7372 0.3201 0.5950
vn -0.6064 0.7277 0.3205
vn -0.2132 -0.3794 -0.9004
vn -0.2211 -0.7793 -0.5863
vn -0.9504 -0.0593 -0.3053
vn 0.8629 0.5007 0.0682
vn -0.6342 -0.3627 0.6829
vn -0.3510 -0.7217 0.5966
vn 0.2120 0.0839 0.9737
vn 0.4035 -0.3234 0.8559
vn -0.8462 -0.4466 -0.2908
vn 0.9690 -0.0000 0.2469
vn 0.6342 0.3627 -0.6829
vn -0.7800 0.0749 0.6213
vn 0.0254 -0.4732 -0.8806
vn 0.8462 0.4466 0.2908
vn -0.5401 -0.7966 -0.2717
vn -0.7790 0.2393 0.5796
vn 0.6473 0.1343 -0.7503
vn 0.1397 0.5501 0.8234
vn -0.1859 -0.1476 -0.9714
vn 0.9187 0.3107 0.2438
vn -0.8925 0.0695 -0.4458
vn 0.7790 -0.2393 -0.5796
vn -0.7657 0.5684 0.3010
vn 0.0675 0.8502 0.5221
vn 0.7740 0.6331 -0.0036
vn -0.8936 0.1924 -0.4054
vn 0.8618 0.2081 0.4626
vn -0.0690 0.2356 -0.9694
vn 0.1050 0.1684 0.9801
vn 0.8247 0.0432 -0.5640
vn -0.7150 0.3450 0.6080
vn 0.8936 -0.1924 0.4054
vn -0.7783 0.5612 -0.2815
vn 0.0690 -0.2356 0.9694
vn -0.0215 0.6009 -0.7991
vn -0.8247 -0.0432 0.5640
vn 0.7985 0.4243 -0.4270
vn 0.7859 -0.5249 0.3268
vn 0.9175 -0.2427 0.3152
vn 0.1506 -0.1157 0.9818
vn -0.3130 -0.1466 -0.9384
vn 0.6353 -0.4092 -0.6550
vn 0.4348 -0.6460 -0.6274
vn -0.5781 0.7561 -0.3068
vn -0.0263 -0.3668 0.9299
vn -0.6353 0.4092 0.6550
vn -0.7742 0.1326 0.6190
vn -0.8921 -0.0319 -0.4508
vn 0.7035 0.3989 0.5883
vn 0.1175 -0.4077 0.9055
vn 0.0021 0.0008 1.0000
vn -0.7746 -0.4396 0.4547
vn 0.8056 0.0280 -0.5919
vn 0.8921 0.0319 0.4508
vn -0.9119 0.3411 -0.2280
vn -0.1175 0.4077 -0.9055
vn 0.2106 -0.7392 0.6397
vn -0.5971 -0.7680 0.2316
vn 0.7302 -0.6122 0.3033
vn 0.8823 -0.1415 0.4490
vn -0.0381 -0.4109 0.9109
vn -0.2161 -0.0330 -0.9758
vn -0.7683 0.2012 0.6076
vn -0.4171 0.5638 0.7129
vn -0.3841 0.9201 -0.0769
vn -0.2821 -0.7456 0.6037
vn 0.7683 -0.2012 -0.6076
vn 0.9153 0.2148 -0.3408
vn 0.8352 0.2284 0.5003
vn -0.3713 -0.8512 -0.3710
vn 0.0094 -0.0343 0.9994
vn 0.1986 -0.6699 -0.7154
vn 0.8258 0.2627 -0.4991
vn 0.7750 -0.5123 -0.3702
vn -0.7815 0.5359 -0.3195
vn -0.0094 0.0343 -0.9994
vn -0.2116 0.7172 -0.6639
vn -0.8258 -0.2627 0.4991
vn -0.3648 -0.8749 0.3187
vn -0.8495 -0.1749 -0.4978
vn 0.6172 0.5526 0.5600
vn 0.0731 -0.2468 0.9663
vn 0.0813 -0.1732 -0.9815
vn -0.7763 -0.4217 0.4685
vn -0.8456 0.0158 0.5336
vn 0.8495 0.1749 0.4978
vn 0.9114 -0.2379 0.3358
vn -0.2129 0.6173 -0.7573
vn 0.5515 0.7747 -0.3094
vn 0.8685 -0.3238 0.3753
vn 0.8453 0.3210 0.4271
vn 0.0684 -0.2378 0.9689
vn -0.2128 -0.3890 -0.8963
vn 0.8001 -0.0860 -0.5936
vn -0.4738 0.6449 0.5996
vn -0.5278 0.8329 -0.1663
vn 0.1047 0.7650 -0.6355
vn -0.8001 0.0860 0.5936
vn 0.7913 0.5090 -0.3388
vn -0.8251 -0.2683 -0.4972
vn 0.4293 0.8427 0.3250
vn 0.0159 -0.0635 -0.9979
vn -0.1946 0.6907 0.6964
vn 0.8410 0.2048 -0.5007
vn -0.8068 0.4917 0.3276
vn -0.7950 0.4446 -0.4127
vn -0.0159 0.0635 0.9979
vn 0.1710 -0.5965 0.7842
vn -0.4411 -0.7956 0.4153
vn 0.8411 0.2048 -0.5007
vn -0.2890 -0.0600 -0.9555
vn 0.2718 0.4515 0.8499
vn 0.6845 -0.0609 -0.7265
vn -0.6214 0.4522 0.6398
vn 0.9734 -0.0008 0.2290
vn -0.8866 0.3972 -0.2370
vn 0.2890 0.0600 0.9555
vn -0.2585 0.3413 -0.9037
vn -0.6845 0.0609 0.7265
vn 0.6348 0.3405 -0.6936
vn -0.9734 0.0008 -0.2290
vn 0.9000 0.3956 0.1832
vn 0.2865 -0.0029 0.9581
vn 0.2809 0.3580 0.8905
vn -0.6858 0.0322 0.7270
vn -0.6859 0.0322 0.7270
vn -0.6259 0.3907 0.6750
vn -0.9723 0.0351 -0.2310
vn -0.9723 0.0351 -0.2311
vn 0.8930 -0.3933 0.2185
vn -0.2865 0.0029 -0.9581
vn -0.2534 0.3633 -0.8965
vn 0.6533 0.3306 -0.6810
vn -0.9205 -0.3279 -0.2124
vn -0.1872 0.4000 -0.8972
vn -0.1872 0.4001 -0.8972
vn -0.2896 0.0860 -0.9533
vn -0.7040 0.0132 0.7101
vn -0.5516 0.3041 0.7767
vn 0.8912 -0.4132 0.1870
vn 0.7283 -0.6817 0.0701
vn -0.0639 0.6692 -0.7403
vn 0.7773 0.2792 -0.5638
vn 0.9541 -0.0984 0.2830
vn 0.2603 0.4193 0.8697
vn -0.2562 -0.6798 -0.6872
vn -0.7056 0.3308 0.6266
vn 0.6609 -0.5958 -0.4564
vn 0.9660 0.0885 0.2431
vn 0.9080 -0.1977 0.3693
vn -0.2381 -0.1164 -0.9642
vn 0.6790 -0.0323 -0.7335
vn -0.9660 -0.0885 -0.2431
vn -0.9261 -0.3658 -0.0922
vn -0.3043 -0.1886 -0.9337
vn -0.3043 -0.1885 -0.9337
vn 0.3664 0.6645 0.6513
vn 0.6536 -0.3273 -0.6824
vn 0.4430 -0.7817 -0.4390
vn 0.9579 -0.1387 0.2513
vn 0.7001 -0.6224 0.3500
vn 0.1479 -0.3459 0.9266
vn -0.6536 0.3273 0.6824
vn -0.6615 -0.2287 0.7142
vn 0.9186 0.3880 0.0747
vn -0.2087 0.3508 -0.9129
vn 0.3350 -0.0474 0.9410
vn 0.6592 -0.1159 -0.7430
vn -0.4857 0.3940 0.7803
vn -0.8679 0.4668 -0.1699
vn -0.6830 0.7257 -0.0829
vn 0.2087 -0.3508 0.9129
vn -0.0597 0.6160 -0.7854
vn 0.7610 0.1747 -0.6248
vn 0.8679 -0.4668 0.1699
vn -0.9584 0.1571 -0.2385
vn -0.2512 0.2265 -0.9411
vn 0.2958 0.3145 0.9020
vn -0.7017 -0.0278 0.7120
vn 0.5160 -0.4838 -0.7068
vn 0.9529 -0.1987 0.2291
vn 0.7301 -0.6767 0.0949
vn -0.2513 0.2265 -0.9411
vn 0.1323 -0.7004 0.7014
vn 0.7017 0.0278 -0.7120
vn 0.6795 0.5311 -0.5062
vn -0.9529 0.1987 -0.2291
vn -0.8935 -0.3381 -0.2954
vn -0.1988 -0.5183 -0.8318
vn -0.0780 -0.7598 -0.6454
vn 0.6965 -0.0893 -0.7120
vn -0.7692 0.3539 0.5321
vn 0.8953 0.4290 0.1197
vn -0.9573 -0.1365 -0.2548
vn -0.1989 -0.5183 -0.8318
vn 0.2983 0.2210 0.9285
vn -0.6965 0.0893 0.7120
vn -0.5488 -0.1850 0.8152
vn -0.7369 -0.6754 0.0282
vn -0.8969 0.2028 0.3930
vn -0.8688 0.4833 0.1076
vn 0.8189 0.4384 0.3704
vn -0.7971 -0.1063 -0.5944
vn -0.0780 0.6412 0.7634
vn 0.0276 -0.2928 -0.9558
vn -0.7806 -0.1103 0.6152
vn -0.8189 -0.4384 -0.3704
vn 0.7089 0.6999 0.0868
vn -0.1158 0.8864 0.4482
vn 0.8429 -0.4592 -0.2805
vn -0.6915 0.6803 0.2429
vn -0.6775 0.2646 -0.6863
vn -0.6774 0.2646 -0.6864
vn -0.5321 0.4928 -0.6885
vn 0.1655 -0.1946 -0.9668
vn 0.2799 0.0505 -0.9587
vn -0.9326 0.2044 0.2975
vn -0.7732 0.0169 -0.6340
vn -0.1655 0.1946 0.9668
vn -0.1654 0.1946 0.9668
vn -0.0388 0.4254 0.9042
vn 0.7748 -0.5961 -0.2105
vn -0.2341 0.9653 0.1160
vn -0.5734 0.3544 -0.7387
vn 0.0767 -0.7764 0.6255
vn -0.2014 0.2418 0.9492
vn -0.5285 -0.3107 0.7900
vn 0.9765 0.0339 -0.2129
vn 0.5734 -0.3544 0.7387
vn -0.8191 -0.2228 -0.5286
vn 0.2139 0.6885 0.6930
vn 0.9019 -0.2841 -0.3252
vn 0.9019 -0.2841 -0.3253
vn 0.7619 -0.6239 -0.1738
vn -0.7923 -0.0603 -0.6071
vn -0.6610 0.3066 -0.6849
vn 0.1096 -0.3445 -0.9324
vn 0.1697 0.0449 -0.9845
vn -0.9019 0.2841 0.3252
vn 0.8995 0.1005 -0.4253
vn 0.7923 0.0603 0.6071
vn 0.7923 0.0604 0.6071
vn -0.7985 -0.4178 -0.4334
vn -0.1096 0.3445 0.9324
vn -0.0322 0.6795 0.7330
vn 0.9149 -0.1278 -0.3830
vn 0.8252 -0.5405 -0.1641
vn 0.8061 0.2471 0.5377
vn -0.7288 0.2081 -0.6524
vn -0.1087 0.3749 0.9207
vn -0.0826 -0.0948 0.9921
vn -0.9149 0.1278 0.3830
vn -0.7975 -0.3139 0.5152
vn 0.7011 0.6463 0.3013
vn 0.1103 -0.7596 -0.6409
vn -0.8950 0.1500 0.4200
vn -0.7757 0.4441 0.4484
vn -0.7759 0.2828 -0.5639
vn -0.6626 0.5702 -0.4856
vn 0.1192 0.1329 -0.9839
vn 0.1191 0.1329 -0.9839
vn 0.1870 0.4279 -0.8843
vn 0.8950 -0.1500 -0.4200
vn 0.9235 0.1594 -0.3490
vn 0.7759 -0.2828 0.5639
vn 0.8104 0.0333 0.5850
vn -0.1192 -0.1329 0.9839
vn 0.0392 -0.1756 -0.9837
vn -0.9067 0.2013 0.3706
vn 0.8612 -0.4827 -0.1589
vn 0.8175 0.3333 0.4697
vn 0.7776 0.0183 0.6285
vn 0.0893 -0.5347 -0.8403
vn 0.0720 -0.2069 -0.9757
vn 0.8379 0.1054 -0.5356
vn 0.7543 0.6064 0.2518
vn 0.0953 -0.7951 -0.5990
vn -0.8966 0.1052 0.4301
vn 0.8460 -0.5332 -0.0028
vn -0.7913 -0.4885 -0.3676
vn -0.7601 0.0489 -0.6480
vn 0.1053 -0.5937 -0.7977
vn -0.0286 -0.0370 -0.9989
vn 0.8966 -0.1052 -0.4301
vn -0.6170 -0.3615 0.6990
vn 0.7913 0.4885 0.3677
vn 0.7913 0.4885 0.3676
vn 0.5311 0.8459 -0.0481
vn -0.1053 0.5937 0.7977
vn 0.2004 -0.9318 -0.3027
vn -0.8747 0.1187 0.4699
vn -0.8747 0.1187 0.4700
vn 0.7000 -0.4417 -0.5612
vn -0.7659 0.4367 -0.4719
vn 0.5990 -0.7370 0.3132
vn -0.1088 -0.3181 0.9418
vn 0.2131 0.6268 -0.7495
vn -0.9241 -0.2214 0.3114
vn 0.7659 -0.4367 0.4719
vn 0.8231 -0.0739 0.5630
vn 0.0111 0.0362 0.9993
vn 0.8690 -0.4047 -0.2847
vn 0.6071 -0.7793 -0.1552
vn -0.7330 0.1310 -0.6675
vn 0.4865 -0.5365 0.6895
vn 0.1360 -0.2737 -0.9522
vn 0.2844 0.1775 -0.9421
vn -0.9348 -0.0613 0.3500
vn 0.7330 -0.1310 0.6675
vn 0.8141 0.3040 0.4947
vn 0.0432 0.6631 0.7473
vn 0.8907 -0.2557 -0.3758
vn 0.8578 -0.5064 -0.0883
vn 0.8319 0.4338 0.3460
vn -0.8033 -0.1326 -0.5807
vn 0.0588 -0.6896 -0.7218
vn -0.0222 0.3696 0.9289
vn -0.8907 0.2557 0.3758
vn -0.7931 -0.0324 0.6083
vn 0.7386 0.6715 0.0607
vn 0.0869 -0.9084 -0.4089
vt 0.166667 0.448787
vt 0.000000 0.448787
vt 0.083333 0.448787
vt 2.333333 2.448787
vt 2.166667 2.448787
vt 0.333333 0.448787
vt 0.250000 0.448787
vt 0.500000 0.448787
vt 0.416667 0.448787
vt 2.500000 2.448787
vt 2.666667 2.448787
vt 0.666667 0.448787
vt 0.583333 0.448787
vt 0.833333 0.448787
vt 0.750000 0.448787
vt 3.000000 2.448787
vt 2.833333 2.448787
vt 1.000000 0.448787
vt 0.916667 0.448787
vt 0.166667 0.765362
vt 0.000000 0.765362
vt 0.083333 0.765362
vt 2.333333 2.765362
vt 2.166667 2.765362
vt 0.250000 0.765362
vt 0.333333 0.765362
vt 0.500000 0.765362
vt 0.416667 0.765362
vt 2.666667 2.765362
vt 2.500000 2.765362
vt 0.583333 0.765362
vt 0.666667 0.765362
vt 0.833333 0.765362
vt 0.750000 0.765362
vt 3.000000 2.765362
vt 2.833333 2.765362
vt 0.916667 0.765362
vt 1.000000 0.765362
vt 0.166667 0.940324
vt 0.000000 0.940324
vt 0.083333 0.940324
vt 2.333333 2.940324
vt 2.166667 2.940324
vt 0.250000 0.940324
vt 0.333333 0.940324
vt 0.500000 0.940324
vt 0.416667 0.940324
vt 2.666667 2.940324
vt 2.500000 2.940324
vt 0.583333 0.940324
vt 0.666667 0.940324
vt 0.833333 0.940324
vt 0.750000 0.940324
vt 3.000000 2.940324
vt 2.833333 2.940324
vt 0.916667 0.940324
vt 1.000000 0.940324
vt 0.166667 0.302912
vt 0.000000 0.302912
vt 0.083333 0.302912
vt 2.333333 2.302912
vt 2.166667 2.302912
vt 0.250000 0.302912
vt 0.333333 0.302912
vt 0.500000 0.302912
vt 0.416667 0.302912
vt 2.666667 2.302912
vt 2.500000 2.302912
vt 0.583333 0.302912
vt 0.666667 0.302912
vt 0.833333 0.302912
vt 0.750000 0.302912
vt 3.000000 2.302912
vt 2.833333 2.302912
vt 0.916667 0.302912
vt 1.000000 0.302912
vt 0.000000 0.062886
vt 0.166667 0.062886
vt 0.083333 0.062886
vt 2.333333 2.062886
vt 2.166667 2.062886
vt 0.250000 0.062886
vt 0.333333 0.062886
vt 0.500000 0.062886
vt 0.416667 0.062886
vt 2.666667 2.062886
vt 2.500000 2.062886
vt 0.666667 0.062886
vt 0.583333 0.062886
vt 0.833333 0.062886
vt 0.750000 0.062886
vt 2.833333 2.062886
vt 3.000000 2.062886
vt 0.916667 0.062886
vt 1.000000 0.062886
s 1
f 2/1/1 4/2/1 1/2/1
f 5/2/2 7/3/2 6/1/2
f 9/4/3 11/5/3 8/5/3
f 12/1/4 13/6/4 14/7/4
f 18/6/5 16/8/5 15/6/5
f 19/6/6 20/8/6 21/9/6
f 25/10/1 23/11/1 22/10/1
f 26/8/7 27/12/7 28/13/7
f 30/14/8 32/12/8 29/12/8
f 33/12/9 34/14/9 35/15/9
f 37/16/5 39/17/5 36/17/5
f 40/14/10 41/18/10 42/19/10
f 46/2/11 44/1/11 43/2/11
f 47/2/12 48/1/12 49/3/12
f 50/5/13 52/4/13 51/4/13
f 54/1/14 56/7/14 55/6/14
f 60/6/15 58/8/15 57/6/15
f 61/6/16 62/8/16 63/9/16
f 67/10/17 65/11/17 64/10/17
f 68/8/18 69/12/18 70/13/18
f 72/14/13 74/12/13 71/12/13
f 75/12/19 76/14/19 77/15/19
f 79/16/15 81/17/15 78/17/15
f 82/14/20 83/18/20 84/19/20
f 86/1/21 88/2/22 85/2/21
f 89/2/23 90/1/23 91/3/23
f 93/4/24 95/5/24 92/5/24
f 96/1/25 98/7/25 97/6/25
f 100/8/26 102/6/26 99/6/26
f 103/6/27 104/8/27 105/9/27
f 109/10/21 107/11/21 106/10/21
f 110/8/28 111/12/28 112/13/28
f 113/12/29 115/14/29 116/12/29
f 117/12/30 119/15/30 118/14/30
f 123/17/26 121/16/26 120/17/26
f 124/14/31 126/19/31 125/18/31
f 2/1/1 3/1/1 4/2/1
f 9/4/3 10/4/3 11/5/3
f 18/6/5 17/8/5 16/8/5
f 25/10/1 24/11/1 23/11/1
f 30/14/8 31/14/8 32/12/8
f 37/16/5 38/16/5 39/17/5
f 46/2/11 45/1/11 44/1/11
f 50/5/13 53/5/13 52/4/13
f 60/6/15 59/8/15 58/8/15
f 67/10/17 66/11/17 65/11/17
f 72/14/13 73/14/13 74/12/13
f 79/16/15 80/16/15 81/17/15
f 86/1/21 87/1/22 88/2/22
f 93/4/24 94/4/24 95/5/24
f 100/8/26 101/8/26 102/6/26
f 109/10/21 108/11/21 107/11/21
f 113/12/29 114/14/29 115/14/29
f 123/17/26 122/16/26 121/16/26
f 128/20/32 130/21/32 127/21/32
f 131/21/33 133/22/33 132/20/33
f 135/23/34 137/24/34 134/24/34
f 138/20/35 140/25/35 139/26/35
f 142/27/36 144/26/36 141/26/36
f 145/26/37 147/28/37 146/27/37
f 149/29/38 151/30/38 148/30/38
f 152/27/39 154/31/39 153/32/39
f 156/33/40 158/32/41 155/32/40
f 159/32/42 161/34/42 160/33/42
f 163/35/43 165/36/43 162/36/43
f 166/33/44 168/37/44 167/38/44
f 170/20/45 172/21/46 169/21/45
f 173/21/47 174/20/47 175/22/47
f 176/24/48 178/23/48 179/24/48
f 180/20/49 182/25/49 181/26/49
f 186/26/50 184/27/50 183/26/50
f 187/26/51 188/27/51 189/28/51
f 190/30/52 192/29/53 193/30/53
f 194/27/54 195/32/54 196/31/54
f 198/33/55 200/32/55 197/32/55
f 201/32/56 202/33/56 203/34/56
f 204/36/50 206/35/50 207/36/50
f 208/33/57 209/38/57 210/37/57
f 212/20/58 214/21/58 211/21/58
f 215/21/59 217/22/59 216/20/59
f 221/24/60 219/23/60 218/24/60
f 222/20/61 224/25/61 223/26/61
f 228/26/62 226/27/62 225/26/62
f 229/26/63 231/28/63 230/27/63
f 232/30/64 234/29/64 235/30/64
f 236/27/65 237/32/65 238/31/65
f 242/32/66 240/33/66 239/32/66
f 243/32/67 245/34/67 244/33/67
f 249/36/68 247/35/68 246/36/68
f 250/33/69 251/38/69 252/37/69
f 256/21/70 254/20/70 253/21/70
f 257/21/71 259/22/71 258/20/71
f 263/24/72 261/23/72 260/24/72
f 264/20/73 266/25/73 265/26/73
f 268/27/74 270/26/74 267/26/74
f 271/26/75 273/28/75 272/27/75
f 274/30/76 276/29/76 275/29/76
f 278/27/77 279/32/77 280/31/77
f 281/32/72 283/33/72 284/32/72
f 285/32/78 287/34/78 286/33/78
f 289/35/79 291/36/79 288/36/79
f 292/33/80 294/37/80 293/38/80
f 298/21/81 296/20/81 295/21/81
f 299/21/82 300/20/82 301/22/82
f 302/24/83 304/23/83 303/23/83
f 306/20/84 307/26/84 308/25/84
f 312/26/85 310/27/85 309/26/85
f 313/26/86 314/27/86 315/28/86
f 319/30/87 317/29/87 316/30/87
f 320/27/88 321/32/88 322/31/88
f 324/33/83 326/32/83 323/32/83
f 327/32/89 328/33/89 329/34/89
f 331/35/85 333/36/85 330/36/85
f 334/33/90 335/38/90 336/37/90
f 128/20/32 129/20/32 130/21/32
f 135/23/34 136/23/34 137/24/34
f 142/27/36 143/27/36 144/26/36
f 149/29/38 150/29/38 151/30/38
f 156/33/40 157/33/41 158/32/41
f 163/35/43 164/35/43 165/36/43
f 170/20/45 171/20/46 172/21/46
f 176/24/48 177/23/48 178/23/48
f 186/26/50 185/27/50 184/27/50
f 190/30/52 191/29/52 192/29/53
f 198/33/55 199/33/55 200/32/55
f 204/36/50 205/35/50 206/35/50
f 212/20/58 213/20/58 214/21/58
f 221/24/60 220/23/60 219/23/60
f 228/26/62 227/27/62 226/27/62
f 232/30/64 233/29/64 234/29/64
f 242/32/66 241/33/66 240/33/66
f 249/36/68 248/35/68 247/35/68
f 256/21/70 255/20/70 254/20/70
f 263/24/72 262/23/72 261/23/72
f 268/27/74 269/27/74 270/26/74
f 274/30/76 277/30/76 276/29/76
f 281/32/72 282/33/72 283/33/72
f 289/35/79 290/35/79 291/36/79
f 298/21/81 297/20/81 296/20/81
f 302/24/83 305/24/83 304/23/83
f 312/26/85 311/27/85 310/27/85
f 319/30/87 318/29/87 317/29/87
f 324/33/83 325/33/83 326/32/83
f 331/35/85 332/35/85 333/36/85
f 338/39/91 340/40/91 337/40/91
f 341/40/92 343/41/92 342/39/92
f 345/42/93 347/43/93 344/43/93
f 348/39/94 350/44/94 349/45/94
f 352/46/95 354/45/95 351/45/95
f 355/45/96 357/47/96 356/46/96
f 359/48/97 361/49/97 358/49/97
f 362/46/98 364/50/98 363/51/98
f 366/52/99 368/51/99 365/51/99
f 369/51/100 371/53/100 370/52/100
f 373/54/101 375/55/101 372/55/101
f 376/52/102 378/56/102 377/57/102
f 382/40/103 380/39/103 379/40/103
f 383/40/104 385/41/104 384/39/104
f 389/43/105 387/42/105 386/43/105
f 390/39/106 391/45/106 392/44/106
f 393/45/107 395/46/107 396/45/107
f 397/45/108 398/46/108 399/47/108
f 401/48/103 403/49/103 400/49/103
f 404/46/109 406/50/109 405/51/109
f 408/52/105 410/51/105 407/51/105
f 411/51/110 412/52/110 413/53/110
f 415/54/111 417/55/111 414/55/111
f 418/52/112 419/57/112 420/56/112
f 421/40/113 423/39/113 424/40/113
f 425/40/114 427/41/114 426/39/114
f 431/43/115 429/42/115 428/43/115
f 432/39/116 434/44/116 433/45/116
f 435/45/117 437/46/117 436/46/117
f 439/45/118 440/46/118 441/47/118
f 443/48/119 445/49/119 442/49/119
f 446/46/120 448/50/120 447/51/120
f 452/51/121 450/52/121 449/51/121
f 453/51/122 454/52/122 455/53/122
f 456/55/117 458/54/117 459/55/117
f 460/52/123 461/57/123 462/56/123
f 466/40/124 464/39/124 463/40/124
f 467/40/125 469/41/125 468/39/125
f 470/43/126 472/42/126 471/42/126
f 474/39/127 475/45/127 476/44/127
f 480/45/128 478/46/128 477/45/128
f 481/45/129 483/47/129 482/46/129
f 485/48/124 487/49/124 484/49/124
f 488/46/130 490/50/130 489/51/130
f 492/52/126 494/51/126 491/51/126
f 495/51/131 496/52/131 497/53/131
f 501/55/132 499/54/132 498/55/132
f 502/52/133 504/56/133 503/57/133
f 508/40/134 506/39/134 505/40/134
f 509/40/135 510/39/135 511/41/135
f 515/43/136 513/42/136 512/43/136
f 516/39/137 517/45/137 518/44/137
f 520/46/138 522/45/138 519/45/138
f 523/45/139 524/46/139 525/47/139
f 527/48/134 529/49/134 526/49/134
f 530/46/140 532/50/140 531/51/140
f 536/51/141 534/52/141 533/51/141
f 537/51/142 539/53/142 538/52/142
f 540/55/143 542/54/143 543/55/143
f 544/52/144 545/57/144 546/56/144
f 548/39/145 550/40/145 547/40/145
f 551/40/146 553/41/146 552/39/146
f 554/43/147 556/42/147 555/42/147
f 558/39/148 559/45/148 560/44/148
f 564/45/149 562/46/149 561/45/149
f 565/45/150 567/47/150 566/46/150
f 568/49/151 570/48/151 571/49/151
f 572/46/152 573/51/152 574/50/152
f 576/52/147 578/51/147 575/51/147
f 579/51/153 581/53/153 580/52/153
f 583/54/149 585/55/149 582/55/149
f 586/52/154 588/56/154 587/57/154
f 592/40/155 590/39/155 589/40/155
f 593/40/156 595/41/156 594/39/156
f 599/43/157 597/42/157 596/43/157
f 600/39/158 601/45/158 602/44/158
f 604/46/159 606/45/159 603/45/159
f 607/45/160 609/47/160 608/46/160
f 611/48/155 613/49/155 610/49/155
f 614/46/161 616/50/161 615/51/161
f 618/52/157 620/51/157 617/51/157
f 621/51/162 623/53/162 622/52/162
f 625/54/163 627/55/163 624/55/163
f 628/52/164 630/56/164 629/57/164
f 632/39/165 634/40/165 631/40/165
f 635/40/166 637/41/166 636/39/166
f 639/42/167 641/43/167 638/43/167
f 642/39/168 644/44/168 643/45/168
f 646/46/169 648/45/169 645/45/169
f 649/45/170 651/47/170 650/46/170
f 655/49/165 653/48/165 652/49/165
f 656/46/171 658/50/171 657/51/171
f 660/52/172 662/51/172 659/51/172
f 663/51/173 664/52/173 665/53/173
f 666/55/169 668/54/169 667/54/169
f 670/52/174 671/57/174 672/56/174
f 338/39/91 339/39/91 340/40/91
f 345/42/93 346/42/93 347/43/93
f 352/46/95 353/46/95 354/45/95
f 359/48/97 360/48/97 361/49/97
f 366/52/99 367/52/99 368/51/99
f 373/54/101 374/54/101 375/55/101
f 382/40/103 381/39/103 380/39/103
f 389/43/105 388/42/105 387/42/105
f 393/45/107 394/46/107 395/46/107
f 401/48/103 402/48/103 403/49/103
f 408/52/105 409/52/105 410/51/105
f 415/54/111 416/54/111 417/55/111
f 421/40/113 422/39/113 423/39/113
f 431/43/115 430/42/115 429/42/115
f 435/45/117 438/45/117 437/46/117
f 443/48/119 444/48/119 445/49/119
f 452/51/121 451/52/121 450/52/121
f 456/55/117 457/54/117 458/54/117
f 466/40/124 465/39/124 464/39/124
f 470/43/126 473/43/126 472/42/126
f 480/45/128 479/46/128 478/46/128
f 485/48/124 486/48/124 487/49/124
f 492/52/126 493/52/126 494/51/126
f 501/55/132 500/54/132 499/54/132
f 508/40/134 507/39/134 506/39/134
f 515/43/136 514/42/136 513/42/136
f 520/46/138 521/46/138 522/45/138
f 527/48/134 528/48/134 529/49/134
f 536/51/141 535/52/141 534/52/141
f 540/55/143 541/54/143 542/54/143
f 548/39/145 549/39/145 550/40/145
f 554/43/147 557/43/147 556/42/147
f 564/45/149 563/46/149 562/46/149
f 568/49/151 569/48/151 570/48/151
f 576/52/147 577/52/147 578/51/147
f 583/54/149 584/54/149 585/55/149
f 592/40/155 591/39/155 590/39/155
f 599/43/157 598/42/157 597/42/157
f 604/46/159 605/46/159 606/45/159
f 611/48/155 612/48/155 613/49/155
f 618/52/157 619/52/157 620/51/157
f 625/54/163 626/54/163 627/55/163
f 632/39/165 633/39/165 634/40/165
f 639/42/167 640/42/167 641/43/167
f 646/46/169 647/46/175 648/45/169
f 655/49/165 654/48/165 653/48/165
f 660/52/172 661/52/172 662/51/172
f 666/55/169 669/55/169 668/54/169
f 674/58/176 676/59/176 673/59/176
f 677/59/177 679/60/177 678/58/177
f 681/61/178 683/62/178 680/62/178
f 684/58/179 686/63/179 685/64/179
f 688/65/180 690/64/180 687/64/180
f 691/64/181 693/66/181 692/65/181
f 695/67/182 697/68/182 694/68/182
f 698/65/183 700/69/183 699/70/183
f 702/71/184 704/70/184 701/70/184
f 705/70/185 707/72/185 706/71/185
f 709/73/186 711/74/186 708/74/186
f 712/71/187 714/75/187 713/76/187
f 718/59/188 716/58/188 715/59/188
f 719/59/189 721/60/189 720/58/189
f 725/62/190 723/61/191 722/62/191
f 726/58/192 728/63/192 727/64/192
f 729/64/193 731/65/194 730/65/193
f 733/64/195 734/65/195 735/66/195
f 739/68/196 737/67/196 736/68/196
f 740/65/197 742/69/197 741/70/197
f 744/71/191 746/70/190 743/70/191
f 747/70/198 749/72/198 748/71/198
f 751/73/193 753/74/193 750/74/193
f 754/71/199 755/76/199 756/75/199
f 758/58/200 760/59/201 757/59/200
f 761/59/202 762/58/202 763/60/202
f 767/62/203 765/61/203 764/62/203
f 768/58/204 770/63/204 769/64/204
f 772/65/205 774/64/205 771/64/205
f 775/64/206 776/65/206 777/66/206
f 781/68/201 779/67/201 778/68/201
f 782/65/207 784/69/207 783/70/207
f 785/70/203 787/71/203 788/70/203
f 789/70/208 791/72/208 790/71/208
f 792/74/205 794/73/205 793/73/205
f 796/71/209 798/75/209 797/76/209
f 799/59/210 801/58/210 800/58/210
f 803/59/211 804/58/211 805/60/211
f 806/62/212 808/61/212 807/61/212
f 810/58/213 811/64/213 812/63/213
f 814/65/214 816/64/214 813/64/214
f 817/64/215 818/65/215 819/66/215
f 821/67/210 823/68/210 820/68/210
f 824/65/216 826/69/216 825/70/216
f 828/71/212 830/70/212 827/70/212
f 831/70/217 833/72/217 832/71/217
f 834/74/218 836/73/218 837/74/218
f 838/71/219 839/76/219 840/75/219
f 842/58/220 844/59/221 841/59/220
f 845/59/222 847/60/222 846/58/222
f 849/61/223 851/62/223 848/62/223
f 852/58/224 853/64/224 854/63/224
f 856/65/225 858/64/225 855/64/225
f 859/64/226 860/65/226 861/66/226
f 865/68/220 863/67/220 862/68/220
f 866/65/227 867/70/227 868/69/227
f 870/71/228 872/70/228 869/70/228
f 873/70/229 874/71/229 875/72/229
f 876/74/225 878/73/225 877/73/225
f 880/71/230 882/75/230 881/76/230
f 883/59/231 885/58/231 886/59/231
f 887/59/232 889/60/232 888/58/232
f 891/61/233 893/62/233 890/62/233
f 894/58/234 896/63/234 895/64/234
f 897/64/235 899/65/235 898/65/235
f 901/64/236 903/66/236 902/65/236
f 904/68/237 906/67/237 907/68/237
f 908/65/238 910/69/238 909/70/238
f 911/70/233 913/71/233 912/71/233
f 915/70/239 917/72/239 916/71/239
f 921/74/240 919/73/240 918/74/240
f 922/71/241 923/76/241 924/75/241
f 926/58/242 928/59/242 925/59/242
f 929/59/243 931/60/243 930/58/243
f 935/62/244 933/61/244 932/62/244
f 936/58/245 937/64/245 938/63/245
f 940/65/246 942/64/246 939/64/246
f 943/64/247 944/65/247 945/66/247
f 946/68/242 948/67/248 947/67/242
f 950/65/249 951/70/249 952/69/249
f 956/70/250 954/71/250 953/70/250
f 957/70/251 959/72/251 958/71/251
f 961/73/252 963/74/252 960/74/252
f 964/71/253 965/76/253 966/75/253
f 967/59/254 969/58/254 970/59/254
f 971/59/255 972/58/255 973/60/255
f 974/62/256 976/61/256 977/62/256
f 978/58/257 980/63/257 979/64/257
f 982/65/258 984/64/258 981/64/258
f 985/64/259 987/66/259 986/65/259
f 991/68/254 989/67/260 988/68/260
f 992/65/261 993/70/261 994/69/261
f 995/70/262 997/71/262 998/70/262
f 999/70/263 1000/71/263 1001/72/263
f 1002/74/258 1004/73/258 1003/73/258
f 1006/71/264 1007/76/264 1008/75/264
f 674/58/176 675/58/176 676/59/176
f 681/61/178 682/61/178 683/62/178
f 688/65/180 689/65/180 690/64/180
f 695/67/182 696/67/182 697/68/182
f 702/71/184 703/71/184 704/70/184
f 709/73/186 710/73/186 711/74/186
f 718/59/188 717/58/188 716/58/188
f 725/62/190 724/61/190 723/61/191
f 729/64/193 732/64/194 731/65/194
f 739/68/196 738/67/196 737/67/196
f 744/71/191 745/71/190 746/70/190
f 751/73/193 752/73/193 753/74/193
f 758/58/200 759/58/201 760/59/201
f 767/62/203 766/61/203 765/61/203
f 772/65/205 773/65/205 774/64/205
f 781/68/201 780/67/201 779/67/201
f 785/70/203 786/71/203 787/71/203
f 792/74/205 795/74/205 794/73/205
f 799/59/210 802/59/210 801/58/210
f 806/62/212 809/62/212 808/61/212
f 814/65/214 815/65/214 816/64/214
f 821/67/210 822/67/210 823/68/210
f 828/71/212 829/71/212 830/70/212
f 834/74/218 835/73/218 836/73/218
f 842/58/220 843/58/221 844/59/221
f 849/61/223 850/61/223 851/62/223
f 856/65/225 857/65/225 858/64/225
f 865/68/220 864/67/220 863/67/220
f 870/71/228 871/71/228 872/70/228
f 876/74/225 879/74/225 878/73/225
f 883/59/231 884/58/231 885/58/231
f 891/61/233 892/61/233 893/62/233
f 897/64/235 900/64/235 899/65/235
f 904/68/237 905/67/237 906/67/237
f 911/70/233 914/70/233 913/71/233
f 921/74/240 920/73/240 919/73/240
f 926/58/242 927/58/242 928/59/242
f 935/62/244 934/61/244 933/61/244
f 940/65/246 941/65/246 942/64/246
f 946/68/242 949/68/248 948/67/248
f 956/70/250 955/71/250 954/71/250
f 961/73/252 962/73/252 963/74/252
f 967/59/254 968/58/254 969/58/254
f 974/62/256 975/61/256 976/61/256
f 982/65/258 983/65/258 984/64/258
f 991/68/254 990/67/254 989/67/260
f 995/70/262 996/71/262 997/71/262
f 1002/74/258 1005/74/258 1004/73/258
f 1009/77/265 1011/78/265 1010/78/265
f 1013/77/266 1015/79/266 1014/78/266
f 1017/80/267 1019/81/267 1016/81/267
f 1020/78/268 1022/82/268 1021/83/268
f 1024/84/269 1026/83/269 1023/83/269
f 1027/83/270 1029/85/270 1028/84/270
f 1031/86/265 1033/87/265 1030/87/265
f 1034/84/271 1035/88/271 1036/89/271
f 1038/90/272 1040/88/272 1037/88/272
f 1041/88/273 1043/91/273 1042/90/273
f 1047/92/269 1045/93/269 1044/92/269
f 1048/90/274 1050/94/274 1049/95/274
f 1051/77/275 1053/78/275 1054/77/275
f 1055/77/276 1057/79/276 1056/78/276
f 1061/81/277 1059/80/278 1058/81/278
f 1062/78/279 1064/82/279 1063/83/279
f 1068/83/280 1066/84/280 1065/83/280
f 1069/83/281 1071/85/281 1070/84/281
f 1075/87/275 1073/86/275 1072/87/275
f 1076/84/282 1077/88/282 1078/89/282
f 1079/88/277 1081/90/278 1082/88/278
f 1083/88/283 1084/90/283 1085/91/283
f 1086/92/284 1088/93/285 1087/93/284
f 1090/90/286 1092/94/286 1091/95/286
f 1093/77/287 1095/78/287 1096/77/287
f 1097/77/288 1099/79/288 1098/78/288
f 1103/81/289 1101/80/289 1100/81/289
f 1104/78/290 1105/83/290 1106/82/290
f 1108/84/291 1110/83/291 1107/83/291
f 1111/83/292 1112/84/292 1113/85/292
f 1117/87/287 1115/86/287 1114/87/287
f 1118/84/293 1120/89/293 1119/88/293
f 1124/88/294 1122/90/294 1121/88/294
f 1125/88/295 1126/90/295 1127/91/295
f 1128/92/291 1130/93/291 1129/93/291
f 1132/90/296 1134/94/296 1133/95/296
f 1135/77/297 1137/78/297 1138/77/298
f 1139/77/299 1140/78/299 1141/79/299
f 1145/81/300 1143/80/300 1142/81/300
f 1146/78/301 1148/82/301 1147/83/301
f 1149/83/302 1151/84/302 1150/84/302
f 1153/83/303 1155/85/303 1154/84/303
f 1157/86/304 1159/87/304 1156/87/304
f 1160/84/305 1162/89/305 1161/88/305
f 1166/88/306 1164/90/306 1163/88/307
f 1167/88/308 1168/90/308 1169/91/308
f 1173/92/309 1171/93/309 1170/92/309
f 1174/90/310 1176/94/310 1175/95/310
f 1178/78/311 1180/77/311 1177/77/311
f 1181/77/312 1182/78/312 1183/79/312
f 1185/80/313 1187/81/313 1184/81/313
f 1188/78/314 1190/82/314 1189/83/314
f 1192/84/315 1194/83/315 1191/83/315
f 1195/83/316 1196/84/316 1197/85/316
f 1198/87/317 1200/86/317 1201/87/317
f 1202/84/318 1203/88/318 1204/89/318
f 1208/88/313 1206/90/313 1205/88/313
f 1209/88/319 1211/91/319 1210/90/319
f 1215/92/315 1213/93/315 1212/92/315
f 1216/90/320 1217/95/320 1218/94/320
f 1222/77/321 1220/78/321 1219/77/321
f 1223/77/322 1225/79/322 1224/78/322
f 1229/81/323 1227/80/323 1226/81/323
f 1230/78/324 1232/82/324 1231/83/324
f 1233/83/325 1235/84/326 1234/84/325
f 1237/83/327 1239/85/327 1238/84/327
f 1243/87/328 1241/86/328 1240/87/328
f 1244/84/329 1246/89/329 1245/88/329
f 1250/88/330 1248/90/330 1247/88/330
f 1251/88/331 1253/91/331 1252/90/331
f 1257/92/332 1255/93/332 1254/92/332
f 1258/90/333 1259/95/333 1260/94/333
f 1264/77/334 1262/78/334 1261/77/334
f 1265/77/335 1266/78/335 1267/79/335
f 1269/80/336 1271/81/336 1268/81/336
f 1272/78/337 1273/83/337 1274/82/337
f 1275/83/338 1277/84/338 1276/84/338
f 1279/83/339 1281/85/339 1280/84/339
f 1283/86/334 1285/87/334 1282/87/334
f 1286/84/340 1288/89/340 1287/88/340
f 1292/88/336 1290/90/336 1289/88/336
f 1293/88/341 1295/91/341 1294/90/341
f 1296/92/338 1298/93/338 1299/92/338
f 1300/90/342 1301/95/342 1302/94/342
f 1306/77/343 1304/78/343 1303/77/343
f 1307/77/344 1308/78/344 1309/79/344
f 1310/81/345 1312/80/345 1311/80/345
f 1314/78/346 1316/82/346 1315/83/346
f 1320/83/347 1318/84/347 1317/83/347
f 1321/83/348 1323/85/348 1322/84/348
f 1327/87/349 1325/86/349 1324/87/349
f 1328/84/350 1329/88/350 1330/89/350
f 1331/88/351 1333/90/352 1332/90/351
f 1335/88/353 1337/91/353 1336/90/353
f 1341/92/354 1339/93/354 1338/92/354
f 1342/90/355 1343/95/355 1344/94/355
f 1348/77/356 1346/78/357 1345/77/357
f 1349/77/358 1350/78/358 1351/79/358
f 1355/81/359 1353/80/359 1352/81/359
f 1356/78/360 1357/83/360 1358/82/360
f 1359/83/361 1361/84/361 1362/83/361
f 1363/83/362 1365/85/362 1364/84/362
f 1367/86/357 1369/87/356 1366/87/357
f 1370/84/363 1371/88/363 1372/89/363
f 1376/88/364 1374/90/364 1373/88/364
f 1377/88/365 1379/91/365 1378/90/365
f 1383/92/361 1381/93/361 1380/92/361
f 1384/90/366 1386/94/366 1385/95/366
f 1388/78/367 1390/77/367 1387/77/367
f 1391/77/368 1392/78/368 1393/79/368
f 1394/81/369 1396/80/369 1395/80/369
f 1398/78/370 1399/83/370 1400/82/370
f 1404/83/371 1402/84/371 1401/83/371
f 1405/83/372 1407/85/372 1406/84/372
f 1411/87/367 1409/86/367 1408/87/367
f 1412/84/373 1413/88/373 1414/89/373
f 1415/88/374 1417/90/374 1416/90/374
f 1419/88/375 1421/91/375 1420/90/375
f 1423/93/371 1425/92/371 1422/92/371
f 1426/90/376 1428/94/376 1427/95/376
f 1429/77/377 1431/78/377 1432/77/377
f 1433/77/378 1434/78/378 1435/79/378
f 1436/81/379 1438/80/379 1439/81/379
f 1440/78/380 1442/82/380 1441/83/380
f 1446/83/381 1444/84/381 1443/83/381
f 1447/83/382 1448/84/382 1449/85/382
f 1450/87/383 1452/86/383 1453/87/383
f 1454/84/384 1455/88/384 1456/89/384
f 1460/88/379 1458/90/379 1457/88/379
f 1461/88/385 1463/91/385 1462/90/385
f 1465/93/381 1467/92/381 1464/92/381
f 1468/90/386 1469/95/386 1470/94/386
f 1009/77/265 1012/77/265 1011/78/265
f 1017/80/267 1018/80/267 1019/81/267
f 1024/84/269 1025/84/269 1026/83/269
f 1031/86/265 1032/86/265 1033/87/265
f 1038/90/272 1039/90/272 1040/88/272
f 1047/92/269 1046/93/269 1045/93/269
f 1051/77/275 1052/78/275 1053/78/275
f 1061/81/277 1060/80/277 1059/80/278
f 1068/83/280 1067/84/280 1066/84/280
f 1075/87/275 1074/86/275 1073/86/275
f 1079/88/277 1080/90/277 1081/90/278
f 1086/92/284 1089/92/285 1088/93/285
f 1093/77/287 1094/78/287 1095/78/287
f 1103/81/289 1102/80/289 1101/80/289
f 1108/84/291 1109/84/291 1110/83/291
f 1117/87/287 1116/86/287 1115/86/287
f 1124/88/294 1123/90/294 1122/90/294
f 1128/92/291 1131/92/291 1130/93/291
f 1135/77/297 1136/78/297 1137/78/297
f 1145/81/300 1144/80/300 1143/80/300
f 1149/83/302 1152/83/302 1151/84/302
f 1157/86/304 1158/86/304 1159/87/304
f 1166/88/306 1165/90/306 1164/90/306
f 1173/92/309 1172/93/309 1171/93/309
f 1178/78/311 1179/78/311 1180/77/311
f 1185/80/313 1186/80/313 1187/81/313
f 1192/84/315 1193/84/315 1194/83/315
f 1198/87/317 1199/86/317 1200/86/317
f 1208/88/313 1207/90/313 1206/90/313
f 1215/92/315 1214/93/315 1213/93/315
f 1222/77/321 1221/78/321 1220/78/321
f 1229/81/323 1228/80/323 1227/80/323
f 1233/83/325 1236/83/326 1235/84/326
f 1243/87/328 1242/86/328 1241/86/328
f 1250/88/330 1249/90/330 1248/90/330
f 1257/92/332 1256/93/332 1255/93/332
f 1264/77/334 1263/78/334 1262/78/334
f 1269/80/336 1270/80/336 1271/81/336
f 1275/83/338 1278/83/338 1277/84/338
f 1283/86/334 1284/86/334 1285/87/334
f 1292/88/336 1291/90/336 1290/90/336
f 1296/92/338 1297/93/338 1298/93/338
f 1306/77/343 1305/78/343 1304/78/343
f 1310/81/345 1313/81/345 1312/80/345
f 1320/83/347 1319/84/347 1318/84/347
f 1327/87/349 1326/86/349 1325/86/349
f 1331/88/351 1334/88/352 1333/90/352
f 1341/92/354 1340/93/354 1339/93/354
f 1348/77/356 1347/78/356 1346/78/357
f 1355/81/359 1354/80/359 1353/80/359
f 1359/83/361 1360/84/361 1361/84/361
f 1367/86/357 1368/86/356 1369/87/356
f 1376/88/364 1375/90/364 1374/90/364
f 1383/92/361 1382/93/361 1381/93/361
f 1388/78/367 1389/78/367 1390/77/367
f 1394/81/369 1397/81/369 1396/80/369
f 1404/83/371 1403/84/371 1402/84/371
f 1411/87/367 1410/86/367 1409/86/367
f 1415/88/374 1418/88/374 1417/90/374
f 1423/93/371 1424/93/371 1425/92/371
f 1429/77/377 1430/78/377 1431/78/377
f 1436/81/379 1437/80/379 1438/80/379
f 1446/83/381 1445/84/381 1444/84/381
f 1450/87/383 1451/86/383 1452/86/383
f 1460/88/379 1459/90/379 1458/90/379
f 1465/93/381 1466/93/381 1467/92/381
