# Blender 5.1.2
# www.blender.org
o st_portal_plane
v 0.000000 11.585685 0.000000
v -4.500000 1.200000 0.000000
v 4.500000 1.200000 0.000000
v 0.000000 11.585685 0.000000
v 4.500000 1.200000 0.000000
v 4.500000 15.000000 0.000000
v 0.000000 11.585685 0.000000
v 4.500000 15.000000 0.000000
v 4.493589 15.313128 0.000000
v 0.000000 11.585685 0.000000
v 4.493589 15.313128 0.000000
v 4.474366 15.625730 0.000000
v 0.000000 11.585685 0.000000
v 4.474366 15.625730 0.000000
v 4.442365 15.937283 0.000000
v 0.000000 11.585685 0.000000
v 4.442365 15.937283 0.000000
v 4.397637 16.247265 0.000000
v 0.000000 11.585685 0.000000
v 4.397637 16.247265 0.000000
v 4.340260 16.555157 0.000000
v 0.000000 11.585685 0.000000
v 4.340260 16.555157 0.000000
v 4.270327 16.860443 0.000000
v 0.000000 11.585685 0.000000
v 4.270327 16.860443 0.000000
v 4.187957 17.162611 0.000000
v 0.000000 11.585685 0.000000
v 4.187957 17.162611 0.000000
v 4.093288 17.461153 0.000000
v 0.000000 11.585685 0.000000
v 4.093288 17.461153 0.000000
v 3.986479 17.755569 0.000000
v 0.000000 11.585685 0.000000
v 3.986479 17.755569 0.000000
v 3.867708 18.045368 0.000000
v 0.000000 11.585685 0.000000
v 3.867708 18.045368 0.000000
v 3.737175 18.330063 0.000000
v 0.000000 11.585685 0.000000
v 3.737175 18.330063 0.000000
v 3.595098 18.609175 0.000000
v 0.000000 11.585685 0.000000
v 3.595098 18.609175 0.000000
v 3.441716 18.882238 0.000000
v 0.000000 11.585685 0.000000
v 3.441716 18.882238 0.000000
v 3.277286 19.148794 0.000000
v 0.000000 11.585685 0.000000
v 3.277286 19.148794 0.000000
v 3.102082 19.408398 0.000000
v 0.000000 11.585685 0.000000
v 3.102082 19.408398 0.000000
v 2.916399 19.660610 0.000000
v 0.000000 11.585685 0.000000
v 2.916399 19.660610 0.000000
v 2.720549 19.905014 0.000000
v 0.000000 11.585685 0.000000
v 2.720549 19.905014 0.000000
v 2.514859 20.141193 0.000000
v 0.000000 11.585685 0.000000
v 2.514859 20.141193 0.000000
v 2.299674 20.368757 0.000000
v 0.000000 11.585685 0.000000
v 2.299674 20.368757 0.000000
v 2.075355 20.587322 0.000000
v 0.000000 11.585685 0.000000
v 2.075355 20.587322 0.000000
v 1.842277 20.796522 0.000000
v 0.000000 11.585685 0.000000
v 1.842277 20.796522 0.000000
v 1.600832 20.996006 0.000000
v 0.000000 11.585685 0.000000
v 1.600832 20.996006 0.000000
v 1.351424 21.185440 0.000000
v 0.000000 11.585685 0.000000
v 1.351424 21.185440 0.000000
v 1.094472 21.364508 0.000000
v 0.000000 11.585685 0.000000
v 1.094472 21.364508 0.000000
v 0.830405 21.532907 0.000000
v 0.000000 11.585685 0.000000
v 0.830405 21.532907 0.000000
v 0.559666 21.690357 0.000000
v 0.000000 11.585685 0.000000
v 0.559666 21.690357 0.000000
v 0.282710 21.836594 0.000000
v 0.000000 11.585685 0.000000
v 0.282710 21.836594 0.000000
v 0.000000 21.971371 0.000000
v 0.000000 11.585685 0.000000
v 0.000000 21.971371 0.000000
v -0.282710 21.836594 0.000000
v 0.000000 11.585685 0.000000
v -0.282710 21.836594 0.000000
v -0.559666 21.690357 0.000000
v 0.000000 11.585685 0.000000
v -0.559666 21.690357 0.000000
v -0.830405 21.532907 0.000000
v 0.000000 11.585685 0.000000
v -0.830405 21.532907 0.000000
v -1.094472 21.364508 0.000000
v 0.000000 11.585685 0.000000
v -1.094472 21.364508 0.000000
v -1.351424 21.185440 0.000000
v 0.000000 11.585685 0.000000
v -1.351424 21.185440 0.000000
v -1.600832 20.996006 0.000000
v 0.000000 11.585685 0.000000
v -1.600832 20.996006 0.000000
v -1.842277 20.796522 0.000000
v 0.000000 11.585685 0.000000
v -1.842277 20.796522 0.000000
v -2.075355 20.587322 0.000000
v 0.000000 11.585685 0.000000
v -2.075355 20.587322 0.000000
v -2.299674 20.368757 0.000000
v 0.000000 11.585685 0.000000
v -2.299674 20.368757 0.000000
v -2.514859 20.141193 0.000000
v 0.000000 11.585685 0.000000
v -2.514859 20.141193 0.000000
v -2.720549 19.905014 0.000000
v 0.000000 11.585685 0.000000
v -2.720549 19.905014 0.000000
v -2.916399 19.660610 0.000000
v 0.000000 11.585685 0.000000
v -2.916399 19.660610 0.000000
v -3.102082 19.408398 0.000000
v 0.000000 11.585685 0.000000
v -3.102082 19.408398 0.000000
v -3.277286 19.148794 0.000000
v 0.000000 11.585685 0.000000
v -3.277286 19.148794 0.000000
v -3.441716 18.882238 0.000000
v 0.000000 11.585685 0.000000
v -3.441716 18.882238 0.000000
v -3.595098 18.609175 0.000000
v 0.000000 11.585685 0.000000
v -3.595098 18.609175 0.000000
v -3.737175 18.330063 0.000000
v 0.000000 11.585685 0.000000
v -3.737175 18.330063 0.000000
v -3.867708 18.045368 0.000000
v 0.000000 11.585685 0.000000
v -3.867708 18.045368 0.000000
v -3.986479 17.755569 0.000000
v 0.000000 11.585685 0.000000
v -3.986479 17.755569 0.000000
v -4.093288 17.461153 0.000000
v 0.000000 11.585685 0.000000
v -4.093288 17.461153 0.000000
v -4.187957 17.162611 0.000000
v 0.000000 11.585685 0.000000
v -4.187957 17.162611 0.000000
v -4.270327 16.860443 0.000000
v 0.000000 11.585685 0.000000
v -4.270327 16.860443 0.000000
v -4.340260 16.555157 0.000000
v 0.000000 11.585685 0.000000
v -4.340260 16.555157 0.000000
v -4.397637 16.247265 0.000000
v 0.000000 11.585685 0.000000
v -4.397637 16.247265 0.000000
v -4.442365 15.937283 0.000000
v 0.000000 11.585685 0.000000
v -4.442365 15.937283 0.000000
v -4.474366 15.625730 0.000000
v 0.000000 11.585685 0.000000
v -4.474366 15.625730 0.000000
v -4.493589 15.313128 0.000000
v 0.000000 11.585685 0.000000
v -4.493589 15.313128 0.000000
v -4.500000 15.000000 0.000000
v 0.000000 11.585685 0.000000
v -4.500000 15.000000 0.000000
v -4.500000 1.200000 0.000000
vn -0.0000 -0.0000 1.0000
vt 0.500000 0.500000
vt 0.000000 0.000000
vt 1.000000 0.000000
vt 1.000000 0.664376
vt 0.999288 0.679451
vt 0.997152 0.694501
vt 0.993596 0.709500
vt 0.988626 0.724423
vt 0.982251 0.739246
vt 0.974481 0.753944
vt 0.965329 0.768491
vt 0.954810 0.782864
vt 0.942942 0.797038
vt 0.929745 0.810990
vt 0.915242 0.824696
vt 0.899455 0.838133
vt 0.882413 0.851279
vt 0.864143 0.864112
vt 0.844676 0.876610
vt 0.824044 0.888753
vt 0.802283 0.900519
vt 0.779429 0.911889
vt 0.755519 0.922845
vt 0.730595 0.933367
vt 0.704697 0.943439
vt 0.677870 0.953043
vt 0.650158 0.962163
vt 0.621608 0.970784
vt 0.592267 0.978891
vt 0.562185 0.986471
vt 0.531412 0.993511
vt 0.500000 1.000000
vt 0.468588 0.993511
vt 0.437815 0.986471
vt 0.407733 0.978891
vt 0.378392 0.970784
vt 0.349842 0.962163
vt 0.322130 0.953043
vt 0.295303 0.943439
vt 0.269405 0.933367
vt 0.244481 0.922845
vt 0.220571 0.911889
vt 0.197717 0.900519
vt 0.175956 0.888753
vt 0.155324 0.876610
vt 0.135857 0.864112
vt 0.117587 0.851279
vt 0.100545 0.838133
vt 0.084758 0.824696
vt 0.070255 0.810990
vt 0.057058 0.797038
vt 0.045190 0.782864
vt 0.034671 0.768491
vt 0.025519 0.753944
vt 0.017749 0.739246
vt 0.011374 0.724423
vt 0.006404 0.709500
vt 0.002848 0.694501
vt 0.000712 0.679451
vt 0.000000 0.664376
s 0
f 1/1/1 2/2/1 3/3/1
f 4/1/1 5/3/1 6/4/1
f 7/1/1 8/4/1 9/5/1
f 10/1/1 11/5/1 12/6/1
f 13/1/1 14/6/1 15/7/1
f 16/1/1 17/7/1 18/8/1
f 19/1/1 20/8/1 21/9/1
f 22/1/1 23/9/1 24/10/1
f 25/1/1 26/10/1 27/11/1
f 28/1/1 29/11/1 30/12/1
f 31/1/1 32/12/1 33/13/1
f 34/1/1 35/13/1 36/14/1
f 37/1/1 38/14/1 39/15/1
f 40/1/1 41/15/1 42/16/1
f 43/1/1 44/16/1 45/17/1
f 46/1/1 47/17/1 48/18/1
f 49/1/1 50/18/1 51/19/1
f 52/1/1 53/19/1 54/20/1
f 55/1/1 56/20/1 57/21/1
f 58/1/1 59/21/1 60/22/1
f 61/1/1 62/22/1 63/23/1
f 64/1/1 65/23/1 66/24/1
f 67/1/1 68/24/1 69/25/1
f 70/1/1 71/25/1 72/26/1
f 73/1/1 74/26/1 75/27/1
f 76/1/1 77/27/1 78/28/1
f 79/1/1 80/28/1 81/29/1
f 82/1/1 83/29/1 84/30/1
f 85/1/1 86/30/1 87/31/1
f 88/1/1 89/31/1 90/32/1
f 91/1/1 92/32/1 93/33/1
f 94/1/1 95/33/1 96/34/1
f 97/1/1 98/34/1 99/35/1
f 100/1/1 101/35/1 102/36/1
f 103/1/1 104/36/1 105/37/1
f 106/1/1 107/37/1 108/38/1
f 109/1/1 110/38/1 111/39/1
f 112/1/1 113/39/1 114/40/1
f 115/1/1 116/40/1 117/41/1
f 118/1/1 119/41/1 120/42/1
f 121/1/1 122/42/1 123/43/1
f 124/1/1 125/43/1 126/44/1
f 127/1/1 128/44/1 129/45/1
f 130/1/1 131/45/1 132/46/1
f 133/1/1 134/46/1 135/47/1
f 136/1/1 137/47/1 138/48/1
f 139/1/1 140/48/1 141/49/1
f 142/1/1 143/49/1 144/50/1
f 145/1/1 146/50/1 147/51/1
f 148/1/1 149/51/1 150/52/1
f 151/1/1 152/52/1 153/53/1
f 154/1/1 155/53/1 156/54/1
f 157/1/1 158/54/1 159/55/1
f 160/1/1 161/55/1 162/56/1
f 163/1/1 164/56/1 165/57/1
f 166/1/1 167/57/1 168/58/1
f 169/1/1 170/58/1 171/59/1
f 172/1/1 173/59/1 174/60/1
f 175/1/1 176/60/1 177/2/1
