# Blender 5.1.2
# www.blender.org
o st_rock_00
v 0.000000 -0.297219 0.000000
v 0.440184 -0.204039 0.319809
v -0.143650 -0.174329 0.442117
v -0.479983 -0.179995 0.000000
v -0.095463 -0.115851 -0.293810
v 0.313206 -0.145181 -0.227555
v 0.115656 0.140356 0.355959
v -0.391123 0.181298 0.284164
v -0.260032 0.120533 -0.188922
v 0.139647 0.169471 -0.429797
v 0.280055 0.105021 0.000000
v 0.000000 0.394476 0.000000
v -0.122779 -0.260058 0.377881
v -0.079885 -0.313723 0.245865
v -0.040838 -0.382018 0.125690
v 0.071711 -0.256224 0.052101
v 0.204505 -0.306760 0.148580
v 0.284091 -0.229837 0.206402
v 0.295987 -0.209621 0.379324
v 0.139070 -0.208606 0.428007
v -0.015881 -0.201859 0.463051
v 0.505163 -0.234159 -0.183509
v 0.492994 -0.228518 0.000000
v 0.418590 -0.194030 0.152060
v 0.083486 -0.298293 -0.060655
v 0.248948 -0.373425 -0.180869
v 0.398323 -0.322254 -0.289396
v -0.355723 -0.232824 0.000000
v -0.231759 -0.281247 0.000000
v -0.117738 -0.340333 0.000000
v -0.286073 -0.222681 0.423557
v -0.348893 -0.199900 0.253484
v -0.435677 -0.197497 0.125219
v -0.120062 -0.254304 -0.369520
v -0.101630 -0.399118 -0.312790
v -0.035675 -0.333716 -0.109798
v -0.359376 -0.162909 -0.103289
v -0.291433 -0.166978 -0.211737
v -0.210863 -0.164137 -0.312202
v -0.012380 -0.157356 -0.360963
v 0.085663 -0.128495 -0.263639
v 0.195809 -0.138674 -0.250940
v 0.281164 0.055362 0.043387
v 0.516613 -0.000000 0.167855
v 0.550355 -0.120445 0.283176
v 0.359443 -0.078664 -0.184945
v 0.556928 0.000000 -0.180954
v 0.401926 0.079140 -0.062022
v 0.061337 0.074437 0.377559
v 0.000000 -0.000000 0.435237
v -0.086155 -0.104555 0.530326
v 0.324826 -0.089041 0.322253
v 0.278265 0.000000 0.382999
v 0.208602 0.090120 0.413460
v -0.398093 0.087122 0.204832
v -0.360498 -0.000000 0.117131
v -0.366273 -0.072120 0.056520
v -0.262608 -0.113452 0.520502
v -0.394432 0.000000 0.542889
v -0.343605 0.094189 0.340883
v -0.308719 0.084626 -0.306274
v -0.322860 -0.000000 -0.444379
v -0.254079 -0.109767 -0.503598
v -0.506834 -0.099797 -0.078210
v -0.470974 0.000000 -0.153026
v -0.452399 0.099007 -0.232774
v 0.246914 0.106672 -0.489396
v 0.272619 -0.000000 -0.375228
v 0.274445 -0.075231 -0.272271
v -0.085553 -0.103824 -0.526618
v 0.000000 0.000000 -0.536052
v 0.083716 0.101595 -0.515312
v 0.231893 0.105119 0.066649
v 0.328950 0.188474 0.238995
v 0.256922 0.199990 0.380397
v 0.013387 0.170151 0.390314
v -0.118568 0.177852 0.364908
v -0.296031 0.209652 0.379380
v -0.325978 0.151101 0.118417
v -0.454793 0.210811 0.000000
v -0.375595 0.174100 -0.136441
v -0.241471 0.171013 -0.309459
v -0.110839 0.166258 -0.341121
v 0.013864 0.176220 -0.404237
v 0.271338 0.211211 -0.401740
v 0.362027 0.207426 -0.263027
v 0.296965 0.134617 -0.085351
v 0.031735 0.296861 0.097672
v 0.074859 0.293984 0.230396
v 0.138793 0.293977 0.427167
v 0.344061 0.225192 0.000000
v 0.166322 0.201837 0.000000
v 0.100576 0.290723 0.000000
v -0.099313 0.354843 0.072154
v -0.214400 0.321603 0.155769
v -0.326281 0.263970 0.237055
v -0.101646 0.363180 -0.073849
v -0.237752 0.356632 -0.172735
v -0.305741 0.247352 -0.222131
v 0.032559 0.304568 -0.100208
v 0.070392 0.276441 -0.216648
v 0.094340 0.199822 -0.290354
v 0.174108 0.322817 -0.126497
v 0.243857 0.207371 -0.100442
v 0.164389 0.199494 -0.193252
v -0.069424 0.336990 -0.213661
v -0.022508 0.231397 -0.293424
v -0.204913 0.307371 -0.332897
v -0.227284 0.340929 0.000000
v -0.320746 0.259492 -0.077678
v -0.297737 0.240877 0.072105
v -0.071418 0.346671 0.219799
v -0.215391 0.323088 0.349919
v -0.030225 0.310727 0.394019
v 0.157242 0.291546 0.114243
v 0.204970 0.248741 0.240958
v 0.256109 0.217790 0.105488
v 0.404244 0.097236 -0.199504
v 0.273751 0.000000 -0.198890
v 0.302559 0.093497 -0.310393
v -0.080366 0.120549 -0.553065
v -0.170231 -0.000000 -0.523918
v -0.248064 0.114985 -0.471843
v -0.636512 0.139300 -0.109169
v -0.312838 0.000000 0.000000
v -0.460414 0.100761 0.078966
v -0.228150 0.105754 0.433963
v -0.179016 -0.000000 0.550956
v -0.057350 0.086024 0.394668
v 0.346258 0.107001 0.355224
v 0.355838 -0.000001 0.258530
v 0.377484 0.090799 0.186298
v 0.174344 -0.000000 -0.536576
v 0.242110 -0.112225 -0.460517
v 0.051952 -0.077928 -0.357524
v -0.417100 -0.000000 -0.303039
v -0.294648 -0.091053 -0.302279
v -0.338270 -0.081367 -0.166946
v -0.452386 0.000000 0.328676
v -0.426764 -0.102653 0.210620
v -0.407312 -0.125868 0.417860
v 0.118243 0.000000 0.363915
v 0.062996 -0.094494 0.433526
v 0.140996 -0.065356 0.268188
v 0.435401 0.000000 0.000000
v 0.532265 -0.116486 0.091289
v 0.456318 -0.099865 -0.078264
v 0.204086 -0.306132 -0.331555
v 0.085143 -0.413292 -0.262040
v 0.024613 -0.253042 -0.320873
v -0.204083 -0.247663 -0.239913
v -0.194873 -0.361318 -0.141583
v -0.242778 -0.206453 -0.099997
v -0.372601 -0.316852 0.153469
v -0.172531 -0.319893 0.125351
v -0.226061 -0.274335 0.265752
v 0.342304 -0.276932 -0.082898
v 0.319113 -0.258170 0.077282
v 0.157321 -0.235983 0.000000
v 0.027046 -0.278050 0.352583
v 0.058857 -0.285694 0.181138
v 0.175765 -0.263647 0.285543
vn 0.6241 -0.7265 -0.2874
vn 0.2234 -0.9709 -0.0867
vn 0.3048 -0.8325 -0.4626
vn 0.3371 -0.9207 0.1965
vn 0.1757 -0.9499 0.2586
vn 0.5738 -0.8098 -0.1222
vn -0.2583 -0.6686 0.6973
vn -0.7306 0.5914 0.3412
vn 0.4086 -0.8495 -0.3336
vn 0.1467 -0.4738 -0.8683
vn 0.1913 0.1714 0.9665
vn 0.0052 -0.7859 0.6183
vn -0.6770 0.3850 0.6272
vn 0.0283 -0.9983 -0.0504
vn 0.7147 -0.0499 -0.6976
vn 0.0219 -0.4232 0.9058
vn -0.6012 0.6956 0.3933
vn -0.5240 -0.3875 -0.7584
vn 0.0099 0.9777 -0.2096
vn 0.8826 -0.4701 0.0119
vn 0.6687 0.6482 -0.3643
vn 0.6838 0.5058 0.5258
vn -0.1301 0.9904 -0.0459
vn -0.0896 0.9766 0.1957
vn -0.1744 0.9427 -0.2844
vn 0.6614 0.5213 0.5393
vn 0.7151 0.2883 -0.6368
vn 0.5041 0.3801 -0.7755
vn 0.6297 0.6317 -0.4521
vn 0.6407 0.3232 -0.6965
vn 0.6587 0.5802 0.4790
vn -0.0537 0.9978 -0.0387
vn -0.0247 0.9987 0.0434
vn -0.0427 0.9985 0.0342
vn -0.2356 0.9309 -0.2792
vn 0.2117 0.7606 -0.6137
vn 0.3940 0.9144 -0.0929
vn 0.2098 0.7111 -0.6710
vn 0.3850 0.9191 -0.0834
vn 0.0741 0.9832 -0.1671
vn 0.2680 0.6537 -0.7077
vn 0.4108 0.6587 -0.6304
vn 0.0422 0.9574 -0.2858
vn -0.7252 0.6021 -0.3339
vn 0.2519 0.8968 -0.3638
vn -0.3193 0.8023 -0.5043
vn 0.3055 0.2571 -0.9168
vn -0.2378 -0.1023 -0.9659
vn -0.7610 0.0937 -0.6420
vn -0.8704 -0.3918 -0.2981
vn -0.3327 0.9412 0.0591
vn -0.1180 0.9883 0.0970
vn -0.8138 0.5660 -0.1321
vn -0.1405 0.9883 0.0587
vn -0.1825 0.9738 0.1359
vn -0.7021 0.7041 0.1066
vn -0.7310 0.6543 0.1936
vn -0.7584 0.6362 0.1417
vn -0.5637 0.7990 -0.2094
vn -0.7901 0.5986 -0.1324
vn -0.5354 0.6844 -0.4949
vn -0.2550 0.9540 0.1577
vn -0.4369 0.5171 0.7360
vn -0.9600 0.2017 -0.1944
vn -0.8183 0.4154 -0.3973
vn 0.1917 0.7246 0.6619
vn -0.2126 0.9726 0.0940
vn -0.4632 0.8862 -0.0091
vn 0.4088 0.9122 -0.0267
vn 0.3433 0.9348 -0.0913
vn -0.1690 0.9856 -0.0084
vn 0.0183 0.9801 0.1979
vn 0.3292 0.9372 0.1155
vn 0.1052 0.9939 -0.0341
vn -0.7051 0.5996 0.3787
vn 0.1111 0.1751 0.9783
vn -0.2349 -0.0564 0.9704
vn -0.1932 -0.0857 0.9774
vn -0.2001 -0.0878 0.9758
vn 0.1701 -0.4354 0.8840
vn 0.6517 0.6318 0.4197
vn 0.0412 0.9991 0.0083
vn 0.3344 0.9362 -0.1086
vn 0.0463 0.9985 -0.0301
vn 0.7457 0.5516 -0.3738
vn 0.3075 0.9306 0.1986
vn 0.5999 0.7989 0.0439
vn 0.4819 0.7073 -0.5171
vn -0.1302 0.9907 -0.0390
vn 0.6309 0.7751 0.0359
vn 0.4342 0.8884 0.1488
vn 0.4363 0.8989 -0.0407
vn 0.8756 -0.0219 -0.4825
vn 0.7294 -0.3578 0.5831
vn 0.7439 -0.3962 0.5382
vn 0.3689 0.8531 0.3689
vn 0.5229 0.8439 0.1199
vn 0.0628 -0.1074 -0.9922
vn 0.4419 0.8884 0.1244
vn 0.6943 0.5402 0.4756
vn 0.0630 -0.0908 -0.9939
vn 0.5289 -0.7126 -0.4609
vn 0.7347 -0.1049 -0.6702
vn 0.8172 -0.2021 -0.5398
vn 0.6052 0.5587 -0.5671
vn 0.9999 0.0155 -0.0064
vn 0.9536 -0.3011 -0.0061
vn 0.9487 -0.0945 -0.3019
vn 0.9551 0.0243 -0.2951
vn -0.0433 0.6478 -0.7605
vn -0.0765 0.8047 -0.5887
vn 0.2256 0.0129 -0.9741
vn -0.0711 -0.0320 -0.9970
vn 0.2046 0.8672 -0.4539
vn -0.1942 0.9528 -0.2334
vn -0.0699 -0.1849 -0.9803
vn -0.4362 0.1092 -0.8932
vn -0.1425 0.9631 -0.2282
vn -0.0442 0.9449 -0.3242
vn -0.1320 -0.0820 -0.9878
vn -0.4541 0.1856 -0.8714
vn -0.4603 0.0885 -0.8833
vn -0.8411 0.4952 -0.2173
vn -0.7800 0.6007 -0.1756
vn -0.7793 0.6117 0.1362
vn 0.0613 0.7629 -0.6436
vn -0.5633 -0.4516 -0.6919
vn -0.5460 0.6192 0.5643
vn -0.1661 0.8376 -0.5205
vn -0.1592 0.9262 -0.3416
vn -0.4790 -0.7250 0.4949
vn -0.4523 -0.8567 0.2479
vn -0.5823 0.4934 0.6461
vn -0.4173 0.5438 0.7281
vn -0.5430 0.7290 0.4168
vn -0.8627 0.3641 -0.3510
vn -0.6352 -0.7278 -0.2585
vn -0.7320 -0.6137 0.2959
vn -0.4100 0.8626 0.2965
vn -0.8277 0.3961 -0.3975
vn -0.7155 0.0628 0.6958
vn -0.3483 0.8801 0.3227
vn -0.0364 -0.2340 0.9716
vn -0.6276 -0.0010 0.7786
vn 0.1642 0.5407 0.8250
vn -0.0253 0.7363 0.6762
vn 0.2265 0.7680 0.5991
vn 0.2493 0.4450 0.8602
vn -0.1743 0.1965 0.9649
vn -0.0426 -0.2297 0.9723
vn 0.5176 0.3017 0.8007
vn 0.4326 0.6041 0.6693
vn 0.1713 0.5114 0.8421
vn 0.1363 -0.0635 0.9886
vn 0.3283 0.0387 0.9438
vn -0.3171 0.3984 0.8606
vn 0.3906 -0.0092 0.9205
vn 0.8458 0.0827 0.5271
vn 0.3755 0.1117 0.9201
vn 0.7250 0.6100 0.3196
vn 0.7874 -0.3730 0.4907
vn 0.9785 -0.0830 0.1888
vn 0.9143 0.3829 0.1323
vn 0.5459 0.5914 -0.5935
vn 0.2155 0.5175 0.8281
vn 0.3523 0.6968 0.6247
vn 0.4257 0.4990 0.7548
vn 0.4335 0.7620 -0.4811
vn 0.4844 0.7152 -0.5038
vn 0.7167 0.4679 0.5172
vn 0.0799 0.7546 -0.6513
vn 0.8059 -0.3311 -0.4908
vn 0.9773 -0.1624 -0.1360
vn 0.1389 0.3200 -0.9372
vn -0.0029 0.2023 -0.9793
vn 0.8429 0.1610 -0.5134
vn -0.4431 -0.6707 -0.5948
vn -0.0012 -0.9166 -0.3998
vn 0.6677 -0.5913 -0.4524
vn 0.6343 -0.7719 0.0427
vn -0.0750 -0.9871 -0.1411
vn -0.3448 -0.8725 -0.3461
vn 0.6732 -0.5226 -0.5232
vn 0.6918 -0.5395 -0.4799
vn -0.4879 -0.8704 -0.0657
vn -0.0447 0.9603 -0.2753
vn -0.5754 0.7223 -0.3837
vn -0.8704 -0.4746 -0.1313
vn -0.3720 0.4453 -0.8144
vn -0.9369 -0.0952 -0.3365
vn -0.5532 -0.7470 -0.3688
vn -0.5908 -0.7957 -0.1335
vn -0.5276 -0.8281 -0.1895
vn -0.3711 -0.4680 -0.8021
vn -0.6603 -0.7483 -0.0635
vn -0.6020 -0.6222 -0.5004
vn -0.8976 -0.3529 -0.2641
vn -0.8356 -0.1869 -0.5165
vn -0.3538 -0.5169 -0.7795
vn -0.4012 -0.7048 -0.5850
vn -0.8952 -0.2465 0.3713
vn -0.9172 0.0053 -0.3984
vn -0.9025 0.3172 -0.2914
vn -0.6522 0.7243 0.2236
vn -0.6555 0.7341 0.1773
vn -0.8940 0.2235 -0.3883
vn -0.9519 -0.3015 0.0556
vn -0.9531 -0.1586 0.2578
vn -0.4189 -0.6180 0.6653
vn -0.8963 0.3403 -0.2844
vn -0.7666 -0.3884 0.5114
vn -0.7813 -0.6241 0.0034
vn -0.6226 -0.7722 0.1265
vn -0.4588 -0.5327 0.7112
vn 0.1340 -0.6738 0.7267
vn -0.2556 0.4847 0.8365
vn 0.5025 0.2314 0.8330
vn 0.5007 0.3192 0.8046
vn -0.1926 -0.3174 0.9285
vn -0.1089 -0.3928 0.9131
vn 0.4906 0.3124 0.8134
vn 0.8931 -0.2434 0.3784
vn -0.0658 -0.8313 0.5519
vn -0.2917 -0.6385 0.7122
vn 0.5443 -0.1742 0.8206
vn 0.2237 0.1022 0.9693
vn 0.7562 0.4827 0.4418
vn 0.2077 0.7272 0.6543
vn -0.1962 0.4574 0.8673
vn 0.3490 0.3314 0.8766
vn 0.4623 0.5892 0.6626
vn 0.2981 0.9436 -0.1442
vn 0.9779 0.1894 -0.0883
vn 0.4135 0.6635 0.6235
vn 0.6520 0.6190 0.4379
vn 0.8337 0.3772 -0.4034
vn 0.8367 0.4355 -0.3321
vn 0.8028 -0.2544 0.5392
vn 0.3353 -0.8181 -0.4671
vn 0.5372 -0.8407 -0.0680
vn 0.6549 -0.6019 0.4570
vn 0.9130 0.0122 -0.4078
vn 0.9512 0.3039 0.0537
vn 0.6470 0.6020 -0.4679
vn 0.3504 0.3202 -0.8802
vn 0.2001 0.4074 -0.8911
vn 0.0136 -0.9115 -0.4111
vn -0.0342 -0.8680 0.4954
vn 0.2254 0.4316 -0.8734
vn 0.1427 0.4350 -0.8890
vn 0.4221 -0.7743 -0.4715
vn -0.1708 -0.3958 -0.9023
vn 0.0613 0.3918 -0.9180
vn 0.7076 -0.0223 -0.7062
vn 0.0534 -0.8670 0.4955
vn -0.1652 -0.9218 0.3507
vn 0.2354 -0.2554 -0.9377
vn 0.3051 -0.3134 -0.8993
vn 0.3095 -0.2632 -0.9137
vn -0.3833 0.4946 -0.7800
vn -0.0653 0.4877 -0.8706
vn -0.8070 -0.3016 -0.5077
vn 0.1115 -0.9559 0.2718
vn -0.7541 -0.4637 -0.4651
vn -0.6578 -0.5227 -0.5423
vn -0.8420 -0.3904 -0.3724
vn -0.9510 -0.2427 -0.1915
vn -0.6726 -0.7393 0.0317
vn -0.3398 -0.9234 -0.1783
vn 0.1590 -0.9855 0.0594
vn -0.4298 -0.8293 0.3571
vn -0.9579 -0.2704 -0.0967
vn -0.3041 -0.7786 -0.5489
vn -0.2833 -0.7988 -0.5307
vn -0.3342 -0.7860 -0.5202
vn -0.3912 -0.9202 0.0098
vn -0.3188 -0.8162 -0.4819
vn -0.4594 -0.8865 -0.0562
vn -0.7866 -0.5011 -0.3609
vn -0.7942 -0.2938 0.5319
vn -0.0527 -0.9610 -0.2714
vn 0.0304 -0.9473 0.3190
vn -0.4041 -0.5458 0.7340
vn -0.5224 -0.8490 0.0792
vn -0.4262 -0.9038 -0.0389
vn -0.4002 -0.8465 0.3510
vn -0.2254 -0.9487 0.2219
vn -0.2079 -0.9279 0.3096
vn -0.1468 -0.9552 0.2568
vn 0.0925 -0.5825 0.8075
vn 0.3977 0.4670 -0.7898
vn 0.2814 -0.9584 0.0481
vn 0.3068 -0.8848 0.3508
vn 0.4116 -0.8604 0.3005
vn 0.5035 -0.8052 0.3133
vn 0.2290 -0.9624 0.1459
vn -0.1770 -0.9802 0.0892
vn 0.1174 -0.7612 0.6379
vn 0.1180 -0.7609 0.6380
vn 0.3542 -0.8887 0.2911
vn 0.5303 -0.7865 0.3164
vn 0.0945 -0.8868 -0.4524
vn -0.0406 -0.9070 -0.4192
vn 0.4146 -0.8376 0.3558
vn 0.2509 -0.8981 0.3613
vn -0.2551 -0.6188 0.7430
vn -0.0507 -0.9308 0.3619
vn 0.4036 -0.7329 0.5477
vn -0.0032 -0.8238 0.5669
vn 0.0987 -0.8008 0.5907
vn 0.2361 -0.9678 0.0870
vn 0.1263 -0.9897 0.0676
vn 0.2678 -0.8735 0.4065
vn 0.1130 -0.9167 0.3833
vn 0.7167 -0.6919 -0.0866
vn -0.1907 -0.9527 -0.2366
vn -0.0745 -0.9556 0.2852
vn 0.5043 -0.7877 0.3538
vn 0.3527 -0.9319 0.0847
vn 0.0837 -0.9904 0.1100
vt 0.500000 0.202781
vt 0.571711 0.243776
vt 0.459162 0.117982
vt 0.940184 0.295961
vt 0.784091 0.270163
vt 0.918590 0.305970
vt 0.382262 0.159667
vt 0.464325 0.166284
vt 0.583486 0.201707
vt 1.050354 0.379555
vt 0.356350 0.325671
vt 0.484119 0.298141
vt 0.413845 0.395445
vt 0.020017 0.320005
vt 0.064323 0.302503
vt 0.133727 0.427880
vt 0.404537 0.384149
vt 0.289137 0.335863
vt 0.245921 0.390233
vt 0.813206 0.354819
vt 0.695809 0.361326
vt 0.774445 0.424769
vt 0.824826 0.410959
vt 0.237392 0.386548
vt -0.006834 0.400203
vt 0.414447 0.396176
vt 0.859443 0.421336
vt 0.615656 0.640356
vt 0.756922 0.699990
vt 0.638793 0.793977
vt 0.108877 0.681298
vt 0.203969 0.709652
vt 0.173719 0.763970
vt 0.239968 0.620533
vt 0.124405 0.674100
vt 0.194259 0.747352
vt 0.639647 0.669471
vt 0.513864 0.676220
vt 0.594340 0.699822
vt 0.780055 0.605021
vt 0.796965 0.634617
vt 0.844061 0.725192
vt 0.600576 0.790723
vt 0.532559 0.804568
vt 0.500000 0.894476
vt 0.666322 0.701837
vt 0.674108 0.822817
vt 0.743857 0.707371
vt 0.570392 0.776441
vt 0.664389 0.699494
vt 0.862027 0.707426
vt 0.771338 0.711211
vt 0.398354 0.863180
vt 0.430576 0.836990
vt 0.477492 0.731397
vt 0.262248 0.856632
vt 0.295087 0.807371
vt 0.389161 0.666259
vt 0.258529 0.671013
vt 0.400687 0.854843
vt 0.272716 0.840929
vt 0.179254 0.759492
vt 0.285600 0.821603
vt 0.202263 0.740877
vt 0.045207 0.710811
vt 0.174022 0.651101
vt 0.531735 0.796861
vt 0.428582 0.846671
vt 0.284609 0.823088
vt 0.574859 0.793984
vt 0.469775 0.810727
vt 0.381432 0.677852
vt 0.513387 0.670151
vt 0.657242 0.791546
vt 0.704970 0.748741
vt 0.756109 0.717790
vt 0.828950 0.688474
vt 0.731893 0.605119
vt 0.901926 0.579140
vt 1.056928 0.500000
vt 0.904244 0.597236
vt 0.773751 0.500000
vt 0.802559 0.593497
vt 0.772619 0.500000
vt 0.746914 0.606672
vt 0.583716 0.601595
vt 0.500000 0.500000
vt 0.419634 0.620549
vt 0.329769 0.500000
vt 0.251936 0.614985
vt 0.177140 0.500000
vt 0.191281 0.584626
vt 0.047601 0.599007
vt 0.029026 0.500000
vt -0.136512 0.639300
vt 0.187162 0.500000
vt 0.039586 0.600761
vt 0.139502 0.500000
vt 0.101907 0.587122
vt 0.156395 0.594189
vt 0.105568 0.500000
vt 0.271850 0.605754
vt 0.320984 0.500000
vt 0.442650 0.586024
vt 0.561337 0.574437
vt 0.708602 0.590120
vt 0.778265 0.500000
vt 0.846258 0.607001
vt 0.855838 0.499999
vt 0.877484 0.590799
vt 1.016613 0.500000
vt 0.781164 0.555362
vt 0.674344 0.500000
vt 0.742110 0.387775
vt 0.551952 0.422072
vt 0.585663 0.371505
vt 0.487620 0.342644
vt 0.082900 0.500000
vt 0.205352 0.408947
vt 0.161730 0.418633
vt 0.208567 0.333022
vt 0.140624 0.337091
vt 0.047614 0.500000
vt 0.073236 0.397347
vt 0.092688 0.374132
vt 0.151107 0.300100
vt 0.213927 0.277319
vt 0.618243 0.500000
vt 0.562996 0.405506
vt 0.640996 0.434644
vt 0.639070 0.291394
vt 0.795987 0.290379
vt 0.935401 0.500000
vt 1.032265 0.383514
vt 0.956318 0.400135
vt 0.992994 0.271482
vt 1.005163 0.265841
vt 0.898323 0.177746
vt 0.748948 0.126575
vt 0.704086 0.193868
vt 0.585143 0.086708
vt 0.524613 0.246958
vt 0.398370 0.100882
vt 0.379938 0.245696
vt 0.295917 0.252337
vt 0.305127 0.138682
vt 0.257222 0.293547
vt 0.268241 0.218753
vt 0.144277 0.267176
vt 0.127399 0.183148
vt 0.327469 0.180107
vt 0.273939 0.225665
vt 0.420115 0.186277
vt 0.377221 0.239942
vt 0.842304 0.223068
vt 0.819113 0.241830
vt 0.657321 0.264017
vt 0.704505 0.193240
vt 0.527046 0.221950
vt 0.558857 0.214306
vt 0.675765 0.236353
s 0
f 1/1/1 16/2/1 15/3/1
f 2/4/2 18/5/2 24/6/2
f 1/1/3 15/3/3 30/7/3
f 1/1/4 30/7/4 36/8/4
f 1/1/5 36/8/5 25/9/5
f 2/4/6 24/6/6 45/10/6
f 3/11/7 21/12/7 51/13/7
f 4/14/8 33/15/8 57/16/8
f 5/17/9 39/18/9 63/19/9
f 6/20/10 42/21/10 69/22/10
f 2/4/11 45/10/11 52/23/11
f 3/11/12 51/13/12 58/24/12
f 4/14/13 57/16/13 64/25/13
f 5/17/14 63/19/14 70/26/14
f 6/20/15 69/22/15 46/27/15
f 7/28/16 75/29/16 90/30/16
f 8/31/17 78/32/17 96/33/17
f 9/34/18 81/35/18 99/36/18
f 10/37/19 84/38/19 102/39/19
f 11/40/20 87/41/20 91/42/20
f 93/43/21 100/44/21 12/45/21
f 92/46/22 103/47/22 93/43/22
f 91/42/23 104/48/23 92/46/23
f 93/43/24 103/47/24 100/44/24
f 103/47/25 101/49/25 100/44/25
f 92/46/26 104/48/26 103/47/26
f 104/48/27 105/50/27 103/47/27
f 103/47/28 105/50/28 101/49/28
f 105/50/29 102/39/29 101/49/29
f 91/42/30 87/41/30 104/48/30
f 87/41/31 86/51/31 104/48/31
f 104/48/32 86/51/32 105/50/32
f 86/51/33 85/52/33 105/50/33
f 105/50/34 85/52/34 102/39/34
f 85/52/35 10/37/35 102/39/35
f 100/44/36 97/53/36 12/45/36
f 101/49/37 106/54/37 100/44/37
f 102/39/38 107/55/38 101/49/38
f 100/44/39 106/54/39 97/53/39
f 106/54/40 98/56/40 97/53/40
f 101/49/41 107/55/41 106/54/41
f 107/55/42 108/57/42 106/54/42
f 106/54/43 108/57/43 98/56/43
f 108/57/44 99/36/44 98/56/44
f 102/39/45 84/38/45 107/55/45
f 84/38/46 83/58/46 107/55/46
f 107/55/47 83/58/47 108/57/47
f 83/58/48 82/59/48 108/57/48
f 108/57/49 82/59/49 99/36/49
f 82/59/50 9/34/50 99/36/50
f 97/53/51 94/60/51 12/45/51
f 98/56/52 109/61/52 97/53/52
f 99/36/53 110/62/53 98/56/53
f 97/53/54 109/61/54 94/60/54
f 109/61/55 95/63/55 94/60/55
f 98/56/56 110/62/56 109/61/56
f 110/62/57 111/64/57 109/61/57
f 109/61/58 111/64/58 95/63/58
f 111/64/59 96/33/59 95/63/59
f 99/36/60 81/35/60 110/62/60
f 81/35/61 80/65/61 110/62/61
f 110/62/62 80/65/62 111/64/62
f 80/65/63 79/66/63 111/64/63
f 111/64/64 79/66/64 96/33/64
f 79/66/65 8/31/65 96/33/65
f 94/60/66 88/67/66 12/45/66
f 95/63/67 112/68/67 94/60/67
f 96/33/68 113/69/68 95/63/68
f 94/60/69 112/68/69 88/67/69
f 112/68/70 89/70/70 88/67/70
f 95/63/71 113/69/71 112/68/71
f 113/69/72 114/71/72 112/68/72
f 112/68/73 114/71/73 89/70/73
f 114/71/74 90/30/74 89/70/74
f 96/33/75 78/32/75 113/69/75
f 78/32/76 77/72/76 113/69/76
f 113/69/77 77/72/77 114/71/77
f 77/72/78 76/73/78 114/71/78
f 114/71/79 76/73/79 90/30/79
f 76/73/80 7/28/80 90/30/80
f 88/67/81 93/43/81 12/45/81
f 89/70/82 115/74/82 88/67/82
f 90/30/83 116/75/83 89/70/83
f 88/67/84 115/74/84 93/43/84
f 115/74/85 92/46/85 93/43/85
f 89/70/86 116/75/86 115/74/86
f 116/75/87 117/76/87 115/74/87
f 115/74/88 117/76/88 92/46/88
f 117/76/89 91/42/89 92/46/89
f 90/30/90 75/29/90 116/75/90
f 75/29/91 74/77/91 116/75/91
f 116/75/92 74/77/92 117/76/92
f 74/77/93 73/78/93 117/76/93
f 117/76/94 73/78/94 91/42/94
f 73/78/95 11/40/95 91/42/95
f 48/79/96 87/41/96 11/40/96
f 47/80/97 118/81/97 48/79/97
f 46/27/98 119/82/98 47/80/98
f 48/79/99 118/81/99 87/41/99
f 118/81/100 86/51/100 87/41/100
f 47/80/101 119/82/101 118/81/101
f 119/82/102 120/83/102 118/81/102
f 118/81/103 120/83/103 86/51/103
f 120/83/104 85/52/104 86/51/104
f 46/27/105 69/22/105 119/82/105
f 69/22/106 68/84/106 119/82/106
f 119/82/107 68/84/107 120/83/107
f 68/84/108 67/85/108 120/83/108
f 120/83/109 67/85/109 85/52/109
f 67/85/110 10/37/110 85/52/110
f 72/86/111 84/38/111 10/37/111
f 71/87/112 121/88/112 72/86/112
f 70/26/113 122/89/113 71/87/113
f 72/86/114 121/88/114 84/38/114
f 121/88/115 83/58/115 84/38/115
f 71/87/116 122/89/116 121/88/116
f 122/89/117 123/90/117 121/88/117
f 121/88/118 123/90/118 83/58/118
f 123/90/119 82/59/119 83/58/119
f 70/26/120 63/19/120 122/89/120
f 63/19/121 62/91/121 122/89/121
f 122/89/122 62/91/122 123/90/122
f 62/91/123 61/92/123 123/90/123
f 123/90/124 61/92/124 82/59/124
f 61/92/125 9/34/125 82/59/125
f 66/93/126 81/35/126 9/34/126
f 65/94/127 124/95/127 66/93/127
f 64/25/128 125/96/128 65/94/128
f 66/93/129 124/95/129 81/35/129
f 124/95/130 80/65/130 81/35/130
f 65/94/131 125/96/131 124/95/131
f 125/96/132 126/97/132 124/95/132
f 124/95/133 126/97/133 80/65/133
f 126/97/134 79/66/134 80/65/134
f 64/25/135 57/16/135 125/96/135
f 57/16/136 56/98/136 125/96/136
f 125/96/137 56/98/137 126/97/137
f 56/98/138 55/99/138 126/97/138
f 126/97/139 55/99/139 79/66/139
f 55/99/140 8/31/140 79/66/140
f 60/100/141 78/32/141 8/31/141
f 59/101/142 127/102/142 60/100/142
f 58/24/143 128/103/143 59/101/143
f 60/100/144 127/102/144 78/32/144
f 127/102/145 77/72/145 78/32/145
f 59/101/146 128/103/146 127/102/146
f 128/103/147 129/104/147 127/102/147
f 127/102/148 129/104/148 77/72/148
f 129/104/149 76/73/149 77/72/149
f 58/24/150 51/13/150 128/103/150
f 51/13/151 50/87/151 128/103/151
f 128/103/152 50/87/152 129/104/152
f 50/87/153 49/105/153 129/104/153
f 129/104/154 49/105/154 76/73/154
f 49/105/155 7/28/155 76/73/155
f 54/106/156 75/29/156 7/28/156
f 53/107/157 130/108/157 54/106/157
f 52/23/158 131/109/158 53/107/158
f 54/106/159 130/108/159 75/29/159
f 130/108/160 74/77/160 75/29/160
f 53/107/161 131/109/161 130/108/161
f 131/109/162 132/110/162 130/108/162
f 130/108/163 132/110/163 74/77/163
f 132/110/164 73/78/164 74/77/164
f 52/23/165 45/10/165 131/109/165
f 45/10/166 44/111/166 131/109/166
f 131/109/167 44/111/167 132/110/167
f 44/111/168 43/112/168 132/110/168
f 132/110/169 43/112/169 73/78/169
f 43/112/170 11/40/170 73/78/170
f 67/85/171 72/86/171 10/37/171
f 68/84/172 133/113/172 67/85/172
f 69/22/173 134/114/173 68/84/173
f 67/85/174 133/113/174 72/86/174
f 133/113/175 71/87/175 72/86/175
f 68/84/176 134/114/176 133/113/176
f 134/114/177 135/115/177 133/113/177
f 133/113/178 135/115/178 71/87/178
f 135/115/179 70/26/179 71/87/179
f 69/22/180 42/21/180 134/114/180
f 42/21/181 41/116/181 134/114/181
f 134/114/182 41/116/182 135/115/182
f 41/116/183 40/117/183 135/115/183
f 135/115/184 40/117/184 70/26/184
f 40/117/185 5/17/185 70/26/185
f 61/92/186 66/93/186 9/34/186
f 62/91/187 136/118/187 61/92/187
f 63/19/188 137/119/188 62/91/188
f 61/92/189 136/118/189 66/93/189
f 136/118/190 65/94/190 66/93/190
f 62/91/191 137/119/191 136/118/191
f 137/119/192 138/120/192 136/118/192
f 136/118/193 138/120/193 65/94/193
f 138/120/194 64/25/194 65/94/194
f 63/19/195 39/18/195 137/119/195
f 39/18/196 38/121/196 137/119/196
f 137/119/197 38/121/197 138/120/197
f 38/121/198 37/122/198 138/120/198
f 138/120/199 37/122/199 64/25/199
f 37/122/200 4/14/200 64/25/200
f 55/99/201 60/100/201 8/31/201
f 56/98/202 139/123/202 55/99/202
f 57/16/203 140/124/203 56/98/203
f 55/99/204 139/123/204 60/100/204
f 139/123/205 59/101/205 60/100/205
f 56/98/206 140/124/206 139/123/206
f 140/124/207 141/125/207 139/123/207
f 139/123/208 141/125/208 59/101/208
f 141/125/209 58/24/209 59/101/209
f 57/16/210 33/15/210 140/124/210
f 33/15/211 32/126/211 140/124/211
f 140/124/212 32/126/212 141/125/212
f 32/126/213 31/127/213 141/125/213
f 141/125/214 31/127/214 58/24/214
f 31/127/215 3/11/215 58/24/215
f 49/105/216 54/106/216 7/28/216
f 50/87/217 142/128/217 49/105/217
f 51/13/218 143/129/218 50/87/218
f 49/105/219 142/128/219 54/106/219
f 142/128/220 53/107/220 54/106/220
f 50/87/221 143/129/221 142/128/221
f 143/129/222 144/130/222 142/128/222
f 142/128/223 144/130/223 53/107/223
f 144/130/224 52/23/224 53/107/224
f 51/13/225 21/12/225 143/129/225
f 21/12/226 20/131/226 143/129/226
f 143/129/227 20/131/227 144/130/227
f 20/131/228 19/132/228 144/130/228
f 144/130/229 19/132/229 52/23/229
f 19/132/230 2/4/230 52/23/230
f 43/112/231 48/79/231 11/40/231
f 44/111/232 145/133/232 43/112/232
f 45/10/233 146/134/233 44/111/233
f 43/112/234 145/133/234 48/79/234
f 145/133/235 47/80/235 48/79/235
f 44/111/236 146/134/236 145/133/236
f 146/134/237 147/135/237 145/133/237
f 145/133/238 147/135/238 47/80/238
f 147/135/239 46/27/239 47/80/239
f 45/10/240 24/6/240 146/134/240
f 24/6/241 23/136/241 146/134/241
f 146/134/242 23/136/242 147/135/242
f 23/136/243 22/137/243 147/135/243
f 147/135/244 22/137/244 46/27/244
f 22/137/245 6/20/245 46/27/245
f 27/138/246 42/21/246 6/20/246
f 26/139/247 148/140/247 27/138/247
f 25/9/248 149/141/248 26/139/248
f 27/138/249 148/140/249 42/21/249
f 148/140/250 41/116/250 42/21/250
f 26/139/251 149/141/251 148/140/251
f 149/141/252 150/142/252 148/140/252
f 148/140/253 150/142/253 41/116/253
f 150/142/254 40/117/254 41/116/254
f 25/9/255 36/8/255 149/141/255
f 36/8/256 35/143/256 149/141/256
f 149/141/257 35/143/257 150/142/257
f 35/143/258 34/144/258 150/142/258
f 150/142/259 34/144/259 40/117/259
f 34/144/260 5/17/260 40/117/260
f 34/144/261 39/18/261 5/17/261
f 35/143/262 151/145/262 34/144/262
f 36/8/263 152/146/263 35/143/263
f 34/144/264 151/145/264 39/18/264
f 151/145/265 38/121/265 39/18/265
f 35/143/266 152/146/266 151/145/266
f 152/146/267 153/147/267 151/145/267
f 151/145/268 153/147/268 38/121/268
f 153/147/269 37/122/269 38/121/269
f 36/8/270 30/7/270 152/146/270
f 30/7/271 29/148/271 152/146/271
f 152/146/272 29/148/272 153/147/272
f 29/148/273 28/149/273 153/147/273
f 153/147/274 28/149/274 37/122/274
f 28/149/275 4/14/275 37/122/275
f 28/149/276 33/15/276 4/14/276
f 29/148/277 154/150/277 28/149/277
f 30/7/278 155/151/278 29/148/278
f 28/149/279 154/150/279 33/15/279
f 154/150/280 32/126/280 33/15/280
f 29/148/281 155/151/281 154/150/281
f 155/151/282 156/152/282 154/150/282
f 154/150/283 156/152/283 32/126/283
f 156/152/284 31/127/284 32/126/284
f 30/7/285 15/3/285 155/151/285
f 15/3/286 14/153/286 155/151/286
f 155/151/287 14/153/287 156/152/287
f 14/153/288 13/154/288 156/152/288
f 156/152/289 13/154/289 31/127/289
f 13/154/290 3/11/290 31/127/290
f 22/137/291 27/138/291 6/20/291
f 23/136/292 157/155/292 22/137/292
f 24/6/293 158/156/293 23/136/293
f 22/137/294 157/155/294 27/138/294
f 157/155/295 26/139/295 27/138/295
f 23/136/296 158/156/296 157/155/296
f 158/156/297 159/157/297 157/155/297
f 157/155/298 159/157/298 26/139/298
f 159/157/299 25/9/299 26/139/299
f 24/6/300 18/5/300 158/156/300
f 18/5/301 17/158/301 158/156/301
f 158/156/302 17/158/302 159/157/302
f 17/158/303 16/2/303 159/157/303
f 159/157/304 16/2/304 25/9/304
f 16/2/305 1/1/305 25/9/305
f 13/154/306 21/12/306 3/11/306
f 14/153/307 160/159/307 13/154/307
f 15/3/308 161/160/308 14/153/308
f 13/154/309 160/159/309 21/12/309
f 160/159/310 20/131/310 21/12/310
f 14/153/311 161/160/311 160/159/311
f 161/160/312 162/161/312 160/159/312
f 160/159/313 162/161/313 20/131/313
f 162/161/314 19/132/314 20/131/314
f 15/3/315 16/2/315 161/160/315
f 16/2/316 17/158/316 161/160/316
f 161/160/317 17/158/317 162/161/317
f 17/158/318 18/5/318 162/161/318
f 162/161/319 18/5/319 19/132/319
f 18/5/320 2/4/320 19/132/320
