# Blender 5.1.2
# www.blender.org
o st_rock_03
v 0.000000 -0.461053 0.000000
v 0.420361 -0.194850 0.305406
v -0.127051 -0.154184 0.391028
v -0.397379 -0.149018 0.000000
v -0.127313 -0.154503 -0.391837
v 0.256236 -0.118773 -0.186164
v 0.169524 0.205729 0.521751
v -0.294112 0.136330 0.213683
v -0.492087 0.228098 -0.357518
v 0.137319 0.166645 -0.422631
v 0.457512 0.171568 0.000000
v 0.000000 0.408674 0.000000
v -0.120908 -0.256095 0.372122
v -0.066169 -0.259856 0.203650
v -0.051243 -0.479346 0.157712
v 0.114110 -0.407713 0.082905
v 0.172479 -0.258721 0.125312
v 0.241622 -0.195479 0.175547
v 0.259385 -0.183700 0.332417
v 0.133001 -0.199502 0.409328
v -0.012603 -0.160194 0.367473
v 0.407636 -0.188952 -0.148081
v 0.408393 -0.189303 0.000000
v 0.398009 -0.184490 0.144584
v 0.134640 -0.481066 -0.097820
v 0.242360 -0.363544 -0.176083
v 0.187184 -0.151436 -0.135995
v -0.340737 -0.223016 0.000000
v -0.221335 -0.268596 0.000000
v -0.120808 -0.349205 0.000000
v -0.272334 -0.211986 0.403216
v -0.429031 -0.245816 0.311708
v -0.443044 -0.200836 0.127336
v -0.131142 -0.277772 -0.403620
v -0.082072 -0.322310 -0.252596
v -0.041936 -0.392289 -0.129069
v -0.381267 -0.172832 -0.109581
v -0.304309 -0.174356 -0.221093
v -0.232173 -0.180725 -0.343754
v -0.020120 -0.255738 -0.586644
v 0.156431 -0.234646 -0.481435
v 0.148321 -0.105043 -0.190082
v 0.470504 0.092643 0.072604
v 0.556447 -0.000000 0.180798
v 0.585951 -0.128235 0.301491
v 0.418664 -0.091624 -0.215417
v 0.369016 0.000000 -0.119899
v 0.383778 0.075567 -0.059221
v 0.089034 0.108048 0.548043
v 0.000000 -0.000000 0.690747
v -0.077023 -0.093473 0.474113
v 0.399607 -0.109540 0.396442
v 0.275682 0.000000 0.379443
v 0.185190 0.080006 0.367057
v -0.449382 0.098347 0.231222
v -0.562841 -0.000000 0.182875
v -0.414719 -0.081659 0.063996
v -0.237266 -0.102504 0.470273
v -0.283703 0.000000 0.390484
v -0.259340 0.071090 0.257286
v -0.407656 0.111747 -0.404426
v -0.333143 -0.000000 -0.458532
v -0.223406 -0.096516 -0.442801
v -0.516280 -0.101657 -0.079668
v -0.377268 0.000000 -0.122580
v -0.471584 0.103206 -0.242646
v 0.201119 0.086888 -0.398629
v 0.363554 -0.000000 -0.500388
v 0.164173 -0.045003 -0.162873
v -0.092478 -0.112228 -0.569247
v 0.000000 0.000000 -0.425112
v 0.087903 0.106676 -0.541085
v 0.539468 0.244546 0.155049
v 0.369948 0.211964 0.268782
v 0.246738 0.192062 0.365319
v 0.014213 0.180657 0.414415
v -0.127699 0.191549 0.393011
v -0.209041 0.148045 0.267898
v -0.328449 0.152247 0.119315
v -0.304184 0.140999 0.000000
v -0.420843 0.195074 -0.152878
v -0.341365 0.241759 -0.437479
v -0.156037 0.234056 -0.480224
v 0.017815 0.226440 -0.519437
v 0.237358 0.184761 -0.351430
v 0.339319 0.194415 -0.246529
v 0.366241 0.166021 -0.105262
v 0.035992 0.336687 0.110775
v 0.079920 0.313858 0.245971
v 0.109009 0.230892 0.335500
v 0.347989 0.227763 0.000000
v 0.241023 0.292489 0.000000
v 0.102981 0.297675 0.000000
v -0.072945 0.260632 0.052997
v -0.152854 0.229284 0.111054
v -0.293124 0.237145 0.212964
v -0.080573 0.287887 -0.058539
v -0.116791 0.175188 -0.084852
v -0.254199 0.205654 -0.184684
v 0.042267 0.395380 -0.130086
v 0.087954 0.345412 -0.270700
v 0.130566 0.276552 -0.401848
v 0.182489 0.338358 -0.132586
v 0.384066 0.326602 -0.158192
v 0.267228 0.324294 -0.314147
v -0.084351 0.409448 -0.259601
v -0.034172 0.351311 -0.445482
v -0.210690 0.316037 -0.342283
v -0.149956 0.224937 0.000000
v -0.299088 0.241970 -0.072432
v -0.374469 0.302956 0.090688
v -0.070102 0.340283 0.215749
v -0.160428 0.240643 0.260627
v -0.024875 0.255731 0.324281
v 0.132214 0.245141 0.096059
v 0.219827 0.266770 0.258423
v 0.290659 0.247171 0.119719
v 0.361421 0.086936 -0.178370
v 0.265382 0.000000 -0.192810
v 0.354958 0.109690 -0.364148
v -0.058071 0.087106 -0.399631
v -0.122885 -0.000000 -0.378201
v -0.194146 0.089993 -0.369286
v -0.370840 0.081158 -0.063603
v -0.502913 0.000000 0.000000
v -0.440414 0.096385 0.075536
v -0.217269 0.100711 0.413267
v -0.180407 -0.000000 0.555235
v -0.064471 0.096706 0.443676
v 0.373416 0.115393 0.383085
v 0.416513 -0.000001 0.302613
v 0.398566 0.095870 0.196703
v 0.183306 -0.000000 -0.564157
v 0.224352 -0.103994 -0.426740
v 0.086512 -0.129767 -0.595354
v -0.450847 -0.000000 -0.327558
v -0.262012 -0.080968 -0.268797
v -0.337263 -0.081125 -0.166449
v -0.388396 0.000000 0.282185
v -0.427352 -0.102795 0.210910
v -0.435667 -0.134631 0.446949
v 0.142390 0.000000 0.438232
v 0.078883 -0.118324 0.542853
v 0.279765 -0.129680 0.532141
v 0.420503 0.000000 0.000000
v 0.470916 -0.103060 0.080767
v 0.456877 -0.099987 -0.078359
v 0.181064 -0.271598 -0.294153
v 0.089297 -0.433458 -0.274825
v 0.029651 -0.304830 -0.386543
v -0.214487 -0.260288 -0.252144
v -0.142784 -0.264737 -0.103738
v -0.355571 -0.302370 -0.146454
v -0.351011 -0.298493 0.144577
v -0.165891 -0.307581 0.120527
v -0.231348 -0.280750 0.271967
v 0.293136 -0.237154 -0.070991
v 0.243859 -0.197287 0.059057
v 0.244503 -0.366757 0.000000
v 0.031195 -0.320696 0.406660
v 0.092217 -0.447625 0.283807
v 0.207896 -0.311845 0.337743
vn 0.4074 -0.9128 0.0265
vn 0.0557 -0.9959 -0.0719
vn -0.6497 -0.7017 -0.2925
vn -0.6697 -0.7234 -0.1678
vn -0.3742 -0.8634 -0.3384
vn 0.3687 -0.9229 -0.1107
vn 0.0719 -0.8254 0.5599
vn -0.9469 0.0569 -0.3164
vn -0.1096 -0.7525 -0.6494
vn 0.0833 0.3930 -0.9158
vn 0.2844 -0.6664 0.6893
vn 0.0322 -0.8161 0.5770
vn -0.5894 -0.6310 0.5045
vn -0.3803 -0.8801 -0.2844
vn -0.1887 0.0737 -0.9793
vn 0.2620 0.9640 0.0451
vn -0.5385 0.0113 0.8426
vn -0.0302 0.9851 0.1695
vn 0.6715 0.1773 -0.7195
vn 0.4174 0.8136 -0.4048
vn 0.7229 0.6707 0.1663
vn 0.0357 0.9492 0.3126
vn 0.4335 0.7165 0.5465
vn 0.3420 0.8211 0.4570
vn 0.3657 0.9081 -0.2039
vn 0.0923 0.9529 0.2889
vn 0.0514 0.9973 -0.0533
vn 0.1109 0.9935 -0.0252
vn -0.0091 0.8841 -0.4672
vn 0.9796 -0.0442 0.1958
vn 0.9593 -0.1786 -0.2187
vn 0.7926 0.1298 -0.5957
vn 0.7151 0.0335 -0.6982
vn 0.5062 0.1198 -0.8540
vn 0.5467 0.1879 -0.8160
vn -0.7210 0.6255 -0.2982
vn 0.3273 0.9189 -0.2202
vn 0.4583 0.8395 -0.2919
vn -0.4033 0.7797 0.4790
vn -0.9483 0.2634 0.1771
vn 0.3300 0.9226 -0.1995
vn -0.3846 0.8463 -0.3685
vn -0.7010 0.4863 0.5217
vn -0.1980 0.8277 0.5251
vn 0.4453 0.5862 -0.6768
vn -0.1784 0.4454 -0.8774
vn -0.4722 0.6629 -0.5810
vn -0.0884 0.8405 -0.5345
vn -0.6332 0.7051 0.3191
vn -0.0124 0.9893 0.1456
vn -0.8562 0.4853 0.1771
vn -0.7717 0.3689 -0.5180
vn 0.3289 0.9291 -0.1691
vn -0.5371 0.8102 0.2347
vn -0.3937 0.9181 -0.0462
vn 0.2919 0.8705 -0.3963
vn 0.2275 0.9419 -0.2470
vn 0.3177 0.9478 -0.0288
vn 0.2746 0.9110 0.3077
vn -0.1258 0.9280 -0.3506
vn -0.6045 0.4843 0.6325
vn -0.9156 -0.2029 -0.3472
vn -0.9351 -0.3160 -0.1604
vn -0.8603 -0.1715 0.4800
vn -0.9390 0.0117 0.3436
vn -0.6542 0.5192 0.5500
vn -0.5547 0.7511 -0.3579
vn 0.0009 0.9971 -0.0757
vn -0.3705 0.8368 -0.4031
vn 0.1493 0.9818 0.1173
vn -0.7573 0.6471 -0.0875
vn -0.3825 0.6448 0.6617
vn 0.0166 0.7921 0.6102
vn 0.0825 0.7442 0.6628
vn -0.3334 0.2465 0.9100
vn -0.8107 0.4546 0.3690
vn -0.2824 0.8746 0.3942
vn -0.0397 0.7592 0.6496
vn 0.0942 0.7847 0.6127
vn -0.3042 0.9259 0.2239
vn 0.7183 0.6664 0.1997
vn 0.6782 0.7284 -0.0973
vn 0.1963 0.7502 0.6314
vn 0.6927 0.7004 0.1722
vn 0.0331 0.8811 0.4718
vn 0.3282 0.8968 -0.2966
vn 0.0076 0.9907 -0.1361
vn -0.0682 0.9234 0.3778
vn 0.5146 0.8505 0.1086
vn 0.1143 0.8276 0.5496
vn 0.2646 0.8205 0.5068
vn 0.3402 0.9395 0.0410
vn -0.0241 0.9700 0.2419
vn 0.0311 0.9889 -0.1454
vn 0.3810 0.7425 -0.5509
vn 0.7478 -0.1802 -0.6389
vn 0.9813 -0.0407 -0.1880
vn 0.3749 0.7586 -0.5329
vn 0.9795 0.1013 -0.1741
vn 0.9812 0.0953 -0.1678
vn 0.5147 -0.4471 -0.7316
vn 0.6761 -0.7282 -0.1127
vn 0.9807 0.1952 -0.0102
vn 0.4312 0.7583 -0.4889
vn -0.2243 -0.1373 -0.9648
vn 0.4365 -0.8889 0.1393
vn 0.9117 -0.2900 0.2910
vn 0.0248 0.7794 -0.6260
vn 0.1472 0.3849 -0.9111
vn 0.5459 0.1912 -0.8157
vn 0.6827 0.4964 -0.5361
vn -0.6608 -0.2317 -0.7139
vn -0.1984 0.8310 -0.5197
vn -0.6551 -0.2548 -0.7113
vn -0.2043 -0.5719 -0.7945
vn -0.3564 0.0355 -0.9337
vn -0.2186 -0.0767 -0.9728
vn -0.1908 -0.5667 -0.8015
vn -0.2080 -0.5616 -0.8008
vn -0.4018 0.7602 -0.5105
vn 0.3459 0.2458 -0.9055
vn 0.3342 0.3513 -0.8746
vn 0.1900 0.5276 -0.8280
vn 0.1245 -0.3036 -0.9446
vn -0.4697 0.0151 -0.8827
vn -0.9220 0.1690 0.3483
vn -0.8551 -0.2588 0.4493
vn -0.5848 0.5466 -0.5994
vn -0.8714 0.0020 0.4906
vn -0.7547 0.1661 0.6347
vn -0.6053 0.4988 -0.6204
vn -0.6103 0.6945 -0.3812
vn -0.4489 0.8359 -0.3159
vn -0.3881 0.9068 -0.1644
vn -0.7408 -0.3513 0.5726
vn -0.5878 -0.7858 -0.1926
vn -0.7204 0.6521 -0.2361
vn -0.6428 0.7646 -0.0467
vn -0.4347 0.8998 -0.0364
vn -0.2058 0.9499 0.2351
vn -0.5448 0.2455 0.8018
vn -0.8409 0.5260 0.1269
vn -0.8469 0.0296 0.5310
vn -0.8383 0.5306 0.1253
vn -0.6768 0.7104 0.1930
vn -0.7759 0.4018 0.4865
vn -0.0970 0.7997 0.5925
vn -0.1717 0.3727 0.9119
vn -0.1047 0.4134 0.9045
vn 0.0180 -0.6439 0.7649
vn -0.3561 -0.8053 0.4741
vn -0.3123 0.8541 0.4158
vn -0.3468 0.8391 0.4190
vn -0.4617 0.6450 0.6090
vn -0.5201 0.5938 0.6139
vn 0.7943 -0.4296 0.4296
vn -0.0937 0.0480 0.9944
vn 0.3964 0.5612 0.7266
vn -0.0975 0.0690 0.9928
vn 0.3520 0.7202 0.5978
vn 0.4394 -0.3976 0.8055
vn 0.9528 0.2872 0.0985
vn 0.9787 0.1703 0.1142
vn 0.5690 -0.3280 0.7541
vn 0.4220 0.5513 0.7197
vn 0.4976 0.6525 0.5716
vn 0.4746 0.6911 0.5452
vn 0.5187 0.8079 0.2797
vn 0.7129 -0.5558 0.4277
vn 0.9019 -0.2024 -0.3815
vn 0.7349 0.4301 -0.5243
vn 0.1671 0.8655 -0.4723
vn 0.6682 -0.6790 0.3042
vn 0.6331 0.6553 -0.4121
vn -0.5671 -0.3455 -0.7477
vn 0.2228 -0.7442 -0.6297
vn 0.7335 -0.4183 -0.5357
vn -0.5085 0.5404 -0.6703
vn -0.0113 0.7925 -0.6098
vn 0.8876 -0.3629 0.2836
vn 0.8090 -0.5284 0.2576
vn 0.7767 -0.1474 -0.6124
vn 0.4930 -0.4680 -0.7334
vn -0.1394 0.0496 -0.9890
vn -0.8728 -0.4075 -0.2685
vn -0.8199 -0.4547 -0.3480
vn -0.7330 -0.1698 -0.6587
vn -0.6522 -0.7541 -0.0773
vn -0.9263 0.1102 -0.3602
vn -0.8528 -0.4232 0.3061
vn -0.3055 -0.9118 -0.2746
vn -0.3198 -0.9175 -0.2365
vn -0.7903 -0.5431 0.2837
vn -0.4455 0.2458 -0.8609
vn -0.9695 -0.1376 -0.2028
vn -0.8522 0.1266 -0.5077
vn -0.8042 0.0622 -0.5912
vn -0.8220 0.0423 -0.5679
vn -0.3754 -0.3517 -0.8576
vn -0.4401 -0.8887 0.1284
vn -0.0376 0.5414 0.8399
vn -0.4897 0.1421 0.8602
vn -0.5743 -0.8019 -0.1647
vn -0.0622 0.4285 0.9014
vn -0.3900 0.8401 0.3770
vn -0.4569 -0.3834 0.8026
vn -0.9381 0.3461 0.0136
vn -0.4829 0.7409 0.4668
vn -0.1848 0.5502 0.8143
vn -0.9776 0.2032 -0.0548
vn -0.9924 0.0783 0.0945
vn -0.9992 -0.0144 -0.0371
vn -0.1958 -0.7622 0.6170
vn -0.0166 -0.5184 0.8550
vn 0.2898 -0.5657 0.7720
vn 0.7397 -0.4836 0.4679
vn 0.8690 -0.0689 0.4900
vn -0.3378 -0.8146 0.4716
vn 0.8790 -0.0481 0.4744
vn 0.3463 0.5133 0.7852
vn 0.8706 -0.0332 0.4909
vn 0.0769 0.6369 0.7671
vn 0.2728 0.7369 0.6185
vn 0.5101 0.6623 0.5488
vn -0.3023 -0.8795 0.3676
vn -0.3418 -0.8581 0.3832
vn -0.0211 -0.8581 0.5131
vn 0.2562 -0.9394 0.2279
vn 0.3830 -0.9008 0.2046
vn 0.0659 -0.7206 0.6903
vn 0.8102 -0.3190 -0.4917
vn 0.7986 0.0396 -0.6005
vn 0.8474 -0.2472 -0.4698
vn 0.8365 -0.0225 -0.5474
vn 0.9103 0.1360 -0.3909
vn 0.7967 -0.0798 -0.5991
vn 0.9174 0.3912 -0.0734
vn 0.7727 0.5411 -0.3318
vn 0.7747 0.6064 -0.1790
vn 0.5331 -0.7633 -0.3649
vn 0.7719 -0.6312 0.0764
vn 0.8427 -0.5317 -0.0846
vn 0.8768 -0.4809 -0.0056
vn 0.9162 -0.2929 -0.2733
vn -0.0541 -0.5640 -0.8240
vn -0.0773 -0.7835 -0.6165
vn 0.9231 0.2883 -0.2547
vn 0.5653 -0.7487 -0.3462
vn 0.8754 0.3679 -0.3134
vn 0.9675 0.2401 -0.0799
vn 0.6199 -0.4298 -0.6565
vn 0.5401 -0.3950 -0.7431
vn 0.3378 -0.9140 -0.2248
vn 0.2845 -0.9123 -0.2946
vn -0.4266 -0.8948 -0.1314
vn -0.5483 -0.7914 -0.2702
vn -0.5121 -0.6862 -0.5167
vn -0.1364 -0.9613 -0.2392
vn -0.1416 -0.9690 -0.2025
vn -0.8566 0.0754 -0.5105
vn -0.4351 0.0991 -0.8949
vn -0.4210 -0.8980 -0.1280
vn -0.7898 -0.6071 -0.0873
vn -0.7485 -0.5654 -0.3466
vn -0.7043 -0.5977 -0.3831
vn -0.4171 -0.8919 0.1748
vn 0.1969 -0.9725 -0.1243
vn -0.5281 -0.2599 -0.8084
vn -0.8230 -0.0016 -0.5680
vn -0.7780 -0.5577 -0.2893
vn -0.5589 -0.6970 -0.4492
vn 0.1575 -0.9841 0.0826
vn -0.3135 -0.8212 0.4767
vn -0.9394 -0.2524 0.2319
vn -0.7940 -0.6078 0.0153
vn -0.7010 -0.5366 -0.4698
vn -0.3173 -0.8312 -0.4565
vn -0.6252 -0.7797 0.0354
vn -0.6336 -0.6665 -0.3930
vn -0.7128 -0.6920 -0.1146
vn -0.0824 -0.9587 -0.2722
vn -0.0272 -0.9863 0.1630
vn -0.1203 -0.9615 0.2469
vn -0.0680 -0.8923 0.4463
vn -0.8157 -0.5681 -0.1089
vn -0.5667 -0.2055 0.7979
vn 0.2279 -0.9370 0.2645
vn 0.1545 -0.9854 0.0722
vn -0.1754 -0.8935 0.4134
vn 0.1500 -0.1716 0.9737
vn -0.1588 -0.7131 -0.6828
vn 0.3856 -0.9227 -0.0042
vn 0.0619 -0.9974 0.0376
vn -0.1589 -0.7137 -0.6822
vn 0.6640 0.3020 -0.6840
vn 0.1693 -0.9225 0.3469
vn 0.9131 -0.1311 0.3862
vn 0.9328 -0.3599 -0.0179
vn 0.7299 -0.6832 -0.0214
vn 0.0734 -0.9972 0.0169
vn 0.6650 -0.7464 0.0244
vn 0.7567 -0.2125 0.6182
vn 0.5770 -0.4246 0.6977
vn 0.4865 -0.7889 0.3755
vn 0.1452 -0.9109 0.3862
vn 0.1903 -0.1680 0.9673
vn -0.3698 -0.9238 -0.0995
vn -0.6213 -0.2008 0.7574
vn -0.1354 0.2000 0.9704
vn -0.2292 0.1714 0.9582
vn -0.7895 -0.5783 0.2053
vn 0.3224 -0.5737 0.7529
vn 0.3581 -0.3201 0.8771
vn 0.5277 -0.1775 0.8307
vn 0.3359 -0.9302 -0.1482
vn 0.9281 -0.3714 0.0274
vn 0.7832 -0.5598 -0.2706
vn 0.7501 -0.6013 -0.2754
vn 0.9241 -0.3745 -0.0765
vn -0.0553 -0.9952 0.0810
vt 0.500000 0.038947
vt 0.614110 0.092287
vt 0.448757 0.020654
vt 0.920361 0.305150
vt 0.741622 0.304521
vt 0.898009 0.315510
vt 0.379192 0.150795
vt 0.458064 0.107711
vt 0.634640 0.018934
vt 1.085951 0.371765
vt 0.372949 0.345816
vt 0.487397 0.339806
vt 0.422977 0.406527
vt 0.102621 0.350982
vt 0.056956 0.299164
vt 0.085281 0.418341
vt 0.372687 0.345497
vt 0.267827 0.319275
vt 0.276594 0.403484
vt 0.756236 0.381227
vt 0.648321 0.394957
vt 0.664173 0.454997
vt 0.899607 0.390460
vt 0.262734 0.397496
vt -0.016280 0.398343
vt 0.407522 0.387772
vt 0.918664 0.408376
vt 0.669524 0.705729
vt 0.746738 0.692062
vt 0.609009 0.730892
vt 0.205888 0.636330
vt 0.290959 0.648045
vt 0.206876 0.737145
vt 0.007913 0.728098
vt 0.079157 0.695074
vt 0.245801 0.705654
vt 0.637319 0.666645
vt 0.517815 0.726440
vt 0.630566 0.776552
vt 0.957512 0.671568
vt 0.866241 0.666021
vt 0.847989 0.727763
vt 0.602981 0.797675
vt 0.542267 0.895380
vt 0.500000 0.908674
vt 0.741023 0.792489
vt 0.682489 0.838358
vt 0.884066 0.826602
vt 0.587954 0.845412
vt 0.767228 0.824293
vt 0.839319 0.694415
vt 0.737358 0.684761
vt 0.419427 0.787887
vt 0.415649 0.909448
vt 0.465828 0.851311
vt 0.383209 0.675188
vt 0.289310 0.816037
vt 0.343963 0.734056
vt 0.158635 0.741759
vt 0.427055 0.760632
vt 0.350044 0.724937
vt 0.200912 0.741970
vt 0.347146 0.729284
vt 0.125531 0.802956
vt 0.195816 0.640999
vt 0.171551 0.652247
vt 0.535992 0.836686
vt 0.429898 0.840283
vt 0.339572 0.740643
vt 0.579920 0.813858
vt 0.475125 0.755731
vt 0.372301 0.691549
vt 0.514213 0.680657
vt 0.632214 0.745141
vt 0.719827 0.766770
vt 0.790659 0.747171
vt 0.869948 0.711964
vt 1.039468 0.744546
vt 0.883778 0.575567
vt 0.869016 0.500000
vt 0.861421 0.586936
vt 0.765382 0.500000
vt 0.854958 0.609690
vt 0.863554 0.500000
vt 0.701119 0.586888
vt 0.587903 0.606676
vt 0.500000 0.500000
vt 0.441929 0.587106
vt 0.377115 0.500000
vt 0.305854 0.589993
vt 0.166857 0.500000
vt 0.092344 0.611747
vt 0.028416 0.603206
vt 0.122732 0.500000
vt 0.129160 0.581158
vt -0.002913 0.500000
vt 0.059586 0.596385
vt -0.062841 0.500000
vt 0.050618 0.598347
vt 0.240660 0.571090
vt 0.216297 0.500000
vt 0.282731 0.600711
vt 0.319593 0.500000
vt 0.435529 0.596706
vt 0.589033 0.608048
vt 0.685190 0.580006
vt 0.775682 0.500000
vt 0.873416 0.615393
vt 0.916513 0.499999
vt 0.898566 0.595870
vt 1.056447 0.500000
vt 0.970504 0.592643
vt 0.683306 0.500000
vt 0.724352 0.396006
vt 0.586512 0.370233
vt 0.656431 0.265354
vt 0.479880 0.244262
vt 0.049153 0.500000
vt 0.237988 0.419032
vt 0.162737 0.418875
vt 0.195691 0.325644
vt 0.118733 0.327168
vt 0.111604 0.500000
vt 0.072648 0.397205
vt 0.064333 0.365369
vt 0.070969 0.254184
vt 0.227666 0.288014
vt 0.642390 0.500000
vt 0.578883 0.381676
vt 0.779765 0.370320
vt 0.633001 0.300498
vt 0.759385 0.316300
vt 0.920503 0.500000
vt 0.970916 0.396940
vt 0.956877 0.400013
vt 0.908393 0.310697
vt 0.907636 0.311048
vt 0.687184 0.348564
vt 0.742360 0.136456
vt 0.681064 0.228402
vt 0.589297 0.066542
vt 0.529651 0.195170
vt 0.417928 0.177690
vt 0.368858 0.222228
vt 0.285513 0.239712
vt 0.357216 0.235263
vt 0.144429 0.197630
vt 0.278665 0.231404
vt 0.159263 0.276984
vt 0.148989 0.201507
vt 0.334109 0.192419
vt 0.268652 0.219250
vt 0.433831 0.240144
vt 0.379092 0.243905
vt 0.793136 0.262846
vt 0.743859 0.302713
vt 0.744503 0.133243
vt 0.672479 0.241279
vt 0.531195 0.179304
vt 0.592217 0.052375
vt 0.707896 0.188155
s 0
f 1/1/1 16/2/1 15/3/1
f 2/4/2 18/5/2 24/6/2
f 1/1/3 15/3/3 30/7/3
f 1/1/4 30/7/4 36/8/4
f 1/1/5 36/8/5 25/9/5
f 2/4/6 24/6/6 45/10/6
f 3/11/7 21/12/7 51/13/7
f 4/14/8 33/15/8 57/16/8
f 5/17/9 39/18/9 63/19/9
f 6/20/10 42/21/10 69/22/10
f 2/4/11 45/10/11 52/23/11
f 3/11/12 51/13/12 58/24/12
f 4/14/13 57/16/13 64/25/13
f 5/17/14 63/19/14 70/26/14
f 6/20/15 69/22/15 46/27/15
f 7/28/16 75/29/16 90/30/16
f 8/31/17 78/32/17 96/33/17
f 9/34/18 81/35/18 99/36/18
f 10/37/19 84/38/19 102/39/19
f 11/40/20 87/41/20 91/42/20
f 93/43/21 100/44/21 12/45/21
f 92/46/22 103/47/22 93/43/22
f 91/42/23 104/48/23 92/46/23
f 93/43/24 103/47/24 100/44/24
f 103/47/25 101/49/25 100/44/25
f 92/46/26 104/48/26 103/47/26
f 104/48/27 105/50/27 103/47/27
f 103/47/28 105/50/28 101/49/28
f 105/50/29 102/39/29 101/49/29
f 91/42/30 87/41/30 104/48/30
f 87/41/31 86/51/31 104/48/31
f 104/48/32 86/51/32 105/50/32
f 86/51/33 85/52/33 105/50/33
f 105/50/34 85/52/34 102/39/34
f 85/52/35 10/37/35 102/39/35
f 100/44/36 97/53/36 12/45/36
f 101/49/37 106/54/37 100/44/37
f 102/39/38 107/55/38 101/49/38
f 100/44/39 106/54/39 97/53/39
f 106/54/40 98/56/40 97/53/40
f 101/49/41 107/55/41 106/54/41
f 107/55/42 108/57/42 106/54/42
f 106/54/43 108/57/43 98/56/43
f 108/57/44 99/36/44 98/56/44
f 102/39/45 84/38/45 107/55/45
f 84/38/46 83/58/46 107/55/46
f 107/55/47 83/58/47 108/57/47
f 83/58/48 82/59/48 108/57/48
f 108/57/49 82/59/49 99/36/49
f 82/59/50 9/34/50 99/36/50
f 97/53/51 94/60/51 12/45/51
f 98/56/52 109/61/52 97/53/52
f 99/36/53 110/62/53 98/56/53
f 97/53/54 109/61/54 94/60/54
f 109/61/55 95/63/55 94/60/55
f 98/56/56 110/62/56 109/61/56
f 110/62/57 111/64/57 109/61/57
f 109/61/58 111/64/58 95/63/58
f 111/64/59 96/33/59 95/63/59
f 99/36/60 81/35/60 110/62/60
f 81/35/61 80/65/61 110/62/61
f 110/62/62 80/65/62 111/64/62
f 80/65/63 79/66/63 111/64/63
f 111/64/64 79/66/64 96/33/64
f 79/66/65 8/31/65 96/33/65
f 94/60/66 88/67/66 12/45/66
f 95/63/67 112/68/67 94/60/67
f 96/33/68 113/69/68 95/63/68
f 94/60/69 112/68/69 88/67/69
f 112/68/70 89/70/70 88/67/70
f 95/63/71 113/69/71 112/68/71
f 113/69/72 114/71/72 112/68/72
f 112/68/73 114/71/73 89/70/73
f 114/71/74 90/30/74 89/70/74
f 96/33/75 78/32/75 113/69/75
f 78/32/76 77/72/76 113/69/76
f 113/69/77 77/72/77 114/71/77
f 77/72/78 76/73/78 114/71/78
f 114/71/79 76/73/79 90/30/79
f 76/73/80 7/28/80 90/30/80
f 88/67/81 93/43/81 12/45/81
f 89/70/82 115/74/82 88/67/82
f 90/30/83 116/75/83 89/70/83
f 88/67/84 115/74/84 93/43/84
f 115/74/85 92/46/85 93/43/85
f 89/70/86 116/75/86 115/74/86
f 116/75/87 117/76/87 115/74/87
f 115/74/88 117/76/88 92/46/88
f 117/76/89 91/42/89 92/46/89
f 90/30/90 75/29/90 116/75/90
f 75/29/91 74/77/91 116/75/91
f 116/75/92 74/77/92 117/76/92
f 74/77/93 73/78/93 117/76/93
f 117/76/94 73/78/94 91/42/94
f 73/78/95 11/40/95 91/42/95
f 48/79/96 87/41/96 11/40/96
f 47/80/97 118/81/97 48/79/97
f 46/27/98 119/82/98 47/80/98
f 48/79/99 118/81/99 87/41/99
f 118/81/100 86/51/100 87/41/100
f 47/80/101 119/82/101 118/81/101
f 119/82/102 120/83/102 118/81/102
f 118/81/103 120/83/103 86/51/103
f 120/83/104 85/52/104 86/51/104
f 46/27/105 69/22/105 119/82/105
f 69/22/106 68/84/106 119/82/106
f 119/82/107 68/84/107 120/83/107
f 68/84/108 67/85/108 120/83/108
f 120/83/109 67/85/109 85/52/109
f 67/85/110 10/37/110 85/52/110
f 72/86/111 84/38/111 10/37/111
f 71/87/112 121/88/112 72/86/112
f 70/26/113 122/89/113 71/87/113
f 72/86/114 121/88/114 84/38/114
f 121/88/115 83/58/115 84/38/115
f 71/87/116 122/89/116 121/88/116
f 122/89/117 123/90/117 121/88/117
f 121/88/118 123/90/118 83/58/118
f 123/90/119 82/59/119 83/58/119
f 70/26/120 63/19/120 122/89/120
f 63/19/121 62/91/121 122/89/121
f 122/89/122 62/91/122 123/90/122
f 62/91/123 61/92/123 123/90/123
f 123/90/124 61/92/124 82/59/124
f 61/92/125 9/34/125 82/59/125
f 66/93/126 81/35/126 9/34/126
f 65/94/127 124/95/127 66/93/127
f 64/25/128 125/96/128 65/94/128
f 66/93/129 124/95/129 81/35/129
f 124/95/130 80/65/130 81/35/130
f 65/94/131 125/96/131 124/95/131
f 125/96/132 126/97/132 124/95/132
f 124/95/133 126/97/133 80/65/133
f 126/97/134 79/66/134 80/65/134
f 64/25/135 57/16/135 125/96/135
f 57/16/136 56/98/136 125/96/136
f 125/96/137 56/98/137 126/97/137
f 56/98/138 55/99/138 126/97/138
f 126/97/139 55/99/139 79/66/139
f 55/99/140 8/31/140 79/66/140
f 60/100/141 78/32/141 8/31/141
f 59/101/142 127/102/142 60/100/142
f 58/24/143 128/103/143 59/101/143
f 60/100/144 127/102/144 78/32/144
f 127/102/145 77/72/145 78/32/145
f 59/101/146 128/103/146 127/102/146
f 128/103/147 129/104/147 127/102/147
f 127/102/148 129/104/148 77/72/148
f 129/104/149 76/73/149 77/72/149
f 58/24/150 51/13/150 128/103/150
f 51/13/151 50/87/151 128/103/151
f 128/103/152 50/87/152 129/104/152
f 50/87/153 49/105/153 129/104/153
f 129/104/154 49/105/154 76/73/154
f 49/105/155 7/28/155 76/73/155
f 54/106/156 75/29/156 7/28/156
f 53/107/157 130/108/157 54/106/157
f 52/23/158 131/109/158 53/107/158
f 54/106/159 130/108/159 75/29/159
f 130/108/160 74/77/160 75/29/160
f 53/107/161 131/109/161 130/108/161
f 131/109/162 132/110/162 130/108/162
f 130/108/163 132/110/163 74/77/163
f 132/110/164 73/78/164 74/77/164
f 52/23/165 45/10/165 131/109/165
f 45/10/166 44/111/166 131/109/166
f 131/109/167 44/111/167 132/110/167
f 44/111/168 43/112/168 132/110/168
f 132/110/169 43/112/169 73/78/169
f 43/112/170 11/40/170 73/78/170
f 67/85/171 72/86/171 10/37/171
f 68/84/172 133/113/172 67/85/172
f 69/22/173 134/114/173 68/84/173
f 67/85/174 133/113/174 72/86/174
f 133/113/175 71/87/175 72/86/175
f 68/84/176 134/114/176 133/113/176
f 134/114/177 135/115/177 133/113/177
f 133/113/178 135/115/178 71/87/178
f 135/115/179 70/26/179 71/87/179
f 69/22/180 42/21/180 134/114/180
f 42/21/181 41/116/181 134/114/181
f 134/114/182 41/116/182 135/115/182
f 41/116/183 40/117/183 135/115/183
f 135/115/184 40/117/184 70/26/184
f 40/117/185 5/17/185 70/26/185
f 61/92/186 66/93/186 9/34/186
f 62/91/187 136/118/187 61/92/187
f 63/19/188 137/119/188 62/91/188
f 61/92/189 136/118/189 66/93/189
f 136/118/190 65/94/190 66/93/190
f 62/91/191 137/119/191 136/118/191
f 137/119/192 138/120/192 136/118/192
f 136/118/193 138/120/193 65/94/193
f 138/120/194 64/25/194 65/94/194
f 63/19/195 39/18/195 137/119/195
f 39/18/196 38/121/196 137/119/196
f 137/119/197 38/121/197 138/120/197
f 38/121/198 37/122/198 138/120/198
f 138/120/199 37/122/199 64/25/199
f 37/122/200 4/14/200 64/25/200
f 55/99/201 60/100/201 8/31/201
f 56/98/202 139/123/202 55/99/202
f 57/16/203 140/124/203 56/98/203
f 55/99/204 139/123/204 60/100/204
f 139/123/205 59/101/205 60/100/205
f 56/98/206 140/124/206 139/123/206
f 140/124/207 141/125/207 139/123/207
f 139/123/208 141/125/208 59/101/208
f 141/125/209 58/24/209 59/101/209
f 57/16/210 33/15/210 140/124/210
f 33/15/211 32/126/211 140/124/211
f 140/124/212 32/126/212 141/125/212
f 32/126/213 31/127/213 141/125/213
f 141/125/214 31/127/214 58/24/214
f 31/127/215 3/11/215 58/24/215
f 49/105/216 54/106/216 7/28/216
f 50/87/217 142/128/217 49/105/217
f 51/13/218 143/129/218 50/87/218
f 49/105/219 142/128/219 54/106/219
f 142/128/220 53/107/220 54/106/220
f 50/87/221 143/129/221 142/128/221
f 143/129/222 144/130/222 142/128/222
f 142/128/223 144/130/223 53/107/223
f 144/130/224 52/23/224 53/107/224
f 51/13/225 21/12/225 143/129/225
f 21/12/226 20/131/226 143/129/226
f 143/129/227 20/131/227 144/130/227
f 20/131/228 19/132/228 144/130/228
f 144/130/229 19/132/229 52/23/229
f 19/132/230 2/4/230 52/23/230
f 43/112/231 48/79/231 11/40/231
f 44/111/232 145/133/232 43/112/232
f 45/10/233 146/134/233 44/111/233
f 43/112/234 145/133/234 48/79/234
f 145/133/235 47/80/235 48/79/235
f 44/111/236 146/134/236 145/133/236
f 146/134/237 147/135/237 145/133/237
f 145/133/238 147/135/238 47/80/238
f 147/135/239 46/27/239 47/80/239
f 45/10/240 24/6/240 146/134/240
f 24/6/241 23/136/241 146/134/241
f 146/134/242 23/136/242 147/135/242
f 23/136/243 22/137/243 147/135/243
f 147/135/244 22/137/244 46/27/244
f 22/137/245 6/20/245 46/27/245
f 27/138/246 42/21/246 6/20/246
f 26/139/247 148/140/247 27/138/247
f 25/9/248 149/141/248 26/139/248
f 27/138/249 148/140/249 42/21/249
f 148/140/250 41/116/250 42/21/250
f 26/139/251 149/141/251 148/140/251
f 149/141/252 150/142/252 148/140/252
f 148/140/253 150/142/253 41/116/253
f 150/142/254 40/117/254 41/116/254
f 25/9/255 36/8/255 149/141/255
f 36/8/256 35/143/256 149/141/256
f 149/141/257 35/143/257 150/142/257
f 35/143/258 34/144/258 150/142/258
f 150/142/259 34/144/259 40/117/259
f 34/144/260 5/17/260 40/117/260
f 34/144/261 39/18/261 5/17/261
f 35/143/262 151/145/262 34/144/262
f 36/8/263 152/146/263 35/143/263
f 34/144/264 151/145/264 39/18/264
f 151/145/265 38/121/265 39/18/265
f 35/143/266 152/146/266 151/145/266
f 152/146/267 153/147/267 151/145/267
f 151/145/268 153/147/268 38/121/268
f 153/147/269 37/122/269 38/121/269
f 36/8/270 30/7/270 152/146/270
f 30/7/271 29/148/271 152/146/271
f 152/146/272 29/148/272 153/147/272
f 29/148/273 28/149/273 153/147/273
f 153/147/274 28/149/274 37/122/274
f 28/149/275 4/14/275 37/122/275
f 28/149/276 33/15/276 4/14/276
f 29/148/277 154/150/277 28/149/277
f 30/7/278 155/151/278 29/148/278
f 28/149/279 154/150/279 33/15/279
f 154/150/280 32/126/280 33/15/280
f 29/148/281 155/151/281 154/150/281
f 155/151/282 156/152/282 154/150/282
f 154/150/283 156/152/283 32/126/283
f 156/152/284 31/127/284 32/126/284
f 30/7/285 15/3/285 155/151/285
f 15/3/286 14/153/286 155/151/286
f 155/151/287 14/153/287 156/152/287
f 14/153/288 13/154/288 156/152/288
f 156/152/289 13/154/289 31/127/289
f 13/154/290 3/11/290 31/127/290
f 22/137/291 27/138/291 6/20/291
f 23/136/292 157/155/292 22/137/292
f 24/6/293 158/156/293 23/136/293
f 22/137/294 157/155/294 27/138/294
f 157/155/295 26/139/295 27/138/295
f 23/136/296 158/156/296 157/155/296
f 158/156/297 159/157/297 157/155/297
f 157/155/298 159/157/298 26/139/298
f 159/157/299 25/9/299 26/139/299
f 24/6/300 18/5/300 158/156/300
f 18/5/301 17/158/301 158/156/301
f 158/156/302 17/158/302 159/157/302
f 17/158/303 16/2/303 159/157/303
f 159/157/304 16/2/304 25/9/304
f 16/2/305 1/1/305 25/9/305
f 13/154/306 21/12/306 3/11/306
f 14/153/307 160/159/307 13/154/307
f 15/3/308 161/160/308 14/153/308
f 13/154/309 160/159/309 21/12/309
f 160/159/310 20/131/310 21/12/310
f 14/153/311 161/160/311 160/159/311
f 161/160/312 162/161/312 160/159/312
f 160/159/313 162/161/313 20/131/313
f 162/161/314 19/132/314 20/131/314
f 15/3/315 16/2/315 161/160/315
f 16/2/316 17/158/316 161/160/316
f 161/160/317 17/158/317 162/161/317
f 17/158/318 18/5/318 162/161/318
f 162/161/319 18/5/319 19/132/319
f 18/5/320 2/4/320 19/132/320
