# Blender 5.1.2
# www.blender.org
o st_rock_02
v 0.000000 -0.392048 0.000000
v 0.377056 -0.174777 0.273944
v -0.132488 -0.160783 0.407763
v -0.471720 -0.176896 0.000000
v -0.130009 -0.157775 -0.400134
v 0.337049 -0.156233 -0.244877
v 0.111243 0.135000 0.342375
v -0.219835 0.101900 0.159718
v -0.459633 0.213054 -0.333939
v 0.128198 0.155577 -0.394560
v 0.486978 0.182618 0.000000
v 0.000000 0.213727 0.000000
v -0.142221 -0.301238 0.437718
v -0.084130 -0.330394 0.258931
v -0.036257 -0.339166 0.111591
v 0.093648 -0.334601 0.068038
v 0.201919 -0.302882 0.146701
v 0.254200 -0.205654 0.184685
v 0.264557 -0.187362 0.339045
v 0.157766 -0.236649 0.485546
v -0.017851 -0.226892 0.520474
v 0.486218 -0.225377 -0.176627
v 0.395587 -0.183367 0.000000
v 0.276257 -0.128054 0.100355
v 0.097584 -0.348667 -0.070898
v 0.237707 -0.356564 -0.172702
v 0.269243 -0.217824 -0.195614
v -0.361725 -0.236753 0.000000
v -0.170492 -0.206897 0.000000
v -0.069875 -0.201979 0.000000
v -0.283021 -0.220305 0.419038
v -0.467300 -0.267742 0.339512
v -0.451275 -0.204568 0.129702
v -0.112558 -0.238410 -0.346425
v -0.090864 -0.356839 -0.279656
v -0.030362 -0.284021 -0.093447
v -0.479796 -0.217496 -0.137899
v -0.368630 -0.211209 -0.267824
v -0.201623 -0.156945 -0.298522
v -0.015507 -0.197103 -0.452140
v 0.132224 -0.198336 -0.406936
v 0.150760 -0.106770 -0.193207
v 0.639570 0.125933 0.098693
v 0.589300 -0.000000 0.191472
v 0.418135 -0.091509 0.215144
v 0.549999 -0.120367 -0.282993
v 0.577298 0.000000 -0.187572
v 0.514004 0.101209 -0.079317
v 0.077922 0.094563 0.479645
v 0.000000 -0.000000 0.345836
v -0.084021 -0.101966 0.517192
v 0.415211 -0.113818 0.411922
v 0.248693 0.000000 0.342296
v 0.137478 0.059393 0.272488
v -0.305373 0.066831 0.157124
v -0.313964 -0.000000 0.102011
v -0.483317 -0.095166 0.074581
v -0.207926 -0.089828 0.412120
v -0.165234 0.000000 0.227424
v -0.250826 0.068757 0.248840
v -0.368969 0.101142 -0.366046
v -0.329088 -0.000000 -0.452951
v -0.206560 -0.089238 -0.409413
v -0.409637 -0.080659 -0.063212
v -0.459785 0.000000 -0.149391
v -0.502527 0.109978 -0.258567
v 0.195390 0.084413 -0.387274
v 0.291055 -0.000000 -0.400603
v 0.307023 -0.084161 -0.304591
v -0.078501 -0.095266 -0.483211
v 0.000000 0.000000 -0.650112
v 0.081659 0.099099 -0.502651
v 0.518861 0.235205 0.149127
v 0.349264 0.200113 0.253754
v 0.236320 0.183953 0.349893
v 0.016588 0.210845 0.483665
v -0.105331 0.157996 0.324169
v -0.225047 0.159380 0.288410
v -0.240079 0.111284 0.087213
v -0.385806 0.178833 0.000000
v -0.528051 0.244768 -0.191823
v -0.346096 0.245109 -0.443542
v -0.155059 0.232589 -0.477215
v 0.015628 0.198639 -0.455665
v 0.154526 0.120284 -0.228789
v 0.253139 0.145037 -0.183916
v 0.410910 0.186270 -0.118100
v 0.031849 0.297926 0.098022
v 0.090886 0.356927 0.279725
v 0.119685 0.253504 0.368358
v 0.294877 0.193001 0.000000
v 0.242118 0.293818 0.000000
v 0.095670 0.276542 0.000000
v -0.109164 0.390042 0.079312
v -0.249299 0.373952 0.181124
v -0.269925 0.218376 0.196110
v -0.095493 0.341195 -0.069379
v -0.195302 0.292957 -0.141894
v -0.297969 0.241065 -0.216484
v 0.028933 0.270653 -0.089049
v 0.084477 0.331757 -0.259999
v 0.096856 0.205150 -0.298096
v 0.154273 0.286042 -0.112086
v 0.273873 0.232896 -0.112805
v 0.140810 0.170880 -0.165533
v -0.058174 0.282381 -0.179037
v -0.023320 0.239743 -0.304007
v -0.182464 0.273698 -0.296427
v -0.234102 0.351157 0.000000
v -0.283126 0.229056 -0.068567
v -0.263338 0.213047 0.063775
v -0.063759 0.309492 0.196227
v -0.173529 0.260295 0.281911
v -0.024251 0.249318 0.316149
v 0.124158 0.230204 0.090206
v 0.203630 0.247115 0.239383
v 0.266279 0.226438 0.109677
v 0.471370 0.113383 -0.232633
v 0.474880 0.000000 -0.345018
v 0.296710 0.091690 -0.304392
v -0.075526 0.113290 -0.519758
v -0.164422 -0.000000 -0.506040
v -0.215895 0.100074 -0.410654
v -0.518256 0.113420 -0.088887
v -0.431772 0.000000 0.000000
v -0.354269 0.077532 0.060761
v -0.163559 0.075814 0.311104
v -0.126018 -0.000000 0.387842
v -0.052047 0.078070 0.358177
v 0.401250 0.123994 0.411639
v 0.476918 -0.000001 0.346499
v 0.468810 0.112766 0.231370
v 0.167507 -0.000000 -0.515532
v 0.237247 -0.109971 -0.451267
v 0.079338 -0.119006 -0.545983
v -0.441973 -0.000000 -0.321111
v -0.272329 -0.084156 -0.279381
v -0.316081 -0.076030 -0.155995
v -0.365961 0.000000 0.265885
v -0.344314 -0.082821 0.169928
v -0.352569 -0.108952 0.361699
v 0.123613 0.000000 0.380441
v 0.073364 -0.110045 0.504872
v 0.204430 -0.094759 0.388845
v 0.596663 0.000000 0.000000
v 0.526499 -0.115224 0.090300
v 0.573604 -0.125533 -0.098379
v 0.153237 -0.229858 -0.248947
v 0.066281 -0.321735 -0.203989
v 0.029183 -0.300025 -0.380449
v -0.267533 -0.324662 -0.314503
v -0.111128 -0.206045 -0.080739
v -0.382018 -0.324860 -0.157348
v -0.352869 -0.300072 0.145342
v -0.129959 -0.240958 0.094421
v -0.269017 -0.326462 0.316249
v 0.344101 -0.278387 -0.083334
v 0.244742 -0.198002 0.059271
v 0.159481 -0.239223 0.000000
v 0.030950 -0.318178 0.403468
v 0.067109 -0.325749 0.206535
v 0.194711 -0.292067 0.316322
vn 0.1878 -0.8626 0.4698
vn 0.5318 -0.6879 -0.4939
vn -0.9293 -0.3417 -0.1400
vn -0.9345 -0.3435 -0.0935
vn -0.2152 -0.6728 -0.7078
vn 0.5754 -0.6418 -0.5069
vn -0.7504 -0.3833 0.5384
vn -0.9674 -0.2314 0.1031
vn -0.5823 -0.7052 -0.4046
vn -0.3580 -0.6796 -0.6402
vn 0.8848 -0.4644 -0.0395
vn -0.5446 -0.6141 0.5713
vn -0.8603 0.2716 -0.4314
vn -0.4291 -0.5737 -0.6977
vn -0.0282 -0.6447 -0.7639
vn 0.0258 -0.2159 0.9761
vn -0.8886 -0.4311 0.1565
vn -0.0080 0.9751 -0.2215
vn 0.4709 0.8374 -0.2774
vn 0.0540 0.9985 -0.0039
vn -0.5171 0.7875 0.3354
vn -0.1171 0.9929 0.0229
vn 0.8860 0.4637 -0.0010
vn -0.1177 0.9928 0.0226
vn -0.0574 0.9459 0.3194
vn 0.3778 0.8550 -0.3554
vn 0.1715 0.3982 -0.9011
vn 0.9108 0.0813 -0.4047
vn 0.9473 0.1736 -0.2692
vn 0.3199 0.9104 0.2624
vn 0.1721 0.5949 -0.7852
vn 0.0167 0.6267 -0.7791
vn 0.0809 0.7868 -0.6118
vn 0.8745 0.4531 -0.1728
vn 0.8324 0.5540 -0.0142
vn 0.4695 0.6668 0.5788
vn -0.1659 0.9445 0.2837
vn 0.1321 0.2974 -0.9456
vn 0.4320 0.8478 -0.3077
vn -0.0653 0.8699 -0.4888
vn -0.4945 0.7711 -0.4010
vn 0.1886 0.9443 -0.2696
vn 0.0440 0.9918 -0.1199
vn -0.3605 0.9214 -0.1448
vn 0.2802 0.9422 -0.1834
vn 0.2156 0.9550 -0.2035
vn 0.1963 0.9622 -0.1890
vn 0.0255 0.9756 -0.2180
vn -0.2289 0.9712 0.0658
vn -0.2145 0.9747 0.0628
vn 0.8229 0.5579 -0.1076
vn -0.1395 0.9022 -0.4082
vn -0.5162 0.8479 0.1206
vn -0.0915 0.9435 -0.3184
vn -0.2124 0.9672 -0.1395
vn -0.7364 0.5311 -0.4192
vn -0.9437 0.2806 0.1751
vn -0.9817 0.1605 -0.1026
vn -0.9905 0.1261 -0.0544
vn 0.0245 0.9966 0.0785
vn -0.1551 0.8932 0.4220
vn -0.3434 0.9249 0.1632
vn -0.4799 0.0913 0.8726
vn -0.9721 -0.2312 -0.0391
vn -0.8793 -0.4372 0.1889
vn 0.4711 0.5876 -0.6578
vn 0.2527 0.8398 0.4805
vn -0.6942 0.1596 0.7019
vn 0.4740 0.8003 0.3672
vn -0.1520 0.9535 -0.2602
vn 0.1962 0.7206 0.6651
vn -0.0399 0.8877 0.4586
vn -0.4930 0.7016 0.5145
vn -0.2940 0.5734 0.7647
vn -0.7006 0.3959 0.5937
vn -0.2781 0.2025 0.9390
vn -0.1978 0.2587 0.9455
vn -0.6951 0.6450 0.3176
vn -0.1185 0.9611 0.2496
vn 0.7658 -0.1893 0.6146
vn -0.4830 0.7356 -0.4750
vn 0.5162 0.7511 -0.4116
vn 0.7041 0.5648 0.4303
vn 0.5895 0.7789 0.2139
vn -0.1028 0.8712 0.4800
vn 0.5693 0.7261 -0.3856
vn 0.0449 0.9897 -0.1361
vn -0.0503 0.8460 0.5308
vn 0.8825 0.4618 0.0893
vn 0.5231 0.7973 0.3010
vn 0.2392 0.8718 0.4275
vn 0.3074 0.9516 -0.0032
vn -0.0677 0.9738 0.2169
vn 0.0119 0.9573 -0.2888
vn 0.0507 0.9384 -0.3418
vn 0.6672 0.6215 -0.4105
vn 0.7521 0.6397 -0.1584
vn 0.8147 0.2354 -0.5300
vn 0.6589 0.7419 -0.1243
vn 0.0029 0.8443 -0.5358
vn 0.7294 0.4929 -0.4745
vn 0.1986 0.6930 -0.6930
vn 0.0462 0.9195 -0.3904
vn -0.0386 0.9084 -0.4162
vn 0.0119 -0.4521 -0.8919
vn 0.2009 -0.7199 -0.6644
vn 0.2060 0.7023 -0.6814
vn 0.4659 0.6267 -0.6246
vn 0.0913 0.9761 -0.1974
vn 0.7252 0.6879 0.0313
vn 0.5433 0.6250 -0.5605
vn 0.1366 0.7855 -0.6036
vn -0.5210 -0.6124 -0.5946
vn 0.1381 0.4962 -0.8572
vn 0.1986 0.4440 -0.8737
vn -0.6063 0.3920 -0.6919
vn -0.5903 0.3768 -0.7138
vn -0.6022 -0.1200 -0.7893
vn -0.1847 -0.3721 -0.9096
vn -0.4333 -0.5600 -0.7061
vn -0.2297 -0.6630 -0.7125
vn -0.2456 0.5997 -0.7616
vn -0.2236 0.5830 -0.7811
vn -0.2558 -0.4264 -0.8676
vn -0.6198 -0.2933 -0.7279
vn -0.8956 0.0494 -0.4422
vn -0.9021 -0.4250 -0.0750
vn -0.9081 -0.3826 0.1703
vn -0.9858 -0.1429 -0.0885
vn -0.6401 0.4438 0.6272
vn -0.8409 -0.5176 0.1577
vn -0.6626 0.0786 0.7449
vn -0.6219 0.2513 0.7417
vn -0.3195 0.4123 0.8532
vn -0.8808 0.1177 -0.4586
vn -0.4753 0.6876 0.5489
vn -0.6534 0.0618 0.7545
vn -0.8774 -0.2330 0.4193
vn -0.3296 0.9053 0.2678
vn -0.3757 0.8999 0.2214
vn -0.9189 0.3449 -0.1913
vn -0.3894 -0.6787 0.6227
vn -0.7043 0.6887 0.1722
vn -0.5595 -0.1928 0.8061
vn -0.2853 0.0500 0.9571
vn -0.9444 -0.2340 0.2309
vn -0.3244 0.5887 0.7404
vn -0.3878 0.1297 0.9125
vn -0.7382 -0.2209 0.6374
vn -0.4783 0.6075 0.6342
vn 0.1897 0.8001 0.5691
vn 0.3156 0.0607 0.9469
vn -0.5647 -0.4823 0.6697
vn -0.6158 -0.3492 0.7063
vn 0.8394 0.4313 0.3308
vn 0.2000 -0.6267 0.7531
vn -0.4849 0.1115 0.8674
vn -0.0159 0.5047 0.8631
vn -0.4117 -0.2225 0.8837
vn 0.1895 0.9074 0.3751
vn -0.0162 -0.4728 0.8810
vn 0.8758 0.3743 0.3049
vn 0.6020 0.7786 0.1771
vn 0.4288 0.3764 0.8213
vn 0.8677 -0.4953 -0.0433
vn 0.4790 -0.8062 0.3473
vn 0.6765 0.5493 0.4904
vn 0.5624 0.3331 0.7568
vn 0.5752 0.2809 0.7682
vn 0.5281 0.7591 -0.3806
vn 0.6326 0.5405 -0.5548
vn 0.5094 0.6638 -0.5476
vn 0.8887 -0.2612 -0.3768
vn 0.6087 0.5955 -0.5243
vn 0.5266 0.5414 -0.6554
vn 0.6811 0.0041 -0.7322
vn 0.5142 -0.1657 -0.8415
vn 0.6055 -0.2558 -0.7536
vn -0.3424 -0.7376 -0.5820
vn 0.1971 -0.9773 0.0782
vn 0.6821 -0.6917 0.2372
vn 0.3798 -0.7339 -0.5632
vn 0.1564 -0.8311 -0.5336
vn -0.3856 -0.4791 -0.7885
vn -0.4948 -0.5188 -0.6971
vn -0.6124 -0.2845 -0.7376
vn -0.7353 0.2510 -0.6296
vn -0.5182 -0.8237 -0.2299
vn -0.6196 0.1015 -0.7783
vn -0.8936 -0.4393 -0.0927
vn -0.3606 -0.8801 -0.3088
vn -0.4245 -0.9008 -0.0912
vn -0.4688 -0.8819 -0.0486
vn -0.4293 -0.7705 -0.4713
vn -0.7178 -0.6080 -0.3393
vn -0.2001 0.0627 -0.9778
vn -0.7710 0.5562 -0.3100
vn -0.6020 0.6348 -0.4844
vn -0.5787 0.5989 -0.5536
vn -0.8638 0.4948 -0.0951
vn -0.3766 0.9034 0.2050
vn -0.8934 0.3486 -0.2835
vn -0.4653 0.6570 0.5932
vn -0.4665 0.8455 0.2597
vn 0.1877 -0.0715 0.9796
vn -0.9483 0.1008 -0.3009
vn -0.9815 -0.1793 -0.0667
vn 0.1408 0.6635 0.7348
vn -0.2492 0.8923 0.3764
vn -0.5640 0.2338 0.7920
vn -0.7658 0.6295 0.1311
vn -0.8127 0.5810 0.0442
vn -0.4294 0.1868 0.8836
vn -0.3480 0.2482 0.9041
vn 0.0696 0.0128 0.9975
vn 0.9610 0.0926 0.2606
vn -0.1777 -0.7519 0.6349
vn 0.0853 0.8373 0.5400
vn 0.9486 0.2096 0.2371
vn 0.1498 0.8580 0.4913
vn -0.1716 0.7713 0.6129
vn 0.5338 0.5148 0.6708
vn 0.2767 0.3165 0.9073
vn -0.0553 0.4609 0.8857
vn 0.0814 0.0692 0.9943
vn 0.1939 -0.0204 0.9808
vn 0.6132 0.2971 0.7319
vn 0.7690 0.1675 0.6169
vn -0.1397 -0.5378 0.8314
vn 0.2862 -0.9032 0.3199
vn 0.5639 0.6647 -0.4901
vn 0.9370 -0.3475 0.0360
vn 0.4554 -0.7145 0.5311
vn 0.7901 0.1880 -0.5834
vn 0.8027 0.5906 -0.0829
vn 0.8650 -0.5007 0.0333
vn 0.9014 -0.3572 0.2446
vn 0.9896 -0.1017 -0.1022
vn 0.9842 -0.1208 -0.1292
vn 0.0592 -0.9700 0.2357
vn 0.0647 -0.8394 0.5396
vn 0.3769 -0.9150 0.1441
vn 0.4850 -0.7615 0.4300
vn 0.7912 -0.6000 -0.1180
vn -0.0066 -0.7096 -0.7045
vn -0.3337 -0.3369 -0.8804
vn 0.4259 -0.2408 -0.8721
vn -0.1690 -0.9730 -0.1572
vn 0.3503 0.3922 -0.8505
vn 0.9904 0.0730 -0.1172
vn 0.0608 -0.4846 -0.8726
vn 0.6499 -0.7257 -0.2259
vn 0.6528 -0.7216 -0.2308
vn 0.2536 -0.4763 -0.8419
vn -0.4386 -0.8953 -0.0780
vn 0.0389 -0.9348 0.3529
vn 0.2952 -0.9388 -0.1776
vn -0.4026 -0.5044 -0.7639
vn -0.4300 -0.6343 -0.6425
vn -0.4945 -0.5534 -0.6702
vn -0.7153 -0.4880 -0.5002
vn 0.0856 -0.4774 -0.8745
vn -0.5812 -0.6759 0.4532
vn -0.3077 0.2094 -0.9282
vn -0.2350 0.1833 -0.9545
vn -0.2546 -0.7830 0.5676
vn 0.3320 -0.9121 0.2407
vn -0.7291 -0.4309 -0.5317
vn -0.6514 -0.4880 -0.5810
vn -0.6207 -0.7004 0.3524
vn 0.0488 -0.9985 0.0253
vn 0.3337 -0.9127 0.2357
vn 0.1361 -0.8718 0.4706
vn -0.6218 -0.6464 0.4422
vn -0.4595 -0.8444 0.2755
vn -0.4750 -0.8729 -0.1114
vn 0.1412 -0.9044 -0.4026
vn 0.0456 -0.9333 -0.3563
vn -0.6479 -0.7120 -0.2707
vn -0.6497 -0.7128 -0.2642
vn 0.1510 -0.9074 -0.3922
vn 0.1964 -0.9499 -0.2430
vn -0.2848 -0.9585 -0.0083
vn -0.1242 -0.6986 0.7046
vn -0.5306 -0.6093 -0.5892
vn -0.6948 -0.6952 -0.1844
vn -0.1547 -0.8854 -0.4383
vn 0.0321 -0.9847 0.1710
vn -0.4544 -0.6499 0.6093
vn -0.0095 0.2092 0.9778
vn 0.0435 -0.6528 -0.7563
vn 0.5565 -0.6975 0.4515
vn 0.3449 -0.5860 0.7332
vn 0.0115 -0.8768 -0.4806
vn 0.7278 -0.2696 -0.6306
vn 0.3142 -0.7165 0.6228
vn 0.0527 -0.8538 0.5180
vn 0.0954 -0.8027 0.5886
vn 0.4229 -0.6489 0.6325
vn 0.9270 -0.3636 -0.0921
vn 0.8917 -0.4427 -0.0943
vn 0.6238 -0.6348 -0.4559
vn 0.5413 -0.7029 -0.4616
vn 0.8455 -0.5283 0.0774
vn 0.4651 -0.8793 0.1022
vn -0.6240 0.2041 0.7543
vn -0.0692 -0.9879 0.1386
vn 0.0576 -0.9953 0.0780
vn 0.0479 -0.7777 0.6268
vn 0.0835 -0.7685 0.6344
vn 0.0469 -0.9978 0.0470
vn 0.1950 -0.9780 0.0734
vn 0.3298 -0.8735 0.3581
vn 0.7428 -0.5713 0.3492
vn 0.0602 -0.9954 0.0751
vn 0.2104 -0.9722 0.1025
vn 0.1973 -0.9778 0.0707
vn 0.8673 -0.4930 0.0683
vn 0.8308 -0.5564 0.0102
vn 0.1702 -0.9798 0.1047
vt 0.500000 0.107952
vt 0.593648 0.165399
vt 0.463743 0.160834
vt 0.877056 0.325222
vt 0.754200 0.294346
vt 0.776257 0.371946
vt 0.430125 0.298021
vt 0.469638 0.215979
vt 0.597584 0.151333
vt 0.918135 0.408491
vt 0.367512 0.339217
vt 0.482149 0.273108
vt 0.415979 0.398034
vt 0.028280 0.323104
vt 0.048725 0.295432
vt 0.016683 0.404834
vt 0.369991 0.342225
vt 0.298377 0.343055
vt 0.293440 0.410762
vt 0.837049 0.343767
vt 0.650760 0.393230
vt 0.807023 0.415839
vt 0.915211 0.386182
vt 0.292074 0.410172
vt 0.090363 0.419341
vt 0.421499 0.404734
vt 1.049999 0.379633
vt 0.611243 0.635000
vt 0.736320 0.683953
vt 0.619685 0.753504
vt 0.280165 0.601900
vt 0.274953 0.659380
vt 0.230075 0.718376
vt 0.040367 0.713054
vt -0.028051 0.744768
vt 0.202031 0.741065
vt 0.628198 0.655577
vt 0.515628 0.698639
vt 0.596856 0.705150
vt 0.986978 0.682618
vt 0.910910 0.686270
vt 0.794877 0.693001
vt 0.595670 0.776542
vt 0.528933 0.770653
vt 0.500000 0.713727
vt 0.742118 0.793818
vt 0.654273 0.786042
vt 0.773873 0.732896
vt 0.584477 0.831757
vt 0.640810 0.670880
vt 0.753139 0.645037
vt 0.654526 0.620284
vt 0.404507 0.841195
vt 0.441826 0.782381
vt 0.476680 0.739743
vt 0.304698 0.792957
vt 0.317536 0.773698
vt 0.344941 0.732589
vt 0.153904 0.745109
vt 0.390836 0.890042
vt 0.265898 0.851157
vt 0.216874 0.729056
vt 0.250701 0.873952
vt 0.236662 0.713047
vt 0.114194 0.678833
vt 0.259921 0.611284
vt 0.531849 0.797926
vt 0.436241 0.809492
vt 0.326471 0.760295
vt 0.590886 0.856927
vt 0.475749 0.749318
vt 0.394669 0.657996
vt 0.516588 0.710845
vt 0.624158 0.730204
vt 0.703630 0.747115
vt 0.766279 0.726438
vt 0.849264 0.700113
vt 1.018861 0.735205
vt 1.014004 0.601209
vt 1.077298 0.500000
vt 0.971370 0.613383
vt 0.974880 0.500000
vt 0.796710 0.591690
vt 0.791055 0.500000
vt 0.695390 0.584413
vt 0.581659 0.599099
vt 0.500000 0.500000
vt 0.424474 0.613290
vt 0.335578 0.500000
vt 0.284105 0.600074
vt 0.170912 0.500000
vt 0.131031 0.601142
vt -0.002527 0.609978
vt 0.040215 0.500000
vt -0.018256 0.613420
vt 0.068228 0.500000
vt 0.145731 0.577532
vt 0.186036 0.500000
vt 0.194627 0.566831
vt 0.249174 0.568757
vt 0.334766 0.500000
vt 0.336441 0.575814
vt 0.373982 0.500000
vt 0.447953 0.578070
vt 0.577922 0.594563
vt 0.637478 0.559393
vt 0.748693 0.500000
vt 0.901250 0.623994
vt 0.976918 0.499999
vt 0.968810 0.612766
vt 1.089300 0.500000
vt 1.139570 0.625933
vt 0.667507 0.500000
vt 0.737247 0.390029
vt 0.579338 0.380994
vt 0.632224 0.301664
vt 0.484493 0.302897
vt 0.058027 0.500000
vt 0.227671 0.415844
vt 0.183919 0.423970
vt 0.131370 0.288791
vt 0.020204 0.282504
vt 0.134039 0.500000
vt 0.155686 0.417179
vt 0.147431 0.391048
vt 0.032700 0.232258
vt 0.216979 0.279695
vt 0.623613 0.500000
vt 0.573364 0.389955
vt 0.704430 0.405241
vt 0.657766 0.263351
vt 0.764557 0.312638
vt 1.096663 0.500000
vt 1.026499 0.384776
vt 1.073604 0.374467
vt 0.895587 0.316633
vt 0.986218 0.274623
vt 0.769243 0.282176
vt 0.737707 0.143436
vt 0.653237 0.270142
vt 0.566281 0.178265
vt 0.529183 0.199975
vt 0.409136 0.143161
vt 0.387442 0.261590
vt 0.232467 0.175338
vt 0.388872 0.293955
vt 0.117982 0.175140
vt 0.329508 0.293103
vt 0.138275 0.263247
vt 0.147131 0.199928
vt 0.370041 0.259042
vt 0.230983 0.173538
vt 0.415870 0.169606
vt 0.357779 0.198762
vt 0.844101 0.221613
vt 0.744742 0.301998
vt 0.659481 0.260777
vt 0.701919 0.197118
vt 0.530950 0.181822
vt 0.567109 0.174251
vt 0.694711 0.207933
s 0
f 1/1/1 16/2/1 15/3/1
f 2/4/2 18/5/2 24/6/2
f 1/1/3 15/3/3 30/7/3
f 1/1/4 30/7/4 36/8/4
f 1/1/5 36/8/5 25/9/5
f 2/4/6 24/6/6 45/10/6
f 3/11/7 21/12/7 51/13/7
f 4/14/8 33/15/8 57/16/8
f 5/17/9 39/18/9 63/19/9
f 6/20/10 42/21/10 69/22/10
f 2/4/11 45/10/11 52/23/11
f 3/11/12 51/13/12 58/24/12
f 4/14/13 57/16/13 64/25/13
f 5/17/14 63/19/14 70/26/14
f 6/20/15 69/22/15 46/27/15
f 7/28/16 75/29/16 90/30/16
f 8/31/17 78/32/17 96/33/17
f 9/34/18 81/35/18 99/36/18
f 10/37/19 84/38/19 102/39/19
f 11/40/20 87/41/20 91/42/20
f 93/43/21 100/44/21 12/45/21
f 92/46/22 103/47/22 93/43/22
f 91/42/23 104/48/23 92/46/23
f 93/43/24 103/47/24 100/44/24
f 103/47/25 101/49/25 100/44/25
f 92/46/26 104/48/26 103/47/26
f 104/48/27 105/50/27 103/47/27
f 103/47/28 105/50/28 101/49/28
f 105/50/29 102/39/29 101/49/29
f 91/42/30 87/41/30 104/48/30
f 87/41/31 86/51/31 104/48/31
f 104/48/32 86/51/32 105/50/32
f 86/51/33 85/52/33 105/50/33
f 105/50/34 85/52/34 102/39/34
f 85/52/35 10/37/35 102/39/35
f 100/44/36 97/53/36 12/45/36
f 101/49/37 106/54/37 100/44/37
f 102/39/38 107/55/38 101/49/38
f 100/44/39 106/54/39 97/53/39
f 106/54/40 98/56/40 97/53/40
f 101/49/41 107/55/41 106/54/41
f 107/55/42 108/57/42 106/54/42
f 106/54/43 108/57/43 98/56/43
f 108/57/44 99/36/44 98/56/44
f 102/39/45 84/38/45 107/55/45
f 84/38/46 83/58/46 107/55/46
f 107/55/47 83/58/47 108/57/47
f 83/58/48 82/59/48 108/57/48
f 108/57/49 82/59/49 99/36/49
f 82/59/50 9/34/50 99/36/50
f 97/53/51 94/60/51 12/45/51
f 98/56/52 109/61/52 97/53/52
f 99/36/53 110/62/53 98/56/53
f 97/53/54 109/61/54 94/60/54
f 109/61/55 95/63/55 94/60/55
f 98/56/56 110/62/56 109/61/56
f 110/62/57 111/64/57 109/61/57
f 109/61/58 111/64/58 95/63/58
f 111/64/59 96/33/59 95/63/59
f 99/36/60 81/35/60 110/62/60
f 81/35/61 80/65/61 110/62/61
f 110/62/62 80/65/62 111/64/62
f 80/65/63 79/66/63 111/64/63
f 111/64/64 79/66/64 96/33/64
f 79/66/65 8/31/65 96/33/65
f 94/60/66 88/67/66 12/45/66
f 95/63/67 112/68/67 94/60/67
f 96/33/68 113/69/68 95/63/68
f 94/60/69 112/68/69 88/67/69
f 112/68/70 89/70/70 88/67/70
f 95/63/71 113/69/71 112/68/71
f 113/69/72 114/71/72 112/68/72
f 112/68/73 114/71/73 89/70/73
f 114/71/74 90/30/74 89/70/74
f 96/33/75 78/32/75 113/69/75
f 78/32/76 77/72/76 113/69/76
f 113/69/77 77/72/77 114/71/77
f 77/72/78 76/73/78 114/71/78
f 114/71/79 76/73/79 90/30/79
f 76/73/80 7/28/80 90/30/80
f 88/67/81 93/43/81 12/45/81
f 89/70/82 115/74/82 88/67/82
f 90/30/83 116/75/83 89/70/83
f 88/67/84 115/74/84 93/43/84
f 115/74/85 92/46/85 93/43/85
f 89/70/86 116/75/86 115/74/86
f 116/75/87 117/76/87 115/74/87
f 115/74/88 117/76/88 92/46/88
f 117/76/89 91/42/89 92/46/89
f 90/30/90 75/29/90 116/75/90
f 75/29/91 74/77/91 116/75/91
f 116/75/92 74/77/92 117/76/92
f 74/77/93 73/78/93 117/76/93
f 117/76/94 73/78/94 91/42/94
f 73/78/95 11/40/95 91/42/95
f 48/79/96 87/41/96 11/40/96
f 47/80/97 118/81/97 48/79/97
f 46/27/98 119/82/98 47/80/98
f 48/79/99 118/81/99 87/41/99
f 118/81/100 86/51/100 87/41/100
f 47/80/101 119/82/101 118/81/101
f 119/82/102 120/83/102 118/81/102
f 118/81/103 120/83/103 86/51/103
f 120/83/104 85/52/104 86/51/104
f 46/27/105 69/22/105 119/82/105
f 69/22/106 68/84/106 119/82/106
f 119/82/107 68/84/107 120/83/107
f 68/84/108 67/85/108 120/83/108
f 120/83/109 67/85/109 85/52/109
f 67/85/110 10/37/110 85/52/110
f 72/86/111 84/38/111 10/37/111
f 71/87/112 121/88/112 72/86/112
f 70/26/113 122/89/113 71/87/113
f 72/86/114 121/88/114 84/38/114
f 121/88/115 83/58/115 84/38/115
f 71/87/116 122/89/116 121/88/116
f 122/89/117 123/90/117 121/88/117
f 121/88/118 123/90/118 83/58/118
f 123/90/119 82/59/119 83/58/119
f 70/26/120 63/19/120 122/89/120
f 63/19/121 62/91/121 122/89/121
f 122/89/122 62/91/122 123/90/122
f 62/91/123 61/92/123 123/90/123
f 123/90/124 61/92/124 82/59/124
f 61/92/125 9/34/125 82/59/125
f 66/93/126 81/35/126 9/34/126
f 65/94/127 124/95/127 66/93/127
f 64/25/128 125/96/128 65/94/128
f 66/93/129 124/95/129 81/35/129
f 124/95/130 80/65/130 81/35/130
f 65/94/131 125/96/131 124/95/131
f 125/96/132 126/97/132 124/95/132
f 124/95/133 126/97/133 80/65/133
f 126/97/134 79/66/134 80/65/134
f 64/25/135 57/16/135 125/96/135
f 57/16/136 56/98/136 125/96/136
f 125/96/137 56/98/137 126/97/137
f 56/98/138 55/99/138 126/97/138
f 126/97/139 55/99/139 79/66/139
f 55/99/140 8/31/140 79/66/140
f 60/100/141 78/32/141 8/31/141
f 59/101/142 127/102/142 60/100/142
f 58/24/143 128/103/143 59/101/143
f 60/100/144 127/102/144 78/32/144
f 127/102/145 77/72/145 78/32/145
f 59/101/146 128/103/146 127/102/146
f 128/103/147 129/104/147 127/102/147
f 127/102/148 129/104/148 77/72/148
f 129/104/149 76/73/149 77/72/149
f 58/24/150 51/13/150 128/103/150
f 51/13/151 50/87/151 128/103/151
f 128/103/152 50/87/152 129/104/152
f 50/87/153 49/105/153 129/104/153
f 129/104/154 49/105/154 76/73/154
f 49/105/155 7/28/155 76/73/155
f 54/106/156 75/29/156 7/28/156
f 53/107/157 130/108/157 54/106/157
f 52/23/158 131/109/158 53/107/158
f 54/106/159 130/108/159 75/29/159
f 130/108/160 74/77/160 75/29/160
f 53/107/161 131/109/161 130/108/161
f 131/109/162 132/110/162 130/108/162
f 130/108/163 132/110/163 74/77/163
f 132/110/164 73/78/164 74/77/164
f 52/23/165 45/10/165 131/109/165
f 45/10/166 44/111/166 131/109/166
f 131/109/167 44/111/167 132/110/167
f 44/111/168 43/112/168 132/110/168
f 132/110/169 43/112/169 73/78/169
f 43/112/170 11/40/170 73/78/170
f 67/85/171 72/86/171 10/37/171
f 68/84/172 133/113/172 67/85/172
f 69/22/173 134/114/173 68/84/173
f 67/85/174 133/113/174 72/86/174
f 133/113/175 71/87/175 72/86/175
f 68/84/176 134/114/176 133/113/176
f 134/114/177 135/115/177 133/113/177
f 133/113/178 135/115/178 71/87/178
f 135/115/179 70/26/179 71/87/179
f 69/22/180 42/21/180 134/114/180
f 42/21/181 41/116/181 134/114/181
f 134/114/182 41/116/182 135/115/182
f 41/116/183 40/117/183 135/115/183
f 135/115/184 40/117/184 70/26/184
f 40/117/185 5/17/185 70/26/185
f 61/92/186 66/93/186 9/34/186
f 62/91/187 136/118/187 61/92/187
f 63/19/188 137/119/188 62/91/188
f 61/92/189 136/118/189 66/93/189
f 136/118/190 65/94/190 66/93/190
f 62/91/191 137/119/191 136/118/191
f 137/119/192 138/120/192 136/118/192
f 136/118/193 138/120/193 65/94/193
f 138/120/194 64/25/194 65/94/194
f 63/19/195 39/18/195 137/119/195
f 39/18/196 38/121/196 137/119/196
f 137/119/197 38/121/197 138/120/197
f 38/121/198 37/122/198 138/120/198
f 138/120/199 37/122/199 64/25/199
f 37/122/200 4/14/200 64/25/200
f 55/99/201 60/100/201 8/31/201
f 56/98/202 139/123/202 55/99/202
f 57/16/203 140/124/203 56/98/203
f 55/99/204 139/123/204 60/100/204
f 139/123/205 59/101/205 60/100/205
f 56/98/206 140/124/206 139/123/206
f 140/124/207 141/125/207 139/123/207
f 139/123/208 141/125/208 59/101/208
f 141/125/209 58/24/209 59/101/209
f 57/16/210 33/15/210 140/124/210
f 33/15/211 32/126/211 140/124/211
f 140/124/212 32/126/212 141/125/212
f 32/126/213 31/127/213 141/125/213
f 141/125/214 31/127/214 58/24/214
f 31/127/215 3/11/215 58/24/215
f 49/105/216 54/106/216 7/28/216
f 50/87/217 142/128/217 49/105/217
f 51/13/218 143/129/218 50/87/218
f 49/105/219 142/128/219 54/106/219
f 142/128/220 53/107/220 54/106/220
f 50/87/221 143/129/221 142/128/221
f 143/129/222 144/130/222 142/128/222
f 142/128/223 144/130/223 53/107/223
f 144/130/224 52/23/224 53/107/224
f 51/13/225 21/12/225 143/129/225
f 21/12/226 20/131/226 143/129/226
f 143/129/227 20/131/227 144/130/227
f 20/131/228 19/132/228 144/130/228
f 144/130/229 19/132/229 52/23/229
f 19/132/230 2/4/230 52/23/230
f 43/112/231 48/79/231 11/40/231
f 44/111/232 145/133/232 43/112/232
f 45/10/233 146/134/233 44/111/233
f 43/112/234 145/133/234 48/79/234
f 145/133/235 47/80/235 48/79/235
f 44/111/236 146/134/236 145/133/236
f 146/134/237 147/135/237 145/133/237
f 145/133/238 147/135/238 47/80/238
f 147/135/239 46/27/239 47/80/239
f 45/10/240 24/6/240 146/134/240
f 24/6/241 23/136/241 146/134/241
f 146/134/242 23/136/242 147/135/242
f 23/136/243 22/137/243 147/135/243
f 147/135/244 22/137/244 46/27/244
f 22/137/245 6/20/245 46/27/245
f 27/138/246 42/21/246 6/20/246
f 26/139/247 148/140/247 27/138/247
f 25/9/248 149/141/248 26/139/248
f 27/138/249 148/140/249 42/21/249
f 148/140/250 41/116/250 42/21/250
f 26/139/251 149/141/251 148/140/251
f 149/141/252 150/142/252 148/140/252
f 148/140/253 150/142/253 41/116/253
f 150/142/254 40/117/254 41/116/254
f 25/9/255 36/8/255 149/141/255
f 36/8/256 35/143/256 149/141/256
f 149/141/257 35/143/257 150/142/257
f 35/143/258 34/144/258 150/142/258
f 150/142/259 34/144/259 40/117/259
f 34/144/260 5/17/260 40/117/260
f 34/144/261 39/18/261 5/17/261
f 35/143/262 151/145/262 34/144/262
f 36/8/263 152/146/263 35/143/263
f 34/144/264 151/145/264 39/18/264
f 151/145/265 38/121/265 39/18/265
f 35/143/266 152/146/266 151/145/266
f 152/146/267 153/147/267 151/145/267
f 151/145/268 153/147/268 38/121/268
f 153/147/269 37/122/269 38/121/269
f 36/8/270 30/7/270 152/146/270
f 30/7/271 29/148/271 152/146/271
f 152/146/272 29/148/272 153/147/272
f 29/148/273 28/149/273 153/147/273
f 153/147/274 28/149/274 37/122/274
f 28/149/275 4/14/275 37/122/275
f 28/149/276 33/15/276 4/14/276
f 29/148/277 154/150/277 28/149/277
f 30/7/278 155/151/278 29/148/278
f 28/149/279 154/150/279 33/15/279
f 154/150/280 32/126/280 33/15/280
f 29/148/281 155/151/281 154/150/281
f 155/151/282 156/152/282 154/150/282
f 154/150/283 156/152/283 32/126/283
f 156/152/284 31/127/284 32/126/284
f 30/7/285 15/3/285 155/151/285
f 15/3/286 14/153/286 155/151/286
f 155/151/287 14/153/287 156/152/287
f 14/153/288 13/154/288 156/152/288
f 156/152/289 13/154/289 31/127/289
f 13/154/290 3/11/290 31/127/290
f 22/137/291 27/138/291 6/20/291
f 23/136/292 157/155/292 22/137/292
f 24/6/293 158/156/293 23/136/293
f 22/137/294 157/155/294 27/138/294
f 157/155/295 26/139/295 27/138/295
f 23/136/296 158/156/296 157/155/296
f 158/156/297 159/157/297 157/155/297
f 157/155/298 159/157/298 26/139/298
f 159/157/299 25/9/299 26/139/299
f 24/6/300 18/5/300 158/156/300
f 18/5/301 17/158/301 158/156/301
f 158/156/302 17/158/302 159/157/302
f 17/158/303 16/2/303 159/157/303
f 159/157/304 16/2/304 25/9/304
f 16/2/305 1/1/305 25/9/305
f 13/154/306 21/12/306 3/11/306
f 14/153/307 160/159/307 13/154/307
f 15/3/308 161/160/308 14/153/308
f 13/154/309 160/159/309 21/12/309
f 160/159/310 20/131/310 21/12/310
f 14/153/311 161/160/311 160/159/311
f 161/160/312 162/161/312 160/159/312
f 160/159/313 162/161/313 20/131/313
f 162/161/314 19/132/314 20/131/314
f 15/3/315 16/2/315 161/160/315
f 16/2/316 17/158/316 161/160/316
f 161/160/317 17/158/317 162/161/317
f 17/158/318 18/5/318 162/161/318
f 162/161/319 18/5/319 19/132/319
f 18/5/320 2/4/320 19/132/320
