# Blender 5.1.2
# www.blender.org
o st_rock_01
v 0.000000 -0.538225 0.000000
v 0.333694 -0.154678 0.242440
v -0.149890 -0.181901 0.461322
v -0.400290 -0.150110 0.000000
v -0.129033 -0.156591 -0.397131
v 0.257479 -0.119349 -0.187067
v 0.153179 0.185892 0.471444
v -0.359627 0.166698 0.261281
v -0.359904 0.166827 -0.261483
v 0.125696 0.152541 -0.386860
v 0.441694 0.165636 0.000000
v 0.000000 0.435557 0.000000
v -0.111931 -0.237080 0.344493
v -0.096949 -0.380737 0.298384
v -0.050726 -0.474512 0.156122
v 0.114329 -0.408494 0.083064
v 0.180817 -0.271229 0.131370
v 0.253242 -0.204879 0.183989
v 0.247994 -0.175632 0.317818
v 0.124348 -0.186522 0.382697
v -0.021511 -0.273409 0.627181
v 0.261349 -0.121144 -0.094940
v 0.483516 -0.224125 0.000000
v 0.378868 -0.175617 0.137630
v 0.123804 -0.442348 -0.089948
v 0.181389 -0.272086 -0.131785
v 0.234021 -0.189329 -0.170024
v -0.322167 -0.210862 0.000000
v -0.278080 -0.337458 0.000000
v -0.144092 -0.416509 0.000000
v -0.253068 -0.196990 0.374690
v -0.284216 -0.162843 0.206494
v -0.363522 -0.164788 0.104480
v -0.103023 -0.218212 -0.317076
v -0.087285 -0.342784 -0.268641
v -0.041106 -0.384520 -0.126513
v -0.373515 -0.169318 -0.107352
v -0.317367 -0.181837 -0.230580
v -0.254403 -0.198029 -0.376668
v -0.011459 -0.145643 -0.334094
v 0.123351 -0.185026 -0.379628
v 0.251644 -0.178217 -0.322497
v 0.411387 0.081003 0.063482
v 0.641440 -0.000000 0.208413
v 0.479389 -0.104914 0.246662
v 0.294677 -0.064490 -0.151621
v 0.474279 0.000000 -0.154100
v 0.401779 0.079111 -0.061999
v 0.097304 0.118085 0.598951
v 0.000000 -0.000000 0.499606
v -0.099837 -0.121159 0.614544
v 0.358549 -0.098285 0.355708
v 0.256166 0.000000 0.352582
v 0.237054 0.102412 0.469852
v -0.352903 0.077233 0.181580
v -0.488905 -0.000000 0.158852
v -0.552491 -0.108787 0.085256
v -0.319454 -0.138011 0.633174
v -0.347015 0.000000 0.477624
v -0.404442 0.110866 0.401239
v -0.399809 0.109596 -0.396642
v -0.299638 -0.000000 -0.412416
v -0.238647 -0.103101 -0.473012
v -0.583621 -0.114917 -0.090059
v -0.473385 0.000000 -0.153810
v -0.350121 0.076624 -0.180149
v 0.261642 0.113035 -0.518589
v 0.296258 -0.000000 -0.407764
v 0.239622 -0.065685 -0.237723
v -0.081150 -0.098481 -0.499517
v 0.000000 0.000000 -0.608301
v 0.078181 0.094878 -0.481241
v 0.394457 0.178812 0.113371
v 0.322395 0.184718 0.234233
v 0.192224 0.149629 0.284606
v 0.018216 0.231530 0.531113
v -0.138696 0.208043 0.426853
v -0.222719 0.157732 0.285427
v -0.434784 0.201536 0.157943
v -0.481239 0.223070 0.000000
v -0.407939 0.189093 -0.148191
v -0.283798 0.200989 -0.363703
v -0.140949 0.211423 -0.433787
v 0.016364 0.207988 -0.477109
v 0.241702 0.188142 -0.357862
v 0.373522 0.214012 -0.271379
v 0.363211 0.164647 -0.104391
v 0.046846 0.438212 0.144178
v 0.083328 0.327242 0.256460
v 0.164451 0.348323 0.506136
v 0.488123 0.319482 0.000000
v 0.267291 0.324366 0.000000
v 0.137698 0.398028 0.000000
v -0.097640 0.348867 0.070939
v -0.240977 0.361469 0.175078
v -0.260950 0.211115 0.189589
v -0.128878 0.460478 -0.093634
v -0.252818 0.379231 -0.183681
v -0.343775 0.278123 -0.249764
v 0.038601 0.361088 -0.118803
v 0.095304 0.374275 -0.293320
v 0.127713 0.270509 -0.393067
v 0.158091 0.293120 -0.114860
v 0.405774 0.345062 -0.167133
v 0.204516 0.248190 -0.240424
v -0.080141 0.389011 -0.246643
v -0.024071 0.247465 -0.313800
v -0.157147 0.235721 -0.255297
v -0.228056 0.342088 0.000000
v -0.393551 0.318393 -0.095309
v -0.413969 0.334912 0.100254
v -0.071848 0.348759 0.221123
v -0.140972 0.211460 0.229021
v -0.033317 0.342519 0.434332
v 0.155304 0.287953 0.112835
v 0.196091 0.237966 0.230520
v 0.269952 0.229562 0.111190
v 0.375007 0.090204 -0.185076
v 0.361682 0.000000 -0.262775
v 0.361130 0.111597 -0.370480
v -0.069497 0.104245 -0.478262
v -0.173848 -0.000000 -0.535049
v -0.260865 0.120919 -0.496192
v -0.417908 0.091459 -0.071676
v -0.437926 0.000000 0.000000
v -0.438518 0.095970 0.075211
v -0.210165 0.097418 0.399754
v -0.171030 -0.000000 0.526377
v -0.074927 0.112389 0.515627
v 0.327276 0.101135 0.335750
v 0.427258 -0.000001 0.310419
v 0.529503 0.127365 0.261324
v 0.188420 -0.000000 -0.579898
v 0.226967 -0.105206 -0.431713
v 0.064061 -0.096092 -0.440856
v -0.356347 -0.000000 -0.258900
v -0.258542 -0.079895 -0.265237
v -0.326655 -0.078573 -0.161213
v -0.358018 0.000000 0.260114
v -0.462394 -0.111224 0.228204
v -0.385388 -0.119093 0.395368
v 0.185683 0.000000 0.571473
v 0.054763 -0.082144 0.376864
v 0.188416 -0.087337 0.358387
v 0.602594 0.000000 0.000000
v 0.673483 -0.147391 0.115510
v 0.532333 -0.116501 -0.091301
v 0.174265 -0.261399 -0.283107
v 0.065738 -0.319098 -0.202318
v 0.024392 -0.250765 -0.317985
v -0.214673 -0.260515 -0.252363
v -0.183530 -0.340286 -0.133341
v -0.282422 -0.240165 -0.116325
v -0.288059 -0.244959 0.118647
v -0.226506 -0.419969 0.164567
v -0.180708 -0.219296 0.212435
v 0.239628 -0.193865 -0.058033
v 0.423001 -0.342218 0.102442
v 0.231259 -0.346891 0.000000
v 0.031635 -0.325217 0.412394
v 0.073416 -0.356362 0.225944
v 0.181529 -0.272294 0.294907
vn 0.4979 -0.7343 0.4614
vn 0.3248 -0.8907 0.3180
vn -0.6420 -0.7600 0.1016
vn -0.5241 -0.6204 -0.5835
vn -0.0564 -0.6434 -0.7634
vn 0.2993 -0.9026 0.3093
vn -0.8202 -0.3870 0.4213
vn -0.2806 -0.9592 -0.0360
vn 0.1250 -0.7169 -0.6859
vn 0.9710 0.2011 -0.1292
vn 0.2899 -0.8806 0.3748
vn 0.1005 -0.9357 0.3381
vn -0.2227 -0.9721 0.0735
vn -0.0615 -0.8554 -0.5142
vn 0.8232 -0.2201 -0.5233
vn 0.9676 -0.1151 0.2246
vn -0.0306 0.8680 0.4957
vn -0.8941 0.1731 -0.4131
vn 0.6200 -0.0518 -0.7829
vn 0.7780 -0.2348 -0.5827
vn 0.2334 0.8562 -0.4609
vn 0.4036 0.7101 -0.5769
vn 0.0219 0.9898 0.1407
vn 0.4203 0.7059 -0.5701
vn 0.4769 0.8512 0.2193
vn -0.2168 0.9744 -0.0590
vn -0.2694 0.8708 -0.4112
vn 0.7472 0.6635 0.0388
vn 0.7790 0.5437 -0.3125
vn 0.8173 -0.3516 -0.4565
vn 0.9726 -0.2325 -0.0087
vn -0.0166 0.6249 -0.7805
vn 0.1036 0.8985 -0.4266
vn 0.6134 0.7648 -0.1968
vn 0.2580 -0.0552 -0.9646
vn 0.4309 0.8210 -0.3746
vn 0.1125 0.9874 0.1112
vn -0.4525 0.5405 -0.7093
vn 0.4666 0.8490 -0.2479
vn -0.2196 0.8552 -0.4694
vn -0.2136 0.3484 -0.9127
vn -0.4079 0.2544 -0.8768
vn -0.3450 0.2248 -0.9113
vn 0.0856 0.4900 -0.8675
vn -0.2909 0.9110 -0.2923
vn -0.0465 0.9683 -0.2456
vn -0.1508 0.9776 -0.1468
vn -0.1432 0.9788 -0.1462
vn 0.1801 0.8560 -0.4847
vn -0.8168 0.1762 -0.5493
vn -0.2684 0.7728 0.5751
vn -0.6462 0.7264 0.2340
vn -0.5554 0.7433 -0.3728
vn -0.3490 0.7435 0.5705
vn 0.0079 0.9940 -0.1095
vn -0.2640 0.9379 0.2252
vn -0.0884 0.9917 -0.0930
vn -0.1011 0.9880 -0.1168
vn -0.4112 0.1415 0.9005
vn -0.9022 0.2455 -0.3547
vn -0.8307 0.2874 -0.4768
vn -0.7921 0.5957 -0.1330
vn -0.9117 0.2745 0.3056
vn -0.1851 0.4143 0.8911
vn -0.1222 0.9102 0.3957
vn -0.5802 0.7957 0.1739
vn 0.0784 0.9968 -0.0127
vn -0.3098 0.1320 0.9416
vn -0.5584 0.8239 0.0965
vn -0.0652 0.6991 0.7121
vn -0.2459 0.1786 0.9527
vn -0.8760 0.4509 0.1715
vn 0.1364 0.9906 0.0043
vn 0.0015 0.9964 -0.0846
vn -0.1772 0.8280 0.5319
vn -0.5391 0.8420 0.0207
vn -0.7875 0.6160 0.0197
vn -0.5495 0.3895 0.7392
vn -0.3005 0.5438 0.7836
vn 0.3316 -0.2190 0.9176
vn 0.2616 0.9597 -0.1027
vn 0.8079 0.5288 0.2602
vn 0.5650 0.7863 -0.2500
vn 0.7905 0.4955 0.3600
vn 0.3913 0.6885 0.6106
vn 0.6322 0.7674 0.1069
vn 0.4457 0.8691 0.2147
vn 0.3707 0.7111 0.5974
vn 0.0168 0.7610 0.6485
vn 0.9942 0.0212 0.1057
vn 0.1889 0.5067 0.8411
vn 0.3785 0.9098 0.1702
vn 0.3690 0.9127 0.1754
vn 0.2015 0.5298 0.8238
vn 0.8787 -0.2652 0.3969
vn 0.7975 0.0621 -0.6001
vn 0.6843 0.7244 -0.0836
vn 0.3154 -0.8909 -0.3268
vn 0.9272 0.3330 -0.1717
vn 0.9943 0.0689 0.0818
vn 0.6168 0.4594 -0.6391
vn 0.9937 -0.0752 -0.0831
vn 0.9959 -0.0435 -0.0796
vn 0.3330 0.6346 -0.6974
vn 0.4172 -0.8724 -0.2547
vn 0.4333 -0.8798 -0.1955
vn 0.8485 -0.3653 -0.3829
vn 0.7950 -0.2828 -0.5367
vn 0.4872 0.8128 -0.3194
vn -0.1633 0.8859 -0.4342
vn 0.6955 0.4019 -0.5957
vn 0.0377 0.7894 -0.6127
vn -0.3184 -0.5724 -0.7557
vn -0.0185 0.0264 -0.9995
vn -0.2544 0.2210 -0.9415
vn -0.2900 0.6651 -0.6881
vn 0.1191 0.3804 -0.9171
vn 0.1220 0.4487 -0.8853
vn -0.3175 0.7862 -0.5301
vn -0.1357 -0.4468 -0.8843
vn -0.6980 0.0079 -0.7160
vn -0.6736 -0.2627 -0.6909
vn -0.5220 -0.3663 -0.7703
vn -0.4326 0.7365 -0.5200
vn -0.5807 0.7970 -0.1660
vn -0.8802 -0.3669 -0.3011
vn -0.5405 0.7195 -0.4361
vn -0.6689 0.7272 0.1542
vn -0.8289 -0.2902 -0.4783
vn -0.8939 -0.2164 -0.3926
vn -0.9080 0.3628 0.2093
vn -0.9844 0.1047 -0.1413
vn -0.9183 -0.3781 -0.1172
vn -0.9517 -0.1678 0.2571
vn -0.6502 0.7545 0.0891
vn -0.7569 0.6067 -0.2429
vn -0.9272 0.2275 -0.2976
vn -0.4866 0.7051 0.5159
vn -0.7492 -0.3920 0.5340
vn -0.7904 -0.4395 0.4267
vn -0.0043 0.9293 0.3693
vn 0.0466 0.5830 0.8111
vn -0.1857 0.7184 0.6703
vn 0.0648 0.8855 0.4601
vn -0.8276 0.4538 0.3303
vn -0.1756 0.7533 0.6338
vn -0.5772 0.5512 0.6025
vn -0.6468 0.2405 0.7238
vn -0.5557 0.3355 0.7607
vn 0.0222 0.5968 0.8021
vn 0.1202 0.6293 0.7678
vn 0.1545 -0.0377 0.9873
vn -0.3924 -0.3810 0.8372
vn -0.4305 0.2229 0.8746
vn 0.4775 0.6716 0.5664
vn 0.7055 0.7086 0.0099
vn 0.7436 -0.4389 0.5045
vn 0.2304 0.2697 0.9350
vn 0.2734 0.9459 0.1749
vn 0.0372 0.7723 0.6341
vn 0.2393 -0.0066 0.9709
vn 0.3331 0.0943 0.9382
vn 0.1309 0.7684 0.6264
vn 0.2528 0.9619 0.1037
vn 0.6613 -0.1212 0.7402
vn 0.4077 -0.3177 0.8561
vn 0.4300 0.0028 0.9028
vn 0.5464 0.6821 -0.4860
vn 0.7415 0.4022 -0.5370
vn 0.9208 -0.0386 0.3881
vn -0.1777 0.8770 -0.4464
vn 0.8200 -0.2525 -0.5137
vn 0.8273 -0.5585 0.0598
vn -0.2177 0.5705 -0.7919
vn 0.0954 0.7686 -0.6326
vn 0.7764 -0.4007 -0.4864
vn -0.0134 -0.8170 -0.5765
vn 0.0782 -0.8515 -0.5185
vn 0.2353 -0.8014 -0.5499
vn 0.9785 0.1803 -0.1006
vn 0.2970 -0.7615 -0.5762
vn 0.0151 -0.5601 -0.8283
vn -0.4047 -0.6860 -0.6046
vn 0.1480 -0.9329 -0.3283
vn 0.2812 -0.8851 -0.3708
vn -0.9649 0.1102 0.2382
vn -0.7298 -0.6282 -0.2696
vn -0.8674 -0.4969 -0.0276
vn -0.9705 -0.1298 0.2030
vn -0.5169 0.6336 -0.5756
vn -0.6245 -0.7462 -0.2307
vn -0.5991 -0.7030 -0.3833
vn -0.4325 -0.7622 -0.4816
vn -0.2127 -0.3100 -0.9266
vn -0.9929 0.0614 -0.1019
vn -0.8453 0.3507 -0.4032
vn -0.8008 0.2826 -0.5280
vn -0.8827 0.2048 -0.4230
vn -0.1840 -0.4297 -0.8840
vn -0.2404 -0.9641 0.1126
vn -0.9575 0.1484 -0.2474
vn -0.4674 0.6453 0.6042
vn -0.8377 0.1309 0.5302
vn -0.9680 -0.1444 -0.2050
vn -0.8995 -0.4346 0.0455
vn -0.5780 0.3281 0.7471
vn -0.7291 0.5800 0.3632
vn -0.9600 0.2758 0.0486
vn -0.9544 0.1183 0.2740
vn -0.2959 -0.9399 0.1705
vn -0.2482 -0.9455 0.2110
vn -0.2686 -0.9601 0.0785
vn -0.5148 -0.8538 -0.0780
vn -0.4980 -0.8644 0.0693
vn -0.0364 -0.9763 0.2134
vn 0.5872 0.5792 0.5654
vn -0.3245 -0.4380 0.8384
vn 0.8355 -0.2048 0.5098
vn 0.6590 0.3367 0.6725
vn 0.9379 -0.1708 0.3020
vn -0.1884 -0.8530 0.4868
vn 0.0165 -0.9251 0.3794
vn 0.7732 -0.5832 0.2490
vn 0.0190 0.0516 0.9985
vn 0.7279 0.4195 0.5423
vn 0.6692 0.4779 0.5691
vn 0.1411 0.1488 0.9788
vn 0.4689 -0.0875 0.8789
vn -0.0131 -0.4247 0.9052
vn 0.4725 -0.8260 0.3075
vn 0.9230 -0.3793 -0.0650
vn 0.3697 0.9266 -0.0689
vn 0.4497 -0.4043 0.7965
vn 0.3776 0.9250 -0.0429
vn 0.4364 0.8231 -0.3634
vn 0.9338 0.3127 -0.1740
vn 0.8214 -0.0502 -0.5681
vn 0.7679 0.0380 -0.6394
vn 0.1371 -0.4162 -0.8989
vn 0.1189 -0.8795 0.4608
vn 0.1174 -0.9053 0.4083
vn 0.5647 -0.6677 -0.4851
vn 0.0213 -0.6524 -0.7576
vn 0.0216 -0.7134 -0.7004
vn 0.8403 -0.5402 -0.0458
vn 0.9507 -0.2972 0.0882
vn 0.8244 -0.5605 -0.0784
vn 0.5890 -0.3751 -0.7158
vn 0.7403 -0.6713 0.0366
vn 0.3401 -0.6418 -0.6873
vn 0.4186 -0.9043 -0.0836
vn 0.0617 -0.8495 -0.5239
vn 0.0974 -0.7548 -0.6486
vn -0.3771 -0.2646 -0.8876
vn -0.0841 -0.6927 -0.7163
vn 0.2915 -0.8880 -0.3555
vn 0.3603 -0.7411 -0.5666
vn -0.1015 -0.3716 -0.9228
vn -0.0499 -0.1679 -0.9845
vn 0.4027 -0.6574 -0.6369
vn 0.1479 -0.7599 -0.6330
vn -0.3532 -0.3775 -0.8560
vn -0.2835 -0.9411 -0.1843
vn 0.0652 -0.8830 -0.4647
vn -0.6221 -0.7611 -0.1838
vn -0.5372 -0.7589 -0.3681
vn -0.7093 -0.6572 -0.2549
vn -0.6222 -0.7578 -0.1965
vn -0.6136 -0.7633 -0.2020
vn -0.2501 -0.8706 -0.4237
vn -0.4808 -0.8149 -0.3236
vn -0.6690 -0.5822 -0.4620
vn -0.9183 -0.3198 -0.2332
vn -0.6146 -0.7888 -0.0113
vn -0.6138 -0.7893 -0.0119
vn -0.6105 -0.7851 0.1045
vn -0.9299 -0.3238 0.1743
vn -0.4903 -0.8310 -0.2630
vn -0.7292 -0.6841 0.0130
vn -0.6637 -0.5317 0.5261
vn -0.9444 -0.2931 0.1490
vn -0.6533 -0.0313 0.7564
vn -0.3974 -0.6617 0.6359
vn -0.4728 -0.8765 -0.0904
vn -0.2995 -0.9389 -0.1697
vn -0.2391 -0.8446 0.4791
vn -0.7181 -0.0021 0.6959
vn -0.8758 -0.2279 0.4254
vn -0.2710 -0.9625 0.0115
vn -0.1791 -0.9108 0.3720
vn 0.9437 -0.3276 -0.0460
vn 0.1458 -0.4820 -0.8640
vn 0.8079 0.0910 0.5822
vn 0.9477 -0.3136 -0.0602
vn 0.8284 -0.5564 -0.0640
vn 0.0894 -0.6784 -0.7293
vn 0.4499 -0.3381 -0.8266
vn 0.8651 -0.2185 -0.4514
vn 0.7691 -0.3854 -0.5098
vn 0.3647 -0.0989 0.9259
vn -0.0700 -0.5718 0.8174
vn -0.2069 -0.8801 0.4274
vn 0.6601 -0.5129 0.5488
vn 0.5593 -0.8073 0.1886
vn 0.6796 -0.7120 0.1765
vn -0.6765 -0.7260 0.1231
vn -0.5541 -0.3062 0.7741
vn 0.3553 -0.7233 0.5922
vn -0.5448 -0.8359 0.0668
vn 0.8183 -0.4789 0.3180
vn 0.2252 -0.9515 0.2094
vn 0.4903 -0.8351 0.2494
vn 0.6516 -0.2851 0.7029
vn 0.4400 -0.4821 0.7576
vn 0.4910 -0.7637 0.4192
vn 0.7596 -0.5100 0.4036
vn 0.6169 -0.7870 -0.0078
vn 0.6785 -0.7345 -0.0077
vn 0.7955 -0.5847 0.1590
vn 0.4029 -0.8907 0.2105
vt 0.500000 -0.038225
vt 0.614329 0.091506
vt 0.449274 0.025488
vt 0.833694 0.345322
vt 0.753242 0.295121
vt 0.878868 0.324383
vt 0.355908 0.083491
vt 0.458894 0.115480
vt 0.623804 0.057652
vt 0.979389 0.395086
vt 0.350110 0.318099
vt 0.478489 0.226591
vt 0.400163 0.378841
vt 0.099710 0.349890
vt 0.136478 0.335212
vt -0.052491 0.391213
vt 0.370966 0.343409
vt 0.245597 0.301971
vt 0.261353 0.396899
vt 0.757479 0.380651
vt 0.751644 0.321783
vt 0.739622 0.434315
vt 0.858549 0.401715
vt 0.180546 0.361989
vt -0.083621 0.385083
vt 0.418850 0.401519
vt 0.794677 0.435510
vt 0.653179 0.685892
vt 0.692224 0.649629
vt 0.664451 0.848323
vt 0.140373 0.666698
vt 0.277281 0.657732
vt 0.239050 0.711115
vt 0.140096 0.666827
vt 0.092061 0.689093
vt 0.156225 0.778123
vt 0.625696 0.652541
vt 0.516364 0.707988
vt 0.627713 0.770509
vt 0.941694 0.665636
vt 0.863211 0.664647
vt 0.988123 0.819482
vt 0.637698 0.898028
vt 0.538601 0.861088
vt 0.500000 0.935557
vt 0.767291 0.824366
vt 0.658091 0.793120
vt 0.905774 0.845062
vt 0.595304 0.874275
vt 0.704516 0.748190
vt 0.873522 0.714012
vt 0.741702 0.688142
vt 0.371122 0.960478
vt 0.419859 0.889011
vt 0.475929 0.747465
vt 0.247182 0.879231
vt 0.342853 0.735721
vt 0.359051 0.711423
vt 0.216202 0.700989
vt 0.402360 0.848867
vt 0.271944 0.842088
vt 0.106449 0.818393
vt 0.259023 0.861469
vt 0.086031 0.834912
vt 0.018761 0.723070
vt 0.065216 0.701536
vt 0.546846 0.938212
vt 0.428152 0.848759
vt 0.359028 0.711460
vt 0.583328 0.827242
vt 0.466683 0.842519
vt 0.361304 0.708043
vt 0.518216 0.731530
vt 0.655304 0.787953
vt 0.696091 0.737966
vt 0.769952 0.729562
vt 0.822395 0.684718
vt 0.894457 0.678812
vt 0.901779 0.579111
vt 0.974280 0.500000
vt 0.875007 0.590204
vt 0.861682 0.500000
vt 0.861130 0.611597
vt 0.796258 0.500000
vt 0.761642 0.613035
vt 0.578181 0.594878
vt 0.500000 0.500000
vt 0.430503 0.604245
vt 0.326152 0.500000
vt 0.239135 0.620919
vt 0.200362 0.500000
vt 0.100191 0.609596
vt 0.149879 0.576624
vt 0.026615 0.500000
vt 0.082092 0.591459
vt 0.062074 0.500000
vt 0.061482 0.595970
vt 0.011095 0.500000
vt 0.147097 0.577233
vt 0.095558 0.610866
vt 0.152985 0.500000
vt 0.289835 0.597418
vt 0.328970 0.500000
vt 0.425073 0.612389
vt 0.597304 0.618085
vt 0.737054 0.602412
vt 0.756166 0.500000
vt 0.827276 0.601135
vt 0.927258 0.499999
vt 1.029503 0.627365
vt 1.141440 0.500000
vt 0.911386 0.581003
vt 0.688420 0.500000
vt 0.726967 0.394794
vt 0.564061 0.403908
vt 0.623351 0.314974
vt 0.488541 0.354357
vt 0.143653 0.500000
vt 0.241458 0.420105
vt 0.173345 0.421427
vt 0.182633 0.318163
vt 0.126485 0.330682
vt 0.141982 0.500000
vt 0.037606 0.388776
vt 0.114612 0.380907
vt 0.215784 0.337157
vt 0.246932 0.303010
vt 0.685683 0.500000
vt 0.554763 0.417856
vt 0.688416 0.412663
vt 0.624348 0.313478
vt 0.747994 0.324368
vt 1.102594 0.500000
vt 1.173483 0.352609
vt 1.032333 0.383499
vt 0.983516 0.275875
vt 0.761349 0.378856
vt 0.734021 0.310671
vt 0.681389 0.227914
vt 0.674265 0.238601
vt 0.565738 0.180902
vt 0.524392 0.249235
vt 0.412715 0.157216
vt 0.396977 0.281788
vt 0.285327 0.239485
vt 0.316470 0.159714
vt 0.217578 0.259835
vt 0.221920 0.162542
vt 0.177833 0.289138
vt 0.211941 0.255041
vt 0.273494 0.080031
vt 0.319292 0.280704
vt 0.403051 0.119263
vt 0.388069 0.262920
vt 0.739628 0.306135
vt 0.923001 0.157782
vt 0.731259 0.153109
vt 0.680817 0.228771
vt 0.531635 0.174783
vt 0.573416 0.143638
vt 0.681529 0.227706
s 0
f 1/1/1 16/2/1 15/3/1
f 2/4/2 18/5/2 24/6/2
f 1/1/3 15/3/3 30/7/3
f 1/1/4 30/7/4 36/8/4
f 1/1/5 36/8/5 25/9/5
f 2/4/6 24/6/6 45/10/6
f 3/11/7 21/12/7 51/13/7
f 4/14/8 33/15/8 57/16/8
f 5/17/9 39/18/9 63/19/9
f 6/20/10 42/21/10 69/22/10
f 2/4/11 45/10/11 52/23/11
f 3/11/12 51/13/12 58/24/12
f 4/14/13 57/16/13 64/25/13
f 5/17/14 63/19/14 70/26/14
f 6/20/15 69/22/15 46/27/15
f 7/28/16 75/29/16 90/30/16
f 8/31/17 78/32/17 96/33/17
f 9/34/18 81/35/18 99/36/18
f 10/37/19 84/38/19 102/39/19
f 11/40/20 87/41/20 91/42/20
f 93/43/21 100/44/21 12/45/21
f 92/46/22 103/47/22 93/43/22
f 91/42/23 104/48/23 92/46/23
f 93/43/24 103/47/24 100/44/24
f 103/47/25 101/49/25 100/44/25
f 92/46/26 104/48/26 103/47/26
f 104/48/27 105/50/27 103/47/27
f 103/47/28 105/50/28 101/49/28
f 105/50/29 102/39/29 101/49/29
f 91/42/30 87/41/30 104/48/30
f 87/41/31 86/51/31 104/48/31
f 104/48/32 86/51/32 105/50/32
f 86/51/33 85/52/33 105/50/33
f 105/50/34 85/52/34 102/39/34
f 85/52/35 10/37/35 102/39/35
f 100/44/36 97/53/36 12/45/36
f 101/49/37 106/54/37 100/44/37
f 102/39/38 107/55/38 101/49/38
f 100/44/39 106/54/39 97/53/39
f 106/54/40 98/56/40 97/53/40
f 101/49/41 107/55/41 106/54/41
f 107/55/42 108/57/42 106/54/42
f 106/54/43 108/57/43 98/56/43
f 108/57/44 99/36/44 98/56/44
f 102/39/45 84/38/45 107/55/45
f 84/38/46 83/58/46 107/55/46
f 107/55/47 83/58/47 108/57/47
f 83/58/48 82/59/48 108/57/48
f 108/57/49 82/59/49 99/36/49
f 82/59/50 9/34/50 99/36/50
f 97/53/51 94/60/51 12/45/51
f 98/56/52 109/61/52 97/53/52
f 99/36/53 110/62/53 98/56/53
f 97/53/54 109/61/54 94/60/54
f 109/61/55 95/63/55 94/60/55
f 98/56/56 110/62/56 109/61/56
f 110/62/57 111/64/57 109/61/57
f 109/61/58 111/64/58 95/63/58
f 111/64/59 96/33/59 95/63/59
f 99/36/60 81/35/60 110/62/60
f 81/35/61 80/65/61 110/62/61
f 110/62/62 80/65/62 111/64/62
f 80/65/63 79/66/63 111/64/63
f 111/64/64 79/66/64 96/33/64
f 79/66/65 8/31/65 96/33/65
f 94/60/66 88/67/66 12/45/66
f 95/63/67 112/68/67 94/60/67
f 96/33/68 113/69/68 95/63/68
f 94/60/69 112/68/69 88/67/69
f 112/68/70 89/70/70 88/67/70
f 95/63/71 113/69/71 112/68/71
f 113/69/72 114/71/72 112/68/72
f 112/68/73 114/71/73 89/70/73
f 114/71/74 90/30/74 89/70/74
f 96/33/75 78/32/75 113/69/75
f 78/32/76 77/72/76 113/69/76
f 113/69/77 77/72/77 114/71/77
f 77/72/78 76/73/78 114/71/78
f 114/71/79 76/73/79 90/30/79
f 76/73/80 7/28/80 90/30/80
f 88/67/81 93/43/81 12/45/81
f 89/70/82 115/74/82 88/67/82
f 90/30/83 116/75/83 89/70/83
f 88/67/84 115/74/84 93/43/84
f 115/74/85 92/46/85 93/43/85
f 89/70/86 116/75/86 115/74/86
f 116/75/87 117/76/87 115/74/87
f 115/74/88 117/76/88 92/46/88
f 117/76/89 91/42/89 92/46/89
f 90/30/90 75/29/90 116/75/90
f 75/29/91 74/77/91 116/75/91
f 116/75/92 74/77/92 117/76/92
f 74/77/93 73/78/93 117/76/93
f 117/76/94 73/78/94 91/42/94
f 73/78/95 11/40/95 91/42/95
f 48/79/96 87/41/96 11/40/96
f 47/80/97 118/81/97 48/79/97
f 46/27/98 119/82/98 47/80/98
f 48/79/99 118/81/99 87/41/99
f 118/81/100 86/51/100 87/41/100
f 47/80/101 119/82/101 118/81/101
f 119/82/102 120/83/102 118/81/102
f 118/81/103 120/83/103 86/51/103
f 120/83/104 85/52/104 86/51/104
f 46/27/105 69/22/105 119/82/105
f 69/22/106 68/84/106 119/82/106
f 119/82/107 68/84/107 120/83/107
f 68/84/108 67/85/108 120/83/108
f 120/83/109 67/85/109 85/52/109
f 67/85/110 10/37/110 85/52/110
f 72/86/111 84/38/111 10/37/111
f 71/87/112 121/88/112 72/86/112
f 70/26/113 122/89/113 71/87/113
f 72/86/114 121/88/114 84/38/114
f 121/88/115 83/58/115 84/38/115
f 71/87/116 122/89/116 121/88/116
f 122/89/117 123/90/117 121/88/117
f 121/88/118 123/90/118 83/58/118
f 123/90/119 82/59/119 83/58/119
f 70/26/120 63/19/120 122/89/120
f 63/19/121 62/91/121 122/89/121
f 122/89/122 62/91/122 123/90/122
f 62/91/123 61/92/123 123/90/123
f 123/90/124 61/92/124 82/59/124
f 61/92/125 9/34/125 82/59/125
f 66/93/126 81/35/126 9/34/126
f 65/94/127 124/95/127 66/93/127
f 64/25/128 125/96/128 65/94/128
f 66/93/129 124/95/129 81/35/129
f 124/95/130 80/65/130 81/35/130
f 65/94/131 125/96/131 124/95/131
f 125/96/132 126/97/132 124/95/132
f 124/95/133 126/97/133 80/65/133
f 126/97/134 79/66/134 80/65/134
f 64/25/135 57/16/135 125/96/135
f 57/16/136 56/98/136 125/96/136
f 125/96/137 56/98/137 126/97/137
f 56/98/138 55/99/138 126/97/138
f 126/97/139 55/99/139 79/66/139
f 55/99/140 8/31/140 79/66/140
f 60/100/141 78/32/141 8/31/141
f 59/101/142 127/102/142 60/100/142
f 58/24/143 128/103/143 59/101/143
f 60/100/144 127/102/144 78/32/144
f 127/102/145 77/72/145 78/32/145
f 59/101/146 128/103/146 127/102/146
f 128/103/147 129/104/147 127/102/147
f 127/102/148 129/104/148 77/72/148
f 129/104/149 76/73/149 77/72/149
f 58/24/150 51/13/150 128/103/150
f 51/13/151 50/87/151 128/103/151
f 128/103/152 50/87/152 129/104/152
f 50/87/153 49/105/153 129/104/153
f 129/104/154 49/105/154 76/73/154
f 49/105/155 7/28/155 76/73/155
f 54/106/156 75/29/156 7/28/156
f 53/107/157 130/108/157 54/106/157
f 52/23/158 131/109/158 53/107/158
f 54/106/159 130/108/159 75/29/159
f 130/108/160 74/77/160 75/29/160
f 53/107/161 131/109/161 130/108/161
f 131/109/162 132/110/162 130/108/162
f 130/108/163 132/110/163 74/77/163
f 132/110/164 73/78/164 74/77/164
f 52/23/165 45/10/165 131/109/165
f 45/10/166 44/111/166 131/109/166
f 131/109/167 44/111/167 132/110/167
f 44/111/168 43/112/168 132/110/168
f 132/110/169 43/112/169 73/78/169
f 43/112/170 11/40/170 73/78/170
f 67/85/171 72/86/171 10/37/171
f 68/84/172 133/113/172 67/85/172
f 69/22/173 134/114/173 68/84/173
f 67/85/174 133/113/174 72/86/174
f 133/113/175 71/87/175 72/86/175
f 68/84/176 134/114/176 133/113/176
f 134/114/177 135/115/177 133/113/177
f 133/113/178 135/115/178 71/87/178
f 135/115/179 70/26/179 71/87/179
f 69/22/180 42/21/180 134/114/180
f 42/21/181 41/116/181 134/114/181
f 134/114/182 41/116/182 135/115/182
f 41/116/183 40/117/183 135/115/183
f 135/115/184 40/117/184 70/26/184
f 40/117/185 5/17/185 70/26/185
f 61/92/186 66/93/186 9/34/186
f 62/91/187 136/118/187 61/92/187
f 63/19/188 137/119/188 62/91/188
f 61/92/189 136/118/189 66/93/189
f 136/118/190 65/94/190 66/93/190
f 62/91/191 137/119/191 136/118/191
f 137/119/192 138/120/192 136/118/192
f 136/118/193 138/120/193 65/94/193
f 138/120/194 64/25/194 65/94/194
f 63/19/195 39/18/195 137/119/195
f 39/18/196 38/121/196 137/119/196
f 137/119/197 38/121/197 138/120/197
f 38/121/198 37/122/198 138/120/198
f 138/120/199 37/122/199 64/25/199
f 37/122/200 4/14/200 64/25/200
f 55/99/201 60/100/201 8/31/201
f 56/98/202 139/123/202 55/99/202
f 57/16/203 140/124/203 56/98/203
f 55/99/204 139/123/204 60/100/204
f 139/123/205 59/101/205 60/100/205
f 56/98/206 140/124/206 139/123/206
f 140/124/207 141/125/207 139/123/207
f 139/123/208 141/125/208 59/101/208
f 141/125/209 58/24/209 59/101/209
f 57/16/210 33/15/210 140/124/210
f 33/15/211 32/126/211 140/124/211
f 140/124/212 32/126/212 141/125/212
f 32/126/213 31/127/213 141/125/213
f 141/125/214 31/127/214 58/24/214
f 31/127/215 3/11/215 58/24/215
f 49/105/216 54/106/216 7/28/216
f 50/87/217 142/128/217 49/105/217
f 51/13/218 143/129/218 50/87/218
f 49/105/219 142/128/219 54/106/219
f 142/128/220 53/107/220 54/106/220
f 50/87/221 143/129/221 142/128/221
f 143/129/222 144/130/222 142/128/222
f 142/128/223 144/130/223 53/107/223
f 144/130/224 52/23/224 53/107/224
f 51/13/225 21/12/225 143/129/225
f 21/12/226 20/131/226 143/129/226
f 143/129/227 20/131/227 144/130/227
f 20/131/228 19/132/228 144/130/228
f 144/130/229 19/132/229 52/23/229
f 19/132/230 2/4/230 52/23/230
f 43/112/231 48/79/231 11/40/231
f 44/111/232 145/133/232 43/112/232
f 45/10/233 146/134/233 44/111/233
f 43/112/234 145/133/234 48/79/234
f 145/133/235 47/80/235 48/79/235
f 44/111/236 146/134/236 145/133/236
f 146/134/237 147/135/237 145/133/237
f 145/133/238 147/135/238 47/80/238
f 147/135/239 46/27/239 47/80/239
f 45/10/240 24/6/240 146/134/240
f 24/6/241 23/136/241 146/134/241
f 146/134/242 23/136/242 147/135/242
f 23/136/243 22/137/243 147/135/243
f 147/135/244 22/137/244 46/27/244
f 22/137/245 6/20/245 46/27/245
f 27/138/246 42/21/246 6/20/246
f 26/139/247 148/140/247 27/138/247
f 25/9/248 149/141/248 26/139/248
f 27/138/249 148/140/249 42/21/249
f 148/140/250 41/116/250 42/21/250
f 26/139/251 149/141/251 148/140/251
f 149/141/252 150/142/252 148/140/252
f 148/140/253 150/142/253 41/116/253
f 150/142/254 40/117/254 41/116/254
f 25/9/255 36/8/255 149/141/255
f 36/8/256 35/143/256 149/141/256
f 149/141/257 35/143/257 150/142/257
f 35/143/258 34/144/258 150/142/258
f 150/142/259 34/144/259 40/117/259
f 34/144/260 5/17/260 40/117/260
f 34/144/261 39/18/261 5/17/261
f 35/143/262 151/145/262 34/144/262
f 36/8/263 152/146/263 35/143/263
f 34/144/264 151/145/264 39/18/264
f 151/145/265 38/121/265 39/18/265
f 35/143/266 152/146/266 151/145/266
f 152/146/267 153/147/267 151/145/267
f 151/145/268 153/147/268 38/121/268
f 153/147/269 37/122/269 38/121/269
f 36/8/270 30/7/270 152/146/270
f 30/7/271 29/148/271 152/146/271
f 152/146/272 29/148/272 153/147/272
f 29/148/273 28/149/273 153/147/273
f 153/147/274 28/149/274 37/122/274
f 28/149/275 4/14/275 37/122/275
f 28/149/276 33/15/276 4/14/276
f 29/148/277 154/150/277 28/149/277
f 30/7/278 155/151/278 29/148/278
f 28/149/279 154/150/279 33/15/279
f 154/150/280 32/126/280 33/15/280
f 29/148/281 155/151/281 154/150/281
f 155/151/282 156/152/282 154/150/282
f 154/150/283 156/152/283 32/126/283
f 156/152/284 31/127/284 32/126/284
f 30/7/285 15/3/285 155/151/285
f 15/3/286 14/153/286 155/151/286
f 155/151/287 14/153/287 156/152/287
f 14/153/288 13/154/288 156/152/288
f 156/152/289 13/154/289 31/127/289
f 13/154/290 3/11/290 31/127/290
f 22/137/291 27/138/291 6/20/291
f 23/136/292 157/155/292 22/137/292
f 24/6/293 158/156/293 23/136/293
f 22/137/294 157/155/294 27/138/294
f 157/155/295 26/139/295 27/138/295
f 23/136/296 158/156/296 157/155/296
f 158/156/297 159/157/297 157/155/297
f 157/155/298 159/157/298 26/139/298
f 159/157/299 25/9/299 26/139/299
f 24/6/300 18/5/300 158/156/300
f 18/5/301 17/158/301 158/156/301
f 158/156/302 17/158/302 159/157/302
f 17/158/303 16/2/303 159/157/303
f 159/157/304 16/2/304 25/9/304
f 16/2/305 1/1/305 25/9/305
f 13/154/306 21/12/306 3/11/306
f 14/153/307 160/159/307 13/154/307
f 15/3/308 161/160/308 14/153/308
f 13/154/309 160/159/309 21/12/309
f 160/159/310 20/131/310 21/12/310
f 14/153/311 161/160/311 160/159/311
f 161/160/312 162/161/312 160/159/312
f 160/159/313 162/161/313 20/131/313
f 162/161/314 19/132/314 20/131/314
f 15/3/315 16/2/315 161/160/315
f 16/2/316 17/158/316 161/160/316
f 161/160/317 17/158/317 162/161/317
f 17/158/318 18/5/318 162/161/318
f 162/161/319 18/5/319 19/132/319
f 18/5/320 2/4/320 19/132/320
