mtllib ice_crystal.mtl
o progressive_ice_crystal
usemtl ice_crystal
# Complete faceted crystal; origin is fixed at the ground contact.
v 0.7800000 0.0000000 0.0000000
v 0.5515433 0.0000000 0.5515433
v 0.5124074 0.3240000 0.5617451
vt 0.0000000 0.0000000
vt 0.1250000 0.0000000
vt 0.1250000 0.1200000
vn -0.9193358 -0.0990559 -0.3808013
f 1/1/1 2/2/1 3/3/1
v 0.7800000 0.0000000 0.0000000
v 0.5124074 0.3240000 0.5617451
v 0.7411142 0.3240000 0.0624017
vt 0.0000000 0.0000000
vt 0.1250000 0.1200000
vt 0.0000000 0.1200000
vn -0.9087946 -0.0289045 -0.4162414
f 4/4/2 5/5/2 6/6/2
v 0.5515433 0.0000000 0.5515433
v 0.0000000 0.0000000 0.7800000
v -0.0024017 0.3240000 0.7531142
vt 0.1250000 0.0000000
vt 0.2500000 0.0000000
vt 0.2500000 0.1200000
vn -0.3814798 -0.0792511 -0.9209736
f 7/7/3 8/8/3 9/9/3
v 0.5515433 0.0000000 0.5515433
v -0.0024017 0.3240000 0.7531142
v 0.5124074 0.3240000 0.5617451
vt 0.1250000 0.0000000
vt 0.2500000 0.1200000
vt 0.1250000 0.1200000
vn -0.3484057 -0.0125722 -0.9372595
f 10/10/4 11/11/4 12/12/4
v 0.0000000 0.0000000 0.7800000
v -0.5515433 0.0000000 0.5515433
v -0.5017451 0.3240000 0.5244074
vt 0.2500000 0.0000000
vt 0.3750000 0.0000000
vt 0.3750000 0.1200000
vn 0.3791828 -0.1349492 -0.9154284
f 13/13/5 14/14/5 15/15/5
v 0.0000000 0.0000000 0.7800000
v -0.5017451 0.3240000 0.5244074
v -0.0024017 0.3240000 0.7531142
vt 0.2500000 0.0000000
vt 0.3750000 0.1200000
vt 0.2500000 0.1200000
vn 0.4153296 -0.0721688 -0.9068037
f 16/16/6 17/17/6 18/18/6
v -0.5515433 0.0000000 0.5515433
v -0.7800000 0.0000000 0.0000000
v -0.6931142 0.3240000 0.0095983
vt 0.3750000 0.0000000
vt 0.5000000 0.0000000
vt 0.5000000 0.1200000
vn 0.8990947 -0.2300742 -0.3724172
f 19/19/7 20/20/7 21/21/7
v -0.5515433 0.0000000 0.5515433
v -0.6931142 0.3240000 0.0095983
v -0.5017451 0.3240000 0.5244074
vt 0.3750000 0.0000000
vt 0.5000000 0.1200000
vt 0.3750000 0.1200000
vn 0.9235755 -0.1707056 -0.3433190
f 22/22/8 23/23/8 24/24/8
v -0.7800000 0.0000000 0.0000000
v -0.5515433 0.0000000 -0.5515433
v -0.4644074 0.3240000 -0.4897451
vt 0.5000000 0.0000000
vt 0.6250000 0.0000000
vt 0.6250000 0.1200000
vn 0.8795523 -0.3060340 0.3643225
f 25/25/9 26/26/9 27/27/9
v -0.7800000 0.0000000 0.0000000
v -0.4644074 0.3240000 -0.4897451
v -0.6931142 0.3240000 0.0095983
vt 0.5000000 0.0000000
vt 0.6250000 0.1200000
vt 0.5000000 0.1200000
vn 0.8807404 -0.2481350 0.4033922
f 28/28/10 29/29/10 30/30/10
v -0.5515433 0.0000000 -0.5515433
v -0.0000000 0.0000000 -0.7800000
v 0.0504017 0.3240000 -0.6811142
vt 0.6250000 0.0000000
vt 0.7500000 0.0000000
vt 0.7500000 0.1200000
vn 0.3621482 -0.3231762 0.8743031
f 31/31/11 32/32/11 33/33/11
v -0.5515433 0.0000000 -0.5515433
v 0.0504017 0.3240000 -0.6811142
v -0.4644074 0.3240000 -0.4897451
vt 0.6250000 0.0000000
vt 0.7500000 0.1200000
vt 0.6250000 0.1200000
vn 0.3361761 -0.2629037 0.9043602
f 34/34/12 35/35/12 36/36/12
v -0.0000000 0.0000000 -0.7800000
v 0.5515433 0.0000000 -0.5515433
v 0.5497451 0.3240000 -0.4524074
vt 0.7500000 0.0000000
vt 0.8750000 0.0000000
vt 0.8750000 0.1200000
vn -0.3680473 -0.2739150 0.8885448
f 37/37/13 38/38/13 39/39/13
v -0.0000000 0.0000000 -0.7800000
v 0.5497451 0.3240000 -0.4524074
v 0.0504017 0.3240000 -0.6811142
vt 0.7500000 0.0000000
vt 0.8750000 0.1200000
vt 0.7500000 0.1200000
vn -0.4073035 -0.2080506 0.8892800
f 40/40/14 41/41/14 42/42/14
v 0.5515433 0.0000000 -0.5515433
v 0.7800000 0.0000000 0.0000000
v 0.7411142 0.3240000 0.0624017
vt 0.8750000 0.0000000
vt 1.0000000 0.0000000
vt 1.0000000 0.1200000
vn -0.9085314 -0.1815198 0.3763260
f 43/43/15 44/44/15 45/45/15
v 0.5515433 0.0000000 -0.5515433
v 0.7411142 0.3240000 0.0624017
v 0.5497451 0.3240000 -0.4524074
vt 0.8750000 0.0000000
vt 1.0000000 0.1200000
vt 0.8750000 0.1200000
vn -0.9315285 -0.1111214 0.3462753
f 46/46/16 47/47/16 48/48/16
v 0.7411142 0.3240000 0.0624017
v 0.5124074 0.3240000 0.5617451
v 0.5083347 1.5660000 0.4291420
vt 0.0000000 0.1200000
vt 0.1250000 0.1200000
vt 0.1250000 0.5800000
vn -0.9081531 -0.0473869 -0.4159476
f 49/49/17 50/50/17 51/51/17
v 0.7411142 0.3240000 0.0624017
v 0.5083347 1.5660000 0.4291420
v 0.5738352 1.5660000 0.0769901
vt 0.0000000 0.1200000
vt 0.1250000 0.5800000
vt 0.0000000 0.5800000
vn -0.9749013 -0.1291748 -0.1813322
f 52/52/18 53/53/18 54/54/18
v 0.5124074 0.3240000 0.5617451
v -0.0024017 0.3240000 0.7531142
v 0.2130099 1.5660000 0.6318352
vt 0.1250000 0.1200000
vt 0.2500000 0.1200000
vt 0.2500000 0.5800000
vn -0.3482649 -0.0310818 -0.9368807
f 55/55/19 56/56/19 57/57/19
v 0.5124074 0.3240000 0.5617451
v 0.2130099 1.5660000 0.6318352
v 0.5083347 1.5660000 0.4291420
vt 0.1250000 0.1200000
vt 0.2500000 0.5800000
vt 0.1250000 0.5800000
vn -0.5636070 -0.0895218 -0.8211778
f 58/58/20 59/59/20 60/60/20
v -0.0024017 0.3240000 0.7531142
v -0.5017451 0.3240000 0.5244074
v -0.1391420 1.5660000 0.5663347
vt 0.2500000 0.1200000
vt 0.3750000 0.1200000
vt 0.3750000 0.5800000
vn 0.4147063 -0.0905081 -0.9054429
f 61/61/21 62/62/21 63/63/21
v -0.0024017 0.3240000 0.7531142
v -0.1391420 1.5660000 0.5663347
v 0.2130099 1.5660000 0.6318352
vt 0.2500000 0.1200000
vt 0.3750000 0.5800000
vt 0.2500000 0.5800000
vn 0.1813909 -0.1266884 -0.9752166
f 64/64/22 65/65/22 66/66/22
v -0.5017451 0.3240000 0.5244074
v -0.6931142 0.3240000 0.0095983
v -0.3418352 1.5660000 0.2710099
vt 0.3750000 0.1200000
vt 0.5000000 0.1200000
vt 0.5000000 0.5800000
vn 0.9205589 -0.1883402 -0.3421976
f 67/67/23 68/68/23 69/69/23
v -0.5017451 0.3240000 0.5244074
v -0.3418352 1.5660000 0.2710099
v -0.1391420 1.5660000 0.5663347
vt 0.3750000 0.1200000
vt 0.5000000 0.5800000
vt 0.3750000 0.5800000
vn 0.8049594 -0.2163583 -0.5524757
f 70/70/24 71/71/24 72/72/24
v -0.6931142 0.3240000 0.0095983
v -0.4644074 0.3240000 -0.4897451
v -0.2763347 1.5660000 -0.0811420
vt 0.5000000 0.1200000
vt 0.6250000 0.1200000
vt 0.6250000 0.5800000
vn 0.8767049 -0.2648602 0.4015439
f 73/73/25 74/74/25 75/75/25
v -0.6931142 0.3240000 0.0095983
v -0.2763347 1.5660000 -0.0811420
v -0.3418352 1.5660000 0.2710099
vt 0.5000000 0.1200000
vt 0.6250000 0.5800000
vt 0.5000000 0.5800000
vn 0.9372978 -0.3017930 0.1743380
f 76/76/26 77/77/26 78/78/26
v -0.4644074 0.3240000 -0.4897451
v 0.0504017 0.3240000 -0.6811142
v 0.0189901 1.5660000 -0.2838352
vt 0.6250000 0.1200000
vt 0.7500000 0.1200000
vt 0.7500000 0.5800000
vn 0.3345546 -0.2794215 0.8999982
f 79/79/27 80/80/27 81/81/27
v -0.4644074 0.3240000 -0.4897451
v 0.0189901 1.5660000 -0.2838352
v -0.2763347 1.5660000 -0.0811420
vt 0.6250000 0.1200000
vt 0.7500000 0.5800000
vt 0.6250000 0.5800000
vn 0.5329469 -0.3361638 0.7765059
f 82/82/28 83/83/28 84/84/28
v 0.0504017 0.3240000 -0.6811142
v 0.5497451 0.3240000 -0.4524074
v 0.3711420 1.5660000 -0.2183347
vt 0.7500000 0.1200000
vt 0.8750000 0.1200000
vt 0.8750000 0.5800000
vn -0.4057107 -0.2252845 0.8858023
f 85/85/29 86/86/29 87/87/29
v 0.0504017 0.3240000 -0.6811142
v 0.3711420 1.5660000 -0.2183347
v 0.0189901 1.5660000 -0.2838352
vt 0.7500000 0.1200000
vt 0.8750000 0.5800000
vt 0.7500000 0.5800000
vn -0.1742097 -0.3039992 0.9366085
f 88/88/30 89/89/30 90/90/30
v 0.5497451 0.3240000 -0.4524074
v 0.7411142 0.3240000 0.0624017
v 0.5738352 1.5660000 0.0769901
vt 0.8750000 0.1200000
vt 1.0000000 0.1200000
vt 1.0000000 0.5800000
vn -0.9294720 -0.1292444 0.3455109
f 91/91/31 92/92/31 93/93/31
v 0.5497451 0.3240000 -0.4524074
v 0.5738352 1.5660000 0.0769901
v 0.3711420 1.5660000 -0.2183347
vt 0.8750000 0.1200000
vt 1.0000000 0.5800000
vt 0.8750000 0.5800000
vn -0.8043423 -0.2197088 0.5520521
f 94/94/32 95/95/32 96/96/32
v 0.5738352 1.5660000 0.0769901
v 0.5083347 1.5660000 0.4291420
v 0.3707782 2.3220000 0.3814634
vt 0.0000000 0.5800000
vt 0.1250000 0.5800000
vt 0.1250000 0.8600000
vn -0.9657849 -0.1870567 -0.1796366
f 97/97/33 98/98/33 99/99/33
v 0.5738352 1.5660000 0.0769901
v 0.3707782 2.3220000 0.3814634
v 0.3998593 2.3220000 0.2047444
vt 0.0000000 0.5800000
vt 0.1250000 0.8600000
vt 0.0000000 0.8600000
vn -0.9676354 -0.1957703 -0.1592349
f 100/100/34 101/101/34 102/102/34
v 0.5083347 1.5660000 0.4291420
v 0.2130099 1.5660000 0.6318352
v 0.2252556 2.3220000 0.4858593
vt 0.1250000 0.5800000
vt 0.2500000 0.5800000
vt 0.2500000 0.8600000
vn -0.5596156 -0.1483736 -0.8153623
f 103/103/35 104/104/35 105/105/35
v 0.5083347 1.5660000 0.4291420
v 0.2252556 2.3220000 0.4858593
v 0.3707782 2.3220000 0.3814634
vt 0.1250000 0.5800000
vt 0.2500000 0.8600000
vt 0.1250000 0.8600000
vn -0.5758239 -0.1553949 -0.8026701
f 106/106/36 107/107/36 108/108/36
v 0.2130099 1.5660000 0.6318352
v -0.1391420 1.5660000 0.5663347
v 0.0485366 2.3220000 0.4567782
vt 0.2500000 0.5800000
vt 0.3750000 0.5800000
vt 0.3750000 0.8600000
vn 0.1797202 -0.1846388 -0.9662345
f 109/109/37 110/110/37 111/111/37
v 0.2130099 1.5660000 0.6318352
v 0.0485366 2.3220000 0.4567782
v 0.2252556 2.3220000 0.4858593
vt 0.2500000 0.5800000
vt 0.3750000 0.8600000
vt 0.2500000 0.8600000
vn 0.1594300 -0.1896520 -0.9688210
f 112/112/38 113/113/38 114/114/38
v -0.1391420 1.5660000 0.5663347
v -0.3418352 1.5660000 0.2710099
v -0.0558593 2.3220000 0.3112556
vt 0.3750000 0.5800000
vt 0.5000000 0.5800000
vt 0.5000000 0.8600000
vn 0.7935891 -0.2711993 -0.5446718
f 115/115/39 116/116/39 117/117/39
v -0.1391420 1.5660000 0.5663347
v -0.0558593 2.3220000 0.3112556
v 0.0485366 2.3220000 0.4567782
vt 0.3750000 0.5800000
vt 0.5000000 0.8600000
vt 0.3750000 0.8600000
vn 0.7811795 -0.2751414 -0.5604069
f 118/118/40 119/119/40 120/120/40
v -0.3418352 1.5660000 0.2710099
v -0.2763347 1.5660000 -0.0811420
v -0.0267782 2.3220000 0.1345366
vt 0.5000000 0.5800000
vt 0.6250000 0.5800000
vt 0.6250000 0.8600000
vn 0.9200244 -0.3525213 0.1711251
f 121/121/41 122/122/41 123/123/41
v -0.3418352 1.5660000 0.2710099
v -0.0267782 2.3220000 0.1345366
v -0.0558593 2.3220000 0.3112556
vt 0.5000000 0.5800000
vt 0.6250000 0.8600000
vt 0.5000000 0.8600000
vn 0.9217953 -0.3567675 0.1516914
f 124/124/42 125/125/42 126/126/42
v -0.2763347 1.5660000 -0.0811420
v 0.0189901 1.5660000 -0.2838352
v 0.1187444 2.3220000 0.0301407
vt 0.6250000 0.5800000
vt 0.7500000 0.5800000
vt 0.7500000 0.8600000
vn 0.5222718 -0.3849465 0.7609523
f 127/127/43 128/128/43 129/129/43
v -0.2763347 1.5660000 -0.0811420
v 0.1187444 2.3220000 0.0301407
v -0.0267782 2.3220000 0.1345366
vt 0.6250000 0.5800000
vt 0.7500000 0.8600000
vt 0.6250000 0.8600000
vn 0.5366146 -0.3905375 0.7480142
f 130/130/44 131/131/44 132/132/44
v 0.0189901 1.5660000 -0.2838352
v 0.3711420 1.5660000 -0.2183347
v 0.2954634 2.3220000 0.0592218
vt 0.7500000 0.5800000
vt 0.8750000 0.5800000
vt 0.8750000 0.8600000
vn -0.1709809 -0.3546074 0.9192492
f 133/133/45 134/134/45 135/135/45
v 0.0189901 1.5660000 -0.2838352
v 0.2954634 2.3220000 0.0592218
v 0.1187444 2.3220000 0.0301407
vt 0.7500000 0.5800000
vt 0.8750000 0.8600000
vt 0.7500000 0.8600000
vn -0.1513623 -0.3620299 0.9197955
f 136/136/46 137/137/46 138/138/46
v 0.3711420 1.5660000 -0.2183347
v 0.5738352 1.5660000 0.0769901
v 0.3998593 2.3220000 0.2047444
vt 0.8750000 0.5800000
vt 1.0000000 0.5800000
vt 1.0000000 0.8600000
vn -0.7928387 -0.2744090 0.5441567
f 139/139/47 140/140/47 141/141/47
v 0.3711420 1.5660000 -0.2183347
v 0.3998593 2.3220000 0.2047444
v 0.2954634 2.3220000 0.0592218
vt 0.8750000 0.5800000
vt 1.0000000 0.8600000
vt 0.8750000 0.8600000
vn -0.7792638 -0.2832497 0.5590326
f 142/142/48 143/143/48 144/144/48
v 0.3998593 2.3220000 0.2047444
v 0.3707782 2.3220000 0.3814634
v 0.2000000 2.7000000 0.3000000
vt 0.0000000 0.8600000
vt 0.1250000 0.8600000
vt 0.0625000 1.0000000
vn -0.8892836 -0.4333115 -0.1463413
f 145/145/49 146/146/49 147/147/49
v 0.0000000 0.0000000 0.0000000
v 0.5515433 0.0000000 0.5515433
v 0.7800000 0.0000000 0.0000000
vt 0.5000000 0.5000000
vt 1.0000000 1.0000000
vt 0.0000000 1.0000000
vn 0.0000000 1.0000000 0.0000000
f 148/148/50 149/149/50 150/150/50
v 0.3707782 2.3220000 0.3814634
v 0.2252556 2.3220000 0.4858593
v 0.2000000 2.7000000 0.3000000
vt 0.1250000 0.8600000
vt 0.2500000 0.8600000
vt 0.1875000 1.0000000
vn -0.5338432 -0.4015605 -0.7441510
f 151/151/51 152/152/51 153/153/51
v 0.0000000 0.0000000 0.0000000
v 0.0000000 0.0000000 0.7800000
v 0.5515433 0.0000000 0.5515433
vt 0.5000000 0.5000000
vt 1.0000000 1.0000000
vt 0.0000000 1.0000000
vn 0.0000000 1.0000000 0.0000000
f 154/154/52 155/155/52 156/156/52
v 0.2252556 2.3220000 0.4858593
v 0.0485366 2.3220000 0.4567782
v 0.2000000 2.7000000 0.3000000
vt 0.2500000 0.8600000
vt 0.3750000 0.8600000
vt 0.3125000 1.0000000
vn 0.1467103 -0.4285531 -0.8915258
f 157/157/53 158/158/53 159/159/53
v 0.0000000 0.0000000 0.0000000
v -0.5515433 0.0000000 0.5515433
v 0.0000000 0.0000000 0.7800000
vt 0.5000000 0.5000000
vt 1.0000000 1.0000000
vt 0.0000000 1.0000000
vn 0.0000000 1.0000000 -0.0000000
f 160/160/54 161/161/54 162/162/54
v 0.0485366 2.3220000 0.4567782
v -0.0558593 2.3220000 0.3112556
v 0.2000000 2.7000000 0.3000000
vt 0.3750000 0.8600000
vt 0.5000000 0.8600000
vt 0.4375000 1.0000000
vn 0.7067221 -0.4934600 -0.5069922
f 163/163/55 164/164/55 165/165/55
v 0.0000000 0.0000000 0.0000000
v -0.7800000 0.0000000 0.0000000
v -0.5515433 0.0000000 0.5515433
vt 0.5000000 0.5000000
vt 1.0000000 1.0000000
vt 0.0000000 1.0000000
vn 0.0000000 1.0000000 0.0000000
f 166/166/56 167/167/56 168/168/56
v -0.0558593 2.3220000 0.3112556
v -0.0267782 2.3220000 0.1345366
v 0.2000000 2.7000000 0.3000000
vt 0.5000000 0.8600000
vt 0.6250000 0.8600000
vt 0.5625000 1.0000000
vn 0.8223750 -0.5526165 0.1353307
f 169/169/57 170/170/57 171/171/57
v 0.0000000 0.0000000 0.0000000
v -0.5515433 0.0000000 -0.5515433
v -0.7800000 0.0000000 0.0000000
vt 0.5000000 0.5000000
vt 1.0000000 1.0000000
vt 0.0000000 1.0000000
vn 0.0000000 1.0000000 0.0000000
f 172/172/58 173/173/58 174/174/58
v -0.0267782 2.3220000 0.1345366
v 0.1187444 2.3220000 0.0301407
v 0.2000000 2.7000000 0.3000000
vt 0.6250000 0.8600000
vt 0.7500000 0.8600000
vt 0.6875000 1.0000000
vn 0.4763259 -0.5764124 0.6639747
f 175/175/59 176/176/59 177/177/59
v 0.0000000 0.0000000 0.0000000
v -0.0000000 0.0000000 -0.7800000
v -0.5515433 0.0000000 -0.5515433
vt 0.5000000 0.5000000
vt 1.0000000 1.0000000
vt 0.0000000 1.0000000
vn 0.0000000 1.0000000 0.0000000
f 178/178/60 179/179/60 180/180/60
v 0.1187444 2.3220000 0.0301407
v 0.2954634 2.3220000 0.0592218
v 0.2000000 2.7000000 0.3000000
vt 0.7500000 0.8600000
vt 0.8750000 0.8600000
vt 0.8125000 1.0000000
vn -0.1349269 -0.5563486 0.8199213
f 181/181/61 182/182/61 183/183/61
v 0.0000000 0.0000000 0.0000000
v 0.5515433 0.0000000 -0.5515433
v -0.0000000 0.0000000 -0.7800000
vt 0.5000000 0.5000000
vt 1.0000000 1.0000000
vt 0.0000000 1.0000000
vn 0.0000000 1.0000000 0.0000000
f 184/184/62 185/185/62 186/186/62
v 0.2954634 2.3220000 0.0592218
v 0.3998593 2.3220000 0.2047444
v 0.2000000 2.7000000 0.3000000
vt 0.8750000 0.8600000
vt 1.0000000 0.8600000
vt 0.9375000 1.0000000
vn -0.7039384 -0.4994503 0.5049952
f 187/187/63 188/188/63 189/189/63
v 0.0000000 0.0000000 0.0000000
v 0.7800000 0.0000000 0.0000000
v 0.5515433 0.0000000 -0.5515433
vt 0.5000000 0.5000000
vt 1.0000000 1.0000000
vt 0.0000000 1.0000000
vn -0.0000000 1.0000000 0.0000000
f 190/190/64 191/191/64 192/192/64
