mtllib ice_crystal.mtl
o progressive_ice_crystal
usemtl ice_crystal
# Complete faceted crystal; origin is fixed at the ground contact.
v 0.3800000 0.0000000 0.0000000
v 0.2687006 0.0000000 0.2687006
v 0.2276133 0.6480000 0.3039928
vt 0.0000000 0.0000000
vt 0.1250000 0.0000000
vt 0.1250000 0.1200000
vn -0.9232224 -0.0377107 -0.3824112
f 1/1/1 2/2/1 3/3/1
v 0.3800000 0.0000000 0.0000000
v 0.2276133 0.6480000 0.3039928
v 0.3590523 0.6480000 0.0709290
vt 0.0000000 0.0000000
vt 0.1250000 0.1200000
vt 0.0000000 0.1200000
vn -0.8707455 0.0256031 -0.4910670
f 4/4/2 5/5/2 6/6/2
v 0.2687006 0.0000000 0.2687006
v 0.0000000 0.0000000 0.3800000
v -0.0301290 0.6480000 0.3758523
vt 0.1250000 0.0000000
vt 0.2500000 0.0000000
vt 0.2500000 0.1200000
vn -0.3825759 -0.0236999 -0.9236200
f 7/7/3 8/8/3 9/9/3
v 0.2687006 0.0000000 0.2687006
v -0.0301290 0.6480000 0.3758523
v 0.2276133 0.6480000 0.3039928
vt 0.1250000 0.0000000
vt 0.2500000 0.1200000
vt 0.1250000 0.1200000
vn -0.2683928 0.0354117 -0.9626585
f 10/10/4 11/11/4 12/12/4
v 0.0000000 0.0000000 0.3800000
v -0.2687006 0.0000000 0.2687006
v -0.2631928 0.6480000 0.2444133
vt 0.2500000 0.0000000
vt 0.3750000 0.0000000
vt 0.3750000 0.1200000
vn 0.3824092 -0.0378529 -0.9232174
f 13/13/5 14/14/5 15/15/5
v 0.0000000 0.0000000 0.3800000
v -0.2631928 0.6480000 0.2444133
v -0.0301290 0.6480000 0.3758523
vt 0.2500000 0.0000000
vt 0.3750000 0.1200000
vt 0.2500000 0.1200000
vn 0.4911549 0.0172620 -0.8709012
f 16/16/6 17/17/6 18/18/6
v -0.2687006 0.0000000 0.2687006
v -0.3800000 0.0000000 0.0000000
v -0.3350523 0.6480000 -0.0133290
vt 0.3750000 0.0000000
vt 0.5000000 0.0000000
vt 0.5000000 0.1200000
vn 0.9214971 -0.0717698 -0.3816966
f 19/19/7 20/20/7 21/21/7
v -0.2687006 0.0000000 0.2687006
v -0.3350523 0.6480000 -0.0133290
v -0.2631928 0.6480000 0.2444133
vt 0.3750000 0.0000000
vt 0.5000000 0.1200000
vt 0.3750000 0.1200000
vn 0.9631022 -0.0182502 -0.2685165
f 22/22/8 23/23/8 24/24/8
v -0.3800000 0.0000000 0.0000000
v -0.2687006 0.0000000 -0.2687006
v -0.2036133 0.6480000 -0.2463928
vt 0.5000000 0.0000000
vt 0.6250000 0.0000000
vt 0.6250000 0.1200000
vn 0.9187352 -0.1053816 0.3805526
f 25/25/9 26/26/9 27/27/9
v -0.3800000 0.0000000 0.0000000
v -0.2036133 0.6480000 -0.2463928
v -0.3350523 0.6480000 -0.0133290
vt 0.5000000 0.0000000
vt 0.6250000 0.1200000
vt 0.5000000 0.1200000
vn 0.8699306 -0.0502501 0.4906075
f 28/28/10 29/29/10 30/30/10
v -0.2687006 0.0000000 -0.2687006
v -0.0000000 0.0000000 -0.3800000
v 0.0541290 0.6480000 -0.3182523
vt 0.6250000 0.0000000
vt 0.7500000 0.0000000
vt 0.7500000 0.1200000
vn 0.3799574 -0.1191478 0.9172983
f 31/31/11 32/32/11 33/33/11
v -0.2687006 0.0000000 -0.2687006
v 0.0541290 0.6480000 -0.3182523
v -0.2036133 0.6480000 -0.2463928
vt 0.6250000 0.0000000
vt 0.7500000 0.1200000
vt 0.6250000 0.1200000
vn 0.2680769 -0.0600277 0.9615256
f 34/34/12 35/35/12 36/36/12
v -0.0000000 0.0000000 -0.3800000
v 0.2687006 0.0000000 -0.2687006
v 0.2871928 0.6480000 -0.1868133
vt 0.7500000 0.0000000
vt 0.8750000 0.0000000
vt 0.8750000 0.1200000
vn -0.3805583 -0.1052415 0.9187489
f 37/37/13 38/38/13 39/39/13
v -0.0000000 0.0000000 -0.3800000
v 0.2871928 0.6480000 -0.1868133
v 0.0541290 0.6480000 -0.3182523
vt 0.7500000 0.0000000
vt 0.8750000 0.1200000
vt 0.7500000 0.1200000
vn -0.4907960 -0.0419298 0.8702650
f 40/40/14 41/41/14 42/42/14
v 0.2687006 0.0000000 -0.2687006
v 0.3800000 0.0000000 0.0000000
v 0.3590523 0.6480000 0.0709290
vt 0.8750000 0.0000000
vt 1.0000000 0.0000000
vt 1.0000000 0.1200000
vn -0.9215103 -0.0715699 0.3817021
f 43/43/15 44/44/15 45/45/15
v 0.2687006 0.0000000 -0.2687006
v 0.3590523 0.6480000 0.0709290
v 0.2871928 0.6480000 -0.1868133
vt 0.8750000 0.0000000
vt 1.0000000 0.1200000
vt 0.8750000 0.1200000
vn -0.9632426 -0.0064488 0.2685556
f 46/46/16 47/47/16 48/48/16
v 0.3590523 0.6480000 0.0709290
v 0.2276133 0.6480000 0.3039928
v 0.1845087 3.1320000 0.3288827
vt 0.0000000 0.1200000
vt 0.1250000 0.1200000
vt 0.1250000 0.5800000
vn -0.8709858 -0.0101922 -0.4912025
f 49/49/17 50/50/17 51/51/17
v 0.3590523 0.6480000 0.0709290
v 0.1845087 3.1320000 0.3288827
v 0.2815811 3.1320000 0.1838708
vt 0.0000000 0.1200000
vt 0.1250000 0.5800000
vt 0.0000000 0.5800000
vn -0.8309967 -0.0006246 -0.5562771
f 52/52/18 53/53/18 54/54/18
v 0.2276133 0.6480000 0.3039928
v -0.0301290 0.6480000 0.3758523
v 0.0133292 3.1320000 0.3627811
vt 0.1250000 0.1200000
vt 0.2500000 0.1200000
vt 0.2500000 0.5800000
vn -0.2685612 -0.0003703 -0.9632625
f 55/55/19 56/56/19 57/57/19
v 0.2276133 0.6480000 0.3039928
v 0.0133292 3.1320000 0.3627811
v 0.1845087 3.1320000 0.3288827
vt 0.1250000 0.1200000
vt 0.2500000 0.5800000
vt 0.1250000 0.5800000
vn -0.1942521 0.0064582 -0.9809304
f 58/58/20 59/59/20 60/60/20
v -0.0301290 0.6480000 0.3758523
v -0.2631928 0.6480000 0.2444133
v -0.1316827 3.1320000 0.2657087
vt 0.2500000 0.1200000
vt 0.3750000 0.1200000
vt 0.3750000 0.5800000
vn 0.4911437 -0.0185364 -0.8708813
f 61/61/21 62/62/21 63/63/21
v -0.0301290 0.6480000 0.3758523
v -0.1316827 3.1320000 0.2657087
v 0.0133292 3.1320000 0.3627811
vt 0.2500000 0.1200000
vt 0.3750000 0.5800000
vt 0.2500000 0.5800000
vn 0.5562218 -0.0141037 -0.8309142
f 64/64/22 65/65/22 66/66/22
v -0.2631928 0.6480000 0.2444133
v -0.3350523 0.6480000 -0.0133290
v -0.1655811 3.1320000 0.0945292
vt 0.3750000 0.1200000
vt 0.5000000 0.1200000
vt 0.5000000 0.5800000
vn 0.9618583 -0.0539786 -0.2681697
f 67/67/23 68/68/23 69/69/23
v -0.2631928 0.6480000 0.2444133
v -0.1655811 3.1320000 0.0945292
v -0.1316827 3.1320000 0.2657087
vt 0.3750000 0.1200000
vt 0.5000000 0.5800000
vt 0.3750000 0.5800000
vn 0.9797138 -0.0502056 -0.1940112
f 70/70/24 71/71/24 72/72/24
v -0.3350523 0.6480000 -0.0133290
v -0.2036133 0.6480000 -0.2463928
v -0.0685087 3.1320000 -0.0504827
vt 0.5000000 0.1200000
vt 0.6250000 0.1200000
vt 0.6250000 0.5800000
vn 0.8678189 -0.0858003 0.4894166
f 73/73/25 74/74/25 75/75/25
v -0.3350523 0.6480000 -0.0133290
v -0.0685087 3.1320000 -0.0504827
v -0.1655811 3.1320000 0.0945292
vt 0.5000000 0.1200000
vt 0.6250000 0.5800000
vt 0.5000000 0.5800000
vn 0.8282941 -0.0805861 0.5544680
f 76/76/26 77/77/26 78/78/26
v -0.2036133 0.6480000 -0.2463928
v 0.0541290 0.6480000 -0.3182523
v 0.1026708 3.1320000 -0.0843811
vt 0.6250000 0.1200000
vt 0.7500000 0.1200000
vt 0.7500000 0.5800000
vn 0.2673337 -0.0955018 0.9588598
f 79/79/27 80/80/27 81/81/27
v -0.2036133 0.6480000 -0.2463928
v 0.1026708 3.1320000 -0.0843811
v -0.0685087 3.1320000 -0.0504827
vt 0.6250000 0.1200000
vt 0.7500000 0.5800000
vt 0.6250000 0.5800000
vn 0.1935095 -0.0875940 0.9771803
f 82/82/28 83/83/28 84/84/28
v 0.0541290 0.6480000 -0.3182523
v 0.2871928 0.6480000 -0.1868133
v 0.2476827 3.1320000 0.0126913
vt 0.7500000 0.1200000
vt 0.8750000 0.1200000
vt 0.8750000 0.5800000
vn -0.4897492 -0.0775368 0.8684087
f 85/85/29 86/86/29 87/87/29
v 0.0541290 0.6480000 -0.3182523
v 0.2476827 3.1320000 0.0126913
v 0.1026708 3.1320000 -0.0843811
vt 0.7500000 0.1200000
vt 0.8750000 0.5800000
vt 0.7500000 0.5800000
vn -0.5550191 -0.0672162 0.8291175
f 88/88/30 89/89/30 90/90/30
v 0.2871928 0.6480000 -0.1868133
v 0.3590523 0.6480000 0.0709290
v 0.2815811 3.1320000 0.1838708
vt 0.8750000 0.1200000
vt 1.0000000 0.1200000
vt 1.0000000 0.5800000
vn -0.9624039 -0.0422155 0.2683218
f 91/91/31 92/92/31 93/93/31
v 0.2871928 0.6480000 -0.1868133
v 0.2815811 3.1320000 0.1838708
v 0.2476827 3.1320000 0.0126913
vt 0.8750000 0.1200000
vt 1.0000000 0.5800000
vt 0.8750000 0.5800000
vn -0.9804736 -0.0311895 0.1941616
f 94/94/32 95/95/32 96/96/32
v 0.2815811 3.1320000 0.1838708
v 0.1845087 3.1320000 0.3288827
v 0.1317547 4.6440000 0.3108151
vt 0.0000000 0.5800000
vt 0.1250000 0.5800000
vt 0.1250000 0.8600000
vn -0.8304695 -0.0356183 -0.5559242
f 97/97/33 98/98/33 99/99/33
v 0.2815811 3.1320000 0.1838708
v 0.1317547 4.6440000 0.3108151
v 0.1921861 4.6440000 0.2478791
vt 0.0000000 0.5800000
vt 0.1250000 0.8600000
vt 0.0000000 0.8600000
vn -0.7212497 -0.0133250 -0.6925470
f 100/100/34 101/101/34 102/102/34
v 0.1845087 3.1320000 0.3288827
v 0.0133292 3.1320000 0.3627811
v 0.0445209 4.6440000 0.3125861
vt 0.1250000 0.5800000
vt 0.2500000 0.5800000
vt 0.2500000 0.8600000
vn -0.1941770 -0.0285464 -0.9805511
f 103/103/35 104/104/35 105/105/35
v 0.1845087 3.1320000 0.3288827
v 0.0445209 4.6440000 0.3125861
v 0.1317547 4.6440000 0.3108151
vt 0.1250000 0.5800000
vt 0.2500000 0.8600000
vt 0.1250000 0.8600000
vn -0.0202961 -0.0126542 -0.9997139
f 106/106/36 107/107/36 108/108/36
v 0.0133292 3.1320000 0.3627811
v -0.1316827 3.1320000 0.2657087
v -0.0184151 4.6440000 0.2521547
vt 0.2500000 0.5800000
vt 0.3750000 0.5800000
vt 0.3750000 0.8600000
vn 0.5556073 -0.0490622 -0.8299961
f 109/109/37 110/110/37 111/111/37
v 0.0133292 3.1320000 0.3627811
v -0.0184151 4.6440000 0.2521547
v 0.0445209 4.6440000 0.3125861
vt 0.2500000 0.5800000
vt 0.3750000 0.8600000
vt 0.2500000 0.8600000
vn 0.6921028 -0.0382062 -0.7207871
f 112/112/38 113/113/38 114/114/38
v -0.1316827 3.1320000 0.2657087
v -0.1655811 3.1320000 0.0945292
v -0.0201861 4.6440000 0.1649209
vt 0.3750000 0.5800000
vt 0.5000000 0.5800000
vt 0.5000000 0.8600000
vn 0.9774027 -0.0849768 -0.1935535
f 115/115/39 116/116/39 117/117/39
v -0.1316827 3.1320000 0.2657087
v -0.0201861 4.6440000 0.1649209
v -0.0184151 4.6440000 0.2521547
vt 0.3750000 0.5800000
vt 0.5000000 0.8600000
vt 0.3750000 0.8600000
vn 0.9969880 -0.0748683 -0.0202407
f 118/118/40 119/119/40 120/120/40
v -0.1655811 3.1320000 0.0945292
v -0.0685087 3.1320000 -0.0504827
v 0.0402453 4.6440000 0.1019849
vt 0.5000000 0.5800000
vt 0.6250000 0.5800000
vt 0.6250000 0.8600000
vn 0.8254744 -0.1150954 0.5525804
f 121/121/41 122/122/41 123/123/41
v -0.1655811 3.1320000 0.0945292
v 0.0402453 4.6440000 0.1019849
v -0.0201861 4.6440000 0.1649209
vt 0.5000000 0.5800000
vt 0.6250000 0.8600000
vt 0.5000000 0.8600000
vn 0.7176189 -0.1010862 0.6890607
f 124/124/42 125/125/42 126/126/42
v -0.0685087 3.1320000 -0.0504827
v 0.1026708 3.1320000 -0.0843811
v 0.1274791 4.6440000 0.1002139
vt 0.6250000 0.5800000
vt 0.7500000 0.5800000
vt 0.7500000 0.8600000
vn 0.1928044 -0.1220295 0.9736197
f 127/127/43 128/128/43 129/129/43
v -0.0685087 3.1320000 -0.0504827
v 0.1274791 4.6440000 0.1002139
v 0.0402453 4.6440000 0.1019849
vt 0.6250000 0.5800000
vt 0.7500000 0.8600000
vt 0.6250000 0.8600000
vn 0.0201923 -0.1017468 0.9946054
f 130/130/44 131/131/44 132/132/44
v 0.1026708 3.1320000 -0.0843811
v 0.2476827 3.1320000 0.0126913
v 0.1904151 4.6440000 0.1606453
vt 0.7500000 0.5800000
vt 0.8750000 0.5800000
vt 0.8750000 0.8600000
vn -0.5533843 -0.1018525 0.8266752
f 133/133/45 134/134/45 135/135/45
v 0.1026708 3.1320000 -0.0843811
v 0.1904151 4.6440000 0.1606453
v 0.1274791 4.6440000 0.1002139
vt 0.7500000 0.5800000
vt 0.8750000 0.8600000
vt 0.7500000 0.8600000
vn -0.6905802 -0.0764741 0.7192014
f 136/136/46 137/137/46 138/138/46
v 0.2476827 3.1320000 0.0126913
v 0.2815811 3.1320000 0.1838708
v 0.1921861 4.6440000 0.2478791
vt 0.8750000 0.5800000
vt 1.0000000 0.5800000
vt 1.0000000 0.8600000
vn -0.9788070 -0.0660763 0.1938316
f 139/139/47 140/140/47 141/141/47
v 0.2476827 3.1320000 0.0126913
v 0.1921861 4.6440000 0.2478791
v 0.1904151 4.6440000 0.1606453
vt 0.8750000 0.5800000
vt 1.0000000 0.8600000
vt 0.8750000 0.8600000
vn -0.9990009 -0.0398222 0.0202816
f 142/142/48 143/143/48 144/144/48
v 0.1921861 4.6440000 0.2478791
v 0.1317547 4.6440000 0.3108151
v 0.1000000 5.4000000 0.2400000
vt 0.0000000 0.8600000
vt 0.1250000 0.8600000
vt 0.0625000 1.0000000
vn -0.7180688 -0.0947468 -0.6894927
f 145/145/49 146/146/49 147/147/49
v 0.0000000 0.0000000 0.0000000
v 0.2687006 0.0000000 0.2687006
v 0.3800000 0.0000000 0.0000000
vt 0.5000000 0.5000000
vt 1.0000000 1.0000000
vt 0.0000000 1.0000000
vn 0.0000000 1.0000000 0.0000000
f 148/148/50 149/149/50 150/150/50
v 0.1317547 4.6440000 0.3108151
v 0.0445209 4.6440000 0.3125861
v 0.1000000 5.4000000 0.2400000
vt 0.1250000 0.8600000
vt 0.2500000 0.8600000
vt 0.1875000 1.0000000
vn -0.0202077 -0.0940848 -0.9953591
f 151/151/51 152/152/51 153/153/51
v 0.0000000 0.0000000 0.0000000
v 0.0000000 0.0000000 0.3800000
v 0.2687006 0.0000000 0.2687006
vt 0.5000000 0.5000000
vt 1.0000000 1.0000000
vt 0.0000000 1.0000000
vn 0.0000000 1.0000000 0.0000000
f 154/154/52 155/155/52 156/156/52
v 0.0445209 4.6440000 0.3125861
v -0.0184151 4.6440000 0.2521547
v 0.1000000 5.4000000 0.2400000
vt 0.2500000 0.8600000
vt 0.3750000 0.8600000
vt 0.3125000 1.0000000
vn 0.6876682 -0.1192263 -0.7161687
f 157/157/53 158/158/53 159/159/53
v 0.0000000 0.0000000 0.0000000
v -0.2687006 0.0000000 0.2687006
v 0.0000000 0.0000000 0.3800000
vt 0.5000000 0.5000000
vt 1.0000000 1.0000000
vt 0.0000000 1.0000000
vn 0.0000000 1.0000000 -0.0000000
f 160/160/54 161/161/54 162/162/54
v -0.0184151 4.6440000 0.2521547
v -0.0201861 4.6440000 0.1649209
v 0.1000000 5.4000000 0.2400000
vt 0.3750000 0.8600000
vt 0.5000000 0.8600000
vt 0.4375000 1.0000000
vn 0.9877062 -0.1550304 -0.0200523
f 163/163/55 164/164/55 165/165/55
v 0.0000000 0.0000000 0.0000000
v -0.3800000 0.0000000 0.0000000
v -0.2687006 0.0000000 0.2687006
vt 0.5000000 0.5000000
vt 1.0000000 1.0000000
vt 0.0000000 1.0000000
vn 0.0000000 1.0000000 0.0000000
f 166/166/56 167/167/56 168/168/56
v -0.0201861 4.6440000 0.1649209
v 0.0402453 4.6440000 0.1019849
v 0.1000000 5.4000000 0.2400000
vt 0.5000000 0.8600000
vt 0.6250000 0.8600000
vt 0.5625000 1.0000000
vn 0.7094736 -0.1804441 0.6812395
f 169/169/57 170/170/57 171/171/57
v 0.0000000 0.0000000 0.0000000
v -0.2687006 0.0000000 -0.2687006
v -0.3800000 0.0000000 0.0000000
vt 0.5000000 0.5000000
vt 1.0000000 1.0000000
vt 0.0000000 1.0000000
vn 0.0000000 1.0000000 0.0000000
f 172/172/58 173/173/58 174/174/58
v 0.0402453 4.6440000 0.1019849
v 0.1274791 4.6440000 0.1002139
v 0.1000000 5.4000000 0.2400000
vt 0.6250000 0.8600000
vt 0.7500000 0.8600000
vt 0.6875000 1.0000000
vn 0.0199621 -0.1810824 0.9832653
f 175/175/59 176/176/59 177/177/59
v 0.0000000 0.0000000 0.0000000
v -0.0000000 0.0000000 -0.3800000
v -0.2687006 0.0000000 -0.2687006
vt 0.5000000 0.5000000
vt 1.0000000 1.0000000
vt 0.0000000 1.0000000
vn 0.0000000 1.0000000 0.0000000
f 178/178/60 179/179/60 180/180/60
v 0.1274791 4.6440000 0.1002139
v 0.1904151 4.6440000 0.1606453
v 0.1000000 5.4000000 0.2400000
vt 0.7500000 0.8600000
vt 0.8750000 0.8600000
vt 0.8125000 1.0000000
vn -0.6840641 -0.1565915 0.7124152
f 181/181/61 182/182/61 183/183/61
v 0.0000000 0.0000000 0.0000000
v 0.2687006 0.0000000 -0.2687006
v -0.0000000 0.0000000 -0.3800000
vt 0.5000000 0.5000000
vt 1.0000000 1.0000000
vt 0.0000000 1.0000000
vn 0.0000000 1.0000000 0.0000000
f 184/184/62 185/185/62 186/186/62
v 0.1904151 4.6440000 0.1606453
v 0.1921861 4.6440000 0.2478791
v 0.1000000 5.4000000 0.2400000
vt 0.8750000 0.8600000
vt 1.0000000 0.8600000
vt 0.9375000 1.0000000
vn -0.9924710 -0.1208112 0.0201490
f 187/187/63 188/188/63 189/189/63
v 0.0000000 0.0000000 0.0000000
v 0.3800000 0.0000000 0.0000000
v 0.2687006 0.0000000 -0.2687006
vt 0.5000000 0.5000000
vt 1.0000000 1.0000000
vt 0.0000000 1.0000000
vn -0.0000000 1.0000000 0.0000000
f 190/190/64 191/191/64 192/192/64
