mtllib ice_crystal.mtl
o progressive_ice_crystal
usemtl ice_crystal
# Complete faceted crystal; origin is fixed at the ground contact.
v 0.8800000 0.0000000 0.0000000
v 0.6222540 0.0000000 0.6222540
v 0.5861043 0.3720000 0.5768108
vt 0.0000000 0.0000000
vt 0.1250000 0.0000000
vt 0.1250000 0.1200000
vn -0.9153876 -0.1352729 -0.3791660
f 1/1/1 2/2/1 3/3/1
v 0.8800000 0.0000000 0.0000000
v 0.5861043 0.3720000 0.5768108
v 0.8495286 0.3720000 0.0159520
vt 0.0000000 0.0000000
vt 0.1250000 0.1200000
vt 0.0000000 0.1200000
vn -0.9037236 -0.0558245 -0.4244612
f 4/4/2 5/5/2 6/6/2
v 0.6222540 0.0000000 0.6222540
v 0.0000000 0.0000000 0.8800000
v 0.0032480 0.3720000 0.7871286
vt 0.1250000 0.0000000
vt 0.2500000 0.0000000
vt 0.2500000 0.1200000
vn -0.3731643 -0.2216548 -0.9008982
f 7/7/3 8/8/3 9/9/3
v 0.6222540 0.0000000 0.6222540
v 0.0032480 0.3720000 0.7871286
v 0.5861043 0.3720000 0.5768108
vt 0.1250000 0.0000000
vt 0.2500000 0.1200000
vt 0.1250000 0.1200000
vn -0.3357669 -0.1462996 -0.9305144
f 10/10/4 11/11/4 12/12/4
v 0.0000000 0.0000000 0.8800000
v -0.6222540 0.0000000 0.6222540
v -0.5576108 0.3720000 0.5237043
vt 0.2500000 0.0000000
vt 0.3750000 0.0000000
vt 0.3750000 0.1200000
vn 0.3653932 -0.2971897 -0.8821372
f 13/13/5 14/14/5 15/15/5
v 0.0000000 0.0000000 0.8800000
v -0.5576108 0.3720000 0.5237043
v 0.0032480 0.3720000 0.7871286
vt 0.2500000 0.0000000
vt 0.3750000 0.1200000
vt 0.2500000 0.1200000
vn 0.4143357 -0.2238539 -0.8821652
f 16/16/6 17/17/6 18/18/6
v -0.6222540 0.0000000 0.6222540
v -0.8800000 0.0000000 0.0000000
v -0.7679286 0.3720000 -0.0591520
vt 0.3750000 0.0000000
vt 0.5000000 0.0000000
vt 0.5000000 0.1200000
vn 0.8749210 -0.3212110 -0.3624041
f 19/19/7 20/20/7 21/21/7
v -0.6222540 0.0000000 0.6222540
v -0.7679286 0.3720000 -0.0591520
v -0.5576108 0.3720000 0.5237043
vt 0.3750000 0.0000000
vt 0.5000000 0.1200000
vt 0.3750000 0.1200000
vn 0.9118217 -0.2456132 -0.3290218
f 22/22/8 23/23/8 24/24/8
v -0.8800000 0.0000000 0.0000000
v -0.6222540 0.0000000 -0.6222540
v -0.5045043 0.3720000 -0.6200108
vt 0.5000000 0.0000000
vt 0.6250000 0.0000000
vt 0.6250000 0.1200000
vn 0.8861876 -0.2827198 0.3670709
f 25/25/9 26/26/9 27/27/9
v -0.8800000 0.0000000 0.0000000
v -0.5045043 0.3720000 -0.6200108
v -0.7679286 0.3720000 -0.0591520
vt 0.5000000 0.0000000
vt 0.6250000 0.1200000
vt 0.5000000 0.1200000
vn 0.8866797 -0.2009065 0.4164561
f 28/28/10 29/29/10 30/30/10
v -0.6222540 0.0000000 -0.6222540
v -0.0000000 0.0000000 -0.8800000
v 0.0783520 0.3720000 -0.8303286
vt 0.6250000 0.0000000
vt 0.7500000 0.0000000
vt 0.7500000 0.1200000
vn 0.3749635 -0.1998487 0.9052419
f 31/31/11 32/32/11 33/33/11
v -0.6222540 0.0000000 -0.6222540
v 0.0783520 0.3720000 -0.8303286
v -0.5045043 0.3720000 -0.6200108
vt 0.6250000 0.0000000
vt 0.7500000 0.1200000
vt 0.6250000 0.1200000
vn 0.3372683 -0.1123923 0.9346754
f 34/34/12 35/35/12 36/36/12
v -0.0000000 0.0000000 -0.8800000
v 0.6222540 0.0000000 -0.6222540
v 0.6392108 0.3720000 -0.5669043
vt 0.7500000 0.0000000
vt 0.8750000 0.0000000
vt 0.8750000 0.1200000
vn -0.3799566 -0.1191646 0.9172964
f 37/37/13 38/38/13 39/39/13
v -0.0000000 0.0000000 -0.8800000
v 0.6392108 0.3720000 -0.5669043
v 0.0783520 0.3720000 -0.8303286
vt 0.7500000 0.0000000
vt 0.8750000 0.1200000
vt 0.7500000 0.1200000
vn -0.4249159 -0.0313018 0.9046915
f 40/40/14 41/41/14 42/42/14
v 0.6222540 0.0000000 -0.6222540
v 0.8800000 0.0000000 0.0000000
v 0.8495286 0.3720000 0.0159520
vt 0.8750000 0.0000000
vt 1.0000000 0.0000000
vt 1.0000000 0.1200000
vn -0.9199870 -0.0916992 0.3810711
f 43/43/15 44/44/15 45/45/15
v 0.6222540 0.0000000 -0.6222540
v 0.8495286 0.3720000 0.0159520
v 0.6392108 0.3720000 -0.5669043
vt 0.8750000 0.0000000
vt 1.0000000 0.1200000
vt 0.8750000 0.1200000
vn -0.9406080 -0.0076250 0.3394091
f 46/46/16 47/47/16 48/48/16
v 0.8495286 0.3720000 0.0159520
v 0.5861043 0.3720000 0.5768108
v 0.6260061 1.7980000 0.2036736
vt 0.0000000 0.1200000
vt 0.1250000 0.1200000
vt 0.1250000 0.5800000
vn -0.9018129 -0.0855985 -0.4235639
f 49/49/17 50/50/17 51/51/17
v 0.8495286 0.3720000 0.0159520
v 0.6260061 1.7980000 0.2036736
v 0.7182526 1.7980000 -0.1897708
vt 0.0000000 0.1200000
vt 0.1250000 0.5800000
vt 0.0000000 0.5800000
vn -0.9663674 -0.1216495 -0.2265734
f 52/52/18 53/53/18 54/54/18
v 0.5861043 0.3720000 0.5768108
v 0.0032480 0.3720000 0.7871286
v 0.2825708 1.7980000 0.4166526
vt 0.1250000 0.1200000
vt 0.2500000 0.1200000
vt 0.2500000 0.5800000
vn -0.3341725 -0.1751433 -0.9260959
f 55/55/19 56/56/19 57/57/19
v 0.5861043 0.3720000 0.5768108
v 0.2825708 1.7980000 0.4166526
v 0.6260061 1.7980000 0.2036736
vt 0.1250000 0.1200000
vt 0.2500000 0.5800000
vt 0.1250000 0.5800000
vn -0.5160219 -0.2032943 -0.8321014
f 58/58/20 59/59/20 60/60/20
v 0.0032480 0.3720000 0.7871286
v -0.5576108 0.3720000 0.5237043
v -0.1108736 1.7980000 0.3244061
vt 0.2500000 0.1200000
vt 0.3750000 0.1200000
vt 0.3750000 0.5800000
vn 0.4114763 -0.2513481 -0.8760773
f 61/61/21 62/62/21 63/63/21
v 0.0032480 0.3720000 0.7871286
v -0.1108736 1.7980000 0.3244061
v 0.2825708 1.7980000 0.4166526
vt 0.2500000 0.1200000
vt 0.3750000 0.5800000
vt 0.2500000 0.5800000
vn 0.2187825 -0.2852849 -0.9331381
f 64/64/22 65/65/22 66/66/22
v -0.5576108 0.3720000 0.5237043
v -0.7679286 0.3720000 -0.0591520
v -0.3238526 1.7980000 -0.0190292
vt 0.3750000 0.1200000
vt 0.5000000 0.1200000
vt 0.5000000 0.5800000
vn 0.9050001 -0.2726412 -0.3265603
f 67/67/23 68/68/23 69/69/23
v -0.5576108 0.3720000 0.5237043
v -0.3238526 1.7980000 -0.0190292
v -0.1108736 1.7980000 0.3244061
vt 0.3750000 0.1200000
vt 0.5000000 0.5800000
vt 0.3750000 0.5800000
vn 0.8046382 -0.3218161 -0.4989908
f 70/70/24 71/71/24 72/72/24
v -0.7679286 0.3720000 -0.0591520
v -0.5045043 0.3720000 -0.6200108
v -0.2316061 1.7980000 -0.4124736
vt 0.5000000 0.1200000
vt 0.6250000 0.1200000
vt 0.6250000 0.5800000
vn 0.8811140 -0.2288513 0.4138420
f 73/73/25 74/74/25 75/75/25
v -0.7679286 0.3720000 -0.0591520
v -0.2316061 1.7980000 -0.4124736
v -0.3238526 1.7980000 -0.0190292
vt 0.5000000 0.1200000
vt 0.6250000 0.5800000
vt 0.5000000 0.5800000
vn 0.9300407 -0.2957628 0.2180563
f 76/76/26 77/77/26 78/78/26
v -0.5045043 0.3720000 -0.6200108
v 0.0783520 0.3720000 -0.8303286
v 0.1118292 1.7980000 -0.6254526
vt 0.6250000 0.1200000
vt 0.7500000 0.1200000
vt 0.7500000 0.5800000
vn 0.3359956 -0.1416677 0.9311483
f 79/79/27 80/80/27 81/81/27
v -0.5045043 0.3720000 -0.6200108
v 0.1118292 1.7980000 -0.6254526
v -0.2316061 1.7980000 -0.4124736
vt 0.6250000 0.1200000
vt 0.7500000 0.5800000
vt 0.6250000 0.5800000
vn 0.5142233 -0.2190888 0.8292011
f 82/82/28 83/83/28 84/84/28
v 0.0783520 0.3720000 -0.8303286
v 0.6392108 0.3720000 -0.5669043
v 0.5052736 1.7980000 -0.5332061
vt 0.7500000 0.1200000
vt 0.8750000 0.1200000
vt 0.8750000 0.5800000
vn -0.4243272 -0.0612043 0.9034381
f 85/85/29 86/86/29 87/87/29
v 0.0783520 0.3720000 -0.8303286
v 0.5052736 1.7980000 -0.5332061
v 0.1118292 1.7980000 -0.6254526
vt 0.7500000 0.1200000
vt 0.8750000 0.5800000
vt 0.7500000 0.5800000
vn -0.2262310 -0.1333189 0.9649070
f 88/88/30 89/89/30 90/90/30
v 0.6392108 0.3720000 -0.5669043
v 0.8495286 0.3720000 0.0159520
v 0.7182526 1.7980000 -0.1897708
vt 0.8750000 0.1200000
vt 1.0000000 0.1200000
vt 1.0000000 0.5800000
vn -0.9399701 -0.0376008 0.3391789
f 91/91/31 92/92/31 93/93/31
v 0.6392108 0.3720000 -0.5669043
v 0.7182526 1.7980000 -0.1897708
v 0.5052736 1.7980000 -0.5332061
vt 0.8750000 0.1200000
vt 1.0000000 0.5800000
vt 0.8750000 0.5800000
vn -0.8462530 -0.0918860 0.5247979
f 94/94/32 95/95/32 96/96/32
v 0.7182526 1.7980000 -0.1897708
v 0.6260061 1.7980000 0.2036736
v 0.5065563 2.6660000 -0.0004204
vt 0.0000000 0.5800000
vt 0.1250000 0.5800000
vt 0.1250000 0.8600000
vn -0.9568957 -0.1844355 -0.2243527
f 97/97/33 98/98/33 99/99/33
v 0.7182526 1.7980000 -0.1897708
v 0.5065563 2.6660000 -0.0004204
v 0.5529943 2.6660000 -0.1970685
vt 0.0000000 0.5800000
vt 0.1250000 0.8600000
vt 0.0000000 0.8600000
vn -0.9566099 -0.1840280 -0.2259010
f 100/100/34 101/101/34 102/102/34
v 0.6260061 1.7980000 0.2036736
v 0.2825708 1.7980000 0.4166526
v 0.3346685 2.6660000 0.1057943
vt 0.1250000 0.5800000
vt 0.2500000 0.5800000
vt 0.2500000 0.8600000
vn -0.5084573 -0.2631156 -0.8199033
f 103/103/35 104/104/35 105/105/35
v 0.6260061 1.7980000 0.2036736
v 0.3346685 2.6660000 0.1057943
v 0.5065563 2.6660000 -0.0004204
vt 0.1250000 0.5800000
vt 0.2500000 0.8600000
vt 0.1250000 0.8600000
vn -0.5071914 -0.2627908 -0.8207910
f 106/106/36 107/107/36 108/108/36
v 0.2825708 1.7980000 0.4166526
v -0.1108736 1.7980000 0.3244061
v 0.1380204 2.6660000 0.0593563
vt 0.2500000 0.5800000
vt 0.3750000 0.5800000
vt 0.3750000 0.8600000
vn 0.2145865 -0.3410067 -0.9152415
f 109/109/37 110/110/37 111/111/37
v 0.2825708 1.7980000 0.4166526
v 0.1380204 2.6660000 0.0593563
v 0.3346685 2.6660000 0.1057943
vt 0.2500000 0.5800000
vt 0.3750000 0.8600000
vt 0.2500000 0.8600000
vn 0.2160790 -0.3406659 -0.9150173
f 112/112/38 113/113/38 114/114/38
v -0.1108736 1.7980000 0.3244061
v -0.3238526 1.7980000 -0.0190292
v 0.0318057 2.6660000 -0.1125315
vt 0.3750000 0.5800000
vt 0.5000000 0.5800000
vt 0.5000000 0.8600000
vn 0.7877008 -0.3753768 -0.4884872
f 115/115/39 116/116/39 117/117/39
v -0.1108736 1.7980000 0.3244061
v 0.0318057 2.6660000 -0.1125315
v 0.1380204 2.6660000 0.0593563
vt 0.3750000 0.5800000
vt 0.5000000 0.8600000
vt 0.3750000 0.8600000
vn 0.7886312 -0.3749416 -0.4873188
f 118/118/40 119/119/40 120/120/40
v -0.3238526 1.7980000 -0.0190292
v -0.2316061 1.7980000 -0.4124736
v 0.0782437 2.6660000 -0.3091796
vt 0.5000000 0.5800000
vt 0.6250000 0.5800000
vt 0.6250000 0.8600000
vn 0.9116954 -0.3508850 0.2137551
f 121/121/41 122/122/41 123/123/41
v -0.3238526 1.7980000 -0.0190292
v 0.0782437 2.6660000 -0.3091796
v 0.0318057 2.6660000 -0.1125315
vt 0.5000000 0.5800000
vt 0.6250000 0.8600000
vt 0.5000000 0.8600000
vn 0.9115588 -0.3503180 0.2152623
f 124/124/42 125/125/42 126/126/42
v -0.2316061 1.7980000 -0.4124736
v 0.1118292 1.7980000 -0.6254526
v 0.2501315 2.6660000 -0.4153943
vt 0.6250000 0.5800000
vt 0.7500000 0.5800000
vt 0.7500000 0.8600000
vn 0.5062214 -0.2782048 0.8162977
f 127/127/43 128/128/43 129/129/43
v -0.2316061 1.7980000 -0.4124736
v 0.2501315 2.6660000 -0.4153943
v 0.0782437 2.6660000 -0.3091796
vt 0.6250000 0.5800000
vt 0.7500000 0.8600000
vt 0.6250000 0.8600000
vn 0.5050168 -0.2775329 0.8172720
f 130/130/44 131/131/44 132/132/44
v 0.1118292 1.7980000 -0.6254526
v 0.5052736 1.7980000 -0.5332061
v 0.4467796 2.6660000 -0.3689563
vt 0.7500000 0.5800000
vt 0.8750000 0.5800000
vt 0.8750000 0.8600000
vn -0.2238525 -0.1957529 0.9547622
f 133/133/45 134/134/45 135/135/45
v 0.1118292 1.7980000 -0.6254526
v 0.4467796 2.6660000 -0.3689563
v 0.2501315 2.6660000 -0.4153943
vt 0.7500000 0.5800000
vt 0.8750000 0.8600000
vt 0.7500000 0.8600000
vn -0.2254104 -0.1950838 0.9545326
f 136/136/46 137/137/46 138/138/46
v 0.5052736 1.7980000 -0.5332061
v 0.7182526 1.7980000 -0.1897708
v 0.5529943 2.6660000 -0.1970685
vt 0.8750000 0.5800000
vt 1.0000000 0.5800000
vt 1.0000000 0.8600000
vn -0.8395162 -0.1554582 0.5206202
f 139/139/47 140/140/47 141/141/47
v 0.5052736 1.7980000 -0.5332061
v 0.5529943 2.6660000 -0.1970685
v 0.4467796 2.6660000 -0.3689563
vt 0.8750000 0.5800000
vt 1.0000000 0.8600000
vt 0.8750000 0.8600000
vn -0.8404219 -0.1549056 0.5193219
f 142/142/48 143/143/48 144/144/48
v 0.5529943 2.6660000 -0.1970685
v 0.5065563 2.6660000 -0.0004204
v 0.3400000 3.1000000 -0.1800000
vt 0.0000000 0.8600000
vt 0.1250000 0.8600000
vt 0.0625000 1.0000000
vn -0.8812740 -0.4243184 -0.2081106
f 145/145/49 146/146/49 147/147/49
v 0.0000000 0.0000000 0.0000000
v 0.6222540 0.0000000 0.6222540
v 0.8800000 0.0000000 0.0000000
vt 0.5000000 0.5000000
vt 1.0000000 1.0000000
vt 0.0000000 1.0000000
vn 0.0000000 1.0000000 0.0000000
f 148/148/50 149/149/50 150/150/50
v 0.5065563 2.6660000 -0.0004204
v 0.3346685 2.6660000 0.1057943
v 0.3400000 3.1000000 -0.1800000
vt 0.1250000 0.8600000
vt 0.2500000 0.8600000
vt 0.1875000 1.0000000
vn -0.4598712 -0.4844236 -0.7442125
f 151/151/51 152/152/51 153/153/51
v 0.0000000 0.0000000 0.0000000
v 0.0000000 0.0000000 0.8800000
v 0.6222540 0.0000000 0.6222540
vt 0.5000000 0.5000000
vt 1.0000000 1.0000000
vt 0.0000000 1.0000000
vn 0.0000000 1.0000000 0.0000000
f 154/154/52 155/155/52 156/156/52
v 0.3346685 2.6660000 0.1057943
v 0.1380204 2.6660000 0.0593563
v 0.3400000 3.1000000 -0.1800000
vt 0.2500000 0.8600000
vt 0.3750000 0.8600000
vt 0.3125000 1.0000000
vn 0.1932500 -0.5412639 -0.8183446
f 157/157/53 158/158/53 159/159/53
v 0.0000000 0.0000000 0.0000000
v -0.6222540 0.0000000 0.6222540
v 0.0000000 0.0000000 0.8800000
vt 0.5000000 0.5000000
vt 1.0000000 1.0000000
vt 0.0000000 1.0000000
vn 0.0000000 1.0000000 -0.0000000
f 160/160/54 161/161/54 162/162/54
v 0.1380204 2.6660000 0.0593563
v 0.0318057 2.6660000 -0.1125315
v 0.3400000 3.1000000 -0.1800000
vt 0.3750000 0.8600000
vt 0.5000000 0.8600000
vt 0.4375000 1.0000000
vn 0.7015558 -0.5655851 -0.4335124
f 163/163/55 164/164/55 165/165/55
v 0.0000000 0.0000000 0.0000000
v -0.8800000 0.0000000 0.0000000
v -0.6222540 0.0000000 0.6222540
vt 0.5000000 0.5000000
vt 1.0000000 1.0000000
vt 0.0000000 1.0000000
vn 0.0000000 1.0000000 0.0000000
f 166/166/56 167/167/56 168/168/56
v 0.0318057 2.6660000 -0.1125315
v 0.0782437 2.6660000 -0.3091796
v 0.3400000 3.1000000 -0.1800000
vt 0.5000000 0.8600000
vt 0.6250000 0.8600000
vt 0.5625000 1.0000000
vn 0.8139900 -0.5481524 0.1922217
f 169/169/57 170/170/57 171/171/57
v 0.0000000 0.0000000 0.0000000
v -0.6222540 0.0000000 -0.6222540
v -0.8800000 0.0000000 0.0000000
vt 0.5000000 0.5000000
vt 1.0000000 1.0000000
vt 0.0000000 1.0000000
vn 0.0000000 1.0000000 0.0000000
f 172/172/58 173/173/58 174/174/58
v 0.0782437 2.6660000 -0.3091796
v 0.2501315 2.6660000 -0.4153943
v 0.3400000 3.1000000 -0.1800000
vt 0.6250000 0.8600000
vt 0.7500000 0.8600000
vt 0.6875000 1.0000000
vn 0.4566385 -0.4953670 0.7389809
f 175/175/59 176/176/59 177/177/59
v 0.0000000 0.0000000 0.0000000
v -0.0000000 0.0000000 -0.8800000
v -0.6222540 0.0000000 -0.6222540
vt 0.5000000 0.5000000
vt 1.0000000 1.0000000
vt 0.0000000 1.0000000
vn 0.0000000 1.0000000 0.0000000
f 178/178/60 179/179/60 180/180/60
v 0.2501315 2.6660000 -0.4153943
v 0.4467796 2.6660000 -0.3689563
v 0.3400000 3.1000000 -0.1800000
vt 0.7500000 0.8600000
vt 0.8750000 0.8600000
vt 0.8125000 1.0000000
vn -0.2071714 -0.4329320 0.8772969
f 181/181/61 182/182/61 183/183/61
v 0.0000000 0.0000000 0.0000000
v 0.6222540 0.0000000 -0.6222540
v -0.0000000 0.0000000 -0.8800000
vt 0.5000000 0.5000000
vt 1.0000000 1.0000000
vt 0.0000000 1.0000000
vn 0.0000000 1.0000000 0.0000000
f 184/184/62 185/185/62 186/186/62
v 0.4467796 2.6660000 -0.3689563
v 0.5529943 2.6660000 -0.1970685
v 0.3400000 3.1000000 -0.1800000
vt 0.8750000 0.8600000
vt 1.0000000 0.8600000
vt 0.9375000 1.0000000
vn -0.7791752 -0.4013316 0.4814757
f 187/187/63 188/188/63 189/189/63
v 0.0000000 0.0000000 0.0000000
v 0.8800000 0.0000000 0.0000000
v 0.6222540 0.0000000 -0.6222540
vt 0.5000000 0.5000000
vt 1.0000000 1.0000000
vt 0.0000000 1.0000000
vn -0.0000000 1.0000000 0.0000000
f 190/190/64 191/191/64 192/192/64
