mtllib ice_crystal.mtl
o progressive_ice_crystal
usemtl ice_crystal
# Complete faceted crystal; origin is fixed at the ground contact.
v 0.7200000 0.0000000 0.0000000
v 0.5091169 0.0000000 0.5091169
v 0.4078373 0.4320000 0.5082693
vt 0.0000000 0.0000000
vt 0.1250000 0.0000000
vt 0.1250000 0.1200000
vn -0.9028013 -0.2123896 -0.3739525
f 1/1/1 2/2/1 3/3/1
v 0.7200000 0.0000000 0.0000000
v 0.4078373 0.4320000 0.5082693
v 0.6277616 0.4320000 0.0514750
vt 0.0000000 0.0000000
vt 0.1250000 0.1200000
vt 0.0000000 0.1200000
vn -0.8922252 -0.1393186 -0.4295632
f 4/4/2 5/5/2 6/6/2
v 0.5091169 0.0000000 0.5091169
v 0.0000000 0.0000000 0.7200000
v -0.0706750 0.4320000 0.6757616
vt 0.1250000 0.0000000
vt 0.2500000 0.0000000
vt 0.2500000 0.1200000
vn -0.3780400 -0.1553078 -0.9126693
f 7/7/3 8/8/3 9/9/3
v 0.5091169 0.0000000 0.5091169
v -0.0706750 0.4320000 0.6757616
v 0.4078373 0.4320000 0.5082693
vt 0.1250000 0.0000000
vt 0.2500000 0.1200000
vt 0.1250000 0.1200000
vn -0.3293393 -0.0790575 -0.9408961
f 10/10/4 11/11/4 12/12/4
v 0.0000000 0.0000000 0.7200000
v -0.5091169 0.0000000 0.5091169
v -0.5274693 0.4320000 0.4558373
vt 0.2500000 0.0000000
vt 0.3750000 0.0000000
vt 0.3750000 0.1200000
vn 0.3808705 -0.0972241 -0.9195027
f 13/13/5 14/14/5 15/15/5
v 0.0000000 0.0000000 0.7200000
v -0.5274693 0.4320000 0.4558373
v -0.0706750 0.4320000 0.6757616
vt 0.2500000 0.0000000
vt 0.3750000 0.1200000
vt 0.2500000 0.1200000
vn 0.4336954 -0.0212936 -0.9008079
f 16/16/6 17/17/6 18/18/6
v -0.5091169 0.0000000 0.5091169
v -0.7200000 0.0000000 0.0000000
v -0.6949616 0.4320000 -0.0226750
vt 0.3750000 0.0000000
vt 0.5000000 0.0000000
vt 0.5000000 0.1200000
vn 0.9213851 -0.0734350 -0.3816502
f 19/19/7 20/20/7 21/21/7
v -0.5091169 0.0000000 0.5091169
v -0.6949616 0.4320000 -0.0226750
v -0.5274693 0.4320000 0.4558373
vt 0.3750000 0.0000000
vt 0.5000000 0.1200000
vt 0.3750000 0.1200000
vn 0.9438501 -0.0006487 -0.3303733
f 22/22/8 23/23/8 24/24/8
v -0.7200000 0.0000000 0.0000000
v -0.5091169 0.0000000 -0.5091169
v -0.4750373 0.4320000 -0.4794693
vt 0.5000000 0.0000000
vt 0.6250000 0.0000000
vt 0.6250000 0.1200000
vn 0.9193719 -0.0986623 0.3808163
f 25/25/9 26/26/9 27/27/9
v -0.7200000 0.0000000 0.0000000
v -0.4750373 0.4320000 -0.4794693
v -0.6949616 0.4320000 -0.0226750
vt 0.5000000 0.0000000
vt 0.6250000 0.1200000
vt 0.5000000 0.1200000
vn 0.9006217 -0.0294400 0.4336057
f 28/28/10 29/29/10 30/30/10
v -0.5091169 0.0000000 -0.5091169
v -0.0000000 0.0000000 -0.7200000
v 0.0034750 0.4320000 -0.6469616
vt 0.6250000 0.0000000
vt 0.7500000 0.0000000
vt 0.7500000 0.1200000
vn 0.3779196 -0.1572961 0.9123786
f 31/31/11 32/32/11 33/33/11
v -0.5091169 0.0000000 -0.5091169
v 0.0034750 0.4320000 -0.6469616
v -0.4750373 0.4320000 -0.4794693
vt 0.6250000 0.0000000
vt 0.7500000 0.1200000
vt 0.6250000 0.1200000
vn 0.3290187 -0.0904652 0.9399802
f 34/34/12 35/35/12 36/36/12
v -0.0000000 0.0000000 -0.7200000
v 0.5091169 0.0000000 -0.5091169
v 0.4602693 0.4320000 -0.4270373
vt 0.7500000 0.0000000
vt 0.8750000 0.0000000
vt 0.8750000 0.1200000
vn -0.3738390 -0.2137504 0.9025271
f 37/37/13 38/38/13 39/39/13
v -0.0000000 0.0000000 -0.7200000
v 0.4602693 0.4320000 -0.4270373
v 0.0034750 0.4320000 -0.6469616
vt 0.7500000 0.0000000
vt 0.8750000 0.1200000
vt 0.7500000 0.1200000
vn -0.4290668 -0.1472230 0.8911942
f 40/40/14 41/41/14 42/42/14
v 0.5091169 0.0000000 -0.5091169
v 0.7200000 0.0000000 0.0000000
v 0.6277616 0.4320000 0.0514750
vt 0.8750000 0.0000000
vt 1.0000000 0.0000000
vt 1.0000000 0.1200000
vn -0.8977826 -0.2360005 0.3718737
f 43/43/15 44/44/15 45/45/15
v 0.5091169 0.0000000 -0.5091169
v 0.6277616 0.4320000 0.0514750
v 0.4602693 0.4320000 -0.4270373
vt 0.8750000 0.0000000
vt 1.0000000 0.1200000
vt 0.8750000 0.1200000
vn -0.9305780 -0.1671113 0.3257276
f 46/46/16 47/47/16 48/48/16
v 0.6277616 0.4320000 0.0514750
v 0.4078373 0.4320000 0.5082693
v 0.1763724 2.0880000 0.3376621
vt 0.0000000 0.1200000
vt 0.1250000 0.1200000
vt 0.1250000 0.5800000
vn -0.8881757 -0.1681978 -0.4276136
f 49/49/17 50/50/17 51/51/17
v 0.6277616 0.4320000 0.0514750
v 0.1763724 2.0880000 0.3376621
v 0.2666968 2.0880000 0.0196003
vt 0.0000000 0.1200000
vt 0.1250000 0.5800000
vt 0.0000000 0.5800000
vn -0.9404715 -0.2101958 -0.2670787
f 52/52/18 53/53/18 54/54/18
v 0.4078373 0.4320000 0.5082693
v -0.0706750 0.4320000 0.6757616
v -0.1124003 2.0880000 0.4986968
vt 0.1250000 0.1200000
vt 0.2500000 0.1200000
vt 0.2500000 0.5800000
vn -0.3284194 -0.1085977 -0.9382682
f 55/55/19 56/56/19 57/57/19
v 0.4078373 0.4320000 0.5082693
v -0.1124003 2.0880000 0.4986968
v 0.1763724 2.0880000 0.3376621
vt 0.1250000 0.1200000
vt 0.2500000 0.5800000
vt 0.1250000 0.5800000
vn -0.4810697 -0.1561162 -0.8626701
f 58/58/20 59/59/20 60/60/20
v -0.0706750 0.4320000 0.6757616
v -0.5274693 0.4320000 0.4558373
v -0.4304621 2.0880000 0.4083724
vt 0.2500000 0.1200000
vt 0.3750000 0.1200000
vt 0.3750000 0.5800000
vn 0.4332255 -0.0511694 -0.8998319
f 61/61/21 62/62/21 63/63/21
v -0.0706750 0.4320000 0.6757616
v -0.4304621 2.0880000 0.4083724
v -0.1124003 2.0880000 0.4986968
vt 0.2500000 0.1200000
vt 0.3750000 0.5800000
vt 0.2500000 0.5800000
vn 0.2719323 -0.0955340 -0.9575626
f 64/64/22 65/65/22 66/66/22
v -0.5274693 0.4320000 0.4558373
v -0.6949616 0.4320000 -0.0226750
v -0.5914968 2.0880000 0.1195997
vt 0.3750000 0.1200000
vt 0.5000000 0.1200000
vt 0.5000000 0.5800000
vn 0.9434091 -0.0305724 -0.3302189
f 67/67/23 68/68/23 69/69/23
v -0.5274693 0.4320000 0.4558373
v -0.5914968 2.0880000 0.1195997
v -0.4304621 2.0880000 0.4083724
vt 0.3750000 0.1200000
vt 0.5000000 0.5800000
vt 0.3750000 0.5800000
vn 0.8715328 -0.0649840 -0.4860120
f 70/70/24 71/71/24 72/72/24
v -0.6949616 0.4320000 -0.0226750
v -0.4750373 0.4320000 -0.4794693
v -0.5011724 2.0880000 -0.1984621
vt 0.5000000 0.1200000
vt 0.6250000 0.1200000
vt 0.6250000 0.5800000
vn 0.8994273 -0.0592863 0.4330307
f 73/73/25 74/74/25 75/75/25
v -0.6949616 0.4320000 -0.0226750
v -0.5011724 2.0880000 -0.1984621
v -0.5914968 2.0880000 0.1195997
vt 0.5000000 0.1200000
vt 0.6250000 0.5800000
vt 0.5000000 0.5800000
vn 0.9586206 -0.0832822 0.2722327
f 76/76/26 77/77/26 78/78/26
v -0.4750373 0.4320000 -0.4794693
v 0.0034750 0.4320000 -0.6469616
v -0.2123997 2.0880000 -0.3594968
vt 0.6250000 0.1200000
vt 0.7500000 0.1200000
vt 0.7500000 0.5800000
vn 0.3279898 -0.1199044 0.9370409
f 79/79/27 80/80/27 81/81/27
v -0.4750373 0.4320000 -0.4794693
v -0.2123997 2.0880000 -0.3594968
v -0.5011724 2.0880000 -0.1984621
vt 0.6250000 0.1200000
vt 0.7500000 0.5800000
vt 0.6250000 0.5800000
vn 0.4823032 -0.1391504 0.8648820
f 82/82/28 83/83/28 84/84/28
v 0.0034750 0.4320000 -0.6469616
v 0.4602693 0.4320000 -0.4270373
v 0.1056621 2.0880000 -0.2691724
vt 0.7500000 0.1200000
vt 0.8750000 0.1200000
vt 0.8750000 0.5800000
vn -0.4270229 -0.1759925 0.8869488
f 85/85/29 86/86/29 87/87/29
v 0.0034750 0.4320000 -0.6469616
v 0.1056621 2.0880000 -0.2691724
v -0.2123997 2.0880000 -0.3594968
vt 0.7500000 0.1200000
vt 0.8750000 0.5800000
vt 0.7500000 0.5800000
vn -0.2677421 -0.1985645 0.9428077
f 88/88/30 89/89/30 90/90/30
v 0.4602693 0.4320000 -0.4270373
v 0.6277616 0.4320000 0.0514750
v 0.2666968 2.0880000 0.0196003
vt 0.8750000 0.1200000
vt 1.0000000 0.1200000
vt 1.0000000 0.5800000
vn -0.9256222 -0.1955812 0.3239930
f 91/91/31 92/92/31 93/93/31
v 0.4602693 0.4320000 -0.4270373
v 0.2666968 2.0880000 0.0196003
v 0.1056621 2.0880000 -0.2691724
vt 0.8750000 0.1200000
vt 1.0000000 0.5800000
vt 0.8750000 0.5800000
vn -0.8505104 -0.2273374 0.4742888
f 94/94/32 95/95/32 96/96/32
v 0.2666968 2.0880000 0.0196003
v 0.1763724 2.0880000 0.3376621
v -0.0746790 3.0960000 0.2412573
vt 0.0000000 0.5800000
vt 0.1250000 0.5800000
vt 0.1250000 0.8600000
vn -0.9297022 -0.2568015 -0.2640204
f 97/97/33 98/98/33 99/99/33
v 0.2666968 2.0880000 0.0196003
v -0.0746790 3.0960000 0.2412573
v -0.0257135 3.0960000 0.0833560
vt 0.0000000 0.5800000
vt 0.1250000 0.8600000
vt 0.0000000 0.8600000
vn -0.9247689 -0.2501274 -0.2867730
f 100/100/34 101/101/34 102/102/34
v 0.1763724 2.0880000 0.3376621
v -0.1124003 2.0880000 0.4986968
v -0.2209560 3.0960000 0.3182865
vt 0.1250000 0.5800000
vt 0.2500000 0.5800000
vt 0.2500000 0.8600000
vn -0.4767627 -0.2043615 -0.8549466
f 103/103/35 104/104/35 105/105/35
v 0.1763724 2.0880000 0.3376621
v -0.2209560 3.0960000 0.3182865
v -0.0746790 3.0960000 0.2412573
vt 0.1250000 0.5800000
vt 0.2500000 0.8600000
vt 0.1250000 0.8600000
vn -0.4568348 -0.1967482 -0.8675207
f 106/106/36 107/107/36 108/108/36
v -0.1124003 2.0880000 0.4986968
v -0.4304621 2.0880000 0.4083724
v -0.3788573 3.0960000 0.2693210
vt 0.2500000 0.5800000
vt 0.3750000 0.5800000
vt 0.3750000 0.8600000
vn 0.2702894 -0.1451331 -0.9517773
f 109/109/37 110/110/37 111/111/37
v -0.1124003 2.0880000 0.4986968
v -0.3788573 3.0960000 0.2693210
v -0.2209560 3.0960000 0.3182865
vt 0.2500000 0.5800000
vt 0.3750000 0.8600000
vt 0.2500000 0.8600000
vn 0.2933655 -0.1377248 -0.9460278
f 112/112/38 113/113/38 114/114/38
v -0.4304621 2.0880000 0.4083724
v -0.5914968 2.0880000 0.1195997
v -0.4558865 3.0960000 0.1230440
vt 0.3750000 0.5800000
vt 0.5000000 0.5800000
vt 0.5000000 0.8600000
vn 0.8675778 -0.1150655 -0.4838065
f 115/115/39 116/116/39 117/117/39
v -0.4304621 2.0880000 0.4083724
v -0.4558865 3.0960000 0.1230440
v -0.3788573 3.0960000 0.2693210
vt 0.3750000 0.5800000
vt 0.5000000 0.8600000
vt 0.3750000 0.8600000
vn 0.8795508 -0.1089221 -0.4631699
f 118/118/40 119/119/40 120/120/40
v -0.5914968 2.0880000 0.1195997
v -0.5011724 2.0880000 -0.1984621
v -0.4069210 3.0960000 -0.0348573
vt 0.5000000 0.5800000
vt 0.6250000 0.5800000
vt 0.6250000 0.8600000
vn 0.9534046 -0.1330912 0.2707515
f 121/121/41 122/122/41 123/123/41
v -0.5914968 2.0880000 0.1195997
v -0.4069210 3.0960000 -0.0348573
v -0.4558865 3.0960000 0.1230440
vt 0.5000000 0.5800000
vt 0.6250000 0.8600000
vt 0.5000000 0.8600000
vn 0.9472190 -0.1284368 0.2937349
f 124/124/42 125/125/42 126/126/42
v -0.5011724 2.0880000 -0.1984621
v -0.2123997 2.0880000 -0.3594968
v -0.2606440 3.0960000 -0.1118865
vt 0.6250000 0.5800000
vt 0.7500000 0.5800000
vt 0.7500000 0.8600000
vn 0.4783731 -0.1878272 0.8578345
f 127/127/43 128/128/43 129/129/43
v -0.5011724 2.0880000 -0.1984621
v -0.2606440 3.0960000 -0.1118865
v -0.4069210 3.0960000 -0.0348573
vt 0.6250000 0.5800000
vt 0.7500000 0.8600000
vt 0.6250000 0.8600000
vn 0.4579882 -0.1839830 0.8697109
f 130/130/44 131/131/44 132/132/44
v -0.2123997 2.0880000 -0.3594968
v 0.1056621 2.0880000 -0.2691724
v -0.1027427 3.0960000 -0.0629210
vt 0.7500000 0.5800000
vt 0.8750000 0.5800000
vt 0.8750000 0.8600000
vn -0.2648176 -0.2455562 0.9325094
f 133/133/45 134/134/45 135/135/45
v -0.2123997 2.0880000 -0.3594968
v -0.1027427 3.0960000 -0.0629210
v -0.2606440 3.0960000 -0.1118865
vt 0.7500000 0.5800000
vt 0.8750000 0.8600000
vt 0.7500000 0.8600000
vn -0.2874256 -0.2414384 0.9268732
f 136/136/46 137/137/46 138/138/46
v 0.1056621 2.0880000 -0.2691724
v 0.2666968 2.0880000 0.0196003
v -0.0257135 3.0960000 0.0833560
vt 0.8750000 0.5800000
vt 1.0000000 0.5800000
vt 1.0000000 0.8600000
vn -0.8401180 -0.2733415 0.4684935
f 139/139/47 140/140/47 141/141/47
v 0.1056621 2.0880000 -0.2691724
v -0.0257135 3.0960000 0.0833560
v -0.1027427 3.0960000 -0.0629210
vt 0.8750000 0.5800000
vt 1.0000000 0.8600000
vt 0.8750000 0.8600000
vn -0.8524260 -0.2680883 0.4488860
f 142/142/48 143/143/48 144/144/48
v -0.0257135 3.0960000 0.0833560
v -0.0746790 3.0960000 0.2412573
v -0.2800000 3.6000000 0.1200000
vt 0.0000000 0.8600000
vt 0.1250000 0.8600000
vt 0.0625000 1.0000000
vn -0.8676065 -0.4181780 -0.2690468
f 145/145/49 146/146/49 147/147/49
v 0.0000000 0.0000000 0.0000000
v 0.5091169 0.0000000 0.5091169
v 0.7200000 0.0000000 0.0000000
vt 0.5000000 0.5000000
vt 1.0000000 1.0000000
vt 0.0000000 1.0000000
vn 0.0000000 1.0000000 0.0000000
f 148/148/50 149/149/50 150/150/50
v -0.0746790 3.0960000 0.2412573
v -0.2209560 3.0960000 0.3182865
v -0.2800000 3.6000000 0.1200000
vt 0.1250000 0.8600000
vt 0.2500000 0.8600000
vt 0.1875000 1.0000000
vn -0.4322137 -0.3735444 -0.8207655
f 151/151/51 152/152/51 153/153/51
v 0.0000000 0.0000000 0.0000000
v 0.0000000 0.0000000 0.7200000
v 0.5091169 0.0000000 0.5091169
vt 0.5000000 0.5000000
vt 1.0000000 1.0000000
vt 0.0000000 1.0000000
vn 0.0000000 1.0000000 0.0000000
f 154/154/52 155/155/52 156/156/52
v -0.2209560 3.0960000 0.3182865
v -0.3788573 3.0960000 0.2693210
v -0.2800000 3.6000000 0.1200000
vt 0.2500000 0.8600000
vt 0.3750000 0.8600000
vt 0.3125000 1.0000000
vn 0.2803308 -0.3228136 -0.9039945
f 157/157/53 158/158/53 159/159/53
v 0.0000000 0.0000000 0.0000000
v -0.5091169 0.0000000 0.5091169
v 0.0000000 0.0000000 0.7200000
vt 0.5000000 0.5000000
vt 1.0000000 1.0000000
vt 0.0000000 1.0000000
vn 0.0000000 1.0000000 -0.0000000
f 160/160/54 161/161/54 162/162/54
v -0.3788573 3.0960000 0.2693210
v -0.4558865 3.0960000 0.1230440
v -0.2800000 3.6000000 0.1200000
vt 0.3750000 0.8600000
vt 0.5000000 0.8600000
vt 0.4375000 1.0000000
vn 0.8447550 -0.2974904 -0.4448465
f 163/163/55 164/164/55 165/165/55
v 0.0000000 0.0000000 0.0000000
v -0.7200000 0.0000000 0.0000000
v -0.5091169 0.0000000 0.5091169
vt 0.5000000 0.5000000
vt 1.0000000 1.0000000
vt 0.0000000 1.0000000
vn 0.0000000 1.0000000 0.0000000
f 166/166/56 167/167/56 168/168/56
v -0.4558865 3.0960000 0.1230440
v -0.4069210 3.0960000 -0.0348573
v -0.2800000 3.6000000 0.1200000
vt 0.5000000 0.8600000
vt 0.6250000 0.8600000
vt 0.5625000 1.0000000
vn 0.9066039 -0.3146897 0.2811400
f 169/169/57 170/170/57 171/171/57
v 0.0000000 0.0000000 0.0000000
v -0.5091169 0.0000000 -0.5091169
v -0.7200000 0.0000000 0.0000000
vt 0.5000000 0.5000000
vt 1.0000000 1.0000000
vt 0.0000000 1.0000000
vn 0.0000000 1.0000000 0.0000000
f 172/172/58 173/173/58 174/174/58
v -0.4069210 3.0960000 -0.0348573
v -0.2606440 3.0960000 -0.1118865
v -0.2800000 3.6000000 0.1200000
vt 0.6250000 0.8600000
vt 0.7500000 0.8600000
vt 0.6875000 1.0000000
vn 0.4342143 -0.3626999 0.8245646
f 175/175/59 176/176/59 177/177/59
v 0.0000000 0.0000000 0.0000000
v -0.0000000 0.0000000 -0.7200000
v -0.5091169 0.0000000 -0.5091169
vt 0.5000000 0.5000000
vt 1.0000000 1.0000000
vt 0.0000000 1.0000000
vn 0.0000000 1.0000000 0.0000000
f 178/178/60 179/179/60 180/180/60
v -0.2606440 3.0960000 -0.1118865
v -0.1027427 3.0960000 -0.0629210
v -0.2800000 3.6000000 0.1200000
vt 0.7500000 0.8600000
vt 0.8750000 0.8600000
vt 0.8125000 1.0000000
vn -0.2700170 -0.4109884 0.8707349
f 181/181/61 182/182/61 183/183/61
v 0.0000000 0.0000000 0.0000000
v 0.5091169 0.0000000 -0.5091169
v -0.0000000 0.0000000 -0.7200000
vt 0.5000000 0.5000000
vt 1.0000000 1.0000000
vt 0.0000000 1.0000000
vn 0.0000000 1.0000000 0.0000000
f 184/184/62 185/185/62 186/186/62
v -0.1027427 3.0960000 -0.0629210
v -0.0257135 3.0960000 0.0833560
v -0.2800000 3.6000000 0.1200000
vt 0.8750000 0.8600000
vt 1.0000000 0.8600000
vt 0.9375000 1.0000000
vn -0.7975883 -0.4329499 0.4200086
f 187/187/63 188/188/63 189/189/63
v 0.0000000 0.0000000 0.0000000
v 0.7200000 0.0000000 0.0000000
v 0.5091169 0.0000000 -0.5091169
vt 0.5000000 0.5000000
vt 1.0000000 1.0000000
vt 0.0000000 1.0000000
vn -0.0000000 1.0000000 0.0000000
f 190/190/64 191/191/64 192/192/64
