mtllib ice_crystal.mtl
o progressive_ice_crystal
usemtl ice_crystal
# Complete faceted crystal; origin is fixed at the ground contact.
v 0.5200000 0.0000000 0.0000000
v 0.3676955 0.0000000 0.3676955
v 0.3187474 0.5760000 0.3634120
vt 0.0000000 0.0000000
vt 0.1250000 0.0000000
vt 0.1250000 0.1200000
vn -0.9208371 -0.0810887 -0.3814232
f 1/1/1 2/2/1 3/3/1
v 0.5200000 0.0000000 0.0000000
v 0.3187474 0.5760000 0.3634120
v 0.4947713 0.5760000 0.0423473
vt 0.0000000 0.0000000
vt 0.1250000 0.1200000
vt 0.0000000 0.1200000
vn -0.8768588 -0.0030626 -0.4807383
f 4/4/2 5/5/2 6/6/2
v 0.3676955 0.0000000 0.3676955
v 0.0000000 0.0000000 0.5200000
v -0.0327473 0.5760000 0.4659713
vt 0.1250000 0.0000000
vt 0.2500000 0.0000000
vt 0.2500000 0.1200000
vn -0.3804540 -0.1077848 -0.9184972
f 7/7/3 8/8/3 9/9/3
v 0.3676955 0.0000000 0.3676955
v -0.0327473 0.5760000 0.4659713
v 0.3187474 0.5760000 0.3634120
vt 0.1250000 0.0000000
vt 0.2500000 0.1200000
vt 0.1250000 0.1200000
vn -0.2799668 -0.0309271 -0.9595114
f 10/10/4 11/11/4 12/12/4
v 0.0000000 0.0000000 0.5200000
v -0.3676955 0.0000000 0.3676955
v -0.3538120 0.5760000 0.2899474
vt 0.2500000 0.0000000
vt 0.3750000 0.0000000
vt 0.3750000 0.1200000
vn 0.3792968 -0.1327435 -0.9157036
f 13/13/5 14/14/5 15/15/5
v 0.0000000 0.0000000 0.5200000
v -0.3538120 0.5760000 0.2899474
v -0.0327473 0.5760000 0.4659713
vt 0.2500000 0.0000000
vt 0.3750000 0.1200000
vt 0.2500000 0.1200000
vn 0.4800172 -0.0548355 -0.8755436
f 16/16/6 17/17/6 18/18/6
v -0.3676955 0.0000000 0.3676955
v -0.5200000 0.0000000 0.0000000
v -0.4563713 0.5760000 -0.0615473
vt 0.3750000 0.0000000
vt 0.5000000 0.0000000
vt 0.5000000 0.1200000
vn 0.9145824 -0.1415101 -0.3788324
f 19/19/7 20/20/7 21/21/7
v -0.3676955 0.0000000 0.3676955
v -0.4563713 0.5760000 -0.0615473
v -0.3538120 0.5760000 0.2899474
vt 0.3750000 0.0000000
vt 0.5000000 0.1200000
vt 0.3750000 0.1200000
vn 0.9581927 -0.0608335 -0.2795820
f 22/22/8 23/23/8 24/24/8
v -0.5200000 0.0000000 0.0000000
v -0.3676955 0.0000000 -0.3676955
v -0.2803474 0.5760000 -0.3826120
vt 0.5000000 0.0000000
vt 0.6250000 0.0000000
vt 0.6250000 0.1200000
vn 0.9161478 -0.1291029 0.3794808
f 25/25/9 26/26/9 27/27/9
v -0.5200000 0.0000000 0.0000000
v -0.2803474 0.5760000 -0.3826120
v -0.4563713 0.5760000 -0.0615473
vt 0.5000000 0.0000000
vt 0.6250000 0.1200000
vt 0.5000000 0.1200000
vn 0.8759568 -0.0454485 0.4802438
f 28/28/10 29/29/10 30/30/10
v -0.3676955 0.0000000 -0.3676955
v -0.0000000 0.0000000 -0.5200000
v 0.0711473 0.5760000 -0.4851713
vt 0.6250000 0.0000000
vt 0.7500000 0.0000000
vt 0.7500000 0.1200000
vn 0.3806643 -0.1025886 0.9190050
f 31/31/11 32/32/11 33/33/11
v -0.3676955 0.0000000 -0.3676955
v 0.0711473 0.5760000 -0.4851713
v -0.2803474 0.5760000 -0.3826120
vt 0.6250000 0.0000000
vt 0.7500000 0.1200000
vt 0.6250000 0.1200000
vn 0.2800573 -0.0176135 0.9598217
f 34/34/12 35/35/12 36/36/12
v -0.0000000 0.0000000 -0.5200000
v 0.3676955 0.0000000 -0.3676955
v 0.3922120 0.5760000 -0.3091474
vt 0.7500000 0.0000000
vt 0.8750000 0.0000000
vt 0.8750000 0.1200000
vn -0.3815358 -0.0773877 0.9211089
f 37/37/13 38/38/13 39/39/13
v -0.0000000 0.0000000 -0.5200000
v 0.3922120 0.5760000 -0.3091474
v 0.0711473 0.5760000 -0.4851713
vt 0.7500000 0.0000000
vt 0.8750000 0.1200000
vt 0.7500000 0.1200000
vn -0.4807308 0.0063599 0.8768451
f 40/40/14 41/41/14 42/42/14
v 0.3676955 0.0000000 -0.3676955
v 0.5200000 0.0000000 0.0000000
v 0.4947713 0.5760000 0.0423473
vt 0.8750000 0.0000000
vt 1.0000000 0.0000000
vt 1.0000000 0.1200000
vn -0.9217133 -0.0684397 0.3817861
f 43/43/15 44/44/15 45/45/15
v 0.3676955 0.0000000 -0.3676955
v 0.4947713 0.5760000 0.0423473
v 0.3922120 0.5760000 -0.3091474
vt 0.8750000 0.0000000
vt 1.0000000 0.1200000
vt 0.8750000 0.1200000
vn -0.9598969 0.0123874 0.2800793
f 46/46/16 47/47/16 48/48/16
v 0.4947713 0.5760000 0.0423473
v 0.3187474 0.5760000 0.3634120
v 0.2806725 2.7840000 0.2026942
vt 0.0000000 0.1200000
vt 0.1250000 0.1200000
vt 0.1250000 0.5800000
vn -0.8757639 -0.0500504 -0.4801381
f 49/49/17 50/50/17 51/51/17
v 0.4947713 0.5760000 0.0423473
v 0.2806725 2.7840000 0.2026942
v 0.4017821 2.7840000 -0.0031097
vt 0.0000000 0.1200000
vt 0.1250000 0.5800000
vt 0.0000000 0.5800000
vn -0.8609057 -0.0466867 -0.5066179
f 52/52/18 53/53/18 54/54/18
v 0.3187474 0.5760000 0.3634120
v -0.0327473 0.5760000 0.4659713
v 0.0495097 2.7840000 0.2625821
vt 0.1250000 0.1200000
vt 0.2500000 0.1200000
vt 0.2500000 0.5800000
vn -0.2792527 -0.0777563 -0.9570642
f 55/55/19 56/56/19 57/57/19
v 0.3187474 0.5760000 0.3634120
v 0.0495097 2.7840000 0.2625821
v 0.2806725 2.7840000 0.2026942
vt 0.1250000 0.1200000
vt 0.2500000 0.5800000
vt 0.1250000 0.5800000
vn -0.2500943 -0.0745790 -0.9653449
f 58/58/20 59/59/20 60/60/20
v -0.0327473 0.5760000 0.4659713
v -0.3538120 0.5760000 0.2899474
v -0.1562942 2.7840000 0.1414725
vt 0.2500000 0.1200000
vt 0.3750000 0.1200000
vt 0.3750000 0.5800000
vn 0.4782606 -0.1014427 -0.8723395
f 61/61/21 62/62/21 63/63/21
v -0.0327473 0.5760000 0.4659713
v -0.1562942 2.7840000 0.1414725
v 0.0495097 2.7840000 0.2625821
vt 0.2500000 0.1200000
vt 0.3750000 0.5800000
vt 0.2500000 0.5800000
vn 0.5047391 -0.0978115 -0.8577129
f 64/64/22 65/65/22 66/66/22
v -0.3538120 0.5760000 0.2899474
v -0.4563713 0.5760000 -0.0615473
v -0.2161821 2.7840000 -0.0896903
vt 0.3750000 0.1200000
vt 0.5000000 0.1200000
vt 0.5000000 0.5800000
vn 0.9544209 -0.1073727 -0.2784815
f 67/67/23 68/68/23 69/69/23
v -0.3538120 0.5760000 0.2899474
v -0.2161821 2.7840000 -0.0896903
v -0.1562942 2.7840000 0.1414725
vt 0.3750000 0.1200000
vt 0.5000000 0.5800000
vt 0.3750000 0.5800000
vn 0.9629010 -0.1029116 -0.2494612
f 70/70/24 71/71/24 72/72/24
v -0.4563713 0.5760000 -0.0615473
v -0.2803474 0.5760000 -0.3826120
v -0.0950725 2.7840000 -0.2954942
vt 0.5000000 0.1200000
vt 0.6250000 0.1200000
vt 0.6250000 0.5800000
vn 0.8731318 -0.0921523 0.4786950
f 73/73/25 74/74/25 75/75/25
v -0.4563713 0.5760000 -0.0615473
v -0.0950725 2.7840000 -0.2954942
v -0.2161821 2.7840000 -0.0896903
vt 0.5000000 0.1200000
vt 0.6250000 0.5800000
vt 0.5000000 0.5800000
vn 0.8585808 -0.0869577 0.5052498
f 76/76/26 77/77/26 78/78/26
v -0.2803474 0.5760000 -0.3826120
v 0.0711473 0.5760000 -0.4851713
v 0.1360903 2.7840000 -0.3553821
vt 0.6250000 0.1200000
vt 0.7500000 0.1200000
vt 0.7500000 0.5800000
vn 0.2795169 -0.0645320 0.9579697
f 79/79/27 80/80/27 81/81/27
v -0.2803474 0.5760000 -0.3826120
v 0.1360903 2.7840000 -0.3553821
v -0.0950725 2.7840000 -0.2954942
vt 0.6250000 0.1200000
vt 0.7500000 0.5800000
vt 0.6250000 0.5800000
vn 0.2503539 -0.0591351 0.9663467
f 82/82/28 83/83/28 84/84/28
v 0.0711473 0.5760000 -0.4851713
v 0.3922120 0.5760000 -0.3091474
v 0.3418942 2.7840000 -0.2342725
vt 0.7500000 0.1200000
vt 0.8750000 0.1200000
vt 0.8750000 0.5800000
vn -0.4803431 -0.0406569 0.8761379
f 85/85/29 86/86/29 87/87/29
v 0.0711473 0.5760000 -0.4851713
v 0.3418942 2.7840000 -0.2342725
v 0.1360903 2.7840000 -0.3553821
vt 0.7500000 0.1200000
vt 0.8750000 0.5800000
vt 0.7500000 0.5800000
vn -0.5068473 -0.0357204 0.8612955
f 88/88/30 89/89/30 90/90/30
v 0.3922120 0.5760000 -0.3091474
v 0.4947713 0.5760000 0.0423473
v 0.4017821 2.7840000 -0.0031097
vt 0.8750000 0.1200000
vt 1.0000000 0.1200000
vt 1.0000000 0.5800000
vn -0.9593944 -0.0346415 0.2799327
f 91/91/31 92/92/31 93/93/31
v 0.3922120 0.5760000 -0.3091474
v 0.4017821 2.7840000 -0.0031097
v 0.3418942 2.7840000 -0.2342725
vt 0.8750000 0.1200000
vt 1.0000000 0.5800000
vt 0.8750000 0.5800000
vn -0.9675889 -0.0305508 0.2506757
f 94/94/32 95/95/32 96/96/32
v 0.4017821 2.7840000 -0.0031097
v 0.2806725 2.7840000 0.2026942
v 0.2122532 4.1280000 0.0681777
vt 0.0000000 0.5800000
vt 0.1250000 0.5800000
vt 0.1250000 0.8600000
vn -0.8580119 -0.0942143 -0.5049150
f 97/97/33 98/98/33 99/99/33
v 0.4017821 2.7840000 -0.0031097
v 0.2122532 4.1280000 0.0681777
v 0.2872457 4.1280000 -0.0247299
vt 0.0000000 0.5800000
vt 0.1250000 0.8600000
vt 0.0000000 0.8600000
vn -0.7758768 -0.0761951 -0.6262663
f 100/100/34 101/101/34 102/102/34
v 0.2806725 2.7840000 0.2026942
v 0.0495097 2.7840000 0.2625821
v 0.0935299 4.1280000 0.0808457
vt 0.1250000 0.5800000
vt 0.2500000 0.5800000
vt 0.2500000 0.8600000
vn -0.2489264 -0.1217718 -0.9608368
f 103/103/35 104/104/35 105/105/35
v 0.2806725 2.7840000 0.2026942
v 0.0935299 4.1280000 0.0808457
v 0.2122532 4.1280000 0.0681777
vt 0.1250000 0.5800000
vt 0.2500000 0.8600000
vt 0.1250000 0.8600000
vn -0.1055198 -0.1043501 -0.9889270
f 106/106/36 107/107/36 108/108/36
v 0.0495097 2.7840000 0.2625821
v -0.1562942 2.7840000 0.1414725
v 0.0006223 4.1280000 0.0058532
vt 0.2500000 0.5800000
vt 0.3750000 0.5800000
vt 0.3750000 0.8600000
vn 0.5018375 -0.1446431 -0.8527822
f 109/109/37 110/110/37 111/111/37
v 0.0495097 2.7840000 0.2625821
v 0.0006223 4.1280000 0.0058532
v 0.0935299 4.1280000 0.0808457
vt 0.2500000 0.5800000
vt 0.3750000 0.8600000
vt 0.2500000 0.8600000
vn 0.6231811 -0.1248088 -0.7720545
f 112/112/38 113/113/38 114/114/38
v -0.1562942 2.7840000 0.1414725
v -0.2161821 2.7840000 -0.0896903
v -0.0120457 4.1280000 -0.1128701
vt 0.3750000 0.5800000
vt 0.5000000 0.5800000
vt 0.5000000 0.8600000
vn 0.9571392 -0.1496539 -0.2479684
f 115/115/39 116/116/39 117/117/39
v -0.1562942 2.7840000 0.1414725
v -0.0120457 4.1280000 -0.1128701
v 0.0006223 4.1280000 0.0058532
vt 0.3750000 0.5800000
vt 0.5000000 0.8600000
vt 0.3750000 0.8600000
vn 0.9864569 -0.1257932 -0.1052562
f 118/118/40 119/119/40 120/120/40
v -0.2161821 2.7840000 -0.0896903
v -0.0950725 2.7840000 -0.2954942
v 0.0629468 4.1280000 -0.2057777
vt 0.5000000 0.5800000
vt 0.6250000 0.5800000
vt 0.6250000 0.8600000
vn 0.8540766 -0.1339673 0.5025992
f 121/121/41 122/122/41 123/123/41
v -0.2161821 2.7840000 -0.0896903
v 0.0629468 4.1280000 -0.2057777
v -0.0120457 4.1280000 -0.1128701
vt 0.5000000 0.5800000
vt 0.6250000 0.8600000
vt 0.5000000 0.8600000
vn 0.7736931 -0.1067434 0.6245037
f 124/124/42 125/125/42 126/126/42
v -0.0950725 2.7840000 -0.2954942
v 0.1360903 2.7840000 -0.3553821
v 0.1816701 4.1280000 -0.2184457
vt 0.6250000 0.5800000
vt 0.7500000 0.5800000
vt 0.7500000 0.8600000
vn 0.2493657 -0.1065267 0.9625325
f 127/127/43 128/128/43 129/129/43
v -0.0950725 2.7840000 -0.2954942
v 0.1816701 4.1280000 -0.2184457
v 0.0629468 4.1280000 -0.2057777
vt 0.6250000 0.5800000
vt 0.7500000 0.8600000
vt 0.6250000 0.8600000
vn 0.1057707 -0.0786070 0.9912787
f 130/130/44 131/131/44 132/132/44
v 0.1360903 2.7840000 -0.3553821
v 0.3418942 2.7840000 -0.2342725
v 0.2745777 4.1280000 -0.1434532
vt 0.7500000 0.5800000
vt 0.8750000 0.5800000
vt 0.8750000 0.8600000
vn -0.5054062 -0.0833497 0.8588466
f 133/133/45 134/134/45 135/135/45
v 0.1360903 2.7840000 -0.3553821
v 0.2745777 4.1280000 -0.1434532
v 0.1816701 4.1280000 -0.2184457
vt 0.7500000 0.5800000
vt 0.8750000 0.8600000
vt 0.7500000 0.8600000
vn -0.6270391 -0.0578844 0.7768342
f 136/136/46 137/137/46 138/138/46
v 0.3418942 2.7840000 -0.2342725
v 0.4017821 2.7840000 -0.0031097
v 0.2872457 4.1280000 -0.0247299
vt 0.8750000 0.5800000
vt 1.0000000 0.5800000
vt 1.0000000 0.8600000
vn -0.9650747 -0.0782222 0.2500243
f 139/139/47 140/140/47 141/141/47
v 0.3418942 2.7840000 -0.2342725
v 0.2872457 4.1280000 -0.0247299
v 0.2745777 4.1280000 -0.1434532
vt 0.8750000 0.5800000
vt 1.0000000 0.8600000
vt 0.8750000 0.8600000
vn -0.9927457 -0.0568812 0.1059272
f 142/142/48 143/143/48 144/144/48
v 0.2872457 4.1280000 -0.0247299
v 0.2122532 4.1280000 0.0681777
v 0.1600000 4.8000000 -0.0800000
vt 0.0000000 0.8600000
vt 0.1250000 0.8600000
vt 0.0625000 1.0000000
vn -0.7631740 -0.1951751 -0.6160130
f 145/145/49 146/146/49 147/147/49
v 0.0000000 0.0000000 0.0000000
v 0.3676955 0.0000000 0.3676955
v 0.5200000 0.0000000 0.0000000
vt 0.5000000 0.5000000
vt 1.0000000 1.0000000
vt 0.0000000 1.0000000
vn 0.0000000 1.0000000 0.0000000
f 148/148/50 149/149/50 150/150/50
v 0.2122532 4.1280000 0.0681777
v 0.0935299 4.1280000 0.0808457
v 0.1600000 4.8000000 -0.0800000
vt 0.1250000 0.8600000
vt 0.2500000 0.8600000
vt 0.1875000 1.0000000
vn -0.1034554 -0.2218392 -0.9695795
f 151/151/51 152/152/51 153/153/51
v 0.0000000 0.0000000 0.0000000
v 0.0000000 0.0000000 0.5200000
v 0.3676955 0.0000000 0.3676955
vt 0.5000000 0.5000000
vt 1.0000000 1.0000000
vt 0.0000000 1.0000000
vn 0.0000000 1.0000000 0.0000000
f 154/154/52 155/155/52 156/156/52
v 0.0935299 4.1280000 0.0808457
v 0.0006223 4.1280000 0.0058532
v 0.1600000 4.8000000 -0.0800000
vt 0.2500000 0.8600000
vt 0.3750000 0.8600000
vt 0.3125000 1.0000000
vn 0.6095710 -0.2410532 -0.7551931
f 157/157/53 158/158/53 159/159/53
v 0.0000000 0.0000000 0.0000000
v -0.3676955 0.0000000 0.3676955
v 0.0000000 0.0000000 0.5200000
vt 0.5000000 0.5000000
vt 1.0000000 1.0000000
vt 0.0000000 1.0000000
vn 0.0000000 1.0000000 -0.0000000
f 160/160/54 161/161/54 162/162/54
v 0.0006223 4.1280000 0.0058532
v -0.0120457 4.1280000 -0.1128701
v 0.1600000 4.8000000 -0.0800000
vt 0.3750000 0.8600000
vt 0.5000000 0.8600000
vt 0.4375000 1.0000000
vn 0.9648059 -0.2419745 -0.1029460
f 163/163/55 164/164/55 165/165/55
v 0.0000000 0.0000000 0.0000000
v -0.5200000 0.0000000 0.0000000
v -0.3676955 0.0000000 0.3676955
vt 0.5000000 0.5000000
vt 1.0000000 1.0000000
vt 0.0000000 1.0000000
vn 0.0000000 1.0000000 0.0000000
f 166/166/56 167/167/56 168/168/56
v -0.0120457 4.1280000 -0.1128701
v 0.0629468 4.1280000 -0.2057777
v 0.1600000 4.8000000 -0.0800000
vt 0.5000000 0.8600000
vt 0.6250000 0.8600000
vt 0.5625000 1.0000000
vn 0.7583489 -0.2240938 0.6121183
f 169/169/57 170/170/57 171/171/57
v 0.0000000 0.0000000 0.0000000
v -0.3676955 0.0000000 -0.3676955
v -0.5200000 0.0000000 0.0000000
vt 0.5000000 0.5000000
vt 1.0000000 1.0000000
vt 0.0000000 1.0000000
vn 0.0000000 1.0000000 0.0000000
f 172/172/58 173/173/58 174/174/58
v 0.0629468 4.1280000 -0.2057777
v 0.1816701 4.1280000 -0.2184457
v 0.1600000 4.8000000 -0.0800000
vt 0.6250000 0.8600000
vt 0.7500000 0.8600000
vt 0.6875000 1.0000000
vn 0.1040098 -0.1974696 0.9747757
f 175/175/59 176/176/59 177/177/59
v 0.0000000 0.0000000 0.0000000
v -0.0000000 0.0000000 -0.5200000
v -0.3676955 0.0000000 -0.3676955
vt 0.5000000 0.5000000
vt 1.0000000 1.0000000
vt 0.0000000 1.0000000
vn 0.0000000 1.0000000 0.0000000
f 178/178/60 179/179/60 180/180/60
v 0.1816701 4.1280000 -0.2184457
v 0.2745777 4.1280000 -0.1434532
v 0.1600000 4.8000000 -0.0800000
vt 0.7500000 0.8600000
vt 0.8750000 0.8600000
vt 0.8125000 1.0000000
vn -0.6180967 -0.1776931 0.7657556
f 181/181/61 182/182/61 183/183/61
v 0.0000000 0.0000000 0.0000000
v 0.3676955 0.0000000 -0.3676955
v -0.0000000 0.0000000 -0.5200000
vt 0.5000000 0.5000000
vt 1.0000000 1.0000000
vt 0.0000000 1.0000000
vn 0.0000000 1.0000000 0.0000000
f 184/184/62 185/185/62 186/186/62
v 0.2745777 4.1280000 -0.1434532
v 0.2872457 4.1280000 -0.0247299
v 0.1600000 4.8000000 -0.0800000
vt 0.8750000 0.8600000
vt 1.0000000 0.8600000
vt 0.9375000 1.0000000
vn -0.9787034 -0.1767321 0.1044289
f 187/187/63 188/188/63 189/189/63
v 0.0000000 0.0000000 0.0000000
v 0.5200000 0.0000000 0.0000000
v 0.3676955 0.0000000 -0.3676955
vt 0.5000000 0.5000000
vt 1.0000000 1.0000000
vt 0.0000000 1.0000000
vn -0.0000000 1.0000000 0.0000000
f 190/190/64 191/191/64 192/192/64
