mtllib ice_crystal.mtl
o progressive_ice_crystal
usemtl ice_crystal
# Complete faceted crystal; origin is fixed at the ground contact.
v 0.6200000 0.0000000 0.0000000
v 0.4384062 0.0000000 0.4384062
v 0.3398057 0.4920000 0.4052959
vt 0.0000000 0.0000000
vt 0.1250000 0.0000000
vt 0.1250000 0.1200000
vn -0.9039929 -0.2063662 -0.3744461
f 1/1/1 2/2/1 3/3/1
v 0.6200000 0.0000000 0.0000000
v 0.3398057 0.4920000 0.4052959
v 0.5459958 0.4920000 0.0204909
vt 0.0000000 0.0000000
vt 0.1250000 0.1200000
vt 0.0000000 0.1200000
vn -0.8758720 -0.1121981 -0.4693185
f 4/4/2 5/5/2 6/6/2
v 0.4384062 0.0000000 0.4384062
v 0.0000000 0.0000000 0.6200000
v -0.0780909 0.4920000 0.5315958
vt 0.1250000 0.0000000
vt 0.2500000 0.0000000
vt 0.2500000 0.1200000
vn -0.3732096 -0.2211325 -0.9010078
f 7/7/3 8/8/3 9/9/3
v 0.4384062 0.0000000 0.4384062
v -0.0780909 0.4920000 0.5315958
v 0.3398057 0.4920000 0.4052959
vt 0.1250000 0.0000000
vt 0.2500000 0.1200000
vt 0.1250000 0.1200000
vn -0.2871604 -0.1214915 -0.9501467
f 10/10/4 11/11/4 12/12/4
v 0.0000000 0.0000000 0.6200000
v -0.4384062 0.0000000 0.4384062
v -0.4628959 0.4920000 0.3254057
vt 0.2500000 0.0000000
vt 0.3750000 0.0000000
vt 0.3750000 0.1200000
vn 0.3757392 -0.1896396 -0.9071146
f 13/13/5 14/14/5 15/15/5
v 0.0000000 0.0000000 0.6200000
v -0.4628959 0.4920000 0.3254057
v -0.0780909 0.4920000 0.5315958
vt 0.2500000 0.0000000
vt 0.3750000 0.1200000
vt 0.2500000 0.1200000
vn 0.4706660 -0.0831268 -0.8783868
f 16/16/6 17/17/6 18/18/6
v -0.4384062 0.0000000 0.4384062
v -0.6200000 0.0000000 0.0000000
v -0.5891958 0.4920000 -0.0924909
vt 0.3750000 0.0000000
vt 0.5000000 0.0000000
vt 0.5000000 0.1200000
vn 0.9161955 -0.1287054 -0.3795006
f 19/19/7 20/20/7 21/21/7
v -0.4384062 0.0000000 0.4384062
v -0.5891958 0.4920000 -0.0924909
v -0.4628959 0.4920000 0.3254057
vt 0.3750000 0.0000000
vt 0.5000000 0.1200000
vt 0.3750000 0.1200000
vn 0.9570683 -0.0187954 -0.2892523
f 22/22/8 23/23/8 24/24/8
v -0.6200000 0.0000000 0.0000000
v -0.4384062 0.0000000 -0.4384062
v -0.3830057 0.4920000 -0.4772959
vt 0.5000000 0.0000000
vt 0.6250000 0.0000000
vt 0.6250000 0.1200000
vn 0.9213750 -0.0735824 0.3816460
f 25/25/9 26/26/9 27/27/9
v -0.6200000 0.0000000 0.0000000
v -0.3830057 0.4920000 -0.4772959
v -0.5891958 0.4920000 -0.0924909
vt 0.5000000 0.0000000
vt 0.6250000 0.1200000
vt 0.5000000 0.1200000
vn 0.8809404 0.0335817 0.4720343
f 28/28/10 29/29/10 30/30/10
v -0.4384062 0.0000000 -0.4384062
v -0.0000000 0.0000000 -0.6200000
v 0.0348909 0.4920000 -0.6035958
vt 0.6250000 0.0000000
vt 0.7500000 0.0000000
vt 0.7500000 0.1200000
vn 0.3820426 -0.0578455 0.9223325
f 31/31/11 32/32/11 33/33/11
v -0.4384062 0.0000000 -0.4384062
v 0.0348909 0.4920000 -0.6035958
v -0.3830057 0.4920000 -0.4772959
vt 0.6250000 0.0000000
vt 0.7500000 0.1200000
vt 0.6250000 0.1200000
vn 0.2890353 0.0430477 0.9563501
f 34/34/12 35/35/12 36/36/12
v -0.0000000 0.0000000 -0.6200000
v 0.4384062 0.0000000 -0.4384062
v 0.4196959 0.4920000 -0.3974057
vt 0.7500000 0.0000000
vt 0.8750000 0.0000000
vt 0.8750000 0.1200000
vn -0.3810899 -0.0911628 0.9200325
f 37/37/13 38/38/13 39/39/13
v -0.0000000 0.0000000 -0.6200000
v 0.4196959 0.4920000 -0.3974057
v 0.0348909 0.4920000 -0.6035958
vt 0.7500000 0.0000000
vt 0.8750000 0.1200000
vt 0.7500000 0.1200000
vn -0.4722967 0.0041050 0.8814301
f 40/40/14 41/41/14 42/42/14
v 0.4384062 0.0000000 -0.4384062
v 0.6200000 0.0000000 0.0000000
v 0.5459958 0.4920000 0.0204909
vt 0.8750000 0.0000000
vt 1.0000000 0.0000000
vt 1.0000000 0.1200000
vn -0.9129908 -0.1530779 0.3781732
f 43/43/15 44/44/15 45/45/15
v 0.4384062 0.0000000 -0.4384062
v 0.5459958 0.4920000 0.0204909
v 0.4196959 0.4920000 -0.3974057
vt 0.8750000 0.0000000
vt 1.0000000 0.1200000
vt 0.8750000 0.1200000
vn -0.9554897 -0.0604013 0.2887752
f 46/46/16 47/47/16 48/48/16
v 0.5459958 0.4920000 0.0204909
v 0.3398057 0.4920000 0.4052959
v 0.1331365 2.3780000 0.1122873
vt 0.0000000 0.1200000
vt 0.1250000 0.1200000
vt 0.1250000 0.5800000
vn -0.8689753 -0.1675620 -0.4656231
f 49/49/17 50/50/17 51/51/17
v 0.5459958 0.4920000 0.0204909
v 0.1331365 2.3780000 0.1122873
v 0.2659993 2.3780000 -0.1395279
vt 0.0000000 0.1200000
vt 0.1250000 0.5800000
vt 0.0000000 0.5800000
vn -0.8718028 -0.1684556 -0.4599810
f 52/52/18 53/53/18 54/54/18
v 0.3398057 0.4920000 0.4052959
v -0.0780909 0.4920000 0.5315958
v -0.1388721 2.3780000 0.1963993
vt 0.1250000 0.1200000
vt 0.2500000 0.1200000
vt 0.2500000 0.5800000
vn -0.2847548 -0.1766307 -0.9421870
f 55/55/19 56/56/19 57/57/19
v 0.3398057 0.4920000 0.4052959
v -0.1388721 2.3780000 0.1963993
v 0.1331365 2.3780000 0.1122873
vt 0.1250000 0.1200000
vt 0.2500000 0.5800000
vt 0.1250000 0.5800000
vn -0.2907106 -0.1779138 -0.9401245
f 58/58/20 59/59/20 60/60/20
v -0.0780909 0.4920000 0.5315958
v -0.4628959 0.4920000 0.3254057
v -0.3906873 2.3780000 0.0635365
vt 0.2500000 0.1200000
vt 0.3750000 0.1200000
vt 0.3750000 0.5800000
vn 0.4677089 -0.1391039 -0.8728680
f 61/61/21 62/62/21 63/63/21
v -0.0780909 0.4920000 0.5315958
v -0.3906873 2.3780000 0.0635365
v -0.1388721 2.3780000 0.1963993
vt 0.2500000 0.1200000
vt 0.3750000 0.5800000
vt 0.2500000 0.5800000
vn 0.4620053 -0.1407370 -0.8756393
f 64/64/22 65/65/22 66/66/22
v -0.4628959 0.4920000 0.3254057
v -0.5891958 0.4920000 -0.0924909
v -0.4747993 2.3780000 -0.2084721
vt 0.3750000 0.1200000
vt 0.5000000 0.1200000
vt 0.5000000 0.5800000
vn 0.9544955 -0.0756355 -0.2884747
f 67/67/23 68/68/23 69/69/23
v -0.4628959 0.4920000 0.3254057
v -0.4747993 2.3780000 -0.2084721
v -0.3906873 2.3780000 0.0635365
vt 0.3750000 0.1200000
vt 0.5000000 0.5800000
vt 0.3750000 0.5800000
vn 0.9525030 -0.0773645 -0.2945384
f 70/70/24 71/71/24 72/72/24
v -0.5891958 0.4920000 -0.0924909
v -0.3830057 0.4920000 -0.4772959
v -0.3419365 2.3780000 -0.4602873
vt 0.5000000 0.1200000
vt 0.6250000 0.1200000
vt 0.6250000 0.5800000
vn 0.8811952 -0.0234470 0.4721708
f 73/73/25 74/74/25 75/75/25
v -0.5891958 0.4920000 -0.0924909
v -0.3419365 2.3780000 -0.4602873
v -0.4747993 2.3780000 -0.2084721
vt 0.5000000 0.1200000
vt 0.6250000 0.5800000
vt 0.5000000 0.5800000
vn 0.8841670 -0.0249416 0.4665047
f 76/76/26 77/77/26 78/78/26
v -0.3830057 0.4920000 -0.4772959
v 0.0348909 0.4920000 -0.6035958
v -0.0699279 2.3780000 -0.5443993
vt 0.6250000 0.1200000
vt 0.7500000 0.1200000
vt 0.7500000 0.5800000
vn 0.2892752 -0.0139650 0.9571441
f 79/79/27 80/80/27 81/81/27
v -0.3830057 0.4920000 -0.4772959
v -0.0699279 2.3780000 -0.5443993
v -0.3419365 2.3780000 -0.4602873
vt 0.6250000 0.1200000
vt 0.7500000 0.5800000
vt 0.6250000 0.5800000
vn 0.2953903 -0.0150472 0.9552581
f 82/82/28 83/83/28 84/84/28
v 0.0348909 0.4920000 -0.6035958
v 0.4196959 0.4920000 -0.3974057
v 0.1818873 2.3780000 -0.4115365
vt 0.7500000 0.1200000
vt 0.8750000 0.1200000
vt 0.8750000 0.5800000
vn -0.4716400 -0.0528749 0.8802045
f 85/85/29 86/86/29 87/87/29
v 0.0348909 0.4920000 -0.6035958
v 0.1818873 2.3780000 -0.4115365
v -0.0699279 2.3780000 -0.5443993
vt 0.7500000 0.1200000
vt 0.8750000 0.5800000
vt 0.7500000 0.5800000
vn -0.4659786 -0.0536181 0.8831699
f 88/88/30 89/89/30 90/90/30
v 0.4196959 0.4920000 -0.3974057
v 0.5459958 0.4920000 0.0204909
v 0.2659993 2.3780000 -0.1395279
vt 0.8750000 0.1200000
vt 1.0000000 0.1200000
vt 1.0000000 0.5800000
vn -0.9506899 -0.1167616 0.2873246
f 91/91/31 92/92/31 93/93/31
v 0.4196959 0.4920000 -0.3974057
v 0.2659993 2.3780000 -0.1395279
v 0.1818873 2.3780000 -0.4115365
vt 0.8750000 0.1200000
vt 1.0000000 0.5800000
vt 0.8750000 0.5800000
vn -0.9487561 -0.1174320 0.2933797
f 94/94/32 95/95/32 96/96/32
v 0.2659993 2.3780000 -0.1395279
v 0.1331365 2.3780000 0.1122873
v -0.0547735 3.5260000 -0.1011858
vt 0.0000000 0.5800000
vt 0.1250000 0.5800000
vt 0.1250000 0.8600000
vn -0.8616461 -0.2255762 -0.4546222
f 97/97/33 98/98/33 99/99/33
v 0.2659993 2.3780000 -0.1395279
v -0.0547735 3.5260000 -0.1011858
v 0.0268138 3.5260000 -0.2178450
vt 0.0000000 0.5800000
vt 0.1250000 0.8600000
vt 0.0000000 0.8600000
vn -0.8020102 -0.2053633 -0.5608971
f 100/100/34 101/101/34 102/102/34
v 0.1331365 2.3780000 0.1122873
v -0.1388721 2.3780000 0.1963993
v -0.1949550 3.5260000 -0.0763862
vt 0.1250000 0.5800000
vt 0.2500000 0.5800000
vt 0.2500000 0.8600000
vn -0.2871719 -0.2347004 -0.9286808
f 103/103/35 104/104/35 105/105/35
v 0.1331365 2.3780000 0.1122873
v -0.1949550 3.5260000 -0.0763862
v -0.0547735 3.5260000 -0.1011858
vt 0.1250000 0.5800000
vt 0.2500000 0.8600000
vt 0.1250000 0.8600000
vn -0.1704312 -0.2070384 -0.9633734
f 106/106/36 107/107/36 108/108/36
v -0.1388721 2.3780000 0.1963993
v -0.3906873 2.3780000 0.0635365
v -0.3116142 3.5260000 -0.1579735
vt 0.2500000 0.5800000
vt 0.3750000 0.5800000
vt 0.3750000 0.8600000
vn 0.4573401 -0.1987522 -0.8667973
f 109/109/37 110/110/37 111/111/37
v -0.1388721 2.3780000 0.1963993
v -0.3116142 3.5260000 -0.1579735
v -0.1949550 3.5260000 -0.0763862
vt 0.2500000 0.5800000
vt 0.3750000 0.8600000
vt 0.2500000 0.8600000
vn 0.5653095 -0.1644544 -0.8083192
f 112/112/38 113/113/38 114/114/38
v -0.3906873 2.3780000 0.0635365
v -0.4747993 2.3780000 -0.2084721
v -0.3364138 3.5260000 -0.2981550
vt 0.3750000 0.5800000
vt 0.5000000 0.5800000
vt 0.5000000 0.8600000
vn 0.9463660 -0.1369410 -0.2926407
f 115/115/39 116/116/39 117/117/39
v -0.3906873 2.3780000 0.0635365
v -0.3364138 3.5260000 -0.2981550
v -0.3116142 3.5260000 -0.1579735
vt 0.3750000 0.5800000
vt 0.5000000 0.8600000
vt 0.3750000 0.8600000
vn 0.9796818 -0.1009214 -0.1733163
f 118/118/40 119/119/40 120/120/40
v -0.4747993 2.3780000 -0.2084721
v -0.3419365 2.3780000 -0.4602873
v -0.2548265 3.5260000 -0.4148142
vt 0.5000000 0.5800000
vt 0.6250000 0.5800000
vt 0.6250000 0.8600000
vn 0.8812199 -0.0852837 0.4649497
f 121/121/41 122/122/41 123/123/41
v -0.4747993 2.3780000 -0.2084721
v -0.2548265 3.5260000 -0.4148142
v -0.3364138 3.5260000 -0.2981550
vt 0.5000000 0.5800000
vt 0.6250000 0.8600000
vt 0.5000000 0.8600000
vn 0.8182839 -0.0539330 0.5722784
f 124/124/42 125/125/42 126/126/42
v -0.3419365 2.3780000 -0.4602873
v -0.0699279 2.3780000 -0.5443993
v -0.1146450 3.5260000 -0.4396138
vt 0.6250000 0.5800000
vt 0.7500000 0.5800000
vt 0.7500000 0.8600000
vn 0.2945811 -0.0754792 0.9526410
f 127/127/43 128/128/43 129/129/43
v -0.3419365 2.3780000 -0.4602873
v -0.1146450 3.5260000 -0.4396138
v -0.2548265 3.5260000 -0.4148142
vt 0.6250000 0.5800000
vt 0.7500000 0.8600000
vt 0.6250000 0.8600000
vn 0.1739686 -0.0521527 0.9833692
f 130/130/44 131/131/44 132/132/44
v -0.0699279 2.3780000 -0.5443993
v 0.1818873 2.3780000 -0.4115365
v 0.0020142 3.5260000 -0.3580265
vt 0.7500000 0.5800000
vt 0.8750000 0.5800000
vt 0.8750000 0.8600000
vn -0.4636289 -0.1136014 0.8787166
f 133/133/45 134/134/45 135/135/45
v -0.0699279 2.3780000 -0.5443993
v 0.0020142 3.5260000 -0.3580265
v -0.1146450 3.5260000 -0.4396138
vt 0.7500000 0.5800000
vt 0.8750000 0.8600000
vt 0.7500000 0.8600000
vn -0.5704285 -0.0966682 0.8156388
f 136/136/46 137/137/46 138/138/46
v 0.1818873 2.3780000 -0.4115365
v 0.2659993 2.3780000 -0.1395279
v 0.0268138 3.5260000 -0.2178450
vt 0.8750000 0.5800000
vt 1.0000000 0.5800000
vt 1.0000000 0.8600000
vn -0.9404360 -0.1761006 0.2908070
f 139/139/47 140/140/47 141/141/47
v 0.1818873 2.3780000 -0.4115365
v 0.0268138 3.5260000 -0.2178450
v 0.0020142 3.5260000 -0.3580265
vt 0.8750000 0.5800000
vt 1.0000000 0.8600000
vt 0.8750000 0.8600000
vn -0.9719741 -0.1603077 0.1719527
f 142/142/48 143/143/48 144/144/48
v 0.0268138 3.5260000 -0.2178450
v -0.0547735 3.5260000 -0.1011858
v -0.1800000 4.1000000 -0.3000000
vt 0.0000000 0.8600000
vt 0.1250000 0.8600000
vt 0.0625000 1.0000000
vn -0.7667217 -0.3529993 -0.5362177
f 145/145/49 146/146/49 147/147/49
v 0.0000000 0.0000000 0.0000000
v 0.4384062 0.0000000 0.4384062
v 0.6200000 0.0000000 0.0000000
vt 0.5000000 0.5000000
vt 1.0000000 1.0000000
vt 0.0000000 1.0000000
vn 0.0000000 1.0000000 0.0000000
f 148/148/50 149/149/50 150/150/50
v -0.0547735 3.5260000 -0.1011858
v -0.1949550 3.5260000 -0.0763862
v -0.1800000 4.1000000 -0.3000000
vt 0.1250000 0.8600000
vt 0.2500000 0.8600000
vt 0.1875000 1.0000000
vn -0.1628946 -0.3544623 -0.9207724
f 151/151/51 152/152/51 153/153/51
v 0.0000000 0.0000000 0.0000000
v 0.0000000 0.0000000 0.6200000
v 0.4384062 0.0000000 0.4384062
vt 0.5000000 0.5000000
vt 1.0000000 1.0000000
vt 0.0000000 1.0000000
vn 0.0000000 1.0000000 0.0000000
f 154/154/52 155/155/52 156/156/52
v -0.1949550 3.5260000 -0.0763862
v -0.3116142 3.5260000 -0.1579735
v -0.1800000 4.1000000 -0.3000000
vt 0.2500000 0.8600000
vt 0.3750000 0.8600000
vt 0.3125000 1.0000000
vn 0.5435647 -0.3169472 -0.7772270
f 157/157/53 158/158/53 159/159/53
v 0.0000000 0.0000000 0.0000000
v -0.4384062 0.0000000 0.4384062
v 0.0000000 0.0000000 0.6200000
vt 0.5000000 0.5000000
vt 1.0000000 1.0000000
vt 0.0000000 1.0000000
vn 0.0000000 1.0000000 -0.0000000
f 160/160/54 161/161/54 162/162/54
v -0.3116142 3.5260000 -0.1579735
v -0.3364138 3.5260000 -0.2981550
v -0.1800000 4.1000000 -0.3000000
vt 0.3750000 0.8600000
vt 0.5000000 0.8600000
vt 0.4375000 1.0000000
vn 0.9509318 -0.2596677 -0.1682301
f 163/163/55 164/164/55 165/165/55
v 0.0000000 0.0000000 0.0000000
v -0.6200000 0.0000000 0.0000000
v -0.4384062 0.0000000 0.4384062
vt 0.5000000 0.5000000
vt 1.0000000 1.0000000
vt 0.0000000 1.0000000
vn 0.0000000 1.0000000 0.0000000
f 166/166/56 167/167/56 168/168/56
v -0.3364138 3.5260000 -0.2981550
v -0.2548265 3.5260000 -0.4148142
v -0.1800000 4.1000000 -0.3000000
vt 0.5000000 0.8600000
vt 0.6250000 0.8600000
vt 0.5625000 1.0000000
vn 0.8000908 -0.2162245 0.5595548
f 169/169/57 170/170/57 171/171/57
v 0.0000000 0.0000000 0.0000000
v -0.4384062 0.0000000 -0.4384062
v -0.6200000 0.0000000 0.0000000
vt 0.5000000 0.5000000
vt 1.0000000 1.0000000
vt 0.0000000 1.0000000
vn 0.0000000 1.0000000 0.0000000
f 172/172/58 173/173/58 174/174/58
v -0.2548265 3.5260000 -0.4148142
v -0.1146450 3.5260000 -0.4396138
v -0.1800000 4.1000000 -0.3000000
vt 0.6250000 0.8600000
vt 0.7500000 0.8600000
vt 0.6875000 1.0000000
vn 0.1701486 -0.2145596 0.9617763
f 175/175/59 176/176/59 177/177/59
v 0.0000000 0.0000000 0.0000000
v -0.0000000 0.0000000 -0.6200000
v -0.4384062 0.0000000 -0.4384062
vt 0.5000000 0.5000000
vt 1.0000000 1.0000000
vt 0.0000000 1.0000000
vn 0.0000000 1.0000000 0.0000000
f 178/178/60 179/179/60 180/180/60
v -0.1146450 3.5260000 -0.4396138
v 0.0020142 3.5260000 -0.3580265
v -0.1800000 4.1000000 -0.3000000
vt 0.7500000 0.8600000
vt 0.8750000 0.8600000
vt 0.8125000 1.0000000
vn -0.5540489 -0.2557743 0.7922180
f 181/181/61 182/182/61 183/183/61
v 0.0000000 0.0000000 0.0000000
v 0.4384062 0.0000000 -0.4384062
v -0.0000000 0.0000000 -0.6200000
vt 0.5000000 0.5000000
vt 1.0000000 1.0000000
vt 0.0000000 1.0000000
vn 0.0000000 1.0000000 0.0000000
f 184/184/62 185/185/62 186/186/62
v 0.0020142 3.5260000 -0.3580265
v 0.0268138 3.5260000 -0.2178450
v -0.1800000 4.1000000 -0.3000000
vt 0.8750000 0.8600000
vt 1.0000000 0.8600000
vt 0.9375000 1.0000000
vn -0.9351471 -0.3132575 0.1654376
f 187/187/63 188/188/63 189/189/63
v 0.0000000 0.0000000 0.0000000
v 0.6200000 0.0000000 0.0000000
v 0.4384062 0.0000000 -0.4384062
vt 0.5000000 0.5000000
vt 1.0000000 1.0000000
vt 0.0000000 1.0000000
vn -0.0000000 1.0000000 0.0000000
f 190/190/64 191/191/64 192/192/64
