# Reference-led flame ribbon, Y up, longitudinal flow UVs
o inferno_dome_02_v20
v 4.1968982 0.0400000 -0.1613865
v 4.1984471 0.0400000 0.1142016
v 4.1819191 0.0400000 0.3892980
v 4.1473853 0.0400000 0.6627183
v 4.0949944 0.0400000 0.9332852
v 4.0249720 0.0400000 1.1998336
v 3.9376195 0.0400000 1.4612161
v 4.3877101 0.6369466 -0.4709114
v 4.4114464 0.6048444 -0.0950046
v 4.4213158 0.5673435 0.2826880
v 4.3946379 0.5818024 0.6607411
v 4.3175536 0.6261059 1.0319767
v 4.1997411 0.6324907 1.3917511
v 4.0618065 0.5911910 1.7431389
v 4.5024591 1.2299435 -0.7789683
v 4.5620029 1.1665295 -0.3189704
v 4.6276812 1.0924511 0.1467606
v 4.6399047 1.1210129 0.6217703
v 4.5545341 1.2085291 1.0891138
v 4.3842730 1.2211414 1.5322973
v 4.1772840 1.1395590 1.9550449
v 4.5455981 1.8150793 -1.0793495
v 4.6756993 1.7219151 -0.5553490
v 4.8281556 1.6130831 -0.0159685
v 4.8905436 1.6550446 0.5480861
v 4.7854742 1.7836184 1.1029205
v 4.5416250 1.8021477 1.6138482
v 4.2539618 1.6822915 2.0882728
v 4.5539264 2.3885190 -1.3681924
v 4.7828909 2.2678985 -0.8006690
v 5.0243880 2.1269929 -0.2004132
v 5.1150290 2.1813208 0.4416546
v 4.9631710 2.3477864 1.0689124
v 4.6365013 2.3717764 1.6303345
v 4.2871332 2.2165975 2.1461219
v 4.5626625 2.9465403 -1.6448892
v 4.8835093 2.8014336 -1.0461939
v 5.1787204 2.6319238 -0.3947189
v 5.2598263 2.6972804 0.3101383
v 5.0499072 2.8975388 0.9914424
v 4.6663552 2.9263988 1.5922492
v 4.3034429 2.7397183 2.1525333
v 4.5723702 3.4855683 -1.8983736
v 4.9392418 3.3195484 -1.2696001
v 5.2379392 3.1256084 -0.5767415
v 5.2903817 3.2003843 0.1707447
v 5.0495150 3.4295045 0.8885983
v 4.6649674 3.4625240 1.5258767
v 4.3371093 3.2489386 2.1383115
v 4.5474535 4.0022081 -2.0972380
v 4.9024404 3.8193630 -1.4372339
v 5.1762924 3.6057683 -0.7201244
v 5.2213361 3.6881223 0.0454858
v 5.0059777 3.9404626 0.7855606
v 4.6726680 3.9768284 1.4587422
v 4.3945085 3.7415973 2.1203116
v 4.4474325 4.4932744 -2.2004183
v 4.7575747 4.2981063 -1.5208746
v 5.0206617 4.0701162 -0.8069711
v 5.1080380 4.1580206 -0.0476414
v 4.9666854 4.4273675 0.7035319
v 4.6964289 4.4661842 1.4053345
v 4.4373642 4.2150995 2.0933361
v 4.2636699 4.9558173 -2.1836209
v 4.5395653 4.7531319 -1.5148560
v 4.8346781 4.5163603 -0.8341129
v 5.0036778 4.6076505 -0.0981314
v 4.9395399 4.8873719 0.6539557
v 4.6943086 4.9276836 1.3644291
v 4.4021526 4.6669279 2.0407972
v 4.0312545 5.3871453 -2.0570566
v 4.3127978 5.1819334 -1.4354411
v 4.6726964 4.9422104 -0.8057799
v 4.9159773 5.0346386 -0.0994616
v 4.8802902 5.3178467 0.6395536
v 4.6003721 5.3586610 1.3270468
v 4.2436266 5.0946549 1.9532898
v 3.8068947 5.7848438 -1.8555788
v 4.1261879 5.5821585 -1.3017513
v 4.5391210 5.3453869 -0.7216574
v 4.7985639 5.4366771 -0.0466962
v 4.7223456 5.7163984 0.6568373
v 4.3722279 5.7567102 1.2863711
v 3.9682214 5.4959545 1.8395221
v 3.6287640 6.1467898 -1.6095167
v 3.9774403 5.9516217 -1.1181423
v 4.3842328 5.7236316 -0.5759645
v 4.5843964 5.8115360 0.0586856
v 4.4261541 6.0808830 0.6971554
v 4.0230896 6.1196996 1.2429399
v 3.6293395 5.8686149 1.7222675
v 3.4861896 6.4711619 -1.3251374
v 3.8126042 6.2883168 -0.8777047
v 4.1397191 6.0747220 -0.3706402
v 4.2352969 6.1570761 0.2020916
v 4.0088586 6.4094164 0.7487832
v 3.6120798 6.4457822 1.2035383
v 3.2875620 6.2105511 1.6231039
v 3.3213304 6.7564466 -0.9947624
v 3.5621541 6.5904267 -0.5838841
v 3.7673799 6.3964867 -0.1278848
v 3.7692200 6.4712627 0.3576507
v 3.5309510 6.7003829 0.8012395
v 3.2008622 6.7334023 1.1744903
v 2.9682329 6.5198169 1.5460961
v 3.0648420 7.0014400 -0.6256843
v 3.1884369 6.8563333 -0.2664204
v 3.2844517 6.6868235 0.1138599
v 3.2448146 6.7521801 0.4992695
v 3.0518131 6.9524385 0.8468706
v 2.8124112 6.9812985 1.1517962
v 2.6506559 6.7946180 1.4712770
v 2.6823102 7.2052456 -0.2564205
v 2.7092699 7.0846251 0.0269272
v 2.7468711 6.9437194 0.3178034
v 2.7174385 6.9980474 0.6088997
v 2.5913832 7.1645129 0.8751120
v 2.4250117 7.1885029 1.1148683
v 2.2955433 7.0333241 1.3640859
v 2.1959700 7.3672684 0.0578123
v 2.1795665 7.2741042 0.2544314
v 2.2060144 7.1652722 0.4612024
v 2.2043560 7.2072337 0.6722038
v 2.1290005 7.3358075 0.8648856
v 2.0035815 7.3543368 1.0323192
v 1.8847808 7.2344806 1.1965533
v 1.6634207 7.4872052 0.2742978
v 1.6481326 7.4237912 0.3939974
v 1.6773667 7.3497127 0.5296911
v 1.6881024 7.3782746 0.6685812
v 1.6372406 7.4657907 0.7874972
v 1.5384020 7.4784030 0.8799084
v 1.4389391 7.3968207 0.9650605
v 1.1334069 7.5650318 0.3749492
v 1.1297553 7.5329296 0.4339976
v 1.1482478 7.4954286 0.5046120
v 1.1517077 7.5098876 0.5725401
v 1.1177366 7.5541911 0.6232065
v 1.0571344 7.5605758 0.6567715
v 1.0001145 7.5192762 0.6889281
v 0.6129935 7.6009877 0.3658386
v 0.6119953 7.6009877 0.3675061
v 0.6109924 7.6009877 0.3691710
v 0.6099851 7.6009877 0.3708330
v 0.6089732 7.6009877 0.3724924
v 0.6079568 7.6009877 0.3741489
v 0.6069360 7.6009877 0.3758027
v 4.3657066 0.1006453 -1.4472666
v 4.3664572 0.1000000 -1.4469296
v 4.3672345 0.0993753 -1.4467540
v 4.3665086 0.1000000 -1.4470827
v 4.5199691 0.6026962 -1.4049318
v 4.6518206 0.4895163 -1.3353520
v 4.7690244 0.3977155 -1.3043051
v 4.6631488 0.4895163 -1.3633898
v 4.7892809 0.9829959 -1.3022367
v 4.9082290 0.8790327 -1.2087446
v 5.0814534 0.7464170 -1.1248981
v 4.9271198 0.8790327 -1.2398680
v 4.9277211 1.4334380 -1.2708688
v 5.1003577 1.2685490 -1.0524225
v 5.3023942 1.1095417 -0.8754617
v 5.1365614 1.2685490 -1.0867278
v 5.1208528 1.8367959 -1.2107835
v 5.2067193 1.6580654 -0.8774918
v 5.3301525 1.5127191 -0.6256279
v 5.2658467 1.6580654 -0.8986407
v 5.2968753 2.1855377 -0.9416507
v 5.2265233 2.0475817 -0.6917592
v 5.2021497 1.8713830 -0.3618966
v 5.2840327 2.0475817 -0.6823627
v 5.3008466 2.5912671 -0.6781236
v 5.1506604 2.4370980 -0.4889789
v 5.0425525 2.2890050 -0.2836143
v 5.1875466 2.4370980 -0.4648287
v 5.1163891 2.9667919 -0.3863325
v 4.9696250 2.8266144 -0.2832168
v 4.8719580 2.7123160 -0.1738301
v 4.9938646 2.8266144 -0.2553352
v 4.8140991 3.3302205 -0.1389688
v 4.6985877 3.2161307 -0.0897593
v 4.5704661 3.0702415 0.0060661
v 4.7157776 3.2161307 -0.0608834
v 4.4617477 3.7083922 0.0547323
v 4.3634466 3.6056471 0.0858812
v 4.2782168 3.5073333 0.1357043
v 4.3724729 3.6056471 0.1063400
v 3.9933389 3.9957562 0.2396504
v 3.9927781 3.9951634 0.2397931
v 3.9923633 3.9946787 0.2400242
v 3.9928263 3.9951634 0.2399189
v 4.3660419 0.1006092 1.4463712
v 4.3664183 0.1000000 1.4470511
v 4.3668357 0.0995127 1.4475140
v 4.3665476 0.1000000 1.4469613
v 4.4626627 0.6053441 1.5694512
v 4.5252915 0.4895163 1.7090235
v 4.6413577 0.3430945 1.8630025
v 4.5578823 0.4895163 1.6891844
v 4.5930710 1.0310334 1.7513067
v 4.6562605 0.8790327 1.9626431
v 4.7570487 0.7290066 2.1556534
v 4.6949313 0.8790327 1.9469606
v 4.7196219 1.3923869 1.9920095
v 4.7249543 1.2685490 2.2011147
v 4.7639730 1.1692852 2.3645898
v 4.7635259 1.2685490 2.1965233
v 4.7978472 1.7785366 2.1938308
v 4.7054606 1.6580654 2.4071666
v 4.6448780 1.5055141 2.6945431
v 4.7552384 1.6580654 2.4223738
v 4.8937349 2.2471357 2.3278889
v 4.6026024 2.0475817 2.5636231
v 4.3618766 1.8513907 2.8424174
v 4.6484894 2.0475817 2.6110557
v 4.7087359 2.6267493 2.6026830
v 4.4212111 2.4370980 2.6779342
v 4.2077318 2.2847375 2.7861933
v 4.4406303 2.4370980 2.7309508
v 4.2927324 2.9338420 2.7487776
v 4.1553373 2.8266144 2.7418099
v 3.9840424 2.6906121 2.7721701
v 4.1579562 2.8266144 2.7763704
v 3.9368193 3.3232694 2.7627120
v 3.8218621 3.2161307 2.7384190
v 3.7067717 3.1112094 2.7389229
v 3.8193236 3.2161307 2.7629672
v 3.5376820 3.6997758 2.7065222
v 3.4485082 3.6056471 2.6751794
v 3.3723997 3.5298506 2.6687807
v 3.4437421 3.6056471 2.6960517
v 3.0599427 3.9957784 2.5770321
v 3.0593919 3.9951634 2.5767884
v 3.0586396 3.9943822 2.5766657
v 3.0593456 3.9951634 2.5769530
vt 0.0000000 0.1100000
vt 0.1666667 0.1100000
vt 0.3333333 0.1100000
vt 0.5000000 0.1100000
vt 0.6666667 0.1100000
vt 0.8333333 0.1100000
vt 1.0000000 0.1100000
vt 0.0000000 0.1925000
vt 0.1666667 0.1925000
vt 0.3333333 0.1925000
vt 0.5000000 0.1925000
vt 0.6666667 0.1925000
vt 0.8333333 0.1925000
vt 1.0000000 0.1925000
vt 0.0000000 0.2750000
vt 0.1666667 0.2750000
vt 0.3333333 0.2750000
vt 0.5000000 0.2750000
vt 0.6666667 0.2750000
vt 0.8333333 0.2750000
vt 1.0000000 0.2750000
vt 0.0000000 0.3575000
vt 0.1666667 0.3575000
vt 0.3333333 0.3575000
vt 0.5000000 0.3575000
vt 0.6666667 0.3575000
vt 0.8333333 0.3575000
vt 1.0000000 0.3575000
vt 0.0000000 0.4400000
vt 0.1666667 0.4400000
vt 0.3333333 0.4400000
vt 0.5000000 0.4400000
vt 0.6666667 0.4400000
vt 0.8333333 0.4400000
vt 1.0000000 0.4400000
vt 0.0000000 0.5225000
vt 0.1666667 0.5225000
vt 0.3333333 0.5225000
vt 0.5000000 0.5225000
vt 0.6666667 0.5225000
vt 0.8333333 0.5225000
vt 1.0000000 0.5225000
vt 0.0000000 0.6050000
vt 0.1666667 0.6050000
vt 0.3333333 0.6050000
vt 0.5000000 0.6050000
vt 0.6666667 0.6050000
vt 0.8333333 0.6050000
vt 1.0000000 0.6050000
vt 0.0000000 0.6875000
vt 0.1666667 0.6875000
vt 0.3333333 0.6875000
vt 0.5000000 0.6875000
vt 0.6666667 0.6875000
vt 0.8333333 0.6875000
vt 1.0000000 0.6875000
vt 0.0000000 0.7700000
vt 0.1666667 0.7700000
vt 0.3333333 0.7700000
vt 0.5000000 0.7700000
vt 0.6666667 0.7700000
vt 0.8333333 0.7700000
vt 1.0000000 0.7700000
vt 0.0000000 0.8525000
vt 0.1666667 0.8525000
vt 0.3333333 0.8525000
vt 0.5000000 0.8525000
vt 0.6666667 0.8525000
vt 0.8333333 0.8525000
vt 1.0000000 0.8525000
vt 0.0000000 0.9350000
vt 0.1666667 0.9350000
vt 0.3333333 0.9350000
vt 0.5000000 0.9350000
vt 0.6666667 0.9350000
vt 0.8333333 0.9350000
vt 1.0000000 0.9350000
vt 0.0000000 1.0175000
vt 0.1666667 1.0175000
vt 0.3333333 1.0175000
vt 0.5000000 1.0175000
vt 0.6666667 1.0175000
vt 0.8333333 1.0175000
vt 1.0000000 1.0175000
vt 0.0000000 1.1000000
vt 0.1666667 1.1000000
vt 0.3333333 1.1000000
vt 0.5000000 1.1000000
vt 0.6666667 1.1000000
vt 0.8333333 1.1000000
vt 1.0000000 1.1000000
vt 0.0000000 1.1825000
vt 0.1666667 1.1825000
vt 0.3333333 1.1825000
vt 0.5000000 1.1825000
vt 0.6666667 1.1825000
vt 0.8333333 1.1825000
vt 1.0000000 1.1825000
vt 0.0000000 1.2650000
vt 0.1666667 1.2650000
vt 0.3333333 1.2650000
vt 0.5000000 1.2650000
vt 0.6666667 1.2650000
vt 0.8333333 1.2650000
vt 1.0000000 1.2650000
vt 0.0000000 1.3475000
vt 0.1666667 1.3475000
vt 0.3333333 1.3475000
vt 0.5000000 1.3475000
vt 0.6666667 1.3475000
vt 0.8333333 1.3475000
vt 1.0000000 1.3475000
vt 0.0000000 1.4300000
vt 0.1666667 1.4300000
vt 0.3333333 1.4300000
vt 0.5000000 1.4300000
vt 0.6666667 1.4300000
vt 0.8333333 1.4300000
vt 1.0000000 1.4300000
vt 0.0000000 1.5125000
vt 0.1666667 1.5125000
vt 0.3333333 1.5125000
vt 0.5000000 1.5125000
vt 0.6666667 1.5125000
vt 0.8333333 1.5125000
vt 1.0000000 1.5125000
vt 0.0000000 1.5950000
vt 0.1666667 1.5950000
vt 0.3333333 1.5950000
vt 0.5000000 1.5950000
vt 0.6666667 1.5950000
vt 0.8333333 1.5950000
vt 1.0000000 1.5950000
vt 0.0000000 1.6775000
vt 0.1666667 1.6775000
vt 0.3333333 1.6775000
vt 0.5000000 1.6775000
vt 0.6666667 1.6775000
vt 0.8333333 1.6775000
vt 1.0000000 1.6775000
vt 0.0000000 1.7600000
vt 0.1666667 1.7600000
vt 0.3333333 1.7600000
vt 0.5000000 1.7600000
vt 0.6666667 1.7600000
vt 0.8333333 1.7600000
vt 1.0000000 1.7600000
vt 1.0000000 0.0900000
vt 0.5000000 0.0900000
vt 0.0000000 0.0900000
vt 0.5000000 0.0900000
vt 1.0000000 0.2700000
vt 0.5000000 0.2700000
vt 0.0000000 0.2700000
vt 0.5000000 0.2700000
vt 1.0000000 0.4500000
vt 0.5000000 0.4500000
vt 0.0000000 0.4500000
vt 0.5000000 0.4500000
vt 1.0000000 0.6300000
vt 0.5000000 0.6300000
vt 0.0000000 0.6300000
vt 0.5000000 0.6300000
vt 1.0000000 0.8100000
vt 0.5000000 0.8100000
vt 0.0000000 0.8100000
vt 0.5000000 0.8100000
vt 1.0000000 0.9900000
vt 0.5000000 0.9900000
vt 0.0000000 0.9900000
vt 0.5000000 0.9900000
vt 1.0000000 1.1700000
vt 0.5000000 1.1700000
vt 0.0000000 1.1700000
vt 0.5000000 1.1700000
vt 1.0000000 1.3500000
vt 0.5000000 1.3500000
vt 0.0000000 1.3500000
vt 0.5000000 1.3500000
vt 1.0000000 1.5300000
vt 0.5000000 1.5300000
vt 0.0000000 1.5300000
vt 0.5000000 1.5300000
vt 1.0000000 1.7100000
vt 0.5000000 1.7100000
vt 0.0000000 1.7100000
vt 0.5000000 1.7100000
vt 1.0000000 1.8900000
vt 0.5000000 1.8900000
vt 0.0000000 1.8900000
vt 0.5000000 1.8900000
vt 1.0000000 0.0900000
vt 0.5000000 0.0900000
vt 0.0000000 0.0900000
vt 0.5000000 0.0900000
vt 1.0000000 0.2700000
vt 0.5000000 0.2700000
vt 0.0000000 0.2700000
vt 0.5000000 0.2700000
vt 1.0000000 0.4500000
vt 0.5000000 0.4500000
vt 0.0000000 0.4500000
vt 0.5000000 0.4500000
vt 1.0000000 0.6300000
vt 0.5000000 0.6300000
vt 0.0000000 0.6300000
vt 0.5000000 0.6300000
vt 1.0000000 0.8100000
vt 0.5000000 0.8100000
vt 0.0000000 0.8100000
vt 0.5000000 0.8100000
vt 1.0000000 0.9900000
vt 0.5000000 0.9900000
vt 0.0000000 0.9900000
vt 0.5000000 0.9900000
vt 1.0000000 1.1700000
vt 0.5000000 1.1700000
vt 0.0000000 1.1700000
vt 0.5000000 1.1700000
vt 1.0000000 1.3500000
vt 0.5000000 1.3500000
vt 0.0000000 1.3500000
vt 0.5000000 1.3500000
vt 1.0000000 1.5300000
vt 0.5000000 1.5300000
vt 0.0000000 1.5300000
vt 0.5000000 1.5300000
vt 1.0000000 1.7100000
vt 0.5000000 1.7100000
vt 0.0000000 1.7100000
vt 0.5000000 1.7100000
vt 1.0000000 1.8900000
vt 0.5000000 1.8900000
vt 0.0000000 1.8900000
vt 0.5000000 1.8900000
vn 0.9517005 -0.3069812 -0.0053489
vn 0.9383496 -0.3450414 -0.0211306
vn 0.9213052 -0.3880429 0.0248875
vn 0.9062473 -0.4058977 0.1181647
vn 0.8960926 -0.3876895 0.2161362
vn 0.8888816 -0.3639740 0.2782308
vn 0.8845921 -0.3560324 0.3012271
vn 0.9495878 -0.3070252 -0.0633913
vn 0.9417325 -0.3278769 -0.0750781
vn 0.9250708 -0.3794080 -0.0171371
vn 0.9102633 -0.3939559 0.1273560
vn 0.8895132 -0.3796465 0.2542336
vn 0.8803109 -0.3599674 0.3089922
vn 0.8804226 -0.3424022 0.3280500
vn 0.9633140 -0.2325772 -0.1339179
vn 0.9410396 -0.2891219 -0.1756501
vn 0.9189940 -0.3775415 -0.1136332
vn 0.9113084 -0.3996089 0.0991452
vn 0.8837825 -0.3721998 0.2835417
vn 0.8726159 -0.3271223 0.3626739
vn 0.8707972 -0.2818420 0.4028365
vn 0.9504381 -0.2038348 -0.2347741
vn 0.9014508 -0.3085552 -0.3036117
vn 0.8902718 -0.4036122 -0.2109817
vn 0.9173107 -0.3899969 0.0802711
vn 0.8909174 -0.3114422 0.3305601
vn 0.8646482 -0.2283035 0.4475052
vn 0.8532563 -0.1662615 0.4942780
vn 0.8977639 -0.2437109 -0.3669128
vn 0.8379896 -0.3492549 -0.4192785
vn 0.8772089 -0.3968929 -0.2701491
vn 0.9466422 -0.3093838 0.0902781
vn 0.9055841 -0.1729035 0.3873264
vn 0.8491185 -0.0822803 0.5217544
vn 0.8378122 -0.0496215 0.5436989
vn 0.8311110 -0.2868978 -0.4763866
vn 0.8084157 -0.3359651 -0.4833131
vn 0.9129808 -0.2973986 -0.2793209
vn 0.9844647 -0.1347875 0.1125239
vn 0.9100407 0.0015484 0.4145160
vn 0.8413790 0.0334478 0.5394096
vn 0.8546331 -0.0024510 0.5192267
vn 0.8144871 -0.2457573 -0.5255608
vn 0.8518761 -0.2043353 -0.4822388
vn 0.9676033 -0.0769861 -0.2404515
vn 0.9910026 0.0729231 0.1122319
vn 0.9125472 0.1222895 0.3902601
vn 0.8669896 0.0619736 0.4944576
vn 0.8998485 -0.0305645 0.4351304
vn 0.8666397 -0.0610338 -0.4951873
vn 0.9159570 0.0628258 -0.3963279
vn 0.9668604 0.1755138 -0.1854071
vn 0.9760710 0.2061057 0.0693247
vn 0.9341870 0.1453005 0.3258565
vn 0.9106965 0.0242769 0.4123620
vn 0.9319683 -0.0551489 0.3583206
vn 0.9010703 0.2243133 -0.3711548
vn 0.9066432 0.3235820 -0.2707265
vn 0.9295117 0.3228276 -0.1782983
vn 0.9724213 0.2329447 -0.0115557
vn 0.9636643 0.1074851 0.2445364
vn 0.9353359 0.0146977 0.3534554
vn 0.9260112 0.0289713 0.3763826
vn 0.8681937 0.4334262 -0.2416224
vn 0.8663415 0.4503279 -0.2160028
vn 0.9021980 0.3567750 -0.2423849
vn 0.9714155 0.2104261 -0.1098762
vn 0.9772588 0.1112228 0.1805403
vn 0.9172264 0.1303498 0.3764368
vn 0.8328540 0.2484239 0.4946108
vn 0.8324953 0.5169369 -0.1993184
vn 0.8400700 0.4778172 -0.2568525
vn 0.8724354 0.3538615 -0.3371031
vn 0.9496004 0.2490994 -0.1902856
vn 0.9547925 0.2517592 0.1580777
vn 0.8126822 0.3576328 0.4600506
vn 0.6469686 0.4655714 0.6038831
vn 0.8099833 0.5341793 -0.2420321
vn 0.8103036 0.4824552 -0.3326336
vn 0.8267899 0.4133698 -0.3815021
vn 0.8800688 0.4199182 -0.2216925
vn 0.8515522 0.4983880 0.1626904
vn 0.6486004 0.5510556 0.5250288
vn 0.4933745 0.5738610 0.6536553
vn 0.7780286 0.5511461 -0.3015120
vn 0.7707294 0.5388609 -0.3400075
vn 0.7610705 0.5638704 -0.3206585
vn 0.7396529 0.6425576 -0.2000833
vn 0.6945290 0.7012423 0.1608994
vn 0.5247788 0.6479325 0.5520785
vn 0.4248299 0.6097653 0.6691082
vn 0.7343583 0.6182204 -0.2802167
vn 0.7239967 0.6523283 -0.2242689
vn 0.6689129 0.7215853 -0.1785222
vn 0.5868974 0.7924218 -0.1661901
vn 0.5699669 0.8100322 0.1377877
vn 0.4682939 0.6896173 0.5523847
vn 0.4199511 0.6241535 0.6588425
vn 0.6821247 0.7168687 -0.1442400
vn 0.6588405 0.7517135 -0.0292587
vn 0.5748059 0.8176111 -0.0333197
vn 0.4772115 0.8642444 -0.1592191
vn 0.4956365 0.8643635 0.0849719
vn 0.4527183 0.7213220 0.5241571
vn 0.4238568 0.6527779 0.6278745
vn 0.6148572 0.7870272 0.0503856
vn 0.5806623 0.7978099 0.1622675
vn 0.4985057 0.8642547 0.0674975
vn 0.4065073 0.8933595 -0.1914699
vn 0.4441340 0.8959570 -0.0024754
vn 0.4232578 0.7717065 0.4746809
vn 0.3608619 0.7088205 0.6060959
vn 0.5337290 0.8126142 0.2340759
vn 0.4979845 0.8109562 0.3071831
vn 0.4350393 0.8935441 0.1109947
vn 0.3550221 0.8995006 -0.2546724
vn 0.3854905 0.9171312 -0.1013286
vn 0.3292251 0.8370506 0.4369865
vn 0.2102151 0.7614197 0.6132289
vn 0.4376215 0.8183695 0.3725033
vn 0.4070068 0.8234367 0.3953447
vn 0.3713197 0.9228792 0.1020571
vn 0.3141630 0.8935743 -0.3206659
vn 0.3187140 0.9322137 -0.1714612
vn 0.1830839 0.8840927 0.4299538
vn 0.0320276 0.7775599 0.6279927
vn 0.3194833 0.8320517 0.4534538
vn 0.2971765 0.8504019 0.4341691
vn 0.2996965 0.9516603 0.0672666
vn 0.2893263 0.8835661 -0.3682409
vn 0.2622378 0.9435516 -0.2023404
vn 0.0330792 0.8981469 0.4384494
vn -0.1187868 0.7708150 0.6258865
vn 0.1763410 0.8596511 0.4794828
vn 0.1670024 0.8792676 0.4460927
vn 0.2324463 0.9725511 0.0106332
vn 0.2875035 0.8674379 -0.4060705
vn 0.2131361 0.9594601 -0.1844162
vn -0.1027566 0.8865369 0.4511024
vn -0.2248107 0.7794893 0.5846850
vn 0.0540461 0.8810293 0.4699643
vn 0.0624860 0.8956770 0.4402933
vn 0.2357672 0.9514534 -0.1978643
vn 0.3118036 0.8258465 -0.4698469
vn 0.0959493 0.9953421 -0.0093726
vn -0.2539667 0.8130536 0.5238748
vn 0.1374967 0.9868590 0.0848766
vn -0.4291257 0.0557254 0.9015242
vn -0.2969575 -0.0555859 0.9532715
vn 0.4069235 -0.1156179 -0.9061157
vn 0.2761878 -0.0039504 -0.9610956
vn -0.7451645 0.2254193 0.6276273
vn -0.4048801 -0.0216888 0.9141125
vn 0.6439284 -0.2846249 -0.7101724
vn 0.3703451 -0.0178073 -0.9287235
vn -0.9446584 0.3273558 -0.0214165
vn -0.5530169 -0.0146910 0.8330405
vn 0.8939177 -0.4290232 -0.1298082
vn 0.5325579 -0.0348693 -0.8456750
vn -0.9085118 0.2611277 -0.3262185
vn -0.7606962 -0.0263337 0.6485737
vn 0.7361650 -0.4198094 0.5308683
vn 0.7347542 -0.0519717 -0.6763396
vn -0.1944577 0.3270641 -0.9247785
vn -0.9501507 -0.0064131 0.3117251
vn 0.4109122 -0.3410214 0.8454913
vn 0.9408391 -0.0170274 -0.3384257
vn 0.3162073 0.3584629 -0.8783606
vn -0.9929117 0.0184778 -0.1174093
vn -0.1667161 -0.3062680 0.9372330
vn 0.9864477 0.0295498 0.1613934
vn 0.5924458 0.4292990 -0.6816967
vn -0.8625485 0.0216784 -0.5055098
vn -0.8205778 -0.2849996 0.4954062
vn 0.8460627 0.0468414 0.5310215
vn 0.8576717 0.4818241 -0.1795682
vn -0.6786668 0.0070469 -0.7344125
vn -0.7672338 -0.4413663 0.4653472
vn 0.6663762 0.0251852 0.7451902
vn 0.8343363 0.5510566 0.0148201
vn -0.5269077 0.0060585 -0.8499009
vn -0.8200510 -0.5334595 0.2072134
vn 0.5100657 0.0095436 0.8600825
vn 0.6313694 0.3069257 0.7121582
vn -0.4186722 0.0205267 -0.9079054
vn -0.6597555 -0.1902250 -0.7270056
vn 0.3991424 0.0094986 0.9168398
vn 0.4153101 0.0948719 0.9047192
vn -0.3436259 0.0437576 -0.9380866
vn -0.4440024 -0.0691774 -0.8933512
vn 0.3151888 -0.0180982 0.9488564
vn -0.8912726 0.0609046 0.4493594
vn -0.8197877 -0.0494810 0.5705258
vn 0.8575346 -0.1089966 -0.5027466
vn 0.7836446 0.0012930 -0.6212081
vn -0.9781020 0.1837524 0.0977318
vn -0.8711369 -0.0256211 0.4903714
vn 0.9361426 -0.3077770 -0.1700305
vn 0.8523332 -0.0254630 -0.5223790
vn -0.4875494 0.4331006 -0.7581026
vn -0.9319906 -0.0002452 0.3624822
vn 0.0614745 -0.4246473 0.9032694
vn 0.9294050 -0.0149288 -0.3687594
vn 0.0222206 0.3573841 -0.9336931
vn -0.9971384 -0.0062728 0.0753366
vn 0.2380988 -0.3866833 0.8909461
vn 0.9937056 -0.0256679 -0.1090428
vn -0.0121847 0.2370403 -0.9714234
vn -0.9313204 -0.0437474 -0.3615638
vn 0.1666126 -0.3599736 0.9179647
vn 0.9443031 -0.0573605 0.3240394
vn 0.5186198 0.3007267 -0.8003730
vn -0.7006741 0.0020168 -0.7134786
vn -0.7049176 -0.3258023 0.6300350
vn 0.6992078 0.0080416 0.7148733
vn 0.8790447 0.4230105 0.2198693
vn -0.4127683 0.0395826 -0.9099756
vn -0.9578612 -0.2846410 -0.0384904
vn 0.3641754 0.0590852 0.9294542
vn 0.6940688 0.4419937 0.5682518
vn -0.1265005 0.0178974 -0.9918051
vn -0.8464701 -0.3615597 -0.3908490
vn 0.0789866 0.0308891 0.9963970
vn 0.7445533 0.5769134 0.3358740
vn 0.0872761 0.0055900 -0.9961685
vn -0.5858299 -0.3865839 -0.7122894
vn -0.0988003 0.0139319 0.9950098
vn 0.0765030 0.2920100 0.9533506
vn 0.2047342 0.0149464 -0.9787035
vn -0.1338801 -0.2391650 -0.9617048
vn -0.2247073 0.0055979 0.9744102
vn -0.2039730 0.0970067 0.9741585
vn 0.2873125 0.0454632 -0.9567574
vn 0.1640330 -0.0839690 -0.9828745
vn -0.3253967 -0.0321234 0.9450318
s 1
f 1/1/1 8/8/8 2/2/2
f 2/2/2 8/8/8 9/9/9
f 2/2/2 9/9/9 3/3/3
f 3/3/3 9/9/9 10/10/10
f 3/3/3 10/10/10 4/4/4
f 4/4/4 10/10/10 11/11/11
f 4/4/4 11/11/11 5/5/5
f 5/5/5 11/11/11 12/12/12
f 5/5/5 12/12/12 6/6/6
f 6/6/6 12/12/12 13/13/13
f 6/6/6 13/13/13 7/7/7
f 7/7/7 13/13/13 14/14/14
f 8/8/8 15/15/15 9/9/9
f 9/9/9 15/15/15 16/16/16
f 9/9/9 16/16/16 10/10/10
f 10/10/10 16/16/16 17/17/17
f 10/10/10 17/17/17 11/11/11
f 11/11/11 17/17/17 18/18/18
f 11/11/11 18/18/18 12/12/12
f 12/12/12 18/18/18 19/19/19
f 12/12/12 19/19/19 13/13/13
f 13/13/13 19/19/19 20/20/20
f 13/13/13 20/20/20 14/14/14
f 14/14/14 20/20/20 21/21/21
f 15/15/15 22/22/22 16/16/16
f 16/16/16 22/22/22 23/23/23
f 16/16/16 23/23/23 17/17/17
f 17/17/17 23/23/23 24/24/24
f 17/17/17 24/24/24 18/18/18
f 18/18/18 24/24/24 25/25/25
f 18/18/18 25/25/25 19/19/19
f 19/19/19 25/25/25 26/26/26
f 19/19/19 26/26/26 20/20/20
f 20/20/20 26/26/26 27/27/27
f 20/20/20 27/27/27 21/21/21
f 21/21/21 27/27/27 28/28/28
f 22/22/22 29/29/29 23/23/23
f 23/23/23 29/29/29 30/30/30
f 23/23/23 30/30/30 24/24/24
f 24/24/24 30/30/30 31/31/31
f 24/24/24 31/31/31 25/25/25
f 25/25/25 31/31/31 32/32/32
f 25/25/25 32/32/32 26/26/26
f 26/26/26 32/32/32 33/33/33
f 26/26/26 33/33/33 27/27/27
f 27/27/27 33/33/33 34/34/34
f 27/27/27 34/34/34 28/28/28
f 28/28/28 34/34/34 35/35/35
f 29/29/29 36/36/36 30/30/30
f 30/30/30 36/36/36 37/37/37
f 30/30/30 37/37/37 31/31/31
f 31/31/31 37/37/37 38/38/38
f 31/31/31 38/38/38 32/32/32
f 32/32/32 38/38/38 39/39/39
f 32/32/32 39/39/39 33/33/33
f 33/33/33 39/39/39 40/40/40
f 33/33/33 40/40/40 34/34/34
f 34/34/34 40/40/40 41/41/41
f 34/34/34 41/41/41 35/35/35
f 35/35/35 41/41/41 42/42/42
f 36/36/36 43/43/43 37/37/37
f 37/37/37 43/43/43 44/44/44
f 37/37/37 44/44/44 38/38/38
f 38/38/38 44/44/44 45/45/45
f 38/38/38 45/45/45 39/39/39
f 39/39/39 45/45/45 46/46/46
f 39/39/39 46/46/46 40/40/40
f 40/40/40 46/46/46 47/47/47
f 40/40/40 47/47/47 41/41/41
f 41/41/41 47/47/47 48/48/48
f 41/41/41 48/48/48 42/42/42
f 42/42/42 48/48/48 49/49/49
f 43/43/43 50/50/50 44/44/44
f 44/44/44 50/50/50 51/51/51
f 44/44/44 51/51/51 45/45/45
f 45/45/45 51/51/51 52/52/52
f 45/45/45 52/52/52 46/46/46
f 46/46/46 52/52/52 53/53/53
f 46/46/46 53/53/53 47/47/47
f 47/47/47 53/53/53 54/54/54
f 47/47/47 54/54/54 48/48/48
f 48/48/48 54/54/54 55/55/55
f 48/48/48 55/55/55 49/49/49
f 49/49/49 55/55/55 56/56/56
f 50/50/50 57/57/57 51/51/51
f 51/51/51 57/57/57 58/58/58
f 51/51/51 58/58/58 52/52/52
f 52/52/52 58/58/58 59/59/59
f 52/52/52 59/59/59 53/53/53
f 53/53/53 59/59/59 60/60/60
f 53/53/53 60/60/60 54/54/54
f 54/54/54 60/60/60 61/61/61
f 54/54/54 61/61/61 55/55/55
f 55/55/55 61/61/61 62/62/62
f 55/55/55 62/62/62 56/56/56
f 56/56/56 62/62/62 63/63/63
f 57/57/57 64/64/64 58/58/58
f 58/58/58 64/64/64 65/65/65
f 58/58/58 65/65/65 59/59/59
f 59/59/59 65/65/65 66/66/66
f 59/59/59 66/66/66 60/60/60
f 60/60/60 66/66/66 67/67/67
f 60/60/60 67/67/67 61/61/61
f 61/61/61 67/67/67 68/68/68
f 61/61/61 68/68/68 62/62/62
f 62/62/62 68/68/68 69/69/69
f 62/62/62 69/69/69 63/63/63
f 63/63/63 69/69/69 70/70/70
f 64/64/64 71/71/71 65/65/65
f 65/65/65 71/71/71 72/72/72
f 65/65/65 72/72/72 66/66/66
f 66/66/66 72/72/72 73/73/73
f 66/66/66 73/73/73 67/67/67
f 67/67/67 73/73/73 74/74/74
f 67/67/67 74/74/74 68/68/68
f 68/68/68 74/74/74 75/75/75
f 68/68/68 75/75/75 69/69/69
f 69/69/69 75/75/75 76/76/76
f 69/69/69 76/76/76 70/70/70
f 70/70/70 76/76/76 77/77/77
f 71/71/71 78/78/78 72/72/72
f 72/72/72 78/78/78 79/79/79
f 72/72/72 79/79/79 73/73/73
f 73/73/73 79/79/79 80/80/80
f 73/73/73 80/80/80 74/74/74
f 74/74/74 80/80/80 81/81/81
f 74/74/74 81/81/81 75/75/75
f 75/75/75 81/81/81 82/82/82
f 75/75/75 82/82/82 76/76/76
f 76/76/76 82/82/82 83/83/83
f 76/76/76 83/83/83 77/77/77
f 77/77/77 83/83/83 84/84/84
f 78/78/78 85/85/85 79/79/79
f 79/79/79 85/85/85 86/86/86
f 79/79/79 86/86/86 80/80/80
f 80/80/80 86/86/86 87/87/87
f 80/80/80 87/87/87 81/81/81
f 81/81/81 87/87/87 88/88/88
f 81/81/81 88/88/88 82/82/82
f 82/82/82 88/88/88 89/89/89
f 82/82/82 89/89/89 83/83/83
f 83/83/83 89/89/89 90/90/90
f 83/83/83 90/90/90 84/84/84
f 84/84/84 90/90/90 91/91/91
f 85/85/85 92/92/92 86/86/86
f 86/86/86 92/92/92 93/93/93
f 86/86/86 93/93/93 87/87/87
f 87/87/87 93/93/93 94/94/94
f 87/87/87 94/94/94 88/88/88
f 88/88/88 94/94/94 95/95/95
f 88/88/88 95/95/95 89/89/89
f 89/89/89 95/95/95 96/96/96
f 89/89/89 96/96/96 90/90/90
f 90/90/90 96/96/96 97/97/97
f 90/90/90 97/97/97 91/91/91
f 91/91/91 97/97/97 98/98/98
f 92/92/92 99/99/99 93/93/93
f 93/93/93 99/99/99 100/100/100
f 93/93/93 100/100/100 94/94/94
f 94/94/94 100/100/100 101/101/101
f 94/94/94 101/101/101 95/95/95
f 95/95/95 101/101/101 102/102/102
f 95/95/95 102/102/102 96/96/96
f 96/96/96 102/102/102 103/103/103
f 96/96/96 103/103/103 97/97/97
f 97/97/97 103/103/103 104/104/104
f 97/97/97 104/104/104 98/98/98
f 98/98/98 104/104/104 105/105/105
f 99/99/99 106/106/106 100/100/100
f 100/100/100 106/106/106 107/107/107
f 100/100/100 107/107/107 101/101/101
f 101/101/101 107/107/107 108/108/108
f 101/101/101 108/108/108 102/102/102
f 102/102/102 108/108/108 109/109/109
f 102/102/102 109/109/109 103/103/103
f 103/103/103 109/109/109 110/110/110
f 103/103/103 110/110/110 104/104/104
f 104/104/104 110/110/110 111/111/111
f 104/104/104 111/111/111 105/105/105
f 105/105/105 111/111/111 112/112/112
f 106/106/106 113/113/113 107/107/107
f 107/107/107 113/113/113 114/114/114
f 107/107/107 114/114/114 108/108/108
f 108/108/108 114/114/114 115/115/115
f 108/108/108 115/115/115 109/109/109
f 109/109/109 115/115/115 116/116/116
f 109/109/109 116/116/116 110/110/110
f 110/110/110 116/116/116 117/117/117
f 110/110/110 117/117/117 111/111/111
f 111/111/111 117/117/117 118/118/118
f 111/111/111 118/118/118 112/112/112
f 112/112/112 118/118/118 119/119/119
f 113/113/113 120/120/120 114/114/114
f 114/114/114 120/120/120 121/121/121
f 114/114/114 121/121/121 115/115/115
f 115/115/115 121/121/121 122/122/122
f 115/115/115 122/122/122 116/116/116
f 116/116/116 122/122/122 123/123/123
f 116/116/116 123/123/123 117/117/117
f 117/117/117 123/123/123 124/124/124
f 117/117/117 124/124/124 118/118/118
f 118/118/118 124/124/124 125/125/125
f 118/118/118 125/125/125 119/119/119
f 119/119/119 125/125/125 126/126/126
f 120/120/120 127/127/127 121/121/121
f 121/121/121 127/127/127 128/128/128
f 121/121/121 128/128/128 122/122/122
f 122/122/122 128/128/128 129/129/129
f 122/122/122 129/129/129 123/123/123
f 123/123/123 129/129/129 130/130/130
f 123/123/123 130/130/130 124/124/124
f 124/124/124 130/130/130 131/131/131
f 124/124/124 131/131/131 125/125/125
f 125/125/125 131/131/131 132/132/132
f 125/125/125 132/132/132 126/126/126
f 126/126/126 132/132/132 133/133/133
f 127/127/127 134/134/134 128/128/128
f 128/128/128 134/134/134 135/135/135
f 128/128/128 135/135/135 129/129/129
f 129/129/129 135/135/135 136/136/136
f 129/129/129 136/136/136 130/130/130
f 130/130/130 136/136/136 137/137/137
f 130/130/130 137/137/137 131/131/131
f 131/131/131 137/137/137 138/138/138
f 131/131/131 138/138/138 132/132/132
f 132/132/132 138/138/138 139/139/139
f 132/132/132 139/139/139 133/133/133
f 133/133/133 139/139/139 140/140/140
f 134/134/134 141/141/141 135/135/135
f 135/135/135 141/141/141 142/142/142
f 135/135/135 142/142/142 136/136/136
f 136/136/136 142/142/142 143/143/143
f 136/136/136 143/143/143 137/137/137
f 137/137/137 143/143/143 144/144/144
f 137/137/137 144/144/144 138/138/138
f 138/138/138 144/144/144 145/145/145
f 138/138/138 145/145/145 139/139/139
f 139/139/139 145/145/145 146/146/146
f 139/139/139 146/146/146 140/140/140
f 140/140/140 146/146/146 147/147/147
f 148/148/148 149/149/149 153/153/153
f 148/148/148 153/153/153 152/152/152
f 149/149/149 150/150/150 154/154/154
f 149/149/149 154/154/154 153/153/153
f 150/150/150 151/151/151 155/155/155
f 150/150/150 155/155/155 154/154/154
f 151/151/151 148/148/148 152/152/152
f 151/151/151 152/152/152 155/155/155
f 152/152/152 153/153/153 157/157/157
f 152/152/152 157/157/157 156/156/156
f 153/153/153 154/154/154 158/158/158
f 153/153/153 158/158/158 157/157/157
f 154/154/154 155/155/155 159/159/159
f 154/154/154 159/159/159 158/158/158
f 155/155/155 152/152/152 156/156/156
f 155/155/155 156/156/156 159/159/159
f 156/156/156 157/157/157 161/161/161
f 156/156/156 161/161/161 160/160/160
f 157/157/157 158/158/158 162/162/162
f 157/157/157 162/162/162 161/161/161
f 158/158/158 159/159/159 163/163/163
f 158/158/158 163/163/163 162/162/162
f 159/159/159 156/156/156 160/160/160
f 159/159/159 160/160/160 163/163/163
f 160/160/160 161/161/161 165/165/165
f 160/160/160 165/165/165 164/164/164
f 161/161/161 162/162/162 166/166/166
f 161/161/161 166/166/166 165/165/165
f 162/162/162 163/163/163 167/167/167
f 162/162/162 167/167/167 166/166/166
f 163/163/163 160/160/160 164/164/164
f 163/163/163 164/164/164 167/167/167
f 164/164/164 165/165/165 169/169/169
f 164/164/164 169/169/169 168/168/168
f 165/165/165 166/166/166 170/170/170
f 165/165/165 170/170/170 169/169/169
f 166/166/166 167/167/167 171/171/171
f 166/166/166 171/171/171 170/170/170
f 167/167/167 164/164/164 168/168/168
f 167/167/167 168/168/168 171/171/171
f 168/168/168 169/169/169 173/173/173
f 168/168/168 173/173/173 172/172/172
f 169/169/169 170/170/170 174/174/174
f 169/169/169 174/174/174 173/173/173
f 170/170/170 171/171/171 175/175/175
f 170/170/170 175/175/175 174/174/174
f 171/171/171 168/168/168 172/172/172
f 171/171/171 172/172/172 175/175/175
f 172/172/172 173/173/173 177/177/177
f 172/172/172 177/177/177 176/176/176
f 173/173/173 174/174/174 178/178/178
f 173/173/173 178/178/178 177/177/177
f 174/174/174 175/175/175 179/179/179
f 174/174/174 179/179/179 178/178/178
f 175/175/175 172/172/172 176/176/176
f 175/175/175 176/176/176 179/179/179
f 176/176/176 177/177/177 181/181/181
f 176/176/176 181/181/181 180/180/180
f 177/177/177 178/178/178 182/182/182
f 177/177/177 182/182/182 181/181/181
f 178/178/178 179/179/179 183/183/183
f 178/178/178 183/183/183 182/182/182
f 179/179/179 176/176/176 180/180/180
f 179/179/179 180/180/180 183/183/183
f 180/180/180 181/181/181 185/185/185
f 180/180/180 185/185/185 184/184/184
f 181/181/181 182/182/182 186/186/186
f 181/181/181 186/186/186 185/185/185
f 182/182/182 183/183/183 187/187/187
f 182/182/182 187/187/187 186/186/186
f 183/183/183 180/180/180 184/184/184
f 183/183/183 184/184/184 187/187/187
f 184/184/184 185/185/185 189/189/189
f 184/184/184 189/189/189 188/188/188
f 185/185/185 186/186/186 190/190/190
f 185/185/185 190/190/190 189/189/189
f 186/186/186 187/187/187 191/191/191
f 186/186/186 191/191/191 190/190/190
f 187/187/187 184/184/184 188/188/188
f 187/187/187 188/188/188 191/191/191
f 148/148/148 150/150/150 149/149/149
f 188/188/188 189/189/189 190/190/190
f 148/148/148 151/151/151 150/150/150
f 188/188/188 190/190/190 191/191/191
f 192/192/192 193/193/193 197/197/197
f 192/192/192 197/197/197 196/196/196
f 193/193/193 194/194/194 198/198/198
f 193/193/193 198/198/198 197/197/197
f 194/194/194 195/195/195 199/199/199
f 194/194/194 199/199/199 198/198/198
f 195/195/195 192/192/192 196/196/196
f 195/195/195 196/196/196 199/199/199
f 196/196/196 197/197/197 201/201/201
f 196/196/196 201/201/201 200/200/200
f 197/197/197 198/198/198 202/202/202
f 197/197/197 202/202/202 201/201/201
f 198/198/198 199/199/199 203/203/203
f 198/198/198 203/203/203 202/202/202
f 199/199/199 196/196/196 200/200/200
f 199/199/199 200/200/200 203/203/203
f 200/200/200 201/201/201 205/205/205
f 200/200/200 205/205/205 204/204/204
f 201/201/201 202/202/202 206/206/206
f 201/201/201 206/206/206 205/205/205
f 202/202/202 203/203/203 207/207/207
f 202/202/202 207/207/207 206/206/206
f 203/203/203 200/200/200 204/204/204
f 203/203/203 204/204/204 207/207/207
f 204/204/204 205/205/205 209/209/209
f 204/204/204 209/209/209 208/208/208
f 205/205/205 206/206/206 210/210/210
f 205/205/205 210/210/210 209/209/209
f 206/206/206 207/207/207 211/211/211
f 206/206/206 211/211/211 210/210/210
f 207/207/207 204/204/204 208/208/208
f 207/207/207 208/208/208 211/211/211
f 208/208/208 209/209/209 213/213/213
f 208/208/208 213/213/213 212/212/212
f 209/209/209 210/210/210 214/214/214
f 209/209/209 214/214/214 213/213/213
f 210/210/210 211/211/211 215/215/215
f 210/210/210 215/215/215 214/214/214
f 211/211/211 208/208/208 212/212/212
f 211/211/211 212/212/212 215/215/215
f 212/212/212 213/213/213 217/217/217
f 212/212/212 217/217/217 216/216/216
f 213/213/213 214/214/214 218/218/218
f 213/213/213 218/218/218 217/217/217
f 214/214/214 215/215/215 219/219/219
f 214/214/214 219/219/219 218/218/218
f 215/215/215 212/212/212 216/216/216
f 215/215/215 216/216/216 219/219/219
f 216/216/216 217/217/217 221/221/221
f 216/216/216 221/221/221 220/220/220
f 217/217/217 218/218/218 222/222/222
f 217/217/217 222/222/222 221/221/221
f 218/218/218 219/219/219 223/223/223
f 218/218/218 223/223/223 222/222/222
f 219/219/219 216/216/216 220/220/220
f 219/219/219 220/220/220 223/223/223
f 220/220/220 221/221/221 225/225/225
f 220/220/220 225/225/225 224/224/224
f 221/221/221 222/222/222 226/226/226
f 221/221/221 226/226/226 225/225/225
f 222/222/222 223/223/223 227/227/227
f 222/222/222 227/227/227 226/226/226
f 223/223/223 220/220/220 224/224/224
f 223/223/223 224/224/224 227/227/227
f 224/224/224 225/225/225 229/229/229
f 224/224/224 229/229/229 228/228/228
f 225/225/225 226/226/226 230/230/230
f 225/225/225 230/230/230 229/229/229
f 226/226/226 227/227/227 231/231/231
f 226/226/226 231/231/231 230/230/230
f 227/227/227 224/224/224 228/228/228
f 227/227/227 228/228/228 231/231/231
f 228/228/228 229/229/229 233/233/233
f 228/228/228 233/233/233 232/232/232
f 229/229/229 230/230/230 234/234/234
f 229/229/229 234/234/234 233/233/233
f 230/230/230 231/231/231 235/235/235
f 230/230/230 235/235/235 234/234/234
f 231/231/231 228/228/228 232/232/232
f 231/231/231 232/232/232 235/235/235
f 192/192/192 194/194/194 193/193/193
f 232/232/232 233/233/233 234/234/234
f 192/192/192 195/195/195 194/194/194
f 232/232/232 234/234/234 235/235/235
