# Reference-led flame ribbon, Y up, longitudinal flow UVs
o inferno_dome_04_v20
v 3.9399148 0.0400000 -1.4550160
v 4.0310587 0.0400000 -1.1792224
v 4.1029228 0.0400000 -0.8977888
v 4.1551632 0.0400000 -0.6120613
v 4.1875301 0.0400000 -0.3234063
v 4.1998687 0.0400000 -0.0332046
v 4.1921201 0.0400000 0.2571560
v 4.0564939 0.4557900 -1.6884669
v 4.2224197 0.4951246 -1.3266865
v 4.3651723 0.5245987 -0.9506889
v 4.4458783 0.4991310 -0.5561569
v 4.4484581 0.4576750 -0.1533369
v 4.3970957 0.4636386 0.2444503
v 4.3343021 0.5079004 0.6352570
v 4.2064898 0.8699340 -1.8452966
v 4.4290936 0.9476346 -1.4012541
v 4.6099734 1.0058571 -0.9317194
v 4.6873657 0.9555488 -0.4345152
v 4.6443493 0.8736575 0.0675939
v 4.5333150 0.8854379 0.5537130
v 4.4280639 0.9728717 1.0299337
v 4.3704913 1.2807795 -1.9272733
v 4.6105446 1.3949328 -1.3969965
v 4.7973858 1.4804700 -0.8387807
v 4.8620600 1.4065599 -0.2529384
v 4.7868467 1.2862498 0.3314886
v 4.6357335 1.3035570 0.8927696
v 4.4915812 1.4320097 1.4455677
v 4.5043083 1.6866613 -1.9236006
v 4.7295767 1.8344565 -1.3130891
v 4.9177125 1.9452023 -0.6830527
v 4.9896221 1.8495102 -0.0260157
v 4.9060755 1.6937437 0.6293633
v 4.7187845 1.7161514 1.2572445
v 4.5101978 1.8824603 1.8707513
v 4.5728507 2.0858964 -1.8333233
v 4.7835247 2.2636943 -1.1657478
v 4.9984760 2.3969217 -0.4853062
v 5.1034862 2.2818040 0.2321960
v 5.0129953 2.0944166 0.9522501
v 4.7605206 2.1213732 1.6304552
v 4.4455571 2.3214430 2.2706605
v 4.5786151 2.4767801 -1.6775068
v 4.8063476 2.6802028 -0.9822989
v 5.0762414 2.8326313 -0.2642395
v 5.2115423 2.7009225 0.5101869
v 5.0781822 2.4865283 1.2814104
v 4.7159186 2.5173699 1.9759181
v 4.2729268 2.7462744 2.5984020
v 4.5595128 2.8575832 -1.4902904
v 4.8367047 3.0816216 -0.7856608
v 5.1562984 3.2494980 -0.0317349
v 5.2775019 3.1044412 0.7907174
v 5.0494793 2.8683192 1.5819153
v 4.5569570 2.9022865 2.2490852
v 4.0118399 3.1543892 2.8240045
v 4.5544890 3.2265513 -1.2985870
v 4.8774721 3.4656890 -0.5862040
v 5.1967252 3.6448795 0.2003175
v 5.2426991 3.4900465 1.0445729
v 4.8950144 3.2380109 1.8135380
v 4.3032712 3.2742674 2.4237556
v 3.7213734 3.5433608 2.9548707
v 4.5639161 3.5819068 -1.1102840
v 4.8826724 3.8302553 -0.3877086
v 5.1339962 4.0163476 0.4124314
v 5.0718663 3.8555510 1.2388123
v 4.6341671 3.5938078 1.9536229
v 4.0156757 3.6314608 2.5084684
v 3.4642322 3.9109188 3.0246726
v 4.5394804 3.9218520 -0.9201103
v 4.7862892 4.1732962 -0.1978813
v 4.9309330 4.3617082 0.5812746
v 4.7842657 4.1989072 1.3550577
v 4.3293591 3.9339013 2.0100317
v 3.7577117 3.9720236 2.5341413
v 3.2694497 4.2549651 3.0579713
v 4.4152277 4.2445758 -0.7243959
v 4.5513104 4.4929243 -0.0304818
v 4.6073927 4.6790166 0.6926841
v 4.4435956 4.5182200 1.3996594
v 4.0449022 4.2564768 2.0094220
v 3.5557791 4.2941298 2.5223740
v 3.1204717 4.5735878 3.0434942
v 4.1561961 4.5482622 -0.5296635
v 4.1989439 4.7873998 0.1025184
v 4.2279945 4.9665903 0.7500622
v 4.1143615 4.8117573 1.3943183
v 3.8049799 4.5597218 1.9708187
v 3.3864555 4.5959783 2.4643304
v 2.9727483 4.8650716 2.9422589
v 3.7850434 4.8311015 -0.3489660
v 3.7938772 5.0551400 0.1991054
v 3.8565442 5.2230163 0.7689259
v 3.8187780 5.0779595 1.3558721
v 3.5814634 4.8418376 1.8898356
v 3.1971697 4.8758048 2.3306509
v 2.7851607 5.1279076 2.7238874
v 3.3649049 5.0913039 -0.1921138
v 3.3976167 5.2947266 0.2670688
v 3.5132128 5.4471551 0.7632183
v 3.5264506 5.3154463 1.2848309
v 3.3184878 5.1010520 1.7482268
v 2.9434314 5.1318937 2.1028673
v 2.5442555 5.3607981 2.3980198
v 2.9528785 5.3271150 -0.0597964
v 3.0273999 5.5049129 0.3164198
v 3.1671244 5.6381404 0.7366470
v 3.1828643 5.5230227 1.1723672
v 2.9741385 5.3356352 1.5381934
v 2.6165233 5.3625918 1.7965686
v 2.2670296 5.5626616 2.0128583
v 2.5620435 5.5368339 0.0535610
v 2.6523587 5.6846291 0.3516998
v 2.7680226 5.7953749 0.6854756
v 2.7532375 5.6996829 1.0165213
v 2.5483742 5.5439163 1.2772595
v 2.2433059 5.5663241 1.4554816
v 1.9814670 5.7326329 1.6236387
v 2.1615523 5.7188322 0.1509903
v 2.2274234 5.8329855 0.3697074
v 2.2899075 5.9185228 0.6072556
v 2.2476173 5.8446126 0.8305509
v 2.0775494 5.7243025 1.0002494
v 1.8597926 5.7416097 1.1235390
v 1.6992618 5.8700624 1.2603867
v 1.7120842 5.8715752 0.2255544
v 1.7351134 5.9492757 0.3626799
v 1.7514089 6.0074982 0.5057605
v 1.7091810 5.9571899 0.6359253
v 1.6020745 5.8752986 0.7371959
v 1.4803135 5.8870791 0.8209121
v 1.4029887 5.9745128 0.9220052
v 1.2050865 5.9936431 0.2610613
v 1.2005942 6.0329776 0.3234698
v 1.1983993 6.0624517 0.3878679
v 1.1781752 6.0369841 0.4473117
v 1.1354220 5.9955280 0.4971299
v 1.0885411 6.0014917 0.5427543
v 1.0605188 6.0457535 0.5965173
v 0.6661504 6.0837535 0.2565981
v 0.6654114 6.0837535 0.2585085
v 0.6646668 6.0837535 0.2604169
v 0.6639168 6.0837535 0.2623231
v 0.6631614 6.0837535 0.2642271
v 0.6624004 6.0837535 0.2661290
v 0.6616340 6.0837535 0.2680286
v 4.3660962 0.1004254 -1.4471359
v 4.3664647 0.1000000 -1.4469519
v 4.3669149 0.0995248 -1.4468612
v 4.3665011 0.1000000 -1.4470605
v 4.5407325 0.5214780 -1.3965427
v 4.6517401 0.3942970 -1.3351526
v 4.7915956 0.2482067 -1.2951856
v 4.6632294 0.3942970 -1.3635892
v 4.7056460 0.9158266 -1.3530002
v 4.9045840 0.6885940 -1.2027393
v 5.0826867 0.5117489 -1.1241496
v 4.9307648 0.6885940 -1.2458733
v 4.9651129 1.1583467 -1.2314078
v 5.0984165 0.9828909 -1.0505831
v 5.2904618 0.7860898 -0.8880544
v 5.1385025 0.9828909 -1.0885672
v 5.1557386 1.4422527 -1.1132506
v 5.2128984 1.2771879 -0.8797020
v 5.3284918 1.0882186 -0.6302711
v 5.2596676 1.2771879 -0.8964305
v 5.2983578 1.7605840 -0.9507245
v 5.2310256 1.5714849 -0.6910235
v 5.2217748 1.4244221 -0.4820093
v 5.2795305 1.5714849 -0.6830984
v 5.2797455 2.0371497 -0.6458945
v 5.1475016 1.8657819 -0.4910470
v 5.0444939 1.6727804 -0.2865795
v 5.1907053 1.8657819 -0.4627606
v 5.1198195 2.3503375 -0.3893148
v 4.9669812 2.1600788 -0.2862579
v 4.8242103 1.9430060 -0.1323195
v 4.9965084 2.1600788 -0.2522941
v 4.8198958 2.6135660 -0.1424195
v 4.6992524 2.4543758 -0.0886427
v 4.6195817 2.3306527 -0.0231724
v 4.7151129 2.4543758 -0.0620000
v 4.4203826 2.8246835 0.0729822
v 4.3642089 2.7486728 0.0876091
v 4.3086800 2.6627200 0.1222642
v 4.3717105 2.7486728 0.1046122
v 3.9932532 3.0436292 0.2396832
v 3.9927773 3.0429698 0.2397911
v 3.9922893 3.0422200 0.2400525
v 3.9928270 3.0429698 0.2399209
v 4.3661946 0.1005271 1.4465911
v 4.3664308 0.1000000 1.4470424
v 4.3668206 0.0993827 1.4474923
v 4.3665351 0.1000000 1.4469699
v 4.4844784 0.5052254 1.6052890
v 4.5316407 0.3942970 1.7051586
v 4.5862832 0.3074782 1.7725288
v 4.5515331 0.3942970 1.6930494
v 4.6145885 0.8373186 1.8043659
v 4.6559340 0.6885940 1.9627755
v 4.7423344 0.5258979 2.1193700
v 4.6952578 0.6885940 1.9468282
v 4.7098579 1.2118042 1.9099852
v 4.7123478 0.9828909 2.2026154
v 4.7843784 0.7156528 2.5360096
v 4.7761323 0.9828909 2.1950226
v 4.8320907 1.5175308 2.0817419
v 4.7001404 1.2771879 2.4055412
v 4.6508098 1.0892915 2.6751266
v 4.7605585 1.2771879 2.4239991
v 4.7611230 1.7050048 2.4561798
v 4.6100330 1.5714849 2.5713041
v 4.4765946 1.4247938 2.7314374
v 4.6410588 1.5714849 2.6033748
v 4.5869883 2.0067927 2.6472773
v 4.4244325 1.8657819 2.6867288
v 4.2493072 1.7016897 2.7709648
v 4.4374090 1.8657819 2.7221562
v 4.3607564 2.3729407 2.7436227
v 4.1549794 2.1600788 2.7370876
v 3.9972440 1.9938410 2.7711696
v 4.1583141 2.1600788 2.7810927
v 3.9516131 2.6142284 2.7642418
v 3.8226532 2.4543758 2.7307690
v 3.6760334 2.2780048 2.7357443
v 3.8185325 2.4543758 2.7706172
v 3.5181300 2.8466518 2.7020576
v 3.4484832 2.7486728 2.6752890
v 3.3626051 2.6350249 2.6665441
v 3.4437671 2.7486728 2.6959421
v 3.0597745 3.0435451 2.5769848
v 3.0593832 3.0429698 2.5768194
v 3.0590522 3.0425209 2.5767817
v 3.0593543 3.0429698 2.5769221
vt 0.0000000 0.3300000
vt 0.1666667 0.3300000
vt 0.3333333 0.3300000
vt 0.5000000 0.3300000
vt 0.6666667 0.3300000
vt 0.8333333 0.3300000
vt 1.0000000 0.3300000
vt 0.0000000 0.4125000
vt 0.1666667 0.4125000
vt 0.3333333 0.4125000
vt 0.5000000 0.4125000
vt 0.6666667 0.4125000
vt 0.8333333 0.4125000
vt 1.0000000 0.4125000
vt 0.0000000 0.4950000
vt 0.1666667 0.4950000
vt 0.3333333 0.4950000
vt 0.5000000 0.4950000
vt 0.6666667 0.4950000
vt 0.8333333 0.4950000
vt 1.0000000 0.4950000
vt 0.0000000 0.5775000
vt 0.1666667 0.5775000
vt 0.3333333 0.5775000
vt 0.5000000 0.5775000
vt 0.6666667 0.5775000
vt 0.8333333 0.5775000
vt 1.0000000 0.5775000
vt 0.0000000 0.6600000
vt 0.1666667 0.6600000
vt 0.3333333 0.6600000
vt 0.5000000 0.6600000
vt 0.6666667 0.6600000
vt 0.8333333 0.6600000
vt 1.0000000 0.6600000
vt 0.0000000 0.7425000
vt 0.1666667 0.7425000
vt 0.3333333 0.7425000
vt 0.5000000 0.7425000
vt 0.6666667 0.7425000
vt 0.8333333 0.7425000
vt 1.0000000 0.7425000
vt 0.0000000 0.8250000
vt 0.1666667 0.8250000
vt 0.3333333 0.8250000
vt 0.5000000 0.8250000
vt 0.6666667 0.8250000
vt 0.8333333 0.8250000
vt 1.0000000 0.8250000
vt 0.0000000 0.9075000
vt 0.1666667 0.9075000
vt 0.3333333 0.9075000
vt 0.5000000 0.9075000
vt 0.6666667 0.9075000
vt 0.8333333 0.9075000
vt 1.0000000 0.9075000
vt 0.0000000 0.9900000
vt 0.1666667 0.9900000
vt 0.3333333 0.9900000
vt 0.5000000 0.9900000
vt 0.6666667 0.9900000
vt 0.8333333 0.9900000
vt 1.0000000 0.9900000
vt 0.0000000 1.0725000
vt 0.1666667 1.0725000
vt 0.3333333 1.0725000
vt 0.5000000 1.0725000
vt 0.6666667 1.0725000
vt 0.8333333 1.0725000
vt 1.0000000 1.0725000
vt 0.0000000 1.1550000
vt 0.1666667 1.1550000
vt 0.3333333 1.1550000
vt 0.5000000 1.1550000
vt 0.6666667 1.1550000
vt 0.8333333 1.1550000
vt 1.0000000 1.1550000
vt 0.0000000 1.2375000
vt 0.1666667 1.2375000
vt 0.3333333 1.2375000
vt 0.5000000 1.2375000
vt 0.6666667 1.2375000
vt 0.8333333 1.2375000
vt 1.0000000 1.2375000
vt 0.0000000 1.3200000
vt 0.1666667 1.3200000
vt 0.3333333 1.3200000
vt 0.5000000 1.3200000
vt 0.6666667 1.3200000
vt 0.8333333 1.3200000
vt 1.0000000 1.3200000
vt 0.0000000 1.4025000
vt 0.1666667 1.4025000
vt 0.3333333 1.4025000
vt 0.5000000 1.4025000
vt 0.6666667 1.4025000
vt 0.8333333 1.4025000
vt 1.0000000 1.4025000
vt 0.0000000 1.4850000
vt 0.1666667 1.4850000
vt 0.3333333 1.4850000
vt 0.5000000 1.4850000
vt 0.6666667 1.4850000
vt 0.8333333 1.4850000
vt 1.0000000 1.4850000
vt 0.0000000 1.5675000
vt 0.1666667 1.5675000
vt 0.3333333 1.5675000
vt 0.5000000 1.5675000
vt 0.6666667 1.5675000
vt 0.8333333 1.5675000
vt 1.0000000 1.5675000
vt 0.0000000 1.6500000
vt 0.1666667 1.6500000
vt 0.3333333 1.6500000
vt 0.5000000 1.6500000
vt 0.6666667 1.6500000
vt 0.8333333 1.6500000
vt 1.0000000 1.6500000
vt 0.0000000 1.7325000
vt 0.1666667 1.7325000
vt 0.3333333 1.7325000
vt 0.5000000 1.7325000
vt 0.6666667 1.7325000
vt 0.8333333 1.7325000
vt 1.0000000 1.7325000
vt 0.0000000 1.8150000
vt 0.1666667 1.8150000
vt 0.3333333 1.8150000
vt 0.5000000 1.8150000
vt 0.6666667 1.8150000
vt 0.8333333 1.8150000
vt 1.0000000 1.8150000
vt 0.0000000 1.8975000
vt 0.1666667 1.8975000
vt 0.3333333 1.8975000
vt 0.5000000 1.8975000
vt 0.6666667 1.8975000
vt 0.8333333 1.8975000
vt 1.0000000 1.8975000
vt 0.0000000 1.9800000
vt 0.1666667 1.9800000
vt 0.3333333 1.9800000
vt 0.5000000 1.9800000
vt 0.6666667 1.9800000
vt 0.8333333 1.9800000
vt 1.0000000 1.9800000
vt 1.0000000 0.2700000
vt 0.5000000 0.2700000
vt 0.0000000 0.2700000
vt 0.5000000 0.2700000
vt 1.0000000 0.4500000
vt 0.5000000 0.4500000
vt 0.0000000 0.4500000
vt 0.5000000 0.4500000
vt 1.0000000 0.6300000
vt 0.5000000 0.6300000
vt 0.0000000 0.6300000
vt 0.5000000 0.6300000
vt 1.0000000 0.8100000
vt 0.5000000 0.8100000
vt 0.0000000 0.8100000
vt 0.5000000 0.8100000
vt 1.0000000 0.9900000
vt 0.5000000 0.9900000
vt 0.0000000 0.9900000
vt 0.5000000 0.9900000
vt 1.0000000 1.1700000
vt 0.5000000 1.1700000
vt 0.0000000 1.1700000
vt 0.5000000 1.1700000
vt 1.0000000 1.3500000
vt 0.5000000 1.3500000
vt 0.0000000 1.3500000
vt 0.5000000 1.3500000
vt 1.0000000 1.5300000
vt 0.5000000 1.5300000
vt 0.0000000 1.5300000
vt 0.5000000 1.5300000
vt 1.0000000 1.7100000
vt 0.5000000 1.7100000
vt 0.0000000 1.7100000
vt 0.5000000 1.7100000
vt 1.0000000 1.8900000
vt 0.5000000 1.8900000
vt 0.0000000 1.8900000
vt 0.5000000 1.8900000
vt 1.0000000 2.0700000
vt 0.5000000 2.0700000
vt 0.0000000 2.0700000
vt 0.5000000 2.0700000
vt 1.0000000 0.2700000
vt 0.5000000 0.2700000
vt 0.0000000 0.2700000
vt 0.5000000 0.2700000
vt 1.0000000 0.4500000
vt 0.5000000 0.4500000
vt 0.0000000 0.4500000
vt 0.5000000 0.4500000
vt 1.0000000 0.6300000
vt 0.5000000 0.6300000
vt 0.0000000 0.6300000
vt 0.5000000 0.6300000
vt 1.0000000 0.8100000
vt 0.5000000 0.8100000
vt 0.0000000 0.8100000
vt 0.5000000 0.8100000
vt 1.0000000 0.9900000
vt 0.5000000 0.9900000
vt 0.0000000 0.9900000
vt 0.5000000 0.9900000
vt 1.0000000 1.1700000
vt 0.5000000 1.1700000
vt 0.0000000 1.1700000
vt 0.5000000 1.1700000
vt 1.0000000 1.3500000
vt 0.5000000 1.3500000
vt 0.0000000 1.3500000
vt 0.5000000 1.3500000
vt 1.0000000 1.5300000
vt 0.5000000 1.5300000
vt 0.0000000 1.5300000
vt 0.5000000 1.5300000
vt 1.0000000 1.7100000
vt 0.5000000 1.7100000
vt 0.0000000 1.7100000
vt 0.5000000 1.7100000
vt 1.0000000 1.8900000
vt 0.5000000 1.8900000
vt 0.0000000 1.8900000
vt 0.5000000 1.8900000
vt 1.0000000 2.0700000
vt 0.5000000 2.0700000
vt 0.0000000 2.0700000
vt 0.5000000 2.0700000
vn 0.8683158 -0.4045758 -0.2869600
vn 0.8529034 -0.4367171 -0.2860665
vn 0.8529805 -0.4703331 -0.2262987
vn 0.8484460 -0.5050483 -0.1583212
vn 0.8531438 -0.5178027 -0.0634506
vn 0.8756364 -0.4808822 0.0448689
vn 0.8950121 -0.4294308 0.1205924
vn 0.8415446 -0.4338457 -0.3218395
vn 0.8409478 -0.4474475 -0.3042985
vn 0.8543617 -0.4606368 -0.2405824
vn 0.8701016 -0.4731452 -0.1380464
vn 0.8792008 -0.4761799 0.0160818
vn 0.8815607 -0.4476442 0.1498847
vn 0.8821985 -0.4167011 0.2192852
vn 0.8375739 -0.4248108 -0.3435195
vn 0.8603080 -0.4019165 -0.3135812
vn 0.8950728 -0.3795600 -0.2340489
vn 0.9190565 -0.3834007 -0.0913186
vn 0.9055466 -0.4130744 0.0967211
vn 0.8746421 -0.4246443 0.2338343
vn 0.8647116 -0.4125884 0.2864343
vn 0.8737985 -0.3498197 -0.3377905
vn 0.9105288 -0.2846192 -0.2998819
vn 0.9448263 -0.2532365 -0.2077848
vn 0.9555987 -0.2903470 -0.0502965
vn 0.9183201 -0.3721894 0.1347711
vn 0.8613563 -0.4250390 0.2782214
vn 0.8394766 -0.4196274 0.3452418
vn 0.9270898 -0.1921995 -0.3218135
vn 0.9499545 -0.1152855 -0.2903373
vn 0.9706393 -0.1306956 -0.2019355
vn 0.9715820 -0.2320474 -0.0467169
vn 0.9215639 -0.3596827 0.1461106
vn 0.8434398 -0.4254132 0.3280747
vn 0.8122191 -0.3945121 0.4297212
vn 0.9484275 0.0032693 -0.3169774
vn 0.9505753 0.0340124 -0.3086257
vn 0.9710503 -0.0593134 -0.2313942
vn 0.9762895 -0.2073021 -0.0623267
vn 0.9231223 -0.3411752 0.1773265
vn 0.8295716 -0.3739952 0.4146546
vn 0.7945591 -0.2799660 0.5387902
vn 0.9285924 0.1444836 -0.3418197
vn 0.9282527 0.1066393 -0.3563354
vn 0.9625644 -0.0310349 -0.2692705
vn 0.9840311 -0.1721254 -0.0453402
vn 0.9261879 -0.2633273 0.2698791
vn 0.8168535 -0.2178130 0.5341421
vn 0.7771909 -0.0466417 0.6275340
vn 0.8991713 0.1919714 -0.3932402
vn 0.9048803 0.1250960 -0.4068694
vn 0.9620370 0.0170079 -0.2723886
vn 0.9966088 -0.0672156 0.0474657
vn 0.9021199 -0.0823249 0.4235591
vn 0.7751519 0.0425644 0.6303394
vn 0.7410361 0.2225833 0.6335000
vn 0.8744887 0.1963194 -0.4435406
vn 0.8854231 0.1762233 -0.4300828
vn 0.9636317 0.1583272 -0.2152823
vn 0.9662405 0.1413413 0.2154112
vn 0.8060164 0.1695284 0.5670959
vn 0.7059024 0.2903069 0.6460834
vn 0.7174833 0.3891610 0.5777296
vn 0.8454614 0.2613974 -0.4656892
vn 0.8463808 0.3370626 -0.4123449
vn 0.9101009 0.4006846 -0.1056793
vn 0.8418372 0.3849525 0.3783143
vn 0.6800212 0.3752377 0.6298951
vn 0.6685536 0.4260729 0.6095063
vn 0.7368979 0.4323538 0.5196649
vn 0.7770762 0.4440944 -0.4460188
vn 0.7438530 0.5647319 -0.3574360
vn 0.7789891 0.6270295 -0.0031793
vn 0.6955689 0.5527788 0.4589329
vn 0.6064440 0.4872013 0.6283793
vn 0.6851540 0.4655357 0.5602147
vn 0.7747451 0.4247746 0.4683338
vn 0.6482387 0.6527484 -0.3920536
vn 0.6106043 0.7308897 -0.3048978
vn 0.6551689 0.7544308 0.0398481
vn 0.6109050 0.6385856 0.4679781
vn 0.5981806 0.5381774 0.5937550
vn 0.7173428 0.4843950 0.5007802
vn 0.7825928 0.4754328 0.4018858
vn 0.5205577 0.7791888 -0.3491196
vn 0.5139587 0.8069350 -0.2910368
vn 0.5883545 0.8082233 0.0247792
vn 0.5856135 0.6838881 0.4351482
vn 0.6029047 0.5856495 0.5417754
vn 0.7023285 0.5723510 0.4232600
vn 0.7250400 0.6185141 0.3029148
vn 0.4383222 0.8296671 -0.3457256
vn 0.4625760 0.8274121 -0.3184534
vn 0.5601115 0.8279690 -0.0272465
vn 0.5586351 0.7308125 0.3922243
vn 0.5395440 0.6831423 0.4921472
vn 0.6096095 0.7215820 0.3281702
vn 0.6239805 0.7578759 0.1904532
vn 0.3918963 0.8378451 -0.3800432
vn 0.4310123 0.8221562 -0.3718704
vn 0.5210328 0.8499522 -0.0781419
vn 0.4564705 0.8041210 0.3808204
vn 0.3920658 0.7998238 0.4544957
vn 0.4917791 0.8376573 0.2376626
vn 0.5452063 0.8328904 0.0950983
vn 0.3541737 0.8281094 -0.4345065
vn 0.3874748 0.8196840 -0.4218785
vn 0.4322016 0.8978399 -0.0841738
vn 0.2904486 0.8668105 0.4053137
vn 0.2433106 0.8697629 0.4293162
vn 0.4124374 0.8956703 0.1663435
vn 0.5140748 0.8576375 0.0135988
vn 0.3034611 0.8231915 -0.4798616
vn 0.3205683 0.8375787 -0.4423776
vn 0.3113577 0.9492369 -0.0447847
vn 0.1433761 0.8869742 0.4389989
vn 0.1456544 0.8973277 0.4166388
vn 0.3826827 0.9183528 0.1009067
vn 0.5200992 0.8508156 -0.0748977
vn 0.2431215 0.8318209 -0.4989649
vn 0.2497809 0.8628575 -0.4394159
vn 0.2041271 0.9789297 0.0053631
vn 0.0445021 0.8808607 0.4712791
vn 0.0939166 0.9089296 0.4062347
vn 0.3883330 0.9213646 0.0168758
vn 0.5344493 0.8243361 -0.1866386
vn 0.1933738 0.8413650 -0.5046895
vn 0.1966919 0.8777792 -0.4368250
vn 0.1238723 0.9909811 0.0511082
vn -0.0221528 0.8662341 0.4991470
vn 0.0723610 0.9230908 0.3777132
vn 0.4019756 0.9099524 -0.1019912
vn 0.5187457 0.7966116 -0.3103430
vn 0.1627090 0.8429927 -0.5127271
vn 0.1613898 0.8852568 -0.4362037
vn 0.0518532 0.9908324 0.1247497
vn -0.0748512 0.8516275 0.5187753
vn 0.0765811 0.9531255 0.2927236
vn 0.4002529 0.8833613 -0.2438658
vn 0.4669646 0.7904554 -0.3963891
vn 0.1442226 0.8493723 -0.5077071
vn 0.1320046 0.9125185 -0.3871495
vn -0.0471918 0.9321181 0.3590665
vn -0.1181355 0.8304330 0.5444494
vn 0.1636589 0.9856512 0.0413219
vn 0.4190729 0.8109185 -0.4083983
vn 0.0712967 0.9970403 0.0287633
vn -0.4236699 0.0671345 0.9033254
vn -0.3210073 -0.0482685 0.9458459
vn 0.3680987 -0.1096525 -0.9232983
vn 0.2655644 0.0055721 -0.9640770
vn -0.6674179 0.1534243 0.7287073
vn -0.4109923 -0.0331046 0.9110375
vn 0.5825791 -0.3307639 -0.7424263
vn 0.3628137 -0.0317596 -0.9313203
vn -0.8780987 0.4564791 -0.1434204
vn -0.5511758 -0.0168901 0.8342182
vn 0.8132956 -0.5781903 0.0651639
vn 0.5121909 -0.0282343 -0.8584074
vn -0.3993394 0.4570105 -0.7947763
vn -0.7460724 -0.0069462 0.6658286
vn 0.6941556 -0.4817173 0.5348799
vn 0.7326626 -0.0265737 -0.6800730
vn -0.3411604 0.3829476 -0.8584642
vn -0.9440545 -0.0004630 0.3297892
vn 0.1479591 -0.3619770 0.9203699
vn 0.9452712 -0.0111820 -0.3260940
vn 0.1841962 0.4090056 -0.8937484
vn -0.9898942 0.0116440 -0.1413288
vn -0.1400531 -0.3826058 0.9132349
vn 0.9894198 0.0215529 0.1434711
vn 0.5501123 0.4998802 -0.6689516
vn -0.8540464 0.0062920 -0.5201587
vn -0.2103337 -0.4697075 0.8573999
vn 0.8376574 0.0232900 0.5456992
vn 0.6805500 0.6203872 -0.3898350
vn -0.6798439 0.0125184 -0.7332500
vn -0.8738955 -0.4544327 0.1726196
vn 0.6524775 0.0263394 0.7573502
vn 0.7595303 0.4895060 0.4283663
vn -0.5366358 0.0139792 -0.8436982
vn -0.8528905 -0.3418252 -0.3946307
vn 0.5094163 0.0210171 0.8602635
vn 0.5537731 0.2617040 0.7904722
vn -0.4288034 0.0212586 -0.9031477
vn -0.6464462 -0.2505771 -0.7206375
vn 0.3951492 0.0002854 0.9186169
vn 0.4115168 0.1145559 0.9041741
vn -0.3341885 0.0645032 -0.9402964
vn -0.4337944 -0.0830872 -0.8971727
vn 0.3129513 -0.0334425 0.9491802
vn -0.8728451 0.0654199 0.4835925
vn -0.8103958 -0.0565826 0.5831441
vn 0.8564197 -0.1186443 -0.5024628
vn 0.7971095 0.0036841 -0.6038235
vn -0.9665357 0.1979907 0.1631208
vn -0.8741205 -0.0288116 0.4848538
vn 0.9176478 -0.2914627 -0.2701333
vn 0.8482498 -0.0203506 -0.5292052
vn -0.8481781 0.3096462 -0.4297826
vn -0.9499889 -0.0316780 0.3106729
vn 0.8899564 -0.4376289 0.1282913
vn 0.9243946 -0.0482172 -0.3783779
vn -0.4730268 0.3404840 -0.8125985
vn -0.9973994 -0.0299725 0.0655448
vn 0.2761147 -0.5190213 0.8089360
vn 0.9917448 -0.0548262 -0.1159156
vn 0.5914447 0.4389261 -0.6764149
vn -0.9637361 0.0291114 -0.2652644
vn -0.5968564 -0.2964003 0.7455933
vn 0.9578331 0.0228812 0.2864126
vn 0.8661860 0.4271408 -0.2593694
vn -0.7489452 0.0325655 -0.6618312
vn -0.7370086 -0.3396650 0.5843338
vn 0.6997189 0.0469066 0.7128768
vn 0.6851564 0.4233533 -0.5927332
vn -0.3646616 -0.0000664 -0.9311401
vn -0.8095231 -0.4613687 0.3630583
vn 0.3470112 0.0193223 0.9376619
vn 0.7959830 0.5944982 -0.1139429
vn -0.0884511 -0.0009836 -0.9960800
vn -0.8158136 -0.5708016 0.0929179
vn 0.0833080 0.0179305 0.9963625
vn 0.3988504 0.5327963 0.7463555
vn 0.0756378 0.0112778 -0.9970716
vn -0.6698420 -0.5574630 -0.4904556
vn -0.1091114 0.0134469 0.9939386
vn -0.0103079 0.2997106 0.9539745
vn 0.1980153 0.0267759 -0.9798331
vn -0.0656752 -0.2041097 -0.9767426
vn -0.2347641 0.0057394 0.9720354
vn -0.2188993 0.1066812 0.9698980
vn 0.2856204 0.0575988 -0.9566103
vn 0.1931935 -0.0716235 -0.9785430
vn -0.3115868 -0.0227199 0.9499460
s 1
f 1/1/1 8/8/8 2/2/2
f 2/2/2 8/8/8 9/9/9
f 2/2/2 9/9/9 3/3/3
f 3/3/3 9/9/9 10/10/10
f 3/3/3 10/10/10 4/4/4
f 4/4/4 10/10/10 11/11/11
f 4/4/4 11/11/11 5/5/5
f 5/5/5 11/11/11 12/12/12
f 5/5/5 12/12/12 6/6/6
f 6/6/6 12/12/12 13/13/13
f 6/6/6 13/13/13 7/7/7
f 7/7/7 13/13/13 14/14/14
f 8/8/8 15/15/15 9/9/9
f 9/9/9 15/15/15 16/16/16
f 9/9/9 16/16/16 10/10/10
f 10/10/10 16/16/16 17/17/17
f 10/10/10 17/17/17 11/11/11
f 11/11/11 17/17/17 18/18/18
f 11/11/11 18/18/18 12/12/12
f 12/12/12 18/18/18 19/19/19
f 12/12/12 19/19/19 13/13/13
f 13/13/13 19/19/19 20/20/20
f 13/13/13 20/20/20 14/14/14
f 14/14/14 20/20/20 21/21/21
f 15/15/15 22/22/22 16/16/16
f 16/16/16 22/22/22 23/23/23
f 16/16/16 23/23/23 17/17/17
f 17/17/17 23/23/23 24/24/24
f 17/17/17 24/24/24 18/18/18
f 18/18/18 24/24/24 25/25/25
f 18/18/18 25/25/25 19/19/19
f 19/19/19 25/25/25 26/26/26
f 19/19/19 26/26/26 20/20/20
f 20/20/20 26/26/26 27/27/27
f 20/20/20 27/27/27 21/21/21
f 21/21/21 27/27/27 28/28/28
f 22/22/22 29/29/29 23/23/23
f 23/23/23 29/29/29 30/30/30
f 23/23/23 30/30/30 24/24/24
f 24/24/24 30/30/30 31/31/31
f 24/24/24 31/31/31 25/25/25
f 25/25/25 31/31/31 32/32/32
f 25/25/25 32/32/32 26/26/26
f 26/26/26 32/32/32 33/33/33
f 26/26/26 33/33/33 27/27/27
f 27/27/27 33/33/33 34/34/34
f 27/27/27 34/34/34 28/28/28
f 28/28/28 34/34/34 35/35/35
f 29/29/29 36/36/36 30/30/30
f 30/30/30 36/36/36 37/37/37
f 30/30/30 37/37/37 31/31/31
f 31/31/31 37/37/37 38/38/38
f 31/31/31 38/38/38 32/32/32
f 32/32/32 38/38/38 39/39/39
f 32/32/32 39/39/39 33/33/33
f 33/33/33 39/39/39 40/40/40
f 33/33/33 40/40/40 34/34/34
f 34/34/34 40/40/40 41/41/41
f 34/34/34 41/41/41 35/35/35
f 35/35/35 41/41/41 42/42/42
f 36/36/36 43/43/43 37/37/37
f 37/37/37 43/43/43 44/44/44
f 37/37/37 44/44/44 38/38/38
f 38/38/38 44/44/44 45/45/45
f 38/38/38 45/45/45 39/39/39
f 39/39/39 45/45/45 46/46/46
f 39/39/39 46/46/46 40/40/40
f 40/40/40 46/46/46 47/47/47
f 40/40/40 47/47/47 41/41/41
f 41/41/41 47/47/47 48/48/48
f 41/41/41 48/48/48 42/42/42
f 42/42/42 48/48/48 49/49/49
f 43/43/43 50/50/50 44/44/44
f 44/44/44 50/50/50 51/51/51
f 44/44/44 51/51/51 45/45/45
f 45/45/45 51/51/51 52/52/52
f 45/45/45 52/52/52 46/46/46
f 46/46/46 52/52/52 53/53/53
f 46/46/46 53/53/53 47/47/47
f 47/47/47 53/53/53 54/54/54
f 47/47/47 54/54/54 48/48/48
f 48/48/48 54/54/54 55/55/55
f 48/48/48 55/55/55 49/49/49
f 49/49/49 55/55/55 56/56/56
f 50/50/50 57/57/57 51/51/51
f 51/51/51 57/57/57 58/58/58
f 51/51/51 58/58/58 52/52/52
f 52/52/52 58/58/58 59/59/59
f 52/52/52 59/59/59 53/53/53
f 53/53/53 59/59/59 60/60/60
f 53/53/53 60/60/60 54/54/54
f 54/54/54 60/60/60 61/61/61
f 54/54/54 61/61/61 55/55/55
f 55/55/55 61/61/61 62/62/62
f 55/55/55 62/62/62 56/56/56
f 56/56/56 62/62/62 63/63/63
f 57/57/57 64/64/64 58/58/58
f 58/58/58 64/64/64 65/65/65
f 58/58/58 65/65/65 59/59/59
f 59/59/59 65/65/65 66/66/66
f 59/59/59 66/66/66 60/60/60
f 60/60/60 66/66/66 67/67/67
f 60/60/60 67/67/67 61/61/61
f 61/61/61 67/67/67 68/68/68
f 61/61/61 68/68/68 62/62/62
f 62/62/62 68/68/68 69/69/69
f 62/62/62 69/69/69 63/63/63
f 63/63/63 69/69/69 70/70/70
f 64/64/64 71/71/71 65/65/65
f 65/65/65 71/71/71 72/72/72
f 65/65/65 72/72/72 66/66/66
f 66/66/66 72/72/72 73/73/73
f 66/66/66 73/73/73 67/67/67
f 67/67/67 73/73/73 74/74/74
f 67/67/67 74/74/74 68/68/68
f 68/68/68 74/74/74 75/75/75
f 68/68/68 75/75/75 69/69/69
f 69/69/69 75/75/75 76/76/76
f 69/69/69 76/76/76 70/70/70
f 70/70/70 76/76/76 77/77/77
f 71/71/71 78/78/78 72/72/72
f 72/72/72 78/78/78 79/79/79
f 72/72/72 79/79/79 73/73/73
f 73/73/73 79/79/79 80/80/80
f 73/73/73 80/80/80 74/74/74
f 74/74/74 80/80/80 81/81/81
f 74/74/74 81/81/81 75/75/75
f 75/75/75 81/81/81 82/82/82
f 75/75/75 82/82/82 76/76/76
f 76/76/76 82/82/82 83/83/83
f 76/76/76 83/83/83 77/77/77
f 77/77/77 83/83/83 84/84/84
f 78/78/78 85/85/85 79/79/79
f 79/79/79 85/85/85 86/86/86
f 79/79/79 86/86/86 80/80/80
f 80/80/80 86/86/86 87/87/87
f 80/80/80 87/87/87 81/81/81
f 81/81/81 87/87/87 88/88/88
f 81/81/81 88/88/88 82/82/82
f 82/82/82 88/88/88 89/89/89
f 82/82/82 89/89/89 83/83/83
f 83/83/83 89/89/89 90/90/90
f 83/83/83 90/90/90 84/84/84
f 84/84/84 90/90/90 91/91/91
f 85/85/85 92/92/92 86/86/86
f 86/86/86 92/92/92 93/93/93
f 86/86/86 93/93/93 87/87/87
f 87/87/87 93/93/93 94/94/94
f 87/87/87 94/94/94 88/88/88
f 88/88/88 94/94/94 95/95/95
f 88/88/88 95/95/95 89/89/89
f 89/89/89 95/95/95 96/96/96
f 89/89/89 96/96/96 90/90/90
f 90/90/90 96/96/96 97/97/97
f 90/90/90 97/97/97 91/91/91
f 91/91/91 97/97/97 98/98/98
f 92/92/92 99/99/99 93/93/93
f 93/93/93 99/99/99 100/100/100
f 93/93/93 100/100/100 94/94/94
f 94/94/94 100/100/100 101/101/101
f 94/94/94 101/101/101 95/95/95
f 95/95/95 101/101/101 102/102/102
f 95/95/95 102/102/102 96/96/96
f 96/96/96 102/102/102 103/103/103
f 96/96/96 103/103/103 97/97/97
f 97/97/97 103/103/103 104/104/104
f 97/97/97 104/104/104 98/98/98
f 98/98/98 104/104/104 105/105/105
f 99/99/99 106/106/106 100/100/100
f 100/100/100 106/106/106 107/107/107
f 100/100/100 107/107/107 101/101/101
f 101/101/101 107/107/107 108/108/108
f 101/101/101 108/108/108 102/102/102
f 102/102/102 108/108/108 109/109/109
f 102/102/102 109/109/109 103/103/103
f 103/103/103 109/109/109 110/110/110
f 103/103/103 110/110/110 104/104/104
f 104/104/104 110/110/110 111/111/111
f 104/104/104 111/111/111 105/105/105
f 105/105/105 111/111/111 112/112/112
f 106/106/106 113/113/113 107/107/107
f 107/107/107 113/113/113 114/114/114
f 107/107/107 114/114/114 108/108/108
f 108/108/108 114/114/114 115/115/115
f 108/108/108 115/115/115 109/109/109
f 109/109/109 115/115/115 116/116/116
f 109/109/109 116/116/116 110/110/110
f 110/110/110 116/116/116 117/117/117
f 110/110/110 117/117/117 111/111/111
f 111/111/111 117/117/117 118/118/118
f 111/111/111 118/118/118 112/112/112
f 112/112/112 118/118/118 119/119/119
f 113/113/113 120/120/120 114/114/114
f 114/114/114 120/120/120 121/121/121
f 114/114/114 121/121/121 115/115/115
f 115/115/115 121/121/121 122/122/122
f 115/115/115 122/122/122 116/116/116
f 116/116/116 122/122/122 123/123/123
f 116/116/116 123/123/123 117/117/117
f 117/117/117 123/123/123 124/124/124
f 117/117/117 124/124/124 118/118/118
f 118/118/118 124/124/124 125/125/125
f 118/118/118 125/125/125 119/119/119
f 119/119/119 125/125/125 126/126/126
f 120/120/120 127/127/127 121/121/121
f 121/121/121 127/127/127 128/128/128
f 121/121/121 128/128/128 122/122/122
f 122/122/122 128/128/128 129/129/129
f 122/122/122 129/129/129 123/123/123
f 123/123/123 129/129/129 130/130/130
f 123/123/123 130/130/130 124/124/124
f 124/124/124 130/130/130 131/131/131
f 124/124/124 131/131/131 125/125/125
f 125/125/125 131/131/131 132/132/132
f 125/125/125 132/132/132 126/126/126
f 126/126/126 132/132/132 133/133/133
f 127/127/127 134/134/134 128/128/128
f 128/128/128 134/134/134 135/135/135
f 128/128/128 135/135/135 129/129/129
f 129/129/129 135/135/135 136/136/136
f 129/129/129 136/136/136 130/130/130
f 130/130/130 136/136/136 137/137/137
f 130/130/130 137/137/137 131/131/131
f 131/131/131 137/137/137 138/138/138
f 131/131/131 138/138/138 132/132/132
f 132/132/132 138/138/138 139/139/139
f 132/132/132 139/139/139 133/133/133
f 133/133/133 139/139/139 140/140/140
f 134/134/134 141/141/141 135/135/135
f 135/135/135 141/141/141 142/142/142
f 135/135/135 142/142/142 136/136/136
f 136/136/136 142/142/142 143/143/143
f 136/136/136 143/143/143 137/137/137
f 137/137/137 143/143/143 144/144/144
f 137/137/137 144/144/144 138/138/138
f 138/138/138 144/144/144 145/145/145
f 138/138/138 145/145/145 139/139/139
f 139/139/139 145/145/145 146/146/146
f 139/139/139 146/146/146 140/140/140
f 140/140/140 146/146/146 147/147/147
f 148/148/148 149/149/149 153/153/153
f 148/148/148 153/153/153 152/152/152
f 149/149/149 150/150/150 154/154/154
f 149/149/149 154/154/154 153/153/153
f 150/150/150 151/151/151 155/155/155
f 150/150/150 155/155/155 154/154/154
f 151/151/151 148/148/148 152/152/152
f 151/151/151 152/152/152 155/155/155
f 152/152/152 153/153/153 157/157/157
f 152/152/152 157/157/157 156/156/156
f 153/153/153 154/154/154 158/158/158
f 153/153/153 158/158/158 157/157/157
f 154/154/154 155/155/155 159/159/159
f 154/154/154 159/159/159 158/158/158
f 155/155/155 152/152/152 156/156/156
f 155/155/155 156/156/156 159/159/159
f 156/156/156 157/157/157 161/161/161
f 156/156/156 161/161/161 160/160/160
f 157/157/157 158/158/158 162/162/162
f 157/157/157 162/162/162 161/161/161
f 158/158/158 159/159/159 163/163/163
f 158/158/158 163/163/163 162/162/162
f 159/159/159 156/156/156 160/160/160
f 159/159/159 160/160/160 163/163/163
f 160/160/160 161/161/161 165/165/165
f 160/160/160 165/165/165 164/164/164
f 161/161/161 162/162/162 166/166/166
f 161/161/161 166/166/166 165/165/165
f 162/162/162 163/163/163 167/167/167
f 162/162/162 167/167/167 166/166/166
f 163/163/163 160/160/160 164/164/164
f 163/163/163 164/164/164 167/167/167
f 164/164/164 165/165/165 169/169/169
f 164/164/164 169/169/169 168/168/168
f 165/165/165 166/166/166 170/170/170
f 165/165/165 170/170/170 169/169/169
f 166/166/166 167/167/167 171/171/171
f 166/166/166 171/171/171 170/170/170
f 167/167/167 164/164/164 168/168/168
f 167/167/167 168/168/168 171/171/171
f 168/168/168 169/169/169 173/173/173
f 168/168/168 173/173/173 172/172/172
f 169/169/169 170/170/170 174/174/174
f 169/169/169 174/174/174 173/173/173
f 170/170/170 171/171/171 175/175/175
f 170/170/170 175/175/175 174/174/174
f 171/171/171 168/168/168 172/172/172
f 171/171/171 172/172/172 175/175/175
f 172/172/172 173/173/173 177/177/177
f 172/172/172 177/177/177 176/176/176
f 173/173/173 174/174/174 178/178/178
f 173/173/173 178/178/178 177/177/177
f 174/174/174 175/175/175 179/179/179
f 174/174/174 179/179/179 178/178/178
f 175/175/175 172/172/172 176/176/176
f 175/175/175 176/176/176 179/179/179
f 176/176/176 177/177/177 181/181/181
f 176/176/176 181/181/181 180/180/180
f 177/177/177 178/178/178 182/182/182
f 177/177/177 182/182/182 181/181/181
f 178/178/178 179/179/179 183/183/183
f 178/178/178 183/183/183 182/182/182
f 179/179/179 176/176/176 180/180/180
f 179/179/179 180/180/180 183/183/183
f 180/180/180 181/181/181 185/185/185
f 180/180/180 185/185/185 184/184/184
f 181/181/181 182/182/182 186/186/186
f 181/181/181 186/186/186 185/185/185
f 182/182/182 183/183/183 187/187/187
f 182/182/182 187/187/187 186/186/186
f 183/183/183 180/180/180 184/184/184
f 183/183/183 184/184/184 187/187/187
f 184/184/184 185/185/185 189/189/189
f 184/184/184 189/189/189 188/188/188
f 185/185/185 186/186/186 190/190/190
f 185/185/185 190/190/190 189/189/189
f 186/186/186 187/187/187 191/191/191
f 186/186/186 191/191/191 190/190/190
f 187/187/187 184/184/184 188/188/188
f 187/187/187 188/188/188 191/191/191
f 148/148/148 150/150/150 149/149/149
f 188/188/188 189/189/189 190/190/190
f 148/148/148 151/151/151 150/150/150
f 188/188/188 190/190/190 191/191/191
f 192/192/192 193/193/193 197/197/197
f 192/192/192 197/197/197 196/196/196
f 193/193/193 194/194/194 198/198/198
f 193/193/193 198/198/198 197/197/197
f 194/194/194 195/195/195 199/199/199
f 194/194/194 199/199/199 198/198/198
f 195/195/195 192/192/192 196/196/196
f 195/195/195 196/196/196 199/199/199
f 196/196/196 197/197/197 201/201/201
f 196/196/196 201/201/201 200/200/200
f 197/197/197 198/198/198 202/202/202
f 197/197/197 202/202/202 201/201/201
f 198/198/198 199/199/199 203/203/203
f 198/198/198 203/203/203 202/202/202
f 199/199/199 196/196/196 200/200/200
f 199/199/199 200/200/200 203/203/203
f 200/200/200 201/201/201 205/205/205
f 200/200/200 205/205/205 204/204/204
f 201/201/201 202/202/202 206/206/206
f 201/201/201 206/206/206 205/205/205
f 202/202/202 203/203/203 207/207/207
f 202/202/202 207/207/207 206/206/206
f 203/203/203 200/200/200 204/204/204
f 203/203/203 204/204/204 207/207/207
f 204/204/204 205/205/205 209/209/209
f 204/204/204 209/209/209 208/208/208
f 205/205/205 206/206/206 210/210/210
f 205/205/205 210/210/210 209/209/209
f 206/206/206 207/207/207 211/211/211
f 206/206/206 211/211/211 210/210/210
f 207/207/207 204/204/204 208/208/208
f 207/207/207 208/208/208 211/211/211
f 208/208/208 209/209/209 213/213/213
f 208/208/208 213/213/213 212/212/212
f 209/209/209 210/210/210 214/214/214
f 209/209/209 214/214/214 213/213/213
f 210/210/210 211/211/211 215/215/215
f 210/210/210 215/215/215 214/214/214
f 211/211/211 208/208/208 212/212/212
f 211/211/211 212/212/212 215/215/215
f 212/212/212 213/213/213 217/217/217
f 212/212/212 217/217/217 216/216/216
f 213/213/213 214/214/214 218/218/218
f 213/213/213 218/218/218 217/217/217
f 214/214/214 215/215/215 219/219/219
f 214/214/214 219/219/219 218/218/218
f 215/215/215 212/212/212 216/216/216
f 215/215/215 216/216/216 219/219/219
f 216/216/216 217/217/217 221/221/221
f 216/216/216 221/221/221 220/220/220
f 217/217/217 218/218/218 222/222/222
f 217/217/217 222/222/222 221/221/221
f 218/218/218 219/219/219 223/223/223
f 218/218/218 223/223/223 222/222/222
f 219/219/219 216/216/216 220/220/220
f 219/219/219 220/220/220 223/223/223
f 220/220/220 221/221/221 225/225/225
f 220/220/220 225/225/225 224/224/224
f 221/221/221 222/222/222 226/226/226
f 221/221/221 226/226/226 225/225/225
f 222/222/222 223/223/223 227/227/227
f 222/222/222 227/227/227 226/226/226
f 223/223/223 220/220/220 224/224/224
f 223/223/223 224/224/224 227/227/227
f 224/224/224 225/225/225 229/229/229
f 224/224/224 229/229/229 228/228/228
f 225/225/225 226/226/226 230/230/230
f 225/225/225 230/230/230 229/229/229
f 226/226/226 227/227/227 231/231/231
f 226/226/226 231/231/231 230/230/230
f 227/227/227 224/224/224 228/228/228
f 227/227/227 228/228/228 231/231/231
f 228/228/228 229/229/229 233/233/233
f 228/228/228 233/233/233 232/232/232
f 229/229/229 230/230/230 234/234/234
f 229/229/229 234/234/234 233/233/233
f 230/230/230 231/231/231 235/235/235
f 230/230/230 235/235/235 234/234/234
f 231/231/231 228/228/228 232/232/232
f 231/231/231 232/232/232 235/235/235
f 192/192/192 194/194/194 193/193/193
f 232/232/232 233/233/233 234/234/234
f 192/192/192 195/195/195 194/194/194
f 232/232/232 234/234/234 235/235/235
