# Reference-led flame ribbon, Y up, longitudinal flow UVs
o inferno_dome_03_v20
v 4.0943278 0.0400000 -0.9362052
v 4.1432875 0.0400000 -0.6878723
v 4.1771994 0.0400000 -0.4370411
v 4.1959402 0.0400000 -0.1846227
v 4.1994419 0.0400000 0.0684663
v 4.1876917 0.0400000 0.3213066
v 4.1607324 0.0400000 0.5729800
v 4.1677084 0.5165979 -1.3567319
v 4.2751803 0.4905363 -1.0294508
v 4.3847548 0.5194608 -0.6980835
v 4.4579654 0.5591306 -0.3550014
v 4.4672529 0.5488698 -0.0046853
v 4.4207989 0.5043726 0.3427113
v 4.3516918 0.4936985 0.6834632
v 4.2018240 0.9907765 -1.7135478
v 4.3932906 0.9392951 -1.3301529
v 4.5904611 0.9964318 -0.9342101
v 4.7102690 1.0747947 -0.5085203
v 4.7035700 1.0545257 -0.0673476
v 4.6020923 0.9666268 0.3639001
v 4.4862607 0.9455415 0.7799592
v 4.2414221 1.4601251 -2.0115410
v 4.5175919 1.3844914 -1.5843735
v 4.7805555 1.4684335 -1.1282782
v 4.9155108 1.5835599 -0.6238340
v 4.8715946 1.5537819 -0.1008576
v 4.7175442 1.4246457 0.4011805
v 4.5782721 1.3936683 0.8822599
v 4.3039278 1.9222502 -2.2470272
v 4.6316105 1.8243266 -1.7721969
v 4.9182022 1.9330071 -1.2543908
v 5.0423689 2.0820622 -0.6797985
v 4.9669139 2.0435084 -0.0908649
v 4.7911424 1.8763147 0.4682609
v 4.6600559 1.8362081 1.0085759
v 4.3691906 2.3747843 -2.3966790
v 4.6989106 2.2569820 -1.8646482
v 4.9778272 2.3877249 -1.2912781
v 5.0958488 2.5670384 -0.6654727
v 5.0227642 2.5206581 -0.0296396
v 4.8602767 2.3195238 0.5764571
v 4.7441503 2.2712754 1.1710826
v 4.3994865 2.8153948 -2.4287203
v 4.6972769 2.6806146 -1.8438934
v 4.9715909 2.8302004 -1.2362182
v 5.1164952 3.0353571 -0.5825249
v 5.0798861 2.9822924 0.0862922
v 4.9351955 2.7521700 0.7324344
v 4.7999035 2.6969679 1.3682081
v 4.3722491 3.2417935 -2.3298618
v 4.6416053 3.0933540 -1.7187989
v 4.9438568 3.2580996 -1.1039432
v 5.1462631 3.4840478 -0.4371292
v 5.1449748 3.4256052 0.2585802
v 4.9784986 3.1721612 0.9325554
v 4.7684703 3.1113647 1.5808820
v 4.3002525 3.6517457 -2.1208240
v 4.5757170 3.4933020 -1.5182905
v 4.9352665 3.6691507 -0.9112543
v 5.1874600 3.9103269 -0.2324847
v 5.1737291 3.8479455 0.4826091
v 4.9255662 3.5774205 1.1574969
v 4.6066065 3.5125265 1.7793603
v 4.2228889 4.0430802 -1.8432588
v 4.5366508 3.8785337 -1.2685969
v 4.9433907 4.0611556 -0.6652611
v 5.1896116 4.3116212 0.0265915
v 5.0963232 4.2468371 0.7390898
v 4.7322041 3.9658922 1.3757193
v 4.3230489 3.8984987 1.9399595
v 4.1720103 4.4136994 -1.5304649
v 4.5175066 4.2471018 -0.9786855
v 4.9130800 4.4320001 -0.3696341
v 5.0791362 4.6855877 0.3212226
v 4.8679937 4.6199961 0.9939498
v 4.4107923 4.3355492 1.5585964
v 3.9757267 4.2673157 2.0592940
v 4.1368021 4.7615896 -1.1916441
v 4.4604144 4.5970431 -0.6495146
v 4.7691205 4.7796650 -0.0416646
v 4.8117343 5.0301305 0.6150278
v 4.5042950 4.9653464 1.2126917
v 4.0239949 4.6844016 1.6959091
v 3.6312934 4.6170081 2.1507453
v 4.0584509 5.0848317 -0.8249847
v 4.2908845 4.9263880 -0.2957723
v 4.4691677 5.1022367 0.2814833
v 4.4060129 5.3434129 0.8685010
v 4.0713631 5.2810315 1.3779323
v 3.6407911 5.0105065 1.7950630
v 3.3209704 4.9456125 2.2225529
v 3.8652856 5.3816121 -0.4434878
v 3.9701664 5.2331726 0.0459042
v 4.0349503 5.3979182 0.5577535
v 3.9303121 5.6238664 1.0588511
v 3.6391993 5.5654238 1.4914748
v 3.2916351 5.3119798 1.8618092
v 3.0284015 5.2511833 2.2573840
v 3.5238183 5.6502337 -0.0838955
v 3.5233554 5.5154535 0.3330449
v 3.5356526 5.6650393 0.7620790
v 3.4539977 5.8701960 1.1844001
v 3.2371291 5.8171313 1.5572909
v 2.9583890 5.5870089 1.8814055
v 2.7154089 5.5318068 2.2160743
v 3.0632249 5.8891270 0.2112272
v 3.0193681 5.7713247 0.5408110
v 3.0380139 5.9020676 0.8921173
v 3.0042734 6.0813811 1.2490276
v 2.8463772 6.0350008 1.5638566
v 2.6025011 5.8338665 1.8219819
v 2.3596095 5.7856181 2.0660890
v 2.5519156 6.0968610 0.4180930
v 2.5206673 5.9989374 0.6679904
v 2.5656531 6.1076179 0.9531712
v 2.5620893 6.2566730 1.2451209
v 2.4304263 6.2181192 1.4868529
v 2.2031994 6.0509255 1.6599293
v 1.9723742 6.0108188 1.8094478
v 2.0475848 6.2721542 0.5368974
v 2.0462386 6.1965205 0.7215086
v 2.0990949 6.2804626 0.9412920
v 2.0945680 6.3955890 1.1554427
v 1.9728494 6.3658110 1.3113930
v 1.7739431 6.2366748 1.4031287
v 1.5867307 6.2056974 1.4834243
v 1.5648279 6.4138853 0.5751359
v 1.5764451 6.3624038 0.6995138
v 1.6101810 6.4195406 0.8445070
v 1.5916202 6.4979034 0.9724427
v 1.4911237 6.4776345 1.0507739
v 1.3480770 6.3897356 1.0885256
v 1.2294126 6.3686503 1.1331804
v 1.0852460 6.5211030 0.5309312
v 1.0891188 6.4950414 0.5927560
v 1.0965385 6.5239658 0.6600560
v 1.0760570 6.5636357 0.7131424
v 1.0194673 6.5533749 0.7412888
v 0.9498742 6.5088776 0.7558461
v 0.8999969 6.4982035 0.7823190
v 0.5861175 6.5930356 0.4075110
v 0.5850967 6.5930356 0.4089753
v 0.5840723 6.5930356 0.4104370
v 0.5830442 6.5930356 0.4118961
v 0.5820125 6.5930356 0.4133526
v 0.5809771 6.5930356 0.4148066
v 0.5799381 6.5930356 0.4162580
v 4.3657623 0.1007151 -1.4472480
v 4.3664573 0.1000000 -1.4469297
v 4.3670444 0.0994428 -1.4468178
v 4.3665086 0.1000000 -1.4470827
v 4.5364270 0.5452112 -1.3982823
v 4.6508895 0.4262588 -1.3330475
v 4.8044391 0.2818600 -1.2899964
v 4.6640799 0.4262588 -1.3656943
v 4.7626562 0.9023766 -1.3183970
v 4.9077891 0.7525175 -1.2080199
v 5.0813372 0.5943016 -1.1249687
v 4.9275597 0.7525175 -1.2405927
v 4.9673322 1.2347531 -1.2290657
v 5.1033067 1.0787763 -1.0552169
v 5.2363195 0.9571344 -0.9451929
v 5.1336123 1.0787763 -1.0839333
v 5.1527175 1.5595142 -1.1216969
v 5.2088365 1.4050351 -0.8782491
v 5.3380197 1.2169648 -0.6036331
v 5.2637295 1.4050351 -0.8978834
v 5.3108591 1.9513667 -1.0272367
v 5.2226662 1.7312938 -0.6923894
v 5.1968231 1.4998418 -0.3292960
v 5.2878899 1.7312938 -0.6817325
v 5.3112440 2.2561396 -0.6940042
v 5.1478869 2.0575526 -0.4907947
v 5.0581426 1.9025273 -0.3074261
v 5.1903200 2.0575526 -0.4630128
v 5.0701435 2.4936865 -0.3461276
v 4.9712311 2.3838114 -0.2813694
v 4.8738182 2.2496641 -0.1754473
v 4.9922585 2.3838114 -0.2571826
v 4.8059550 2.8359050 -0.1341206
v 4.7001540 2.7100701 -0.0871283
v 4.6037036 2.5782390 -0.0137202
v 4.7142114 2.7100701 -0.0635144
v 4.4569614 3.1527349 0.0568440
v 4.3631989 3.0363289 0.0853197
v 4.2984075 2.9453610 0.1267963
v 4.3727206 3.0363289 0.1069015
v 3.9932933 3.3632354 0.2396678
v 3.9927724 3.3625877 0.2397783
v 3.9922008 3.3617947 0.2400864
v 3.9928320 3.3625877 0.2399338
v 4.3662282 0.1004200 1.4466395
v 4.3664330 0.1000000 1.4470409
v 4.3667864 0.0994995 1.4474431
v 4.3665329 0.1000000 1.4469715
v 4.4703248 0.5511192 1.5820381
v 4.5285835 0.4262588 1.7070196
v 4.6185456 0.2914172 1.8255280
v 4.5545903 0.4262588 1.6911883
v 4.5842018 0.9534926 1.7294365
v 4.6531694 0.7525175 1.9638966
v 4.7465646 0.5964578 2.1298010
v 4.6980224 0.7525175 1.9457071
v 4.7179819 1.2364742 1.9782323
v 4.7173672 1.0787763 2.2020179
v 4.7756321 0.8902461 2.4625338
v 4.7711129 1.0787763 2.1956201
v 4.8073887 1.5691960 2.1625986
v 4.7060161 1.4050351 2.4073362
v 4.6474650 1.2284184 2.6860752
v 4.7546829 1.4050351 2.4222041
v 4.8258456 1.9092296 2.3935662
v 4.6078826 1.7312938 2.5690812
v 4.4699265 1.5930497 2.7378882
v 4.6432092 1.7312938 2.6055976
v 4.6257090 2.2163072 2.6330945
v 4.4219888 2.0575526 2.6800574
v 4.1972999 1.8671491 2.7900143
v 4.4398526 2.0575526 2.7288276
v 4.3531157 2.5686326 2.7442017
v 4.1549785 2.3838114 2.7370753
v 3.9460696 2.1857183 2.7750476
v 4.1583150 2.3838114 2.7811049
v 3.9521868 2.8548941 2.7643011
v 3.8221455 2.7100701 2.7356782
v 3.7182902 2.5974824 2.7401141
v 3.8190401 2.7100701 2.7657080
v 3.5042225 3.1076390 2.6988818
v 3.4481834 3.0363289 2.6766019
v 3.3762259 2.9505329 2.6696544
v 3.4440669 3.0363289 2.6946293
v 3.0598993 3.3632664 2.5770199
v 3.0593880 3.3625877 2.5768021
v 3.0588022 3.3618630 2.5767115
v 3.0593495 3.3625877 2.5769394
vt 0.0000000 0.2200000
vt 0.1666667 0.2200000
vt 0.3333333 0.2200000
vt 0.5000000 0.2200000
vt 0.6666667 0.2200000
vt 0.8333333 0.2200000
vt 1.0000000 0.2200000
vt 0.0000000 0.3025000
vt 0.1666667 0.3025000
vt 0.3333333 0.3025000
vt 0.5000000 0.3025000
vt 0.6666667 0.3025000
vt 0.8333333 0.3025000
vt 1.0000000 0.3025000
vt 0.0000000 0.3850000
vt 0.1666667 0.3850000
vt 0.3333333 0.3850000
vt 0.5000000 0.3850000
vt 0.6666667 0.3850000
vt 0.8333333 0.3850000
vt 1.0000000 0.3850000
vt 0.0000000 0.4675000
vt 0.1666667 0.4675000
vt 0.3333333 0.4675000
vt 0.5000000 0.4675000
vt 0.6666667 0.4675000
vt 0.8333333 0.4675000
vt 1.0000000 0.4675000
vt 0.0000000 0.5500000
vt 0.1666667 0.5500000
vt 0.3333333 0.5500000
vt 0.5000000 0.5500000
vt 0.6666667 0.5500000
vt 0.8333333 0.5500000
vt 1.0000000 0.5500000
vt 0.0000000 0.6325000
vt 0.1666667 0.6325000
vt 0.3333333 0.6325000
vt 0.5000000 0.6325000
vt 0.6666667 0.6325000
vt 0.8333333 0.6325000
vt 1.0000000 0.6325000
vt 0.0000000 0.7150000
vt 0.1666667 0.7150000
vt 0.3333333 0.7150000
vt 0.5000000 0.7150000
vt 0.6666667 0.7150000
vt 0.8333333 0.7150000
vt 1.0000000 0.7150000
vt 0.0000000 0.7975000
vt 0.1666667 0.7975000
vt 0.3333333 0.7975000
vt 0.5000000 0.7975000
vt 0.6666667 0.7975000
vt 0.8333333 0.7975000
vt 1.0000000 0.7975000
vt 0.0000000 0.8800000
vt 0.1666667 0.8800000
vt 0.3333333 0.8800000
vt 0.5000000 0.8800000
vt 0.6666667 0.8800000
vt 0.8333333 0.8800000
vt 1.0000000 0.8800000
vt 0.0000000 0.9625000
vt 0.1666667 0.9625000
vt 0.3333333 0.9625000
vt 0.5000000 0.9625000
vt 0.6666667 0.9625000
vt 0.8333333 0.9625000
vt 1.0000000 0.9625000
vt 0.0000000 1.0450000
vt 0.1666667 1.0450000
vt 0.3333333 1.0450000
vt 0.5000000 1.0450000
vt 0.6666667 1.0450000
vt 0.8333333 1.0450000
vt 1.0000000 1.0450000
vt 0.0000000 1.1275000
vt 0.1666667 1.1275000
vt 0.3333333 1.1275000
vt 0.5000000 1.1275000
vt 0.6666667 1.1275000
vt 0.8333333 1.1275000
vt 1.0000000 1.1275000
vt 0.0000000 1.2100000
vt 0.1666667 1.2100000
vt 0.3333333 1.2100000
vt 0.5000000 1.2100000
vt 0.6666667 1.2100000
vt 0.8333333 1.2100000
vt 1.0000000 1.2100000
vt 0.0000000 1.2925000
vt 0.1666667 1.2925000
vt 0.3333333 1.2925000
vt 0.5000000 1.2925000
vt 0.6666667 1.2925000
vt 0.8333333 1.2925000
vt 1.0000000 1.2925000
vt 0.0000000 1.3750000
vt 0.1666667 1.3750000
vt 0.3333333 1.3750000
vt 0.5000000 1.3750000
vt 0.6666667 1.3750000
vt 0.8333333 1.3750000
vt 1.0000000 1.3750000
vt 0.0000000 1.4575000
vt 0.1666667 1.4575000
vt 0.3333333 1.4575000
vt 0.5000000 1.4575000
vt 0.6666667 1.4575000
vt 0.8333333 1.4575000
vt 1.0000000 1.4575000
vt 0.0000000 1.5400000
vt 0.1666667 1.5400000
vt 0.3333333 1.5400000
vt 0.5000000 1.5400000
vt 0.6666667 1.5400000
vt 0.8333333 1.5400000
vt 1.0000000 1.5400000
vt 0.0000000 1.6225000
vt 0.1666667 1.6225000
vt 0.3333333 1.6225000
vt 0.5000000 1.6225000
vt 0.6666667 1.6225000
vt 0.8333333 1.6225000
vt 1.0000000 1.6225000
vt 0.0000000 1.7050000
vt 0.1666667 1.7050000
vt 0.3333333 1.7050000
vt 0.5000000 1.7050000
vt 0.6666667 1.7050000
vt 0.8333333 1.7050000
vt 1.0000000 1.7050000
vt 0.0000000 1.7875000
vt 0.1666667 1.7875000
vt 0.3333333 1.7875000
vt 0.5000000 1.7875000
vt 0.6666667 1.7875000
vt 0.8333333 1.7875000
vt 1.0000000 1.7875000
vt 0.0000000 1.8700000
vt 0.1666667 1.8700000
vt 0.3333333 1.8700000
vt 0.5000000 1.8700000
vt 0.6666667 1.8700000
vt 0.8333333 1.8700000
vt 1.0000000 1.8700000
vt 1.0000000 0.1800000
vt 0.5000000 0.1800000
vt 0.0000000 0.1800000
vt 0.5000000 0.1800000
vt 1.0000000 0.3600000
vt 0.5000000 0.3600000
vt 0.0000000 0.3600000
vt 0.5000000 0.3600000
vt 1.0000000 0.5400000
vt 0.5000000 0.5400000
vt 0.0000000 0.5400000
vt 0.5000000 0.5400000
vt 1.0000000 0.7200000
vt 0.5000000 0.7200000
vt 0.0000000 0.7200000
vt 0.5000000 0.7200000
vt 1.0000000 0.9000000
vt 0.5000000 0.9000000
vt 0.0000000 0.9000000
vt 0.5000000 0.9000000
vt 1.0000000 1.0800000
vt 0.5000000 1.0800000
vt 0.0000000 1.0800000
vt 0.5000000 1.0800000
vt 1.0000000 1.2600000
vt 0.5000000 1.2600000
vt 0.0000000 1.2600000
vt 0.5000000 1.2600000
vt 1.0000000 1.4400000
vt 0.5000000 1.4400000
vt 0.0000000 1.4400000
vt 0.5000000 1.4400000
vt 1.0000000 1.6200000
vt 0.5000000 1.6200000
vt 0.0000000 1.6200000
vt 0.5000000 1.6200000
vt 1.0000000 1.8000000
vt 0.5000000 1.8000000
vt 0.0000000 1.8000000
vt 0.5000000 1.8000000
vt 1.0000000 1.9800000
vt 0.5000000 1.9800000
vt 0.0000000 1.9800000
vt 0.5000000 1.9800000
vt 1.0000000 0.1800000
vt 0.5000000 0.1800000
vt 0.0000000 0.1800000
vt 0.5000000 0.1800000
vt 1.0000000 0.3600000
vt 0.5000000 0.3600000
vt 0.0000000 0.3600000
vt 0.5000000 0.3600000
vt 1.0000000 0.5400000
vt 0.5000000 0.5400000
vt 0.0000000 0.5400000
vt 0.5000000 0.5400000
vt 1.0000000 0.7200000
vt 0.5000000 0.7200000
vt 0.0000000 0.7200000
vt 0.5000000 0.7200000
vt 1.0000000 0.9000000
vt 0.5000000 0.9000000
vt 0.0000000 0.9000000
vt 0.5000000 0.9000000
vt 1.0000000 1.0800000
vt 0.5000000 1.0800000
vt 0.0000000 1.0800000
vt 0.5000000 1.0800000
vt 1.0000000 1.2600000
vt 0.5000000 1.2600000
vt 0.0000000 1.2600000
vt 0.5000000 1.2600000
vt 1.0000000 1.4400000
vt 0.5000000 1.4400000
vt 0.0000000 1.4400000
vt 0.5000000 1.4400000
vt 1.0000000 1.6200000
vt 0.5000000 1.6200000
vt 0.0000000 1.6200000
vt 0.5000000 1.6200000
vt 1.0000000 1.8000000
vt 0.5000000 1.8000000
vt 0.0000000 1.8000000
vt 0.5000000 1.8000000
vt 1.0000000 1.9800000
vt 0.5000000 1.9800000
vt 0.0000000 1.9800000
vt 0.5000000 1.9800000
vn 0.9339656 -0.3062720 -0.1841349
vn 0.8927054 -0.3942198 -0.2183296
vn 0.8842254 -0.4401238 -0.1563215
vn 0.8852066 -0.4586520 -0.0777657
vn 0.8865899 -0.4625077 -0.0067120
vn 0.8888866 -0.4535311 0.0647315
vn 0.8916659 -0.4315245 0.1368157
vn 0.8860134 -0.3699851 -0.2794482
vn 0.8518986 -0.4331846 -0.2943125
vn 0.8606420 -0.4666724 -0.2037452
vn 0.8810597 -0.4638824 -0.0924494
vn 0.8960570 -0.4437781 0.0119492
vn 0.9048790 -0.4087363 0.1188644
vn 0.9093134 -0.3667821 0.1965196
vn 0.8203235 -0.3944858 -0.4140656
vn 0.7949875 -0.4558223 -0.4002760
vn 0.8468047 -0.4643433 -0.2594362
vn 0.9004908 -0.4248477 -0.0928483
vn 0.9281970 -0.3658137 0.0680496
vn 0.9299194 -0.3100063 0.1978538
vn 0.9289572 -0.2755793 0.2471731
vn 0.7473946 -0.4167951 -0.5173810
vn 0.7694570 -0.4364688 -0.4662949
vn 0.8724861 -0.3984219 -0.2828921
vn 0.9455888 -0.3195617 -0.0611724
vn 0.9581749 -0.2483354 0.1422334
vn 0.9440741 -0.2208258 0.2448675
vn 0.9434364 -0.2267807 0.2418642
vn 0.7340886 -0.3700203 -0.5693847
vn 0.8069964 -0.3266542 -0.4919897
vn 0.9244328 -0.2472379 -0.2903401
vn 0.9838878 -0.1761966 -0.0303232
vn 0.9711670 -0.1592949 0.1773691
vn 0.9539212 -0.1931044 0.2296627
vn 0.9531684 -0.2288527 0.1977281
vn 0.8009896 -0.2131321 -0.5594554
vn 0.8739195 -0.1122089 -0.4729418
vn 0.9520724 -0.0470195 -0.3022371
vn 0.9971911 -0.0652643 -0.0367478
vn 0.9786610 -0.1400121 0.1503967
vn 0.9611099 -0.2094429 0.1800038
vn 0.9579437 -0.2282189 0.1739539
vn 0.8812763 0.0305903 -0.4716104
vn 0.8974207 0.1265911 -0.4226237
vn 0.9332717 0.1151136 -0.3402247
vn 0.9958180 -0.0238388 -0.0881946
vn 0.9826804 -0.1587249 0.0956330
vn 0.9649194 -0.2036566 0.1656941
vn 0.9607194 -0.1610479 0.2260128
vn 0.9022208 0.2362158 -0.3608320
vn 0.8727177 0.2825089 -0.3981865
vn 0.8897619 0.2032734 -0.4086608
vn 0.9883027 -0.0128324 -0.1519639
vn 0.9857988 -0.1441095 0.0862160
vn 0.9621918 -0.1204773 0.2442787
vn 0.9332632 0.0001540 0.3591933
vn 0.8870940 0.3385468 -0.3137679
vn 0.8322998 0.3529670 -0.4274240
vn 0.8354762 0.2674911 -0.4800293
vn 0.9828753 0.0525228 -0.1766283
vn 0.9831363 -0.0435538 0.1776120
vn 0.9120398 0.0447777 0.4076498
vn 0.8374325 0.2044272 0.5068691
vn 0.8622960 0.3754630 -0.3398135
vn 0.7846314 0.3995442 -0.4740443
vn 0.7667020 0.3870620 -0.5122021
vn 0.9632425 0.2352778 -0.1296465
vn 0.9250580 0.1364415 0.3544734
vn 0.7906597 0.2224194 0.5704269
vn 0.7172198 0.3604429 0.5963863
vn 0.8317867 0.4075540 -0.3768696
vn 0.7354218 0.4843239 -0.4739041
vn 0.6646432 0.5740605 -0.4782300
vn 0.8694780 0.4932472 -0.0267429
vn 0.7916901 0.3151331 0.5233717
vn 0.6615194 0.3433571 0.6667068
vn 0.6437229 0.4473010 0.6209208
vn 0.8061862 0.4819208 -0.3432436
vn 0.6829351 0.6160420 -0.3925454
vn 0.5367910 0.7419662 -0.4016735
vn 0.7149543 0.6964033 0.0621518
vn 0.6531934 0.4338738 0.6205577
vn 0.5837153 0.4122536 0.6995166
vn 0.6311333 0.4961088 0.5962775
vn 0.7768505 0.5956020 -0.2043564
vn 0.6166607 0.7447017 -0.2552431
vn 0.4296921 0.8362757 -0.3405990
vn 0.5828924 0.8072229 0.0928846
vn 0.5620158 0.5093773 0.6516695
vn 0.5585727 0.4649538 0.6868876
vn 0.6370796 0.5463372 0.5437327
vn 0.7157656 0.6983404 -0.0005108
vn 0.5434403 0.8303637 -0.1231618
vn 0.3645582 0.8741924 -0.3207570
vn 0.5008047 0.8628459 0.0684950
vn 0.5117581 0.5776730 0.6359226
vn 0.5375584 0.5356529 0.6512349
vn 0.5898622 0.6323836 0.5021489
vn 0.6247594 0.7577077 0.1885600
vn 0.4785879 0.8771368 -0.0398081
vn 0.3346233 0.8801745 -0.3366306
vn 0.4508022 0.8925680 0.0099859
vn 0.4531535 0.6611948 0.5978908
vn 0.4491606 0.6385696 0.6248869
vn 0.4527220 0.7454310 0.4892601
vn 0.5290093 0.7885667 0.3135470
vn 0.4283920 0.9033871 -0.0192891
vn 0.3260584 0.8695892 -0.3708106
vn 0.4035621 0.9136638 -0.0485402
vn 0.3309767 0.7528040 0.5689820
vn 0.2762139 0.7400531 0.6132106
vn 0.2721314 0.8328563 0.4819697
vn 0.4425823 0.8184535 0.3664079
vn 0.3889183 0.9198533 -0.0511117
vn 0.3255339 0.8552812 -0.4031399
vn 0.3417301 0.9364475 -0.0792885
vn 0.1535423 0.8168085 0.5561013
vn 0.0881876 0.7977368 0.5965224
vn 0.1223780 0.8771957 0.4642751
vn 0.3589869 0.8582771 0.3667271
vn 0.3503943 0.9312590 -0.0999027
vn 0.3255674 0.8456229 -0.4229985
vn 0.2705150 0.9591564 -0.0827077
vn -0.0171155 0.8376123 0.5459970
vn -0.0528279 0.8199933 0.5699300
vn 0.0296243 0.9001199 0.4346339
vn 0.2591087 0.8969879 0.3581556
vn 0.3075052 0.9418341 -0.1356060
vn 0.3267595 0.8394246 -0.4342747
vn 0.2020969 0.9767314 -0.0717821
vn -0.1474144 0.8332348 0.5329059
vn -0.1359715 0.8360279 0.5315722
vn -0.0138443 0.9215099 0.3881079
vn 0.1363461 0.9180226 0.3723495
vn 0.2744882 0.9434074 -0.1861150
vn 0.3297433 0.8329085 -0.4444466
vn 0.1224873 0.9921297 -0.0259891
vn -0.2445330 0.8180004 0.5206525
vn -0.1569095 0.8742254 0.4594665
vn -0.0279670 0.9469070 0.3202890
vn 0.0405832 0.9245517 0.3788893
vn 0.3071422 0.8714405 -0.3824332
vn 0.3304525 0.8277996 -0.4533751
vn -0.0641957 0.9773536 0.2016403
vn -0.3400211 0.7632516 0.5493930
vn -0.0387717 0.9592294 0.2799567
vn 0.1597363 0.9805143 0.1143505
vn -0.4392659 0.0698336 0.8956387
vn -0.3169990 -0.0543027 0.9468700
vn 0.3775894 -0.1156985 -0.9187166
vn 0.2552937 0.0082626 -0.9668283
vn -0.7157358 0.2203573 0.6626952
vn -0.4077836 -0.0242183 0.9127574
vn 0.6186666 -0.3264915 -0.7146013
vn 0.3686454 -0.0220654 -0.9293082
vn -0.8897526 0.4360078 -0.1350459
vn -0.5362798 -0.0039829 0.8440309
vn 0.6764028 -0.5179967 0.5236015
vn 0.5244872 -0.0222322 -0.8511280
vn -0.6834904 0.3803533 -0.6230347
vn -0.7637763 -0.0162082 0.6452775
vn 0.7665535 -0.4548735 0.4533054
vn 0.7279200 -0.0381985 -0.6845972
vn -0.5088992 0.2948469 -0.8087564
vn -0.9626084 -0.0438204 0.2673290
vn 0.6666010 -0.4124321 0.6209210
vn 0.9464080 -0.0549960 -0.3182567
vn 0.0452116 0.3768041 -0.9251890
vn -0.9904649 0.0137814 -0.1370745
vn -0.2860705 -0.3409700 0.8954904
vn 0.9867736 0.0247848 0.1601987
vn 0.8356931 0.4664072 -0.2899679
vn -0.8788075 0.0415704 -0.4753622
vn -0.8411898 -0.2915272 0.4554246
vn 0.8442304 0.0666625 0.5318187
vn 0.8641004 0.5029441 -0.0194379
vn -0.6895673 0.0119068 -0.7241238
vn -0.8075847 -0.4629016 0.3654162
vn 0.6568393 0.0260786 0.7535795
vn 0.6462988 0.6439766 -0.4093800
vn -0.5217358 0.0026656 -0.8531030
vn -0.8533111 -0.5192453 -0.0473758
vn 0.5123895 0.0104088 0.8586901
vn 0.6031866 0.3205548 0.7303496
vn -0.4216329 0.0169233 -0.9066087
vn -0.6613459 -0.2475126 -0.7080671
vn 0.3992210 0.0056559 0.9168373
vn 0.4039539 0.1001039 0.9092857
vn -0.3469440 0.0496217 -0.9365722
vn -0.4486318 -0.0877966 -0.8893938
vn 0.3018615 -0.0369090 0.9526371
vn -0.8800114 0.0617405 0.4709225
vn -0.8204990 -0.0463448 0.5697663
vn 0.8518221 -0.1076241 -0.5126560
vn 0.7919879 0.0003853 -0.6105367
vn -0.9728534 0.1534915 0.1731954
vn -0.8715334 -0.0310728 0.4893506
vn 0.9210581 -0.3245068 -0.2152841
vn 0.8491627 -0.0307242 -0.5272368
vn -0.5771488 0.4416831 -0.6868882
vn -0.9402714 -0.0159480 0.3400521
vn 0.6588905 -0.5337352 0.5300849
vn 0.9247672 -0.0272473 -0.3795566
vn 0.0249431 0.4193355 -0.9074886
vn -0.9964885 -0.0116315 0.0829175
vn 0.2910621 -0.4554363 0.8413445
vn 0.9941514 -0.0312212 -0.1033836
vn 0.2055736 0.3508441 -0.9135907
vn -0.9532146 -0.0019560 -0.3022880
vn -0.4432286 -0.3369336 0.8306769
vn 0.9535658 -0.0124458 0.3009275
vn 0.7235738 0.3868849 -0.5716301
vn -0.7108875 0.0134553 -0.7031770
vn -0.6447881 -0.3596105 0.6744839
vn 0.7093248 0.0218123 0.7045443
vn 0.8546394 0.4689601 -0.2228630
vn -0.3763409 0.0075007 -0.9264509
vn -0.7300796 -0.4422123 0.5209914
vn 0.3457106 0.0234849 0.9380473
vn 0.7992093 0.5867873 0.1301736
vn -0.1076530 0.0136677 -0.9940946
vn -0.7967400 -0.3994372 -0.4534923
vn 0.0745673 0.0289263 0.9967964
vn 0.3618621 0.4532685 0.8146186
vn 0.0731862 0.0136064 -0.9972255
vn -0.4836267 -0.3423104 -0.8055612
vn -0.1024994 0.0212255 0.9945066
vn -0.0051610 0.2610393 0.9653144
vn 0.1977361 0.0203019 -0.9800450
vn -0.1068669 -0.2493119 -0.9625087
vn -0.2308023 0.0011685 0.9730000
vn -0.2014133 0.1138724 0.9728647
vn 0.2970522 0.0625750 -0.9528087
vn 0.1856095 -0.0780033 -0.9795226
vn -0.3135799 -0.0273007 0.9491693
s 1
f 1/1/1 8/8/8 2/2/2
f 2/2/2 8/8/8 9/9/9
f 2/2/2 9/9/9 3/3/3
f 3/3/3 9/9/9 10/10/10
f 3/3/3 10/10/10 4/4/4
f 4/4/4 10/10/10 11/11/11
f 4/4/4 11/11/11 5/5/5
f 5/5/5 11/11/11 12/12/12
f 5/5/5 12/12/12 6/6/6
f 6/6/6 12/12/12 13/13/13
f 6/6/6 13/13/13 7/7/7
f 7/7/7 13/13/13 14/14/14
f 8/8/8 15/15/15 9/9/9
f 9/9/9 15/15/15 16/16/16
f 9/9/9 16/16/16 10/10/10
f 10/10/10 16/16/16 17/17/17
f 10/10/10 17/17/17 11/11/11
f 11/11/11 17/17/17 18/18/18
f 11/11/11 18/18/18 12/12/12
f 12/12/12 18/18/18 19/19/19
f 12/12/12 19/19/19 13/13/13
f 13/13/13 19/19/19 20/20/20
f 13/13/13 20/20/20 14/14/14
f 14/14/14 20/20/20 21/21/21
f 15/15/15 22/22/22 16/16/16
f 16/16/16 22/22/22 23/23/23
f 16/16/16 23/23/23 17/17/17
f 17/17/17 23/23/23 24/24/24
f 17/17/17 24/24/24 18/18/18
f 18/18/18 24/24/24 25/25/25
f 18/18/18 25/25/25 19/19/19
f 19/19/19 25/25/25 26/26/26
f 19/19/19 26/26/26 20/20/20
f 20/20/20 26/26/26 27/27/27
f 20/20/20 27/27/27 21/21/21
f 21/21/21 27/27/27 28/28/28
f 22/22/22 29/29/29 23/23/23
f 23/23/23 29/29/29 30/30/30
f 23/23/23 30/30/30 24/24/24
f 24/24/24 30/30/30 31/31/31
f 24/24/24 31/31/31 25/25/25
f 25/25/25 31/31/31 32/32/32
f 25/25/25 32/32/32 26/26/26
f 26/26/26 32/32/32 33/33/33
f 26/26/26 33/33/33 27/27/27
f 27/27/27 33/33/33 34/34/34
f 27/27/27 34/34/34 28/28/28
f 28/28/28 34/34/34 35/35/35
f 29/29/29 36/36/36 30/30/30
f 30/30/30 36/36/36 37/37/37
f 30/30/30 37/37/37 31/31/31
f 31/31/31 37/37/37 38/38/38
f 31/31/31 38/38/38 32/32/32
f 32/32/32 38/38/38 39/39/39
f 32/32/32 39/39/39 33/33/33
f 33/33/33 39/39/39 40/40/40
f 33/33/33 40/40/40 34/34/34
f 34/34/34 40/40/40 41/41/41
f 34/34/34 41/41/41 35/35/35
f 35/35/35 41/41/41 42/42/42
f 36/36/36 43/43/43 37/37/37
f 37/37/37 43/43/43 44/44/44
f 37/37/37 44/44/44 38/38/38
f 38/38/38 44/44/44 45/45/45
f 38/38/38 45/45/45 39/39/39
f 39/39/39 45/45/45 46/46/46
f 39/39/39 46/46/46 40/40/40
f 40/40/40 46/46/46 47/47/47
f 40/40/40 47/47/47 41/41/41
f 41/41/41 47/47/47 48/48/48
f 41/41/41 48/48/48 42/42/42
f 42/42/42 48/48/48 49/49/49
f 43/43/43 50/50/50 44/44/44
f 44/44/44 50/50/50 51/51/51
f 44/44/44 51/51/51 45/45/45
f 45/45/45 51/51/51 52/52/52
f 45/45/45 52/52/52 46/46/46
f 46/46/46 52/52/52 53/53/53
f 46/46/46 53/53/53 47/47/47
f 47/47/47 53/53/53 54/54/54
f 47/47/47 54/54/54 48/48/48
f 48/48/48 54/54/54 55/55/55
f 48/48/48 55/55/55 49/49/49
f 49/49/49 55/55/55 56/56/56
f 50/50/50 57/57/57 51/51/51
f 51/51/51 57/57/57 58/58/58
f 51/51/51 58/58/58 52/52/52
f 52/52/52 58/58/58 59/59/59
f 52/52/52 59/59/59 53/53/53
f 53/53/53 59/59/59 60/60/60
f 53/53/53 60/60/60 54/54/54
f 54/54/54 60/60/60 61/61/61
f 54/54/54 61/61/61 55/55/55
f 55/55/55 61/61/61 62/62/62
f 55/55/55 62/62/62 56/56/56
f 56/56/56 62/62/62 63/63/63
f 57/57/57 64/64/64 58/58/58
f 58/58/58 64/64/64 65/65/65
f 58/58/58 65/65/65 59/59/59
f 59/59/59 65/65/65 66/66/66
f 59/59/59 66/66/66 60/60/60
f 60/60/60 66/66/66 67/67/67
f 60/60/60 67/67/67 61/61/61
f 61/61/61 67/67/67 68/68/68
f 61/61/61 68/68/68 62/62/62
f 62/62/62 68/68/68 69/69/69
f 62/62/62 69/69/69 63/63/63
f 63/63/63 69/69/69 70/70/70
f 64/64/64 71/71/71 65/65/65
f 65/65/65 71/71/71 72/72/72
f 65/65/65 72/72/72 66/66/66
f 66/66/66 72/72/72 73/73/73
f 66/66/66 73/73/73 67/67/67
f 67/67/67 73/73/73 74/74/74
f 67/67/67 74/74/74 68/68/68
f 68/68/68 74/74/74 75/75/75
f 68/68/68 75/75/75 69/69/69
f 69/69/69 75/75/75 76/76/76
f 69/69/69 76/76/76 70/70/70
f 70/70/70 76/76/76 77/77/77
f 71/71/71 78/78/78 72/72/72
f 72/72/72 78/78/78 79/79/79
f 72/72/72 79/79/79 73/73/73
f 73/73/73 79/79/79 80/80/80
f 73/73/73 80/80/80 74/74/74
f 74/74/74 80/80/80 81/81/81
f 74/74/74 81/81/81 75/75/75
f 75/75/75 81/81/81 82/82/82
f 75/75/75 82/82/82 76/76/76
f 76/76/76 82/82/82 83/83/83
f 76/76/76 83/83/83 77/77/77
f 77/77/77 83/83/83 84/84/84
f 78/78/78 85/85/85 79/79/79
f 79/79/79 85/85/85 86/86/86
f 79/79/79 86/86/86 80/80/80
f 80/80/80 86/86/86 87/87/87
f 80/80/80 87/87/87 81/81/81
f 81/81/81 87/87/87 88/88/88
f 81/81/81 88/88/88 82/82/82
f 82/82/82 88/88/88 89/89/89
f 82/82/82 89/89/89 83/83/83
f 83/83/83 89/89/89 90/90/90
f 83/83/83 90/90/90 84/84/84
f 84/84/84 90/90/90 91/91/91
f 85/85/85 92/92/92 86/86/86
f 86/86/86 92/92/92 93/93/93
f 86/86/86 93/93/93 87/87/87
f 87/87/87 93/93/93 94/94/94
f 87/87/87 94/94/94 88/88/88
f 88/88/88 94/94/94 95/95/95
f 88/88/88 95/95/95 89/89/89
f 89/89/89 95/95/95 96/96/96
f 89/89/89 96/96/96 90/90/90
f 90/90/90 96/96/96 97/97/97
f 90/90/90 97/97/97 91/91/91
f 91/91/91 97/97/97 98/98/98
f 92/92/92 99/99/99 93/93/93
f 93/93/93 99/99/99 100/100/100
f 93/93/93 100/100/100 94/94/94
f 94/94/94 100/100/100 101/101/101
f 94/94/94 101/101/101 95/95/95
f 95/95/95 101/101/101 102/102/102
f 95/95/95 102/102/102 96/96/96
f 96/96/96 102/102/102 103/103/103
f 96/96/96 103/103/103 97/97/97
f 97/97/97 103/103/103 104/104/104
f 97/97/97 104/104/104 98/98/98
f 98/98/98 104/104/104 105/105/105
f 99/99/99 106/106/106 100/100/100
f 100/100/100 106/106/106 107/107/107
f 100/100/100 107/107/107 101/101/101
f 101/101/101 107/107/107 108/108/108
f 101/101/101 108/108/108 102/102/102
f 102/102/102 108/108/108 109/109/109
f 102/102/102 109/109/109 103/103/103
f 103/103/103 109/109/109 110/110/110
f 103/103/103 110/110/110 104/104/104
f 104/104/104 110/110/110 111/111/111
f 104/104/104 111/111/111 105/105/105
f 105/105/105 111/111/111 112/112/112
f 106/106/106 113/113/113 107/107/107
f 107/107/107 113/113/113 114/114/114
f 107/107/107 114/114/114 108/108/108
f 108/108/108 114/114/114 115/115/115
f 108/108/108 115/115/115 109/109/109
f 109/109/109 115/115/115 116/116/116
f 109/109/109 116/116/116 110/110/110
f 110/110/110 116/116/116 117/117/117
f 110/110/110 117/117/117 111/111/111
f 111/111/111 117/117/117 118/118/118
f 111/111/111 118/118/118 112/112/112
f 112/112/112 118/118/118 119/119/119
f 113/113/113 120/120/120 114/114/114
f 114/114/114 120/120/120 121/121/121
f 114/114/114 121/121/121 115/115/115
f 115/115/115 121/121/121 122/122/122
f 115/115/115 122/122/122 116/116/116
f 116/116/116 122/122/122 123/123/123
f 116/116/116 123/123/123 117/117/117
f 117/117/117 123/123/123 124/124/124
f 117/117/117 124/124/124 118/118/118
f 118/118/118 124/124/124 125/125/125
f 118/118/118 125/125/125 119/119/119
f 119/119/119 125/125/125 126/126/126
f 120/120/120 127/127/127 121/121/121
f 121/121/121 127/127/127 128/128/128
f 121/121/121 128/128/128 122/122/122
f 122/122/122 128/128/128 129/129/129
f 122/122/122 129/129/129 123/123/123
f 123/123/123 129/129/129 130/130/130
f 123/123/123 130/130/130 124/124/124
f 124/124/124 130/130/130 131/131/131
f 124/124/124 131/131/131 125/125/125
f 125/125/125 131/131/131 132/132/132
f 125/125/125 132/132/132 126/126/126
f 126/126/126 132/132/132 133/133/133
f 127/127/127 134/134/134 128/128/128
f 128/128/128 134/134/134 135/135/135
f 128/128/128 135/135/135 129/129/129
f 129/129/129 135/135/135 136/136/136
f 129/129/129 136/136/136 130/130/130
f 130/130/130 136/136/136 137/137/137
f 130/130/130 137/137/137 131/131/131
f 131/131/131 137/137/137 138/138/138
f 131/131/131 138/138/138 132/132/132
f 132/132/132 138/138/138 139/139/139
f 132/132/132 139/139/139 133/133/133
f 133/133/133 139/139/139 140/140/140
f 134/134/134 141/141/141 135/135/135
f 135/135/135 141/141/141 142/142/142
f 135/135/135 142/142/142 136/136/136
f 136/136/136 142/142/142 143/143/143
f 136/136/136 143/143/143 137/137/137
f 137/137/137 143/143/143 144/144/144
f 137/137/137 144/144/144 138/138/138
f 138/138/138 144/144/144 145/145/145
f 138/138/138 145/145/145 139/139/139
f 139/139/139 145/145/145 146/146/146
f 139/139/139 146/146/146 140/140/140
f 140/140/140 146/146/146 147/147/147
f 148/148/148 149/149/149 153/153/153
f 148/148/148 153/153/153 152/152/152
f 149/149/149 150/150/150 154/154/154
f 149/149/149 154/154/154 153/153/153
f 150/150/150 151/151/151 155/155/155
f 150/150/150 155/155/155 154/154/154
f 151/151/151 148/148/148 152/152/152
f 151/151/151 152/152/152 155/155/155
f 152/152/152 153/153/153 157/157/157
f 152/152/152 157/157/157 156/156/156
f 153/153/153 154/154/154 158/158/158
f 153/153/153 158/158/158 157/157/157
f 154/154/154 155/155/155 159/159/159
f 154/154/154 159/159/159 158/158/158
f 155/155/155 152/152/152 156/156/156
f 155/155/155 156/156/156 159/159/159
f 156/156/156 157/157/157 161/161/161
f 156/156/156 161/161/161 160/160/160
f 157/157/157 158/158/158 162/162/162
f 157/157/157 162/162/162 161/161/161
f 158/158/158 159/159/159 163/163/163
f 158/158/158 163/163/163 162/162/162
f 159/159/159 156/156/156 160/160/160
f 159/159/159 160/160/160 163/163/163
f 160/160/160 161/161/161 165/165/165
f 160/160/160 165/165/165 164/164/164
f 161/161/161 162/162/162 166/166/166
f 161/161/161 166/166/166 165/165/165
f 162/162/162 163/163/163 167/167/167
f 162/162/162 167/167/167 166/166/166
f 163/163/163 160/160/160 164/164/164
f 163/163/163 164/164/164 167/167/167
f 164/164/164 165/165/165 169/169/169
f 164/164/164 169/169/169 168/168/168
f 165/165/165 166/166/166 170/170/170
f 165/165/165 170/170/170 169/169/169
f 166/166/166 167/167/167 171/171/171
f 166/166/166 171/171/171 170/170/170
f 167/167/167 164/164/164 168/168/168
f 167/167/167 168/168/168 171/171/171
f 168/168/168 169/169/169 173/173/173
f 168/168/168 173/173/173 172/172/172
f 169/169/169 170/170/170 174/174/174
f 169/169/169 174/174/174 173/173/173
f 170/170/170 171/171/171 175/175/175
f 170/170/170 175/175/175 174/174/174
f 171/171/171 168/168/168 172/172/172
f 171/171/171 172/172/172 175/175/175
f 172/172/172 173/173/173 177/177/177
f 172/172/172 177/177/177 176/176/176
f 173/173/173 174/174/174 178/178/178
f 173/173/173 178/178/178 177/177/177
f 174/174/174 175/175/175 179/179/179
f 174/174/174 179/179/179 178/178/178
f 175/175/175 172/172/172 176/176/176
f 175/175/175 176/176/176 179/179/179
f 176/176/176 177/177/177 181/181/181
f 176/176/176 181/181/181 180/180/180
f 177/177/177 178/178/178 182/182/182
f 177/177/177 182/182/182 181/181/181
f 178/178/178 179/179/179 183/183/183
f 178/178/178 183/183/183 182/182/182
f 179/179/179 176/176/176 180/180/180
f 179/179/179 180/180/180 183/183/183
f 180/180/180 181/181/181 185/185/185
f 180/180/180 185/185/185 184/184/184
f 181/181/181 182/182/182 186/186/186
f 181/181/181 186/186/186 185/185/185
f 182/182/182 183/183/183 187/187/187
f 182/182/182 187/187/187 186/186/186
f 183/183/183 180/180/180 184/184/184
f 183/183/183 184/184/184 187/187/187
f 184/184/184 185/185/185 189/189/189
f 184/184/184 189/189/189 188/188/188
f 185/185/185 186/186/186 190/190/190
f 185/185/185 190/190/190 189/189/189
f 186/186/186 187/187/187 191/191/191
f 186/186/186 191/191/191 190/190/190
f 187/187/187 184/184/184 188/188/188
f 187/187/187 188/188/188 191/191/191
f 148/148/148 150/150/150 149/149/149
f 188/188/188 189/189/189 190/190/190
f 148/148/148 151/151/151 150/150/150
f 188/188/188 190/190/190 191/191/191
f 192/192/192 193/193/193 197/197/197
f 192/192/192 197/197/197 196/196/196
f 193/193/193 194/194/194 198/198/198
f 193/193/193 198/198/198 197/197/197
f 194/194/194 195/195/195 199/199/199
f 194/194/194 199/199/199 198/198/198
f 195/195/195 192/192/192 196/196/196
f 195/195/195 196/196/196 199/199/199
f 196/196/196 197/197/197 201/201/201
f 196/196/196 201/201/201 200/200/200
f 197/197/197 198/198/198 202/202/202
f 197/197/197 202/202/202 201/201/201
f 198/198/198 199/199/199 203/203/203
f 198/198/198 203/203/203 202/202/202
f 199/199/199 196/196/196 200/200/200
f 199/199/199 200/200/200 203/203/203
f 200/200/200 201/201/201 205/205/205
f 200/200/200 205/205/205 204/204/204
f 201/201/201 202/202/202 206/206/206
f 201/201/201 206/206/206 205/205/205
f 202/202/202 203/203/203 207/207/207
f 202/202/202 207/207/207 206/206/206
f 203/203/203 200/200/200 204/204/204
f 203/203/203 204/204/204 207/207/207
f 204/204/204 205/205/205 209/209/209
f 204/204/204 209/209/209 208/208/208
f 205/205/205 206/206/206 210/210/210
f 205/205/205 210/210/210 209/209/209
f 206/206/206 207/207/207 211/211/211
f 206/206/206 211/211/211 210/210/210
f 207/207/207 204/204/204 208/208/208
f 207/207/207 208/208/208 211/211/211
f 208/208/208 209/209/209 213/213/213
f 208/208/208 213/213/213 212/212/212
f 209/209/209 210/210/210 214/214/214
f 209/209/209 214/214/214 213/213/213
f 210/210/210 211/211/211 215/215/215
f 210/210/210 215/215/215 214/214/214
f 211/211/211 208/208/208 212/212/212
f 211/211/211 212/212/212 215/215/215
f 212/212/212 213/213/213 217/217/217
f 212/212/212 217/217/217 216/216/216
f 213/213/213 214/214/214 218/218/218
f 213/213/213 218/218/218 217/217/217
f 214/214/214 215/215/215 219/219/219
f 214/214/214 219/219/219 218/218/218
f 215/215/215 212/212/212 216/216/216
f 215/215/215 216/216/216 219/219/219
f 216/216/216 217/217/217 221/221/221
f 216/216/216 221/221/221 220/220/220
f 217/217/217 218/218/218 222/222/222
f 217/217/217 222/222/222 221/221/221
f 218/218/218 219/219/219 223/223/223
f 218/218/218 223/223/223 222/222/222
f 219/219/219 216/216/216 220/220/220
f 219/219/219 220/220/220 223/223/223
f 220/220/220 221/221/221 225/225/225
f 220/220/220 225/225/225 224/224/224
f 221/221/221 222/222/222 226/226/226
f 221/221/221 226/226/226 225/225/225
f 222/222/222 223/223/223 227/227/227
f 222/222/222 227/227/227 226/226/226
f 223/223/223 220/220/220 224/224/224
f 223/223/223 224/224/224 227/227/227
f 224/224/224 225/225/225 229/229/229
f 224/224/224 229/229/229 228/228/228
f 225/225/225 226/226/226 230/230/230
f 225/225/225 230/230/230 229/229/229
f 226/226/226 227/227/227 231/231/231
f 226/226/226 231/231/231 230/230/230
f 227/227/227 224/224/224 228/228/228
f 227/227/227 228/228/228 231/231/231
f 228/228/228 229/229/229 233/233/233
f 228/228/228 233/233/233 232/232/232
f 229/229/229 230/230/230 234/234/234
f 229/229/229 234/234/234 233/233/233
f 230/230/230 231/231/231 235/235/235
f 230/230/230 235/235/235 234/234/234
f 231/231/231 228/228/228 232/232/232
f 231/231/231 232/232/232 235/235/235
f 192/192/192 194/194/194 193/193/193
f 232/232/232 233/233/233 234/234/234
f 192/192/192 195/195/195 194/194/194
f 232/232/232 234/234/234 235/235/235
