# Blender 5.1.2
# www.blender.org
o justed_inferno_v32_fold_02
v 5.820397 0.359621 0.342512
v 5.609382 0.753231 0.607875
v 5.542795 0.626822 0.580490
v 5.564732 0.448206 0.663176
v 5.590127 0.260451 0.641323
v 5.694835 0.127662 0.699663
v 5.842829 0.215540 0.729754
v 5.933486 0.376097 0.738890
v 5.794996 0.588439 0.649850
v 5.404370 0.206750 0.915605
v 5.581341 0.100000 1.018807
v 5.726411 0.105371 1.069172
v 5.834364 0.210565 1.094985
v 5.935282 0.422525 1.098163
v 5.758153 0.647063 0.982576
v 5.548539 0.961828 1.079294
v 5.297060 1.086383 1.013926
v 5.078239 0.915186 1.105719
v 5.225382 0.165435 1.163597
v 5.447208 0.101146 1.341760
v 5.571076 0.099498 1.589395
v 5.775340 0.197690 1.431997
v 5.888721 0.478687 1.432071
v 5.619338 0.760657 1.351320
v 5.144876 1.198247 1.206267
v 4.962104 0.621408 1.472794
v 4.974187 0.157048 1.513790
v 5.682598 0.206297 1.740566
v 5.786827 0.539294 1.727878
v 5.382200 1.146856 1.356560
v 4.987446 1.268320 1.424753
v 4.896585 0.976825 1.386712
v 5.182163 0.101556 1.799803
v 5.349651 0.101230 1.962039
v 5.554513 0.236752 2.012211
v 5.632442 0.599357 1.976369
v 5.322145 0.892173 1.829501
v 5.201492 1.265514 1.625631
v 4.797326 0.976837 1.574464
v 4.702279 0.294934 1.904343
v 5.397706 0.283366 2.244647
v 5.442540 0.655698 2.178862
v 4.695889 1.330943 1.872601
v 4.692952 1.015631 1.776319
v 4.651707 0.731619 1.824722
v 5.018523 0.237426 2.332727
v 5.225560 0.334310 2.445250
v 5.240351 0.707545 2.347143
v 4.983143 0.987827 2.264863
v 4.788794 1.375109 2.163402
v 4.582317 1.044419 1.948058
v 4.503596 0.785967 1.955037
v 4.437672 0.444666 2.203123
v 4.853141 0.292653 2.479646
v 4.994508 0.386646 2.689929
v 5.044006 0.755382 2.496754
v 4.496416 1.425724 2.100337
v 4.457965 1.090605 2.093895
v 4.344549 0.844579 2.056950
v 4.559632 0.368779 2.462305
v 4.656544 0.332072 2.670801
v 4.860080 0.799584 2.638784
v 4.765400 1.063117 2.559530
v 4.322823 1.153745 2.215796
v 4.176794 0.908994 2.132182
v 4.236958 0.521656 2.353669
v 4.313258 0.404333 2.593668
v 4.589967 0.397215 3.094615
v 4.615985 0.883812 2.818803
v 4.469849 1.568802 2.509712
v 4.195520 1.615740 2.388213
v 4.117107 1.266605 2.367590
v 4.009352 0.979858 2.193407
v 4.023928 0.598697 2.490533
v 4.184132 0.317678 3.021463
v 4.538883 1.245520 2.791565
v 3.783592 1.090419 2.298526
v 3.945071 0.438398 2.823233
v 4.347346 0.403856 3.257778
v 4.262404 0.933775 3.067219
v 4.317117 1.345496 3.029031
v 4.237864 1.676872 2.749695
v 4.009624 1.666125 2.588408
v 3.892740 1.384698 2.528094
v 3.679319 0.705709 2.763696
v 3.972989 0.324531 3.120253
v 4.143413 0.441766 3.336987
v 3.860807 1.668629 2.743049
v 3.742973 1.457580 2.637545
v 3.463265 1.252111 2.567784
v 3.676482 0.525730 2.942128
v 3.777994 0.354038 3.191391
v 3.931653 0.508504 3.383068
v 3.835520 0.989927 3.289858
v 3.993269 1.393925 3.269513
v 3.750519 1.714490 3.164511
v 3.698481 1.663314 2.894032
v 3.585715 1.532206 2.747103
v 3.507452 0.614327 2.984156
v 3.578777 0.390324 3.251861
v 3.718151 0.587817 3.417396
v 3.524762 1.676017 3.033450
v 3.418521 1.623815 2.847158
v 3.283433 1.327246 2.715503
v 3.323115 0.674743 3.048473
v 3.371450 0.406642 3.310427
v 3.504777 0.656307 3.460038
v 3.576310 1.031160 3.430187
v 3.572560 1.448048 3.534616
v 3.343130 1.724403 3.161151
v 3.241660 1.751445 2.930079
v 3.110810 1.398693 2.811403
v 3.109746 0.708808 3.100373
v 3.096350 0.362843 3.382727
v 3.288660 0.697358 3.518907
v 3.380031 1.040063 3.557192
v 3.402143 1.821325 3.429969
v 3.155602 1.811292 3.282779
v 3.058037 1.925115 2.997392
v 2.921576 1.481250 2.883307
v 2.886847 1.025923 3.016113
v 2.873171 0.655781 3.158621
v 3.065106 0.709725 3.588703
v 3.178102 1.028740 3.706109
v 3.196708 1.537196 3.840114
v 2.879083 1.981469 3.458008
v 2.870413 2.132735 3.061332
v 2.722280 1.570584 2.943378
v 2.659476 1.057472 3.028409
v 2.545098 0.597439 3.162477
v 2.488380 0.129366 3.455121
v 2.831034 0.705523 3.657941
v 2.963660 0.996798 3.867749
v 3.083950 1.995782 3.696922
v 2.550391 2.448734 3.196211
v 2.517977 1.656062 3.007009
v 2.428935 1.093734 3.029717
v 2.586385 0.701105 3.716911
v 2.729419 0.953634 4.021711
v 2.718267 1.612039 4.182683
v 2.869699 2.083324 3.858095
v 2.537488 2.169508 3.653877
v 2.309622 1.726450 3.083493
v 2.203261 1.140951 3.037362
v 2.134131 0.549556 3.129926
v 2.146987 0.100000 3.443313
v 2.207654 0.714606 3.779760
v 2.471979 0.916904 4.143908
v 2.624974 2.128003 3.995862
v 2.299788 2.262836 3.770761
v 2.252896 2.566991 3.350296
v 1.947032 1.664578 3.190012
v 1.984937 1.199341 3.064749
v 1.900233 0.564654 3.112430
v 1.912037 0.166274 3.437655
v 2.194386 0.904645 4.217579
v 2.324014 1.624181 4.316233
v 2.349437 2.122966 4.091760
v 2.042976 2.324427 3.870191
v 2.010151 2.555243 3.464696
v 1.770563 1.263837 3.113707
v 1.678804 0.618502 3.111413
v 1.690481 0.318684 3.446488
v 1.812986 0.772356 3.807086
v 1.826377 0.936251 4.242551
v 2.021894 1.624427 4.353271
v 2.051989 2.080976 4.139369
v 1.770584 2.359076 3.944699
v 1.749446 2.486648 3.560938
v 1.609191 1.350630 3.170152
v 1.464901 0.698223 3.126315
v 1.473550 0.508036 3.469571
v 1.549776 0.819403 3.812363
v 1.603726 1.623140 4.342647
v 1.745841 2.026024 4.146513
v 1.489442 2.383410 3.992512
v 1.479121 2.402506 3.627100
v 1.359232 1.397180 3.225160
v 1.252325 0.782657 3.144852
v 1.252708 0.690797 3.495761
v 1.285875 0.862507 3.807493
v 1.131060 1.075157 4.163159
v 1.365771 1.986297 4.115815
v 1.206719 2.417352 4.016723
v 1.208267 2.335355 3.659724
v 1.103461 1.462810 3.255012
v 1.001165 0.862186 3.151056
v 1.024856 0.838907 3.511436
v 1.021899 0.889592 3.792289
v 0.647440 1.683708 4.208921
v 0.927348 2.470803 4.019832
v 0.943546 2.296363 3.660886
v 0.849254 1.938593 3.438635
v 0.823943 1.474409 3.229019
v 0.792657 0.945921 3.508293
v 0.759315 0.895337 3.765785
v 0.571911 1.167294 4.071534
v 0.700113 1.975823 4.052494
v 0.654305 2.534366 3.998343
v 0.688721 2.277109 3.634388
v 0.317656 1.006824 3.068580
v 0.513102 1.035343 3.483922
v 0.501166 0.887610 3.727130
v 0.391221 2.582075 3.943402
v 0.362065 2.256437 3.566019
v 0.425372 1.963111 3.330389
v 0.340009 1.528772 3.104954
v 0.251860 0.886871 3.675979
v 0.213061 1.226638 3.983594
v 0.127162 1.742575 4.051458
v 0.115042 2.077981 3.917854
v 0.143971 2.586291 3.848171
v -0.218630 1.229314 3.292283
v 0.016255 0.916300 3.611887
v -0.035458 1.282333 3.891225
v -0.081017 2.535703 3.715634
v -0.268607 1.925199 3.097284
v 0.093480 1.556343 3.038320
v 0.026432 1.136129 3.066017
v -0.299969 1.034037 3.493389
v -0.260238 1.352808 3.772262
v -0.284720 1.788023 3.787112
v -0.170620 2.106831 3.791396
v -0.280060 2.444287 3.559409
v -0.167233 1.587669 2.979450
v -0.169715 1.246056 3.063530
v -0.458017 1.432206 3.632023
v -0.377932 2.121847 3.657172
v -0.453431 2.344844 3.396574
v -0.357834 1.353407 3.040638
v -0.456990 1.311714 3.179366
v -0.694494 1.280780 3.251685
v -0.680510 1.534104 3.435764
v -0.616836 1.787208 3.458113
v -0.558689 2.128855 3.506853
v -0.603163 2.271426 3.238817
v -0.464948 1.918361 2.982128
v -0.480645 1.624785 2.850738
v -0.528603 1.438379 2.986477
v -0.620210 1.353769 3.083419
v -0.716537 2.143522 3.354334
v -0.715118 2.244164 3.089309
v -0.623706 1.923992 2.826850
v -0.676103 1.490789 2.902079
v -0.768854 1.363698 2.975282
v -0.979857 1.377919 3.026756
v -1.161990 1.669296 2.975561
v -1.102475 1.966008 2.933625
v -0.902836 2.204339 3.158330
v -0.833010 2.253786 2.944010
v -0.765826 2.144374 2.813839
v -0.678525 1.616134 2.633545
v -0.860318 1.522953 2.727659
v -0.906376 1.336240 2.858896
v -0.938914 2.301610 2.740848
v -0.739582 1.957670 2.544195
v -1.037090 1.283297 2.738886
v -1.181663 1.380552 2.855521
v -1.083403 2.347514 2.931215
v -0.877564 2.241412 2.341236
v -0.822962 1.586121 2.382834
v -1.162066 1.231417 2.617491
v -1.314407 1.384553 2.726758
v -1.329297 1.715616 2.781888
v -1.240574 2.006650 2.771721
v -1.158973 2.434327 2.784870
v -1.033755 2.344282 2.472937
v -0.772295 1.974384 2.362506
v -1.136187 1.495318 2.349480
v -1.276337 1.209065 2.493795
v -1.425465 1.408043 2.588959
v -1.408077 1.794556 2.640020
v -1.204758 2.487019 2.629950
v -0.811342 1.960701 2.210150
v -0.929656 1.601941 2.253146
v -1.370901 1.231730 2.365833
v -1.505597 1.455958 2.442344
v -1.467019 1.798161 2.471182
v -1.392038 2.108725 2.482959
v -1.226120 2.491086 2.470949
v -0.973220 2.171183 2.016821
v -1.010205 1.636338 2.157500
v -1.225597 1.530490 2.134662
v -1.438739 1.295023 2.233032
v -1.552274 1.521923 2.290422
v -1.436037 2.133592 2.323102
v -1.233237 2.452529 2.313876
v -0.901526 1.936905 2.008227
v -1.082859 1.680527 2.054655
v -1.494240 1.428615 2.019721
v -1.574434 1.616703 2.094352
v -1.493348 1.859197 2.125406
v -1.445159 2.179045 2.110961
v -1.235027 2.391877 2.162464
v -1.112654 2.246691 1.939410
v -1.304118 1.569461 1.905909
v -1.235345 2.331170 2.017276
v -1.003508 2.135542 1.804622
v -0.980799 1.926508 1.772121
v -1.177719 1.761050 1.822862
v -1.509735 1.571839 1.731683
v -1.558674 1.740720 1.756027
v -1.458192 1.984875 1.643396
v -1.431312 2.203382 1.816214
v -1.233793 2.265395 1.813761
v -1.102981 2.225244 1.711840
v -1.209068 1.802873 1.616943
v -1.348895 1.607827 1.614796
v -0.998549 2.121441 1.491800
v -1.021951 1.932434 1.520768
v -1.486335 1.664265 1.457074
v -1.508555 1.818558 1.460880
v -1.388705 2.214299 1.518483
v -1.228745 2.215801 1.536774
v -1.081574 2.200196 1.425869
v -1.330898 1.670490 1.329461
v -1.060541 1.955489 1.256863
v -1.175728 1.872002 1.214538
v -1.403975 1.761603 1.197768
v -1.400354 1.880366 1.190136
v -1.375554 2.011431 1.187931
v -1.313066 2.179312 1.257205
v -1.048425 2.097856 0.905577
v -1.012093 2.088818 1.135697
v -1.205328 1.835668 0.965901
v -1.082265 1.956878 0.961134
v -1.120428 1.943590 0.744120
v -1.244142 2.022225 0.921745
v -1.144385 2.085835 0.868185
v -0.992524 2.062550 0.853241
v -1.017880 2.029845 0.609557
v -0.995044 1.980962 0.693882
v -1.025799 1.950060 0.670933
v -0.855420 2.067172 0.508900
v -0.870210 2.053473 0.560868
v -0.890932 2.036262 0.473063
v -0.840627 2.011890 0.482659
v -0.844436 2.001571 0.446405
v -0.687815 2.059511 0.344162
v -0.697022 2.030590 0.343382
v -0.672162 2.033511 0.304513
v -0.444214 2.049783 0.181761
v 4.714244 0.790287 2.286113
v 4.639218 1.055831 2.230464
v 4.588091 0.978467 2.271427
v 4.556952 0.862864 2.347415
v 4.566427 0.769254 2.465956
v 4.627311 0.774714 2.502199
v 4.689191 0.812487 2.514110
v 4.710253 0.929415 2.435533
v 4.695056 0.999230 2.317905
v 4.377923 1.052171 2.508858
v 4.456601 0.946631 2.688277
v 4.581364 0.938145 2.653626
v 4.547452 1.213637 2.486220
v 4.496459 1.236271 2.396754
v 4.395637 0.966412 2.624645
v 4.503693 1.133931 2.652067
v 4.425333 1.365622 2.499508
v 4.272911 1.148935 2.560185
v 4.208206 1.067871 2.822935
v 4.319942 1.001494 2.784594
v 4.398408 1.063195 2.809914
v 4.482244 1.352325 2.583728
v 4.334358 1.422132 2.637439
v 4.276037 1.386141 2.598346
v 4.180910 1.260742 2.647010
v 4.277879 1.179519 2.845111
v 4.392593 1.434863 2.702126
v 4.254798 1.532217 2.740212
v 4.203857 1.552656 2.642698
v 4.093142 1.355606 2.684586
v 4.053936 1.215880 2.772945
v 4.017638 1.057053 2.885721
v 4.100623 1.208646 2.918060
v 4.237990 1.350996 2.905617
v 4.324058 1.548612 2.826347
v 4.188861 1.680790 2.844698
v 4.134583 1.730136 2.708112
v 3.991753 1.448937 2.748772
v 3.877398 1.224465 2.780677
v 3.854019 1.061677 2.900973
v 4.142418 1.394601 3.047472
v 4.220705 1.623822 2.952097
v 4.073913 1.760901 2.956107
v 4.001721 1.738125 2.848464
v 3.893490 1.519019 2.848877
v 3.745128 1.314251 2.823839
v 3.798759 1.243866 2.922173
v 3.881978 1.321078 3.001684
v 3.867992 1.503403 3.136915
v 3.998919 1.610797 3.034164
v 3.941876 1.841156 3.047192
v 3.848607 1.730145 2.954471
v 3.767134 1.580041 2.913818
v 3.709449 1.378992 2.980281
v 3.754900 1.347123 3.067439
v 3.769555 1.864444 3.105188
v 3.613204 1.627641 2.983266
v 3.577119 1.448052 2.978364
v 3.638842 1.389141 3.140430
v 3.708586 1.573348 3.165395
v 3.743105 1.709932 3.149109
v 3.473358 1.804043 3.167131
v 3.458685 1.646132 3.085937
v 3.478040 1.554923 3.108897
v 3.502621 1.505437 3.140479
v 3.473471 1.526358 3.235169
v 3.544550 1.749632 3.202735
v 3.377420 1.765461 3.144173
v 3.253140 1.658288 3.157041
v 3.372236 1.479226 3.232309
v 3.415817 1.667436 3.265529
v 3.431438 1.811968 3.250535
v 3.228684 1.822528 3.226348
v 3.208619 1.791184 3.170701
v 3.196063 1.575580 3.269243
v 3.250885 1.474777 3.335712
v 3.268958 1.581807 3.357493
v 3.256904 1.719005 3.343912
v 3.262199 1.845948 3.288121
v 2.934342 1.736994 3.296755
v 2.997077 1.662903 3.318564
v 3.003340 1.587004 3.447688
v 2.981290 1.659631 3.448181
v 2.996971 1.787688 3.351970
v 2.909421 1.766659 3.336531
v 2.655192 1.640863 3.505888
v 2.929859 1.721015 3.439043
v 2.542975 1.652567 3.523186
v 2.617785 1.665712 3.483681
v 2.451472 1.631128 3.552332
v 2.451609 1.342920 3.552190
v 2.372803 1.598324 3.498940
v 2.216825 1.449339 3.509032
v 2.204995 1.318343 3.678449
v 2.264182 1.363523 3.737874
v 2.374911 1.598305 3.594642
v 2.216219 1.736801 3.572407
v 2.167003 1.676659 3.528366
v 1.850270 1.503198 3.724279
v 2.022126 1.381863 3.729929
v 2.081242 1.457181 3.774169
v 2.234460 1.734198 3.658747
v 2.029510 1.822596 3.653784
v 1.992021 1.784594 3.590409
v 1.910964 1.647597 3.596013
v 1.911302 1.599009 3.768969
v 1.968166 1.687122 3.761879
v 2.035172 1.811089 3.724858
v 1.793915 2.079935 3.750148
v 1.766729 2.074249 3.640808
v 1.629276 1.677912 3.596246
v 1.594756 1.523486 3.695652
v 1.745507 2.046720 3.876281
v 1.376120 1.915724 3.568700
v 1.417882 1.560556 3.647133
v 1.570479 1.845412 3.885107
v 1.493117 2.230851 3.831705
v 1.498648 2.248910 3.698637
v 1.304818 1.795036 3.547960
v 1.244056 1.648471 3.615955
v 1.352594 1.906162 3.905113
v 1.455327 2.138157 3.915477
v 1.304908 2.397493 3.867954
v 1.300645 2.372641 3.698267
v 1.105902 1.813942 3.480982
v 1.062058 1.705893 3.600626
v 1.091080 1.801164 3.758609
v 1.148867 1.977959 3.944349
v 1.238450 2.220631 3.918633
v 1.077397 2.456245 3.821552
v 1.054577 2.341545 3.680233
v 1.001404 2.145972 3.599483
v 0.930877 1.894406 3.519539
v 0.914527 1.879038 3.649894
v 0.905682 1.882613 3.761620
v 0.953704 2.074152 3.886240
v 0.930733 2.433588 3.768179
v 0.770190 2.201476 3.591042
v 0.754861 2.007872 3.590183
v 0.745248 2.018576 3.676625
v 0.724945 1.985211 3.760333
v 0.764457 2.162483 3.795834
v 0.799475 2.289211 3.773649
v 0.638753 2.485328 3.644631
v 0.466367 2.208604 3.502681
v 0.607396 2.201114 3.525828
v 0.564125 2.052187 3.599655
v 0.542858 2.021295 3.677282
v 0.521830 2.016684 3.779385
v 0.567957 2.224975 3.749101
v 0.604045 2.397181 3.734445
v 0.428678 2.434459 3.565464
v 0.427373 2.349760 3.526740
v 0.194499 2.038903 3.687949
v 0.345410 2.030389 3.683260
v 0.339988 2.109390 3.745449
v 0.281279 2.315292 3.656388
v 0.409075 2.454150 3.652632
v 0.235333 2.403307 3.497412
v 0.254733 2.370517 3.428969
v 0.275775 2.214780 3.484783
v 0.161888 2.178628 3.682050
v 0.220399 2.474877 3.559991
v 0.062879 2.412028 3.410610
v 0.096953 2.378580 3.321554
v 0.055627 2.213809 3.430571
v 0.016993 2.112621 3.532226
v -0.032297 2.040333 3.661642
v -0.012967 2.338943 3.594779
v 0.039134 2.466571 3.472517
v -0.124636 2.384984 3.364066
v -0.088914 2.330209 3.313422
v -0.225677 2.158982 3.420898
v -0.174347 2.134496 3.533921
v -0.199299 2.311298 3.480482
v -0.425461 2.278830 3.245310
v -0.315401 2.265968 3.285245
v -0.321869 2.188107 3.411127
v -0.517558 2.179960 3.261675
v -0.677750 2.130983 3.099485
v -0.583672 2.153175 3.166706
v -0.365892 1.717772 3.324798
v -0.432537 1.973930 3.282481
v -0.433626 2.063097 3.200413
v -0.423260 1.842636 3.163836
v -0.540055 1.836126 3.083276
v -0.600454 1.715312 3.118023
v -0.572442 1.755998 3.224305
v -0.636444 1.929325 3.224235
v -0.458670 1.946132 3.336967
v -0.499503 1.979781 3.062043
v -0.678088 1.752264 2.971874
v -0.597046 2.097373 3.298337
v -0.651199 2.227062 3.157591
v -0.610758 2.321671 3.082195
v -0.626279 2.002330 2.898228
v -0.729632 1.878670 2.848832
v -0.775668 2.036549 3.098186
v -0.724987 2.188980 3.181125
v -0.753162 2.422128 3.134870
v -0.676732 2.044848 2.714227
v -0.791532 1.945809 2.694957
v -0.866329 2.019031 2.825400
v -1.058908 2.226577 2.901611
v -0.948824 2.468510 3.051056
v -0.839926 2.641793 3.113684
v -0.705253 2.583477 2.968651
v -0.687170 2.346359 2.746317
v -0.712467 2.078705 2.527066
v -0.861664 1.979227 2.542571
v -0.984052 2.030494 2.672844
v -0.896362 2.713691 2.942142
v -0.830930 2.653856 2.713146
v -0.825162 2.451487 2.560497
v -0.874096 2.216689 2.437972
v -0.990715 2.154772 2.479518
v -1.056063 2.142545 2.597143
v -1.131476 2.424743 2.692345
v -1.043551 2.622507 2.765673
v -0.923464 2.795389 2.775792
v -1.140961 2.236305 2.525455
v -0.936263 2.855795 2.602531
v -0.906902 2.695120 2.500947
v -0.911424 2.515056 2.405556
v -1.019551 2.304305 2.344611
v -1.127757 2.294001 2.392374
v -1.227304 2.321931 2.456596
v -1.173047 2.549080 2.552992
v -1.069140 2.725612 2.597466
v -0.984180 2.800198 2.443253
v -0.996425 2.548000 2.310458
v -1.104354 2.427100 2.307250
v -1.183811 2.411729 2.335401
v -1.254195 2.447278 2.380710
v -1.181374 2.642504 2.376028
v -1.091308 2.753113 2.436674
v -1.002495 2.848582 2.269058
v -0.993314 2.727808 2.231606
v -1.038970 2.555866 2.103015
v -1.168276 2.456185 2.221038
v -1.292516 2.387190 2.248405
v -1.341895 2.488248 2.295445
v -1.106706 2.869131 2.314086
v -1.038808 2.849330 2.131490
v -0.963049 2.774112 2.096451
v -1.394500 2.403571 2.071640
v -1.402474 2.339038 2.172842
v -1.381760 2.534007 2.194638
v -1.278928 2.721229 2.189194
v -1.121739 2.951322 2.172707
v -1.109255 2.806021 2.010805
v -1.042422 2.770071 1.901218
v -1.125191 2.590782 2.012888
v -1.243530 2.490824 2.042426
v -1.342434 2.585482 2.068786
v -1.315174 2.733110 2.063151
v -1.174160 2.880948 2.028224
v -1.140889 2.815820 1.885125
v -1.193996 2.595405 1.877027
v -1.251409 2.458683 1.932012
v -1.367772 2.435091 1.976475
v -1.341069 2.553822 1.858458
v -1.359090 2.713317 1.906794
v -1.225223 2.810406 1.902202
v -1.190796 2.785309 1.764899
v -1.155038 2.716304 1.777657
v -1.311234 2.503837 1.851170
v -1.246531 2.678815 1.674888
v -1.229107 2.607897 1.686818
v -1.250686 2.521246 1.725901
v -1.318885 2.543840 1.731313
v -1.309556 2.603939 1.698792
v -1.268903 2.588903 1.524079
v -1.258718 2.477654 1.547613
v -1.289049 2.549254 1.508085
v -1.250501 2.414408 1.356331
vn 0.0392 -0.9046 -0.4244
vn -0.5521 0.0124 -0.8337
vn 0.0350 0.6808 -0.7316
vn -0.8151 -0.1844 -0.5491
vn -0.6222 -0.4028 -0.6713
vn -0.0890 -0.9398 -0.3298
vn 0.7444 -0.6376 -0.1983
vn 0.9395 0.0322 -0.3409
vn 0.7545 0.6110 -0.2395
vn -0.6331 -0.5936 -0.4967
vn -0.2559 -0.9500 -0.1788
vn 0.4366 -0.8994 0.0202
vn 0.8372 -0.5465 0.0214
vn 0.9675 0.2508 0.0340
vn 0.8203 0.5710 0.0322
vn 0.6855 0.7250 -0.0672
vn -0.8027 -0.0072 -0.5963
vn -0.0662 0.7893 -0.6105
vn -0.6084 -0.6161 -0.5003
vn -0.1166 -0.9884 -0.0970
vn 0.2696 -0.9553 0.1217
vn 0.8224 -0.5216 0.2272
vn 0.9436 0.2898 0.1603
vn 0.7700 0.6187 0.1561
vn -0.2086 0.8198 -0.5334
vn -0.8188 -0.1668 -0.5492
vn -0.6571 -0.6132 -0.4384
vn 0.8090 -0.4887 0.3266
vn 0.8828 0.3386 0.3256
vn 0.6594 0.7490 0.0638
vn -0.8428 0.0207 -0.5379
vn -0.3901 0.7998 -0.4561
vn -0.2019 -0.9783 0.0471
vn 0.1597 -0.9519 0.2614
vn 0.7400 -0.4016 0.5395
vn 0.8016 0.3776 0.4635
vn 0.6929 0.6332 0.3449
vn 0.6340 0.7542 0.1707
vn -0.8577 0.0353 -0.5130
vn -0.6931 -0.6114 -0.3817
vn 0.6926 -0.3155 0.6487
vn 0.7261 0.3978 0.5609
vn -0.8115 0.1433 -0.5666
vn -0.4799 0.7042 -0.5232
vn -0.7587 -0.1802 -0.6260
vn -0.0575 -0.9571 0.2841
vn 0.6065 -0.2768 0.7453
vn 0.6649 0.3917 0.6360
vn 0.6881 0.5728 0.4455
vn 0.6552 0.7390 0.1566
vn -0.7275 0.2041 -0.6551
vn -0.6838 -0.1742 -0.7085
vn -0.5715 -0.6701 -0.4736
vn -0.1158 -0.9726 0.2016
vn 0.6274 -0.2043 0.7515
vn 0.6767 0.3967 0.6202
vn -0.6096 0.2454 -0.7538
vn -0.3423 0.6233 -0.7031
vn -0.5838 -0.1680 -0.7944
vn -0.2367 -0.9639 -0.1220
vn -0.0004 -0.9979 0.0648
vn 0.6461 0.3385 0.6840
vn 0.7235 0.4504 0.5232
vn -0.4775 0.2829 -0.8318
vn -0.4988 -0.1693 -0.8500
vn -0.5573 -0.6411 -0.5276
vn -0.3080 -0.9138 -0.2648
vn 0.5826 -0.1629 0.7963
vn 0.6736 0.2973 0.6767
vn 0.6366 0.7537 0.1634
vn -0.4113 0.3808 -0.8282
vn -0.2539 0.7058 -0.6613
vn -0.4821 -0.1311 -0.8663
vn -0.5151 -0.6447 -0.5648
vn -0.0504 -0.9979 0.0406
vn 0.7543 0.4007 0.5201
vn -0.5663 -0.0533 -0.8225
vn -0.4001 -0.8142 -0.4207
vn 0.6263 -0.2779 0.7284
vn 0.5317 0.1933 0.8246
vn 0.6421 0.3314 0.6913
vn 0.5004 0.8219 0.2720
vn -0.3894 0.5029 -0.7717
vn -0.2988 0.8297 -0.4716
vn -0.5791 -0.5590 -0.5934
vn -0.1159 -0.9873 0.1090
vn 0.3157 -0.1442 0.9378
vn -0.3469 0.5668 -0.7473
vn -0.2461 0.8971 -0.3671
vn -0.6095 0.0165 -0.7926
vn -0.4638 -0.7104 -0.5294
vn -0.2049 -0.9677 0.1468
vn 0.1977 -0.1824 0.9631
vn 0.4352 0.0477 0.8991
vn 0.5539 0.2474 0.7950
vn 0.4315 0.8516 0.2975
vn -0.2628 0.6317 -0.7293
vn -0.1580 0.9431 -0.2927
vn -0.4569 -0.6322 -0.6258
vn -0.1783 -0.9708 0.1604
vn 0.2031 -0.2142 0.9554
vn -0.1016 0.6453 -0.7572
vn 0.0817 0.9671 -0.2408
vn -0.4832 0.0281 -0.8751
vn -0.3550 -0.5823 -0.7314
vn -0.0158 -0.9904 0.1371
vn 0.2348 -0.3071 0.9223
vn 0.4615 -0.0908 0.8825
vn 0.6064 0.1471 0.7814
vn 0.0946 0.6250 -0.7749
vn 0.3020 0.9383 -0.1685
vn -0.3317 0.0209 -0.9431
vn -0.2260 -0.5094 -0.8303
vn 0.1912 -0.9725 0.1332
vn 0.2989 -0.3984 0.8671
vn 0.5270 -0.1913 0.8281
vn 0.5414 0.7872 0.2951
vn 0.2444 0.5982 -0.7632
vn 0.4861 0.8680 -0.1009
vn -0.2231 0.0456 -0.9737
vn -0.1521 -0.3148 -0.9369
vn 0.0226 -0.4840 -0.8748
vn 0.3108 -0.4977 0.8098
vn 0.5569 -0.2858 0.7798
vn 0.6449 0.0846 0.7596
vn 0.2849 0.6327 -0.7201
vn 0.5437 0.8357 0.0779
vn -0.1828 0.0882 -0.9792
vn -0.0921 -0.2256 -0.9699
vn 0.0544 -0.4269 -0.9027
vn 0.2038 -0.9613 0.1856
vn 0.2734 -0.5673 0.7768
vn 0.5360 -0.3539 0.7665
vn 0.5724 0.7383 0.3568
vn 0.1329 0.7527 -0.6448
vn -0.2077 0.1453 -0.9673
vn -0.0546 -0.1427 -0.9883
vn 0.1969 -0.6289 0.7522
vn 0.4592 -0.4227 0.7813
vn 0.4674 0.0709 0.8812
vn 0.5748 0.6883 0.4426
vn 0.4737 0.8394 0.2666
vn -0.2635 0.2086 -0.9418
vn -0.0982 -0.0306 -0.9947
vn 0.0202 -0.3901 -0.9206
vn -0.0905 -0.9618 0.2585
vn -0.0108 -0.6972 0.7168
vn 0.2954 -0.4826 0.8246
vn 0.3520 0.6705 0.6531
vn -0.0905 0.8191 -0.5664
vn 0.3388 0.8545 0.3937
vn -0.2663 0.2601 -0.9281
vn -0.1632 0.0789 -0.9834
vn -0.1125 -0.3625 -0.9251
vn -0.2857 -0.9210 0.2649
vn 0.1473 -0.5148 0.8446
vn 0.2156 0.0783 0.9733
vn 0.2231 0.6044 0.7648
vn -0.2413 0.8140 -0.5284
vn 0.1907 0.8504 0.4904
vn -0.1963 0.1547 -0.9683
vn -0.2428 -0.3383 -0.9092
vn -0.4788 -0.8545 0.2015
vn -0.1476 -0.7513 0.6433
vn -0.1221 -0.5225 0.8439
vn 0.0383 0.0832 0.9958
vn 0.0536 0.5258 0.8489
vn -0.2764 0.7989 -0.5342
vn 0.0794 0.8301 0.5520
vn -0.2014 0.2154 -0.9555
vn -0.3050 -0.3302 -0.8933
vn -0.5367 -0.8346 0.1241
vn -0.2148 -0.7849 0.5812
vn -0.0971 0.0683 0.9929
vn -0.0344 0.4494 0.8927
vn -0.2161 0.7842 -0.5817
vn 0.0238 0.8039 0.5943
vn -0.1152 0.2451 -0.9626
vn -0.2603 -0.3582 -0.8966
vn -0.4986 -0.8659 0.0399
vn -0.2035 -0.8329 0.5147
vn -0.2024 -0.5145 0.8333
vn -0.0938 0.3757 0.9220
vn -0.0898 0.7705 -0.6311
vn 0.0710 0.8097 0.5825
vn 0.0053 0.2822 -0.9593
vn -0.1499 -0.4204 -0.8949
vn -0.3921 -0.9192 -0.0373
vn -0.1899 -0.8821 0.4311
vn -0.1720 0.0481 0.9839
vn 0.0152 0.7565 -0.6538
vn 0.0513 0.8061 0.5895
vn 0.1347 0.4648 -0.8751
vn 0.1715 0.2513 -0.9526
vn -0.2782 -0.9518 -0.1291
vn -0.1222 -0.9120 0.3916
vn -0.2390 -0.4761 0.8463
vn -0.1555 0.2756 0.9486
vn 0.1345 0.7258 -0.6746
vn 0.0336 0.8270 0.5612
vn 0.0511 -0.6024 -0.7966
vn -0.1773 -0.9656 -0.1903
vn -0.1502 -0.9384 0.3113
vn 0.1853 0.6997 -0.6900
vn -0.0317 0.8625 0.5051
vn 0.2218 0.5140 -0.8286
vn 0.2226 0.2189 -0.9500
vn -0.1776 -0.9351 0.3067
vn -0.3223 -0.4257 0.8455
vn -0.3537 0.0309 0.9348
vn -0.3305 0.2256 0.9165
vn -0.2627 0.8895 0.3738
vn -0.2078 -0.8886 -0.4090
vn -0.3942 -0.9017 0.1774
vn -0.4632 -0.3721 0.8044
vn 0.3298 0.5168 -0.7900
vn -0.3451 0.9108 0.2266
vn 0.2201 0.1625 -0.9618
vn -0.1021 -0.4970 -0.8617
vn -0.3658 -0.9218 0.1284
vn -0.5583 -0.3083 0.7702
vn -0.5770 0.0333 0.8161
vn -0.5013 0.2517 0.8279
vn -0.3991 0.9144 0.0673
vn 0.2028 0.0754 -0.9763
vn -0.1133 -0.5248 -0.8437
vn -0.6842 -0.2563 0.6828
vn -0.6001 0.2981 0.7423
vn -0.3133 0.9482 -0.0525
vn -0.0527 -0.5125 -0.8571
vn -0.1388 -0.9046 -0.4031
vn -0.5805 -0.7862 0.2120
vn -0.6984 -0.1776 0.6933
vn -0.6937 0.0466 0.7188
vn -0.6590 0.3129 0.6839
vn 0.5150 0.4727 -0.7151
vn -0.1013 0.9887 -0.1109
vn 0.5429 -0.1118 -0.8323
vn 0.1742 -0.6171 -0.7674
vn 0.0071 -0.9114 -0.4115
vn -0.6649 0.3693 0.6493
vn 0.2333 0.9663 -0.1087
vn 0.7814 0.3611 -0.5090
vn 0.3728 -0.6623 -0.6499
vn 0.1588 -0.9549 -0.2508
vn -0.5405 -0.6412 0.5448
vn -0.7164 0.0043 0.6977
vn -0.7352 0.1129 0.6684
vn -0.5541 0.4346 0.7100
vn 0.7810 0.5727 -0.2489
vn 0.2954 0.9554 -0.0033
vn 0.7889 -0.3980 -0.4682
vn 0.4736 -0.7650 -0.4364
vn 0.2712 -0.9488 -0.1618
vn 0.5594 0.8269 0.0571
vn 0.9363 0.1639 -0.3108
vn 0.2930 -0.9561 -0.0098
vn -0.5811 -0.5295 0.6180
vn -0.5364 0.5898 0.6037
vn 0.7293 0.6271 -0.2738
vn 0.5781 -0.6867 -0.4408
vn 0.2389 -0.9702 -0.0403
vn -0.6928 -0.4231 0.5839
vn -0.7952 0.0276 0.6057
vn -0.7852 0.1967 0.5871
vn -0.5215 0.6322 0.5730
vn 0.5665 0.8181 -0.0987
vn 0.9687 0.0097 -0.2479
vn 0.5292 -0.7358 -0.4226
vn 0.1423 -0.9836 -0.1108
vn -0.8239 -0.3190 0.4685
vn -0.8708 0.1621 0.4641
vn -0.5631 0.7328 0.3821
vn 0.9052 -0.0709 -0.4191
vn 0.6762 -0.5468 -0.4937
vn -0.0979 -0.9169 -0.3870
vn -0.9280 -0.2132 0.3054
vn -0.9628 0.1087 0.2475
vn -0.8507 0.3724 0.3710
vn -0.6227 0.7825 0.0022
vn 0.7877 0.5433 -0.2904
vn 0.6311 -0.4976 -0.5950
vn 0.5004 -0.7445 -0.4420
vn -0.1087 -0.9111 -0.3977
vn -0.9831 -0.1174 0.1402
vn -0.8917 0.4128 0.1857
vn -0.5253 0.8436 -0.1113
vn 0.8873 -0.2211 -0.4048
vn 0.6486 -0.5972 -0.4720
vn -0.2889 -0.8688 -0.4022
vn -0.9997 -0.0037 0.0254
vn -0.9742 0.2194 0.0531
vn -0.8745 0.4836 -0.0381
vn -0.4209 0.8812 -0.2152
vn 0.4898 -0.7969 -0.3537
vn -0.3396 0.8831 -0.3237
vn 0.5028 0.8368 -0.2167
vn 0.9171 0.3794 -0.1219
vn 0.8795 -0.4165 -0.2301
vn 0.6844 -0.6810 -0.2604
vn -0.5419 -0.7935 -0.2771
vn -0.9934 0.1006 -0.0552
vn -0.9627 0.2684 -0.0336
vn -0.7977 0.6022 -0.0330
vn -0.1420 0.9869 -0.0770
vn 0.4402 0.8935 -0.0888
vn 0.6824 -0.7157 -0.1489
vn 0.5076 -0.8306 -0.2291
vn 0.9734 0.2125 -0.0858
vn 0.8424 -0.5298 -0.0982
vn -0.6929 -0.6404 -0.3314
vn -0.9696 0.1044 -0.2212
vn -0.7023 0.6980 -0.1396
vn 0.0119 0.9957 -0.0920
vn 0.3561 0.9256 -0.1281
vn 0.4516 -0.8763 -0.1682
vn 0.8353 -0.5457 -0.0664
vn 0.6983 -0.7139 -0.0523
vn -0.6958 -0.5001 -0.5155
vn -0.9076 0.0505 -0.4168
vn -0.8734 0.3650 -0.3224
vn -0.5883 0.7447 -0.3153
vn 0.9951 0.0557 -0.0820
vn 0.2066 0.9742 -0.0911
vn 0.4038 -0.9036 -0.1430
vn 0.7643 -0.6412 0.0683
vn -0.6931 -0.3787 -0.6133
vn -0.7932 0.3599 -0.4912
vn -0.3996 0.8297 -0.3898
vn 0.9528 -0.0074 0.3034
vn -0.6915 0.4015 -0.6005
vn 0.6755 -0.6954 0.2452
vn 0.3785 -0.9253 -0.0227
vn 0.8685 -0.0628 0.4917
vn -0.0398 0.9978 -0.0529
vn -0.6539 0.3599 -0.6655
vn 0.5717 -0.7481 0.3368
vn -0.0629 -0.8689 -0.4909
vn 0.3548 0.9074 0.2252
vn 0.5261 -0.7847 0.3280
vn -0.3912 -0.5279 -0.7538
vn 0.5471 -0.7984 0.2515
vn -0.0346 -0.9589 -0.2815
vn -0.5562 -0.1927 -0.8084
vn 0.0851 0.4238 -0.9017
vn -0.6278 -0.5116 -0.5866
vn -0.5755 -0.8173 -0.0288
vn 0.1844 -0.9207 0.3439
vn 0.8017 -0.5657 0.1928
vn 0.9470 0.2253 0.2291
vn 0.9171 0.3563 -0.1788
vn -0.7592 -0.3546 -0.5458
vn -0.1315 -0.8187 0.5590
vn 0.6944 -0.0142 0.7195
vn 0.8610 0.5011 0.0875
vn -0.0029 0.5917 -0.8062
vn -0.7419 -0.6631 -0.0995
vn 0.7852 0.3002 0.5417
vn -0.7328 -0.2663 -0.6262
vn -0.2531 -0.8820 0.3975
vn -0.2101 -0.8043 0.5558
vn 0.5136 0.0574 0.8561
vn 0.8163 0.5339 0.2205
vn 0.1322 0.7889 -0.6002
vn -0.4020 0.2336 -0.8854
vn 0.3669 0.8146 -0.4493
vn -0.6514 -0.2029 -0.7311
vn 0.4870 -0.1321 0.8634
vn 0.8675 0.4056 0.2879
vn -0.1543 0.2856 -0.9459
vn 0.6790 0.6352 -0.3680
vn -0.4256 -0.0787 -0.9015
vn -0.3255 -0.4738 -0.8183
vn -0.0366 -0.9673 0.2509
vn 0.2656 -0.3924 0.8806
vn 0.7194 -0.1746 0.6722
vn 0.8553 0.3104 0.4149
vn -0.2369 0.5543 -0.7979
vn 0.6087 0.7891 -0.0826
vn -0.4847 0.1647 -0.8590
vn -0.4171 -0.3122 -0.8536
vn -0.4088 -0.8892 0.2054
vn 0.4738 -0.1853 0.8609
vn 0.6652 0.2617 0.6993
vn -0.3363 0.7156 -0.6122
vn 0.3895 0.8990 0.2003
vn -0.4873 0.3088 -0.8168
vn -0.6033 -0.0043 -0.7975
vn -0.7478 -0.6393 0.1791
vn 0.0280 -0.5393 0.8417
vn 0.2652 -0.1925 0.9448
vn 0.4216 0.2446 0.8732
vn -0.3259 0.6988 -0.6367
vn 0.3242 0.8926 0.3132
vn -0.4166 0.3083 -0.8552
vn -0.6325 -0.7636 0.1299
vn 0.0457 -0.6256 0.7788
vn -0.4411 0.3168 -0.8397
vn 0.1227 0.9054 0.4065
vn -0.6537 -0.1089 -0.7489
vn -0.0160 -0.6229 0.7821
vn 0.1707 -0.1638 0.9716
vn 0.3119 0.2025 0.9283
vn -0.3829 0.0613 -0.9217
vn 0.1658 0.9694 -0.1811
vn -0.5820 -0.3605 -0.7289
vn -0.4010 -0.9159 0.0177
vn 0.4406 -0.3282 0.8355
vn 0.4126 0.4010 0.8179
vn -0.1030 0.2963 -0.9495
vn -0.4158 -0.3017 -0.8579
vn -0.0942 -0.9954 0.0188
vn 0.4137 0.0606 0.9084
vn 0.1191 0.6360 0.7625
vn -0.3743 0.2262 -0.8993
vn -0.1763 0.9251 -0.3362
vn -0.4525 -0.6512 -0.6092
vn -0.1002 -0.9766 0.1904
vn 0.4183 -0.1029 0.9024
vn 0.3558 0.2839 0.8904
vn 0.2375 0.6479 0.7237
vn -0.4378 -0.0914 -0.8944
vn -0.3814 -0.4308 -0.8179
vn 0.0131 -0.8467 0.5320
vn 0.2496 0.1559 0.9557
vn 0.0715 0.8438 0.5319
vn -0.3950 0.8475 -0.3545
vn -0.0902 -0.8870 0.4529
vn 0.1003 0.5247 0.8453
vn -0.4081 -0.3531 -0.8419
vn -0.0018 0.8504 0.5261
vn -0.3980 0.6958 0.5979
vn -0.0562 -0.9869 0.1513
vn -0.2837 -0.4094 -0.8671
vn 0.4999 0.3842 -0.7762
vn -0.1813 -0.9700 0.1618
vn 0.4749 -0.4170 0.7750
vn 0.7922 0.4810 0.3754
vn -0.0147 0.2275 -0.9737
vn 0.3841 0.8155 -0.4330
vn -0.3503 -0.9124 0.2119
vn -0.4349 -0.8625 0.2587
vn 0.0682 -0.1194 0.9905
vn 0.4921 0.5641 0.6631
vn 0.0358 0.4397 -0.8974
vn 0.5198 0.8124 -0.2642
vn -0.2195 -0.2417 -0.9452
vn 0.0332 -0.2018 0.9789
vn 0.2906 0.0377 0.9561
vn 0.5279 0.3993 0.7496
vn 0.2436 0.5265 -0.8146
vn 0.6327 0.7662 0.1123
vn 0.0062 -0.3050 -0.9523
vn -0.1348 -0.9884 0.0699
vn 0.4184 0.2127 0.8830
vn 0.1478 0.1773 -0.9730
vn -0.3019 -0.9455 -0.1217
vn 0.0513 -0.2570 0.9651
vn 0.2710 0.6354 -0.7230
vn 0.5372 0.7624 0.3608
vn 0.1273 -0.2383 -0.9628
vn -0.2791 -0.9452 -0.1692
vn -0.0175 -0.3611 0.9323
vn 0.1575 0.1205 0.9801
vn 0.1274 0.7815 -0.6107
vn 0.3116 0.8483 0.4281
vn 0.0127 -0.1026 -0.9946
vn -0.4345 -0.8641 -0.2539
vn -0.2613 -0.6800 0.6850
vn -0.1735 -0.2664 0.9481
vn -0.0819 0.1519 0.9850
vn 0.0052 0.6822 -0.7312
vn -0.1803 0.8929 0.4127
vn 0.0464 0.2731 -0.9609
vn -0.4310 0.0647 -0.9000
vn -0.6455 -0.7125 -0.2751
vn -0.4332 -0.5836 0.6869
vn -0.3629 -0.1672 0.9167
vn -0.0482 0.9803 0.1913
vn 0.0925 0.2419 -0.9659
vn -0.1623 -0.2077 -0.9646
vn -0.3827 -0.9092 -0.1638
vn -0.3026 -0.4664 0.8312
vn -0.2877 -0.0609 0.9558
vn -0.2009 0.3384 0.9193
vn 0.1492 -0.2896 -0.9455
vn 0.2063 0.9671 -0.1487
vn 0.2205 0.3916 -0.8933
vn -0.0847 -0.4864 -0.8696
vn -0.1446 -0.9895 0.0078
vn -0.1753 -0.2762 0.9450
vn -0.1933 0.1182 0.9740
vn -0.1388 0.4813 0.8655
vn 0.3366 0.1646 -0.9272
vn 0.0817 0.9438 -0.3203
vn -0.1039 -0.8936 0.4367
vn -0.1691 -0.9174 0.3601
vn -0.2234 -0.0599 0.9729
vn -0.2480 0.3670 0.8965
vn -0.1774 0.6514 0.7377
vn 0.4174 -0.0387 -0.9079
vn 0.2052 0.8649 -0.4581
vn 0.1718 -0.4693 -0.8661
vn -0.3323 0.0294 0.9427
vn -0.3588 0.7891 0.4985
vn 0.3087 -0.0954 -0.9464
vn 0.1276 0.8207 -0.5569
vn 0.2352 -0.5928 -0.7702
vn 0.1319 -0.8525 -0.5059
vn -0.4207 -0.8322 0.3612
vn -0.3424 0.5234 0.7802
vn -0.2149 0.8703 0.4431
vn 0.1341 -0.0420 -0.9901
vn -0.3671 0.8743 -0.3175
vn -0.0208 -0.8294 -0.5582
vn -0.7351 -0.5679 0.3703
vn -0.5966 0.5307 0.6020
vn 0.3513 -0.2059 -0.9134
vn -0.3757 0.8154 -0.4404
vn -0.7054 -0.3566 0.6126
vn -0.7055 -0.2000 0.6799
vn 0.3323 -0.8583 -0.3910
vn -0.8925 -0.4501 -0.0276
vn -0.2093 -0.9750 -0.0739
vn 0.9335 0.3252 -0.1508
vn 0.7166 0.4721 0.5134
vn 0.7888 -0.2683 -0.5530
vn 0.6155 -0.3938 -0.6827
vn -0.2882 -0.9565 -0.0453
vn -0.5324 -0.5493 0.6440
vn -0.6858 -0.2340 0.6892
vn 0.1849 0.3407 0.9218
vn 0.7880 0.0708 -0.6115
vn -0.2342 -0.8831 -0.4065
vn -0.4377 0.3586 0.8245
vn 0.9265 0.3761 0.0068
vn 0.3215 0.5223 0.7898
vn 0.8560 -0.1760 -0.4861
vn -0.1028 -0.8919 -0.4403
vn -0.7473 -0.3635 0.5563
vn -0.5303 0.0080 0.8478
vn 0.2893 0.3435 0.8935
vn 0.8736 -0.3726 -0.3130
vn 0.0638 -0.9756 -0.2102
vn -0.6338 -0.7255 0.2682
vn -0.8537 -0.2825 0.4374
vn -0.7280 0.0813 0.6808
vn 0.8696 0.4936 -0.0112
vn 0.0314 0.6127 0.7897
vn 0.9004 0.2532 -0.3539
vn 0.7563 -0.0484 -0.6524
vn -0.0714 -0.8546 -0.5144
vn -0.7426 -0.6578 0.1260
vn 0.8690 0.4529 -0.1993
vn -0.1235 0.8767 0.4649
vn 0.8377 0.2113 -0.5035
vn 0.6181 -0.0454 -0.7848
vn -0.2721 -0.6564 -0.7036
vn -0.8643 -0.4995 0.0594
vn -0.9357 0.0314 0.3514
vn -0.8460 0.3589 0.3942
vn -0.0094 0.9492 0.3145
vn -0.8500 -0.4773 0.2229
vn 0.8987 0.2869 -0.3318
vn 0.0361 0.9987 0.0372
vn 0.7971 0.0310 -0.6030
vn 0.4844 -0.2671 -0.8331
vn -0.3669 -0.6522 -0.6634
vn -0.9653 -0.2233 0.1355
vn -0.9139 0.1844 0.3616
vn -0.7741 0.5552 0.3041
vn 0.2659 0.9566 -0.1190
vn 0.8106 -0.2262 -0.5402
vn 0.4306 -0.4716 -0.7695
vn -0.4358 -0.8473 -0.3037
vn -0.9044 -0.0616 0.4222
vn -0.7834 0.4143 0.4633
vn -0.6270 0.6865 0.3682
vn 0.9741 -0.2140 0.0731
vn 0.6451 0.7371 0.2011
vn 0.7455 -0.5681 -0.3486
vn 0.4788 -0.8151 -0.3261
vn -0.3269 -0.8511 0.4107
vn -0.7942 0.0569 0.6050
vn -0.4467 0.7533 0.4827
vn 0.9609 -0.0915 -0.2615
vn 0.5533 0.8114 -0.1882
vn -0.7441 -0.5725 -0.3443
vn -0.5821 -0.8073 -0.0967
vn -0.9452 0.1916 0.2645
vn -0.7662 0.5340 0.3573
vn -0.4028 0.8508 0.3374
vn 0.8309 -0.0734 -0.5515
vn 0.4081 0.8424 -0.3518
vn 0.7165 -0.5628 -0.4122
vn 0.4571 -0.8445 -0.2791
vn -0.9858 0.1635 -0.0373
vn -0.8240 0.5576 0.1006
vn -0.5177 0.8504 -0.0942
vn 0.3976 0.8318 -0.3874
vn 0.8049 -0.5143 -0.2961
vn 0.6312 -0.7474 -0.2071
vn -0.4442 -0.8288 -0.3402
vn -0.9653 -0.1243 -0.2296
vn -0.9093 0.3939 -0.1343
vn -0.5504 0.8126 -0.1915
vn 0.8361 -0.0285 -0.5479
vn 0.0554 0.7779 -0.6260
vn -0.4004 -0.8264 -0.3958
vn 0.1033 0.6068 -0.7881
vn 0.9348 -0.1131 -0.3368
vn 0.8336 -0.5510 0.0376
vn -0.8724 -0.4022 -0.2778
vn -0.9570 0.1740 -0.2320
vn -0.0349 0.7562 -0.6534
vn 0.4662 -0.8749 0.1313
vn -0.8533 0.2825 -0.4383
vn -0.2114 -0.9757 0.0571
vt 0.448022 0.065700
vt 0.904508 0.118689
vt 1.000000 0.122956
vt 0.654508 0.125255
vt 0.345491 0.115700
vt 0.095491 0.115700
vt 0.060979 0.115700
vt 0.779437 0.115700
vt 0.345491 0.165700
vt 0.095491 0.165700
vt 0.000000 0.165700
vt 0.654508 0.165700
vt 0.904508 0.203150
vt 0.904508 0.245237
vt 1.000000 0.215700
vt 0.345491 0.215700
vt 0.095492 0.221512
vt 0.000000 0.249437
vt 0.095491 0.215700
vt 0.654508 0.232387
vt 1.000000 0.265700
vt 0.654508 0.308245
vt 0.345491 0.295715
vt 0.095491 0.265700
vt 0.345491 0.265700
vt 0.904508 0.265700
vt 0.904508 0.315700
vt 1.000000 0.324358
vt 0.095491 0.316591
vt 0.000000 0.323838
vt 0.095491 0.315700
vt 0.345491 0.315700
vt 0.654508 0.336824
vt 0.904508 0.333140
vt 0.891413 0.365700
vt 0.345491 0.400154
vt 0.095491 0.365700
vt 0.345491 0.365700
vt 0.904508 0.415700
vt 1.000000 0.449788
vt 0.654508 0.415700
vt 0.005070 0.415700
vt 0.095491 0.415700
vt 0.345491 0.415700
vt 0.654508 0.451421
vt 0.904508 0.485658
vt 0.904508 0.465700
vt 0.654508 0.465700
vt 0.345491 0.499937
vt 0.006156 0.465700
vt 0.095491 0.482851
vt 0.345491 0.465700
vt 0.904508 0.515700
vt 1.000000 0.529874
vt 0.654508 0.515700
vt 0.095491 0.515700
vt 0.000000 0.528657
vt 0.345491 0.515700
vt 0.654508 0.532995
vt 0.904508 0.565700
vt 0.654508 0.565700
vt 0.345491 0.565700
vt 0.095491 0.581712
vt 0.095491 0.601522
vt 0.345491 0.585579
vt 0.904508 0.607372
vt 0.904508 0.638448
vt 1.000000 0.646686
vt 0.654508 0.615700
vt 0.345492 0.634470
vt 0.000000 0.660858
vt 0.654508 0.688889
vt 0.095491 0.689086
vt 0.095491 0.665700
vt 0.345491 0.686052
vt 0.654508 0.693438
vt 0.904508 0.691320
vt 0.904508 0.715700
vt 1.000000 0.715700
vt 0.345491 0.749244
vt 0.000000 0.715700
vt 0.095491 0.715700
vt 0.904508 0.765700
vt 1.000000 0.765700
vt 0.654508 0.805581
vt 0.095491 0.765700
vt 0.000000 0.765700
vt 0.345491 0.798540
vt 0.654508 0.785650
vt 0.904508 0.836585
vt 0.904508 0.815700
vt 1.000000 0.815700
vt 0.116750 0.815700
vt 0.000000 0.815700
vt 0.095491 0.815700
vt 0.904508 0.865700
vt 1.000000 0.865700
vt 0.654508 0.865700
vt 0.120135 0.865700
vt 0.000000 0.865700
vt 0.095491 0.865700
vt 0.345491 0.865700
vt 0.654508 0.893764
vt 0.904508 0.915700
vt 1.000000 0.915700
vt 0.654508 0.915700
vt 0.127215 0.915700
vt 0.000000 0.926830
vt 0.095491 0.915700
vt 0.345491 0.915700
vt 0.904508 0.931353
vt 0.904508 0.965700
vt 1.000000 0.965700
vt 0.654508 0.965700
vt 0.345491 0.965700
vt 0.095491 0.965700
vt 0.654508 0.990011
vt 0.904508 1.015700
vt 1.000000 1.036471
vt 0.654508 1.015700
vt 0.345491 1.015700
vt 0.095491 1.032707
vt 0.000000 1.048530
vt 0.095491 1.015700
vt 0.904508 1.098180
vt 0.654508 1.065700
vt 0.345491 1.065700
vt 0.095491 1.065700
vt 0.654508 1.095096
vt 0.904508 1.065700
vt 1.000000 1.115700
vt 0.654508 1.115700
vt 0.345491 1.115700
vt 0.095491 1.115700
vt 0.000000 1.115700
vt 0.095491 1.139984
vt 0.904508 1.115700
vt 0.904508 1.165700
vt 1.000000 1.165700
vt 0.654508 1.192320
vt 0.345491 1.165700
vt 0.095491 1.165700
vt 0.000000 1.165700
vt 0.654508 1.165700
vt 0.904508 1.215700
vt 1.000000 1.215700
vt 0.345491 1.215700
vt 0.095491 1.215700
vt 0.000000 1.215700
vt 0.345491 1.228967
vt 0.654508 1.215700
vt 0.904508 1.265700
vt 1.000000 1.265700
vt 0.362741 1.265700
vt 0.095491 1.265700
vt 0.000000 1.265700
vt 0.654508 1.283147
vt 0.904508 1.315700
vt 1.000000 1.315700
vt 0.355805 1.315700
vt 0.095491 1.315700
vt 0.000000 1.315700
vt 0.345491 1.349016
vt 0.904508 1.328591
vt 0.904508 1.365700
vt 1.000000 1.365700
vt 0.366585 1.365700
vt 0.095491 1.374511
vt 0.000000 1.365700
vt 0.095491 1.365700
vt 0.654508 1.443180
vt 0.904508 1.415700
vt 1.000000 1.415700
vt 0.654508 1.431231
vt 0.345491 1.429969
vt 0.000000 1.415700
vt 0.095491 1.415700
vt 0.345491 1.448650
vt 0.904508 1.444205
vt 0.904508 1.465700
vt 1.000000 1.465700
vt 0.095491 1.541300
vt 0.000000 1.476268
vt 0.095491 1.465700
vt 0.904508 1.533403
vt 1.000000 1.515700
vt 0.654509 1.526737
vt 0.345491 1.549570
vt 0.095491 1.515700
vt 0.345491 1.515700
vt 0.654508 1.538433
vt 0.904508 1.555337
vt 1.000000 1.565700
vt 0.000000 1.649350
vt 0.095491 1.565700
vt 0.345491 1.565700
vt 0.640022 1.705245
vt 1.000000 1.615700
vt 0.345491 1.615700
vt 0.095491 1.615700
vt 0.095491 1.639621
vt 0.654508 1.629177
vt 0.904508 1.615700
vt 1.000000 1.665700
vt 0.345491 1.688304
vt 0.095491 1.665700
vt 0.345491 1.665700
vt 0.904508 1.665700
vt 1.000000 1.715700
vt 0.095491 1.715700
vt 0.000000 1.715700
vt 0.095491 1.752481
vt 0.345491 1.731558
vt 0.654508 1.723866
vt 0.904508 1.715700
vt 0.655196 1.765700
vt 1.000000 1.765700
vt 0.345491 1.788092
vt 0.095491 1.765700
vt 0.000000 1.765700
vt 0.904508 1.765700
vt 0.997989 1.815700
vt 0.654508 1.837374
vt 0.095491 1.815700
vt 0.000000 1.815700
vt 0.095491 1.846085
vt 0.345491 1.896513
vt 0.654508 1.905948
vt 0.904508 1.833641
vt 0.904508 1.879020
vt 1.000000 1.865700
vt 0.345491 1.886504
vt 0.095491 1.895191
vt 0.000000 1.865700
vt 1.000000 1.937297
vt 0.654508 1.943107
vt 0.000000 1.915700
vt 0.095491 1.915700
vt 0.904508 1.915700
vt 0.904508 2.055772
vt 0.345491 1.997342
vt 0.000000 1.965700
vt 0.095491 1.965700
vt 0.345491 1.965700
vt 0.654508 1.965700
vt 0.904508 1.965700
vt 1.000000 2.033498
vt 0.654508 2.015700
vt 0.095491 2.054342
vt 0.000000 2.015700
vt 0.095491 2.015700
vt 0.384609 2.015700
vt 0.904508 2.015700
vt 0.654508 2.085473
vt 0.345491 2.065700
vt 0.000000 2.065700
vt 0.095491 2.065700
vt 0.654508 2.065700
vt 0.904508 2.065700
vt 0.906624 2.196817
vt 0.345491 2.115700
vt 0.095491 2.139891
vt 0.000000 2.115700
vt 0.095491 2.115700
vt 0.641899 2.115700
vt 0.904508 2.115700
vt 0.654508 2.183866
vt 0.345491 2.165700
vt 0.000000 2.193844
vt 0.095491 2.180551
vt 0.345491 2.173415
vt 0.654508 2.187817
vt 0.904508 2.165700
vt 0.105956 2.224693
vt 0.904508 2.215700
vt 1.000000 2.236531
vt 0.904508 2.285093
vt 0.654508 2.290105
vt 0.345491 2.265700
vt 0.000000 2.296356
vt 0.095491 2.293689
vt 0.345491 2.339501
vt 0.654508 2.287307
vt 0.904508 2.288839
vt 1.000000 2.325888
vt 0.345492 2.346740
vt 0.095491 2.339016
vt 0.904508 2.412757
vt 0.654508 2.394001
vt 0.000000 2.391860
vt 0.098880 2.396337
vt 0.654508 2.389934
vt 0.904508 2.389221
vt 1.000000 2.436506
vt 0.095491 2.441927
vt 0.654508 2.494350
vt 0.345491 2.497770
vt 0.000000 2.483153
vt 0.095491 2.488198
vt 0.345491 2.494257
vt 0.654508 2.480554
vt 0.904508 2.546702
vt 1.000309 2.619500
vt 0.095491 2.575402
vt 0.502235 2.594249
vt 0.000000 2.652180
vt 0.345491 2.587970
vt 0.684035 2.611435
vt 0.904508 2.642673
vt 0.375558 2.703460
vt 0.377964 2.689732
vt 0.095491 2.686071
vt 0.904508 2.741390
vt 0.927788 2.755009
vt 0.298295 2.756261
vt 0.386560 2.765700
vt 0.060052 2.765700
vt 0.956773 2.815700
vt 0.383670 2.815700
vt 0.104110 2.815700
vt 0.460013 2.865700
vt 0.395110 0.065700
vt 0.853553 0.126276
vt 1.000000 0.126186
vt 0.500000 0.121256
vt 0.146447 0.123350
vt 0.000000 0.121256
vt 0.146447 0.121256
vt 0.500000 0.127164
vt 0.853553 0.121256
vt 0.500000 0.232520
vt 0.000000 0.227531
vt 0.146447 0.194595
vt 0.853553 0.228419
vt 0.996886 0.232067
vt 0.146447 0.232367
vt 0.500000 0.251876
vt 0.500000 0.287922
vt 0.014449 0.337996
vt 0.000000 0.287922
vt 0.146447 0.287922
vt 0.853553 0.287922
vt 1.000000 0.287922
vt 0.853553 0.343478
vt 1.000000 0.343478
vt 0.479673 0.343478
vt 0.196886 0.343478
vt 0.853553 0.399033
vt 1.000000 0.399033
vt 0.500000 0.399033
vt 0.146447 0.399033
vt 0.000000 0.399033
vt 0.146447 0.413151
vt 0.853553 0.454589
vt 1.000000 0.454589
vt 0.500000 0.454589
vt 0.146447 0.454589
vt 0.000000 0.454589
vt 0.853553 0.510144
vt 1.000000 0.510144
vt 0.500000 0.510144
vt 0.146447 0.520755
vt 0.000000 0.510144
vt 0.146447 0.510144
vt 0.500000 0.561369
vt 0.853553 0.522921
vt 0.853553 0.565700
vt 1.000000 0.565700
vt 0.500000 0.565700
vt 0.000000 0.569383
vt 0.146447 0.565700
vt 0.503535 0.621256
vt 1.000000 0.621256
vt 0.146447 0.621256
vt 0.500000 0.621256
vt 0.853553 0.621256
vt 0.493576 0.676811
vt 1.000000 0.708953
vt 0.146447 0.683475
vt 0.000000 0.676811
vt 0.146447 0.702045
vt 0.856691 0.676811
vt 0.853553 0.732367
vt 0.500000 0.767939
vt 0.000000 0.732367
vt 0.500000 0.732367
vt 0.853553 0.787922
vt 1.000000 0.789625
vt 0.146447 0.799343
vt 0.000000 0.787922
vt 0.146447 0.787922
vt 0.500000 0.793543
vt 0.853553 0.887089
vt 0.500000 0.870285
vt 0.000000 0.884491
vt 0.146447 0.891122
vt 0.853553 0.873996
vt 1.000000 0.899033
vt -0.008928 0.991847
vt 0.500000 0.904848
vt 0.835409 1.006060
vt 0.384877 1.010491
vt 0.414909 1.065700
vt 0.420182 0.155700
vt 0.500000 0.221060
vt 0.992144 0.211256
vt 0.019837 0.211256
vt 0.146622 0.211283
vt 0.850625 0.211256
vt 0.853553 0.266811
vt 1.000000 0.266811
vt 0.009566 0.323123
vt 0.000000 0.266811
vt 0.146447 0.266811
vt 0.839847 0.324521
vt 1.000000 0.322367
vt 0.406774 0.322367
vt 0.168705 0.325864
vt 0.500000 0.322367
vt 0.853553 0.322367
vt 0.853553 0.410562
vt 1.000000 0.407126
vt 0.146447 0.394572
vt 0.012517 0.382671
vt 0.853553 0.416707
vt 0.500000 0.481298
vt 0.000000 0.433478
vt 0.500000 0.433478
vt 0.853553 0.489033
vt 1.000000 0.489033
vt 0.146447 0.489033
vt 0.000000 0.489033
vt 0.485040 0.489033
vt 0.852896 0.544589
vt 1.000000 0.544589
vt 0.146447 0.544589
vt 0.000000 0.544589
vt 0.500000 0.544589
vt 0.853553 0.544589
vt 0.853553 0.600144
vt 1.000000 0.600144
vt 0.500000 0.600144
vt 0.146447 0.600144
vt 0.000000 0.600144
vt 0.962121 0.641330
vt 0.533086 0.655700
vt 0.146447 0.655700
vt 0.000000 0.655700
vt 0.500000 0.655700
vt 0.853553 0.655700
vt 0.559237 0.757503
vt 1.000000 0.711256
vt 0.500000 0.711256
vt 0.146447 0.711256
vt 0.000000 0.711256
vt 0.853553 0.711256
vt 0.853553 0.766811
vt 1.000000 0.766811
vt 0.021716 0.814129
vt 0.000000 0.766811
vt 0.146447 0.766811
vt 0.500000 0.796042
vt 0.853553 0.822367
vt 1.000000 0.822367
vt 0.510778 0.822367
vt 0.146447 0.822367
vt 0.853553 0.877922
vt 1.000000 0.877922
vt 0.500000 0.877922
vt 0.146447 0.877922
vt 0.000000 0.877922
vt 0.490750 0.877922
vt 0.853553 0.933478
vt 0.964255 0.933478
vt 0.151077 0.962601
vt 0.001012 0.933478
vt 0.500706 0.942984
vt 0.806779 1.004679
vt 0.987167 1.038172
vt 0.052497 0.989033
vt 0.031611 1.066917
vt 0.196936 1.100144
vt 0.361465 1.155291
vt 0.505661 0.245700
vt 0.853553 0.341040
vt 1.000000 0.310643
vt 0.500000 0.301256
vt 0.146447 0.332730
vt 0.028492 0.312064
vt 0.146447 0.301256
vt 0.500000 0.343979
vt 0.853553 0.301256
vt 0.500000 0.356811
vt 0.000000 0.356811
vt 0.853553 0.356811
vt 0.853553 0.436812
vt 1.000000 0.412367
vt 0.209758 0.412367
vt 0.000000 0.412367
vt 0.487819 0.412367
vt 0.853553 0.412367
vt 1.000000 0.467922
vt 0.156827 0.467922
vt 0.000000 0.467922
vt 0.146447 0.467922
vt 0.500000 0.522866
vt 0.853553 0.521668
vt 0.853553 0.523478
vt 1.000000 0.523478
vt 0.500000 0.523478
vt 0.146447 0.523478
vt 0.000000 0.523478
vt 0.853553 0.613572
vt 1.000000 0.579033
vt 0.500000 0.615698
vt 0.146447 0.610627
vt 0.000000 0.605471
vt 0.146447 0.579033
vt 0.500000 0.621648
vt 0.853553 0.624806
vt 1.000000 0.634589
vt 0.146447 0.634589
vt 0.853553 0.690144
vt 1.000000 0.690144
vt 0.500000 0.690144
vt 0.146447 0.690144
vt 0.000000 0.690144
vt 1.004990 0.745700
vt 0.500000 0.745700
vt 0.146447 0.745700
vt 0.000000 0.745700
vt 0.500000 0.764995
vt 0.853553 0.745700
vt 0.853553 0.801256
vt 1.000000 0.801256
vt 0.500000 0.849215
vt 0.146447 0.801256
vt 0.000000 0.801256
vt 0.853553 0.856811
vt 1.000000 0.856811
vt 0.001905 0.911644
vt 0.000000 0.856811
vt 0.146447 0.856811
vt 0.500000 0.856811
vt 0.853553 0.954199
vt 1.000000 0.912367
vt 0.500000 0.912367
vt 0.146447 0.912367
vt 0.853553 0.912367
vt 1.000000 0.967922
vt 0.500000 0.990505
vt 0.146447 0.978347
vt 0.000000 0.967922
vt 0.146447 1.015600
vt 0.500000 0.981108
vt 0.853553 0.967922
vt 0.853553 1.023478
vt 1.000000 1.023478
vt 0.000000 1.023478
vt 0.962730 1.076180
vt 0.691861 1.080767
vt 0.146447 1.079033
vt 0.139476 1.076844
vt 0.500000 1.079033
vt 0.990394 1.146691
vt 0.081587 1.161035
vt 0.825749 1.162777
vt 0.517003 1.245700
s 1
f 1/1/1 3/2/2 2/3/3
f 1/1/1 4/4/4 3/2/2
f 1/1/1 5/5/5 4/4/4
f 1/1/1 6/6/6 5/5/5
f 1/1/1 7/7/7 6/6/6
f 1/1/1 8/5/8 7/7/7
f 1/1/1 9/8/9 8/5/8
f 1/1/1 2/3/3 9/8/9
f 4/4/4 5/5/5 10/9/10
f 5/5/5 6/6/6 11/10/11
f 5/5/5 11/10/11 10/9/10
f 6/6/6 7/7/7 12/11/12
f 6/6/6 12/11/12 11/10/11
f 7/7/7 13/10/13 12/11/12
f 7/7/7 8/5/8 14/9/14
f 7/7/7 14/9/14 13/10/13
f 8/5/8 9/8/9 15/12/15
f 8/5/8 15/12/15 14/9/14
f 9/8/9 16/13/16 15/12/15
f 9/8/9 2/3/3 16/13/16
f 2/3/3 3/2/2 18/14/17
f 2/3/3 18/14/17 17/15/18
f 3/2/2 4/4/4 18/14/17
f 4/4/4 10/9/10 19/16/19
f 10/9/10 11/10/11 20/17/20
f 10/9/10 20/17/20 19/16/19
f 11/10/11 12/11/12 21/18/21
f 11/10/11 21/18/21 20/17/20
f 12/11/12 13/10/13 22/19/22
f 12/11/12 22/19/22 21/18/21
f 13/10/13 14/9/14 23/16/23
f 13/10/13 23/16/23 22/19/22
f 14/9/14 15/12/15 24/20/24
f 14/9/14 24/20/24 23/16/23
f 15/12/15 16/13/16 24/20/24
f 16/13/16 2/3/3 17/15/18
f 17/15/18 18/14/17 25/21/25
f 18/14/17 4/4/4 26/22/26
f 4/4/4 19/16/19 27/23/27
f 4/4/4 27/23/27 26/22/26
f 19/16/19 20/17/20 27/23/27
f 21/18/21 22/19/22 28/24/28
f 22/19/22 23/16/23 29/25/29
f 22/19/22 29/25/29 28/24/28
f 23/16/23 24/20/24 29/25/29
f 24/20/24 16/13/16 30/26/30
f 16/13/16 17/15/18 25/21/25
f 16/13/16 25/21/25 30/26/30
f 25/21/25 18/14/17 32/27/31
f 25/21/25 32/27/31 31/28/32
f 18/14/17 26/22/26 32/27/31
f 27/23/27 20/17/20 33/29/33
f 20/17/20 21/18/21 34/30/34
f 20/17/20 34/30/34 33/29/33
f 21/18/21 28/24/28 35/31/35
f 21/18/21 35/31/35 34/30/34
f 28/24/28 29/25/29 36/32/36
f 28/24/28 36/32/36 35/31/35
f 29/25/29 24/20/24 37/33/37
f 29/25/29 37/33/37 36/32/36
f 24/20/24 30/26/30 38/34/38
f 24/20/24 38/34/38 37/33/37
f 30/26/30 25/21/25 31/28/32
f 30/26/30 31/28/32 38/34/38
f 31/28/32 32/27/31 39/35/39
f 32/27/31 26/22/26 39/35/39
f 26/22/26 27/23/27 40/36/40
f 26/22/26 40/36/40 39/35/39
f 27/23/27 33/29/33 40/36/40
f 34/30/34 35/31/35 41/37/41
f 35/31/35 36/32/36 42/38/42
f 35/31/35 42/38/42 41/37/41
f 36/32/36 37/33/37 42/38/42
f 31/28/32 39/35/39 44/39/43
f 31/28/32 44/39/43 43/40/44
f 39/35/39 45/41/45 44/39/43
f 39/35/39 40/36/40 45/41/45
f 40/36/40 33/29/33 46/42/46
f 33/29/33 34/30/34 46/42/46
f 34/30/34 41/37/41 47/43/47
f 34/30/34 47/43/47 46/42/46
f 41/37/41 42/38/42 48/44/48
f 41/37/41 48/44/48 47/43/47
f 42/38/42 37/33/37 49/45/49
f 42/38/42 49/45/49 48/44/48
f 37/33/37 38/34/38 50/46/50
f 37/33/37 50/46/50 49/45/49
f 38/34/38 31/28/32 43/40/44
f 38/34/38 43/40/44 50/46/50
f 43/40/44 44/39/43 51/47/51
f 44/39/43 45/41/45 52/48/52
f 44/39/43 52/48/52 51/47/51
f 45/41/45 40/36/40 53/49/53
f 45/41/45 53/49/53 52/48/52
f 40/36/40 46/42/46 54/50/54
f 40/36/40 54/50/54 53/49/53
f 46/42/46 47/43/47 55/51/55
f 46/42/46 55/51/55 54/50/54
f 47/43/47 48/44/48 56/52/56
f 47/43/47 56/52/56 55/51/55
f 48/44/48 49/45/49 56/52/56
f 43/40/44 51/47/51 58/53/57
f 43/40/44 58/53/57 57/54/58
f 51/47/51 52/48/52 59/55/59
f 51/47/51 59/55/59 58/53/57
f 52/48/52 53/49/53 59/55/59
f 53/49/53 54/50/54 60/56/60
f 54/50/54 61/57/61 60/56/60
f 54/50/54 55/51/55 61/57/61
f 55/51/55 56/52/56 62/58/62
f 56/52/56 49/45/49 63/59/63
f 56/52/56 63/59/63 62/58/62
f 49/45/49 50/46/50 63/59/63
f 50/46/50 43/40/44 57/54/58
f 57/54/58 58/53/57 64/60/64
f 58/53/57 59/55/59 65/61/65
f 58/53/57 65/61/65 64/60/64
f 59/55/59 53/49/53 66/62/66
f 59/55/59 66/62/66 65/61/65
f 53/49/53 60/56/60 67/63/67
f 53/49/53 67/63/67 66/62/66
f 60/56/60 61/57/61 67/63/67
f 61/57/61 55/51/55 68/64/68
f 55/51/55 62/58/62 69/65/69
f 55/51/55 69/65/69 68/64/68
f 62/58/62 63/59/63 69/65/69
f 63/59/63 50/46/50 70/66/70
f 50/46/50 57/54/58 70/66/70
f 57/54/58 64/60/64 72/67/71
f 57/54/58 72/67/71 71/68/72
f 64/60/64 65/61/65 73/69/73
f 64/60/64 73/69/73 72/67/71
f 65/61/65 66/62/66 74/70/74
f 65/61/65 74/70/74 73/69/73
f 66/62/66 67/63/67 74/70/74
f 67/63/67 61/57/61 75/71/75
f 61/57/61 68/64/68 75/71/75
f 69/65/69 63/59/63 76/69/76
f 63/59/63 70/66/70 76/69/76
f 70/66/70 57/54/58 71/68/72
f 72/67/71 73/69/73 77/72/77
f 73/69/73 74/70/74 77/72/77
f 74/70/74 67/63/67 78/73/78
f 67/63/67 75/71/75 78/73/78
f 75/71/75 68/64/68 79/74/79
f 68/64/68 69/65/69 80/75/80
f 68/64/68 80/75/80 79/74/79
f 69/65/69 76/69/76 81/76/81
f 69/65/69 81/76/81 80/75/80
f 76/69/76 70/66/70 82/77/82
f 76/69/76 82/77/82 81/76/81
f 70/66/70 71/68/72 82/77/82
f 71/68/72 72/67/71 84/78/83
f 71/68/72 84/78/83 83/79/84
f 72/67/71 77/72/77 84/78/83
f 77/72/77 74/70/74 85/80/85
f 74/70/74 78/73/78 85/80/85
f 78/73/78 75/71/75 86/81/86
f 75/71/75 79/74/79 87/82/87
f 75/71/75 87/82/87 86/81/86
f 79/74/79 80/75/80 87/82/87
f 82/77/82 71/68/72 83/79/84
f 83/79/84 84/78/83 89/83/88
f 83/79/84 89/83/88 88/84/89
f 84/78/83 77/72/77 90/85/90
f 84/78/83 90/85/90 89/83/88
f 77/72/77 85/80/85 90/85/90
f 85/80/85 78/73/78 91/86/91
f 78/73/78 86/81/86 92/87/92
f 78/73/78 92/87/92 91/86/91
f 86/81/86 87/82/87 93/86/93
f 86/81/86 93/86/93 92/87/92
f 87/82/87 80/75/80 94/88/94
f 87/82/87 94/88/94 93/86/93
f 80/75/80 81/76/81 95/89/95
f 80/75/80 95/89/95 94/88/94
f 81/76/81 82/77/82 96/90/96
f 81/76/81 96/90/96 95/89/95
f 82/77/82 83/79/84 88/84/89
f 82/77/82 88/84/89 96/90/96
f 88/84/89 89/83/88 98/91/97
f 88/84/89 98/91/97 97/92/98
f 89/83/88 90/85/90 98/91/97
f 90/85/90 85/80/85 99/93/99
f 85/80/85 91/86/91 99/93/99
f 91/86/91 92/87/92 100/94/100
f 91/86/91 100/94/100 99/93/99
f 92/87/92 93/86/93 101/95/101
f 92/87/92 101/95/101 100/94/100
f 93/86/93 94/88/94 101/95/101
f 96/90/96 88/84/89 97/92/98
f 97/92/98 98/91/97 103/96/102
f 97/92/98 103/96/102 102/97/103
f 98/91/97 90/85/90 104/98/104
f 98/91/97 104/98/104 103/96/102
f 90/85/90 99/93/99 105/99/105
f 90/85/90 105/99/105 104/98/104
f 99/93/99 100/94/100 106/100/106
f 99/93/99 106/100/106 105/99/105
f 100/94/100 101/95/101 107/101/107
f 100/94/100 107/101/107 106/100/106
f 101/95/101 94/88/94 108/102/108
f 101/95/101 108/102/108 107/101/107
f 94/88/94 95/89/95 109/103/109
f 94/88/94 109/103/109 108/102/108
f 95/89/95 96/90/96 109/103/109
f 96/90/96 97/92/98 102/97/103
f 102/97/103 103/96/102 111/104/110
f 102/97/103 111/104/110 110/105/111
f 103/96/102 104/98/104 112/106/112
f 103/96/102 112/106/112 111/104/110
f 104/98/104 105/99/105 113/107/113
f 104/98/104 113/107/113 112/106/112
f 105/99/105 106/100/106 114/108/114
f 105/99/105 114/108/114 113/107/113
f 106/100/106 107/101/107 115/109/115
f 106/100/106 115/109/115 114/108/114
f 107/101/107 108/102/108 116/110/116
f 107/101/107 116/110/116 115/109/115
f 108/102/108 109/103/109 116/110/116
f 109/103/109 96/90/96 117/111/117
f 96/90/96 102/97/103 110/105/111
f 96/90/96 110/105/111 117/111/117
f 110/105/111 111/104/110 119/112/118
f 110/105/111 119/112/118 118/113/119
f 111/104/110 112/106/112 120/114/120
f 111/104/110 120/114/120 119/112/118
f 112/106/112 113/107/113 121/115/121
f 112/106/112 121/115/121 120/114/120
f 113/107/113 122/116/122 121/115/121
f 113/107/113 114/108/114 122/116/122
f 114/108/114 115/109/115 123/116/123
f 115/109/115 116/110/116 124/115/124
f 115/109/115 124/115/124 123/116/123
f 116/110/116 109/103/109 125/117/125
f 116/110/116 125/117/125 124/115/124
f 109/103/109 117/111/117 125/117/125
f 117/111/117 110/105/111 118/113/119
f 118/113/119 119/112/118 127/118/126
f 118/113/119 127/118/126 126/119/127
f 119/112/118 120/114/120 128/120/128
f 119/112/118 128/120/128 127/118/126
f 120/114/120 121/115/121 129/121/129
f 120/114/120 129/121/129 128/120/128
f 121/115/121 122/116/122 130/122/130
f 121/115/121 130/122/130 129/121/129
f 122/116/122 114/108/114 131/123/131
f 122/116/122 131/123/131 130/122/130
f 114/108/114 123/116/123 132/124/132
f 114/108/114 132/124/132 131/123/131
f 123/116/123 124/115/124 133/121/133
f 123/116/123 133/121/133 132/124/132
f 124/115/124 125/117/125 133/121/133
f 125/117/125 117/111/117 134/118/134
f 117/111/117 118/113/119 126/119/127
f 117/111/117 126/119/127 134/118/134
f 126/119/127 127/118/126 135/125/135
f 127/118/126 128/120/128 136/126/136
f 127/118/126 136/126/136 135/125/135
f 128/120/128 129/121/129 137/127/137
f 128/120/128 137/127/137 136/126/136
f 129/121/129 130/122/130 137/127/137
f 131/123/131 132/124/132 138/128/138
f 132/124/132 133/121/133 139/127/139
f 132/124/132 139/127/139 138/128/138
f 133/121/133 125/117/125 140/129/140
f 133/121/133 140/129/140 139/127/139
f 125/117/125 134/118/134 141/130/141
f 125/117/125 141/130/141 140/129/140
f 134/118/134 126/119/127 141/130/141
f 126/119/127 135/125/135 142/131/142
f 135/125/135 136/126/136 143/132/143
f 136/126/136 137/127/137 144/133/144
f 136/126/136 144/133/144 143/132/143
f 137/127/137 130/122/130 145/134/145
f 137/127/137 145/134/145 144/133/144
f 130/122/130 131/123/131 146/135/146
f 130/122/130 146/135/146 145/134/145
f 131/123/131 138/128/138 147/136/147
f 131/123/131 147/136/147 146/135/146
f 138/128/138 139/127/139 148/133/148
f 138/128/138 148/133/148 147/136/147
f 139/127/139 140/129/140 148/133/148
f 140/129/140 141/130/141 149/137/149
f 141/130/141 126/119/127 142/131/142
f 141/130/141 142/131/142 149/137/149
f 142/131/142 135/125/135 151/138/150
f 142/131/142 151/138/150 150/139/151
f 135/125/135 143/132/143 152/140/152
f 135/125/135 152/140/152 151/138/150
f 143/132/143 144/133/144 153/141/153
f 143/132/143 153/141/153 152/140/152
f 144/133/144 145/134/145 154/142/154
f 144/133/144 154/142/154 153/141/153
f 145/134/145 146/135/146 155/143/155
f 145/134/145 155/143/155 154/142/154
f 146/135/146 147/136/147 155/143/155
f 147/136/147 148/133/148 156/141/156
f 148/133/148 140/129/140 157/144/157
f 148/133/148 157/144/157 156/141/156
f 140/129/140 149/137/149 158/138/158
f 140/129/140 158/138/158 157/144/157
f 149/137/149 142/131/142 150/139/151
f 149/137/149 150/139/151 158/138/158
f 150/139/151 151/138/150 160/145/159
f 150/139/151 160/145/159 159/146/160
f 151/138/150 152/140/152 160/145/159
f 152/140/152 153/141/153 161/147/161
f 153/141/153 154/142/154 162/148/162
f 153/141/153 162/148/162 161/147/161
f 154/142/154 155/143/155 163/149/163
f 154/142/154 163/149/163 162/148/162
f 155/143/155 147/136/147 164/148/164
f 155/143/155 164/148/164 163/149/163
f 147/136/147 156/141/156 165/150/165
f 147/136/147 165/150/165 164/148/164
f 156/141/156 157/144/157 166/151/166
f 156/141/156 166/151/166 165/150/165
f 157/144/157 158/138/158 167/145/167
f 157/144/157 167/145/167 166/151/166
f 158/138/158 150/139/151 159/146/160
f 158/138/158 159/146/160 167/145/167
f 159/146/160 160/145/159 169/152/168
f 159/146/160 169/152/168 168/153/169
f 160/145/159 152/140/152 170/154/170
f 160/145/159 170/154/170 169/152/168
f 152/140/152 161/147/161 170/154/170
f 161/147/161 162/148/162 171/155/171
f 161/147/161 171/155/171 170/154/170
f 162/148/162 163/149/163 172/156/172
f 162/148/162 172/156/172 171/155/171
f 163/149/163 164/148/164 173/155/173
f 163/149/163 173/155/173 172/156/172
f 164/148/164 165/150/165 173/155/173
f 165/150/165 166/151/166 174/157/174
f 166/151/166 167/145/167 175/152/175
f 166/151/166 175/152/175 174/157/174
f 167/145/167 159/146/160 168/153/169
f 167/145/167 168/153/169 175/152/175
f 168/153/169 169/152/168 177/158/176
f 168/153/169 177/158/176 176/159/177
f 169/152/168 170/154/170 178/160/178
f 169/152/168 178/160/178 177/158/176
f 170/154/170 171/155/171 179/161/179
f 170/154/170 179/161/179 178/160/178
f 171/155/171 172/156/172 180/162/180
f 171/155/171 180/162/180 179/161/179
f 172/156/172 173/155/173 181/161/181
f 172/156/172 181/161/181 180/162/180
f 173/155/173 165/150/165 182/163/182
f 173/155/173 182/163/182 181/161/181
f 165/150/165 174/157/174 182/163/182
f 174/157/174 175/152/175 183/164/183
f 175/152/175 168/153/169 176/159/177
f 175/152/175 176/159/177 183/164/183
f 176/159/177 177/158/176 185/165/184
f 176/159/177 185/165/184 184/166/185
f 177/158/176 178/160/178 186/167/186
f 177/158/176 186/167/186 185/165/184
f 178/160/178 179/161/179 187/168/187
f 178/160/178 187/168/187 186/167/186
f 179/161/179 180/162/180 188/169/188
f 179/161/179 188/169/188 187/168/187
f 180/162/180 181/161/181 189/170/189
f 180/162/180 189/170/189 188/169/188
f 181/161/181 182/163/182 189/170/189
f 182/163/182 174/157/174 190/171/190
f 174/157/174 183/164/183 190/171/190
f 183/164/183 176/159/177 184/166/185
f 184/166/185 185/165/184 192/172/191
f 184/166/185 192/172/191 191/173/192
f 185/165/184 186/167/186 193/174/193
f 185/165/184 193/174/193 192/172/191
f 186/167/186 194/175/194 193/174/193
f 186/167/186 187/168/187 194/175/194
f 187/168/187 188/169/188 195/176/195
f 188/169/188 189/170/189 196/177/196
f 188/169/188 196/177/196 195/176/195
f 189/170/189 182/163/182 197/178/197
f 189/170/189 197/178/197 196/177/196
f 182/163/182 190/171/190 197/178/197
f 190/171/190 183/164/183 198/179/198
f 183/164/183 184/166/185 191/173/192
f 183/164/183 191/173/192 198/179/198
f 191/173/192 192/172/191 200/180/199
f 191/173/192 200/180/199 199/181/200
f 192/172/191 193/174/193 200/180/199
f 194/175/194 187/168/187 201/182/201
f 187/168/187 195/176/195 202/183/202
f 187/168/187 202/183/202 201/182/201
f 195/176/195 196/177/196 203/184/203
f 195/176/195 203/184/203 202/183/202
f 196/177/196 197/178/197 203/184/203
f 198/179/198 191/173/192 199/181/200
f 199/181/200 200/180/199 205/185/204
f 199/181/200 205/185/204 204/186/205
f 200/180/199 193/174/193 206/187/206
f 200/180/199 206/187/206 205/185/204
f 193/174/193 194/175/194 207/188/207
f 193/174/193 207/188/207 206/187/206
f 194/175/194 201/182/201 207/188/207
f 202/183/202 203/184/203 208/189/208
f 203/184/203 197/178/197 209/190/209
f 203/184/203 209/190/209 208/189/208
f 197/178/197 190/171/190 210/191/210
f 197/178/197 210/191/210 209/190/209
f 190/171/190 198/179/198 211/192/211
f 190/171/190 211/192/211 210/191/210
f 198/179/198 199/181/200 204/186/205
f 198/179/198 204/186/205 211/192/211
f 204/186/205 205/185/204 212/193/212
f 201/182/201 202/183/202 213/194/213
f 202/183/202 208/189/208 214/195/214
f 202/183/202 214/195/214 213/194/213
f 208/189/208 209/190/209 215/196/215
f 208/189/208 215/196/215 214/195/214
f 209/190/209 210/191/210 215/196/215
f 211/192/211 204/186/205 212/193/212
f 212/193/212 205/185/204 217/197/216
f 212/193/212 217/197/216 216/198/217
f 205/185/204 206/187/206 217/197/216
f 206/187/206 207/188/207 218/199/218
f 206/187/206 218/199/218 217/197/216
f 207/188/207 201/182/201 219/200/219
f 207/188/207 219/200/219 218/199/218
f 201/182/201 213/194/213 219/200/219
f 213/194/213 214/195/214 220/201/220
f 214/195/214 215/196/215 221/199/221
f 214/195/214 221/199/221 220/201/220
f 215/196/215 210/191/210 222/202/222
f 215/196/215 222/202/222 221/199/221
f 210/191/210 211/192/211 223/203/223
f 210/191/210 223/203/223 222/202/222
f 211/192/211 212/193/212 216/198/217
f 211/192/211 216/198/217 223/203/223
f 216/198/217 217/197/216 224/204/224
f 217/197/216 218/199/218 225/205/225
f 218/199/218 219/200/219 226/206/226
f 218/199/218 226/206/226 225/205/225
f 219/200/219 213/194/213 226/206/226
f 220/201/220 221/199/221 227/207/227
f 221/199/221 222/202/222 227/207/227
f 222/202/222 223/203/223 228/208/228
f 223/203/223 216/198/217 224/204/224
f 223/203/223 224/204/224 228/208/228
f 224/204/224 217/197/216 229/209/229
f 225/205/225 226/206/226 230/210/230
f 226/206/226 213/194/213 231/211/231
f 226/206/226 231/211/231 230/210/230
f 213/194/213 220/201/220 232/212/232
f 213/194/213 232/212/232 231/211/231
f 220/201/220 227/207/227 233/213/233
f 220/201/220 233/213/233 232/212/232
f 227/207/227 222/202/222 234/214/234
f 227/207/227 234/214/234 233/213/233
f 222/202/222 228/208/228 235/215/235
f 222/202/222 235/215/235 234/214/234
f 228/208/228 224/204/224 229/209/229
f 228/208/228 229/209/229 235/215/235
f 229/209/229 217/197/216 237/216/236
f 229/209/229 237/216/236 236/217/237
f 217/197/216 225/205/225 238/218/238
f 217/197/216 238/218/238 237/216/236
f 225/205/225 230/210/230 239/219/239
f 225/205/225 239/219/239 238/218/238
f 230/210/230 231/211/231 240/220/240
f 230/210/230 240/220/240 239/219/239
f 231/211/231 232/212/232 240/220/240
f 234/214/234 235/215/235 241/221/241
f 235/215/235 229/209/229 236/217/237
f 235/215/235 236/217/237 241/221/241
f 236/217/237 237/216/236 242/222/242
f 237/216/236 243/223/243 242/222/242
f 237/216/236 238/218/238 243/223/243
f 238/218/238 239/219/239 244/224/244
f 239/219/239 240/220/240 245/225/245
f 239/219/239 245/225/245 244/224/244
f 240/220/240 232/212/232 246/226/246
f 240/220/240 246/226/246 245/225/245
f 232/212/232 233/213/233 247/227/247
f 232/212/232 247/227/247 246/226/246
f 233/213/233 234/214/234 248/228/248
f 233/213/233 248/228/248 247/227/247
f 234/214/234 241/221/241 249/229/249
f 234/214/234 249/229/249 248/228/248
f 241/221/241 236/217/237 242/222/242
f 241/221/241 242/222/242 249/229/249
f 242/222/242 251/230/250 250/231/251
f 242/222/242 243/223/243 251/230/250
f 243/223/243 238/218/238 252/232/252
f 238/218/238 244/224/244 253/233/253
f 238/218/238 253/233/253 252/232/252
f 244/224/244 245/225/245 254/234/254
f 244/224/244 254/234/254 253/233/253
f 245/225/245 246/226/246 254/234/254
f 249/229/249 242/222/242 250/231/251
f 250/231/251 251/230/250 255/235/255
f 251/230/250 243/223/243 256/236/256
f 243/223/243 252/232/252 256/236/256
f 253/233/253 254/234/254 257/237/257
f 254/234/254 246/226/246 258/238/258
f 254/234/254 258/238/258 257/237/257
f 246/226/246 247/227/247 258/238/258
f 248/228/248 249/229/249 259/239/259
f 249/229/249 250/231/251 255/235/255
f 249/229/249 255/235/255 259/239/259
f 255/235/255 251/230/250 260/240/260
f 251/230/250 256/236/256 260/240/260
f 256/236/256 252/232/252 261/241/261
f 252/232/252 253/233/253 261/241/261
f 253/233/253 257/237/257 262/242/262
f 257/237/257 258/238/258 263/243/263
f 257/237/257 263/243/263 262/242/262
f 258/238/258 247/227/247 264/244/264
f 258/238/258 264/244/264 263/243/263
f 247/227/247 248/228/248 265/245/265
f 247/227/247 265/245/265 264/244/264
f 248/228/248 259/239/259 266/246/266
f 248/228/248 266/246/266 265/245/265
f 259/239/259 255/235/255 266/246/266
f 255/235/255 260/240/260 267/247/267
f 260/240/260 256/236/256 268/248/268
f 256/236/256 261/241/261 268/248/268
f 261/241/261 253/233/253 269/249/269
f 253/233/253 262/242/262 270/250/270
f 253/233/253 270/250/270 269/249/269
f 262/242/262 263/243/263 271/251/271
f 262/242/262 271/251/271 270/250/270
f 263/243/263 264/244/264 272/252/272
f 263/243/263 272/252/272 271/251/271
f 264/244/264 265/245/265 272/252/272
f 265/245/265 266/246/266 273/253/273
f 265/245/265 273/253/273 272/252/272
f 266/246/266 255/235/255 267/247/267
f 266/246/266 267/247/267 273/253/273
f 260/240/260 268/248/268 274/254/274
f 268/248/268 261/241/261 275/255/275
f 268/248/268 275/255/275 274/254/274
f 261/241/261 269/249/269 275/255/275
f 269/249/269 270/250/270 276/256/276
f 270/250/270 271/251/271 277/257/277
f 270/250/270 277/257/277 276/256/276
f 271/251/271 272/252/272 278/255/278
f 271/251/271 278/255/278 277/257/277
f 272/252/272 279/258/279 278/255/278
f 272/252/272 273/253/273 280/259/280
f 272/252/272 280/259/280 279/258/279
f 273/253/273 267/247/267 280/259/280
f 267/247/267 260/240/260 281/260/281
f 274/254/274 275/255/275 282/261/282
f 275/255/275 269/249/269 283/262/283
f 275/255/275 283/262/283 282/261/282
f 269/249/269 276/256/276 284/263/284
f 269/249/269 284/263/284 283/262/283
f 276/256/276 277/257/277 285/264/285
f 276/256/276 285/264/285 284/263/284
f 277/257/277 278/255/278 286/265/286
f 277/257/277 286/265/286 285/264/285
f 278/255/278 279/258/279 286/265/286
f 279/258/279 280/259/280 287/266/287
f 279/258/279 287/266/287 286/265/286
f 280/259/280 267/247/267 281/260/281
f 280/259/280 281/260/281 287/266/287
f 260/240/260 274/254/274 288/267/288
f 260/240/260 288/267/288 281/260/281
f 274/254/274 282/261/282 289/268/289
f 274/254/274 289/268/289 288/267/288
f 282/261/282 283/262/283 289/268/289
f 283/262/283 284/263/284 290/269/290
f 284/263/284 285/264/285 291/270/291
f 284/263/284 291/270/291 290/269/290
f 285/264/285 286/265/286 292/271/292
f 285/264/285 292/271/292 291/270/291
f 286/265/286 293/272/293 292/271/292
f 286/265/286 287/266/287 294/273/294
f 286/265/286 294/273/294 293/272/293
f 287/266/287 281/260/281 294/273/294
f 288/267/288 289/268/289 296/274/295
f 289/268/289 283/262/283 296/274/295
f 283/262/283 290/269/290 296/274/295
f 293/272/293 294/273/294 297/275/296
f 294/273/294 281/260/281 295/276/297
f 294/273/294 295/276/297 297/275/296
f 295/276/297 281/260/281 298/277/298
f 281/260/281 288/267/288 299/278/299
f 281/260/281 299/278/299 298/277/298
f 288/267/288 296/274/295 300/279/300
f 288/267/288 300/279/300 299/278/299
f 296/274/295 290/269/290 301/280/301
f 290/269/290 291/270/291 302/281/302
f 290/269/290 302/281/302 301/280/301
f 291/270/291 292/271/292 303/282/303
f 291/270/291 303/282/303 302/281/302
f 292/271/292 293/272/293 304/283/304
f 292/271/292 304/283/304 303/282/303
f 293/272/293 297/275/296 305/284/305
f 293/272/293 305/284/305 304/283/304
f 297/275/296 295/276/297 305/284/305
f 295/276/297 298/277/298 306/285/306
f 299/278/299 300/279/300 307/286/307
f 300/279/300 296/274/295 308/287/308
f 300/279/300 308/287/308 307/286/307
f 296/274/295 301/280/301 308/287/308
f 305/284/305 295/276/297 306/285/306
f 306/285/306 298/277/298 309/288/309
f 298/277/298 299/278/299 310/289/310
f 298/277/298 310/289/310 309/288/309
f 299/278/299 307/286/307 310/289/310
f 308/287/308 301/280/301 311/290/311
f 301/280/301 302/281/302 312/291/312
f 301/280/301 312/291/312 311/290/311
f 302/281/302 303/282/303 312/291/312
f 303/282/303 304/283/304 313/292/313
f 304/283/304 305/284/305 314/293/314
f 304/283/304 314/293/314 313/292/313
f 305/284/305 306/285/306 314/293/314
f 306/285/306 309/288/309 315/294/315
f 307/286/307 308/287/308 316/295/316
f 308/287/308 311/290/311 316/295/316
f 303/282/303 313/292/313 312/291/312
f 314/293/314 306/285/306 315/294/315
f 309/288/309 310/289/310 317/296/317
f 310/289/310 307/286/307 318/297/318
f 310/289/310 318/297/318 317/296/317
f 307/286/307 316/295/316 318/297/318
f 316/295/316 311/290/311 319/298/319
f 311/290/311 312/291/312 320/299/320
f 311/290/311 320/299/320 319/298/319
f 312/291/312 321/300/321 320/299/320
f 312/291/312 313/292/313 322/301/322
f 312/291/312 322/301/322 321/300/321
f 313/292/313 314/293/314 322/301/322
f 315/294/315 309/288/309 324/302/323
f 315/294/315 324/302/323 323/303/324
f 309/288/309 317/296/317 324/302/323
f 318/297/318 316/295/316 325/304/325
f 316/295/316 319/298/319 325/304/325
f 314/293/314 315/294/315 323/303/324
f 324/302/323 317/296/317 326/305/326
f 317/296/317 318/297/318 326/305/326
f 318/297/318 325/304/325 326/305/326
f 325/304/325 319/298/319 327/306/327
f 319/298/319 320/299/320 327/306/327
f 320/299/320 321/300/321 328/307/328
f 321/300/321 322/301/322 329/308/329
f 321/300/321 329/308/329 328/307/328
f 322/301/322 314/293/314 329/308/329
f 314/293/314 323/303/324 329/308/329
f 323/303/324 324/302/323 330/309/330
f 324/302/323 326/305/326 330/309/330
f 327/306/327 320/299/320 331/310/331
f 320/299/320 328/307/328 331/310/331
f 330/309/330 326/305/326 332/311/332
f 326/305/326 325/304/325 333/312/333
f 326/305/326 333/312/333 332/311/332
f 325/304/325 327/306/327 333/312/333
f 328/307/328 329/308/329 331/310/331
f 323/303/324 330/309/330 335/313/334
f 323/303/324 335/313/334 334/314/335
f 330/309/330 332/311/332 335/313/334
f 327/306/327 331/310/331 336/315/336
f 329/308/329 323/303/324 334/314/335
f 335/313/334 332/311/332 337/316/337
f 332/311/332 333/312/333 338/317/338
f 332/311/332 338/317/338 337/316/337
f 333/312/333 327/306/327 338/317/338
f 327/306/327 336/315/336 338/317/338
f 331/310/331 329/308/329 334/314/335
f 331/310/331 334/314/335 336/315/336
f 334/314/335 335/313/334 339/318/339
f 335/313/334 337/316/337 340/319/340
f 335/313/334 340/319/340 339/318/339
f 337/316/337 338/317/338 341/320/341
f 337/316/337 341/320/341 340/319/340
f 338/317/338 336/315/336 341/320/341
f 336/315/336 334/314/335 339/318/339
f 336/315/336 339/318/339 341/320/341
f 339/318/339 340/319/340 342/321/342
f 340/319/340 341/320/341 342/321/342
f 341/320/341 339/318/339 342/321/342
f 343/322/343 345/323/344 344/324/345
f 343/322/343 346/325/346 345/323/344
f 343/322/343 347/326/347 346/325/346
f 343/322/343 348/327/348 347/326/347
f 343/322/343 349/328/349 348/327/348
f 343/322/343 350/329/350 349/328/349
f 343/322/343 351/330/351 350/329/350
f 343/322/343 344/324/345 351/330/351
f 345/323/344 346/325/346 352/331/352
f 346/325/346 347/326/347 352/331/352
f 347/326/347 348/327/348 353/332/353
f 348/327/348 349/328/349 354/333/354
f 348/327/348 354/333/354 353/332/353
f 349/328/349 350/329/350 354/333/354
f 350/329/350 351/330/351 355/334/355
f 351/330/351 344/324/345 355/334/355
f 344/324/345 345/323/344 356/335/356
f 345/323/344 352/331/352 356/335/356
f 352/331/352 347/326/347 357/336/357
f 347/326/347 353/332/353 357/336/357
f 354/333/354 350/329/350 358/337/358
f 350/329/350 355/334/355 358/337/358
f 355/334/355 344/324/345 356/335/356
f 356/335/356 352/331/352 360/338/359
f 352/331/352 357/336/357 361/339/360
f 352/331/352 361/339/360 360/338/359
f 357/336/357 353/332/353 362/340/361
f 357/336/357 362/340/361 361/339/360
f 353/332/353 354/333/354 363/341/362
f 353/332/353 363/341/362 362/340/361
f 354/333/354 358/337/358 363/341/362
f 358/337/358 355/334/355 364/342/363
f 355/334/355 356/335/356 359/343/364
f 355/334/355 359/343/364 364/342/363
f 359/343/364 356/335/356 366/344/365
f 359/343/364 366/344/365 365/345/366
f 356/335/356 360/338/359 367/346/367
f 356/335/356 367/346/367 366/344/365
f 360/338/359 361/339/360 367/346/367
f 362/340/361 363/341/362 368/347/368
f 362/340/361 368/347/368 361/339/360
f 363/341/362 358/337/358 368/347/368
f 358/337/358 364/342/363 369/344/369
f 358/337/358 369/344/369 368/347/368
f 364/342/363 359/343/364 365/345/366
f 364/342/363 365/345/366 369/344/369
f 365/345/366 366/344/365 371/348/370
f 365/345/366 371/348/370 370/349/371
f 366/344/365 367/346/367 372/350/372
f 366/344/365 372/350/372 371/348/370
f 367/346/367 373/351/373 372/350/372
f 367/346/367 361/339/360 374/352/374
f 367/346/367 374/352/374 373/351/373
f 361/339/360 368/347/368 375/353/375
f 361/339/360 375/353/375 374/352/374
f 368/347/368 376/350/376 375/353/375
f 368/347/368 369/344/369 377/348/377
f 368/347/368 377/348/377 376/350/376
f 369/344/369 365/345/366 370/349/371
f 369/344/369 370/349/371 377/348/377
f 370/349/371 371/348/370 379/354/378
f 370/349/371 379/354/378 378/355/379
f 371/348/370 372/350/372 380/356/380
f 371/348/370 380/356/380 379/354/378
f 372/350/372 373/351/373 381/357/381
f 372/350/372 381/357/381 380/356/380
f 373/351/373 374/352/374 382/358/382
f 373/351/373 382/358/382 381/357/381
f 374/352/374 375/353/375 382/358/382
f 375/353/375 376/350/376 383/356/383
f 376/350/376 377/348/377 384/354/384
f 376/350/376 384/354/384 383/356/383
f 377/348/377 370/349/371 378/355/379
f 377/348/377 378/355/379 384/354/384
f 378/355/379 379/354/378 386/359/385
f 378/355/379 386/359/385 385/360/386
f 379/354/378 380/356/380 387/361/387
f 379/354/378 387/361/387 386/359/385
f 380/356/380 381/357/381 388/362/388
f 380/356/380 388/362/388 387/361/387
f 381/357/381 382/358/382 389/363/389
f 381/357/381 389/363/389 388/362/388
f 382/358/382 375/353/375 390/364/390
f 382/358/382 390/364/390 389/363/389
f 375/353/375 383/356/383 391/365/391
f 375/353/375 391/365/391 390/364/390
f 383/356/383 384/354/384 392/366/392
f 383/356/383 392/366/392 391/365/391
f 384/354/384 378/355/379 385/360/386
f 384/354/384 385/360/386 392/366/392
f 385/360/386 386/359/385 394/367/393
f 385/360/386 394/367/393 393/368/394
f 386/359/385 387/361/387 395/369/395
f 386/359/385 395/369/395 394/367/393
f 387/361/387 388/362/388 395/369/395
f 388/362/388 389/363/389 396/370/396
f 389/363/389 390/364/390 397/371/397
f 389/363/389 397/371/397 396/370/396
f 390/364/390 391/365/391 397/371/397
f 392/366/392 385/360/386 393/368/394
f 393/368/394 394/367/393 399/372/398
f 393/368/394 399/372/398 398/373/399
f 394/367/393 395/369/395 399/372/398
f 395/369/395 388/362/388 400/374/400
f 395/369/395 400/374/400 399/372/398
f 388/362/388 396/370/396 400/374/400
f 396/370/396 397/371/397 401/374/401
f 397/371/397 391/365/391 402/375/402
f 397/371/397 402/375/402 401/374/401
f 391/365/391 392/366/392 403/376/403
f 391/365/391 403/376/403 402/375/402
f 392/366/392 393/368/394 398/373/399
f 392/366/392 398/373/399 403/376/403
f 398/373/399 399/372/398 405/377/404
f 398/373/399 405/377/404 404/378/405
f 399/372/398 400/374/400 406/379/406
f 399/372/398 406/379/406 405/377/404
f 400/374/400 396/370/396 407/380/407
f 400/374/400 407/380/407 406/379/406
f 396/370/396 401/374/401 408/381/408
f 396/370/396 408/381/408 407/380/407
f 401/374/401 402/375/402 409/382/409
f 401/374/401 409/382/409 408/381/408
f 402/375/402 403/376/403 409/382/409
f 403/376/403 398/373/399 404/378/405
f 403/376/403 404/378/405 409/382/409
f 404/378/405 405/377/404 410/383/410
f 405/377/404 411/384/411 410/383/410
f 405/377/404 406/379/406 411/384/411
f 406/379/406 407/380/407 412/385/412
f 407/380/407 408/381/408 412/385/412
f 408/381/408 409/382/409 413/386/413
f 409/382/409 414/383/414 413/386/413
f 409/382/409 404/378/405 414/383/414
f 404/378/405 410/383/410 416/387/415
f 404/378/405 416/387/415 415/388/416
f 410/383/410 411/384/411 416/387/415
f 411/384/411 406/379/406 417/389/417
f 406/379/406 412/385/412 418/390/418
f 406/379/406 418/390/418 417/389/417
f 412/385/412 408/381/408 419/391/419
f 412/385/412 419/391/419 418/390/418
f 408/381/408 413/386/413 420/392/420
f 408/381/408 420/392/420 419/391/419
f 413/386/413 414/383/414 421/387/421
f 413/386/413 421/387/421 420/392/420
f 414/383/414 404/378/405 415/388/416
f 414/383/414 415/388/416 421/387/421
f 415/388/416 416/387/415 422/393/422
f 416/387/415 411/384/411 423/394/423
f 416/387/415 423/394/423 422/393/422
f 411/384/411 417/389/417 423/394/423
f 417/389/417 418/390/418 424/395/424
f 418/390/418 419/391/419 425/396/425
f 418/390/418 425/396/425 424/395/424
f 419/391/419 420/392/420 425/396/425
f 420/392/420 421/387/421 426/397/426
f 421/387/421 415/388/416 426/397/426
f 415/388/416 422/393/422 427/398/427
f 423/394/423 417/389/417 428/399/428
f 417/389/417 424/395/424 428/399/428
f 425/396/425 420/392/420 429/400/429
f 420/392/420 426/397/426 429/400/429
f 426/397/426 415/388/416 427/398/427
f 427/398/427 422/393/422 431/401/430
f 427/398/427 431/401/430 430/402/431
f 422/393/422 423/394/423 431/401/430
f 426/397/426 427/398/427 430/402/431
f 423/394/423 428/399/428 431/401/430
f 424/395/424 425/396/425 428/399/428
f 425/396/425 429/400/429 430/402/431
f 425/396/425 430/402/431 428/399/428
f 429/400/429 426/397/426 430/402/431
f 430/402/431 431/401/430 432/403/432
f 431/401/430 428/399/428 432/403/432
f 428/399/428 430/402/431 432/403/432
f 433/404/433 435/405/434 434/406/435
f 433/404/433 436/407/436 435/405/434
f 433/404/433 437/408/437 436/407/436
f 433/404/433 438/409/438 437/408/437
f 433/404/433 434/406/435 438/409/438
f 434/406/435 440/410/439 439/411/440
f 434/406/435 435/405/434 440/410/439
f 435/405/434 436/407/436 441/412/441
f 436/407/436 442/413/442 441/412/441
f 436/407/436 437/408/437 443/414/443
f 436/407/436 443/414/443 442/413/442
f 438/409/438 444/410/444 437/408/437
f 438/409/438 434/406/435 439/411/440
f 438/409/438 439/411/440 444/410/444
f 439/411/440 440/410/439 446/415/445
f 439/411/440 446/415/445 445/416/446
f 440/410/439 435/405/434 447/417/447
f 440/410/439 447/417/447 446/415/445
f 435/405/434 441/412/441 447/417/447
f 442/413/442 443/414/443 448/418/448
f 442/413/442 448/418/448 441/412/441
f 443/414/443 437/408/437 449/419/449
f 443/414/443 449/419/449 448/418/448
f 437/408/437 444/410/444 450/420/450
f 437/408/437 450/420/450 449/419/449
f 444/410/444 439/411/440 445/416/446
f 444/410/444 445/416/446 450/420/450
f 445/416/446 446/415/445 452/421/451
f 445/416/446 452/421/451 451/422/452
f 447/417/447 453/423/453 446/415/445
f 447/417/447 441/412/441 454/424/454
f 447/417/447 454/424/454 453/423/453
f 449/419/449 450/420/450 455/425/455
f 449/419/449 455/425/455 448/418/448
f 450/420/450 445/416/446 451/422/452
f 450/420/450 451/422/452 455/425/455
f 452/421/451 446/415/445 456/426/456
f 446/415/445 453/423/453 456/426/456
f 453/423/453 454/424/454 457/427/457
f 441/412/441 448/418/448 458/428/458
f 441/412/441 458/428/458 454/424/454
f 448/418/448 455/425/455 458/428/458
f 451/422/452 452/421/451 460/429/459
f 451/422/452 460/429/459 459/430/460
f 452/421/451 456/426/456 460/429/459
f 456/426/456 453/423/453 461/431/461
f 453/423/453 457/427/457 462/432/462
f 453/423/453 462/432/462 461/431/461
f 457/427/457 454/424/454 463/433/463
f 457/427/457 463/433/463 462/432/462
f 454/424/454 458/428/458 463/433/463
f 458/428/458 455/425/455 464/429/464
f 458/428/458 464/429/464 463/433/463
f 455/425/455 451/422/452 459/430/460
f 455/425/455 459/430/460 464/429/464
f 459/430/460 460/429/459 466/434/465
f 459/430/460 466/434/465 465/435/466
f 460/429/459 456/426/456 466/434/465
f 456/426/456 461/431/461 467/436/467
f 456/426/456 467/436/467 466/434/465
f 461/431/461 462/432/462 468/437/468
f 461/431/461 468/437/468 467/436/467
f 462/432/462 463/433/463 469/436/469
f 462/432/462 469/436/469 468/437/468
f 463/433/463 470/438/470 469/436/469
f 463/433/463 464/429/464 471/439/471
f 463/433/463 471/439/471 470/438/470
f 464/429/464 459/430/460 465/435/466
f 464/429/464 465/435/466 471/439/471
f 465/435/466 466/434/465 473/440/472
f 465/435/466 473/440/472 472/441/473
f 466/434/465 474/442/474 473/440/472
f 466/434/465 467/436/467 475/443/475
f 466/434/465 475/443/475 474/442/474
f 467/436/467 468/437/468 476/444/476
f 467/436/467 476/444/476 475/443/475
f 468/437/468 469/436/469 477/443/477
f 468/437/468 477/443/477 476/444/476
f 469/436/469 470/438/470 478/442/478
f 469/436/469 478/442/478 477/443/477
f 470/438/470 471/439/471 479/445/479
f 470/438/470 479/445/479 478/442/478
f 471/439/471 465/435/466 472/441/473
f 471/439/471 472/441/473 479/445/479
f 472/441/473 473/440/472 480/446/480
f 472/441/473 480/446/480 479/445/479
f 473/440/472 474/442/474 480/446/480
f 474/442/474 475/443/475 481/447/481
f 474/442/474 481/447/481 480/446/480
f 475/443/475 476/444/476 482/448/482
f 475/443/475 482/448/482 481/447/481
f 476/444/476 477/443/477 483/447/483
f 476/444/476 483/447/483 482/448/482
f 477/443/477 478/442/478 484/449/484
f 477/443/477 484/449/484 483/447/483
f 478/442/478 479/445/479 485/450/485
f 478/442/478 485/450/485 484/449/484
f 479/445/479 480/446/480 487/451/486
f 479/445/479 487/451/486 486/452/487
f 480/446/480 488/453/488 487/451/486
f 480/446/480 481/447/481 489/454/489
f 480/446/480 489/454/489 488/453/488
f 481/447/481 482/448/482 490/455/490
f 481/447/481 490/455/490 489/454/489
f 482/448/482 483/447/483 491/454/491
f 482/448/482 491/454/491 490/455/490
f 483/447/483 484/449/484 492/453/492
f 483/447/483 492/453/492 491/454/491
f 484/449/484 485/450/485 493/456/493
f 484/449/484 493/456/493 492/453/492
f 485/450/485 479/445/479 486/452/487
f 485/450/485 486/452/487 493/456/493
f 486/452/487 487/451/486 495/457/494
f 486/452/487 495/457/494 494/458/495
f 488/453/488 489/454/489 496/459/496
f 488/453/488 496/459/496 487/451/486
f 489/454/489 490/455/490 497/460/497
f 489/454/489 497/460/497 496/459/496
f 490/455/490 491/454/491 498/461/498
f 490/455/490 498/461/498 497/460/497
f 491/454/491 492/453/492 499/462/499
f 491/454/491 499/462/499 498/461/498
f 492/453/492 493/456/493 500/457/500
f 492/453/492 500/457/500 499/462/499
f 493/456/493 486/452/487 494/458/495
f 493/456/493 494/458/495 500/457/500
f 494/458/495 495/457/494 502/463/501
f 494/458/495 502/463/501 501/464/502
f 495/457/494 487/451/486 503/465/503
f 495/457/494 503/465/503 502/463/501
f 487/451/486 496/459/496 503/465/503
f 497/460/497 498/461/498 504/466/504
f 497/460/497 504/466/504 496/459/496
f 498/461/498 499/462/499 504/466/504
f 499/462/499 500/457/500 505/463/505
f 500/457/500 494/458/495 501/464/502
f 500/457/500 501/464/502 505/463/505
f 501/464/502 502/463/501 507/467/506
f 501/464/502 507/467/506 506/468/507
f 502/463/501 503/465/503 508/469/508
f 502/463/501 508/469/508 507/467/506
f 503/465/503 509/470/509 508/469/508
f 503/465/503 496/459/496 510/471/510
f 503/465/503 510/471/510 509/470/509
f 496/459/496 504/466/504 511/472/511
f 496/459/496 511/472/511 510/471/510
f 504/466/504 499/462/499 511/472/511
f 499/462/499 505/463/505 512/467/512
f 499/462/499 512/467/512 511/472/511
f 505/463/505 501/464/502 506/468/507
f 505/463/505 506/468/507 512/467/512
f 506/468/507 507/467/506 514/473/513
f 506/468/507 514/473/513 513/474/514
f 507/467/506 508/469/508 515/475/515
f 507/467/506 515/475/515 514/473/513
f 508/469/508 509/470/509 515/475/515
f 509/470/509 510/471/510 516/476/516
f 509/470/509 516/476/516 515/475/515
f 510/471/510 511/472/511 516/476/516
f 511/472/511 517/477/517 516/476/516
f 511/472/511 512/467/512 513/474/514
f 511/472/511 513/474/514 517/477/517
f 512/467/512 506/468/507 513/474/514
f 513/474/514 514/473/513 519/478/518
f 513/474/514 519/478/518 518/479/519
f 514/473/513 515/475/515 519/478/518
f 515/475/515 516/476/516 520/480/520
f 516/476/516 517/477/517 520/480/520
f 513/474/514 518/479/519 517/477/517
f 515/475/515 520/480/520 521/481/521
f 520/480/520 517/477/517 521/481/521
f 517/477/517 518/479/519 521/481/521
f 518/479/519 519/478/518 523/482/522
f 518/479/519 523/482/522 522/483/523
f 519/478/518 515/475/515 523/482/522
f 515/475/515 521/481/521 523/482/522
f 521/481/521 518/479/519 522/483/523
f 523/482/522 521/481/521 522/483/523
f 524/484/524 526/485/525 525/486/526
f 524/484/524 527/487/527 526/485/525
f 524/484/524 528/488/528 527/487/527
f 524/484/524 529/489/529 528/488/528
f 524/484/524 530/490/530 529/489/529
f 524/484/524 531/491/531 530/490/530
f 524/484/524 532/492/532 531/491/531
f 524/484/524 525/486/526 532/492/532
f 526/485/525 527/487/527 533/493/533
f 527/487/527 528/488/528 533/493/533
f 528/488/528 529/489/529 534/494/534
f 530/490/530 531/491/531 529/489/529
f 531/491/531 532/492/532 535/495/535
f 532/492/532 525/486/526 535/495/535
f 525/486/526 526/485/525 537/496/536
f 525/486/526 537/496/536 536/497/537
f 526/485/525 533/493/533 538/498/538
f 526/485/525 538/498/538 537/496/536
f 533/493/533 528/488/528 538/498/538
f 528/488/528 534/494/534 539/499/539
f 528/488/528 539/499/539 538/498/538
f 534/494/534 529/489/529 540/500/540
f 534/494/534 540/500/540 539/499/539
f 529/489/529 531/491/531 540/500/540
f 531/491/531 535/495/535 541/501/541
f 531/491/531 541/501/541 540/500/540
f 535/495/535 525/486/526 536/497/537
f 535/495/535 536/497/537 541/501/541
f 536/497/537 537/496/536 542/502/542
f 537/496/536 538/498/538 543/503/543
f 538/498/538 539/499/539 544/504/544
f 538/498/538 544/504/544 543/503/543
f 539/499/539 540/500/540 545/505/545
f 539/499/539 545/505/545 544/504/544
f 540/500/540 546/506/546 545/505/545
f 540/500/540 541/501/541 547/507/547
f 540/500/540 547/507/547 546/506/546
f 541/501/541 536/497/537 542/502/542
f 541/501/541 542/502/542 547/507/547
f 542/502/542 537/496/536 549/508/548
f 542/502/542 549/508/548 548/509/549
f 537/496/536 543/503/543 550/510/550
f 537/496/536 550/510/550 549/508/548
f 543/503/543 551/511/551 550/510/550
f 543/503/543 544/504/544 552/512/552
f 543/503/543 552/512/552 551/511/551
f 544/504/544 545/505/545 553/511/553
f 544/504/544 553/511/553 552/512/552
f 545/505/545 546/506/546 553/511/553
f 547/507/547 542/502/542 548/509/549
f 548/509/549 549/508/548 555/513/554
f 548/509/549 555/513/554 554/514/555
f 549/508/548 550/510/550 556/515/556
f 549/508/548 556/515/556 555/513/554
f 550/510/550 551/511/551 557/516/557
f 550/510/550 557/516/557 556/515/556
f 551/511/551 552/512/552 558/517/558
f 551/511/551 558/517/558 557/516/557
f 552/512/552 553/511/553 559/518/559
f 552/512/552 559/518/559 558/517/558
f 553/511/553 546/506/546 560/519/560
f 553/511/553 560/519/560 559/518/559
f 546/506/546 547/507/547 561/520/561
f 546/506/546 561/520/561 560/519/560
f 547/507/547 548/509/549 554/514/555
f 547/507/547 554/514/555 561/520/561
f 554/514/555 555/513/554 562/521/562
f 558/517/558 559/518/559 563/522/563
f 559/518/559 560/519/560 563/522/563
f 561/520/561 554/514/555 562/521/562
f 562/521/562 555/513/554 565/523/564
f 562/521/562 565/523/564 564/524/565
f 555/513/554 556/515/556 566/525/566
f 555/513/554 566/525/566 565/523/564
f 556/515/556 557/516/557 567/526/567
f 556/515/556 567/526/567 566/525/566
f 557/516/557 558/517/558 568/527/568
f 557/516/557 568/527/568 567/526/567
f 558/517/558 563/522/563 569/526/569
f 558/517/558 569/526/569 568/527/568
f 563/522/563 560/519/560 570/525/570
f 563/522/563 570/525/570 569/526/569
f 560/519/560 561/520/561 571/523/571
f 560/519/560 571/523/571 570/525/570
f 561/520/561 562/521/562 564/524/565
f 561/520/561 564/524/565 571/523/571
f 564/524/565 565/523/564 572/528/572
f 565/523/564 566/525/566 573/529/573
f 565/523/564 573/529/573 572/528/572
f 566/525/566 567/526/567 574/530/574
f 566/525/566 574/530/574 573/529/573
f 567/526/567 568/527/568 575/531/575
f 567/526/567 575/531/575 574/530/574
f 568/527/568 569/526/569 576/530/576
f 568/527/568 576/530/576 575/531/575
f 569/526/569 570/525/570 577/532/577
f 569/526/569 577/532/577 576/530/576
f 570/525/570 571/523/571 578/533/578
f 570/525/570 578/533/578 577/532/577
f 571/523/571 564/524/565 572/528/572
f 571/523/571 572/528/572 578/533/578
f 572/528/572 580/534/579 579/535/580
f 572/528/572 573/529/573 581/536/581
f 572/528/572 581/536/581 580/534/579
f 573/529/573 574/530/574 582/537/582
f 573/529/573 582/537/582 581/536/581
f 574/530/574 575/531/575 583/538/583
f 574/530/574 583/538/583 582/537/582
f 575/531/575 576/530/576 584/537/584
f 575/531/575 584/537/584 583/538/583
f 576/530/576 577/532/577 584/537/584
f 577/532/577 578/533/578 585/534/585
f 578/533/578 572/528/572 579/535/580
f 578/533/578 579/535/580 585/534/585
f 579/535/580 580/534/579 587/539/586
f 579/535/580 587/539/586 586/540/587
f 580/534/579 581/536/581 587/539/586
f 581/536/581 582/537/582 588/541/588
f 582/537/582 583/538/583 589/542/589
f 582/537/582 589/542/589 588/541/588
f 583/538/583 584/537/584 590/543/590
f 583/538/583 590/543/590 589/542/589
f 584/537/584 577/532/577 591/544/591
f 584/537/584 591/544/591 590/543/590
f 577/532/577 585/534/585 592/539/592
f 577/532/577 592/539/592 591/544/591
f 585/534/585 579/535/580 586/540/587
f 585/534/585 586/540/587 592/539/592
f 586/540/587 587/539/586 594/545/593
f 586/540/587 594/545/593 593/546/594
f 587/539/586 581/536/581 595/547/595
f 587/539/586 595/547/595 594/545/593
f 581/536/581 588/541/588 596/548/596
f 581/536/581 596/548/596 595/547/595
f 589/542/589 590/543/590 597/548/597
f 589/542/589 597/548/597 588/541/588
f 590/543/590 591/544/591 598/547/598
f 590/543/590 598/547/598 597/548/597
f 591/544/591 592/539/592 599/549/599
f 591/544/591 599/549/599 598/547/598
f 592/539/592 586/540/587 593/546/594
f 592/539/592 593/546/594 599/549/599
f 593/546/594 594/545/593 600/550/600
f 594/545/593 595/547/595 601/551/601
f 595/547/595 596/548/596 602/552/602
f 595/547/595 602/552/602 601/551/601
f 596/548/596 588/541/588 603/553/603
f 596/548/596 603/553/603 602/552/602
f 588/541/588 597/548/597 604/554/604
f 588/541/588 604/554/604 603/553/603
f 597/548/597 598/547/598 605/555/605
f 597/548/597 605/555/605 604/554/604
f 598/547/598 599/549/599 606/556/606
f 598/547/598 606/556/606 605/555/605
f 599/549/599 593/546/594 600/550/600
f 599/549/599 600/550/600 606/556/606
f 600/550/600 594/545/593 608/557/607
f 600/550/600 608/557/607 607/558/608
f 594/545/593 601/551/601 608/557/607
f 602/552/602 603/553/603 609/559/609
f 603/553/603 604/554/604 609/559/609
f 605/555/605 606/556/606 610/560/610
f 606/556/606 600/550/600 607/558/608
f 606/556/606 607/558/608 610/560/610
f 607/558/608 608/557/607 611/561/611
f 607/558/608 611/561/611 610/560/610
f 608/557/607 601/551/601 611/561/611
f 601/551/601 602/552/602 612/562/612
f 601/551/601 612/562/612 611/561/611
f 602/552/602 609/559/609 613/563/613
f 602/552/602 613/563/613 612/562/612
f 609/559/609 604/554/604 613/563/613
f 604/554/604 605/555/605 614/564/614
f 604/554/604 614/564/614 613/563/613
f 605/555/605 610/560/610 614/564/614
f 610/560/610 611/561/611 615/565/615
f 611/561/611 612/562/612 616/566/616
f 612/562/612 613/563/613 616/566/616
f 613/563/613 614/564/614 617/567/617
f 614/564/614 610/560/610 617/567/617
f 610/560/610 615/565/615 617/567/617
f 615/565/615 611/561/611 618/568/618
f 611/561/611 616/566/616 618/568/618
f 616/566/616 613/563/613 618/568/618
f 613/563/613 617/567/617 618/568/618
f 617/567/617 615/565/615 618/568/618
