# Blender 5.1.2
# www.blender.org
o inferno_cracks_flat_v16
v 0.250000 0.007000 -0.000000
v 0.420878 0.007000 0.011632
v 0.607561 0.007000 0.019155
v 0.955731 0.007000 0.004159
v 1.138368 0.007000 0.007864
v 1.309307 0.007000 0.008463
v 1.484636 0.007000 -0.017054
v 1.661719 0.007000 -0.055925
v 1.661294 0.007000 -0.058999
v 1.837708 0.007000 -0.064329
v 1.838047 0.007000 -0.067666
v 2.015018 0.007000 -0.019827
v 2.016002 0.007000 -0.023233
v 2.191461 0.007000 0.038293
v 2.192314 0.007000 0.034294
v 2.368153 0.007000 0.055679
v 2.368129 0.007000 0.051732
v 2.545191 0.007000 0.035687
v 2.544976 0.007000 0.032582
v 2.721627 0.007000 0.030687
v 2.721811 0.007000 0.027634
v 2.897754 0.007000 0.057223
v 2.898063 0.007000 0.053550
v 3.074783 0.007000 0.060702
v 3.074092 0.007000 0.056941
v 3.252415 0.007000 -0.007745
v 3.250681 0.007000 -0.011409
v 3.427290 0.007000 -0.105415
v 3.425572 0.007000 -0.110105
v 3.601767 0.007000 -0.135305
v 3.602329 0.007000 -0.140524
v 3.779739 0.007000 -0.067612
v 3.781480 0.007000 -0.071583
v 3.957191 0.007000 0.019883
v 3.958352 0.007000 0.016190
v 4.134131 0.007000 0.043619
v 4.134201 0.007000 0.039528
v 4.310824 0.007000 0.025884
v 4.310918 0.007000 0.022065
v 4.486698 0.007000 0.052056
v 4.487739 0.007000 0.048486
v 4.661709 0.007000 0.128698
v 4.662989 0.007000 0.124107
v 4.839008 0.007000 0.150826
v 4.837707 0.007000 0.145444
v 5.018539 0.007000 0.042656
v 5.015506 0.007000 0.038652
v 5.193607 0.007000 -0.118009
v 5.191123 0.007000 -0.121870
v 5.367116 0.007000 -0.182220
v 5.367166 0.007000 -0.186859
v 5.544857 0.007000 -0.114376
v 5.546458 0.007000 -0.118037
v 5.722937 0.007000 -0.027112
v 5.723794 0.007000 -0.030297
v 5.900017 0.007000 -0.018979
v 5.899909 0.007000 -0.022908
v 6.076053 0.007000 -0.035980
v 6.076830 0.007000 -0.040754
v 6.251732 0.007000 0.038511
v 6.254305 0.007000 0.034522
v 6.425726 0.007000 0.189760
v 6.428164 0.007000 0.185811
v 6.601880 0.007000 0.254065
v 6.601031 0.007000 0.249231
v 6.783123 0.007000 0.127043
v 6.780181 0.007000 0.123893
v 6.959942 0.007000 -0.080984
v 6.957837 0.007000 -0.083423
v 7.134784 0.007000 -0.177213
v 7.134837 0.007000 -0.180620
v 7.488644 0.007000 -0.071321
v 7.488765 0.007000 -0.075064
v 7.665175 0.007000 -0.113755
v 7.664331 0.007000 -0.117486
v 7.840188 0.007000 -0.150698
v 7.841208 0.007000 -0.154971
v 8.017186 0.007000 -0.029620
v 8.020193 0.007000 -0.032565
v 8.191539 0.007000 0.207752
v 8.193874 0.007000 0.205528
v 8.365254 0.007000 0.332912
v 8.546685 0.007000 0.217953
v 8.544686 0.007000 0.215825
v 8.725013 0.007000 -0.004963
v 8.900887 0.007000 -0.109243
v 9.077682 0.007000 -0.073337
v 9.077950 0.007000 -0.076468
v 9.254936 0.007000 -0.077542
v 9.253763 0.007000 -0.080647
v 9.429253 0.007000 -0.207722
v 9.603229 0.007000 -0.296817
v 9.783225 0.007000 -0.150214
v 9.959633 0.007000 0.163520
v 10.131221 0.007000 0.356757
v 10.310368 0.007000 0.275590
v 10.490317 0.007000 0.080725
v 10.667189 0.007000 0.009282
v 10.843646 0.007000 0.048388
v 11.020300 0.007000 -0.018396
v 11.193969 0.007000 -0.256760
v 11.365278 0.007000 -0.430738
v 11.546234 0.007000 -0.294918
v 0.196732 0.007000 0.154261
v 0.329985 0.007000 0.268630
v 0.474252 0.007000 0.378213
v 0.775158 0.007000 0.559972
v 0.914776 0.007000 0.663509
v 1.054051 0.007000 0.775290
v 1.200099 0.007000 0.872199
v 1.353165 0.007000 0.965823
v 1.354942 0.007000 0.963370
v 1.486721 0.007000 1.081869
v 1.489421 0.007000 1.079424
v 1.700397 0.007000 1.378973
v 1.703717 0.007000 1.377391
v 1.847349 0.007000 1.482654
v 2.020252 0.007000 1.548996
v 2.021518 0.007000 1.545929
v 2.184739 0.007000 1.623713
v 2.186553 0.007000 1.620701
v 2.462543 0.007000 1.838250
v 2.463655 0.007000 1.833961
v 2.633788 0.007000 1.907963
v 2.635592 0.007000 1.903108
v 2.807952 0.007000 1.966902
v 2.810326 0.007000 1.962870
v 2.938520 0.007000 2.086550
v 2.941869 0.007000 2.084315
v 3.093336 0.007000 2.465162
v 3.096807 0.007000 2.463135
v 3.231962 0.007000 2.578767
v 3.233589 0.007000 2.575734
v 3.411426 0.007000 2.636512
v 3.412959 0.007000 2.632690
v 3.572297 0.007000 2.716134
v 3.575283 0.007000 2.711823
v 3.701220 0.007000 2.837970
v 3.704453 0.007000 2.833884
v 3.849983 0.007000 2.935405
v 3.851524 0.007000 2.930888
v 4.053900 0.007000 2.958207
v 4.054271 0.007000 2.953328
v 4.263800 0.007000 2.966746
v 4.265229 0.007000 2.962488
v 4.403697 0.007000 3.075026
v 4.405536 0.007000 3.072314
v 4.521722 0.007000 3.512224
v 4.516890 0.007000 3.513540
v 4.644829 0.007000 3.638429
v 4.647388 0.007000 3.634446
v 4.815947 0.007000 3.706077
v 4.818256 0.007000 3.702065
v 4.953176 0.007000 3.815996
v 4.956954 0.007000 3.812610
v 5.054902 0.007000 3.973014
v 5.058417 0.007000 3.969549
v 5.204806 0.007000 4.069901
v 5.205491 0.007000 4.066184
v 5.446414 0.007000 4.044603
v 5.445919 0.007000 4.041389
v 5.700756 0.007000 3.993438
v 5.701007 0.007000 3.989757
v 5.859097 0.007000 4.072280
v 5.862164 0.007000 4.070108
v 5.915172 0.007000 4.297192
v 5.918760 0.007000 4.296334
v 5.966747 0.007000 4.524362
v 5.970613 0.007000 4.522387
v 6.094763 0.007000 4.649336
v 6.097524 0.007000 4.645574
v 6.252068 0.007000 4.733690
v 6.254760 0.007000 4.730923
v 6.349545 0.007000 4.895985
v 6.352492 0.007000 4.894809
v 6.403727 0.007000 5.113282
v 6.406490 0.007000 5.111732
v 6.538077 0.007000 5.228948
v 6.807465 0.007000 5.170459
v 7.104268 0.007000 5.066847
v 7.103883 0.007000 5.063846
v 7.288363 0.007000 5.110032
v 7.290853 0.007000 5.107489
v 7.427746 0.007000 5.517260
v 7.430301 0.007000 5.515860
v 7.581145 0.007000 5.617010
v 7.728635 0.007000 5.707749
v 7.780475 0.007000 5.932836
v 7.772775 0.007000 6.229307
v 7.871068 0.007000 6.388678
v 8.148766 0.007000 6.322787
v 8.471091 0.007000 6.188207
v 8.676377 0.007000 6.205593
v 8.768250 0.007000 6.380146
v 8.880187 0.007000 6.526073
v 9.072804 0.007000 6.561587
v 9.235739 0.007001 6.637486
v 9.251060 0.007001 6.915228
v 0.112376 0.007000 0.223319
v 0.189570 0.007000 0.381432
v 0.278829 0.007000 0.534674
v 0.380881 0.007000 0.678032
v 0.480053 0.007000 0.826764
v 0.555565 0.007000 0.986390
v 0.618935 0.007000 1.152909
v 0.693736 0.007000 1.314047
v 0.696401 0.007000 1.312654
v 0.781123 0.007000 1.467520
v 0.784380 0.007000 1.465879
v 0.852359 0.007000 1.629328
v 0.855572 0.007000 1.628213
v 0.899782 0.007000 1.804186
v 0.956969 0.007000 1.972380
v 0.959611 0.007000 1.970901
v 1.071164 0.007000 2.113303
v 1.073449 0.007000 2.110977
v 1.222317 0.007000 2.233186
v 1.224433 0.007000 2.230879
v 1.346213 0.007000 2.365779
v 1.349314 0.007000 2.363760
v 1.414299 0.007000 2.529519
v 1.418784 0.007000 2.527891
v 1.467578 0.007000 2.701932
v 1.472010 0.007000 2.700042
v 1.553956 0.007000 2.856320
v 1.557533 0.007000 2.854132
v 1.652411 0.007000 3.003418
v 1.656203 0.007000 3.001683
v 1.700992 0.007000 3.177251
v 1.705057 0.007000 3.176796
v 1.694832 0.007000 3.379359
v 1.698238 0.007000 3.379227
v 1.716552 0.007000 3.566145
v 1.719779 0.007000 3.564686
v 1.840654 0.007000 3.703190
v 1.843516 0.007000 3.699453
v 2.027677 0.007000 3.805676
v 2.030555 0.007000 3.801392
v 2.173257 0.007000 3.926552
v 2.177103 0.007000 3.923606
v 2.244208 0.007000 4.088351
v 2.248821 0.007000 4.086404
v 2.311101 0.007000 4.253477
v 2.315291 0.007000 4.250822
v 2.434471 0.007000 4.387516
v 2.437323 0.007000 4.384845
v 2.560534 0.007000 4.518591
v 2.563558 0.007000 4.517107
v 2.589701 0.007000 4.703351
v 2.593796 0.007000 4.703689
v 2.525120 0.007000 4.937169
v 2.529620 0.007000 4.938098
v 2.497586 0.007000 5.149216
v 2.501962 0.007000 5.148137
v 2.612546 0.007000 5.291286
v 2.615573 0.007000 5.287313
v 2.810722 0.007000 5.388947
v 2.813601 0.007000 5.384420
v 2.957294 0.007000 5.510015
v 2.960851 0.007000 5.507328
v 3.026248 0.007000 5.672960
v 3.029370 0.007000 5.671335
v 3.120928 0.007000 5.823281
v 3.123379 0.007000 5.820549
v 3.305579 0.007000 5.923950
v 3.307438 0.007000 5.920634
v 3.482309 0.007000 6.025673
v 3.485216 0.007000 6.023609
v 3.510036 0.007000 6.211488
v 3.514053 0.007000 6.212223
v 3.399496 0.007000 6.472229
v 3.404039 0.007000 6.473911
v 3.325661 0.007001 6.709145
v 3.330110 0.007001 6.708939
v 3.418480 0.007001 6.861877
v 3.420973 0.007001 6.859242
v 3.599272 0.007001 6.968198
v 3.601493 0.007001 6.965524
v 3.713943 0.007001 7.106803
v 3.716852 0.007001 7.105329
v 3.760019 0.007001 7.281873
v 3.879808 0.007001 7.418573
v 4.386084 0.007001 7.541963
v 4.139372 0.007001 7.477893
v 4.388639 0.007001 7.540154
v 4.436988 0.007001 7.715762
v 4.440096 0.007001 7.716303
v 4.307989 0.007001 7.989477
v 4.310800 0.007001 7.990695
v 4.211022 0.007001 8.241156
v 4.283720 0.007001 8.402299
v 4.426674 0.007001 8.527285
v 4.475369 0.007001 8.700848
v 4.463078 0.007001 8.905126
v 4.588181 0.007001 9.039775
v 4.917082 0.007001 9.067079
v 5.242663 0.007001 9.086679
v 5.336385 0.007001 9.236445
v 5.221851 0.007001 9.503750
v 5.136332 0.007001 9.750149
v 5.212903 0.007001 9.909398
v 5.316046 0.007001 10.054588
v 5.275033 0.007001 10.275043
v -0.030914 0.007000 0.248081
v -0.052772 0.007000 0.422613
v -0.064862 0.007000 0.598741
v -0.067180 0.007000 0.776106
v -0.081853 0.007000 0.952613
v -0.125626 0.007000 1.124109
v -0.183614 0.007000 1.296260
v -0.180658 0.007000 1.297031
v -0.217463 0.007000 1.469984
v -0.214222 0.007000 1.470371
v -0.224140 0.007000 1.650031
v -0.238560 0.007000 1.823413
v -0.276364 0.007000 1.996536
v -0.273366 0.007000 1.997055
v -0.298814 0.007000 2.171728
v -0.274808 0.007000 2.353236
v -0.271825 0.007000 2.352622
v -0.225987 0.007000 2.535726
v -0.221915 0.007000 2.535156
v -0.225216 0.007000 2.712244
v -0.220647 0.007000 2.713216
v -0.299825 0.007000 2.882134
v -0.295998 0.007000 2.884039
v -0.392790 0.007000 3.049284
v -0.388915 0.007000 3.050834
v -0.435818 0.007000 3.222218
v -0.431596 0.007000 3.222798
v -0.440759 0.007000 3.399698
v -0.437194 0.007000 3.400108
v -0.475539 0.007000 3.572892
v -0.472512 0.007000 3.573875
v -0.551664 0.007000 3.740437
v -0.547800 0.007000 3.741714
v -0.589039 0.007000 3.914290
v -0.584177 0.007000 3.913907
v -0.523515 0.007000 4.102381
v -0.519185 0.007000 4.100363
v -0.413118 0.007000 4.292206
v -0.408507 0.007000 4.290431
v -0.381409 0.007000 4.471104
v -0.376197 0.007000 4.471863
v -0.463723 0.007000 4.640059
v -0.459811 0.007000 4.642236
v -0.567386 0.007000 4.806786
v -0.564163 0.007000 4.808109
v -0.603204 0.007000 4.980800
v -0.599446 0.007000 4.981244
v -0.609313 0.007000 5.157627
v -0.605051 0.007000 5.158645
v -0.685660 0.007000 5.325391
v -0.682058 0.007000 5.327795
v -0.827425 0.007000 5.483823
v -0.823481 0.007000 5.486400
v -0.899660 0.007000 5.652862
v -0.894176 0.007000 5.652584
v -0.809371 0.007000 5.845901
v -0.805095 0.007000 5.843132
v -0.646409 0.007000 6.043285
v -0.642990 0.007000 6.041246
v -0.581389 0.007000 6.226181
v -0.577621 0.007000 6.226248
v -0.652742 0.007000 6.395843
v -0.649182 0.007000 6.397457
v -0.735000 0.007000 6.565032
v -0.731550 0.007000 6.565825
v -0.732464 0.007001 6.743407
v -0.728728 0.007001 6.743293
v -0.724660 0.007001 6.921030
v -0.720184 0.007001 6.922526
v -0.846678 0.007001 7.083916
v -0.843414 0.007001 7.087534
v -1.069932 0.007001 7.232453
v -1.067222 0.007001 7.235552
v -1.198177 0.007001 7.392684
v -1.194385 0.007001 7.393116
v -1.109992 0.007001 7.586111
v -1.106961 0.007001 7.584002
v -0.922783 0.007001 7.788698
v -0.920326 0.007001 7.787007
v -0.840471 0.007001 7.974576
v -0.896987 0.007001 8.145837
v -0.893683 0.007001 8.146680
v -0.930576 0.007001 8.320434
v -0.926800 0.007001 8.319979
v -0.853664 0.007001 8.506442
v -0.850380 0.007001 8.505301
v -0.802483 0.007001 8.687689
v -0.799234 0.007001 8.688646
v -0.954460 0.007001 8.848953
v -0.952607 0.007001 8.851735
v -1.255548 0.007001 8.990975
v -1.448874 0.007001 9.140569
v -1.388680 0.007001 9.328434
v -1.215861 0.007001 9.530570
v -1.154781 0.007001 9.715992
v -1.208625 0.007001 9.887338
v -1.182810 0.007001 10.068264
v -1.004550 0.007001 10.265203
v -0.877661 0.007001 10.453848
v -1.028643 0.007001 10.617475
v -1.382724 0.007001 10.755248
v -1.630013 0.007001 10.899098
v -1.609836 0.007001 11.080544
v -1.488002 0.007001 11.275681
v -1.492990 0.007001 11.453099
v -0.174791 0.007000 0.178740
v -0.297690 0.007000 0.299313
v -0.421628 0.007000 0.426815
v -0.542746 0.007000 0.558656
v -0.678194 0.007000 0.683650
v -0.678548 0.007000 0.686973
v -0.966986 0.007000 0.882917
v -1.092199 0.007000 1.007485
v -1.193684 0.007000 1.155806
v -1.304912 0.007000 1.305869
v -1.301366 0.007000 1.305694
v -1.554922 0.007000 1.545450
v -1.552401 0.007000 1.547652
v -1.660301 0.007000 1.690014
v -1.656798 0.007000 1.692406
v -1.757461 0.007000 1.841307
v -1.754303 0.007000 1.844067
v -1.892271 0.007000 1.955706
v -1.890255 0.007000 1.959253
v -2.256883 0.007000 2.087629
v -2.255416 0.007000 2.091438
v -2.387069 0.007000 2.208216
v -2.384619 0.007000 2.210112
v -2.476363 0.007000 2.371224
v -2.473386 0.007000 2.373050
v -2.578507 0.007000 2.519153
v -2.575209 0.007000 2.522107
v -2.712639 0.007000 2.634252
v -2.709482 0.007000 2.637561
v -2.834387 0.007000 2.763151
v -2.830389 0.007000 2.765631
v -2.904913 0.007000 2.943463
v -2.899896 0.007000 2.945206
v -2.962751 0.007000 3.132229
v -2.958464 0.007000 3.134823
v -3.090780 0.007000 3.252447
v -3.090851 0.007000 3.257423
v -3.303041 0.007000 3.291458
v -3.515512 0.007000 3.326492
v -3.513931 0.007000 3.330350
v -3.656178 0.007000 3.436081
v -3.653034 0.007000 3.438807
v -3.748830 0.007000 3.595150
v -3.745357 0.007000 3.597716
v -3.869301 0.007000 3.723697
v -3.866034 0.007000 3.727854
v -4.027735 0.007000 3.813472
v -4.024292 0.007000 3.817790
v -4.146984 0.007000 3.945971
v -4.142799 0.007000 3.947726
v -4.176348 0.007000 4.169342
v -4.172364 0.007000 4.169662
v -4.183990 0.007000 4.407942
v -4.180078 0.007000 4.409132
v -4.290803 0.007000 4.547848
v -4.289126 0.007000 4.551114
v -4.513968 0.007000 4.577233
v -4.513574 0.007000 4.580659
v -4.741016 0.007000 4.599249
v -4.739596 0.007000 4.603368
v -4.885845 0.007000 4.704873
v -4.882277 0.007000 4.708414
v -4.990578 0.007000 4.850312
v -4.987567 0.007000 4.853720
v -5.149614 0.007000 4.938723
v -5.148216 0.007000 4.942630
v -5.353558 0.007000 4.980261
v -5.351780 0.007000 4.983994
v -5.485617 0.007000 5.099643
v -5.482331 0.007000 5.100766
v -5.481308 0.007000 5.358891
v -5.441634 0.007000 5.648392
v -5.438471 0.007000 5.648640
v -5.518522 0.007000 5.817264
v -5.516288 0.007000 5.820363
v -5.731269 0.007000 5.856451
v -5.730630 0.007000 5.860095
v -5.946311 0.007000 5.892312
v -5.944807 0.007000 5.895583
v -6.074828 0.007000 6.014438
v -6.072070 0.007000 6.017021
v -6.187913 0.007000 6.150378
v -6.186373 0.007000 6.153261
v -6.397981 0.007000 6.189063
v -6.665748 0.007000 6.162810
v -6.829068 0.007000 6.246045
v -6.814180 0.007000 6.520375
v -6.741057 0.007001 6.846035
v -6.792531 0.007001 7.042408
v -6.981842 0.007001 7.105150
v -7.155660 0.007001 7.180919
v -7.238413 0.007001 7.347582
v -7.342566 0.007001 7.492661
v -7.601139 0.007001 7.484096
v -7.941140 0.007001 7.384123
v -8.152565 0.007001 7.415051
v -8.149846 0.007001 7.677900
v -8.074061 0.007001 8.010285
v -8.120686 0.007001 8.213219
v -0.234577 0.007000 0.086451
v -0.354833 0.007000 0.123456
v -0.567714 0.007000 0.190465
v -0.735374 0.007000 0.249746
v -0.907012 0.007000 0.302386
v -1.079555 0.007000 0.338181
v -1.253075 0.007000 0.379675
v -1.414325 0.007000 0.455966
v -1.565173 0.007000 0.560271
v -1.720691 0.007000 0.648687
v -1.892290 0.007000 0.693565
v -1.891502 0.007000 0.697080
v -2.068753 0.007000 0.724685
v -2.067799 0.007000 0.728479
v -2.236680 0.007000 0.780024
v -2.235330 0.007000 0.783638
v -2.399729 0.007000 0.848151
v -2.398530 0.007000 0.852196
v -2.575022 0.007000 0.880230
v -2.574801 0.007000 0.884349
v -2.764853 0.007000 0.868100
v -2.764892 0.007000 0.871349
v -2.947483 0.007000 0.876335
v -2.946601 0.007000 0.879308
v -3.104692 0.007000 0.968666
v -3.102210 0.007000 0.971694
v -3.241986 0.007000 1.116908
v -3.239081 0.007000 1.120039
v -3.388100 0.007000 1.231441
v -3.386131 0.007000 1.235316
v -3.558654 0.007000 1.277395
v -3.557473 0.007000 1.282323
v -3.733472 0.007000 1.313640
v -3.731654 0.007000 1.318660
v -3.891156 0.007000 1.398199
v -3.889021 0.007000 1.401991
v -4.045114 0.007000 1.490068
v -4.044046 0.007000 1.493592
v -4.228159 0.007000 1.500579
v -4.228781 0.007000 1.504548
v -4.438933 0.007000 1.427915
v -4.440020 0.007000 1.431824
v -4.637321 0.007000 1.387049
v -4.636797 0.007000 1.390957
v -4.796302 0.007000 1.475724
v -4.793088 0.007000 1.479319
v -4.927742 0.007000 1.645086
v -4.923634 0.007000 1.648933
v -5.070997 0.007000 1.769051
v -5.068598 0.007000 1.773495
v -5.241433 0.007000 1.815079
v -5.240138 0.007000 1.819197
v -5.408004 0.007000 1.875464
v -5.405618 0.007000 1.879069
v -5.681386 0.007000 2.155237
v -5.679746 0.007000 2.158286
v -5.867447 0.007000 2.158743
v -5.868538 0.007000 2.162477
v -6.098269 0.007000 2.032223
v -6.100421 0.007000 2.036620
v -6.314143 0.007000 1.939810
v -6.314445 0.007000 1.944632
v -6.479286 0.007000 2.008946
v -6.476584 0.007000 2.012448
v -6.613352 0.007000 2.170128
v -6.610300 0.007000 2.173445
v -6.764707 0.007000 2.271961
v -6.763218 0.007000 2.275750
v -6.941494 0.007000 2.299681
v -6.940503 0.007000 2.302579
v -7.098115 0.007000 2.388034
v -7.321126 0.007000 2.811331
v -7.318351 0.007000 2.814261
v -7.500655 0.007000 2.832344
v -7.501770 0.007000 2.835870
v -7.744181 0.007000 2.676842
v -7.746252 0.007000 2.680310
v -7.973016 0.007000 2.550191
v -7.973780 0.007000 2.554010
v -8.143848 0.007000 2.598877
v -8.287826 0.007000 2.727212
v -8.459444 0.007000 2.770478
v -8.652442 0.007000 2.747305
v -8.806607 0.007000 2.844805
v -8.894099 0.007000 3.131256
v -8.976237 0.007000 3.425969
v -9.141654 0.007000 3.487725
v -9.385881 0.007000 3.336747
v -9.615355 0.007000 3.211526
v -9.786918 0.007000 3.255263
v -9.943706 0.007000 3.343046
v -10.144279 0.007000 3.298835
v -10.364014 0.007000 3.189695
v -10.525065 0.007000 3.266543
v -10.599515 0.007000 3.608680
v -10.657144 0.007000 3.972455
v -10.803565 0.007000 4.084787
v -0.243088 0.007000 -0.058378
v -0.401144 0.007000 -0.108186
v -0.580474 0.007000 -0.160933
v -0.924484 0.007000 -0.238071
v -0.925516 0.007000 -0.236202
v -1.096337 0.007000 -0.287053
v -1.266727 0.007000 -0.331647
v -1.444204 0.007000 -0.347619
v -1.625679 0.007000 -0.346055
v -1.800275 0.007000 -0.374873
v -1.801308 0.007000 -0.371587
v -1.963380 0.007000 -0.453887
v -1.965044 0.007000 -0.450803
v -2.122007 0.007000 -0.548768
v -2.123684 0.007000 -0.545241
v -2.289090 0.007000 -0.609156
v -2.290156 0.007000 -0.605098
v -2.464012 0.007000 -0.638403
v -2.464778 0.007000 -0.634975
v -2.633968 0.007000 -0.685530
v -2.635012 0.007000 -0.682777
v -2.795709 0.007000 -0.764085
v -2.796985 0.007000 -0.760883
v -2.964645 0.007000 -0.817733
v -2.964985 0.007000 -0.813829
v -3.153649 0.007000 -0.795484
v -3.152833 0.007000 -0.791627
v -3.348855 0.007000 -0.736812
v -3.348154 0.007000 -0.732277
v -3.528135 0.007000 -0.738058
v -3.529580 0.007000 -0.732911
v -3.687652 0.007000 -0.832182
v -3.690330 0.007000 -0.828178
v -3.842229 0.007000 -0.947420
v -3.844104 0.007000 -0.943986
v -4.009737 0.007000 -1.007437
v -4.010734 0.007000 -1.003604
v -4.184314 0.007000 -1.036553
v -4.185565 0.007000 -1.032710
v -4.345716 0.007000 -1.116542
v -4.347817 0.007000 -1.113508
v -4.492631 0.007000 -1.250295
v -4.495046 0.007000 -1.246819
v -4.654415 0.007000 -1.331590
v -4.654861 0.007000 -1.326226
v -4.852608 0.007000 -1.280821
v -4.850598 0.007000 -1.275833
v -5.062199 0.007000 -1.167197
v -5.060604 0.007000 -1.162827
v -5.249030 0.007000 -1.135401
v -5.249775 0.007000 -1.130898
v -5.409288 0.007000 -1.224588
v -5.411570 0.007000 -1.220880
v -5.566424 0.007000 -1.330187
v -5.567780 0.007000 -1.326966
v -5.740444 0.007000 -1.363457
v -5.740964 0.007000 -1.360006
v -5.916568 0.007000 -1.383438
v -5.918375 0.007000 -1.379274
v -6.067593 0.007000 -1.505950
v -6.071346 0.007000 -1.502777
v -6.195627 0.007000 -1.714056
v -6.199190 0.007000 -1.711153
v -6.343855 0.007000 -1.844018
v -6.344831 0.007000 -1.839376
v -6.544607 0.007000 -1.787564
v -6.542585 0.007000 -1.783371
v -6.764273 0.007000 -1.641163
v -6.762709 0.007000 -1.637916
v -6.957440 0.007000 -1.586070
v -7.120637 0.007000 -1.662708
v -7.122037 0.007000 -1.659470
v -7.286647 0.007000 -1.730405
v -7.287076 0.007000 -1.726593
v -7.474770 0.007000 -1.702648
v -7.474352 0.007000 -1.698968
v -7.657925 0.007000 -1.688214
v -7.659540 0.007000 -1.684455
v -7.802329 0.007000 -1.843503
v -7.806116 0.007000 -1.841314
v -7.912570 0.007000 -2.128932
v -7.915791 0.007000 -2.127311
v -8.044229 0.007000 -2.319202
v -8.238003 0.007000 -2.282720
v -8.458817 0.007000 -2.138757
v -8.651834 0.007000 -2.093693
v -8.816477 0.007000 -2.163588
v -8.995275 0.007000 -2.179191
v -8.994420 0.007000 -2.176013
v -9.204314 0.007000 -2.060725
v -9.203011 0.007000 -2.058050
v -9.401750 0.007000 -1.979187
v -9.547124 0.007000 -2.141590
v -9.645792 0.007000 -2.485993
v -9.761947 0.007000 -2.733735
v -9.945415 0.007000 -2.732849
v -10.156307 0.007000 -2.627280
v -10.337139 0.007000 -2.632986
v -10.495311 0.007000 -2.726801
v -10.685964 0.007000 -2.693975
v -10.920558 0.007000 -2.472472
v -11.138234 0.007000 -2.301048
v -11.290371 0.007000 -2.435164
v -0.144918 0.007000 -0.203713
v -0.238790 0.007000 -0.351744
v -0.346173 0.007000 -0.504319
v -0.346011 0.007000 -0.501711
v -0.575768 0.007000 -0.763638
v -0.679133 0.007000 -0.902024
v -0.783498 0.007000 -1.048266
v -0.899312 0.007000 -1.179326
v -1.024190 0.007000 -1.309592
v -1.026550 0.007000 -1.307676
v -1.124170 0.007000 -1.459281
v -1.128036 0.007000 -1.459082
v -1.240265 0.007000 -1.807283
v -1.243599 0.007000 -1.805633
v -1.341842 0.007000 -1.952284
v -1.344039 0.007000 -1.950272
v -1.481381 0.007000 -2.070225
v -1.483450 0.007000 -2.067920
v -1.610811 0.007000 -2.194216
v -1.613534 0.007000 -2.191900
v -1.710439 0.007000 -2.339929
v -1.713333 0.007000 -2.337843
v -1.817342 0.007000 -2.480918
v -1.820115 0.007000 -2.478054
v -1.967413 0.007000 -2.589839
v -1.970193 0.007000 -2.585670
v -2.127629 0.007000 -2.688462
v -2.131098 0.007000 -2.684750
v -2.228132 0.007000 -2.832741
v -2.232103 0.007000 -2.831302
v -2.253569 0.007000 -3.035076
v -2.257540 0.007000 -3.034627
v -2.274071 0.007000 -3.238506
v -2.277989 0.007000 -3.237284
v -2.365022 0.007000 -3.391357
v -2.367764 0.007000 -3.388979
v -2.507250 0.007000 -3.507256
v -2.509798 0.007000 -3.504588
v -2.624450 0.007000 -3.639935
v -2.628490 0.007000 -3.637238
v -2.702362 0.007000 -3.801231
v -2.706947 0.007000 -3.798328
v -2.814319 0.007000 -3.939443
v -2.817134 0.007000 -3.935412
v -3.009952 0.007000 -4.015718
v -3.011445 0.007000 -4.011204
v -3.222349 0.007000 -4.074397
v -3.224710 0.007000 -4.070269
v -3.340728 0.007000 -4.203947
v -3.344381 0.007000 -4.202619
v -3.348592 0.007000 -4.420847
v -3.351897 0.007000 -4.420801
v -3.346734 0.007000 -4.641954
v -3.350726 0.007000 -4.641094
v -3.429852 0.007000 -4.800724
v -3.433669 0.007000 -4.797821
v -3.560713 0.007000 -4.924063
v -3.564432 0.007000 -4.921279
v -3.641111 0.007000 -5.082784
v -3.645681 0.007000 -5.081317
v -3.673340 0.007000 -5.276356
v -3.678075 0.007000 -5.274484
v -3.775921 0.007000 -5.421915
v -3.778037 0.007000 -5.418190
v -4.013799 0.007000 -5.469189
v -4.014211 0.007000 -5.465949
v -4.283562 0.007000 -5.486148
v -4.284526 0.007000 -5.482875
v -4.432146 0.007000 -5.592153
v -4.435552 0.007000 -5.590439
v -4.443936 0.007000 -5.805904
v -4.447607 0.007000 -5.805775
v -4.447184 0.007000 -6.024756
v -4.451013 0.007000 -6.023743
v -4.541438 0.007000 -6.175575
v -4.545103 0.007000 -6.172786
v -4.660997 0.007000 -6.306175
v -4.664880 0.007000 -6.304441
v -4.688834 0.007000 -6.503788
v -4.692134 0.007000 -6.503858
v -4.651958 0.006999 -6.746101
v -4.654999 0.006999 -6.745865
v -4.722209 0.006999 -6.912963
v -4.982809 0.006999 -6.946051
v -5.298390 0.006999 -6.931994
v -5.478086 0.006999 -7.016273
v -5.480752 0.006999 -7.014235
v -5.511190 0.006999 -7.212843
v -5.514551 0.006999 -7.212220
v -5.551606 0.006999 -7.404669
v -5.687304 0.006999 -7.524566
v -5.811543 0.006999 -7.650890
v -5.786453 0.006999 -7.889953
v -5.668501 0.006999 -8.190755
v -5.683460 0.006999 -8.394473
v -5.939182 0.006999 -8.432426
v -6.271904 0.006999 -8.409313
v -6.467081 0.006999 -8.483264
v -6.525981 0.006999 -8.660202
v -6.624458 0.006999 -8.807037
v -6.832983 0.006999 -8.870206
v -6.991105 0.006999 -8.971039
v -6.932351 0.006999 -9.238237
v -0.035158 0.007000 -0.247516
v -0.056368 0.007000 -0.422099
v -0.090457 0.007000 -0.596169
v -0.140906 0.007000 -0.764426
v -0.189289 0.007000 -0.937107
v -0.213848 0.007000 -1.111307
v -0.226076 0.007000 -1.288961
v -0.251319 0.007000 -1.462336
v -0.286128 0.007000 -1.637637
v -0.289615 0.007000 -1.637138
v -0.299871 0.007000 -1.814118
v -0.303587 0.007000 -1.814165
v -0.281826 0.007000 -1.995502
v -0.284907 0.007000 -1.995712
v -0.277208 0.007000 -2.174580
v -0.331317 0.007000 -2.345949
v -0.334276 0.007000 -2.344561
v -0.432257 0.007000 -2.508871
v -0.435130 0.007000 -2.507313
v -0.509239 0.007000 -2.673969
v -0.512502 0.007000 -2.673036
v -0.529115 0.007000 -2.849496
v -0.533505 0.007000 -2.849153
v -0.536038 0.007000 -3.027845
v -0.541018 0.007000 -3.027108
v -0.580890 0.007000 -3.199491
v -0.585193 0.007000 -3.198234
v -0.636021 0.007000 -3.368498
v -0.640063 0.007000 -3.367953
v -0.628192 0.007000 -3.548697
v -0.632288 0.007000 -3.549632
v -0.551316 0.007000 -3.739972
v -0.554864 0.007000 -3.741189
v -0.499316 0.007000 -3.926006
v -0.502652 0.007000 -3.925948
v -0.557395 0.007000 -4.097430
v -0.561035 0.007000 -4.095331
v -0.688759 0.007000 -4.256705
v -0.693000 0.007000 -4.253728
v -0.782808 0.007000 -4.419081
v -0.787570 0.007000 -4.417465
v -0.803370 0.007000 -4.594243
v -0.808171 0.007000 -4.593621
v -0.828209 0.007000 -4.769666
v -0.833500 0.007000 -4.771008
v -0.921782 0.007000 -4.932542
v -1.018253 0.007000 -5.092994
v -1.021585 0.007000 -5.092252
v -0.998778 0.007000 -5.275609
v -1.002197 0.007000 -5.276979
v -0.863160 0.007000 -5.477824
v -0.867029 0.007000 -5.480175
v -0.757271 0.007000 -5.672427
v -0.761789 0.007000 -5.673207
v -0.799822 0.007000 -5.846350
v -0.803961 0.007000 -5.844153
v -0.933167 0.007000 -6.005605
v -0.937559 0.007000 -6.002677
v -1.015787 0.007000 -6.170303
v -1.020571 0.007000 -6.169046
v -1.023729 0.007000 -6.347676
v -1.027441 0.007000 -6.347056
v -1.074842 0.007000 -6.518946
v -1.077702 0.007000 -6.517032
v -1.401472 0.006999 -6.817722
v -1.404815 0.006999 -6.815800
v -1.393132 0.006999 -6.997505
v -1.396519 0.006999 -6.999075
v -1.218954 0.006999 -7.208486
v -1.222548 0.006999 -7.211282
v -1.070771 0.006999 -7.411035
v -1.075259 0.006999 -7.412554
v -1.091216 0.006999 -7.587986
v -1.094846 0.006999 -7.586609
v -1.199629 0.006999 -7.750310
v -1.202741 0.006999 -7.748988
v -1.233946 0.006999 -7.922976
v -1.237302 0.006999 -7.922981
v -1.200663 0.006999 -8.106903
v -1.266068 0.006999 -8.275587
v -1.505880 0.006999 -8.416023
v -1.507456 0.006999 -8.413206
v -1.750376 0.006999 -8.548558
v -1.753124 0.006999 -8.546119
v -1.777953 0.006999 -8.721284
v -1.781017 0.006999 -8.722483
v -1.598408 0.006999 -8.935159
v -1.600723 0.006999 -8.937026
v -1.440760 0.006999 -9.141857
v -1.451743 0.006999 -9.318902
v -1.521409 0.006999 -9.486593
v -1.474941 0.006999 -9.672548
v -1.361438 0.006999 -9.867461
v -1.413346 0.006999 -10.038495
v -1.713522 0.006999 -10.170775
v -2.037313 0.006999 -10.290900
v -2.115707 0.006999 -10.455272
v -1.964489 0.006999 -10.664513
v -1.839055 0.006999 -10.865780
v -1.874898 0.006999 -11.039907
v -1.914587 0.006999 -11.211131
v -1.771765 0.006999 -11.413298
v 0.092410 0.007000 -0.232294
v 0.157565 0.007000 -0.395815
v 0.212453 0.007000 -0.563950
v 0.256082 0.007000 -0.735378
v 0.310249 0.007000 -0.904392
v 0.391521 0.007000 -1.061959
v 0.485729 0.007000 -1.215042
v 0.563648 0.007000 -1.374900
v 0.560483 0.007000 -1.376167
v 0.618812 0.007000 -1.543104
v 0.615877 0.007000 -1.544155
v 0.681181 0.007000 -1.708318
v 0.767029 0.007000 -1.863873
v 0.764329 0.007000 -1.865192
v 0.837986 0.007000 -2.025920
v 0.835036 0.007000 -2.026702
v 0.858236 0.007000 -2.208323
v 0.855319 0.007000 -2.208421
v 0.850854 0.007000 -2.399408
v 0.847197 0.007000 -2.399664
v 0.884603 0.007000 -2.573950
v 0.880309 0.007000 -2.575759
v 0.988166 0.007000 -2.724045
v 0.984550 0.007000 -2.726840
v 1.110803 0.007000 -2.866861
v 1.107374 0.007000 -2.869183
v 1.191877 0.007000 -3.025214
v 1.187929 0.007000 -3.026824
v 1.244283 0.007000 -3.194265
v 1.240623 0.007000 -3.195837
v 1.330696 0.007000 -3.349639
v 1.328076 0.007000 -3.351557
v 1.459107 0.007000 -3.487911
v 1.456237 0.007000 -3.490067
v 1.550796 0.007000 -3.641777
v 1.546217 0.007000 -3.642839
v 1.540980 0.007000 -3.837868
v 1.536103 0.007000 -3.837012
v 1.479269 0.007000 -4.050406
v 1.474524 0.007000 -4.049707
v 1.482247 0.007000 -4.235702
v 1.477331 0.007000 -4.237286
v 1.587257 0.007000 -4.384842
v 1.583368 0.007000 -4.387902
v 1.711257 0.007000 -4.527666
v 1.708025 0.007000 -4.529658
v 1.775963 0.007000 -4.692427
v 1.772666 0.007000 -4.693516
v 1.822365 0.007000 -4.863227
v 1.818673 0.007000 -4.865236
v 1.945967 0.007000 -5.004148
v 1.943190 0.007000 -5.007620
v 2.139496 0.007000 -5.116450
v 2.136791 0.007000 -5.119988
v 2.271887 0.007000 -5.253479
v 2.266965 0.007000 -5.255078
v 2.250159 0.007000 -5.455877
v 2.244939 0.007000 -5.454398
v 2.149638 0.007000 -5.685037
v 2.145413 0.007000 -5.683824
v 2.126988 0.007000 -5.882029
v 2.123391 0.007000 -5.883167
v 2.318668 0.007000 -6.186034
v 2.315131 0.007000 -6.187246
v 2.355130 0.007000 -6.546806
v 2.351614 0.007000 -6.549088
v 2.513441 0.006999 -6.676849
v 2.511205 0.006999 -6.681271
v 2.780170 0.006999 -6.761710
v 2.778403 0.006999 -6.765777
v 2.968287 0.006999 -6.875472
v 2.965012 0.006999 -6.877353
v 2.958423 0.006999 -7.072985
v 2.954842 0.006999 -7.071997
v 2.849487 0.006999 -7.307281
v 2.846335 0.006999 -7.306316
v 2.824305 0.006999 -7.504911
v 2.912653 0.006999 -7.660198
v 2.909887 0.006999 -7.661376
v 2.964636 0.006999 -7.830129
v 2.960918 0.006999 -7.830042
v 2.904161 0.006999 -8.041049
v 2.900629 0.006999 -8.040231
v 2.867801 0.006999 -8.240229
v 3.038934 0.006999 -8.365423
v 3.037750 0.006999 -8.368529
v 3.367457 0.006999 -8.429192
v 3.366695 0.006999 -8.432025
v 3.611103 0.006999 -8.521103
v 3.630860 0.006999 -8.704317
v 3.547865 0.006999 -8.928750
v 3.560337 0.006999 -9.113620
v 3.662615 0.006999 -9.263129
v 3.668915 0.006999 -9.450289
v 3.513529 0.006999 -9.697494
v 3.397527 0.006999 -9.925222
v 3.549350 0.006999 -10.059375
v 3.908755 0.006999 -10.114791
v 4.188773 0.006999 -10.193207
v 4.239879 0.006999 -10.363082
v 4.209707 0.006999 -10.565675
v 4.299319 0.006999 -10.719997
v 0.217971 0.007000 -0.122429
v 0.370947 0.007000 -0.205868
v 0.523077 0.007000 -0.295414
v 0.673900 0.007000 -0.391044
v 0.830258 0.007000 -0.473796
v 0.993238 0.007000 -0.530503
v 1.171460 0.007000 -0.584683
v 1.170353 0.007000 -0.587395
v 1.328042 0.007000 -0.666651
v 1.467492 0.007000 -0.774136
v 1.614767 0.007000 -0.880338
v 1.613239 0.007000 -0.882778
v 1.923082 0.007000 -1.044786
v 1.920531 0.007000 -1.046504
v 2.063725 0.007000 -1.163682
v 2.061008 0.007000 -1.166659
v 2.194007 0.007000 -1.290739
v 2.191420 0.007000 -1.294312
v 2.350548 0.007000 -1.371392
v 2.349434 0.007000 -1.375349
v 2.542991 0.007000 -1.388913
v 2.542672 0.007000 -1.393133
v 2.736973 0.007000 -1.400530
v 2.736013 0.007000 -1.404631
v 2.899095 0.007000 -1.472764
v 2.897254 0.007000 -1.475621
v 3.035641 0.007000 -1.593404
v 3.033673 0.007000 -1.595889
v 3.180996 0.007000 -1.695626
v 3.179034 0.007000 -1.699239
v 3.346045 0.007000 -1.761044
v 3.343992 0.007000 -1.765260
v 3.499254 0.007000 -1.850494
v 3.496092 0.007000 -1.853862
v 3.613352 0.007000 -2.011652
v 3.609084 0.007000 -2.014344
v 3.714019 0.007000 -2.190207
v 3.710091 0.007000 -2.193778
v 3.861219 0.007000 -2.285381
v 3.860190 0.007000 -2.289601
v 4.069205 0.007000 -2.277303
v 4.069436 0.007000 -2.280815
v 4.280917 0.007000 -2.257976
v 4.280479 0.007000 -2.261879
v 4.448844 0.007000 -2.319647
v 4.446721 0.007000 -2.323369
v 4.588646 0.007000 -2.433267
v 4.586446 0.007000 -2.436831
v 4.749626 0.007000 -2.505163
v 4.748323 0.007000 -2.509812
v 4.935872 0.007000 -2.529779
v 4.934190 0.007000 -2.535116
v 5.092918 0.007000 -2.613595
v 5.089099 0.007000 -2.616842
v 5.183190 0.007000 -2.821437
v 5.179378 0.007000 -2.822781
v 5.250353 0.007000 -3.061205
v 5.246850 0.007000 -3.063106
v 5.380213 0.007000 -3.185859
v 5.378975 0.007000 -3.189574
v 5.590328 0.007000 -3.174370
v 5.590616 0.007000 -3.177797
v 5.806116 0.007000 -3.149917
v 5.805687 0.007000 -3.153748
v 5.971683 0.007000 -3.216472
v 5.969357 0.007000 -3.220745
v 6.116889 0.007000 -3.318389
v 6.115220 0.007000 -3.322930
v 6.305044 0.007000 -3.339567
v 6.305260 0.007000 -3.343744
v 6.525856 0.007000 -3.297463
v 6.525730 0.007000 -3.301530
v 6.697583 0.007000 -3.352562
v 6.694680 0.007000 -3.355011
v 6.773637 0.007000 -3.591225
v 6.770757 0.007000 -3.591854
v 6.812071 0.007000 -3.885288
v 6.924864 0.007000 -4.044710
v 6.923454 0.007000 -4.048231
v 7.326828 0.007000 -4.052995
v 7.325321 0.007000 -4.056352
v 7.615125 0.007000 -4.257423
v 7.614481 0.007000 -4.260886
v 7.835778 0.007000 -4.223666
v 8.100836 0.007000 -4.097441
v 8.297235 0.007000 -4.099405
v 8.373251 0.007000 -4.340142
v 8.401093 0.007000 -4.661732
v 8.501516 0.007000 -4.843365
v 8.686270 0.007000 -4.875507
v 8.855294 0.007000 -4.934865
v 8.961791 0.007000 -5.105642
v 9.089598 0.007000 -5.237598
v 9.335879 0.007000 -5.160459
v 9.646965 0.007000 -4.952081
v 9.876744 0.007000 -4.888477
v 9.966773 0.007000 -5.102298
v 10.003026 0.007000 -5.412452
v 10.110935 0.007000 -5.583144
vn -0.0000 -1.0000 -0.0000
vt 0.500076 0.196875
vt 1.000000 0.225000
vt 0.000000 0.225000
vt 0.000000 0.253125
vt 1.000000 0.253125
vt 0.000000 0.281250
vt 1.000000 0.281250
vt 0.000000 0.309375
vt 1.000000 0.309375
vt 0.000000 0.337500
vt 1.000000 0.337500
vt 0.000000 0.365625
vt 1.000000 0.365625
vt 0.000000 0.393750
vt 1.000000 0.393750
vt 0.000000 0.421875
vt 1.000000 0.421875
vt 0.000000 0.450000
vt 1.000000 0.450000
vt 0.000000 0.478125
vt 1.000000 0.478125
vt 0.000000 0.506250
vt 1.000000 0.506250
vt 0.000000 0.534375
vt 1.000000 0.534375
vt 0.000000 0.562500
vt 1.000000 0.562500
vt 0.000000 0.590625
vt 1.000000 0.590625
vt 0.000000 0.618750
vt 1.000000 0.618750
vt 0.000000 0.646875
vt 1.000000 0.646875
vt 0.000000 0.675000
vt 1.000000 0.675000
vt 0.000000 0.703125
vt 1.000000 0.703125
vt 0.000000 0.731250
vt 1.000000 0.731250
vt 0.000000 0.759375
vt 1.000000 0.759375
vt 0.000000 0.787500
vt 1.000000 0.787500
vt 0.000000 0.815625
vt 1.000000 0.815625
vt 0.000000 0.843750
vt 1.000000 0.843750
vt 0.000000 0.871875
vt 1.000000 0.871875
vt 0.000000 0.900000
vt 1.000000 0.900000
vt 0.000000 0.928125
vt 1.000000 0.928125
vt 0.000000 0.956250
vt 1.000000 0.956250
vt 0.000000 0.984375
vt 1.000000 0.984375
vt 0.000000 1.012500
vt 1.000000 1.012500
vt 0.000000 1.040625
vt 1.000000 1.040625
vt 0.000000 1.068750
vt 1.000000 1.068750
vt 0.000000 1.096983
vt 1.000000 1.097041
vt 0.000000 1.153125
vt 1.000000 1.153125
vt 0.000000 1.181250
vt 1.000000 1.181250
vt 0.000000 1.209375
vt 1.000000 1.209375
vt 0.000000 1.237500
vt 1.000000 1.237500
vt 0.000000 1.265625
vt 1.000000 1.265625
vt 0.498916 1.293750
vt 1.000000 1.321875
vt 0.000000 1.321875
vt 0.499630 1.350000
vt 0.500484 1.378125
vt 1.000000 1.406250
vt 0.000000 1.406250
vt 0.000000 1.434375
vt 1.000000 1.434375
vt 0.499352 1.462500
vt 0.500038 0.196875
vt 0.000000 0.308972
vt 1.000000 0.309155
vt 0.499830 0.337500
vt 0.000000 0.449638
vt 1.000000 0.449458
vt 0.000000 0.590402
vt 1.000000 0.590449
vt 0.000000 0.815771
vt 1.000000 0.872000
vt 0.000000 1.096875
vt 1.000000 1.096875
vt 0.000000 1.125000
vt 1.000000 1.125000
vt 0.499502 1.293750
vt 0.500142 1.321875
vt 1.000000 1.350000
vt 0.000000 1.350000
vt 0.000000 1.378125
vt 1.000000 1.378125
vt 0.000000 1.434202
vt 1.000000 1.434244
vt 0.500076 1.462500
vt 0.499928 0.168750
vt 1.000000 0.196875
vt 0.000000 0.196875
vt 0.500030 0.281250
vt 0.499755 1.265625
vt 0.499970 1.293750
vt 0.000000 1.349939
vt 0.500391 1.434375
vt 0.499931 0.140625
vt 1.000000 0.168750
vt 0.000000 0.168750
vt 0.500004 0.225000
vt 0.500020 0.253125
vt 0.499915 0.309375
vt 0.500701 1.237500
vt 0.000000 1.293750
vt 1.000000 1.293750
vt 0.500813 1.406250
vt 0.500025 0.084375
vt 1.000000 0.113940
vt 0.000000 0.113571
vt 0.500000 0.168750
vt 0.500031 0.225000
vt 1.000000 0.253841
vt 0.000000 0.254230
vt 0.000000 0.449969
vt 1.000000 0.450063
vt 1.000000 0.675252
vt 0.499918 1.181250
vt 0.500390 1.378125
vt 0.500149 0.253125
vt 0.000000 0.928103
vt 1.000000 0.928072
vt 0.499887 1.153125
vt 1.000000 1.209318
vt 0.000000 1.209347
vt 0.499779 1.321875
vt 0.500030 0.056250
vt 1.000000 0.112330
vt 0.000000 0.112245
vt 0.500012 0.140625
vt 0.500119 0.225000
vt 0.500679 1.096875
vt 0.498848 1.293750
vt 0.499974 1.406250
vt 0.000000 1.462500
vt 1.000000 1.462500
vt 0.500919 1.490625
vt 0.500015 0.028125
vt 1.000000 0.057258
vt 0.000000 0.057597
vt 0.499976 0.112500
vt 0.500044 0.196875
vt 0.000000 0.253622
vt 1.000000 0.253849
vt 0.499627 1.293750
vt 0.500339 1.350000
vt 0.499814 1.434375
vt 0.500023 0.196875
vt 0.499834 0.309375
vt 1.000000 0.731682
vt 0.000000 1.068790
vt 1.000000 1.068760
vt 0.499973 1.265625
vt 0.499707 1.293750
vt 0.500327 1.434375
vt 0.499897 0.168750
vt 0.500056 0.253125
vt 0.000000 0.956444
vt 1.000000 0.956495
vt 0.000000 1.068557
vt 1.000000 1.068587
vt 0.500468 1.237500
vt 0.500912 1.350000
vt 0.499235 1.434375
vt 0.499992 0.140625
vt 0.499934 0.196875
vt 0.500087 0.225000
vt 0.000000 0.308774
vt 1.000000 0.308596
vt 0.500347 1.209375
vt 1.000000 1.237623
vt 0.000000 1.237583
vt 0.000000 1.293992
vt 1.000000 1.293927
vt 0.500575 1.378125
s 1
f 7/1/1 9/2/1 8/3/1
f 8/3/1 9/2/1 10/4/1
f 9/2/1 11/5/1 10/4/1
f 10/4/1 11/5/1 12/6/1
f 11/5/1 13/7/1 12/6/1
f 12/6/1 13/7/1 14/8/1
f 13/7/1 15/9/1 14/8/1
f 14/8/1 15/9/1 16/10/1
f 15/9/1 17/11/1 16/10/1
f 16/10/1 17/11/1 18/12/1
f 17/11/1 19/13/1 18/12/1
f 18/12/1 19/13/1 20/14/1
f 19/13/1 21/15/1 20/14/1
f 20/14/1 21/15/1 22/16/1
f 21/15/1 23/17/1 22/16/1
f 22/16/1 23/17/1 24/18/1
f 23/17/1 25/19/1 24/18/1
f 24/18/1 25/19/1 26/20/1
f 25/19/1 27/21/1 26/20/1
f 26/20/1 27/21/1 28/22/1
f 27/21/1 29/23/1 28/22/1
f 28/22/1 29/23/1 30/24/1
f 29/23/1 31/25/1 30/24/1
f 30/24/1 31/25/1 32/26/1
f 31/25/1 33/27/1 32/26/1
f 32/26/1 33/27/1 34/28/1
f 33/27/1 35/29/1 34/28/1
f 34/28/1 35/29/1 36/30/1
f 35/29/1 37/31/1 36/30/1
f 36/30/1 37/31/1 38/32/1
f 37/31/1 39/33/1 38/32/1
f 38/32/1 39/33/1 40/34/1
f 39/33/1 41/35/1 40/34/1
f 40/34/1 41/35/1 42/36/1
f 41/35/1 43/37/1 42/36/1
f 42/36/1 43/37/1 44/38/1
f 43/37/1 45/39/1 44/38/1
f 44/38/1 45/39/1 46/40/1
f 45/39/1 47/41/1 46/40/1
f 46/40/1 47/41/1 48/42/1
f 47/41/1 49/43/1 48/42/1
f 48/42/1 49/43/1 50/44/1
f 49/43/1 51/45/1 50/44/1
f 50/44/1 51/45/1 52/46/1
f 51/45/1 53/47/1 52/46/1
f 52/46/1 53/47/1 54/48/1
f 53/47/1 55/49/1 54/48/1
f 54/48/1 55/49/1 56/50/1
f 55/49/1 57/51/1 56/50/1
f 56/50/1 57/51/1 58/52/1
f 57/51/1 59/53/1 58/52/1
f 58/52/1 59/53/1 60/54/1
f 59/53/1 61/55/1 60/54/1
f 60/54/1 61/55/1 62/56/1
f 61/55/1 63/57/1 62/56/1
f 62/56/1 63/57/1 64/58/1
f 63/57/1 65/59/1 64/58/1
f 64/58/1 65/59/1 66/60/1
f 65/59/1 67/61/1 66/60/1
f 66/60/1 67/61/1 68/62/1
f 67/61/1 69/63/1 68/62/1
f 68/62/1 69/63/1 70/64/1
f 69/63/1 71/65/1 70/64/1
f 70/64/1 71/65/1 72/66/1
f 71/65/1 73/67/1 72/66/1
f 72/66/1 73/67/1 74/68/1
f 73/67/1 75/69/1 74/68/1
f 74/68/1 75/69/1 76/70/1
f 75/69/1 77/71/1 76/70/1
f 76/70/1 77/71/1 78/72/1
f 77/71/1 79/73/1 78/72/1
f 78/72/1 79/73/1 80/74/1
f 79/73/1 81/75/1 80/74/1
f 80/74/1 81/75/1 82/76/1
f 82/76/1 84/77/1 83/78/1
f 83/78/1 84/77/1 85/79/1
f 86/80/1 88/81/1 87/82/1
f 87/82/1 88/81/1 89/83/1
f 88/81/1 90/84/1 89/83/1
f 89/83/1 90/84/1 91/85/1
f 110/86/1 112/2/1 111/3/1
f 111/3/1 112/2/1 113/4/1
f 112/2/1 114/5/1 113/4/1
f 113/4/1 114/5/1 115/87/1
f 114/5/1 116/88/1 115/87/1
f 115/87/1 116/88/1 117/89/1
f 117/89/1 119/13/1 118/12/1
f 118/12/1 119/13/1 120/14/1
f 119/13/1 121/15/1 120/14/1
f 120/14/1 121/15/1 122/90/1
f 121/15/1 123/91/1 122/90/1
f 122/90/1 123/91/1 124/20/1
f 123/91/1 125/21/1 124/20/1
f 124/20/1 125/21/1 126/22/1
f 125/21/1 127/23/1 126/22/1
f 126/22/1 127/23/1 128/24/1
f 127/23/1 129/25/1 128/24/1
f 128/24/1 129/25/1 130/92/1
f 129/25/1 131/93/1 130/92/1
f 130/92/1 131/93/1 132/30/1
f 131/93/1 133/31/1 132/30/1
f 132/30/1 133/31/1 134/32/1
f 133/31/1 135/33/1 134/32/1
f 134/32/1 135/33/1 136/34/1
f 135/33/1 137/35/1 136/34/1
f 136/34/1 137/35/1 138/36/1
f 137/35/1 139/37/1 138/36/1
f 138/36/1 139/37/1 140/38/1
f 139/37/1 141/39/1 140/38/1
f 140/38/1 141/39/1 142/40/1
f 141/39/1 143/41/1 142/40/1
f 142/40/1 143/41/1 144/42/1
f 143/41/1 145/43/1 144/42/1
f 144/42/1 145/43/1 146/94/1
f 145/43/1 147/45/1 146/94/1
f 147/45/1 148/95/1 146/94/1
f 146/94/1 148/95/1 149/48/1
f 149/48/1 148/95/1 150/50/1
f 148/95/1 151/51/1 150/50/1
f 150/50/1 151/51/1 152/52/1
f 151/51/1 153/53/1 152/52/1
f 152/52/1 153/53/1 154/54/1
f 153/53/1 155/55/1 154/54/1
f 154/54/1 155/55/1 156/56/1
f 155/55/1 157/57/1 156/56/1
f 156/56/1 157/57/1 158/58/1
f 157/57/1 159/59/1 158/58/1
f 158/58/1 159/59/1 160/60/1
f 159/59/1 161/61/1 160/60/1
f 160/60/1 161/61/1 162/62/1
f 161/61/1 163/63/1 162/62/1
f 162/62/1 163/63/1 164/96/1
f 163/63/1 165/97/1 164/96/1
f 164/96/1 165/97/1 166/98/1
f 165/97/1 167/99/1 166/98/1
f 166/98/1 167/99/1 168/66/1
f 167/99/1 169/67/1 168/66/1
f 168/66/1 169/67/1 170/68/1
f 169/67/1 171/69/1 170/68/1
f 170/68/1 171/69/1 172/70/1
f 171/69/1 173/71/1 172/70/1
f 172/70/1 173/71/1 174/72/1
f 173/71/1 175/73/1 174/72/1
f 174/72/1 175/73/1 176/74/1
f 175/73/1 177/75/1 176/74/1
f 176/74/1 177/75/1 178/100/1
f 179/101/1 181/102/1 180/103/1
f 180/103/1 181/102/1 182/104/1
f 181/102/1 183/105/1 182/104/1
f 182/104/1 183/105/1 184/106/1
f 183/105/1 185/107/1 184/106/1
f 184/106/1 185/107/1 186/108/1
f 205/109/1 207/110/1 206/111/1
f 206/111/1 207/110/1 208/3/1
f 207/110/1 209/2/1 208/3/1
f 208/3/1 209/2/1 210/4/1
f 209/2/1 211/5/1 210/4/1
f 210/4/1 211/5/1 212/112/1
f 212/112/1 214/9/1 213/8/1
f 213/8/1 214/9/1 215/10/1
f 214/9/1 216/11/1 215/10/1
f 215/10/1 216/11/1 217/12/1
f 216/11/1 218/13/1 217/12/1
f 217/12/1 218/13/1 219/14/1
f 218/13/1 220/15/1 219/14/1
f 219/14/1 220/15/1 221/16/1
f 220/15/1 222/17/1 221/16/1
f 221/16/1 222/17/1 223/18/1
f 222/17/1 224/19/1 223/18/1
f 223/18/1 224/19/1 225/20/1
f 224/19/1 226/21/1 225/20/1
f 225/20/1 226/21/1 227/22/1
f 226/21/1 228/23/1 227/22/1
f 227/22/1 228/23/1 229/24/1
f 228/23/1 230/25/1 229/24/1
f 229/24/1 230/25/1 231/26/1
f 230/25/1 232/27/1 231/26/1
f 231/26/1 232/27/1 233/28/1
f 232/27/1 234/29/1 233/28/1
f 233/28/1 234/29/1 235/30/1
f 234/29/1 236/31/1 235/30/1
f 235/30/1 236/31/1 237/32/1
f 236/31/1 238/33/1 237/32/1
f 237/32/1 238/33/1 239/34/1
f 238/33/1 240/35/1 239/34/1
f 239/34/1 240/35/1 241/36/1
f 240/35/1 242/37/1 241/36/1
f 241/36/1 242/37/1 243/38/1
f 242/37/1 244/39/1 243/38/1
f 243/38/1 244/39/1 245/40/1
f 244/39/1 246/41/1 245/40/1
f 245/40/1 246/41/1 247/42/1
f 246/41/1 248/43/1 247/42/1
f 247/42/1 248/43/1 249/44/1
f 248/43/1 250/45/1 249/44/1
f 249/44/1 250/45/1 251/46/1
f 250/45/1 252/47/1 251/46/1
f 251/46/1 252/47/1 253/48/1
f 252/47/1 254/49/1 253/48/1
f 253/48/1 254/49/1 255/50/1
f 254/49/1 256/51/1 255/50/1
f 255/50/1 256/51/1 257/52/1
f 256/51/1 258/53/1 257/52/1
f 257/52/1 258/53/1 259/54/1
f 258/53/1 260/55/1 259/54/1
f 259/54/1 260/55/1 261/56/1
f 260/55/1 262/57/1 261/56/1
f 261/56/1 262/57/1 263/58/1
f 262/57/1 264/59/1 263/58/1
f 263/58/1 264/59/1 265/60/1
f 264/59/1 266/61/1 265/60/1
f 265/60/1 266/61/1 267/62/1
f 266/61/1 268/63/1 267/62/1
f 267/62/1 268/63/1 269/96/1
f 268/63/1 270/97/1 269/96/1
f 269/96/1 270/97/1 271/98/1
f 270/97/1 272/99/1 271/98/1
f 271/98/1 272/99/1 273/66/1
f 272/99/1 274/67/1 273/66/1
f 273/66/1 274/67/1 275/68/1
f 274/67/1 276/69/1 275/68/1
f 275/68/1 276/69/1 277/70/1
f 276/69/1 278/71/1 277/70/1
f 277/70/1 278/71/1 279/72/1
f 278/71/1 280/73/1 279/72/1
f 279/72/1 280/73/1 281/113/1
f 282/114/1 284/77/1 283/115/1
f 284/77/1 285/102/1 283/115/1
f 283/115/1 285/102/1 286/104/1
f 285/102/1 287/105/1 286/104/1
f 286/104/1 287/105/1 288/82/1
f 287/105/1 289/81/1 288/82/1
f 288/82/1 289/81/1 290/116/1
f 309/117/1 311/118/1 310/119/1
f 310/119/1 311/118/1 312/111/1
f 311/118/1 313/110/1 312/111/1
f 312/111/1 313/110/1 314/120/1
f 315/121/1 317/7/1 316/6/1
f 316/6/1 317/7/1 318/122/1
f 318/122/1 320/11/1 319/10/1
f 319/10/1 320/11/1 321/12/1
f 320/11/1 322/13/1 321/12/1
f 321/12/1 322/13/1 323/14/1
f 322/13/1 324/15/1 323/14/1
f 323/14/1 324/15/1 325/16/1
f 324/15/1 326/17/1 325/16/1
f 325/16/1 326/17/1 327/18/1
f 326/17/1 328/19/1 327/18/1
f 327/18/1 328/19/1 329/20/1
f 328/19/1 330/21/1 329/20/1
f 329/20/1 330/21/1 331/22/1
f 330/21/1 332/23/1 331/22/1
f 331/22/1 332/23/1 333/24/1
f 332/23/1 334/25/1 333/24/1
f 333/24/1 334/25/1 335/26/1
f 334/25/1 336/27/1 335/26/1
f 335/26/1 336/27/1 337/28/1
f 336/27/1 338/29/1 337/28/1
f 337/28/1 338/29/1 339/30/1
f 338/29/1 340/31/1 339/30/1
f 339/30/1 340/31/1 341/32/1
f 340/31/1 342/33/1 341/32/1
f 341/32/1 342/33/1 343/34/1
f 342/33/1 344/35/1 343/34/1
f 343/34/1 344/35/1 345/36/1
f 344/35/1 346/37/1 345/36/1
f 345/36/1 346/37/1 347/38/1
f 346/37/1 348/39/1 347/38/1
f 347/38/1 348/39/1 349/40/1
f 348/39/1 350/41/1 349/40/1
f 349/40/1 350/41/1 351/42/1
f 350/41/1 352/43/1 351/42/1
f 351/42/1 352/43/1 353/44/1
f 352/43/1 354/45/1 353/44/1
f 353/44/1 354/45/1 355/46/1
f 354/45/1 356/47/1 355/46/1
f 355/46/1 356/47/1 357/48/1
f 356/47/1 358/49/1 357/48/1
f 357/48/1 358/49/1 359/50/1
f 358/49/1 360/51/1 359/50/1
f 359/50/1 360/51/1 361/52/1
f 360/51/1 362/53/1 361/52/1
f 361/52/1 362/53/1 363/54/1
f 362/53/1 364/55/1 363/54/1
f 363/54/1 364/55/1 365/56/1
f 364/55/1 366/57/1 365/56/1
f 365/56/1 366/57/1 367/58/1
f 366/57/1 368/59/1 367/58/1
f 367/58/1 368/59/1 369/60/1
f 368/59/1 370/61/1 369/60/1
f 369/60/1 370/61/1 371/62/1
f 370/61/1 372/63/1 371/62/1
f 371/62/1 372/63/1 373/96/1
f 372/63/1 374/97/1 373/96/1
f 373/96/1 374/97/1 375/98/1
f 374/97/1 376/99/1 375/98/1
f 375/98/1 376/99/1 377/66/1
f 376/99/1 378/67/1 377/66/1
f 377/66/1 378/67/1 379/68/1
f 378/67/1 380/69/1 379/68/1
f 379/68/1 380/69/1 381/70/1
f 380/69/1 382/71/1 381/70/1
f 381/70/1 382/71/1 383/123/1
f 383/123/1 385/75/1 384/74/1
f 384/74/1 385/75/1 386/124/1
f 385/75/1 387/125/1 386/124/1
f 386/124/1 387/125/1 388/78/1
f 387/125/1 389/77/1 388/78/1
f 388/78/1 389/77/1 390/103/1
f 389/77/1 391/102/1 390/103/1
f 390/103/1 391/102/1 392/104/1
f 391/102/1 393/105/1 392/104/1
f 392/104/1 393/105/1 394/126/1
f 412/127/1 414/128/1 413/129/1
f 413/129/1 414/128/1 415/130/1
f 417/131/1 419/132/1 418/133/1
f 418/133/1 419/132/1 420/8/1
f 419/132/1 421/9/1 420/8/1
f 420/8/1 421/9/1 422/10/1
f 421/9/1 423/11/1 422/10/1
f 422/10/1 423/11/1 424/12/1
f 423/11/1 425/13/1 424/12/1
f 424/12/1 425/13/1 426/14/1
f 425/13/1 427/15/1 426/14/1
f 426/14/1 427/15/1 428/134/1
f 427/15/1 429/135/1 428/134/1
f 428/134/1 429/135/1 430/20/1
f 429/135/1 431/21/1 430/20/1
f 430/20/1 431/21/1 432/22/1
f 431/21/1 433/23/1 432/22/1
f 432/22/1 433/23/1 434/24/1
f 433/23/1 435/25/1 434/24/1
f 434/24/1 435/25/1 436/26/1
f 435/25/1 437/27/1 436/26/1
f 436/26/1 437/27/1 438/28/1
f 437/27/1 439/29/1 438/28/1
f 438/28/1 439/29/1 440/30/1
f 439/29/1 441/31/1 440/30/1
f 440/30/1 441/31/1 442/32/1
f 441/31/1 443/33/1 442/32/1
f 442/32/1 443/33/1 444/34/1
f 443/33/1 445/136/1 444/34/1
f 444/34/1 445/136/1 446/36/1
f 446/36/1 445/136/1 447/38/1
f 445/136/1 448/39/1 447/38/1
f 447/38/1 448/39/1 449/40/1
f 448/39/1 450/41/1 449/40/1
f 449/40/1 450/41/1 451/42/1
f 450/41/1 452/43/1 451/42/1
f 451/42/1 452/43/1 453/44/1
f 452/43/1 454/45/1 453/44/1
f 453/44/1 454/45/1 455/46/1
f 454/45/1 456/47/1 455/46/1
f 455/46/1 456/47/1 457/48/1
f 456/47/1 458/49/1 457/48/1
f 457/48/1 458/49/1 459/50/1
f 458/49/1 460/51/1 459/50/1
f 459/50/1 460/51/1 461/52/1
f 460/51/1 462/53/1 461/52/1
f 461/52/1 462/53/1 463/54/1
f 462/53/1 464/55/1 463/54/1
f 463/54/1 464/55/1 465/56/1
f 464/55/1 466/57/1 465/56/1
f 465/56/1 466/57/1 467/58/1
f 466/57/1 468/59/1 467/58/1
f 467/58/1 468/59/1 469/60/1
f 468/59/1 470/61/1 469/60/1
f 469/60/1 470/61/1 471/62/1
f 470/61/1 472/63/1 471/62/1
f 471/62/1 472/63/1 473/96/1
f 472/63/1 474/97/1 473/96/1
f 473/96/1 474/97/1 475/98/1
f 474/97/1 476/99/1 475/98/1
f 475/98/1 476/99/1 477/66/1
f 476/99/1 478/67/1 477/66/1
f 477/66/1 478/67/1 479/137/1
f 479/137/1 481/71/1 480/70/1
f 480/70/1 481/71/1 482/72/1
f 481/71/1 483/73/1 482/72/1
f 482/72/1 483/73/1 484/74/1
f 483/73/1 485/75/1 484/74/1
f 484/74/1 485/75/1 486/124/1
f 485/75/1 487/125/1 486/124/1
f 486/124/1 487/125/1 488/78/1
f 487/125/1 489/77/1 488/78/1
f 488/78/1 489/77/1 490/103/1
f 489/77/1 491/102/1 490/103/1
f 490/103/1 491/102/1 492/138/1
f 517/139/1 519/7/1 518/6/1
f 518/6/1 519/7/1 520/8/1
f 519/7/1 521/9/1 520/8/1
f 520/8/1 521/9/1 522/10/1
f 521/9/1 523/11/1 522/10/1
f 522/10/1 523/11/1 524/12/1
f 523/11/1 525/13/1 524/12/1
f 524/12/1 525/13/1 526/14/1
f 525/13/1 527/15/1 526/14/1
f 526/14/1 527/15/1 528/16/1
f 527/15/1 529/17/1 528/16/1
f 528/16/1 529/17/1 530/18/1
f 529/17/1 531/19/1 530/18/1
f 530/18/1 531/19/1 532/20/1
f 531/19/1 533/21/1 532/20/1
f 532/20/1 533/21/1 534/22/1
f 533/21/1 535/23/1 534/22/1
f 534/22/1 535/23/1 536/24/1
f 535/23/1 537/25/1 536/24/1
f 536/24/1 537/25/1 538/26/1
f 537/25/1 539/27/1 538/26/1
f 538/26/1 539/27/1 540/28/1
f 539/27/1 541/29/1 540/28/1
f 540/28/1 541/29/1 542/30/1
f 541/29/1 543/31/1 542/30/1
f 542/30/1 543/31/1 544/32/1
f 543/31/1 545/33/1 544/32/1
f 544/32/1 545/33/1 546/34/1
f 545/33/1 547/35/1 546/34/1
f 546/34/1 547/35/1 548/36/1
f 547/35/1 549/37/1 548/36/1
f 548/36/1 549/37/1 550/38/1
f 549/37/1 551/39/1 550/38/1
f 550/38/1 551/39/1 552/40/1
f 551/39/1 553/41/1 552/40/1
f 552/40/1 553/41/1 554/42/1
f 553/41/1 555/43/1 554/42/1
f 554/42/1 555/43/1 556/44/1
f 555/43/1 557/45/1 556/44/1
f 556/44/1 557/45/1 558/46/1
f 557/45/1 559/47/1 558/46/1
f 558/46/1 559/47/1 560/48/1
f 559/47/1 561/49/1 560/48/1
f 560/48/1 561/49/1 562/140/1
f 561/49/1 563/141/1 562/140/1
f 562/140/1 563/141/1 564/54/1
f 563/141/1 565/55/1 564/54/1
f 564/54/1 565/55/1 566/56/1
f 565/55/1 567/57/1 566/56/1
f 566/56/1 567/57/1 568/58/1
f 567/57/1 569/59/1 568/58/1
f 568/58/1 569/59/1 570/60/1
f 569/59/1 571/61/1 570/60/1
f 570/60/1 571/61/1 572/62/1
f 571/61/1 573/63/1 572/62/1
f 572/62/1 573/63/1 574/96/1
f 573/63/1 575/97/1 574/96/1
f 574/96/1 575/97/1 576/98/1
f 575/97/1 577/99/1 576/98/1
f 576/98/1 577/99/1 578/142/1
f 578/142/1 580/143/1 579/144/1
f 579/144/1 580/143/1 581/72/1
f 580/143/1 582/73/1 581/72/1
f 581/72/1 582/73/1 583/74/1
f 582/73/1 584/75/1 583/74/1
f 583/74/1 584/75/1 585/124/1
f 584/75/1 586/125/1 585/124/1
f 585/124/1 586/125/1 587/145/1
f 607/146/1 609/147/1 608/148/1
f 608/148/1 609/147/1 610/149/1
f 613/150/1 615/5/1 614/4/1
f 614/4/1 615/5/1 616/6/1
f 615/5/1 617/7/1 616/6/1
f 616/6/1 617/7/1 618/8/1
f 617/7/1 619/9/1 618/8/1
f 618/8/1 619/9/1 620/10/1
f 619/9/1 621/11/1 620/10/1
f 620/10/1 621/11/1 622/12/1
f 621/11/1 623/13/1 622/12/1
f 622/12/1 623/13/1 624/14/1
f 623/13/1 625/15/1 624/14/1
f 624/14/1 625/15/1 626/16/1
f 625/15/1 627/17/1 626/16/1
f 626/16/1 627/17/1 628/18/1
f 627/17/1 629/19/1 628/18/1
f 628/18/1 629/19/1 630/20/1
f 629/19/1 631/21/1 630/20/1
f 630/20/1 631/21/1 632/22/1
f 631/21/1 633/23/1 632/22/1
f 632/22/1 633/23/1 634/24/1
f 633/23/1 635/25/1 634/24/1
f 634/24/1 635/25/1 636/26/1
f 635/25/1 637/27/1 636/26/1
f 636/26/1 637/27/1 638/28/1
f 637/27/1 639/29/1 638/28/1
f 638/28/1 639/29/1 640/30/1
f 639/29/1 641/31/1 640/30/1
f 640/30/1 641/31/1 642/32/1
f 641/31/1 643/33/1 642/32/1
f 642/32/1 643/33/1 644/34/1
f 643/33/1 645/35/1 644/34/1
f 644/34/1 645/35/1 646/36/1
f 645/35/1 647/37/1 646/36/1
f 646/36/1 647/37/1 648/38/1
f 647/37/1 649/39/1 648/38/1
f 648/38/1 649/39/1 650/40/1
f 649/39/1 651/41/1 650/40/1
f 650/40/1 651/41/1 652/42/1
f 651/41/1 653/43/1 652/42/1
f 652/42/1 653/43/1 654/44/1
f 653/43/1 655/45/1 654/44/1
f 654/44/1 655/45/1 656/46/1
f 655/45/1 657/47/1 656/46/1
f 656/46/1 657/47/1 658/48/1
f 657/47/1 659/49/1 658/48/1
f 658/48/1 659/49/1 660/50/1
f 659/49/1 661/51/1 660/50/1
f 660/50/1 661/51/1 662/52/1
f 661/51/1 663/53/1 662/52/1
f 662/52/1 663/53/1 664/54/1
f 663/53/1 665/55/1 664/54/1
f 664/54/1 665/55/1 666/56/1
f 665/55/1 667/57/1 666/56/1
f 666/56/1 667/57/1 668/58/1
f 667/57/1 669/59/1 668/58/1
f 668/58/1 669/59/1 670/60/1
f 669/59/1 671/61/1 670/60/1
f 670/60/1 671/61/1 672/62/1
f 671/61/1 673/63/1 672/62/1
f 672/62/1 673/63/1 674/151/1
f 674/151/1 676/99/1 675/98/1
f 675/98/1 676/99/1 677/66/1
f 676/99/1 678/67/1 677/66/1
f 677/66/1 678/67/1 679/68/1
f 678/67/1 680/69/1 679/68/1
f 679/68/1 680/69/1 681/70/1
f 680/69/1 682/71/1 681/70/1
f 681/70/1 682/71/1 683/72/1
f 682/71/1 684/73/1 683/72/1
f 683/72/1 684/73/1 685/74/1
f 684/73/1 686/75/1 685/74/1
f 685/74/1 686/75/1 687/152/1
f 691/153/1 693/84/1 692/83/1
f 692/83/1 693/84/1 694/154/1
f 693/84/1 695/155/1 694/154/1
f 694/154/1 695/155/1 696/156/1
f 709/157/1 711/158/1 710/159/1
f 710/159/1 711/158/1 712/160/1
f 715/161/1 717/2/1 716/3/1
f 716/3/1 717/2/1 718/162/1
f 717/2/1 719/163/1 718/162/1
f 718/162/1 719/163/1 720/8/1
f 719/163/1 721/9/1 720/8/1
f 720/8/1 721/9/1 722/10/1
f 721/9/1 723/11/1 722/10/1
f 722/10/1 723/11/1 724/12/1
f 723/11/1 725/13/1 724/12/1
f 724/12/1 725/13/1 726/14/1
f 725/13/1 727/15/1 726/14/1
f 726/14/1 727/15/1 728/16/1
f 727/15/1 729/17/1 728/16/1
f 728/16/1 729/17/1 730/18/1
f 729/17/1 731/19/1 730/18/1
f 730/18/1 731/19/1 732/20/1
f 731/19/1 733/21/1 732/20/1
f 732/20/1 733/21/1 734/22/1
f 733/21/1 735/23/1 734/22/1
f 734/22/1 735/23/1 736/24/1
f 735/23/1 737/25/1 736/24/1
f 736/24/1 737/25/1 738/26/1
f 737/25/1 739/27/1 738/26/1
f 738/26/1 739/27/1 740/28/1
f 739/27/1 741/29/1 740/28/1
f 740/28/1 741/29/1 742/30/1
f 741/29/1 743/31/1 742/30/1
f 742/30/1 743/31/1 744/32/1
f 743/31/1 745/33/1 744/32/1
f 744/32/1 745/33/1 746/34/1
f 745/33/1 747/35/1 746/34/1
f 746/34/1 747/35/1 748/36/1
f 747/35/1 749/37/1 748/36/1
f 748/36/1 749/37/1 750/38/1
f 749/37/1 751/39/1 750/38/1
f 750/38/1 751/39/1 752/40/1
f 751/39/1 753/41/1 752/40/1
f 752/40/1 753/41/1 754/42/1
f 753/41/1 755/43/1 754/42/1
f 754/42/1 755/43/1 756/44/1
f 755/43/1 757/45/1 756/44/1
f 756/44/1 757/45/1 758/46/1
f 757/45/1 759/47/1 758/46/1
f 758/46/1 759/47/1 760/48/1
f 759/47/1 761/49/1 760/48/1
f 760/48/1 761/49/1 762/50/1
f 761/49/1 763/51/1 762/50/1
f 762/50/1 763/51/1 764/52/1
f 763/51/1 765/53/1 764/52/1
f 764/52/1 765/53/1 766/54/1
f 765/53/1 767/55/1 766/54/1
f 766/54/1 767/55/1 768/56/1
f 767/55/1 769/57/1 768/56/1
f 768/56/1 769/57/1 770/58/1
f 769/57/1 771/59/1 770/58/1
f 770/58/1 771/59/1 772/60/1
f 771/59/1 773/61/1 772/60/1
f 772/60/1 773/61/1 774/62/1
f 773/61/1 775/63/1 774/62/1
f 774/62/1 775/63/1 776/96/1
f 775/63/1 777/97/1 776/96/1
f 776/96/1 777/97/1 778/98/1
f 777/97/1 779/99/1 778/98/1
f 778/98/1 779/99/1 780/66/1
f 779/99/1 781/67/1 780/66/1
f 780/66/1 781/67/1 782/68/1
f 781/67/1 783/69/1 782/68/1
f 782/68/1 783/69/1 784/70/1
f 783/69/1 785/71/1 784/70/1
f 784/70/1 785/71/1 786/72/1
f 785/71/1 787/73/1 786/72/1
f 786/72/1 787/73/1 788/74/1
f 787/73/1 789/75/1 788/74/1
f 788/74/1 789/75/1 790/164/1
f 792/165/1 794/105/1 793/104/1
f 793/104/1 794/105/1 795/82/1
f 794/105/1 796/81/1 795/82/1
f 795/82/1 796/81/1 797/166/1
f 818/167/1 820/2/1 819/3/1
f 819/3/1 820/2/1 821/4/1
f 820/2/1 822/5/1 821/4/1
f 821/4/1 822/5/1 823/6/1
f 822/5/1 824/7/1 823/6/1
f 823/6/1 824/7/1 825/168/1
f 825/168/1 827/11/1 826/10/1
f 826/10/1 827/11/1 828/12/1
f 827/11/1 829/13/1 828/12/1
f 828/12/1 829/13/1 830/14/1
f 829/13/1 831/15/1 830/14/1
f 830/14/1 831/15/1 832/16/1
f 831/15/1 833/17/1 832/16/1
f 832/16/1 833/17/1 834/18/1
f 833/17/1 835/19/1 834/18/1
f 834/18/1 835/19/1 836/20/1
f 835/19/1 837/21/1 836/20/1
f 836/20/1 837/21/1 838/22/1
f 837/21/1 839/23/1 838/22/1
f 838/22/1 839/23/1 840/24/1
f 839/23/1 841/25/1 840/24/1
f 840/24/1 841/25/1 842/26/1
f 841/25/1 843/27/1 842/26/1
f 842/26/1 843/27/1 844/28/1
f 843/27/1 845/29/1 844/28/1
f 844/28/1 845/29/1 846/30/1
f 845/29/1 847/31/1 846/30/1
f 846/30/1 847/31/1 848/32/1
f 847/31/1 849/33/1 848/32/1
f 848/32/1 849/33/1 850/34/1
f 849/33/1 851/35/1 850/34/1
f 850/34/1 851/35/1 852/36/1
f 851/35/1 853/37/1 852/36/1
f 852/36/1 853/37/1 854/38/1
f 853/37/1 855/169/1 854/38/1
f 854/38/1 855/169/1 856/40/1
f 856/40/1 855/169/1 857/42/1
f 855/169/1 858/43/1 857/42/1
f 857/42/1 858/43/1 859/44/1
f 858/43/1 860/45/1 859/44/1
f 859/44/1 860/45/1 861/46/1
f 860/45/1 862/47/1 861/46/1
f 861/46/1 862/47/1 863/48/1
f 862/47/1 864/49/1 863/48/1
f 863/48/1 864/49/1 865/50/1
f 864/49/1 866/51/1 865/50/1
f 865/50/1 866/51/1 867/52/1
f 866/51/1 868/53/1 867/52/1
f 867/52/1 868/53/1 869/54/1
f 868/53/1 870/55/1 869/54/1
f 869/54/1 870/55/1 871/56/1
f 870/55/1 872/57/1 871/56/1
f 871/56/1 872/57/1 873/58/1
f 872/57/1 874/59/1 873/58/1
f 873/58/1 874/59/1 875/170/1
f 874/59/1 876/171/1 875/170/1
f 875/170/1 876/171/1 877/96/1
f 876/171/1 878/97/1 877/96/1
f 877/96/1 878/97/1 879/98/1
f 878/97/1 880/99/1 879/98/1
f 879/98/1 880/99/1 881/66/1
f 880/99/1 882/67/1 881/66/1
f 881/66/1 882/67/1 883/68/1
f 882/67/1 884/69/1 883/68/1
f 883/68/1 884/69/1 885/70/1
f 884/69/1 886/71/1 885/70/1
f 885/70/1 886/71/1 887/72/1
f 886/71/1 888/73/1 887/72/1
f 887/72/1 888/73/1 889/172/1
f 890/173/1 892/77/1 891/78/1
f 891/78/1 892/77/1 893/103/1
f 892/77/1 894/102/1 893/103/1
f 893/103/1 894/102/1 895/104/1
f 894/102/1 896/105/1 895/104/1
f 895/104/1 896/105/1 897/82/1
f 896/105/1 898/81/1 897/82/1
f 897/82/1 898/81/1 899/174/1
f 919/175/1 921/110/1 920/111/1
f 920/111/1 921/110/1 922/3/1
f 921/110/1 923/2/1 922/3/1
f 922/3/1 923/2/1 924/176/1
f 924/176/1 926/7/1 925/6/1
f 925/6/1 926/7/1 927/8/1
f 926/7/1 928/9/1 927/8/1
f 927/8/1 928/9/1 929/10/1
f 928/9/1 930/11/1 929/10/1
f 929/10/1 930/11/1 931/12/1
f 930/11/1 932/13/1 931/12/1
f 931/12/1 932/13/1 933/14/1
f 932/13/1 934/15/1 933/14/1
f 933/14/1 934/15/1 935/16/1
f 934/15/1 936/17/1 935/16/1
f 935/16/1 936/17/1 937/18/1
f 936/17/1 938/19/1 937/18/1
f 937/18/1 938/19/1 939/20/1
f 938/19/1 940/21/1 939/20/1
f 939/20/1 940/21/1 941/22/1
f 940/21/1 942/23/1 941/22/1
f 941/22/1 942/23/1 943/24/1
f 942/23/1 944/25/1 943/24/1
f 943/24/1 944/25/1 945/26/1
f 944/25/1 946/27/1 945/26/1
f 945/26/1 946/27/1 947/28/1
f 946/27/1 948/29/1 947/28/1
f 947/28/1 948/29/1 949/30/1
f 948/29/1 950/31/1 949/30/1
f 949/30/1 950/31/1 951/32/1
f 950/31/1 952/33/1 951/32/1
f 951/32/1 952/33/1 953/34/1
f 952/33/1 954/35/1 953/34/1
f 953/34/1 954/35/1 955/36/1
f 954/35/1 956/37/1 955/36/1
f 955/36/1 956/37/1 957/38/1
f 956/37/1 958/39/1 957/38/1
f 957/38/1 958/39/1 959/40/1
f 958/39/1 960/41/1 959/40/1
f 959/40/1 960/41/1 961/42/1
f 960/41/1 962/43/1 961/42/1
f 961/42/1 962/43/1 963/44/1
f 962/43/1 964/45/1 963/44/1
f 963/44/1 964/45/1 965/46/1
f 964/45/1 966/47/1 965/46/1
f 965/46/1 966/47/1 967/48/1
f 966/47/1 968/49/1 967/48/1
f 967/48/1 968/49/1 969/50/1
f 968/49/1 970/51/1 969/50/1
f 969/50/1 970/51/1 971/52/1
f 970/51/1 972/53/1 971/52/1
f 971/52/1 972/53/1 973/177/1
f 972/53/1 974/178/1 973/177/1
f 973/177/1 974/178/1 975/58/1
f 974/178/1 976/59/1 975/58/1
f 975/58/1 976/59/1 977/179/1
f 976/59/1 978/180/1 977/179/1
f 977/179/1 978/180/1 979/96/1
f 978/180/1 980/97/1 979/96/1
f 979/96/1 980/97/1 981/98/1
f 980/97/1 982/99/1 981/98/1
f 981/98/1 982/99/1 983/66/1
f 982/99/1 984/67/1 983/66/1
f 983/66/1 984/67/1 985/68/1
f 984/67/1 986/69/1 985/68/1
f 985/68/1 986/69/1 987/70/1
f 986/69/1 988/71/1 987/70/1
f 987/70/1 988/71/1 989/181/1
f 989/181/1 991/75/1 990/74/1
f 990/74/1 991/75/1 992/124/1
f 991/75/1 993/125/1 992/124/1
f 992/124/1 993/125/1 994/78/1
f 993/125/1 995/77/1 994/78/1
f 994/78/1 995/77/1 996/182/1
f 996/182/1 998/105/1 997/104/1
f 997/104/1 998/105/1 999/82/1
f 998/105/1 1000/81/1 999/82/1
f 999/82/1 1000/81/1 1001/183/1
f 1020/184/1 1022/118/1 1021/119/1
f 1021/119/1 1022/118/1 1023/185/1
f 1024/186/1 1026/5/1 1025/4/1
f 1025/4/1 1026/5/1 1027/187/1
f 1026/5/1 1028/188/1 1027/187/1
f 1027/187/1 1028/188/1 1029/10/1
f 1028/188/1 1030/11/1 1029/10/1
f 1029/10/1 1030/11/1 1031/12/1
f 1030/11/1 1032/13/1 1031/12/1
f 1031/12/1 1032/13/1 1033/14/1
f 1032/13/1 1034/15/1 1033/14/1
f 1033/14/1 1034/15/1 1035/16/1
f 1034/15/1 1036/17/1 1035/16/1
f 1035/16/1 1036/17/1 1037/18/1
f 1036/17/1 1038/19/1 1037/18/1
f 1037/18/1 1038/19/1 1039/20/1
f 1038/19/1 1040/21/1 1039/20/1
f 1039/20/1 1040/21/1 1041/22/1
f 1040/21/1 1042/23/1 1041/22/1
f 1041/22/1 1042/23/1 1043/24/1
f 1042/23/1 1044/25/1 1043/24/1
f 1043/24/1 1044/25/1 1045/26/1
f 1044/25/1 1046/27/1 1045/26/1
f 1045/26/1 1046/27/1 1047/28/1
f 1046/27/1 1048/29/1 1047/28/1
f 1047/28/1 1048/29/1 1049/30/1
f 1048/29/1 1050/31/1 1049/30/1
f 1049/30/1 1050/31/1 1051/32/1
f 1050/31/1 1052/33/1 1051/32/1
f 1051/32/1 1052/33/1 1053/34/1
f 1052/33/1 1054/35/1 1053/34/1
f 1053/34/1 1054/35/1 1055/36/1
f 1054/35/1 1056/37/1 1055/36/1
f 1055/36/1 1056/37/1 1057/38/1
f 1056/37/1 1058/39/1 1057/38/1
f 1057/38/1 1058/39/1 1059/40/1
f 1058/39/1 1060/41/1 1059/40/1
f 1059/40/1 1060/41/1 1061/42/1
f 1060/41/1 1062/43/1 1061/42/1
f 1061/42/1 1062/43/1 1063/44/1
f 1062/43/1 1064/45/1 1063/44/1
f 1063/44/1 1064/45/1 1065/46/1
f 1064/45/1 1066/47/1 1065/46/1
f 1065/46/1 1066/47/1 1067/48/1
f 1066/47/1 1068/49/1 1067/48/1
f 1067/48/1 1068/49/1 1069/50/1
f 1068/49/1 1070/51/1 1069/50/1
f 1069/50/1 1070/51/1 1071/52/1
f 1070/51/1 1072/53/1 1071/52/1
f 1071/52/1 1072/53/1 1073/54/1
f 1072/53/1 1074/55/1 1073/54/1
f 1073/54/1 1074/55/1 1075/56/1
f 1074/55/1 1076/57/1 1075/56/1
f 1075/56/1 1076/57/1 1077/58/1
f 1076/57/1 1078/59/1 1077/58/1
f 1077/58/1 1078/59/1 1079/60/1
f 1078/59/1 1080/61/1 1079/60/1
f 1079/60/1 1080/61/1 1081/62/1
f 1080/61/1 1082/63/1 1081/62/1
f 1081/62/1 1082/63/1 1083/96/1
f 1082/63/1 1084/97/1 1083/96/1
f 1083/96/1 1084/97/1 1085/98/1
f 1084/97/1 1086/99/1 1085/98/1
f 1085/98/1 1086/99/1 1087/66/1
f 1086/99/1 1088/67/1 1087/66/1
f 1087/66/1 1088/67/1 1089/68/1
f 1088/67/1 1090/69/1 1089/68/1
f 1089/68/1 1090/69/1 1091/189/1
f 1091/189/1 1093/190/1 1092/191/1
f 1092/191/1 1093/190/1 1094/192/1
f 1093/190/1 1095/193/1 1094/192/1
f 1094/192/1 1095/193/1 1096/103/1
f 1095/193/1 1097/102/1 1096/103/1
f 1096/103/1 1097/102/1 1098/194/1
l 1 2
l 4 5
l 6 7
l 85 86
l 91 92
l 93 94
l 95 96
l 97 98
l 99 100
l 101 102
l 105 106
l 106 107
l 108 109
l 187 188
l 189 190
l 191 192
l 193 194
l 195 196
l 197 198
l 199 200
l 201 202
l 203 204
l 291 292
l 293 294
l 295 296
l 297 298
l 299 300
l 301 302
l 305 306
l 307 308
l 395 396
l 397 398
l 399 400
l 401 402
l 403 404
l 405 406
l 407 408
l 409 410
l 411 412
l 415 416
l 493 494
l 495 496
l 497 498
l 499 500
l 501 502
l 503 504
l 505 506
l 509 510
l 511 512
l 513 514
l 515 516
l 587 588
l 589 590
l 591 592
l 593 594
l 595 596
l 597 598
l 599 600
l 601 602
l 603 604
l 605 606
l 611 612
l 687 688
l 689 690
l 697 698
l 699 700
l 701 702
l 703 704
l 705 706
l 713 714
l 791 792
l 797 798
l 799 800
l 801 802
l 803 804
l 805 806
l 807 808
l 809 810
l 811 812
l 813 814
l 815 816
l 817 818
l 900 901
l 902 903
l 904 905
l 906 907
l 908 909
l 910 911
l 914 915
l 916 917
l 918 919
l 1001 1002
l 1003 1004
l 1005 1006
l 1007 1008
l 1009 1010
l 1011 1012
l 1013 1014
l 1015 1016
l 1017 1018
l 1019 1020
l 1099 1100
l 1101 1102
l 1103 1104
l 1105 1106
l 1107 1108
l 1109 1110
l 1111 1112
l 2 3
l 3 4
l 5 6
l 92 93
l 94 95
l 96 97
l 98 99
l 100 101
l 102 103
l 104 105
l 107 108
l 109 110
l 178 179
l 186 187
l 188 189
l 190 191
l 192 193
l 194 195
l 196 197
l 200 201
l 202 203
l 204 205
l 281 282
l 290 291
l 292 293
l 294 295
l 296 297
l 298 299
l 300 301
l 302 303
l 304 305
l 306 307
l 308 309
l 314 315
l 394 395
l 396 397
l 398 399
l 400 401
l 402 403
l 404 405
l 406 407
l 410 411
l 416 417
l 492 493
l 494 495
l 496 497
l 498 499
l 500 501
l 502 503
l 504 505
l 506 507
l 508 509
l 510 511
l 512 513
l 514 515
l 516 517
l 588 589
l 590 591
l 592 593
l 594 595
l 596 597
l 598 599
l 600 601
l 602 603
l 606 607
l 610 611
l 612 613
l 688 689
l 690 691
l 696 697
l 698 699
l 700 701
l 702 703
l 704 705
l 706 707
l 708 709
l 712 713
l 714 715
l 790 791
l 798 799
l 800 801
l 802 803
l 804 805
l 806 807
l 808 809
l 812 813
l 814 815
l 816 817
l 889 890
l 899 900
l 901 902
l 903 904
l 905 906
l 907 908
l 909 910
l 911 912
l 913 914
l 915 916
l 917 918
l 1002 1003
l 1004 1005
l 1006 1007
l 1008 1009
l 1010 1011
l 1012 1013
l 1016 1017
l 1018 1019
l 1023 1024
l 1098 1099
l 1100 1101
l 1102 1103
l 1104 1105
l 1106 1107
l 1108 1109
l 1110 1111
l 1112 1113
