# Blender 5.1.2
# www.blender.org
o justed_inferno_v32_curl_02
v 3.618455 0.519646 0.614408
v 3.440530 0.758796 0.792690
v 3.449686 0.644798 0.760064
v 3.419813 0.456376 0.849238
v 3.498566 0.410911 0.897571
v 3.612184 0.467464 0.942725
v 3.638735 0.568278 0.931100
v 3.519172 0.722061 0.836457
v 3.212536 0.964525 1.085649
v 3.123127 0.836375 1.117479
v 3.185440 0.668015 1.096299
v 3.125552 0.446576 1.202568
v 3.365303 0.405644 1.145073
v 3.365062 0.403985 1.374605
v 3.534924 0.468388 1.230025
v 3.569281 0.622333 1.212553
v 3.461577 0.734044 1.121400
v 3.400974 0.884104 1.048698
v 3.216338 0.432885 1.365138
v 3.418324 0.481263 1.494681
v 3.453476 0.674842 1.467021
v 3.267978 0.844518 1.457570
v 3.277045 1.019374 1.248992
v 3.020906 1.069002 1.353684
v 2.837033 0.928489 1.484497
v 2.828796 0.799529 1.472450
v 2.877821 0.521400 1.475956
v 3.011248 0.507325 1.621890
v 3.156710 0.432041 1.658239
v 3.261585 0.512883 1.721363
v 3.289675 0.724954 1.681063
v 3.104811 1.129958 1.502914
v 2.762514 1.130845 1.710260
v 2.904065 0.518949 1.884809
v 3.072714 0.565113 1.903099
v 3.091571 0.774605 1.851343
v 2.929069 0.951663 1.858727
v 2.690597 1.009130 1.700707
v 2.625670 0.879961 1.675125
v 2.627914 0.681054 1.752635
v 2.714840 0.641129 1.867084
v 2.739357 0.662850 2.135592
v 2.753254 0.898687 2.064227
v 2.709964 1.194081 1.947188
v 2.599748 1.172098 1.878133
v 2.542951 1.061502 1.849357
v 2.468073 0.949069 1.797130
v 2.475568 0.765748 1.885679
v 2.534089 0.700600 1.992025
v 2.587109 0.624853 2.095534
v 2.698189 1.030078 2.070909
v 2.447386 1.246583 2.007298
v 2.385364 1.136714 1.963443
v 2.298917 1.026247 1.881276
v 2.307938 0.833681 1.990498
v 2.342169 0.731883 2.094807
v 2.335363 0.648540 2.242602
v 2.341663 0.710167 2.387881
v 2.493054 0.920706 2.240190
v 2.538522 1.097318 2.224963
v 2.470598 1.289801 2.160188
v 2.297719 1.341860 2.119097
v 2.181423 1.307297 2.101466
v 2.046749 1.158977 1.955441
v 2.133186 0.893088 2.068273
v 2.140674 0.741801 2.169758
v 2.216912 0.976578 2.415332
v 2.263454 1.223410 2.489801
v 2.148477 1.430563 2.224339
v 1.962044 0.953992 2.127880
v 1.939655 0.752699 2.215939
v 1.971081 0.635413 2.368884
v 2.057932 0.720887 2.508261
v 2.209180 1.417522 2.372095
v 1.992601 1.491934 2.324155
v 1.929967 1.446140 2.184875
v 1.829795 1.284956 2.037270
v 1.799331 1.019405 2.177418
v 1.672678 0.809073 2.249206
v 1.767182 0.648991 2.402375
v 1.853271 0.763882 2.549422
v 1.931117 1.023983 2.548899
v 1.977801 1.289567 2.672366
v 2.003805 1.472341 2.504315
v 1.828000 1.529335 2.411397
v 1.787067 1.537446 2.250637
v 1.693776 1.349111 2.113049
v 1.643344 1.085817 2.217312
v 1.479988 0.715165 2.410982
v 1.661035 0.834823 2.560577
v 1.740439 1.052741 2.613945
v 1.661272 1.565982 2.481517
v 1.646116 1.626826 2.308432
v 1.555688 1.403426 2.183596
v 1.490440 1.147989 2.239423
v 1.419654 0.898111 2.257821
v 1.481302 0.910198 2.559992
v 1.551089 1.076225 2.666208
v 1.647813 1.335196 2.768747
v 1.556570 1.558689 2.672635
v 1.501377 1.625377 2.538527
v 1.511928 1.734620 2.351837
v 1.415990 1.459620 2.230469
v 1.340026 1.203112 2.232528
v 1.218809 0.946127 2.229056
v 1.197810 0.758246 2.379913
v 1.307995 0.967218 2.556842
v 1.362127 1.086335 2.716599
v 1.367789 1.385357 2.837547
v 1.267206 1.749691 2.657177
v 1.290278 1.965699 2.403226
v 1.279006 1.521496 2.252339
v 1.196413 1.252388 2.193208
v 1.137139 0.999663 2.549707
v 1.170311 1.078701 2.767900
v 1.336762 1.640992 2.753518
v 1.145885 1.582175 2.259771
v 1.065165 1.299335 2.135154
v 0.965271 0.962288 2.121391
v 0.899855 0.758375 2.294226
v 0.842716 1.023707 2.512887
v 0.976672 1.063982 2.807209
v 1.085965 1.439428 2.894619
v 1.168140 1.707157 2.802794
v 1.060924 1.925452 2.672003
v 1.129225 2.073244 2.427129
v 0.980395 1.639707 2.260148
v 0.946479 1.346395 2.085282
v 0.840276 0.982018 2.061202
v 0.767991 0.803886 2.255024
v 0.791072 1.067050 2.813716
v 0.904591 1.474724 2.894201
v 0.995430 1.754496 2.818849
v 0.907841 1.995137 2.679506
v 0.973874 2.074711 2.432354
v 0.813525 1.401253 2.063894
v 0.703078 1.044408 2.029531
v 0.657953 0.907250 2.241313
v 0.662503 1.058320 2.478442
v 0.626738 1.109089 2.776177
v 0.690318 1.518558 2.833526
v 0.823292 1.774024 2.787824
v 0.750840 2.022084 2.651271
v 0.805688 2.015039 2.417993
v 0.661286 1.706535 2.260446
v 0.557759 1.047496 2.247810
v 0.527552 1.105447 2.442546
v 0.488984 1.188940 2.702828
v 0.607515 2.021290 2.595841
v 0.640569 1.940264 2.385223
v 0.510606 1.506430 2.095186
v 0.455827 1.240648 2.071832
v 0.455925 1.185024 2.254405
v 0.402272 1.165413 2.404084
v 0.370390 1.283772 2.615134
v 0.270849 1.634422 2.551140
v 0.401174 1.771420 2.565636
v 0.422281 2.028021 2.504217
v 0.491345 1.890845 2.338758
v 0.489939 1.720434 2.213372
v 0.348297 1.289194 2.243913
v 0.279709 1.218494 2.363199
v 0.257417 1.368372 2.532746
v 0.318119 1.876111 2.256143
v 0.368024 1.760955 2.156312
v 0.320803 1.545830 2.033844
v 0.230691 1.336393 2.035379
v 0.214760 1.361221 2.204353
v 0.154055 1.249445 2.320312
v 0.070777 1.464602 2.424850
v 0.104605 1.695862 2.457158
v 0.222219 2.097511 2.372913
v -0.064481 1.285656 2.241123
v 0.130633 1.876781 2.417134
v 0.120475 2.123673 2.280397
v 0.086788 1.914176 2.092801
v 0.146908 1.813324 1.982262
v 0.130182 1.576159 1.919349
v 0.088152 1.382769 1.988780
v -0.078221 1.418161 2.069129
v -0.089371 1.536286 2.329019
v -0.085807 1.767208 2.321459
v 0.020030 1.938863 2.347977
v 0.023835 2.110737 2.174809
v -0.017793 1.438986 1.960595
v -0.204336 1.351828 2.171094
v -0.188725 1.591884 2.246679
v -0.079168 1.988710 2.261449
v -0.069650 2.069658 2.065960
v -0.097548 1.919078 1.918594
v -0.059120 1.824552 1.845236
v -0.074212 1.621855 1.827131
v -0.120868 1.507675 1.927100
v -0.198767 1.451745 1.996643
v -0.294914 1.433854 2.100450
v -0.286339 1.664270 2.136531
v -0.166417 2.019195 2.159029
v -0.157249 2.031988 1.961380
v -0.263417 1.594967 1.845193
v -0.298134 1.482091 1.931345
v -0.376713 1.513056 2.019408
v -0.243998 2.042171 2.051148
v -0.233280 2.020665 1.860561
v -0.201753 1.966140 1.781613
v -0.182714 1.832752 1.704382
v -0.238707 1.650169 1.700555
v -0.398789 1.493829 1.859221
v -0.510481 1.589839 1.890626
v -0.414477 1.736740 1.984222
v -0.334516 2.094425 1.910782
v -0.294300 2.035262 1.759432
v -0.408445 1.622352 1.701074
v -0.505951 1.480664 1.782422
v -0.513177 1.988248 1.790336
v -0.366354 2.075408 1.597549
v -0.270241 2.041931 1.503398
v -0.264026 1.851455 1.483343
v -0.376256 1.655341 1.516916
v -0.615781 1.461561 1.700986
v -0.649871 1.629026 1.759865
v -0.661838 1.828653 1.718063
v -0.420565 2.193397 1.736082
v -0.597908 1.608760 1.474074
v -0.712090 1.467602 1.610276
v -0.729292 1.662607 1.658302
v -0.610946 2.036575 1.667872
v -0.460854 2.220707 1.622509
v -0.447996 2.084661 1.381700
v -0.311224 2.046288 1.391789
v -0.334039 1.850867 1.352057
v -0.472890 1.696066 1.401681
v -0.776783 1.515084 1.505883
v -0.782826 1.720852 1.539396
v -0.662170 2.074162 1.554609
v -0.500832 2.203809 1.505306
v -0.402711 2.026304 1.259736
v -0.652267 1.648906 1.329161
v -0.804913 1.593244 1.389351
v -0.814588 1.776150 1.349975
v -0.695691 2.088656 1.431311
v -0.543768 2.156533 1.388202
v -0.557817 2.108395 1.273838
v -0.495215 1.886063 1.143652
v -0.586618 1.790581 1.225433
v -0.691570 1.678355 1.236386
v -0.804512 1.713577 1.205653
v -0.723943 2.080557 1.245661
v -0.554025 2.068285 1.122488
v -0.504377 2.009893 1.082801
v -0.635232 1.842705 1.078023
v -0.721043 1.728582 1.091460
v -0.565547 1.918907 0.963946
v -0.784623 1.814240 0.957252
v -0.789785 1.932441 0.912543
v -0.653042 2.052305 0.995176
v -0.583675 2.072972 0.867398
v -0.546798 2.021878 0.884780
v -0.639646 1.892077 0.855065
v -0.714493 1.802135 0.831347
v -0.721876 2.060242 0.830349
v -0.601003 1.943323 0.727046
v -0.738696 1.878543 0.742765
v -0.744932 1.984743 0.722613
v -0.579780 2.058339 0.623205
v -0.558968 2.028757 0.629382
v -0.645202 1.893517 0.609419
v -0.589319 1.950222 0.587790
v -0.619668 1.948803 0.509177
v -0.635028 2.000412 0.498717
v -0.618812 2.035645 0.549154
v -0.525645 2.040156 0.466454
v -0.545362 1.977137 0.471366
v -0.509662 1.986187 0.363599
v -0.421637 2.013520 0.280760
v -0.417887 2.024718 0.247084
v -0.454535 2.045821 0.330382
v -0.370155 2.047193 0.233777
v -0.194793 2.049745 0.102130
v 1.742117 1.166118 2.406099
v 1.709192 1.367900 2.340989
v 1.596476 1.245138 2.371711
v 1.559269 1.188261 2.448979
v 1.570302 1.192555 2.505989
v 1.610346 1.219493 2.542282
v 1.668034 1.292047 2.486578
v 1.704089 1.347945 2.421339
v 1.525468 1.549966 2.404761
v 1.473286 1.493264 2.387577
v 1.423886 1.419773 2.396506
v 1.373217 1.370479 2.474189
v 1.476766 1.490394 2.516907
v 1.341189 1.370112 2.527452
v 1.281326 1.474257 2.573169
v 1.508935 1.559633 2.479460
v 1.418291 1.673687 2.453940
v 1.385832 1.641660 2.401729
v 1.305783 1.551488 2.385612
v 1.196216 1.428510 2.510875
v 1.241201 1.639868 2.574287
v 1.422939 1.671807 2.526522
v 1.316838 1.748724 2.423562
v 1.202623 1.632126 2.395558
v 1.090190 1.483126 2.479223
v 1.155819 1.561136 2.538754
v 1.312099 1.752506 2.568981
v 1.241664 1.882279 2.538578
v 1.265401 1.913959 2.431802
v 1.077988 1.719752 2.379523
v 1.036576 1.601410 2.359962
v 0.959436 1.496609 2.422449
v 0.962451 1.661173 2.516011
v 1.102829 1.693573 2.637647
v 1.210348 1.840083 2.617800
v 1.139666 1.967356 2.563194
v 1.133400 1.949677 2.461555
v 0.944743 1.685597 2.340032
v 0.929428 1.628842 2.420401
v 0.998311 1.751605 2.619279
v 0.993882 1.887564 2.563644
v 1.024642 2.023145 2.550719
v 0.991875 1.946912 2.463958
v 0.952297 1.863492 2.408066
v 0.882810 1.740130 2.440420
v 0.863728 1.715564 2.501907
v 0.912901 1.819332 2.572034
v 0.908812 2.055382 2.508831
v 0.783451 1.918358 2.388298
v 0.861082 1.901047 2.383895
v 0.815368 1.795236 2.390576
v 0.803441 1.785588 2.446337
v 0.781935 1.755708 2.509322
v 0.830496 1.878407 2.533201
v 0.868250 1.970001 2.540341
v 0.793380 2.018970 2.455265
v 0.720466 1.824026 2.449981
v 0.663545 1.865178 2.506126
v 0.737018 2.019084 2.485128
v 0.691216 2.043536 2.410842
v 0.697307 2.017904 2.366230
v 0.681561 1.918000 2.362078
v 0.635601 1.852970 2.426591
v 0.633845 1.790834 2.475740
v 0.657599 1.957113 2.493196
v 0.682393 2.067818 2.466222
v 0.570712 2.026535 2.362505
v 0.609729 2.008745 2.329134
v 0.596547 1.920546 2.366366
v 0.561915 1.827003 2.479719
v 0.563255 1.963677 2.473290
v 0.581719 2.045057 2.408785
v 0.488759 1.967538 2.326940
v 0.479202 1.886447 2.391344
v 0.474984 1.885390 2.433227
v 0.412441 1.967062 2.330738
v 0.336848 1.893944 2.335711
v 0.417967 1.949761 2.393759
v 0.305757 1.896079 2.313184
v 0.347772 1.911764 2.320430
v 0.271444 1.875268 2.298573
v 0.077847 1.663244 2.191094
v 0.102110 1.817806 2.161453
v 0.039616 1.741811 2.082563
v -0.078420 1.683146 2.117310
v -0.067631 1.704435 2.175302
v 0.051734 1.844316 2.213001
v -0.045881 2.005169 2.105286
v -0.020754 1.989144 2.063902
v -0.015567 1.830137 2.039030
v -0.143696 1.749090 2.048272
v -0.131201 1.789627 2.107566
v -0.092373 1.982672 2.143188
v -0.084976 1.906153 1.987006
v -0.179089 1.833190 1.977045
v -0.168544 1.902297 2.085423
v -0.121673 2.138898 2.130913
v -0.048673 2.133698 2.061114
v -0.087168 2.027286 1.945645
v -0.161117 1.959800 1.841912
v -0.239398 1.854818 1.857338
v -0.261776 1.906909 1.959211
v -0.277286 1.999335 2.054697
v -0.179393 2.095307 2.147990
v -0.167871 2.296815 1.973984
v -0.179308 2.120388 1.844937
v -0.300246 1.966848 1.757602
v -0.324292 1.986200 1.868443
v -0.289143 2.219110 2.054765
v -0.236046 2.316963 2.049212
v -0.223703 2.030655 1.733735
v -0.388031 2.108092 1.967932
v -0.276649 2.389704 1.967882
v -0.238512 2.319530 1.876235
v -0.248119 2.211236 1.792748
v -0.283574 2.070220 1.703455
v -0.354803 2.060962 1.755910
v -0.413566 2.063200 1.807539
v -0.416838 2.181327 1.905019
v -0.324501 2.379519 1.839818
v -0.320364 2.247776 1.735488
v -0.353465 2.148677 1.723585
v -0.445332 2.141522 1.783011
v -0.417079 2.239744 1.823160
v -0.379117 2.310570 1.838516
v -0.349337 2.413657 1.749733
v -0.345224 2.253491 1.657859
v -0.412933 2.173689 1.685735
v -0.466305 2.143980 1.710775
v -0.515644 2.165169 1.754391
v -0.471177 2.282283 1.744346
v -0.412986 2.394841 1.778798
v -0.400000 2.390177 1.652967
v -0.374413 2.350747 1.628072
v -0.390785 2.249856 1.616507
v -0.530734 2.145851 1.682986
v -0.539381 2.223690 1.705463
v -0.441007 2.430168 1.687809
v -0.470394 2.368448 1.494989
v -0.386753 2.359151 1.544171
v -0.445353 2.240891 1.585402
v -0.583369 2.150160 1.651416
v -0.557089 2.327289 1.625682
v -0.474689 2.428744 1.596416
v -0.429258 2.345016 1.480914
v -0.551497 2.216517 1.504993
v -0.536492 2.190791 1.559202
v -0.591838 2.185059 1.586769
v -0.581887 2.337062 1.559512
v -0.517628 2.383461 1.520301
v -0.529457 2.333716 1.443692
v -0.531162 2.292787 1.436961
v -0.590539 2.237357 1.498204
v -0.599360 2.258337 1.348077
v -0.604191 2.203356 1.333748
v -0.615944 2.215078 1.379051
v -0.632303 2.171385 1.268619
vn 0.1170 -0.8487 -0.5157
vn -0.6680 -0.0506 -0.7424
vn -0.2695 0.5767 -0.7712
vn -0.4631 -0.6770 -0.5721
vn 0.0650 -0.9888 -0.1344
vn 0.8375 -0.5464 -0.0046
vn 0.9769 0.1810 -0.1137
vn 0.6376 0.7408 -0.2115
vn -0.7480 0.0614 -0.6608
vn -0.2759 0.7080 -0.6501
vn -0.7659 -0.1509 -0.6250
vn -0.6236 -0.6690 -0.4044
vn -0.1755 -0.9787 -0.1065
vn 0.2289 -0.9557 0.1853
vn 0.7538 -0.6350 0.1690
vn 0.8945 0.3824 0.2315
vn 0.7968 0.5776 0.1775
vn 0.6561 0.7386 -0.1550
vn -0.2506 -0.9681 0.0011
vn 0.7918 -0.4154 0.4478
vn 0.8400 0.3746 0.3924
vn 0.7517 0.5531 0.3591
vn 0.6517 0.7560 0.0615
vn -0.7098 0.2763 -0.6480
vn -0.4049 0.7351 -0.5438
vn -0.7630 -0.0690 -0.6427
vn -0.6584 -0.6204 -0.4261
vn -0.3538 -0.9353 -0.0005
vn -0.0300 -0.9746 0.2219
vn 0.6624 -0.3351 0.6700
vn 0.7467 0.3637 0.5570
vn 0.5743 0.7677 0.2844
vn -0.4079 0.7646 -0.4990
vn -0.2137 -0.9585 0.1885
vn 0.5410 -0.2911 0.7891
vn 0.6444 0.2916 0.7070
vn 0.6615 0.4670 0.5867
vn -0.5917 0.4486 -0.6698
vn -0.7079 -0.0180 -0.7061
vn -0.6958 -0.5533 -0.4579
vn -0.4500 -0.8847 -0.1221
vn 0.4718 -0.2423 0.8477
vn 0.6309 0.2057 0.7481
vn 0.5861 0.7431 0.3230
vn -0.3965 0.5315 -0.7486
vn -0.2426 0.7676 -0.5932
vn -0.5710 -0.0194 -0.8208
vn -0.6254 -0.5398 -0.5634
vn -0.4165 -0.8565 -0.3048
vn -0.1849 -0.9827 0.0146
vn 0.7155 0.3627 0.5970
vn -0.1577 0.5817 -0.7980
vn -0.0490 0.7901 -0.6110
vn -0.4074 -0.0336 -0.9126
vn -0.5089 -0.5180 -0.6875
vn -0.3433 -0.7988 -0.4940
vn -0.0679 -0.9970 -0.0382
vn 0.4208 -0.2885 0.8600
vn 0.5725 0.0334 0.8192
vn 0.6964 0.2354 0.6779
vn 0.6429 0.7230 0.2529
vn 0.0057 0.6776 -0.7354
vn 0.1302 0.8399 -0.5269
vn -0.3162 0.0291 -0.9482
vn -0.4265 -0.4619 -0.7777
vn -0.2505 -0.7176 -0.6498
vn 0.4547 -0.1294 0.8812
vn 0.6006 0.1301 0.7889
vn 0.2556 0.8973 -0.3600
vn -0.3777 -0.3900 -0.8398
vn -0.2388 -0.6178 -0.7492
vn -0.0617 -0.9979 -0.0217
vn 0.2468 -0.3779 0.8923
vn 0.5115 0.7652 0.3910
vn 0.0964 0.7347 -0.6715
vn 0.2747 0.9553 -0.1091
vn -0.3127 0.1426 -0.9391
vn -0.3868 -0.2791 -0.8789
vn -0.2285 -0.4631 -0.8563
vn -0.1953 -0.9796 0.0463
vn 0.0643 -0.4414 0.8950
vn 0.2984 -0.2486 0.9215
vn 0.4294 0.0234 0.9028
vn 0.4526 0.7523 0.4787
vn 0.1214 0.7790 -0.6152
vn 0.3050 0.9486 0.0846
vn -0.2944 0.2185 -0.9304
vn -0.2898 -0.2197 -0.9316
vn -0.2779 -0.9515 0.1322
vn -0.0899 -0.5096 0.8557
vn 0.1892 -0.3285 0.9253
vn 0.2299 0.7743 -0.5896
vn 0.3893 0.8812 0.2682
vn -0.1894 0.2555 -0.9481
vn -0.1337 -0.1287 -0.9826
vn -0.0575 -0.3741 -0.9256
vn -0.1676 -0.6035 0.7796
vn 0.1385 -0.4266 0.8938
vn 0.2656 -0.0258 0.9637
vn 0.4374 0.6449 0.6268
vn 0.4019 0.7157 -0.5712
vn 0.5533 0.7425 0.3775
vn -0.0200 0.2725 -0.9620
vn 0.0789 -0.0668 -0.9946
vn 0.1796 -0.3566 -0.9168
vn -0.1125 -0.9781 0.1753
vn -0.1403 -0.7144 0.6855
vn 0.1603 -0.5200 0.8390
vn 0.2883 -0.0410 0.9567
vn 0.4255 0.7505 -0.5057
vn 0.5229 0.6625 0.5363
vn 0.1199 0.2940 -0.9482
vn 0.2919 -0.0157 -0.9563
vn -0.1064 -0.8040 0.5851
vn 0.1476 -0.5808 0.8006
vn 0.4144 0.5208 0.7463
vn 0.1705 0.3486 -0.9216
vn 0.3697 0.0719 -0.9264
vn 0.3036 -0.3783 -0.8745
vn -0.1712 -0.9774 0.1237
vn -0.2385 -0.8578 0.4553
vn 0.0443 -0.6119 0.7897
vn 0.1274 -0.0423 0.9909
vn 0.3469 0.4437 0.8263
vn 0.2345 0.8147 -0.5303
vn 0.3691 0.7085 0.6015
vn 0.1126 0.4146 -0.9030
vn 0.2938 0.1972 -0.9353
vn 0.1416 -0.3647 -0.9203
vn -0.3860 -0.9222 0.0227
vn -0.1198 -0.6148 0.7795
vn -0.1043 0.0104 0.9945
vn 0.0728 0.3971 0.9149
vn 0.0119 0.8405 -0.5416
vn 0.0527 0.8020 0.5950
vn 0.1189 0.3125 -0.9425
vn -0.2095 -0.2815 -0.9364
vn -0.6386 -0.7582 -0.1315
vn -0.4175 -0.8378 0.3518
vn -0.4734 -0.5232 0.7086
vn -0.3821 0.0806 0.9206
vn -0.2087 0.3662 0.9068
vn -0.1331 0.8294 -0.5426
vn -0.2059 0.8433 0.4964
vn 0.1119 0.4961 -0.8610
vn -0.7310 -0.6174 -0.2905
vn -0.5524 -0.7936 0.2548
vn -0.6454 -0.4348 0.6280
vn -0.2149 0.9274 0.3063
vn -0.0344 0.7895 -0.6128
vn 0.1823 0.2997 -0.9365
vn -0.2309 -0.4329 -0.8714
vn -0.6377 -0.6855 -0.3513
vn -0.5866 -0.7891 0.1823
vn -0.6899 -0.3920 0.6086
vn -0.5043 0.1118 0.8563
vn -0.4199 0.2926 0.8591
vn 0.1860 0.7565 -0.6270
vn -0.1067 0.9204 0.3762
vn 0.3193 0.4884 -0.8121
vn -0.4410 -0.8078 -0.3911
vn -0.5141 -0.8379 0.1831
vn -0.6236 -0.3637 0.6920
vn 0.4623 0.6570 -0.5955
vn 0.4848 0.4710 -0.7370
vn 0.4100 0.1063 -0.9058
vn 0.0845 -0.6787 -0.7296
vn -0.1970 -0.9247 -0.3257
vn -0.3836 -0.8843 0.2663
vn -0.5233 -0.2656 0.8097
vn -0.4953 0.0811 0.8649
vn 0.1526 0.9607 0.2319
vn -0.5036 -0.8151 0.2863
vn -0.3801 0.3414 0.8596
vn 0.5460 0.5900 -0.5949
vn 0.1527 0.9852 0.0783
vn 0.5103 0.4449 -0.7359
vn 0.4316 -0.0800 -0.8985
vn 0.1082 -0.6715 -0.7330
vn -0.1354 -0.8896 -0.4363
vn -0.6079 -0.1614 0.7775
vn -0.6142 0.1339 0.7777
vn -0.4672 0.4048 0.7861
vn 0.0448 0.9932 -0.1079
vn -0.0389 -0.6009 -0.7984
vn -0.5847 -0.7537 0.3002
vn -0.6977 -0.0866 0.7111
vn -0.5652 0.5116 0.6471
vn 0.6217 0.5537 -0.5540
vn 0.0414 0.9690 -0.2436
vn 0.6130 0.3062 -0.7283
vn 0.4378 -0.3092 -0.8442
vn 0.0536 -0.6464 -0.7611
vn -0.1782 -0.9037 -0.3894
vn -0.7566 -0.5915 0.2788
vn -0.7502 0.0766 0.6568
vn -0.5779 0.5882 0.5657
vn 0.2687 0.9291 -0.2540
vn 0.1742 -0.7844 -0.5953
vn -0.1455 -0.9244 -0.3526
vn -0.7580 -0.5000 0.4188
vn -0.5669 0.6969 0.4393
vn 0.7775 0.5161 -0.3594
vn 0.4408 0.8760 -0.1955
vn 0.8420 0.0045 -0.5395
vn 0.5787 -0.5897 -0.5633
vn -0.0159 -0.9994 -0.0300
vn -0.6874 -0.2885 0.6666
vn -0.7024 0.1622 0.6930
vn -0.2452 0.7777 0.5788
vn 0.6092 0.7909 -0.0580
vn 0.3769 -0.8227 -0.4257
vn -0.0315 -0.9984 0.0480
vn -0.6695 0.3939 0.6298
vn 0.8260 0.4894 -0.2795
vn 0.6432 0.7575 -0.1120
vn 0.8582 -0.2516 -0.4475
vn 0.4638 -0.7251 -0.5090
vn -0.1187 -0.9887 0.0911
vn -0.7229 -0.1453 0.6755
vn -0.7672 0.2272 0.5998
vn -0.1656 0.9131 0.3725
vn 0.3297 -0.8315 -0.4470
vn -0.2825 -0.9590 0.0230
vn -0.8512 -0.0570 0.5218
vn -0.6801 0.5198 0.5170
vn -0.1454 0.9462 0.2891
vn 0.7573 0.4959 -0.4250
vn 0.4854 0.8131 -0.3213
vn 0.7506 -0.3752 -0.5439
vn 0.4789 -0.6913 -0.5411
vn -0.5760 -0.7602 -0.3006
vn -0.9410 0.0844 0.3278
vn -0.7431 0.5859 0.3233
vn -0.2337 0.9716 -0.0359
vn 0.7373 0.4248 -0.5253
vn 0.2699 -0.8451 -0.4614
vn -0.5882 -0.7484 -0.3065
vn -0.9880 0.1306 0.0819
vn -0.7419 0.6606 0.1154
vn -0.1951 0.9565 -0.2167
vn 0.0616 0.9580 -0.2801
vn 0.7089 -0.5003 -0.4971
vn 0.5286 -0.7047 -0.4732
vn 0.2220 -0.8823 -0.4152
vn -0.7224 -0.6294 -0.2862
vn -0.7211 0.6909 -0.0524
vn 0.9119 0.2452 -0.3291
vn 0.3600 0.9199 -0.1556
vn 0.6308 -0.7132 -0.3058
vn 0.3586 -0.8501 -0.3856
vn 0.7904 -0.5615 -0.2449
vn -0.8244 -0.5110 -0.2432
vn -0.9792 0.1555 -0.1304
vn 0.0120 0.9992 -0.0380
vn 0.9859 0.0664 -0.1533
vn 0.1964 0.9795 -0.0445
vn 0.6807 -0.7204 -0.1326
vn 0.3060 -0.9292 -0.2073
vn -0.5940 0.7915 -0.1435
vn 0.8301 -0.5530 -0.0715
vn -0.7995 -0.4429 -0.4057
vn -0.9119 0.2983 -0.2818
vn 0.9953 0.0293 0.0928
vn 0.1135 0.9935 -0.0094
vn 0.3311 -0.9245 -0.1890
vn -0.4351 0.8506 -0.2953
vn 0.8024 -0.5820 0.1321
vn -0.6316 -0.5202 -0.5749
vn -0.8030 0.2766 -0.5279
vn 0.7442 0.6344 0.2088
vn 0.9095 -0.3273 0.2563
vn -0.3237 -0.7546 -0.5708
vn 0.3467 0.9179 0.1930
vn 0.6304 -0.7341 0.2525
vn -0.6091 -0.2066 -0.7657
vn 0.1955 0.9507 0.2408
vn -0.1611 -0.3735 -0.9135
vn 0.0710 -0.9258 -0.3714
vn -0.2334 -0.4837 -0.8435
vn 0.5450 0.2928 -0.7857
vn -0.5511 -0.7957 -0.2514
vn -0.2664 -0.8505 0.4536
vn 0.4525 -0.4669 0.7598
vn 0.6715 0.2262 0.7056
vn 0.8075 0.4311 0.4027
vn -0.0157 0.0833 -0.9964
vn 0.5654 0.6376 -0.5232
vn -0.3310 -0.3052 -0.8929
vn -0.4734 -0.6678 -0.5744
vn 0.3937 0.1779 0.9018
vn -0.4429 -0.8117 0.3807
vn -0.0753 -0.1322 0.9884
vn 0.6844 0.4789 0.5499
vn 0.1663 0.2917 -0.9419
vn 0.6715 0.7107 -0.2096
vn -0.1787 -0.1508 -0.9723
vn -0.5997 -0.7964 0.0777
vn 0.2009 -0.1632 0.9659
vn 0.5986 0.3285 0.7306
vn 0.4387 0.6183 -0.6521
vn 0.0159 -0.1300 -0.9914
vn -0.2905 -0.9468 0.1387
vn -0.2851 -0.4224 0.8604
vn 0.4689 0.3138 0.8256
vn 0.8155 0.3445 -0.4652
vn 0.7054 0.6539 0.2735
vn 0.1511 0.1629 -0.9750
vn 0.0059 -0.2965 -0.9550
vn -0.4862 -0.8598 -0.1564
vn -0.5512 -0.5416 0.6347
vn -0.0837 -0.2374 0.9678
vn 0.2688 0.1736 0.9474
vn 0.1715 0.7457 -0.6439
vn 0.2918 0.8684 0.4010
vn -0.0565 0.0414 -0.9975
vn -0.8187 -0.4775 -0.3190
vn -0.3766 -0.1038 0.9205
vn -0.1108 0.2675 0.9572
vn 0.1688 0.7181 -0.6751
vn 0.1595 0.8886 0.4301
vn 0.1116 0.3228 -0.9399
vn -0.7242 -0.6426 -0.2501
vn -0.5466 -0.5268 0.6509
vn -0.4031 -0.1389 0.9045
vn 0.0851 0.0495 -0.9951
vn 0.0320 0.9592 0.2809
vn 0.0683 0.2704 -0.9603
vn -0.2986 -0.0460 -0.9533
vn -0.5556 -0.7888 -0.2629
vn -0.4875 -0.5187 0.7024
vn -0.3802 -0.0598 0.9230
vn -0.2253 0.3334 0.9155
vn 0.0622 0.9711 -0.2306
vn -0.3720 -0.8526 -0.3669
vn -0.1387 -0.1111 0.9841
vn -0.0058 0.6691 0.7432
vn 0.6481 0.2679 -0.7129
vn 0.2510 0.9272 -0.2780
vn 0.2057 -0.2846 -0.9363
vn -0.0702 -0.6756 -0.7339
vn -0.1219 -0.9700 0.2103
vn -0.1749 0.2746 0.9455
vn -0.3191 0.8183 0.4781
vn 0.1966 0.0626 -0.9785
vn -0.1348 0.8614 -0.4897
vn 0.0528 -0.4197 -0.9061
vn -0.5704 -0.8061 0.1578
vn -0.3370 0.3520 0.8732
vn -0.3555 0.8180 0.4522
vn 0.0620 -0.0464 -0.9970
vn 0.0221 -0.8450 -0.5343
vn -0.4564 -0.8083 0.3720
vn -0.6315 0.4633 0.6218
vn -0.4018 0.8253 -0.3969
vn -0.2720 -0.9319 0.2399
vn 0.2016 -0.3456 -0.9165
vn -0.5405 0.8010 0.2575
vn -0.8396 0.5431 -0.0067
vn -0.3994 -0.5642 0.7225
vn 0.4868 -0.4234 -0.7640
vn 0.9795 0.1993 -0.0282
vn -0.4881 -0.8541 -0.1797
vn -0.4150 -0.4374 0.7978
vn 0.1395 0.3853 0.9122
vn 0.9806 0.1043 -0.1658
vn 0.7012 0.4355 0.5645
vn 0.5006 -0.1557 -0.8516
vn -0.5864 -0.7136 -0.3833
vn -0.8232 -0.1808 0.5382
vn -0.0852 0.2052 0.9750
vn 0.6983 -0.2454 -0.6725
vn -0.3299 -0.9017 -0.2794
vn -0.6488 -0.3283 0.6865
vn 0.9220 0.3728 -0.1043
vn 0.3847 0.4453 0.8085
vn 0.8500 0.0462 -0.5247
vn 0.7209 -0.2526 -0.6454
vn -0.1470 -0.9237 -0.3538
vn -0.7656 -0.5626 0.3120
vn -0.6966 -0.3317 0.6362
vn -0.3565 0.0127 0.9342
vn 0.7500 0.6123 -0.2501
vn 0.7992 0.2346 -0.5535
vn -0.2976 -0.6874 -0.6625
vn -0.8268 -0.5462 0.1344
vn -0.5744 0.2557 0.7776
vn 0.1052 0.7363 0.6684
vn 0.5597 0.0534 -0.8270
vn -0.8880 -0.2089 0.4097
vn 0.6159 0.6713 -0.4124
vn -0.1907 0.9459 0.2627
vn 0.6852 0.3056 -0.6611
vn 0.4504 0.0234 -0.8925
vn -0.4589 -0.3876 -0.7995
vn -0.9252 -0.3784 0.0288
vn -0.9436 0.1208 0.3083
vn 0.7829 0.1018 -0.6137
vn -0.0408 0.9820 0.1847
vn 0.0656 0.0599 -0.9960
vn -0.8890 -0.2599 0.3770
vn -0.8874 0.1128 0.4471
vn -0.6056 0.4833 0.6322
vn 0.4331 0.9007 0.0346
vn 0.7533 -0.2270 -0.6173
vn 0.3613 -0.5355 -0.7634
vn -0.1390 -0.9841 0.1105
vn -0.6587 -0.2101 0.7224
vn -0.7159 0.3101 0.6255
vn -0.5115 0.6399 0.5735
vn 0.9746 -0.0365 -0.2211
vn 0.4132 0.8914 -0.1863
vn 0.6724 -0.4044 -0.6200
vn -0.5283 -0.8472 0.0560
vn -0.8953 -0.0000 0.4454
vn -0.5605 0.8007 0.2116
vn 0.8894 -0.0848 -0.4493
vn 0.2248 0.7685 -0.5991
vn 0.5194 -0.7275 -0.4483
vn -0.6254 -0.7794 0.0368
vn -0.7269 0.5026 0.4680
vn -0.3570 0.8976 0.2585
vn 0.7990 0.1289 -0.5873
vn 0.0200 -0.9453 -0.3257
vn 0.1431 -0.9728 -0.1822
vn -0.8075 -0.5571 -0.1938
vn -0.8545 0.5142 0.0737
vn -0.5590 0.8025 -0.2087
vn 0.7228 -0.1665 -0.6707
vn 0.0644 0.6938 -0.7173
vn -0.8550 -0.5017 -0.1310
vn -0.2545 0.5221 -0.8141
vn 0.7623 -0.5952 -0.2542
vn -0.7150 -0.6293 0.3046
vn 0.6350 -0.5802 -0.5101
vt 0.414437 0.117000
vt 0.852329 0.162455
vt 1.000000 0.162455
vt 0.345491 0.162455
vt 0.095491 0.162455
vt 0.093832 0.162455
vt 0.889401 0.162455
vt 0.904508 0.242732
vt 1.000000 0.234308
vt 0.654508 0.226914
vt 0.345491 0.239891
vt 0.095491 0.207909
vt 0.000000 0.239997
vt 0.345491 0.207909
vt 0.654508 0.207909
vt 0.904508 0.207909
vt 0.095491 0.253364
vt 0.345491 0.253364
vt 0.654508 0.276711
vt 0.904508 0.253364
vt 0.904508 0.334756
vt 1.000000 0.298818
vt 0.654508 0.328564
vt 0.345492 0.310031
vt 0.095491 0.313355
vt 0.000000 0.298818
vt 0.095491 0.298818
vt 0.345491 0.298818
vt 0.904508 0.312477
vt 1.000000 0.386249
vt 0.000000 0.361060
vt 0.095491 0.344273
vt 0.345491 0.344273
vt 0.654508 0.373556
vt 0.904508 0.389727
vt 0.654508 0.389727
vt 0.345491 0.389727
vt 0.095491 0.389727
vt 0.095491 0.419306
vt 0.345491 0.420015
vt 0.904508 0.427273
vt 0.904508 0.435182
vt 1.000000 0.435182
vt 0.654508 0.435182
vt 0.345491 0.435182
vt 0.095491 0.435182
vt 0.000000 0.435182
vt 0.904508 0.480636
vt 1.000000 0.480636
vt 0.654508 0.480636
vt 0.345491 0.480636
vt 0.095491 0.480636
vt 0.000000 0.493099
vt 0.095491 0.509699
vt 0.904508 0.495661
vt 0.904508 0.547372
vt 1.000000 0.526091
vt 0.654508 0.549586
vt 0.345491 0.526091
vt 0.095491 0.526091
vt 0.345491 0.548775
vt 0.654508 0.560299
vt 1.000000 0.571545
vt 0.345491 0.571545
vt 0.095491 0.571545
vt 0.000000 0.571545
vt 0.904508 0.571545
vt 0.904508 0.617000
vt 1.000000 0.617000
vt 0.654508 0.617000
vt 0.345491 0.617000
vt 0.095491 0.637849
vt 0.000000 0.617000
vt 0.095491 0.617000
vt 0.654508 0.632061
vt 0.904509 0.626787
vt 0.904508 0.662454
vt 1.000000 0.662454
vt 0.654508 0.662454
vt 0.345491 0.662454
vt 0.000000 0.687395
vt 0.095491 0.662454
vt 0.904508 0.707909
vt 1.000000 0.707909
vt 0.654508 0.707909
vt 0.345491 0.707909
vt 0.095491 0.707909
vt 0.904508 0.739509
vt 0.904508 0.753364
vt 1.000000 0.753364
vt 0.654508 0.753364
vt 0.345491 0.753364
vt 0.095491 0.765785
vt 0.000000 0.760574
vt 0.095491 0.753364
vt 0.654508 0.775235
vt 0.904508 0.834376
vt 1.000000 0.823766
vt 0.654508 0.798818
vt 0.345491 0.798818
vt 0.095491 0.798818
vt 0.904508 0.798818
vt 0.654508 0.844273
vt 0.345491 0.844273
vt 0.095491 0.844273
vt 0.000000 0.844273
vt 0.095491 0.880501
vt 0.904508 0.844273
vt 0.904508 0.889727
vt 1.000000 0.889727
vt 0.654508 0.901120
vt 0.345491 0.889727
vt 0.095491 0.889727
vt 0.000000 0.889727
vt 0.654508 0.889727
vt 0.904508 0.935182
vt 1.000000 0.935182
vt 0.345491 0.942827
vt 0.095491 0.945812
vt 0.000000 0.935182
vt 0.095491 0.935182
vt 0.345491 0.935182
vt 0.654508 0.947069
vt 0.904508 0.980636
vt 1.000000 0.980636
vt 0.654508 1.009746
vt 0.000000 0.980636
vt 0.095491 0.980636
vt 0.345491 0.980636
vt 0.998978 1.025605
vt 0.904508 1.026091
vt 0.345491 1.058978
vt 0.095491 1.053805
vt 0.000000 1.026091
vt 0.095491 1.026091
vt 0.345491 1.026091
vt 0.703128 1.077934
vt 0.904508 1.062509
vt 0.904508 1.071545
vt 1.000000 1.084111
vt 0.654508 1.071545
vt 0.000000 1.071545
vt 0.095491 1.071545
vt 0.345491 1.071545
vt 0.904508 1.134338
vt 0.654508 1.122875
vt 0.345491 1.137899
vt 0.095491 1.146755
vt 0.000000 1.125946
vt 0.095491 1.117000
vt 0.345491 1.144081
vt 0.654508 1.149147
vt 1.000000 1.162454
vt 0.095491 1.195928
vt 0.904508 1.162454
vt 0.904508 1.236062
vt 1.000000 1.207909
vt 0.654508 1.232518
vt 0.345491 1.229008
vt 0.095491 1.207909
vt 0.000000 1.245361
vt 0.345491 1.207909
vt 0.654508 1.226562
vt 0.904508 1.207909
vt 1.000000 1.253364
vt 0.095491 1.253364
vt 0.345491 1.253364
vt 0.904508 1.253364
vt 0.904508 1.330916
vt 1.000000 1.298818
vt 0.654508 1.331099
vt 0.345491 1.322315
vt 0.095491 1.298818
vt 0.000000 1.298818
vt 0.347537 1.312608
vt 0.904508 1.298818
vt 1.000000 1.344273
vt 0.095491 1.368049
vt 0.000000 1.344273
vt 0.095491 1.344273
vt 0.904508 1.344273
vt 0.904508 1.400135
vt 1.000000 1.389727
vt 0.654508 1.408708
vt 0.345491 1.409254
vt 0.000000 1.389727
vt 0.095491 1.413606
vt 0.430078 1.407600
vt 0.904508 1.404875
vt 1.000000 1.435182
vt 0.095491 1.448210
vt 0.000000 1.435182
vt 0.654508 1.470327
vt 0.904508 1.518384
vt 1.000000 1.506718
vt 0.654508 1.509838
vt 0.345491 1.506270
vt 0.000000 1.480636
vt 0.095491 1.480636
vt 0.345491 1.507168
vt 0.904508 1.480636
vt 0.095491 1.561303
vt 0.000000 1.526091
vt 0.095491 1.526091
vt 0.654508 1.526091
vt 0.904508 1.526091
vt 0.904508 1.571545
vt 1.000000 1.601436
vt 0.654508 1.577986
vt 0.345491 1.571545
vt 0.000000 1.571545
vt 0.113161 1.571545
vt 0.654508 1.571545
vt 0.904508 1.641273
vt 0.110730 1.617000
vt 0.000000 1.617000
vt 0.095222 1.639057
vt 0.654508 1.617000
vt 0.904508 1.617000
vt 0.929523 1.662454
vt 0.654508 1.693591
vt 0.345491 1.662454
vt 0.095491 1.662454
vt 0.000000 1.685466
vt 0.654508 1.683530
vt 0.904508 1.728579
vt 0.998403 1.717264
vt 0.345491 1.728013
vt 0.095491 1.721245
vt 0.654508 1.777230
vt 0.000000 1.776696
vt 0.234737 1.788005
vt 0.904508 1.772309
vt 0.904508 1.817051
vt 1.000000 1.825848
vt 0.345491 1.820228
vt 0.095491 1.822650
vt 0.654508 1.834141
vt 0.529814 1.876407
vt 0.008823 1.862727
vt 0.345491 1.868052
vt 0.904508 1.921819
vt 1.000000 1.922633
vt 0.095491 1.912651
vt 0.702275 1.941465
vt 0.380765 1.935182
vt -0.003363 1.955620
vt 0.345491 1.954484
vt 0.954825 1.980636
vt 0.374466 1.980636
vt 0.069619 2.011705
vt 0.791274 2.024236
vt 0.304489 2.051724
vt 0.202667 2.057511
vt 0.916343 2.071546
vt 0.479327 2.117000
vt 0.455420 0.090000
vt 0.500000 0.140000
vt 0.996690 0.140000
vt 0.146447 0.140000
vt 0.000000 0.141455
vt 0.146447 0.140068
vt 0.853553 0.140699
vt 0.853553 0.229812
vt 1.000000 0.230739
vt 0.500000 0.225713
vt 0.146447 0.229623
vt 0.500000 0.232786
vt 0.000000 0.240000
vt 0.146447 0.281970
vt 0.853553 0.240000
vt 0.853553 0.290000
vt 1.000000 0.290000
vt 0.500000 0.290000
vt 0.003789 0.290000
vt 0.500000 0.333790
vt 0.857040 0.340000
vt 0.417153 0.340000
vt 0.000000 0.340000
vt 0.146447 0.340000
vt 0.853553 0.340000
vt 0.853553 0.390000
vt 1.000000 0.390000
vt 0.500000 0.404513
vt 0.146447 0.390000
vt 0.000000 0.390000
vt 0.146447 0.433047
vt 0.500000 0.390000
vt 0.853553 0.440000
vt 1.000000 0.440000
vt 0.146447 0.451590
vt 0.000000 0.440000
vt 0.500000 0.440000
vt 0.853553 0.474255
vt 0.853553 0.490000
vt 1.000000 0.490000
vt 0.500000 0.490000
vt 0.000000 0.490000
vt 0.146447 0.490000
vt 0.539774 0.584375
vt 1.000000 0.540000
vt 0.500000 0.540000
vt 0.146447 0.540000
vt 0.000000 0.540000
vt 0.853553 0.540000
vt 0.996262 0.590000
vt 0.010756 0.590000
vt 0.146447 0.626849
vt 0.860543 0.590000
vt 0.853553 0.640000
vt 1.000000 0.640000
vt 0.500000 0.640000
vt 0.146447 0.654368
vt 0.000000 0.640000
vt 0.853553 0.690000
vt 1.000000 0.705365
vt 0.500000 0.690000
vt 0.000000 0.690000
vt 0.407630 0.691189
vt 0.853553 0.694456
vt 0.853553 0.757610
vt 0.163767 0.749510
vt 0.000000 0.751743
vt 0.339996 0.778527
vt 0.964439 0.790000
vt 0.013849 0.841460
vt 0.812469 0.840000
vt 0.427423 0.840000
vt 0.424172 0.890000
vt 0.480961 0.180000
vt 0.500000 0.230000
vt 0.980085 0.230000
vt 0.003024 0.230000
vt 0.160720 0.230000
vt 0.853553 0.239992
vt 0.853553 0.326189
vt 1.000000 0.328946
vt 0.457200 0.280000
vt 0.000000 0.280000
vt 0.146447 0.280000
vt 0.832788 0.327063
vt 0.335010 0.330000
vt 0.000000 0.330000
vt 0.376202 0.330000
vt 0.853553 0.380000
vt 1.000000 0.384664
vt 0.500000 0.380000
vt 0.146447 0.402258
vt 0.000000 0.380000
vt 0.146447 0.380000
vt 0.500000 0.393715
vt 0.853553 0.477691
vt 0.500000 0.462210
vt 0.000000 0.472352
vt 0.146447 0.451117
vt 0.853553 0.463982
vt 1.000000 0.480000
vt 0.146447 0.480000
vt 0.500000 0.480000
vt 0.853553 0.530000
vt 1.000000 0.530000
vt 0.500000 0.530000
vt 0.146447 0.530000
vt 0.000000 0.530000
vt 0.508262 0.530000
vt 0.521839 0.580000
vt 1.000000 0.580000
vt 0.145629 0.580000
vt 0.146447 0.580000
vt 0.500000 0.580000
vt 0.853553 0.580000
vt 0.994494 0.630000
vt 0.487671 0.631744
vt 0.146447 0.630000
vt 0.000000 0.630000
vt 0.500000 0.642713
vt 0.853553 0.630000
vt 0.853553 0.680000
vt 1.000000 0.680000
vt 0.500000 0.680000
vt 0.000000 0.680000
vt 0.146447 0.680000
vt 0.853553 0.730000
vt 1.000000 0.781499
vt 0.432533 0.730000
vt 0.000000 0.730000
vt 0.441355 0.730000
vt 0.853553 0.780000
vt 0.181697 0.825015
vt 0.146447 0.780000
vt 0.008531 0.780000
vt 0.500000 0.781668
vt 0.813683 0.839784
vt 0.999782 0.830000
vt 0.049691 0.830000
vt 0.964328 0.903399
vt 0.321071 0.923029
vt 0.130671 0.907019
vt 0.385484 0.980000
s 1
f 1/1/1 3/2/2 2/3/3
f 1/1/1 4/4/4 3/2/2
f 1/1/1 5/5/5 4/4/4
f 1/1/1 6/6/6 5/5/5
f 1/1/1 7/4/7 6/6/6
f 1/1/1 8/7/8 7/4/7
f 1/1/1 2/3/3 8/7/8
f 2/3/3 3/2/2 10/8/9
f 2/3/3 10/8/9 9/9/10
f 3/2/2 11/10/11 10/8/9
f 3/2/2 4/4/4 12/11/12
f 3/2/2 12/11/12 11/10/11
f 4/4/4 5/5/5 13/12/13
f 4/4/4 13/12/13 12/11/12
f 5/5/5 6/6/6 14/13/14
f 5/5/5 14/13/14 13/12/13
f 6/6/6 15/12/15 14/13/14
f 6/6/6 7/4/7 16/14/16
f 6/6/6 16/14/16 15/12/15
f 7/4/7 8/7/8 17/15/17
f 7/4/7 17/15/17 16/14/16
f 8/7/8 18/16/18 17/15/17
f 8/7/8 2/3/3 9/9/10
f 8/7/8 9/9/10 18/16/18
f 12/11/12 13/12/13 19/17/19
f 13/12/13 14/13/14 19/17/19
f 14/13/14 15/12/15 20/17/20
f 15/12/15 16/14/16 21/18/21
f 15/12/15 21/18/21 20/17/20
f 16/14/16 17/15/17 22/19/22
f 16/14/16 22/19/22 21/18/21
f 17/15/17 18/16/18 23/20/23
f 17/15/17 23/20/23 22/19/22
f 18/16/18 9/9/10 23/20/23
f 9/9/10 10/8/9 25/21/24
f 9/9/10 25/21/24 24/22/25
f 10/8/9 11/10/11 26/23/26
f 10/8/9 26/23/26 25/21/24
f 11/10/11 12/11/12 27/24/27
f 11/10/11 27/24/27 26/23/26
f 12/11/12 19/17/19 28/25/28
f 12/11/12 28/25/28 27/24/27
f 19/17/19 14/13/14 29/26/29
f 19/17/19 29/26/29 28/25/28
f 14/13/14 20/17/20 30/27/30
f 14/13/14 30/27/30 29/26/29
f 20/17/20 21/18/21 31/28/31
f 20/17/20 31/28/31 30/27/30
f 21/18/21 22/19/22 31/28/31
f 22/19/22 23/20/23 32/29/32
f 23/20/23 9/9/10 24/22/25
f 23/20/23 24/22/25 32/29/32
f 24/22/25 25/21/24 33/30/33
f 28/25/28 29/26/29 34/31/34
f 29/26/29 30/27/30 35/32/35
f 29/26/29 35/32/35 34/31/34
f 30/27/30 31/28/31 36/33/36
f 30/27/30 36/33/36 35/32/35
f 31/28/31 22/19/22 37/34/37
f 31/28/31 37/34/37 36/33/36
f 22/19/22 32/29/32 37/34/37
f 32/29/32 24/22/25 33/30/33
f 33/30/33 25/21/24 38/35/38
f 25/21/24 26/23/26 39/36/39
f 25/21/24 39/36/39 38/35/38
f 26/23/26 27/24/27 40/37/40
f 26/23/26 40/37/40 39/36/39
f 27/24/27 28/25/28 41/38/41
f 27/24/27 41/38/41 40/37/40
f 28/25/28 34/31/34 41/38/41
f 34/31/34 35/32/35 42/39/42
f 35/32/35 36/33/36 43/40/43
f 35/32/35 43/40/43 42/39/42
f 36/33/36 37/34/37 43/40/43
f 37/34/37 32/29/32 44/41/44
f 32/29/32 33/30/33 44/41/44
f 33/30/33 38/35/38 46/42/45
f 33/30/33 46/42/45 45/43/46
f 38/35/38 39/36/39 47/44/47
f 38/35/38 47/44/47 46/42/45
f 39/36/39 40/37/40 48/45/48
f 39/36/39 48/45/48 47/44/47
f 40/37/40 41/38/41 49/46/49
f 40/37/40 49/46/49 48/45/48
f 41/38/41 34/31/34 50/47/50
f 41/38/41 50/47/50 49/46/49
f 34/31/34 42/39/42 50/47/50
f 43/40/43 37/34/37 51/44/51
f 37/34/37 44/41/44 51/44/51
f 44/41/44 33/30/33 45/43/46
f 45/43/46 46/42/45 53/48/52
f 45/43/46 53/48/52 52/49/53
f 46/42/45 47/44/47 54/50/54
f 46/42/45 54/50/54 53/48/52
f 47/44/47 48/45/48 55/51/55
f 47/44/47 55/51/55 54/50/54
f 48/45/48 49/46/49 56/52/56
f 48/45/48 56/52/56 55/51/55
f 49/46/49 50/47/50 57/53/57
f 49/46/49 57/53/57 56/52/56
f 50/47/50 42/39/42 58/54/58
f 50/47/50 58/54/58 57/53/57
f 42/39/42 43/40/43 59/51/59
f 42/39/42 59/51/59 58/54/58
f 43/40/43 51/44/51 60/50/60
f 43/40/43 60/50/60 59/51/59
f 51/44/51 44/41/44 61/55/61
f 51/44/51 61/55/61 60/50/60
f 44/41/44 45/43/46 52/49/53
f 44/41/44 52/49/53 61/55/61
f 52/49/53 53/48/52 63/56/62
f 52/49/53 63/56/62 62/57/63
f 53/48/52 54/50/54 64/58/64
f 53/48/52 64/58/64 63/56/62
f 54/50/54 55/51/55 65/59/65
f 54/50/54 65/59/65 64/58/64
f 55/51/55 56/52/56 66/60/66
f 55/51/55 66/60/66 65/59/65
f 56/52/56 57/53/57 66/60/66
f 58/54/58 59/51/59 67/61/67
f 59/51/59 60/50/60 68/62/68
f 59/51/59 68/62/68 67/61/67
f 60/50/60 61/55/61 68/62/68
f 61/55/61 52/49/53 62/57/63
f 62/57/63 63/56/62 69/63/69
f 64/58/64 65/59/65 70/64/70
f 65/59/65 66/60/66 71/65/71
f 65/59/65 71/65/71 70/64/70
f 66/60/66 57/53/57 72/66/72
f 66/60/66 72/66/72 71/65/71
f 57/53/57 58/54/58 73/65/73
f 57/53/57 73/65/73 72/66/72
f 58/54/58 67/61/67 73/65/73
f 68/62/68 61/55/61 74/67/74
f 61/55/61 62/57/63 69/63/69
f 61/55/61 69/63/69 74/67/74
f 69/63/69 63/56/62 76/68/75
f 69/63/69 76/68/75 75/69/76
f 63/56/62 64/58/64 77/70/77
f 63/56/62 77/70/77 76/68/75
f 64/58/64 70/64/70 78/71/78
f 64/58/64 78/71/78 77/70/77
f 70/64/70 71/65/71 79/72/79
f 70/64/70 79/72/79 78/71/78
f 71/65/71 72/66/72 80/73/80
f 71/65/71 80/73/80 79/72/79
f 72/66/72 73/65/73 81/74/81
f 72/66/72 81/74/81 80/73/80
f 73/65/73 67/61/67 82/71/82
f 73/65/73 82/71/82 81/74/81
f 67/61/67 68/62/68 83/75/83
f 67/61/67 83/75/83 82/71/82
f 68/62/68 74/67/74 84/76/84
f 68/62/68 84/76/84 83/75/83
f 74/67/74 69/63/69 75/69/76
f 74/67/74 75/69/76 84/76/84
f 75/69/76 76/68/75 86/77/85
f 75/69/76 86/77/85 85/78/86
f 76/68/75 77/70/77 87/79/87
f 76/68/75 87/79/87 86/77/85
f 77/70/77 78/71/78 88/80/88
f 77/70/77 88/80/88 87/79/87
f 78/71/78 79/72/79 88/80/88
f 79/72/79 80/73/80 89/81/89
f 80/73/80 81/74/81 90/82/90
f 80/73/80 90/82/90 89/81/89
f 81/74/81 82/71/82 91/80/91
f 81/74/81 91/80/91 90/82/90
f 82/71/82 83/75/83 91/80/91
f 84/76/84 75/69/76 85/78/86
f 85/78/86 86/77/85 93/83/92
f 85/78/86 93/83/92 92/84/93
f 86/77/85 87/79/87 94/85/94
f 86/77/85 94/85/94 93/83/92
f 87/79/87 88/80/88 95/86/95
f 87/79/87 95/86/95 94/85/94
f 88/80/88 79/72/79 96/87/96
f 88/80/88 96/87/96 95/86/95
f 79/72/79 89/81/89 96/87/96
f 89/81/89 90/82/90 97/87/97
f 90/82/90 91/80/91 98/86/98
f 90/82/90 98/86/98 97/87/97
f 91/80/91 83/75/83 99/85/99
f 91/80/91 99/85/99 98/86/98
f 83/75/83 84/76/84 100/88/100
f 83/75/83 100/88/100 99/85/99
f 84/76/84 85/78/86 92/84/93
f 84/76/84 92/84/93 100/88/100
f 92/84/93 93/83/92 102/89/101
f 92/84/93 102/89/101 101/90/102
f 93/83/92 94/85/94 103/91/103
f 93/83/92 103/91/103 102/89/101
f 94/85/94 95/86/95 104/92/104
f 94/85/94 104/92/104 103/91/103
f 95/86/95 96/87/96 105/93/105
f 95/86/95 105/93/105 104/92/104
f 96/87/96 89/81/89 106/94/106
f 96/87/96 106/94/106 105/93/105
f 89/81/89 97/87/97 107/95/107
f 89/81/89 107/95/107 106/94/106
f 97/87/97 98/86/98 108/92/108
f 97/87/97 108/92/108 107/95/107
f 98/86/98 99/85/99 109/96/109
f 98/86/98 109/96/109 108/92/108
f 99/85/99 100/88/100 109/96/109
f 100/88/100 92/84/93 101/90/102
f 101/90/102 102/89/101 111/97/110
f 101/90/102 111/97/110 110/98/111
f 102/89/101 103/91/103 112/99/112
f 102/89/101 112/99/112 111/97/110
f 103/91/103 104/92/104 113/100/113
f 103/91/103 113/100/113 112/99/112
f 104/92/104 105/93/105 113/100/113
f 106/94/106 107/95/107 114/101/114
f 107/95/107 108/92/108 115/100/115
f 107/95/107 115/100/115 114/101/114
f 108/92/108 109/96/109 115/100/115
f 109/96/109 100/88/100 116/102/116
f 100/88/100 101/90/102 110/98/111
f 100/88/100 110/98/111 116/102/116
f 111/97/110 112/99/112 117/103/117
f 112/99/112 113/100/113 118/104/118
f 112/99/112 118/104/118 117/103/117
f 113/100/113 105/93/105 119/105/119
f 113/100/113 119/105/119 118/104/118
f 105/93/105 106/94/106 120/106/120
f 105/93/105 120/106/120 119/105/119
f 106/94/106 114/101/114 121/107/121
f 106/94/106 121/107/121 120/106/120
f 114/101/114 115/100/115 122/104/122
f 114/101/114 122/104/122 121/107/121
f 115/100/115 109/96/109 123/103/123
f 115/100/115 123/103/123 122/104/122
f 109/96/109 116/102/116 124/108/124
f 109/96/109 124/108/124 123/103/123
f 116/102/116 110/98/111 124/108/124
f 110/98/111 111/97/110 126/109/125
f 110/98/111 126/109/125 125/110/126
f 111/97/110 117/103/117 127/111/127
f 111/97/110 127/111/127 126/109/125
f 117/103/117 118/104/118 128/112/128
f 117/103/117 128/112/128 127/111/127
f 118/104/118 119/105/119 129/113/129
f 118/104/118 129/113/129 128/112/128
f 119/105/119 120/106/120 130/114/130
f 119/105/119 130/114/130 129/113/129
f 120/106/120 121/107/121 130/114/130
f 121/107/121 122/104/122 131/112/131
f 122/104/122 123/103/123 132/115/132
f 122/104/122 132/115/132 131/112/131
f 123/103/123 124/108/124 133/109/133
f 123/103/123 133/109/133 132/115/132
f 124/108/124 110/98/111 125/110/126
f 124/108/124 125/110/126 133/109/133
f 125/110/126 126/109/125 135/116/134
f 125/110/126 135/116/134 134/117/135
f 126/109/125 127/111/127 135/116/134
f 127/111/127 128/112/128 136/118/136
f 128/112/128 129/113/129 137/119/137
f 128/112/128 137/119/137 136/118/136
f 129/113/129 130/114/130 138/120/138
f 129/113/129 138/120/138 137/119/137
f 130/114/130 121/107/121 139/121/139
f 130/114/130 139/121/139 138/120/138
f 121/107/121 131/112/131 140/122/140
f 121/107/121 140/122/140 139/121/139
f 131/112/131 132/115/132 141/123/141
f 131/112/131 141/123/141 140/122/140
f 132/115/132 133/109/133 142/116/142
f 132/115/132 142/116/142 141/123/141
f 133/109/133 125/110/126 134/117/135
f 133/109/133 134/117/135 142/116/142
f 134/117/135 135/116/134 144/124/143
f 134/117/135 144/124/143 143/125/144
f 135/116/134 127/111/127 145/126/145
f 135/116/134 145/126/145 144/124/143
f 127/111/127 136/118/136 145/126/145
f 137/119/137 138/120/138 146/127/146
f 138/120/138 139/121/139 147/128/147
f 138/120/138 147/128/147 146/127/146
f 139/121/139 140/122/140 148/129/148
f 139/121/139 148/129/148 147/128/147
f 140/122/140 141/123/141 148/129/148
f 141/123/141 142/116/142 149/130/149
f 142/116/142 134/117/135 143/125/144
f 142/116/142 143/125/144 149/130/149
f 143/125/144 144/124/143 150/131/150
f 143/125/144 150/131/150 149/130/149
f 144/124/143 145/126/145 150/131/150
f 145/126/145 136/118/136 151/132/151
f 136/118/136 137/119/137 152/133/152
f 136/118/136 152/133/152 151/132/151
f 137/119/137 146/127/146 153/134/153
f 137/119/137 153/134/153 152/133/152
f 146/127/146 147/128/147 154/135/154
f 146/127/146 154/135/154 153/134/153
f 147/128/147 148/129/148 155/136/155
f 147/128/147 155/136/155 154/135/154
f 148/129/148 141/123/141 156/137/156
f 148/129/148 156/137/156 155/136/155
f 141/123/141 149/130/149 157/138/157
f 141/123/141 157/138/157 156/137/156
f 149/130/149 150/131/150 159/139/158
f 149/130/149 159/139/158 158/140/159
f 150/131/150 145/126/145 160/141/160
f 150/131/150 160/141/160 159/139/158
f 145/126/145 151/132/151 160/141/160
f 152/133/152 153/134/153 161/142/161
f 153/134/153 154/135/154 162/143/162
f 153/134/153 162/143/162 161/142/161
f 154/135/154 155/136/155 163/144/163
f 154/135/154 163/144/163 162/143/162
f 155/136/155 156/137/156 163/144/163
f 157/138/157 149/130/149 158/140/159
f 158/140/159 159/139/158 164/145/164
f 159/139/158 160/141/160 165/146/165
f 159/139/158 165/146/165 164/145/164
f 160/141/160 151/132/151 166/147/166
f 160/141/160 166/147/166 165/146/165
f 151/132/151 152/133/152 167/148/167
f 151/132/151 167/148/167 166/147/166
f 152/133/152 161/142/161 168/149/168
f 152/133/152 168/149/168 167/148/167
f 161/142/161 162/143/162 169/150/169
f 161/142/161 169/150/169 168/149/168
f 162/143/162 163/144/163 170/151/170
f 162/143/162 170/151/170 169/150/169
f 163/144/163 156/137/156 171/152/171
f 163/144/163 171/152/171 170/151/170
f 157/138/157 158/140/159 156/137/156
f 158/140/159 164/145/164 172/153/172
f 168/149/168 169/150/169 173/154/173
f 169/150/169 170/151/170 173/154/173
f 171/152/171 156/137/156 174/155/174
f 156/137/156 158/140/159 172/153/172
f 156/137/156 172/153/172 174/155/174
f 172/153/172 164/145/164 176/156/175
f 172/153/172 176/156/175 175/157/176
f 164/145/164 165/146/165 177/158/177
f 164/145/164 177/158/177 176/156/175
f 165/146/165 166/147/166 178/159/178
f 165/146/165 178/159/178 177/158/177
f 166/147/166 167/148/167 179/160/179
f 166/147/166 179/160/179 178/159/178
f 167/148/167 168/149/168 180/161/180
f 167/148/167 180/161/180 179/160/179
f 168/149/168 173/154/173 180/161/180
f 173/154/173 170/151/170 181/162/181
f 170/151/170 171/152/171 182/163/182
f 170/151/170 182/163/182 181/162/181
f 171/152/171 174/155/174 183/164/183
f 171/152/171 183/164/183 182/163/182
f 174/155/174 172/153/172 175/157/176
f 174/155/174 175/157/176 183/164/183
f 175/157/176 176/156/175 184/165/184
f 178/159/178 179/160/179 185/166/185
f 179/160/179 180/161/180 185/166/185
f 180/161/180 173/154/173 186/166/186
f 173/154/173 181/162/181 187/167/187
f 173/154/173 187/167/187 186/166/186
f 181/162/181 182/163/182 187/167/187
f 182/163/182 183/164/183 188/168/188
f 183/164/183 175/157/176 184/165/184
f 183/164/183 184/165/184 188/168/188
f 184/165/184 176/156/175 190/169/189
f 184/165/184 190/169/189 189/170/190
f 176/156/175 177/158/177 191/171/191
f 176/156/175 191/171/191 190/169/189
f 177/158/177 178/159/178 192/172/192
f 177/158/177 192/172/192 191/171/191
f 178/159/178 185/166/185 193/173/193
f 178/159/178 193/173/193 192/172/192
f 185/166/185 180/161/180 194/174/194
f 185/166/185 194/174/194 193/173/193
f 180/161/180 186/166/186 195/173/195
f 180/161/180 195/173/195 194/174/194
f 186/166/186 187/167/187 196/175/196
f 186/166/186 196/175/196 195/173/195
f 187/167/187 182/163/182 196/175/196
f 182/163/182 188/168/188 197/176/197
f 182/163/182 197/176/197 196/175/196
f 188/168/188 184/165/184 189/170/190
f 188/168/188 189/170/190 197/176/197
f 189/170/190 190/169/189 198/177/198
f 192/172/192 193/173/193 199/178/199
f 193/173/193 194/174/194 200/179/200
f 193/173/193 200/179/200 199/178/199
f 194/174/194 195/173/195 201/180/201
f 194/174/194 201/180/201 200/179/200
f 195/173/195 196/175/196 201/180/201
f 196/175/196 197/176/197 202/181/202
f 197/176/197 189/170/190 198/177/198
f 197/176/197 198/177/198 202/181/202
f 198/177/198 190/169/189 204/182/203
f 198/177/198 204/182/203 203/183/204
f 190/169/189 191/171/191 205/184/205
f 190/169/189 205/184/205 204/182/203
f 191/171/191 192/172/192 206/185/206
f 191/171/191 206/185/206 205/184/205
f 192/172/192 199/178/199 206/185/206
f 199/178/199 200/179/200 207/186/207
f 200/179/200 201/180/201 208/187/208
f 200/179/200 208/187/208 207/186/207
f 201/180/201 196/175/196 209/188/209
f 201/180/201 209/188/209 208/187/208
f 196/175/196 202/181/202 210/189/210
f 196/175/196 210/189/210 209/188/209
f 202/181/202 198/177/198 203/183/204
f 202/181/202 203/183/204 210/189/210
f 203/183/204 204/182/203 211/190/211
f 206/185/206 199/178/199 212/191/212
f 199/178/199 207/186/207 213/192/213
f 199/178/199 213/192/213 212/191/212
f 207/186/207 208/187/208 213/192/213
f 209/188/209 210/189/210 214/193/214
f 210/189/210 203/183/204 211/190/211
f 211/190/211 204/182/203 216/194/215
f 211/190/211 216/194/215 215/195/216
f 204/182/203 205/184/205 217/196/217
f 204/182/203 217/196/217 216/194/215
f 205/184/205 206/185/206 218/197/218
f 205/184/205 218/197/218 217/196/217
f 206/185/206 212/191/212 218/197/218
f 212/191/212 213/192/213 219/198/219
f 213/192/213 208/187/208 220/199/220
f 213/192/213 220/199/220 219/198/219
f 208/187/208 209/188/209 221/200/221
f 208/187/208 221/200/221 220/199/220
f 209/188/209 214/193/214 221/200/221
f 214/193/214 210/189/210 222/201/222
f 210/189/210 211/190/211 215/195/216
f 210/189/210 215/195/216 222/201/222
f 218/197/218 212/191/212 223/202/223
f 212/191/212 219/198/219 224/203/224
f 212/191/212 224/203/224 223/202/223
f 219/198/219 220/199/220 225/204/225
f 219/198/219 225/204/225 224/203/224
f 220/199/220 221/200/221 225/204/225
f 221/200/221 214/193/214 226/205/226
f 214/193/214 222/201/222 227/206/227
f 214/193/214 227/206/227 226/205/226
f 222/201/222 215/195/216 227/206/227
f 215/195/216 216/194/215 229/207/228
f 215/195/216 229/207/228 228/208/229
f 216/194/215 217/196/217 230/209/230
f 216/194/215 230/209/230 229/207/228
f 217/196/217 218/197/218 231/210/231
f 217/196/217 231/210/231 230/209/230
f 218/197/218 223/202/223 231/210/231
f 223/202/223 224/203/224 232/211/232
f 224/203/224 225/204/225 233/212/233
f 224/203/224 233/212/233 232/211/232
f 225/204/225 221/200/221 233/212/233
f 221/200/221 226/205/226 234/213/234
f 221/200/221 234/213/234 233/212/233
f 226/205/226 227/206/227 235/207/235
f 226/205/226 235/207/235 234/213/234
f 227/206/227 215/195/216 228/208/229
f 227/206/227 228/208/229 235/207/235
f 228/208/229 229/207/228 236/214/236
f 229/207/228 230/209/230 236/214/236
f 230/209/230 231/210/231 237/215/237
f 231/210/231 223/202/223 237/215/237
f 223/202/223 232/211/232 238/216/238
f 223/202/223 238/216/238 237/215/237
f 232/211/232 233/212/233 239/217/239
f 232/211/232 239/217/239 238/216/238
f 233/212/233 234/213/234 240/218/240
f 233/212/233 240/218/240 239/217/239
f 234/213/234 235/207/235 241/219/241
f 234/213/234 241/219/241 240/218/240
f 235/207/235 228/208/229 241/219/241
f 228/208/229 236/214/236 242/220/242
f 236/214/236 230/209/230 243/221/243
f 230/209/230 237/215/237 244/222/244
f 230/209/230 244/222/244 243/221/243
f 237/215/237 245/223/245 244/222/244
f 237/215/237 238/216/238 246/224/246
f 237/215/237 246/224/246 245/223/245
f 238/216/238 239/217/239 246/224/246
f 239/217/239 240/218/240 247/225/247
f 240/218/240 241/219/241 242/220/242
f 240/218/240 242/220/242 247/225/247
f 241/219/241 228/208/229 242/220/242
f 242/220/242 236/214/236 249/226/248
f 242/220/242 249/226/248 248/227/249
f 236/214/236 243/221/243 249/226/248
f 243/221/243 244/222/244 250/228/250
f 244/222/244 245/223/245 251/229/251
f 244/222/244 251/229/251 250/228/250
f 245/223/245 246/224/246 251/229/251
f 247/225/247 242/220/242 248/227/249
f 249/226/248 243/221/243 252/230/252
f 243/221/243 250/228/250 252/230/252
f 251/229/251 246/224/246 253/231/253
f 246/224/246 239/217/239 254/232/254
f 246/224/246 254/232/254 253/231/253
f 239/217/239 247/225/247 254/232/254
f 247/225/247 248/227/249 255/233/255
f 248/227/249 249/226/248 257/234/256
f 248/227/249 257/234/256 256/235/257
f 249/226/248 252/230/252 257/234/256
f 252/230/252 250/228/250 258/236/258
f 250/228/250 251/229/251 259/237/259
f 250/228/250 259/237/259 258/236/258
f 251/229/251 253/231/253 259/237/259
f 254/232/254 247/225/247 260/238/260
f 247/225/247 255/233/255 260/238/260
f 255/233/255 248/227/249 256/235/257
f 257/234/256 252/230/252 261/239/261
f 252/230/252 258/236/258 261/239/261
f 259/237/259 253/231/253 262/240/262
f 253/231/253 254/232/254 262/240/262
f 254/232/254 263/241/263 262/240/262
f 254/232/254 260/238/260 263/241/263
f 256/235/257 257/234/256 265/242/264
f 256/235/257 265/242/264 264/243/265
f 257/234/256 261/239/261 265/242/264
f 258/236/258 259/237/259 266/244/266
f 258/236/258 266/244/266 261/239/261
f 259/237/259 262/240/262 266/244/266
f 260/238/260 255/233/255 270/245/267
f 255/233/255 256/235/257 264/243/265
f 255/233/255 264/243/265 270/245/267
f 265/242/264 261/239/261 267/246/268
f 261/239/261 266/244/266 267/246/268
f 266/244/266 262/240/262 268/247/269
f 262/240/262 263/241/263 269/248/270
f 262/240/262 269/248/270 268/247/269
f 263/241/263 260/238/260 270/245/267
f 263/241/263 270/245/267 269/248/270
f 264/243/265 265/242/264 271/249/271
f 265/242/264 267/246/268 272/250/272
f 265/242/264 272/250/272 271/249/271
f 267/246/268 266/244/266 273/251/273
f 267/246/268 273/251/273 272/250/272
f 266/244/266 268/247/269 273/251/273
f 270/245/267 264/243/265 271/249/271
f 270/245/267 271/249/271 276/252/274
f 271/249/271 272/250/272 276/252/274
f 272/250/272 274/253/275 276/252/274
f 272/250/272 273/251/273 274/253/275
f 268/247/269 269/248/270 275/254/276
f 268/247/269 275/254/276 273/251/273
f 269/248/270 270/245/267 276/252/274
f 269/248/270 276/252/274 275/254/276
f 276/252/274 274/253/275 277/255/277
f 273/251/273 275/254/276 274/253/275
f 275/254/276 276/252/274 277/255/277
f 277/255/277 274/253/275 278/256/278
f 274/253/275 275/254/276 278/256/278
f 275/254/276 277/255/277 278/256/278
f 279/257/279 281/258/280 280/259/281
f 279/257/279 282/260/282 281/258/280
f 279/257/279 283/261/283 282/260/282
f 279/257/279 284/262/284 283/261/283
f 279/257/279 285/258/285 284/262/284
f 279/257/279 286/263/286 285/258/285
f 279/257/279 280/259/281 286/263/286
f 280/259/281 288/264/287 287/265/288
f 280/259/281 281/258/280 289/266/289
f 280/259/281 289/266/289 288/264/287
f 281/258/280 282/260/282 290/267/290
f 281/258/280 290/267/290 289/266/289
f 282/260/282 283/261/283 290/267/290
f 284/262/284 285/258/285 291/268/291
f 285/258/285 286/263/286 291/268/291
f 286/263/286 280/259/281 287/265/288
f 290/267/290 283/261/283 292/269/292
f 283/261/283 284/262/284 293/270/293
f 283/261/283 293/270/293 292/269/292
f 284/262/284 291/268/291 293/270/293
f 291/268/291 286/263/286 294/271/294
f 286/263/286 287/265/288 294/271/294
f 287/265/288 288/264/287 296/272/295
f 287/265/288 296/272/295 295/273/296
f 288/264/287 289/266/289 297/274/297
f 288/264/287 297/274/297 296/272/295
f 289/266/289 290/267/290 298/275/298
f 289/266/289 298/275/298 297/274/297
f 290/267/290 292/269/292 298/275/298
f 292/269/292 293/270/293 298/275/298
f 293/270/293 291/268/291 299/276/299
f 291/268/291 294/271/294 300/272/300
f 291/268/291 300/272/300 299/276/299
f 294/271/294 287/265/288 295/273/296
f 294/271/294 295/273/296 300/272/300
f 295/273/296 296/272/295 301/277/301
f 296/272/295 297/274/297 302/278/302
f 296/272/295 302/278/302 301/277/301
f 297/274/297 298/275/298 302/278/302
f 298/275/298 303/279/303 302/278/302
f 298/275/298 293/270/293 304/280/304
f 298/275/298 304/280/304 303/279/303
f 293/270/293 299/276/299 304/280/304
f 299/276/299 300/272/300 305/281/305
f 300/272/300 295/273/296 301/277/301
f 300/272/300 301/277/301 305/281/305
f 301/277/301 307/282/306 306/283/307
f 301/277/301 302/278/302 308/284/308
f 301/277/301 308/284/308 307/282/306
f 302/278/302 309/285/309 308/284/308
f 302/278/302 303/279/303 310/286/310
f 302/278/302 310/286/310 309/285/309
f 303/279/303 304/280/304 311/287/311
f 303/279/303 311/287/311 310/286/310
f 304/280/304 299/276/299 312/288/312
f 304/280/304 312/288/312 311/287/311
f 299/276/299 305/281/305 313/282/313
f 299/276/299 313/282/313 312/288/312
f 305/281/305 301/277/301 306/283/307
f 305/281/305 306/283/307 313/282/313
f 306/283/307 307/282/306 315/289/314
f 306/283/307 315/289/314 314/290/315
f 307/282/306 308/284/308 315/289/314
f 308/284/308 309/285/309 316/291/316
f 309/285/309 310/286/310 317/292/317
f 309/285/309 317/292/317 316/291/316
f 310/286/310 311/287/311 317/292/317
f 311/287/311 312/288/312 318/293/318
f 312/288/312 313/282/313 319/294/319
f 312/288/312 319/294/319 318/293/318
f 313/282/313 306/283/307 314/290/315
f 313/282/313 314/290/315 319/294/319
f 314/290/315 315/289/314 321/295/320
f 314/290/315 321/295/320 320/296/321
f 315/289/314 308/284/308 322/297/322
f 315/289/314 322/297/322 321/295/320
f 308/284/308 316/291/316 322/297/322
f 316/291/316 317/292/317 323/298/323
f 317/292/317 311/287/311 324/299/324
f 317/292/317 324/299/324 323/298/323
f 311/287/311 318/293/318 325/297/325
f 311/287/311 325/297/325 324/299/324
f 318/293/318 319/294/319 325/297/325
f 319/294/319 314/290/315 320/296/321
f 320/296/321 321/295/320 327/300/326
f 320/296/321 327/300/326 326/301/327
f 321/295/320 322/297/322 328/302/328
f 321/295/320 328/302/328 327/300/326
f 322/297/322 316/291/316 329/303/329
f 322/297/322 329/303/329 328/302/328
f 316/291/316 323/298/323 330/304/330
f 316/291/316 330/304/330 329/303/329
f 323/298/323 324/299/324 331/303/331
f 323/298/323 331/303/331 330/304/330
f 324/299/324 325/297/325 332/302/332
f 324/299/324 332/302/332 331/303/331
f 325/297/325 319/294/319 333/305/333
f 325/297/325 333/305/333 332/302/332
f 319/294/319 320/296/321 326/301/327
f 319/294/319 326/301/327 333/305/333
f 326/301/327 327/300/326 334/306/334
f 328/302/328 329/303/329 335/307/335
f 328/302/328 335/307/335 327/300/326
f 329/303/329 330/304/330 335/307/335
f 330/304/330 331/303/331 336/308/336
f 330/304/330 336/308/336 335/307/335
f 331/303/331 332/302/332 337/309/337
f 331/303/331 337/309/337 336/308/336
f 332/302/332 333/305/333 337/309/337
f 333/305/333 326/301/327 334/306/334
f 333/305/333 334/306/334 337/309/337
f 334/306/334 339/310/338 338/311/339
f 334/306/334 327/300/326 340/312/340
f 334/306/334 340/312/340 339/310/338
f 327/300/326 335/307/335 341/313/341
f 327/300/326 341/313/341 340/312/340
f 335/307/335 342/314/342 341/313/341
f 335/307/335 336/308/336 342/314/342
f 336/308/336 337/309/337 343/312/343
f 337/309/337 344/310/344 343/312/343
f 337/309/337 334/306/334 338/311/339
f 337/309/337 338/311/339 344/310/344
f 338/311/339 339/310/338 346/315/345
f 338/311/339 346/315/345 345/316/346
f 339/310/338 340/312/340 347/317/347
f 339/310/338 347/317/347 346/315/345
f 340/312/340 341/313/341 347/317/347
f 341/313/341 342/314/342 348/318/348
f 342/314/342 336/308/336 349/319/349
f 342/314/342 349/319/349 348/318/348
f 336/308/336 343/312/343 349/319/349
f 343/312/343 344/310/344 350/320/350
f 343/312/343 350/320/350 349/319/349
f 344/310/344 338/311/339 345/316/346
f 344/310/344 345/316/346 350/320/350
f 345/316/346 346/315/345 351/321/351
f 346/315/345 347/317/347 352/322/352
f 346/315/345 352/322/352 351/321/351
f 347/317/347 341/313/341 352/322/352
f 341/313/341 348/318/348 353/323/353
f 341/313/341 353/323/353 352/322/352
f 348/318/348 349/319/349 353/323/353
f 349/319/349 350/320/350 356/324/354
f 345/316/346 351/321/351 354/325/355
f 351/321/351 352/322/352 355/326/356
f 353/323/353 349/319/349 356/324/354
f 356/324/354 350/320/350 354/325/355
f 350/320/350 345/316/346 354/325/355
f 354/325/355 351/321/351 358/327/357
f 354/325/355 358/327/357 357/328/358
f 351/321/351 355/326/356 358/327/357
f 352/322/352 353/323/353 355/326/356
f 353/323/353 356/324/354 355/326/356
f 356/324/354 357/328/358 355/326/356
f 356/324/354 354/325/355 357/328/358
f 357/328/358 358/327/357 359/329/359
f 358/327/357 355/326/356 359/329/359
f 355/326/356 357/328/358 359/329/359
f 360/330/360 362/331/361 361/332/362
f 360/330/360 363/333/363 362/331/361
f 360/330/360 364/334/364 363/333/363
f 360/330/360 365/335/365 364/334/364
f 360/330/360 361/332/362 365/335/365
f 361/332/362 367/336/366 366/337/367
f 361/332/362 362/331/361 368/338/368
f 361/332/362 368/338/368 367/336/366
f 362/331/361 363/333/363 368/338/368
f 363/333/363 369/339/369 368/338/368
f 363/333/363 364/334/364 370/340/370
f 363/333/363 370/340/370 369/339/369
f 364/334/364 371/341/371 370/340/370
f 364/334/364 365/335/365 371/341/371
f 365/335/365 361/332/362 366/337/367
f 367/336/366 368/338/368 372/342/372
f 368/338/368 369/339/369 373/343/373
f 368/338/368 373/343/373 372/342/372
f 369/339/369 370/340/370 374/344/374
f 369/339/369 374/344/374 373/343/373
f 370/340/370 371/341/371 374/344/374
f 365/335/365 366/337/367 371/341/371
f 366/337/367 367/336/366 376/345/375
f 366/337/367 376/345/375 375/346/376
f 367/336/366 372/342/372 377/347/377
f 367/336/366 377/347/377 376/345/375
f 372/342/372 378/348/378 377/347/377
f 372/342/372 373/343/373 379/349/379
f 372/342/372 379/349/379 378/348/378
f 373/343/373 374/344/374 380/350/380
f 373/343/373 380/350/380 379/349/379
f 374/344/374 381/351/381 380/350/380
f 374/344/374 371/341/371 382/345/382
f 374/344/374 382/345/382 381/351/381
f 371/341/371 366/337/367 375/346/376
f 371/341/371 375/346/376 382/345/382
f 375/346/376 376/345/375 383/352/383
f 376/345/375 377/347/377 384/353/384
f 376/345/375 384/353/384 383/352/383
f 377/347/377 378/348/378 384/353/384
f 378/348/378 379/349/379 385/354/385
f 379/349/379 380/350/380 386/355/386
f 379/349/379 386/355/386 385/354/385
f 380/350/380 381/351/381 386/355/386
f 381/351/381 382/345/382 387/356/387
f 382/345/382 375/346/376 387/356/387
f 375/346/376 383/352/383 388/357/388
f 384/353/384 378/348/378 389/358/389
f 378/348/378 385/354/385 389/358/389
f 386/355/386 381/351/381 390/359/390
f 381/351/381 387/356/387 390/359/390
f 387/356/387 375/346/376 388/357/388
f 388/357/388 383/352/383 392/360/391
f 388/357/388 392/360/391 391/361/392
f 383/352/383 384/353/384 393/362/393
f 383/352/383 393/362/393 392/360/391
f 384/353/384 389/358/389 394/363/394
f 384/353/384 394/363/394 393/362/393
f 389/358/389 385/354/385 395/364/395
f 389/358/389 395/364/395 394/363/394
f 385/354/385 386/355/386 396/363/396
f 385/354/385 396/363/396 395/364/395
f 386/355/386 390/359/390 397/365/397
f 386/355/386 397/365/397 396/363/396
f 390/359/390 387/356/387 397/365/397
f 387/356/387 388/357/388 391/361/392
f 387/356/387 391/361/392 397/365/397
f 391/361/392 392/360/391 399/366/398
f 391/361/392 399/366/398 398/367/399
f 392/360/391 393/362/393 399/366/398
f 393/362/393 394/363/394 400/368/400
f 393/362/393 400/368/400 399/366/398
f 394/363/394 395/364/395 400/368/400
f 395/364/395 396/363/396 401/369/401
f 395/364/395 401/369/401 400/368/400
f 396/363/396 397/365/397 402/370/402
f 396/363/396 402/370/402 401/369/401
f 397/365/397 403/371/403 402/370/402
f 397/365/397 391/361/392 398/367/399
f 397/365/397 398/367/399 403/371/403
f 398/367/399 399/366/398 404/372/404
f 399/366/398 405/373/405 404/372/404
f 399/366/398 400/368/400 406/374/406
f 399/366/398 406/374/406 405/373/405
f 400/368/400 407/375/407 406/374/406
f 400/368/400 401/369/401 408/374/408
f 400/368/400 408/374/408 407/375/407
f 401/369/401 402/370/402 409/376/409
f 401/369/401 409/376/409 408/374/408
f 402/370/402 403/371/403 410/377/410
f 402/370/402 410/377/410 409/376/409
f 403/371/403 398/367/399 404/372/404
f 403/371/403 404/372/404 410/377/410
f 404/372/404 412/378/411 411/379/412
f 404/372/404 405/373/405 413/380/413
f 404/372/404 413/380/413 412/378/411
f 406/374/406 407/375/407 414/381/414
f 406/374/406 414/381/414 405/373/405
f 407/375/407 408/374/408 415/382/415
f 407/375/407 415/382/415 414/381/414
f 408/374/408 409/376/409 415/382/415
f 409/376/409 410/377/410 416/378/416
f 410/377/410 404/372/404 411/379/412
f 410/377/410 411/379/412 416/378/416
f 411/379/412 412/378/411 418/383/417
f 411/379/412 418/383/417 417/384/418
f 412/378/411 413/380/413 419/385/419
f 412/378/411 419/385/419 418/383/417
f 413/380/413 405/373/405 419/385/419
f 405/373/405 414/381/414 420/386/420
f 405/373/405 420/386/420 419/385/419
f 414/381/414 415/382/415 421/387/421
f 414/381/414 421/387/421 420/386/420
f 415/382/415 409/376/409 421/387/421
f 409/376/409 416/378/416 422/383/422
f 409/376/409 422/383/422 421/387/421
f 416/378/416 411/379/412 417/384/418
f 416/378/416 417/384/418 422/383/422
f 417/384/418 418/383/417 423/388/423
f 418/383/417 419/385/419 424/389/424
f 418/383/417 424/389/424 423/388/423
f 419/385/419 425/390/425 424/389/424
f 419/385/419 420/386/420 426/391/426
f 419/385/419 426/391/426 425/390/425
f 420/386/420 421/387/421 426/391/426
f 421/387/421 427/392/427 426/391/426
f 421/387/421 422/383/422 428/388/428
f 421/387/421 428/388/428 427/392/427
f 422/383/422 417/384/418 428/388/428
f 417/384/418 423/388/423 430/393/429
f 417/384/418 430/393/429 429/394/430
f 423/388/423 424/389/424 430/393/429
f 425/390/425 426/391/426 431/395/431
f 425/390/425 431/395/431 424/389/424
f 426/391/426 427/392/427 431/395/431
f 427/392/427 428/388/428 429/394/430
f 428/388/428 417/384/418 429/394/430
f 429/394/430 430/393/429 432/396/432
f 430/393/429 424/389/424 433/397/433
f 424/389/424 431/395/431 433/397/433
f 431/395/431 434/398/434 433/397/433
f 431/395/431 427/392/427 434/398/434
f 427/392/427 429/394/430 432/396/432
f 432/396/432 430/393/429 433/397/433
f 432/396/432 433/397/433 435/399/435
f 433/397/433 434/398/434 435/399/435
f 434/398/434 427/392/427 435/399/435
f 427/392/427 432/396/432 435/399/435
