# Blender 5.1.2
# www.blender.org
o justed_inferno_v32_curl_03
v 3.609597 0.519792 0.663254
v 3.507147 0.716478 0.798382
v 3.425653 0.605110 0.795273
v 3.414967 0.499101 0.820377
v 3.473709 0.469004 0.862245
v 3.514850 0.422907 0.898910
v 3.573127 0.441842 0.926125
v 3.586874 0.526578 0.933002
v 3.576108 0.621639 0.875032
v 3.565922 0.745800 0.855437
v 3.395680 0.794391 0.948991
v 3.244290 0.715272 0.997782
v 3.201733 0.564053 1.043805
v 3.348011 0.501056 1.032634
v 3.322426 0.397962 1.178849
v 3.415640 0.455822 1.203980
v 3.450712 0.719054 1.167283
v 3.324307 0.896501 1.138725
v 3.228870 0.906408 1.127355
v 3.135704 0.553036 1.257138
v 3.367704 0.651503 1.340341
v 3.371779 1.022964 1.339507
v 3.184983 1.009365 1.357734
v 2.938769 0.925140 1.281114
v 2.919870 0.685660 1.298907
v 3.083648 0.378819 1.405422
v 3.180483 0.486017 1.480818
v 3.213167 0.843194 1.603374
v 3.010112 1.097031 1.397211
v 2.916073 0.603833 1.429137
v 2.879364 0.411400 1.551087
v 3.003879 0.524553 1.627506
v 3.248904 1.095510 1.543950
v 2.924389 1.143834 1.693511
v 2.725895 1.064294 1.500715
v 2.769505 0.794352 1.459182
v 2.767453 0.648510 1.526386
v 2.933259 0.796400 1.794284
v 3.028595 0.936795 1.827720
v 3.115373 1.121485 1.690662
v 2.739550 1.245623 1.690633
v 2.661759 0.866250 1.573241
v 2.619856 0.696036 1.609340
v 2.507944 0.590955 1.766086
v 2.640800 0.675495 1.864037
v 2.965086 1.138927 1.816179
v 2.774846 1.235909 1.830294
v 2.587986 1.147623 1.610592
v 2.540982 0.931090 1.668393
v 2.462279 0.729835 1.671319
v 2.689844 0.832118 1.941926
v 2.810961 1.014202 2.049057
v 2.818676 1.172521 1.930757
v 2.670851 1.347836 1.944943
v 2.585943 1.398308 1.813475
v 2.400401 1.281100 1.698589
v 2.403768 0.989286 1.733846
v 2.284622 0.735493 1.700445
v 2.253101 0.616702 1.858378
v 2.433736 0.696179 1.973390
v 2.453676 0.807536 2.073842
v 2.685926 1.231174 2.045511
v 2.498474 1.610725 2.140886
v 2.197609 1.071051 1.773972
v 2.093796 0.717057 1.696012
v 2.165588 0.691969 2.114804
v 2.480302 1.157221 2.456320
v 2.512814 1.338773 2.210668
v 2.391336 1.675405 1.939887
v 2.213004 1.413272 1.758494
v 1.914395 0.699197 1.680879
v 1.982219 0.599062 1.914094
v 2.249698 0.850540 2.302612
v 2.355941 1.748086 2.252506
v 2.272818 1.789591 1.994914
v 2.087399 1.462645 1.816118
v 1.957293 1.136344 1.782069
v 1.769352 0.710690 1.689774
v 1.836500 0.619396 1.952361
v 1.926568 0.724384 2.186870
v 2.094989 0.853767 2.410514
v 2.285915 1.225035 2.561965
v 2.194975 1.510055 2.402519
v 2.204029 1.809609 2.307375
v 2.109338 1.851901 2.047993
v 1.957159 1.480118 1.888937
v 1.820714 1.175828 1.792692
v 1.660577 0.763157 1.741122
v 1.695095 0.690238 2.005521
v 1.939000 0.885044 2.489007
v 2.105750 1.279468 2.581706
v 1.955034 1.840966 2.340999
v 1.821521 1.483939 1.962186
v 1.692124 1.210423 1.816442
v 1.569478 0.843146 1.822464
v 1.569797 0.924057 2.285985
v 1.785009 0.944879 2.537426
v 1.922107 1.332379 2.561462
v 1.978111 1.579535 2.452691
v 1.713586 1.854612 2.115750
v 1.682778 1.493657 2.018376
v 1.565542 1.239429 1.842631
v 1.474063 0.923379 1.904631
v 1.431568 0.887768 2.140029
v 1.568118 1.051901 2.582395
v 1.746935 1.384660 2.534422
v 1.816821 1.634398 2.473029
v 1.704417 1.898816 2.341511
v 1.488028 1.536272 2.052935
v 1.436659 1.260211 1.856303
v 1.364015 0.983218 1.967610
v 1.415373 0.984538 2.344446
v 1.582988 1.439033 2.519996
v 1.567458 1.756426 2.493330
v 1.555442 1.965845 2.329672
v 1.509777 1.872582 2.109257
v 1.306583 1.271855 1.857966
v 1.242310 1.022331 2.012198
v 1.164036 0.984724 2.231483
v 1.266820 1.006441 2.389526
v 1.331505 1.157235 2.628365
v 1.333368 1.537819 2.516935
v 1.408514 2.028783 2.301887
v 1.358312 1.872801 2.099355
v 1.273373 1.589611 2.029728
v 1.179109 1.281341 1.867260
v 1.117247 1.058535 2.051023
v 1.115196 1.024425 2.435601
v 1.181664 1.235681 2.636674
v 1.362226 1.858566 2.489025
v 1.255592 2.053571 2.259947
v 1.202519 1.845582 2.095249
v 1.140675 1.616751 2.008703
v 1.055247 1.302418 1.902862
v 1.006788 1.101167 2.095842
v 0.967684 1.067012 2.470082
v 1.036752 1.327635 2.606165
v 1.121931 1.613188 2.494743
v 1.206267 1.904666 2.452573
v 1.095397 2.029433 2.214006
v 1.043992 1.801973 2.099818
v 1.007111 1.631803 1.997739
v 0.931836 1.343729 1.960522
v 0.757004 1.281090 2.154912
v 0.828839 1.146607 2.478686
v 0.898551 1.422341 2.539005
v 0.911465 1.679634 2.438113
v 1.046388 1.912835 2.394708
v 0.826017 1.956530 2.146017
v 0.888819 1.767231 2.102987
v 0.817498 1.645841 1.993382
v 0.805314 1.398067 2.014158
v 0.696129 1.245500 2.460545
v 0.764653 1.504604 2.458750
v 0.791139 1.896828 2.295739
v 0.744077 1.760275 2.088603
v 0.609295 1.465674 2.036734
v 0.629605 1.344119 2.165866
v 0.504113 1.358241 2.424236
v 0.633547 1.742927 2.353632
v 0.573657 1.994441 2.034446
v 0.573667 1.799991 2.023580
v 0.597468 1.670995 1.913924
v 0.487640 1.380941 2.146921
v 0.450889 1.365708 2.263833
v 0.452209 1.615023 2.341111
v 0.607479 1.953071 2.218483
v 0.344786 1.475537 1.952869
v 0.283840 1.379164 2.109927
v 0.288671 1.347109 2.258652
v 0.247275 1.405123 2.415048
v 0.272604 1.933125 2.264561
v 0.486610 2.035929 2.159567
v 0.422881 2.051170 1.935387
v 0.411969 1.885663 1.872157
v 0.416527 1.695004 1.759323
v 0.116778 1.312114 2.254020
v 0.084555 1.435166 2.395217
v 0.092663 1.749237 2.256349
v 0.373698 2.126323 2.090513
v 0.305505 2.060878 1.870994
v 0.327649 1.933067 1.771822
v 0.315811 1.703734 1.694690
v 0.169956 1.488399 1.871052
v -0.051129 1.293673 2.232691
v -0.060013 1.485525 2.333942
v 0.125038 2.003848 2.198834
v 0.261205 2.189147 2.013674
v 0.180013 2.046758 1.816545
v 0.241368 1.964962 1.685416
v 0.204293 1.717973 1.657146
v -0.200223 1.311546 2.178686
v -0.168476 1.558716 2.237968
v -0.035000 2.043864 2.092174
v 0.134818 2.207117 1.928422
v 0.053482 2.028340 1.762341
v 0.147898 1.983755 1.615934
v 0.085125 1.739690 1.629786
v -0.140437 1.575747 1.733801
v -0.324915 1.359884 2.090713
v -0.276400 1.617687 2.101105
v -0.223005 1.815837 2.086439
v -0.115071 2.027558 1.661652
v 0.017680 2.005233 1.529255
v -0.086545 1.780325 1.564359
v -0.481507 1.443020 1.921564
v -0.388378 1.693628 1.940445
v -0.390996 1.846070 1.947176
v -0.290085 2.057345 1.876030
v -0.190865 2.158856 1.708984
v -0.252156 1.637158 1.618537
v -0.373947 1.535052 1.719544
v -0.246993 2.073172 1.528291
v -0.254753 1.833811 1.421855
v -0.372971 1.674216 1.488568
v -0.466427 1.538240 1.612057
v -0.612698 1.500246 1.729870
v -0.629264 1.741078 1.627367
v -0.639441 1.891798 1.687782
v -0.533702 2.091307 1.634096
v -0.316738 2.149163 1.602774
v -0.321347 2.111846 1.434300
v -0.249557 2.071248 1.308127
v -0.543478 1.542567 1.494541
v -0.674146 1.547195 1.588123
v -0.416468 2.135343 1.505872
v -0.397475 2.137840 1.340875
v -0.414996 1.849991 1.282530
v -0.599723 1.569301 1.370368
v -0.707054 1.613773 1.438861
v -0.711139 1.761584 1.463771
v -0.736532 1.898708 1.499299
v -0.665362 2.080004 1.428591
v -0.520368 2.102266 1.387616
v -0.479732 2.139020 1.245655
v -0.413718 2.059458 1.205192
v -0.491615 1.881026 1.194373
v -0.643639 1.645239 1.213822
v -0.718918 1.694163 1.291177
v -0.783707 1.901920 1.278878
v -0.607398 2.101915 1.068450
v -0.573270 2.028168 1.054387
v -0.553521 1.908357 1.106848
v -0.761740 1.799603 1.176091
v -0.750459 2.014936 1.086774
v -0.671793 2.032101 1.103813
v -0.608766 1.918427 1.003715
v -0.684823 1.798295 0.952761
v -0.730729 1.849870 0.960766
v -0.774915 1.852447 0.993229
v -0.787866 1.938398 0.812865
v -0.676109 2.087732 0.842490
v -0.634673 2.007173 0.893827
v -0.650830 1.909209 0.847695
v -0.750887 2.013175 0.784361
v -0.649191 2.019220 0.774056
v -0.676690 1.865719 0.718571
v -0.706300 1.895432 0.671505
v -0.749567 1.892085 0.665284
v -0.668947 2.095159 0.594349
v -0.634769 2.039353 0.587008
v -0.619304 1.940556 0.613636
v -0.757176 1.950844 0.623996
v -0.718320 2.045055 0.631081
v -0.595089 1.943558 0.418878
v -0.653545 1.932390 0.433614
v -0.678879 1.970734 0.436651
v -0.676774 2.060035 0.505680
v -0.593381 2.075725 0.411103
v -0.523814 1.993811 0.355811
v -0.585322 2.058497 0.338891
v -0.514983 2.059368 0.294949
v -0.508934 1.980208 0.274215
v -0.533087 2.006115 0.273234
v -0.393316 2.032011 0.195822
v -0.403254 2.014041 0.182753
v -0.399601 2.049498 0.169804
v -0.206685 2.050053 0.075045
v 2.108050 1.166149 2.092867
v 2.080307 1.335275 2.062192
v 1.981827 1.256485 2.065620
v 1.942551 1.195523 2.181087
v 1.995730 1.217236 2.206306
v 2.089288 1.363821 2.133675
v 1.914663 1.548042 2.159495
v 1.896823 1.531056 2.114364
v 1.898784 1.356544 2.089987
v 1.832939 1.273349 2.199182
v 1.887118 1.315364 2.223967
v 1.919898 1.524835 2.218759
v 1.798173 1.445800 2.121809
v 1.737848 1.370726 2.192261
v 1.830588 1.441826 2.246709
v 1.874202 1.695550 2.238919
v 1.859749 1.689557 2.139124
v 1.745263 1.580880 2.104183
v 1.617259 1.514208 2.106793
v 1.589450 1.404741 2.177770
v 1.659138 1.457940 2.254620
v 1.724406 1.554667 2.323014
v 1.857120 1.650349 2.295856
v 1.690069 1.875497 2.192183
v 1.582895 1.697841 2.129288
v 1.438832 1.543849 2.179844
v 1.524281 1.559234 2.262225
v 1.693560 1.793912 2.337281
v 1.713877 1.895937 2.290597
v 1.459201 1.609690 2.103908
v 1.561430 1.687111 2.371122
v 1.608096 1.973976 2.278590
v 1.554486 1.910070 2.197544
v 1.477699 1.803035 2.159634
v 1.381214 1.663658 2.140125
v 1.385404 1.654508 2.228497
v 1.395996 1.656720 2.305999
v 1.479177 1.769665 2.364348
v 1.360215 2.026628 2.223804
v 1.369420 1.854065 2.190412
v 1.342972 1.754173 2.211492
v 1.340594 1.748515 2.321273
v 1.393623 1.844647 2.319171
v 1.430061 1.913965 2.295498
v 1.321801 1.949793 2.202587
v 1.273304 1.874083 2.170603
v 1.257470 1.794060 2.242708
v 1.247830 1.765137 2.301264
v 1.259526 1.785766 2.366251
v 1.277903 1.904273 2.323023
v 1.351142 2.009359 2.292114
v 1.236803 2.018381 2.214401
v 1.225228 1.979904 2.179549
v 1.196494 1.881448 2.187406
v 1.168202 1.779954 2.341422
v 1.190601 1.855914 2.360588
v 1.248705 2.057407 2.267600
v 1.032453 2.025535 2.192268
v 1.132064 2.001721 2.146036
v 1.122849 1.883253 2.217233
v 1.093031 1.795294 2.368972
v 1.104830 1.972009 2.333944
v 1.140271 2.070460 2.248569
v 1.038494 2.001344 2.149345
v 0.963119 1.880522 2.264503
v 1.025628 1.845783 2.279917
v 1.019120 1.840369 2.341335
v 1.025942 1.993314 2.320569
v 1.033488 2.040121 2.245833
v 0.940917 2.003911 2.216172
v 0.923190 1.964589 2.213220
v 0.939276 1.904024 2.294418
v 0.791372 1.948565 2.226596
v 0.760499 1.895799 2.221417
v 0.799692 1.901093 2.254039
v 0.677665 1.875243 2.213044
v 0.440018 1.663242 2.148120
v 0.409602 1.798626 2.119113
v 0.355783 1.791422 2.053387
v 0.289893 1.785433 2.027000
v 0.233754 1.701905 2.032911
v 0.302523 1.714887 2.120342
v 0.385382 1.803563 2.181995
v 0.255813 2.014232 2.132013
v 0.367161 1.936310 2.099844
v 0.193144 1.856644 2.130988
v 0.296347 1.905659 2.188064
v 0.288330 2.034323 2.078787
v 0.188738 1.866225 1.936950
v 0.128305 1.815026 1.952045
v 0.201759 1.981707 2.145742
v 0.207212 2.170911 2.158807
v 0.235107 2.152144 2.046854
v 0.180066 2.034943 1.937128
v 0.109691 1.902459 1.828281
v 0.038331 1.858904 1.882279
v 0.009820 1.880260 1.974029
v 0.028271 1.971762 2.105346
v 0.141041 2.280465 2.094574
v 0.151650 2.216465 1.980958
v 0.109852 2.100643 1.877570
v 0.026207 1.954870 1.799459
v -0.041406 1.921104 1.862206
v -0.083089 1.931420 1.947508
v -0.039673 2.056891 2.062634
v 0.039136 2.174899 2.085951
v 0.053669 2.307550 1.981852
v -0.012437 2.259441 1.840242
v 0.016904 2.144695 1.841507
v -0.056485 2.031567 1.816364
v -0.106298 2.011225 1.867207
v -0.135768 2.028789 1.932894
v -0.086886 2.141499 1.994590
v -0.007527 2.364356 1.888131
v -0.059175 2.177845 1.785627
v -0.139488 2.072906 1.797954
v -0.186277 2.062613 1.852306
v -0.213824 2.090477 1.915779
v -0.149415 2.212818 1.941319
v -0.076902 2.311000 1.933376
v -0.090262 2.351030 1.807446
v -0.141038 2.208088 1.750700
v -0.203284 2.148430 1.787417
v -0.243023 2.135741 1.827922
v -0.259461 2.170622 1.871641
v -0.213908 2.294609 1.839461
v -0.145419 2.342178 1.846204
v -0.162448 2.389233 1.721167
v -0.159498 2.327170 1.690821
v -0.235599 2.229438 1.646379
v -0.346736 2.125473 1.793742
v -0.337901 2.204640 1.836067
v -0.199611 2.419783 1.775873
v -0.238636 2.397349 1.655489
v -0.196088 2.361898 1.604994
v -0.416053 2.111493 1.770381
v -0.388368 2.234839 1.769820
v -0.350387 2.339987 1.754920
v -0.270061 2.457248 1.700219
v -0.351138 2.404401 1.626494
v -0.357726 2.358723 1.519574
v -0.343406 2.256656 1.604193
v -0.371857 2.194928 1.639708
v -0.434166 2.185579 1.649162
v -0.415323 2.339211 1.682589
v -0.400096 2.392979 1.532913
v -0.406349 2.188573 1.574593
v -0.447517 2.199211 1.614956
v -0.474422 2.320415 1.609886
v -0.502109 2.320514 1.451406
v -0.459048 2.286943 1.475159
v -0.451516 2.223571 1.503917
v -0.494048 2.241150 1.526139
v -0.514994 2.278161 1.480729
v -0.510974 2.219421 1.427051
v -0.577871 2.229684 1.341790
v -0.599684 2.172336 1.283466
vn 0.3907 -0.9074 -0.1547
vn -0.5550 0.0870 -0.8273
vn -0.1604 0.6675 -0.7271
vn -0.5479 -0.6310 -0.5493
vn -0.4456 -0.8464 -0.2917
vn 0.0744 -0.9562 -0.2830
vn 0.8074 -0.5882 -0.0458
vn 0.9547 0.0267 0.2963
vn 0.9525 0.2064 0.2238
vn 0.6521 0.7380 -0.1735
vn -0.6406 0.1924 -0.7434
vn -0.2734 0.7793 -0.5638
vn -0.6820 -0.4814 -0.5505
vn -0.6236 -0.6870 -0.3730
vn -0.1711 -0.9823 -0.0769
vn 0.7037 -0.5032 0.5016
vn 0.9084 0.0677 0.4126
vn -0.1553 0.6931 -0.7039
vn 0.0432 0.8902 -0.4536
vn -0.6057 -0.5896 -0.5343
vn 0.8252 -0.1175 0.5524
vn 0.7911 0.6010 0.1136
vn 0.0989 0.9224 -0.3733
vn -0.5903 0.2914 -0.7527
vn -0.6679 -0.3082 -0.6774
vn -0.2399 -0.9577 -0.1589
vn 0.5648 -0.5390 0.6248
vn 0.7620 -0.1169 0.6370
vn -0.0116 0.8596 -0.5108
vn -0.5920 -0.5152 -0.6198
vn -0.3531 -0.9261 -0.1330
vn 0.3975 -0.5460 0.7375
vn 0.7477 0.5955 0.2938
vn 0.3142 0.9457 -0.0833
vn -0.5477 0.3377 -0.7655
vn -0.7148 -0.0820 -0.6945
vn -0.6180 -0.3888 -0.6833
vn 0.4228 -0.4869 0.7643
vn 0.6484 -0.1199 0.7518
vn 0.6383 0.5702 0.5171
vn 0.2066 0.8278 -0.5216
vn -0.6375 0.0086 -0.7704
vn -0.5388 -0.3384 -0.7715
vn -0.2467 -0.9652 -0.0867
vn 0.2637 -0.6578 0.7055
vn 0.5787 0.5891 0.5640
vn 0.5999 0.7999 -0.0172
vn -0.3354 0.2799 -0.8995
vn -0.4711 0.0489 -0.8807
vn -0.3555 -0.3062 -0.8831
vn 0.3996 -0.5952 0.6971
vn 0.6698 -0.1833 0.7195
vn 0.7039 0.5011 0.5034
vn 0.3753 0.7059 -0.6007
vn 0.7776 0.6276 0.0379
vn -0.1528 0.2597 -0.9535
vn -0.2638 0.0776 -0.9614
vn -0.1059 -0.3260 -0.9394
vn 0.0451 -0.9940 -0.0994
vn 0.2490 -0.7821 0.5712
vn 0.4003 -0.6802 0.6141
vn 0.7612 0.4039 0.5073
vn 0.8134 0.5339 0.2309
vn -0.1097 0.1117 -0.9877
vn 0.0039 -0.3184 -0.9480
vn 0.2051 -0.8644 0.4590
vn 0.6364 -0.1531 0.7560
vn 0.7185 0.3667 0.5910
vn 0.4239 0.6225 -0.6579
vn -0.0942 0.2999 -0.9493
vn -0.0461 -0.3024 -0.9521
vn -0.0057 -0.9999 -0.0131
vn 0.4089 -0.6566 0.6337
vn 0.1653 0.7689 -0.6176
vn 0.6307 0.6032 0.4882
vn -0.1967 0.4341 -0.8791
vn -0.1148 0.1714 -0.9785
vn -0.2132 -0.2705 -0.9388
vn -0.2325 -0.9670 0.1043
vn -0.1026 -0.8819 0.4602
vn 0.2147 -0.6379 0.7396
vn 0.3746 -0.0794 0.9238
vn 0.4041 0.4020 0.8216
vn -0.0459 0.7968 -0.6026
vn 0.3331 0.7076 0.6232
vn -0.2895 0.4852 -0.8251
vn -0.2127 0.2301 -0.9496
vn -0.5382 -0.1861 -0.8220
vn -0.4780 -0.8592 0.1824
vn 0.0590 -0.5402 0.8394
vn 0.1326 0.0130 0.9911
vn 0.1877 0.7881 0.5862
vn -0.2834 0.5052 -0.8152
vn -0.2719 0.2608 -0.9263
vn -0.6330 -0.2125 -0.7444
vn -0.2938 -0.8586 0.4201
vn -0.1273 -0.4647 0.8763
vn 0.0025 0.0706 0.9975
vn 0.2285 0.4144 0.8810
vn 0.0069 0.6646 -0.7472
vn -0.1525 0.4464 -0.8817
vn -0.2264 0.2349 -0.9453
vn -0.6052 -0.3048 -0.7354
vn -0.4197 -0.9030 0.0921
vn -0.0293 -0.3723 0.9276
vn 0.0198 0.1085 0.9939
vn 0.1581 0.3663 0.9170
vn 0.2836 0.8845 0.3704
vn 0.0242 0.3599 -0.9327
vn -0.1164 0.1552 -0.9810
vn -0.4424 -0.5185 -0.7317
vn -0.1433 -0.8795 0.4538
vn 0.0299 0.1092 0.9936
vn 0.1389 0.3534 0.9251
vn 0.1544 0.5657 -0.8100
vn 0.3210 0.9244 0.2059
vn -0.0837 0.0904 -0.9924
vn -0.3486 -0.6418 -0.6830
vn -0.3331 -0.9419 -0.0441
vn -0.1120 -0.8665 0.4865
vn 0.0347 -0.2599 0.9650
vn 0.0487 0.2095 0.9766
vn 0.1023 0.5615 -0.8211
vn 0.2412 0.9701 0.0261
vn 0.1058 0.2982 -0.9486
vn -0.1237 0.0166 -0.9922
vn -0.3947 -0.6805 -0.6173
vn -0.1132 -0.7919 0.6001
vn -0.0902 -0.1585 0.9832
vn 0.0025 0.4143 0.9101
vn -0.0141 0.5635 -0.8260
vn 0.0113 0.9893 -0.1455
vn 0.0402 0.2740 -0.9609
vn -0.2956 -0.0281 -0.9549
vn -0.5319 -0.7443 -0.4038
vn -0.3913 -0.6721 0.6286
vn -0.2429 -0.0329 0.9695
vn -0.0973 0.3001 0.9489
vn -0.1572 0.4854 0.8600
vn -0.0615 0.5408 -0.8389
vn -0.1380 0.9461 -0.2930
vn -0.0451 0.2536 -0.9663
vn -0.3636 -0.1294 -0.9225
vn -0.5503 -0.7082 -0.4423
vn -0.4873 -0.5375 0.6882
vn -0.3500 0.0713 0.9340
vn -0.2319 0.3560 0.9052
vn -0.2771 0.5745 0.7702
vn 0.0041 0.4993 -0.8664
vn 0.0480 0.8791 -0.4741
vn 0.0327 0.1987 -0.9795
vn -0.2780 -0.2780 -0.9195
vn -0.4088 -0.5131 0.7547
vn -0.3567 0.1422 0.9233
vn -0.1642 0.7049 0.6900
vn 0.2860 0.4073 -0.8673
vn 0.0444 -0.5788 -0.8143
vn -0.3470 -0.8304 -0.4359
vn -0.2273 -0.3053 0.9247
vn -0.1441 0.3775 0.9147
vn 0.5371 0.3178 -0.7813
vn 0.6211 0.5991 -0.5053
vn 0.4464 -0.0945 -0.8898
vn -0.0174 -0.9071 -0.4205
vn -0.0343 -0.9988 0.0353
vn -0.1273 0.2607 0.9570
vn 0.1007 0.7865 0.6093
vn 0.2510 -0.7544 -0.6065
vn 0.1202 -0.9220 -0.3681
vn 0.0545 -0.9797 0.1929
vn -0.0877 -0.1545 0.9841
vn -0.0931 0.4583 0.8839
vn 0.3197 0.7984 0.5103
vn 0.7009 0.2552 -0.6660
vn 0.5901 0.6583 -0.4674
vn 0.5375 -0.2687 -0.7993
vn 0.0125 -0.9458 0.3245
vn -0.1967 -0.0709 0.9779
vn -0.2690 0.3259 0.9063
vn 0.2460 0.8974 0.3663
vn 0.6620 0.2637 -0.7016
vn 0.4031 0.7503 -0.5239
vn 0.4368 -0.3198 -0.8408
vn 0.1147 -0.8058 -0.5810
vn -0.2259 -0.9227 0.3123
vn -0.4465 0.0207 0.8945
vn -0.2634 0.5363 0.8019
vn 0.1563 0.9554 0.2507
vn 0.5333 0.3197 -0.7832
vn 0.2580 0.7863 -0.5614
vn 0.2925 -0.3453 -0.8917
vn -0.5158 -0.8080 0.2849
vn -0.5974 0.1572 0.7864
vn -0.3962 0.6199 0.6773
vn -0.0081 0.9974 0.0714
vn 0.4537 0.3575 -0.8163
vn 0.2713 0.8017 -0.5326
vn 0.2597 -0.3854 -0.8854
vn 0.1360 -0.7709 -0.6223
vn -0.6559 -0.7229 0.2173
vn -0.7167 0.1014 0.6899
vn -0.5558 0.3718 0.7435
vn 0.5492 0.3457 -0.7608
vn 0.3765 0.8492 -0.3704
vn 0.4059 -0.4944 -0.7686
vn -0.6839 -0.6526 0.3263
vn -0.7610 0.0818 0.6435
vn -0.6549 0.3060 0.6910
vn -0.4453 0.6973 0.5616
vn 0.0983 0.9942 0.0444
vn 0.3415 -0.7337 -0.5874
vn 0.1983 -0.9161 -0.3484
vn 0.4294 0.8846 -0.1818
vn 0.4923 -0.4886 -0.7204
vn 0.4812 -0.6732 -0.5614
vn 0.2456 -0.9124 -0.3275
vn -0.7258 -0.6246 0.2883
vn -0.8708 -0.0142 0.4914
vn -0.8067 0.2173 0.5495
vn -0.5038 0.7475 0.4329
vn 0.0103 0.9961 0.0877
vn 0.6319 0.2743 -0.7249
vn 0.3817 0.9193 -0.0959
vn 0.2104 -0.9150 -0.3441
vn -0.7861 -0.6045 0.1291
vn -0.1833 0.9830 0.0123
vn 0.1456 0.9744 -0.1710
vn 0.5924 -0.4790 -0.6478
vn 0.1961 -0.8790 -0.4347
vn -0.8004 -0.5951 -0.0725
vn -0.9413 -0.0989 0.3227
vn -0.9254 0.1676 0.3399
vn -0.6394 0.7356 0.2238
vn -0.2632 0.9646 0.0184
vn 0.6183 0.2619 -0.7410
vn 0.0489 0.9762 -0.2112
vn 0.6367 -0.3854 -0.6679
vn 0.1764 -0.7413 -0.6476
vn -0.7793 -0.5921 -0.2053
vn -0.9835 0.1291 0.1266
vn 0.8291 0.1645 -0.5343
vn -0.0897 0.9872 -0.1322
vn 0.7636 -0.3060 -0.5686
vn -0.9090 -0.3987 -0.1215
vn -0.7635 0.6442 0.0453
vn -0.4661 0.8839 0.0386
vn 0.8875 -0.2395 -0.3936
vn 0.3426 -0.7955 -0.4998
vn -0.5446 -0.8126 -0.2076
vn -0.7668 -0.6418 -0.0032
vn -0.9953 0.0543 -0.0802
vn 0.9586 0.1371 -0.2497
vn -0.0325 0.9965 0.0768
vn 0.9602 -0.2660 -0.0852
vn -0.8116 0.5813 -0.0589
vn 0.9793 0.1946 0.0559
vn 0.4684 -0.8720 -0.1423
vn -0.2656 -0.9419 -0.2054
vn -0.6427 -0.7188 -0.2651
vn 0.9046 0.3653 0.2195
vn -0.0462 0.9989 0.0091
vn 0.9700 -0.1887 0.1533
vn -0.9615 0.0185 -0.2744
vn -0.8249 0.5419 -0.1608
vn 0.4953 -0.8650 -0.0800
vn -0.4285 -0.7668 -0.4779
vn -0.8555 -0.0905 -0.5099
vn -0.7287 0.5967 -0.3360
vn 0.2415 0.9704 -0.0089
vn 0.8914 -0.0352 0.4518
vn -0.5032 0.6136 -0.6085
vn 0.3368 0.9323 0.1321
vn -0.0082 -0.9183 -0.3958
vn -0.5927 -0.1570 -0.7900
vn 0.7725 -0.0923 0.6283
vn -0.3911 0.6506 -0.6510
vn 0.0367 -0.8750 -0.4827
vn 0.7667 0.0639 0.6388
vn 0.3300 -0.5483 0.7684
vn -0.3441 -0.4070 -0.8462
vn 0.5286 0.2679 -0.8055
vn -0.4413 -0.8466 0.2976
vn 0.4050 -0.4105 0.8170
vn 0.7886 0.4451 0.4243
vn 0.4350 0.1437 -0.8889
vn 0.8370 0.4969 -0.2292
vn -0.4030 -0.1588 -0.9013
vn -0.6333 -0.7342 0.2447
vn -0.0295 -0.1996 0.9794
vn 0.7161 0.2609 0.6474
vn -0.2279 -0.2281 -0.9466
vn -0.4431 -0.8894 0.1122
vn 0.1728 -0.3159 0.9329
vn 0.4143 0.4016 -0.8167
vn 0.8531 0.4990 0.1527
vn 0.0355 0.0754 -0.9965
vn -0.1575 -0.2264 -0.9612
vn -0.4141 -0.9078 -0.0664
vn -0.1877 -0.5592 0.8075
vn 0.1141 -0.3189 0.9409
vn 0.5389 0.0468 0.8411
vn 0.2259 0.5983 -0.7687
vn 0.0027 0.2406 -0.9706
vn -0.7491 -0.6413 -0.1663
vn -0.3490 -0.5584 0.7526
vn 0.2712 0.1799 0.9456
vn 0.5966 0.7475 0.2921
vn -0.3659 0.0364 -0.9299
vn -0.1404 -0.1992 0.9698
vn 0.0466 0.6611 -0.7488
vn 0.2596 0.9615 0.0907
vn -0.1345 0.2839 -0.9494
vn -0.4404 -0.0254 -0.8974
vn -0.8740 -0.4798 -0.0771
vn -0.4567 -0.4149 0.7869
vn -0.1905 -0.0378 0.9810
vn -0.1036 0.0817 -0.9913
vn 0.3266 0.9070 -0.2656
vn -0.7722 -0.0677 -0.6318
vn -0.1664 -0.2855 0.9438
vn -0.0724 0.0933 0.9930
vn 0.0800 0.4608 0.8839
vn 0.1711 0.1550 -0.9730
vn -0.1413 -0.1833 -0.9729
vn -0.4381 -0.5355 -0.7220
vn -0.0959 -0.9841 0.1495
vn 0.1954 -0.2100 0.9580
vn 0.1660 0.2967 0.9404
vn 0.2688 0.6222 0.7353
vn 0.1314 0.0033 -0.9913
vn 0.1659 0.8762 -0.4525
vn -0.1756 -0.4297 -0.8857
vn -0.2970 -0.8399 0.4542
vn -0.0799 -0.0035 0.9968
vn -0.0175 0.8001 0.5996
vn 0.0549 -0.0924 -0.9942
vn -0.2293 0.8379 -0.4952
vn -0.2259 -0.6020 -0.7659
vn -0.3465 -0.7749 0.5286
vn 0.0763 0.4678 0.8805
vn 0.1636 0.8808 0.4444
vn -0.0235 0.1852 -0.9824
vn -0.3477 -0.9205 -0.1785
vn -0.2183 -0.9407 -0.2597
vn -0.6002 -0.5219 0.6061
vn -0.2660 0.5550 0.7882
vn -0.2929 0.8724 0.3912
vn -0.2000 -0.1076 -0.9739
vn -0.4041 0.8165 -0.4124
vn -0.5812 -0.4494 0.6784
vn -0.6970 0.7005 -0.1535
vn 0.0499 -0.5870 -0.8080
vn -0.1703 -0.6299 0.7578
vn -0.2427 -0.5145 -0.8224
vn 0.1547 -0.4735 0.8671
vn 0.5883 -0.0660 -0.8059
vn 0.8645 0.4787 -0.1530
vn 0.3225 -0.3885 -0.8632
vn -0.2689 -0.9402 -0.2092
vn -0.4583 -0.5418 0.7046
vn 0.2973 0.0698 0.9522
vn 0.8644 0.2391 0.4423
vn 0.5797 0.3941 0.7132
vn -0.4972 -0.3592 0.7898
vn -0.0498 -0.0186 0.9986
vn 0.9710 0.2152 -0.1039
vn 0.5700 -0.3125 -0.7599
vn -0.1993 -0.9382 -0.2830
vn -0.4959 0.0227 0.8681
vn 0.8556 0.4032 -0.3247
vn 0.4422 0.4982 0.7459
vn 0.7281 0.1506 -0.6687
vn 0.4398 -0.1802 -0.8798
vn -0.2374 -0.8920 -0.3846
vn -0.4231 -0.7713 0.4754
vn -0.5214 -0.3257 0.7887
vn 0.7081 0.5172 -0.4807
vn 0.1763 0.8511 0.4946
vn 0.5582 0.2473 -0.7920
vn 0.2051 0.0163 -0.9786
vn -0.5639 -0.6212 -0.5442
vn -0.7570 -0.5093 0.4094
vn -0.6960 -0.0914 0.7122
vn -0.4979 0.2996 0.8139
vn 0.6403 0.2342 -0.7315
vn 0.1808 0.9508 0.2515
vn 0.4932 0.0851 -0.8657
vn 0.0561 -0.0913 -0.9942
vn -0.6201 -0.6413 -0.4519
vn -0.7538 -0.3647 0.5466
vn -0.6819 0.0679 0.7283
vn 0.3145 0.9492 0.0108
vn 0.4243 -0.0741 -0.9025
vn 0.0009 -0.3774 -0.9260
vn -0.6093 -0.7402 -0.2843
vn -0.7036 -0.2032 0.6809
vn -0.5581 0.2313 0.7969
vn -0.4107 0.6198 0.6687
vn 0.4457 0.8540 -0.2684
vn 0.4462 -0.3181 -0.8365
vn -0.0180 -0.5435 -0.8392
vn -0.5473 -0.8338 0.0723
vn -0.5895 0.0008 0.8078
vn -0.4051 0.4590 0.7907
vn -0.2060 0.7546 0.6230
vn 0.8777 -0.2439 -0.4126
vn 0.6321 0.7548 -0.1754
vn 0.3907 -0.6225 -0.6781
vn -0.2658 -0.8832 0.3864
vn -0.5203 0.0813 0.8501
vn -0.0891 0.8131 0.5753
vn 0.6262 -0.0284 -0.7791
vn 0.3497 0.8378 -0.4193
vn -0.7937 0.1427 0.5913
vn -0.5377 -0.8373 0.0994
vn -0.5463 0.5525 0.6296
vn -0.1713 0.8911 0.4203
vn 0.5040 0.0689 -0.8610
vn -0.4343 0.9006 -0.0190
vn 0.4613 -0.4845 -0.7433
vn 0.2520 -0.8319 -0.4944
vn -0.6308 -0.7678 -0.1123
vn -0.7310 0.5187 0.4435
vn -0.1772 0.8959 -0.4075
vn 0.4576 -0.7433 -0.4880
vn -0.7193 -0.6946 -0.0047
vn -0.8923 0.3053 0.3325
vn 0.6279 -0.0917 -0.7729
vn -0.3742 0.8997 -0.2249
vn 0.6714 -0.5615 -0.4837
vn -0.8764 -0.3553 0.3251
vn -0.9328 0.2600 0.2497
vn 0.4815 -0.8357 -0.2639
vn -0.7200 0.5332 -0.4441
vn -0.9035 -0.2292 -0.3621
vt 0.527726 0.234000
vt 0.654508 0.279454
vt 0.990539 0.279454
vt 0.345491 0.279454
vt 0.095491 0.279454
vt 0.000000 0.279454
vt 0.345491 0.284077
vt 0.904508 0.283870
vt 0.654508 0.344301
vt 0.957481 0.324909
vt 0.345491 0.348766
vt 0.095491 0.324909
vt 0.000000 0.347363
vt 0.095491 0.344064
vt 0.654508 0.348838
vt 0.904508 0.382559
vt 1.000000 0.370364
vt 0.095491 0.394844
vt 0.422117 0.381635
vt 0.904508 0.406203
vt 1.000000 0.435371
vt 0.654508 0.455837
vt 0.345491 0.444211
vt 0.000000 0.415818
vt 0.111583 0.418744
vt 0.628156 0.457396
vt 0.904508 0.476719
vt 0.095491 0.461273
vt 0.000000 0.473664
vt 0.095491 0.473729
vt 0.904508 0.461273
vt 1.000000 0.542654
vt 0.654508 0.544255
vt 0.345491 0.506727
vt 0.095491 0.506727
vt 0.345491 0.529083
vt 0.654508 0.528275
vt 0.904508 0.506727
vt 0.904508 0.585675
vt 0.345491 0.552182
vt 0.095491 0.552182
vt 0.000000 0.590120
vt 0.095491 0.584183
vt 0.904508 0.552182
vt 1.000000 0.597636
vt 0.654508 0.597636
vt 0.345491 0.597636
vt 0.095491 0.597636
vt 0.654508 0.602395
vt 0.904508 0.597636
vt 0.904508 0.648559
vt 1.000000 0.643091
vt 0.654508 0.665789
vt 0.345491 0.643091
vt 0.095491 0.643091
vt 0.000000 0.661148
vt 0.345491 0.662455
vt 0.904508 0.643091
vt 1.000000 0.725005
vt 0.345491 0.706687
vt 0.095491 0.688546
vt 0.095491 0.719525
vt 0.654508 0.724578
vt 0.904508 0.707026
vt 0.904508 0.734000
vt 0.654508 0.734000
vt 0.095491 0.734000
vt 0.000000 0.734000
vt 0.345491 0.734000
vt 0.904508 0.779455
vt 1.000000 0.779455
vt 0.654508 0.779455
vt 0.345491 0.779455
vt 0.095491 0.779455
vt 0.000000 0.779455
vt 0.095491 0.788695
vt 0.904508 0.809796
vt 0.904508 0.831992
vt 1.000000 0.824909
vt 0.654508 0.824909
vt 0.345491 0.824909
vt 0.095491 0.824909
vt 0.000000 0.831292
vt 1.000000 0.891411
vt 0.654508 0.870364
vt 0.345491 0.870364
vt 0.095491 0.870364
vt 0.095491 0.909303
vt 0.904508 0.870364
vt 0.904508 0.945994
vt 0.654508 0.915818
vt 0.345491 0.915818
vt 0.095491 0.915818
vt 0.000000 0.938980
vt 0.345491 0.935934
vt 0.904508 0.915818
vt 1.000000 0.961273
vt 0.654508 0.980221
vt 0.345491 0.961273
vt 0.095491 0.961273
vt 0.654508 0.961273
vt 0.904508 0.990427
vt 0.904508 1.006727
vt 1.000000 1.006727
vt 0.345491 1.006727
vt 0.095491 1.006727
vt 0.000000 1.032655
vt 0.654508 1.034883
vt 0.904508 1.052182
vt 1.000000 1.052182
vt 0.654508 1.052182
vt 0.345491 1.052182
vt 0.095491 1.052182
vt 0.904508 1.097636
vt 1.000000 1.097636
vt 0.654508 1.097636
vt 0.345491 1.097636
vt 0.093196 1.097636
vt 0.095491 1.097636
vt 0.904508 1.143091
vt 1.000000 1.143091
vt 0.654508 1.143091
vt 0.345491 1.143091
vt 0.097647 1.186857
vt 0.095491 1.143091
vt 0.654508 1.161719
vt 0.904508 1.188545
vt 1.000000 1.221379
vt 0.654508 1.207277
vt 0.345491 1.188545
vt 0.095491 1.188545
vt 0.904508 1.218271
vt 0.904508 1.234000
vt 0.345491 1.257240
vt 0.093601 1.234000
vt 0.095491 1.251978
vt 0.644380 1.245005
vt 0.904508 1.295150
vt 1.000000 1.308785
vt 0.654508 1.288339
vt 0.095491 1.279454
vt 0.000000 1.279454
vt 0.345491 1.289681
vt 0.904508 1.279454
vt 0.345491 1.351328
vt 0.095491 1.344640
vt 0.000000 1.324909
vt 0.095491 1.324909
vt 0.654508 1.365525
vt 0.904508 1.324909
vt 0.904508 1.370364
vt 1.000000 1.370364
vt 0.654508 1.370364
vt 0.000000 1.370364
vt 0.095491 1.370364
vt 0.345491 1.402419
vt 0.904508 1.415818
vt 1.000000 1.415818
vt 0.654508 1.415818
vt 0.346734 1.422889
vt 0.000000 1.415818
vt 0.095491 1.415818
vt 0.904508 1.461273
vt 1.000000 1.461273
vt 0.654508 1.461273
vt 0.000000 1.461273
vt 0.103251 1.461273
vt 0.654508 1.472967
vt 0.904508 1.464722
vt 0.904508 1.506727
vt 1.000000 1.506727
vt 0.654508 1.506727
vt 0.312892 1.538614
vt 0.000000 1.506727
vt 0.095491 1.506727
vt 0.345491 1.506727
vt 0.904508 1.569114
vt 1.000000 1.574372
vt 0.654508 1.576005
vt 0.000000 1.575276
vt 0.095491 1.563820
vt 0.345491 1.569721
vt 0.654508 1.571587
vt 0.904508 1.589304
vt 0.345491 1.597636
vt 0.095491 1.597636
vt 1.000000 1.643091
vt 0.654508 1.662522
vt 0.345491 1.661568
vt 0.095491 1.643091
vt 0.000000 1.643091
vt 0.095491 1.679501
vt 0.345491 1.673406
vt 0.654508 1.675732
vt 0.904508 1.643091
vt 0.904508 1.710922
vt 1.000000 1.688545
vt 0.095491 1.688545
vt 0.000000 1.688545
vt 0.904508 1.688545
vt 1.000000 1.734000
vt 0.588189 1.734000
vt 0.095491 1.734000
vt 0.000000 1.734000
vt 0.345491 1.734000
vt 0.654508 1.748996
vt 0.904508 1.739627
vt 0.904508 1.779454
vt 1.000000 1.779454
vt 0.586812 1.779454
vt 0.095491 1.790907
vt 0.000000 1.779454
vt 0.344488 1.788793
vt 0.904508 1.854706
vt 1.000000 1.855574
vt 0.595108 1.824909
vt 0.074769 1.824909
vt 0.654508 1.857028
vt 0.904508 1.845870
vt 0.548853 1.870363
vt 0.095491 1.889153
vt 0.000000 1.890556
vt 0.095491 1.882079
vt 0.345491 1.943989
vt 0.830474 1.915818
vt 1.000000 1.939666
vt 0.345491 1.930318
vt 0.747459 1.943172
vt 0.832778 1.961273
vt 0.095491 1.975687
vt 0.000000 1.992090
vt 0.095491 1.991694
vt 0.860421 2.030701
vt 1.000000 2.028857
vt 0.345491 2.020888
vt 0.345491 2.006727
vt 0.842957 2.006727
vt 0.037976 2.091159
vt 0.079615 2.076690
vt 0.345491 2.073112
vt 0.887844 2.052182
vt 0.981236 2.097636
vt 0.345491 2.123618
vt 0.919228 2.117460
vt 0.958519 2.143091
vt 0.080399 2.143091
vt 0.398059 2.143091
vt 0.444762 2.188545
vt 0.859302 2.188545
vt 0.054877 2.188545
vt 0.418916 2.234000
vt 0.473552 0.180000
vt 0.500000 0.230000
vt 0.980148 0.230000
vt 0.002888 0.230000
vt 0.160723 0.230000
vt 0.853553 0.239330
vt 0.853553 0.326561
vt 1.000000 0.329430
vt 0.458617 0.280000
vt 0.000000 0.280000
vt 0.146447 0.280000
vt 0.834159 0.327257
vt 0.334312 0.330000
vt 0.000000 0.330000
vt 0.375955 0.330000
vt 0.853553 0.380000
vt 1.000000 0.384356
vt 0.500000 0.380000
vt 0.146447 0.399596
vt 0.000000 0.380000
vt 0.146447 0.380000
vt 0.500000 0.392905
vt 0.853553 0.477809
vt 0.500000 0.463017
vt 0.000000 0.472474
vt 0.146447 0.451848
vt 0.853553 0.463885
vt 1.000000 0.480000
vt 0.146447 0.480000
vt 0.500000 0.480000
vt 0.853553 0.530000
vt 0.994078 0.530000
vt 0.500000 0.530000
vt 0.146447 0.530000
vt 0.000000 0.530000
vt 0.517482 0.580000
vt 1.000000 0.627720
vt 0.146211 0.580000
vt 0.146447 0.580000
vt 0.500000 0.580000
vt 0.853553 0.580000
vt 0.853553 0.630000
vt 0.481060 0.632678
vt 0.146447 0.630000
vt 0.000000 0.630000
vt 0.500000 0.643445
vt 0.853553 0.680000
vt 1.000000 0.680000
vt 0.500000 0.680000
vt 0.000000 0.680000
vt 0.146447 0.680000
vt 0.853553 0.730000
vt 1.000000 0.781793
vt 0.432149 0.730000
vt 0.000000 0.730000
vt 0.438439 0.730000
vt 0.853553 0.780000
vt 0.189267 0.823944
vt 0.146447 0.780000
vt 0.008756 0.780000
vt 0.500000 0.781701
vt 0.812404 0.839449
vt 1.000131 0.830000
vt 0.046922 0.830000
vt 0.964510 0.903419
vt 0.314307 0.923112
vt 0.130005 0.908407
vt 0.384878 0.980000
vt 0.520929 0.270010
vt 0.500000 0.337253
vt 0.876066 0.320000
vt 0.146447 0.355473
vt 0.000000 0.347503
vt 0.146447 0.322516
vt 0.853553 0.320000
vt 0.853553 0.370000
vt 1.000000 0.416187
vt 0.500000 0.389838
vt 0.853553 0.420000
vt 0.152085 0.420000
vt 0.004268 0.420000
vt 0.853553 0.470000
vt 0.994363 0.470000
vt 0.500000 0.470000
vt 0.146447 0.470000
vt 0.000000 0.470000
vt 0.853553 0.520000
vt 1.000000 0.520000
vt 0.500000 0.520000
vt 0.146447 0.520000
vt 0.000000 0.520000
vt 0.853553 0.523959
vt 0.853553 0.610954
vt 1.000000 0.570000
vt 0.500000 0.570000
vt 0.146447 0.570000
vt 0.000000 0.570000
vt 1.000000 0.620000
vt 0.500000 0.620000
vt 0.146447 0.620000
vt 0.000000 0.620000
vt 0.853553 0.620000
vt 0.999739 0.670000
vt 0.500000 0.670000
vt 0.146447 0.670000
vt 0.000000 0.670000
vt 0.500000 0.687753
vt 0.853553 0.670000
vt 0.853553 0.720000
vt 1.000000 0.720000
vt 0.500000 0.755690
vt 0.001962 0.720112
vt 0.146447 0.720000
vt 0.853553 0.770000
vt 1.000000 0.770000
vt 0.146447 0.770000
vt 0.000000 0.770000
vt 0.500000 0.770000
vt 0.853553 0.865808
vt 0.876676 0.820000
vt 0.500000 0.824989
vt 0.146447 0.820000
vt 0.037504 0.820000
vt 0.500000 0.820000
vt 0.991295 0.870000
vt 0.146447 0.870000
vt 0.007052 0.870000
vt 0.500000 0.870000
vt 0.704294 0.927488
vt 1.000000 0.945261
vt 0.146447 0.920000
vt 0.137376 0.922592
vt 0.611937 0.932235
vt 0.120604 0.973805
vt 0.913703 1.020000
vt 0.559527 1.069944
s 1
f 1/1/1 3/2/2 2/3/3
f 1/1/1 4/4/4 3/2/2
f 1/1/1 5/5/5 4/4/4
f 1/1/1 6/6/6 5/5/5
f 1/1/1 7/5/7 6/6/6
f 1/1/1 8/7/8 7/5/7
f 1/1/1 9/2/9 8/7/8
f 1/1/1 10/8/10 9/2/9
f 1/1/1 2/3/3 10/8/10
f 2/3/3 3/2/2 12/9/11
f 2/3/3 12/9/11 11/10/12
f 3/2/2 4/4/4 13/11/13
f 3/2/2 13/11/13 12/9/11
f 4/4/4 5/5/5 14/12/14
f 4/4/4 14/12/14 13/11/13
f 5/5/5 6/6/6 15/13/15
f 5/5/5 15/13/15 14/12/14
f 6/6/6 7/5/7 16/14/16
f 6/6/6 16/14/16 15/13/15
f 7/5/7 8/7/8 16/14/16
f 8/7/8 9/2/9 17/15/17
f 9/2/9 10/8/10 17/15/17
f 10/8/10 2/3/3 11/10/12
f 11/10/12 19/16/18 18/17/19
f 11/10/12 12/9/11 19/16/18
f 13/11/13 14/12/14 20/18/20
f 14/12/14 15/13/15 20/18/20
f 16/14/16 8/7/8 21/19/21
f 8/7/8 17/15/17 21/19/21
f 17/15/17 10/8/10 22/20/22
f 10/8/10 11/10/12 18/17/19
f 10/8/10 18/17/19 22/20/22
f 18/17/19 19/16/18 23/21/23
f 19/16/18 12/9/11 24/22/24
f 12/9/11 13/11/13 25/23/25
f 12/9/11 25/23/25 24/22/24
f 13/11/13 20/18/20 25/23/25
f 20/18/20 15/13/15 26/24/26
f 15/13/15 16/14/16 27/25/27
f 15/13/15 27/25/27 26/24/26
f 16/14/16 21/19/21 28/26/28
f 16/14/16 28/26/28 27/25/27
f 17/15/17 22/20/22 21/19/21
f 22/20/22 18/17/19 23/21/23
f 23/21/23 19/16/18 29/27/29
f 19/16/18 24/22/24 29/27/29
f 25/23/25 20/18/20 30/28/30
f 20/18/20 26/24/26 31/29/31
f 20/18/20 31/29/31 30/28/30
f 26/24/26 27/25/27 32/30/32
f 26/24/26 32/30/32 31/29/31
f 21/19/21 22/20/22 33/31/33
f 21/19/21 33/31/33 28/26/28
f 22/20/22 23/21/23 33/31/33
f 23/21/23 29/27/29 34/32/34
f 29/27/29 24/22/24 35/33/35
f 24/22/24 25/23/25 36/34/36
f 24/22/24 36/34/36 35/33/35
f 25/23/25 30/28/30 37/35/37
f 25/23/25 37/35/37 36/34/36
f 30/28/30 31/29/31 37/35/37
f 32/30/32 27/25/27 38/36/38
f 27/25/27 28/26/28 39/37/39
f 27/25/27 39/37/39 38/36/38
f 28/26/28 33/31/33 40/38/40
f 28/26/28 40/38/40 39/37/39
f 33/31/33 23/21/23 34/32/34
f 33/31/33 34/32/34 40/38/40
f 34/32/34 29/27/29 41/39/41
f 29/27/29 35/33/35 41/39/41
f 35/33/35 36/34/36 42/40/42
f 36/34/36 37/35/37 43/41/43
f 36/34/36 43/41/43 42/40/42
f 37/35/37 31/29/31 44/42/44
f 37/35/37 44/42/44 43/41/43
f 31/29/31 32/30/32 45/43/45
f 31/29/31 45/43/45 44/42/44
f 32/30/32 38/36/38 45/43/45
f 39/37/39 40/38/40 46/44/46
f 40/38/40 34/32/34 46/44/46
f 34/32/34 41/39/41 47/45/47
f 41/39/41 35/33/35 48/46/48
f 35/33/35 42/40/42 49/47/49
f 35/33/35 49/47/49 48/46/48
f 42/40/42 43/41/43 50/48/50
f 42/40/42 50/48/50 49/47/49
f 43/41/43 44/42/44 50/48/50
f 45/43/45 38/36/38 51/47/51
f 38/36/38 39/37/39 52/49/52
f 38/36/38 52/49/52 51/47/51
f 39/37/39 46/44/46 53/50/53
f 39/37/39 53/50/53 52/49/52
f 46/44/46 34/32/34 47/45/47
f 46/44/46 47/45/47 53/50/53
f 47/45/47 41/39/41 55/51/54
f 47/45/47 55/51/54 54/52/55
f 41/39/41 48/46/48 56/53/56
f 41/39/41 56/53/56 55/51/54
f 48/46/48 49/47/49 57/54/57
f 48/46/48 57/54/57 56/53/56
f 49/47/49 50/48/50 58/55/58
f 49/47/49 58/55/58 57/54/57
f 50/48/50 44/42/44 59/56/59
f 50/48/50 59/56/59 58/55/58
f 44/42/44 45/43/45 60/55/60
f 44/42/44 60/55/60 59/56/59
f 45/43/45 51/47/51 61/57/61
f 45/43/45 61/57/61 60/55/60
f 51/47/51 52/49/52 61/57/61
f 52/49/52 53/50/53 62/58/62
f 53/50/53 47/45/47 54/52/55
f 53/50/53 54/52/55 62/58/62
f 54/52/55 55/51/54 63/59/63
f 56/53/56 57/54/57 64/60/64
f 57/54/57 58/55/58 65/61/65
f 57/54/57 65/61/65 64/60/64
f 58/55/58 59/56/59 65/61/65
f 59/56/59 60/55/60 66/62/66
f 60/55/60 61/57/61 66/62/66
f 61/57/61 52/49/52 67/63/67
f 52/49/52 62/58/62 68/64/68
f 52/49/52 68/64/68 67/63/67
f 62/58/62 54/52/55 63/59/63
f 62/58/62 63/59/63 68/64/68
f 63/59/63 55/51/54 69/65/69
f 55/51/54 56/53/56 70/66/70
f 55/51/54 70/66/70 69/65/69
f 56/53/56 64/60/64 70/66/70
f 64/60/64 65/61/65 71/67/71
f 65/61/65 59/56/59 72/68/72
f 65/61/65 72/68/72 71/67/71
f 59/56/59 66/62/66 72/68/72
f 66/62/66 61/57/61 73/69/73
f 61/57/61 67/63/67 73/69/73
f 63/59/63 69/65/69 75/70/74
f 63/59/63 75/70/74 74/71/75
f 69/65/69 70/66/70 76/72/76
f 69/65/69 76/72/76 75/70/74
f 70/66/70 64/60/64 77/73/77
f 70/66/70 77/73/77 76/72/76
f 64/60/64 71/67/71 78/74/78
f 64/60/64 78/74/78 77/73/77
f 71/67/71 72/68/72 79/75/79
f 71/67/71 79/75/79 78/74/78
f 72/68/72 66/62/66 80/76/80
f 72/68/72 80/76/80 79/75/79
f 66/62/66 73/69/73 81/73/81
f 66/62/66 81/73/81 80/76/80
f 73/69/73 67/63/67 82/72/82
f 73/69/73 82/72/82 81/73/81
f 67/63/67 68/64/68 83/77/83
f 67/63/67 83/77/83 82/72/82
f 68/64/68 63/59/63 74/71/75
f 68/64/68 74/71/75 83/77/83
f 74/71/75 75/70/74 85/78/84
f 74/71/75 85/78/84 84/79/85
f 75/70/74 76/72/76 86/80/86
f 75/70/74 86/80/86 85/78/84
f 76/72/76 77/73/77 87/81/87
f 76/72/76 87/81/87 86/80/86
f 77/73/77 78/74/78 88/82/88
f 77/73/77 88/82/88 87/81/87
f 78/74/78 79/75/79 89/83/89
f 78/74/78 89/83/89 88/82/88
f 79/75/79 80/76/80 89/83/89
f 80/76/80 81/73/81 90/81/90
f 81/73/81 82/72/82 91/80/91
f 81/73/81 91/80/91 90/81/90
f 82/72/82 83/77/83 91/80/91
f 83/77/83 74/71/75 84/79/85
f 84/79/85 85/78/84 92/84/92
f 85/78/84 86/80/86 93/85/93
f 86/80/86 87/81/87 94/86/94
f 86/80/86 94/86/94 93/85/93
f 87/81/87 88/82/88 95/87/95
f 87/81/87 95/87/95 94/86/94
f 88/82/88 89/83/89 95/87/95
f 89/83/89 80/76/80 96/88/96
f 80/76/80 90/81/90 97/86/97
f 80/76/80 97/86/97 96/88/96
f 90/81/90 91/80/91 98/85/98
f 90/81/90 98/85/98 97/86/97
f 91/80/91 83/77/83 99/89/99
f 91/80/91 99/89/99 98/85/98
f 83/77/83 84/79/85 92/84/92
f 83/77/83 92/84/92 99/89/99
f 92/84/92 85/78/84 100/90/100
f 85/78/84 93/85/93 101/91/101
f 85/78/84 101/91/101 100/90/100
f 93/85/93 94/86/94 102/92/102
f 93/85/93 102/92/102 101/91/101
f 94/86/94 95/87/95 103/93/103
f 94/86/94 103/93/103 102/92/102
f 95/87/95 89/83/89 104/94/104
f 95/87/95 104/94/104 103/93/103
f 89/83/89 96/88/96 104/94/104
f 96/88/96 97/86/97 105/95/105
f 97/86/97 98/85/98 106/91/106
f 97/86/97 106/91/106 105/95/105
f 98/85/98 99/89/99 107/96/107
f 98/85/98 107/96/107 106/91/106
f 99/89/99 92/84/92 107/96/107
f 92/84/92 100/90/100 108/97/108
f 100/90/100 101/91/101 109/98/109
f 101/91/101 102/92/102 110/99/110
f 101/91/101 110/99/110 109/98/109
f 102/92/102 103/93/103 111/100/111
f 102/92/102 111/100/111 110/99/110
f 103/93/103 104/94/104 111/100/111
f 104/94/104 96/88/96 112/100/112
f 96/88/96 105/95/105 112/100/112
f 105/95/105 106/91/106 113/101/113
f 106/91/106 107/96/107 114/102/114
f 106/91/106 114/102/114 113/101/113
f 107/96/107 92/84/92 108/97/108
f 107/96/107 108/97/108 114/102/114
f 108/97/108 100/90/100 116/103/115
f 108/97/108 116/103/115 115/104/116
f 100/90/100 109/98/109 116/103/115
f 109/98/109 110/99/110 117/105/117
f 110/99/110 111/100/111 118/106/118
f 110/99/110 118/106/118 117/105/117
f 111/100/111 104/94/104 119/107/119
f 111/100/111 119/107/119 118/106/118
f 104/94/104 112/100/112 120/106/120
f 104/94/104 120/106/120 119/107/119
f 112/100/112 105/95/105 121/105/121
f 112/100/112 121/105/121 120/106/120
f 105/95/105 113/101/113 122/108/122
f 105/95/105 122/108/122 121/105/121
f 113/101/113 114/102/114 122/108/122
f 114/102/114 108/97/108 115/104/116
f 115/104/116 116/103/115 124/109/123
f 115/104/116 124/109/123 123/110/124
f 116/103/115 109/98/109 125/111/125
f 116/103/115 125/111/125 124/109/123
f 109/98/109 117/105/117 126/112/126
f 109/98/109 126/112/126 125/111/125
f 117/105/117 118/106/118 127/113/127
f 117/105/117 127/113/127 126/112/126
f 118/106/118 119/107/119 127/113/127
f 119/107/119 120/106/120 128/113/128
f 120/106/120 121/105/121 129/112/129
f 120/106/120 129/112/129 128/113/128
f 121/105/121 122/108/122 129/112/129
f 122/108/122 114/102/114 130/109/130
f 114/102/114 115/104/116 123/110/124
f 114/102/114 123/110/124 130/109/130
f 123/110/124 124/109/123 132/114/131
f 123/110/124 132/114/131 131/115/132
f 124/109/123 125/111/125 133/116/133
f 124/109/123 133/116/133 132/114/131
f 125/111/125 126/112/126 134/117/134
f 125/111/125 134/117/134 133/116/133
f 126/112/126 127/113/127 135/118/135
f 126/112/126 135/118/135 134/117/134
f 127/113/127 119/107/119 135/118/135
f 119/107/119 128/113/128 136/119/136
f 119/107/119 136/119/136 135/118/135
f 128/113/128 129/112/129 137/117/137
f 128/113/128 137/117/137 136/119/136
f 129/112/129 122/108/122 138/116/138
f 129/112/129 138/116/138 137/117/137
f 122/108/122 130/109/130 139/114/139
f 122/108/122 139/114/139 138/116/138
f 130/109/130 123/110/124 131/115/132
f 130/109/130 131/115/132 139/114/139
f 131/115/132 132/114/131 141/120/140
f 131/115/132 141/120/140 140/121/141
f 132/114/131 133/116/133 142/122/142
f 132/114/131 142/122/142 141/120/140
f 133/116/133 134/117/134 143/123/143
f 133/116/133 143/123/143 142/122/142
f 134/117/134 135/118/135 144/124/144
f 134/117/134 144/124/144 143/123/143
f 135/118/135 136/119/136 145/125/145
f 135/118/135 145/125/145 144/124/144
f 136/119/136 137/117/137 146/123/146
f 136/119/136 146/123/146 145/125/145
f 137/117/137 138/116/138 147/126/147
f 137/117/137 147/126/147 146/123/146
f 138/116/138 139/114/139 148/120/148
f 138/116/138 148/120/148 147/126/147
f 139/114/139 131/115/132 140/121/141
f 139/114/139 140/121/141 148/120/148
f 140/121/141 141/120/140 150/127/149
f 140/121/141 150/127/149 149/128/150
f 141/120/140 142/122/142 151/129/151
f 141/120/140 151/129/151 150/127/149
f 142/122/142 143/123/143 152/130/152
f 142/122/142 152/130/152 151/129/151
f 143/123/143 144/124/144 152/130/152
f 144/124/144 145/125/145 153/131/153
f 145/125/145 146/123/146 154/130/154
f 145/125/145 154/130/154 153/131/153
f 146/123/146 147/126/147 154/130/154
f 147/126/147 148/120/148 155/132/155
f 148/120/148 140/121/141 149/128/150
f 148/120/148 149/128/150 155/132/155
f 149/128/150 150/127/149 156/133/156
f 150/127/149 151/129/151 156/133/156
f 151/129/151 152/130/152 157/134/157
f 152/130/152 144/124/144 158/135/158
f 152/130/152 158/135/158 157/134/157
f 144/124/144 153/131/153 159/136/159
f 144/124/144 159/136/159 158/135/158
f 153/131/153 154/130/154 160/137/160
f 153/131/153 160/137/160 159/136/159
f 154/130/154 147/126/147 160/137/160
f 147/126/147 155/132/155 160/137/160
f 149/128/150 156/133/156 162/138/161
f 149/128/150 162/138/161 161/139/162
f 156/133/156 151/129/151 163/140/163
f 156/133/156 163/140/163 162/138/161
f 151/129/151 157/134/157 163/140/163
f 157/134/157 158/135/158 164/141/164
f 158/135/158 165/142/165 164/141/164
f 158/135/158 159/136/159 165/142/165
f 159/136/159 160/137/160 166/143/166
f 160/137/160 155/132/155 167/144/167
f 155/132/155 149/128/150 161/139/162
f 155/132/155 161/139/162 167/144/167
f 163/140/163 157/134/157 168/145/168
f 157/134/157 164/141/164 169/146/169
f 157/134/157 169/146/169 168/145/168
f 164/141/164 165/142/165 170/147/170
f 164/141/164 170/147/170 169/146/169
f 165/142/165 159/136/159 171/148/171
f 165/142/165 171/148/171 170/147/170
f 159/136/159 166/143/166 171/148/171
f 166/143/166 160/137/160 172/149/172
f 160/137/160 167/144/167 173/150/173
f 160/137/160 173/150/173 172/149/172
f 167/144/167 161/139/162 173/150/173
f 161/139/162 162/138/161 175/151/174
f 161/139/162 175/151/174 174/152/175
f 162/138/161 163/140/163 176/153/176
f 162/138/161 176/153/176 175/151/174
f 163/140/163 168/145/168 176/153/176
f 169/146/169 170/147/170 177/154/177
f 170/147/170 171/148/171 178/155/178
f 170/147/170 178/155/178 177/154/177
f 171/148/171 166/143/166 179/156/179
f 171/148/171 179/156/179 178/155/178
f 166/143/166 172/149/172 179/156/179
f 172/149/172 173/150/173 180/151/180
f 173/150/173 161/139/162 174/152/175
f 173/150/173 174/152/175 180/151/180
f 174/152/175 175/151/174 182/157/181
f 174/152/175 182/157/181 181/158/182
f 175/151/174 176/153/176 183/159/183
f 175/151/174 183/159/183 182/157/181
f 176/153/176 168/145/168 184/160/184
f 176/153/176 184/160/184 183/159/183
f 168/145/168 169/146/169 184/160/184
f 169/146/169 177/154/177 185/161/185
f 169/146/169 185/161/185 184/160/184
f 177/154/177 178/155/178 186/162/186
f 177/154/177 186/162/186 185/161/185
f 178/155/178 179/156/179 186/162/186
f 179/156/179 172/149/172 187/159/187
f 172/149/172 180/151/180 188/157/188
f 172/149/172 188/157/188 187/159/187
f 180/151/180 174/152/175 181/158/182
f 180/151/180 181/158/182 188/157/188
f 181/158/182 182/157/181 190/163/189
f 181/158/182 190/163/189 189/164/190
f 182/157/181 183/159/183 191/165/191
f 182/157/181 191/165/191 190/163/189
f 183/159/183 184/160/184 191/165/191
f 184/160/184 185/161/185 192/166/192
f 185/161/185 186/162/186 193/167/193
f 185/161/185 193/167/193 192/166/192
f 186/162/186 179/156/179 193/167/193
f 179/156/179 187/159/187 194/168/194
f 179/156/179 194/168/194 193/167/193
f 187/159/187 188/157/188 195/169/195
f 187/159/187 195/169/195 194/168/194
f 188/157/188 181/158/182 189/164/190
f 188/157/188 189/164/190 195/169/195
f 189/164/190 190/163/189 197/170/196
f 189/164/190 197/170/196 196/171/197
f 190/163/189 191/165/191 198/172/198
f 190/163/189 198/172/198 197/170/196
f 191/165/191 184/160/184 199/173/199
f 191/165/191 199/173/199 198/172/198
f 184/160/184 192/166/192 200/174/200
f 184/160/184 200/174/200 199/173/199
f 192/166/192 193/167/193 201/175/201
f 192/166/192 201/175/201 200/174/200
f 193/167/193 202/176/202 201/175/201
f 193/167/193 194/168/194 202/176/202
f 195/169/195 189/164/190 196/171/197
f 196/171/197 197/170/196 204/177/203
f 196/171/197 204/177/203 203/178/204
f 197/170/196 198/172/198 205/179/205
f 197/170/196 205/179/205 204/177/203
f 198/172/198 199/173/199 205/179/205
f 199/173/199 200/174/200 206/180/206
f 200/174/200 201/175/201 207/181/207
f 200/174/200 207/181/207 206/180/206
f 201/175/201 202/176/202 208/182/208
f 201/175/201 208/182/208 207/181/207
f 202/176/202 194/168/194 209/183/209
f 202/176/202 209/183/209 208/182/208
f 194/168/194 195/169/195 210/184/210
f 194/168/194 210/184/210 209/183/209
f 195/169/195 196/171/197 203/178/204
f 195/169/195 203/178/204 210/184/210
f 205/179/205 199/173/199 211/185/211
f 199/173/199 212/186/212 211/185/211
f 199/173/199 206/180/206 212/186/212
f 203/178/204 204/177/203 213/187/213
f 204/177/203 205/179/205 214/188/214
f 205/179/205 211/185/211 215/189/215
f 205/179/205 215/189/215 214/188/214
f 211/185/211 212/186/212 216/190/216
f 211/185/211 216/190/216 215/189/215
f 212/186/212 206/180/206 217/191/217
f 212/186/212 217/191/217 216/190/216
f 206/180/206 207/181/207 218/192/218
f 206/180/206 218/192/218 217/191/217
f 207/181/207 208/182/208 219/193/219
f 207/181/207 219/193/219 218/192/218
f 208/182/208 209/183/209 220/194/220
f 208/182/208 220/194/220 219/193/219
f 209/183/209 210/184/210 221/195/221
f 209/183/209 221/195/221 220/194/220
f 210/184/210 203/178/204 213/187/213
f 210/184/210 213/187/213 221/195/221
f 213/187/213 204/177/203 223/196/222
f 213/187/213 223/196/222 222/197/223
f 204/177/203 214/188/214 223/196/222
f 215/189/215 216/190/216 224/198/224
f 216/190/216 217/191/217 225/199/225
f 216/190/216 225/199/225 224/198/224
f 217/191/217 218/192/218 225/199/225
f 220/194/220 221/195/221 226/200/226
f 221/195/221 213/187/213 222/197/223
f 221/195/221 222/197/223 226/200/226
f 222/197/223 223/196/222 227/201/227
f 223/196/222 214/188/214 228/202/228
f 214/188/214 215/189/215 228/202/228
f 215/189/215 224/198/224 229/203/229
f 215/189/215 229/203/229 228/202/228
f 224/198/224 225/199/225 230/204/230
f 224/198/224 230/204/230 229/203/229
f 225/199/225 218/192/218 231/203/231
f 225/199/225 231/203/231 230/204/230
f 218/192/218 219/193/219 232/205/232
f 218/192/218 232/205/232 231/203/231
f 219/193/219 220/194/220 233/206/233
f 219/193/219 233/206/233 232/205/232
f 220/194/220 226/200/226 234/207/234
f 220/194/220 234/207/234 233/206/233
f 226/200/226 222/197/223 227/201/227
f 226/200/226 227/201/227 234/207/234
f 227/201/227 223/196/222 236/208/235
f 227/201/227 236/208/235 235/209/236
f 223/196/222 228/202/228 237/210/237
f 223/196/222 237/210/237 236/208/235
f 228/202/228 229/203/229 238/211/238
f 228/202/228 238/211/238 237/210/237
f 229/203/229 230/204/230 239/212/239
f 229/203/229 239/212/239 238/211/238
f 230/204/230 231/203/231 240/213/240
f 230/204/230 240/213/240 239/212/239
f 231/203/231 232/205/232 240/213/240
f 232/205/232 233/206/233 240/213/240
f 234/207/234 227/201/227 235/209/236
f 235/209/236 236/208/235 242/214/241
f 235/209/236 242/214/241 241/215/242
f 236/208/235 237/210/237 243/216/243
f 236/208/235 243/216/243 242/214/241
f 237/210/237 238/211/238 243/216/243
f 238/211/238 239/212/239 244/217/244
f 239/212/239 240/213/240 244/217/244
f 240/213/240 233/206/233 245/218/245
f 233/206/233 234/207/234 246/219/246
f 233/206/233 246/219/246 245/218/245
f 234/207/234 235/209/236 241/215/242
f 234/207/234 241/215/242 246/219/246
f 242/214/241 243/216/243 247/220/247
f 243/216/243 238/211/238 248/221/248
f 243/216/243 248/221/248 247/220/247
f 238/211/238 244/217/244 249/222/249
f 238/211/238 249/222/249 248/221/248
f 244/217/244 250/223/250 249/222/249
f 244/217/244 240/213/240 251/224/251
f 244/217/244 251/224/251 250/223/250
f 240/213/240 245/218/245 251/224/251
f 241/215/242 242/214/241 253/225/252
f 241/215/242 253/225/252 252/226/253
f 242/214/241 247/220/247 253/225/252
f 247/220/247 254/227/254 253/225/252
f 247/220/247 248/221/248 254/227/254
f 251/224/251 245/218/245 255/228/255
f 245/218/245 246/219/246 255/228/255
f 246/219/246 241/215/242 252/226/253
f 246/219/246 252/226/253 255/228/255
f 252/226/253 253/225/252 256/229/256
f 253/225/252 254/227/254 256/229/256
f 254/227/254 248/221/248 257/230/257
f 248/221/248 249/222/249 258/231/258
f 248/221/248 258/231/258 257/230/257
f 249/222/249 250/223/250 259/232/259
f 249/222/249 259/232/259 258/231/258
f 250/223/250 251/224/251 259/232/259
f 252/226/253 256/229/256 261/233/260
f 252/226/253 261/233/260 260/234/261
f 256/229/256 254/227/254 262/235/262
f 256/229/256 262/235/262 261/233/260
f 254/227/254 257/230/257 262/235/262
f 259/232/259 251/224/251 263/236/263
f 251/224/251 255/228/255 264/237/264
f 251/224/251 264/237/264 263/236/263
f 255/228/255 252/226/253 260/234/261
f 255/228/255 260/234/261 264/237/264
f 262/235/262 257/230/257 265/238/265
f 257/230/257 258/231/258 266/239/266
f 257/230/257 266/239/266 265/238/265
f 258/231/258 259/232/259 266/239/266
f 259/232/259 263/236/263 267/240/267
f 259/232/259 267/240/267 266/239/266
f 263/236/263 264/237/264 268/241/268
f 263/236/263 268/241/268 267/240/267
f 264/237/264 260/234/261 268/241/268
f 260/234/261 261/233/260 269/242/269
f 261/233/260 262/235/262 270/243/270
f 261/233/260 270/243/270 269/242/269
f 262/235/262 265/238/265 270/243/270
f 267/240/267 268/241/268 271/244/271
f 268/241/268 260/234/261 269/242/269
f 268/241/268 269/242/269 271/244/271
f 269/242/269 270/243/270 272/245/272
f 270/243/270 265/238/265 273/246/273
f 265/238/265 266/239/266 273/246/273
f 266/239/266 267/240/267 274/247/274
f 266/239/266 274/247/274 273/246/273
f 267/240/267 271/244/271 274/247/274
f 271/244/271 269/242/269 272/245/272
f 272/245/272 275/248/275 277/249/276
f 272/245/272 270/243/270 275/248/275
f 270/243/270 273/246/273 276/250/277
f 270/243/270 276/250/277 275/248/275
f 273/246/273 274/247/274 277/249/276
f 273/246/273 277/249/276 276/250/277
f 274/247/274 271/244/271 277/249/276
f 271/244/271 272/245/272 277/249/276
f 277/249/276 275/248/275 278/251/278
f 275/248/275 276/250/277 278/251/278
f 276/250/277 277/249/276 278/251/278
f 279/252/279 281/253/280 280/254/281
f 279/252/279 282/255/282 281/253/280
f 279/252/279 283/256/283 282/255/282
f 279/252/279 284/257/284 283/256/283
f 279/252/279 280/254/281 284/257/284
f 280/254/281 286/258/285 285/259/286
f 280/254/281 281/253/280 287/260/287
f 280/254/281 287/260/287 286/258/285
f 281/253/280 282/255/282 287/260/287
f 282/255/282 288/261/288 287/260/287
f 282/255/282 283/256/283 289/262/289
f 282/255/282 289/262/289 288/261/288
f 283/256/283 290/263/290 289/262/289
f 283/256/283 284/257/284 290/263/290
f 284/257/284 280/254/281 285/259/286
f 286/258/285 287/260/287 291/264/291
f 287/260/287 288/261/288 292/265/292
f 287/260/287 292/265/292 291/264/291
f 288/261/288 289/262/289 293/266/293
f 288/261/288 293/266/293 292/265/292
f 289/262/289 290/263/290 293/266/293
f 284/257/284 285/259/286 290/263/290
f 285/259/286 286/258/285 295/267/294
f 285/259/286 295/267/294 294/268/295
f 286/258/285 291/264/291 296/269/296
f 286/258/285 296/269/296 295/267/294
f 291/264/291 297/270/297 296/269/296
f 291/264/291 292/265/292 298/271/298
f 291/264/291 298/271/298 297/270/297
f 292/265/292 293/266/293 299/272/299
f 292/265/292 299/272/299 298/271/298
f 293/266/293 300/273/300 299/272/299
f 293/266/293 290/263/290 301/267/301
f 293/266/293 301/267/301 300/273/300
f 290/263/290 285/259/286 294/268/295
f 290/263/290 294/268/295 301/267/301
f 294/268/295 295/267/294 302/274/302
f 295/267/294 296/269/296 303/275/303
f 295/267/294 303/275/303 302/274/302
f 296/269/296 297/270/297 303/275/303
f 297/270/297 298/271/298 304/276/304
f 298/271/298 299/272/299 305/277/305
f 298/271/298 305/277/305 304/276/304
f 299/272/299 300/273/300 305/277/305
f 300/273/300 301/267/301 306/278/306
f 301/267/301 294/268/295 306/278/306
f 294/268/295 302/274/302 307/279/307
f 303/275/303 297/270/297 308/280/308
f 297/270/297 304/276/304 308/280/308
f 305/277/305 300/273/300 309/281/309
f 300/273/300 306/278/306 309/281/309
f 306/278/306 294/268/295 307/279/307
f 307/279/307 302/274/302 311/282/310
f 307/279/307 311/282/310 310/283/311
f 302/274/302 303/275/303 312/284/312
f 302/274/302 312/284/312 311/282/310
f 303/275/303 308/280/308 313/285/313
f 303/275/303 313/285/313 312/284/312
f 308/280/308 304/276/304 314/286/314
f 308/280/308 314/286/314 313/285/313
f 304/276/304 305/277/305 315/285/315
f 304/276/304 315/285/315 314/286/314
f 305/277/305 309/281/309 316/284/316
f 305/277/305 316/284/316 315/285/315
f 309/281/309 306/278/306 310/283/311
f 309/281/309 310/283/311 316/284/316
f 306/278/306 307/279/307 310/283/311
f 310/283/311 311/282/310 318/287/317
f 310/283/311 318/287/317 317/288/318
f 311/282/310 312/284/312 318/287/317
f 312/284/312 313/285/313 319/289/319
f 312/284/312 319/289/319 318/287/317
f 313/285/313 314/286/314 319/289/319
f 314/286/314 315/285/315 320/290/320
f 314/286/314 320/290/320 319/289/319
f 315/285/315 316/284/316 321/291/321
f 315/285/315 321/291/321 320/290/320
f 316/284/316 310/283/311 322/292/322
f 316/284/316 322/292/322 321/291/321
f 310/283/311 317/288/318 322/292/322
f 317/288/318 318/287/317 323/293/323
f 318/287/317 324/294/324 323/293/323
f 318/287/317 319/289/319 325/295/325
f 318/287/317 325/295/325 324/294/324
f 319/289/319 326/296/326 325/295/325
f 319/289/319 320/290/320 327/295/327
f 319/289/319 327/295/327 326/296/326
f 320/290/320 321/291/321 328/297/328
f 320/290/320 328/297/328 327/295/327
f 321/291/321 322/292/322 329/293/329
f 321/291/321 329/293/329 328/297/328
f 322/292/322 317/288/318 329/293/329
f 317/288/318 323/293/323 331/298/330
f 317/288/318 331/298/330 330/299/331
f 323/293/323 324/294/324 332/300/332
f 323/293/323 332/300/332 331/298/330
f 325/295/325 326/296/326 333/301/333
f 325/295/325 333/301/333 324/294/324
f 326/296/326 327/295/327 334/302/334
f 326/296/326 334/302/334 333/301/333
f 327/295/327 328/297/328 334/302/334
f 328/297/328 329/293/329 335/298/335
f 329/293/329 317/288/318 330/299/331
f 329/293/329 330/299/331 335/298/335
f 330/299/331 331/298/330 337/303/336
f 330/299/331 337/303/336 336/304/337
f 331/298/330 332/300/332 338/305/338
f 331/298/330 338/305/338 337/303/336
f 332/300/332 324/294/324 338/305/338
f 324/294/324 333/301/333 339/306/339
f 324/294/324 339/306/339 338/305/338
f 333/301/333 334/302/334 340/307/340
f 333/301/333 340/307/340 339/306/339
f 334/302/334 328/297/328 340/307/340
f 328/297/328 335/298/335 341/303/341
f 328/297/328 341/303/341 340/307/340
f 335/298/335 330/299/331 336/304/337
f 335/298/335 336/304/337 341/303/341
f 336/304/337 337/303/336 342/308/342
f 337/303/336 338/305/338 343/309/343
f 337/303/336 343/309/343 342/308/342
f 338/305/338 344/310/344 343/309/343
f 338/305/338 339/306/339 345/311/345
f 338/305/338 345/311/345 344/310/344
f 339/306/339 340/307/340 345/311/345
f 340/307/340 346/312/346 345/311/345
f 340/307/340 341/303/341 347/308/347
f 340/307/340 347/308/347 346/312/346
f 341/303/341 336/304/337 347/308/347
f 336/304/337 342/308/342 349/313/348
f 336/304/337 349/313/348 348/314/349
f 342/308/342 343/309/343 349/313/348
f 344/310/344 345/311/345 350/315/350
f 344/310/344 350/315/350 343/309/343
f 345/311/345 346/312/346 350/315/350
f 346/312/346 347/308/347 348/314/349
f 347/308/347 336/304/337 348/314/349
f 348/314/349 349/313/348 351/316/351
f 349/313/348 343/309/343 352/317/352
f 343/309/343 350/315/350 352/317/352
f 350/315/350 353/318/353 352/317/352
f 350/315/350 346/312/346 353/318/353
f 346/312/346 348/314/349 351/316/351
f 351/316/351 349/313/348 352/317/352
f 351/316/351 352/317/352 354/319/354
f 352/317/352 353/318/353 354/319/354
f 353/318/353 346/312/346 354/319/354
f 346/312/346 351/316/351 354/319/354
f 355/320/355 357/321/356 356/322/357
f 355/320/355 358/323/358 357/321/356
f 355/320/355 359/324/359 358/323/358
f 355/320/355 360/325/360 359/324/359
f 355/320/355 356/322/357 361/326/361
f 356/322/357 363/327/362 362/328/363
f 356/322/357 357/321/356 363/327/362
f 360/325/360 355/320/355 364/329/364
f 355/320/355 361/326/361 365/327/365
f 355/320/355 365/327/365 364/329/364
f 361/326/361 356/322/357 362/328/363
f 361/326/361 362/328/363 365/327/365
f 362/328/363 363/327/362 366/330/366
f 363/327/362 357/321/356 367/331/367
f 363/327/362 367/331/367 366/330/366
f 357/321/356 358/323/358 367/331/367
f 358/323/358 359/324/359 368/332/368
f 358/323/358 368/332/368 367/331/367
f 359/324/359 360/325/360 368/332/368
f 360/325/360 364/329/364 368/332/368
f 364/329/364 365/327/365 369/330/369
f 365/327/365 362/328/363 369/330/369
f 362/328/363 366/330/366 371/333/370
f 362/328/363 371/333/370 370/334/371
f 366/330/366 367/331/367 372/335/372
f 366/330/366 372/335/372 371/333/370
f 367/331/367 373/336/373 372/335/372
f 367/331/367 368/332/368 374/337/374
f 367/331/367 374/337/374 373/336/373
f 368/332/368 375/336/375 374/337/374
f 368/332/368 364/329/364 376/335/376
f 368/332/368 376/335/376 375/336/375
f 364/329/364 369/330/369 370/334/371
f 364/329/364 370/334/371 376/335/376
f 369/330/369 362/328/363 370/334/371
f 370/334/371 371/333/370 378/338/377
f 370/334/371 378/338/377 377/339/378
f 371/333/370 372/335/372 379/340/379
f 371/333/370 379/340/379 378/338/377
f 372/335/372 373/336/373 380/341/380
f 372/335/372 380/341/380 379/340/379
f 373/336/373 374/337/374 381/342/381
f 373/336/373 381/342/381 380/341/380
f 374/337/374 375/336/375 382/341/382
f 374/337/374 382/341/382 381/342/381
f 375/336/375 376/335/376 383/340/383
f 375/336/375 383/340/383 382/341/382
f 376/335/376 370/334/371 384/343/384
f 376/335/376 384/343/384 383/340/383
f 370/334/371 377/339/378 384/343/384
f 377/339/378 378/338/377 386/344/385
f 377/339/378 386/344/385 385/345/386
f 378/338/377 379/340/379 387/346/387
f 378/338/377 387/346/387 386/344/385
f 379/340/379 380/341/380 388/347/388
f 379/340/379 388/347/388 387/346/387
f 380/341/380 381/342/381 389/348/389
f 380/341/380 389/348/389 388/347/388
f 381/342/381 382/341/382 390/347/390
f 381/342/381 390/347/390 389/348/389
f 382/341/382 383/340/383 391/346/391
f 382/341/382 391/346/391 390/347/390
f 383/340/383 384/343/384 391/346/391
f 384/343/384 377/339/378 385/345/386
f 385/345/386 386/344/385 392/349/392
f 386/344/385 387/346/387 393/350/393
f 387/346/387 388/347/388 394/351/394
f 387/346/387 394/351/394 393/350/393
f 388/347/388 389/348/389 395/352/395
f 388/347/388 395/352/395 394/351/394
f 389/348/389 390/347/390 396/351/396
f 389/348/389 396/351/396 395/352/395
f 390/347/390 391/346/391 397/350/397
f 390/347/390 397/350/397 396/351/396
f 391/346/391 384/343/384 398/353/398
f 391/346/391 398/353/398 397/350/397
f 384/343/384 385/345/386 392/349/392
f 384/343/384 392/349/392 398/353/398
f 392/349/392 386/344/385 399/354/399
f 386/344/385 393/350/393 400/355/400
f 386/344/385 400/355/400 399/354/399
f 393/350/393 394/351/394 401/356/401
f 393/350/393 401/356/401 400/355/400
f 394/351/394 395/352/395 402/357/402
f 394/351/394 402/357/402 401/356/401
f 395/352/395 396/351/396 403/356/403
f 395/352/395 403/356/403 402/357/402
f 396/351/396 397/350/397 404/358/404
f 396/351/396 404/358/404 403/356/403
f 397/350/397 398/353/398 405/359/405
f 397/350/397 405/359/405 404/358/404
f 398/353/398 392/349/392 399/354/399
f 398/353/398 399/354/399 405/359/405
f 399/354/399 407/360/406 406/361/407
f 399/354/399 400/355/400 408/362/408
f 399/354/399 408/362/408 407/360/406
f 400/355/400 401/356/401 409/363/409
f 400/355/400 409/363/409 408/362/408
f 401/356/401 402/357/402 409/363/409
f 402/357/402 403/356/403 410/364/410
f 402/357/402 410/364/410 409/363/409
f 403/356/403 404/358/404 410/364/410
f 404/358/404 405/359/405 411/360/411
f 405/359/405 399/354/399 406/361/407
f 405/359/405 406/361/407 411/360/411
f 406/361/407 407/360/406 413/365/412
f 406/361/407 413/365/412 412/366/413
f 407/360/406 408/362/408 413/365/412
f 409/363/409 410/364/410 415/367/414
f 409/363/409 415/367/414 414/368/415
f 410/364/410 404/358/404 416/369/416
f 410/364/410 416/369/416 415/367/414
f 404/358/404 411/360/411 417/365/417
f 404/358/404 417/365/417 416/369/416
f 411/360/411 406/361/407 412/366/413
f 411/360/411 412/366/413 417/365/417
f 412/366/413 413/365/412 419/370/418
f 412/366/413 419/370/418 418/371/419
f 413/365/412 408/362/408 420/372/420
f 413/365/412 420/372/420 419/370/418
f 408/362/408 409/363/409 421/373/421
f 408/362/408 421/373/421 420/372/420
f 409/363/409 414/368/415 422/374/422
f 409/363/409 422/374/422 421/373/421
f 414/368/415 415/367/414 422/374/422
f 415/367/414 416/369/416 423/375/423
f 415/367/414 423/375/423 422/374/422
f 416/369/416 417/365/417 418/371/419
f 416/369/416 418/371/419 423/375/423
f 417/365/417 412/366/413 418/371/419
f 418/371/419 419/370/418 424/376/424
f 420/372/420 421/373/421 425/377/425
f 421/373/421 422/374/422 426/378/426
f 421/373/421 426/378/426 425/377/425
f 422/374/422 423/375/423 427/379/427
f 422/374/422 427/379/427 426/378/426
f 423/375/423 418/371/419 424/376/424
f 423/375/423 424/376/424 427/379/427
f 424/376/424 419/370/418 429/380/428
f 424/376/424 429/380/428 428/381/429
f 419/370/418 420/372/420 429/380/428
f 420/372/420 425/377/425 430/382/430
f 420/372/420 430/382/430 429/380/428
f 425/377/425 426/378/426 431/383/431
f 425/377/425 431/383/431 430/382/430
f 426/378/426 427/379/427 432/384/432
f 426/378/426 432/384/432 431/383/431
f 427/379/427 424/376/424 432/384/432
f 424/376/424 428/381/429 432/384/432
f 429/380/428 430/382/430 433/385/433
f 430/382/430 431/383/431 433/385/433
f 428/381/429 429/380/428 434/386/434
f 429/380/428 435/387/435 434/386/434
f 429/380/428 433/385/433 435/387/435
f 432/384/432 434/386/434 431/383/431
f 432/384/432 428/381/429 434/386/434
f 433/385/433 431/383/431 435/387/435
f 431/383/431 434/386/434 435/387/435
