# Blender 5.1.2
# www.blender.org
o inferno_seams_flat_v16
v 0.250000 0.009000 -0.000000
v 0.406789 0.009000 0.011312
v 0.572157 0.009000 0.018034
v 0.887224 0.009000 0.003858
v 1.049817 0.009000 0.007242
v 1.206203 0.009000 0.007795
v 1.364872 0.009000 -0.015754
v 1.524242 0.009000 -0.051618
v 1.523936 0.009000 -0.053801
v 1.683168 0.009000 -0.059261
v 1.683413 0.009000 -0.061632
v 1.843291 0.009000 -0.018485
v 1.843999 0.009000 -0.020903
v 2.002544 0.009000 0.034583
v 2.003157 0.009000 0.031744
v 2.161953 0.009000 0.050432
v 2.161935 0.009000 0.047628
v 2.321744 0.009000 0.032241
v 2.321589 0.009000 0.030035
v 2.481042 0.009000 0.027667
v 2.481174 0.009000 0.025498
v 2.640032 0.009000 0.051764
v 2.640253 0.009000 0.049155
v 2.799735 0.009000 0.054897
v 2.799240 0.009000 0.052226
v 2.959982 0.009000 -0.007417
v 2.958742 0.009000 -0.010016
v 3.117823 0.009000 -0.096370
v 3.116595 0.009000 -0.099700
v 3.275523 0.009000 -0.123566
v 3.275927 0.009000 -0.127274
v 3.436296 0.009000 -0.061862
v 3.437540 0.009000 -0.064680
v 3.596422 0.009000 0.017703
v 3.597253 0.009000 0.015080
v 3.756036 0.009000 0.039225
v 3.756085 0.009000 0.036318
v 3.915531 0.009000 0.023133
v 3.915598 0.009000 0.020419
v 4.074373 0.009000 0.046918
v 4.075116 0.009000 0.044382
v 4.232363 0.009000 0.116388
v 4.233276 0.009000 0.113127
v 4.392157 0.009000 0.136371
v 4.391227 0.009000 0.132548
v 4.554057 0.009000 0.038314
v 4.551895 0.009000 0.035474
v 4.712129 0.009000 -0.107456
v 4.710358 0.009000 -0.110196
v 4.868980 0.009000 -0.165764
v 4.869016 0.009000 -0.169060
v 5.029574 0.009000 -0.104105
v 5.030717 0.009000 -0.106704
v 5.190254 0.009000 -0.024901
v 5.190866 0.009000 -0.027163
v 5.350005 0.009000 -0.017595
v 5.349928 0.009000 -0.020387
v 5.508988 0.009000 -0.033090
v 5.509542 0.009000 -0.036482
v 5.667737 0.009000 0.034519
v 5.669570 0.009000 0.031689
v 5.824770 0.009000 0.171617
v 5.826508 0.009000 0.168815
v 5.983458 0.009000 0.229795
v 5.982852 0.009000 0.226361
v 6.146871 0.009000 0.114821
v 6.144776 0.009000 0.112587
v 6.306560 0.009000 -0.073624
v 6.305060 0.009000 -0.075354
v 6.464577 0.009000 -0.160897
v 6.463461 0.009000 -0.162727
v 6.624382 0.009000 -0.116381
v 6.784008 0.009000 -0.064976
v 6.784094 0.009000 -0.067635
v 6.943261 0.009000 -0.103407
v 6.942659 0.009000 -0.106057
v 7.101412 0.009000 -0.136913
v 7.102139 0.009000 -0.139949
v 7.261375 0.009000 -0.027116
v 7.263515 0.009000 -0.029205
v 7.418684 0.009000 0.187927
v 7.420346 0.009000 0.186350
v 7.575253 0.009000 0.301471
v 7.738124 0.009000 0.196401
v 7.900006 0.009000 -0.004490
v 8.058764 0.009000 -0.098907
v 8.218375 0.009000 -0.066700
v 8.218565 0.009000 -0.068924
v 8.378237 0.009000 -0.070500
v 8.377401 0.009000 -0.072705
v 8.535593 0.009000 -0.187977
v 8.692724 0.009000 -0.268675
v 8.855208 0.009000 -0.135966
v 9.014431 0.009000 0.147983
v 9.169317 0.009000 0.322884
v 9.331035 0.009000 0.249410
v 9.493470 0.009000 0.073055
v 9.653124 0.009000 0.008400
v 9.812405 0.009000 0.043787
v 9.971863 0.009000 -0.016645
v 10.128605 0.009000 -0.232306
v 10.283242 0.009000 -0.389729
v 10.446592 0.009000 -0.266831
v 0.196732 0.009000 0.154261
v 0.317079 0.009000 0.258120
v 0.446401 0.009000 0.356039
v 0.719423 0.009000 0.519710
v 0.846213 0.009000 0.613817
v 0.971316 0.009000 0.714434
v 1.103679 0.009000 0.802054
v 1.241433 0.009000 0.885689
v 1.242695 0.009000 0.883946
v 1.361944 0.009000 0.990617
v 1.363867 0.009000 0.988885
v 1.554011 0.009000 1.259827
v 1.556369 0.009000 1.258705
v 1.686499 0.009000 1.353558
v 1.843037 0.009000 1.412711
v 1.843930 0.009000 1.410529
v 1.991783 0.009000 1.479868
v 1.993069 0.009000 1.477726
v 2.242440 0.009000 1.673435
v 2.243233 0.009000 1.670390
v 2.397298 0.009000 1.736029
v 2.398573 0.009000 1.732577
v 2.554783 0.009000 1.788996
v 2.556468 0.009000 1.786130
v 2.672640 0.009000 1.897296
v 2.675023 0.009000 1.895714
v 2.811561 0.009000 2.240130
v 2.814030 0.009000 2.238694
v 2.936533 0.009000 2.342617
v 2.937686 0.009000 2.340460
v 3.098753 0.009000 2.394367
v 3.099837 0.009000 2.391650
v 3.244220 0.009000 2.466036
v 3.246341 0.009000 2.462972
v 3.360555 0.009000 2.576112
v 3.362853 0.009000 2.573209
v 3.494716 0.009000 2.663971
v 3.495806 0.009000 2.660760
v 3.678977 0.009000 2.684109
v 3.679232 0.009000 2.680641
v 3.868862 0.009000 2.691431
v 3.869873 0.009000 2.688404
v 3.995224 0.009000 2.789410
v 3.996351 0.009000 2.787340
v 4.100407 0.009000 3.185486
v 4.096787 0.009000 3.186243
v 4.212088 0.009000 3.298863
v 4.213905 0.009000 3.296032
v 4.366653 0.009000 3.359758
v 4.368292 0.009000 3.356907
v 4.490655 0.009000 3.459046
v 4.493340 0.009000 3.456642
v 4.582308 0.009000 3.600958
v 4.584807 0.009000 3.598498
v 4.717387 0.009000 3.688345
v 4.717868 0.009000 3.685704
v 4.935728 0.009000 3.665077
v 4.935371 0.009000 3.662794
v 5.165777 0.009000 3.618301
v 5.165950 0.009000 3.615686
v 5.309022 0.009000 3.689538
v 5.311204 0.009000 3.687997
v 5.359395 0.009000 3.893096
v 5.361945 0.009000 3.892492
v 5.405680 0.009000 4.098444
v 5.408428 0.009000 4.097045
v 5.521087 0.009000 4.211139
v 5.523048 0.009000 4.208466
v 5.663123 0.009000 4.287308
v 5.665037 0.009000 4.285342
v 5.751006 0.009000 4.434127
v 5.753100 0.009000 4.433295
v 5.799640 0.009000 4.630561
v 5.801605 0.009000 4.629462
v 5.920632 0.009000 4.735134
v 6.164193 0.009000 4.681853
v 6.432338 0.009000 4.586389
v 6.599044 0.009000 4.626318
v 6.600814 0.009000 4.624512
v 6.661584 0.009000 4.812509
v 6.726423 0.009000 4.995871
v 6.727237 0.009000 4.994215
v 6.861533 0.009000 5.083958
v 6.995864 0.009000 5.166583
v 7.042435 0.009000 5.370052
v 7.035124 0.009000 5.638133
v 7.123753 0.009000 5.782108
v 7.374747 0.009000 5.722214
v 7.666121 0.009000 5.600171
v 7.851568 0.009000 5.615666
v 7.934368 0.009000 5.773367
v 8.035353 0.009000 5.905202
v 8.209329 0.009000 5.937109
v 8.356447 0.009000 6.005560
v 8.370008 0.009000 6.256635
v 0.112376 0.009000 0.223319
v 0.182063 0.009000 0.366311
v 0.262963 0.009000 0.504239
v 0.356211 0.009000 0.633951
v 0.445583 0.009000 0.767401
v 0.513529 0.009000 0.911816
v 0.570318 0.009000 1.062408
v 0.637844 0.009000 1.207506
v 0.639738 0.009000 1.206518
v 0.716855 0.009000 1.345976
v 0.719170 0.009000 1.344810
v 0.780995 0.009000 1.492165
v 0.783279 0.009000 1.491378
v 0.823002 0.009000 1.650165
v 0.874705 0.009000 1.802125
v 0.876582 0.009000 1.801073
v 0.978130 0.009000 1.929063
v 0.979748 0.009000 1.927404
v 1.115233 0.009000 2.036918
v 1.116732 0.009000 2.035274
v 1.227515 0.009000 2.156432
v 1.229717 0.009000 2.154996
v 1.288947 0.009000 2.304356
v 1.292136 0.009000 2.303204
v 1.336774 0.009000 2.460105
v 1.339924 0.009000 2.458766
v 1.414674 0.009000 2.599432
v 1.417215 0.009000 2.597876
v 1.503664 0.009000 2.732198
v 1.506360 0.009000 2.730966
v 1.547297 0.009000 2.889363
v 1.550186 0.009000 2.889047
v 1.541094 0.009000 3.072129
v 1.543514 0.009000 3.072041
v 1.560328 0.009000 3.240781
v 1.562622 0.009000 3.239745
v 1.672597 0.009000 3.364133
v 1.674623 0.009000 3.361473
v 1.842028 0.009000 3.456275
v 1.844064 0.009000 3.453226
v 1.973868 0.009000 3.565326
v 1.976599 0.009000 3.563230
v 2.037910 0.009000 3.711509
v 2.041188 0.009000 3.710128
v 2.098159 0.009000 3.860545
v 2.101135 0.009000 3.858657
v 2.209578 0.009000 3.981433
v 2.211601 0.009000 3.979532
v 2.323574 0.009000 4.099755
v 2.325723 0.009000 4.098700
v 2.349744 0.009000 4.266846
v 2.352654 0.009000 4.267093
v 2.290834 0.009000 4.478308
v 2.294029 0.009000 4.478976
v 2.265507 0.009000 4.669752
v 2.268617 0.009000 4.668988
v 2.369303 0.009000 4.797643
v 2.371449 0.009000 4.794816
v 2.548654 0.009000 4.885500
v 2.550693 0.009000 4.882279
v 2.681275 0.009000 4.994823
v 2.683800 0.009000 4.992913
v 2.743418 0.009000 5.142038
v 2.745636 0.009000 5.140883
v 2.828859 0.009000 5.277598
v 2.830598 0.009000 5.275656
v 2.995841 0.009000 5.368214
v 2.997158 0.009000 5.365856
v 3.155785 0.009000 5.459972
v 3.157850 0.009000 5.458506
v 3.180715 0.009000 5.628082
v 3.183568 0.009000 5.628610
v 3.080331 0.009000 5.863890
v 3.083556 0.009000 5.865091
v 3.013165 0.009000 6.077822
v 3.016326 0.009000 6.077680
v 3.096805 0.009000 6.215435
v 3.098574 0.009000 6.213561
v 3.260288 0.009000 6.311242
v 3.261863 0.009000 6.309340
v 3.363964 0.009000 6.436415
v 3.366031 0.009000 6.435368
v 3.405163 0.009000 6.594636
v 3.513409 0.009001 6.717978
v 3.747531 0.009001 6.774053
v 3.748125 0.009001 6.771584
v 3.971865 0.009001 6.829476
v 3.973449 0.009001 6.827464
v 4.017503 0.009001 6.985816
v 4.019711 0.009001 6.986203
v 3.900451 0.009001 7.233275
v 3.902446 0.009001 7.234143
v 3.812173 0.009001 7.460588
v 3.877770 0.009001 7.606051
v 4.006972 0.009001 7.718795
v 4.050847 0.009001 7.875509
v 4.039522 0.009001 8.060011
v 4.152558 0.009001 8.181498
v 4.449699 0.009001 8.205812
v 4.744476 0.009001 8.223214
v 4.829088 0.009001 8.358394
v 4.725265 0.009001 8.599892
v 4.647677 0.009001 8.822549
v 4.716781 0.009001 8.966301
v 4.809930 0.009001 9.097338
v 4.772649 0.009001 9.296469
v -0.030914 0.009000 0.248081
v -0.050674 0.009000 0.405882
v -0.061181 0.009000 0.564967
v -0.062752 0.009000 0.725067
v -0.075976 0.009000 0.884174
v -0.116271 0.009000 1.039446
v -0.168841 0.009000 1.194247
v -0.166741 0.009000 1.194799
v -0.199518 0.009000 1.351004
v -0.197215 0.009000 1.351278
v -0.205534 0.009000 1.512534
v -0.218500 0.009000 1.670082
v -0.252492 0.009000 1.826342
v -0.250362 0.009000 1.826711
v -0.273043 0.009000 1.984429
v -0.250577 0.009000 2.148278
v -0.248460 0.009000 2.147835
v -0.205738 0.009000 2.313076
v -0.202846 0.009000 2.312664
v -0.204846 0.009000 2.472566
v -0.201600 0.009000 2.473261
v -0.272770 0.009000 2.625959
v -0.270055 0.009000 2.627321
v -0.357274 0.009000 2.776736
v -0.354523 0.009000 2.777843
v -0.396234 0.009000 2.932725
v -0.393234 0.009000 2.933138
v -0.400627 0.009000 3.092930
v -0.398094 0.009000 3.093220
v -0.432157 0.009000 3.249307
v -0.430007 0.009000 3.250008
v -0.501129 0.009000 3.400522
v -0.498385 0.009000 3.401433
v -0.534839 0.009000 3.557287
v -0.531385 0.009000 3.557009
v -0.475204 0.009000 3.726987
v -0.472131 0.009000 3.725544
v -0.374777 0.009000 3.898440
v -0.371504 0.009000 3.897170
v -0.345834 0.009000 4.060185
v -0.342132 0.009000 4.060726
v -0.420613 0.009000 4.212795
v -0.417837 0.009000 4.214347
v -0.514688 0.009000 4.363163
v -0.512399 0.009000 4.364107
v -0.547041 0.009000 4.520147
v -0.544370 0.009000 4.520462
v -0.552435 0.009000 4.679823
v -0.549407 0.009000 4.680549
v -0.621665 0.009000 4.831357
v -0.619110 0.009000 4.833070
v -0.750120 0.009000 4.974310
v -0.747321 0.009000 4.976146
v -0.815369 0.009000 5.126594
v -0.811473 0.009000 5.126393
v -0.733499 0.009000 5.300676
v -0.730466 0.009000 5.298702
v -0.585736 0.009000 5.479007
v -0.583310 0.009000 5.477552
v -0.526687 0.009000 5.644331
v -0.524009 0.009000 5.644378
v -0.591322 0.009000 5.797604
v -0.588794 0.009000 5.798753
v -0.665821 0.009000 5.950220
v -0.663370 0.009000 5.950784
v -0.663425 0.009000 6.111154
v -0.660770 0.009000 6.111072
v -0.656214 0.009000 6.271648
v -0.653034 0.009000 6.272714
v -0.766824 0.009000 6.418841
v -0.764510 0.009000 6.421417
v -0.969073 0.009000 6.552781
v -0.967152 0.009000 6.554986
v -1.085063 0.009001 6.697108
v -1.082369 0.009001 6.697414
v -1.005167 0.009001 6.871520
v -1.003016 0.009001 6.870018
v -0.835578 0.009001 7.054513
v -0.833834 0.009001 7.053308
v -0.761207 0.009001 7.222494
v -0.812011 0.009001 7.377150
v -0.809664 0.009001 7.377750
v -0.842326 0.009001 7.534623
v -0.839643 0.009001 7.534298
v -0.772673 0.009001 7.702488
v -0.770341 0.009001 7.701674
v -0.726286 0.009001 7.866309
v -0.723979 0.009001 7.866991
v -0.863975 0.009001 8.012012
v -0.862662 0.009001 8.013991
v -1.136650 0.009001 8.139826
v -1.311642 0.009001 8.274816
v -1.257078 0.009001 8.444434
v -1.100583 0.009001 8.626956
v -1.045241 0.009001 8.794353
v -1.093924 0.009001 8.949011
v -1.070509 0.009001 9.112336
v -0.909182 0.009001 9.290091
v -0.794261 0.009001 9.460467
v -0.930857 0.009001 9.608139
v -1.251217 0.009001 9.732411
v -1.474939 0.009001 9.862193
v -1.456626 0.009001 10.025990
v -1.346336 0.009001 10.202175
v -1.350801 0.009001 10.362328
v -0.174791 0.009000 0.178740
v -0.287165 0.009000 0.288732
v -0.398493 0.009000 0.403435
v -0.507084 0.009000 0.521944
v -0.624529 0.009000 0.630445
v -0.622293 0.009000 0.630436
v -0.756293 0.009000 0.724092
v -0.890811 0.009000 0.813366
v -1.003773 0.009000 0.925920
v -1.095179 0.009000 1.060523
v -1.194700 0.009000 1.195919
v -1.192200 0.009000 1.195814
v -1.420565 0.009000 1.412389
v -1.418772 0.009000 1.413953
v -1.515383 0.009000 1.543107
v -1.512891 0.009000 1.544801
v -1.602866 0.009000 1.679949
v -1.600621 0.009000 1.681908
v -1.724781 0.009000 1.783169
v -1.723355 0.009000 1.785692
v -2.054858 0.009000 1.901273
v -2.053820 0.009000 1.903981
v -2.172322 0.009000 2.009975
v -2.170580 0.009000 2.011320
v -2.252586 0.009000 2.157415
v -2.250468 0.009000 2.158708
v -2.344583 0.009000 2.291228
v -2.342238 0.009000 2.293325
v -2.465722 0.009000 2.395103
v -2.463479 0.009000 2.397455
v -2.575507 0.009000 2.511410
v -2.572664 0.009000 2.513168
v -2.638738 0.009000 2.674435
v -2.635170 0.009000 2.675664
v -2.690644 0.009000 2.845262
v -2.687596 0.009000 2.847102
v -2.806506 0.009000 2.953820
v -2.805353 0.009000 2.956302
v -2.998676 0.009000 2.988577
v -2.998239 0.009000 2.991118
v -3.190809 0.009000 3.019777
v -3.189692 0.009000 3.022521
v -3.317693 0.009000 3.118531
v -3.315458 0.009000 3.120467
v -3.401125 0.009000 3.262279
v -3.398655 0.009000 3.264100
v -3.509856 0.009000 3.378496
v -3.507536 0.009000 3.381451
v -3.652987 0.009000 3.459404
v -3.650542 0.009000 3.462473
v -3.760519 0.009000 3.578803
v -3.757543 0.009000 3.580045
v -3.786637 0.009000 3.780709
v -3.783806 0.009000 3.780931
v -3.793073 0.009000 3.996623
v -3.790292 0.009000 3.997464
v -3.889648 0.009000 4.123156
v -3.888459 0.009000 4.125478
v -4.091600 0.009000 4.149322
v -4.091325 0.009000 4.151757
v -4.296825 0.009000 4.168880
v -4.295820 0.009000 4.171808
v -4.427413 0.009000 4.264104
v -4.424877 0.009000 4.266620
v -4.521926 0.009000 4.395452
v -4.519787 0.009000 4.397873
v -4.665748 0.009000 4.475186
v -4.664758 0.009000 4.477964
v -4.850057 0.009000 4.512395
v -4.848796 0.009000 4.515049
v -4.969124 0.009000 4.619901
v -4.966788 0.009000 4.620695
v -4.965133 0.009000 4.854220
v -4.928495 0.009000 5.116103
v -4.926248 0.009000 5.116275
v -4.997851 0.009000 5.268939
v -4.996264 0.009000 5.271142
v -5.190313 0.009000 5.304100
v -5.189863 0.009000 5.306690
v -5.384604 0.009000 5.336171
v -5.383538 0.009000 5.338496
v -5.500498 0.009000 5.446336
v -5.498538 0.009000 5.448171
v -5.602659 0.009000 5.569104
v -5.601566 0.009000 5.571154
v -5.792638 0.009000 5.603507
v -6.034738 0.009000 5.579411
v -6.182249 0.009000 5.654448
v -6.168436 0.009000 5.902476
v -6.101923 0.009000 6.196948
v -6.148206 0.009000 6.374380
v -6.319091 0.009000 6.430796
v -6.476267 0.009000 6.499128
v -6.550853 0.009001 6.649642
v -6.644835 0.009001 6.780668
v -6.878544 0.009001 6.772630
v -7.185930 0.009001 6.681886
v -7.376956 0.009001 6.709606
v -7.374212 0.009001 6.947178
v -7.305367 0.009001 7.247663
v -7.347287 0.009001 7.431008
v -0.234577 0.009000 0.086451
v -0.369345 0.009000 0.127528
v -0.537126 0.009000 0.180202
v -0.687930 0.009000 0.233622
v -0.841863 0.009000 0.280662
v -0.998275 0.009000 0.312666
v -1.154400 0.009000 0.349778
v -1.299788 0.009000 0.419034
v -1.435747 0.009000 0.513948
v -1.576015 0.009000 0.594146
v -1.730849 0.009000 0.634782
v -1.730294 0.009000 0.637281
v -1.890237 0.009000 0.662571
v -1.889563 0.009000 0.665267
v -2.041793 0.009000 0.712472
v -2.040833 0.009000 0.715040
v -2.188949 0.009000 0.774105
v -2.188099 0.009000 0.776979
v -2.347353 0.009000 0.802828
v -2.347204 0.009000 0.805755
v -2.518923 0.009000 0.791209
v -2.518957 0.009000 0.793518
v -2.683798 0.009000 0.798261
v -2.683172 0.009000 0.800373
v -2.825458 0.009000 0.881926
v -2.823688 0.009000 0.884072
v -2.949123 0.009000 1.016426
v -2.947053 0.009000 1.018645
v -3.080964 0.009000 1.120266
v -3.079562 0.009000 1.123018
v -3.235021 0.009000 1.161757
v -3.234185 0.009000 1.165259
v -3.392813 0.009000 1.194339
v -3.391522 0.009000 1.197905
v -3.535066 0.009000 1.270697
v -3.533546 0.009000 1.273391
v -3.674071 0.009000 1.353777
v -3.673313 0.009000 1.356282
v -3.839556 0.009000 1.363035
v -3.840005 0.009000 1.365854
v -4.030090 0.009000 1.296752
v -4.030869 0.009000 1.299527
v -4.209162 0.009000 1.259385
v -4.208792 0.009000 1.262162
v -4.352356 0.009000 1.339584
v -4.350068 0.009000 1.342134
v -4.470738 0.009000 1.493035
v -4.467814 0.009000 1.495762
v -4.600106 0.009000 1.605297
v -4.598398 0.009000 1.608453
v -4.754074 0.009000 1.646758
v -4.753154 0.009000 1.649684
v -4.904323 0.009000 1.701226
v -4.902626 0.009000 1.703786
v -5.150918 0.009000 1.954367
v -5.149751 0.009000 1.956532
v -5.319219 0.009000 1.957368
v -5.320000 0.009000 1.960019
v -5.527922 0.009000 1.842520
v -5.529457 0.009000 1.845641
v -5.722780 0.009000 1.758597
v -5.722999 0.009000 1.762023
v -5.871544 0.009000 1.820937
v -5.869620 0.009000 1.823423
v -5.992404 0.009000 1.966791
v -5.990232 0.009000 1.969145
v -6.129120 0.009000 2.058916
v -6.128062 0.009000 2.061607
v -6.288778 0.009000 2.083755
v -6.288074 0.009000 2.085814
v -6.430216 0.009000 2.163333
v -6.630898 0.009000 2.546673
v -6.628924 0.009000 2.548754
v -6.793374 0.009000 2.565570
v -6.794169 0.009000 2.568074
v -7.013519 0.009000 2.424553
v -7.014995 0.009000 2.427015
v -7.220131 0.009000 2.309728
v -7.220677 0.009000 2.312441
v -7.374257 0.009000 2.353281
v -7.504160 0.009000 2.469337
v -7.659088 0.009000 2.508360
v -7.833362 0.009000 2.487233
v -7.972484 0.009000 2.575357
v -8.051601 0.009000 2.835713
v -8.125180 0.009000 3.101145
v -8.274495 0.009000 3.156886
v -8.494943 0.009000 3.020199
v -8.702429 0.009000 2.906609
v -8.857292 0.009000 2.946056
v -8.998801 0.009000 3.025372
v -9.179931 0.009000 2.985234
v -9.378387 0.009000 2.886352
v -9.523744 0.009000 2.955774
v -9.590728 0.009000 3.265163
v -9.642526 0.009000 3.594254
v -9.774654 0.009000 3.695760
v -0.243088 0.009000 -0.058378
v -0.390753 0.009000 -0.105568
v -0.547702 0.009000 -0.151841
v -0.857583 0.009000 -0.220594
v -0.858322 0.009000 -0.219268
v -1.012985 0.009000 -0.265227
v -1.166943 0.009000 -0.305524
v -1.327454 0.009000 -0.319482
v -1.491376 0.009000 -0.317446
v -1.648955 0.009000 -0.343004
v -1.649691 0.009000 -0.340670
v -1.796126 0.009000 -0.414867
v -1.797316 0.009000 -0.412679
v -1.939164 0.009000 -0.501080
v -1.940362 0.009000 -0.498577
v -2.089884 0.009000 -0.555705
v -2.090641 0.009000 -0.552822
v -2.247789 0.009000 -0.582016
v -2.248333 0.009000 -0.579580
v -2.401219 0.009000 -0.624649
v -2.401962 0.009000 -0.622694
v -2.547161 0.009000 -0.695799
v -2.548070 0.009000 -0.693525
v -2.699550 0.009000 -0.744212
v -2.699788 0.009000 -0.741437
v -2.870183 0.009000 -0.723616
v -2.869594 0.009000 -0.720877
v -3.046569 0.009000 -0.669865
v -3.046062 0.009000 -0.666644
v -3.208650 0.009000 -0.670682
v -3.209679 0.009000 -0.667026
v -3.352673 0.009000 -0.756129
v -3.354583 0.009000 -0.753289
v -3.492016 0.009000 -0.860678
v -3.493352 0.009000 -0.858239
v -3.643109 0.009000 -0.914919
v -3.643818 0.009000 -0.912195
v -3.800736 0.009000 -0.941121
v -3.801626 0.009000 -0.938391
v -3.946454 0.009000 -1.013606
v -3.947951 0.009000 -1.011453
v -4.078973 0.009000 -1.134764
v -4.080694 0.009000 -1.132297
v -4.224776 0.009000 -1.208132
v -4.225090 0.009000 -1.204321
v -4.403574 0.009000 -1.161859
v -4.402138 0.009000 -1.158318
v -4.592985 0.009000 -1.058614
v -4.591845 0.009000 -1.055511
v -4.761923 0.009000 -1.029578
v -4.762451 0.009000 -1.026379
v -4.906675 0.009000 -1.110388
v -4.908300 0.009000 -1.107755
v -5.048360 0.009000 -1.206039
v -5.049325 0.009000 -1.203751
v -5.205369 0.009000 -1.236017
v -5.205738 0.009000 -1.233564
v -5.364491 0.009000 -1.253899
v -5.365776 0.009000 -1.250942
v -5.500922 0.009000 -1.364900
v -5.503594 0.009000 -1.362652
v -5.616310 0.009000 -1.553401
v -5.618845 0.009000 -1.551344
v -5.749777 0.009000 -1.670851
v -5.750471 0.009000 -1.667552
v -5.930808 0.009000 -1.619555
v -5.929366 0.009000 -1.616579
v -6.129307 0.009000 -1.486824
v -6.128191 0.009000 -1.484519
v -6.303895 0.009000 -1.437083
v -6.451312 0.009000 -1.506068
v -6.452308 0.009000 -1.503768
v -6.601048 0.009000 -1.567209
v -6.601352 0.009000 -1.564501
v -6.770828 0.009000 -1.541949
v -6.770529 0.009000 -1.539335
v -6.936385 0.009000 -1.528746
v -6.937533 0.009000 -1.526076
v -7.066858 0.009000 -1.669426
v -7.069551 0.009000 -1.667875
v -7.166129 0.009000 -1.927853
v -7.168420 0.009000 -1.926705
v -7.284545 0.009000 -2.100179
v -7.459533 0.009000 -2.067004
v -7.658981 0.009000 -1.936528
v -7.833274 0.009000 -1.895606
v -7.981889 0.009000 -1.958778
v -8.143202 0.009000 -1.972478
v -8.142591 0.009000 -1.970221
v -8.331944 0.009000 -1.865180
v -8.331015 0.009000 -1.863281
v -8.510349 0.009000 -1.791536
v -8.641504 0.009000 -1.938443
v -8.730375 0.009000 -2.250034
v -8.835104 0.009000 -2.474182
v -9.000746 0.009000 -2.473267
v -9.191202 0.009000 -2.377622
v -9.354448 0.009000 -2.382684
v -9.497195 0.009000 -2.467480
v -9.669334 0.009000 -2.437679
v -9.881200 0.009000 -2.237190
v -10.077814 0.009000 -2.081976
v -10.215097 0.009000 -2.203243
v -0.144918 0.009000 -0.203713
v -0.229550 0.009000 -0.338139
v -0.322094 0.009000 -0.468524
v -0.427285 0.009000 -0.589648
v -0.533993 0.009000 -0.708282
v -0.628453 0.009000 -0.834745
v -0.721948 0.009000 -0.965904
v -0.827214 0.009000 -1.084614
v -0.939726 0.009000 -1.201082
v -0.941403 0.009000 -1.199720
v -1.029892 0.009000 -1.336331
v -1.030447 0.009000 -1.332711
v -1.084710 0.009000 -1.491444
v -1.133638 0.009000 -1.651246
v -1.136009 0.009000 -1.650078
v -1.225230 0.009000 -1.782094
v -1.226789 0.009000 -1.780662
v -1.351550 0.009000 -1.888261
v -1.353016 0.009000 -1.886621
v -1.468683 0.009000 -2.000006
v -1.470616 0.009000 -1.998359
v -1.558588 0.009000 -2.131586
v -1.560644 0.009000 -2.130104
v -1.655094 0.009000 -2.258762
v -1.657062 0.009000 -2.256725
v -1.790901 0.009000 -2.356701
v -1.792869 0.009000 -2.353734
v -1.935966 0.009000 -2.445470
v -1.938428 0.009000 -2.442830
v -2.026671 0.009000 -2.575966
v -2.029494 0.009000 -2.574950
v -2.049093 0.009000 -2.759111
v -2.051915 0.009000 -2.758801
v -2.067072 0.009000 -2.943043
v -2.069858 0.009000 -2.942180
v -2.148992 0.009000 -3.080953
v -2.150939 0.009000 -3.079262
v -2.277588 0.009000 -3.185379
v -2.279397 0.009000 -3.183481
v -2.383604 0.009000 -3.305078
v -2.386475 0.009000 -3.303163
v -2.453852 0.009000 -3.450747
v -2.457111 0.009000 -3.448685
v -2.554788 0.009000 -3.575367
v -2.556782 0.009000 -3.572500
v -2.731699 0.009000 -3.643842
v -2.732751 0.009000 -3.640633
v -2.924003 0.009000 -3.696461
v -2.925675 0.009000 -3.693525
v -3.031022 0.009000 -3.813631
v -3.033619 0.009000 -3.812691
v -3.037639 0.009000 -4.009888
v -3.039987 0.009000 -4.009861
v -3.035568 0.009000 -4.209733
v -3.038405 0.009000 -4.209127
v -3.110495 0.009000 -4.352914
v -3.113207 0.009000 -4.350852
v -3.228720 0.009000 -4.464177
v -3.231363 0.009000 -4.462199
v -3.301284 0.009000 -4.607635
v -3.304533 0.009000 -4.606597
v -3.330125 0.009000 -4.782514
v -3.333491 0.009000 -4.781188
v -3.422472 0.009000 -4.913728
v -3.423972 0.009000 -4.911079
v -3.637519 0.009000 -4.956096
v -3.637807 0.009000 -4.953794
v -3.881654 0.009000 -4.970963
v -3.882335 0.009000 -4.968637
v -4.016146 0.009000 -5.066687
v -4.018567 0.009000 -5.065471
v -4.026489 0.009000 -5.260035
v -4.029097 0.009000 -5.259948
v -4.029097 0.009000 -5.457753
v -4.031819 0.009000 -5.457036
v -4.114127 0.009000 -5.593746
v -4.116731 0.009000 -5.591764
v -4.222115 0.009000 -5.711699
v -4.224874 0.009000 -5.710469
v -4.246951 0.009000 -5.890419
v -4.249296 0.009000 -5.890473
v -4.213223 0.009000 -6.109409
v -4.215384 0.009000 -6.109245
v -4.276252 0.009000 -6.260115
v -4.511934 0.009000 -6.289660
v -4.797400 0.009000 -6.276534
v -4.960057 0.009000 -6.352256
v -4.961952 0.009000 -6.350808
v -4.989803 0.009000 -6.529982
v -4.992192 0.009000 -6.529542
v -5.025781 0.008999 -6.703328
v -5.148127 0.008999 -6.811292
v -5.260537 0.008999 -6.925491
v -5.237565 0.008999 -7.141518
v -5.130550 0.008999 -7.413434
v -5.143847 0.008999 -7.597464
v -5.375051 0.008999 -7.631468
v -5.675912 0.008999 -7.610215
v -5.852295 0.008999 -7.676814
v -5.905350 0.008999 -7.836599
v -5.994227 0.008999 -7.969163
v -6.182674 0.008999 -8.026012
v -6.325514 0.008999 -8.116948
v -6.272127 0.008999 -8.358404
v -0.035158 0.009000 -0.247516
v -0.054148 0.009000 -0.405414
v -0.085314 0.009000 -0.562243
v -0.131911 0.009000 -0.715003
v -0.175698 0.009000 -0.869818
v -0.197671 0.009000 -1.027426
v -0.208302 0.009000 -1.187730
v -0.231114 0.009000 -1.344741
v -0.262823 0.009000 -1.502141
v -0.265301 0.009000 -1.501787
v -0.275030 0.009000 -1.661531
v -0.277670 0.009000 -1.661570
v -0.258110 0.009000 -1.825361
v -0.260298 0.009000 -1.825516
v -0.253301 0.009000 -1.987040
v -0.302770 0.009000 -2.141548
v -0.304869 0.009000 -2.140555
v -0.394603 0.009000 -2.288479
v -0.396641 0.009000 -2.287365
v -0.464549 0.009000 -2.437486
v -0.466866 0.009000 -2.436821
v -0.482491 0.009000 -2.596001
v -0.485610 0.009000 -2.595760
v -0.488597 0.009000 -2.756988
v -0.492136 0.009000 -2.756465
v -0.529121 0.009000 -2.911858
v -0.532177 0.009000 -2.910963
v -0.579025 0.009000 -3.064449
v -0.581897 0.009000 -3.064063
v -0.571690 0.009000 -3.227296
v -0.574598 0.009000 -3.227968
v -0.501550 0.009000 -3.400092
v -0.504068 0.009000 -3.400964
v -0.454111 0.009000 -3.567962
v -0.456481 0.009000 -3.567923
v -0.506778 0.009000 -3.722479
v -0.509361 0.009000 -3.720982
v -0.626022 0.009000 -3.866075
v -0.629030 0.009000 -3.863952
v -0.711321 0.009000 -4.012712
v -0.714704 0.009000 -4.011561
v -0.729832 0.009000 -4.170926
v -0.733243 0.009000 -4.170485
v -0.752222 0.009000 -4.329179
v -0.755612 0.009000 -4.327991
v -0.836900 0.009000 -4.476091
v -0.839609 0.009000 -4.474501
v -0.924230 0.009000 -4.621007
v -0.926597 0.009000 -4.620479
v -0.906415 0.009000 -4.786093
v -0.908842 0.009000 -4.787073
v -0.783305 0.009000 -4.968845
v -0.786050 0.009000 -4.970522
v -0.687218 0.009000 -5.144438
v -0.690427 0.009000 -5.144996
v -0.725669 0.009000 -5.301138
v -0.728608 0.009000 -5.299573
v -0.846498 0.009000 -5.444756
v -0.849614 0.009000 -5.442670
v -0.921327 0.009000 -5.593546
v -0.924726 0.009000 -5.592651
v -0.928313 0.009000 -5.753726
v -0.930950 0.009000 -5.753286
v -0.974452 0.009000 -5.908187
v -0.976482 0.009000 -5.906824
v -1.270274 0.009000 -6.177698
v -1.272649 0.009000 -6.176330
v -1.262601 0.009000 -6.340348
v -1.265005 0.009000 -6.341467
v -1.104705 0.009000 -6.531035
v -1.107254 0.009000 -6.533027
v -0.970455 0.008999 -6.713836
v -0.973643 0.008999 -6.714920
v -0.988810 0.008999 -6.873289
v -0.991389 0.008999 -6.872309
v -1.086878 0.008999 -7.019778
v -1.089089 0.008999 -7.018837
v -1.117900 0.008999 -7.175758
v -1.120285 0.008999 -7.175763
v -1.087350 0.008999 -7.341803
v -1.146503 0.008999 -7.494056
v -1.363732 0.008999 -7.620450
v -1.364849 0.008999 -7.618446
v -1.585136 0.008999 -7.740006
v -1.587087 0.008999 -7.738269
v -1.610038 0.008999 -7.896268
v -1.612214 0.008999 -7.897123
v -1.447322 0.008999 -8.089499
v -1.448965 0.008999 -8.090827
v -1.304299 0.008999 -8.275979
v -1.314164 0.008999 -8.435781
v -1.377161 0.008999 -8.587148
v -1.335029 0.008999 -8.755036
v -1.232234 0.008999 -8.931019
v -1.279156 0.008999 -9.085395
v -1.550732 0.008999 -9.204687
v -1.843717 0.008999 -9.313003
v -1.914580 0.008999 -9.461354
v -1.777717 0.008999 -9.650229
v -1.664093 0.008999 -9.832045
v -1.696377 0.008999 -9.988838
v -1.732308 0.008999 -10.143770
v -1.603025 0.008999 -10.326317
v 0.092410 0.009000 -0.232294
v 0.151299 0.009000 -0.380093
v 0.200399 0.009000 -0.531994
v 0.239265 0.009000 -0.687156
v 0.287962 0.009000 -0.839416
v 0.362000 0.009000 -0.981720
v 0.447631 0.009000 -1.119638
v 0.517681 0.009000 -1.263710
v 0.515432 0.009000 -1.264610
v 0.567329 0.009000 -1.415588
v 0.565243 0.009000 -1.416334
v 0.623876 0.009000 -1.564609
v 0.701348 0.009000 -1.705071
v 0.699430 0.009000 -1.706010
v 0.765416 0.009000 -1.851278
v 0.763319 0.009000 -1.851830
v 0.783213 0.009000 -2.016056
v 0.781141 0.009000 -2.016118
v 0.775794 0.009000 -2.188808
v 0.773195 0.009000 -2.188982
v 0.805969 0.009000 -2.346583
v 0.802918 0.009000 -2.347870
v 0.899904 0.009000 -2.482022
v 0.897341 0.009000 -2.484014
v 1.011118 0.009000 -2.610705
v 1.008685 0.009000 -2.612359
v 1.084380 0.009000 -2.753526
v 1.081575 0.009000 -2.754671
v 1.131627 0.009000 -2.906151
v 1.129027 0.009000 -2.907269
v 1.209881 0.009000 -3.046371
v 1.208022 0.009000 -3.047737
v 1.326175 0.009000 -3.171040
v 1.324138 0.009000 -3.172576
v 1.408916 0.009000 -3.309767
v 1.405661 0.009000 -3.310519
v 1.399560 0.009000 -3.486782
v 1.396097 0.009000 -3.486163
v 1.343151 0.009000 -3.678919
v 1.339781 0.009000 -3.678414
v 1.345511 0.009000 -3.846504
v 1.342017 0.009000 -3.847630
v 1.440642 0.009000 -3.981178
v 1.437882 0.009000 -3.983357
v 1.552959 0.009000 -4.109878
v 1.550663 0.009000 -4.111296
v 1.611371 0.009000 -4.258510
v 1.609028 0.009000 -4.259284
v 1.653142 0.009000 -4.412800
v 1.650519 0.009000 -4.414229
v 1.765079 0.009000 -4.540034
v 1.763111 0.009000 -4.542506
v 1.940345 0.009000 -4.641182
v 1.938428 0.009000 -4.643700
v 2.059907 0.009000 -4.764574
v 2.056409 0.009000 -4.765708
v 2.039885 0.009000 -4.947137
v 2.036179 0.009000 -4.946078
v 1.948576 0.009000 -5.154278
v 1.945575 0.009000 -5.153410
v 1.927983 0.009000 -5.331015
v 1.925594 0.009000 -5.330331
v 2.010869 0.009000 -5.470534
v 2.101153 0.009000 -5.606761
v 2.098639 0.009000 -5.607622
v 2.116616 0.009000 -5.771291
v 2.114127 0.009000 -5.771547
v 2.134881 0.009000 -5.933609
v 2.132255 0.009000 -5.935118
v 2.277119 0.009000 -6.050092
v 2.275537 0.009000 -6.053236
v 2.518611 0.009000 -6.126390
v 2.517361 0.009000 -6.129282
v 2.688664 0.009000 -6.228703
v 2.686337 0.009000 -6.230042
v 2.679477 0.009000 -6.406825
v 2.676934 0.009000 -6.406118
v 2.580638 0.008999 -6.618537
v 2.578399 0.009000 -6.617847
v 2.557944 0.008999 -6.797121
v 2.637500 0.008999 -6.937376
v 2.635535 0.008999 -6.938214
v 2.684298 0.008999 -7.090659
v 2.681657 0.008999 -7.090594
v 2.629378 0.008999 -7.281106
v 2.626869 0.008999 -7.280521
v 2.596635 0.008999 -7.461066
v 2.751300 0.008999 -7.574263
v 2.750462 0.008999 -7.576470
v 3.048603 0.008999 -7.631523
v 3.048064 0.008999 -7.633537
v 3.269074 0.008999 -7.714023
v 3.286782 0.008999 -7.879459
v 3.211484 0.008999 -8.082199
v 3.222610 0.008999 -8.249121
v 3.315025 0.008999 -8.384039
v 3.320572 0.008999 -8.553037
v 3.179875 0.008999 -8.776229
v 3.074676 0.008999 -8.982075
v 3.211935 0.008999 -9.103093
v 3.537016 0.008999 -9.152863
v 3.790266 0.008999 -9.223458
v 3.836363 0.008999 -9.376810
v 3.808920 0.008999 -9.559765
v 3.889860 0.008999 -9.699045
v 0.217971 0.009000 -0.122429
v 0.356924 0.009000 -0.198097
v 0.494089 0.009000 -0.279079
v 0.629530 0.009000 -0.365297
v 0.770680 0.009000 -0.439783
v 0.920134 0.009000 -0.491014
v 1.079078 0.009000 -0.538919
v 1.078295 0.009000 -0.540847
v 1.220502 0.009000 -0.612667
v 1.347199 0.009000 -0.710915
v 1.478272 0.009000 -0.807425
v 1.756996 0.009000 -0.954868
v 1.755190 0.009000 -0.956092
v 1.883761 0.009000 -1.062662
v 1.881826 0.009000 -1.064773
v 2.001149 0.009000 -1.177794
v 1.999308 0.009000 -1.180331
v 2.142634 0.009000 -1.250552
v 2.141850 0.009000 -1.253366
v 2.316758 0.009000 -1.265794
v 2.316542 0.009000 -1.268793
v 2.492104 0.009000 -1.275689
v 2.491428 0.009000 -1.278604
v 2.638397 0.009000 -1.340706
v 2.637088 0.009000 -1.342735
v 2.761491 0.009000 -1.449854
v 2.760091 0.009000 -1.451617
v 2.892622 0.009000 -1.542372
v 2.891228 0.009000 -1.544939
v 3.041655 0.009000 -1.601367
v 3.040196 0.009000 -1.604363
v 3.179824 0.009000 -1.682071
v 3.177573 0.009000 -1.684461
v 3.282459 0.009000 -1.827939
v 3.279422 0.009000 -1.829844
v 3.373058 0.009000 -1.989721
v 3.370262 0.009000 -1.992253
v 3.506184 0.009000 -2.075720
v 3.505458 0.009000 -2.078720
v 3.694340 0.009000 -2.067848
v 3.694510 0.009000 -2.070343
v 3.885667 0.009000 -2.049910
v 3.885362 0.009000 -2.052683
v 4.037142 0.009000 -2.105459
v 4.035632 0.009000 -2.108104
v 4.163249 0.009000 -2.208153
v 4.161684 0.009000 -2.210684
v 4.308667 0.009000 -2.273107
v 4.307745 0.009000 -2.276411
v 4.476877 0.009000 -2.295141
v 4.475686 0.009000 -2.298934
v 4.618430 0.009000 -2.370608
v 4.615712 0.009000 -2.372911
v 4.699638 0.009000 -2.558556
v 4.696928 0.009000 -2.559505
v 4.759942 0.009000 -2.775661
v 4.757450 0.009000 -2.777006
v 4.877292 0.009000 -2.888494
v 4.876415 0.009000 -2.891135
v 5.067322 0.009000 -2.877711
v 5.067532 0.009000 -2.880146
v 5.262263 0.009000 -2.855267
v 5.261963 0.009000 -2.857989
v 5.411567 0.009000 -2.915323
v 5.409914 0.009000 -2.918359
v 5.542666 0.009000 -3.007408
v 5.541481 0.009000 -3.010635
v 5.712800 0.009000 -3.026274
v 5.712958 0.009000 -3.029242
v 5.912300 0.009000 -2.987842
v 5.912214 0.009000 -2.990733
v 6.067087 0.009000 -3.037341
v 6.065022 0.009000 -3.039079
v 6.135480 0.009000 -3.253101
v 6.133433 0.009000 -3.253544
v 6.170090 0.009000 -3.519134
v 6.271636 0.009000 -3.663591
v 6.269901 0.009000 -3.665102
v 6.451478 0.009000 -3.670455
v 6.634741 0.009000 -3.670562
v 6.633672 0.009000 -3.672948
v 6.895006 0.009000 -3.855196
v 6.894551 0.009000 -3.857657
v 7.094400 0.009000 -3.824068
v 7.333971 0.009000 -3.709561
v 7.511358 0.009000 -3.711128
v 7.579764 0.009000 -3.928857
v 7.604566 0.009000 -4.219742
v 7.695081 0.009000 -4.383934
v 7.861899 0.009000 -4.412805
v 8.014529 0.009000 -4.466324
v 8.110534 0.009000 -4.620660
v 8.225856 0.009000 -4.739894
v 8.448373 0.009000 -4.669888
v 8.729527 0.009000 -4.481135
v 8.937102 0.009000 -4.423403
v 9.018219 0.009000 -4.616705
v 9.050683 0.009000 -4.897155
v 9.147989 0.009000 -5.051416
vn -0.0000 -1.0000 -0.0000
vt 0.500097 0.196875
vt 1.000000 0.225000
vt 0.000000 0.225000
vt 0.000000 0.253125
vt 1.000000 0.253125
vt 0.000000 0.281250
vt 1.000000 0.281250
vt 0.000000 0.309375
vt 1.000000 0.309375
vt 0.000000 0.337500
vt 1.000000 0.337500
vt 0.000000 0.365625
vt 1.000000 0.365625
vt 0.000000 0.393750
vt 1.000000 0.393750
vt 0.000000 0.421875
vt 1.000000 0.421875
vt 0.000000 0.450000
vt 1.000000 0.450000
vt 0.000000 0.478125
vt 1.000000 0.478125
vt 0.000000 0.506250
vt 1.000000 0.506250
vt 0.000000 0.534375
vt 1.000000 0.534375
vt 0.000000 0.562500
vt 1.000000 0.562500
vt 0.000000 0.590625
vt 1.000000 0.590625
vt 0.000000 0.618750
vt 1.000000 0.618750
vt 0.000000 0.646875
vt 1.000000 0.646875
vt 0.000000 0.675000
vt 1.000000 0.675000
vt 0.000000 0.703125
vt 1.000000 0.703125
vt 0.000000 0.731250
vt 1.000000 0.731250
vt 0.000000 0.759375
vt 1.000000 0.759375
vt 0.000000 0.787500
vt 1.000000 0.787500
vt 0.000000 0.815625
vt 1.000000 0.815625
vt 0.000000 0.843750
vt 1.000000 0.843750
vt 0.000000 0.871875
vt 1.000000 0.871875
vt 0.000000 0.900000
vt 1.000000 0.900000
vt 0.000000 0.928125
vt 1.000000 0.928125
vt 0.000000 0.956250
vt 1.000000 0.956250
vt 0.000000 0.984375
vt 1.000000 0.984375
vt 0.000000 1.012500
vt 1.000000 1.012500
vt 0.000000 1.040625
vt 1.000000 1.040625
vt 0.000000 1.068750
vt 1.000000 1.068750
vt 0.000000 1.096989
vt 1.000000 1.096875
vt 1.000000 1.125000
vt 0.000000 1.153125
vt 1.000000 1.153125
vt 0.000000 1.181250
vt 1.000000 1.181250
vt 0.000000 1.209375
vt 1.000000 1.209375
vt 0.000000 1.237500
vt 1.000000 1.237500
vt 0.000000 1.265625
vt 1.000000 1.265625
vt 0.499108 1.293750
vt 0.500371 1.378125
vt 1.000000 1.406250
vt 0.000000 1.406250
vt 0.000000 1.434375
vt 1.000000 1.434375
vt 0.499485 1.462500
vt 0.500051 0.196875
vt 0.000000 0.308973
vt 1.000000 0.309116
vt 0.499871 0.337500
vt 0.000000 0.449617
vt 1.000000 0.449477
vt 0.000000 0.590403
vt 1.000000 0.590440
vt 0.000000 0.815765
vt 1.000000 0.872002
vt 0.000000 1.096875
vt 0.000000 1.125000
vt 0.499771 1.293750
vt 0.500189 1.350000
vt 1.000000 1.378125
vt 0.000000 1.378125
vt -0.003723 1.434480
vt 0.499944 1.462500
vt 0.499918 0.168750
vt 1.000000 0.196875
vt 0.000000 0.196875
vt 0.500018 0.281250
vt 0.499907 1.265625
vt 0.500191 1.293750
vt 1.000000 1.321875
vt 0.000000 1.321875
vt 0.000000 1.350000
vt 1.000000 1.350000
vt 0.500233 1.434375
vt 0.499963 0.140625
vt 1.000000 0.168750
vt 0.000000 0.168750
vt 0.499999 0.225000
vt 0.500025 0.253125
vt 0.499932 0.309375
vt 0.500560 1.237500
vt 0.000000 1.293750
vt 1.000000 1.293750
vt 0.501125 1.406250
vt 0.499998 0.084375
vt 1.010657 0.112200
vt 0.000000 0.112500
vt 1.000000 0.140625
vt 0.500018 0.168750
vt 0.500005 0.225000
vt 1.000000 0.253878
vt 0.000000 0.254179
vt 0.000000 0.449971
vt 1.000000 0.450045
vt 0.499777 1.181250
vt 0.500264 1.378125
vt 0.500126 0.253125
vt 0.000000 0.928098
vt 1.000000 0.928074
vt 0.499817 1.153125
vt 1.000000 1.209321
vt 0.000000 1.209343
vt 0.499955 1.321875
vt 0.500008 0.056250
vt 1.000000 0.112216
vt 0.000000 0.112148
vt 0.500017 0.140625
vt 0.500087 0.225000
vt 0.500565 1.096875
vt 0.499030 1.293750
vt 0.499960 1.406250
vt 0.000000 1.462500
vt 1.000000 1.462500
vt 0.500817 1.490625
vt 0.500037 0.056250
vt 0.035495 0.111502
vt 0.000000 0.084375
vt 0.500031 0.196875
vt 0.000000 0.253619
vt 0.499605 1.293750
vt 0.500438 1.350000
vt 0.499915 1.434375
vt 0.499978 0.196875
vt 0.499884 0.309375
vt 0.000000 1.068786
vt 1.000000 1.068763
vt 0.500005 1.265625
vt 0.499772 1.293750
vt 0.500205 1.434375
vt 0.499897 0.168750
vt 0.500049 0.253125
vt 1.005723 0.956089
vt 0.500464 1.237500
vt 0.500665 1.350000
vt 0.499487 1.434375
vt 0.499876 0.140625
vt 0.499918 0.196875
vt 0.499959 0.253125
vt 1.000000 0.308613
vt 0.000000 0.308752
vt 0.500212 1.209375
vt 0.000000 1.237587
vt 0.000000 1.293985
vt 1.000000 1.293933
vt 0.500516 1.378125
s 1
f 7/1/1 9/2/1 8/3/1
f 8/3/1 9/2/1 10/4/1
f 9/2/1 11/5/1 10/4/1
f 10/4/1 11/5/1 12/6/1
f 11/5/1 13/7/1 12/6/1
f 12/6/1 13/7/1 14/8/1
f 13/7/1 15/9/1 14/8/1
f 14/8/1 15/9/1 16/10/1
f 15/9/1 17/11/1 16/10/1
f 16/10/1 17/11/1 18/12/1
f 17/11/1 19/13/1 18/12/1
f 18/12/1 19/13/1 20/14/1
f 19/13/1 21/15/1 20/14/1
f 20/14/1 21/15/1 22/16/1
f 21/15/1 23/17/1 22/16/1
f 22/16/1 23/17/1 24/18/1
f 23/17/1 25/19/1 24/18/1
f 24/18/1 25/19/1 26/20/1
f 25/19/1 27/21/1 26/20/1
f 26/20/1 27/21/1 28/22/1
f 27/21/1 29/23/1 28/22/1
f 28/22/1 29/23/1 30/24/1
f 29/23/1 31/25/1 30/24/1
f 30/24/1 31/25/1 32/26/1
f 31/25/1 33/27/1 32/26/1
f 32/26/1 33/27/1 34/28/1
f 33/27/1 35/29/1 34/28/1
f 34/28/1 35/29/1 36/30/1
f 35/29/1 37/31/1 36/30/1
f 36/30/1 37/31/1 38/32/1
f 37/31/1 39/33/1 38/32/1
f 38/32/1 39/33/1 40/34/1
f 39/33/1 41/35/1 40/34/1
f 40/34/1 41/35/1 42/36/1
f 41/35/1 43/37/1 42/36/1
f 42/36/1 43/37/1 44/38/1
f 43/37/1 45/39/1 44/38/1
f 44/38/1 45/39/1 46/40/1
f 45/39/1 47/41/1 46/40/1
f 46/40/1 47/41/1 48/42/1
f 47/41/1 49/43/1 48/42/1
f 48/42/1 49/43/1 50/44/1
f 49/43/1 51/45/1 50/44/1
f 50/44/1 51/45/1 52/46/1
f 51/45/1 53/47/1 52/46/1
f 52/46/1 53/47/1 54/48/1
f 53/47/1 55/49/1 54/48/1
f 54/48/1 55/49/1 56/50/1
f 55/49/1 57/51/1 56/50/1
f 56/50/1 57/51/1 58/52/1
f 57/51/1 59/53/1 58/52/1
f 58/52/1 59/53/1 60/54/1
f 59/53/1 61/55/1 60/54/1
f 60/54/1 61/55/1 62/56/1
f 61/55/1 63/57/1 62/56/1
f 62/56/1 63/57/1 64/58/1
f 63/57/1 65/59/1 64/58/1
f 64/58/1 65/59/1 66/60/1
f 65/59/1 67/61/1 66/60/1
f 66/60/1 67/61/1 68/62/1
f 67/61/1 69/63/1 68/62/1
f 68/62/1 69/63/1 70/64/1
f 69/63/1 71/65/1 70/64/1
f 71/65/1 72/66/1 70/64/1
f 70/64/1 72/66/1 73/67/1
f 72/66/1 74/68/1 73/67/1
f 73/67/1 74/68/1 75/69/1
f 74/68/1 76/70/1 75/69/1
f 75/69/1 76/70/1 77/71/1
f 76/70/1 78/72/1 77/71/1
f 77/71/1 78/72/1 79/73/1
f 78/72/1 80/74/1 79/73/1
f 79/73/1 80/74/1 81/75/1
f 80/74/1 82/76/1 81/75/1
f 81/75/1 82/76/1 83/77/1
f 86/78/1 88/79/1 87/80/1
f 87/80/1 88/79/1 89/81/1
f 88/79/1 90/82/1 89/81/1
f 89/81/1 90/82/1 91/83/1
f 110/84/1 112/2/1 111/3/1
f 111/3/1 112/2/1 113/4/1
f 112/2/1 114/5/1 113/4/1
f 113/4/1 114/5/1 115/85/1
f 114/5/1 116/86/1 115/85/1
f 115/85/1 116/86/1 117/87/1
f 117/87/1 119/13/1 118/12/1
f 118/12/1 119/13/1 120/14/1
f 119/13/1 121/15/1 120/14/1
f 120/14/1 121/15/1 122/88/1
f 121/15/1 123/89/1 122/88/1
f 122/88/1 123/89/1 124/20/1
f 123/89/1 125/21/1 124/20/1
f 124/20/1 125/21/1 126/22/1
f 125/21/1 127/23/1 126/22/1
f 126/22/1 127/23/1 128/24/1
f 127/23/1 129/25/1 128/24/1
f 128/24/1 129/25/1 130/90/1
f 129/25/1 131/91/1 130/90/1
f 130/90/1 131/91/1 132/30/1
f 131/91/1 133/31/1 132/30/1
f 132/30/1 133/31/1 134/32/1
f 133/31/1 135/33/1 134/32/1
f 134/32/1 135/33/1 136/34/1
f 135/33/1 137/35/1 136/34/1
f 136/34/1 137/35/1 138/36/1
f 137/35/1 139/37/1 138/36/1
f 138/36/1 139/37/1 140/38/1
f 139/37/1 141/39/1 140/38/1
f 140/38/1 141/39/1 142/40/1
f 141/39/1 143/41/1 142/40/1
f 142/40/1 143/41/1 144/42/1
f 143/41/1 145/43/1 144/42/1
f 144/42/1 145/43/1 146/92/1
f 145/43/1 147/45/1 146/92/1
f 147/45/1 148/93/1 146/92/1
f 146/92/1 148/93/1 149/48/1
f 149/48/1 148/93/1 150/50/1
f 148/93/1 151/51/1 150/50/1
f 150/50/1 151/51/1 152/52/1
f 151/51/1 153/53/1 152/52/1
f 152/52/1 153/53/1 154/54/1
f 153/53/1 155/55/1 154/54/1
f 154/54/1 155/55/1 156/56/1
f 155/55/1 157/57/1 156/56/1
f 156/56/1 157/57/1 158/58/1
f 157/57/1 159/59/1 158/58/1
f 158/58/1 159/59/1 160/60/1
f 159/59/1 161/61/1 160/60/1
f 160/60/1 161/61/1 162/62/1
f 161/61/1 163/63/1 162/62/1
f 162/62/1 163/63/1 164/94/1
f 163/63/1 165/65/1 164/94/1
f 164/94/1 165/65/1 166/95/1
f 165/65/1 167/66/1 166/95/1
f 166/95/1 167/66/1 168/67/1
f 167/66/1 169/68/1 168/67/1
f 168/67/1 169/68/1 170/69/1
f 169/68/1 171/70/1 170/69/1
f 170/69/1 171/70/1 172/71/1
f 171/70/1 173/72/1 172/71/1
f 172/71/1 173/72/1 174/73/1
f 173/72/1 175/74/1 174/73/1
f 174/73/1 175/74/1 176/75/1
f 175/74/1 177/76/1 176/75/1
f 176/75/1 177/76/1 178/96/1
f 180/97/1 182/98/1 181/99/1
f 181/99/1 182/98/1 183/80/1
f 182/98/1 184/100/1 183/80/1
f 184/100/1 185/82/1 186/101/1
f 205/102/1 207/103/1 206/104/1
f 206/104/1 207/103/1 208/3/1
f 207/103/1 209/2/1 208/3/1
f 208/3/1 209/2/1 210/4/1
f 209/2/1 211/5/1 210/4/1
f 210/4/1 211/5/1 212/105/1
f 212/105/1 214/9/1 213/8/1
f 213/8/1 214/9/1 215/10/1
f 214/9/1 216/11/1 215/10/1
f 215/10/1 216/11/1 217/12/1
f 216/11/1 218/13/1 217/12/1
f 217/12/1 218/13/1 219/14/1
f 218/13/1 220/15/1 219/14/1
f 219/14/1 220/15/1 221/16/1
f 220/15/1 222/17/1 221/16/1
f 221/16/1 222/17/1 223/18/1
f 222/17/1 224/19/1 223/18/1
f 223/18/1 224/19/1 225/20/1
f 224/19/1 226/21/1 225/20/1
f 225/20/1 226/21/1 227/22/1
f 226/21/1 228/23/1 227/22/1
f 227/22/1 228/23/1 229/24/1
f 228/23/1 230/25/1 229/24/1
f 229/24/1 230/25/1 231/26/1
f 230/25/1 232/27/1 231/26/1
f 231/26/1 232/27/1 233/28/1
f 232/27/1 234/29/1 233/28/1
f 233/28/1 234/29/1 235/30/1
f 234/29/1 236/31/1 235/30/1
f 235/30/1 236/31/1 237/32/1
f 236/31/1 238/33/1 237/32/1
f 237/32/1 238/33/1 239/34/1
f 238/33/1 240/35/1 239/34/1
f 239/34/1 240/35/1 241/36/1
f 240/35/1 242/37/1 241/36/1
f 241/36/1 242/37/1 243/38/1
f 242/37/1 244/39/1 243/38/1
f 243/38/1 244/39/1 245/40/1
f 244/39/1 246/41/1 245/40/1
f 245/40/1 246/41/1 247/42/1
f 246/41/1 248/43/1 247/42/1
f 247/42/1 248/43/1 249/44/1
f 248/43/1 250/45/1 249/44/1
f 249/44/1 250/45/1 251/46/1
f 250/45/1 252/47/1 251/46/1
f 251/46/1 252/47/1 253/48/1
f 252/47/1 254/49/1 253/48/1
f 253/48/1 254/49/1 255/50/1
f 254/49/1 256/51/1 255/50/1
f 255/50/1 256/51/1 257/52/1
f 256/51/1 258/53/1 257/52/1
f 257/52/1 258/53/1 259/54/1
f 258/53/1 260/55/1 259/54/1
f 259/54/1 260/55/1 261/56/1
f 260/55/1 262/57/1 261/56/1
f 261/56/1 262/57/1 263/58/1
f 262/57/1 264/59/1 263/58/1
f 263/58/1 264/59/1 265/60/1
f 264/59/1 266/61/1 265/60/1
f 265/60/1 266/61/1 267/62/1
f 266/61/1 268/63/1 267/62/1
f 267/62/1 268/63/1 269/94/1
f 268/63/1 270/65/1 269/94/1
f 269/94/1 270/65/1 271/95/1
f 270/65/1 272/66/1 271/95/1
f 271/95/1 272/66/1 273/67/1
f 272/66/1 274/68/1 273/67/1
f 273/67/1 274/68/1 275/69/1
f 274/68/1 276/70/1 275/69/1
f 275/69/1 276/70/1 277/71/1
f 276/70/1 278/72/1 277/71/1
f 277/71/1 278/72/1 279/73/1
f 278/72/1 280/74/1 279/73/1
f 279/73/1 280/74/1 281/106/1
f 282/107/1 284/108/1 283/109/1
f 283/109/1 284/108/1 285/110/1
f 284/108/1 286/111/1 285/110/1
f 285/110/1 286/111/1 287/99/1
f 286/111/1 288/98/1 287/99/1
f 287/99/1 288/98/1 289/80/1
f 288/98/1 290/79/1 289/80/1
f 289/80/1 290/79/1 291/112/1
f 310/113/1 312/114/1 311/115/1
f 311/115/1 312/114/1 313/104/1
f 312/114/1 314/103/1 313/104/1
f 313/104/1 314/103/1 315/116/1
f 316/117/1 318/7/1 317/6/1
f 317/6/1 318/7/1 319/118/1
f 319/118/1 321/11/1 320/10/1
f 320/10/1 321/11/1 322/12/1
f 321/11/1 323/13/1 322/12/1
f 322/12/1 323/13/1 324/14/1
f 323/13/1 325/15/1 324/14/1
f 324/14/1 325/15/1 326/16/1
f 325/15/1 327/17/1 326/16/1
f 326/16/1 327/17/1 328/18/1
f 327/17/1 329/19/1 328/18/1
f 328/18/1 329/19/1 330/20/1
f 329/19/1 331/21/1 330/20/1
f 330/20/1 331/21/1 332/22/1
f 331/21/1 333/23/1 332/22/1
f 332/22/1 333/23/1 334/24/1
f 333/23/1 335/25/1 334/24/1
f 334/24/1 335/25/1 336/26/1
f 335/25/1 337/27/1 336/26/1
f 336/26/1 337/27/1 338/28/1
f 337/27/1 339/29/1 338/28/1
f 338/28/1 339/29/1 340/30/1
f 339/29/1 341/31/1 340/30/1
f 340/30/1 341/31/1 342/32/1
f 341/31/1 343/33/1 342/32/1
f 342/32/1 343/33/1 344/34/1
f 343/33/1 345/35/1 344/34/1
f 344/34/1 345/35/1 346/36/1
f 345/35/1 347/37/1 346/36/1
f 346/36/1 347/37/1 348/38/1
f 347/37/1 349/39/1 348/38/1
f 348/38/1 349/39/1 350/40/1
f 349/39/1 351/41/1 350/40/1
f 350/40/1 351/41/1 352/42/1
f 351/41/1 353/43/1 352/42/1
f 352/42/1 353/43/1 354/44/1
f 353/43/1 355/45/1 354/44/1
f 354/44/1 355/45/1 356/46/1
f 355/45/1 357/47/1 356/46/1
f 356/46/1 357/47/1 358/48/1
f 357/47/1 359/49/1 358/48/1
f 358/48/1 359/49/1 360/50/1
f 359/49/1 361/51/1 360/50/1
f 360/50/1 361/51/1 362/52/1
f 361/51/1 363/53/1 362/52/1
f 362/52/1 363/53/1 364/54/1
f 363/53/1 365/55/1 364/54/1
f 364/54/1 365/55/1 366/56/1
f 365/55/1 367/57/1 366/56/1
f 366/56/1 367/57/1 368/58/1
f 367/57/1 369/59/1 368/58/1
f 368/58/1 369/59/1 370/60/1
f 369/59/1 371/61/1 370/60/1
f 370/60/1 371/61/1 372/62/1
f 371/61/1 373/63/1 372/62/1
f 372/62/1 373/63/1 374/94/1
f 373/63/1 375/65/1 374/94/1
f 374/94/1 375/65/1 376/95/1
f 375/65/1 377/66/1 376/95/1
f 376/95/1 377/66/1 378/67/1
f 377/66/1 379/68/1 378/67/1
f 378/67/1 379/68/1 380/69/1
f 379/68/1 381/70/1 380/69/1
f 380/69/1 381/70/1 382/71/1
f 381/70/1 383/72/1 382/71/1
f 382/71/1 383/72/1 384/119/1
f 384/119/1 386/76/1 385/75/1
f 385/75/1 386/76/1 387/120/1
f 386/76/1 388/121/1 387/120/1
f 387/120/1 388/121/1 389/109/1
f 388/121/1 390/108/1 389/109/1
f 389/109/1 390/108/1 391/110/1
f 390/108/1 392/111/1 391/110/1
f 391/110/1 392/111/1 393/99/1
f 392/111/1 394/98/1 393/99/1
f 393/99/1 394/98/1 395/122/1
f 413/123/1 415/124/1 414/125/1
f 415/124/1 416/126/1 417/127/1
f 419/128/1 421/129/1 420/130/1
f 420/130/1 421/129/1 422/8/1
f 421/129/1 423/9/1 422/8/1
f 422/8/1 423/9/1 424/10/1
f 423/9/1 425/11/1 424/10/1
f 424/10/1 425/11/1 426/12/1
f 425/11/1 427/13/1 426/12/1
f 426/12/1 427/13/1 428/14/1
f 427/13/1 429/15/1 428/14/1
f 428/14/1 429/15/1 430/131/1
f 429/15/1 431/132/1 430/131/1
f 430/131/1 431/132/1 432/20/1
f 431/132/1 433/21/1 432/20/1
f 432/20/1 433/21/1 434/22/1
f 433/21/1 435/23/1 434/22/1
f 434/22/1 435/23/1 436/24/1
f 435/23/1 437/25/1 436/24/1
f 436/24/1 437/25/1 438/26/1
f 437/25/1 439/27/1 438/26/1
f 438/26/1 439/27/1 440/28/1
f 439/27/1 441/29/1 440/28/1
f 440/28/1 441/29/1 442/30/1
f 441/29/1 443/31/1 442/30/1
f 442/30/1 443/31/1 444/32/1
f 443/31/1 445/33/1 444/32/1
f 444/32/1 445/33/1 446/34/1
f 445/33/1 447/35/1 446/34/1
f 446/34/1 447/35/1 448/36/1
f 447/35/1 449/37/1 448/36/1
f 448/36/1 449/37/1 450/38/1
f 449/37/1 451/39/1 450/38/1
f 450/38/1 451/39/1 452/40/1
f 451/39/1 453/41/1 452/40/1
f 452/40/1 453/41/1 454/42/1
f 453/41/1 455/43/1 454/42/1
f 454/42/1 455/43/1 456/44/1
f 455/43/1 457/45/1 456/44/1
f 456/44/1 457/45/1 458/46/1
f 457/45/1 459/47/1 458/46/1
f 458/46/1 459/47/1 460/48/1
f 459/47/1 461/49/1 460/48/1
f 460/48/1 461/49/1 462/50/1
f 461/49/1 463/51/1 462/50/1
f 462/50/1 463/51/1 464/52/1
f 463/51/1 465/53/1 464/52/1
f 464/52/1 465/53/1 466/54/1
f 465/53/1 467/55/1 466/54/1
f 466/54/1 467/55/1 468/56/1
f 467/55/1 469/57/1 468/56/1
f 468/56/1 469/57/1 470/58/1
f 469/57/1 471/59/1 470/58/1
f 470/58/1 471/59/1 472/60/1
f 471/59/1 473/61/1 472/60/1
f 472/60/1 473/61/1 474/62/1
f 473/61/1 475/63/1 474/62/1
f 474/62/1 475/63/1 476/94/1
f 475/63/1 477/65/1 476/94/1
f 476/94/1 477/65/1 478/95/1
f 477/65/1 479/66/1 478/95/1
f 478/95/1 479/66/1 480/67/1
f 479/66/1 481/68/1 480/67/1
f 480/67/1 481/68/1 482/133/1
f 482/133/1 484/72/1 483/71/1
f 483/71/1 484/72/1 485/73/1
f 484/72/1 486/74/1 485/73/1
f 485/73/1 486/74/1 487/75/1
f 486/74/1 488/76/1 487/75/1
f 487/75/1 488/76/1 489/120/1
f 488/76/1 490/121/1 489/120/1
f 489/120/1 490/121/1 491/109/1
f 490/121/1 492/108/1 491/109/1
f 491/109/1 492/108/1 493/110/1
f 492/108/1 494/111/1 493/110/1
f 493/110/1 494/111/1 495/134/1
f 520/135/1 522/7/1 521/6/1
f 521/6/1 522/7/1 523/8/1
f 522/7/1 524/9/1 523/8/1
f 523/8/1 524/9/1 525/10/1
f 524/9/1 526/11/1 525/10/1
f 525/10/1 526/11/1 527/12/1
f 526/11/1 528/13/1 527/12/1
f 527/12/1 528/13/1 529/14/1
f 528/13/1 530/15/1 529/14/1
f 529/14/1 530/15/1 531/16/1
f 530/15/1 532/17/1 531/16/1
f 531/16/1 532/17/1 533/18/1
f 532/17/1 534/19/1 533/18/1
f 533/18/1 534/19/1 535/20/1
f 534/19/1 536/21/1 535/20/1
f 535/20/1 536/21/1 537/22/1
f 536/21/1 538/23/1 537/22/1
f 537/22/1 538/23/1 539/24/1
f 538/23/1 540/25/1 539/24/1
f 539/24/1 540/25/1 541/26/1
f 540/25/1 542/27/1 541/26/1
f 541/26/1 542/27/1 543/28/1
f 542/27/1 544/29/1 543/28/1
f 543/28/1 544/29/1 545/30/1
f 544/29/1 546/31/1 545/30/1
f 545/30/1 546/31/1 547/32/1
f 546/31/1 548/33/1 547/32/1
f 547/32/1 548/33/1 549/34/1
f 548/33/1 550/35/1 549/34/1
f 549/34/1 550/35/1 551/36/1
f 550/35/1 552/37/1 551/36/1
f 551/36/1 552/37/1 553/38/1
f 552/37/1 554/39/1 553/38/1
f 553/38/1 554/39/1 555/40/1
f 554/39/1 556/41/1 555/40/1
f 555/40/1 556/41/1 557/42/1
f 556/41/1 558/43/1 557/42/1
f 557/42/1 558/43/1 559/44/1
f 558/43/1 560/45/1 559/44/1
f 559/44/1 560/45/1 561/46/1
f 560/45/1 562/47/1 561/46/1
f 561/46/1 562/47/1 563/48/1
f 562/47/1 564/49/1 563/48/1
f 563/48/1 564/49/1 565/136/1
f 564/49/1 566/137/1 565/136/1
f 565/136/1 566/137/1 567/54/1
f 566/137/1 568/55/1 567/54/1
f 567/54/1 568/55/1 569/56/1
f 568/55/1 570/57/1 569/56/1
f 569/56/1 570/57/1 571/58/1
f 570/57/1 572/59/1 571/58/1
f 571/58/1 572/59/1 573/60/1
f 572/59/1 574/61/1 573/60/1
f 573/60/1 574/61/1 575/62/1
f 574/61/1 576/63/1 575/62/1
f 575/62/1 576/63/1 577/94/1
f 576/63/1 578/65/1 577/94/1
f 577/94/1 578/65/1 579/95/1
f 578/65/1 580/66/1 579/95/1
f 579/95/1 580/66/1 581/138/1
f 581/138/1 583/139/1 582/140/1
f 582/140/1 583/139/1 584/73/1
f 583/139/1 585/74/1 584/73/1
f 584/73/1 585/74/1 586/75/1
f 585/74/1 587/76/1 586/75/1
f 586/75/1 587/76/1 588/120/1
f 587/76/1 589/121/1 588/120/1
f 588/120/1 589/121/1 590/141/1
f 610/142/1 612/143/1 611/144/1
f 611/144/1 612/143/1 613/145/1
f 616/146/1 618/5/1 617/4/1
f 617/4/1 618/5/1 619/6/1
f 618/5/1 620/7/1 619/6/1
f 619/6/1 620/7/1 621/8/1
f 620/7/1 622/9/1 621/8/1
f 621/8/1 622/9/1 623/10/1
f 622/9/1 624/11/1 623/10/1
f 623/10/1 624/11/1 625/12/1
f 624/11/1 626/13/1 625/12/1
f 625/12/1 626/13/1 627/14/1
f 626/13/1 628/15/1 627/14/1
f 627/14/1 628/15/1 629/16/1
f 628/15/1 630/17/1 629/16/1
f 629/16/1 630/17/1 631/18/1
f 630/17/1 632/19/1 631/18/1
f 631/18/1 632/19/1 633/20/1
f 632/19/1 634/21/1 633/20/1
f 633/20/1 634/21/1 635/22/1
f 634/21/1 636/23/1 635/22/1
f 635/22/1 636/23/1 637/24/1
f 636/23/1 638/25/1 637/24/1
f 637/24/1 638/25/1 639/26/1
f 638/25/1 640/27/1 639/26/1
f 639/26/1 640/27/1 641/28/1
f 640/27/1 642/29/1 641/28/1
f 641/28/1 642/29/1 643/30/1
f 642/29/1 644/31/1 643/30/1
f 643/30/1 644/31/1 645/32/1
f 644/31/1 646/33/1 645/32/1
f 645/32/1 646/33/1 647/34/1
f 646/33/1 648/35/1 647/34/1
f 647/34/1 648/35/1 649/36/1
f 648/35/1 650/37/1 649/36/1
f 649/36/1 650/37/1 651/38/1
f 650/37/1 652/39/1 651/38/1
f 651/38/1 652/39/1 653/40/1
f 652/39/1 654/41/1 653/40/1
f 653/40/1 654/41/1 655/42/1
f 654/41/1 656/43/1 655/42/1
f 655/42/1 656/43/1 657/44/1
f 656/43/1 658/45/1 657/44/1
f 657/44/1 658/45/1 659/46/1
f 658/45/1 660/47/1 659/46/1
f 659/46/1 660/47/1 661/48/1
f 660/47/1 662/49/1 661/48/1
f 661/48/1 662/49/1 663/50/1
f 662/49/1 664/51/1 663/50/1
f 663/50/1 664/51/1 665/52/1
f 664/51/1 666/53/1 665/52/1
f 665/52/1 666/53/1 667/54/1
f 666/53/1 668/55/1 667/54/1
f 667/54/1 668/55/1 669/56/1
f 668/55/1 670/57/1 669/56/1
f 669/56/1 670/57/1 671/58/1
f 670/57/1 672/59/1 671/58/1
f 671/58/1 672/59/1 673/60/1
f 672/59/1 674/61/1 673/60/1
f 673/60/1 674/61/1 675/62/1
f 674/61/1 676/63/1 675/62/1
f 675/62/1 676/63/1 677/147/1
f 677/147/1 679/66/1 678/95/1
f 678/95/1 679/66/1 680/67/1
f 679/66/1 681/68/1 680/67/1
f 680/67/1 681/68/1 682/69/1
f 681/68/1 683/70/1 682/69/1
f 682/69/1 683/70/1 684/71/1
f 683/70/1 685/72/1 684/71/1
f 684/71/1 685/72/1 686/73/1
f 685/72/1 687/74/1 686/73/1
f 686/73/1 687/74/1 688/75/1
f 687/74/1 689/76/1 688/75/1
f 688/75/1 689/76/1 690/148/1
f 694/149/1 696/82/1 695/81/1
f 695/81/1 696/82/1 697/150/1
f 696/82/1 698/151/1 697/150/1
f 697/150/1 698/151/1 699/152/1
f 713/153/1 715/154/1 714/155/1
f 718/156/1 720/2/1 719/3/1
f 719/3/1 720/2/1 721/157/1
f 720/2/1 722/5/1 721/157/1
f 722/5/1 723/7/1 721/157/1
f 721/157/1 723/7/1 724/8/1
f 723/7/1 725/9/1 724/8/1
f 724/8/1 725/9/1 726/10/1
f 725/9/1 727/11/1 726/10/1
f 726/10/1 727/11/1 728/12/1
f 727/11/1 729/13/1 728/12/1
f 728/12/1 729/13/1 730/14/1
f 729/13/1 731/15/1 730/14/1
f 730/14/1 731/15/1 732/16/1
f 731/15/1 733/17/1 732/16/1
f 732/16/1 733/17/1 734/18/1
f 733/17/1 735/19/1 734/18/1
f 734/18/1 735/19/1 736/20/1
f 735/19/1 737/21/1 736/20/1
f 736/20/1 737/21/1 738/22/1
f 737/21/1 739/23/1 738/22/1
f 738/22/1 739/23/1 740/24/1
f 739/23/1 741/25/1 740/24/1
f 740/24/1 741/25/1 742/26/1
f 741/25/1 743/27/1 742/26/1
f 742/26/1 743/27/1 744/28/1
f 743/27/1 745/29/1 744/28/1
f 744/28/1 745/29/1 746/30/1
f 745/29/1 747/31/1 746/30/1
f 746/30/1 747/31/1 748/32/1
f 747/31/1 749/33/1 748/32/1
f 748/32/1 749/33/1 750/34/1
f 749/33/1 751/35/1 750/34/1
f 750/34/1 751/35/1 752/36/1
f 751/35/1 753/37/1 752/36/1
f 752/36/1 753/37/1 754/38/1
f 753/37/1 755/39/1 754/38/1
f 754/38/1 755/39/1 756/40/1
f 755/39/1 757/41/1 756/40/1
f 756/40/1 757/41/1 758/42/1
f 757/41/1 759/43/1 758/42/1
f 758/42/1 759/43/1 760/44/1
f 759/43/1 761/45/1 760/44/1
f 760/44/1 761/45/1 762/46/1
f 761/45/1 763/47/1 762/46/1
f 762/46/1 763/47/1 764/48/1
f 763/47/1 765/49/1 764/48/1
f 764/48/1 765/49/1 766/50/1
f 765/49/1 767/51/1 766/50/1
f 766/50/1 767/51/1 768/52/1
f 767/51/1 769/53/1 768/52/1
f 768/52/1 769/53/1 770/54/1
f 769/53/1 771/55/1 770/54/1
f 770/54/1 771/55/1 772/56/1
f 771/55/1 773/57/1 772/56/1
f 772/56/1 773/57/1 774/58/1
f 773/57/1 775/59/1 774/58/1
f 774/58/1 775/59/1 776/60/1
f 775/59/1 777/61/1 776/60/1
f 776/60/1 777/61/1 778/62/1
f 777/61/1 779/63/1 778/62/1
f 778/62/1 779/63/1 780/94/1
f 779/63/1 781/65/1 780/94/1
f 780/94/1 781/65/1 782/95/1
f 781/65/1 783/66/1 782/95/1
f 782/95/1 783/66/1 784/67/1
f 783/66/1 785/68/1 784/67/1
f 784/67/1 785/68/1 786/69/1
f 785/68/1 787/70/1 786/69/1
f 786/69/1 787/70/1 788/71/1
f 787/70/1 789/72/1 788/71/1
f 788/71/1 789/72/1 790/73/1
f 789/72/1 791/74/1 790/73/1
f 790/73/1 791/74/1 792/75/1
f 791/74/1 793/76/1 792/75/1
f 792/75/1 793/76/1 794/158/1
f 796/159/1 798/98/1 797/99/1
f 797/99/1 798/98/1 799/80/1
f 798/98/1 800/79/1 799/80/1
f 799/80/1 800/79/1 801/160/1
f 822/161/1 824/2/1 823/3/1
f 823/3/1 824/2/1 825/4/1
f 824/2/1 826/5/1 825/4/1
f 825/4/1 826/5/1 827/6/1
f 826/5/1 828/7/1 827/6/1
f 827/6/1 828/7/1 829/162/1
f 829/162/1 831/11/1 830/10/1
f 830/10/1 831/11/1 832/12/1
f 831/11/1 833/13/1 832/12/1
f 832/12/1 833/13/1 834/14/1
f 833/13/1 835/15/1 834/14/1
f 834/14/1 835/15/1 836/16/1
f 835/15/1 837/17/1 836/16/1
f 836/16/1 837/17/1 838/18/1
f 837/17/1 839/19/1 838/18/1
f 838/18/1 839/19/1 840/20/1
f 839/19/1 841/21/1 840/20/1
f 840/20/1 841/21/1 842/22/1
f 841/21/1 843/23/1 842/22/1
f 842/22/1 843/23/1 844/24/1
f 843/23/1 845/25/1 844/24/1
f 844/24/1 845/25/1 846/26/1
f 845/25/1 847/27/1 846/26/1
f 846/26/1 847/27/1 848/28/1
f 847/27/1 849/29/1 848/28/1
f 848/28/1 849/29/1 850/30/1
f 849/29/1 851/31/1 850/30/1
f 850/30/1 851/31/1 852/32/1
f 851/31/1 853/33/1 852/32/1
f 852/32/1 853/33/1 854/34/1
f 853/33/1 855/35/1 854/34/1
f 854/34/1 855/35/1 856/36/1
f 855/35/1 857/37/1 856/36/1
f 856/36/1 857/37/1 858/38/1
f 857/37/1 859/39/1 858/38/1
f 858/38/1 859/39/1 860/40/1
f 859/39/1 861/41/1 860/40/1
f 860/40/1 861/41/1 862/42/1
f 861/41/1 863/43/1 862/42/1
f 862/42/1 863/43/1 864/44/1
f 863/43/1 865/45/1 864/44/1
f 864/44/1 865/45/1 866/46/1
f 865/45/1 867/47/1 866/46/1
f 866/46/1 867/47/1 868/48/1
f 867/47/1 869/49/1 868/48/1
f 868/48/1 869/49/1 870/50/1
f 869/49/1 871/51/1 870/50/1
f 870/50/1 871/51/1 872/52/1
f 871/51/1 873/53/1 872/52/1
f 872/52/1 873/53/1 874/54/1
f 873/53/1 875/55/1 874/54/1
f 874/54/1 875/55/1 876/56/1
f 875/55/1 877/57/1 876/56/1
f 876/56/1 877/57/1 878/58/1
f 877/57/1 879/59/1 878/58/1
f 878/58/1 879/59/1 880/163/1
f 879/59/1 881/164/1 880/163/1
f 880/163/1 881/164/1 882/94/1
f 881/164/1 883/65/1 882/94/1
f 882/94/1 883/65/1 884/95/1
f 883/65/1 885/66/1 884/95/1
f 884/95/1 885/66/1 886/67/1
f 885/66/1 887/68/1 886/67/1
f 886/67/1 887/68/1 888/69/1
f 887/68/1 889/70/1 888/69/1
f 888/69/1 889/70/1 890/71/1
f 889/70/1 891/72/1 890/71/1
f 890/71/1 891/72/1 892/73/1
f 891/72/1 893/74/1 892/73/1
f 892/73/1 893/74/1 894/165/1
f 895/166/1 897/108/1 896/109/1
f 896/109/1 897/108/1 898/110/1
f 897/108/1 899/111/1 898/110/1
f 898/110/1 899/111/1 900/99/1
f 899/111/1 901/98/1 900/99/1
f 900/99/1 901/98/1 902/80/1
f 901/98/1 903/79/1 902/80/1
f 902/80/1 903/79/1 904/167/1
f 924/168/1 926/103/1 925/104/1
f 925/104/1 926/103/1 927/3/1
f 926/103/1 928/2/1 927/3/1
f 927/3/1 928/2/1 929/169/1
f 929/169/1 931/7/1 930/6/1
f 930/6/1 931/7/1 932/8/1
f 931/7/1 933/9/1 932/8/1
f 932/8/1 933/9/1 934/10/1
f 933/9/1 935/11/1 934/10/1
f 934/10/1 935/11/1 936/12/1
f 935/11/1 937/13/1 936/12/1
f 936/12/1 937/13/1 938/14/1
f 937/13/1 939/15/1 938/14/1
f 938/14/1 939/15/1 940/16/1
f 939/15/1 941/17/1 940/16/1
f 940/16/1 941/17/1 942/18/1
f 941/17/1 943/19/1 942/18/1
f 942/18/1 943/19/1 944/20/1
f 943/19/1 945/21/1 944/20/1
f 944/20/1 945/21/1 946/22/1
f 945/21/1 947/23/1 946/22/1
f 946/22/1 947/23/1 948/24/1
f 947/23/1 949/25/1 948/24/1
f 948/24/1 949/25/1 950/26/1
f 949/25/1 951/27/1 950/26/1
f 950/26/1 951/27/1 952/28/1
f 951/27/1 953/29/1 952/28/1
f 952/28/1 953/29/1 954/30/1
f 953/29/1 955/31/1 954/30/1
f 954/30/1 955/31/1 956/32/1
f 955/31/1 957/33/1 956/32/1
f 956/32/1 957/33/1 958/34/1
f 957/33/1 959/35/1 958/34/1
f 958/34/1 959/35/1 960/36/1
f 959/35/1 961/37/1 960/36/1
f 960/36/1 961/37/1 962/38/1
f 961/37/1 963/39/1 962/38/1
f 962/38/1 963/39/1 964/40/1
f 963/39/1 965/41/1 964/40/1
f 964/40/1 965/41/1 966/42/1
f 965/41/1 967/43/1 966/42/1
f 966/42/1 967/43/1 968/44/1
f 967/43/1 969/45/1 968/44/1
f 968/44/1 969/45/1 970/46/1
f 969/45/1 971/47/1 970/46/1
f 970/46/1 971/47/1 972/48/1
f 971/47/1 973/49/1 972/48/1
f 972/48/1 973/49/1 974/50/1
f 973/49/1 975/51/1 974/50/1
f 974/50/1 975/51/1 976/52/1
f 975/51/1 977/53/1 976/52/1
f 976/52/1 977/53/1 978/54/1
f 977/53/1 979/170/1 978/54/1
f 979/170/1 980/57/1 981/58/1
f 980/57/1 982/59/1 981/58/1
f 981/58/1 982/59/1 983/60/1
f 982/59/1 984/61/1 983/60/1
f 983/60/1 984/61/1 985/62/1
f 984/61/1 986/63/1 985/62/1
f 985/62/1 986/63/1 987/94/1
f 986/63/1 988/65/1 987/94/1
f 987/94/1 988/65/1 989/95/1
f 988/65/1 990/66/1 989/95/1
f 989/95/1 990/66/1 991/67/1
f 990/66/1 992/68/1 991/67/1
f 991/67/1 992/68/1 993/69/1
f 992/68/1 994/70/1 993/69/1
f 993/69/1 994/70/1 995/71/1
f 994/70/1 996/72/1 995/71/1
f 995/71/1 996/72/1 997/171/1
f 997/171/1 999/76/1 998/75/1
f 998/75/1 999/76/1 1000/120/1
f 999/76/1 1001/121/1 1000/120/1
f 1000/120/1 1001/121/1 1002/109/1
f 1001/121/1 1003/108/1 1002/109/1
f 1002/109/1 1003/108/1 1004/172/1
f 1004/172/1 1006/98/1 1005/99/1
f 1005/99/1 1006/98/1 1007/80/1
f 1006/98/1 1008/79/1 1007/80/1
f 1007/80/1 1008/79/1 1009/173/1
f 1028/174/1 1030/114/1 1029/115/1
f 1029/115/1 1030/114/1 1031/175/1
f 1033/176/1 1035/177/1 1034/178/1
f 1034/178/1 1035/177/1 1036/10/1
f 1035/177/1 1037/11/1 1036/10/1
f 1036/10/1 1037/11/1 1038/12/1
f 1037/11/1 1039/13/1 1038/12/1
f 1038/12/1 1039/13/1 1040/14/1
f 1039/13/1 1041/15/1 1040/14/1
f 1040/14/1 1041/15/1 1042/16/1
f 1041/15/1 1043/17/1 1042/16/1
f 1042/16/1 1043/17/1 1044/18/1
f 1043/17/1 1045/19/1 1044/18/1
f 1044/18/1 1045/19/1 1046/20/1
f 1045/19/1 1047/21/1 1046/20/1
f 1046/20/1 1047/21/1 1048/22/1
f 1047/21/1 1049/23/1 1048/22/1
f 1048/22/1 1049/23/1 1050/24/1
f 1049/23/1 1051/25/1 1050/24/1
f 1050/24/1 1051/25/1 1052/26/1
f 1051/25/1 1053/27/1 1052/26/1
f 1052/26/1 1053/27/1 1054/28/1
f 1053/27/1 1055/29/1 1054/28/1
f 1054/28/1 1055/29/1 1056/30/1
f 1055/29/1 1057/31/1 1056/30/1
f 1056/30/1 1057/31/1 1058/32/1
f 1057/31/1 1059/33/1 1058/32/1
f 1058/32/1 1059/33/1 1060/34/1
f 1059/33/1 1061/35/1 1060/34/1
f 1060/34/1 1061/35/1 1062/36/1
f 1061/35/1 1063/37/1 1062/36/1
f 1062/36/1 1063/37/1 1064/38/1
f 1063/37/1 1065/39/1 1064/38/1
f 1064/38/1 1065/39/1 1066/40/1
f 1065/39/1 1067/41/1 1066/40/1
f 1066/40/1 1067/41/1 1068/42/1
f 1067/41/1 1069/43/1 1068/42/1
f 1068/42/1 1069/43/1 1070/44/1
f 1069/43/1 1071/45/1 1070/44/1
f 1070/44/1 1071/45/1 1072/46/1
f 1071/45/1 1073/47/1 1072/46/1
f 1072/46/1 1073/47/1 1074/48/1
f 1073/47/1 1075/49/1 1074/48/1
f 1074/48/1 1075/49/1 1076/50/1
f 1075/49/1 1077/51/1 1076/50/1
f 1076/50/1 1077/51/1 1078/52/1
f 1077/51/1 1079/53/1 1078/52/1
f 1078/52/1 1079/53/1 1080/54/1
f 1079/53/1 1081/55/1 1080/54/1
f 1080/54/1 1081/55/1 1082/56/1
f 1081/55/1 1083/57/1 1082/56/1
f 1082/56/1 1083/57/1 1084/58/1
f 1083/57/1 1085/59/1 1084/58/1
f 1084/58/1 1085/59/1 1086/60/1
f 1085/59/1 1087/61/1 1086/60/1
f 1086/60/1 1087/61/1 1088/62/1
f 1087/61/1 1089/63/1 1088/62/1
f 1088/62/1 1089/63/1 1090/94/1
f 1089/63/1 1091/65/1 1090/94/1
f 1090/94/1 1091/65/1 1092/95/1
f 1091/65/1 1093/66/1 1092/95/1
f 1092/95/1 1093/66/1 1094/67/1
f 1093/66/1 1095/68/1 1094/67/1
f 1094/67/1 1095/68/1 1096/69/1
f 1095/68/1 1097/70/1 1096/69/1
f 1096/69/1 1097/70/1 1098/179/1
f 1098/179/1 1100/74/1 1099/180/1
f 1100/74/1 1101/76/1 1099/180/1
f 1099/180/1 1101/76/1 1102/181/1
f 1101/76/1 1103/182/1 1102/181/1
f 1102/181/1 1103/182/1 1104/110/1
f 1103/182/1 1105/111/1 1104/110/1
f 1104/110/1 1105/111/1 1106/183/1
l 1 2
l 4 5
l 6 7
l 83 84
l 85 86
l 91 92
l 93 94
l 95 96
l 97 98
l 99 100
l 101 102
l 105 106
l 106 107
l 108 109
l 179 180
l 187 188
l 189 190
l 191 192
l 193 194
l 195 196
l 197 198
l 199 200
l 201 202
l 203 204
l 292 293
l 294 295
l 296 297
l 298 299
l 300 301
l 302 303
l 306 307
l 308 309
l 396 397
l 398 399
l 400 401
l 402 403
l 404 405
l 406 407
l 408 409
l 410 411
l 412 413
l 417 418
l 496 497
l 498 499
l 500 501
l 502 503
l 504 505
l 506 507
l 508 509
l 512 513
l 514 515
l 516 517
l 518 519
l 590 591
l 592 593
l 594 595
l 596 597
l 598 599
l 600 601
l 602 603
l 604 605
l 606 607
l 608 609
l 614 615
l 690 691
l 692 693
l 700 701
l 702 703
l 704 705
l 706 707
l 708 709
l 712 713
l 716 717
l 795 796
l 801 802
l 803 804
l 805 806
l 807 808
l 809 810
l 811 812
l 813 814
l 815 816
l 817 818
l 819 820
l 821 822
l 905 906
l 907 908
l 909 910
l 911 912
l 913 914
l 915 916
l 919 920
l 921 922
l 923 924
l 1009 1010
l 1011 1012
l 1013 1014
l 1015 1016
l 1017 1018
l 1019 1020
l 1021 1022
l 1023 1024
l 1025 1026
l 1027 1028
l 1032 1033
l 1107 1108
l 1109 1110
l 1111 1112
l 1113 1114
l 1115 1116
l 1117 1118
l 1119 1120
l 2 3
l 3 4
l 5 6
l 84 85
l 92 93
l 94 95
l 96 97
l 98 99
l 100 101
l 102 103
l 104 105
l 107 108
l 109 110
l 178 179
l 186 187
l 188 189
l 190 191
l 192 193
l 194 195
l 196 197
l 200 201
l 202 203
l 204 205
l 281 282
l 291 292
l 293 294
l 295 296
l 297 298
l 299 300
l 301 302
l 303 304
l 305 306
l 307 308
l 309 310
l 315 316
l 395 396
l 397 398
l 399 400
l 401 402
l 403 404
l 405 406
l 407 408
l 411 412
l 418 419
l 495 496
l 497 498
l 499 500
l 501 502
l 503 504
l 505 506
l 507 508
l 509 510
l 511 512
l 513 514
l 515 516
l 517 518
l 519 520
l 591 592
l 593 594
l 595 596
l 597 598
l 599 600
l 601 602
l 603 604
l 605 606
l 609 610
l 613 614
l 615 616
l 691 692
l 693 694
l 699 700
l 701 702
l 703 704
l 705 706
l 707 708
l 709 710
l 711 712
l 715 716
l 717 718
l 794 795
l 802 803
l 804 805
l 806 807
l 808 809
l 810 811
l 812 813
l 816 817
l 818 819
l 820 821
l 894 895
l 904 905
l 906 907
l 908 909
l 910 911
l 912 913
l 914 915
l 916 917
l 918 919
l 920 921
l 922 923
l 1010 1011
l 1012 1013
l 1014 1015
l 1016 1017
l 1018 1019
l 1020 1021
l 1024 1025
l 1026 1027
l 1031 1032
l 1106 1107
l 1108 1109
l 1110 1111
l 1112 1113
l 1114 1115
l 1116 1117
l 1118 1119
l 1120 1121
