# Blender 5.1.2
# www.blender.org
o justed_inferno_v32_ground_roll_02
v 5.472331 0.399797 0.553998
v 5.249685 0.655354 0.785102
v 5.128632 0.590478 0.826125
v 5.217827 0.433902 0.798521
v 5.212359 0.291249 0.807697
v 5.310123 0.228129 0.866007
v 5.453308 0.311521 0.928258
v 5.505200 0.434021 0.944011
v 5.353369 0.610880 0.846237
v 5.054591 0.789741 1.012281
v 4.995150 0.230806 1.045678
v 5.152299 0.183255 1.148692
v 5.267339 0.210904 1.216268
v 5.368299 0.292145 1.268427
v 5.428886 0.476745 1.282690
v 5.228434 0.628159 1.279017
v 5.196592 0.772821 1.102098
v 4.852755 0.872412 1.262452
v 4.800412 0.688966 1.200771
v 4.668758 0.513730 1.404287
v 4.746343 0.218309 1.337296
v 4.974756 0.195647 1.412151
v 5.114237 0.191776 1.495327
v 5.234190 0.288683 1.568674
v 5.281801 0.514667 1.572143
v 5.035004 0.885083 1.343314
v 4.515443 0.672339 1.605895
v 4.851032 0.238916 1.806074
v 5.051175 0.309734 1.817645
v 5.070480 0.542994 1.798875
v 4.806868 0.711508 1.828137
v 4.866402 0.928251 1.570291
v 4.455091 0.894945 1.808771
v 4.463737 0.559467 1.621417
v 4.484989 0.328538 1.680014
v 4.620690 0.307988 1.814610
v 4.734174 0.355475 2.114823
v 4.834439 0.565447 1.978866
v 4.539435 0.937939 1.956138
v 4.357328 0.745257 1.830696
v 4.280951 0.602446 1.771559
v 4.305702 0.391955 1.873039
v 4.465386 0.303307 2.140280
v 4.601661 0.676430 2.118747
v 4.135949 1.005399 2.104548
v 4.182787 0.796218 1.975918
v 4.081155 0.653606 1.874009
v 4.137948 0.436937 1.990887
v 4.225385 0.345848 2.121793
v 4.266682 0.330649 2.520139
v 4.406675 0.603430 2.302930
v 4.415842 0.804400 2.274083
v 4.225490 1.036973 2.276540
v 3.891107 0.939339 2.177241
v 3.769568 0.757562 1.997958
v 3.877810 0.463312 2.167046
v 3.938742 0.341174 2.244528
v 3.930627 0.231113 2.472873
v 4.124052 0.621774 2.516777
v 4.256090 0.858088 2.467340
v 3.913688 1.068630 2.299572
v 4.004937 0.325217 2.646416
v 4.028362 0.888676 2.680699
v 3.998709 1.079394 2.486081
v 3.748339 1.068583 2.432601
v 3.669658 1.008781 2.289107
v 3.571756 0.834805 2.139083
v 3.608390 0.579773 2.286940
v 3.622617 0.371376 2.375692
v 3.572673 0.245409 2.572313
v 3.780300 0.366462 2.699013
v 3.811741 0.628812 2.688036
v 3.578552 1.068046 2.546885
v 3.509694 1.081274 2.375169
v 3.430188 0.879337 2.247835
v 3.440337 0.626642 2.355031
v 3.438998 0.408535 2.423004
v 3.567662 0.415987 2.733359
v 3.617651 0.626539 2.786122
v 3.685689 0.882892 2.867807
v 3.544866 1.085881 2.779877
v 3.410888 1.105462 2.643888
v 3.351459 1.192307 2.436180
v 3.278868 0.929415 2.321339
v 3.264605 0.659435 2.380943
v 3.220307 0.410976 2.437502
v 3.284968 0.210499 2.609873
v 3.368753 0.437724 2.771107
v 3.432772 0.603438 2.897279
v 3.412296 0.895319 3.036004
v 3.249043 1.186650 2.734416
v 3.198663 1.348688 2.478990
v 3.123441 0.988969 2.362636
v 3.086172 0.684217 2.360721
v 2.947556 0.099650 2.594122
v 3.177972 0.428341 2.808799
v 3.251918 0.550671 3.025057
v 3.305128 1.161891 2.950213
v 3.088792 1.285092 2.822947
v 3.049118 1.493088 2.527195
v 2.971127 1.041616 2.399866
v 2.917771 0.712091 2.323663
v 2.884969 0.348028 2.362035
v 2.875653 0.397367 2.844848
v 3.066057 0.486726 3.137727
v 3.127419 0.897588 3.208531
v 3.129255 1.203059 3.055922
v 2.922400 1.361345 2.899862
v 2.892675 1.544401 2.591211
v 2.774954 1.051333 2.458204
v 2.723676 0.760994 2.319848
v 2.727252 0.348395 2.329726
v 2.743957 0.130724 2.578659
v 2.874332 0.453805 3.192090
v 2.929693 0.891718 3.254837
v 2.938540 1.198702 3.109039
v 2.746452 1.388840 2.949332
v 2.724010 1.482434 2.656919
v 2.562636 0.406323 2.350576
v 2.603347 0.260880 2.605001
v 2.645165 0.419219 2.856584
v 2.685019 0.477324 3.178138
v 2.729555 0.885660 3.234797
v 2.740713 1.155625 3.101212
v 2.565573 1.378167 2.967148
v 2.549010 1.368063 2.705145
v 2.514352 1.057569 2.561979
v 2.382749 0.817459 2.453528
v 2.465238 0.409911 2.649797
v 2.481068 0.448598 2.859556
v 2.504754 0.538101 3.129172
v 2.381371 0.892348 3.138323
v 2.548559 1.107477 3.062436
v 2.346606 1.375106 2.964566
v 2.376172 1.275453 2.728480
v 2.325086 1.093568 2.612703
v 2.278140 0.521369 2.453419
v 2.320025 0.516851 2.687133
v 2.319294 0.466593 2.865262
v 2.233958 0.620967 3.073757
v 2.318429 1.073489 3.028855
v 2.208403 1.227344 2.729700
v 2.080956 0.818485 2.460824
v 2.156592 0.572300 2.705358
v 2.157279 0.457862 2.877139
v 2.055157 0.934035 3.090158
v 2.041580 1.410417 2.927193
v 1.995467 1.211960 2.731550
v 1.942066 1.054149 2.545812
v 2.025351 0.545387 2.491724
v 1.995198 0.445232 2.893087
v 1.995935 0.665751 3.058444
v 1.872370 1.380744 2.873051
v 1.892046 0.807635 2.453899
v 1.875060 0.580580 2.536316
v 1.735990 0.611622 2.731810
v 1.834316 0.470527 2.902233
v 1.830557 0.707395 3.031620
v 1.839613 0.948223 3.034043
v 1.852067 1.151493 2.987867
v 1.707178 1.296594 2.805248
v 1.550473 0.984567 2.548025
v 1.669696 0.798839 2.491019
v 1.718669 0.641398 2.591266
v 1.674841 0.541563 2.892804
v 1.642858 0.768050 2.968118
v 1.685240 1.159263 2.938882
v 1.546122 1.207572 2.742153
v 1.533621 0.640706 2.702657
v 1.409757 0.650708 2.851863
v 1.432589 0.955673 2.862777
v 1.469036 1.157063 2.856523
v 1.321122 1.153561 2.659243
v 1.382281 1.088975 2.595483
v 1.367410 0.956342 2.491147
v 1.375885 0.770646 2.486281
v 1.397790 0.722586 2.630011
v 1.377605 0.623526 2.723215
v 1.276809 0.838815 2.874666
v 1.156502 0.694678 2.594912
v 1.211613 0.570541 2.723216
v 1.180672 0.660484 2.843562
v 1.196055 1.228487 2.768367
v 1.007648 1.164750 2.515555
v 1.018245 1.103848 2.366295
v 1.142676 0.935091 2.360066
v 1.130006 0.710771 2.415572
v 1.040323 0.510483 2.729860
v 1.005339 0.657834 2.839686
v 0.914031 0.863057 2.824909
v 1.014490 1.038943 2.787184
v 1.036373 1.283567 2.699405
v 1.005328 0.905753 2.289672
v 0.974535 0.696296 2.395627
v 0.809087 0.629967 2.540782
v 0.867055 0.494773 2.724026
v 0.832594 0.675660 2.810114
v 0.845350 1.075316 2.741747
v 0.884769 1.287179 2.610510
v 0.705028 1.087374 2.360263
v 0.807561 1.047792 2.282743
v 0.836237 0.865596 2.248463
v 0.810560 0.711993 2.386812
v 0.699449 0.537133 2.683142
v 0.648804 0.724702 2.732195
v 0.652717 0.852196 2.695457
v 0.685248 1.090069 2.667693
v 0.739853 1.227637 2.517277
v 0.579043 0.648718 2.455499
v 0.541971 0.604948 2.607177
v 0.535302 1.079739 2.573374
v 0.596870 1.141208 2.432028
v 0.473191 1.037994 2.269204
v 0.456623 0.951783 2.171069
v 0.466984 0.828439 2.179844
v 0.393768 0.766009 2.291987
v 0.401989 0.651577 2.392234
v 0.317452 0.679898 2.465437
v 0.269536 0.789558 2.461968
v 0.337099 1.049383 2.433406
v 0.381864 1.037799 2.320858
v 0.164377 0.971983 2.081743
v 0.160806 0.815143 2.060752
v 0.087624 0.673905 2.199304
v 0.058053 0.719952 2.263864
v 0.080651 0.831002 2.308380
v 0.118214 1.003449 2.266073
v -0.094917 0.861190 1.898542
v -0.025912 0.791793 1.991084
v -0.065236 0.852539 2.160962
v -0.029458 0.943473 2.125926
v -0.147545 0.874338 1.895264
v -0.270482 0.774235 1.847214
v -0.198676 0.839074 1.993398
v -0.170982 0.783438 1.892082
v -0.378138 0.800598 1.710741
v -0.336571 0.823382 1.722608
v -0.336211 0.810077 1.705716
v -0.380615 0.777714 1.675765
v -0.466395 0.779841 1.530565
v 4.237719 0.629356 2.165764
v 4.185494 0.861806 2.101080
v 4.061462 0.729311 2.180597
v 4.056149 0.671863 2.283459
v 4.101111 0.675072 2.341835
v 4.164760 0.708158 2.369573
v 4.209641 0.786874 2.282611
v 4.223770 0.846114 2.188957
v 4.095706 0.978663 2.196172
v 4.056483 0.953863 2.195391
v 3.951670 0.882649 2.261222
v 3.969286 0.812856 2.332658
v 3.998473 0.804268 2.395139
v 4.028705 0.866573 2.430352
v 4.126751 0.971994 2.283794
v 4.029745 1.122004 2.263334
v 3.871619 0.988643 2.270635
v 3.863039 0.888062 2.461865
v 3.937289 0.933162 2.494257
v 4.069097 1.115638 2.342382
v 3.908149 1.219231 2.301204
v 3.783098 1.117597 2.321427
v 3.728863 0.973503 2.486179
v 3.817487 1.038492 2.515483
v 3.900837 1.121883 2.497817
v 3.985822 1.226822 2.439368
v 3.890622 1.366852 2.440368
v 3.860739 1.400004 2.316422
v 3.699989 1.238126 2.349341
v 3.614971 1.113227 2.390648
v 3.559221 1.000969 2.499763
v 3.606161 1.165680 2.582317
v 3.813946 1.196707 2.621232
v 3.918486 1.341251 2.545558
v 3.821192 1.497287 2.527390
v 3.767873 1.490427 2.402916
v 3.501102 1.181266 2.385210
v 3.509915 1.127735 2.500890
v 3.707315 1.262429 2.683844
v 3.703032 1.566832 2.567129
v 3.620409 1.488903 2.494270
v 3.548085 1.402087 2.459719
v 3.454342 1.268884 2.447418
v 3.494410 1.269169 2.541679
v 3.509220 1.240529 2.621682
v 3.599463 1.348496 2.665357
v 3.638189 1.441469 2.610822
v 3.556724 1.599563 2.584736
v 3.371112 1.460085 2.531622
v 3.444996 1.444777 2.486031
v 3.411162 1.339755 2.528154
v 3.427418 1.323261 2.590833
v 3.444776 1.296038 2.669665
v 3.500875 1.422441 2.658931
v 3.524493 1.533937 2.647484
v 3.405994 1.567784 2.587610
v 3.348289 1.353813 2.652430
v 3.407264 1.377262 2.681957
v 3.275495 1.565760 2.551197
v 3.266477 1.446366 2.569282
v 3.284344 1.384521 2.639782
v 3.304918 1.316012 2.720375
v 3.317054 1.416544 2.737306
v 3.319957 1.513689 2.725484
v 3.310424 1.626227 2.670594
v 3.104994 1.513812 2.658554
v 3.133998 1.498711 2.622498
v 3.187243 1.404348 2.682121
v 3.191617 1.405453 2.745390
v 3.150426 1.500778 2.738896
v 3.136679 1.534610 2.690292
v 3.022323 1.396445 2.732710
v 3.005612 1.417350 2.713172
v 2.937963 1.359406 2.740983
v 2.619400 0.836443 2.784658
v 2.631110 1.031882 2.735200
v 2.507131 0.963055 2.700941
v 2.416276 0.907939 2.829203
v 2.475952 0.927703 2.880530
v 2.641003 1.040914 2.819426
v 2.534558 1.167226 2.736508
v 2.424728 1.103202 2.715036
v 2.294082 1.069966 2.796330
v 2.410975 1.080952 2.870480
v 2.512341 1.212487 2.862578
v 2.450347 1.464551 2.858533
v 2.452378 1.467777 2.747118
v 2.328728 1.205042 2.693402
v 2.213727 1.180020 2.824317
v 2.351289 1.228696 2.904315
v 2.302768 1.385788 2.674027
v 2.181104 1.281834 2.650324
v 2.088005 1.211674 2.716409
v 2.193238 1.375706 2.954117
v 2.363821 1.454138 2.950388
v 2.362959 1.606321 2.881374
v 2.361672 1.602968 2.759331
v 2.098144 1.372479 2.629177
v 2.028005 1.313311 2.713211
v 2.069159 1.351062 2.829210
v 2.290648 1.731235 2.861420
v 2.239311 1.678779 2.741946
v 2.137134 1.569013 2.680747
v 2.006812 1.430359 2.633847
v 1.985721 1.413202 2.748263
v 1.986664 1.418641 2.851095
v 2.084691 1.525592 2.947749
v 2.023519 1.815478 2.743722
v 2.025592 1.633499 2.705182
v 1.979258 1.528625 2.724321
v 1.957625 1.524908 2.860508
v 2.027434 1.621476 2.867782
v 2.079435 1.691065 2.845196
v 1.985621 1.735524 2.710530
v 1.942655 1.638476 2.662796
v 1.902726 1.570700 2.753254
v 1.879332 1.534161 2.825329
v 1.889395 1.568371 2.905576
v 1.930913 1.699788 2.854032
v 2.011940 1.810092 2.830755
v 1.892264 1.795161 2.725017
v 1.889788 1.760153 2.670734
v 1.885167 1.655386 2.690161
v 1.786383 1.557183 2.879734
v 1.843639 1.645700 2.877119
v 1.898990 1.851463 2.784647
v 1.778792 1.842178 2.750127
v 1.798337 1.769000 2.619847
v 1.792560 1.659207 2.704927
v 1.786063 1.592136 2.782047
v 1.764168 1.766893 2.849657
v 1.676806 1.765016 2.706100
v 1.701773 1.728468 2.673724
v 1.693892 1.619089 2.762463
v 1.712361 1.624145 2.821811
v 1.657988 1.718407 2.797259
v 1.534127 1.641390 2.723685
v 1.616338 1.668038 2.711135
v 1.614312 1.630953 2.778869
v 1.452355 1.529626 2.719558
v 1.210880 0.895819 2.664473
v 1.206169 1.074211 2.634353
v 1.156854 1.049108 2.579396
v 1.020071 1.143086 2.518409
v 0.975308 1.029316 2.554002
v 1.061995 1.007100 2.652316
v 1.176940 1.083203 2.725234
v 1.104847 1.213872 2.735152
v 1.197025 1.198313 2.627213
v 1.009580 1.150051 2.702516
v 1.083657 1.417729 2.706802
v 1.121114 1.405351 2.612309
v 0.926166 1.262364 2.429222
v 0.847802 1.223010 2.477288
v 0.854288 1.247544 2.577689
v 0.787583 1.415156 2.708890
v 0.997595 1.366093 2.718302
v 1.074987 1.614639 2.725443
v 1.066766 1.571758 2.572765
v 0.965219 1.469986 2.444452
v 0.818821 1.343028 2.340651
v 0.733839 1.307508 2.437204
v 0.701500 1.314554 2.558408
v 0.928210 1.518462 2.730679
v 0.957673 1.698396 2.614463
v 0.838954 1.700311 2.450855
v 0.855149 1.559532 2.427477
v 0.738999 1.457416 2.397955
v 0.684040 1.436384 2.474103
v 0.664146 1.448487 2.566781
v 0.755081 1.545983 2.647851
v 0.876467 1.798402 2.523347
v 0.757003 1.627177 2.387974
v 0.648027 1.529261 2.410726
v 0.606354 1.520343 2.491006
v 0.596308 1.546256 2.580782
v 0.698050 1.658432 2.611635
v 0.797339 1.747979 2.591746
v 0.758692 1.817121 2.450701
v 0.661316 1.679696 2.379755
v 0.594184 1.623902 2.436412
v 0.560716 1.614243 2.496310
v 0.561708 1.651269 2.558581
v 0.625114 1.808111 2.515146
v 0.707715 1.817129 2.512950
v 0.657048 1.887894 2.376842
v 0.648176 1.820094 2.326813
v 0.589392 1.694841 2.324916
v 0.477070 1.660356 2.413083
v 0.426726 1.602861 2.509301
v 0.483051 1.700123 2.557371
v 0.640401 1.934280 2.459581
v 0.472155 1.860350 2.254761
v 0.573910 1.858432 2.261524
v 0.522725 1.728536 2.318880
v 0.437499 1.740580 2.492584
v 0.460940 1.849506 2.483251
v 0.521079 1.957186 2.400469
v 0.431205 1.890777 2.305420
v 0.444106 1.761665 2.316707
v 0.427940 1.677225 2.347245
v 0.392038 1.671167 2.415151
v 0.361751 1.831330 2.430739
v 0.403483 1.885297 2.358326
v 0.324065 1.856878 2.275211
v 0.347842 1.803898 2.261488
v 0.336851 1.711864 2.368209
v 0.168759 1.667041 2.222632
v 0.281846 1.720580 2.249332
v 0.291837 1.689775 2.268109
v 0.270913 1.688418 2.304702
v 0.251023 1.739807 2.289855
v 0.128405 1.558733 2.181867
vn 0.0996 -0.7941 -0.5996
vn -0.6435 0.0364 -0.7645
vn -0.1436 0.6893 -0.7101
vn -0.7372 -0.1640 -0.6555
vn -0.4038 -0.5355 -0.7417
vn 0.1387 -0.9510 -0.2762
vn 0.8034 -0.5945 -0.0339
vn 0.9733 0.1700 -0.1545
vn 0.5954 0.7879 -0.1571
vn -0.2238 0.7952 -0.5636
vn -0.5649 -0.6255 -0.5383
vn -0.0527 -0.9900 -0.1309
vn 0.4370 -0.8927 0.1104
vn 0.8195 -0.5378 0.1980
vn 0.8912 0.3782 0.2506
vn 0.7085 0.6571 0.2573
vn 0.6247 0.7793 -0.0500
vn -0.7571 0.1534 -0.6350
vn -0.4006 0.7907 -0.4630
vn -0.7909 -0.0763 -0.6071
vn -0.6143 -0.6468 -0.4520
vn -0.1257 -0.9916 0.0295
vn 0.2486 -0.9456 0.2099
vn 0.7466 -0.4513 0.4888
vn 0.7933 0.3862 0.4706
vn 0.5336 0.8337 0.1422
vn -0.7090 0.2959 -0.6401
vn 0.0202 -0.9731 0.2297
vn 0.6352 -0.4039 0.6583
vn 0.6844 0.3481 0.6406
vn 0.6229 0.5857 0.5186
vn 0.4935 0.8256 0.2737
vn -0.4296 0.7494 -0.5038
vn -0.6790 -0.0992 -0.7274
vn -0.6613 -0.6373 -0.3957
vn -0.2633 -0.9647 -0.0072
vn 0.5783 -0.2965 0.7601
vn 0.6339 0.3342 0.6975
vn 0.5000 0.8242 0.2659
vn -0.5470 0.4567 -0.7016
vn -0.6230 -0.0583 -0.7801
vn -0.5576 -0.7111 -0.4283
vn 0.0246 -0.9992 0.0321
vn 0.6399 0.3959 0.6586
vn -0.3550 0.5470 -0.7582
vn -0.1955 0.8050 -0.5601
vn -0.4746 -0.0496 -0.8788
vn -0.4718 -0.6342 -0.6125
vn -0.1877 -0.9100 -0.3697
vn 0.5373 -0.2902 0.7919
vn 0.6544 0.1510 0.7409
vn 0.7712 0.3842 0.5076
vn 0.4842 0.8508 0.2039
vn -0.2234 0.6874 -0.6911
vn -0.4845 0.0432 -0.8737
vn -0.4790 -0.5615 -0.6747
vn -0.2892 -0.7873 -0.5444
vn -0.0120 -0.9988 0.0476
vn 0.5571 0.0113 0.8304
vn 0.6935 0.2882 0.6603
vn -0.0808 0.9367 -0.3406
vn 0.3935 -0.4261 0.8146
vn 0.5624 0.1720 0.8088
vn 0.3556 0.8760 0.3259
vn -0.1461 0.7579 -0.6358
vn -0.0245 0.9917 -0.1263
vn -0.4981 0.1328 -0.8569
vn -0.4922 -0.4398 -0.7512
vn -0.3576 -0.6171 -0.7009
vn -0.0833 -0.9917 0.0979
vn 0.1814 -0.4598 0.8693
vn 0.4266 -0.1493 0.8920
vn 0.0298 0.7753 -0.6309
vn 0.1681 0.9857 0.0119
vn -0.3837 0.1668 -0.9083
vn -0.3443 -0.3451 -0.8731
vn -0.1741 -0.5415 -0.8224
vn 0.1156 -0.5687 0.8143
vn 0.4256 -0.2916 0.8566
vn 0.4978 0.0888 0.8627
vn 0.4214 0.8200 0.3872
vn 0.2852 0.7183 -0.6346
vn 0.4562 0.8857 0.0858
vn -0.1694 0.1853 -0.9680
vn -0.0982 -0.2414 -0.9654
vn 0.0854 -0.4526 -0.8876
vn 0.1764 -0.9786 0.1058
vn 0.2128 -0.6844 0.6974
vn 0.5065 -0.4134 0.7567
vn 0.5798 0.0763 0.8112
vn 0.4042 0.6899 -0.6006
vn 0.5600 0.8050 0.1958
vn -0.0534 0.2291 -0.9719
vn 0.1213 -0.1213 -0.9852
vn 0.1172 -0.9859 0.1192
vn 0.2194 -0.7832 0.5817
vn 0.5181 -0.4959 0.6969
vn 0.5181 0.7102 0.4767
vn 0.2758 0.7860 -0.5533
vn 0.5122 0.7995 0.3138
vn -0.1187 0.3005 -0.9464
vn 0.0901 0.0223 -0.9957
vn 0.1710 -0.4193 -0.8916
vn 0.0178 -0.8541 0.5198
vn 0.3737 -0.5801 0.7237
vn 0.4023 0.0657 0.9132
vn 0.4108 0.6457 0.6436
vn -0.1096 0.8804 -0.4615
vn 0.2701 0.8533 0.4460
vn -0.2949 0.3830 -0.8754
vn -0.1716 0.2004 -0.9646
vn -0.1395 -0.4211 -0.8962
vn -0.2948 -0.9522 0.0799
vn 0.0923 -0.6280 0.7727
vn 0.0827 0.0956 0.9920
vn 0.0964 0.5624 0.8212
vn -0.3924 0.8290 -0.3985
vn -0.0390 0.8556 0.5161
vn -0.4661 -0.3774 -0.8002
vn -0.5939 -0.8046 0.0052
vn -0.2246 -0.8704 0.4382
vn -0.2633 -0.5996 0.7557
vn -0.1788 0.1154 0.9771
vn -0.1517 0.4557 0.8771
vn -0.4133 0.8028 -0.4297
vn -0.1731 0.8382 0.5171
vn -0.2936 0.4456 -0.8457
vn -0.1935 0.2855 -0.9387
vn -0.6102 -0.7857 -0.1023
vn -0.2769 -0.8880 0.3672
vn -0.3285 -0.5680 0.7546
vn -0.1923 0.1168 0.9744
vn -0.1976 0.3782 0.9044
vn -0.2636 0.8035 -0.5338
vn -0.1261 0.8774 0.4628
vn -0.1183 0.5235 -0.8438
vn -0.3602 -0.5676 -0.7403
vn -0.3980 -0.9017 -0.1687
vn -0.1396 -0.9358 0.3237
vn -0.1632 -0.4796 0.8622
vn -0.1145 0.3395 0.9336
vn -0.0507 0.7966 -0.6024
vn -0.0417 0.1513 -0.9876
vn -0.1928 -0.9563 -0.2199
vn -0.0618 -0.9620 0.2659
vn -0.1589 0.1012 0.9821
vn 0.0127 0.7187 -0.6952
vn -0.0456 0.9591 0.2794
vn -0.0618 0.5508 -0.8323
vn -0.2749 -0.6578 -0.7013
vn -0.1055 -0.9556 0.2752
vn -0.1558 -0.3711 0.9154
vn -0.3008 0.9388 0.1681
vn -0.1265 0.0045 -0.9920
vn -0.2879 -0.6319 -0.7196
vn -0.2414 -0.9254 -0.2922
vn -0.3088 -0.9077 0.2842
vn -0.2714 -0.2798 0.9209
vn -0.2773 0.0868 0.9568
vn -0.1923 0.4348 0.8798
vn 0.0535 0.4372 -0.8978
vn -0.3830 0.9236 0.0197
vn -0.1227 -0.1407 -0.9824
vn -0.3137 -0.6832 -0.6594
vn -0.3870 -0.8401 0.3801
vn -0.3488 -0.0987 0.9320
vn -0.3575 0.4607 0.8124
vn -0.2058 0.9661 -0.1559
vn -0.1806 -0.9205 -0.3465
vn -0.1910 -0.7275 0.6589
vn -0.3246 0.5737 0.7520
vn -0.2486 0.1828 0.9512
vn 0.2402 0.6475 -0.7232
vn 0.1993 0.9129 -0.3563
vn 0.3648 0.2344 -0.9011
vn 0.2421 -0.4829 -0.8416
vn 0.0952 -0.8127 -0.5749
vn 0.1724 -0.9714 -0.1633
vn -0.1577 0.0428 0.9866
vn 0.2129 -0.8415 -0.4966
vn 0.2506 -0.9680 0.0164
vn -0.0227 -0.4583 0.8885
vn -0.0037 0.8092 0.5875
vn 0.2119 0.6307 -0.7465
vn 0.2211 0.8378 -0.4992
vn 0.4425 0.0030 -0.8968
vn 0.3467 -0.6384 -0.6872
vn 0.1394 -0.9892 0.0461
vn -0.0642 -0.3035 0.9507
vn -0.2378 0.1424 0.9608
vn -0.1342 0.3843 0.9134
vn 0.0359 0.8853 0.4635
vn 0.3303 -0.1386 -0.9336
vn 0.1576 -0.6657 -0.7294
vn 0.0406 -0.8694 -0.4924
vn -0.0459 -0.9947 0.0921
vn -0.3129 -0.2115 0.9259
vn -0.3106 0.4660 0.8285
vn -0.2570 0.9226 0.2875
vn 0.1231 0.5609 -0.8187
vn 0.0168 0.8045 -0.5937
vn 0.2079 -0.2881 -0.9348
vn 0.0681 -0.7147 -0.6961
vn -0.4274 -0.8972 0.1115
vn -0.4695 -0.0597 0.8809
vn -0.4816 0.2077 0.8514
vn -0.4595 0.5203 0.7198
vn -0.3815 0.9192 0.0973
vn 0.0365 -0.9002 -0.4340
vn -0.4040 -0.8909 0.2076
vn -0.5439 0.5846 0.6020
vn -0.3504 0.9360 -0.0330
vn 0.2959 0.3150 -0.9018
vn 0.0068 0.8409 -0.5412
vn 0.2908 -0.5348 -0.7933
vn 0.2532 -0.7697 -0.5860
vn -0.0132 -0.9475 -0.3195
vn -0.4588 -0.7552 0.4681
vn -0.6295 -0.0135 0.7769
vn -0.4525 0.7210 0.5248
vn -0.2016 0.9632 -0.1779
vn -0.0169 0.9130 -0.4077
vn 0.4066 -0.5729 -0.7116
vn 0.1119 -0.9550 -0.2747
vn -0.5794 -0.5902 0.5621
vn -0.6850 0.0883 0.7232
vn -0.5637 0.7299 0.3867
vn 0.4449 0.1266 -0.8866
vn 0.3545 -0.6581 -0.6642
vn -0.7732 0.1277 0.6212
vn -0.6216 0.7025 0.3466
vn 0.0743 0.8862 -0.4573
vn -0.3475 -0.9105 0.2243
vn -0.8387 -0.1408 0.5260
vn 0.3697 -0.8351 -0.4074
vn -0.9203 0.1946 0.3395
vn -0.1893 0.9478 -0.2565
vn 0.6361 0.1862 -0.7488
vn -0.1094 -0.9862 -0.1243
vn -0.9855 -0.0470 0.1629
vn -0.1078 -0.9454 -0.3076
vn -0.5717 -0.4691 -0.6731
vn 0.2041 0.2864 -0.9361
vn -0.6547 -0.7555 0.0236
vn -0.1196 -0.8335 0.5395
vn 0.6314 -0.5181 0.5770
vn 0.8971 0.1708 0.4074
vn 0.9284 0.3676 -0.0536
vn -0.3592 0.1735 -0.9170
vn 0.3714 0.6627 -0.6503
vn -0.7012 -0.3381 -0.6277
vn -0.8038 -0.5719 -0.1639
vn -0.3347 -0.6810 0.6513
vn 0.4223 -0.1630 0.8917
vn 0.8648 0.4313 0.2571
vn 0.5000 0.6264 -0.5980
vn -0.7599 -0.3584 -0.5423
vn -0.3910 -0.7717 0.5016
vn 0.3119 -0.1820 0.9325
vn 0.8648 0.4377 0.2462
vn 0.1531 0.5331 -0.8321
vn -0.4513 -0.1375 -0.8817
vn -0.3827 -0.8488 0.3648
vn 0.1025 -0.3822 0.9184
vn 0.6006 -0.1250 0.7897
vn 0.8744 0.2712 0.4024
vn 0.4700 0.2340 -0.8511
vn 0.8093 0.5553 -0.1917
vn -0.3249 0.0947 -0.9410
vn -0.3928 -0.4583 -0.7973
vn -0.5035 -0.8580 0.1016
vn -0.1720 -0.5021 0.8475
vn 0.4320 -0.2318 0.8716
vn 0.7227 0.1953 0.6630
vn -0.0142 0.7332 -0.6799
vn 0.5881 0.7807 0.2112
vn -0.6122 -0.0703 -0.7876
vn -0.8646 -0.4945 0.0893
vn 0.0996 -0.1457 0.9843
vn -0.1421 0.7836 -0.6047
vn 0.3613 0.8886 0.2827
vn -0.3698 0.3335 -0.8672
vn -0.6228 -0.1417 -0.7694
vn -0.8692 -0.4860 0.0915
vn -0.2895 -0.4689 0.8345
vn -0.0098 -0.0820 0.9966
vn 0.3195 0.3571 0.8777
vn -0.4342 -0.0044 -0.9008
vn 0.2072 0.9633 0.1707
vn -0.4132 0.2644 -0.8714
vn -0.7712 -0.0656 -0.6332
vn -0.6173 -0.7779 0.1177
vn -0.2040 -0.4738 0.8567
vn 0.1382 -0.0353 0.9898
vn 0.1522 0.4722 0.8683
vn -0.4333 0.9011 -0.0149
vn -0.2218 -0.9744 0.0380
vn 0.0972 -0.3501 0.9316
vn -0.4272 -0.2781 -0.8604
vn -0.2726 0.5048 -0.8191
vn -0.3429 -0.7683 -0.5404
vn -0.0310 -0.8883 0.4582
vn 0.2946 -0.1424 0.9450
vn 0.3801 0.3663 0.8493
vn -0.0044 0.7672 0.6414
vn -0.4270 -0.0968 -0.8990
vn -0.7070 0.6354 -0.3104
vn -0.2817 -0.8343 -0.4740
vn -0.2264 -0.6060 0.7625
vn -0.1711 0.3936 0.9032
vn -0.3409 0.8033 0.4884
vn 0.1317 -0.9863 0.0995
vn -0.7045 0.1822 -0.6860
vn -0.5912 0.1364 0.7949
vn 0.0048 -0.5421 0.8403
vn -0.1771 -0.3568 -0.9172
vn 0.7217 0.2164 -0.6575
vn -0.6825 -0.7054 0.1912
vn -0.0055 -0.3794 0.9252
vn 0.8163 0.2715 0.5099
vn -0.1707 -0.1792 -0.9689
vn 0.6086 0.4247 -0.6702
vn -0.6442 -0.7647 0.0146
vn -0.2496 -0.1435 0.9577
vn 0.6070 0.1383 0.7825
vn 0.8045 0.1581 -0.5726
vn 0.8807 0.3642 0.3029
vn 0.0715 -0.2892 -0.9546
vn -0.4915 -0.5287 0.6920
vn 0.0070 -0.3391 0.9407
vn 0.3052 0.0853 -0.9485
vn -0.0336 -0.3144 -0.9487
vn -0.6248 -0.7492 -0.2199
vn -0.2401 -0.2104 0.9477
vn 0.2908 0.0919 0.9524
vn 0.5600 0.5279 -0.6385
vn 0.7567 0.5727 0.3153
vn -0.1259 -0.0680 -0.9897
vn -0.7825 -0.5307 -0.3257
vn -0.5655 -0.5324 0.6299
vn 0.2884 0.6971 -0.6564
vn 0.4652 0.8612 0.2049
vn 0.0568 0.3113 -0.9486
vn -0.2831 -0.0196 -0.9589
vn -0.9195 -0.3132 -0.2374
vn -0.6745 -0.3590 0.6451
vn -0.3966 0.0335 0.9174
vn 0.0785 0.1353 -0.9877
vn 0.3498 0.9058 -0.2391
vn -0.6780 0.2495 -0.6914
vn -0.4406 -0.2223 0.8698
vn -0.2745 0.1609 0.9480
vn 0.0093 0.5390 0.8423
vn 0.3382 0.1517 -0.9288
vn 0.0408 -0.1966 -0.9796
vn -0.3807 -0.5990 -0.7045
vn -0.1436 -0.9676 0.2077
vn 0.0271 -0.2330 0.9721
vn 0.0446 0.3193 0.9466
vn 0.2293 0.6857 0.6909
vn 0.2537 0.0486 -0.9661
vn 0.1614 0.8870 -0.4327
vn -0.2460 -0.1838 -0.9517
vn -0.6334 -0.5954 0.4943
vn -0.0601 0.0278 0.9978
vn -0.1368 0.8643 0.4841
vn -0.0092 -0.0311 -0.9995
vn -0.4220 0.9048 0.0577
vn -0.0127 -0.6071 -0.7945
vn -0.1429 -0.9087 -0.3923
vn -0.2212 0.5980 0.7704
vn -0.3922 0.0405 -0.9190
vn -0.6092 0.6846 -0.4001
vn -0.1825 -0.8730 -0.4523
vn -0.6588 -0.5509 0.5123
vn -0.6265 0.3776 0.6819
vn -0.1150 -0.2424 -0.9633
vn -0.8082 0.5218 -0.2729
vn -0.2630 -0.2780 0.9239
vn -0.5565 -0.7327 0.3917
vn 0.0715 -0.5594 0.8258
vn 0.4095 -0.1821 -0.8939
vn 0.9433 0.2873 -0.1661
vn 0.2491 -0.2394 -0.9384
vn -0.3447 -0.8401 -0.4189
vn -0.5393 -0.5478 0.6395
vn 0.2808 -0.0076 0.9597
vn 0.9318 0.2711 -0.2413
vn 0.2037 0.1553 0.9666
vn -0.4662 -0.2816 0.8387
vn 0.9320 0.1996 -0.3027
vn 0.8239 0.0745 0.5619
vn 0.3061 -0.3836 -0.8713
vn -0.4321 -0.7945 -0.4268
vn -0.6379 -0.6304 0.4423
vn -0.5049 -0.1605 0.8481
vn -0.0110 -0.0478 0.9988
vn 0.8105 0.3612 -0.4611
vn 0.6241 0.5152 0.5874
vn 0.5539 0.1254 -0.8231
vn 0.1064 -0.0547 -0.9928
vn -0.6631 -0.5773 -0.4765
vn -0.7266 -0.5251 0.4431
vn -0.1543 0.2036 0.9668
vn 0.5132 0.2843 -0.8098
vn 0.4248 0.8392 0.3395
vn 0.3451 0.1521 -0.9262
vn -0.1493 0.0870 -0.9850
vn -0.8293 -0.3764 -0.4131
vn -0.7857 -0.2949 0.5438
vn -0.5526 0.1031 0.8270
vn 0.4901 0.8683 0.0765
vn 0.1932 0.0397 -0.9804
vn -0.3130 -0.2003 -0.9284
vn -0.8157 -0.5350 -0.2198
vn -0.6456 -0.2017 0.7365
vn -0.3370 0.2071 0.9185
vn -0.0827 0.6066 0.7907
vn 0.5361 0.8025 -0.2619
vn 0.2145 -0.2616 -0.9410
vn -0.2892 -0.5229 -0.8019
vn -0.6328 -0.7529 0.1810
vn -0.3581 -0.0537 0.9321
vn -0.0700 0.4442 0.8932
vn 0.1957 0.7256 0.6597
vn 0.6840 -0.1342 -0.7170
vn 0.5742 0.7465 -0.3361
vn 0.2740 -0.5512 -0.7881
vn -0.1221 -0.8739 -0.4705
vn -0.7047 -0.6643 0.2490
vn -0.2656 0.0485 0.9629
vn 0.1411 0.8301 0.5395
vn 0.2746 0.1078 -0.9555
vn -0.0398 0.3112 -0.9495
vn 0.0878 -0.4802 -0.8728
vn -0.7195 0.0550 0.6923
vn -0.3780 0.5564 0.7400
vn -0.0315 0.9098 0.4139
vn 0.0794 -0.4274 -0.9006
vn 0.0793 -0.7249 -0.6843
vn -0.7442 -0.6453 0.1726
vn -0.7401 0.3483 0.5753
vn -0.5587 0.7840 0.2705
vn -0.1363 0.8549 -0.5005
vn 0.0650 0.0060 -0.9979
vn -0.4870 0.7764 -0.4000
vn -0.7105 -0.5205 0.4736
vn -0.8023 0.2161 0.5565
vn 0.3093 -0.1398 -0.9406
vn -0.9009 0.3382 -0.2720
vn 0.2909 -0.8138 -0.5032
vn -0.2865 -0.5320 0.7968
vn -0.8414 -0.5092 0.1809
vt 0.369864 0.090000
vt 0.904508 0.151402
vt 1.000000 0.137368
vt 0.654508 0.137963
vt 0.345491 0.137368
vt 0.095491 0.137368
vt 0.087640 0.137368
vt 0.883166 0.137368
vt 1.000000 0.184737
vt 0.345491 0.184737
vt 0.095491 0.184737
vt 0.000000 0.184737
vt 0.654508 0.202749
vt 0.904508 0.184737
vt 0.904508 0.232105
vt 1.000000 0.238944
vt 0.654508 0.271101
vt 0.345492 0.247675
vt 0.095491 0.234497
vt 0.000000 0.232105
vt 0.095491 0.232105
vt 0.345491 0.232105
vt 0.904508 0.320554
vt 0.000000 0.297970
vt 0.095491 0.279474
vt 0.345491 0.279474
vt 0.654508 0.314799
vt 0.904508 0.279474
vt 1.000000 0.361184
vt 0.654508 0.326842
vt 0.345491 0.326842
vt 0.095491 0.326842
vt 0.095491 0.350897
vt 0.904508 0.369135
vt 0.904508 0.374211
vt 0.654508 0.374211
vt 0.337344 0.374211
vt 0.000000 0.387426
vt 0.504880 0.374211
vt 0.904508 0.421579
vt 1.000000 0.451217
vt 0.654508 0.421579
vt 0.345491 0.421579
vt 0.095491 0.421579
vt 0.095491 0.460388
vt 0.904508 0.457354
vt 0.904508 0.504162
vt 0.654508 0.500576
vt 0.345491 0.489811
vt 0.095491 0.485873
vt 0.000000 0.509230
vt 0.345491 0.490304
vt 0.654508 0.468947
vt 1.000000 0.516316
vt 0.095491 0.516316
vt 0.654508 0.530192
vt 0.904508 0.520844
vt 0.904508 0.563684
vt 1.000000 0.563684
vt 0.654508 0.563684
vt 0.345491 0.563684
vt 0.095491 0.563684
vt 0.000000 0.590660
vt 0.904508 0.611053
vt 1.000000 0.611053
vt 0.654508 0.611053
vt 0.345491 0.611053
vt 0.095491 0.611053
vt 0.904508 0.638613
vt 0.904508 0.658421
vt 1.000000 0.658421
vt 0.654508 0.658421
vt 0.345491 0.658421
vt 0.095492 0.666276
vt 0.000000 0.658421
vt 0.095491 0.658421
vt 0.654508 0.680423
vt 0.904508 0.705790
vt 1.000000 0.705790
vt 0.654508 0.705790
vt 0.345491 0.705790
vt 0.000000 0.742044
vt 0.095491 0.705790
vt 0.904508 0.753158
vt 1.000000 0.753158
vt 0.654508 0.753158
vt 0.345491 0.753158
vt 0.095491 0.753158
vt 0.095491 0.784489
vt 0.904508 0.800526
vt 1.000000 0.800526
vt 0.654508 0.813784
vt 0.345491 0.814562
vt 0.095491 0.800526
vt 0.000000 0.800526
vt 0.345491 0.800526
vt 0.654508 0.800526
vt 0.904508 0.847895
vt 1.000000 0.847895
vt 0.095491 0.856549
vt 0.000000 0.847895
vt 0.095491 0.847895
vt 0.345491 0.847895
vt 0.654508 0.847895
vt 0.904508 0.895263
vt 1.000000 0.895263
vt 0.654508 0.895263
vt 0.345491 0.928793
vt 0.000000 0.895263
vt 0.095491 0.895263
vt 0.345491 0.895263
vt 0.654508 0.935912
vt 0.904508 0.942632
vt 1.000000 0.953621
vt 0.654508 0.952686
vt 0.095491 0.955435
vt 0.000000 0.942632
vt 0.095491 0.942632
vt 0.345491 0.970488
vt 0.904508 0.955655
vt 0.904508 0.990000
vt 0.345491 1.024722
vt 0.000000 0.993596
vt 0.095491 0.990000
vt 0.657056 1.025770
vt 0.904508 1.049555
vt 1.000000 1.037368
vt 0.654508 1.069660
vt 0.095491 1.037368
vt 0.345491 1.037368
vt 1.000000 1.084737
vt 0.345491 1.084737
vt 0.095491 1.084737
vt 0.000000 1.121135
vt 0.654508 1.084737
vt 0.904508 1.084737
vt 0.665606 1.171073
vt 1.000000 1.132105
vt 0.345491 1.153044
vt 0.095491 1.132105
vt 0.344224 1.144389
vt 0.904508 1.132105
vt 1.000000 1.179474
vt 0.018300 1.179474
vt 0.095491 1.210500
vt 0.904508 1.194951
vt 0.654508 1.203945
vt 0.904508 1.233340
vt 1.000000 1.247220
vt 0.654508 1.244905
vt 0.345491 1.242535
vt 0.095491 1.226842
vt 0.000000 1.226842
vt 0.361215 1.242989
vt 0.095491 1.298985
vt 0.000000 1.274210
vt 0.095491 1.274210
vt 0.904508 1.274210
vt 0.904508 1.356450
vt 1.000000 1.344977
vt 0.654508 1.321579
vt 0.345491 1.321579
vt 0.000000 1.321579
vt 0.095491 1.321579
vt 0.345491 1.345254
vt 0.904508 1.321579
vt 0.654508 1.368947
vt 0.345491 1.368947
vt 0.095491 1.401765
vt 0.000000 1.368947
vt 0.095491 1.368947
vt 0.904508 1.368947
vt 0.904508 1.425490
vt 1.000000 1.444519
vt 0.654508 1.423343
vt 0.345491 1.416316
vt 0.000000 1.416316
vt 0.095492 1.422660
vt 0.345491 1.423689
vt 0.654508 1.416316
vt 0.904508 1.416316
vt 0.106988 1.463684
vt 0.000000 1.463684
vt 0.654508 1.463684
vt 0.904508 1.463684
vt 0.904508 1.537905
vt 1.000000 1.517644
vt 0.654508 1.535754
vt 0.345491 1.539436
vt 0.095491 1.524840
vt 0.000000 1.535413
vt 0.095048 1.545231
vt 0.654508 1.529474
vt 0.904508 1.534323
vt 1.000000 1.626192
vt 0.654508 1.634009
vt 0.095491 1.629659
vt 0.000000 1.624817
vt 0.194051 1.605790
vt 0.654508 1.605790
vt 0.904508 1.725101
vt 0.469481 1.692255
vt 0.252247 1.655469
vt 0.654508 1.664044
vt 0.985344 1.735296
vt -0.090399 1.744296
vt 0.345491 1.727722
vt 0.375483 1.747895
vt 0.274345 1.827139
vt 0.821046 1.810868
vt 0.830215 1.811368
vt -0.052721 1.836340
vt 0.494976 1.890000
vt 0.477002 0.090000
vt 0.500000 0.147143
vt 0.994996 0.147143
vt 0.146447 0.147143
vt 0.000000 0.147143
vt 0.853553 0.147143
vt 0.853553 0.207861
vt 1.000000 0.204286
vt 0.435155 0.214766
vt 0.146447 0.204286
vt 0.000000 0.204286
vt 0.211379 0.214780
vt 0.807908 0.204286
vt 1.000000 0.261429
vt 0.500000 0.261429
vt 0.000000 0.261429
vt 0.146447 0.261429
vt 0.853553 0.261429
vt 0.872450 0.318571
vt 0.467153 0.318571
vt 0.000000 0.318571
vt 0.146447 0.318571
vt 0.500000 0.318571
vt 0.853553 0.318571
vt 0.853553 0.375714
vt 1.000000 0.375714
vt 0.500000 0.380167
vt 0.146447 0.375714
vt 0.000000 0.375714
vt 0.146447 0.424141
vt 0.500000 0.375714
vt 0.853553 0.432857
vt 0.995396 0.432857
vt 0.146447 0.432857
vt 0.000000 0.432857
vt 0.500000 0.432857
vt 0.853553 0.490000
vt 1.000000 0.490000
vt 0.500000 0.490000
vt 0.146447 0.490000
vt 0.000000 0.490000
vt 0.538596 0.598048
vt 1.000000 0.547143
vt 0.500000 0.547143
vt 0.146447 0.547143
vt 0.000000 0.547143
vt 0.853553 0.557151
vt 0.970423 0.604286
vt 0.002782 0.604286
vt 0.152846 0.604286
vt 0.500000 0.661429
vt 0.868108 0.661429
vt 0.146447 0.661429
vt 0.000000 0.661429
vt 0.853553 0.661429
vt 0.853553 0.747292
vt 1.000000 0.765261
vt 0.191443 0.726653
vt 0.014944 0.742282
vt 0.486723 0.751106
vt 0.853553 0.750368
vt 0.040780 0.833242
vt 0.856063 0.832857
vt 0.452941 0.890000
vt 0.523050 0.180000
vt 0.500000 0.237143
vt 0.966305 0.237143
vt 0.003617 0.237143
vt 0.161127 0.237143
vt 0.853553 0.237143
vt 0.428796 0.294286
vt 0.873978 0.294286
vt 0.000000 0.312133
vt 0.286530 0.294286
vt 0.853553 0.313023
vt 0.853553 0.402345
vt 1.000000 0.401913
vt 0.306362 0.351429
vt 0.146447 0.370742
vt 0.500000 0.351429
vt 0.500000 0.412704
vt 0.146447 0.408571
vt 0.000000 0.408571
vt 0.500000 0.438135
vt 0.853553 0.419315
vt 0.853553 0.465714
vt 1.000000 0.465714
vt 0.146447 0.465714
vt 0.000000 0.465714
vt 0.853553 0.522857
vt 0.995756 0.522857
vt 0.500000 0.522857
vt 0.146447 0.522857
vt 0.000000 0.522857
vt 0.524711 0.580000
vt 1.000000 0.636043
vt 0.146980 0.580000
vt 0.146447 0.580000
vt 0.500000 0.580000
vt 0.853553 0.580000
vt 0.853553 0.637143
vt 0.500000 0.637143
vt 0.146447 0.637143
vt 0.000000 0.637143
vt 0.500000 0.650800
vt 0.853553 0.694286
vt 1.000000 0.694286
vt 0.515317 0.694286
vt 0.000000 0.738136
vt 0.146447 0.694286
vt 0.853553 0.751429
vt 0.865564 0.751429
vt 0.500000 0.751429
vt 0.146447 0.751429
vt 0.485495 0.751429
vt 0.853553 0.808571
vt 0.983414 0.808571
vt 0.151422 0.828655
vt 0.011503 0.808571
vt 0.500000 0.825935
vt 0.768305 0.865714
vt 0.965116 0.904261
vt 0.131744 0.872559
vt 0.400711 0.979557
vt 0.512261 0.270049
vt 0.500000 0.327143
vt 0.867456 0.327143
vt 0.146447 0.381215
vt 0.000000 0.354593
vt 0.146447 0.327143
vt 0.853553 0.327143
vt 0.795064 0.384286
vt 0.872886 0.384286
vt 0.495484 0.384286
vt 0.842865 0.441429
vt 1.000000 0.441429
vt 0.146447 0.441429
vt 0.000000 0.441429
vt 0.500000 0.499487
vt 0.853553 0.441429
vt 0.853553 0.498571
vt 1.000000 0.498571
vt 0.500000 0.498571
vt 0.146447 0.498571
vt 0.000000 0.498571
vt 0.853553 0.500066
vt 0.853553 0.604537
vt 1.000000 0.555714
vt 0.500000 0.555714
vt 0.146447 0.555714
vt 0.000000 0.555714
vt 1.000000 0.612857
vt 0.500000 0.612857
vt 0.146447 0.612857
vt 0.000000 0.612857
vt 0.853553 0.612857
vt 0.999094 0.670000
vt 0.500000 0.670000
vt 0.146447 0.670000
vt 0.000000 0.670000
vt 0.500000 0.699982
vt 0.853553 0.670000
vt 0.853553 0.727143
vt 1.000000 0.727143
vt 0.500000 0.727143
vt 0.146447 0.772439
vt 0.000000 0.762884
vt 0.146447 0.727143
vt 0.853553 0.784286
vt 0.862078 0.838102
vt 0.500000 0.784286
vt 0.146447 0.784286
vt 0.500000 0.841429
vt 0.146447 0.853779
vt 0.019171 0.841429
vt 0.500000 0.846419
vt 0.853553 0.841429
vt 1.000000 0.841429
vt 0.821036 0.898571
vt 1.000000 0.898571
vt 0.106532 0.898571
vt 0.708880 0.950486
vt 0.526874 0.956964
vt 0.850176 1.013687
vt 0.133725 0.955714
vt 0.146447 0.957420
vt 0.536919 1.069936
s 1
f 1/1/1 3/2/2 2/3/3
f 1/1/1 4/4/4 3/2/2
f 1/1/1 5/5/5 4/4/4
f 1/1/1 6/6/6 5/5/5
f 1/1/1 7/7/7 6/6/6
f 1/1/1 8/5/8 7/7/7
f 1/1/1 9/8/9 8/5/8
f 1/1/1 2/3/3 9/8/9
f 2/3/3 3/2/2 10/9/10
f 4/4/4 5/5/5 11/10/11
f 5/5/5 6/6/6 12/11/12
f 5/5/5 12/11/12 11/10/11
f 6/6/6 7/7/7 13/12/13
f 6/6/6 13/12/13 12/11/12
f 7/7/7 14/11/14 13/12/13
f 7/7/7 8/5/8 15/10/15
f 7/7/7 15/10/15 14/11/14
f 8/5/8 9/8/9 16/13/16
f 8/5/8 16/13/16 15/10/15
f 9/8/9 17/14/17 16/13/16
f 9/8/9 2/3/3 10/9/10
f 9/8/9 10/9/10 17/14/17
f 10/9/10 3/2/2 19/15/18
f 10/9/10 19/15/18 18/16/19
f 3/2/2 4/4/4 20/17/20
f 3/2/2 20/17/20 19/15/18
f 4/4/4 11/10/11 21/18/21
f 4/4/4 21/18/21 20/17/20
f 11/10/11 12/11/12 22/19/22
f 11/10/11 22/19/22 21/18/21
f 12/11/12 13/12/13 23/20/23
f 12/11/12 23/20/23 22/19/22
f 13/12/13 14/11/14 24/21/24
f 13/12/13 24/21/24 23/20/23
f 14/11/14 15/10/15 25/22/25
f 14/11/14 25/22/25 24/21/24
f 15/10/15 16/13/16 25/22/25
f 16/13/16 17/14/17 26/15/26
f 17/14/17 10/9/10 18/16/19
f 17/14/17 18/16/19 26/15/26
f 18/16/19 19/15/18 27/23/27
f 19/15/18 20/17/20 27/23/27
f 22/19/22 23/20/23 28/24/28
f 23/20/23 24/21/24 29/25/29
f 23/20/23 29/25/29 28/24/28
f 24/21/24 25/22/25 30/26/30
f 24/21/24 30/26/30 29/25/29
f 25/22/25 16/13/16 31/27/31
f 25/22/25 31/27/31 30/26/30
f 16/13/16 26/15/26 32/28/32
f 16/13/16 32/28/32 31/27/31
f 26/15/26 18/16/19 32/28/32
f 18/16/19 27/23/27 33/29/33
f 27/23/27 20/17/20 34/30/34
f 20/17/20 21/18/21 35/31/35
f 20/17/20 35/31/35 34/30/34
f 21/18/21 22/19/22 36/32/36
f 21/18/21 36/32/36 35/31/35
f 22/19/22 28/24/28 36/32/36
f 28/24/28 29/25/29 37/33/37
f 29/25/29 30/26/30 38/31/38
f 29/25/29 38/31/38 37/33/37
f 30/26/30 31/27/31 38/31/38
f 31/27/31 32/28/32 39/34/39
f 32/28/32 18/16/19 33/29/33
f 32/28/32 33/29/33 39/34/39
f 33/29/33 27/23/27 40/35/40
f 27/23/27 34/30/34 41/36/41
f 27/23/27 41/36/41 40/35/40
f 34/30/34 35/31/35 42/37/42
f 34/30/34 42/37/42 41/36/41
f 35/31/35 36/32/36 42/37/42
f 36/32/36 28/24/28 43/38/43
f 36/32/36 43/38/43 42/37/42
f 28/24/28 37/33/37 43/38/43
f 37/33/37 38/31/38 44/39/44
f 38/31/38 31/27/31 44/39/44
f 31/27/31 39/34/39 44/39/44
f 33/29/33 40/35/40 46/40/45
f 33/29/33 46/40/45 45/41/46
f 40/35/40 41/36/41 47/42/47
f 40/35/40 47/42/47 46/40/45
f 41/36/41 42/37/42 48/43/48
f 41/36/41 48/43/48 47/42/47
f 42/37/42 49/44/49 48/43/48
f 42/37/42 43/38/43 49/44/49
f 43/38/43 37/33/37 50/45/50
f 37/33/37 44/39/44 51/43/51
f 37/33/37 51/43/51 50/45/50
f 44/39/44 52/42/52 51/43/51
f 44/39/44 39/34/39 53/46/53
f 44/39/44 53/46/53 52/42/52
f 39/34/39 33/29/33 45/41/46
f 39/34/39 45/41/46 53/46/53
f 45/41/46 46/40/45 54/47/54
f 46/40/45 47/42/47 55/48/55
f 46/40/45 55/48/55 54/47/54
f 47/42/47 48/43/48 56/49/56
f 47/42/47 56/49/56 55/48/55
f 48/43/48 49/44/49 57/50/57
f 48/43/48 57/50/57 56/49/56
f 49/44/49 43/38/43 58/51/58
f 49/44/49 58/51/58 57/50/57
f 43/38/43 50/45/50 58/51/58
f 50/45/50 51/43/51 59/52/59
f 51/43/51 52/42/52 60/53/60
f 51/43/51 60/53/60 59/52/59
f 52/42/52 53/46/53 60/53/60
f 45/41/46 54/47/54 61/54/61
f 58/51/58 50/45/50 62/55/62
f 50/45/50 59/52/59 62/55/62
f 59/52/59 60/53/60 63/56/63
f 60/53/60 53/46/53 64/57/64
f 60/53/60 64/57/64 63/56/63
f 53/46/53 45/41/46 61/54/61
f 53/46/53 61/54/61 64/57/64
f 61/54/61 54/47/54 66/58/65
f 61/54/61 66/58/65 65/59/66
f 54/47/54 55/48/55 67/60/67
f 54/47/54 67/60/67 66/58/65
f 55/48/55 56/49/56 68/61/68
f 55/48/55 68/61/68 67/60/67
f 56/49/56 57/50/57 69/62/69
f 56/49/56 69/62/69 68/61/68
f 57/50/57 58/51/58 70/63/70
f 57/50/57 70/63/70 69/62/69
f 58/51/58 62/55/62 71/62/71
f 58/51/58 71/62/71 70/63/70
f 62/55/62 59/52/59 72/61/72
f 62/55/62 72/61/72 71/62/71
f 59/52/59 63/56/63 72/61/72
f 64/57/64 61/54/61 65/59/66
f 65/59/66 66/58/65 74/64/73
f 65/59/66 74/64/73 73/65/74
f 66/58/65 67/60/67 75/66/75
f 66/58/65 75/66/75 74/64/73
f 67/60/67 68/61/68 76/67/76
f 67/60/67 76/67/76 75/66/75
f 68/61/68 69/62/69 77/68/77
f 68/61/68 77/68/77 76/67/76
f 69/62/69 70/63/70 77/68/77
f 70/63/70 71/62/71 78/68/78
f 71/62/71 72/61/72 79/67/79
f 71/62/71 79/67/79 78/68/78
f 72/61/72 63/56/63 80/66/80
f 72/61/72 80/66/80 79/67/79
f 63/56/63 64/57/64 81/69/81
f 63/56/63 81/69/81 80/66/80
f 64/57/64 65/59/66 73/65/74
f 64/57/64 73/65/74 81/69/81
f 73/65/74 74/64/73 83/70/82
f 73/65/74 83/70/82 82/71/83
f 74/64/73 75/66/75 84/72/84
f 74/64/73 84/72/84 83/70/82
f 75/66/75 76/67/76 85/73/85
f 75/66/75 85/73/85 84/72/84
f 76/67/76 77/68/77 86/74/86
f 76/67/76 86/74/86 85/73/85
f 77/68/77 70/63/70 87/75/87
f 77/68/77 87/75/87 86/74/86
f 70/63/70 78/68/78 88/76/88
f 70/63/70 88/76/88 87/75/87
f 78/68/78 79/67/79 89/73/89
f 78/68/78 89/73/89 88/76/88
f 79/67/79 80/66/80 90/77/90
f 79/67/79 90/77/90 89/73/89
f 80/66/80 81/69/81 90/77/90
f 81/69/81 73/65/74 82/71/83
f 82/71/83 83/70/82 92/78/91
f 82/71/83 92/78/91 91/79/92
f 83/70/82 84/72/84 93/80/93
f 83/70/82 93/80/93 92/78/91
f 84/72/84 85/73/85 94/81/94
f 84/72/84 94/81/94 93/80/93
f 85/73/85 86/74/86 94/81/94
f 86/74/86 87/75/87 95/82/95
f 87/75/87 88/76/88 96/83/96
f 87/75/87 96/83/96 95/82/95
f 88/76/88 89/73/89 97/81/97
f 88/76/88 97/81/97 96/83/96
f 89/73/89 90/77/90 97/81/97
f 90/77/90 81/69/81 98/78/98
f 81/69/81 82/71/83 91/79/92
f 81/69/81 91/79/92 98/78/98
f 91/79/92 92/78/91 100/84/99
f 91/79/92 100/84/99 99/85/100
f 92/78/91 93/80/93 101/86/101
f 92/78/91 101/86/101 100/84/99
f 93/80/93 94/81/94 102/87/102
f 93/80/93 102/87/102 101/86/101
f 94/81/94 86/74/86 103/88/103
f 94/81/94 103/88/103 102/87/102
f 86/74/86 95/82/95 103/88/103
f 95/82/95 96/83/96 104/89/104
f 96/83/96 97/81/97 105/87/105
f 96/83/96 105/87/105 104/89/104
f 97/81/97 90/77/90 106/86/106
f 97/81/97 106/86/106 105/87/105
f 90/77/90 98/78/98 107/84/107
f 90/77/90 107/84/107 106/86/106
f 98/78/98 91/79/92 99/85/100
f 98/78/98 99/85/100 107/84/107
f 99/85/100 100/84/99 109/90/108
f 99/85/100 109/90/108 108/91/109
f 100/84/99 101/86/101 110/92/110
f 100/84/99 110/92/110 109/90/108
f 101/86/101 102/87/102 111/93/111
f 101/86/101 111/93/111 110/92/110
f 102/87/102 103/88/103 112/94/112
f 102/87/102 112/94/112 111/93/111
f 103/88/103 95/82/95 113/95/113
f 103/88/103 113/95/113 112/94/112
f 95/82/95 104/89/104 113/95/113
f 104/89/104 105/87/105 114/96/114
f 105/87/105 106/86/106 115/97/115
f 105/87/105 115/97/115 114/96/114
f 106/86/106 107/84/107 116/90/116
f 106/86/106 116/90/116 115/97/115
f 107/84/107 99/85/100 108/91/109
f 107/84/107 108/91/109 116/90/116
f 108/91/109 109/90/108 118/98/117
f 108/91/109 118/98/117 117/99/118
f 109/90/108 110/92/110 118/98/117
f 111/93/111 112/94/112 119/100/119
f 112/94/112 113/95/113 120/101/120
f 112/94/112 120/101/120 119/100/119
f 113/95/113 104/89/104 121/102/121
f 113/95/113 121/102/121 120/101/120
f 104/89/104 114/96/114 122/103/122
f 104/89/104 122/103/122 121/102/121
f 114/96/114 115/97/115 123/104/123
f 114/96/114 123/104/123 122/103/122
f 115/97/115 116/90/116 124/98/124
f 115/97/115 124/98/124 123/104/123
f 116/90/116 108/91/109 117/99/118
f 116/90/116 117/99/118 124/98/124
f 117/99/118 118/98/117 126/105/125
f 117/99/118 126/105/125 125/106/126
f 118/98/117 110/92/110 127/107/127
f 118/98/117 127/107/127 126/105/125
f 110/92/110 111/93/111 128/108/128
f 110/92/110 128/108/128 127/107/127
f 111/93/111 119/100/119 128/108/128
f 119/100/119 120/101/120 129/109/129
f 120/101/120 121/102/121 130/110/130
f 120/101/120 130/110/130 129/109/129
f 121/102/121 122/103/122 131/111/131
f 121/102/121 131/111/131 130/110/130
f 122/103/122 123/104/123 132/112/132
f 122/103/122 132/112/132 131/111/131
f 123/104/123 124/98/124 133/105/133
f 123/104/123 133/105/133 132/112/132
f 124/98/124 117/99/118 125/106/126
f 124/98/124 125/106/126 133/105/133
f 125/106/126 126/105/125 135/113/134
f 125/106/126 135/113/134 134/114/135
f 126/105/125 127/107/127 136/115/136
f 126/105/125 136/115/136 135/113/134
f 127/107/127 128/108/128 136/115/136
f 128/108/128 119/100/119 137/116/137
f 119/100/119 129/109/129 138/117/138
f 119/100/119 138/117/138 137/116/137
f 129/109/129 130/110/130 139/118/139
f 129/109/129 139/118/139 138/117/138
f 130/110/130 131/111/131 140/119/140
f 130/110/130 140/119/140 139/118/139
f 131/111/131 132/112/132 140/119/140
f 132/112/132 133/105/133 141/120/141
f 133/105/133 125/106/126 134/114/135
f 133/105/133 134/114/135 141/120/141
f 134/114/135 135/113/134 142/121/142
f 135/113/134 136/115/136 142/121/142
f 136/115/136 128/108/128 143/122/143
f 128/108/128 137/116/137 143/122/143
f 137/116/137 138/117/138 144/123/144
f 138/117/138 139/118/139 145/124/145
f 138/117/138 145/124/145 144/123/144
f 139/118/139 140/119/140 145/124/145
f 140/119/140 132/112/132 146/125/146
f 132/112/132 141/120/141 146/125/146
f 134/114/135 142/121/142 148/126/147
f 134/114/135 148/126/147 147/127/148
f 142/121/142 136/115/136 149/128/149
f 142/121/142 149/128/149 148/126/147
f 136/115/136 143/122/143 149/128/149
f 143/122/143 137/116/137 150/129/150
f 137/116/137 144/123/144 150/129/150
f 144/123/144 145/124/145 151/129/151
f 145/124/145 140/119/140 152/130/152
f 145/124/145 152/130/152 151/129/151
f 140/119/140 146/125/146 152/130/152
f 141/120/141 134/114/135 147/127/148
f 141/120/141 147/127/148 146/125/146
f 147/127/148 148/126/147 153/131/153
f 149/128/149 143/122/143 154/132/154
f 143/122/143 150/129/150 155/133/155
f 143/122/143 155/133/155 154/132/154
f 150/129/150 144/123/144 156/134/156
f 150/129/150 156/134/156 155/133/155
f 144/123/144 151/129/151 157/133/157
f 144/123/144 157/133/157 156/134/156
f 151/129/151 152/130/152 158/132/158
f 151/129/151 158/132/158 157/133/157
f 152/130/152 146/125/146 159/135/159
f 152/130/152 159/135/159 158/132/158
f 146/125/146 160/136/160 159/135/159
f 146/125/146 147/127/148 153/131/153
f 146/125/146 153/131/153 160/136/160
f 153/131/153 148/126/147 162/137/161
f 153/131/153 162/137/161 161/138/162
f 148/126/147 149/128/149 162/137/161
f 149/128/149 154/132/154 163/139/163
f 149/128/149 163/139/163 162/137/161
f 154/132/154 155/133/155 164/140/164
f 154/132/154 164/140/164 163/139/163
f 155/133/155 156/134/156 164/140/164
f 156/134/156 157/133/157 165/140/165
f 157/133/157 158/132/158 166/141/166
f 157/133/157 166/141/166 165/140/165
f 158/132/158 159/135/159 166/141/166
f 159/135/159 160/136/160 167/142/167
f 159/135/159 167/142/167 166/141/166
f 160/136/160 153/131/153 161/138/162
f 160/136/160 161/138/162 167/142/167
f 161/138/162 162/137/161 168/143/168
f 163/139/163 164/140/164 169/144/169
f 164/140/164 156/134/156 169/144/169
f 156/134/156 165/140/165 170/145/170
f 156/134/156 170/145/170 169/144/169
f 165/140/165 166/141/166 170/145/170
f 166/141/166 167/142/167 172/146/171
f 166/141/166 172/146/171 171/147/172
f 167/142/167 161/138/162 168/143/168
f 167/142/167 168/143/168 172/146/171
f 168/143/168 162/137/161 174/148/173
f 168/143/168 174/148/173 173/149/174
f 162/137/161 175/150/175 174/148/173
f 162/137/161 163/139/163 176/151/176
f 162/137/161 176/151/176 175/150/175
f 163/139/163 169/144/169 177/152/177
f 163/139/163 177/152/177 176/151/176
f 169/144/169 178/153/178 177/152/177
f 169/144/169 170/145/170 178/153/178
f 170/145/170 166/141/166 179/154/179
f 166/141/166 171/147/172 179/154/179
f 172/146/171 168/143/168 173/149/174
f 176/151/176 177/152/177 180/155/180
f 177/152/177 178/153/178 181/156/181
f 177/152/177 181/156/181 180/155/180
f 178/153/178 170/145/170 182/157/182
f 178/153/178 182/157/182 181/156/181
f 170/145/170 179/154/179 182/157/182
f 171/147/172 172/146/171 183/158/183
f 171/147/172 183/158/183 179/154/179
f 172/146/171 173/149/174 183/158/183
f 173/149/174 174/148/173 185/159/184
f 173/149/174 185/159/184 184/160/185
f 174/148/173 175/150/175 186/161/186
f 174/148/173 186/161/186 185/159/184
f 175/150/175 176/151/176 187/162/187
f 175/150/175 187/162/187 186/161/186
f 176/151/176 180/155/180 187/162/187
f 180/155/180 181/156/181 188/163/188
f 181/156/181 182/157/182 189/164/189
f 181/156/181 189/164/189 188/163/188
f 182/157/182 179/154/179 190/165/190
f 182/157/182 190/165/190 189/164/189
f 179/154/179 191/161/191 190/165/190
f 179/154/179 183/158/183 192/166/192
f 179/154/179 192/166/192 191/161/191
f 183/158/183 173/149/174 184/160/185
f 183/158/183 184/160/185 192/166/192
f 185/159/184 186/161/186 193/167/193
f 186/161/186 187/162/187 194/168/194
f 186/161/186 194/168/194 193/167/193
f 187/162/187 180/155/180 195/169/195
f 187/162/187 195/169/195 194/168/194
f 180/155/180 188/163/188 196/170/196
f 180/155/180 196/170/196 195/169/195
f 188/163/188 189/164/189 197/171/197
f 188/163/188 197/171/197 196/170/196
f 189/164/189 190/165/190 197/171/197
f 190/165/190 191/161/191 198/167/198
f 191/161/191 192/166/192 199/172/199
f 191/161/191 199/172/199 198/167/198
f 192/166/192 184/160/185 199/172/199
f 184/160/185 185/159/184 201/173/200
f 184/160/185 201/173/200 200/174/201
f 185/159/184 193/167/193 202/175/202
f 185/159/184 202/175/202 201/173/200
f 193/167/193 194/168/194 203/176/203
f 193/167/193 203/176/203 202/175/202
f 194/168/194 195/169/195 203/176/203
f 195/169/195 196/170/196 204/177/204
f 196/170/196 197/171/197 205/178/205
f 196/170/196 205/178/205 204/177/204
f 197/171/197 190/165/190 206/179/206
f 197/171/197 206/179/206 205/178/205
f 190/165/190 198/167/198 207/180/207
f 190/165/190 207/180/207 206/179/206
f 198/167/198 199/172/199 208/181/208
f 198/167/198 208/181/208 207/180/207
f 199/172/199 184/160/185 200/174/201
f 199/172/199 200/174/201 208/181/208
f 202/175/202 203/176/203 209/182/209
f 203/176/203 195/169/195 209/182/209
f 195/169/195 204/177/204 210/183/210
f 195/169/195 210/183/210 209/182/209
f 204/177/204 205/178/205 210/183/210
f 206/179/206 207/180/207 211/184/211
f 207/180/207 208/181/208 212/185/212
f 207/180/207 212/185/212 211/184/211
f 208/181/208 200/174/201 212/185/212
f 200/174/201 201/173/200 214/186/213
f 200/174/201 214/186/213 213/187/214
f 201/173/200 202/175/202 215/188/215
f 201/173/200 215/188/215 214/186/213
f 202/175/202 209/182/209 216/189/216
f 202/175/202 216/189/216 215/188/215
f 209/182/209 217/190/217 216/189/216
f 209/182/209 210/183/210 218/191/218
f 209/182/209 218/191/218 217/190/217
f 210/183/210 205/178/205 219/192/219
f 210/183/210 219/192/219 218/191/218
f 205/178/205 206/179/206 219/192/219
f 206/179/206 211/184/211 220/193/220
f 211/184/211 212/185/212 221/194/221
f 211/184/211 221/194/221 220/193/220
f 212/185/212 200/174/201 213/187/214
f 212/185/212 213/187/214 221/194/221
f 206/179/206 220/193/220 219/192/219
f 213/187/214 214/186/213 222/195/222
f 214/186/213 215/188/215 223/196/223
f 215/188/215 216/189/216 223/196/223
f 216/189/216 217/190/217 224/197/224
f 217/190/217 218/191/218 225/198/225
f 217/190/217 225/198/225 224/197/224
f 218/191/218 219/192/219 226/199/226
f 218/191/218 226/199/226 225/198/225
f 219/192/219 220/193/220 227/200/227
f 219/192/219 227/200/227 226/199/226
f 220/193/220 221/194/221 227/200/227
f 221/194/221 213/187/214 222/195/222
f 222/195/222 214/186/213 228/201/228
f 214/186/213 223/196/223 228/201/228
f 223/196/223 216/189/216 229/202/229
f 216/189/216 224/197/224 229/202/229
f 225/198/225 226/199/226 230/203/230
f 226/199/226 227/200/227 231/204/231
f 226/199/226 231/204/231 230/203/230
f 227/200/227 221/194/221 232/205/232
f 227/200/227 232/205/232 231/204/231
f 221/194/221 222/195/222 232/205/232
f 222/195/222 228/201/228 232/205/232
f 228/201/228 223/196/223 229/202/229
f 229/202/229 224/197/224 233/206/233
f 224/197/224 225/198/225 233/206/233
f 225/198/225 230/203/230 233/206/233
f 230/203/230 231/204/231 234/207/234
f 228/201/228 229/202/229 235/208/235
f 229/202/229 233/206/233 235/208/235
f 233/206/233 230/203/230 236/209/236
f 230/203/230 234/207/234 236/209/236
f 234/207/234 231/204/231 237/210/237
f 231/204/231 232/205/232 237/210/237
f 232/205/232 228/201/228 238/211/238
f 232/205/232 238/211/238 237/210/237
f 228/201/228 235/208/235 238/211/238
f 235/208/235 239/212/239 238/211/238
f 235/208/235 233/206/233 239/212/239
f 233/206/233 236/209/236 239/212/239
f 234/207/234 237/210/237 236/209/236
f 237/210/237 238/211/238 240/213/240
f 238/211/238 239/212/239 240/213/240
f 239/212/239 236/209/236 240/213/240
f 236/209/236 237/210/237 240/213/240
f 241/214/241 243/215/242 242/216/243
f 241/214/241 244/217/244 243/215/242
f 241/214/241 245/218/245 244/217/244
f 241/214/241 246/217/246 245/218/245
f 241/214/241 247/215/247 246/217/246
f 241/214/241 248/219/248 247/215/247
f 241/214/241 242/216/243 248/219/248
f 242/216/243 250/220/249 249/221/250
f 242/216/243 243/215/242 251/222/251
f 242/216/243 251/222/251 250/220/249
f 243/215/242 244/217/244 252/223/252
f 243/215/242 252/223/252 251/222/251
f 244/217/244 245/218/245 253/224/253
f 244/217/244 253/224/253 252/223/252
f 245/218/245 246/217/246 254/225/254
f 245/218/245 254/225/254 253/224/253
f 246/217/246 247/215/247 255/226/255
f 246/217/246 255/226/255 254/225/254
f 247/215/247 248/219/248 255/226/255
f 248/219/248 242/216/243 249/221/250
f 248/219/248 249/221/250 255/226/255
f 249/221/250 250/220/249 256/227/256
f 250/220/249 251/222/251 257/228/257
f 252/223/252 253/224/253 258/229/258
f 252/223/252 258/229/258 251/222/251
f 253/224/253 254/225/254 259/230/259
f 253/224/253 259/230/259 258/229/258
f 255/226/255 260/231/260 254/225/254
f 255/226/255 249/221/250 256/227/256
f 255/226/255 256/227/256 260/231/260
f 256/227/256 250/220/249 261/232/261
f 250/220/249 257/228/257 262/233/262
f 250/220/249 262/233/262 261/232/261
f 257/228/257 251/222/251 262/233/262
f 251/222/251 258/229/258 263/234/263
f 251/222/251 263/234/263 262/233/262
f 258/229/258 259/230/259 264/235/264
f 258/229/258 264/235/264 263/234/263
f 259/230/259 254/225/254 265/236/265
f 259/230/259 265/236/265 264/235/264
f 254/225/254 260/231/260 266/237/266
f 254/225/254 266/237/266 265/236/265
f 260/231/260 256/227/256 261/232/261
f 260/231/260 261/232/261 266/237/266
f 261/232/261 268/238/267 267/239/268
f 261/232/261 262/233/262 269/240/269
f 261/232/261 269/240/269 268/238/267
f 262/233/262 270/241/270 269/240/269
f 262/233/262 263/234/263 271/242/271
f 262/233/262 271/242/271 270/241/270
f 263/234/263 264/235/264 272/243/272
f 263/234/263 272/243/272 271/242/271
f 264/235/264 265/236/265 273/244/273
f 264/235/264 273/244/273 272/243/272
f 265/236/265 266/237/266 274/238/274
f 265/236/265 274/238/274 273/244/273
f 266/237/266 261/232/261 267/239/268
f 266/237/266 267/239/268 274/238/274
f 267/239/268 268/238/267 276/245/275
f 267/239/268 276/245/275 275/246/276
f 268/238/267 269/240/269 276/245/275
f 269/240/269 270/241/270 277/247/277
f 270/241/270 271/242/271 278/248/278
f 270/241/270 278/248/278 277/247/277
f 271/242/271 272/243/272 278/248/278
f 272/243/272 273/244/273 279/249/279
f 273/244/273 274/238/274 275/246/276
f 273/244/273 275/246/276 279/249/279
f 274/238/274 267/239/268 275/246/276
f 275/246/276 276/245/275 281/250/280
f 275/246/276 281/250/280 280/251/281
f 276/245/275 269/240/269 282/252/282
f 276/245/275 282/252/282 281/250/280
f 269/240/269 277/247/277 283/253/283
f 269/240/269 283/253/283 282/252/282
f 277/247/277 278/248/278 284/254/284
f 277/247/277 284/254/284 283/253/283
f 278/248/278 272/243/272 285/253/285
f 278/248/278 285/253/285 284/254/284
f 272/243/272 279/249/279 286/252/286
f 272/243/272 286/252/286 285/253/285
f 279/249/279 275/246/276 287/250/287
f 279/249/279 287/250/287 286/252/286
f 275/246/276 280/251/281 287/250/287
f 280/251/281 281/250/280 289/255/288
f 280/251/281 289/255/288 288/256/289
f 281/250/280 282/252/282 290/257/290
f 281/250/280 290/257/290 289/255/288
f 282/252/282 283/253/283 291/258/291
f 282/252/282 291/258/291 290/257/290
f 283/253/283 284/254/284 292/259/292
f 283/253/283 292/259/292 291/258/291
f 284/254/284 285/253/285 293/258/293
f 284/254/284 293/258/293 292/259/292
f 285/253/285 286/252/286 294/257/294
f 285/253/285 294/257/294 293/258/293
f 286/252/286 287/250/287 295/260/295
f 286/252/286 295/260/295 294/257/294
f 287/250/287 280/251/281 288/256/289
f 287/250/287 288/256/289 295/260/295
f 288/256/289 289/255/288 296/261/296
f 290/257/290 291/258/291 297/262/297
f 290/257/290 297/262/297 289/255/288
f 291/258/291 292/259/292 297/262/297
f 292/259/292 293/258/293 298/263/298
f 292/259/292 298/263/298 297/262/297
f 293/258/293 294/257/294 298/263/298
f 294/257/294 295/260/295 298/263/298
f 295/260/295 288/256/289 296/261/296
f 296/261/296 289/255/288 300/264/299
f 296/261/296 300/264/299 299/265/300
f 289/255/288 297/262/297 301/266/301
f 289/255/288 301/266/301 300/264/299
f 297/262/297 302/267/302 301/266/301
f 297/262/297 298/263/298 303/266/303
f 297/262/297 303/266/303 302/267/302
f 298/263/298 304/264/304 303/266/303
f 298/263/298 295/260/295 305/268/305
f 298/263/298 305/268/305 304/264/304
f 295/260/295 296/261/296 299/265/300
f 295/260/295 299/265/300 305/268/305
f 299/265/300 307/269/306 306/270/307
f 299/265/300 300/264/299 308/271/308
f 299/265/300 308/271/308 307/269/306
f 300/264/299 301/266/301 308/271/308
f 301/266/301 302/267/302 309/272/309
f 301/266/301 309/272/309 308/271/308
f 302/267/302 303/266/303 310/273/310
f 302/267/302 310/273/310 309/272/309
f 303/266/303 304/264/304 310/273/310
f 304/264/304 305/268/305 311/274/311
f 304/264/304 311/274/311 310/273/310
f 305/268/305 299/265/300 306/270/307
f 305/268/305 306/270/307 311/274/311
f 307/269/306 308/271/308 312/275/312
f 306/270/307 307/269/306 313/276/313
f 307/269/306 312/275/312 313/276/313
f 308/271/308 309/272/309 312/275/312
f 309/272/309 310/273/310 312/275/312
f 311/274/311 306/270/307 313/276/313
f 313/276/313 312/275/312 314/277/314
f 312/275/312 310/273/310 314/277/314
f 310/273/310 311/274/311 314/277/314
f 311/274/311 313/276/313 314/277/314
f 315/278/315 317/279/316 316/280/317
f 315/278/315 318/281/318 317/279/316
f 315/278/315 319/282/319 318/281/318
f 315/278/315 320/283/320 319/282/319
f 315/278/315 316/280/317 320/283/320
f 316/280/317 317/279/316 322/284/321
f 316/280/317 322/284/321 321/285/322
f 317/279/316 318/281/318 322/284/321
f 318/281/318 323/286/323 322/284/321
f 318/281/318 319/282/319 324/287/324
f 318/281/318 324/287/324 323/286/323
f 319/282/319 320/283/320 325/288/325
f 319/282/319 325/288/325 324/287/324
f 320/283/320 316/280/317 321/285/322
f 320/283/320 321/285/322 325/288/325
f 321/285/322 327/289/326 326/290/327
f 321/285/322 322/284/321 328/291/328
f 321/285/322 328/291/328 327/289/326
f 322/284/321 323/286/323 328/291/328
f 323/286/323 324/287/324 329/292/329
f 324/287/324 330/293/330 329/292/329
f 324/287/324 325/288/325 330/293/330
f 325/288/325 321/285/322 326/290/327
f 327/289/326 328/291/328 331/294/331
f 328/291/328 332/295/332 331/294/331
f 328/291/328 323/286/323 333/296/333
f 328/291/328 333/296/333 332/295/332
f 323/286/323 329/292/329 333/296/333
f 329/292/329 330/293/330 334/297/334
f 330/293/330 325/288/325 335/298/335
f 330/293/330 335/298/335 334/297/334
f 325/288/325 326/290/327 335/298/335
f 326/290/327 327/289/326 337/299/336
f 326/290/327 337/299/336 336/300/337
f 327/289/326 331/294/331 337/299/336
f 331/294/331 332/295/332 338/301/338
f 332/295/332 333/296/333 339/302/339
f 332/295/332 339/302/339 338/301/338
f 333/296/333 329/292/329 340/301/340
f 333/296/333 340/301/340 339/302/339
f 329/292/329 334/297/334 340/301/340
f 335/298/335 326/290/327 336/300/337
f 336/300/337 337/299/336 342/303/341
f 336/300/337 342/303/341 341/304/342
f 337/299/336 331/294/331 343/305/343
f 337/299/336 343/305/343 342/303/341
f 331/294/331 338/301/338 344/306/344
f 331/294/331 344/306/344 343/305/343
f 338/301/338 339/302/339 345/307/345
f 338/301/338 345/307/345 344/306/344
f 339/302/339 340/301/340 346/306/346
f 339/302/339 346/306/346 345/307/345
f 340/301/340 334/297/334 347/305/347
f 340/301/340 347/305/347 346/306/346
f 334/297/334 335/298/335 341/304/342
f 334/297/334 341/304/342 347/305/347
f 335/298/335 336/300/337 341/304/342
f 341/304/342 342/303/341 349/308/348
f 341/304/342 349/308/348 348/309/349
f 342/303/341 343/305/343 349/308/348
f 343/305/343 344/306/344 350/310/350
f 343/305/343 350/310/350 349/308/348
f 344/306/344 345/307/345 350/310/350
f 345/307/345 346/306/346 351/311/351
f 345/307/345 351/311/351 350/310/350
f 346/306/346 347/305/347 352/312/352
f 346/306/346 352/312/352 351/311/351
f 347/305/347 341/304/342 353/313/353
f 347/305/347 353/313/353 352/312/352
f 341/304/342 348/309/349 353/313/353
f 348/309/349 349/308/348 354/314/354
f 349/308/348 355/315/355 354/314/354
f 349/308/348 350/310/350 356/316/356
f 349/308/348 356/316/356 355/315/355
f 350/310/350 357/317/357 356/316/356
f 350/310/350 351/311/351 358/316/358
f 350/310/350 358/316/358 357/317/357
f 351/311/351 352/312/352 359/318/359
f 351/311/351 359/318/359 358/316/358
f 352/312/352 353/313/353 360/314/360
f 352/312/352 360/314/360 359/318/359
f 353/313/353 348/309/349 360/314/360
f 348/309/349 354/314/354 362/319/361
f 348/309/349 362/319/361 361/320/362
f 354/314/354 355/315/355 363/321/363
f 354/314/354 363/321/363 362/319/361
f 355/315/355 356/316/356 363/321/363
f 356/316/356 357/317/357 364/322/364
f 356/316/356 364/322/364 363/321/363
f 357/317/357 358/316/358 365/323/365
f 357/317/357 365/323/365 364/322/364
f 358/316/358 359/318/359 365/323/365
f 359/318/359 360/314/360 366/319/366
f 360/314/360 348/309/349 361/320/362
f 360/314/360 361/320/362 366/319/366
f 361/320/362 362/319/361 368/324/367
f 361/320/362 368/324/367 367/325/368
f 362/319/361 363/321/363 369/326/369
f 362/319/361 369/326/369 368/324/367
f 363/321/363 370/327/370 369/326/369
f 363/321/363 364/322/364 370/327/370
f 364/322/364 365/323/365 371/328/371
f 365/323/365 359/318/359 371/328/371
f 359/318/359 366/319/366 367/325/368
f 359/318/359 367/325/368 371/328/371
f 366/319/366 361/320/362 367/325/368
f 367/325/368 368/324/367 373/329/372
f 367/325/368 373/329/372 372/330/373
f 368/324/367 369/326/369 374/331/374
f 368/324/367 374/331/374 373/329/372
f 369/326/369 370/327/370 374/331/374
f 370/327/370 364/322/364 375/332/375
f 370/327/370 375/332/375 374/331/374
f 364/322/364 371/328/371 375/332/375
f 371/328/371 376/333/376 375/332/375
f 371/328/371 367/325/368 372/330/373
f 371/328/371 372/330/373 376/333/376
f 372/330/373 373/329/372 378/334/377
f 372/330/373 378/334/377 377/335/378
f 373/329/372 374/331/374 378/334/377
f 374/331/374 375/332/375 379/336/379
f 375/332/375 376/333/376 379/336/379
f 376/333/376 372/330/373 377/335/378
f 377/335/378 378/334/377 380/337/380
f 378/334/377 374/331/374 380/337/380
f 374/331/374 379/336/379 380/337/380
f 379/336/379 376/333/376 380/337/380
f 376/333/376 377/335/378 380/337/380
f 381/338/381 383/339/382 382/340/383
f 381/338/381 384/341/384 383/339/382
f 381/338/381 385/342/385 384/341/384
f 381/338/381 386/343/386 385/342/385
f 381/338/381 382/340/383 387/344/387
f 382/340/383 389/345/388 388/346/389
f 382/340/383 383/339/382 389/345/388
f 383/339/382 384/341/384 389/345/388
f 385/342/385 386/343/386 390/347/390
f 386/343/386 381/338/381 390/347/390
f 381/338/381 387/344/387 388/346/389
f 381/338/381 388/346/389 390/347/390
f 387/344/387 382/340/383 388/346/389
f 388/346/389 389/345/388 392/348/391
f 388/346/389 392/348/391 391/349/392
f 389/345/388 384/341/384 393/350/393
f 389/345/388 393/350/393 392/348/391
f 384/341/384 385/342/385 394/351/394
f 384/341/384 394/351/394 393/350/393
f 385/342/385 390/347/390 395/350/395
f 385/342/385 395/350/395 394/351/394
f 390/347/390 396/352/396 395/350/395
f 390/347/390 388/346/389 397/353/397
f 390/347/390 397/353/397 396/352/396
f 388/346/389 391/349/392 397/353/397
f 391/349/392 392/348/391 399/354/398
f 391/349/392 399/354/398 398/355/399
f 392/348/391 400/356/400 399/354/398
f 392/348/391 393/350/393 401/357/401
f 392/348/391 401/357/401 400/356/400
f 393/350/393 394/351/394 402/358/402
f 393/350/393 402/358/402 401/357/401
f 394/351/394 395/350/395 403/357/403
f 394/351/394 403/357/403 402/358/402
f 395/350/395 396/352/396 403/357/403
f 396/352/396 397/353/397 404/359/404
f 397/353/397 391/349/392 398/355/399
f 397/353/397 398/355/399 404/359/404
f 398/355/399 399/354/398 406/360/405
f 398/355/399 406/360/405 405/361/406
f 399/354/398 400/356/400 407/362/407
f 399/354/398 407/362/407 406/360/405
f 400/356/400 401/357/401 408/363/408
f 400/356/400 408/363/408 407/362/407
f 401/357/401 402/358/402 409/364/409
f 401/357/401 409/364/409 408/363/408
f 402/358/402 403/357/403 410/363/410
f 402/358/402 410/363/410 409/364/409
f 403/357/403 396/352/396 411/362/411
f 403/357/403 411/362/411 410/363/410
f 396/352/396 404/359/404 411/362/411
f 404/359/404 398/355/399 405/361/406
f 405/361/406 406/360/405 412/365/412
f 406/360/405 407/362/407 413/366/413
f 407/362/407 408/363/408 414/367/414
f 407/362/407 414/367/414 413/366/413
f 408/363/408 409/364/409 415/368/415
f 408/363/408 415/368/415 414/367/414
f 409/364/409 410/363/410 416/367/416
f 409/364/409 416/367/416 415/368/415
f 410/363/410 411/362/411 417/366/417
f 410/363/410 417/366/417 416/367/416
f 411/362/411 404/359/404 418/369/418
f 411/362/411 418/369/418 417/366/417
f 404/359/404 405/361/406 412/365/412
f 404/359/404 412/365/412 418/369/418
f 412/365/412 406/360/405 419/370/419
f 406/360/405 413/366/413 420/371/420
f 406/360/405 420/371/420 419/370/419
f 413/366/413 414/367/414 421/372/421
f 413/366/413 421/372/421 420/371/420
f 414/367/414 415/368/415 422/373/422
f 414/367/414 422/373/422 421/372/421
f 415/368/415 416/367/416 423/372/423
f 415/368/415 423/372/423 422/373/422
f 416/367/416 417/366/417 424/374/424
f 416/367/416 424/374/424 423/372/423
f 417/366/417 418/369/418 425/375/425
f 417/366/417 425/375/425 424/374/424
f 418/369/418 412/365/412 419/370/419
f 418/369/418 419/370/419 425/375/425
f 419/370/419 427/376/426 426/377/427
f 419/370/419 420/371/420 428/378/428
f 419/370/419 428/378/428 427/376/426
f 420/371/420 421/372/421 429/379/429
f 420/371/420 429/379/429 428/378/428
f 421/372/421 422/373/422 430/380/430
f 421/372/421 430/380/430 429/379/429
f 422/373/422 423/372/423 431/381/431
f 422/373/422 431/381/431 430/380/430
f 423/372/423 424/374/424 431/381/431
f 424/374/424 425/375/425 432/376/432
f 425/375/425 419/370/419 426/377/427
f 425/375/425 426/377/427 432/376/432
f 426/377/427 427/376/426 434/382/433
f 426/377/427 434/382/433 433/383/434
f 427/376/426 428/378/428 435/384/435
f 427/376/426 435/384/435 434/382/433
f 428/378/428 429/379/429 435/384/435
f 430/380/430 431/381/431 436/385/436
f 431/381/431 424/374/424 437/384/437
f 431/381/431 437/384/437 436/385/436
f 424/374/424 432/376/432 438/382/438
f 424/374/424 438/382/438 437/384/437
f 432/376/432 426/377/427 433/383/434
f 432/376/432 433/383/434 438/382/438
f 434/382/433 435/384/435 440/386/439
f 434/382/433 440/386/439 433/383/434
f 435/384/435 429/379/429 441/387/440
f 435/384/435 441/387/440 440/386/439
f 429/379/429 430/380/430 442/388/441
f 429/379/429 442/388/441 441/387/440
f 430/380/430 436/385/436 442/388/441
f 436/385/436 437/384/437 443/389/442
f 436/385/436 443/389/442 442/388/441
f 437/384/437 438/382/438 444/390/443
f 437/384/437 444/390/443 443/389/442
f 438/382/438 433/383/434 439/391/444
f 438/382/438 439/391/444 444/390/443
f 439/391/444 433/383/434 446/392/445
f 439/391/444 446/392/445 445/393/446
f 433/383/434 440/386/439 446/392/445
f 440/386/439 441/387/440 446/392/445
f 441/387/440 442/388/441 447/394/447
f 442/388/441 443/389/442 447/394/447
f 443/389/442 444/390/443 452/395/448
f 444/390/443 439/391/444 445/393/446
f 444/390/443 445/393/446 452/395/448
f 445/393/446 446/392/445 449/396/449
f 445/393/446 449/396/449 448/397/450
f 446/392/445 441/387/440 450/398/451
f 446/392/445 450/398/451 449/396/449
f 441/387/440 447/394/447 450/398/451
f 447/394/447 451/399/452 450/398/451
f 447/394/447 443/389/442 452/395/448
f 447/394/447 452/395/448 451/399/452
f 452/395/448 445/393/446 448/397/450
f 449/396/449 450/398/451 453/400/453
f 450/398/451 451/399/452 453/400/453
f 451/399/452 452/395/448 448/397/450
f 448/397/450 449/396/449 453/400/453
f 451/399/452 448/397/450 453/400/453
