# Made in Blockbench 5.2.1
mtllib abyss_pillars.mtl

o cylinder
v 0 0 0
v 0 4 0
v 0.03277173140761911 0 0.49999999999999994
v 0.03277173140761911 4 0.49999999999999994
v 0.09775446081243246 0 0.4914448613738104
v 0.09775446081243246 4 0.4914448613738104
v 0.16106458429008827 0 0.4744809649152579
v 0.16106458429008827 4 0.4744809649152579
v 0.22161884807500148 0 0.4493985675960288
v 0.22161884807500148 4 0.4493985675960288
v 0.27838115192499846 0 0.41662683618840973
v 0.27838115192499846 4 0.41662683618840973
v 0.3303802770837221 0 0.3767265041028254
v 0.3303802770837221 4 0.3767265041028254
v 0.3767265041028253 0 0.33038027708372214
v 0.3767265041028253 4 0.33038027708372214
v 0.41662683618840973 0 0.2783811519249985
v 0.41662683618840973 4 0.2783811519249985
v 0.44939856759602886 0 0.22161884807500146
v 0.44939856759602886 4 0.22161884807500146
v 0.4744809649152578 0 0.16106458429008833
v 0.4744809649152578 4 0.16106458429008833
v 0.4914448613738104 0 0.0977544608124325
v 0.4914448613738104 4 0.0977544608124325
v 0.49999999999999994 0 0.032771731407619104
v 0.49999999999999994 4 0.032771731407619104
v 0.49999999999999994 0 -0.03277173140761915
v 0.49999999999999994 4 -0.03277173140761915
v 0.4914448613738104 0 -0.09775446081243243
v 0.4914448613738104 4 -0.09775446081243243
v 0.4744809649152579 0 -0.16106458429008816
v 0.4744809649152579 4 -0.16106458429008816
v 0.44939856759602886 0 -0.2216188480750014
v 0.44939856759602886 4 -0.2216188480750014
v 0.41662683618840984 0 -0.27838115192499835
v 0.41662683618840984 4 -0.27838115192499835
v 0.3767265041028254 0 -0.3303802770837221
v 0.3767265041028254 4 -0.3303802770837221
v 0.33038027708372214 0 -0.3767265041028253
v 0.33038027708372214 4 -0.3767265041028253
v 0.27838115192499846 0 -0.4166268361884098
v 0.27838115192499846 4 -0.4166268361884098
v 0.22161884807500148 0 -0.4493985675960288
v 0.22161884807500148 4 -0.4493985675960288
v 0.16106458429008835 0 -0.4744809649152578
v 0.16106458429008835 4 -0.4744809649152578
v 0.09775446081243264 0 -0.4914448613738104
v 0.09775446081243264 4 -0.4914448613738104
v 0.03277173140761914 0 -0.49999999999999994
v 0.03277173140761914 4 -0.49999999999999994
v -0.03277173140761901 0 -0.49999999999999994
v -0.03277173140761901 4 -0.49999999999999994
v -0.09775446081243251 0 -0.4914448613738104
v -0.09775446081243251 4 -0.4914448613738104
v -0.16106458429008824 0 -0.4744809649152579
v -0.16106458429008824 4 -0.4744809649152579
v -0.22161884807500137 0 -0.44939856759602886
v -0.22161884807500137 4 -0.44939856759602886
v -0.27838115192499835 0 -0.41662683618840984
v -0.27838115192499835 4 -0.41662683618840984
v -0.3303802770837221 0 -0.37672650410282543
v -0.3303802770837221 4 -0.37672650410282543
v -0.3767265041028253 0 -0.3303802770837222
v -0.3767265041028253 4 -0.3303802770837222
v -0.41662683618840973 0 -0.27838115192499846
v -0.41662683618840973 4 -0.27838115192499846
v -0.4493985675960288 0 -0.2216188480750015
v -0.4493985675960288 4 -0.2216188480750015
v -0.4744809649152578 0 -0.16106458429008838
v -0.4744809649152578 4 -0.16106458429008838
v -0.4914448613738103 0 -0.09775446081243266
v -0.4914448613738103 4 -0.09775446081243266
v -0.49999999999999994 0 -0.032771731407618944
v -0.49999999999999994 4 -0.032771731407618944
v -0.5 0 0.032771731407618764
v -0.5 4 0.032771731407618764
v -0.4914448613738104 0 0.09775446081243248
v -0.4914448613738104 4 0.09775446081243248
v -0.4744809649152579 0 0.16106458429008821
v -0.4744809649152579 4 0.16106458429008821
v -0.4493985675960289 0 0.22161884807500135
v -0.4493985675960289 4 0.22161884807500135
v -0.41662683618840984 0 0.2783811519249983
v -0.41662683618840984 4 0.2783811519249983
v -0.37672650410282527 0 0.3303802770837222
v -0.37672650410282527 4 0.3303802770837222
v -0.33038027708372236 0 0.37672650410282515
v -0.33038027708372236 4 0.37672650410282515
v -0.27838115192499846 0 0.41662683618840973
v -0.27838115192499846 4 0.41662683618840973
v -0.22161884807500154 0 0.4493985675960288
v -0.22161884807500154 4 0.4493985675960288
v -0.1610645842900884 0 0.4744809649152578
v -0.1610645842900884 4 0.4744809649152578
v -0.09775446081243269 0 0.4914448613738103
v -0.09775446081243269 4 0.4914448613738103
v -0.03277173140761898 0 0.49999999999999994
v -0.03277173140761898 4 0.49999999999999994
vt 0.50440703125 0.99893046875
vt 0.49628359375 1
vt 0.4921875 0.9375
vt 0.27655703125 0.5
vt 0.28474921875 0.5
vt 0.28474921875 1
vt 0.27655703125 1
vt 0.49628359375 0.7421875
vt 0.50440703125 0.74325703125
vt 0.4921875 0.8046875
vt 0.5123203125 0.99681015625
vt 0.50440703125 0.99893046875
vt 0.4921875 0.9375
vt 0.28474921875 0.5
vt 0.29294140625 0.5
vt 0.29294140625 1
vt 0.28474921875 1
vt 0.50440703125 0.74325703125
vt 0.5123203125 0.74537734375
vt 0.4921875 0.8046875
vt 0.51988984375 0.993675
vt 0.5123203125 0.99681015625
vt 0.4921875 0.9375
vt 0.29294140625 0.5
vt 0.30113359375000004 0.5
vt 0.30113359375000004 1
vt 0.29294140625 1
vt 0.5123203125 0.74537734375
vt 0.51988984375 0.7485125
vt 0.4921875 0.8046875
vt 0.52698515625 0.989578125
vt 0.51988984375 0.993675
vt 0.4921875 0.9375
vt 0.30113359375000004 0.5
vt 0.30932578125 0.5
vt 0.30932578125 1
vt 0.30113359375000004 1
vt 0.51988984375 0.7485125
vt 0.52698515625 0.752609375
vt 0.4921875 0.8046875
vt 0.53348515625 0.984590625
vt 0.52698515625 0.989578125
vt 0.4921875 0.9375
vt 0.30932578125 0.5
vt 0.31751796875000005 0.5
vt 0.31751796875000005 1
vt 0.30932578125 1
vt 0.52698515625 0.752609375
vt 0.53348515625 0.757596875
vt 0.4921875 0.8046875
vt 0.539278125 0.97879765625
vt 0.53348515625 0.984590625
vt 0.4921875 0.9375
vt 0.0004617187499999856 0.5
vt 0.008653906249999989 0.5
vt 0.008653906249999989 1
vt 0.0004617187499999856 1
vt 0.53348515625 0.757596875
vt 0.539278125 0.76338984375
vt 0.4921875 0.8046875
vt 0.544265625 0.97229765625
vt 0.539278125 0.97879765625
vt 0.4921875 0.9375
vt 0.008653906249999989 0.5
vt 0.016846093749999992 0.5
vt 0.016846093749999992 1
vt 0.008653906249999989 1
vt 0.539278125 0.76338984375
vt 0.544265625 0.76988984375
vt 0.4921875 0.8046875
vt 0.5483625 0.96520234375
vt 0.544265625 0.97229765625
vt 0.4921875 0.9375
vt 0.016846093749999992 0.5
vt 0.025038281249999995 0.5
vt 0.025038281249999995 1
vt 0.016846093749999992 1
vt 0.544265625 0.76988984375
vt 0.5483625 0.77698515625
vt 0.4921875 0.8046875
vt 0.55149765625 0.9576328125
vt 0.5483625 0.96520234375
vt 0.4921875 0.9375
vt 0.025038281249999995 0.5
vt 0.03323046875 0.5
vt 0.03323046875 1
vt 0.025038281249999995 1
vt 0.5483625 0.77698515625
vt 0.55149765625 0.7845546875
vt 0.4921875 0.8046875
vt 0.55361796875 0.94971953125
vt 0.55149765625 0.9576328125
vt 0.4921875 0.9375
vt 0.03323046875 0.5
vt 0.04142265625 0.5
vt 0.04142265625 1
vt 0.03323046875 1
vt 0.55149765625 0.7845546875
vt 0.55361796875 0.79246796875
vt 0.4921875 0.8046875
vt 0.5546875 0.94159609375
vt 0.55361796875 0.94971953125
vt 0.4921875 0.9375
vt 0.04142265625 0.5
vt 0.04961484375 0.5
vt 0.04961484375 1
vt 0.04142265625 1
vt 0.55361796875 0.79246796875
vt 0.5546875 0.80059140625
vt 0.4921875 0.8046875
vt 0.5546875 0.93340390625
vt 0.5546875 0.94159609375
vt 0.4921875 0.9375
vt 0.04961484375 0.5
vt 0.05780703125 0.5
vt 0.05780703125 1
vt 0.04961484375 1
vt 0.5546875 0.80059140625
vt 0.5546875 0.80878359375
vt 0.4921875 0.8046875
vt 0.55361796875 0.92528046875
vt 0.5546875 0.93340390625
vt 0.4921875 0.9375
vt 0.05780703125 0.5
vt 0.06599921875 0.5
vt 0.06599921875 1
vt 0.05780703125 1
vt 0.5546875 0.80878359375
vt 0.55361796875 0.81690703125
vt 0.4921875 0.8046875
vt 0.55149765625 0.9173671875
vt 0.55361796875 0.92528046875
vt 0.4921875 0.9375
vt 0.06599921875 0.5
vt 0.07419140625000001 0.5
vt 0.07419140625000001 1
vt 0.06599921875 1
vt 0.55361796875 0.81690703125
vt 0.55149765625 0.8248203125
vt 0.4921875 0.8046875
vt 0.5483625 0.90979765625
vt 0.55149765625 0.9173671875
vt 0.4921875 0.9375
vt 0.07419140625000001 0.5
vt 0.08238359375000001 0.5
vt 0.08238359375000001 1
vt 0.07419140625000001 1
vt 0.55149765625 0.8248203125
vt 0.5483625 0.83238984375
vt 0.4921875 0.8046875
vt 0.544265625 0.90270234375
vt 0.5483625 0.90979765625
vt 0.4921875 0.9375
vt 0.08238359375000001 0.5
vt 0.09057578125000001 0.5
vt 0.09057578125000001 1
vt 0.08238359375000001 1
vt 0.5483625 0.83238984375
vt 0.544265625 0.83948515625
vt 0.4921875 0.8046875
vt 0.539278125 0.89620234375
vt 0.544265625 0.90270234375
vt 0.4921875 0.9375
vt 0.09057578125000001 0.5
vt 0.09876796875000002 0.5
vt 0.09876796875000002 1
vt 0.09057578125000001 1
vt 0.544265625 0.83948515625
vt 0.539278125 0.84598515625
vt 0.4921875 0.8046875
vt 0.53348515625 0.890409375
vt 0.539278125 0.89620234375
vt 0.4921875 0.9375
vt 0.09876796875000002 0.5
vt 0.10696015625000002 0.5
vt 0.10696015625000002 1
vt 0.09876796875000002 1
vt 0.539278125 0.84598515625
vt 0.53348515625 0.851778125
vt 0.4921875 0.8046875
vt 0.52698515625 0.885421875
vt 0.53348515625 0.890409375
vt 0.4921875 0.9375
vt 0.11783906249999998 0.5
vt 0.12603124999999998 0.5
vt 0.12603124999999998 1
vt 0.11783906249999998 1
vt 0.53348515625 0.851778125
vt 0.52698515625 0.856765625
vt 0.4921875 0.8046875
vt 0.51988984375 0.881325
vt 0.52698515625 0.885421875
vt 0.4921875 0.9375
vt 0.12603124999999998 0.5
vt 0.1342234375 0.5
vt 0.1342234375 1
vt 0.12603124999999998 1
vt 0.52698515625 0.856765625
vt 0.51988984375 0.8608625
vt 0.4921875 0.8046875
vt 0.5123203125 0.87818984375
vt 0.51988984375 0.881325
vt 0.4921875 0.9375
vt 0.1342234375 0.5
vt 0.142415625 0.5
vt 0.142415625 1
vt 0.1342234375 1
vt 0.51988984375 0.8608625
vt 0.5123203125 0.86399765625
vt 0.4921875 0.8046875
vt 0.50440703125 0.87606953125
vt 0.5123203125 0.87818984375
vt 0.4921875 0.9375
vt 0.142415625 0.5
vt 0.1506078125 0.5
vt 0.1506078125 1
vt 0.142415625 1
vt 0.5123203125 0.86399765625
vt 0.50440703125 0.86611796875
vt 0.4921875 0.8046875
vt 0.49628359375 0.875
vt 0.50440703125 0.87606953125
vt 0.4921875 0.9375
vt 0.1506078125 0.5
vt 0.1588 0.5
vt 0.1588 1
vt 0.1506078125 1
vt 0.50440703125 0.86611796875
vt 0.49628359375 0.8671875
vt 0.4921875 0.8046875
vt 0.48809140625 0.875
vt 0.49628359375 0.875
vt 0.4921875 0.9375
vt 0.1588 0.5
vt 0.1669921875 0.5
vt 0.1669921875 1
vt 0.1588 1
vt 0.49628359375 0.8671875
vt 0.48809140625 0.8671875
vt 0.4921875 0.8046875
vt 0.47996796875000003 0.87606953125
vt 0.48809140625 0.875
vt 0.4921875 0.9375
vt 0.1669921875 0.5
vt 0.175184375 0.5
vt 0.175184375 1
vt 0.1669921875 1
vt 0.48809140625 0.8671875
vt 0.47996796875000003 0.86611796875
vt 0.4921875 0.8046875
vt 0.4720546875 0.87818984375
vt 0.47996796875000003 0.87606953125
vt 0.4921875 0.9375
vt 0.175184375 0.5
vt 0.1833765625 0.5
vt 0.1833765625 1
vt 0.175184375 1
vt 0.47996796875000003 0.86611796875
vt 0.4720546875 0.86399765625
vt 0.4921875 0.8046875
vt 0.46448515625 0.881325
vt 0.4720546875 0.87818984375
vt 0.4921875 0.9375
vt 0.1833765625 0.5
vt 0.19156875 0.5
vt 0.19156875 1
vt 0.1833765625 1
vt 0.4720546875 0.86399765625
vt 0.46448515625 0.8608625
vt 0.4921875 0.8046875
vt 0.45738984375 0.885421875
vt 0.46448515625 0.881325
vt 0.4921875 0.9375
vt 0.19156875 0.5
vt 0.1997609375 0.5
vt 0.1997609375 1
vt 0.19156875 1
vt 0.46448515625 0.8608625
vt 0.45738984375 0.856765625
vt 0.4921875 0.8046875
vt 0.45088984375 0.890409375
vt 0.45738984375 0.885421875
vt 0.4921875 0.9375
vt 0.1997609375 0.5
vt 0.20795312500000002 0.5
vt 0.20795312500000002 1
vt 0.1997609375 1
vt 0.45738984375 0.856765625
vt 0.45088984375 0.851778125
vt 0.4921875 0.8046875
vt 0.445096875 0.89620234375
vt 0.45088984375 0.890409375
vt 0.4921875 0.9375
vt 0.20795312500000002 0.5
vt 0.21614531250000002 0.5
vt 0.21614531250000002 1
vt 0.20795312500000002 1
vt 0.45088984375 0.851778125
vt 0.445096875 0.84598515625
vt 0.4921875 0.8046875
vt 0.440109375 0.90270234375
vt 0.445096875 0.89620234375
vt 0.4921875 0.9375
vt 0.32896640625 0.5
vt 0.33715859375 0.5
vt 0.33715859375 1
vt 0.32896640625 1
vt 0.445096875 0.84598515625
vt 0.440109375 0.83948515625
vt 0.4921875 0.8046875
vt 0.4360125 0.90979765625
vt 0.440109375 0.90270234375
vt 0.4921875 0.9375
vt 0.33715859375 0.5
vt 0.34535078125 0.5
vt 0.34535078125 1
vt 0.33715859375 1
vt 0.440109375 0.83948515625
vt 0.4360125 0.83238984375
vt 0.4921875 0.8046875
vt 0.43287734375 0.9173671875
vt 0.4360125 0.90979765625
vt 0.4921875 0.9375
vt 0.34535078125 0.5
vt 0.35354296875 0.5
vt 0.35354296875 1
vt 0.34535078125 1
vt 0.4360125 0.83238984375
vt 0.43287734375 0.8248203125
vt 0.4921875 0.8046875
vt 0.43075703125 0.92528046875
vt 0.43287734375 0.9173671875
vt 0.4921875 0.9375
vt 0.35354296875 0.5
vt 0.36173515625 0.5
vt 0.36173515625 1
vt 0.35354296875 1
vt 0.43287734375 0.8248203125
vt 0.43075703125 0.81690703125
vt 0.4921875 0.8046875
vt 0.4296875 0.93340390625
vt 0.43075703125 0.92528046875
vt 0.4921875 0.9375
vt 0.36173515625 0.5
vt 0.36992734375 0.5
vt 0.36992734375 1
vt 0.36173515625 1
vt 0.43075703125 0.81690703125
vt 0.4296875 0.80878359375
vt 0.4921875 0.8046875
vt 0.4296875 0.94159609375
vt 0.4296875 0.93340390625
vt 0.4921875 0.9375
vt 0.36992734375 0.5
vt 0.37811953125 0.5
vt 0.37811953125 1
vt 0.36992734375 1
vt 0.4296875 0.80878359375
vt 0.4296875 0.80059140625
vt 0.4921875 0.8046875
vt 0.43075703125 0.94971953125
vt 0.4296875 0.94159609375
vt 0.4921875 0.9375
vt 0.37811953125 0.5
vt 0.38631171875 0.5
vt 0.38631171875 1
vt 0.37811953125 1
vt 0.4296875 0.80059140625
vt 0.43075703125 0.79246796875
vt 0.4921875 0.8046875
vt 0.43287734375 0.9576328125
vt 0.43075703125 0.94971953125
vt 0.4921875 0.9375
vt 0.38631171875 0.5
vt 0.39450390625 0.5
vt 0.39450390625 1
vt 0.38631171875 1
vt 0.43075703125 0.79246796875
vt 0.43287734375 0.7845546875
vt 0.4921875 0.8046875
vt 0.4360125 0.96520234375
vt 0.43287734375 0.9576328125
vt 0.4921875 0.9375
vt 0.39450390625 0.5
vt 0.40269609375000004 0.5
vt 0.40269609375000004 1
vt 0.39450390625 1
vt 0.43287734375 0.7845546875
vt 0.4360125 0.77698515625
vt 0.4921875 0.8046875
vt 0.440109375 0.97229765625
vt 0.4360125 0.96520234375
vt 0.4921875 0.9375
vt 0.40269609375000004 0.5
vt 0.41088828125 0.5
vt 0.41088828125 1
vt 0.40269609375000004 1
vt 0.4360125 0.77698515625
vt 0.440109375 0.76988984375
vt 0.4921875 0.8046875
vt 0.445096875 0.97879765625
vt 0.440109375 0.97229765625
vt 0.4921875 0.9375
vt 0.41088828125 0.5
vt 0.41908046875000005 0.5
vt 0.41908046875000005 1
vt 0.41088828125 1
vt 0.440109375 0.76988984375
vt 0.445096875 0.76338984375
vt 0.4921875 0.8046875
vt 0.45088984375 0.984590625
vt 0.445096875 0.97879765625
vt 0.4921875 0.9375
vt 0.4296875 0.25
vt 0.4375 0.25
vt 0.4375 0.75
vt 0.4296875 0.75
vt 0.445096875 0.76338984375
vt 0.45088984375 0.757596875
vt 0.4921875 0.8046875
vt 0.45738984375 0.989578125
vt 0.45088984375 0.984590625
vt 0.4921875 0.9375
vt 0.22740390624999998 0.5
vt 0.23559609374999999 0.5
vt 0.23559609374999999 1
vt 0.22740390624999998 1
vt 0.45088984375 0.757596875
vt 0.45738984375 0.752609375
vt 0.4921875 0.8046875
vt 0.46448515625 0.993675
vt 0.45738984375 0.989578125
vt 0.4921875 0.9375
vt 0.23559609374999999 0.5
vt 0.24378828125 0.5
vt 0.24378828125 1
vt 0.23559609374999999 1
vt 0.45738984375 0.752609375
vt 0.46448515625 0.7485125
vt 0.4921875 0.8046875
vt 0.4720546875 0.99681015625
vt 0.46448515625 0.993675
vt 0.4921875 0.9375
vt 0.24378828125 0.5
vt 0.25198046875 0.5
vt 0.25198046875 1
vt 0.24378828125 1
vt 0.46448515625 0.7485125
vt 0.4720546875 0.74537734375
vt 0.4921875 0.8046875
vt 0.47996796875000003 0.99893046875
vt 0.4720546875 0.99681015625
vt 0.4921875 0.9375
vt 0.25198046875 0.5
vt 0.26017265625 0.5
vt 0.26017265625 1
vt 0.25198046875 1
vt 0.4720546875 0.74537734375
vt 0.47996796875000003 0.74325703125
vt 0.4921875 0.8046875
vt 0.48809140625 1
vt 0.47996796875000003 0.99893046875
vt 0.4921875 0.9375
vt 0.26017265625 0.5
vt 0.26836484375 0.5
vt 0.26836484375 1
vt 0.26017265625 1
vt 0.47996796875000003 0.74325703125
vt 0.48809140625 0.7421875
vt 0.4921875 0.8046875
vt 0.49628359375 1
vt 0.48809140625 1
vt 0.4921875 0.9375
vt 0.26836484375 0.5
vt 0.27655703125 0.5
vt 0.27655703125 1
vt 0.26836484375 1
vt 0.48809140625 0.7421875
vt 0.49628359375 0.7421875
vt 0.4921875 0.8046875
vn 0 -1 0
vn 0.13052619222005127 0 0.9914448613738106
vn 0 1 0
vn 0 -1 0
vn 0.25881904510252035 0 0.9659258262890685
vn 0 1 0
vn 0 -1 0
vn 0.38268343236509067 0 0.9238795325112865
vn 0 1 0
vn 0 -1 0
vn 0.4999999999999999 0 0.8660254037844387
vn 0 1 0
vn 0 -1 0
vn 0.6087614290087204 0 0.7933533402912353
vn 0 1 0
vn 0 -1 0
vn 0.7071067811865476 0 0.7071067811865476
vn 0 1 0
vn 0 -1 0
vn 0.7933533402912349 0 0.608761429008721
vn 0 1 0
vn 0 -1 0
vn 0.8660254037844387 0 0.5
vn 0 1 0
vn 0 -1 0
vn 0.923879532511287 0 0.3826834323650897
vn 0 1 0
vn 0 -1 0
vn 0.9659258262890683 0 0.25881904510252113
vn 0 1 0
vn 0 -1 0
vn 0.9914448613738106 0 0.13052619222005116
vn 0 1 0
vn 0 -1 0
vn 1 0 0
vn 0 1 0
vn 0 -1 0
vn 0.9914448613738104 0 -0.13052619222005135
vn 0 1 0
vn 0 -1 0
vn 0.9659258262890684 0 -0.2588190451025207
vn 0 1 0
vn 0 -1 0
vn 0.9238795325112867 0 -0.3826834323650897
vn 0 1 0
vn 0 -1 0
vn 0.866025403784439 0 -0.49999999999999944
vn 0 1 0
vn 0 -1 0
vn 0.7933533402912352 0 -0.6087614290087207
vn 0 1 0
vn 0 -1 0
vn 0.7071067811865476 0 -0.7071067811865476
vn 0 1 0
vn 0 -1 0
vn 0.6087614290087212 0 -0.7933533402912349
vn 0 1 0
vn 0 -1 0
vn 0.4999999999999993 0 -0.866025403784439
vn 0 1 0
vn 0 -1 0
vn 0.3826834323650904 0 -0.9238795325112866
vn 0 1 0
vn 0 -1 0
vn 0.2588190451025215 0 -0.9659258262890682
vn 0 1 0
vn 0 -1 0
vn 0.13052619222005094 0 -0.9914448613738106
vn 0 1 0
vn 0 -1 0
vn 0 0 -1
vn 0 1 0
vn 0 -1 0
vn -0.13052619222005094 0 -0.9914448613738106
vn 0 1 0
vn 0 -1 0
vn -0.2588190451025207 0 -0.9659258262890684
vn 0 1 0
vn 0 -1 0
vn -0.3826834323650904 0 -0.9238795325112866
vn 0 1 0
vn 0 -1 0
vn -0.4999999999999993 0 -0.866025403784439
vn 0 1 0
vn 0 -1 0
vn -0.6087614290087202 0 -0.7933533402912356
vn 0 1 0
vn 0 -1 0
vn -0.7071067811865476 0 -0.7071067811865476
vn 0 1 0
vn 0 -1 0
vn -0.7933533402912356 0 -0.6087614290087202
vn 0 1 0
vn 0 -1 0
vn -0.8660254037844386 0 -0.5000000000000001
vn 0 1 0
vn 0 -1 0
vn -0.9238795325112866 0 -0.3826834323650904
vn 0 1 0
vn 0 -1 0
vn -0.9659258262890684 0 -0.25881904510252074
vn 0 1 0
vn 0 -1 0
vn -0.9914448613738106 0 -0.13052619222005132
vn 0 1 0
vn 0 -1 0
vn -1 0 -8.469365036104326e-16
vn 0 1 0
vn 0 -1 0
vn -0.9914448613738106 0 0.13052619222005132
vn 0 1 0
vn 0 -1 0
vn -0.9659258262890684 0 0.2588190451025207
vn 0 1 0
vn 0 -1 0
vn -0.923879532511287 0 0.3826834323650897
vn 0 1 0
vn 0 -1 0
vn -0.8660254037844386 0 0.5000000000000001
vn 0 1 0
vn 0 -1 0
vn -0.7933533402912353 0 0.6087614290087205
vn 0 1 0
vn 0 -1 0
vn -0.707106781186548 0 0.7071067811865471
vn 0 1 0
vn 0 -1 0
vn -0.6087614290087205 0 0.7933533402912353
vn 0 1 0
vn 0 -1 0
vn -0.5000000000000003 0 0.8660254037844386
vn 0 1 0
vn 0 -1 0
vn -0.3826834323650904 0 0.9238795325112866
vn 0 1 0
vn 0 -1 0
vn -0.25881904510252074 0 0.9659258262890684
vn 0 1 0
vn 0 -1 0
vn -0.13052619222005135 0 0.9914448613738106
vn 0 1 0
vn 0 -1 0
vn 0 0 1
vn 0 1 0
usemtl m_045158d1-f395-813d-6ece-dd3ba446a4d3
f 5/1/1 3/2/1 1/3/1
f 3/4/2 5/5/2 6/6/2 4/7/2
f 4/8/3 6/9/3 2/10/3
f 7/11/4 5/12/4 1/13/4
f 5/14/5 7/15/5 8/16/5 6/17/5
f 6/18/6 8/19/6 2/20/6
f 9/21/7 7/22/7 1/23/7
f 7/24/8 9/25/8 10/26/8 8/27/8
f 8/28/9 10/29/9 2/30/9
f 11/31/10 9/32/10 1/33/10
f 9/34/11 11/35/11 12/36/11 10/37/11
f 10/38/12 12/39/12 2/40/12
f 13/41/13 11/42/13 1/43/13
f 11/44/14 13/45/14 14/46/14 12/47/14
f 12/48/15 14/49/15 2/50/15
f 15/51/16 13/52/16 1/53/16
f 13/54/17 15/55/17 16/56/17 14/57/17
f 14/58/18 16/59/18 2/60/18
f 17/61/19 15/62/19 1/63/19
f 15/64/20 17/65/20 18/66/20 16/67/20
f 16/68/21 18/69/21 2/70/21
f 19/71/22 17/72/22 1/73/22
f 17/74/23 19/75/23 20/76/23 18/77/23
f 18/78/24 20/79/24 2/80/24
f 21/81/25 19/82/25 1/83/25
f 19/84/26 21/85/26 22/86/26 20/87/26
f 20/88/27 22/89/27 2/90/27
f 23/91/28 21/92/28 1/93/28
f 21/94/29 23/95/29 24/96/29 22/97/29
f 22/98/30 24/99/30 2/100/30
f 25/101/31 23/102/31 1/103/31
f 23/104/32 25/105/32 26/106/32 24/107/32
f 24/108/33 26/109/33 2/110/33
f 27/111/34 25/112/34 1/113/34
f 25/114/35 27/115/35 28/116/35 26/117/35
f 26/118/36 28/119/36 2/120/36
f 29/121/37 27/122/37 1/123/37
f 27/124/38 29/125/38 30/126/38 28/127/38
f 28/128/39 30/129/39 2/130/39
f 31/131/40 29/132/40 1/133/40
f 29/134/41 31/135/41 32/136/41 30/137/41
f 30/138/42 32/139/42 2/140/42
f 33/141/43 31/142/43 1/143/43
f 31/144/44 33/145/44 34/146/44 32/147/44
f 32/148/45 34/149/45 2/150/45
f 35/151/46 33/152/46 1/153/46
f 33/154/47 35/155/47 36/156/47 34/157/47
f 34/158/48 36/159/48 2/160/48
f 37/161/49 35/162/49 1/163/49
f 35/164/50 37/165/50 38/166/50 36/167/50
f 36/168/51 38/169/51 2/170/51
f 39/171/52 37/172/52 1/173/52
f 37/174/53 39/175/53 40/176/53 38/177/53
f 38/178/54 40/179/54 2/180/54
f 41/181/55 39/182/55 1/183/55
f 39/184/56 41/185/56 42/186/56 40/187/56
f 40/188/57 42/189/57 2/190/57
f 43/191/58 41/192/58 1/193/58
f 41/194/59 43/195/59 44/196/59 42/197/59
f 42/198/60 44/199/60 2/200/60
f 45/201/61 43/202/61 1/203/61
f 43/204/62 45/205/62 46/206/62 44/207/62
f 44/208/63 46/209/63 2/210/63
f 47/211/64 45/212/64 1/213/64
f 45/214/65 47/215/65 48/216/65 46/217/65
f 46/218/66 48/219/66 2/220/66
f 49/221/67 47/222/67 1/223/67
f 47/224/68 49/225/68 50/226/68 48/227/68
f 48/228/69 50/229/69 2/230/69
f 51/231/70 49/232/70 1/233/70
f 49/234/71 51/235/71 52/236/71 50/237/71
f 50/238/72 52/239/72 2/240/72
f 53/241/73 51/242/73 1/243/73
f 51/244/74 53/245/74 54/246/74 52/247/74
f 52/248/75 54/249/75 2/250/75
f 55/251/76 53/252/76 1/253/76
f 53/254/77 55/255/77 56/256/77 54/257/77
f 54/258/78 56/259/78 2/260/78
f 57/261/79 55/262/79 1/263/79
f 55/264/80 57/265/80 58/266/80 56/267/80
f 56/268/81 58/269/81 2/270/81
f 59/271/82 57/272/82 1/273/82
f 57/274/83 59/275/83 60/276/83 58/277/83
f 58/278/84 60/279/84 2/280/84
f 61/281/85 59/282/85 1/283/85
f 59/284/86 61/285/86 62/286/86 60/287/86
f 60/288/87 62/289/87 2/290/87
f 63/291/88 61/292/88 1/293/88
f 61/294/89 63/295/89 64/296/89 62/297/89
f 62/298/90 64/299/90 2/300/90
f 65/301/91 63/302/91 1/303/91
f 63/304/92 65/305/92 66/306/92 64/307/92
f 64/308/93 66/309/93 2/310/93
f 67/311/94 65/312/94 1/313/94
f 65/314/95 67/315/95 68/316/95 66/317/95
f 66/318/96 68/319/96 2/320/96
f 69/321/97 67/322/97 1/323/97
f 67/324/98 69/325/98 70/326/98 68/327/98
f 68/328/99 70/329/99 2/330/99
f 71/331/100 69/332/100 1/333/100
f 69/334/101 71/335/101 72/336/101 70/337/101
f 70/338/102 72/339/102 2/340/102
f 73/341/103 71/342/103 1/343/103
f 71/344/104 73/345/104 74/346/104 72/347/104
f 72/348/105 74/349/105 2/350/105
f 75/351/106 73/352/106 1/353/106
f 73/354/107 75/355/107 76/356/107 74/357/107
f 74/358/108 76/359/108 2/360/108
f 77/361/109 75/362/109 1/363/109
f 75/364/110 77/365/110 78/366/110 76/367/110
f 76/368/111 78/369/111 2/370/111
f 79/371/112 77/372/112 1/373/112
f 77/374/113 79/375/113 80/376/113 78/377/113
f 78/378/114 80/379/114 2/380/114
f 81/381/115 79/382/115 1/383/115
f 79/384/116 81/385/116 82/386/116 80/387/116
f 80/388/117 82/389/117 2/390/117
f 83/391/118 81/392/118 1/393/118
f 81/394/119 83/395/119 84/396/119 82/397/119
f 82/398/120 84/399/120 2/400/120
f 85/401/121 83/402/121 1/403/121
f 83/404/122 85/405/122 86/406/122 84/407/122
f 84/408/123 86/409/123 2/410/123
f 87/411/124 85/412/124 1/413/124
f 85/414/125 87/415/125 88/416/125 86/417/125
f 86/418/126 88/419/126 2/420/126
f 89/421/127 87/422/127 1/423/127
f 87/424/128 89/425/128 90/426/128 88/427/128
f 88/428/129 90/429/129 2/430/129
f 91/431/130 89/432/130 1/433/130
f 89/434/131 91/435/131 92/436/131 90/437/131
f 90/438/132 92/439/132 2/440/132
f 93/441/133 91/442/133 1/443/133
f 91/444/134 93/445/134 94/446/134 92/447/134
f 92/448/135 94/449/135 2/450/135
f 95/451/136 93/452/136 1/453/136
f 93/454/137 95/455/137 96/456/137 94/457/137
f 94/458/138 96/459/138 2/460/138
f 97/461/139 95/462/139 1/463/139
f 95/464/140 97/465/140 98/466/140 96/467/140
f 96/468/141 98/469/141 2/470/141
f 3/471/142 97/472/142 1/473/142
f 97/474/143 3/475/143 4/476/143 98/477/143
f 98/478/144 4/479/144 2/480/144