# Reference-led flame ribbon, Y up, longitudinal flow UVs
o inferno_dome_05_v20
v 4.1636752 0.0400000 -0.5511888
v 4.1925533 0.0400000 -0.2499938
v 4.1996719 0.0400000 0.0524987
v 4.1849940 0.0400000 0.3547187
v 4.1485958 0.0400000 0.6550977
v 4.0906662 0.0400000 0.9520767
v 4.0115059 0.0400000 1.2441144
v 4.3610901 0.5930135 -0.7239686
v 4.4220098 0.6081594 -0.3134222
v 4.4490517 0.5710556 0.1022895
v 4.4198520 0.5384532 0.5183032
v 4.3297874 0.5602185 0.9250374
v 4.2003680 0.6030608 1.3188072
v 4.0583408 0.6014518 1.7061556
v 4.5263995 1.1426359 -0.8715816
v 4.5987365 1.1725548 -0.3630195
v 4.6409876 1.0992608 0.1517015
v 4.6112647 1.0348589 0.6692483
v 4.4894378 1.0778534 1.1730564
v 4.3016552 1.1624831 1.6537708
v 4.0895049 1.1593048 2.1211510
v 4.6242875 1.6855037 -1.0013406
v 4.7124434 1.7294589 -0.4113950
v 4.7943634 1.6217794 0.1875035
v 4.7926101 1.5271638 0.7993039
v 4.6524215 1.5903289 1.3955681
v 4.3966423 1.7146622 1.9507440
v 4.0899949 1.7099928 2.4726261
v 4.6533691 2.2183081 -1.1182328
v 4.7900239 2.2752172 -0.4684877
v 4.9442578 2.1358038 0.2020595
v 4.9819798 2.0133041 0.9023711
v 4.8084471 2.0950845 1.5802657
v 4.4579345 2.2560598 2.1857583
v 4.0412825 2.2500143 2.7305338
v 4.6487444 2.7378214 -1.2316896
v 4.8690157 2.8062831 -0.5417641
v 5.1030401 2.6385685 0.1908211
v 5.1569533 2.4912012 0.9680836
v 4.9167999 2.5895832 1.7047670
v 4.4570515 2.7832368 2.3313932
v 3.9491532 2.7759640 2.8801632
v 4.6506560 3.2409222 -1.3515539
v 4.9580274 3.3192509 -0.6330410
v 5.2386116 3.1273647 0.1511210
v 5.2648558 2.9587584 0.9834768
v 4.9394822 3.0713195 1.7500806
v 4.3946281 3.2928830 2.3799351
v 3.8488368 3.2845620 2.9390985
v 4.6657834 3.7246196 -1.4772510
v 5.0195429 3.8108865 -0.7344694
v 5.2910545 3.5995537 0.0849093
v 5.2616458 3.4138600 0.9432435
v 4.8747267 3.5378286 1.7173580
v 4.3062640 3.7818463 2.3528477
v 3.7833768 3.7726821 2.9447656
v 4.6555293 4.1860753 -1.5899005
v 4.9926911 4.2781561 -0.8280293
v 5.2165179 4.0525804 0.0020082
v 5.1478745 3.8543718 0.8578394
v 4.7622138 3.9866953 1.6304295
v 4.2378619 4.2471588 2.2855104
v 3.7714858 4.2373769 2.9230471
v 4.5632411 4.6226237 -1.6573395
v 4.8394425 4.7182512 -0.8922855
v 5.0229021 4.4839869 -0.0817814
v 4.9709663 4.2781439 0.7501162
v 4.6534514 4.4155641 1.5205430
v 4.2081324 4.6860599 2.2008061
v 3.7884889 4.6759013 2.8676045
v 4.3589327 5.0317900 -1.6521376
v 4.5765613 5.1286095 -0.9134908
v 4.7667975 4.8914251 -0.1513123
v 4.7895500 4.6830163 0.6434659
v 4.5690930 4.8221494 1.4075247
v 4.1873469 5.0960170 2.0960906
v 3.7760171 5.0857317 2.7496225
v 4.0649774 5.4113060 -1.5691493
v 4.2662956 5.5069336 -0.8913601
v 4.5122803 5.2726693 -0.1965963
v 4.6271350 5.0668263 0.5527013
v 4.4775594 5.2042465 1.2938984
v 4.1114655 5.4747423 1.9544009
v 3.6768451 5.4645837 2.5488739
v 3.7420196 5.7591232 -1.4263144
v 3.9723533 5.8512041 -0.8329358
v 4.2837632 5.6256283 -0.2109993
v 4.4526402 5.4274197 0.4839219
v 4.3142997 5.5597432 1.1742079
v 3.9241781 5.8202068 1.7675274
v 3.4714666 5.8104249 2.2777504
v 3.4462477 6.0734230 -1.2467884
v 3.7154569 6.1596898 -0.7405597
v 4.0501503 5.9483570 -0.1878544
v 4.2041769 5.7626634 0.4389986
v 4.0283672 5.8866319 1.0476592
v 3.6156547 6.1306497 1.5492824
v 3.1884510 6.1214855 1.9778160
v 3.1904091 6.3526249 -1.0396334
v 3.4620629 6.4309535 -0.6081419
v 3.7518642 6.2390673 -0.1229485
v 3.8370534 6.0704610 0.4174505
v 3.6196394 6.1830221 0.9222985
v 3.2271794 6.4045856 1.3288931
v 2.8792497 6.3962646 1.6937694
v 2.9366728 6.5953914 -0.7993319
v 3.1530872 6.6638532 -0.4320437
v 3.3480334 6.4961385 -0.0220883
v 3.3574006 6.3487712 0.4149868
v 3.1370904 6.4471532 0.8095808
v 2.8179353 6.6408068 1.1324983
v 2.5773590 6.6335340 1.4474643
v 2.6256093 6.8006311 -0.5254952
v 2.7491961 6.8575402 -0.2258782
v 2.8464198 6.7181267 0.0956115
v 2.8155560 6.5956270 0.4230313
v 2.6408706 6.6774075 0.7157995
v 2.4217412 6.8383828 0.9679542
v 2.2757013 6.8323372 1.2308304
v 2.2197198 6.9674983 -0.2419394
v 2.2579667 7.0114534 -0.0222952
v 2.2941741 6.9037740 0.2043050
v 2.2670394 6.8091583 0.4301522
v 2.1607294 6.8723235 0.6358715
v 2.0294210 6.9966567 0.8221280
v 1.9403861 6.9919873 1.0190627
v 1.7290095 7.0953910 0.0062169
v 1.7234263 7.1253099 0.1412847
v 1.7399470 7.0520159 0.2807854
v 1.7352552 6.9876140 0.4213311
v 1.6849836 7.0306085 0.5516566
v 1.6093968 7.1152383 0.6702167
v 1.5469250 7.1120599 0.7912383
v 1.1990956 7.1839468 0.1749623
v 1.1893162 7.1990927 0.2371365
v 1.2014461 7.1619889 0.3051501
v 1.2073033 7.1293865 0.3743158
v 1.1867797 7.1511518 0.4366589
v 1.1457379 7.1939941 0.4904744
v 1.1058824 7.1923851 0.5429586
v 0.6668949 7.2330360 0.2546569
v 0.6661307 7.2330360 0.2566493
v 0.6653605 7.2330360 0.2586393
v 0.6645844 7.2330360 0.2606271
v 0.6638024 7.2330360 0.2626125
v 0.6630144 7.2330360 0.2645956
v 0.6622205 7.2330360 0.2665763
v 4.3660261 0.1004036 -1.4471594
v 4.3664648 0.1000000 -1.4469520
v 4.3670444 0.0995039 -1.4468178
v 4.3665011 0.1000000 -1.4470603
v 4.5368168 0.5719967 -1.3981248
v 4.6528424 0.4664242 -1.3378809
v 4.7547050 0.3813661 -1.3100906
v 4.6621271 0.4664242 -1.3608609
v 4.7405448 0.9853132 -1.3318179
v 4.9052533 0.8328485 -1.2038420
v 5.0969781 0.6785124 -1.1154752
v 4.9300955 0.8328485 -1.2447706
v 4.9100226 1.3908171 -1.2895467
v 5.0948771 1.1992727 -1.0472293
v 5.3740153 0.9644281 -0.7998772
v 5.1420419 1.1992727 -1.0919210
v 5.1231080 1.7519791 -1.2044784
v 5.2095246 1.5656969 -0.8784952
v 5.3272702 1.4159352 -0.6336863
v 5.2630414 1.5656969 -0.8976372
v 5.2858492 2.0398990 -0.8741672
v 5.2352049 1.9321212 -0.6903407
v 5.2241886 1.8225163 -0.4967828
v 5.2753512 1.9321212 -0.6837812
v 5.2731748 2.4280073 -0.6358587
v 5.1517152 2.2985454 -0.4882883
v 5.0418218 2.1402106 -0.2824983
v 5.1864917 2.2985454 -0.4655193
v 5.1730031 2.8766361 -0.4355512
v 4.9657172 2.6649697 -0.2877117
v 4.8283050 2.4951572 -0.1358793
v 4.9977723 2.6649697 -0.2508403
v 4.8369353 3.1785776 -0.1525632
v 4.6971004 3.0313939 -0.0922578
v 4.5746214 2.8810242 0.0035925
v 4.7172649 3.0313939 -0.0583849
v 4.4330270 3.4735918 0.0674036
v 4.3641770 3.3978181 0.0875367
v 4.2885819 3.3053792 0.1311313
v 4.3717424 3.3978181 0.1046845
v 3.9932315 3.7647465 0.2396915
v 3.9927841 3.7642424 0.2398089
v 3.9924584 3.7638388 0.2399877
v 3.9928202 3.7642424 0.2399032
v 4.3660484 0.1006381 1.4463806
v 4.3664226 0.1000000 1.4470481
v 4.3668379 0.0994787 1.4475173
v 4.3665432 0.1000000 1.4469643
v 4.4720520 0.5749034 1.5848755
v 4.5280868 0.4664242 1.7073219
v 4.6100689 0.3595875 1.8116029
v 4.5550870 0.4664242 1.6908860
v 4.6081089 0.9649848 1.7883881
v 4.6566028 0.8328485 1.9625043
v 4.7594797 0.6686081 2.1616477
v 4.6945891 0.8328485 1.9470994
v 4.7098325 1.3832624 1.9097717
v 4.7189657 1.1992727 2.2018276
v 4.7722805 1.0493304 2.4343781
v 4.7695144 1.1992727 2.1958104
v 4.8130688 1.7226404 2.1440058
v 4.7018676 1.5656969 2.4060689
v 4.6485060 1.4104152 2.6826677
v 4.7588314 1.5656969 2.4234715
v 4.8157539 2.0825704 2.4033290
v 4.6061339 1.9321212 2.5672736
v 4.3896377 1.7455244 2.8155609
v 4.6449579 1.9321212 2.6074052
v 4.6634112 2.4672576 2.6192848
v 4.4233039 2.2985454 2.6836478
v 4.2419093 2.1613848 2.7736746
v 4.4385375 2.2985454 2.7252373
v 4.3147953 2.7974346 2.7471056
v 4.1552068 2.6649697 2.7400887
v 3.9994486 2.5333007 2.7710026
v 4.1580867 2.6649697 2.7780916
v 3.9555176 3.1636069 2.7646456
v 3.8223754 3.0313939 2.7334547
v 3.6536226 2.8677794 2.7334268
v 3.8188102 3.0313939 2.7679315
v 3.5488003 3.5100297 2.7090610
v 3.4486576 3.3978181 2.6745253
v 3.3628487 3.3068069 2.6665997
v 3.4435927 3.3978181 2.6967058
v 3.0598268 3.7647640 2.5769995
v 3.0593864 3.7642424 2.5768079
v 3.0589114 3.7637215 2.5767421
v 3.0593511 3.7642424 2.5769336
vt 0.0000000 0.4400000
vt 0.1666667 0.4400000
vt 0.3333333 0.4400000
vt 0.5000000 0.4400000
vt 0.6666667 0.4400000
vt 0.8333333 0.4400000
vt 1.0000000 0.4400000
vt 0.0000000 0.5225000
vt 0.1666667 0.5225000
vt 0.3333333 0.5225000
vt 0.5000000 0.5225000
vt 0.6666667 0.5225000
vt 0.8333333 0.5225000
vt 1.0000000 0.5225000
vt 0.0000000 0.6050000
vt 0.1666667 0.6050000
vt 0.3333333 0.6050000
vt 0.5000000 0.6050000
vt 0.6666667 0.6050000
vt 0.8333333 0.6050000
vt 1.0000000 0.6050000
vt 0.0000000 0.6875000
vt 0.1666667 0.6875000
vt 0.3333333 0.6875000
vt 0.5000000 0.6875000
vt 0.6666667 0.6875000
vt 0.8333333 0.6875000
vt 1.0000000 0.6875000
vt 0.0000000 0.7700000
vt 0.1666667 0.7700000
vt 0.3333333 0.7700000
vt 0.5000000 0.7700000
vt 0.6666667 0.7700000
vt 0.8333333 0.7700000
vt 1.0000000 0.7700000
vt 0.0000000 0.8525000
vt 0.1666667 0.8525000
vt 0.3333333 0.8525000
vt 0.5000000 0.8525000
vt 0.6666667 0.8525000
vt 0.8333333 0.8525000
vt 1.0000000 0.8525000
vt 0.0000000 0.9350000
vt 0.1666667 0.9350000
vt 0.3333333 0.9350000
vt 0.5000000 0.9350000
vt 0.6666667 0.9350000
vt 0.8333333 0.9350000
vt 1.0000000 0.9350000
vt 0.0000000 1.0175000
vt 0.1666667 1.0175000
vt 0.3333333 1.0175000
vt 0.5000000 1.0175000
vt 0.6666667 1.0175000
vt 0.8333333 1.0175000
vt 1.0000000 1.0175000
vt 0.0000000 1.1000000
vt 0.1666667 1.1000000
vt 0.3333333 1.1000000
vt 0.5000000 1.1000000
vt 0.6666667 1.1000000
vt 0.8333333 1.1000000
vt 1.0000000 1.1000000
vt 0.0000000 1.1825000
vt 0.1666667 1.1825000
vt 0.3333333 1.1825000
vt 0.5000000 1.1825000
vt 0.6666667 1.1825000
vt 0.8333333 1.1825000
vt 1.0000000 1.1825000
vt 0.0000000 1.2650000
vt 0.1666667 1.2650000
vt 0.3333333 1.2650000
vt 0.5000000 1.2650000
vt 0.6666667 1.2650000
vt 0.8333333 1.2650000
vt 1.0000000 1.2650000
vt 0.0000000 1.3475000
vt 0.1666667 1.3475000
vt 0.3333333 1.3475000
vt 0.5000000 1.3475000
vt 0.6666667 1.3475000
vt 0.8333333 1.3475000
vt 1.0000000 1.3475000
vt 0.0000000 1.4300000
vt 0.1666667 1.4300000
vt 0.3333333 1.4300000
vt 0.5000000 1.4300000
vt 0.6666667 1.4300000
vt 0.8333333 1.4300000
vt 1.0000000 1.4300000
vt 0.0000000 1.5125000
vt 0.1666667 1.5125000
vt 0.3333333 1.5125000
vt 0.5000000 1.5125000
vt 0.6666667 1.5125000
vt 0.8333333 1.5125000
vt 1.0000000 1.5125000
vt 0.0000000 1.5950000
vt 0.1666667 1.5950000
vt 0.3333333 1.5950000
vt 0.5000000 1.5950000
vt 0.6666667 1.5950000
vt 0.8333333 1.5950000
vt 1.0000000 1.5950000
vt 0.0000000 1.6775000
vt 0.1666667 1.6775000
vt 0.3333333 1.6775000
vt 0.5000000 1.6775000
vt 0.6666667 1.6775000
vt 0.8333333 1.6775000
vt 1.0000000 1.6775000
vt 0.0000000 1.7600000
vt 0.1666667 1.7600000
vt 0.3333333 1.7600000
vt 0.5000000 1.7600000
vt 0.6666667 1.7600000
vt 0.8333333 1.7600000
vt 1.0000000 1.7600000
vt 0.0000000 1.8425000
vt 0.1666667 1.8425000
vt 0.3333333 1.8425000
vt 0.5000000 1.8425000
vt 0.6666667 1.8425000
vt 0.8333333 1.8425000
vt 1.0000000 1.8425000
vt 0.0000000 1.9250000
vt 0.1666667 1.9250000
vt 0.3333333 1.9250000
vt 0.5000000 1.9250000
vt 0.6666667 1.9250000
vt 0.8333333 1.9250000
vt 1.0000000 1.9250000
vt 0.0000000 2.0075000
vt 0.1666667 2.0075000
vt 0.3333333 2.0075000
vt 0.5000000 2.0075000
vt 0.6666667 2.0075000
vt 0.8333333 2.0075000
vt 1.0000000 2.0075000
vt 0.0000000 2.0900000
vt 0.1666667 2.0900000
vt 0.3333333 2.0900000
vt 0.5000000 2.0900000
vt 0.6666667 2.0900000
vt 0.8333333 2.0900000
vt 1.0000000 2.0900000
vt 1.0000000 0.3600000
vt 0.5000000 0.3600000
vt 0.0000000 0.3600000
vt 0.5000000 0.3600000
vt 1.0000000 0.5400000
vt 0.5000000 0.5400000
vt 0.0000000 0.5400000
vt 0.5000000 0.5400000
vt 1.0000000 0.7200000
vt 0.5000000 0.7200000
vt 0.0000000 0.7200000
vt 0.5000000 0.7200000
vt 1.0000000 0.9000000
vt 0.5000000 0.9000000
vt 0.0000000 0.9000000
vt 0.5000000 0.9000000
vt 1.0000000 1.0800000
vt 0.5000000 1.0800000
vt 0.0000000 1.0800000
vt 0.5000000 1.0800000
vt 1.0000000 1.2600000
vt 0.5000000 1.2600000
vt 0.0000000 1.2600000
vt 0.5000000 1.2600000
vt 1.0000000 1.4400000
vt 0.5000000 1.4400000
vt 0.0000000 1.4400000
vt 0.5000000 1.4400000
vt 1.0000000 1.6200000
vt 0.5000000 1.6200000
vt 0.0000000 1.6200000
vt 0.5000000 1.6200000
vt 1.0000000 1.8000000
vt 0.5000000 1.8000000
vt 0.0000000 1.8000000
vt 0.5000000 1.8000000
vt 1.0000000 1.9800000
vt 0.5000000 1.9800000
vt 0.0000000 1.9800000
vt 0.5000000 1.9800000
vt 1.0000000 2.1600000
vt 0.5000000 2.1600000
vt 0.0000000 2.1600000
vt 0.5000000 2.1600000
vt 1.0000000 0.3600000
vt 0.5000000 0.3600000
vt 0.0000000 0.3600000
vt 0.5000000 0.3600000
vt 1.0000000 0.5400000
vt 0.5000000 0.5400000
vt 0.0000000 0.5400000
vt 0.5000000 0.5400000
vt 1.0000000 0.7200000
vt 0.5000000 0.7200000
vt 0.0000000 0.7200000
vt 0.5000000 0.7200000
vt 1.0000000 0.9000000
vt 0.5000000 0.9000000
vt 0.0000000 0.9000000
vt 0.5000000 0.9000000
vt 1.0000000 1.0800000
vt 0.5000000 1.0800000
vt 0.0000000 1.0800000
vt 0.5000000 1.0800000
vt 1.0000000 1.2600000
vt 0.5000000 1.2600000
vt 0.0000000 1.2600000
vt 0.5000000 1.2600000
vt 1.0000000 1.4400000
vt 0.5000000 1.4400000
vt 0.0000000 1.4400000
vt 0.5000000 1.4400000
vt 1.0000000 1.6200000
vt 0.5000000 1.6200000
vt 0.0000000 1.6200000
vt 0.5000000 1.6200000
vt 1.0000000 1.8000000
vt 0.5000000 1.8000000
vt 0.0000000 1.8000000
vt 0.5000000 1.8000000
vt 1.0000000 1.9800000
vt 0.5000000 1.9800000
vt 0.0000000 1.9800000
vt 0.5000000 1.9800000
vt 1.0000000 2.1600000
vt 0.5000000 2.1600000
vt 0.0000000 2.1600000
vt 0.5000000 2.1600000
vn 0.9289124 -0.3594296 -0.0890627
vn 0.9234555 -0.3747342 -0.0824872
vn 0.9123283 -0.4081553 -0.0326537
vn 0.8973417 -0.4377247 0.0563465
vn 0.8885382 -0.4250845 0.1726353
vn 0.8902779 -0.3751078 0.2582624
vn 0.8949043 -0.3387123 0.2905515
vn 0.9283109 -0.3534736 -0.1153050
vn 0.9319741 -0.3485976 -0.0995185
vn 0.9268599 -0.3732130 -0.0405303
vn 0.9105068 -0.4014899 0.0989103
vn 0.8785358 -0.4037065 0.2553348
vn 0.8687928 -0.3706340 0.3283742
vn 0.8732571 -0.3420141 0.3470569
vn 0.9535802 -0.2747998 -0.1231659
vn 0.9588679 -0.2586779 -0.1168679
vn 0.9524762 -0.2977654 -0.0642252
vn 0.9258441 -0.3624566 0.1069479
vn 0.8623086 -0.4014612 0.3086304
vn 0.8399285 -0.3739933 0.3932546
vn 0.8443172 -0.3314709 0.4210172
vn 0.9771862 -0.1659731 -0.1325143
vn 0.9716205 -0.1801842 -0.1532555
vn 0.9568591 -0.2646321 -0.1199606
vn 0.9297833 -0.3588356 0.0820972
vn 0.8496267 -0.3981749 0.3458197
vn 0.8124476 -0.3457269 0.4694697
vn 0.8085835 -0.2728173 0.5213093
vn 0.9792614 -0.0941273 -0.1794080
vn 0.9595105 -0.1632575 -0.2295356
vn 0.9407031 -0.2776701 -0.1948769
vn 0.9322231 -0.3554998 0.0676749
vn 0.8482191 -0.3441366 0.4026093
vn 0.7886731 -0.2450465 0.5638678
vn 0.7664906 -0.1461467 0.6254065
vn 0.9596480 -0.0993592 -0.2630654
vn 0.9276392 -0.1962374 -0.3177678
vn 0.9276939 -0.2833525 -0.2430952
vn 0.9527534 -0.2876544 0.0975499
vn 0.8583781 -0.1934170 0.4751600
vn 0.7642859 -0.0713504 0.6409182
vn 0.7276846 0.0068883 0.6858773
vn 0.9263635 -0.1440402 -0.3479987
vn 0.9040907 -0.2061718 -0.3743169
vn 0.9502324 -0.2089208 -0.2311070
vn 0.9795902 -0.1018881 0.1732680
vn 0.8537692 0.0355077 0.5194395
vn 0.7446074 0.1014688 0.6597454
vn 0.7221466 0.1056347 0.6836268
vn 0.9057114 -0.1364783 -0.4013234
vn 0.9189257 -0.1114321 -0.3783629
vn 0.9895514 0.0017420 -0.1441702
vn 0.9547027 0.1628550 0.2490400
vn 0.8322480 0.2311371 0.5039235
vn 0.7559489 0.1900382 0.6264397
vn 0.7631228 0.1146605 0.6360005
vn 0.9103995 0.0036664 -0.4137140
vn 0.9387573 0.1279972 -0.3199240
vn 0.9575250 0.2879339 -0.0154914
vn 0.8925834 0.3610418 0.2700809
vn 0.8354440 0.3146882 0.4505605
vn 0.8020394 0.1862697 0.5674824
vn 0.8169089 0.0830180 0.5707608
vn 0.8851740 0.2713920 -0.3779064
vn 0.8849399 0.4091450 -0.2224449
vn 0.8753562 0.4796432 0.0607772
vn 0.8703482 0.4341012 0.2324867
vn 0.8729512 0.3048011 0.3808577
vn 0.8481765 0.1656344 0.5031519
vn 0.8385284 0.1275933 0.5297075
vn 0.7929283 0.5189666 -0.3192779
vn 0.7975446 0.5803790 -0.1645687
vn 0.8366196 0.5458177 0.0463754
vn 0.8937105 0.4227840 0.1501170
vn 0.9082052 0.2890619 0.3026657
vn 0.8565934 0.2475120 0.4527534
vn 0.7848409 0.3314447 0.5236117
vn 0.6987143 0.6510285 -0.2965807
vn 0.7440323 0.6428198 -0.1822049
vn 0.8383131 0.5439383 -0.0369098
vn 0.9068145 0.4174723 0.0583464
vn 0.8968776 0.3795433 0.2270628
vn 0.7851747 0.4685082 0.4049700
vn 0.6301112 0.5942613 0.4998134
vn 0.6339299 0.6998222 -0.3292139
vn 0.7118614 0.6557590 -0.2514627
vn 0.8223622 0.5577456 -0.1124287
vn 0.8558864 0.5168363 0.0184047
vn 0.7998013 0.5791703 0.1577329
vn 0.6387201 0.6915226 0.3373917
vn 0.4747858 0.7557169 0.4510768
vn 0.5717699 0.7212020 -0.3910842
vn 0.6598954 0.6897426 -0.2979818
vn 0.7500978 0.6561081 -0.0829184
vn 0.7231957 0.6887470 0.0511423
vn 0.6485394 0.7549391 0.0972808
vn 0.5127538 0.8157021 0.2677941
vn 0.3932162 0.8253753 0.4051378
vn 0.4810086 0.7690580 -0.4209282
vn 0.5708498 0.7826997 -0.2480155
vn 0.6237001 0.7800681 0.0499189
vn 0.5694060 0.8144165 0.1118147
vn 0.5277297 0.8482069 0.0452381
vn 0.4480278 0.8707603 0.2026019
vn 0.3745535 0.8559535 0.3564454
vn 0.3671268 0.8494148 -0.3790942
vn 0.4622358 0.8786502 -0.1196323
vn 0.4960545 0.8459943 0.1955084
vn 0.4587605 0.8742241 0.1589687
vn 0.4582720 0.8887112 -0.0133835
vn 0.4252597 0.8962942 0.1257415
vn 0.3786216 0.8796809 0.2877623
vn 0.2630817 0.9167138 -0.3007055
vn 0.3669356 0.9301542 0.0130950
vn 0.4009764 0.8634340 0.3061038
vn 0.3914707 0.9030086 0.1769922
vn 0.4178183 0.9034121 -0.0963038
vn 0.4039583 0.9143405 0.0282699
vn 0.3486808 0.9143416 0.2059154
vn 0.1856784 0.9531234 -0.2389128
vn 0.2926462 0.9491277 0.1162532
vn 0.3275716 0.8656739 0.3785571
vn 0.3428030 0.9264017 0.1557754
vn 0.3769927 0.9038008 -0.2025356
vn 0.3485699 0.9349891 -0.0655319
vn 0.2626373 0.9538689 0.1454500
vn 0.1291899 0.9683377 -0.2136167
vn 0.2253453 0.9552501 0.1916160
vn 0.2521941 0.8736457 0.4161025
vn 0.2890812 0.9524351 0.0964337
vn 0.3265840 0.8958124 -0.3014349
vn 0.2676402 0.9560017 -0.1201223
vn 0.1606264 0.9802758 0.1151453
vn 0.0855138 0.9722115 -0.2179269
vn 0.1498790 0.9513821 0.2690879
vn 0.1611209 0.8904295 0.4256469
vn 0.2322428 0.9726577 -0.0004640
vn 0.2867659 0.8830440 -0.3714817
vn 0.1840418 0.9766938 -0.1104435
vn 0.0809147 0.9925612 0.0909670
vn 0.0558670 0.9737484 -0.2206647
vn 0.0760927 0.8908381 0.4479033
vn 0.0873865 0.9117857 0.4012610
vn 0.2283390 0.9450117 -0.2341245
vn 0.2762782 0.8582261 -0.4325717
vn 0.0502395 0.9966010 0.0652866
vn 0.0730912 0.9968949 0.0292959
vn -0.4191108 0.0575279 0.9061107
vn -0.3008829 -0.0484115 0.9524315
vn 0.4000837 -0.1090259 -0.9099706
vn 0.2830805 -0.0028745 -0.9590919
vn -0.6876012 0.1563236 0.7090610
vn -0.4094869 -0.0308260 0.9117951
vn 0.6062827 -0.2714786 -0.7474762
vn 0.3681859 -0.0264463 -0.9293760
vn -0.9519543 0.2977487 0.0716150
vn -0.5701596 -0.0308369 0.8209550
vn 0.8394074 -0.4110784 -0.3555416
vn 0.5202850 -0.0447048 -0.8528218
vn -0.7867745 0.3415995 -0.5140969
vn -0.7504653 -0.0198122 0.6606128
vn 0.6688912 -0.4302112 0.6062202
vn 0.7348329 -0.0394359 -0.6771008
vn 0.0557112 0.3775825 -0.9242985
vn -0.9304980 0.0312378 0.3649626
vn -0.1099307 -0.2278284 0.9674758
vn 0.9372920 0.0286744 -0.3473636
vn 0.4572181 0.3599934 -0.8132382
vn -0.9940405 0.0206037 -0.1070468
vn -0.1380770 -0.3098596 0.9407028
vn 0.9890894 0.0328109 0.1436159
vn 0.1122947 0.3325773 -0.9363665
vn -0.8417371 -0.0070458 -0.5398416
vn -0.2492887 -0.4197322 0.8727428
vn 0.8378603 0.0063222 0.5458480
vn 0.6362923 0.5340163 -0.5567393
vn -0.6687999 0.0033252 -0.7434350
vn -0.7565090 -0.4813130 0.4427549
vn 0.6626742 0.0197952 0.7486461
vn 0.7851236 0.4301441 0.4455973
vn -0.5393050 0.0159075 -0.8419602
vn -0.8957789 -0.4113103 -0.1685347
vn 0.5079301 0.0186563 0.8611962
vn 0.5847562 0.2604655 0.7682564
vn -0.4251248 0.0263236 -0.9047519
vn -0.6485916 -0.1821009 -0.7390319
vn 0.3948224 0.0073103 0.9187284
vn 0.4214779 0.1036792 0.9008923
vn -0.3340305 0.0525582 -0.9410958
vn -0.4355589 -0.0681918 -0.8975736
vn 0.3210281 -0.0173739 0.9469103
vn -0.8855372 0.0633957 0.4602225
vn -0.8118469 -0.0548118 0.5812920
vn 0.8620253 -0.1154060 -0.4935522
vn 0.7890344 0.0028762 -0.6143423
vn -0.9742970 0.2032073 0.0972216
vn -0.8739845 -0.0255384 0.4852823
vn 0.9332776 -0.2810518 -0.2236129
vn 0.8511145 -0.0219733 -0.5245200
vn -0.8005063 0.3183255 -0.5077977
vn -0.9391447 -0.0150326 0.3431928
vn 0.6722557 -0.4894267 0.5554582
vn 0.9303021 -0.0352556 -0.3650960
vn -0.3007292 0.3400168 -0.8910390
vn -0.9971364 -0.0172098 0.0736394
vn 0.1576460 -0.4216682 0.8929410
vn 0.9927919 -0.0378451 -0.1137186
vn 0.4162792 0.3407163 -0.8429852
vn -0.9480468 -0.0101549 -0.3179687
vn -0.0939781 -0.3600316 0.9281947
vn 0.9539822 -0.0191816 0.2992491
vn 0.6819178 0.3612725 -0.6359798
vn -0.7202853 0.0154864 -0.6935051
vn -0.7508194 -0.3116824 0.5823438
vn 0.6942748 0.0276796 0.7191775
vn 0.8902725 0.4473703 -0.0852922
vn -0.3917812 0.0224181 -0.9197853
vn -0.9496274 -0.3104173 -0.0429993
vn 0.3656964 0.0477773 0.9295071
vn 0.8001413 0.5054409 0.3229605
vn -0.1044675 0.0050699 -0.9945154
vn -0.8604304 -0.4851401 0.1558800
vn 0.0831359 0.0206314 0.9963246
vn 0.7148161 0.6061071 0.3488152
vn 0.0864148 0.0068936 -0.9962354
vn -0.6987227 -0.5011606 -0.5105141
vn -0.1050539 0.0106959 0.9944090
vn 0.0488378 0.2964297 0.9538052
vn 0.2029469 0.0213271 -0.9789575
vn -0.0797592 -0.1844277 -0.9796045
vn -0.2276236 0.0101974 0.9736958
vn -0.2135240 0.0942878 0.9723771
vn 0.2813967 0.0434031 -0.9586094
vn 0.1723450 -0.0784081 -0.9819111
vn -0.3211891 -0.0273167 0.9466210
s 1
f 1/1/1 8/8/8 2/2/2
f 2/2/2 8/8/8 9/9/9
f 2/2/2 9/9/9 3/3/3
f 3/3/3 9/9/9 10/10/10
f 3/3/3 10/10/10 4/4/4
f 4/4/4 10/10/10 11/11/11
f 4/4/4 11/11/11 5/5/5
f 5/5/5 11/11/11 12/12/12
f 5/5/5 12/12/12 6/6/6
f 6/6/6 12/12/12 13/13/13
f 6/6/6 13/13/13 7/7/7
f 7/7/7 13/13/13 14/14/14
f 8/8/8 15/15/15 9/9/9
f 9/9/9 15/15/15 16/16/16
f 9/9/9 16/16/16 10/10/10
f 10/10/10 16/16/16 17/17/17
f 10/10/10 17/17/17 11/11/11
f 11/11/11 17/17/17 18/18/18
f 11/11/11 18/18/18 12/12/12
f 12/12/12 18/18/18 19/19/19
f 12/12/12 19/19/19 13/13/13
f 13/13/13 19/19/19 20/20/20
f 13/13/13 20/20/20 14/14/14
f 14/14/14 20/20/20 21/21/21
f 15/15/15 22/22/22 16/16/16
f 16/16/16 22/22/22 23/23/23
f 16/16/16 23/23/23 17/17/17
f 17/17/17 23/23/23 24/24/24
f 17/17/17 24/24/24 18/18/18
f 18/18/18 24/24/24 25/25/25
f 18/18/18 25/25/25 19/19/19
f 19/19/19 25/25/25 26/26/26
f 19/19/19 26/26/26 20/20/20
f 20/20/20 26/26/26 27/27/27
f 20/20/20 27/27/27 21/21/21
f 21/21/21 27/27/27 28/28/28
f 22/22/22 29/29/29 23/23/23
f 23/23/23 29/29/29 30/30/30
f 23/23/23 30/30/30 24/24/24
f 24/24/24 30/30/30 31/31/31
f 24/24/24 31/31/31 25/25/25
f 25/25/25 31/31/31 32/32/32
f 25/25/25 32/32/32 26/26/26
f 26/26/26 32/32/32 33/33/33
f 26/26/26 33/33/33 27/27/27
f 27/27/27 33/33/33 34/34/34
f 27/27/27 34/34/34 28/28/28
f 28/28/28 34/34/34 35/35/35
f 29/29/29 36/36/36 30/30/30
f 30/30/30 36/36/36 37/37/37
f 30/30/30 37/37/37 31/31/31
f 31/31/31 37/37/37 38/38/38
f 31/31/31 38/38/38 32/32/32
f 32/32/32 38/38/38 39/39/39
f 32/32/32 39/39/39 33/33/33
f 33/33/33 39/39/39 40/40/40
f 33/33/33 40/40/40 34/34/34
f 34/34/34 40/40/40 41/41/41
f 34/34/34 41/41/41 35/35/35
f 35/35/35 41/41/41 42/42/42
f 36/36/36 43/43/43 37/37/37
f 37/37/37 43/43/43 44/44/44
f 37/37/37 44/44/44 38/38/38
f 38/38/38 44/44/44 45/45/45
f 38/38/38 45/45/45 39/39/39
f 39/39/39 45/45/45 46/46/46
f 39/39/39 46/46/46 40/40/40
f 40/40/40 46/46/46 47/47/47
f 40/40/40 47/47/47 41/41/41
f 41/41/41 47/47/47 48/48/48
f 41/41/41 48/48/48 42/42/42
f 42/42/42 48/48/48 49/49/49
f 43/43/43 50/50/50 44/44/44
f 44/44/44 50/50/50 51/51/51
f 44/44/44 51/51/51 45/45/45
f 45/45/45 51/51/51 52/52/52
f 45/45/45 52/52/52 46/46/46
f 46/46/46 52/52/52 53/53/53
f 46/46/46 53/53/53 47/47/47
f 47/47/47 53/53/53 54/54/54
f 47/47/47 54/54/54 48/48/48
f 48/48/48 54/54/54 55/55/55
f 48/48/48 55/55/55 49/49/49
f 49/49/49 55/55/55 56/56/56
f 50/50/50 57/57/57 51/51/51
f 51/51/51 57/57/57 58/58/58
f 51/51/51 58/58/58 52/52/52
f 52/52/52 58/58/58 59/59/59
f 52/52/52 59/59/59 53/53/53
f 53/53/53 59/59/59 60/60/60
f 53/53/53 60/60/60 54/54/54
f 54/54/54 60/60/60 61/61/61
f 54/54/54 61/61/61 55/55/55
f 55/55/55 61/61/61 62/62/62
f 55/55/55 62/62/62 56/56/56
f 56/56/56 62/62/62 63/63/63
f 57/57/57 64/64/64 58/58/58
f 58/58/58 64/64/64 65/65/65
f 58/58/58 65/65/65 59/59/59
f 59/59/59 65/65/65 66/66/66
f 59/59/59 66/66/66 60/60/60
f 60/60/60 66/66/66 67/67/67
f 60/60/60 67/67/67 61/61/61
f 61/61/61 67/67/67 68/68/68
f 61/61/61 68/68/68 62/62/62
f 62/62/62 68/68/68 69/69/69
f 62/62/62 69/69/69 63/63/63
f 63/63/63 69/69/69 70/70/70
f 64/64/64 71/71/71 65/65/65
f 65/65/65 71/71/71 72/72/72
f 65/65/65 72/72/72 66/66/66
f 66/66/66 72/72/72 73/73/73
f 66/66/66 73/73/73 67/67/67
f 67/67/67 73/73/73 74/74/74
f 67/67/67 74/74/74 68/68/68
f 68/68/68 74/74/74 75/75/75
f 68/68/68 75/75/75 69/69/69
f 69/69/69 75/75/75 76/76/76
f 69/69/69 76/76/76 70/70/70
f 70/70/70 76/76/76 77/77/77
f 71/71/71 78/78/78 72/72/72
f 72/72/72 78/78/78 79/79/79
f 72/72/72 79/79/79 73/73/73
f 73/73/73 79/79/79 80/80/80
f 73/73/73 80/80/80 74/74/74
f 74/74/74 80/80/80 81/81/81
f 74/74/74 81/81/81 75/75/75
f 75/75/75 81/81/81 82/82/82
f 75/75/75 82/82/82 76/76/76
f 76/76/76 82/82/82 83/83/83
f 76/76/76 83/83/83 77/77/77
f 77/77/77 83/83/83 84/84/84
f 78/78/78 85/85/85 79/79/79
f 79/79/79 85/85/85 86/86/86
f 79/79/79 86/86/86 80/80/80
f 80/80/80 86/86/86 87/87/87
f 80/80/80 87/87/87 81/81/81
f 81/81/81 87/87/87 88/88/88
f 81/81/81 88/88/88 82/82/82
f 82/82/82 88/88/88 89/89/89
f 82/82/82 89/89/89 83/83/83
f 83/83/83 89/89/89 90/90/90
f 83/83/83 90/90/90 84/84/84
f 84/84/84 90/90/90 91/91/91
f 85/85/85 92/92/92 86/86/86
f 86/86/86 92/92/92 93/93/93
f 86/86/86 93/93/93 87/87/87
f 87/87/87 93/93/93 94/94/94
f 87/87/87 94/94/94 88/88/88
f 88/88/88 94/94/94 95/95/95
f 88/88/88 95/95/95 89/89/89
f 89/89/89 95/95/95 96/96/96
f 89/89/89 96/96/96 90/90/90
f 90/90/90 96/96/96 97/97/97
f 90/90/90 97/97/97 91/91/91
f 91/91/91 97/97/97 98/98/98
f 92/92/92 99/99/99 93/93/93
f 93/93/93 99/99/99 100/100/100
f 93/93/93 100/100/100 94/94/94
f 94/94/94 100/100/100 101/101/101
f 94/94/94 101/101/101 95/95/95
f 95/95/95 101/101/101 102/102/102
f 95/95/95 102/102/102 96/96/96
f 96/96/96 102/102/102 103/103/103
f 96/96/96 103/103/103 97/97/97
f 97/97/97 103/103/103 104/104/104
f 97/97/97 104/104/104 98/98/98
f 98/98/98 104/104/104 105/105/105
f 99/99/99 106/106/106 100/100/100
f 100/100/100 106/106/106 107/107/107
f 100/100/100 107/107/107 101/101/101
f 101/101/101 107/107/107 108/108/108
f 101/101/101 108/108/108 102/102/102
f 102/102/102 108/108/108 109/109/109
f 102/102/102 109/109/109 103/103/103
f 103/103/103 109/109/109 110/110/110
f 103/103/103 110/110/110 104/104/104
f 104/104/104 110/110/110 111/111/111
f 104/104/104 111/111/111 105/105/105
f 105/105/105 111/111/111 112/112/112
f 106/106/106 113/113/113 107/107/107
f 107/107/107 113/113/113 114/114/114
f 107/107/107 114/114/114 108/108/108
f 108/108/108 114/114/114 115/115/115
f 108/108/108 115/115/115 109/109/109
f 109/109/109 115/115/115 116/116/116
f 109/109/109 116/116/116 110/110/110
f 110/110/110 116/116/116 117/117/117
f 110/110/110 117/117/117 111/111/111
f 111/111/111 117/117/117 118/118/118
f 111/111/111 118/118/118 112/112/112
f 112/112/112 118/118/118 119/119/119
f 113/113/113 120/120/120 114/114/114
f 114/114/114 120/120/120 121/121/121
f 114/114/114 121/121/121 115/115/115
f 115/115/115 121/121/121 122/122/122
f 115/115/115 122/122/122 116/116/116
f 116/116/116 122/122/122 123/123/123
f 116/116/116 123/123/123 117/117/117
f 117/117/117 123/123/123 124/124/124
f 117/117/117 124/124/124 118/118/118
f 118/118/118 124/124/124 125/125/125
f 118/118/118 125/125/125 119/119/119
f 119/119/119 125/125/125 126/126/126
f 120/120/120 127/127/127 121/121/121
f 121/121/121 127/127/127 128/128/128
f 121/121/121 128/128/128 122/122/122
f 122/122/122 128/128/128 129/129/129
f 122/122/122 129/129/129 123/123/123
f 123/123/123 129/129/129 130/130/130
f 123/123/123 130/130/130 124/124/124
f 124/124/124 130/130/130 131/131/131
f 124/124/124 131/131/131 125/125/125
f 125/125/125 131/131/131 132/132/132
f 125/125/125 132/132/132 126/126/126
f 126/126/126 132/132/132 133/133/133
f 127/127/127 134/134/134 128/128/128
f 128/128/128 134/134/134 135/135/135
f 128/128/128 135/135/135 129/129/129
f 129/129/129 135/135/135 136/136/136
f 129/129/129 136/136/136 130/130/130
f 130/130/130 136/136/136 137/137/137
f 130/130/130 137/137/137 131/131/131
f 131/131/131 137/137/137 138/138/138
f 131/131/131 138/138/138 132/132/132
f 132/132/132 138/138/138 139/139/139
f 132/132/132 139/139/139 133/133/133
f 133/133/133 139/139/139 140/140/140
f 134/134/134 141/141/141 135/135/135
f 135/135/135 141/141/141 142/142/142
f 135/135/135 142/142/142 136/136/136
f 136/136/136 142/142/142 143/143/143
f 136/136/136 143/143/143 137/137/137
f 137/137/137 143/143/143 144/144/144
f 137/137/137 144/144/144 138/138/138
f 138/138/138 144/144/144 145/145/145
f 138/138/138 145/145/145 139/139/139
f 139/139/139 145/145/145 146/146/146
f 139/139/139 146/146/146 140/140/140
f 140/140/140 146/146/146 147/147/147
f 148/148/148 149/149/149 153/153/153
f 148/148/148 153/153/153 152/152/152
f 149/149/149 150/150/150 154/154/154
f 149/149/149 154/154/154 153/153/153
f 150/150/150 151/151/151 155/155/155
f 150/150/150 155/155/155 154/154/154
f 151/151/151 148/148/148 152/152/152
f 151/151/151 152/152/152 155/155/155
f 152/152/152 153/153/153 157/157/157
f 152/152/152 157/157/157 156/156/156
f 153/153/153 154/154/154 158/158/158
f 153/153/153 158/158/158 157/157/157
f 154/154/154 155/155/155 159/159/159
f 154/154/154 159/159/159 158/158/158
f 155/155/155 152/152/152 156/156/156
f 155/155/155 156/156/156 159/159/159
f 156/156/156 157/157/157 161/161/161
f 156/156/156 161/161/161 160/160/160
f 157/157/157 158/158/158 162/162/162
f 157/157/157 162/162/162 161/161/161
f 158/158/158 159/159/159 163/163/163
f 158/158/158 163/163/163 162/162/162
f 159/159/159 156/156/156 160/160/160
f 159/159/159 160/160/160 163/163/163
f 160/160/160 161/161/161 165/165/165
f 160/160/160 165/165/165 164/164/164
f 161/161/161 162/162/162 166/166/166
f 161/161/161 166/166/166 165/165/165
f 162/162/162 163/163/163 167/167/167
f 162/162/162 167/167/167 166/166/166
f 163/163/163 160/160/160 164/164/164
f 163/163/163 164/164/164 167/167/167
f 164/164/164 165/165/165 169/169/169
f 164/164/164 169/169/169 168/168/168
f 165/165/165 166/166/166 170/170/170
f 165/165/165 170/170/170 169/169/169
f 166/166/166 167/167/167 171/171/171
f 166/166/166 171/171/171 170/170/170
f 167/167/167 164/164/164 168/168/168
f 167/167/167 168/168/168 171/171/171
f 168/168/168 169/169/169 173/173/173
f 168/168/168 173/173/173 172/172/172
f 169/169/169 170/170/170 174/174/174
f 169/169/169 174/174/174 173/173/173
f 170/170/170 171/171/171 175/175/175
f 170/170/170 175/175/175 174/174/174
f 171/171/171 168/168/168 172/172/172
f 171/171/171 172/172/172 175/175/175
f 172/172/172 173/173/173 177/177/177
f 172/172/172 177/177/177 176/176/176
f 173/173/173 174/174/174 178/178/178
f 173/173/173 178/178/178 177/177/177
f 174/174/174 175/175/175 179/179/179
f 174/174/174 179/179/179 178/178/178
f 175/175/175 172/172/172 176/176/176
f 175/175/175 176/176/176 179/179/179
f 176/176/176 177/177/177 181/181/181
f 176/176/176 181/181/181 180/180/180
f 177/177/177 178/178/178 182/182/182
f 177/177/177 182/182/182 181/181/181
f 178/178/178 179/179/179 183/183/183
f 178/178/178 183/183/183 182/182/182
f 179/179/179 176/176/176 180/180/180
f 179/179/179 180/180/180 183/183/183
f 180/180/180 181/181/181 185/185/185
f 180/180/180 185/185/185 184/184/184
f 181/181/181 182/182/182 186/186/186
f 181/181/181 186/186/186 185/185/185
f 182/182/182 183/183/183 187/187/187
f 182/182/182 187/187/187 186/186/186
f 183/183/183 180/180/180 184/184/184
f 183/183/183 184/184/184 187/187/187
f 184/184/184 185/185/185 189/189/189
f 184/184/184 189/189/189 188/188/188
f 185/185/185 186/186/186 190/190/190
f 185/185/185 190/190/190 189/189/189
f 186/186/186 187/187/187 191/191/191
f 186/186/186 191/191/191 190/190/190
f 187/187/187 184/184/184 188/188/188
f 187/187/187 188/188/188 191/191/191
f 148/148/148 150/150/150 149/149/149
f 188/188/188 189/189/189 190/190/190
f 148/148/148 151/151/151 150/150/150
f 188/188/188 190/190/190 191/191/191
f 192/192/192 193/193/193 197/197/197
f 192/192/192 197/197/197 196/196/196
f 193/193/193 194/194/194 198/198/198
f 193/193/193 198/198/198 197/197/197
f 194/194/194 195/195/195 199/199/199
f 194/194/194 199/199/199 198/198/198
f 195/195/195 192/192/192 196/196/196
f 195/195/195 196/196/196 199/199/199
f 196/196/196 197/197/197 201/201/201
f 196/196/196 201/201/201 200/200/200
f 197/197/197 198/198/198 202/202/202
f 197/197/197 202/202/202 201/201/201
f 198/198/198 199/199/199 203/203/203
f 198/198/198 203/203/203 202/202/202
f 199/199/199 196/196/196 200/200/200
f 199/199/199 200/200/200 203/203/203
f 200/200/200 201/201/201 205/205/205
f 200/200/200 205/205/205 204/204/204
f 201/201/201 202/202/202 206/206/206
f 201/201/201 206/206/206 205/205/205
f 202/202/202 203/203/203 207/207/207
f 202/202/202 207/207/207 206/206/206
f 203/203/203 200/200/200 204/204/204
f 203/203/203 204/204/204 207/207/207
f 204/204/204 205/205/205 209/209/209
f 204/204/204 209/209/209 208/208/208
f 205/205/205 206/206/206 210/210/210
f 205/205/205 210/210/210 209/209/209
f 206/206/206 207/207/207 211/211/211
f 206/206/206 211/211/211 210/210/210
f 207/207/207 204/204/204 208/208/208
f 207/207/207 208/208/208 211/211/211
f 208/208/208 209/209/209 213/213/213
f 208/208/208 213/213/213 212/212/212
f 209/209/209 210/210/210 214/214/214
f 209/209/209 214/214/214 213/213/213
f 210/210/210 211/211/211 215/215/215
f 210/210/210 215/215/215 214/214/214
f 211/211/211 208/208/208 212/212/212
f 211/211/211 212/212/212 215/215/215
f 212/212/212 213/213/213 217/217/217
f 212/212/212 217/217/217 216/216/216
f 213/213/213 214/214/214 218/218/218
f 213/213/213 218/218/218 217/217/217
f 214/214/214 215/215/215 219/219/219
f 214/214/214 219/219/219 218/218/218
f 215/215/215 212/212/212 216/216/216
f 215/215/215 216/216/216 219/219/219
f 216/216/216 217/217/217 221/221/221
f 216/216/216 221/221/221 220/220/220
f 217/217/217 218/218/218 222/222/222
f 217/217/217 222/222/222 221/221/221
f 218/218/218 219/219/219 223/223/223
f 218/218/218 223/223/223 222/222/222
f 219/219/219 216/216/216 220/220/220
f 219/219/219 220/220/220 223/223/223
f 220/220/220 221/221/221 225/225/225
f 220/220/220 225/225/225 224/224/224
f 221/221/221 222/222/222 226/226/226
f 221/221/221 226/226/226 225/225/225
f 222/222/222 223/223/223 227/227/227
f 222/222/222 227/227/227 226/226/226
f 223/223/223 220/220/220 224/224/224
f 223/223/223 224/224/224 227/227/227
f 224/224/224 225/225/225 229/229/229
f 224/224/224 229/229/229 228/228/228
f 225/225/225 226/226/226 230/230/230
f 225/225/225 230/230/230 229/229/229
f 226/226/226 227/227/227 231/231/231
f 226/226/226 231/231/231 230/230/230
f 227/227/227 224/224/224 228/228/228
f 227/227/227 228/228/228 231/231/231
f 228/228/228 229/229/229 233/233/233
f 228/228/228 233/233/233 232/232/232
f 229/229/229 230/230/230 234/234/234
f 229/229/229 234/234/234 233/233/233
f 230/230/230 231/231/231 235/235/235
f 230/230/230 235/235/235 234/234/234
f 231/231/231 228/228/228 232/232/232
f 231/231/231 232/232/232 235/235/235
f 192/192/192 194/194/194 193/193/193
f 232/232/232 233/233/233 234/234/234
f 192/192/192 195/195/195 194/194/194
f 232/232/232 234/234/234 235/235/235
