# Reference-led flame ribbon, Y up, longitudinal flow UVs
o inferno_dome_01_v20
v 4.0995723 0.0400000 -0.9129659
v 4.1552661 0.0400000 -0.6113622
v 4.1888016 0.0400000 -0.3064983
v 4.2000000 0.0400000 0.0000000
v 4.1888016 0.0400000 0.3064983
v 4.1552661 0.0400000 0.6113622
v 4.0995723 0.0400000 0.9129659
v 4.2843873 0.5427409 -1.0679750
v 4.3875048 0.5777111 -0.6598172
v 4.4539780 0.5591935 -0.2418262
v 4.4565575 0.5155112 0.1818599
v 4.3900106 0.5134773 0.5999021
v 4.2802367 0.5562028 1.0059652
v 4.1603527 0.5783379 1.4058162
v 4.4641447 1.0427300 -1.1751765
v 4.5848710 1.1118094 -0.6668636
v 4.6614655 1.0752301 -0.1467163
v 4.6513214 0.9889411 0.3799621
v 4.5423139 0.9849235 0.8946979
v 4.3720411 1.0693224 1.3882122
v 4.1890020 1.1130475 1.8728241
v 4.5957900 1.5372307 -1.2413311
v 4.7167045 1.6387183 -0.6450577
v 4.8095230 1.5849781 -0.0386090
v 4.8094733 1.4582070 0.5792507
v 4.6786178 1.4523046 1.1834496
v 4.4490501 1.5762987 1.7545613
v 4.1811713 1.6405373 2.3033919
v 4.6546960 2.0235362 -1.2724331
v 4.7905997 2.1549331 -0.6098428
v 4.9303174 2.0853552 0.0670971
v 4.9636599 1.9212237 0.7696675
v 4.8094841 1.9135818 1.4565158
v 4.4961470 2.0741180 2.0854169
v 4.1148627 2.1572882 2.6637951
v 4.6569430 2.4989849 -1.2827946
v 4.8451513 2.6570556 -0.5772582
v 5.0564113 2.5733533 0.1599752
v 5.1168023 2.3759027 0.9408190
v 4.9082410 2.3667095 1.6924313
v 4.4812573 2.5598349 2.3458647
v 3.9827227 2.6598888 2.9189406
v 4.6462796 2.9609744 -1.2912832
v 4.9128119 3.1418267 -0.5581103
v 5.1838248 3.0460609 0.2326015
v 5.2307570 2.8201532 1.0755792
v 4.9316537 2.8096350 1.8605566
v 4.3896651 3.0305942 2.5058788
v 3.8114438 3.1450681 3.0612638
v 4.6546582 3.4069758 -1.3101801
v 4.9843094 3.6061565 -0.5547314
v 5.2650605 3.5006854 0.2777215
v 5.2521713 3.2518832 1.1537568
v 4.8579250 3.2402990 1.9390573
v 4.2448366 3.4836512 2.5636462
v 3.6513104 3.6097265 3.1184830
v 4.6694458 3.8345482 -1.3359851
v 5.0066953 4.0471528 -0.5614964
v 5.2405422 3.9345734 0.2901113
v 5.1547372 3.6690029 1.1650873
v 4.7093491 3.6566381 1.9317979
v 4.0976242 3.9163911 2.5476909
v 3.5449603 4.0509634 3.1295664
v 4.6365703 4.2413510 -1.3496184
v 4.9195278 4.4621445 -0.5679492
v 5.0841487 4.3452289 0.2716312
v 4.9627746 4.0694295 1.1185915
v 4.5398813 4.0565884 1.8661782
v 3.9915434 4.3263463 2.4931783
v 3.4987104 4.4661019 3.1099369
v 4.4992789 4.6251578 -1.3272290
v 4.7011570 4.8487035 -0.5635992
v 4.8255818 4.7303305 0.2328695
v 4.7355760 4.4510932 1.0378816
v 4.3957654 4.4380920 1.7725221
v 3.9296340 4.7112126 2.4137520
v 3.4760366 4.8527102 3.0386641
v 4.2419369 4.9838677 -1.2550521
v 4.3873790 5.2046612 -0.5424703
v 4.5301287 5.0877455 0.1886682
v 4.5232264 4.8119461 0.9464473
v 4.2788337 4.7991050 1.6640739
v 3.8677170 5.0688630 2.2950933
v 3.4181163 5.2086185 2.8801670
v 3.9034395 5.3155173 -1.1371956
v 4.0465298 5.5281219 -0.5037978
v 4.2507462 5.4155425 0.1520616
v 4.3281555 5.1499721 0.8565585
v 4.1415328 5.1376072 1.5352909
v 3.7409901 5.3973603 2.1153165
v 3.2793124 5.5319325 2.6207771
v 3.5493938 5.6182914 -0.9893639
v 3.7303705 5.8174721 -0.4475276
v 3.9902111 5.7120010 0.1319060
v 4.1033095 5.4631987 0.7699687
v 3.9194426 5.4516146 1.3773392
v 3.5065720 5.6949668 1.8720560
v 3.0541220 5.8210421 2.2873381
v 3.2251372 5.8905327 -0.8237936
v 3.4393321 6.0713850 -0.3695225
v 3.7030791 5.9756192 0.1334520
v 3.7889812 5.7497115 0.6858576
v 3.5774143 5.7391933 1.1939673
v 3.1707898 5.9601525 1.5914691
v 2.7754575 6.0746264 1.9325210
v 2.9258011 6.1307511 -0.6404097
v 3.1282470 6.2888218 -0.2638337
v 3.3347413 6.2051194 0.1575338
v 3.3589125 6.0076688 0.6061900
v 3.1334369 5.9984756 1.0033643
v 2.7799426 6.1916010 1.3129578
v 2.4845411 6.2916549 1.6015908
v 2.6050736 6.3376317 -0.4345386
v 2.7458855 6.4690286 -0.1323207
v 2.8651832 6.3994507 0.1979546
v 2.8389199 6.2353191 0.5345420
v 2.6418763 6.2276772 0.8266254
v 2.3822465 6.3882134 1.0649167
v 2.1965286 6.4713837 1.3092295
v 2.2142117 6.5100423 -0.2143768
v 2.2756928 6.6115299 0.0080152
v 2.3227517 6.5577897 0.2414122
v 2.2847185 6.4310186 0.4717087
v 2.1513878 6.4251162 0.6740959
v 1.9929345 6.5491103 0.8512608
v 1.8910834 6.6133489 1.0422594
v 1.7403711 6.6470390 -0.0094103
v 1.7460911 6.7161185 0.1292020
v 1.7593757 6.6795392 0.2715349
v 1.7398230 6.5932501 0.4117661
v 1.6735144 6.5892325 0.5391422
v 1.5914296 6.6736314 0.6558957
v 1.5356764 6.7173566 0.7804526
v 1.2145407 6.7478722 0.1408237
v 1.2047132 6.7828424 0.2043914
v 1.2109829 6.7643248 0.2716721
v 1.2101509 6.7206425 0.3392396
v 1.1874012 6.7186086 0.4013354
v 1.1507927 6.7613341 0.4577299
v 1.1198050 6.7834692 0.5151847
v 0.6781864 6.8119897 0.2228502
v 0.6775080 6.8119897 0.2249041
v 0.6768234 6.8119897 0.2269559
v 0.6761327 6.8119897 0.2290057
v 0.6754357 6.8119897 0.2310533
v 0.6747325 6.8119897 0.2330988
v 0.6740231 6.8119897 0.2351422
v 4.3660676 0.1003955 -1.4471455
v 4.3664647 0.1000000 -1.4469518
v 4.3670182 0.0994903 -1.4468266
v 4.3665012 0.1000000 -1.4470606
v 4.5164478 0.5729832 -1.4063545
v 4.6518098 0.4400000 -1.3353251
v 4.7826668 0.3219662 -1.2987931
v 4.6631597 0.4400000 -1.3634167
v 4.7149923 0.9680178 -1.3473273
v 4.9042109 0.7800000 -1.2021246
v 5.0950505 0.6154573 -1.1166451
v 4.9311379 0.7800000 -1.2464880
v 4.9498162 1.2870203 -1.2475510
v 5.0975440 1.1200000 -1.0497564
v 5.3357413 0.9048092 -0.8402692
v 5.1393750 1.1200000 -1.0893939
v 5.1446381 1.6225677 -1.1442850
v 5.2139275 1.4600000 -0.8800701
v 5.3173413 1.3162117 -0.6614452
v 5.2586385 1.4600000 -0.8960624
v 5.2903661 1.9333158 -0.9018119
v 5.2336266 1.8000000 -0.6905986
v 5.2244502 1.6828706 -0.4983837
v 5.2769294 1.8000000 -0.6835233
v 5.2873174 2.2984837 -0.6574595
v 5.1473814 2.1400000 -0.4911257
v 5.0168649 1.9359011 -0.2443800
v 5.1908255 2.1400000 -0.4626819
v 5.1722925 2.7072692 -0.4349334
v 4.9650663 2.4800000 -0.2884604
v 4.8137930 2.2796813 -0.1232629
v 4.9984233 2.4800000 -0.2500916
v 4.8211589 2.9593359 -0.1431715
v 4.6987013 2.8200000 -0.0895685
v 4.6066465 2.6970946 -0.0154721
v 4.7156640 2.8200000 -0.0610742
v 4.4167871 3.2212808 0.0745685
v 4.3647843 3.1600000 0.0889132
v 4.3051118 3.0811228 0.1238385
v 4.3711352 3.1600000 0.1033081
v 3.9932770 3.5006009 0.2396741
v 3.9927811 3.5000000 0.2398011
v 3.9923851 3.4994722 0.2400158
v 3.9928232 3.5000000 0.2399110
v 4.3660420 0.1006978 1.4463714
v 4.3664184 0.1000000 1.4470510
v 4.3668827 0.0993673 1.4475818
v 4.3665475 0.1000000 1.4469613
v 4.4669444 0.5654975 1.5764850
v 4.5278287 0.4400000 1.7074791
v 4.6054652 0.3326004 1.8040401
v 4.5553451 0.4400000 1.6907289
v 4.6168995 0.9038565 1.8100645
v 4.6574958 0.7800000 1.9621421
v 4.7513142 0.6202253 2.1415128
v 4.6936960 0.7800000 1.9474616
v 4.7127135 1.3016860 1.9339740
v 4.7200830 1.1200000 2.2016946
v 4.7727218 0.9558607 2.4380859
v 4.7683971 1.1200000 2.1959434
v 4.8182928 1.6398227 2.1269061
v 4.7019526 1.4600000 2.4060948
v 4.6548142 1.3055487 2.6620192
v 4.7587464 1.4600000 2.4234455
v 4.8057581 1.9536210 2.4129992
v 4.6055397 1.8000000 2.5666594
v 4.3930789 1.6018347 2.8122318
v 4.6455521 1.8000000 2.6080194
v 4.6631916 2.3216525 2.6193652
v 4.4229729 2.1400000 2.6827441
v 4.2218407 1.9764844 2.7810254
v 4.4388685 2.1400000 2.7261409
v 4.3243125 2.6313511 2.7463844
v 4.1551954 2.4800000 2.7399384
v 4.0121049 2.3495228 2.7700435
v 4.1580981 2.4800000 2.7782419
v 3.9370482 2.9429836 2.7627357
v 3.8222994 2.8200000 2.7341900
v 3.6703849 2.6613717 2.7351602
v 3.8188862 2.8200000 2.7671962
v 3.5382842 3.2685466 2.7066597
v 3.4485352 3.1600000 2.6750613
v 3.3634656 3.0626422 2.6667406
v 3.4437151 3.1600000 2.6961698
v 3.0598540 3.5005956 2.5770072
v 3.0593867 3.5000000 2.5768068
v 3.0589488 3.4994846 2.5767527
v 3.0593508 3.5000000 2.5769347
vt 0.0000000 0.0000000
vt 0.1666667 0.0000000
vt 0.3333333 0.0000000
vt 0.5000000 0.0000000
vt 0.6666667 0.0000000
vt 0.8333333 0.0000000
vt 1.0000000 0.0000000
vt 0.0000000 0.0825000
vt 0.1666667 0.0825000
vt 0.3333333 0.0825000
vt 0.5000000 0.0825000
vt 0.6666667 0.0825000
vt 0.8333333 0.0825000
vt 1.0000000 0.0825000
vt 0.0000000 0.1650000
vt 0.1666667 0.1650000
vt 0.3333333 0.1650000
vt 0.5000000 0.1650000
vt 0.6666667 0.1650000
vt 0.8333333 0.1650000
vt 1.0000000 0.1650000
vt 0.0000000 0.2475000
vt 0.1666667 0.2475000
vt 0.3333333 0.2475000
vt 0.5000000 0.2475000
vt 0.6666667 0.2475000
vt 0.8333333 0.2475000
vt 1.0000000 0.2475000
vt 0.0000000 0.3300000
vt 0.1666667 0.3300000
vt 0.3333333 0.3300000
vt 0.5000000 0.3300000
vt 0.6666667 0.3300000
vt 0.8333333 0.3300000
vt 1.0000000 0.3300000
vt 0.0000000 0.4125000
vt 0.1666667 0.4125000
vt 0.3333333 0.4125000
vt 0.5000000 0.4125000
vt 0.6666667 0.4125000
vt 0.8333333 0.4125000
vt 1.0000000 0.4125000
vt 0.0000000 0.4950000
vt 0.1666667 0.4950000
vt 0.3333333 0.4950000
vt 0.5000000 0.4950000
vt 0.6666667 0.4950000
vt 0.8333333 0.4950000
vt 1.0000000 0.4950000
vt 0.0000000 0.5775000
vt 0.1666667 0.5775000
vt 0.3333333 0.5775000
vt 0.5000000 0.5775000
vt 0.6666667 0.5775000
vt 0.8333333 0.5775000
vt 1.0000000 0.5775000
vt 0.0000000 0.6600000
vt 0.1666667 0.6600000
vt 0.3333333 0.6600000
vt 0.5000000 0.6600000
vt 0.6666667 0.6600000
vt 0.8333333 0.6600000
vt 1.0000000 0.6600000
vt 0.0000000 0.7425000
vt 0.1666667 0.7425000
vt 0.3333333 0.7425000
vt 0.5000000 0.7425000
vt 0.6666667 0.7425000
vt 0.8333333 0.7425000
vt 1.0000000 0.7425000
vt 0.0000000 0.8250000
vt 0.1666667 0.8250000
vt 0.3333333 0.8250000
vt 0.5000000 0.8250000
vt 0.6666667 0.8250000
vt 0.8333333 0.8250000
vt 1.0000000 0.8250000
vt 0.0000000 0.9075000
vt 0.1666667 0.9075000
vt 0.3333333 0.9075000
vt 0.5000000 0.9075000
vt 0.6666667 0.9075000
vt 0.8333333 0.9075000
vt 1.0000000 0.9075000
vt 0.0000000 0.9900000
vt 0.1666667 0.9900000
vt 0.3333333 0.9900000
vt 0.5000000 0.9900000
vt 0.6666667 0.9900000
vt 0.8333333 0.9900000
vt 1.0000000 0.9900000
vt 0.0000000 1.0725000
vt 0.1666667 1.0725000
vt 0.3333333 1.0725000
vt 0.5000000 1.0725000
vt 0.6666667 1.0725000
vt 0.8333333 1.0725000
vt 1.0000000 1.0725000
vt 0.0000000 1.1550000
vt 0.1666667 1.1550000
vt 0.3333333 1.1550000
vt 0.5000000 1.1550000
vt 0.6666667 1.1550000
vt 0.8333333 1.1550000
vt 1.0000000 1.1550000
vt 0.0000000 1.2375000
vt 0.1666667 1.2375000
vt 0.3333333 1.2375000
vt 0.5000000 1.2375000
vt 0.6666667 1.2375000
vt 0.8333333 1.2375000
vt 1.0000000 1.2375000
vt 0.0000000 1.3200000
vt 0.1666667 1.3200000
vt 0.3333333 1.3200000
vt 0.5000000 1.3200000
vt 0.6666667 1.3200000
vt 0.8333333 1.3200000
vt 1.0000000 1.3200000
vt 0.0000000 1.4025000
vt 0.1666667 1.4025000
vt 0.3333333 1.4025000
vt 0.5000000 1.4025000
vt 0.6666667 1.4025000
vt 0.8333333 1.4025000
vt 1.0000000 1.4025000
vt 0.0000000 1.4850000
vt 0.1666667 1.4850000
vt 0.3333333 1.4850000
vt 0.5000000 1.4850000
vt 0.6666667 1.4850000
vt 0.8333333 1.4850000
vt 1.0000000 1.4850000
vt 0.0000000 1.5675000
vt 0.1666667 1.5675000
vt 0.3333333 1.5675000
vt 0.5000000 1.5675000
vt 0.6666667 1.5675000
vt 0.8333333 1.5675000
vt 1.0000000 1.5675000
vt 0.0000000 1.6500000
vt 0.1666667 1.6500000
vt 0.3333333 1.6500000
vt 0.5000000 1.6500000
vt 0.6666667 1.6500000
vt 0.8333333 1.6500000
vt 1.0000000 1.6500000
vt 1.0000000 0.0000000
vt 0.5000000 0.0000000
vt 0.0000000 0.0000000
vt 0.5000000 0.0000000
vt 1.0000000 0.1800000
vt 0.5000000 0.1800000
vt 0.0000000 0.1800000
vt 0.5000000 0.1800000
vt 1.0000000 0.3600000
vt 0.5000000 0.3600000
vt 0.0000000 0.3600000
vt 0.5000000 0.3600000
vt 1.0000000 0.5400000
vt 0.5000000 0.5400000
vt 0.0000000 0.5400000
vt 0.5000000 0.5400000
vt 1.0000000 0.7200000
vt 0.5000000 0.7200000
vt 0.0000000 0.7200000
vt 0.5000000 0.7200000
vt 1.0000000 0.9000000
vt 0.5000000 0.9000000
vt 0.0000000 0.9000000
vt 0.5000000 0.9000000
vt 1.0000000 1.0800000
vt 0.5000000 1.0800000
vt 0.0000000 1.0800000
vt 0.5000000 1.0800000
vt 1.0000000 1.2600000
vt 0.5000000 1.2600000
vt 0.0000000 1.2600000
vt 0.5000000 1.2600000
vt 1.0000000 1.4400000
vt 0.5000000 1.4400000
vt 0.0000000 1.4400000
vt 0.5000000 1.4400000
vt 1.0000000 1.6200000
vt 0.5000000 1.6200000
vt 0.0000000 1.6200000
vt 0.5000000 1.6200000
vt 1.0000000 1.8000000
vt 0.5000000 1.8000000
vt 0.0000000 1.8000000
vt 0.5000000 1.8000000
vt 1.0000000 0.0000000
vt 0.5000000 0.0000000
vt 0.0000000 0.0000000
vt 0.5000000 0.0000000
vt 1.0000000 0.1800000
vt 0.5000000 0.1800000
vt 0.0000000 0.1800000
vt 0.5000000 0.1800000
vt 1.0000000 0.3600000
vt 0.5000000 0.3600000
vt 0.0000000 0.3600000
vt 0.5000000 0.3600000
vt 1.0000000 0.5400000
vt 0.5000000 0.5400000
vt 0.0000000 0.5400000
vt 0.5000000 0.5400000
vt 1.0000000 0.7200000
vt 0.5000000 0.7200000
vt 0.0000000 0.7200000
vt 0.5000000 0.7200000
vt 1.0000000 0.9000000
vt 0.5000000 0.9000000
vt 0.0000000 0.9000000
vt 0.5000000 0.9000000
vt 1.0000000 1.0800000
vt 0.5000000 1.0800000
vt 0.0000000 1.0800000
vt 0.5000000 1.0800000
vt 1.0000000 1.2600000
vt 0.5000000 1.2600000
vt 0.0000000 1.2600000
vt 0.5000000 1.2600000
vt 1.0000000 1.4400000
vt 0.5000000 1.4400000
vt 0.0000000 1.4400000
vt 0.5000000 1.4400000
vt 1.0000000 1.6200000
vt 0.5000000 1.6200000
vt 0.0000000 1.6200000
vt 0.5000000 1.6200000
vt 1.0000000 1.8000000
vt 0.5000000 1.8000000
vt 0.0000000 1.8000000
vt 0.5000000 1.8000000
vn 0.9074643 -0.3852642 -0.1675712
vn 0.9036706 -0.3983369 -0.1571851
vn 0.8967455 -0.4299537 -0.1048200
vn 0.8855660 -0.4639803 -0.0222521
vn 0.8822089 -0.4612916 0.0944327
vn 0.8925963 -0.4073897 0.1931464
vn 0.9027835 -0.3587130 0.2372909
vn 0.9029761 -0.3865983 -0.1875525
vn 0.9093382 -0.3810196 -0.1671169
vn 0.9118731 -0.3960420 -0.1078807
vn 0.9058823 -0.4228566 0.0238665
vn 0.8812235 -0.4329180 0.1898082
vn 0.8724678 -0.3979722 0.2835807
vn 0.8772019 -0.3637431 0.3133813
vn 0.9264275 -0.3280225 -0.1847521
vn 0.9413775 -0.2938934 -0.1656354
vn 0.9477599 -0.3017857 -0.1033273
vn 0.9327222 -0.3562138 0.0560446
vn 0.8725708 -0.4151330 0.2574583
vn 0.8413475 -0.4036474 0.3594484
vn 0.8458590 -0.3646328 0.3893142
vn 0.9620452 -0.2120237 -0.1717993
vn 0.9691922 -0.1821813 -0.1657601
vn 0.9673584 -0.2248891 -0.1168020
vn 0.9451074 -0.3229784 0.0495686
vn 0.8619854 -0.4145719 0.2917384
vn 0.8095797 -0.3993771 0.4302077
vn 0.8083086 -0.3351995 0.4840233
vn 0.9789760 -0.0888673 -0.1835993
vn 0.9736691 -0.1069473 -0.2013225
vn 0.9655788 -0.2006005 -0.1655806
vn 0.9474064 -0.3186480 0.0297427
vn 0.8540543 -0.3959852 0.3373233
vn 0.7822039 -0.3397139 0.5222561
vn 0.7683677 -0.2344260 0.5955297
vn 0.9718608 -0.0287083 -0.2338000
vn 0.9579797 -0.1016346 -0.2682262
vn 0.9534634 -0.2088248 -0.2174848
vn 0.9554708 -0.2920300 0.0423559
vn 0.8578914 -0.3007270 0.4166360
vn 0.7609996 -0.1871577 0.6211695
vn 0.7269635 -0.0622852 0.6838455
vn 0.9514116 -0.0468864 -0.3043315
vn 0.9354526 -0.1272677 -0.3297445
vn 0.9565052 -0.1831122 -0.2270852
vn 0.9774668 -0.1754234 0.1174107
vn 0.8562806 -0.0904213 0.5085347
vn 0.7354579 0.0308615 0.6768672
vn 0.6969171 0.1068044 0.7091539
vn 0.9286284 -0.0771102 -0.3629096
vn 0.9298887 -0.0971088 -0.3547915
vn 0.9847129 -0.0500021 -0.1668540
vn 0.9681054 0.0649661 0.2419739
vn 0.8160169 0.1714799 0.5520064
vn 0.7172266 0.2077379 0.6651548
vn 0.7056520 0.1903782 0.6825038
vn 0.9182505 -0.0171128 -0.3956302
vn 0.9404322 0.0649925 -0.3337112
vn 0.9767702 0.2108419 -0.0382847
vn 0.8808232 0.3291137 0.3403450
vn 0.7710684 0.3505095 0.5315982
vn 0.7355588 0.2754641 0.6189288
vn 0.7518563 0.1838386 0.6331788
vn 0.8959812 0.1916580 -0.4006058
vn 0.9008664 0.3410100 -0.2686110
vn 0.8799818 0.4671986 0.0857763
vn 0.7946250 0.4851669 0.3649441
vn 0.7743871 0.4096723 0.4821756
vn 0.7833422 0.2625947 0.5633995
vn 0.7972567 0.1702059 0.5791474
vn 0.8016439 0.4659654 -0.3744907
vn 0.7925782 0.5747650 -0.2036295
vn 0.7865073 0.6032151 0.1324301
vn 0.7782014 0.5339807 0.3305558
vn 0.8163853 0.3988785 0.4176253
vn 0.8205781 0.2720247 0.5026472
vn 0.8028829 0.2713816 0.5307834
vn 0.6720148 0.6523558 -0.3504683
vn 0.6979602 0.6903434 -0.1904667
vn 0.7564795 0.6461316 0.1012554
vn 0.8072327 0.5312891 0.2571133
vn 0.8413421 0.4180601 0.3425919
vn 0.8048302 0.4080134 0.4310144
vn 0.7268256 0.5063163 0.4640779
vn 0.5737849 0.7334575 -0.3644325
vn 0.6449590 0.7274112 -0.2343092
vn 0.7565186 0.6534480 0.0261795
vn 0.8041118 0.5629062 0.1911565
vn 0.7914311 0.5486700 0.2694402
vn 0.7034769 0.6279118 0.3329370
vn 0.5886875 0.7202658 0.3669661
vn 0.5033049 0.7572042 -0.4163244
vn 0.5999544 0.7407494 -0.3022333
vn 0.7175182 0.6964155 -0.0131539
vn 0.7063510 0.6816299 0.1909161
vn 0.6579128 0.7245420 0.2054011
vn 0.5713796 0.7881748 0.2287047
vn 0.4838050 0.8303580 0.2764749
vn 0.4244420 0.7708703 -0.4749821
vn 0.5215405 0.7870210 -0.3295352
vn 0.6029126 0.7962500 0.0498240
vn 0.5413852 0.8047243 0.2435587
vn 0.5198974 0.8398685 0.1559730
vn 0.4838864 0.8636306 0.1414076
vn 0.4419417 0.8747337 0.1988177
vn 0.3168294 0.8090852 -0.4949749
vn 0.4069503 0.8697322 -0.2792085
vn 0.4542340 0.8743856 0.1706499
vn 0.4003727 0.8657956 0.3001662
vn 0.4322326 0.8944785 0.1143813
vn 0.4476825 0.8922492 0.0589221
vn 0.4419361 0.8899162 0.1128786
vn 0.2037490 0.8588754 -0.4699142
vn 0.2947242 0.9361485 -0.1917384
vn 0.3349727 0.8999867 0.2789573
vn 0.3120481 0.8864815 0.3417258
vn 0.3892740 0.9190875 0.0611880
vn 0.4361049 0.8990380 -0.0392846
vn 0.4411145 0.8974391 0.0045914
vn 0.1176458 0.8896373 -0.4412538
vn 0.2115094 0.9702588 -0.1177359
vn 0.2516668 0.8987007 0.3591670
vn 0.2573085 0.8966055 0.3604038
vn 0.3653516 0.9305853 -0.0230044
vn 0.4113387 0.8984937 -0.1533280
vn 0.3972013 0.9115929 -0.1059689
vn 0.0653275 0.8956197 -0.4399973
vn 0.1531948 0.9860606 -0.0649293
vn 0.1820161 0.8914780 0.4148941
vn 0.2103583 0.9142905 0.3461536
vn 0.3338698 0.9327966 -0.1357259
vn 0.3549276 0.9007143 -0.2504801
vn 0.3179804 0.9298076 -0.1853277
vn 0.0404187 0.8861450 -0.4616421
vn 0.1054270 0.9943956 0.0079023
vn 0.1062464 0.8836048 0.4560200
vn 0.1589057 0.9456237 0.2838041
vn 0.2959611 0.9200597 -0.2567045
vn 0.2871515 0.9118992 -0.2932302
vn 0.2458678 0.9428677 -0.2248320
vn 0.0326111 0.8841969 -0.4659747
vn 0.0639298 0.9670430 0.2464566
vn 0.0344556 0.8529140 0.5209131
vn 0.1509833 0.9848478 0.0853167
vn 0.2944274 0.8579456 -0.4210009
vn 0.2090838 0.9500687 -0.2316320
vn 0.0524427 0.9984580 0.0182063
vn -0.4210612 0.0558127 0.9053134
vn -0.3110290 -0.0506361 0.9490505
vn 0.3858393 -0.1116979 -0.9157792
vn 0.2767712 -0.0052110 -0.9609217
vn -0.6880727 0.1560589 0.7086618
vn -0.4085500 -0.0331179 0.9121349
vn 0.6072645 -0.3111551 -0.7310352
vn 0.3644188 -0.0305237 -0.9307348
vn -0.8830159 0.4205892 -0.2082970
vn -0.5571535 -0.0202194 0.8301633
vn 0.8580574 -0.4881717 -0.1594551
vn 0.5166235 -0.0319866 -0.8556150
vn -0.5748685 0.4153741 -0.7049756
vn -0.7416766 -0.0069535 0.6707216
vn 0.6095218 -0.4280843 0.6672534
vn 0.7368813 -0.0256592 -0.6755350
vn -0.1501371 0.3770354 -0.9139492
vn -0.9373801 0.0162461 0.3479291
vn -0.0458011 -0.2708211 0.9615395
vn 0.9400096 0.0112570 -0.3409623
vn 0.2419849 0.3628674 -0.8998725
vn -0.9888021 0.0039462 -0.1491804
vn 0.0874594 -0.3613306 0.9283270
vn 0.9891005 0.0117814 0.1467702
vn 0.2074706 0.3810922 -0.9009576
vn -0.8423084 -0.0057052 -0.5389656
vn -0.1545801 -0.4453124 0.8819308
vn 0.8365128 0.0071746 0.5479005
vn 0.7380736 0.5775593 -0.3488160
vn -0.6784614 0.0136674 -0.7345089
vn -0.9120820 -0.3910807 0.1231351
vn 0.6575223 0.0306892 0.7528098
vn 0.7450063 0.3849299 0.5447885
vn -0.5450250 0.0193135 -0.8381973
vn -0.8730300 -0.3211578 -0.3669828
vn 0.5082497 0.0228276 0.8609072
vn 0.5715450 0.2474789 0.7823621
vn -0.4260599 0.0239070 -0.9043790
vn -0.6445075 -0.2068372 -0.7360900
vn 0.3955369 0.0021138 0.9184476
vn 0.4225835 0.1090563 0.8997388
vn -0.3296099 0.0575993 -0.9423586
vn -0.4316922 -0.0729859 -0.8990634
vn 0.3217720 -0.0221831 0.9465573
vn -0.8821920 0.0606691 0.4669653
vn -0.8105895 -0.0613589 0.5823914
vn 0.8599455 -0.1227981 -0.4953931
vn 0.7909024 -0.0005529 -0.6119421
vn -0.9685358 0.2373052 0.0749977
vn -0.8728620 -0.0242975 0.4873619
vn 0.9278683 -0.3025744 -0.2179660
vn 0.8497743 -0.0191172 -0.5268000
vn -0.7209426 0.3729157 -0.5841025
vn -0.9395697 -0.0129804 0.3421116
vn 0.7179867 -0.4947650 0.4895944
vn 0.9303295 -0.0338338 -0.3651608
vn -0.4320374 0.3254110 -0.8411013
vn -0.9972725 -0.0204945 0.0709048
vn 0.1643941 -0.4490593 0.8782484
vn 0.9927339 -0.0448347 -0.1116658
vn 0.3990606 0.3579028 -0.8441897
vn -0.9467938 -0.0094766 -0.3217012
vn -0.1098003 -0.3810607 0.9180069
vn 0.9562405 -0.0203539 0.2918729
vn 0.7042389 0.3828669 -0.5978800
vn -0.7194029 0.0126236 -0.6944783
vn -0.6563184 -0.3493047 0.6687543
vn 0.6915028 0.0233816 0.7219953
vn 0.8620263 0.4733538 -0.1812368
vn -0.3901011 0.0221424 -0.9205057
vn -0.9441968 -0.3214649 -0.0717817
vn 0.3573978 0.0482645 0.9327043
vn 0.7447291 0.5155314 0.4237993
vn -0.1092643 0.0084354 -0.9939769
vn -0.8739110 -0.4819891 -0.0629773
vn 0.0844385 0.0263823 0.9960794
vn 0.6215518 0.5936271 0.5111558
vn 0.0834883 0.0074981 -0.9964806
vn -0.7151317 -0.5433549 -0.4397182
vn -0.1063465 0.0101800 0.9942770
vn 0.0500299 0.3155646 0.9475843
vn 0.2045441 0.0212251 -0.9786272
vn -0.0747451 -0.1964535 -0.9776601
vn -0.2285100 0.0083667 0.9735056
vn -0.2166917 0.0961194 0.9714967
vn 0.2816840 0.0455307 -0.9584264
vn 0.1810511 -0.0757507 -0.9805521
vn -0.3164318 -0.0250703 0.9482839
s 1
f 1/1/1 8/8/8 2/2/2
f 2/2/2 8/8/8 9/9/9
f 2/2/2 9/9/9 3/3/3
f 3/3/3 9/9/9 10/10/10
f 3/3/3 10/10/10 4/4/4
f 4/4/4 10/10/10 11/11/11
f 4/4/4 11/11/11 5/5/5
f 5/5/5 11/11/11 12/12/12
f 5/5/5 12/12/12 6/6/6
f 6/6/6 12/12/12 13/13/13
f 6/6/6 13/13/13 7/7/7
f 7/7/7 13/13/13 14/14/14
f 8/8/8 15/15/15 9/9/9
f 9/9/9 15/15/15 16/16/16
f 9/9/9 16/16/16 10/10/10
f 10/10/10 16/16/16 17/17/17
f 10/10/10 17/17/17 11/11/11
f 11/11/11 17/17/17 18/18/18
f 11/11/11 18/18/18 12/12/12
f 12/12/12 18/18/18 19/19/19
f 12/12/12 19/19/19 13/13/13
f 13/13/13 19/19/19 20/20/20
f 13/13/13 20/20/20 14/14/14
f 14/14/14 20/20/20 21/21/21
f 15/15/15 22/22/22 16/16/16
f 16/16/16 22/22/22 23/23/23
f 16/16/16 23/23/23 17/17/17
f 17/17/17 23/23/23 24/24/24
f 17/17/17 24/24/24 18/18/18
f 18/18/18 24/24/24 25/25/25
f 18/18/18 25/25/25 19/19/19
f 19/19/19 25/25/25 26/26/26
f 19/19/19 26/26/26 20/20/20
f 20/20/20 26/26/26 27/27/27
f 20/20/20 27/27/27 21/21/21
f 21/21/21 27/27/27 28/28/28
f 22/22/22 29/29/29 23/23/23
f 23/23/23 29/29/29 30/30/30
f 23/23/23 30/30/30 24/24/24
f 24/24/24 30/30/30 31/31/31
f 24/24/24 31/31/31 25/25/25
f 25/25/25 31/31/31 32/32/32
f 25/25/25 32/32/32 26/26/26
f 26/26/26 32/32/32 33/33/33
f 26/26/26 33/33/33 27/27/27
f 27/27/27 33/33/33 34/34/34
f 27/27/27 34/34/34 28/28/28
f 28/28/28 34/34/34 35/35/35
f 29/29/29 36/36/36 30/30/30
f 30/30/30 36/36/36 37/37/37
f 30/30/30 37/37/37 31/31/31
f 31/31/31 37/37/37 38/38/38
f 31/31/31 38/38/38 32/32/32
f 32/32/32 38/38/38 39/39/39
f 32/32/32 39/39/39 33/33/33
f 33/33/33 39/39/39 40/40/40
f 33/33/33 40/40/40 34/34/34
f 34/34/34 40/40/40 41/41/41
f 34/34/34 41/41/41 35/35/35
f 35/35/35 41/41/41 42/42/42
f 36/36/36 43/43/43 37/37/37
f 37/37/37 43/43/43 44/44/44
f 37/37/37 44/44/44 38/38/38
f 38/38/38 44/44/44 45/45/45
f 38/38/38 45/45/45 39/39/39
f 39/39/39 45/45/45 46/46/46
f 39/39/39 46/46/46 40/40/40
f 40/40/40 46/46/46 47/47/47
f 40/40/40 47/47/47 41/41/41
f 41/41/41 47/47/47 48/48/48
f 41/41/41 48/48/48 42/42/42
f 42/42/42 48/48/48 49/49/49
f 43/43/43 50/50/50 44/44/44
f 44/44/44 50/50/50 51/51/51
f 44/44/44 51/51/51 45/45/45
f 45/45/45 51/51/51 52/52/52
f 45/45/45 52/52/52 46/46/46
f 46/46/46 52/52/52 53/53/53
f 46/46/46 53/53/53 47/47/47
f 47/47/47 53/53/53 54/54/54
f 47/47/47 54/54/54 48/48/48
f 48/48/48 54/54/54 55/55/55
f 48/48/48 55/55/55 49/49/49
f 49/49/49 55/55/55 56/56/56
f 50/50/50 57/57/57 51/51/51
f 51/51/51 57/57/57 58/58/58
f 51/51/51 58/58/58 52/52/52
f 52/52/52 58/58/58 59/59/59
f 52/52/52 59/59/59 53/53/53
f 53/53/53 59/59/59 60/60/60
f 53/53/53 60/60/60 54/54/54
f 54/54/54 60/60/60 61/61/61
f 54/54/54 61/61/61 55/55/55
f 55/55/55 61/61/61 62/62/62
f 55/55/55 62/62/62 56/56/56
f 56/56/56 62/62/62 63/63/63
f 57/57/57 64/64/64 58/58/58
f 58/58/58 64/64/64 65/65/65
f 58/58/58 65/65/65 59/59/59
f 59/59/59 65/65/65 66/66/66
f 59/59/59 66/66/66 60/60/60
f 60/60/60 66/66/66 67/67/67
f 60/60/60 67/67/67 61/61/61
f 61/61/61 67/67/67 68/68/68
f 61/61/61 68/68/68 62/62/62
f 62/62/62 68/68/68 69/69/69
f 62/62/62 69/69/69 63/63/63
f 63/63/63 69/69/69 70/70/70
f 64/64/64 71/71/71 65/65/65
f 65/65/65 71/71/71 72/72/72
f 65/65/65 72/72/72 66/66/66
f 66/66/66 72/72/72 73/73/73
f 66/66/66 73/73/73 67/67/67
f 67/67/67 73/73/73 74/74/74
f 67/67/67 74/74/74 68/68/68
f 68/68/68 74/74/74 75/75/75
f 68/68/68 75/75/75 69/69/69
f 69/69/69 75/75/75 76/76/76
f 69/69/69 76/76/76 70/70/70
f 70/70/70 76/76/76 77/77/77
f 71/71/71 78/78/78 72/72/72
f 72/72/72 78/78/78 79/79/79
f 72/72/72 79/79/79 73/73/73
f 73/73/73 79/79/79 80/80/80
f 73/73/73 80/80/80 74/74/74
f 74/74/74 80/80/80 81/81/81
f 74/74/74 81/81/81 75/75/75
f 75/75/75 81/81/81 82/82/82
f 75/75/75 82/82/82 76/76/76
f 76/76/76 82/82/82 83/83/83
f 76/76/76 83/83/83 77/77/77
f 77/77/77 83/83/83 84/84/84
f 78/78/78 85/85/85 79/79/79
f 79/79/79 85/85/85 86/86/86
f 79/79/79 86/86/86 80/80/80
f 80/80/80 86/86/86 87/87/87
f 80/80/80 87/87/87 81/81/81
f 81/81/81 87/87/87 88/88/88
f 81/81/81 88/88/88 82/82/82
f 82/82/82 88/88/88 89/89/89
f 82/82/82 89/89/89 83/83/83
f 83/83/83 89/89/89 90/90/90
f 83/83/83 90/90/90 84/84/84
f 84/84/84 90/90/90 91/91/91
f 85/85/85 92/92/92 86/86/86
f 86/86/86 92/92/92 93/93/93
f 86/86/86 93/93/93 87/87/87
f 87/87/87 93/93/93 94/94/94
f 87/87/87 94/94/94 88/88/88
f 88/88/88 94/94/94 95/95/95
f 88/88/88 95/95/95 89/89/89
f 89/89/89 95/95/95 96/96/96
f 89/89/89 96/96/96 90/90/90
f 90/90/90 96/96/96 97/97/97
f 90/90/90 97/97/97 91/91/91
f 91/91/91 97/97/97 98/98/98
f 92/92/92 99/99/99 93/93/93
f 93/93/93 99/99/99 100/100/100
f 93/93/93 100/100/100 94/94/94
f 94/94/94 100/100/100 101/101/101
f 94/94/94 101/101/101 95/95/95
f 95/95/95 101/101/101 102/102/102
f 95/95/95 102/102/102 96/96/96
f 96/96/96 102/102/102 103/103/103
f 96/96/96 103/103/103 97/97/97
f 97/97/97 103/103/103 104/104/104
f 97/97/97 104/104/104 98/98/98
f 98/98/98 104/104/104 105/105/105
f 99/99/99 106/106/106 100/100/100
f 100/100/100 106/106/106 107/107/107
f 100/100/100 107/107/107 101/101/101
f 101/101/101 107/107/107 108/108/108
f 101/101/101 108/108/108 102/102/102
f 102/102/102 108/108/108 109/109/109
f 102/102/102 109/109/109 103/103/103
f 103/103/103 109/109/109 110/110/110
f 103/103/103 110/110/110 104/104/104
f 104/104/104 110/110/110 111/111/111
f 104/104/104 111/111/111 105/105/105
f 105/105/105 111/111/111 112/112/112
f 106/106/106 113/113/113 107/107/107
f 107/107/107 113/113/113 114/114/114
f 107/107/107 114/114/114 108/108/108
f 108/108/108 114/114/114 115/115/115
f 108/108/108 115/115/115 109/109/109
f 109/109/109 115/115/115 116/116/116
f 109/109/109 116/116/116 110/110/110
f 110/110/110 116/116/116 117/117/117
f 110/110/110 117/117/117 111/111/111
f 111/111/111 117/117/117 118/118/118
f 111/111/111 118/118/118 112/112/112
f 112/112/112 118/118/118 119/119/119
f 113/113/113 120/120/120 114/114/114
f 114/114/114 120/120/120 121/121/121
f 114/114/114 121/121/121 115/115/115
f 115/115/115 121/121/121 122/122/122
f 115/115/115 122/122/122 116/116/116
f 116/116/116 122/122/122 123/123/123
f 116/116/116 123/123/123 117/117/117
f 117/117/117 123/123/123 124/124/124
f 117/117/117 124/124/124 118/118/118
f 118/118/118 124/124/124 125/125/125
f 118/118/118 125/125/125 119/119/119
f 119/119/119 125/125/125 126/126/126
f 120/120/120 127/127/127 121/121/121
f 121/121/121 127/127/127 128/128/128
f 121/121/121 128/128/128 122/122/122
f 122/122/122 128/128/128 129/129/129
f 122/122/122 129/129/129 123/123/123
f 123/123/123 129/129/129 130/130/130
f 123/123/123 130/130/130 124/124/124
f 124/124/124 130/130/130 131/131/131
f 124/124/124 131/131/131 125/125/125
f 125/125/125 131/131/131 132/132/132
f 125/125/125 132/132/132 126/126/126
f 126/126/126 132/132/132 133/133/133
f 127/127/127 134/134/134 128/128/128
f 128/128/128 134/134/134 135/135/135
f 128/128/128 135/135/135 129/129/129
f 129/129/129 135/135/135 136/136/136
f 129/129/129 136/136/136 130/130/130
f 130/130/130 136/136/136 137/137/137
f 130/130/130 137/137/137 131/131/131
f 131/131/131 137/137/137 138/138/138
f 131/131/131 138/138/138 132/132/132
f 132/132/132 138/138/138 139/139/139
f 132/132/132 139/139/139 133/133/133
f 133/133/133 139/139/139 140/140/140
f 134/134/134 141/141/141 135/135/135
f 135/135/135 141/141/141 142/142/142
f 135/135/135 142/142/142 136/136/136
f 136/136/136 142/142/142 143/143/143
f 136/136/136 143/143/143 137/137/137
f 137/137/137 143/143/143 144/144/144
f 137/137/137 144/144/144 138/138/138
f 138/138/138 144/144/144 145/145/145
f 138/138/138 145/145/145 139/139/139
f 139/139/139 145/145/145 146/146/146
f 139/139/139 146/146/146 140/140/140
f 140/140/140 146/146/146 147/147/147
f 148/148/148 149/149/149 153/153/153
f 148/148/148 153/153/153 152/152/152
f 149/149/149 150/150/150 154/154/154
f 149/149/149 154/154/154 153/153/153
f 150/150/150 151/151/151 155/155/155
f 150/150/150 155/155/155 154/154/154
f 151/151/151 148/148/148 152/152/152
f 151/151/151 152/152/152 155/155/155
f 152/152/152 153/153/153 157/157/157
f 152/152/152 157/157/157 156/156/156
f 153/153/153 154/154/154 158/158/158
f 153/153/153 158/158/158 157/157/157
f 154/154/154 155/155/155 159/159/159
f 154/154/154 159/159/159 158/158/158
f 155/155/155 152/152/152 156/156/156
f 155/155/155 156/156/156 159/159/159
f 156/156/156 157/157/157 161/161/161
f 156/156/156 161/161/161 160/160/160
f 157/157/157 158/158/158 162/162/162
f 157/157/157 162/162/162 161/161/161
f 158/158/158 159/159/159 163/163/163
f 158/158/158 163/163/163 162/162/162
f 159/159/159 156/156/156 160/160/160
f 159/159/159 160/160/160 163/163/163
f 160/160/160 161/161/161 165/165/165
f 160/160/160 165/165/165 164/164/164
f 161/161/161 162/162/162 166/166/166
f 161/161/161 166/166/166 165/165/165
f 162/162/162 163/163/163 167/167/167
f 162/162/162 167/167/167 166/166/166
f 163/163/163 160/160/160 164/164/164
f 163/163/163 164/164/164 167/167/167
f 164/164/164 165/165/165 169/169/169
f 164/164/164 169/169/169 168/168/168
f 165/165/165 166/166/166 170/170/170
f 165/165/165 170/170/170 169/169/169
f 166/166/166 167/167/167 171/171/171
f 166/166/166 171/171/171 170/170/170
f 167/167/167 164/164/164 168/168/168
f 167/167/167 168/168/168 171/171/171
f 168/168/168 169/169/169 173/173/173
f 168/168/168 173/173/173 172/172/172
f 169/169/169 170/170/170 174/174/174
f 169/169/169 174/174/174 173/173/173
f 170/170/170 171/171/171 175/175/175
f 170/170/170 175/175/175 174/174/174
f 171/171/171 168/168/168 172/172/172
f 171/171/171 172/172/172 175/175/175
f 172/172/172 173/173/173 177/177/177
f 172/172/172 177/177/177 176/176/176
f 173/173/173 174/174/174 178/178/178
f 173/173/173 178/178/178 177/177/177
f 174/174/174 175/175/175 179/179/179
f 174/174/174 179/179/179 178/178/178
f 175/175/175 172/172/172 176/176/176
f 175/175/175 176/176/176 179/179/179
f 176/176/176 177/177/177 181/181/181
f 176/176/176 181/181/181 180/180/180
f 177/177/177 178/178/178 182/182/182
f 177/177/177 182/182/182 181/181/181
f 178/178/178 179/179/179 183/183/183
f 178/178/178 183/183/183 182/182/182
f 179/179/179 176/176/176 180/180/180
f 179/179/179 180/180/180 183/183/183
f 180/180/180 181/181/181 185/185/185
f 180/180/180 185/185/185 184/184/184
f 181/181/181 182/182/182 186/186/186
f 181/181/181 186/186/186 185/185/185
f 182/182/182 183/183/183 187/187/187
f 182/182/182 187/187/187 186/186/186
f 183/183/183 180/180/180 184/184/184
f 183/183/183 184/184/184 187/187/187
f 184/184/184 185/185/185 189/189/189
f 184/184/184 189/189/189 188/188/188
f 185/185/185 186/186/186 190/190/190
f 185/185/185 190/190/190 189/189/189
f 186/186/186 187/187/187 191/191/191
f 186/186/186 191/191/191 190/190/190
f 187/187/187 184/184/184 188/188/188
f 187/187/187 188/188/188 191/191/191
f 148/148/148 150/150/150 149/149/149
f 188/188/188 189/189/189 190/190/190
f 148/148/148 151/151/151 150/150/150
f 188/188/188 190/190/190 191/191/191
f 192/192/192 193/193/193 197/197/197
f 192/192/192 197/197/197 196/196/196
f 193/193/193 194/194/194 198/198/198
f 193/193/193 198/198/198 197/197/197
f 194/194/194 195/195/195 199/199/199
f 194/194/194 199/199/199 198/198/198
f 195/195/195 192/192/192 196/196/196
f 195/195/195 196/196/196 199/199/199
f 196/196/196 197/197/197 201/201/201
f 196/196/196 201/201/201 200/200/200
f 197/197/197 198/198/198 202/202/202
f 197/197/197 202/202/202 201/201/201
f 198/198/198 199/199/199 203/203/203
f 198/198/198 203/203/203 202/202/202
f 199/199/199 196/196/196 200/200/200
f 199/199/199 200/200/200 203/203/203
f 200/200/200 201/201/201 205/205/205
f 200/200/200 205/205/205 204/204/204
f 201/201/201 202/202/202 206/206/206
f 201/201/201 206/206/206 205/205/205
f 202/202/202 203/203/203 207/207/207
f 202/202/202 207/207/207 206/206/206
f 203/203/203 200/200/200 204/204/204
f 203/203/203 204/204/204 207/207/207
f 204/204/204 205/205/205 209/209/209
f 204/204/204 209/209/209 208/208/208
f 205/205/205 206/206/206 210/210/210
f 205/205/205 210/210/210 209/209/209
f 206/206/206 207/207/207 211/211/211
f 206/206/206 211/211/211 210/210/210
f 207/207/207 204/204/204 208/208/208
f 207/207/207 208/208/208 211/211/211
f 208/208/208 209/209/209 213/213/213
f 208/208/208 213/213/213 212/212/212
f 209/209/209 210/210/210 214/214/214
f 209/209/209 214/214/214 213/213/213
f 210/210/210 211/211/211 215/215/215
f 210/210/210 215/215/215 214/214/214
f 211/211/211 208/208/208 212/212/212
f 211/211/211 212/212/212 215/215/215
f 212/212/212 213/213/213 217/217/217
f 212/212/212 217/217/217 216/216/216
f 213/213/213 214/214/214 218/218/218
f 213/213/213 218/218/218 217/217/217
f 214/214/214 215/215/215 219/219/219
f 214/214/214 219/219/219 218/218/218
f 215/215/215 212/212/212 216/216/216
f 215/215/215 216/216/216 219/219/219
f 216/216/216 217/217/217 221/221/221
f 216/216/216 221/221/221 220/220/220
f 217/217/217 218/218/218 222/222/222
f 217/217/217 222/222/222 221/221/221
f 218/218/218 219/219/219 223/223/223
f 218/218/218 223/223/223 222/222/222
f 219/219/219 216/216/216 220/220/220
f 219/219/219 220/220/220 223/223/223
f 220/220/220 221/221/221 225/225/225
f 220/220/220 225/225/225 224/224/224
f 221/221/221 222/222/222 226/226/226
f 221/221/221 226/226/226 225/225/225
f 222/222/222 223/223/223 227/227/227
f 222/222/222 227/227/227 226/226/226
f 223/223/223 220/220/220 224/224/224
f 223/223/223 224/224/224 227/227/227
f 224/224/224 225/225/225 229/229/229
f 224/224/224 229/229/229 228/228/228
f 225/225/225 226/226/226 230/230/230
f 225/225/225 230/230/230 229/229/229
f 226/226/226 227/227/227 231/231/231
f 226/226/226 231/231/231 230/230/230
f 227/227/227 224/224/224 228/228/228
f 227/227/227 228/228/228 231/231/231
f 228/228/228 229/229/229 233/233/233
f 228/228/228 233/233/233 232/232/232
f 229/229/229 230/230/230 234/234/234
f 229/229/229 234/234/234 233/233/233
f 230/230/230 231/231/231 235/235/235
f 230/230/230 235/235/235 234/234/234
f 231/231/231 228/228/228 232/232/232
f 231/231/231 232/232/232 235/235/235
f 192/192/192 194/194/194 193/193/193
f 232/232/232 233/233/233 234/234/234
f 192/192/192 195/195/195 194/194/194
f 232/232/232 234/234/234 235/235/235
