# Reference-led flame ribbon, Y up, longitudinal flow UVs
o inferno_dome_08_v20
v 4.0053814 0.0400000 -1.2636930
v 4.0858307 0.0400000 -0.9726189
v 4.1451569 0.0400000 -0.6765164
v 4.1830532 0.0400000 -0.3769165
v 4.1993237 0.0400000 -0.0753680
v 4.1938844 0.0400000 0.2265701
v 4.1667632 0.0400000 0.5273369
v 4.1618602 0.4893140 -1.4432815
v 4.3067028 0.5337019 -1.0550451
v 4.4192905 0.5411059 -0.6529193
v 4.4657916 0.5002014 -0.2374363
v 4.4363673 0.4735529 0.1795326
v 4.3579593 0.5019199 0.5875333
v 4.2699607 0.5419144 0.9888647
v 4.3394156 0.9365557 -1.5560288
v 4.5201341 1.0242386 -1.0729785
v 4.6522846 1.0388642 -0.5696073
v 4.6851957 0.9580623 -0.0496436
v 4.6079769 0.9054215 0.4653132
v 4.4687360 0.9614571 0.9612312
v 4.3287724 1.0404613 1.4494526
v 4.5005520 1.3796546 -1.6045963
v 4.6825606 1.5084733 -1.0302146
v 4.8179037 1.5299604 -0.4378864
v 4.8450392 1.4112509 0.1710239
v 4.7407609 1.3339138 0.7709315
v 4.5534769 1.4162382 1.3445906
v 4.3504940 1.5323068 1.9066644
v 4.6029375 1.8165438 -1.5877840
v 4.7750950 1.9833265 -0.9386581
v 4.9294653 2.0111461 -0.2764811
v 4.9776201 1.8574518 0.4092895
v 4.8601880 1.7573229 1.0874015
v 4.6119595 1.8639090 1.7263869
v 4.3124233 2.0141840 2.3349423
v 4.6340927 2.2451632 -1.5172318
v 4.8196949 2.4458031 -0.8199297
v 5.0249255 2.4792701 -0.1035682
v 5.1070872 2.2943756 0.6536227
v 4.9585205 2.1739204 1.4000618
v 4.6128469 2.3021436 2.0770929
v 4.1886113 2.4829247 2.6906213
v 4.6226156 2.6634618 -1.4182726
v 4.8588494 2.8930185 -0.6954517
v 5.1271926 2.9313088 0.0685215
v 5.2183601 2.7197669 0.8898183
v 4.9948865 2.5819513 1.6797980
v 4.5233571 2.7286544 2.3546229
v 3.9838713 2.9354902 2.9382662
v 4.6135142 3.0694022 -1.3166048
v 4.9139617 3.3222232 -0.5774098
v 5.2146220 3.3643941 0.2298813
v 5.2612447 3.1314135 1.0943530
v 4.9287315 2.9796310 1.8896014
v 4.3445491 3.1412017 2.5287921
v 3.7426176 3.3689992 3.0772795
v 4.6261377 3.4609653 -1.2241145
v 4.9582266 3.7308253 -0.4687679
v 5.2294678 3.7758383 0.3674668
v 5.1880891 3.5271558 1.2397909
v 4.7572991 3.3651439 2.0056704
v 4.1201413 3.5376037 2.6026916
v 3.5248497 3.7807538 3.1406318
v 4.6302931 3.8361563 -1.1357000
v 4.9294364 4.1164105 -0.3694175
v 5.1195977 4.1631573 0.4667867
v 4.9935982 3.9048963 1.3105157
v 4.5245325 3.7366442 2.0334495
v 3.9109612 3.9157467 2.6078810
v 3.3695613 4.1682621 3.1632666
v 4.5628260 4.1930124 -1.0378695
v 4.7746820 4.4767600 -0.2805864
v 4.8797810 4.5240895 0.5204892
v 4.7232295 4.2626093 1.3133944
v 4.2931811 4.0922598 2.0011362
v 3.7550124 4.2735949 2.5752121
v 3.2725488 4.5292579 3.1485861
v 4.3733241 4.5296107 -0.9209202
v 4.4912896 4.8098649 -0.2042006
v 4.5583762 4.8566117 0.5342762
v 4.4423095 4.5983507 1.2715640
v 4.1012036 4.4300985 1.9352524
v 3.6424101 4.6092010 2.5080071
v 3.1917664 4.8617165 3.0648428
v 4.0625256 4.8440784 -0.7857432
v 4.1304725 5.1139384 -0.1400240
v 4.2231376 5.1589514 0.5232776
v 4.1893495 4.9102689 1.2066851
v 3.9350770 4.7482570 1.8410880
v 3.5223033 4.9207168 2.3828289
v 3.0746849 5.1638669 2.8755496
v 3.6822884 5.1346036 -0.6415069
v 3.7602871 5.3874245 -0.0841865
v 3.9127423 5.4295954 0.5024465
v 3.9494406 5.1966148 1.1263306
v 3.7398358 5.0448324 1.7057205
v 3.3367341 5.2064031 2.1766425
v 2.8899234 5.4342005 2.5764131
v 3.2972078 5.3994476 -0.4971080
v 3.4173449 5.6290042 -0.0300311
v 3.6119584 5.6672946 0.4798026
v 3.6681214 5.4557526 1.0267065
v 3.4586753 5.3179370 1.5187659
v 3.0581169 5.4646401 1.8944389
v 2.6430791 5.6714759 2.2058492
v 2.9387650 5.6369579 -0.3540565
v 3.0852304 5.8375978 0.0290781
v 3.2691889 5.8710648 0.4565314
v 3.2946301 5.6861703 0.9049884
v 3.0727117 5.5657151 1.2897110
v 2.7037833 5.6939383 1.5723158
v 2.3657198 5.8747194 1.8211133
v 2.5879095 5.8455825 -0.2080933
v 2.7151285 6.0123651 0.0953202
v 2.8409720 6.0401847 0.4305986
v 2.8203572 5.8864905 0.7676741
v 2.6109384 5.7863616 1.0461194
v 2.3170927 5.8929477 1.2550594
v 2.0852462 6.0432227 1.4628306
v 2.1980435 6.0238842 -0.0595719
v 2.2698379 6.1527030 0.1623547
v 2.3268887 6.1741901 0.3992021
v 2.2826635 6.0554806 0.6278336
v 2.1238887 5.9781435 0.8162332
v 1.9307813 6.0604679 0.9696464
v 1.7999432 6.1765365 1.1383027
v 1.7378639 6.1705562 0.0768502
v 1.7545729 6.2582391 0.2155544
v 1.7677083 6.2728647 0.3588631
v 1.7332937 6.1920628 0.4952960
v 1.6442922 6.1394220 0.6121387
v 1.5435024 6.1954576 0.7161807
v 1.4813927 6.2744618 0.8334618
v 1.2185459 6.2844370 0.1743079
v 1.2107510 6.3288250 0.2377508
v 1.2113616 6.3362289 0.3037903
v 1.2001779 6.2953244 0.3680180
v 1.1685069 6.2686759 0.4256793
v 1.1294163 6.2970429 0.4790659
v 1.1029881 6.3370374 0.5368716
v 0.6779332 6.3645259 0.2236191
v 0.6772631 6.3645259 0.2256406
v 0.6765869 6.3645259 0.2276602
v 0.6759047 6.3645259 0.2296777
v 0.6752164 6.3645259 0.2316931
v 0.6745222 6.3645259 0.2337065
v 0.6738220 6.3645259 0.2357179
v 4.3660602 0.1004387 -1.4471480
v 4.3664630 0.1000000 -1.4469469
v 4.3670095 0.0994535 -1.4468295
v 4.3665028 0.1000000 -1.4470655
v 4.5253918 0.5476811 -1.4027409
v 4.6516414 0.4119178 -1.3349083
v 4.7916646 0.2740096 -1.2951577
v 4.6633281 0.4119178 -1.3638335
v 4.7194789 0.9242441 -1.3446041
v 4.9051231 0.7238357 -1.2036276
v 5.0742798 0.5654817 -1.1292522
v 4.9302257 0.7238357 -1.2449850
v 4.9721625 1.1936870 -1.2239681
v 5.0992295 1.0357535 -1.0513535
v 5.3011101 0.8385748 -0.8768169
v 5.1376895 1.0357535 -1.0877968
v 5.1476556 1.5190404 -1.1358486
v 5.2128940 1.3476713 -0.8797004
v 5.3259583 1.1742761 -0.6373542
v 5.2596721 1.3476713 -0.8964321
v 5.2984846 1.8385309 -0.9515006
v 5.2301274 1.6595892 -0.6911703
v 5.2210791 1.5179529 -0.4777513
v 5.2804287 1.6595892 -0.6829516
v 5.2834211 2.1385652 -0.6515084
v 5.1467381 1.9715070 -0.4915469
v 5.0260702 1.7624852 -0.2584400
v 5.1914688 1.9715070 -0.4622607
v 5.1358365 2.4837590 -0.4032395
v 4.9669296 2.2834248 -0.2863172
v 4.8264417 2.0815159 -0.1342594
v 4.9965599 2.2834248 -0.2522349
v 4.8124457 2.7356123 -0.1379845
v 4.6996326 2.5953427 -0.0880041
v 4.6237146 2.4841163 -0.0256327
v 4.7147327 2.5953427 -0.0626386
v 4.4180841 2.9758328 0.0739963
v 4.3644171 2.9072605 0.0880808
v 4.3051134 2.8212841 0.1238378
v 4.3715024 2.9072605 0.1041404
v 3.9933171 3.2198886 0.2396587
v 3.9927768 3.2191784 0.2397899
v 3.9922852 3.2184654 0.2400541
v 3.9928275 3.2191784 0.2399222
v 4.3660865 0.1006839 1.4464354
v 4.3664186 0.1000000 1.4470508
v 4.3668951 0.0992890 1.4475996
v 4.3665472 0.1000000 1.4469615
v 4.4768740 0.5305162 1.5927968
v 4.5301286 0.4119178 1.7060791
v 4.5922754 0.3190218 1.7823725
v 4.5530452 0.4119178 1.6921289
v 4.6251228 0.8399287 1.8303420
v 4.6591618 0.7238357 1.9614665
v 4.7377169 0.5809514 2.1079837
v 4.6920300 0.7238357 1.9481372
v 4.7119557 1.2385572 1.9276080
v 4.7171834 1.0357535 2.2020398
v 4.7776747 0.8257237 2.4796935
v 4.7712967 1.0357535 2.1955983
v 4.8341341 1.5789913 2.0750531
v 4.6986571 1.3476713 2.4050881
v 4.6489523 1.1662495 2.6812068
v 4.7620419 1.3476713 2.4244523
v 4.7922098 1.8144518 2.4261060
v 4.6061721 1.6595892 2.5673131
v 4.4198918 1.4684972 2.7862926
v 4.6449197 1.6595892 2.6073657
v 4.6150269 2.1284543 2.6370072
v 4.4240170 1.9715070 2.6855945
v 4.2409962 1.8095997 2.7740090
v 4.4378244 1.9715070 2.7232905
v 4.3246335 2.4487180 2.7463601
v 4.1552499 2.2834248 2.7406572
v 4.0247172 2.1536108 2.7690877
v 4.1580436 2.2834248 2.7775230
v 3.9379173 2.7303991 2.7628255
v 3.8224363 2.5953427 2.7328660
v 3.6754576 2.4282723 2.7356848
v 3.8187493 2.5953427 2.7685202
v 3.5341785 3.0203084 2.7057222
v 3.4486941 2.9072605 2.6743651
v 3.3556430 2.7910943 2.6649543
v 3.4435562 2.9072605 2.6968660
v 3.0598556 3.2198297 2.5770076
v 3.0593863 3.2191784 2.5768084
v 3.0589858 3.2186660 2.5767631
v 3.0593512 3.2191784 2.5769330
vt 0.0000000 0.7700000
vt 0.1666667 0.7700000
vt 0.3333333 0.7700000
vt 0.5000000 0.7700000
vt 0.6666667 0.7700000
vt 0.8333333 0.7700000
vt 1.0000000 0.7700000
vt 0.0000000 0.8525000
vt 0.1666667 0.8525000
vt 0.3333333 0.8525000
vt 0.5000000 0.8525000
vt 0.6666667 0.8525000
vt 0.8333333 0.8525000
vt 1.0000000 0.8525000
vt 0.0000000 0.9350000
vt 0.1666667 0.9350000
vt 0.3333333 0.9350000
vt 0.5000000 0.9350000
vt 0.6666667 0.9350000
vt 0.8333333 0.9350000
vt 1.0000000 0.9350000
vt 0.0000000 1.0175000
vt 0.1666667 1.0175000
vt 0.3333333 1.0175000
vt 0.5000000 1.0175000
vt 0.6666667 1.0175000
vt 0.8333333 1.0175000
vt 1.0000000 1.0175000
vt 0.0000000 1.1000000
vt 0.1666667 1.1000000
vt 0.3333333 1.1000000
vt 0.5000000 1.1000000
vt 0.6666667 1.1000000
vt 0.8333333 1.1000000
vt 1.0000000 1.1000000
vt 0.0000000 1.1825000
vt 0.1666667 1.1825000
vt 0.3333333 1.1825000
vt 0.5000000 1.1825000
vt 0.6666667 1.1825000
vt 0.8333333 1.1825000
vt 1.0000000 1.1825000
vt 0.0000000 1.2650000
vt 0.1666667 1.2650000
vt 0.3333333 1.2650000
vt 0.5000000 1.2650000
vt 0.6666667 1.2650000
vt 0.8333333 1.2650000
vt 1.0000000 1.2650000
vt 0.0000000 1.3475000
vt 0.1666667 1.3475000
vt 0.3333333 1.3475000
vt 0.5000000 1.3475000
vt 0.6666667 1.3475000
vt 0.8333333 1.3475000
vt 1.0000000 1.3475000
vt 0.0000000 1.4300000
vt 0.1666667 1.4300000
vt 0.3333333 1.4300000
vt 0.5000000 1.4300000
vt 0.6666667 1.4300000
vt 0.8333333 1.4300000
vt 1.0000000 1.4300000
vt 0.0000000 1.5125000
vt 0.1666667 1.5125000
vt 0.3333333 1.5125000
vt 0.5000000 1.5125000
vt 0.6666667 1.5125000
vt 0.8333333 1.5125000
vt 1.0000000 1.5125000
vt 0.0000000 1.5950000
vt 0.1666667 1.5950000
vt 0.3333333 1.5950000
vt 0.5000000 1.5950000
vt 0.6666667 1.5950000
vt 0.8333333 1.5950000
vt 1.0000000 1.5950000
vt 0.0000000 1.6775000
vt 0.1666667 1.6775000
vt 0.3333333 1.6775000
vt 0.5000000 1.6775000
vt 0.6666667 1.6775000
vt 0.8333333 1.6775000
vt 1.0000000 1.6775000
vt 0.0000000 1.7600000
vt 0.1666667 1.7600000
vt 0.3333333 1.7600000
vt 0.5000000 1.7600000
vt 0.6666667 1.7600000
vt 0.8333333 1.7600000
vt 1.0000000 1.7600000
vt 0.0000000 1.8425000
vt 0.1666667 1.8425000
vt 0.3333333 1.8425000
vt 0.5000000 1.8425000
vt 0.6666667 1.8425000
vt 0.8333333 1.8425000
vt 1.0000000 1.8425000
vt 0.0000000 1.9250000
vt 0.1666667 1.9250000
vt 0.3333333 1.9250000
vt 0.5000000 1.9250000
vt 0.6666667 1.9250000
vt 0.8333333 1.9250000
vt 1.0000000 1.9250000
vt 0.0000000 2.0075000
vt 0.1666667 2.0075000
vt 0.3333333 2.0075000
vt 0.5000000 2.0075000
vt 0.6666667 2.0075000
vt 0.8333333 2.0075000
vt 1.0000000 2.0075000
vt 0.0000000 2.0900000
vt 0.1666667 2.0900000
vt 0.3333333 2.0900000
vt 0.5000000 2.0900000
vt 0.6666667 2.0900000
vt 0.8333333 2.0900000
vt 1.0000000 2.0900000
vt 0.0000000 2.1725000
vt 0.1666667 2.1725000
vt 0.3333333 2.1725000
vt 0.5000000 2.1725000
vt 0.6666667 2.1725000
vt 0.8333333 2.1725000
vt 1.0000000 2.1725000
vt 0.0000000 2.2550000
vt 0.1666667 2.2550000
vt 0.3333333 2.2550000
vt 0.5000000 2.2550000
vt 0.6666667 2.2550000
vt 0.8333333 2.2550000
vt 1.0000000 2.2550000
vt 0.0000000 2.3375000
vt 0.1666667 2.3375000
vt 0.3333333 2.3375000
vt 0.5000000 2.3375000
vt 0.6666667 2.3375000
vt 0.8333333 2.3375000
vt 1.0000000 2.3375000
vt 0.0000000 2.4200000
vt 0.1666667 2.4200000
vt 0.3333333 2.4200000
vt 0.5000000 2.4200000
vt 0.6666667 2.4200000
vt 0.8333333 2.4200000
vt 1.0000000 2.4200000
vt 1.0000000 0.6300000
vt 0.5000000 0.6300000
vt 0.0000000 0.6300000
vt 0.5000000 0.6300000
vt 1.0000000 0.8100000
vt 0.5000000 0.8100000
vt 0.0000000 0.8100000
vt 0.5000000 0.8100000
vt 1.0000000 0.9900000
vt 0.5000000 0.9900000
vt 0.0000000 0.9900000
vt 0.5000000 0.9900000
vt 1.0000000 1.1700000
vt 0.5000000 1.1700000
vt 0.0000000 1.1700000
vt 0.5000000 1.1700000
vt 1.0000000 1.3500000
vt 0.5000000 1.3500000
vt 0.0000000 1.3500000
vt 0.5000000 1.3500000
vt 1.0000000 1.5300000
vt 0.5000000 1.5300000
vt 0.0000000 1.5300000
vt 0.5000000 1.5300000
vt 1.0000000 1.7100000
vt 0.5000000 1.7100000
vt 0.0000000 1.7100000
vt 0.5000000 1.7100000
vt 1.0000000 1.8900000
vt 0.5000000 1.8900000
vt 0.0000000 1.8900000
vt 0.5000000 1.8900000
vt 1.0000000 2.0700000
vt 0.5000000 2.0700000
vt 0.0000000 2.0700000
vt 0.5000000 2.0700000
vt 1.0000000 2.2500000
vt 0.5000000 2.2500000
vt 0.0000000 2.2500000
vt 0.5000000 2.2500000
vt 1.0000000 2.4300000
vt 0.5000000 2.4300000
vt 0.0000000 2.4300000
vt 0.5000000 2.4300000
vt 1.0000000 0.6300000
vt 0.5000000 0.6300000
vt 0.0000000 0.6300000
vt 0.5000000 0.6300000
vt 1.0000000 0.8100000
vt 0.5000000 0.8100000
vt 0.0000000 0.8100000
vt 0.5000000 0.8100000
vt 1.0000000 0.9900000
vt 0.5000000 0.9900000
vt 0.0000000 0.9900000
vt 0.5000000 0.9900000
vt 1.0000000 1.1700000
vt 0.5000000 1.1700000
vt 0.0000000 1.1700000
vt 0.5000000 1.1700000
vt 1.0000000 1.3500000
vt 0.5000000 1.3500000
vt 0.0000000 1.3500000
vt 0.5000000 1.3500000
vt 1.0000000 1.5300000
vt 0.5000000 1.5300000
vt 0.0000000 1.5300000
vt 0.5000000 1.5300000
vt 1.0000000 1.7100000
vt 0.5000000 1.7100000
vt 0.0000000 1.7100000
vt 0.5000000 1.7100000
vt 1.0000000 1.8900000
vt 0.5000000 1.8900000
vt 0.0000000 1.8900000
vt 0.5000000 1.8900000
vt 1.0000000 2.0700000
vt 0.5000000 2.0700000
vt 0.0000000 2.0700000
vt 0.5000000 2.0700000
vt 1.0000000 2.2500000
vt 0.5000000 2.2500000
vt 0.0000000 2.2500000
vt 0.5000000 2.2500000
vt 1.0000000 2.4300000
vt 0.5000000 2.4300000
vt 0.0000000 2.4300000
vt 0.5000000 2.4300000
vn 0.8815362 -0.4043892 -0.2436458
vn 0.8752237 -0.4224609 -0.2356062
vn 0.8724900 -0.4542701 -0.1799998
vn 0.8651962 -0.4901312 -0.1058628
vn 0.8674194 -0.4975715 0.0024864
vn 0.8863338 -0.4497182 0.1102992
vn 0.9023973 -0.3957365 0.1705046
vn 0.8685277 -0.4180384 -0.2662773
vn 0.8739661 -0.4190902 -0.2460623
vn 0.8832530 -0.4300414 -0.1868919
vn 0.8902167 -0.4502586 -0.0691475
vn 0.8819501 -0.4613275 0.0966485
vn 0.8766860 -0.4306402 0.2144078
vn 0.8792574 -0.3969087 0.2633815
vn 0.8826030 -0.3864187 -0.2677547
vn 0.9048340 -0.3498019 -0.2427222
vn 0.9263798 -0.3345249 -0.1729555
vn 0.9308163 -0.3648378 -0.0217811
vn 0.8905286 -0.4201213 0.1745190
vn 0.8533776 -0.4276757 0.2980607
vn 0.8512820 -0.4012168 0.3381481
vn 0.9254368 -0.2850925 -0.2495778
vn 0.9480546 -0.2242660 -0.2256043
vn 0.9624262 -0.2230569 -0.1548591
vn 0.9549573 -0.2967408 -0.0011702
vn 0.8911789 -0.4030365 0.2082349
vn 0.8265098 -0.4344903 0.3579102
vn 0.8165792 -0.3967875 0.4192352
vn 0.9622958 -0.1287461 -0.2396063
vn 0.9690939 -0.0906010 -0.2294526
vn 0.9745146 -0.1465985 -0.1697947
vn 0.9634067 -0.2677366 -0.0128311
vn 0.8868402 -0.3977010 0.2352625
vn 0.7994952 -0.4144710 0.4347657
vn 0.7825218 -0.3355272 0.5244817
vn 0.9655352 0.0106471 -0.2600545
vn 0.9629793 -0.0149675 -0.2691595
vn 0.9695529 -0.1237369 -0.2113205
vn 0.9673684 -0.2527423 -0.0178820
vn 0.8863804 -0.3548722 0.2973137
vn 0.7815032 -0.3136020 0.5393575
vn 0.7542270 -0.1768454 0.6323507
vn 0.9480713 0.0658085 -0.3111752
vn 0.9454302 -0.0095311 -0.3256853
vn 0.9647996 -0.1133308 -0.2373140
vn 0.9806829 -0.1930369 0.0315882
vn 0.8864715 -0.2152690 0.4096675
vn 0.7627480 -0.1010392 0.6387539
vn 0.7235612 0.0521295 0.6882890
vn 0.9281084 0.0493374 -0.3690267
vn 0.9312054 -0.0100754 -0.3643556
vn 0.9770264 -0.0407792 -0.2091803
vn 0.9870455 -0.0281620 0.1579495
vn 0.8465462 0.0368511 0.5310382
vn 0.7247768 0.1556383 0.6711746
vn 0.7023640 0.2368954 0.6712417
vn 0.9108403 0.0535510 -0.4092703
vn 0.9267082 0.0795783 -0.3672591
vn 0.9817525 0.1536867 -0.1119932
vn 0.9186848 0.2324658 0.3193398
vn 0.7549169 0.2933826 0.5865383
vn 0.6972467 0.3263646 0.6382266
vn 0.7185728 0.3057607 0.6246307
vn 0.8858135 0.1821217 -0.4268092
vn 0.8931267 0.3038195 -0.3316903
vn 0.9058244 0.4231274 0.0211042
vn 0.7837205 0.4564472 0.4212341
vn 0.6867034 0.4433159 0.5761158
vn 0.7146183 0.3779865 0.5885975
vn 0.7626142 0.2930128 0.5766828
vn 0.8009272 0.4312986 -0.4153277
vn 0.7825331 0.5589533 -0.2742500
vn 0.7758383 0.6213403 0.1095957
vn 0.6889346 0.5733336 0.4434610
vn 0.6847907 0.4936843 0.5360387
vn 0.7583208 0.3716738 0.5355448
vn 0.7951079 0.3075970 0.5226734
vn 0.6563424 0.6485441 -0.3854934
vn 0.6558766 0.7151437 -0.2416512
vn 0.6886434 0.7143319 0.1244997
vn 0.6693123 0.6171585 0.4136863
vn 0.7183164 0.5058263 0.4776624
vn 0.7782459 0.4186527 0.4680419
vn 0.7769635 0.4465482 0.4437595
vn 0.5333054 0.7570741 -0.3773913
vn 0.5739575 0.7775650 -0.2568374
vn 0.6595641 0.7471175 0.0824052
vn 0.6791335 0.6407737 0.3580319
vn 0.7127604 0.5677156 0.4119122
vn 0.7270420 0.5764078 0.3730469
vn 0.6852761 0.6507103 0.3270668
vn 0.4556100 0.7918732 -0.4066404
vn 0.5270226 0.7909383 -0.3109081
vn 0.6403783 0.7677722 0.0210098
vn 0.6313531 0.7041271 0.3249588
vn 0.6131527 0.7060354 0.3543413
vn 0.6106038 0.7480202 0.2600555
vn 0.5775043 0.7894413 0.2080173
vn 0.3976896 0.7925964 -0.4622054
vn 0.4755647 0.7974064 -0.3714583
vn 0.5672806 0.8235022 0.0060782
vn 0.4862401 0.8021987 0.3464791
vn 0.4633455 0.8299954 0.3105133
vn 0.5058355 0.8472095 0.1623779
vn 0.5154218 0.8497412 0.1108165
vn 0.3275229 0.7926893 -0.5141716
vn 0.3904925 0.8320561 -0.3939521
vn 0.4308108 0.9000591 0.0655407
vn 0.3201660 0.8625313 0.3918335
vn 0.3468969 0.8945534 0.2818452
vn 0.4514169 0.8885272 0.0821111
vn 0.5020786 0.8645804 0.0204402
vn 0.2390079 0.8108078 -0.5342902
vn 0.2864222 0.8840005 -0.3694663
vn 0.2922927 0.9442601 0.1514525
vn 0.2025836 0.8776619 0.4343609
vn 0.2831198 0.9236710 0.2582150
vn 0.4381746 0.8988863 -0.0025324
vn 0.5120776 0.8546469 -0.0857624
vn 0.1577050 0.8325881 -0.5309673
vn 0.1986861 0.9215430 -0.3335901
vn 0.1906910 0.9554515 0.2252762
vn 0.1300795 0.8739348 0.4683131
vn 0.2565704 0.9413349 0.2192264
vn 0.4384034 0.8919292 -0.1107462
vn 0.5045806 0.8370153 -0.2116691
vn 0.1047333 0.8389502 -0.5340352
vn 0.1401842 0.9399220 -0.3112796
vn 0.1165807 0.9512890 0.2854088
vn 0.0794506 0.8700489 0.4865208
vn 0.2454728 0.9589016 0.1423056
vn 0.4180662 0.8777456 -0.2340581
vn 0.4535717 0.8289025 -0.3274040
vn 0.0797504 0.8299454 -0.5521147
vn 0.1013421 0.9551381 -0.2782821
vn 0.0481010 0.9338114 0.3545175
vn 0.0346720 0.8792841 0.4750340
vn 0.2379257 0.9712619 0.0064514
vn 0.3727060 0.8655515 -0.3345307
vn 0.3844350 0.8355009 -0.3926169
vn 0.0702841 0.8298289 -0.5535739
vn 0.0682818 0.9922190 -0.1041103
vn -0.0252222 0.8595573 0.5104166
vn 0.0157829 0.9148011 0.4035963
vn 0.2800905 0.9243099 -0.2592306
vn 0.3391199 0.8521273 -0.3985936
vn 0.0513990 0.9985179 0.0178945
vn -0.4219733 0.0604782 0.9045888
vn -0.3179236 -0.0495359 0.9468214
vn 0.3743535 -0.1109810 -0.9206208
vn 0.2708649 -0.0010257 -0.9626168
vn -0.6800127 0.1648305 0.7144324
vn -0.4068841 -0.0310459 0.9129521
vn 0.6052094 -0.3364056 -0.7214935
vn 0.3641263 -0.0295714 -0.9308800
vn -0.8368023 0.4727988 -0.2760853
vn -0.5510029 -0.0146591 0.8343746
vn 0.8397416 -0.5429173 0.0086531
vn 0.5149714 -0.0260163 -0.8568125
vn -0.5449211 0.4301803 -0.7197263
vn -0.7486613 -0.0109231 0.6628627
vn 0.7129663 -0.4679724 0.5221885
vn 0.7359569 -0.0316944 -0.6762861
vn -0.3786950 0.3616632 -0.8519330
vn -0.9453005 -0.0012787 0.3261984
vn 0.1214965 -0.3441958 0.9310037
vn 0.9434280 -0.0122325 -0.3313517
vn 0.2330771 0.3951712 -0.8885464
vn -0.9894211 0.0098249 -0.1447390
vn -0.0228409 -0.3817902 0.9239668
vn 0.9894533 0.0176163 0.1437768
vn 0.4903819 0.4772139 -0.7292410
vn -0.8536070 0.0062451 -0.5208801
vn -0.2647762 -0.4583931 0.8483922
vn 0.8360452 0.0218711 0.5482245
vn 0.7390290 0.6017052 -0.3029635
vn -0.6817557 0.0154571 -0.7314166
vn -0.9226029 -0.3824216 0.0505730
vn 0.6543624 0.0318963 0.7555081
vn 0.7561766 0.4316390 0.4918177
vn -0.5395517 0.0147543 -0.8418232
vn -0.8640561 -0.3447728 -0.3667952
vn 0.5104385 0.0211926 0.8596531
vn 0.5681939 0.2649865 0.7790622
vn -0.4260643 0.0205956 -0.9044584
vn -0.6536984 -0.2525603 -0.7133665
vn 0.3957863 0.0000618 0.9183426
vn 0.4174000 0.1147769 0.9014452
vn -0.3308479 0.0637723 -0.9415268
vn -0.4320583 -0.0773082 -0.8985260
vn 0.3175310 -0.0270376 0.9478623
vn -0.8765741 0.0633884 0.4770742
vn -0.8093394 -0.0604493 0.5842223
vn 0.8586023 -0.1226254 -0.4977601
vn 0.7948019 0.0016324 -0.6068668
vn -0.9637629 0.2471661 0.1003496
vn -0.8715938 -0.0226501 0.4897052
vn 0.9241154 -0.3073043 -0.2271010
vn 0.8497827 -0.0160856 -0.5268877
vn -0.8047436 0.3365881 -0.4889746
vn -0.9453032 -0.0206401 0.3255394
vn 0.8569235 -0.4494825 0.2522849
vn 0.9288520 -0.0417534 -0.3680904
vn -0.5828746 0.2822950 -0.7619493
vn -0.9978285 -0.0342901 0.0562358
vn 0.3528888 -0.5012796 0.7900559
vn 0.9914585 -0.0631347 -0.1141232
vn 0.4559614 0.4004550 -0.7948176
vn -0.9529649 0.0032605 -0.3030631
vn -0.3007638 -0.3778724 0.8756447
vn 0.9583178 -0.0072108 0.2856135
vn 0.8303670 0.4284890 -0.3562132
vn -0.7412529 0.0308460 -0.6705167
vn -0.7273690 -0.3388424 0.5967581
vn 0.6929725 0.0433835 0.7196575
vn 0.8339353 0.4886799 -0.2564056
vn -0.3897698 0.0180104 -0.9207362
vn -0.9353761 -0.3506254 -0.0461886
vn 0.3523228 0.0445954 0.9348154
vn 0.7964814 0.5728294 0.1936077
vn -0.0978362 0.0024247 -0.9951996
vn -0.8482953 -0.5286768 0.0299317
vn 0.0856432 0.0226273 0.9960689
vn 0.5836163 0.6110895 0.5347538
vn 0.0845115 0.0056963 -0.9964062
vn -0.7493422 -0.6194330 -0.2340706
vn -0.1061942 0.0091032 0.9943037
vn 0.0339541 0.3295435 0.9435296
vn 0.2029542 0.0228020 -0.9789227
vn -0.0782950 -0.2118213 -0.9741671
vn -0.2316521 0.0072334 0.9727718
vn -0.2204522 0.1018635 0.9700643
vn 0.2817416 0.0520721 -0.9580763
vn 0.1875089 -0.0719447 -0.9796246
vn -0.3143760 -0.0222134 0.9490386
s 1
f 1/1/1 8/8/8 2/2/2
f 2/2/2 8/8/8 9/9/9
f 2/2/2 9/9/9 3/3/3
f 3/3/3 9/9/9 10/10/10
f 3/3/3 10/10/10 4/4/4
f 4/4/4 10/10/10 11/11/11
f 4/4/4 11/11/11 5/5/5
f 5/5/5 11/11/11 12/12/12
f 5/5/5 12/12/12 6/6/6
f 6/6/6 12/12/12 13/13/13
f 6/6/6 13/13/13 7/7/7
f 7/7/7 13/13/13 14/14/14
f 8/8/8 15/15/15 9/9/9
f 9/9/9 15/15/15 16/16/16
f 9/9/9 16/16/16 10/10/10
f 10/10/10 16/16/16 17/17/17
f 10/10/10 17/17/17 11/11/11
f 11/11/11 17/17/17 18/18/18
f 11/11/11 18/18/18 12/12/12
f 12/12/12 18/18/18 19/19/19
f 12/12/12 19/19/19 13/13/13
f 13/13/13 19/19/19 20/20/20
f 13/13/13 20/20/20 14/14/14
f 14/14/14 20/20/20 21/21/21
f 15/15/15 22/22/22 16/16/16
f 16/16/16 22/22/22 23/23/23
f 16/16/16 23/23/23 17/17/17
f 17/17/17 23/23/23 24/24/24
f 17/17/17 24/24/24 18/18/18
f 18/18/18 24/24/24 25/25/25
f 18/18/18 25/25/25 19/19/19
f 19/19/19 25/25/25 26/26/26
f 19/19/19 26/26/26 20/20/20
f 20/20/20 26/26/26 27/27/27
f 20/20/20 27/27/27 21/21/21
f 21/21/21 27/27/27 28/28/28
f 22/22/22 29/29/29 23/23/23
f 23/23/23 29/29/29 30/30/30
f 23/23/23 30/30/30 24/24/24
f 24/24/24 30/30/30 31/31/31
f 24/24/24 31/31/31 25/25/25
f 25/25/25 31/31/31 32/32/32
f 25/25/25 32/32/32 26/26/26
f 26/26/26 32/32/32 33/33/33
f 26/26/26 33/33/33 27/27/27
f 27/27/27 33/33/33 34/34/34
f 27/27/27 34/34/34 28/28/28
f 28/28/28 34/34/34 35/35/35
f 29/29/29 36/36/36 30/30/30
f 30/30/30 36/36/36 37/37/37
f 30/30/30 37/37/37 31/31/31
f 31/31/31 37/37/37 38/38/38
f 31/31/31 38/38/38 32/32/32
f 32/32/32 38/38/38 39/39/39
f 32/32/32 39/39/39 33/33/33
f 33/33/33 39/39/39 40/40/40
f 33/33/33 40/40/40 34/34/34
f 34/34/34 40/40/40 41/41/41
f 34/34/34 41/41/41 35/35/35
f 35/35/35 41/41/41 42/42/42
f 36/36/36 43/43/43 37/37/37
f 37/37/37 43/43/43 44/44/44
f 37/37/37 44/44/44 38/38/38
f 38/38/38 44/44/44 45/45/45
f 38/38/38 45/45/45 39/39/39
f 39/39/39 45/45/45 46/46/46
f 39/39/39 46/46/46 40/40/40
f 40/40/40 46/46/46 47/47/47
f 40/40/40 47/47/47 41/41/41
f 41/41/41 47/47/47 48/48/48
f 41/41/41 48/48/48 42/42/42
f 42/42/42 48/48/48 49/49/49
f 43/43/43 50/50/50 44/44/44
f 44/44/44 50/50/50 51/51/51
f 44/44/44 51/51/51 45/45/45
f 45/45/45 51/51/51 52/52/52
f 45/45/45 52/52/52 46/46/46
f 46/46/46 52/52/52 53/53/53
f 46/46/46 53/53/53 47/47/47
f 47/47/47 53/53/53 54/54/54
f 47/47/47 54/54/54 48/48/48
f 48/48/48 54/54/54 55/55/55
f 48/48/48 55/55/55 49/49/49
f 49/49/49 55/55/55 56/56/56
f 50/50/50 57/57/57 51/51/51
f 51/51/51 57/57/57 58/58/58
f 51/51/51 58/58/58 52/52/52
f 52/52/52 58/58/58 59/59/59
f 52/52/52 59/59/59 53/53/53
f 53/53/53 59/59/59 60/60/60
f 53/53/53 60/60/60 54/54/54
f 54/54/54 60/60/60 61/61/61
f 54/54/54 61/61/61 55/55/55
f 55/55/55 61/61/61 62/62/62
f 55/55/55 62/62/62 56/56/56
f 56/56/56 62/62/62 63/63/63
f 57/57/57 64/64/64 58/58/58
f 58/58/58 64/64/64 65/65/65
f 58/58/58 65/65/65 59/59/59
f 59/59/59 65/65/65 66/66/66
f 59/59/59 66/66/66 60/60/60
f 60/60/60 66/66/66 67/67/67
f 60/60/60 67/67/67 61/61/61
f 61/61/61 67/67/67 68/68/68
f 61/61/61 68/68/68 62/62/62
f 62/62/62 68/68/68 69/69/69
f 62/62/62 69/69/69 63/63/63
f 63/63/63 69/69/69 70/70/70
f 64/64/64 71/71/71 65/65/65
f 65/65/65 71/71/71 72/72/72
f 65/65/65 72/72/72 66/66/66
f 66/66/66 72/72/72 73/73/73
f 66/66/66 73/73/73 67/67/67
f 67/67/67 73/73/73 74/74/74
f 67/67/67 74/74/74 68/68/68
f 68/68/68 74/74/74 75/75/75
f 68/68/68 75/75/75 69/69/69
f 69/69/69 75/75/75 76/76/76
f 69/69/69 76/76/76 70/70/70
f 70/70/70 76/76/76 77/77/77
f 71/71/71 78/78/78 72/72/72
f 72/72/72 78/78/78 79/79/79
f 72/72/72 79/79/79 73/73/73
f 73/73/73 79/79/79 80/80/80
f 73/73/73 80/80/80 74/74/74
f 74/74/74 80/80/80 81/81/81
f 74/74/74 81/81/81 75/75/75
f 75/75/75 81/81/81 82/82/82
f 75/75/75 82/82/82 76/76/76
f 76/76/76 82/82/82 83/83/83
f 76/76/76 83/83/83 77/77/77
f 77/77/77 83/83/83 84/84/84
f 78/78/78 85/85/85 79/79/79
f 79/79/79 85/85/85 86/86/86
f 79/79/79 86/86/86 80/80/80
f 80/80/80 86/86/86 87/87/87
f 80/80/80 87/87/87 81/81/81
f 81/81/81 87/87/87 88/88/88
f 81/81/81 88/88/88 82/82/82
f 82/82/82 88/88/88 89/89/89
f 82/82/82 89/89/89 83/83/83
f 83/83/83 89/89/89 90/90/90
f 83/83/83 90/90/90 84/84/84
f 84/84/84 90/90/90 91/91/91
f 85/85/85 92/92/92 86/86/86
f 86/86/86 92/92/92 93/93/93
f 86/86/86 93/93/93 87/87/87
f 87/87/87 93/93/93 94/94/94
f 87/87/87 94/94/94 88/88/88
f 88/88/88 94/94/94 95/95/95
f 88/88/88 95/95/95 89/89/89
f 89/89/89 95/95/95 96/96/96
f 89/89/89 96/96/96 90/90/90
f 90/90/90 96/96/96 97/97/97
f 90/90/90 97/97/97 91/91/91
f 91/91/91 97/97/97 98/98/98
f 92/92/92 99/99/99 93/93/93
f 93/93/93 99/99/99 100/100/100
f 93/93/93 100/100/100 94/94/94
f 94/94/94 100/100/100 101/101/101
f 94/94/94 101/101/101 95/95/95
f 95/95/95 101/101/101 102/102/102
f 95/95/95 102/102/102 96/96/96
f 96/96/96 102/102/102 103/103/103
f 96/96/96 103/103/103 97/97/97
f 97/97/97 103/103/103 104/104/104
f 97/97/97 104/104/104 98/98/98
f 98/98/98 104/104/104 105/105/105
f 99/99/99 106/106/106 100/100/100
f 100/100/100 106/106/106 107/107/107
f 100/100/100 107/107/107 101/101/101
f 101/101/101 107/107/107 108/108/108
f 101/101/101 108/108/108 102/102/102
f 102/102/102 108/108/108 109/109/109
f 102/102/102 109/109/109 103/103/103
f 103/103/103 109/109/109 110/110/110
f 103/103/103 110/110/110 104/104/104
f 104/104/104 110/110/110 111/111/111
f 104/104/104 111/111/111 105/105/105
f 105/105/105 111/111/111 112/112/112
f 106/106/106 113/113/113 107/107/107
f 107/107/107 113/113/113 114/114/114
f 107/107/107 114/114/114 108/108/108
f 108/108/108 114/114/114 115/115/115
f 108/108/108 115/115/115 109/109/109
f 109/109/109 115/115/115 116/116/116
f 109/109/109 116/116/116 110/110/110
f 110/110/110 116/116/116 117/117/117
f 110/110/110 117/117/117 111/111/111
f 111/111/111 117/117/117 118/118/118
f 111/111/111 118/118/118 112/112/112
f 112/112/112 118/118/118 119/119/119
f 113/113/113 120/120/120 114/114/114
f 114/114/114 120/120/120 121/121/121
f 114/114/114 121/121/121 115/115/115
f 115/115/115 121/121/121 122/122/122
f 115/115/115 122/122/122 116/116/116
f 116/116/116 122/122/122 123/123/123
f 116/116/116 123/123/123 117/117/117
f 117/117/117 123/123/123 124/124/124
f 117/117/117 124/124/124 118/118/118
f 118/118/118 124/124/124 125/125/125
f 118/118/118 125/125/125 119/119/119
f 119/119/119 125/125/125 126/126/126
f 120/120/120 127/127/127 121/121/121
f 121/121/121 127/127/127 128/128/128
f 121/121/121 128/128/128 122/122/122
f 122/122/122 128/128/128 129/129/129
f 122/122/122 129/129/129 123/123/123
f 123/123/123 129/129/129 130/130/130
f 123/123/123 130/130/130 124/124/124
f 124/124/124 130/130/130 131/131/131
f 124/124/124 131/131/131 125/125/125
f 125/125/125 131/131/131 132/132/132
f 125/125/125 132/132/132 126/126/126
f 126/126/126 132/132/132 133/133/133
f 127/127/127 134/134/134 128/128/128
f 128/128/128 134/134/134 135/135/135
f 128/128/128 135/135/135 129/129/129
f 129/129/129 135/135/135 136/136/136
f 129/129/129 136/136/136 130/130/130
f 130/130/130 136/136/136 137/137/137
f 130/130/130 137/137/137 131/131/131
f 131/131/131 137/137/137 138/138/138
f 131/131/131 138/138/138 132/132/132
f 132/132/132 138/138/138 139/139/139
f 132/132/132 139/139/139 133/133/133
f 133/133/133 139/139/139 140/140/140
f 134/134/134 141/141/141 135/135/135
f 135/135/135 141/141/141 142/142/142
f 135/135/135 142/142/142 136/136/136
f 136/136/136 142/142/142 143/143/143
f 136/136/136 143/143/143 137/137/137
f 137/137/137 143/143/143 144/144/144
f 137/137/137 144/144/144 138/138/138
f 138/138/138 144/144/144 145/145/145
f 138/138/138 145/145/145 139/139/139
f 139/139/139 145/145/145 146/146/146
f 139/139/139 146/146/146 140/140/140
f 140/140/140 146/146/146 147/147/147
f 148/148/148 149/149/149 153/153/153
f 148/148/148 153/153/153 152/152/152
f 149/149/149 150/150/150 154/154/154
f 149/149/149 154/154/154 153/153/153
f 150/150/150 151/151/151 155/155/155
f 150/150/150 155/155/155 154/154/154
f 151/151/151 148/148/148 152/152/152
f 151/151/151 152/152/152 155/155/155
f 152/152/152 153/153/153 157/157/157
f 152/152/152 157/157/157 156/156/156
f 153/153/153 154/154/154 158/158/158
f 153/153/153 158/158/158 157/157/157
f 154/154/154 155/155/155 159/159/159
f 154/154/154 159/159/159 158/158/158
f 155/155/155 152/152/152 156/156/156
f 155/155/155 156/156/156 159/159/159
f 156/156/156 157/157/157 161/161/161
f 156/156/156 161/161/161 160/160/160
f 157/157/157 158/158/158 162/162/162
f 157/157/157 162/162/162 161/161/161
f 158/158/158 159/159/159 163/163/163
f 158/158/158 163/163/163 162/162/162
f 159/159/159 156/156/156 160/160/160
f 159/159/159 160/160/160 163/163/163
f 160/160/160 161/161/161 165/165/165
f 160/160/160 165/165/165 164/164/164
f 161/161/161 162/162/162 166/166/166
f 161/161/161 166/166/166 165/165/165
f 162/162/162 163/163/163 167/167/167
f 162/162/162 167/167/167 166/166/166
f 163/163/163 160/160/160 164/164/164
f 163/163/163 164/164/164 167/167/167
f 164/164/164 165/165/165 169/169/169
f 164/164/164 169/169/169 168/168/168
f 165/165/165 166/166/166 170/170/170
f 165/165/165 170/170/170 169/169/169
f 166/166/166 167/167/167 171/171/171
f 166/166/166 171/171/171 170/170/170
f 167/167/167 164/164/164 168/168/168
f 167/167/167 168/168/168 171/171/171
f 168/168/168 169/169/169 173/173/173
f 168/168/168 173/173/173 172/172/172
f 169/169/169 170/170/170 174/174/174
f 169/169/169 174/174/174 173/173/173
f 170/170/170 171/171/171 175/175/175
f 170/170/170 175/175/175 174/174/174
f 171/171/171 168/168/168 172/172/172
f 171/171/171 172/172/172 175/175/175
f 172/172/172 173/173/173 177/177/177
f 172/172/172 177/177/177 176/176/176
f 173/173/173 174/174/174 178/178/178
f 173/173/173 178/178/178 177/177/177
f 174/174/174 175/175/175 179/179/179
f 174/174/174 179/179/179 178/178/178
f 175/175/175 172/172/172 176/176/176
f 175/175/175 176/176/176 179/179/179
f 176/176/176 177/177/177 181/181/181
f 176/176/176 181/181/181 180/180/180
f 177/177/177 178/178/178 182/182/182
f 177/177/177 182/182/182 181/181/181
f 178/178/178 179/179/179 183/183/183
f 178/178/178 183/183/183 182/182/182
f 179/179/179 176/176/176 180/180/180
f 179/179/179 180/180/180 183/183/183
f 180/180/180 181/181/181 185/185/185
f 180/180/180 185/185/185 184/184/184
f 181/181/181 182/182/182 186/186/186
f 181/181/181 186/186/186 185/185/185
f 182/182/182 183/183/183 187/187/187
f 182/182/182 187/187/187 186/186/186
f 183/183/183 180/180/180 184/184/184
f 183/183/183 184/184/184 187/187/187
f 184/184/184 185/185/185 189/189/189
f 184/184/184 189/189/189 188/188/188
f 185/185/185 186/186/186 190/190/190
f 185/185/185 190/190/190 189/189/189
f 186/186/186 187/187/187 191/191/191
f 186/186/186 191/191/191 190/190/190
f 187/187/187 184/184/184 188/188/188
f 187/187/187 188/188/188 191/191/191
f 148/148/148 150/150/150 149/149/149
f 188/188/188 189/189/189 190/190/190
f 148/148/148 151/151/151 150/150/150
f 188/188/188 190/190/190 191/191/191
f 192/192/192 193/193/193 197/197/197
f 192/192/192 197/197/197 196/196/196
f 193/193/193 194/194/194 198/198/198
f 193/193/193 198/198/198 197/197/197
f 194/194/194 195/195/195 199/199/199
f 194/194/194 199/199/199 198/198/198
f 195/195/195 192/192/192 196/196/196
f 195/195/195 196/196/196 199/199/199
f 196/196/196 197/197/197 201/201/201
f 196/196/196 201/201/201 200/200/200
f 197/197/197 198/198/198 202/202/202
f 197/197/197 202/202/202 201/201/201
f 198/198/198 199/199/199 203/203/203
f 198/198/198 203/203/203 202/202/202
f 199/199/199 196/196/196 200/200/200
f 199/199/199 200/200/200 203/203/203
f 200/200/200 201/201/201 205/205/205
f 200/200/200 205/205/205 204/204/204
f 201/201/201 202/202/202 206/206/206
f 201/201/201 206/206/206 205/205/205
f 202/202/202 203/203/203 207/207/207
f 202/202/202 207/207/207 206/206/206
f 203/203/203 200/200/200 204/204/204
f 203/203/203 204/204/204 207/207/207
f 204/204/204 205/205/205 209/209/209
f 204/204/204 209/209/209 208/208/208
f 205/205/205 206/206/206 210/210/210
f 205/205/205 210/210/210 209/209/209
f 206/206/206 207/207/207 211/211/211
f 206/206/206 211/211/211 210/210/210
f 207/207/207 204/204/204 208/208/208
f 207/207/207 208/208/208 211/211/211
f 208/208/208 209/209/209 213/213/213
f 208/208/208 213/213/213 212/212/212
f 209/209/209 210/210/210 214/214/214
f 209/209/209 214/214/214 213/213/213
f 210/210/210 211/211/211 215/215/215
f 210/210/210 215/215/215 214/214/214
f 211/211/211 208/208/208 212/212/212
f 211/211/211 212/212/212 215/215/215
f 212/212/212 213/213/213 217/217/217
f 212/212/212 217/217/217 216/216/216
f 213/213/213 214/214/214 218/218/218
f 213/213/213 218/218/218 217/217/217
f 214/214/214 215/215/215 219/219/219
f 214/214/214 219/219/219 218/218/218
f 215/215/215 212/212/212 216/216/216
f 215/215/215 216/216/216 219/219/219
f 216/216/216 217/217/217 221/221/221
f 216/216/216 221/221/221 220/220/220
f 217/217/217 218/218/218 222/222/222
f 217/217/217 222/222/222 221/221/221
f 218/218/218 219/219/219 223/223/223
f 218/218/218 223/223/223 222/222/222
f 219/219/219 216/216/216 220/220/220
f 219/219/219 220/220/220 223/223/223
f 220/220/220 221/221/221 225/225/225
f 220/220/220 225/225/225 224/224/224
f 221/221/221 222/222/222 226/226/226
f 221/221/221 226/226/226 225/225/225
f 222/222/222 223/223/223 227/227/227
f 222/222/222 227/227/227 226/226/226
f 223/223/223 220/220/220 224/224/224
f 223/223/223 224/224/224 227/227/227
f 224/224/224 225/225/225 229/229/229
f 224/224/224 229/229/229 228/228/228
f 225/225/225 226/226/226 230/230/230
f 225/225/225 230/230/230 229/229/229
f 226/226/226 227/227/227 231/231/231
f 226/226/226 231/231/231 230/230/230
f 227/227/227 224/224/224 228/228/228
f 227/227/227 228/228/228 231/231/231
f 228/228/228 229/229/229 233/233/233
f 228/228/228 233/233/233 232/232/232
f 229/229/229 230/230/230 234/234/234
f 229/229/229 234/234/234 233/233/233
f 230/230/230 231/231/231 235/235/235
f 230/230/230 235/235/235 234/234/234
f 231/231/231 228/228/228 232/232/232
f 231/231/231 232/232/232 235/235/235
f 192/192/192 194/194/194 193/193/193
f 232/232/232 233/233/233 234/234/234
f 192/192/192 195/195/195 194/194/194
f 232/232/232 234/234/234 235/235/235
