# Reference-led flame ribbon, Y up, longitudinal flow UVs
o inferno_dome_07_v20
v 4.0059987 0.0400000 -1.2617347
v 4.0766456 0.0400000 -1.0104259
v 4.1315436 0.0400000 -0.7552135
v 4.1704805 0.0400000 -0.4970835
v 4.1933060 0.0400000 -0.2370333
v 4.1999318 0.0400000 0.0239327
v 4.1903324 0.0400000 0.2848063
v 4.0633296 0.4722102 -1.6367850
v 4.2044882 0.4691464 -1.3100858
v 4.3426441 0.5115721 -0.9764879
v 4.4364884 0.5345962 -0.6265790
v 4.4596171 0.5030027 -0.2653425
v 4.4249406 0.4651147 0.0949179
v 4.3709063 0.4788828 0.4488144
v 4.1181130 0.9025655 -1.9348626
v 4.3432893 0.8965134 -1.5514556
v 4.5590847 0.9803202 -1.1492334
v 4.6850991 1.0258014 -0.7118260
v 4.6815637 0.9633923 -0.2560117
v 4.5904349 0.8885492 0.1907023
v 4.4964296 0.9157464 0.6229629
v 4.2013532 1.3292088 -2.1644819
v 4.4929106 1.3203173 -1.7265094
v 4.7520706 1.4434415 -1.2541340
v 4.8781676 1.5102600 -0.7331887
v 4.8362625 1.4185721 -0.1951850
v 4.7018707 1.3086168 0.3226293
v 4.5926451 1.3485734 0.8231844
v 4.3065915 1.7502781 -2.3152600
v 4.6211671 1.7387662 -1.8133208
v 4.8855206 1.8981762 -1.2713713
v 4.9999274 1.9846866 -0.6803371
v 4.9380702 1.8659776 -0.0784817
v 4.7911328 1.7236175 0.4974433
v 4.6822546 1.7753497 1.0608281
v 4.3972447 2.1639058 -2.3614032
v 4.6927755 2.1500569 -1.7930994
v 4.9496431 2.3418274 -1.1962433
v 5.0725258 2.4458996 -0.5566048
v 5.0238140 2.3030924 0.0932091
v 4.8801793 2.1318330 0.7195804
v 4.7521654 2.1940669 1.3369090
v 4.4367569 2.5682174 -2.2850650
v 4.7011510 2.5523725 -1.6691156
v 4.9721390 2.7717816 -1.0427520
v 5.1362651 2.8908530 -0.3719219
v 5.1136239 2.7274640 0.3182393
v 4.9495654 2.5315222 0.9857759
v 4.7527163 2.6027254 1.6333949
v 4.4184301 2.9613328 -2.0977303
v 4.6763731 2.9438821 -1.4674619
v 4.9949921 3.1855272 -0.8311428
v 5.2088715 3.3166657 -0.1338830
v 5.1814505 3.1367182 0.5905811
v 4.9426347 2.9209187 1.2761679
v 4.6334436 2.9993380 1.9147077
v 4.3713983 3.3413680 -1.8369634
v 4.6600969 3.3227413 -1.2182402
v 5.0333325 3.5806721 -0.5741398
v 5.2584464 3.7206488 0.1501377
v 5.1641203 3.5285736 0.8899898
v 4.8059978 3.2982302 1.5542653
v 4.3860479 3.3819346 2.1453033
v 4.3350051 3.7064389 -1.5411283
v 4.6648076 3.6870948 -0.9374484
v 5.0508607 3.9549604 -0.2784192
v 5.2168519 4.1003286 0.4612469
v 5.0058481 3.9008552 1.1796835
v 4.5336430 3.6616396 1.7829457
v 4.0566748 3.7485681 2.3116358
v 4.3189223 4.0546671 -1.2278165
v 4.6513926 4.0350819 -0.6288960
v 4.9766469 4.3062864 0.0408006
v 5.0272125 4.4534667 0.7638386
v 4.7027941 4.2515068 1.4206855
v 4.1765197 4.0093094 1.9456806
v 3.7159142 4.0973214 2.4268836
v 4.2824635 4.3841867 -0.8971395
v 4.5483114 4.3648425 -0.3023534
v 4.7543747 4.6327081 0.3512650
v 4.6880356 4.7780763 1.0182278
v 4.3097502 4.5786029 1.5927563
v 3.8086416 4.3393874 2.0517280
v 3.4119949 4.4263159 2.5100441
v 4.1552733 4.6931538 -0.5536809
v 4.3014104 4.6745271 0.0145649
v 4.3851169 4.9324580 0.6145587
v 4.2568064 5.0724347 1.2014801
v 3.9028087 4.8803594 1.7006769
v 3.4781449 4.6500161 2.1171859
v 3.1454773 4.7337205 2.5574616
v 3.8868151 4.9797577 -0.2213279
v 3.9145875 4.9623071 0.2857321
v 3.9277366 5.2039521 0.8068563
v 3.8098427 5.3350907 1.3149815
v 3.5291676 5.1551431 1.7577407
v 3.1825528 4.9393437 2.1393853
v 2.8820744 5.0177630 2.5358616
v 3.4843306 5.2422336 0.0651637
v 3.4469891 5.2263888 0.4873423
v 3.4566821 5.4457978 0.9277088
v 3.3919653 5.5648692 1.3703697
v 3.1838305 5.4014802 1.7629943
v 2.8838701 5.2055384 2.0914590
v 2.5875024 5.2767416 2.4066831
v 3.0068278 5.4788770 0.2814916
v 2.9694971 5.4650281 0.6178321
v 3.0127478 5.6567987 0.9881065
v 2.9956859 5.7608708 1.3692029
v 2.8273534 5.6180636 1.6967045
v 2.5458424 5.4468042 1.9445480
v 2.2544874 5.5090381 2.1603163
v 2.5208576 5.6880599 0.4247421
v 2.5176889 5.6765479 0.6876207
v 2.5857912 5.8359579 0.9919542
v 2.5819918 5.9224683 1.2985793
v 2.4250074 5.8037593 1.5396308
v 2.1620843 5.6613993 1.6967045
v 1.9040617 5.7131314 1.8281658
v 2.0565620 5.8682476 0.5040966
v 2.0789237 5.8593560 0.7016939
v 2.1387572 5.9824803 0.9312600
v 2.1207007 6.0492988 1.1470268
v 1.9746056 5.9576109 1.2963864
v 1.7562457 5.8476556 1.3802651
v 1.5649090 5.8876122 1.4614891
v 1.5997747 6.0180170 0.5237000
v 1.6195876 6.0119648 0.6540838
v 1.6482838 6.0957716 0.7988406
v 1.6163945 6.1412528 0.9228191
v 1.5040067 6.0788438 0.9988052
v 1.3586141 6.0040006 1.0407471
v 1.2483292 6.0311979 1.0974111
v 1.1222842 6.1360748 0.4766833
v 1.1248501 6.1330110 0.5384400
v 1.1271065 6.1754367 0.6029741
v 1.1018905 6.1984608 0.6545667
v 1.0447090 6.1668673 0.6856793
v 0.9796817 6.1289793 0.7077290
v 0.9372922 6.1427474 0.7431796
v 0.6117107 6.2212766 0.3679796
v 0.6107597 6.2212766 0.3695558
v 0.6098047 6.2212766 0.3711297
v 0.6088456 6.2212766 0.3727010
v 0.6078824 6.2212766 0.3742699
v 0.6069152 6.2212766 0.3758362
v 0.6059440 6.2212766 0.3774001
v 4.3658985 0.1006246 -1.4472023
v 4.3664598 0.1000000 -1.4469372
v 4.3669707 0.0994787 -1.4468425
v 4.3665061 0.1000000 -1.4470752
v 4.5251397 0.5429869 -1.4028427
v 4.6500791 0.4029277 -1.3310418
v 4.8278601 0.2226214 -1.2805335
v 4.6648903 0.4029277 -1.3677000
v 4.7215264 0.9100797 -1.3433614
v 4.9055449 0.7058554 -1.2043224
v 5.0997575 0.5162752 -1.1137881
v 4.9298039 0.7058554 -1.2442902
v 4.9886047 1.1531270 -1.2066160
v 5.1041137 1.0087832 -1.0559816
v 5.2271968 0.8879131 -0.9548204
v 5.1328053 1.0087832 -1.0831687
v 5.1708496 1.4419873 -1.0710036
v 5.2145329 1.3117109 -0.8802866
v 5.3205626 1.1439122 -0.6524391
v 5.2580331 1.3117109 -0.8958459
v 5.3097882 1.8470942 -1.0206821
v 5.2245079 1.6146386 -0.6920885
v 5.2048667 1.3996624 -0.3785262
v 5.2860482 1.6146386 -0.6820334
v 5.3212225 2.1464629 -0.7092450
v 5.1440031 1.9175663 -0.4933375
v 5.0413032 1.7252626 -0.2817062
v 5.1942038 1.9175663 -0.4604700
v 5.0867587 2.3610741 -0.3605725
v 4.9689437 2.2204941 -0.2840005
v 4.8464251 2.0393443 -0.1516325
v 4.9945459 2.2204941 -0.2545515
v 4.7953934 2.6444565 -0.1278332
v 4.7010215 2.5234218 -0.0856711
v 4.6259101 2.4119069 -0.0269397
v 4.7133439 2.5234218 -0.0649716
v 4.4322397 2.9168969 0.0677510
v 4.3640937 2.8263495 0.0873478
v 4.3137750 2.7500226 0.1200164
v 4.3718258 2.8263495 0.1048735
v 3.9932750 3.1299487 0.2396749
v 3.9927725 3.1292772 0.2397787
v 3.9921927 3.1284116 0.2400896
v 3.9928318 3.1292772 0.2399334
v 4.3662364 0.1004378 1.4466513
v 4.3664327 0.1000000 1.4470411
v 4.3667988 0.0994390 1.4474609
v 4.3665331 0.1000000 1.4469713
v 4.4652101 0.5470565 1.5736359
v 4.5280889 0.4029277 1.7073207
v 4.6141144 0.2660628 1.8182487
v 4.5550849 0.4029277 1.6908873
v 4.5897708 0.9091200 1.7431688
v 4.6523689 0.7058554 1.9642213
v 4.7461603 0.5387337 2.1288041
v 4.6988230 0.7058554 1.9453824
v 4.7188040 1.1733094 1.9851382
v 4.7175273 1.0087832 2.2019988
v 4.7768660 0.7977509 2.4729002
v 4.7709528 1.0087832 2.1956392
v 4.8056652 1.4845600 2.1682399
v 4.7075930 1.3117109 2.4078180
v 4.6591042 1.1482035 2.6479766
v 4.7531060 1.3117109 2.4217224
v 4.8001153 1.7816609 2.4184581
v 4.6087034 1.6146386 2.5699296
v 4.4815967 1.4769128 2.7265982
v 4.6423884 1.6146386 2.6047492
v 4.6288881 2.0913385 2.6319301
v 4.4215964 1.9175663 2.6789860
v 4.1767695 1.6944771 2.7975343
v 4.4402451 1.9175663 2.7298990
v 4.3763754 2.4431159 2.7424391
v 4.1548349 2.2204941 2.7351808
v 3.9495892 2.0107102 2.7747809
v 4.1584586 2.2204941 2.7829994
v 3.9387903 2.6635211 2.7629158
v 3.8221493 2.5234218 2.7356411
v 3.7228361 2.4075509 2.7405841
v 3.8190363 2.5234218 2.7657450
v 3.4951358 2.8911396 2.6968069
v 3.4479350 2.8263495 2.6776895
v 3.3831540 2.7431043 2.6712364
v 3.4443153 2.8263495 2.6935417
v 3.0598727 3.1299715 2.5770125
v 3.0593867 3.1292772 2.5768068
v 3.0588957 3.1286255 2.5767377
v 3.0593508 3.1292772 2.5769347
vt 0.0000000 0.6600000
vt 0.1666667 0.6600000
vt 0.3333333 0.6600000
vt 0.5000000 0.6600000
vt 0.6666667 0.6600000
vt 0.8333333 0.6600000
vt 1.0000000 0.6600000
vt 0.0000000 0.7425000
vt 0.1666667 0.7425000
vt 0.3333333 0.7425000
vt 0.5000000 0.7425000
vt 0.6666667 0.7425000
vt 0.8333333 0.7425000
vt 1.0000000 0.7425000
vt 0.0000000 0.8250000
vt 0.1666667 0.8250000
vt 0.3333333 0.8250000
vt 0.5000000 0.8250000
vt 0.6666667 0.8250000
vt 0.8333333 0.8250000
vt 1.0000000 0.8250000
vt 0.0000000 0.9075000
vt 0.1666667 0.9075000
vt 0.3333333 0.9075000
vt 0.5000000 0.9075000
vt 0.6666667 0.9075000
vt 0.8333333 0.9075000
vt 1.0000000 0.9075000
vt 0.0000000 0.9900000
vt 0.1666667 0.9900000
vt 0.3333333 0.9900000
vt 0.5000000 0.9900000
vt 0.6666667 0.9900000
vt 0.8333333 0.9900000
vt 1.0000000 0.9900000
vt 0.0000000 1.0725000
vt 0.1666667 1.0725000
vt 0.3333333 1.0725000
vt 0.5000000 1.0725000
vt 0.6666667 1.0725000
vt 0.8333333 1.0725000
vt 1.0000000 1.0725000
vt 0.0000000 1.1550000
vt 0.1666667 1.1550000
vt 0.3333333 1.1550000
vt 0.5000000 1.1550000
vt 0.6666667 1.1550000
vt 0.8333333 1.1550000
vt 1.0000000 1.1550000
vt 0.0000000 1.2375000
vt 0.1666667 1.2375000
vt 0.3333333 1.2375000
vt 0.5000000 1.2375000
vt 0.6666667 1.2375000
vt 0.8333333 1.2375000
vt 1.0000000 1.2375000
vt 0.0000000 1.3200000
vt 0.1666667 1.3200000
vt 0.3333333 1.3200000
vt 0.5000000 1.3200000
vt 0.6666667 1.3200000
vt 0.8333333 1.3200000
vt 1.0000000 1.3200000
vt 0.0000000 1.4025000
vt 0.1666667 1.4025000
vt 0.3333333 1.4025000
vt 0.5000000 1.4025000
vt 0.6666667 1.4025000
vt 0.8333333 1.4025000
vt 1.0000000 1.4025000
vt 0.0000000 1.4850000
vt 0.1666667 1.4850000
vt 0.3333333 1.4850000
vt 0.5000000 1.4850000
vt 0.6666667 1.4850000
vt 0.8333333 1.4850000
vt 1.0000000 1.4850000
vt 0.0000000 1.5675000
vt 0.1666667 1.5675000
vt 0.3333333 1.5675000
vt 0.5000000 1.5675000
vt 0.6666667 1.5675000
vt 0.8333333 1.5675000
vt 1.0000000 1.5675000
vt 0.0000000 1.6500000
vt 0.1666667 1.6500000
vt 0.3333333 1.6500000
vt 0.5000000 1.6500000
vt 0.6666667 1.6500000
vt 0.8333333 1.6500000
vt 1.0000000 1.6500000
vt 0.0000000 1.7325000
vt 0.1666667 1.7325000
vt 0.3333333 1.7325000
vt 0.5000000 1.7325000
vt 0.6666667 1.7325000
vt 0.8333333 1.7325000
vt 1.0000000 1.7325000
vt 0.0000000 1.8150000
vt 0.1666667 1.8150000
vt 0.3333333 1.8150000
vt 0.5000000 1.8150000
vt 0.6666667 1.8150000
vt 0.8333333 1.8150000
vt 1.0000000 1.8150000
vt 0.0000000 1.8975000
vt 0.1666667 1.8975000
vt 0.3333333 1.8975000
vt 0.5000000 1.8975000
vt 0.6666667 1.8975000
vt 0.8333333 1.8975000
vt 1.0000000 1.8975000
vt 0.0000000 1.9800000
vt 0.1666667 1.9800000
vt 0.3333333 1.9800000
vt 0.5000000 1.9800000
vt 0.6666667 1.9800000
vt 0.8333333 1.9800000
vt 1.0000000 1.9800000
vt 0.0000000 2.0625000
vt 0.1666667 2.0625000
vt 0.3333333 2.0625000
vt 0.5000000 2.0625000
vt 0.6666667 2.0625000
vt 0.8333333 2.0625000
vt 1.0000000 2.0625000
vt 0.0000000 2.1450000
vt 0.1666667 2.1450000
vt 0.3333333 2.1450000
vt 0.5000000 2.1450000
vt 0.6666667 2.1450000
vt 0.8333333 2.1450000
vt 1.0000000 2.1450000
vt 0.0000000 2.2275000
vt 0.1666667 2.2275000
vt 0.3333333 2.2275000
vt 0.5000000 2.2275000
vt 0.6666667 2.2275000
vt 0.8333333 2.2275000
vt 1.0000000 2.2275000
vt 0.0000000 2.3100000
vt 0.1666667 2.3100000
vt 0.3333333 2.3100000
vt 0.5000000 2.3100000
vt 0.6666667 2.3100000
vt 0.8333333 2.3100000
vt 1.0000000 2.3100000
vt 1.0000000 0.5400000
vt 0.5000000 0.5400000
vt 0.0000000 0.5400000
vt 0.5000000 0.5400000
vt 1.0000000 0.7200000
vt 0.5000000 0.7200000
vt 0.0000000 0.7200000
vt 0.5000000 0.7200000
vt 1.0000000 0.9000000
vt 0.5000000 0.9000000
vt 0.0000000 0.9000000
vt 0.5000000 0.9000000
vt 1.0000000 1.0800000
vt 0.5000000 1.0800000
vt 0.0000000 1.0800000
vt 0.5000000 1.0800000
vt 1.0000000 1.2600000
vt 0.5000000 1.2600000
vt 0.0000000 1.2600000
vt 0.5000000 1.2600000
vt 1.0000000 1.4400000
vt 0.5000000 1.4400000
vt 0.0000000 1.4400000
vt 0.5000000 1.4400000
vt 1.0000000 1.6200000
vt 0.5000000 1.6200000
vt 0.0000000 1.6200000
vt 0.5000000 1.6200000
vt 1.0000000 1.8000000
vt 0.5000000 1.8000000
vt 0.0000000 1.8000000
vt 0.5000000 1.8000000
vt 1.0000000 1.9800000
vt 0.5000000 1.9800000
vt 0.0000000 1.9800000
vt 0.5000000 1.9800000
vt 1.0000000 2.1600000
vt 0.5000000 2.1600000
vt 0.0000000 2.1600000
vt 0.5000000 2.1600000
vt 1.0000000 2.3400000
vt 0.5000000 2.3400000
vt 0.0000000 2.3400000
vt 0.5000000 2.3400000
vt 1.0000000 0.5400000
vt 0.5000000 0.5400000
vt 0.0000000 0.5400000
vt 0.5000000 0.5400000
vt 1.0000000 0.7200000
vt 0.5000000 0.7200000
vt 0.0000000 0.7200000
vt 0.5000000 0.7200000
vt 1.0000000 0.9000000
vt 0.5000000 0.9000000
vt 0.0000000 0.9000000
vt 0.5000000 0.9000000
vt 1.0000000 1.0800000
vt 0.5000000 1.0800000
vt 0.0000000 1.0800000
vt 0.5000000 1.0800000
vt 1.0000000 1.2600000
vt 0.5000000 1.2600000
vt 0.0000000 1.2600000
vt 0.5000000 1.2600000
vt 1.0000000 1.4400000
vt 0.5000000 1.4400000
vt 0.0000000 1.4400000
vt 0.5000000 1.4400000
vt 1.0000000 1.6200000
vt 0.5000000 1.6200000
vt 0.0000000 1.6200000
vt 0.5000000 1.6200000
vt 1.0000000 1.8000000
vt 0.5000000 1.8000000
vt 0.0000000 1.8000000
vt 0.5000000 1.8000000
vt 1.0000000 1.9800000
vt 0.5000000 1.9800000
vt 0.0000000 1.9800000
vt 0.5000000 1.9800000
vt 1.0000000 2.1600000
vt 0.5000000 2.1600000
vt 0.0000000 2.1600000
vt 0.5000000 2.1600000
vt 1.0000000 2.3400000
vt 0.5000000 2.3400000
vt 0.0000000 2.3400000
vt 0.5000000 2.3400000
vn 0.9050452 -0.3408258 -0.2544227
vn 0.8636264 -0.4205405 -0.2780200
vn 0.8613826 -0.4614300 -0.2123734
vn 0.8622740 -0.4862905 -0.1414395
vn 0.8651741 -0.4966095 -0.0696612
vn 0.8766470 -0.4808562 0.0163523
vn 0.8895344 -0.4453256 0.1020474
vn 0.8505360 -0.4058488 -0.3344775
vn 0.8250012 -0.4562246 -0.3335148
vn 0.8411836 -0.4811188 -0.2468497
vn 0.8629056 -0.4825819 -0.1500286
vn 0.8843826 -0.4654148 -0.0354469
vn 0.8993609 -0.4273782 0.0921832
vn 0.9050524 -0.3859863 0.1785908
vn 0.7922270 -0.4285836 -0.4343875
vn 0.7915831 -0.4598187 -0.4024462
vn 0.8470884 -0.4533757 -0.2772936
vn 0.8976554 -0.4201907 -0.1328702
vn 0.9248052 -0.3789185 0.0340021
vn 0.9231651 -0.3442641 0.1710219
vn 0.9194558 -0.3241774 0.2225087
vn 0.7611912 -0.4173790 -0.4963695
vn 0.8058599 -0.4009332 -0.4357090
vn 0.8925823 -0.3541668 -0.2790389
vn 0.9482697 -0.3053707 -0.0867943
vn 0.9537173 -0.2842093 0.0982257
vn 0.9351287 -0.2924840 0.1999686
vn 0.9265417 -0.3054308 0.2196191
vn 0.7950481 -0.3207747 -0.5147835
vn 0.8635330 -0.2471161 -0.4395957
vn 0.9427811 -0.1875828 -0.2756382
vn 0.9808192 -0.1867564 -0.0558192
vn 0.9657801 -0.2338566 0.1121603
vn 0.9394945 -0.2878827 0.1856707
vn 0.9269464 -0.3088456 0.2130370
vn 0.8673694 -0.1221564 -0.4824397
vn 0.9069781 -0.0210913 -0.4206494
vn 0.9559665 -0.0131895 -0.2931794
vn 0.9906052 -0.1171407 -0.0705643
vn 0.9697364 -0.2294065 0.0835700
vn 0.9403398 -0.2902386 0.1775460
vn 0.9271833 -0.2776674 0.2514595
vn 0.9046550 0.1103797 -0.4116013
vn 0.8955328 0.1797261 -0.4070867
vn 0.9328775 0.1051777 -0.3444956
vn 0.9889994 -0.0924866 -0.1154403
vn 0.9723695 -0.2223603 0.0710883
vn 0.9421401 -0.2426874 0.2312462
vn 0.9221331 -0.1595736 0.3524299
vn 0.8912168 0.2716062 -0.3632668
vn 0.8531059 0.2952365 -0.4301695
vn 0.8950543 0.1747246 -0.4103036
vn 0.9890992 -0.0550807 -0.1365611
vn 0.9774869 -0.1591587 0.1385202
vn 0.9248655 -0.1088388 0.3643871
vn 0.8762387 0.0531038 0.4789424
vn 0.8604652 0.3454445 -0.3745235
vn 0.8031393 0.3550287 -0.4784578
vn 0.8523350 0.2646633 -0.4510858
vn 0.9945820 0.0605943 -0.0844685
vn 0.9529189 -0.0137344 0.3029141
vn 0.8454090 0.0912167 0.5262729
vn 0.7807761 0.2806152 0.5582507
vn 0.8254634 0.3810899 -0.4163901
vn 0.7498033 0.4275371 -0.5049822
vn 0.7882450 0.4337957 -0.4364529
vn 0.9603153 0.2747183 0.0482108
vn 0.8486463 0.1780879 0.4980805
vn 0.7212233 0.2742872 0.6360845
vn 0.6982414 0.4366515 0.5672693
vn 0.7908655 0.4429786 -0.4222580
vn 0.6865758 0.5548358 -0.4698626
vn 0.6739580 0.6404349 -0.3682712
vn 0.8383987 0.5081219 0.1972303
vn 0.6992500 0.3369400 0.6304926
vn 0.6251612 0.3924153 0.6746731
vn 0.6733896 0.5159855 0.5294388
vn 0.7512269 0.5625796 -0.3451989
vn 0.6029165 0.7027778 -0.3776176
vn 0.5416463 0.7865668 -0.2965334
vn 0.6875431 0.6679525 0.2848226
vn 0.5829318 0.4386571 0.6839375
vn 0.5895158 0.4625670 0.6621956
vn 0.6877966 0.5570847 0.4653950
vn 0.6845044 0.7013804 -0.1987947
vn 0.5137910 0.8112447 -0.2791073
vn 0.4456706 0.8555529 -0.2634520
vn 0.5793946 0.7575260 0.3007595
vn 0.5224415 0.5099536 0.6833756
vn 0.5872233 0.5235704 0.6172866
vn 0.6812499 0.6152515 0.3966916
vn 0.5952265 0.8020061 -0.0499159
vn 0.4447987 0.8686216 -0.2182904
vn 0.3958423 0.8773111 -0.2713560
vn 0.5192451 0.8122631 0.2657316
vn 0.4830195 0.5830879 0.6532233
vn 0.5496136 0.6155974 0.5647697
vn 0.6043013 0.7204615 0.3402281
vn 0.5126791 0.8572322 0.0480948
vn 0.4032632 0.8913518 -0.2070524
vn 0.3769399 0.8744196 -0.3054614
vn 0.4715723 0.8565660 0.2095572
vn 0.3958303 0.6758871 0.6216872
vn 0.4278149 0.7375120 0.5225423
vn 0.4743377 0.8300228 0.2933699
vn 0.4514271 0.8885895 0.0813774
vn 0.3812622 0.8933564 -0.2378097
vn 0.3674744 0.8637355 -0.3448529
vn 0.3931584 0.9034859 0.1707037
vn 0.2306988 0.7644317 0.6020151
vn 0.2628822 0.8337523 0.4855410
vn 0.3577464 0.8994441 0.2510336
vn 0.4052811 0.9122032 0.0602704
vn 0.3640063 0.8861042 -0.2869123
vn 0.3503403 0.8600071 -0.3710113
vn 0.2761562 0.9464806 0.1670696
vn 0.0492473 0.8093274 0.5852895
vn 0.1297735 0.8829505 0.4511732
vn 0.2912313 0.9336358 0.2085870
vn 0.3564583 0.9340952 0.0200899
vn 0.3403730 0.8820170 -0.3258714
vn 0.3237178 0.8660644 -0.3809714
vn 0.1532463 0.9708468 0.1843149
vn -0.0888253 0.8166989 0.5701868
vn 0.0531816 0.9076204 0.4164097
vn 0.2742967 0.9492162 0.1541099
vn 0.2923106 0.9563123 0.0046218
vn 0.3124797 0.8835296 -0.3489010
vn 0.2970198 0.8741601 -0.3842179
vn 0.0486450 0.9768552 0.2082967
vn -0.1798599 0.8107100 0.5571353
vn 0.0297843 0.9305112 0.3650504
vn 0.2884444 0.9545727 0.0747709
vn 0.2158161 0.9761229 0.0246478
vn 0.2923271 0.8752910 -0.3852408
vn 0.2697063 0.8862349 -0.3766247
vn -0.0524968 0.9642349 0.2597981
vn -0.2368368 0.8083573 0.5389497
vn 0.0699544 0.9646811 0.2539622
vn 0.2959830 0.9551141 -0.0122904
vn 0.1552144 0.9869100 0.0437852
vn 0.3030384 0.8067567 -0.5072587
vn 0.2107609 0.9340225 -0.2884124
vn -0.2102925 0.8722062 0.4416258
vn -0.2654154 0.8132681 0.5178317
vn 0.2685923 0.9626207 -0.0349220
vn 0.1387170 0.9865779 0.0861491
vn -0.4394008 0.0682376 0.8956956
vn -0.3256268 -0.0563749 0.9438162
vn 0.3647048 -0.1176905 -0.9236554
vn 0.2506992 0.0066308 -0.9680423
vn -0.7011276 0.1924555 0.6865719
vn -0.4116531 -0.0298895 0.9108503
vn 0.5950475 -0.3460185 -0.7253893
vn 0.3635604 -0.0282928 -0.9311409
vn -0.7642492 0.5295352 -0.3681244
vn -0.5298443 0.0003013 0.8480949
vn 0.5194806 -0.4921395 0.6985260
vn 0.5210942 -0.0140004 -0.8533843
vn -0.2973356 0.4326158 -0.8511376
vn -0.7430839 0.0030353 0.6691914
vn 0.5991516 -0.4388341 0.6696581
vn 0.7289858 -0.0171575 -0.6843137
vn -0.5873036 0.2880205 -0.7563853
vn -0.9629211 -0.0395886 0.2668625
vn 0.6497424 -0.4219541 0.6322892
vn 0.9483828 -0.0573631 -0.3118966
vn -0.1464781 0.3347054 -0.9308687
vn -0.9859393 -0.0068064 -0.1669654
vn -0.0658737 -0.4132380 0.9082373
vn 0.9880017 -0.0021297 0.1544286
vn 0.7747445 0.5077522 -0.3767742
vn -0.8717605 0.0332401 -0.4888033
vn -0.6514934 -0.3931165 0.6488573
vn 0.8391669 0.0525163 0.5413326
vn 0.8501080 0.5191724 0.0881835
vn -0.6963069 0.0215740 -0.7174199
vn -0.9111533 -0.3983202 0.1055498
vn 0.6505455 0.0334476 0.7587304
vn 0.7916865 0.5912100 0.1539588
vn -0.5301187 0.0099781 -0.8478647
vn -0.8522283 -0.3519808 -0.3870614
vn 0.5116548 0.0171000 0.8590209
vn 0.5839831 0.2978685 0.7551411
vn -0.4227273 0.0162093 -0.9061119
vn -0.6501148 -0.2626646 -0.7129923
vn 0.3997030 0.0021307 0.9166422
vn 0.4057972 0.1033681 0.9080990
vn -0.3419013 0.0531449 -0.9382319
vn -0.4421555 -0.0925107 -0.8921548
vn 0.3054704 -0.0419168 0.9512785
vn -0.8776110 0.0592005 0.4757039
vn -0.8197544 -0.0526452 0.5702905
vn 0.8493540 -0.1141169 -0.5153397
vn 0.7924777 -0.0023124 -0.6098965
vn -0.9718933 0.1695988 0.1632776
vn -0.8723978 -0.0322751 0.4877298
vn 0.9127374 -0.3386464 -0.2285368
vn 0.8467283 -0.0294683 -0.5312089
vn -0.4849273 0.4842022 -0.7282814
vn -0.9408740 -0.0154956 0.3384022
vn 0.7036265 -0.5436666 0.4575329
vn 0.9245595 -0.0270195 -0.3800784
vn 0.0025623 0.4449964 -0.8955287
vn -0.9958126 -0.0076397 0.0910986
vn 0.1661225 -0.4699552 0.8669172
vn 0.9942519 -0.0285391 -0.1031927
vn 0.2789467 0.3839760 -0.8801995
vn -0.9552948 0.0049423 -0.2956138
vn -0.5184478 -0.3310123 0.7884433
vn 0.9559005 -0.0043898 0.2936578
vn 0.7043305 0.3949270 -0.5898739
vn -0.7020259 0.0044315 -0.7121377
vn -0.4847031 -0.3955812 0.7801144
vn 0.7061206 0.0122015 0.7079864
vn 0.7720400 0.4593824 -0.4392290
vn -0.3645528 0.0011514 -0.9311820
vn -0.6744347 -0.4732623 0.5667104
vn 0.3422811 0.0159139 0.9394628
vn 0.7577838 0.6125381 0.2248573
vn -0.1104755 0.0160371 -0.9937495
vn -0.7639601 -0.3833294 -0.5190602
vn 0.0730715 0.0331936 0.9967742
vn 0.2636131 0.4071299 0.8745018
vn 0.0652496 0.0172483 -0.9977199
vn -0.4571649 -0.3352271 -0.8237858
vn -0.1064868 0.0216726 0.9940779
vn -0.0185647 0.2609292 0.9651794
vn 0.1981281 0.0220891 -0.9799272
vn -0.0811732 -0.2396795 -0.9674527
vn -0.2313803 -0.0004974 0.9728632
vn -0.2051294 0.1139439 0.9720796
vn 0.2967033 0.0632597 -0.9528722
vn 0.1938530 -0.0766262 -0.9780335
vn -0.3090680 -0.0267290 0.9506643
s 1
f 1/1/1 8/8/8 2/2/2
f 2/2/2 8/8/8 9/9/9
f 2/2/2 9/9/9 3/3/3
f 3/3/3 9/9/9 10/10/10
f 3/3/3 10/10/10 4/4/4
f 4/4/4 10/10/10 11/11/11
f 4/4/4 11/11/11 5/5/5
f 5/5/5 11/11/11 12/12/12
f 5/5/5 12/12/12 6/6/6
f 6/6/6 12/12/12 13/13/13
f 6/6/6 13/13/13 7/7/7
f 7/7/7 13/13/13 14/14/14
f 8/8/8 15/15/15 9/9/9
f 9/9/9 15/15/15 16/16/16
f 9/9/9 16/16/16 10/10/10
f 10/10/10 16/16/16 17/17/17
f 10/10/10 17/17/17 11/11/11
f 11/11/11 17/17/17 18/18/18
f 11/11/11 18/18/18 12/12/12
f 12/12/12 18/18/18 19/19/19
f 12/12/12 19/19/19 13/13/13
f 13/13/13 19/19/19 20/20/20
f 13/13/13 20/20/20 14/14/14
f 14/14/14 20/20/20 21/21/21
f 15/15/15 22/22/22 16/16/16
f 16/16/16 22/22/22 23/23/23
f 16/16/16 23/23/23 17/17/17
f 17/17/17 23/23/23 24/24/24
f 17/17/17 24/24/24 18/18/18
f 18/18/18 24/24/24 25/25/25
f 18/18/18 25/25/25 19/19/19
f 19/19/19 25/25/25 26/26/26
f 19/19/19 26/26/26 20/20/20
f 20/20/20 26/26/26 27/27/27
f 20/20/20 27/27/27 21/21/21
f 21/21/21 27/27/27 28/28/28
f 22/22/22 29/29/29 23/23/23
f 23/23/23 29/29/29 30/30/30
f 23/23/23 30/30/30 24/24/24
f 24/24/24 30/30/30 31/31/31
f 24/24/24 31/31/31 25/25/25
f 25/25/25 31/31/31 32/32/32
f 25/25/25 32/32/32 26/26/26
f 26/26/26 32/32/32 33/33/33
f 26/26/26 33/33/33 27/27/27
f 27/27/27 33/33/33 34/34/34
f 27/27/27 34/34/34 28/28/28
f 28/28/28 34/34/34 35/35/35
f 29/29/29 36/36/36 30/30/30
f 30/30/30 36/36/36 37/37/37
f 30/30/30 37/37/37 31/31/31
f 31/31/31 37/37/37 38/38/38
f 31/31/31 38/38/38 32/32/32
f 32/32/32 38/38/38 39/39/39
f 32/32/32 39/39/39 33/33/33
f 33/33/33 39/39/39 40/40/40
f 33/33/33 40/40/40 34/34/34
f 34/34/34 40/40/40 41/41/41
f 34/34/34 41/41/41 35/35/35
f 35/35/35 41/41/41 42/42/42
f 36/36/36 43/43/43 37/37/37
f 37/37/37 43/43/43 44/44/44
f 37/37/37 44/44/44 38/38/38
f 38/38/38 44/44/44 45/45/45
f 38/38/38 45/45/45 39/39/39
f 39/39/39 45/45/45 46/46/46
f 39/39/39 46/46/46 40/40/40
f 40/40/40 46/46/46 47/47/47
f 40/40/40 47/47/47 41/41/41
f 41/41/41 47/47/47 48/48/48
f 41/41/41 48/48/48 42/42/42
f 42/42/42 48/48/48 49/49/49
f 43/43/43 50/50/50 44/44/44
f 44/44/44 50/50/50 51/51/51
f 44/44/44 51/51/51 45/45/45
f 45/45/45 51/51/51 52/52/52
f 45/45/45 52/52/52 46/46/46
f 46/46/46 52/52/52 53/53/53
f 46/46/46 53/53/53 47/47/47
f 47/47/47 53/53/53 54/54/54
f 47/47/47 54/54/54 48/48/48
f 48/48/48 54/54/54 55/55/55
f 48/48/48 55/55/55 49/49/49
f 49/49/49 55/55/55 56/56/56
f 50/50/50 57/57/57 51/51/51
f 51/51/51 57/57/57 58/58/58
f 51/51/51 58/58/58 52/52/52
f 52/52/52 58/58/58 59/59/59
f 52/52/52 59/59/59 53/53/53
f 53/53/53 59/59/59 60/60/60
f 53/53/53 60/60/60 54/54/54
f 54/54/54 60/60/60 61/61/61
f 54/54/54 61/61/61 55/55/55
f 55/55/55 61/61/61 62/62/62
f 55/55/55 62/62/62 56/56/56
f 56/56/56 62/62/62 63/63/63
f 57/57/57 64/64/64 58/58/58
f 58/58/58 64/64/64 65/65/65
f 58/58/58 65/65/65 59/59/59
f 59/59/59 65/65/65 66/66/66
f 59/59/59 66/66/66 60/60/60
f 60/60/60 66/66/66 67/67/67
f 60/60/60 67/67/67 61/61/61
f 61/61/61 67/67/67 68/68/68
f 61/61/61 68/68/68 62/62/62
f 62/62/62 68/68/68 69/69/69
f 62/62/62 69/69/69 63/63/63
f 63/63/63 69/69/69 70/70/70
f 64/64/64 71/71/71 65/65/65
f 65/65/65 71/71/71 72/72/72
f 65/65/65 72/72/72 66/66/66
f 66/66/66 72/72/72 73/73/73
f 66/66/66 73/73/73 67/67/67
f 67/67/67 73/73/73 74/74/74
f 67/67/67 74/74/74 68/68/68
f 68/68/68 74/74/74 75/75/75
f 68/68/68 75/75/75 69/69/69
f 69/69/69 75/75/75 76/76/76
f 69/69/69 76/76/76 70/70/70
f 70/70/70 76/76/76 77/77/77
f 71/71/71 78/78/78 72/72/72
f 72/72/72 78/78/78 79/79/79
f 72/72/72 79/79/79 73/73/73
f 73/73/73 79/79/79 80/80/80
f 73/73/73 80/80/80 74/74/74
f 74/74/74 80/80/80 81/81/81
f 74/74/74 81/81/81 75/75/75
f 75/75/75 81/81/81 82/82/82
f 75/75/75 82/82/82 76/76/76
f 76/76/76 82/82/82 83/83/83
f 76/76/76 83/83/83 77/77/77
f 77/77/77 83/83/83 84/84/84
f 78/78/78 85/85/85 79/79/79
f 79/79/79 85/85/85 86/86/86
f 79/79/79 86/86/86 80/80/80
f 80/80/80 86/86/86 87/87/87
f 80/80/80 87/87/87 81/81/81
f 81/81/81 87/87/87 88/88/88
f 81/81/81 88/88/88 82/82/82
f 82/82/82 88/88/88 89/89/89
f 82/82/82 89/89/89 83/83/83
f 83/83/83 89/89/89 90/90/90
f 83/83/83 90/90/90 84/84/84
f 84/84/84 90/90/90 91/91/91
f 85/85/85 92/92/92 86/86/86
f 86/86/86 92/92/92 93/93/93
f 86/86/86 93/93/93 87/87/87
f 87/87/87 93/93/93 94/94/94
f 87/87/87 94/94/94 88/88/88
f 88/88/88 94/94/94 95/95/95
f 88/88/88 95/95/95 89/89/89
f 89/89/89 95/95/95 96/96/96
f 89/89/89 96/96/96 90/90/90
f 90/90/90 96/96/96 97/97/97
f 90/90/90 97/97/97 91/91/91
f 91/91/91 97/97/97 98/98/98
f 92/92/92 99/99/99 93/93/93
f 93/93/93 99/99/99 100/100/100
f 93/93/93 100/100/100 94/94/94
f 94/94/94 100/100/100 101/101/101
f 94/94/94 101/101/101 95/95/95
f 95/95/95 101/101/101 102/102/102
f 95/95/95 102/102/102 96/96/96
f 96/96/96 102/102/102 103/103/103
f 96/96/96 103/103/103 97/97/97
f 97/97/97 103/103/103 104/104/104
f 97/97/97 104/104/104 98/98/98
f 98/98/98 104/104/104 105/105/105
f 99/99/99 106/106/106 100/100/100
f 100/100/100 106/106/106 107/107/107
f 100/100/100 107/107/107 101/101/101
f 101/101/101 107/107/107 108/108/108
f 101/101/101 108/108/108 102/102/102
f 102/102/102 108/108/108 109/109/109
f 102/102/102 109/109/109 103/103/103
f 103/103/103 109/109/109 110/110/110
f 103/103/103 110/110/110 104/104/104
f 104/104/104 110/110/110 111/111/111
f 104/104/104 111/111/111 105/105/105
f 105/105/105 111/111/111 112/112/112
f 106/106/106 113/113/113 107/107/107
f 107/107/107 113/113/113 114/114/114
f 107/107/107 114/114/114 108/108/108
f 108/108/108 114/114/114 115/115/115
f 108/108/108 115/115/115 109/109/109
f 109/109/109 115/115/115 116/116/116
f 109/109/109 116/116/116 110/110/110
f 110/110/110 116/116/116 117/117/117
f 110/110/110 117/117/117 111/111/111
f 111/111/111 117/117/117 118/118/118
f 111/111/111 118/118/118 112/112/112
f 112/112/112 118/118/118 119/119/119
f 113/113/113 120/120/120 114/114/114
f 114/114/114 120/120/120 121/121/121
f 114/114/114 121/121/121 115/115/115
f 115/115/115 121/121/121 122/122/122
f 115/115/115 122/122/122 116/116/116
f 116/116/116 122/122/122 123/123/123
f 116/116/116 123/123/123 117/117/117
f 117/117/117 123/123/123 124/124/124
f 117/117/117 124/124/124 118/118/118
f 118/118/118 124/124/124 125/125/125
f 118/118/118 125/125/125 119/119/119
f 119/119/119 125/125/125 126/126/126
f 120/120/120 127/127/127 121/121/121
f 121/121/121 127/127/127 128/128/128
f 121/121/121 128/128/128 122/122/122
f 122/122/122 128/128/128 129/129/129
f 122/122/122 129/129/129 123/123/123
f 123/123/123 129/129/129 130/130/130
f 123/123/123 130/130/130 124/124/124
f 124/124/124 130/130/130 131/131/131
f 124/124/124 131/131/131 125/125/125
f 125/125/125 131/131/131 132/132/132
f 125/125/125 132/132/132 126/126/126
f 126/126/126 132/132/132 133/133/133
f 127/127/127 134/134/134 128/128/128
f 128/128/128 134/134/134 135/135/135
f 128/128/128 135/135/135 129/129/129
f 129/129/129 135/135/135 136/136/136
f 129/129/129 136/136/136 130/130/130
f 130/130/130 136/136/136 137/137/137
f 130/130/130 137/137/137 131/131/131
f 131/131/131 137/137/137 138/138/138
f 131/131/131 138/138/138 132/132/132
f 132/132/132 138/138/138 139/139/139
f 132/132/132 139/139/139 133/133/133
f 133/133/133 139/139/139 140/140/140
f 134/134/134 141/141/141 135/135/135
f 135/135/135 141/141/141 142/142/142
f 135/135/135 142/142/142 136/136/136
f 136/136/136 142/142/142 143/143/143
f 136/136/136 143/143/143 137/137/137
f 137/137/137 143/143/143 144/144/144
f 137/137/137 144/144/144 138/138/138
f 138/138/138 144/144/144 145/145/145
f 138/138/138 145/145/145 139/139/139
f 139/139/139 145/145/145 146/146/146
f 139/139/139 146/146/146 140/140/140
f 140/140/140 146/146/146 147/147/147
f 148/148/148 149/149/149 153/153/153
f 148/148/148 153/153/153 152/152/152
f 149/149/149 150/150/150 154/154/154
f 149/149/149 154/154/154 153/153/153
f 150/150/150 151/151/151 155/155/155
f 150/150/150 155/155/155 154/154/154
f 151/151/151 148/148/148 152/152/152
f 151/151/151 152/152/152 155/155/155
f 152/152/152 153/153/153 157/157/157
f 152/152/152 157/157/157 156/156/156
f 153/153/153 154/154/154 158/158/158
f 153/153/153 158/158/158 157/157/157
f 154/154/154 155/155/155 159/159/159
f 154/154/154 159/159/159 158/158/158
f 155/155/155 152/152/152 156/156/156
f 155/155/155 156/156/156 159/159/159
f 156/156/156 157/157/157 161/161/161
f 156/156/156 161/161/161 160/160/160
f 157/157/157 158/158/158 162/162/162
f 157/157/157 162/162/162 161/161/161
f 158/158/158 159/159/159 163/163/163
f 158/158/158 163/163/163 162/162/162
f 159/159/159 156/156/156 160/160/160
f 159/159/159 160/160/160 163/163/163
f 160/160/160 161/161/161 165/165/165
f 160/160/160 165/165/165 164/164/164
f 161/161/161 162/162/162 166/166/166
f 161/161/161 166/166/166 165/165/165
f 162/162/162 163/163/163 167/167/167
f 162/162/162 167/167/167 166/166/166
f 163/163/163 160/160/160 164/164/164
f 163/163/163 164/164/164 167/167/167
f 164/164/164 165/165/165 169/169/169
f 164/164/164 169/169/169 168/168/168
f 165/165/165 166/166/166 170/170/170
f 165/165/165 170/170/170 169/169/169
f 166/166/166 167/167/167 171/171/171
f 166/166/166 171/171/171 170/170/170
f 167/167/167 164/164/164 168/168/168
f 167/167/167 168/168/168 171/171/171
f 168/168/168 169/169/169 173/173/173
f 168/168/168 173/173/173 172/172/172
f 169/169/169 170/170/170 174/174/174
f 169/169/169 174/174/174 173/173/173
f 170/170/170 171/171/171 175/175/175
f 170/170/170 175/175/175 174/174/174
f 171/171/171 168/168/168 172/172/172
f 171/171/171 172/172/172 175/175/175
f 172/172/172 173/173/173 177/177/177
f 172/172/172 177/177/177 176/176/176
f 173/173/173 174/174/174 178/178/178
f 173/173/173 178/178/178 177/177/177
f 174/174/174 175/175/175 179/179/179
f 174/174/174 179/179/179 178/178/178
f 175/175/175 172/172/172 176/176/176
f 175/175/175 176/176/176 179/179/179
f 176/176/176 177/177/177 181/181/181
f 176/176/176 181/181/181 180/180/180
f 177/177/177 178/178/178 182/182/182
f 177/177/177 182/182/182 181/181/181
f 178/178/178 179/179/179 183/183/183
f 178/178/178 183/183/183 182/182/182
f 179/179/179 176/176/176 180/180/180
f 179/179/179 180/180/180 183/183/183
f 180/180/180 181/181/181 185/185/185
f 180/180/180 185/185/185 184/184/184
f 181/181/181 182/182/182 186/186/186
f 181/181/181 186/186/186 185/185/185
f 182/182/182 183/183/183 187/187/187
f 182/182/182 187/187/187 186/186/186
f 183/183/183 180/180/180 184/184/184
f 183/183/183 184/184/184 187/187/187
f 184/184/184 185/185/185 189/189/189
f 184/184/184 189/189/189 188/188/188
f 185/185/185 186/186/186 190/190/190
f 185/185/185 190/190/190 189/189/189
f 186/186/186 187/187/187 191/191/191
f 186/186/186 191/191/191 190/190/190
f 187/187/187 184/184/184 188/188/188
f 187/187/187 188/188/188 191/191/191
f 148/148/148 150/150/150 149/149/149
f 188/188/188 189/189/189 190/190/190
f 148/148/148 151/151/151 150/150/150
f 188/188/188 190/190/190 191/191/191
f 192/192/192 193/193/193 197/197/197
f 192/192/192 197/197/197 196/196/196
f 193/193/193 194/194/194 198/198/198
f 193/193/193 198/198/198 197/197/197
f 194/194/194 195/195/195 199/199/199
f 194/194/194 199/199/199 198/198/198
f 195/195/195 192/192/192 196/196/196
f 195/195/195 196/196/196 199/199/199
f 196/196/196 197/197/197 201/201/201
f 196/196/196 201/201/201 200/200/200
f 197/197/197 198/198/198 202/202/202
f 197/197/197 202/202/202 201/201/201
f 198/198/198 199/199/199 203/203/203
f 198/198/198 203/203/203 202/202/202
f 199/199/199 196/196/196 200/200/200
f 199/199/199 200/200/200 203/203/203
f 200/200/200 201/201/201 205/205/205
f 200/200/200 205/205/205 204/204/204
f 201/201/201 202/202/202 206/206/206
f 201/201/201 206/206/206 205/205/205
f 202/202/202 203/203/203 207/207/207
f 202/202/202 207/207/207 206/206/206
f 203/203/203 200/200/200 204/204/204
f 203/203/203 204/204/204 207/207/207
f 204/204/204 205/205/205 209/209/209
f 204/204/204 209/209/209 208/208/208
f 205/205/205 206/206/206 210/210/210
f 205/205/205 210/210/210 209/209/209
f 206/206/206 207/207/207 211/211/211
f 206/206/206 211/211/211 210/210/210
f 207/207/207 204/204/204 208/208/208
f 207/207/207 208/208/208 211/211/211
f 208/208/208 209/209/209 213/213/213
f 208/208/208 213/213/213 212/212/212
f 209/209/209 210/210/210 214/214/214
f 209/209/209 214/214/214 213/213/213
f 210/210/210 211/211/211 215/215/215
f 210/210/210 215/215/215 214/214/214
f 211/211/211 208/208/208 212/212/212
f 211/211/211 212/212/212 215/215/215
f 212/212/212 213/213/213 217/217/217
f 212/212/212 217/217/217 216/216/216
f 213/213/213 214/214/214 218/218/218
f 213/213/213 218/218/218 217/217/217
f 214/214/214 215/215/215 219/219/219
f 214/214/214 219/219/219 218/218/218
f 215/215/215 212/212/212 216/216/216
f 215/215/215 216/216/216 219/219/219
f 216/216/216 217/217/217 221/221/221
f 216/216/216 221/221/221 220/220/220
f 217/217/217 218/218/218 222/222/222
f 217/217/217 222/222/222 221/221/221
f 218/218/218 219/219/219 223/223/223
f 218/218/218 223/223/223 222/222/222
f 219/219/219 216/216/216 220/220/220
f 219/219/219 220/220/220 223/223/223
f 220/220/220 221/221/221 225/225/225
f 220/220/220 225/225/225 224/224/224
f 221/221/221 222/222/222 226/226/226
f 221/221/221 226/226/226 225/225/225
f 222/222/222 223/223/223 227/227/227
f 222/222/222 227/227/227 226/226/226
f 223/223/223 220/220/220 224/224/224
f 223/223/223 224/224/224 227/227/227
f 224/224/224 225/225/225 229/229/229
f 224/224/224 229/229/229 228/228/228
f 225/225/225 226/226/226 230/230/230
f 225/225/225 230/230/230 229/229/229
f 226/226/226 227/227/227 231/231/231
f 226/226/226 231/231/231 230/230/230
f 227/227/227 224/224/224 228/228/228
f 227/227/227 228/228/228 231/231/231
f 228/228/228 229/229/229 233/233/233
f 228/228/228 233/233/233 232/232/232
f 229/229/229 230/230/230 234/234/234
f 229/229/229 234/234/234 233/233/233
f 230/230/230 231/231/231 235/235/235
f 230/230/230 235/235/235 234/234/234
f 231/231/231 228/228/228 232/232/232
f 231/231/231 232/232/232 235/235/235
f 192/192/192 194/194/194 193/193/193
f 232/232/232 233/233/233 234/234/234
f 192/192/192 195/195/195 194/194/194
f 232/232/232 234/234/234 235/235/235
