# Reference-led flame ribbon, Y up, longitudinal flow UVs
o inferno_dome_06_v20
v 4.1913225 0.0400000 -0.2698444
v 4.1999921 0.0400000 -0.0081224
v 4.1923348 0.0400000 0.2536312
v 4.1683802 0.0400000 0.5143988
v 4.1282216 0.0400000 0.7731667
v 4.0720148 0.0400000 1.0289291
v 3.9999786 0.0400000 1.2806916
v 4.3539023 0.6157406 -0.6517954
v 4.3925380 0.5722029 -0.2968204
v 4.4270862 0.5530254 0.0604679
v 4.4301444 0.5875406 0.4211811
v 4.3815229 0.6229566 0.7788294
v 4.2874428 0.6051038 1.1269954
v 4.1703950 0.5612885 1.4666585
v 4.4337630 1.1878011 -1.0193595
v 4.5285547 1.1017979 -0.5898900
v 4.6388717 1.0639151 -0.1535104
v 4.6936024 1.1320955 0.2978349
v 4.6407657 1.2020554 0.7480729
v 4.4947615 1.1667895 1.1777781
v 4.3143170 1.0802377 1.5881728
v 4.4577743 1.7525347 -1.3635680
v 4.6414378 1.6261835 -0.8813864
v 4.8448253 1.5705283 -0.3809752
v 4.9455041 1.6706951 0.1519376
v 4.8671822 1.7734763 0.6853933
v 4.6508118 1.7216655 1.1830210
v 4.4076286 1.5945086 1.6503585
v 4.4683145 2.3063603 -1.6815955
v 4.7496004 2.1427723 -1.1634295
v 5.0269798 2.0707150 -0.6087161
v 5.1409816 2.2004018 -0.0040264
v 5.0152808 2.3334735 0.5993298
v 4.7347744 2.2663936 1.1519392
v 4.4612994 2.1017625 1.6709821
v 4.4858784 2.8457942 -1.9676773
v 4.8343037 2.6489975 -1.4169757
v 5.1398214 2.5623124 -0.8130136
v 5.2368663 2.7183259 -0.1500074
v 5.0707943 2.8784115 0.5067597
v 4.7664304 2.7977142 1.1052194
v 4.5095601 2.5996627 1.6773205
v 4.4925046 3.3674805 -2.1980065
v 4.8532844 3.1423210 -1.6091947
v 5.1472497 3.0431426 -0.9648683
v 5.2292049 3.2216412 -0.2640079
v 5.0646800 3.4047987 0.4285482
v 4.7883729 3.3124712 1.0671152
v 4.5741537 3.0858759 1.6911408
v 4.4499474 3.8682195 -2.3330985
v 4.7784767 3.6202412 -1.7079477
v 5.0566883 3.5110117 -1.0442816
v 5.1607831 3.7076001 -0.3308959
v 5.0480859 3.9093197 0.3823261
v 4.8249746 3.8076352 1.0547407
v 4.6350067 3.5580757 1.7173619
v 4.3353131 4.3449931 -2.3418470
v 4.6248184 4.0803021 -1.7023947
v 4.9195423 3.9637110 -1.0492978
v 5.0893481 4.1735486 -0.3444531
v 5.0471663 4.3888632 0.3791806
v 4.8529854 4.2803257 1.0727505
v 4.6349289 4.0139469 1.7452139
v 4.1642168 4.7949887 -2.2256996
v 4.4452792 4.5201027 -1.6083154
v 4.7952377 4.3990208 -0.9892798
v 5.0407062 4.6169407 -0.3015401
v 5.0353494 4.8405486 0.4237170
v 4.8109045 4.7278306 1.1145286
v 4.5180903 4.4511917 1.7594304
v 3.9834585 5.2156195 -2.0177890
v 4.2945389 4.9373070 -1.4510184
v 4.7057146 4.8147158 -0.8699057
v 4.9842779 5.0353522 -0.1982948
v 4.9475375 5.2617473 0.5127649
v 4.6422080 5.1476242 1.1671036
v 4.2722416 4.8675370 1.7528373
v 3.8378344 5.6045416 -1.7561045
v 4.1874067 5.3296556 -1.2430681
v 4.6152507 5.2085737 -0.6881249
v 4.8516203 5.4264937 -0.0361117
v 4.7267023 5.6501015 0.6329695
v 4.3383262 5.5373835 1.2179016
v 3.9395113 5.2607446 1.7321813
v 3.7334506 5.9596678 -1.4569515
v 4.0826856 5.6949769 -0.9808964
v 4.4522363 5.5783857 -0.4445126
v 4.5849834 5.7882234 0.1686545
v 4.3665054 6.0035379 0.7632381
v 3.9462163 5.8950004 1.2611393
v 3.5859231 5.6286217 1.7127871
v 3.6243835 6.2791781 -1.1156478
v 3.9067057 6.0311998 -0.6644343
v 4.1584449 5.9219703 -0.1594034
v 4.1789759 6.1185587 0.3848629
v 3.9160207 6.3202783 0.8838667
v 3.5341192 6.2185939 1.2986131
v 3.2543782 5.9690343 1.7037277
v 3.4367392 6.5615267 -0.7332042
v 3.6023353 6.3363671 -0.3180442
v 3.7293576 6.2371887 0.1271152
v 3.6829607 6.4156873 0.5800170
v 3.4431995 6.5988448 0.9839047
v 3.1438298 6.5065173 1.3309220
v 2.9395896 6.2799220 1.6932570
v 3.1170975 6.8054452 -0.3396257
v 3.1675781 6.6086485 0.0114325
v 3.2143172 6.5219634 0.3737149
v 3.1631490 6.6779769 0.7335700
v 2.9878585 6.8380625 1.0569822
v 2.7686375 6.7573653 1.3447762
v 2.6038875 6.5593137 1.6481223
v 2.6690517 7.0099430 0.0122112
v 2.6529865 6.8463550 0.2784572
v 2.6773598 6.7742977 0.5555028
v 2.6570304 6.9039845 0.8352709
v 2.5431662 7.0370563 1.0889981
v 2.3729465 6.9699764 1.3105081
v 2.2173282 6.8053452 1.5319328
v 2.1469222 7.1743041 0.2754708
v 2.1207996 7.0479529 0.4587372
v 2.1533585 6.9922977 0.6624137
v 2.1586517 7.0924645 0.8718233
v 2.0784344 7.1952457 1.0538169
v 1.9330071 7.1434349 1.1975689
v 1.7862472 7.0162780 1.3301358
v 1.6125613 7.2980812 0.4292763
v 1.6031232 7.2120779 0.5452595
v 1.6374857 7.1741951 0.6836948
v 1.6440956 7.2423755 0.8211266
v 1.5789781 7.3123354 0.9270057
v 1.4617123 7.2770695 0.9969018
v 1.3477982 7.1905178 1.0595412
v 1.0960590 7.3810866 0.4705802
v 1.0963244 7.3375489 0.5302208
v 1.1132830 7.3183714 0.6015573
v 1.1093462 7.3528866 0.6654744
v 1.0658025 7.3883026 0.7063231
v 0.9982176 7.3704498 0.7281091
v 0.9394676 7.3266345 0.7521625
v 0.5869737 7.4233818 0.4062768
v 0.5859207 7.4233818 0.4077939
v 0.5848638 7.4233818 0.4093082
v 0.5838031 7.4233818 0.4108198
v 0.5827384 7.4233818 0.4123287
v 0.5816698 7.4233818 0.4138348
v 0.5805973 7.4233818 0.4153381
v 4.3657375 0.1006378 -1.4472563
v 4.3664590 0.1000000 -1.4469348
v 4.3671228 0.0994525 -1.4467915
v 4.3665069 0.1000000 -1.4470776
v 4.5231212 0.5922134 -1.4036583
v 4.6514133 0.4783701 -1.3343439
v 4.7799605 0.3745990 -1.2998866
v 4.6635561 0.4783701 -1.3643979
v 4.7682478 0.9812987 -1.3150031
v 4.9070465 0.8567401 -1.2067964
v 5.1087393 0.6974728 -1.1083365
v 4.9283023 0.8567401 -1.2418162
v 4.9223548 1.4096323 -1.2765321
v 5.1004281 1.2351102 -1.0524892
v 5.2862607 1.0857766 -0.8924880
v 5.1364909 1.2351102 -1.0866610
v 5.1382407 1.7697596 -1.1621707
v 5.2088529 1.6134802 -0.8782550
v 5.3260363 1.4704136 -0.6371360
v 5.2637131 1.6134802 -0.8978775
v 5.2968078 2.1336399 -0.9412376
v 5.2276429 1.9918503 -0.6915762
v 5.2022362 1.8107564 -0.3624260
v 5.2829132 1.9918503 -0.6825457
v 5.3104926 2.5405515 -0.6928565
v 5.1498886 2.3702203 -0.4894842
v 5.0485022 2.2249323 -0.2927018
v 5.1883183 2.3702203 -0.4643234
v 5.1118616 2.8880449 -0.3823963
v 4.9688842 2.7485904 -0.2840688
v 4.8621115 2.6203718 -0.1652698
v 4.9946053 2.7485904 -0.2544832
v 4.8187460 3.2495159 -0.1417351
v 4.6985014 3.1269605 -0.0899043
v 4.5648649 2.9706204 0.0094005
v 4.7158639 3.1269605 -0.0607384
v 4.4611950 3.6104790 0.0549762
v 4.3635728 3.5053305 0.0861671
v 4.2886803 3.4159211 0.1310879
v 4.3723467 3.5053305 0.1060541
v 3.9932700 3.8842325 0.2396768
v 3.9927790 3.8837006 0.2397956
v 3.9923701 3.8832093 0.2400216
v 3.9928253 3.8837006 0.2399165
v 4.3661540 0.1004677 1.4465326
v 4.3664301 0.1000000 1.4470429
v 4.3667754 0.0995841 1.4474272
v 4.3665357 0.1000000 1.4469695
v 4.4595797 0.6022679 1.5643865
v 4.5250579 0.4783701 1.7091657
v 4.6470106 0.3190943 1.8722888
v 4.5581158 0.4783701 1.6890422
v 4.5695812 1.0577584 1.6933840
v 4.6516386 0.8567401 1.9645174
v 4.7680945 0.6813501 2.1828908
v 4.6995533 0.8567401 1.9450862
v 4.7188082 1.3668099 1.9851739
v 4.7224862 1.2351102 2.2014085
v 4.7669449 1.1175323 2.3895555
v 4.7659939 1.2351102 2.1962295
v 4.7872035 1.7179437 2.2286707
v 4.7100063 1.6134802 2.4085553
v 4.6573150 1.4792868 2.6538331
v 4.7506927 1.6134802 2.4209851
v 4.8629913 2.1737334 2.3576308
v 4.6059915 1.9918503 2.5671264
v 4.4190673 1.8336877 2.7870903
v 4.6451003 1.9918503 2.6075524
v 4.7025728 2.5611274 2.6049404
v 4.4205413 2.3702203 2.6761054
v 4.1873933 2.1990783 2.7936429
v 4.4413002 2.3702203 2.7327796
v 4.3331083 2.8917279 2.7457179
v 4.1549933 2.7485904 2.7372704
v 3.9301468 2.5648641 2.7762543
v 4.1583003 2.7485904 2.7809099
v 3.9453496 3.2453502 2.7635941
v 3.8219147 3.1269605 2.7379096
v 3.7124666 3.0243525 2.7395118
v 3.8192709 3.1269605 2.7634766
v 3.5141084 3.5772823 2.7011392
v 3.4480722 3.5053305 2.6770889
v 3.3849258 3.4405586 2.6716410
v 3.4441781 3.5053305 2.6941422
v 3.0598971 3.8842834 2.5770193
v 3.0593895 3.8837006 2.5767968
v 3.0586911 3.8829532 2.5766802
v 3.0593480 3.8837006 2.5769447
vt 0.0000000 0.5500000
vt 0.1666667 0.5500000
vt 0.3333333 0.5500000
vt 0.5000000 0.5500000
vt 0.6666667 0.5500000
vt 0.8333333 0.5500000
vt 1.0000000 0.5500000
vt 0.0000000 0.6325000
vt 0.1666667 0.6325000
vt 0.3333333 0.6325000
vt 0.5000000 0.6325000
vt 0.6666667 0.6325000
vt 0.8333333 0.6325000
vt 1.0000000 0.6325000
vt 0.0000000 0.7150000
vt 0.1666667 0.7150000
vt 0.3333333 0.7150000
vt 0.5000000 0.7150000
vt 0.6666667 0.7150000
vt 0.8333333 0.7150000
vt 1.0000000 0.7150000
vt 0.0000000 0.7975000
vt 0.1666667 0.7975000
vt 0.3333333 0.7975000
vt 0.5000000 0.7975000
vt 0.6666667 0.7975000
vt 0.8333333 0.7975000
vt 1.0000000 0.7975000
vt 0.0000000 0.8800000
vt 0.1666667 0.8800000
vt 0.3333333 0.8800000
vt 0.5000000 0.8800000
vt 0.6666667 0.8800000
vt 0.8333333 0.8800000
vt 1.0000000 0.8800000
vt 0.0000000 0.9625000
vt 0.1666667 0.9625000
vt 0.3333333 0.9625000
vt 0.5000000 0.9625000
vt 0.6666667 0.9625000
vt 0.8333333 0.9625000
vt 1.0000000 0.9625000
vt 0.0000000 1.0450000
vt 0.1666667 1.0450000
vt 0.3333333 1.0450000
vt 0.5000000 1.0450000
vt 0.6666667 1.0450000
vt 0.8333333 1.0450000
vt 1.0000000 1.0450000
vt 0.0000000 1.1275000
vt 0.1666667 1.1275000
vt 0.3333333 1.1275000
vt 0.5000000 1.1275000
vt 0.6666667 1.1275000
vt 0.8333333 1.1275000
vt 1.0000000 1.1275000
vt 0.0000000 1.2100000
vt 0.1666667 1.2100000
vt 0.3333333 1.2100000
vt 0.5000000 1.2100000
vt 0.6666667 1.2100000
vt 0.8333333 1.2100000
vt 1.0000000 1.2100000
vt 0.0000000 1.2925000
vt 0.1666667 1.2925000
vt 0.3333333 1.2925000
vt 0.5000000 1.2925000
vt 0.6666667 1.2925000
vt 0.8333333 1.2925000
vt 1.0000000 1.2925000
vt 0.0000000 1.3750000
vt 0.1666667 1.3750000
vt 0.3333333 1.3750000
vt 0.5000000 1.3750000
vt 0.6666667 1.3750000
vt 0.8333333 1.3750000
vt 1.0000000 1.3750000
vt 0.0000000 1.4575000
vt 0.1666667 1.4575000
vt 0.3333333 1.4575000
vt 0.5000000 1.4575000
vt 0.6666667 1.4575000
vt 0.8333333 1.4575000
vt 1.0000000 1.4575000
vt 0.0000000 1.5400000
vt 0.1666667 1.5400000
vt 0.3333333 1.5400000
vt 0.5000000 1.5400000
vt 0.6666667 1.5400000
vt 0.8333333 1.5400000
vt 1.0000000 1.5400000
vt 0.0000000 1.6225000
vt 0.1666667 1.6225000
vt 0.3333333 1.6225000
vt 0.5000000 1.6225000
vt 0.6666667 1.6225000
vt 0.8333333 1.6225000
vt 1.0000000 1.6225000
vt 0.0000000 1.7050000
vt 0.1666667 1.7050000
vt 0.3333333 1.7050000
vt 0.5000000 1.7050000
vt 0.6666667 1.7050000
vt 0.8333333 1.7050000
vt 1.0000000 1.7050000
vt 0.0000000 1.7875000
vt 0.1666667 1.7875000
vt 0.3333333 1.7875000
vt 0.5000000 1.7875000
vt 0.6666667 1.7875000
vt 0.8333333 1.7875000
vt 1.0000000 1.7875000
vt 0.0000000 1.8700000
vt 0.1666667 1.8700000
vt 0.3333333 1.8700000
vt 0.5000000 1.8700000
vt 0.6666667 1.8700000
vt 0.8333333 1.8700000
vt 1.0000000 1.8700000
vt 0.0000000 1.9525000
vt 0.1666667 1.9525000
vt 0.3333333 1.9525000
vt 0.5000000 1.9525000
vt 0.6666667 1.9525000
vt 0.8333333 1.9525000
vt 1.0000000 1.9525000
vt 0.0000000 2.0350000
vt 0.1666667 2.0350000
vt 0.3333333 2.0350000
vt 0.5000000 2.0350000
vt 0.6666667 2.0350000
vt 0.8333333 2.0350000
vt 1.0000000 2.0350000
vt 0.0000000 2.1175000
vt 0.1666667 2.1175000
vt 0.3333333 2.1175000
vt 0.5000000 2.1175000
vt 0.6666667 2.1175000
vt 0.8333333 2.1175000
vt 1.0000000 2.1175000
vt 0.0000000 2.2000000
vt 0.1666667 2.2000000
vt 0.3333333 2.2000000
vt 0.5000000 2.2000000
vt 0.6666667 2.2000000
vt 0.8333333 2.2000000
vt 1.0000000 2.2000000
vt 1.0000000 0.4500000
vt 0.5000000 0.4500000
vt 0.0000000 0.4500000
vt 0.5000000 0.4500000
vt 1.0000000 0.6300000
vt 0.5000000 0.6300000
vt 0.0000000 0.6300000
vt 0.5000000 0.6300000
vt 1.0000000 0.8100000
vt 0.5000000 0.8100000
vt 0.0000000 0.8100000
vt 0.5000000 0.8100000
vt 1.0000000 0.9900000
vt 0.5000000 0.9900000
vt 0.0000000 0.9900000
vt 0.5000000 0.9900000
vt 1.0000000 1.1700000
vt 0.5000000 1.1700000
vt 0.0000000 1.1700000
vt 0.5000000 1.1700000
vt 1.0000000 1.3500000
vt 0.5000000 1.3500000
vt 0.0000000 1.3500000
vt 0.5000000 1.3500000
vt 1.0000000 1.5300000
vt 0.5000000 1.5300000
vt 0.0000000 1.5300000
vt 0.5000000 1.5300000
vt 1.0000000 1.7100000
vt 0.5000000 1.7100000
vt 0.0000000 1.7100000
vt 0.5000000 1.7100000
vt 1.0000000 1.8900000
vt 0.5000000 1.8900000
vt 0.0000000 1.8900000
vt 0.5000000 1.8900000
vt 1.0000000 2.0700000
vt 0.5000000 2.0700000
vt 0.0000000 2.0700000
vt 0.5000000 2.0700000
vt 1.0000000 2.2500000
vt 0.5000000 2.2500000
vt 0.0000000 2.2500000
vt 0.5000000 2.2500000
vt 1.0000000 0.4500000
vt 0.5000000 0.4500000
vt 0.0000000 0.4500000
vt 0.5000000 0.4500000
vt 1.0000000 0.6300000
vt 0.5000000 0.6300000
vt 0.0000000 0.6300000
vt 0.5000000 0.6300000
vt 1.0000000 0.8100000
vt 0.5000000 0.8100000
vt 0.0000000 0.8100000
vt 0.5000000 0.8100000
vt 1.0000000 0.9900000
vt 0.5000000 0.9900000
vt 0.0000000 0.9900000
vt 0.5000000 0.9900000
vt 1.0000000 1.1700000
vt 0.5000000 1.1700000
vt 0.0000000 1.1700000
vt 0.5000000 1.1700000
vt 1.0000000 1.3500000
vt 0.5000000 1.3500000
vt 0.0000000 1.3500000
vt 0.5000000 1.3500000
vt 1.0000000 1.5300000
vt 0.5000000 1.5300000
vt 0.0000000 1.5300000
vt 0.5000000 1.5300000
vt 1.0000000 1.7100000
vt 0.5000000 1.7100000
vt 0.0000000 1.7100000
vt 0.5000000 1.7100000
vt 1.0000000 1.8900000
vt 0.5000000 1.8900000
vt 0.0000000 1.8900000
vt 0.5000000 1.8900000
vt 1.0000000 2.0700000
vt 0.5000000 2.0700000
vt 0.0000000 2.0700000
vt 0.5000000 2.0700000
vt 1.0000000 2.2500000
vt 0.5000000 2.2500000
vt 0.0000000 2.2500000
vt 0.5000000 2.2500000
vn 0.9561907 -0.2910258 -0.0316743
vn 0.9355175 -0.3481645 -0.0599044
vn 0.9181088 -0.3961502 -0.0118880
vn 0.9083234 -0.4106586 0.0794242
vn 0.9022986 -0.3976804 0.1664560
vn 0.8952456 -0.3849382 0.2244059
vn 0.8880226 -0.3822148 0.2555927
vn 0.9448762 -0.3086159 -0.1093854
vn 0.9263025 -0.3518296 -0.1348315
vn 0.9108284 -0.4071897 -0.0677362
vn 0.9087751 -0.4108066 0.0732512
vn 0.9005615 -0.3922149 0.1875004
vn 0.8936763 -0.3729326 0.2495275
vn 0.8921737 -0.3514142 0.2837853
vn 0.9375275 -0.2672699 -0.2227309
vn 0.8955123 -0.3541139 -0.2695572
vn 0.8883148 -0.4266501 -0.1699015
vn 0.9092981 -0.4136301 0.0456853
vn 0.9057480 -0.3640445 0.2170072
vn 0.8985298 -0.3101006 0.3106152
vn 0.8955988 -0.2619459 0.3595653
vn 0.8854761 -0.2894822 -0.3634998
vn 0.8269288 -0.3929624 -0.4022055
vn 0.8645335 -0.4374221 -0.2474746
vn 0.9275290 -0.3714819 0.0411226
vn 0.9235890 -0.2678780 0.2742713
vn 0.8991473 -0.1864617 0.3959371
vn 0.8932263 -0.1445740 0.4257289
vn 0.8004418 -0.3389771 -0.4943556
vn 0.7731820 -0.4016277 -0.4908001
vn 0.8800401 -0.3805886 -0.2840454
vn 0.9671204 -0.2479251 0.0566682
vn 0.9368854 -0.1153259 0.3300693
vn 0.8926490 -0.0611179 0.4465896
vn 0.9015532 -0.0729149 0.4264801
vn 0.7535089 -0.3303587 -0.5684078
vn 0.7914936 -0.3171426 -0.5224542
vn 0.9335477 -0.2171654 -0.2851805
vn 0.9959027 -0.0643656 0.0635203
vn 0.9392986 0.0176892 0.3426445
vn 0.9039322 -0.0082864 0.4275955
vn 0.9312846 -0.0796959 0.3554682
vn 0.7983491 -0.1992807 -0.5682657
vn 0.8704508 -0.0997969 -0.4820332
vn 0.9638617 0.0202807 -0.2656299
vn 0.9953618 0.0898874 0.0342819
vn 0.9513920 0.0649631 0.3010533
vn 0.9357620 -0.0340413 0.3509852
vn 0.9567295 -0.1116279 0.2687150
vn 0.8838254 0.0629380 -0.4635638
vn 0.9111661 0.1767469 -0.3722055
vn 0.9417343 0.2078839 -0.2644254
vn 0.9879842 0.1505467 -0.0349703
vn 0.9738480 0.0352057 0.2244562
vn 0.9585402 -0.0651294 0.2774146
vn 0.9627810 -0.0742054 0.2598966
vn 0.9016113 0.3088019 -0.3028835
vn 0.8899748 0.3522964 -0.2895377
vn 0.9053187 0.2857097 -0.3142737
vn 0.9817649 0.1417233 -0.1266976
vn 0.9872809 0.0103759 0.1586468
vn 0.9574896 -0.0062804 0.2883995
vn 0.9237508 0.0854453 0.3733410
vn 0.8795068 0.4246582 -0.2147865
vn 0.8615786 0.4108748 -0.2981011
vn 0.8654657 0.3024464 -0.3993687
vn 0.9650369 0.1588186 -0.2085194
vn 0.9838340 0.0911865 0.1541286
vn 0.8993514 0.1711313 0.4023445
vn 0.7884913 0.3015740 0.5360360
vn 0.8614755 0.4531578 -0.2291463
vn 0.8299117 0.4219874 -0.3649291
vn 0.8142596 0.3522411 -0.4614190
vn 0.9201414 0.3003751 -0.2512262
vn 0.9280469 0.3027919 0.2169011
vn 0.7580247 0.3707927 0.5365737
vn 0.6241735 0.4444935 0.6425208
vn 0.8378827 0.4617078 -0.2911675
vn 0.7918935 0.4626207 -0.3986059
vn 0.7486285 0.4915185 -0.4449324
vn 0.8027770 0.5448902 -0.2421647
vn 0.7935708 0.5336152 0.2924040
vn 0.6131190 0.4904553 0.6193050
vn 0.5238949 0.5021995 0.6879897
vn 0.8081930 0.5070565 -0.2995294
vn 0.7578561 0.5654325 -0.3254847
vn 0.6594458 0.6679861 -0.3448561
vn 0.6345959 0.7440305 -0.2090615
vn 0.6532420 0.6802691 0.3324287
vn 0.5279151 0.5417974 0.6540346
vn 0.4969846 0.5226609 0.6926990
vn 0.7796414 0.5974731 -0.1875772
vn 0.7138883 0.6838660 -0.1506345
vn 0.5627389 0.7965926 -0.2208282
vn 0.4975826 0.8444250 -0.1983887
vn 0.5609873 0.7595499 0.3292070
vn 0.4982167 0.5718269 0.6517623
vn 0.5044082 0.5472735 0.6678803
vn 0.7317718 0.6812722 0.0194500
vn 0.6478315 0.7598798 0.0538231
vn 0.4834118 0.8655888 -0.1306485
vn 0.4106647 0.8832908 -0.2261676
vn 0.5068542 0.8152624 0.2800822
vn 0.4805802 0.6180971 0.6220922
vn 0.4706748 0.6025206 0.6445418
vn 0.6518093 0.7192602 0.2404357
vn 0.5684557 0.7921719 0.2220852
vn 0.4241604 0.9005788 -0.0951099
vn 0.3567910 0.8901933 -0.2832949
vn 0.4531491 0.8695799 0.1961802
vn 0.4086424 0.6927547 0.5942241
vn 0.3372961 0.6763522 0.6548123
vn 0.5486534 0.7251758 0.4160522
vn 0.4835027 0.8119778 0.3269819
vn 0.3767356 0.9195474 -0.1118166
vn 0.3214231 0.8823777 -0.3436520
vn 0.3711944 0.9207338 0.1202662
vn 0.2558376 0.7652205 0.5907492
vn 0.1358183 0.7218547 0.6785862
vn 0.4300415 0.7328563 0.5272437
vn 0.3912593 0.8437815 0.3673540
vn 0.3349775 0.9293368 -0.1553166
vn 0.3009771 0.8725397 -0.3848211
vn 0.2706647 0.9590371 0.0835969
vn 0.0706071 0.7995469 0.5964389
vn -0.0552310 0.7269823 0.6844313
vn 0.2924969 0.7606378 0.5795478
vn 0.2832451 0.8862954 0.3664051
vn 0.2989454 0.9339986 -0.1956484
vn 0.2969882 0.8640985 -0.4063642
vn 0.1734375 0.9816121 0.0797319
vn -0.0916239 0.8023164 0.5898249
vn -0.1982432 0.7206281 0.6643755
vn 0.1306719 0.7952749 0.5919989
vn 0.1649986 0.9241577 0.3445403
vn 0.2792152 0.9279021 -0.2470556
vn 0.3054488 0.8579921 -0.4129776
vn 0.0705515 0.9903613 0.1191931
vn -0.2149523 0.7985964 0.5621738
vn -0.2903388 0.7374506 0.6098114
vn -0.0038295 0.8146722 0.5799090
vn 0.1085196 0.9676282 0.2278578
vn 0.3177008 0.8541652 -0.4116650
vn 0.3028711 0.8706560 -0.3875916
vn -0.1260669 0.9385708 0.3212351
vn -0.3132508 0.7746474 0.5493591
vn 0.1583849 0.9808908 0.1129934
vn -0.4342672 0.0591898 0.8988373
vn -0.3013603 -0.0563672 0.9518428
vn 0.4009212 -0.1165927 -0.9086629
vn 0.2690686 -0.0008763 -0.9631206
vn -0.7341908 0.2089444 0.6459923
vn -0.4098763 -0.0250735 0.9117964
vn 0.6236674 -0.2813879 -0.7292872
vn 0.3692473 -0.0212137 -0.9290890
vn -0.9430017 0.3327637 0.0040257
vn -0.5478405 -0.0137979 0.8364690
vn 0.8807524 -0.4730016 0.0233378
vn 0.5297903 -0.0336355 -0.8474615
vn -0.8033144 0.3241301 -0.4996254
vn -0.7542339 -0.0165203 0.6563980
vn 0.6352138 -0.4075817 0.6560340
vn 0.7304810 -0.0377927 -0.6818865
vn -0.1691947 0.3323161 -0.9278681
vn -0.9504869 -0.0083590 0.3106523
vn 0.4654710 -0.3498447 0.8129855
vn 0.9428762 -0.0181391 -0.3326492
vn 0.1616044 0.3480224 -0.9234524
vn -0.9913749 0.0110932 -0.1305864
vn -0.1687308 -0.3191010 0.9325794
vn 0.9862419 0.0217623 0.1638697
vn 0.6065965 0.4377368 -0.6636469
vn -0.8613002 0.0208365 -0.5076690
vn -0.7864562 -0.3066067 0.5361706
vn 0.8473244 0.0452308 0.5291460
vn 0.8593692 0.4882475 -0.1519837
vn -0.6799218 0.0075542 -0.7332457
vn -0.6934389 -0.4644851 0.5508140
vn 0.6631790 0.0237325 0.7480845
vn 0.8195094 0.5727805 -0.0180790
vn -0.5274726 0.0079826 -0.8495345
vn -0.8715315 -0.4901350 0.0141589
vn 0.5093129 0.0110457 0.8605105
vn 0.6173806 0.2957364 0.7289590
vn -0.4203992 0.0210895 -0.9070941
vn -0.6494216 -0.1808992 -0.7385981
vn 0.3995559 0.0100565 0.9166537
vn 0.4122143 0.0931696 0.9063105
vn -0.3454991 0.0421526 -0.9374719
vn -0.4465847 -0.0753006 -0.8915671
vn 0.3109607 -0.0241528 0.9501158
vn -0.8898590 0.0593470 0.4523592
vn -0.8221648 -0.0483686 0.5671909
vn 0.8546182 -0.1081307 -0.5078736
vn 0.7844998 -0.0005473 -0.6201289
vn -0.9795285 0.1451947 0.1394362
vn -0.8730080 -0.0321180 0.4866472
vn 0.9302267 -0.3083196 -0.1990411
vn 0.8506326 -0.0332422 -0.5247087
vn -0.4639403 0.4474989 -0.7645287
vn -0.9328801 -0.0037606 0.3601675
vn 0.1438630 -0.4572058 0.8776482
vn 0.9275976 -0.0158928 -0.3732428
vn 0.3672000 0.3775392 -0.8500755
vn -0.9943744 0.0084117 0.1055879
vn -0.0129062 -0.3589394 0.9332716
vn 0.9938294 -0.0081263 -0.1106218
vn 0.0663313 0.2690709 -0.9608335
vn -0.9416151 -0.0238897 -0.3358425
vn -0.0446483 -0.3521664 0.9348718
vn 0.9454118 -0.0396693 0.3234547
vn 0.4452483 0.2784975 -0.8509953
vn -0.6876426 -0.0094769 -0.7259875
vn -0.5782747 -0.3573941 0.7333947
vn 0.7015415 -0.0073898 0.7125903
vn 0.8976052 0.4407753 -0.0046909
vn -0.3879385 0.0210814 -0.9214441
vn -0.8585897 -0.3834017 0.3403336
vn 0.3565203 0.0364236 0.9335773
vn 0.7252717 0.4917314 0.4818517
vn -0.1220882 0.0210917 -0.9922951
vn -0.8207683 -0.3527837 -0.4493139
vn 0.0738464 0.0330558 0.9967216
vn 0.4796279 0.4703000 0.7407935
vn 0.0772340 0.0139349 -0.9969156
vn -0.4264778 -0.2663424 -0.8643949
vn -0.0990985 0.0218863 0.9948369
vn 0.0286089 0.2522282 0.9672448
vn 0.2007993 0.0166878 -0.9794902
vn -0.1078648 -0.2236264 -0.9686880
vn -0.2255484 0.0038739 0.9742243
vn -0.1986300 0.1003613 0.9749224
vn 0.2934581 0.0484823 -0.9547418
vn 0.1698415 -0.0853542 -0.9817681
vn -0.3210822 -0.0333653 0.9464634
s 1
f 1/1/1 8/8/8 2/2/2
f 2/2/2 8/8/8 9/9/9
f 2/2/2 9/9/9 3/3/3
f 3/3/3 9/9/9 10/10/10
f 3/3/3 10/10/10 4/4/4
f 4/4/4 10/10/10 11/11/11
f 4/4/4 11/11/11 5/5/5
f 5/5/5 11/11/11 12/12/12
f 5/5/5 12/12/12 6/6/6
f 6/6/6 12/12/12 13/13/13
f 6/6/6 13/13/13 7/7/7
f 7/7/7 13/13/13 14/14/14
f 8/8/8 15/15/15 9/9/9
f 9/9/9 15/15/15 16/16/16
f 9/9/9 16/16/16 10/10/10
f 10/10/10 16/16/16 17/17/17
f 10/10/10 17/17/17 11/11/11
f 11/11/11 17/17/17 18/18/18
f 11/11/11 18/18/18 12/12/12
f 12/12/12 18/18/18 19/19/19
f 12/12/12 19/19/19 13/13/13
f 13/13/13 19/19/19 20/20/20
f 13/13/13 20/20/20 14/14/14
f 14/14/14 20/20/20 21/21/21
f 15/15/15 22/22/22 16/16/16
f 16/16/16 22/22/22 23/23/23
f 16/16/16 23/23/23 17/17/17
f 17/17/17 23/23/23 24/24/24
f 17/17/17 24/24/24 18/18/18
f 18/18/18 24/24/24 25/25/25
f 18/18/18 25/25/25 19/19/19
f 19/19/19 25/25/25 26/26/26
f 19/19/19 26/26/26 20/20/20
f 20/20/20 26/26/26 27/27/27
f 20/20/20 27/27/27 21/21/21
f 21/21/21 27/27/27 28/28/28
f 22/22/22 29/29/29 23/23/23
f 23/23/23 29/29/29 30/30/30
f 23/23/23 30/30/30 24/24/24
f 24/24/24 30/30/30 31/31/31
f 24/24/24 31/31/31 25/25/25
f 25/25/25 31/31/31 32/32/32
f 25/25/25 32/32/32 26/26/26
f 26/26/26 32/32/32 33/33/33
f 26/26/26 33/33/33 27/27/27
f 27/27/27 33/33/33 34/34/34
f 27/27/27 34/34/34 28/28/28
f 28/28/28 34/34/34 35/35/35
f 29/29/29 36/36/36 30/30/30
f 30/30/30 36/36/36 37/37/37
f 30/30/30 37/37/37 31/31/31
f 31/31/31 37/37/37 38/38/38
f 31/31/31 38/38/38 32/32/32
f 32/32/32 38/38/38 39/39/39
f 32/32/32 39/39/39 33/33/33
f 33/33/33 39/39/39 40/40/40
f 33/33/33 40/40/40 34/34/34
f 34/34/34 40/40/40 41/41/41
f 34/34/34 41/41/41 35/35/35
f 35/35/35 41/41/41 42/42/42
f 36/36/36 43/43/43 37/37/37
f 37/37/37 43/43/43 44/44/44
f 37/37/37 44/44/44 38/38/38
f 38/38/38 44/44/44 45/45/45
f 38/38/38 45/45/45 39/39/39
f 39/39/39 45/45/45 46/46/46
f 39/39/39 46/46/46 40/40/40
f 40/40/40 46/46/46 47/47/47
f 40/40/40 47/47/47 41/41/41
f 41/41/41 47/47/47 48/48/48
f 41/41/41 48/48/48 42/42/42
f 42/42/42 48/48/48 49/49/49
f 43/43/43 50/50/50 44/44/44
f 44/44/44 50/50/50 51/51/51
f 44/44/44 51/51/51 45/45/45
f 45/45/45 51/51/51 52/52/52
f 45/45/45 52/52/52 46/46/46
f 46/46/46 52/52/52 53/53/53
f 46/46/46 53/53/53 47/47/47
f 47/47/47 53/53/53 54/54/54
f 47/47/47 54/54/54 48/48/48
f 48/48/48 54/54/54 55/55/55
f 48/48/48 55/55/55 49/49/49
f 49/49/49 55/55/55 56/56/56
f 50/50/50 57/57/57 51/51/51
f 51/51/51 57/57/57 58/58/58
f 51/51/51 58/58/58 52/52/52
f 52/52/52 58/58/58 59/59/59
f 52/52/52 59/59/59 53/53/53
f 53/53/53 59/59/59 60/60/60
f 53/53/53 60/60/60 54/54/54
f 54/54/54 60/60/60 61/61/61
f 54/54/54 61/61/61 55/55/55
f 55/55/55 61/61/61 62/62/62
f 55/55/55 62/62/62 56/56/56
f 56/56/56 62/62/62 63/63/63
f 57/57/57 64/64/64 58/58/58
f 58/58/58 64/64/64 65/65/65
f 58/58/58 65/65/65 59/59/59
f 59/59/59 65/65/65 66/66/66
f 59/59/59 66/66/66 60/60/60
f 60/60/60 66/66/66 67/67/67
f 60/60/60 67/67/67 61/61/61
f 61/61/61 67/67/67 68/68/68
f 61/61/61 68/68/68 62/62/62
f 62/62/62 68/68/68 69/69/69
f 62/62/62 69/69/69 63/63/63
f 63/63/63 69/69/69 70/70/70
f 64/64/64 71/71/71 65/65/65
f 65/65/65 71/71/71 72/72/72
f 65/65/65 72/72/72 66/66/66
f 66/66/66 72/72/72 73/73/73
f 66/66/66 73/73/73 67/67/67
f 67/67/67 73/73/73 74/74/74
f 67/67/67 74/74/74 68/68/68
f 68/68/68 74/74/74 75/75/75
f 68/68/68 75/75/75 69/69/69
f 69/69/69 75/75/75 76/76/76
f 69/69/69 76/76/76 70/70/70
f 70/70/70 76/76/76 77/77/77
f 71/71/71 78/78/78 72/72/72
f 72/72/72 78/78/78 79/79/79
f 72/72/72 79/79/79 73/73/73
f 73/73/73 79/79/79 80/80/80
f 73/73/73 80/80/80 74/74/74
f 74/74/74 80/80/80 81/81/81
f 74/74/74 81/81/81 75/75/75
f 75/75/75 81/81/81 82/82/82
f 75/75/75 82/82/82 76/76/76
f 76/76/76 82/82/82 83/83/83
f 76/76/76 83/83/83 77/77/77
f 77/77/77 83/83/83 84/84/84
f 78/78/78 85/85/85 79/79/79
f 79/79/79 85/85/85 86/86/86
f 79/79/79 86/86/86 80/80/80
f 80/80/80 86/86/86 87/87/87
f 80/80/80 87/87/87 81/81/81
f 81/81/81 87/87/87 88/88/88
f 81/81/81 88/88/88 82/82/82
f 82/82/82 88/88/88 89/89/89
f 82/82/82 89/89/89 83/83/83
f 83/83/83 89/89/89 90/90/90
f 83/83/83 90/90/90 84/84/84
f 84/84/84 90/90/90 91/91/91
f 85/85/85 92/92/92 86/86/86
f 86/86/86 92/92/92 93/93/93
f 86/86/86 93/93/93 87/87/87
f 87/87/87 93/93/93 94/94/94
f 87/87/87 94/94/94 88/88/88
f 88/88/88 94/94/94 95/95/95
f 88/88/88 95/95/95 89/89/89
f 89/89/89 95/95/95 96/96/96
f 89/89/89 96/96/96 90/90/90
f 90/90/90 96/96/96 97/97/97
f 90/90/90 97/97/97 91/91/91
f 91/91/91 97/97/97 98/98/98
f 92/92/92 99/99/99 93/93/93
f 93/93/93 99/99/99 100/100/100
f 93/93/93 100/100/100 94/94/94
f 94/94/94 100/100/100 101/101/101
f 94/94/94 101/101/101 95/95/95
f 95/95/95 101/101/101 102/102/102
f 95/95/95 102/102/102 96/96/96
f 96/96/96 102/102/102 103/103/103
f 96/96/96 103/103/103 97/97/97
f 97/97/97 103/103/103 104/104/104
f 97/97/97 104/104/104 98/98/98
f 98/98/98 104/104/104 105/105/105
f 99/99/99 106/106/106 100/100/100
f 100/100/100 106/106/106 107/107/107
f 100/100/100 107/107/107 101/101/101
f 101/101/101 107/107/107 108/108/108
f 101/101/101 108/108/108 102/102/102
f 102/102/102 108/108/108 109/109/109
f 102/102/102 109/109/109 103/103/103
f 103/103/103 109/109/109 110/110/110
f 103/103/103 110/110/110 104/104/104
f 104/104/104 110/110/110 111/111/111
f 104/104/104 111/111/111 105/105/105
f 105/105/105 111/111/111 112/112/112
f 106/106/106 113/113/113 107/107/107
f 107/107/107 113/113/113 114/114/114
f 107/107/107 114/114/114 108/108/108
f 108/108/108 114/114/114 115/115/115
f 108/108/108 115/115/115 109/109/109
f 109/109/109 115/115/115 116/116/116
f 109/109/109 116/116/116 110/110/110
f 110/110/110 116/116/116 117/117/117
f 110/110/110 117/117/117 111/111/111
f 111/111/111 117/117/117 118/118/118
f 111/111/111 118/118/118 112/112/112
f 112/112/112 118/118/118 119/119/119
f 113/113/113 120/120/120 114/114/114
f 114/114/114 120/120/120 121/121/121
f 114/114/114 121/121/121 115/115/115
f 115/115/115 121/121/121 122/122/122
f 115/115/115 122/122/122 116/116/116
f 116/116/116 122/122/122 123/123/123
f 116/116/116 123/123/123 117/117/117
f 117/117/117 123/123/123 124/124/124
f 117/117/117 124/124/124 118/118/118
f 118/118/118 124/124/124 125/125/125
f 118/118/118 125/125/125 119/119/119
f 119/119/119 125/125/125 126/126/126
f 120/120/120 127/127/127 121/121/121
f 121/121/121 127/127/127 128/128/128
f 121/121/121 128/128/128 122/122/122
f 122/122/122 128/128/128 129/129/129
f 122/122/122 129/129/129 123/123/123
f 123/123/123 129/129/129 130/130/130
f 123/123/123 130/130/130 124/124/124
f 124/124/124 130/130/130 131/131/131
f 124/124/124 131/131/131 125/125/125
f 125/125/125 131/131/131 132/132/132
f 125/125/125 132/132/132 126/126/126
f 126/126/126 132/132/132 133/133/133
f 127/127/127 134/134/134 128/128/128
f 128/128/128 134/134/134 135/135/135
f 128/128/128 135/135/135 129/129/129
f 129/129/129 135/135/135 136/136/136
f 129/129/129 136/136/136 130/130/130
f 130/130/130 136/136/136 137/137/137
f 130/130/130 137/137/137 131/131/131
f 131/131/131 137/137/137 138/138/138
f 131/131/131 138/138/138 132/132/132
f 132/132/132 138/138/138 139/139/139
f 132/132/132 139/139/139 133/133/133
f 133/133/133 139/139/139 140/140/140
f 134/134/134 141/141/141 135/135/135
f 135/135/135 141/141/141 142/142/142
f 135/135/135 142/142/142 136/136/136
f 136/136/136 142/142/142 143/143/143
f 136/136/136 143/143/143 137/137/137
f 137/137/137 143/143/143 144/144/144
f 137/137/137 144/144/144 138/138/138
f 138/138/138 144/144/144 145/145/145
f 138/138/138 145/145/145 139/139/139
f 139/139/139 145/145/145 146/146/146
f 139/139/139 146/146/146 140/140/140
f 140/140/140 146/146/146 147/147/147
f 148/148/148 149/149/149 153/153/153
f 148/148/148 153/153/153 152/152/152
f 149/149/149 150/150/150 154/154/154
f 149/149/149 154/154/154 153/153/153
f 150/150/150 151/151/151 155/155/155
f 150/150/150 155/155/155 154/154/154
f 151/151/151 148/148/148 152/152/152
f 151/151/151 152/152/152 155/155/155
f 152/152/152 153/153/153 157/157/157
f 152/152/152 157/157/157 156/156/156
f 153/153/153 154/154/154 158/158/158
f 153/153/153 158/158/158 157/157/157
f 154/154/154 155/155/155 159/159/159
f 154/154/154 159/159/159 158/158/158
f 155/155/155 152/152/152 156/156/156
f 155/155/155 156/156/156 159/159/159
f 156/156/156 157/157/157 161/161/161
f 156/156/156 161/161/161 160/160/160
f 157/157/157 158/158/158 162/162/162
f 157/157/157 162/162/162 161/161/161
f 158/158/158 159/159/159 163/163/163
f 158/158/158 163/163/163 162/162/162
f 159/159/159 156/156/156 160/160/160
f 159/159/159 160/160/160 163/163/163
f 160/160/160 161/161/161 165/165/165
f 160/160/160 165/165/165 164/164/164
f 161/161/161 162/162/162 166/166/166
f 161/161/161 166/166/166 165/165/165
f 162/162/162 163/163/163 167/167/167
f 162/162/162 167/167/167 166/166/166
f 163/163/163 160/160/160 164/164/164
f 163/163/163 164/164/164 167/167/167
f 164/164/164 165/165/165 169/169/169
f 164/164/164 169/169/169 168/168/168
f 165/165/165 166/166/166 170/170/170
f 165/165/165 170/170/170 169/169/169
f 166/166/166 167/167/167 171/171/171
f 166/166/166 171/171/171 170/170/170
f 167/167/167 164/164/164 168/168/168
f 167/167/167 168/168/168 171/171/171
f 168/168/168 169/169/169 173/173/173
f 168/168/168 173/173/173 172/172/172
f 169/169/169 170/170/170 174/174/174
f 169/169/169 174/174/174 173/173/173
f 170/170/170 171/171/171 175/175/175
f 170/170/170 175/175/175 174/174/174
f 171/171/171 168/168/168 172/172/172
f 171/171/171 172/172/172 175/175/175
f 172/172/172 173/173/173 177/177/177
f 172/172/172 177/177/177 176/176/176
f 173/173/173 174/174/174 178/178/178
f 173/173/173 178/178/178 177/177/177
f 174/174/174 175/175/175 179/179/179
f 174/174/174 179/179/179 178/178/178
f 175/175/175 172/172/172 176/176/176
f 175/175/175 176/176/176 179/179/179
f 176/176/176 177/177/177 181/181/181
f 176/176/176 181/181/181 180/180/180
f 177/177/177 178/178/178 182/182/182
f 177/177/177 182/182/182 181/181/181
f 178/178/178 179/179/179 183/183/183
f 178/178/178 183/183/183 182/182/182
f 179/179/179 176/176/176 180/180/180
f 179/179/179 180/180/180 183/183/183
f 180/180/180 181/181/181 185/185/185
f 180/180/180 185/185/185 184/184/184
f 181/181/181 182/182/182 186/186/186
f 181/181/181 186/186/186 185/185/185
f 182/182/182 183/183/183 187/187/187
f 182/182/182 187/187/187 186/186/186
f 183/183/183 180/180/180 184/184/184
f 183/183/183 184/184/184 187/187/187
f 184/184/184 185/185/185 189/189/189
f 184/184/184 189/189/189 188/188/188
f 185/185/185 186/186/186 190/190/190
f 185/185/185 190/190/190 189/189/189
f 186/186/186 187/187/187 191/191/191
f 186/186/186 191/191/191 190/190/190
f 187/187/187 184/184/184 188/188/188
f 187/187/187 188/188/188 191/191/191
f 148/148/148 150/150/150 149/149/149
f 188/188/188 189/189/189 190/190/190
f 148/148/148 151/151/151 150/150/150
f 188/188/188 190/190/190 191/191/191
f 192/192/192 193/193/193 197/197/197
f 192/192/192 197/197/197 196/196/196
f 193/193/193 194/194/194 198/198/198
f 193/193/193 198/198/198 197/197/197
f 194/194/194 195/195/195 199/199/199
f 194/194/194 199/199/199 198/198/198
f 195/195/195 192/192/192 196/196/196
f 195/195/195 196/196/196 199/199/199
f 196/196/196 197/197/197 201/201/201
f 196/196/196 201/201/201 200/200/200
f 197/197/197 198/198/198 202/202/202
f 197/197/197 202/202/202 201/201/201
f 198/198/198 199/199/199 203/203/203
f 198/198/198 203/203/203 202/202/202
f 199/199/199 196/196/196 200/200/200
f 199/199/199 200/200/200 203/203/203
f 200/200/200 201/201/201 205/205/205
f 200/200/200 205/205/205 204/204/204
f 201/201/201 202/202/202 206/206/206
f 201/201/201 206/206/206 205/205/205
f 202/202/202 203/203/203 207/207/207
f 202/202/202 207/207/207 206/206/206
f 203/203/203 200/200/200 204/204/204
f 203/203/203 204/204/204 207/207/207
f 204/204/204 205/205/205 209/209/209
f 204/204/204 209/209/209 208/208/208
f 205/205/205 206/206/206 210/210/210
f 205/205/205 210/210/210 209/209/209
f 206/206/206 207/207/207 211/211/211
f 206/206/206 211/211/211 210/210/210
f 207/207/207 204/204/204 208/208/208
f 207/207/207 208/208/208 211/211/211
f 208/208/208 209/209/209 213/213/213
f 208/208/208 213/213/213 212/212/212
f 209/209/209 210/210/210 214/214/214
f 209/209/209 214/214/214 213/213/213
f 210/210/210 211/211/211 215/215/215
f 210/210/210 215/215/215 214/214/214
f 211/211/211 208/208/208 212/212/212
f 211/211/211 212/212/212 215/215/215
f 212/212/212 213/213/213 217/217/217
f 212/212/212 217/217/217 216/216/216
f 213/213/213 214/214/214 218/218/218
f 213/213/213 218/218/218 217/217/217
f 214/214/214 215/215/215 219/219/219
f 214/214/214 219/219/219 218/218/218
f 215/215/215 212/212/212 216/216/216
f 215/215/215 216/216/216 219/219/219
f 216/216/216 217/217/217 221/221/221
f 216/216/216 221/221/221 220/220/220
f 217/217/217 218/218/218 222/222/222
f 217/217/217 222/222/222 221/221/221
f 218/218/218 219/219/219 223/223/223
f 218/218/218 223/223/223 222/222/222
f 219/219/219 216/216/216 220/220/220
f 219/219/219 220/220/220 223/223/223
f 220/220/220 221/221/221 225/225/225
f 220/220/220 225/225/225 224/224/224
f 221/221/221 222/222/222 226/226/226
f 221/221/221 226/226/226 225/225/225
f 222/222/222 223/223/223 227/227/227
f 222/222/222 227/227/227 226/226/226
f 223/223/223 220/220/220 224/224/224
f 223/223/223 224/224/224 227/227/227
f 224/224/224 225/225/225 229/229/229
f 224/224/224 229/229/229 228/228/228
f 225/225/225 226/226/226 230/230/230
f 225/225/225 230/230/230 229/229/229
f 226/226/226 227/227/227 231/231/231
f 226/226/226 231/231/231 230/230/230
f 227/227/227 224/224/224 228/228/228
f 227/227/227 228/228/228 231/231/231
f 228/228/228 229/229/229 233/233/233
f 228/228/228 233/233/233 232/232/232
f 229/229/229 230/230/230 234/234/234
f 229/229/229 234/234/234 233/233/233
f 230/230/230 231/231/231 235/235/235
f 230/230/230 235/235/235 234/234/234
f 231/231/231 228/228/228 232/232/232
f 231/231/231 232/232/232 235/235/235
f 192/192/192 194/194/194 193/193/193
f 232/232/232 233/233/233 234/234/234
f 192/192/192 195/195/195 194/194/194
f 232/232/232 234/234/234 235/235/235
