# Reference-led flame ribbon, Y up, longitudinal flow UVs
o intake_tongue_v14
v -0.0000108 0.1507476 0.0000218
v 0.0000275 0.1505286 0.0000328
v 0.0000496 0.1500000 0.0000245
v 0.0000412 0.1495764 0.0000050
v 0.0000086 0.1494009 -0.0000175
v -0.0000290 0.1495764 -0.0000297
v -0.0000496 0.1500000 -0.0000245
v -0.0000427 0.1505286 -0.0000020
v 0.0113485 0.2111393 -0.0229301
v 0.0146243 0.1935059 -0.0223501
v 0.0168067 0.1509352 -0.0237800
v 0.0163969 0.1177753 -0.0259365
v 0.0138552 0.1040401 -0.0280021
v 0.0106706 0.1177753 -0.0287667
v 0.0087085 0.1509352 -0.0277825
v 0.0088981 0.1935059 -0.0251803
v 0.0222965 0.2340719 -0.0450890
v 0.0271963 0.2103377 -0.0450319
v 0.0310932 0.1530383 -0.0488004
v 0.0312020 0.1085166 -0.0531661
v 0.0279615 0.0900750 -0.0565925
v 0.0232700 0.1085166 -0.0570723
v 0.0198757 0.1530383 -0.0543246
v 0.0192642 0.2103377 -0.0489381
v 0.0341989 0.2315552 -0.0692719
v 0.0392058 0.2094412 -0.0697517
v 0.0435943 0.1560533 -0.0746788
v 0.0442271 0.1134889 -0.0800099
v 0.0413000 0.0958582 -0.0837792
v 0.0365276 0.1134889 -0.0837787
v 0.0327056 0.1560533 -0.0800087
v 0.0315064 0.2094412 -0.0735205
v 0.0453043 0.2448366 -0.0919591
v 0.0514466 0.2199509 -0.0930188
v 0.0571653 0.1598716 -0.0999986
v 0.0584992 0.1093765 -0.1075503
v 0.0552782 0.0884607 -0.1125097
v 0.0493891 0.1093765 -0.1119717
v 0.0442817 0.1598716 -0.1062514
v 0.0423365 0.2199509 -0.0974402
v 0.0548699 0.2764829 -0.1116046
v 0.0636508 0.2436621 -0.1136248
v 0.0721530 0.1644257 -0.1245966
v 0.0748409 0.0926774 -0.1369369
v 0.0706950 0.0629583 -0.1445729
v 0.0621439 0.0926774 -0.1430316
v 0.0541967 0.1644257 -0.1332159
v 0.0509538 0.2436621 -0.1197195
v 0.0653082 0.2913822 -0.1332194
v 0.0755720 0.2557327 -0.1360570
v 0.0857784 0.1696673 -0.1498080
v 0.0898630 0.0846270 -0.1662366
v 0.0855188 0.0494022 -0.1758999
v 0.0752904 0.0846270 -0.1731372
v 0.0651696 0.1696673 -0.1595670
v 0.0609994 0.2557327 -0.1429576
v 0.0756151 0.3055900 -0.1547638
v 0.0872992 0.2675050 -0.1584831
v 0.0991545 0.1755596 -0.1750813
v 0.1049129 0.0762680 -0.1962876
v 0.1005245 0.0351401 -0.2082274
v 0.0885601 0.0762680 -0.2039066
v 0.0760282 0.1755596 -0.1858562
v 0.0709465 0.2675050 -0.1661021
v 0.0837503 0.3396888 -0.1718049
v 0.0986527 0.2935242 -0.1771893
v 0.1140500 0.1820730 -0.1995971
v 0.1227998 0.0518349 -0.2300077
v 0.1178995 -0.0021116 -0.2465014
v 0.1022197 0.0518349 -0.2394164
v 0.0849454 0.1820730 -0.2129029
v 0.0780726 0.2935242 -0.1865980
v 0.0935688 0.3536885 -0.1926967
v 0.1096955 0.3055060 -0.1993089
v 0.1266827 0.1891831 -0.2250894
v 0.1375641 0.0449554 -0.2616086
v 0.1329809 -0.0147856 -0.2808018
v 0.1156178 0.0449554 -0.2714259
v 0.0956459 0.1891831 -0.2389731
v 0.0877492 0.3055060 -0.2091261
v 0.1070286 0.3340323 -0.2222162
v 0.1207591 0.2938582 -0.2286356
v 0.1355464 0.1968691 -0.2521465
v 0.1458234 0.0725516 -0.2860686
v 0.1424749 0.0210576 -0.3034387
v 0.1274623 0.0725516 -0.2940816
v 0.1095799 0.1968691 -0.2634785
v 0.1023980 0.2938582 -0.2366486
v 0.1183011 0.3344707 -0.2473914
v 0.1313414 0.2965827 -0.2543702
v 0.1457438 0.2051130 -0.2784678
v 0.1562019 0.0872914 -0.3129429
v 0.1534591 0.0384881 -0.3302258
v 0.1391223 0.0872914 -0.3201922
v 0.1215896 0.2051130 -0.2887197
v 0.1142617 0.2965827 -0.2616195
v 0.1257468 0.3653012 -0.2639219
v 0.1409499 0.3209566 -0.2732332
v 0.1582023 0.2138991 -0.3037160
v 0.1708393 0.0789798 -0.3458782
v 0.1680168 0.0230944 -0.3666574
v 0.1513881 0.0789798 -0.3538813
v 0.1306942 0.2138991 -0.3150340
v 0.1214988 0.3209566 -0.2812363
v 0.1346971 0.3816031 -0.2843719
v 0.1504274 0.3352118 -0.2953439
v 0.1687670 0.2232134 -0.3296374
v 0.1819064 0.0881959 -0.3745444
v 0.1792151 0.0322698 -0.3963783
v 0.1622697 0.0881959 -0.3823492
v 0.1409966 0.2232134 -0.3406751
v 0.1307907 0.3352118 -0.3031487
v 0.1426722 0.4037037 -0.3027177
v 0.1593783 0.3537184 -0.3158746
v 0.1793436 0.2330433 -0.3554287
v 0.1929819 0.0962060 -0.4037235
v 0.1901949 0.0395262 -0.4269548
v 0.1726153 0.0962060 -0.4115140
v 0.1505409 0.2330433 -0.3664463
v 0.1390116 0.3537184 -0.3236651
v 0.1441077 0.4732903 -0.3035400
v 0.1662842 0.4059504 -0.3230466
v 0.1933351 0.2433774 -0.3798514
v 0.2106072 0.0718122 -0.4439323
v 0.2067899 0.0007476 -0.4744982
v 0.1841193 0.0718122 -0.4536441
v 0.1558755 0.2433774 -0.3935861
v 0.1397963 0.4059504 -0.3327585
v 0.1472149 0.5278745 -0.3078061
v 0.1732745 0.4477187 -0.3331062
v 0.2055278 0.2542055 -0.4049140
v 0.2245076 0.0649781 -0.4795261
v 0.2196693 -0.0134025 -0.5148752
v 0.1938473 0.0649781 -0.4902543
v 0.1621677 0.2542055 -0.4200860
v 0.1426143 0.4477187 -0.3438343
v 0.1590937 0.5157766 -0.3373118
v 0.1826986 0.4424776 -0.3623067
v 0.2121313 0.2655181 -0.4318065
v 0.2279611 0.1048884 -0.4985106
v 0.2231045 0.0383534 -0.5299332
v 0.2004066 0.1048884 -0.5076673
v 0.1731633 0.2655181 -0.4447560
v 0.1551441 0.4424776 -0.3714635
v 0.1704932 0.5061143 -0.3669383
v 0.1919610 0.4390980 -0.3914494
v 0.2187137 0.2773063 -0.4584963
v 0.2318331 0.1398794 -0.5184615
v 0.2268808 0.0829552 -0.5465605
v 0.2067577 0.1398794 -0.5263333
v 0.1832517 0.2773063 -0.4696287
v 0.1668856 0.4390980 -0.3993212
v 0.1779937 0.5243607 -0.3852211
v 0.2000110 0.4555898 -0.4120369
v 0.2271967 0.2895622 -0.4844309
v 0.2394011 0.1556983 -0.5456640
v 0.2336997 0.1002500 -0.5741984
v 0.2134323 0.1556983 -0.5533190
v 0.1904713 0.2895622 -0.4952566
v 0.1740422 0.4555898 -0.4196919
v 0.1896039 0.5094113 -0.4189484
v 0.2091113 0.4487434 -0.4440415
v 0.2327607 0.3022782 -0.5110672
v 0.2425831 0.1878860 -0.5657932
v 0.2369402 0.1405032 -0.5911313
v 0.2191374 0.1878860 -0.5722388
v 0.1996035 0.3022782 -0.5201828
v 0.1856657 0.4487434 -0.4504871
v 0.2009843 0.4929020 -0.4548291
v 0.2178505 0.4409267 -0.4775373
v 0.2377388 0.3154472 -0.5376591
v 0.2455089 0.2180852 -0.5862579
v 0.2400992 0.1777566 -0.6085832
v 0.2246785 0.2180852 -0.5915571
v 0.2082801 0.3154472 -0.5451534
v 0.1970201 0.4409267 -0.4828366
v 0.2040650 0.5416118 -0.4590081
v 0.2245422 0.4793576 -0.4876406
v 0.2478063 0.3290628 -0.5628705
v 0.2565321 0.2099089 -0.6247797
v 0.2493055 0.1605537 -0.6529522
v 0.2303597 0.2099089 -0.6308849
v 0.2107928 0.3290628 -0.5715045
v 0.1983698 0.4793576 -0.4937457
v 0.2069640 0.5935218 -0.4602798
v 0.2314989 0.5201804 -0.4956923
v 0.2581064 0.3431186 -0.5880880
v 0.2678775 0.1956951 -0.6676374
v 0.2584112 0.1346304 -0.7034469
v 0.2352528 0.1956951 -0.6745398
v 0.2119680 0.3431186 -0.5978495
v 0.1988741 0.5201804 -0.5025947
v 0.2161583 0.5882650 -0.4917460
v 0.2391755 0.5207074 -0.5259199
v 0.2627979 0.3576088 -0.6144724
v 0.2713948 0.2117065 -0.6960620
v 0.2617233 0.1512718 -0.7323633
v 0.2394488 0.2117065 -0.7021115
v 0.2176195 0.3576088 -0.6230276
v 0.2072295 0.5207074 -0.5319694
v 0.2249151 0.5814295 -0.5252418
v 0.2461116 0.5202437 -0.5576183
v 0.2665407 0.3725280 -0.6409072
v 0.2738831 0.2285102 -0.7242075
v 0.2641900 0.1688560 -0.7608345
v 0.2431393 0.2285102 -0.7293327
v 0.2230623 0.3725280 -0.6481553
v 0.2153678 0.5202437 -0.5627435
v 0.2311930 0.5953080 -0.5477079
v 0.2524704 0.5345511 -0.5813025
v 0.2716004 0.3878710 -0.6670380
v 0.2782000 0.2314949 -0.7604224
v 0.2675801 0.1667218 -0.8010216
v 0.2459617 0.2314949 -0.7650532
v 0.2260086 0.3878710 -0.6735870
v 0.2202321 0.5345511 -0.5859334
v 0.2393142 0.5792698 -0.5888559
v 0.2573311 0.5278268 -0.6185529
v 0.2723470 0.4036326 -0.6936723
v 0.2769893 0.2600477 -0.7820495
v 0.2671152 0.2005729 -0.8200749
v 0.2485087 0.2600477 -0.7854739
v 0.2320693 0.4036326 -0.6985152
v 0.2288504 0.5278268 -0.6219773
v 0.2469727 0.5519685 -0.6386805
v 0.2603197 0.5132597 -0.6619862
v 0.2705530 0.4198083 -0.7203739
v 0.2729893 0.3047787 -0.7932245
v 0.2648901 0.2571318 -0.8242795
v 0.2509999 0.3047787 -0.7953473
v 0.2394554 0.4198083 -0.7233761
v 0.2383304 0.5132597 -0.6641090
v 0.2505786 0.5768778 -0.6566574
v 0.2642776 0.5357309 -0.6824562
v 0.2738223 0.4363936 -0.7464483
v 0.2749192 0.3094677 -0.8290186
v 0.2656282 0.2568933 -0.8639279
v 0.2513918 0.3094677 -0.8307269
v 0.2405495 0.4363936 -0.7488642
v 0.2407501 0.5357309 -0.6841645
v 0.2530785 0.6290962 -0.6565466
v 0.2692739 0.5776313 -0.6900782
v 0.2793034 0.4533841 -0.7724405
v 0.2784522 0.2931761 -0.8793095
v 0.2660585 0.2268158 -0.9241601
v 0.2493825 0.2931761 -0.8807195
v 0.2381926 0.4533841 -0.7744345
v 0.2402042 0.5776313 -0.6914881
v 0.2566419 0.6546843 -0.6738137
v 0.2723304 0.6008188 -0.7101847
v 0.2806125 0.4707758 -0.7987107
v 0.2772100 0.3061000 -0.9111500
v 0.2635427 0.2378890 -0.9580215
v 0.2476166 0.3061000 -0.9118685
v 0.2387611 0.4707758 -0.7997268
v 0.2427371 0.6008188 -0.7109033
v 0.2600000 0.6830313 -0.6893353
v 0.2750607 0.6260734 -0.7290706
v 0.2812990 0.4885647 -0.8250000
v 0.2750607 0.3214930 -0.9415534
v 0.2600000 0.2522896 -0.9898314
v 0.2449393 0.3214930 -0.9415534
v 0.2387010 0.4885647 -0.8250000
v 0.2449393 0.6260734 -0.7290706
v 0.2636407 0.7353293 -0.6879402
v 0.2794451 0.6683791 -0.7360471
v 0.2836754 0.5067471 -0.8513637
v 0.2734474 0.3216380 -0.9830641
v 0.2551586 0.2449633 -1.0372750
v 0.2395224 0.3216380 -0.9822404
v 0.2356983 0.5067471 -0.8501988
v 0.2455202 0.6683791 -0.7352234
v 0.2666670 0.7501563 -0.7132945
v 0.2803494 0.6843031 -0.7618907
v 0.2813780 0.5253193 -0.8776601
v 0.2687745 0.3556663 -1.0005341
v 0.2502976 0.2853937 -1.0507872
v 0.2367709 0.3556663 -0.9989819
v 0.2361181 0.5253193 -0.8754649
v 0.2483458 0.6843031 -0.7603384
v 0.2666974 0.7215661 -0.7713462
v 0.2760804 0.6696396 -0.8105981
v 0.2743953 0.5442779 -0.9035933
v 0.2627029 0.4202902 -0.9948413
v 0.2477787 0.3689328 -1.0319055
v 0.2383651 0.4202902 -0.9930742
v 0.2399764 0.5442779 -0.9010942
v 0.2517426 0.6696396 -0.8088309
v 0.2669432 0.7283845 -0.8044539
v 0.2744528 0.6801260 -0.8417389
v 0.2705697 0.5636195 -0.9296277
v 0.2582650 0.4567250 -1.0094215
v 0.2440501 0.4124479 -1.0415929
v 0.2362520 0.4567250 -1.0072964
v 0.2394386 0.5636195 -0.9266223
v 0.2524398 0.6801260 -0.8396138
v 0.2691087 0.7679857 -0.8133451
v 0.2763013 0.7139045 -0.8559745
v 0.2693805 0.5833409 -0.9559710
v 0.2541069 0.4714228 -1.0405641
v 0.2377211 0.4250648 -1.0743942
v 0.2298216 0.4714228 -1.0376441
v 0.2350358 0.5833409 -0.9518415
v 0.2520159 0.7139045 -0.8530545
v 0.2686043 0.7822406 -0.8418488
v 0.2745302 0.7298708 -0.8839051
v 0.2653864 0.6034390 -0.9820694
v 0.2491665 0.5008244 -1.0604776
v 0.2327346 0.4583201 -1.0915601
v 0.2257162 0.5008244 -1.0571091
v 0.2322226 0.6034390 -0.9773056
v 0.2510799 0.7298708 -0.8805366
v 0.2679906 0.8023417 -0.8663671
v 0.2730221 0.7500805 -0.9090801
v 0.2615223 0.6239108 -1.0082562
v 0.2437768 0.5250503 -1.0845097
v 0.2266316 0.4841009 -1.1144621
v 0.2201300 0.5250503 -1.0805676
v 0.2280806 0.6239108 -1.0026813
v 0.2493753 0.7500805 -0.9051380
v 0.2717469 0.8562821 -0.8647046
v 0.2768547 0.7943268 -0.9162011
v 0.2604958 0.6447533 -1.0350917
v 0.2372634 0.5287854 -1.1252729
v 0.2157563 0.4807499 -1.1603767
v 0.2085731 0.5287854 -1.1198399
v 0.2199216 0.6447533 -1.0274083
v 0.2481644 0.7943268 -0.9107681
v 0.2708811 0.8792708 -0.8876136
v 0.2753554 0.8167946 -0.9404027
v 0.2562119 0.6659639 -1.0615112
v 0.2300162 0.5469815 -1.1547001
v 0.2067618 0.4976974 -1.1906758
v 0.2000708 0.5469815 -1.1483644
v 0.2138626 0.6659639 -1.0525513
v 0.2454100 0.8167946 -0.9340671
v 0.2605030 0.8546737 -0.9490447
v 0.2636134 0.8057213 -0.9910818
v 0.2466232 0.6875397 -1.0868535
v 0.2233410 0.5900114 -1.1637279
v 0.2035491 0.5496139 -1.1932031
v 0.1988415 0.5900114 -1.1580130
v 0.2119758 0.6875397 -1.0787715
v 0.2391140 0.8057213 -0.9853669
v 0.2511291 0.8466542 -0.9980600
v 0.2534447 0.8064762 -1.0331189
v 0.2379317 0.7094781 -1.1123900
v 0.2159830 0.6237269 -1.1803747
v 0.1981503 0.5882075 -1.2063112
v 0.1948797 0.6237269 -1.1750061
v 0.2080871 0.7094781 -1.1047975
v 0.2323414 0.8064762 -1.0277503
v 0.2449658 0.8609416 -1.0296760
v 0.2469661 0.8231101 -1.0632092
v 0.2309336 0.7317766 -1.1384305
v 0.2070314 0.6439056 -1.2084695
v 0.1884896 0.6075082 -1.2351050
v 0.1861697 0.6439056 -1.2027342
v 0.2014306 0.7317766 -1.1303195
v 0.2261044 0.8231101 -1.0574740
v 0.2344545 0.8610950 -1.0732408
v 0.2359464 0.8298544 -1.1013496
v 0.2215562 0.7544328 -1.1639065
v 0.1987662 0.6750675 -1.2274801
v 0.1818737 0.6421933 -1.2516164
v 0.1807742 0.6750675 -1.2221765
v 0.1961117 0.7544328 -1.1564060
v 0.2179545 0.8298544 -1.0960460
v 0.2246163 0.8693978 -1.1106530
v 0.2257057 0.8424652 -1.1352183
v 0.2123127 0.7774441 -1.1894942
v 0.1898871 0.7031017 -1.2493182
v 0.1739611 0.6723081 -1.2720146
v 0.1738640 0.7031017 -1.2442882
v 0.1896527 0.7774441 -1.1823808
v 0.2096826 0.8424652 -1.1301883
v 0.2228782 0.9114455 -1.1207480
v 0.2238257 0.8790406 -1.1506500
v 0.2065093 0.8008083 -1.2163253
v 0.1763424 0.7052641 -1.2935367
v 0.1557267 0.6656885 -1.3228203
v 0.1567385 0.7052641 -1.2870221
v 0.1787853 0.8008083 -1.2071122
v 0.2042218 0.8790406 -1.1441354
v 0.2203498 0.9508903 -1.1331800
v 0.2208346 0.9138782 -1.1676451
v 0.1996529 0.8245231 -1.2430303
v 0.1621693 0.7107837 -1.3353060
v 0.1373845 0.6636712 -1.3702882
v 0.1398173 0.7107837 -1.3274849
v 0.1680426 0.8245231 -1.2319697
v 0.1984827 0.9138782 -1.1598241
v 0.2096163 0.9638165 -1.1677930
v 0.2093501 0.9300664 -1.1994231
v 0.1887309 0.8485863 -1.2684604
v 0.1526582 0.7434784 -1.3540436
v 0.1294418 0.6999412 -1.3864595
v 0.1326815 0.7434784 -1.3467192
v 0.1604797 0.8485863 -1.2581021
v 0.1893735 0.9300664 -1.1920987
v 0.1989471 0.9798744 -1.2001649
v 0.1979291 0.9485704 -1.2296228
v 0.1775879 0.8729957 -1.2938997
v 0.1433047 0.7768833 -1.3724256
v 0.1216964 0.7370722 -1.4021186
v 0.1254210 0.7768833 -1.3655848
v 0.1522966 0.8729957 -1.2842253
v 0.1800455 0.9485704 -1.2227820
v 0.1909172 1.0063443 -1.2241795
v 0.1890416 0.9745376 -1.2541840
v 0.1671557 0.8977493 -1.3197221
v 0.1323711 0.8037571 -1.3967659
v 0.1107730 0.7648243 -1.4258207
v 0.1150132 0.8037571 -1.3898668
v 0.1426080 0.8977493 -1.3099654
v 0.1716837 0.9745376 -1.2472849
v 0.1764339 1.0155997 -1.2628852
v 0.1741153 0.9884325 -1.2885553
v 0.1544182 0.9228450 -1.3447271
v 0.1253438 0.8470005 -1.4070926
v 0.1074605 0.8155847 -1.4305223
v 0.1112441 0.8470005 -1.4012914
v 0.1344783 0.9228450 -1.3365229
v 0.1600157 0.9884325 -1.2827541
v 0.1596836 1.0211187 -1.3051091
v 0.1573348 0.9997850 -1.3253000
v 0.1411216 0.9482808 -1.3695704
v 0.1190897 0.8927124 -1.4154075
v 0.1055968 0.8696952 -1.4325404
v 0.1085469 0.8927124 -1.4109328
v 0.1262118 0.9482808 -1.3632421
v 0.1467920 0.9997850 -1.3208252
v 0.1526145 1.0555214 -1.3233272
v 0.1494609 1.0316604 -1.3459609
v 0.1305510 0.9740549 -1.3956735
v 0.1069539 0.9164277 -1.4433623
v 0.0925006 0.8925578 -1.4610736
v 0.0956575 0.9164277 -1.4384324
v 0.1145753 0.9740549 -1.3887015
v 0.1381644 1.0316604 -1.3410310
v 0.1479623 1.0970229 -1.3357074
v 0.1436811 1.0686539 -1.3627074
v 0.1203521 1.0001652 -1.4220787
v 0.0935267 0.9366400 -1.4748269
v 0.0770332 0.9103270 -1.4942683
v 0.0805333 0.9366400 -1.4690145
v 0.1019766 1.0001652 -1.4138588
v 0.1306877 1.0686539 -1.3568950
v 0.1352790 1.1182840 -1.3654834
v 0.1308220 1.0914333 -1.3911607
v 0.1080156 1.0266099 -1.4476441
v 0.0836275 0.9705179 -1.4943920
v 0.0685359 0.9472839 -1.5114745
v 0.0715814 0.9705179 -1.4888849
v 0.0909798 1.0266099 -1.4398559
v 0.1187759 1.0914333 -1.3856536
v 0.1218267 1.1389624 -1.3960513
v 0.1173838 1.1138980 -1.4201749
v 0.0954889 1.0533873 -1.4732108
v 0.0733893 1.0039287 -1.5146012
v 0.0596090 0.9834423 -1.5295903
v 0.0622205 1.0039287 -1.5093975
v 0.0796938 1.0533873 -1.4658517
v 0.1062150 1.1138980 -1.4149712
v 0.1100252 1.1649361 -1.4223477
v 0.1054584 1.1402040 -1.4463481
v 0.0833272 1.0804956 -1.4990312
v 0.0618112 1.0335335 -1.5385219
v 0.0482987 1.0140812 -1.5527010
v 0.0507051 1.0335335 -1.5332628
v 0.0676208 1.0804956 -1.4915938
v 0.0943524 1.1402040 -1.4410890
v 0.0910530 1.1746813 -1.4630154
v 0.0873741 1.1551312 -1.4821797
v 0.0695195 1.1079330 -1.5241393
v 0.0523796 1.0713445 -1.5550833
v 0.0415634 1.0561890 -1.5661167
v 0.0434068 1.0713445 -1.5507763
v 0.0568301 1.1079330 -1.5180482
v 0.0784013 1.1551312 -1.4778727
v 0.0687164 1.1779832 -1.5098016
v 0.0663885 1.1655981 -1.5220880
v 0.0548843 1.1356980 -1.5488944
v 0.0436730 1.1122143 -1.5688921
v 0.0365918 1.1024871 -1.5759925
v 0.0377888 1.1122143 -1.5660363
v 0.0465627 1.1356980 -1.5448556
v 0.0605043 1.1655981 -1.5192322
v 0.0521741 1.1961974 -1.5440052
v 0.0504252 1.1867051 -1.5535514
v 0.0414855 1.1637887 -1.5742890
v 0.0323930 1.1450346 -1.5903904
v 0.0266729 1.1372664 -1.5961034
v 0.0276758 1.1450346 -1.5880814
v 0.0348143 1.1637887 -1.5710235
v 0.0457079 1.1867051 -1.5512424
v 0.0375099 1.2195774 -1.5740182
v 0.0360858 1.2115598 -1.5822036
v 0.0284516 1.1922037 -1.5998987
v 0.0201509 1.1752870 -1.6145616
v 0.0149746 1.1682799 -1.6197792
v 0.0159548 1.1752870 -1.6124952
v 0.0225173 1.1922037 -1.5969763
v 0.0318897 1.2115598 -1.5801372
v 0.0201679 1.2375849 -1.6092255
v 0.0193439 1.2327101 -1.6142823
v 0.0146617 1.2209413 -1.6251598
v 0.0091287 1.2097669 -1.6349506
v 0.0057215 1.2051383 -1.6384548
v 0.0064360 1.2097669 -1.6336197
v 0.0108535 1.2209413 -1.6232777
v 0.0166511 1.2327101 -1.6129514
v 0.0001681 1.2503753 -1.6496602
v 0.0001507 1.2502654 -1.6497755
v 0.0000450 1.2500000 -1.6500223
v -0.0000916 1.2497244 -1.6502653
v -0.0001746 1.2496103 -1.6503529
v -0.0001553 1.2497244 -1.6502338
v -0.0000450 1.2500000 -1.6499777
v 0.0000871 1.2502654 -1.6497440
vt 1.0000000 0.0000000
vt 0.8535534 0.0000000
vt 0.5000000 0.0000000
vt 0.1464466 0.0000000
vt 0.0000000 0.0000000
vt 0.1464466 0.0000000
vt 0.5000000 0.0000000
vt 0.8535534 0.0000000
vt 1.0000000 0.0281250
vt 0.8535534 0.0281250
vt 0.5000000 0.0281250
vt 0.1464466 0.0281250
vt 0.0000000 0.0281250
vt 0.1464466 0.0281250
vt 0.5000000 0.0281250
vt 0.8535534 0.0281250
vt 1.0000000 0.0562500
vt 0.8535534 0.0562500
vt 0.5000000 0.0562500
vt 0.1464466 0.0562500
vt 0.0000000 0.0562500
vt 0.1464466 0.0562500
vt 0.5000000 0.0562500
vt 0.8535534 0.0562500
vt 1.0000000 0.0843750
vt 0.8535534 0.0843750
vt 0.5000000 0.0843750
vt 0.1464466 0.0843750
vt 0.0000000 0.0843750
vt 0.1464466 0.0843750
vt 0.5000000 0.0843750
vt 0.8535534 0.0843750
vt 1.0000000 0.1125000
vt 0.8535534 0.1125000
vt 0.5000000 0.1125000
vt 0.1464466 0.1125000
vt 0.0000000 0.1125000
vt 0.1464466 0.1125000
vt 0.5000000 0.1125000
vt 0.8535534 0.1125000
vt 1.0000000 0.1406250
vt 0.8535534 0.1406250
vt 0.5000000 0.1406250
vt 0.1464466 0.1406250
vt 0.0000000 0.1406250
vt 0.1464466 0.1406250
vt 0.5000000 0.1406250
vt 0.8535534 0.1406250
vt 1.0000000 0.1687500
vt 0.8535534 0.1687500
vt 0.5000000 0.1687500
vt 0.1464466 0.1687500
vt 0.0000000 0.1687500
vt 0.1464466 0.1687500
vt 0.5000000 0.1687500
vt 0.8535534 0.1687500
vt 1.0000000 0.1968750
vt 0.8535534 0.1968750
vt 0.5000000 0.1968750
vt 0.1464466 0.1968750
vt 0.0000000 0.1968750
vt 0.1464466 0.1968750
vt 0.5000000 0.1968750
vt 0.8535534 0.1968750
vt 1.0000000 0.2250000
vt 0.8535534 0.2250000
vt 0.5000000 0.2250000
vt 0.1464466 0.2250000
vt 0.0000000 0.2250000
vt 0.1464466 0.2250000
vt 0.5000000 0.2250000
vt 0.8535534 0.2250000
vt 1.0000000 0.2531250
vt 0.8535534 0.2531250
vt 0.5000000 0.2531250
vt 0.1464466 0.2531250
vt 0.0000000 0.2531250
vt 0.1464466 0.2531250
vt 0.5000000 0.2531250
vt 0.8535534 0.2531250
vt 1.0000000 0.2812500
vt 0.8535534 0.2812500
vt 0.5000000 0.2812500
vt 0.1464466 0.2812500
vt 0.0000000 0.2812500
vt 0.1464466 0.2812500
vt 0.5000000 0.2812500
vt 0.8535534 0.2812500
vt 1.0000000 0.3093750
vt 0.8535534 0.3093750
vt 0.5000000 0.3093750
vt 0.1464466 0.3093750
vt 0.0000000 0.3093750
vt 0.1464466 0.3093750
vt 0.5000000 0.3093750
vt 0.8535534 0.3093750
vt 1.0000000 0.3375000
vt 0.8535534 0.3375000
vt 0.5000000 0.3375000
vt 0.1464466 0.3375000
vt 0.0000000 0.3375000
vt 0.1464466 0.3375000
vt 0.5000000 0.3375000
vt 0.8535534 0.3375000
vt 1.0000000 0.3656250
vt 0.8535534 0.3656250
vt 0.5000000 0.3656250
vt 0.1464466 0.3656250
vt 0.0000000 0.3656250
vt 0.1464466 0.3656250
vt 0.5000000 0.3656250
vt 0.8535534 0.3656250
vt 1.0000000 0.3937500
vt 0.8535534 0.3937500
vt 0.5000000 0.3937500
vt 0.1464466 0.3937500
vt 0.0000000 0.3937500
vt 0.1464466 0.3937500
vt 0.5000000 0.3937500
vt 0.8535534 0.3937500
vt 1.0000000 0.4218750
vt 0.8535534 0.4218750
vt 0.5000000 0.4218750
vt 0.1464466 0.4218750
vt 0.0000000 0.4218750
vt 0.1464466 0.4218750
vt 0.5000000 0.4218750
vt 0.8535534 0.4218750
vt 1.0000000 0.4500000
vt 0.8535534 0.4500000
vt 0.5000000 0.4500000
vt 0.1464466 0.4500000
vt 0.0000000 0.4500000
vt 0.1464466 0.4500000
vt 0.5000000 0.4500000
vt 0.8535534 0.4500000
vt 1.0000000 0.4781250
vt 0.8535534 0.4781250
vt 0.5000000 0.4781250
vt 0.1464466 0.4781250
vt 0.0000000 0.4781250
vt 0.1464466 0.4781250
vt 0.5000000 0.4781250
vt 0.8535534 0.4781250
vt 1.0000000 0.5062500
vt 0.8535534 0.5062500
vt 0.5000000 0.5062500
vt 0.1464466 0.5062500
vt 0.0000000 0.5062500
vt 0.1464466 0.5062500
vt 0.5000000 0.5062500
vt 0.8535534 0.5062500
vt 1.0000000 0.5343750
vt 0.8535534 0.5343750
vt 0.5000000 0.5343750
vt 0.1464466 0.5343750
vt 0.0000000 0.5343750
vt 0.1464466 0.5343750
vt 0.5000000 0.5343750
vt 0.8535534 0.5343750
vt 1.0000000 0.5625000
vt 0.8535534 0.5625000
vt 0.5000000 0.5625000
vt 0.1464466 0.5625000
vt 0.0000000 0.5625000
vt 0.1464466 0.5625000
vt 0.5000000 0.5625000
vt 0.8535534 0.5625000
vt 1.0000000 0.5906250
vt 0.8535534 0.5906250
vt 0.5000000 0.5906250
vt 0.1464466 0.5906250
vt 0.0000000 0.5906250
vt 0.1464466 0.5906250
vt 0.5000000 0.5906250
vt 0.8535534 0.5906250
vt 1.0000000 0.6187500
vt 0.8535534 0.6187500
vt 0.5000000 0.6187500
vt 0.1464466 0.6187500
vt 0.0000000 0.6187500
vt 0.1464466 0.6187500
vt 0.5000000 0.6187500
vt 0.8535534 0.6187500
vt 1.0000000 0.6468750
vt 0.8535534 0.6468750
vt 0.5000000 0.6468750
vt 0.1464466 0.6468750
vt 0.0000000 0.6468750
vt 0.1464466 0.6468750
vt 0.5000000 0.6468750
vt 0.8535534 0.6468750
vt 1.0000000 0.6750000
vt 0.8535534 0.6750000
vt 0.5000000 0.6750000
vt 0.1464466 0.6750000
vt 0.0000000 0.6750000
vt 0.1464466 0.6750000
vt 0.5000000 0.6750000
vt 0.8535534 0.6750000
vt 1.0000000 0.7031250
vt 0.8535534 0.7031250
vt 0.5000000 0.7031250
vt 0.1464466 0.7031250
vt 0.0000000 0.7031250
vt 0.1464466 0.7031250
vt 0.5000000 0.7031250
vt 0.8535534 0.7031250
vt 1.0000000 0.7312500
vt 0.8535534 0.7312500
vt 0.5000000 0.7312500
vt 0.1464466 0.7312500
vt 0.0000000 0.7312500
vt 0.1464466 0.7312500
vt 0.5000000 0.7312500
vt 0.8535534 0.7312500
vt 1.0000000 0.7593750
vt 0.8535534 0.7593750
vt 0.5000000 0.7593750
vt 0.1464466 0.7593750
vt 0.0000000 0.7593750
vt 0.1464466 0.7593750
vt 0.5000000 0.7593750
vt 0.8535534 0.7593750
vt 1.0000000 0.7875000
vt 0.8535534 0.7875000
vt 0.5000000 0.7875000
vt 0.1464466 0.7875000
vt 0.0000000 0.7875000
vt 0.1464466 0.7875000
vt 0.5000000 0.7875000
vt 0.8535534 0.7875000
vt 1.0000000 0.8156250
vt 0.8535534 0.8156250
vt 0.5000000 0.8156250
vt 0.1464466 0.8156250
vt 0.0000000 0.8156250
vt 0.1464466 0.8156250
vt 0.5000000 0.8156250
vt 0.8535534 0.8156250
vt 1.0000000 0.8437500
vt 0.8535534 0.8437500
vt 0.5000000 0.8437500
vt 0.1464466 0.8437500
vt 0.0000000 0.8437500
vt 0.1464466 0.8437500
vt 0.5000000 0.8437500
vt 0.8535534 0.8437500
vt 1.0000000 0.8718750
vt 0.8535534 0.8718750
vt 0.5000000 0.8718750
vt 0.1464466 0.8718750
vt 0.0000000 0.8718750
vt 0.1464466 0.8718750
vt 0.5000000 0.8718750
vt 0.8535534 0.8718750
vt 1.0000000 0.9000000
vt 0.8535534 0.9000000
vt 0.5000000 0.9000000
vt 0.1464466 0.9000000
vt 0.0000000 0.9000000
vt 0.1464466 0.9000000
vt 0.5000000 0.9000000
vt 0.8535534 0.9000000
vt 1.0000000 0.9281250
vt 0.8535534 0.9281250
vt 0.5000000 0.9281250
vt 0.1464466 0.9281250
vt 0.0000000 0.9281250
vt 0.1464466 0.9281250
vt 0.5000000 0.9281250
vt 0.8535534 0.9281250
vt 1.0000000 0.9562500
vt 0.8535534 0.9562500
vt 0.5000000 0.9562500
vt 0.1464466 0.9562500
vt 0.0000000 0.9562500
vt 0.1464466 0.9562500
vt 0.5000000 0.9562500
vt 0.8535534 0.9562500
vt 1.0000000 0.9843750
vt 0.8535534 0.9843750
vt 0.5000000 0.9843750
vt 0.1464466 0.9843750
vt 0.0000000 0.9843750
vt 0.1464466 0.9843750
vt 0.5000000 0.9843750
vt 0.8535534 0.9843750
vt 1.0000000 1.0125000
vt 0.8535534 1.0125000
vt 0.5000000 1.0125000
vt 0.1464466 1.0125000
vt 0.0000000 1.0125000
vt 0.1464466 1.0125000
vt 0.5000000 1.0125000
vt 0.8535534 1.0125000
vt 1.0000000 1.0406250
vt 0.8535534 1.0406250
vt 0.5000000 1.0406250
vt 0.1464466 1.0406250
vt 0.0000000 1.0406250
vt 0.1464466 1.0406250
vt 0.5000000 1.0406250
vt 0.8535534 1.0406250
vt 1.0000000 1.0687500
vt 0.8535534 1.0687500
vt 0.5000000 1.0687500
vt 0.1464466 1.0687500
vt 0.0000000 1.0687500
vt 0.1464466 1.0687500
vt 0.5000000 1.0687500
vt 0.8535534 1.0687500
vt 1.0000000 1.0968750
vt 0.8535534 1.0968750
vt 0.5000000 1.0968750
vt 0.1464466 1.0968750
vt 0.0000000 1.0968750
vt 0.1464466 1.0968750
vt 0.5000000 1.0968750
vt 0.8535534 1.0968750
vt 1.0000000 1.1250000
vt 0.8535534 1.1250000
vt 0.5000000 1.1250000
vt 0.1464466 1.1250000
vt 0.0000000 1.1250000
vt 0.1464466 1.1250000
vt 0.5000000 1.1250000
vt 0.8535534 1.1250000
vt 1.0000000 1.1531250
vt 0.8535534 1.1531250
vt 0.5000000 1.1531250
vt 0.1464466 1.1531250
vt 0.0000000 1.1531250
vt 0.1464466 1.1531250
vt 0.5000000 1.1531250
vt 0.8535534 1.1531250
vt 1.0000000 1.1812500
vt 0.8535534 1.1812500
vt 0.5000000 1.1812500
vt 0.1464466 1.1812500
vt 0.0000000 1.1812500
vt 0.1464466 1.1812500
vt 0.5000000 1.1812500
vt 0.8535534 1.1812500
vt 1.0000000 1.2093750
vt 0.8535534 1.2093750
vt 0.5000000 1.2093750
vt 0.1464466 1.2093750
vt 0.0000000 1.2093750
vt 0.1464466 1.2093750
vt 0.5000000 1.2093750
vt 0.8535534 1.2093750
vt 1.0000000 1.2375000
vt 0.8535534 1.2375000
vt 0.5000000 1.2375000
vt 0.1464466 1.2375000
vt 0.0000000 1.2375000
vt 0.1464466 1.2375000
vt 0.5000000 1.2375000
vt 0.8535534 1.2375000
vt 1.0000000 1.2656250
vt 0.8535534 1.2656250
vt 0.5000000 1.2656250
vt 0.1464466 1.2656250
vt 0.0000000 1.2656250
vt 0.1464466 1.2656250
vt 0.5000000 1.2656250
vt 0.8535534 1.2656250
vt 1.0000000 1.2937500
vt 0.8535534 1.2937500
vt 0.5000000 1.2937500
vt 0.1464466 1.2937500
vt 0.0000000 1.2937500
vt 0.1464466 1.2937500
vt 0.5000000 1.2937500
vt 0.8535534 1.2937500
vt 1.0000000 1.3218750
vt 0.8535534 1.3218750
vt 0.5000000 1.3218750
vt 0.1464466 1.3218750
vt 0.0000000 1.3218750
vt 0.1464466 1.3218750
vt 0.5000000 1.3218750
vt 0.8535534 1.3218750
vt 1.0000000 1.3500000
vt 0.8535534 1.3500000
vt 0.5000000 1.3500000
vt 0.1464466 1.3500000
vt 0.0000000 1.3500000
vt 0.1464466 1.3500000
vt 0.5000000 1.3500000
vt 0.8535534 1.3500000
vt 1.0000000 1.3781250
vt 0.8535534 1.3781250
vt 0.5000000 1.3781250
vt 0.1464466 1.3781250
vt 0.0000000 1.3781250
vt 0.1464466 1.3781250
vt 0.5000000 1.3781250
vt 0.8535534 1.3781250
vt 1.0000000 1.4062500
vt 0.8535534 1.4062500
vt 0.5000000 1.4062500
vt 0.1464466 1.4062500
vt 0.0000000 1.4062500
vt 0.1464466 1.4062500
vt 0.5000000 1.4062500
vt 0.8535534 1.4062500
vt 1.0000000 1.4343750
vt 0.8535534 1.4343750
vt 0.5000000 1.4343750
vt 0.1464466 1.4343750
vt 0.0000000 1.4343750
vt 0.1464466 1.4343750
vt 0.5000000 1.4343750
vt 0.8535534 1.4343750
vt 1.0000000 1.4625000
vt 0.8535534 1.4625000
vt 0.5000000 1.4625000
vt 0.1464466 1.4625000
vt 0.0000000 1.4625000
vt 0.1464466 1.4625000
vt 0.5000000 1.4625000
vt 0.8535534 1.4625000
vt 1.0000000 1.4906250
vt 0.8535534 1.4906250
vt 0.5000000 1.4906250
vt 0.1464466 1.4906250
vt 0.0000000 1.4906250
vt 0.1464466 1.4906250
vt 0.5000000 1.4906250
vt 0.8535534 1.4906250
vt 1.0000000 1.5187500
vt 0.8535534 1.5187500
vt 0.5000000 1.5187500
vt 0.1464466 1.5187500
vt 0.0000000 1.5187500
vt 0.1464466 1.5187500
vt 0.5000000 1.5187500
vt 0.8535534 1.5187500
vt 1.0000000 1.5468750
vt 0.8535534 1.5468750
vt 0.5000000 1.5468750
vt 0.1464466 1.5468750
vt 0.0000000 1.5468750
vt 0.1464466 1.5468750
vt 0.5000000 1.5468750
vt 0.8535534 1.5468750
vt 1.0000000 1.5750000
vt 0.8535534 1.5750000
vt 0.5000000 1.5750000
vt 0.1464466 1.5750000
vt 0.0000000 1.5750000
vt 0.1464466 1.5750000
vt 0.5000000 1.5750000
vt 0.8535534 1.5750000
vt 1.0000000 1.6031250
vt 0.8535534 1.6031250
vt 0.5000000 1.6031250
vt 0.1464466 1.6031250
vt 0.0000000 1.6031250
vt 0.1464466 1.6031250
vt 0.5000000 1.6031250
vt 0.8535534 1.6031250
vt 1.0000000 1.6312500
vt 0.8535534 1.6312500
vt 0.5000000 1.6312500
vt 0.1464466 1.6312500
vt 0.0000000 1.6312500
vt 0.1464466 1.6312500
vt 0.5000000 1.6312500
vt 0.8535534 1.6312500
vt 1.0000000 1.6593750
vt 0.8535534 1.6593750
vt 0.5000000 1.6593750
vt 0.1464466 1.6593750
vt 0.0000000 1.6593750
vt 0.1464466 1.6593750
vt 0.5000000 1.6593750
vt 0.8535534 1.6593750
vt 1.0000000 1.6875000
vt 0.8535534 1.6875000
vt 0.5000000 1.6875000
vt 0.1464466 1.6875000
vt 0.0000000 1.6875000
vt 0.1464466 1.6875000
vt 0.5000000 1.6875000
vt 0.8535534 1.6875000
vt 1.0000000 1.7156250
vt 0.8535534 1.7156250
vt 0.5000000 1.7156250
vt 0.1464466 1.7156250
vt 0.0000000 1.7156250
vt 0.1464466 1.7156250
vt 0.5000000 1.7156250
vt 0.8535534 1.7156250
vt 1.0000000 1.7437500
vt 0.8535534 1.7437500
vt 0.5000000 1.7437500
vt 0.1464466 1.7437500
vt 0.0000000 1.7437500
vt 0.1464466 1.7437500
vt 0.5000000 1.7437500
vt 0.8535534 1.7437500
vt 1.0000000 1.7718750
vt 0.8535534 1.7718750
vt 0.5000000 1.7718750
vt 0.1464466 1.7718750
vt 0.0000000 1.7718750
vt 0.1464466 1.7718750
vt 0.5000000 1.7718750
vt 0.8535534 1.7718750
vt 1.0000000 1.8000000
vt 0.8535534 1.8000000
vt 0.5000000 1.8000000
vt 0.1464466 1.8000000
vt 0.0000000 1.8000000
vt 0.1464466 1.8000000
vt 0.5000000 1.8000000
vt 0.8535534 1.8000000
vn 0.6664177 0.1519093 0.7299390
vn 0.8163992 0.0232579 0.5770195
vn 0.8177022 -0.0462337 0.5737818
vn 0.6757686 -0.2249554 0.7019486
vn -0.9671296 -0.2348455 -0.0975087
vn -0.9523967 -0.0482829 -0.3010136
vn -0.9536654 0.0219844 -0.3000650
vn -0.9841928 0.1458366 -0.1004795
vn 0.2934369 0.4319875 0.8528080
vn 0.8320554 0.0528798 0.5521662
vn 0.8506012 -0.0149670 0.5255982
vn 0.8224634 -0.1258753 0.5547156
vn -0.7740828 -0.6088658 0.1734307
vn -0.9377199 -0.0848295 -0.3368758
vn -0.9348135 0.0026742 -0.3551289
vn -0.9518670 0.0819052 -0.2953653
vn 0.0135385 0.9189724 0.3940894
vn 0.8766202 0.0705506 0.4759829
vn 0.8853171 -0.0041893 0.4649689
vn 0.8816495 -0.1043609 0.4602205
vn -0.1868873 -0.9814246 0.0433470
vn -0.9028981 -0.0978614 -0.4185667
vn -0.9074833 -0.0008597 -0.4200873
vn -0.9115110 0.0757380 -0.4042418
vn -0.0423706 0.9742953 0.2212540
vn 0.8838631 0.0745536 0.4617659
vn 0.8917310 -0.0034889 0.4525524
vn 0.8889455 -0.1040995 0.4460259
vn -0.0983657 -0.9951002 -0.0099855
vn -0.8981282 -0.1002273 -0.4281591
vn -0.9052264 -0.0018253 -0.4249256
vn -0.9062495 0.0771945 -0.4156354
vn -0.0437466 0.6771203 0.7345708
vn 0.8491265 0.0621934 0.5245151
vn 0.8684073 -0.0141329 0.4956502
vn 0.8530849 -0.1201661 0.5077463
vn -0.4574683 -0.8499730 0.2612825
vn -0.9269796 -0.1048907 -0.3601482
vn -0.9278646 -0.0078195 -0.3728352
vn -0.9382579 0.0728400 -0.3381810
vn -0.0967330 0.6891391 0.7181434
vn 0.8486939 0.0643883 0.5249503
vn 0.8692744 -0.0154135 0.4940896
vn 0.8544934 -0.1187982 0.5056957
vn -0.4387786 -0.8466655 0.3010496
vn -0.9295790 -0.1059038 -0.3530824
vn -0.9295961 -0.0097532 -0.3684507
vn -0.9405021 0.0738708 -0.3316607
vn -0.1185019 0.8423427 0.5257529
vn 0.8663755 0.0742066 0.4938490
vn 0.8830709 -0.0115845 0.4690967
vn 0.8734363 -0.1095054 0.4744656
vn -0.3323344 -0.9124755 0.2386259
vn -0.9221697 -0.1023881 -0.3729876
vn -0.9229335 -0.0083524 -0.3848689
vn -0.9296012 0.0803079 -0.3597113
vn -0.1636681 0.6381232 0.7523374
vn 0.8448347 0.0633328 0.5312658
vn 0.8708786 -0.0206555 0.4910640
vn 0.8540220 -0.1177928 0.5067260
vn -0.4367667 -0.8066407 0.3982029
vn -0.9392696 -0.1082861 -0.3256482
vn -0.9368845 -0.0160539 -0.3492701
vn -0.9494953 0.0723921 -0.3053164
vn -0.1789462 0.6584358 0.7310544
vn 0.8512692 0.0664275 0.5205076
vn 0.8800111 -0.0186580 0.4745865
vn 0.8671245 -0.1103537 0.4857131
vn -0.3941104 -0.8352442 0.3834633
vn -0.9381511 -0.1046234 -0.3300399
vn -0.9364756 -0.0159402 -0.3503703
vn -0.9489437 0.0747585 -0.3064587
vn -0.0298935 0.9932693 -0.1119035
vn 0.9138109 0.1066474 0.3918876
vn 0.9252827 0.0082267 0.3791889
vn 0.9308801 -0.0691894 0.3587131
vn 0.1737968 -0.9347299 -0.3099593
vn -0.8944758 -0.0748677 -0.4408037
vn -0.9018254 0.0054219 -0.4320665
vn -0.8964357 0.1065267 -0.4301802
vn 0.0066889 0.9378515 -0.3469724
vn 0.9321498 0.1202518 0.3415205
vn 0.9398244 0.0182711 0.3411689
vn 0.9514906 -0.0500097 0.3035863
vn 0.4250637 -0.6828981 -0.5941137
vn -0.8765722 -0.0596527 -0.4775592
vn -0.8888088 0.0151109 -0.4580291
vn -0.8789130 0.1167755 -0.4624667
vn -0.1283903 0.8312771 0.5408275
vn 0.8916554 0.0778841 0.4459649
vn 0.9155508 -0.0056674 0.4021624
vn 0.9215089 -0.0777904 0.3804865
vn -0.0626636 -0.9967881 -0.0498675
vn -0.9219613 -0.0825699 -0.3783776
vn -0.9251203 -0.0045659 -0.3796466
vn -0.9350822 0.0849098 -0.3441099
vn -0.1485175 0.6650230 0.7319064
vn 0.8841046 0.0634350 0.4629634
vn 0.9148013 -0.0100656 0.4037786
vn 0.9197725 -0.0815672 0.3838819
vn -0.1404144 -0.9891741 0.0426417
vn -0.9325898 -0.0867803 -0.3503505
vn -0.9362243 -0.0101271 -0.3512570
vn -0.9487023 0.0734214 -0.3075276
vn -0.1369932 0.7569153 0.6389930
vn 0.8992697 0.0662513 0.4323479
vn 0.9266475 -0.0039236 0.3759109
vn 0.9373166 -0.0693927 0.3414999
vn 0.0698218 -0.9729527 -0.2201999
vn -0.9268627 -0.0790243 -0.3669887
vn -0.9329041 -0.0042067 -0.3601003
vn -0.9425018 0.0772123 -0.3251593
vn -0.1549550 0.2187862 0.9633907
vn 0.8545110 0.0149627 0.5192178
vn 0.9022235 -0.0328460 0.4300163
vn 0.9070200 -0.1048913 0.4078144
vn -0.2940006 -0.9040278 0.3103181
vn -0.9575588 -0.1114407 -0.2658236
vn -0.9601052 -0.0299464 -0.2780310
vn -0.9790871 0.0316323 -0.2009674
vn -0.1722139 0.0606389 0.9831914
vn 0.8330053 -0.0133749 0.5531034
vn 0.8942390 -0.0463261 0.4451859
vn 0.8975942 -0.1209703 0.4238996
vn -0.3313957 -0.8472340 0.4151763
vn -0.9686236 -0.1295010 -0.2121268
vn -0.9721093 -0.0441854 -0.2303284
vn -0.9901930 0.0069345 -0.1395337
vn -0.1582743 0.6826891 0.7133616
vn 0.9108335 0.0456517 0.4102417
vn 0.9412774 -0.0041587 0.3376086
vn 0.9599001 -0.0618272 0.2734394
vn 0.2155387 -0.8549671 -0.4717779
vn -0.9378271 -0.0826675 -0.3371148
vn -0.9462355 -0.0034082 -0.3234606
vn -0.9498128 0.0720170 -0.3044163
vn 0.0144542 0.9337599 -0.3576080
vn 0.9541830 0.0942475 0.2839933
vn 0.9674896 0.0285144 0.2512982
vn 0.9869357 -0.0187558 0.1600193
vn 0.4579935 -0.3189124 -0.8297812
vn -0.9038704 -0.0436167 -0.4255771
vn -0.9236444 0.0277221 -0.3822466
vn -0.9058001 0.1188378 -0.4066987
vn -0.0642066 0.9904814 0.1217545
vn 0.9412860 0.0629799 0.3316838
vn 0.9604268 0.0090625 0.2783850
vn 0.9793776 -0.0468042 0.1965421
vn 0.3597814 -0.6019086 -0.7129260
vn -0.9319087 -0.0711427 -0.3556471
vn -0.9461860 0.0095288 -0.3234831
vn -0.9382723 0.0935399 -0.3330097
vn -0.0701109 0.9968108 0.0381134
vn 0.9476242 0.0649241 0.3127190
vn 0.9639144 0.0079735 0.2660929
vn 0.9819277 -0.0508049 0.1823097
vn 0.3267170 -0.6369127 -0.6982824
vn -0.9382508 -0.0752468 -0.3376734
vn -0.9513435 0.0111746 -0.3079298
vn -0.9426612 0.0966360 -0.3194548
vn -0.0392384 0.9060001 -0.4214547
vn 0.9673159 0.0976791 0.2340060
vn 0.9771316 0.0280311 0.2107798
vn 0.9925976 -0.0284497 0.1180704
vn 0.4039664 -0.4090555 -0.8182205
vn -0.9264336 -0.0547533 -0.3724552
vn -0.9446527 0.0288892 -0.3267977
vn -0.9254785 0.1245921 -0.3577238
vn -0.0859455 0.7712330 0.6307242
vn 0.9404821 0.0316960 0.3383619
vn 0.9627253 -0.0144006 0.2700975
vn 0.9735559 -0.0926114 0.2088351
vn 0.0359607 -0.9658069 -0.2567563
vn -0.9654666 -0.1144053 -0.2340634
vn -0.9753545 -0.0138197 -0.2202104
vn -0.9728720 0.0699100 -0.2205283
vn -0.0522587 0.0498776 0.9973872
vn 0.8944084 -0.0421434 0.4452612
vn 0.9376623 -0.0668813 0.3410518
vn 0.9362204 -0.1650019 0.3102671
vn -0.2605438 -0.8899726 0.3742534
vn -0.9806830 -0.1783225 -0.0803856
vn -0.9923552 -0.0601012 -0.1077913
vn -0.9981529 0.0034939 -0.0606512
vn -0.0823237 0.5893601 0.8036650
vn 0.9380667 0.0101510 0.3463061
vn 0.9643195 -0.0331557 0.2626569
vn 0.9720569 -0.1145873 0.2048784
vn -0.1301095 -0.9871792 0.0924592
vn -0.9798059 -0.1442584 -0.1384557
vn -0.9871344 -0.0258937 -0.1577820
vn -0.9861763 0.0639999 -0.1528405
vn -0.0546028 0.9827024 -0.1769589
vn 0.9732086 0.0798756 0.2156036
vn 0.9861061 0.0110673 0.1657477
vn 0.9946968 -0.0542567 0.0873751
vn 0.1141869 -0.8557456 -0.5046393
vn -0.9728476 -0.0970116 -0.2101338
vn -0.9773036 0.0130391 -0.2114420
vn -0.9594733 0.1308646 -0.2495703
vn -0.0650411 0.9893831 0.1299645
vn 0.9711453 0.0623000 0.2302074
vn 0.9864832 -0.0011333 0.1638582
vn 0.9928616 -0.0692813 0.0970873
vn -0.0094974 -0.9742133 -0.2254291
vn -0.9821016 -0.1148407 -0.1492920
vn -0.9862249 -0.0005477 -0.1654093
vn -0.9748957 0.1160139 -0.1900505
vn -0.0748313 0.9966409 -0.0332741
vn 0.9799714 0.0858647 0.1796758
vn 0.9930417 0.0149270 0.1168134
vn 0.9981854 -0.0427666 0.0423913
vn 0.0689256 -0.8770695 -0.4753929
vn -0.9831118 -0.0941704 -0.1569174
vn -0.9862423 0.0121937 -0.1648556
vn -0.9723867 0.1348909 -0.1904430
vn -0.1018436 0.8924634 -0.4394736
vn 0.9859171 0.1605155 0.0469274
vn 0.9977968 0.0632511 0.0200189
vn 0.9967791 0.0266232 -0.0756485
vn 0.2789499 -0.2268752 -0.9331209
vn -0.9703222 -0.0285339 -0.2401263
vn -0.9749122 0.0554285 -0.2155782
vn -0.9466491 0.1909357 -0.2596134
vn -0.1043116 0.9904795 -0.0898307
vn 0.9884496 0.1124687 0.1015785
vn 0.9984430 0.0318517 0.0457933
vn 0.9992580 -0.0080731 -0.0376594
vn 0.1880459 -0.5649196 -0.8034330
vn -0.9863287 -0.0619202 -0.1527141
vn -0.9886475 0.0289641 -0.1474352
vn -0.9759406 0.1491051 -0.1590838
vn 0.1082622 0.2117599 0.9713069
vn 0.9675564 -0.0115062 0.2523929
vn 0.9901723 -0.0441610 0.1326978
vn 0.9900981 -0.1081397 0.0895076
vn -0.2081961 -0.9305809 0.3011204
vn -0.9875225 -0.1538903 0.0334224
vn -0.9989848 -0.0450424 -0.0007385
vn -0.9978362 0.0379691 0.0536783
vn 0.1087962 0.2304655 0.9669793
vn 0.9750809 -0.0088797 0.2216716
vn 0.9952880 -0.0322486 0.0914435
vn 0.9956354 -0.0856364 0.0371014
vn -0.1665504 -0.9657212 0.1991070
vn -0.9885897 -0.1447080 0.0418325
vn -0.9991379 -0.0395332 0.0126684
vn -0.9972346 0.0477810 0.0569218
vn 0.0840096 0.5416819 0.8363750
vn 0.9887823 0.0229159 0.1475952
vn 0.9996253 -0.0039527 0.0270867
vn 0.9978611 -0.0354074 -0.0549511
vn -0.0284674 -0.9388749 -0.3430795
vn -0.9939537 -0.1095294 0.0077001
vn -0.9998939 -0.0107097 -0.0098760
vn -0.9960655 0.0880630 0.0099245
vn 0.1573835 0.1767246 0.9715960
vn 0.9849399 -0.0200110 0.1717349
vn 0.9991053 -0.0262604 0.0331508
vn 0.9971782 -0.0576400 -0.0480961
vn -0.0909222 -0.9949311 -0.0429575
vn -0.9882186 -0.1357571 0.0706685
vn -0.9985693 -0.0305770 0.0438691
vn -0.9954256 0.0535622 0.0791130
vn 0.1457527 0.3596753 0.9216235
vn 0.9929521 -0.0031110 0.1184754
vn 0.9998627 -0.0090728 -0.0138682
vn 0.9936034 -0.0304790 -0.1087350
vn -0.0259405 -0.8932029 -0.4489050
vn -0.9917283 -0.1140764 0.0588355
vn -0.9988760 -0.0149795 0.0449706
vn -0.9951463 0.0783233 0.0595768
vn -0.1264026 0.9761861 -0.1763039
vn 0.9935404 0.1022520 -0.0492140
vn 0.9901565 0.0593080 -0.1267776
vn 0.9658775 0.0626321 -0.2513124
vn 0.1379299 0.0371649 -0.9897445
vn -0.9977648 -0.0156051 -0.0649759
vn -0.9980360 0.0542789 -0.0312725
vn -0.9824537 0.1744194 -0.0660507
vn -0.1723579 0.9468092 -0.2717443
vn 0.9888111 0.1153236 -0.0946207
vn 0.9856504 0.0650668 -0.1557551
vn 0.9577345 0.0674351 -0.2796373
vn 0.1493619 0.0883015 -0.9848319
vn -0.9975781 0.0013680 -0.0695414
vn -0.9978817 0.0624342 -0.0182781
vn -0.9828255 0.1772083 -0.0514907
vn 0.1519646 0.6853644 0.7121674
vn 0.9998314 0.0183414 -0.0008862
vn 0.9954578 -0.0011437 -0.0951974
vn 0.9808043 -0.0264919 -0.1931867
vn 0.0139935 -0.6312401 -0.7754612
vn -0.9935739 -0.0858930 0.0737108
vn -0.9954615 0.0002810 0.0951649
vn -0.9909656 0.0873054 0.1018080
vn 0.1982571 0.5763819 0.7927661
vn 0.9999109 0.0063416 -0.0117431
vn 0.9944894 -0.0123438 -0.1041076
vn 0.9788711 -0.0450420 -0.1994555
vn -0.0510909 -0.7649526 -0.6420570
vn -0.9889456 -0.0997904 0.1096743
vn -0.9916081 -0.0068696 0.1290978
vn -0.9872636 0.0761458 0.1396871
vn 0.0791042 0.8488284 0.5227168
vn 0.9977652 0.0270363 -0.0611035
vn 0.9897208 0.0010284 -0.1430092
vn 0.9690776 -0.0299612 -0.2449305
vn -0.0250434 -0.5895531 -0.8073413
vn -0.9911175 -0.0841606 0.1029716
vn -0.9908951 0.0058322 0.1345098
vn -0.9863936 0.0970820 0.1326752
vn 0.3231500 0.2513714 0.9123522
vn 0.9994257 -0.0290779 -0.0174012
vn 0.9921608 -0.0382723 -0.1189628
vn 0.9750644 -0.0913193 -0.2022625
vn -0.1271179 -0.9654799 -0.2273534
vn -0.9710763 -0.1397552 0.1935959
vn -0.9776057 -0.0327865 0.2078752
vn -0.9731576 0.0456633 0.2255642
vn 0.3256186 0.2469837 0.9126728
vn 0.9989347 -0.0338062 -0.0314093
vn 0.9902374 -0.0460988 -0.1315475
vn 0.9712652 -0.1034802 -0.2143262
vn -0.1374650 -0.9826781 -0.1242867
vn -0.9625216 -0.1518619 0.2247000
vn -0.9720202 -0.0353397 0.2322238
vn -0.9668117 0.0442885 0.2516219
vn -0.1278638 0.9917234 0.0116431
vn 0.9828970 0.0711134 -0.1698717
vn 0.9730928 0.0205915 -0.2294914
vn 0.9413585 -0.0128325 -0.3371640
vn -0.0862663 -0.4575454 -0.8849917
vn -0.9888751 -0.0678386 0.1323781
vn -0.9849385 0.0288500 0.1704814
vn -0.9785792 0.1385544 0.1522678
vn -0.2539386 0.9371516 -0.2392948
vn 0.9589605 0.1311245 -0.2513983
vn 0.9556090 0.0567701 -0.2891170
vn 0.9182898 0.0263688 -0.3950297
vn -0.0513675 -0.1629717 -0.9852926
vn -0.9950491 -0.0242273 0.0963867
vn -0.9863924 0.0569143 0.1542429
vn -0.9762669 0.1772841 0.1243915
vn -0.1348567 0.9860957 0.0971027
vn 0.9725749 0.0868191 -0.2157791
vn 0.9622407 0.0229639 -0.2712295
vn 0.9340162 -0.0259617 -0.3562861
vn -0.1275422 -0.5916164 -0.7960672
vn -0.9813703 -0.0699613 0.1789352
vn -0.9757776 0.0228533 0.2175677
vn -0.9680233 0.1301710 0.2144442
vn -0.0906897 0.9725101 0.2144748
vn 0.9703319 0.0857390 -0.2260639
vn 0.9583769 0.0187843 -0.2848875
vn 0.9313198 -0.0321187 -0.3627834
vn -0.1528692 -0.6593157 -0.7361616
vn -0.9759043 -0.0721097 0.2059394
vn -0.9700399 0.0180838 0.2422716
vn -0.9600949 0.1211039 0.2520944
vn -0.1578405 0.9781542 0.1352804
vn 0.9588809 0.1093979 -0.2618768
vn 0.9482167 0.0320803 -0.3159999
vn 0.9197239 -0.0132388 -0.3923425
vn -0.1307578 -0.4985422 -0.8569470
vn -0.9773402 -0.0522493 0.2051245
vn -0.9686832 0.0285160 0.2466571
vn -0.9567803 0.1343097 0.2579386
vn 0.2673253 0.6862339 0.6764763
vn 0.9770013 0.0434427 -0.2087609
vn 0.9580991 -0.0139298 -0.2860980
vn 0.9371713 -0.0757431 -0.3405480
vn -0.2335376 -0.9473251 -0.2191695
vn -0.9491304 -0.1063366 0.2963850
vn -0.9491706 -0.0130083 0.3144932
vn -0.9315813 0.0754767 0.3556115
vn 0.4834265 0.2596378 0.8359946
vn 0.9845702 -0.0037369 -0.1749499
vn 0.9613514 -0.0433824 -0.2718852
vn 0.9437823 -0.1156054 -0.3096940
vn -0.2046625 -0.9656534 0.1600839
vn -0.9226724 -0.1416497 0.3586237
vn -0.9298097 -0.0434671 0.3654648
vn -0.9035851 0.0309460 0.4272895
vn 0.2776292 0.6903753 0.6680598
vn 0.9682839 0.0508821 -0.2446166
vn 0.9440151 -0.0013144 -0.3298996
vn 0.9209993 -0.0506840 -0.3862530
vn -0.2285079 -0.8891214 -0.3965441
vn -0.9443612 -0.0897226 0.3164361
vn -0.9411426 -0.0073726 0.3379293
vn -0.9212005 0.0826485 0.3802091
vn 0.0315759 0.9296579 0.3670684
vn 0.9477102 0.0954692 -0.3045176
vn 0.9267464 0.0300500 -0.3744838
vn 0.8961983 -0.0012695 -0.4436520
vn -0.1859427 -0.4151499 -0.8905481
vn -0.9593330 -0.0425527 0.2790509
vn -0.9487476 0.0243437 0.3150958
vn -0.9307323 0.1204259 0.3453042
vn 0.1734341 0.8299964 0.5301195
vn 0.9506421 0.0737560 -0.3013963
vn 0.9270368 0.0171452 -0.3745782
vn 0.8982402 -0.0167460 -0.4391858
vn -0.2100846 -0.5455386 -0.8113274
vn -0.9504030 -0.0527415 0.3065166
vn -0.9399770 0.0135044 0.3409705
vn -0.9195828 0.0984000 0.3803747
vn 0.0888229 0.8861288 0.4548475
vn 0.9412656 0.0833714 -0.3272128
vn 0.9187955 0.0255092 -0.3939089
vn 0.8883673 -0.0060625 -0.4590933
vn -0.1728339 -0.3735770 -0.9113554
vn -0.9525738 -0.0374518 0.3019942
vn -0.9381024 0.0201407 0.3457720
vn -0.9188502 0.1033251 0.3808388
vn -0.1692435 0.9599734 0.2231763
vn 0.9212161 0.1155162 -0.3715063
vn 0.9049113 0.0465184 -0.4230502
vn 0.8696087 0.0222157 -0.4932415
vn -0.0638072 -0.0693776 -0.9955478
vn -0.9620023 -0.0037706 0.2730151
vn -0.9420292 0.0409760 0.3330194
vn -0.9250111 0.1251075 0.3587515
vn 0.0950707 0.8699581 0.4838744
vn 0.9330855 0.0750135 -0.3517448
vn 0.9125913 0.0195703 -0.4084044
vn 0.8816070 -0.0152660 -0.4717373
vn -0.1305336 -0.3786190 -0.9163016
vn -0.9472214 -0.0358111 0.3185737
vn -0.9288231 0.0177530 0.3700980
vn -0.9089712 0.0879138 0.4074832
vn 0.5803460 0.3881416 0.7159222
vn 0.9481943 0.0191518 -0.3171133
vn 0.9232934 -0.0183707 -0.3836559
vn 0.8974184 -0.0718845 -0.4352848
vn -0.3133519 -0.8627998 -0.3967205
vn -0.9214637 -0.0837206 0.3793357
vn -0.9082093 -0.0167296 0.4181818
vn -0.8816410 0.0370083 0.4704673
vn 0.4274281 0.5961413 0.6796476
vn 0.9383798 0.0365138 -0.3436716
vn 0.9152970 -0.0062050 -0.4027317
vn 0.8855714 -0.0560619 -0.4611078
vn -0.2733340 -0.7227268 -0.6347869
vn -0.9278664 -0.0692578 0.3664251
vn -0.9104380 -0.0049066 0.4136165
vn -0.8875701 0.0525839 0.4576616
vn 0.1302001 0.8462664 0.5166053
vn 0.9244433 0.0631481 -0.3760543
vn 0.9046455 0.0120021 -0.4259959
vn 0.8702523 -0.0333205 -0.4914780
vn -0.1956553 -0.4752017 -0.8578475
vn -0.9380056 -0.0471975 0.3433917
vn -0.9150190 0.0115102 0.4032464
vn -0.8958871 0.0747173 0.4379540
vn 0.1941880 0.8038305 0.5622700
vn 0.9241964 0.0564287 -0.3777258
vn 0.9040462 0.0061656 -0.4273903
vn 0.8694058 -0.0462599 -0.4919284
vn -0.2294649 -0.5701825 -0.7888205
vn -0.9331437 -0.0570010 0.3549560
vn -0.9094151 0.0059962 0.4158464
vn -0.8892919 0.0667735 0.4524392
vn 0.0149473 0.8819776 0.4710542
vn 0.9157540 0.0719810 -0.3952382
vn 0.8982219 0.0140624 -0.4393173
vn 0.8612279 -0.0393671 -0.5066920
vn -0.1962222 -0.4910270 -0.8487575
vn -0.9369911 -0.0492260 0.3458678
vn -0.9106994 0.0141321 0.4128278
vn -0.8911986 0.0771348 0.4470071
vn -0.3262570 0.8981291 0.2948228
vn 0.8981474 0.1091720 -0.4259257
vn 0.8863995 0.0366772 -0.4614659
vn 0.8465613 -0.0131240 -0.5321294
vn -0.0540727 -0.2689756 -0.9616279
vn -0.9485811 -0.0245752 0.3155786
vn -0.9173254 0.0324900 0.3968105
vn -0.8996570 0.1012985 0.4246833
vn -0.3633948 0.8507804 0.3796273
vn 0.8997464 0.1074954 -0.4229672
vn 0.8863314 0.0339233 -0.4618072
vn 0.8482839 -0.0214993 -0.5291051
vn -0.0058883 -0.3325096 -0.9430815
vn -0.9454224 -0.0334069 0.3241303
vn -0.9137113 0.0268992 0.4054726
vn -0.8945744 0.0947825 0.4367526
vn -0.0940470 0.8155909 0.5709349
vn 0.9126963 0.0794205 -0.4008465
vn 0.8934898 0.0134535 -0.4488818
vn 0.8576397 -0.0508812 -0.5117276
vn -0.1500565 -0.5784174 -0.8018207
vn -0.9320582 -0.0582111 0.3576017
vn -0.9040041 0.0100146 0.4274064
vn -0.8802212 0.0736607 0.4688120
vn -0.1707022 0.7860328 0.5941491
vn 0.9121754 0.0857940 -0.4007185
vn 0.8921808 0.0153843 -0.4514163
vn 0.8569384 -0.0469793 -0.5132733
vn -0.0758109 -0.5500373 -0.8316920
vn -0.9323056 -0.0559446 0.3573184
vn -0.9039426 0.0109646 0.4275132
vn -0.8784237 0.0756800 0.4718521
vn -0.5903818 0.5913450 0.5493272
vn 0.9052129 0.1215304 -0.4072100
vn 0.8876092 0.0335052 -0.4593772
vn 0.8546595 -0.0205974 -0.5187802
vn 0.3860625 -0.2804113 -0.8788204
vn -0.9436738 -0.0439904 0.3279400
vn -0.9107912 0.0183951 0.4124572
vn -0.8863310 0.0830734 0.4555394
vn -0.8369291 0.2430930 0.4903625
vn 0.8992738 0.2249412 -0.3751108
vn 0.8900031 0.0611869 -0.4518303
vn 0.8654807 0.0078535 -0.5008807
vn 0.7533050 -0.0746528 -0.6534206
vn -0.9725387 -0.0676448 0.2226940
vn -0.9222048 0.0093858 0.3865879
vn -0.8983014 0.0635758 0.4347559
s 1
f 1/1/1 2/2/2 10/10/10
f 1/1/1 10/10/10 9/9/9
f 2/2/2 3/3/3 11/11/11
f 2/2/2 11/11/11 10/10/10
f 3/3/3 4/4/4 12/12/12
f 3/3/3 12/12/12 11/11/11
f 4/4/4 5/5/5 13/13/13
f 4/4/4 13/13/13 12/12/12
f 5/5/5 6/6/6 14/14/14
f 5/5/5 14/14/14 13/13/13
f 6/6/6 7/7/7 15/15/15
f 6/6/6 15/15/15 14/14/14
f 7/7/7 8/8/8 16/16/16
f 7/7/7 16/16/16 15/15/15
f 8/8/8 1/1/1 9/9/9
f 8/8/8 9/9/9 16/16/16
f 9/9/9 10/10/10 18/18/18
f 9/9/9 18/18/18 17/17/17
f 10/10/10 11/11/11 19/19/19
f 10/10/10 19/19/19 18/18/18
f 11/11/11 12/12/12 20/20/20
f 11/11/11 20/20/20 19/19/19
f 12/12/12 13/13/13 21/21/21
f 12/12/12 21/21/21 20/20/20
f 13/13/13 14/14/14 22/22/22
f 13/13/13 22/22/22 21/21/21
f 14/14/14 15/15/15 23/23/23
f 14/14/14 23/23/23 22/22/22
f 15/15/15 16/16/16 24/24/24
f 15/15/15 24/24/24 23/23/23
f 16/16/16 9/9/9 17/17/17
f 16/16/16 17/17/17 24/24/24
f 17/17/17 18/18/18 26/26/26
f 17/17/17 26/26/26 25/25/25
f 18/18/18 19/19/19 27/27/27
f 18/18/18 27/27/27 26/26/26
f 19/19/19 20/20/20 28/28/28
f 19/19/19 28/28/28 27/27/27
f 20/20/20 21/21/21 29/29/29
f 20/20/20 29/29/29 28/28/28
f 21/21/21 22/22/22 30/30/30
f 21/21/21 30/30/30 29/29/29
f 22/22/22 23/23/23 31/31/31
f 22/22/22 31/31/31 30/30/30
f 23/23/23 24/24/24 32/32/32
f 23/23/23 32/32/32 31/31/31
f 24/24/24 17/17/17 25/25/25
f 24/24/24 25/25/25 32/32/32
f 25/25/25 26/26/26 34/34/34
f 25/25/25 34/34/34 33/33/33
f 26/26/26 27/27/27 35/35/35
f 26/26/26 35/35/35 34/34/34
f 27/27/27 28/28/28 36/36/36
f 27/27/27 36/36/36 35/35/35
f 28/28/28 29/29/29 37/37/37
f 28/28/28 37/37/37 36/36/36
f 29/29/29 30/30/30 38/38/38
f 29/29/29 38/38/38 37/37/37
f 30/30/30 31/31/31 39/39/39
f 30/30/30 39/39/39 38/38/38
f 31/31/31 32/32/32 40/40/40
f 31/31/31 40/40/40 39/39/39
f 32/32/32 25/25/25 33/33/33
f 32/32/32 33/33/33 40/40/40
f 33/33/33 34/34/34 42/42/42
f 33/33/33 42/42/42 41/41/41
f 34/34/34 35/35/35 43/43/43
f 34/34/34 43/43/43 42/42/42
f 35/35/35 36/36/36 44/44/44
f 35/35/35 44/44/44 43/43/43
f 36/36/36 37/37/37 45/45/45
f 36/36/36 45/45/45 44/44/44
f 37/37/37 38/38/38 46/46/46
f 37/37/37 46/46/46 45/45/45
f 38/38/38 39/39/39 47/47/47
f 38/38/38 47/47/47 46/46/46
f 39/39/39 40/40/40 48/48/48
f 39/39/39 48/48/48 47/47/47
f 40/40/40 33/33/33 41/41/41
f 40/40/40 41/41/41 48/48/48
f 41/41/41 42/42/42 50/50/50
f 41/41/41 50/50/50 49/49/49
f 42/42/42 43/43/43 51/51/51
f 42/42/42 51/51/51 50/50/50
f 43/43/43 44/44/44 52/52/52
f 43/43/43 52/52/52 51/51/51
f 44/44/44 45/45/45 53/53/53
f 44/44/44 53/53/53 52/52/52
f 45/45/45 46/46/46 54/54/54
f 45/45/45 54/54/54 53/53/53
f 46/46/46 47/47/47 55/55/55
f 46/46/46 55/55/55 54/54/54
f 47/47/47 48/48/48 56/56/56
f 47/47/47 56/56/56 55/55/55
f 48/48/48 41/41/41 49/49/49
f 48/48/48 49/49/49 56/56/56
f 49/49/49 50/50/50 58/58/58
f 49/49/49 58/58/58 57/57/57
f 50/50/50 51/51/51 59/59/59
f 50/50/50 59/59/59 58/58/58
f 51/51/51 52/52/52 60/60/60
f 51/51/51 60/60/60 59/59/59
f 52/52/52 53/53/53 61/61/61
f 52/52/52 61/61/61 60/60/60
f 53/53/53 54/54/54 62/62/62
f 53/53/53 62/62/62 61/61/61
f 54/54/54 55/55/55 63/63/63
f 54/54/54 63/63/63 62/62/62
f 55/55/55 56/56/56 64/64/64
f 55/55/55 64/64/64 63/63/63
f 56/56/56 49/49/49 57/57/57
f 56/56/56 57/57/57 64/64/64
f 57/57/57 58/58/58 66/66/66
f 57/57/57 66/66/66 65/65/65
f 58/58/58 59/59/59 67/67/67
f 58/58/58 67/67/67 66/66/66
f 59/59/59 60/60/60 68/68/68
f 59/59/59 68/68/68 67/67/67
f 60/60/60 61/61/61 69/69/69
f 60/60/60 69/69/69 68/68/68
f 61/61/61 62/62/62 70/70/70
f 61/61/61 70/70/70 69/69/69
f 62/62/62 63/63/63 71/71/71
f 62/62/62 71/71/71 70/70/70
f 63/63/63 64/64/64 72/72/72
f 63/63/63 72/72/72 71/71/71
f 64/64/64 57/57/57 65/65/65
f 64/64/64 65/65/65 72/72/72
f 65/65/65 66/66/66 74/74/74
f 65/65/65 74/74/74 73/73/73
f 66/66/66 67/67/67 75/75/75
f 66/66/66 75/75/75 74/74/74
f 67/67/67 68/68/68 76/76/76
f 67/67/67 76/76/76 75/75/75
f 68/68/68 69/69/69 77/77/77
f 68/68/68 77/77/77 76/76/76
f 69/69/69 70/70/70 78/78/78
f 69/69/69 78/78/78 77/77/77
f 70/70/70 71/71/71 79/79/79
f 70/70/70 79/79/79 78/78/78
f 71/71/71 72/72/72 80/80/80
f 71/71/71 80/80/80 79/79/79
f 72/72/72 65/65/65 73/73/73
f 72/72/72 73/73/73 80/80/80
f 73/73/73 74/74/74 82/82/82
f 73/73/73 82/82/82 81/81/81
f 74/74/74 75/75/75 83/83/83
f 74/74/74 83/83/83 82/82/82
f 75/75/75 76/76/76 84/84/84
f 75/75/75 84/84/84 83/83/83
f 76/76/76 77/77/77 85/85/85
f 76/76/76 85/85/85 84/84/84
f 77/77/77 78/78/78 86/86/86
f 77/77/77 86/86/86 85/85/85
f 78/78/78 79/79/79 87/87/87
f 78/78/78 87/87/87 86/86/86
f 79/79/79 80/80/80 88/88/88
f 79/79/79 88/88/88 87/87/87
f 80/80/80 73/73/73 81/81/81
f 80/80/80 81/81/81 88/88/88
f 81/81/81 82/82/82 90/90/90
f 81/81/81 90/90/90 89/89/89
f 82/82/82 83/83/83 91/91/91
f 82/82/82 91/91/91 90/90/90
f 83/83/83 84/84/84 92/92/92
f 83/83/83 92/92/92 91/91/91
f 84/84/84 85/85/85 93/93/93
f 84/84/84 93/93/93 92/92/92
f 85/85/85 86/86/86 94/94/94
f 85/85/85 94/94/94 93/93/93
f 86/86/86 87/87/87 95/95/95
f 86/86/86 95/95/95 94/94/94
f 87/87/87 88/88/88 96/96/96
f 87/87/87 96/96/96 95/95/95
f 88/88/88 81/81/81 89/89/89
f 88/88/88 89/89/89 96/96/96
f 89/89/89 90/90/90 98/98/98
f 89/89/89 98/98/98 97/97/97
f 90/90/90 91/91/91 99/99/99
f 90/90/90 99/99/99 98/98/98
f 91/91/91 92/92/92 100/100/100
f 91/91/91 100/100/100 99/99/99
f 92/92/92 93/93/93 101/101/101
f 92/92/92 101/101/101 100/100/100
f 93/93/93 94/94/94 102/102/102
f 93/93/93 102/102/102 101/101/101
f 94/94/94 95/95/95 103/103/103
f 94/94/94 103/103/103 102/102/102
f 95/95/95 96/96/96 104/104/104
f 95/95/95 104/104/104 103/103/103
f 96/96/96 89/89/89 97/97/97
f 96/96/96 97/97/97 104/104/104
f 97/97/97 98/98/98 106/106/106
f 97/97/97 106/106/106 105/105/105
f 98/98/98 99/99/99 107/107/107
f 98/98/98 107/107/107 106/106/106
f 99/99/99 100/100/100 108/108/108
f 99/99/99 108/108/108 107/107/107
f 100/100/100 101/101/101 109/109/109
f 100/100/100 109/109/109 108/108/108
f 101/101/101 102/102/102 110/110/110
f 101/101/101 110/110/110 109/109/109
f 102/102/102 103/103/103 111/111/111
f 102/102/102 111/111/111 110/110/110
f 103/103/103 104/104/104 112/112/112
f 103/103/103 112/112/112 111/111/111
f 104/104/104 97/97/97 105/105/105
f 104/104/104 105/105/105 112/112/112
f 105/105/105 106/106/106 114/114/114
f 105/105/105 114/114/114 113/113/113
f 106/106/106 107/107/107 115/115/115
f 106/106/106 115/115/115 114/114/114
f 107/107/107 108/108/108 116/116/116
f 107/107/107 116/116/116 115/115/115
f 108/108/108 109/109/109 117/117/117
f 108/108/108 117/117/117 116/116/116
f 109/109/109 110/110/110 118/118/118
f 109/109/109 118/118/118 117/117/117
f 110/110/110 111/111/111 119/119/119
f 110/110/110 119/119/119 118/118/118
f 111/111/111 112/112/112 120/120/120
f 111/111/111 120/120/120 119/119/119
f 112/112/112 105/105/105 113/113/113
f 112/112/112 113/113/113 120/120/120
f 113/113/113 114/114/114 122/122/122
f 113/113/113 122/122/122 121/121/121
f 114/114/114 115/115/115 123/123/123
f 114/114/114 123/123/123 122/122/122
f 115/115/115 116/116/116 124/124/124
f 115/115/115 124/124/124 123/123/123
f 116/116/116 117/117/117 125/125/125
f 116/116/116 125/125/125 124/124/124
f 117/117/117 118/118/118 126/126/126
f 117/117/117 126/126/126 125/125/125
f 118/118/118 119/119/119 127/127/127
f 118/118/118 127/127/127 126/126/126
f 119/119/119 120/120/120 128/128/128
f 119/119/119 128/128/128 127/127/127
f 120/120/120 113/113/113 121/121/121
f 120/120/120 121/121/121 128/128/128
f 121/121/121 122/122/122 130/130/130
f 121/121/121 130/130/130 129/129/129
f 122/122/122 123/123/123 131/131/131
f 122/122/122 131/131/131 130/130/130
f 123/123/123 124/124/124 132/132/132
f 123/123/123 132/132/132 131/131/131
f 124/124/124 125/125/125 133/133/133
f 124/124/124 133/133/133 132/132/132
f 125/125/125 126/126/126 134/134/134
f 125/125/125 134/134/134 133/133/133
f 126/126/126 127/127/127 135/135/135
f 126/126/126 135/135/135 134/134/134
f 127/127/127 128/128/128 136/136/136
f 127/127/127 136/136/136 135/135/135
f 128/128/128 121/121/121 129/129/129
f 128/128/128 129/129/129 136/136/136
f 129/129/129 130/130/130 138/138/138
f 129/129/129 138/138/138 137/137/137
f 130/130/130 131/131/131 139/139/139
f 130/130/130 139/139/139 138/138/138
f 131/131/131 132/132/132 140/140/140
f 131/131/131 140/140/140 139/139/139
f 132/132/132 133/133/133 141/141/141
f 132/132/132 141/141/141 140/140/140
f 133/133/133 134/134/134 142/142/142
f 133/133/133 142/142/142 141/141/141
f 134/134/134 135/135/135 143/143/143
f 134/134/134 143/143/143 142/142/142
f 135/135/135 136/136/136 144/144/144
f 135/135/135 144/144/144 143/143/143
f 136/136/136 129/129/129 137/137/137
f 136/136/136 137/137/137 144/144/144
f 137/137/137 138/138/138 146/146/146
f 137/137/137 146/146/146 145/145/145
f 138/138/138 139/139/139 147/147/147
f 138/138/138 147/147/147 146/146/146
f 139/139/139 140/140/140 148/148/148
f 139/139/139 148/148/148 147/147/147
f 140/140/140 141/141/141 149/149/149
f 140/140/140 149/149/149 148/148/148
f 141/141/141 142/142/142 150/150/150
f 141/141/141 150/150/150 149/149/149
f 142/142/142 143/143/143 151/151/151
f 142/142/142 151/151/151 150/150/150
f 143/143/143 144/144/144 152/152/152
f 143/143/143 152/152/152 151/151/151
f 144/144/144 137/137/137 145/145/145
f 144/144/144 145/145/145 152/152/152
f 145/145/145 146/146/146 154/154/154
f 145/145/145 154/154/154 153/153/153
f 146/146/146 147/147/147 155/155/155
f 146/146/146 155/155/155 154/154/154
f 147/147/147 148/148/148 156/156/156
f 147/147/147 156/156/156 155/155/155
f 148/148/148 149/149/149 157/157/157
f 148/148/148 157/157/157 156/156/156
f 149/149/149 150/150/150 158/158/158
f 149/149/149 158/158/158 157/157/157
f 150/150/150 151/151/151 159/159/159
f 150/150/150 159/159/159 158/158/158
f 151/151/151 152/152/152 160/160/160
f 151/151/151 160/160/160 159/159/159
f 152/152/152 145/145/145 153/153/153
f 152/152/152 153/153/153 160/160/160
f 153/153/153 154/154/154 162/162/162
f 153/153/153 162/162/162 161/161/161
f 154/154/154 155/155/155 163/163/163
f 154/154/154 163/163/163 162/162/162
f 155/155/155 156/156/156 164/164/164
f 155/155/155 164/164/164 163/163/163
f 156/156/156 157/157/157 165/165/165
f 156/156/156 165/165/165 164/164/164
f 157/157/157 158/158/158 166/166/166
f 157/157/157 166/166/166 165/165/165
f 158/158/158 159/159/159 167/167/167
f 158/158/158 167/167/167 166/166/166
f 159/159/159 160/160/160 168/168/168
f 159/159/159 168/168/168 167/167/167
f 160/160/160 153/153/153 161/161/161
f 160/160/160 161/161/161 168/168/168
f 161/161/161 162/162/162 170/170/170
f 161/161/161 170/170/170 169/169/169
f 162/162/162 163/163/163 171/171/171
f 162/162/162 171/171/171 170/170/170
f 163/163/163 164/164/164 172/172/172
f 163/163/163 172/172/172 171/171/171
f 164/164/164 165/165/165 173/173/173
f 164/164/164 173/173/173 172/172/172
f 165/165/165 166/166/166 174/174/174
f 165/165/165 174/174/174 173/173/173
f 166/166/166 167/167/167 175/175/175
f 166/166/166 175/175/175 174/174/174
f 167/167/167 168/168/168 176/176/176
f 167/167/167 176/176/176 175/175/175
f 168/168/168 161/161/161 169/169/169
f 168/168/168 169/169/169 176/176/176
f 169/169/169 170/170/170 178/178/178
f 169/169/169 178/178/178 177/177/177
f 170/170/170 171/171/171 179/179/179
f 170/170/170 179/179/179 178/178/178
f 171/171/171 172/172/172 180/180/180
f 171/171/171 180/180/180 179/179/179
f 172/172/172 173/173/173 181/181/181
f 172/172/172 181/181/181 180/180/180
f 173/173/173 174/174/174 182/182/182
f 173/173/173 182/182/182 181/181/181
f 174/174/174 175/175/175 183/183/183
f 174/174/174 183/183/183 182/182/182
f 175/175/175 176/176/176 184/184/184
f 175/175/175 184/184/184 183/183/183
f 176/176/176 169/169/169 177/177/177
f 176/176/176 177/177/177 184/184/184
f 177/177/177 178/178/178 186/186/186
f 177/177/177 186/186/186 185/185/185
f 178/178/178 179/179/179 187/187/187
f 178/178/178 187/187/187 186/186/186
f 179/179/179 180/180/180 188/188/188
f 179/179/179 188/188/188 187/187/187
f 180/180/180 181/181/181 189/189/189
f 180/180/180 189/189/189 188/188/188
f 181/181/181 182/182/182 190/190/190
f 181/181/181 190/190/190 189/189/189
f 182/182/182 183/183/183 191/191/191
f 182/182/182 191/191/191 190/190/190
f 183/183/183 184/184/184 192/192/192
f 183/183/183 192/192/192 191/191/191
f 184/184/184 177/177/177 185/185/185
f 184/184/184 185/185/185 192/192/192
f 185/185/185 186/186/186 194/194/194
f 185/185/185 194/194/194 193/193/193
f 186/186/186 187/187/187 195/195/195
f 186/186/186 195/195/195 194/194/194
f 187/187/187 188/188/188 196/196/196
f 187/187/187 196/196/196 195/195/195
f 188/188/188 189/189/189 197/197/197
f 188/188/188 197/197/197 196/196/196
f 189/189/189 190/190/190 198/198/198
f 189/189/189 198/198/198 197/197/197
f 190/190/190 191/191/191 199/199/199
f 190/190/190 199/199/199 198/198/198
f 191/191/191 192/192/192 200/200/200
f 191/191/191 200/200/200 199/199/199
f 192/192/192 185/185/185 193/193/193
f 192/192/192 193/193/193 200/200/200
f 193/193/193 194/194/194 202/202/202
f 193/193/193 202/202/202 201/201/201
f 194/194/194 195/195/195 203/203/203
f 194/194/194 203/203/203 202/202/202
f 195/195/195 196/196/196 204/204/204
f 195/195/195 204/204/204 203/203/203
f 196/196/196 197/197/197 205/205/205
f 196/196/196 205/205/205 204/204/204
f 197/197/197 198/198/198 206/206/206
f 197/197/197 206/206/206 205/205/205
f 198/198/198 199/199/199 207/207/207
f 198/198/198 207/207/207 206/206/206
f 199/199/199 200/200/200 208/208/208
f 199/199/199 208/208/208 207/207/207
f 200/200/200 193/193/193 201/201/201
f 200/200/200 201/201/201 208/208/208
f 201/201/201 202/202/202 210/210/210
f 201/201/201 210/210/210 209/209/209
f 202/202/202 203/203/203 211/211/211
f 202/202/202 211/211/211 210/210/210
f 203/203/203 204/204/204 212/212/212
f 203/203/203 212/212/212 211/211/211
f 204/204/204 205/205/205 213/213/213
f 204/204/204 213/213/213 212/212/212
f 205/205/205 206/206/206 214/214/214
f 205/205/205 214/214/214 213/213/213
f 206/206/206 207/207/207 215/215/215
f 206/206/206 215/215/215 214/214/214
f 207/207/207 208/208/208 216/216/216
f 207/207/207 216/216/216 215/215/215
f 208/208/208 201/201/201 209/209/209
f 208/208/208 209/209/209 216/216/216
f 209/209/209 210/210/210 218/218/218
f 209/209/209 218/218/218 217/217/217
f 210/210/210 211/211/211 219/219/219
f 210/210/210 219/219/219 218/218/218
f 211/211/211 212/212/212 220/220/220
f 211/211/211 220/220/220 219/219/219
f 212/212/212 213/213/213 221/221/221
f 212/212/212 221/221/221 220/220/220
f 213/213/213 214/214/214 222/222/222
f 213/213/213 222/222/222 221/221/221
f 214/214/214 215/215/215 223/223/223
f 214/214/214 223/223/223 222/222/222
f 215/215/215 216/216/216 224/224/224
f 215/215/215 224/224/224 223/223/223
f 216/216/216 209/209/209 217/217/217
f 216/216/216 217/217/217 224/224/224
f 217/217/217 218/218/218 226/226/226
f 217/217/217 226/226/226 225/225/225
f 218/218/218 219/219/219 227/227/227
f 218/218/218 227/227/227 226/226/226
f 219/219/219 220/220/220 228/228/228
f 219/219/219 228/228/228 227/227/227
f 220/220/220 221/221/221 229/229/229
f 220/220/220 229/229/229 228/228/228
f 221/221/221 222/222/222 230/230/230
f 221/221/221 230/230/230 229/229/229
f 222/222/222 223/223/223 231/231/231
f 222/222/222 231/231/231 230/230/230
f 223/223/223 224/224/224 232/232/232
f 223/223/223 232/232/232 231/231/231
f 224/224/224 217/217/217 225/225/225
f 224/224/224 225/225/225 232/232/232
f 225/225/225 226/226/226 234/234/234
f 225/225/225 234/234/234 233/233/233
f 226/226/226 227/227/227 235/235/235
f 226/226/226 235/235/235 234/234/234
f 227/227/227 228/228/228 236/236/236
f 227/227/227 236/236/236 235/235/235
f 228/228/228 229/229/229 237/237/237
f 228/228/228 237/237/237 236/236/236
f 229/229/229 230/230/230 238/238/238
f 229/229/229 238/238/238 237/237/237
f 230/230/230 231/231/231 239/239/239
f 230/230/230 239/239/239 238/238/238
f 231/231/231 232/232/232 240/240/240
f 231/231/231 240/240/240 239/239/239
f 232/232/232 225/225/225 233/233/233
f 232/232/232 233/233/233 240/240/240
f 233/233/233 234/234/234 242/242/242
f 233/233/233 242/242/242 241/241/241
f 234/234/234 235/235/235 243/243/243
f 234/234/234 243/243/243 242/242/242
f 235/235/235 236/236/236 244/244/244
f 235/235/235 244/244/244 243/243/243
f 236/236/236 237/237/237 245/245/245
f 236/236/236 245/245/245 244/244/244
f 237/237/237 238/238/238 246/246/246
f 237/237/237 246/246/246 245/245/245
f 238/238/238 239/239/239 247/247/247
f 238/238/238 247/247/247 246/246/246
f 239/239/239 240/240/240 248/248/248
f 239/239/239 248/248/248 247/247/247
f 240/240/240 233/233/233 241/241/241
f 240/240/240 241/241/241 248/248/248
f 241/241/241 242/242/242 250/250/250
f 241/241/241 250/250/250 249/249/249
f 242/242/242 243/243/243 251/251/251
f 242/242/242 251/251/251 250/250/250
f 243/243/243 244/244/244 252/252/252
f 243/243/243 252/252/252 251/251/251
f 244/244/244 245/245/245 253/253/253
f 244/244/244 253/253/253 252/252/252
f 245/245/245 246/246/246 254/254/254
f 245/245/245 254/254/254 253/253/253
f 246/246/246 247/247/247 255/255/255
f 246/246/246 255/255/255 254/254/254
f 247/247/247 248/248/248 256/256/256
f 247/247/247 256/256/256 255/255/255
f 248/248/248 241/241/241 249/249/249
f 248/248/248 249/249/249 256/256/256
f 249/249/249 250/250/250 258/258/258
f 249/249/249 258/258/258 257/257/257
f 250/250/250 251/251/251 259/259/259
f 250/250/250 259/259/259 258/258/258
f 251/251/251 252/252/252 260/260/260
f 251/251/251 260/260/260 259/259/259
f 252/252/252 253/253/253 261/261/261
f 252/252/252 261/261/261 260/260/260
f 253/253/253 254/254/254 262/262/262
f 253/253/253 262/262/262 261/261/261
f 254/254/254 255/255/255 263/263/263
f 254/254/254 263/263/263 262/262/262
f 255/255/255 256/256/256 264/264/264
f 255/255/255 264/264/264 263/263/263
f 256/256/256 249/249/249 257/257/257
f 256/256/256 257/257/257 264/264/264
f 257/257/257 258/258/258 266/266/266
f 257/257/257 266/266/266 265/265/265
f 258/258/258 259/259/259 267/267/267
f 258/258/258 267/267/267 266/266/266
f 259/259/259 260/260/260 268/268/268
f 259/259/259 268/268/268 267/267/267
f 260/260/260 261/261/261 269/269/269
f 260/260/260 269/269/269 268/268/268
f 261/261/261 262/262/262 270/270/270
f 261/261/261 270/270/270 269/269/269
f 262/262/262 263/263/263 271/271/271
f 262/262/262 271/271/271 270/270/270
f 263/263/263 264/264/264 272/272/272
f 263/263/263 272/272/272 271/271/271
f 264/264/264 257/257/257 265/265/265
f 264/264/264 265/265/265 272/272/272
f 265/265/265 266/266/266 274/274/274
f 265/265/265 274/274/274 273/273/273
f 266/266/266 267/267/267 275/275/275
f 266/266/266 275/275/275 274/274/274
f 267/267/267 268/268/268 276/276/276
f 267/267/267 276/276/276 275/275/275
f 268/268/268 269/269/269 277/277/277
f 268/268/268 277/277/277 276/276/276
f 269/269/269 270/270/270 278/278/278
f 269/269/269 278/278/278 277/277/277
f 270/270/270 271/271/271 279/279/279
f 270/270/270 279/279/279 278/278/278
f 271/271/271 272/272/272 280/280/280
f 271/271/271 280/280/280 279/279/279
f 272/272/272 265/265/265 273/273/273
f 272/272/272 273/273/273 280/280/280
f 273/273/273 274/274/274 282/282/282
f 273/273/273 282/282/282 281/281/281
f 274/274/274 275/275/275 283/283/283
f 274/274/274 283/283/283 282/282/282
f 275/275/275 276/276/276 284/284/284
f 275/275/275 284/284/284 283/283/283
f 276/276/276 277/277/277 285/285/285
f 276/276/276 285/285/285 284/284/284
f 277/277/277 278/278/278 286/286/286
f 277/277/277 286/286/286 285/285/285
f 278/278/278 279/279/279 287/287/287
f 278/278/278 287/287/287 286/286/286
f 279/279/279 280/280/280 288/288/288
f 279/279/279 288/288/288 287/287/287
f 280/280/280 273/273/273 281/281/281
f 280/280/280 281/281/281 288/288/288
f 281/281/281 282/282/282 290/290/290
f 281/281/281 290/290/290 289/289/289
f 282/282/282 283/283/283 291/291/291
f 282/282/282 291/291/291 290/290/290
f 283/283/283 284/284/284 292/292/292
f 283/283/283 292/292/292 291/291/291
f 284/284/284 285/285/285 293/293/293
f 284/284/284 293/293/293 292/292/292
f 285/285/285 286/286/286 294/294/294
f 285/285/285 294/294/294 293/293/293
f 286/286/286 287/287/287 295/295/295
f 286/286/286 295/295/295 294/294/294
f 287/287/287 288/288/288 296/296/296
f 287/287/287 296/296/296 295/295/295
f 288/288/288 281/281/281 289/289/289
f 288/288/288 289/289/289 296/296/296
f 289/289/289 290/290/290 298/298/298
f 289/289/289 298/298/298 297/297/297
f 290/290/290 291/291/291 299/299/299
f 290/290/290 299/299/299 298/298/298
f 291/291/291 292/292/292 300/300/300
f 291/291/291 300/300/300 299/299/299
f 292/292/292 293/293/293 301/301/301
f 292/292/292 301/301/301 300/300/300
f 293/293/293 294/294/294 302/302/302
f 293/293/293 302/302/302 301/301/301
f 294/294/294 295/295/295 303/303/303
f 294/294/294 303/303/303 302/302/302
f 295/295/295 296/296/296 304/304/304
f 295/295/295 304/304/304 303/303/303
f 296/296/296 289/289/289 297/297/297
f 296/296/296 297/297/297 304/304/304
f 297/297/297 298/298/298 306/306/306
f 297/297/297 306/306/306 305/305/305
f 298/298/298 299/299/299 307/307/307
f 298/298/298 307/307/307 306/306/306
f 299/299/299 300/300/300 308/308/308
f 299/299/299 308/308/308 307/307/307
f 300/300/300 301/301/301 309/309/309
f 300/300/300 309/309/309 308/308/308
f 301/301/301 302/302/302 310/310/310
f 301/301/301 310/310/310 309/309/309
f 302/302/302 303/303/303 311/311/311
f 302/302/302 311/311/311 310/310/310
f 303/303/303 304/304/304 312/312/312
f 303/303/303 312/312/312 311/311/311
f 304/304/304 297/297/297 305/305/305
f 304/304/304 305/305/305 312/312/312
f 305/305/305 306/306/306 314/314/314
f 305/305/305 314/314/314 313/313/313
f 306/306/306 307/307/307 315/315/315
f 306/306/306 315/315/315 314/314/314
f 307/307/307 308/308/308 316/316/316
f 307/307/307 316/316/316 315/315/315
f 308/308/308 309/309/309 317/317/317
f 308/308/308 317/317/317 316/316/316
f 309/309/309 310/310/310 318/318/318
f 309/309/309 318/318/318 317/317/317
f 310/310/310 311/311/311 319/319/319
f 310/310/310 319/319/319 318/318/318
f 311/311/311 312/312/312 320/320/320
f 311/311/311 320/320/320 319/319/319
f 312/312/312 305/305/305 313/313/313
f 312/312/312 313/313/313 320/320/320
f 313/313/313 314/314/314 322/322/322
f 313/313/313 322/322/322 321/321/321
f 314/314/314 315/315/315 323/323/323
f 314/314/314 323/323/323 322/322/322
f 315/315/315 316/316/316 324/324/324
f 315/315/315 324/324/324 323/323/323
f 316/316/316 317/317/317 325/325/325
f 316/316/316 325/325/325 324/324/324
f 317/317/317 318/318/318 326/326/326
f 317/317/317 326/326/326 325/325/325
f 318/318/318 319/319/319 327/327/327
f 318/318/318 327/327/327 326/326/326
f 319/319/319 320/320/320 328/328/328
f 319/319/319 328/328/328 327/327/327
f 320/320/320 313/313/313 321/321/321
f 320/320/320 321/321/321 328/328/328
f 321/321/321 322/322/322 330/330/330
f 321/321/321 330/330/330 329/329/329
f 322/322/322 323/323/323 331/331/331
f 322/322/322 331/331/331 330/330/330
f 323/323/323 324/324/324 332/332/332
f 323/323/323 332/332/332 331/331/331
f 324/324/324 325/325/325 333/333/333
f 324/324/324 333/333/333 332/332/332
f 325/325/325 326/326/326 334/334/334
f 325/325/325 334/334/334 333/333/333
f 326/326/326 327/327/327 335/335/335
f 326/326/326 335/335/335 334/334/334
f 327/327/327 328/328/328 336/336/336
f 327/327/327 336/336/336 335/335/335
f 328/328/328 321/321/321 329/329/329
f 328/328/328 329/329/329 336/336/336
f 329/329/329 330/330/330 338/338/338
f 329/329/329 338/338/338 337/337/337
f 330/330/330 331/331/331 339/339/339
f 330/330/330 339/339/339 338/338/338
f 331/331/331 332/332/332 340/340/340
f 331/331/331 340/340/340 339/339/339
f 332/332/332 333/333/333 341/341/341
f 332/332/332 341/341/341 340/340/340
f 333/333/333 334/334/334 342/342/342
f 333/333/333 342/342/342 341/341/341
f 334/334/334 335/335/335 343/343/343
f 334/334/334 343/343/343 342/342/342
f 335/335/335 336/336/336 344/344/344
f 335/335/335 344/344/344 343/343/343
f 336/336/336 329/329/329 337/337/337
f 336/336/336 337/337/337 344/344/344
f 337/337/337 338/338/338 346/346/346
f 337/337/337 346/346/346 345/345/345
f 338/338/338 339/339/339 347/347/347
f 338/338/338 347/347/347 346/346/346
f 339/339/339 340/340/340 348/348/348
f 339/339/339 348/348/348 347/347/347
f 340/340/340 341/341/341 349/349/349
f 340/340/340 349/349/349 348/348/348
f 341/341/341 342/342/342 350/350/350
f 341/341/341 350/350/350 349/349/349
f 342/342/342 343/343/343 351/351/351
f 342/342/342 351/351/351 350/350/350
f 343/343/343 344/344/344 352/352/352
f 343/343/343 352/352/352 351/351/351
f 344/344/344 337/337/337 345/345/345
f 344/344/344 345/345/345 352/352/352
f 345/345/345 346/346/346 354/354/354
f 345/345/345 354/354/354 353/353/353
f 346/346/346 347/347/347 355/355/355
f 346/346/346 355/355/355 354/354/354
f 347/347/347 348/348/348 356/356/356
f 347/347/347 356/356/356 355/355/355
f 348/348/348 349/349/349 357/357/357
f 348/348/348 357/357/357 356/356/356
f 349/349/349 350/350/350 358/358/358
f 349/349/349 358/358/358 357/357/357
f 350/350/350 351/351/351 359/359/359
f 350/350/350 359/359/359 358/358/358
f 351/351/351 352/352/352 360/360/360
f 351/351/351 360/360/360 359/359/359
f 352/352/352 345/345/345 353/353/353
f 352/352/352 353/353/353 360/360/360
f 353/353/353 354/354/354 362/362/362
f 353/353/353 362/362/362 361/361/361
f 354/354/354 355/355/355 363/363/363
f 354/354/354 363/363/363 362/362/362
f 355/355/355 356/356/356 364/364/364
f 355/355/355 364/364/364 363/363/363
f 356/356/356 357/357/357 365/365/365
f 356/356/356 365/365/365 364/364/364
f 357/357/357 358/358/358 366/366/366
f 357/357/357 366/366/366 365/365/365
f 358/358/358 359/359/359 367/367/367
f 358/358/358 367/367/367 366/366/366
f 359/359/359 360/360/360 368/368/368
f 359/359/359 368/368/368 367/367/367
f 360/360/360 353/353/353 361/361/361
f 360/360/360 361/361/361 368/368/368
f 361/361/361 362/362/362 370/370/370
f 361/361/361 370/370/370 369/369/369
f 362/362/362 363/363/363 371/371/371
f 362/362/362 371/371/371 370/370/370
f 363/363/363 364/364/364 372/372/372
f 363/363/363 372/372/372 371/371/371
f 364/364/364 365/365/365 373/373/373
f 364/364/364 373/373/373 372/372/372
f 365/365/365 366/366/366 374/374/374
f 365/365/365 374/374/374 373/373/373
f 366/366/366 367/367/367 375/375/375
f 366/366/366 375/375/375 374/374/374
f 367/367/367 368/368/368 376/376/376
f 367/367/367 376/376/376 375/375/375
f 368/368/368 361/361/361 369/369/369
f 368/368/368 369/369/369 376/376/376
f 369/369/369 370/370/370 378/378/378
f 369/369/369 378/378/378 377/377/377
f 370/370/370 371/371/371 379/379/379
f 370/370/370 379/379/379 378/378/378
f 371/371/371 372/372/372 380/380/380
f 371/371/371 380/380/380 379/379/379
f 372/372/372 373/373/373 381/381/381
f 372/372/372 381/381/381 380/380/380
f 373/373/373 374/374/374 382/382/382
f 373/373/373 382/382/382 381/381/381
f 374/374/374 375/375/375 383/383/383
f 374/374/374 383/383/383 382/382/382
f 375/375/375 376/376/376 384/384/384
f 375/375/375 384/384/384 383/383/383
f 376/376/376 369/369/369 377/377/377
f 376/376/376 377/377/377 384/384/384
f 377/377/377 378/378/378 386/386/386
f 377/377/377 386/386/386 385/385/385
f 378/378/378 379/379/379 387/387/387
f 378/378/378 387/387/387 386/386/386
f 379/379/379 380/380/380 388/388/388
f 379/379/379 388/388/388 387/387/387
f 380/380/380 381/381/381 389/389/389
f 380/380/380 389/389/389 388/388/388
f 381/381/381 382/382/382 390/390/390
f 381/381/381 390/390/390 389/389/389
f 382/382/382 383/383/383 391/391/391
f 382/382/382 391/391/391 390/390/390
f 383/383/383 384/384/384 392/392/392
f 383/383/383 392/392/392 391/391/391
f 384/384/384 377/377/377 385/385/385
f 384/384/384 385/385/385 392/392/392
f 385/385/385 386/386/386 394/394/394
f 385/385/385 394/394/394 393/393/393
f 386/386/386 387/387/387 395/395/395
f 386/386/386 395/395/395 394/394/394
f 387/387/387 388/388/388 396/396/396
f 387/387/387 396/396/396 395/395/395
f 388/388/388 389/389/389 397/397/397
f 388/388/388 397/397/397 396/396/396
f 389/389/389 390/390/390 398/398/398
f 389/389/389 398/398/398 397/397/397
f 390/390/390 391/391/391 399/399/399
f 390/390/390 399/399/399 398/398/398
f 391/391/391 392/392/392 400/400/400
f 391/391/391 400/400/400 399/399/399
f 392/392/392 385/385/385 393/393/393
f 392/392/392 393/393/393 400/400/400
f 393/393/393 394/394/394 402/402/402
f 393/393/393 402/402/402 401/401/401
f 394/394/394 395/395/395 403/403/403
f 394/394/394 403/403/403 402/402/402
f 395/395/395 396/396/396 404/404/404
f 395/395/395 404/404/404 403/403/403
f 396/396/396 397/397/397 405/405/405
f 396/396/396 405/405/405 404/404/404
f 397/397/397 398/398/398 406/406/406
f 397/397/397 406/406/406 405/405/405
f 398/398/398 399/399/399 407/407/407
f 398/398/398 407/407/407 406/406/406
f 399/399/399 400/400/400 408/408/408
f 399/399/399 408/408/408 407/407/407
f 400/400/400 393/393/393 401/401/401
f 400/400/400 401/401/401 408/408/408
f 401/401/401 402/402/402 410/410/410
f 401/401/401 410/410/410 409/409/409
f 402/402/402 403/403/403 411/411/411
f 402/402/402 411/411/411 410/410/410
f 403/403/403 404/404/404 412/412/412
f 403/403/403 412/412/412 411/411/411
f 404/404/404 405/405/405 413/413/413
f 404/404/404 413/413/413 412/412/412
f 405/405/405 406/406/406 414/414/414
f 405/405/405 414/414/414 413/413/413
f 406/406/406 407/407/407 415/415/415
f 406/406/406 415/415/415 414/414/414
f 407/407/407 408/408/408 416/416/416
f 407/407/407 416/416/416 415/415/415
f 408/408/408 401/401/401 409/409/409
f 408/408/408 409/409/409 416/416/416
f 409/409/409 410/410/410 418/418/418
f 409/409/409 418/418/418 417/417/417
f 410/410/410 411/411/411 419/419/419
f 410/410/410 419/419/419 418/418/418
f 411/411/411 412/412/412 420/420/420
f 411/411/411 420/420/420 419/419/419
f 412/412/412 413/413/413 421/421/421
f 412/412/412 421/421/421 420/420/420
f 413/413/413 414/414/414 422/422/422
f 413/413/413 422/422/422 421/421/421
f 414/414/414 415/415/415 423/423/423
f 414/414/414 423/423/423 422/422/422
f 415/415/415 416/416/416 424/424/424
f 415/415/415 424/424/424 423/423/423
f 416/416/416 409/409/409 417/417/417
f 416/416/416 417/417/417 424/424/424
f 417/417/417 418/418/418 426/426/426
f 417/417/417 426/426/426 425/425/425
f 418/418/418 419/419/419 427/427/427
f 418/418/418 427/427/427 426/426/426
f 419/419/419 420/420/420 428/428/428
f 419/419/419 428/428/428 427/427/427
f 420/420/420 421/421/421 429/429/429
f 420/420/420 429/429/429 428/428/428
f 421/421/421 422/422/422 430/430/430
f 421/421/421 430/430/430 429/429/429
f 422/422/422 423/423/423 431/431/431
f 422/422/422 431/431/431 430/430/430
f 423/423/423 424/424/424 432/432/432
f 423/423/423 432/432/432 431/431/431
f 424/424/424 417/417/417 425/425/425
f 424/424/424 425/425/425 432/432/432
f 425/425/425 426/426/426 434/434/434
f 425/425/425 434/434/434 433/433/433
f 426/426/426 427/427/427 435/435/435
f 426/426/426 435/435/435 434/434/434
f 427/427/427 428/428/428 436/436/436
f 427/427/427 436/436/436 435/435/435
f 428/428/428 429/429/429 437/437/437
f 428/428/428 437/437/437 436/436/436
f 429/429/429 430/430/430 438/438/438
f 429/429/429 438/438/438 437/437/437
f 430/430/430 431/431/431 439/439/439
f 430/430/430 439/439/439 438/438/438
f 431/431/431 432/432/432 440/440/440
f 431/431/431 440/440/440 439/439/439
f 432/432/432 425/425/425 433/433/433
f 432/432/432 433/433/433 440/440/440
f 433/433/433 434/434/434 442/442/442
f 433/433/433 442/442/442 441/441/441
f 434/434/434 435/435/435 443/443/443
f 434/434/434 443/443/443 442/442/442
f 435/435/435 436/436/436 444/444/444
f 435/435/435 444/444/444 443/443/443
f 436/436/436 437/437/437 445/445/445
f 436/436/436 445/445/445 444/444/444
f 437/437/437 438/438/438 446/446/446
f 437/437/437 446/446/446 445/445/445
f 438/438/438 439/439/439 447/447/447
f 438/438/438 447/447/447 446/446/446
f 439/439/439 440/440/440 448/448/448
f 439/439/439 448/448/448 447/447/447
f 440/440/440 433/433/433 441/441/441
f 440/440/440 441/441/441 448/448/448
f 441/441/441 442/442/442 450/450/450
f 441/441/441 450/450/450 449/449/449
f 442/442/442 443/443/443 451/451/451
f 442/442/442 451/451/451 450/450/450
f 443/443/443 444/444/444 452/452/452
f 443/443/443 452/452/452 451/451/451
f 444/444/444 445/445/445 453/453/453
f 444/444/444 453/453/453 452/452/452
f 445/445/445 446/446/446 454/454/454
f 445/445/445 454/454/454 453/453/453
f 446/446/446 447/447/447 455/455/455
f 446/446/446 455/455/455 454/454/454
f 447/447/447 448/448/448 456/456/456
f 447/447/447 456/456/456 455/455/455
f 448/448/448 441/441/441 449/449/449
f 448/448/448 449/449/449 456/456/456
f 449/449/449 450/450/450 458/458/458
f 449/449/449 458/458/458 457/457/457
f 450/450/450 451/451/451 459/459/459
f 450/450/450 459/459/459 458/458/458
f 451/451/451 452/452/452 460/460/460
f 451/451/451 460/460/460 459/459/459
f 452/452/452 453/453/453 461/461/461
f 452/452/452 461/461/461 460/460/460
f 453/453/453 454/454/454 462/462/462
f 453/453/453 462/462/462 461/461/461
f 454/454/454 455/455/455 463/463/463
f 454/454/454 463/463/463 462/462/462
f 455/455/455 456/456/456 464/464/464
f 455/455/455 464/464/464 463/463/463
f 456/456/456 449/449/449 457/457/457
f 456/456/456 457/457/457 464/464/464
f 457/457/457 458/458/458 466/466/466
f 457/457/457 466/466/466 465/465/465
f 458/458/458 459/459/459 467/467/467
f 458/458/458 467/467/467 466/466/466
f 459/459/459 460/460/460 468/468/468
f 459/459/459 468/468/468 467/467/467
f 460/460/460 461/461/461 469/469/469
f 460/460/460 469/469/469 468/468/468
f 461/461/461 462/462/462 470/470/470
f 461/461/461 470/470/470 469/469/469
f 462/462/462 463/463/463 471/471/471
f 462/462/462 471/471/471 470/470/470
f 463/463/463 464/464/464 472/472/472
f 463/463/463 472/472/472 471/471/471
f 464/464/464 457/457/457 465/465/465
f 464/464/464 465/465/465 472/472/472
f 465/465/465 466/466/466 474/474/474
f 465/465/465 474/474/474 473/473/473
f 466/466/466 467/467/467 475/475/475
f 466/466/466 475/475/475 474/474/474
f 467/467/467 468/468/468 476/476/476
f 467/467/467 476/476/476 475/475/475
f 468/468/468 469/469/469 477/477/477
f 468/468/468 477/477/477 476/476/476
f 469/469/469 470/470/470 478/478/478
f 469/469/469 478/478/478 477/477/477
f 470/470/470 471/471/471 479/479/479
f 470/470/470 479/479/479 478/478/478
f 471/471/471 472/472/472 480/480/480
f 471/471/471 480/480/480 479/479/479
f 472/472/472 465/465/465 473/473/473
f 472/472/472 473/473/473 480/480/480
f 473/473/473 474/474/474 482/482/482
f 473/473/473 482/482/482 481/481/481
f 474/474/474 475/475/475 483/483/483
f 474/474/474 483/483/483 482/482/482
f 475/475/475 476/476/476 484/484/484
f 475/475/475 484/484/484 483/483/483
f 476/476/476 477/477/477 485/485/485
f 476/476/476 485/485/485 484/484/484
f 477/477/477 478/478/478 486/486/486
f 477/477/477 486/486/486 485/485/485
f 478/478/478 479/479/479 487/487/487
f 478/478/478 487/487/487 486/486/486
f 479/479/479 480/480/480 488/488/488
f 479/479/479 488/488/488 487/487/487
f 480/480/480 473/473/473 481/481/481
f 480/480/480 481/481/481 488/488/488
f 481/481/481 482/482/482 490/490/490
f 481/481/481 490/490/490 489/489/489
f 482/482/482 483/483/483 491/491/491
f 482/482/482 491/491/491 490/490/490
f 483/483/483 484/484/484 492/492/492
f 483/483/483 492/492/492 491/491/491
f 484/484/484 485/485/485 493/493/493
f 484/484/484 493/493/493 492/492/492
f 485/485/485 486/486/486 494/494/494
f 485/485/485 494/494/494 493/493/493
f 486/486/486 487/487/487 495/495/495
f 486/486/486 495/495/495 494/494/494
f 487/487/487 488/488/488 496/496/496
f 487/487/487 496/496/496 495/495/495
f 488/488/488 481/481/481 489/489/489
f 488/488/488 489/489/489 496/496/496
f 489/489/489 490/490/490 498/498/498
f 489/489/489 498/498/498 497/497/497
f 490/490/490 491/491/491 499/499/499
f 490/490/490 499/499/499 498/498/498
f 491/491/491 492/492/492 500/500/500
f 491/491/491 500/500/500 499/499/499
f 492/492/492 493/493/493 501/501/501
f 492/492/492 501/501/501 500/500/500
f 493/493/493 494/494/494 502/502/502
f 493/493/493 502/502/502 501/501/501
f 494/494/494 495/495/495 503/503/503
f 494/494/494 503/503/503 502/502/502
f 495/495/495 496/496/496 504/504/504
f 495/495/495 504/504/504 503/503/503
f 496/496/496 489/489/489 497/497/497
f 496/496/496 497/497/497 504/504/504
f 497/497/497 498/498/498 506/506/506
f 497/497/497 506/506/506 505/505/505
f 498/498/498 499/499/499 507/507/507
f 498/498/498 507/507/507 506/506/506
f 499/499/499 500/500/500 508/508/508
f 499/499/499 508/508/508 507/507/507
f 500/500/500 501/501/501 509/509/509
f 500/500/500 509/509/509 508/508/508
f 501/501/501 502/502/502 510/510/510
f 501/501/501 510/510/510 509/509/509
f 502/502/502 503/503/503 511/511/511
f 502/502/502 511/511/511 510/510/510
f 503/503/503 504/504/504 512/512/512
f 503/503/503 512/512/512 511/511/511
f 504/504/504 497/497/497 505/505/505
f 504/504/504 505/505/505 512/512/512
f 505/505/505 506/506/506 514/514/514
f 505/505/505 514/514/514 513/513/513
f 506/506/506 507/507/507 515/515/515
f 506/506/506 515/515/515 514/514/514
f 507/507/507 508/508/508 516/516/516
f 507/507/507 516/516/516 515/515/515
f 508/508/508 509/509/509 517/517/517
f 508/508/508 517/517/517 516/516/516
f 509/509/509 510/510/510 518/518/518
f 509/509/509 518/518/518 517/517/517
f 510/510/510 511/511/511 519/519/519
f 510/510/510 519/519/519 518/518/518
f 511/511/511 512/512/512 520/520/520
f 511/511/511 520/520/520 519/519/519
f 512/512/512 505/505/505 513/513/513
f 512/512/512 513/513/513 520/520/520
f 1/1/1 3/3/3 2/2/2
f 513/513/513 514/514/514 515/515/515
f 1/1/1 4/4/4 3/3/3
f 513/513/513 515/515/515 516/516/516
f 1/1/1 5/5/5 4/4/4
f 513/513/513 516/516/516 517/517/517
f 1/1/1 6/6/6 5/5/5
f 513/513/513 517/517/517 518/518/518
f 1/1/1 7/7/7 6/6/6
f 513/513/513 518/518/518 519/519/519
f 1/1/1 8/8/8 7/7/7
f 513/513/513 519/519/519 520/520/520
