# Blender 5.1.2
# www.blender.org
o inferno_flash_v18
v 0.000000 0.000000 0.000000
v 0.000000 0.000000 0.000000
v 0.000000 0.000000 0.000000
v 0.000000 0.000000 0.000000
v 0.000000 0.000000 0.000000
v 0.000000 0.000000 0.000000
v 0.000000 0.000000 0.000000
v 0.000000 0.000000 0.000000
v 0.000000 0.000000 0.000000
v 0.000000 0.000000 0.000000
v 0.000000 0.000000 0.000000
v 0.000000 0.000000 0.000000
v 0.000000 0.000000 0.000000
v 0.000000 0.000000 0.000000
v 0.000000 0.000000 0.000000
v 0.000000 0.000000 0.000000
v 0.000000 0.000000 0.000000
v 0.000000 0.000000 0.000000
v 0.000000 0.000000 0.000000
v 0.000000 0.000000 0.000000
v 0.000000 0.000000 0.000000
v 0.000000 0.000000 0.000000
v 0.000000 0.000000 0.000000
v 0.000000 0.000000 0.000000
v 1.294095 0.170371 -0.000000
v 1.250000 0.170371 0.334936
v 1.120719 0.170371 0.647048
v 0.915064 0.170371 0.915064
v 0.647048 0.170371 1.120719
v 0.334936 0.170371 1.250000
v 0.000000 0.170371 1.294095
v -0.334936 0.170371 1.250000
v -0.647048 0.170371 1.120719
v -0.915064 0.170371 0.915064
v -1.120719 0.170371 0.647048
v -1.250000 0.170371 0.334936
v -1.294095 0.170371 -0.000000
v -1.250000 0.170371 -0.334936
v -1.120719 0.170371 -0.647048
v -0.915064 0.170371 -0.915064
v -0.647048 0.170371 -1.120719
v -0.334936 0.170371 -1.250000
v 0.000000 0.170371 -1.294095
v 0.334936 0.170371 -1.250000
v 0.647048 0.170371 -1.120719
v 0.915064 0.170371 -0.915064
v 1.120719 0.170371 -0.647048
v 1.250000 0.170371 -0.334936
v 2.074806 0.409321 -0.000340
v 2.485118 0.632121 0.001673
v 1.812507 0.649687 1.752993
v 0.042083 0.649687 2.521189
v -1.752993 0.649687 1.812507
v -2.521189 0.649687 0.042083
v -1.812507 0.649687 -1.752993
v -0.355746 0.662880 -2.483684
v 1.224149 0.649687 -2.204455
v 2.306982 0.662880 -0.986448
v 3.535534 1.464466 -0.000000
v 3.415063 1.464466 0.915063
v 2.829211 1.444996 2.137352
v 1.767767 1.464466 3.061862
v 0.489218 1.444996 3.511890
v -0.915064 1.464466 3.415063
v -2.137352 1.444996 2.829211
v -3.061862 1.464466 1.767767
v -3.511890 1.444996 0.489218
v -3.415063 1.464466 -0.915064
v -2.829211 1.444995 -2.137352
v -1.767767 1.464466 -3.061862
v -0.489218 1.444995 -3.511890
v 0.915064 1.464466 -3.415063
v 2.137352 1.444995 -2.829211
v 3.265606 1.444995 -1.381493
v 3.535534 1.464466 -0.000000
v 4.330127 2.500000 -0.000000
v 4.182581 2.500000 1.120719
v 3.463419 2.470895 2.631188
v 2.165063 2.500000 3.750000
v 1.120719 2.500000 4.182581
v -0.546967 2.470895 4.315002
v -2.165063 2.500000 3.750000
v -3.061862 2.500000 3.061862
v -3.750000 2.500000 2.165063
v -4.182581 2.500000 1.120719
v -4.315002 2.470895 -0.546967
v -3.463419 2.470895 -2.631189
v -2.165063 2.500000 -3.750000
v -1.120719 2.500000 -4.182581
v 0.546967 2.470894 -4.315002
v 2.631189 2.470895 -3.463419
v 3.750000 2.500000 -2.165064
v 4.182581 2.500000 -1.120720
v 4.330127 2.500000 -0.000000
v 4.829629 3.705905 -0.000000
v 4.665063 3.705905 1.250000
v 4.182581 3.705905 2.414814
v 3.415063 3.705905 3.415063
v 2.414815 3.705905 4.182581
v 1.250000 3.705905 4.665063
v 0.000000 3.705905 4.829628
v -1.250000 3.705905 4.665063
v -2.414815 3.705905 4.182581
v -3.415063 3.705905 3.415063
v -4.182581 3.705905 2.414814
v -4.665063 3.705905 1.250000
v -4.829629 3.705905 -0.000000
v -4.665063 3.705905 -1.250000
v -4.182581 3.705904 -2.414815
v -3.415063 3.705904 -3.415064
v -2.414815 3.705904 -4.182582
v -1.250000 3.705904 -4.665064
v 0.000000 3.705904 -4.829629
v 1.250000 3.705904 -4.665064
v 2.414815 3.705904 -4.182582
v 3.415063 3.705904 -3.415064
v 4.182581 3.705904 -2.414815
v 4.665063 3.705905 -1.250000
v 4.829629 3.705905 -0.000000
v 5.000000 5.000000 -0.000000
v 4.829629 5.000000 1.294095
v 4.330127 5.000000 2.500000
v 3.535534 5.000000 3.535533
v 2.500000 5.000000 4.330126
v 1.294095 5.000000 4.829628
v 0.000000 5.000000 5.000000
v -1.294095 5.000000 4.829628
v -2.500000 5.000000 4.330126
v -3.535534 5.000000 3.535533
v -4.330127 5.000000 2.500000
v -4.829629 5.000000 1.294095
v -5.000000 5.000000 -0.000000
v -4.829629 5.000000 -1.294096
v -4.330127 5.000000 -2.500000
v -3.535534 5.000000 -3.535534
v -2.500000 5.000000 -4.330127
v -1.294095 5.000000 -4.829629
v 0.000000 5.000000 -5.000000
v 1.294095 5.000000 -4.829629
v 2.500000 5.000000 -4.330127
v 3.535534 5.000000 -3.535534
v 4.330127 5.000000 -2.500000
v 4.829629 5.000000 -1.294096
v 5.000000 5.000000 -0.000000
v 4.829629 6.294095 -0.000000
v 4.665063 6.294095 1.250000
v 4.182581 6.294095 2.414814
v 3.415063 6.294096 3.415063
v 2.414815 6.294096 4.182581
v 1.250000 6.294096 4.665063
v 0.000000 6.294096 4.829628
v -1.250000 6.294096 4.665063
v -2.414815 6.294096 4.182581
v -3.415063 6.294096 3.415063
v -4.182581 6.294095 2.414814
v -4.665063 6.294095 1.250000
v -4.829629 6.294095 -0.000000
v -4.665063 6.294095 -1.250000
v -4.182581 6.294095 -2.414815
v -3.415063 6.294095 -3.415064
v -2.414815 6.294095 -4.182582
v -1.250000 6.294095 -4.665064
v 0.000000 6.294095 -4.829629
v 1.250000 6.294095 -4.665064
v 2.414815 6.294095 -4.182582
v 3.415063 6.294095 -3.415064
v 4.182581 6.294095 -2.414815
v 4.665063 6.294095 -1.250000
v 4.829629 6.294095 -0.000000
v 4.330127 7.500000 -0.000001
v 4.182581 7.500000 1.120719
v 3.750000 7.500000 2.165063
v 3.061862 7.500000 3.061862
v 2.165063 7.500000 3.750000
v 1.120719 7.500000 4.182581
v -0.588476 7.529107 4.309537
v -2.165063 7.500000 3.750000
v -3.061862 7.500000 3.061862
v -3.750000 7.500000 2.165063
v -4.182581 7.500000 1.120719
v -4.309537 7.529106 -0.588477
v -3.750000 7.500000 -2.165064
v -3.061862 7.500000 -3.061863
v -2.165063 7.500000 -3.750000
v -1.120719 7.500000 -4.182582
v 0.588476 7.529106 -4.309538
v 2.165063 7.500000 -3.750000
v 3.061862 7.500000 -3.061863
v 3.750000 7.500000 -2.165064
v 4.182581 7.500000 -1.120720
v 4.330127 7.500000 -0.000001
v 3.535534 8.535534 -0.000001
v 3.265606 8.555006 1.381492
v 2.500000 8.535534 2.499999
v 1.332271 8.555005 3.285994
v 0.000000 8.535534 3.535533
v -1.381492 8.555006 3.265605
v -2.500000 8.535534 2.499999
v -3.285995 8.555005 1.332270
v -3.535534 8.535534 -0.000001
v -3.265606 8.555006 -1.381493
v -2.500000 8.535534 -2.500001
v -1.332271 8.555005 -3.285995
v 0.000000 8.535534 -3.535535
v 1.381492 8.555006 -3.265606
v 2.500000 8.535534 -2.500001
v 3.285995 8.555005 -1.332271
v 3.535534 8.535534 -0.000001
v 2.558009 9.331042 0.002157
v 1.973063 9.337118 1.549927
v 0.933758 9.337118 2.328808
v -0.355746 9.337118 2.483686
v -1.549928 9.337118 1.973063
v -2.328809 9.337118 0.933758
v -2.483687 9.337118 -0.355746
v -1.973063 9.337118 -1.549929
v -0.933758 9.337118 -2.328810
v 0.355746 9.337118 -2.483688
v 1.549928 9.337118 -1.973064
v 2.328809 9.337118 -0.933759
v 2.002799 9.610940 0.000392
v 1.294095 9.829629 -0.000001
v 1.250000 9.829629 0.334936
v 1.120719 9.829629 0.647047
v 0.915064 9.829629 0.915063
v 0.647048 9.829629 1.120719
v 0.334936 9.829629 1.249999
v 0.000000 9.829629 1.294094
v -0.334936 9.829629 1.249999
v -0.647048 9.829629 1.120719
v -0.915064 9.829629 0.915063
v -1.120719 9.829629 0.647047
v -1.250000 9.829629 0.334936
v -1.294095 9.829629 -0.000001
v -1.250000 9.829629 -0.334937
v -1.120719 9.829629 -0.647048
v -0.915064 9.829629 -0.915064
v -0.647048 9.829629 -1.120720
v -0.334936 9.829629 -1.250001
v 0.000000 9.829629 -1.294096
v 0.334936 9.829629 -1.250001
v 0.647048 9.829629 -1.120720
v 0.915064 9.829629 -0.915064
v 1.120719 9.829629 -0.647048
v 1.250000 9.829629 -0.334937
v 0.000000 10.000000 -0.000001
v 0.000000 10.000000 -0.000001
v 0.000000 10.000000 -0.000001
v 0.000000 10.000000 -0.000001
v 0.000000 10.000000 -0.000001
v 0.000000 10.000000 -0.000001
v 0.000000 10.000000 -0.000001
v 0.000000 10.000000 -0.000001
v 0.000000 10.000000 -0.000001
v 0.000000 10.000000 -0.000001
v 0.000000 10.000000 -0.000001
v 0.000000 10.000000 -0.000001
v 0.000000 10.000000 -0.000001
v 0.000000 10.000000 -0.000001
v 0.000000 10.000000 -0.000001
v 0.000000 10.000000 -0.000001
v 0.000000 10.000000 -0.000001
v 0.000000 10.000000 -0.000001
v 0.000000 10.000000 -0.000001
v 0.000000 10.000000 -0.000001
v 0.000000 10.000000 -0.000001
v 0.000000 10.000000 -0.000001
v 0.000000 10.000000 -0.000001
v 0.000000 10.000000 -0.000001
vn 0.1305 -0.9913 0.0172
vn 0.2468 -0.9685 0.0325
vn 0.2974 -0.9520 0.0728
vn 0.1216 -0.9913 0.0504
vn 0.2777 -0.9518 0.1301
vn 0.1044 -0.9913 0.0801
vn 0.2157 -0.9571 0.1934
vn 0.0801 -0.9913 0.1044
vn 0.1601 -0.9508 0.2652
vn 0.0504 -0.9913 0.1216
vn 0.1059 -0.9513 0.2894
vn 0.0172 -0.9913 0.1305
vn 0.0158 -0.9571 0.2893
vn -0.0172 -0.9913 0.1305
vn -0.0743 -0.9508 0.3007
vn -0.0504 -0.9913 0.1216
vn -0.1298 -0.9513 0.2795
vn -0.0801 -0.9913 0.1044
vn -0.1934 -0.9571 0.2157
vn -0.1044 -0.9913 0.0801
vn -0.2652 -0.9508 0.1601
vn -0.1216 -0.9913 0.0504
vn -0.2894 -0.9513 0.1059
vn -0.1305 -0.9913 0.0172
vn -0.2893 -0.9571 0.0158
vn -0.1305 -0.9913 -0.0172
vn -0.3007 -0.9508 -0.0743
vn -0.1216 -0.9913 -0.0504
vn -0.2795 -0.9513 -0.1298
vn -0.1044 -0.9913 -0.0801
vn -0.2157 -0.9571 -0.1934
vn -0.0801 -0.9913 -0.1044
vn -0.1601 -0.9508 -0.2652
vn -0.0504 -0.9913 -0.1216
vn -0.1033 -0.9523 -0.2871
vn -0.0172 -0.9913 -0.1305
vn -0.0112 -0.9535 -0.3011
vn 0.0172 -0.9913 -0.1305
vn 0.0557 -0.9531 -0.2976
vn 0.0504 -0.9913 -0.1216
vn 0.1309 -0.9571 -0.2584
vn 0.0801 -0.9913 -0.1044
vn 0.2147 -0.9508 -0.2233
vn 0.1044 -0.9913 -0.0801
vn 0.2505 -0.9523 -0.1741
vn 0.1216 -0.9913 -0.0504
vn 0.2600 -0.9656 -0.0040
vn 0.1889 -0.9575 0.2181
vn 0.4755 -0.8749 -0.0914
vn 0.5083 -0.8460 0.1612
vn 0.3770 -0.8579 0.3490
vn 0.0207 -0.8582 0.5129
vn -0.3480 -0.8582 0.3773
vn -0.5129 -0.8582 0.0207
vn -0.3825 -0.8578 -0.3435
vn -0.0792 -0.8540 -0.5141
vn 0.2370 -0.8563 -0.4589
vn 0.4830 -0.8455 -0.2276
vn 0.6852 -0.7228 0.0902
vn 0.6858 -0.7012 0.1950
vn 0.5782 -0.7040 0.4123
vn 0.3608 -0.6986 0.6179
vn 0.1232 -0.7042 0.6992
vn -0.2063 -0.6910 0.6929
vn -0.4056 -0.7037 0.5834
vn -0.6176 -0.7017 0.3553
vn -0.6992 -0.7042 0.1232
vn -0.6929 -0.6910 -0.2063
vn -0.5856 -0.7001 -0.4086
vn -0.3654 -0.6944 -0.6199
vn -0.1094 -0.7068 -0.6989
vn 0.1829 -0.7006 -0.6897
vn 0.4372 -0.6931 -0.5732
vn 0.6402 -0.7078 -0.2986
vn 0.7237 -0.6797 -0.1195
vn 0.8411 -0.5294 0.1107
vn 0.8376 -0.4932 0.2349
vn 0.6958 -0.5018 0.5139
vn 0.4489 -0.5013 0.7397
vn 0.2253 -0.4968 0.8381
vn -0.1069 -0.4978 0.8607
vn -0.4026 -0.5053 0.7633
vn -0.6145 -0.4900 0.6183
vn -0.7487 -0.4978 0.4378
vn -0.8381 -0.4968 0.2253
vn -0.8601 -0.4963 -0.1176
vn -0.7010 -0.5059 -0.5026
vn -0.4489 -0.5013 -0.7397
vn -0.2253 -0.4968 -0.8381
vn 0.1176 -0.4963 -0.8601
vn 0.5047 -0.5098 -0.6967
vn 0.7303 -0.5053 -0.4597
vn 0.8413 -0.4900 -0.2282
vn 0.8826 -0.4556 -0.1162
vn 0.9471 -0.2956 0.1247
vn 0.9322 -0.2610 0.2508
vn 0.8443 -0.2638 0.4665
vn 0.6817 -0.2525 0.6867
vn 0.4872 -0.2558 0.8350
vn 0.2489 -0.2610 0.9327
vn 0.0181 -0.2638 0.9644
vn -0.2538 -0.2525 0.9337
vn -0.4796 -0.2558 0.8394
vn -0.6805 -0.2558 0.6867
vn -0.8350 -0.2558 0.4872
vn -0.9327 -0.2610 0.2488
vn -0.9644 -0.2638 0.0182
vn -0.9295 -0.2619 -0.2595
vn -0.8443 -0.2638 -0.4665
vn -0.6817 -0.2525 -0.6867
vn -0.4872 -0.2558 -0.8350
vn -0.2489 -0.2610 -0.9327
vn -0.0181 -0.2638 -0.9644
vn 0.2595 -0.2619 -0.9295
vn 0.4665 -0.2638 -0.8443
vn 0.6867 -0.2525 -0.6817
vn 0.8350 -0.2558 -0.4872
vn 0.9326 -0.2558 -0.2544
vn 0.9686 -0.2135 -0.1275
vn 0.9906 -0.0425 0.1304
vn 0.9659 -0.0000 0.2588
vn 0.8660 -0.0000 0.5000
vn 0.7071 -0.0000 0.7071
vn 0.5000 -0.0000 0.8660
vn 0.2588 -0.0000 0.9659
vn -0.0000 -0.0000 1.0000
vn -0.2588 -0.0000 0.9659
vn -0.5000 -0.0000 0.8660
vn -0.7071 -0.0000 0.7071
vn -0.8660 -0.0000 0.5000
vn -0.9659 -0.0000 0.2588
vn -1.0000 -0.0000 -0.0000
vn -0.9659 -0.0000 -0.2588
vn -0.8660 -0.0000 -0.5000
vn -0.7071 -0.0000 -0.7071
vn -0.5000 -0.0000 -0.8660
vn -0.2588 -0.0000 -0.9659
vn -0.0000 -0.0000 -1.0000
vn 0.2588 -0.0000 -0.9659
vn 0.5000 -0.0000 -0.8660
vn 0.7071 -0.0000 -0.7071
vn 0.8660 -0.0000 -0.5000
vn 0.9659 -0.0000 -0.2588
vn 0.9906 0.0425 -0.1304
vn 0.9686 0.2135 0.1275
vn 0.9326 0.2558 0.2545
vn 0.8350 0.2558 0.4872
vn 0.6805 0.2558 0.6867
vn 0.4796 0.2558 0.8394
vn 0.2460 0.2558 0.9349
vn 0.0030 0.2542 0.9672
vn -0.2674 0.2622 0.9272
vn -0.4818 0.2610 0.8365
vn -0.6867 0.2558 0.6805
vn -0.8394 0.2558 0.4796
vn -0.9349 0.2558 0.2460
vn -0.9672 0.2542 0.0030
vn -0.9272 0.2622 -0.2675
vn -0.8365 0.2610 -0.4818
vn -0.6805 0.2558 -0.6867
vn -0.4796 0.2558 -0.8394
vn -0.2460 0.2558 -0.9349
vn -0.0030 0.2542 -0.9672
vn 0.2674 0.2622 -0.9272
vn 0.4818 0.2610 -0.8365
vn 0.6867 0.2558 -0.6805
vn 0.8394 0.2558 -0.4796
vn 0.9349 0.2558 -0.2460
vn 0.9471 0.2956 -0.1247
vn 0.8826 0.4556 0.1162
vn 0.8397 0.4925 0.2287
vn 0.7423 0.4972 0.4492
vn 0.6099 0.4978 0.6166
vn 0.4320 0.4925 0.7555
vn 0.1916 0.5030 0.8428
vn -0.1202 0.4985 0.8585
vn -0.4353 0.4944 0.7524
vn -0.6166 0.4978 0.6099
vn -0.7555 0.4925 0.4320
vn -0.8428 0.5030 0.1916
vn -0.8585 0.4985 -0.1202
vn -0.7524 0.4944 -0.4353
vn -0.6099 0.4978 -0.6166
vn -0.4320 0.4925 -0.7555
vn -0.1916 0.5030 -0.8428
vn 0.1202 0.4985 -0.8585
vn 0.4353 0.4944 -0.7524
vn 0.6166 0.4978 -0.6099
vn 0.7555 0.4925 -0.4320
vn 0.8425 0.4972 -0.2072
vn 0.8360 0.5358 -0.1185
vn 0.7404 0.6607 0.1231
vn 0.6525 0.7010 0.2880
vn 0.4936 0.7007 0.5152
vn 0.2546 0.7005 0.6667
vn 0.0126 0.6918 0.7220
vn -0.2905 0.6950 0.6578
vn -0.5152 0.7007 0.4936
vn -0.6667 0.7005 0.2546
vn -0.7220 0.6918 0.0126
vn -0.6578 0.6950 -0.2904
vn -0.4936 0.7007 -0.5152
vn -0.2546 0.7005 -0.6667
vn -0.0126 0.6918 -0.7220
vn 0.2905 0.6950 -0.6578
vn 0.5152 0.7007 -0.4936
vn 0.6631 0.7024 -0.2589
vn 0.6748 0.7301 -0.1076
vn 0.5215 0.8395 0.1524
vn 0.4064 0.8538 0.3254
vn 0.1829 0.8553 0.4848
vn -0.0793 0.8553 0.5120
vn -0.3323 0.8532 0.4020
vn -0.4848 0.8553 0.1829
vn -0.5120 0.8553 -0.0793
vn -0.4020 0.8532 -0.3323
vn -0.1829 0.8553 -0.4848
vn 0.0793 0.8553 -0.5120
vn 0.3323 0.8532 -0.4020
vn 0.4916 0.8499 -0.1897
vn 0.3861 0.9203 -0.0621
vn 0.3112 0.9495 0.0410
vn 0.2876 0.9525 0.1002
vn 0.2552 0.9535 0.1603
vn 0.1971 0.9535 0.2278
vn 0.1408 0.9535 0.2664
vn 0.0568 0.9535 0.2959
vn -0.0112 0.9535 0.3011
vn -0.0988 0.9535 0.2846
vn -0.1603 0.9535 0.2552
vn -0.2278 0.9535 0.1971
vn -0.2664 0.9535 0.1408
vn -0.2959 0.9535 0.0568
vn -0.3011 0.9535 -0.0112
vn -0.2846 0.9535 -0.0988
vn -0.2552 0.9535 -0.1603
vn -0.1971 0.9535 -0.2278
vn -0.1408 0.9535 -0.2664
vn -0.0568 0.9535 -0.2959
vn 0.0112 0.9535 -0.3011
vn 0.0988 0.9535 -0.2846
vn 0.1603 0.9535 -0.2552
vn 0.2278 0.9535 -0.1971
vn 0.2664 0.9535 -0.1408
vn 0.2684 0.9630 0.0228
vn 0.1305 0.9913 0.0172
vn 0.1216 0.9913 0.0504
vn 0.1044 0.9913 0.0801
vn 0.0801 0.9913 0.1044
vn 0.0504 0.9913 0.1216
vn 0.0172 0.9913 0.1305
vn -0.0172 0.9913 0.1305
vn -0.0504 0.9913 0.1216
vn -0.0801 0.9913 0.1044
vn -0.1044 0.9913 0.0801
vn -0.1216 0.9913 0.0504
vn -0.1305 0.9913 0.0172
vn -0.1305 0.9913 -0.0172
vn -0.1216 0.9913 -0.0504
vn -0.1044 0.9913 -0.0801
vn -0.0801 0.9913 -0.1044
vn -0.0504 0.9913 -0.1216
vn -0.0172 0.9913 -0.1305
vn 0.0172 0.9913 -0.1305
vn 0.0504 0.9913 -0.1216
vn 0.0801 0.9913 -0.1044
vn 0.1044 0.9913 -0.0801
vn 0.1216 0.9913 -0.0504
vn 0.1865 0.9603 0.2076
vt 0.041667 0.000000
vt 0.000000 0.150000
vt 0.041667 0.150000
vt 0.083333 0.000000
vt 0.083333 0.150000
vt 0.125000 0.000000
vt 0.125000 0.150000
vt 0.166667 0.000000
vt 0.166667 0.150000
vt 0.208333 0.000000
vt 0.208333 0.150000
vt 0.250000 0.000000
vt 0.250000 0.150000
vt 0.291667 0.000000
vt 0.291667 0.150000
vt 0.333333 0.000000
vt 0.333333 0.150000
vt 0.375000 0.000000
vt 0.375000 0.150000
vt 0.416667 0.000000
vt 0.416667 0.150000
vt 0.458333 0.000000
vt 0.458333 0.150000
vt 0.500000 0.000000
vt 0.500000 0.150000
vt 0.541667 0.000000
vt 0.541667 0.150000
vt 0.583333 0.000000
vt 0.583333 0.150000
vt 0.625000 0.000000
vt 0.625000 0.150000
vt 0.666667 0.000000
vt 0.666667 0.150000
vt 0.708333 0.000000
vt 0.708333 0.150000
vt 0.750000 0.000000
vt 0.750000 0.150000
vt 0.791667 0.000000
vt 0.791667 0.150000
vt 0.833333 0.000000
vt 0.833333 0.150000
vt 0.875000 0.000000
vt 0.875000 0.150000
vt 0.916667 0.000000
vt 0.916667 0.150000
vt 0.958333 0.000000
vt 0.958333 0.150000
vt 1.000000 0.000000
vt 1.000000 0.243398
vt 0.000230 0.300000
vt 0.122199 0.300000
vt 0.247199 0.300000
vt 0.372199 0.300000
vt 0.497199 0.300000
vt 0.622199 0.300000
vt 0.727346 0.300000
vt 0.830764 0.300000
vt 0.935679 0.300000
vt 0.000000 0.450000
vt 0.041667 0.450000
vt 0.102964 0.450000
vt 0.166667 0.450000
vt 0.227964 0.450000
vt 0.291667 0.450000
vt 0.352964 0.450000
vt 0.416667 0.450000
vt 0.477964 0.450000
vt 0.541667 0.450000
vt 0.602964 0.450000
vt 0.666667 0.450000
vt 0.727964 0.450000
vt 0.791667 0.450000
vt 0.852964 0.450000
vt 0.936297 0.450000
vt 1.000000 0.450000
vt 0.000000 0.600000
vt 0.041667 0.600000
vt 0.103395 0.600000
vt 0.166667 0.600000
vt 0.208333 0.600000
vt 0.270062 0.600000
vt 0.333333 0.600000
vt 0.375000 0.600000
vt 0.416667 0.600000
vt 0.458333 0.600000
vt 0.520062 0.600000
vt 0.603395 0.600000
vt 0.666667 0.600000
vt 0.708333 0.600000
vt 0.770062 0.600000
vt 0.853395 0.600000
vt 0.916667 0.600000
vt 0.958333 0.600000
vt 1.000000 0.600000
vt 0.000000 0.750000
vt 0.041667 0.750000
vt 0.083333 0.750000
vt 0.125000 0.750000
vt 0.166667 0.750000
vt 0.208333 0.750000
vt 0.250000 0.750000
vt 0.291667 0.750000
vt 0.333333 0.750000
vt 0.375000 0.750000
vt 0.416667 0.750000
vt 0.458333 0.750000
vt 0.500000 0.750000
vt 0.541667 0.750000
vt 0.583333 0.750000
vt 0.625000 0.750000
vt 0.666667 0.750000
vt 0.708333 0.750000
vt 0.750000 0.750000
vt 0.791667 0.750000
vt 0.833333 0.750000
vt 0.875000 0.750000
vt 0.916667 0.750000
vt 0.958333 0.750000
vt 1.000000 0.750000
vt 0.000000 0.900000
vt 0.041667 0.900000
vt 0.083333 0.900000
vt 0.125000 0.900000
vt 0.166667 0.900000
vt 0.208333 0.900000
vt 0.250000 0.900000
vt 0.291667 0.900000
vt 0.333333 0.900000
vt 0.375000 0.900000
vt 0.416667 0.900000
vt 0.458333 0.900000
vt 0.500000 0.900000
vt 0.541667 0.900000
vt 0.583333 0.900000
vt 0.625000 0.900000
vt 0.666667 0.900000
vt 0.708333 0.900000
vt 0.750000 0.900000
vt 0.791667 0.900000
vt 0.833333 0.900000
vt 0.875000 0.900000
vt 0.916667 0.900000
vt 0.958333 0.900000
vt 1.000000 0.900000
vt 0.000000 1.050000
vt 0.041667 1.050000
vt 0.083333 1.050000
vt 0.125000 1.050000
vt 0.166667 1.050000
vt 0.208333 1.050000
vt 0.250000 1.050000
vt 0.291667 1.050000
vt 0.333333 1.050000
vt 0.375000 1.050000
vt 0.416667 1.050000
vt 0.458333 1.050000
vt 0.500000 1.050000
vt 0.541667 1.050000
vt 0.583333 1.050000
vt 0.625000 1.050000
vt 0.666667 1.050000
vt 0.708333 1.050000
vt 0.750000 1.050000
vt 0.791667 1.050000
vt 0.833333 1.050000
vt 0.875000 1.050000
vt 0.916667 1.050000
vt 0.958333 1.050000
vt 1.000000 1.050000
vt 0.000000 1.200000
vt 0.041667 1.200000
vt 0.083333 1.200000
vt 0.125000 1.200000
vt 0.166667 1.200000
vt 0.208333 1.200000
vt 0.271605 1.200000
vt 0.333333 1.200000
vt 0.375000 1.200000
vt 0.416667 1.200000
vt 0.458333 1.200000
vt 0.521605 1.200000
vt 0.583333 1.200000
vt 0.625000 1.200000
vt 0.666667 1.200000
vt 0.708333 1.200000
vt 0.771605 1.200000
vt 0.833333 1.200000
vt 0.875000 1.200000
vt 0.916667 1.200000
vt 0.958333 1.200000
vt 1.000000 1.200000
vt 0.000000 1.350000
vt 0.063703 1.350000
vt 0.125000 1.350000
vt 0.188703 1.350000
vt 0.250000 1.350000
vt 0.313703 1.350000
vt 0.375000 1.350000
vt 0.438703 1.350000
vt 0.500000 1.350000
vt 0.563703 1.350000
vt 0.625000 1.350000
vt 0.688703 1.350000
vt 0.750000 1.350000
vt 0.813703 1.350000
vt 0.875000 1.350000
vt 0.938703 1.350000
vt 1.000000 1.350000
vt -0.000347 1.500000
vt 0.105987 1.500000
vt 0.189321 1.500000
vt 0.272654 1.500000
vt 0.355987 1.500000
vt 0.439321 1.500000
vt 0.522654 1.500000
vt 0.605987 1.500000
vt 0.689321 1.500000
vt 0.772654 1.500000
vt 0.855987 1.500000
vt 0.939321 1.500000
vt 1.000000 1.565138
vt 0.000000 1.650000
vt 0.041667 1.650000
vt 0.083333 1.650000
vt 0.125000 1.650000
vt 0.166667 1.650000
vt 0.208333 1.650000
vt 0.250000 1.650000
vt 0.291667 1.650000
vt 0.333333 1.650000
vt 0.375000 1.650000
vt 0.416667 1.650000
vt 0.458333 1.650000
vt 0.500000 1.650000
vt 0.541667 1.650000
vt 0.583333 1.650000
vt 0.625000 1.650000
vt 0.666667 1.650000
vt 0.708333 1.650000
vt 0.750000 1.650000
vt 0.791667 1.650000
vt 0.833333 1.650000
vt 0.875000 1.650000
vt 0.916667 1.650000
vt 0.958333 1.650000
vt 0.000000 1.800000
vt 0.041667 1.800000
vt 0.083333 1.800000
vt 0.125000 1.800000
vt 0.166667 1.800000
vt 0.208333 1.800000
vt 0.250000 1.800000
vt 0.291667 1.800000
vt 0.333333 1.800000
vt 0.375000 1.800000
vt 0.416667 1.800000
vt 0.458333 1.800000
vt 0.500000 1.800000
vt 0.541667 1.800000
vt 0.583333 1.800000
vt 0.625000 1.800000
vt 0.666667 1.800000
vt 0.708333 1.800000
vt 0.750000 1.800000
vt 0.791667 1.800000
vt 0.833333 1.800000
vt 0.875000 1.800000
vt 0.916667 1.800000
vt 0.958333 1.800000
s 1
f 1/1/1 25/2/2 26/3/3
f 2/4/4 26/3/3 27/5/5
f 3/6/6 27/5/5 28/7/7
f 4/8/8 28/7/7 29/9/9
f 5/10/10 29/9/9 30/11/11
f 6/12/12 30/11/11 31/13/13
f 7/14/14 31/13/13 32/15/15
f 8/16/16 32/15/15 33/17/17
f 9/18/18 33/17/17 34/19/19
f 10/20/20 34/19/19 35/21/21
f 11/22/22 35/21/21 36/23/23
f 12/24/24 36/23/23 37/25/25
f 13/26/26 37/25/25 38/27/27
f 14/28/28 38/27/27 39/29/29
f 15/30/30 39/29/29 40/31/31
f 16/32/32 40/31/31 41/33/33
f 17/34/34 41/33/33 42/35/35
f 18/36/36 42/35/35 43/37/37
f 19/38/38 43/37/37 44/39/39
f 20/40/40 44/39/39 45/41/41
f 21/42/42 45/41/41 46/43/43
f 22/44/44 46/43/43 47/45/45
f 23/46/46 47/45/45 48/47/47
f 24/48/48 48/47/47 49/49/49
f 25/2/2 50/50/50 26/3/3
f 26/3/3 50/50/50 27/5/5
f 27/5/5 50/50/50 51/51/51
f 27/5/5 51/51/51 28/7/7
f 28/7/7 51/51/51 29/9/9
f 29/9/9 51/51/51 30/11/11
f 30/11/11 51/51/51 52/52/52
f 30/11/11 52/52/52 31/13/13
f 31/13/13 52/52/52 32/15/15
f 32/15/15 52/52/52 33/17/17
f 33/17/17 52/52/52 53/53/53
f 33/17/17 53/53/53 34/19/19
f 34/19/19 53/53/53 35/21/21
f 35/21/21 53/53/53 36/23/23
f 36/23/23 53/53/53 54/54/54
f 36/23/23 54/54/54 37/25/25
f 37/25/25 54/54/54 38/27/27
f 38/27/27 54/54/54 39/29/29
f 39/29/29 54/54/54 55/55/55
f 39/29/29 55/55/55 40/31/31
f 40/31/31 55/55/55 41/33/33
f 41/33/33 55/55/55 42/35/35
f 42/35/35 55/55/55 56/56/56
f 42/35/35 56/56/56 43/37/37
f 43/37/37 56/56/56 44/39/39
f 44/39/39 56/56/56 57/57/57
f 44/39/39 57/57/57 45/41/41
f 45/41/41 57/57/57 46/43/43
f 46/43/43 57/57/57 47/45/45
f 47/45/45 57/57/57 58/58/58
f 47/45/45 58/58/58 48/47/47
f 48/47/47 58/58/58 49/49/49
f 50/50/50 59/59/59 60/60/60
f 50/50/50 60/60/60 51/51/51
f 51/51/51 60/60/60 61/61/61
f 51/51/51 61/61/61 62/62/62
f 51/51/51 62/62/62 52/52/52
f 52/52/52 62/62/62 63/63/63
f 52/52/52 63/63/63 64/64/64
f 52/52/52 64/64/64 53/53/53
f 53/53/53 64/64/64 65/65/65
f 53/53/53 65/65/65 66/66/66
f 53/53/53 66/66/66 54/54/54
f 54/54/54 66/66/66 67/67/67
f 54/54/54 67/67/67 68/68/68
f 54/54/54 68/68/68 55/55/55
f 55/55/55 68/68/68 69/69/69
f 55/55/55 69/69/69 70/70/70
f 55/55/55 70/70/70 56/56/56
f 56/56/56 70/70/70 71/71/71
f 56/56/56 71/71/71 57/57/57
f 57/57/57 71/71/71 72/72/72
f 57/57/57 72/72/72 73/73/73
f 57/57/57 73/73/73 58/58/58
f 58/58/58 73/73/73 74/74/74
f 58/58/58 74/74/74 49/49/49
f 49/49/49 74/74/74 75/75/75
f 59/59/59 76/76/76 60/60/60
f 60/60/60 76/76/76 77/77/77
f 60/60/60 77/77/77 61/61/61
f 61/61/61 77/77/77 78/78/78
f 61/61/61 78/78/78 62/62/62
f 62/62/62 78/78/78 79/79/79
f 62/62/62 79/79/79 63/63/63
f 63/63/63 79/79/79 80/80/80
f 63/63/63 80/80/80 81/81/81
f 63/63/63 81/81/81 64/64/64
f 64/64/64 81/81/81 65/65/65
f 65/65/65 81/81/81 82/82/82
f 65/65/65 82/82/82 83/83/83
f 65/65/65 83/83/83 66/66/66
f 66/66/66 83/83/83 84/84/84
f 66/66/66 84/84/84 67/67/67
f 67/67/67 84/84/84 85/85/85
f 67/67/67 85/85/85 86/86/86
f 67/67/67 86/86/86 68/68/68
f 68/68/68 86/86/86 69/69/69
f 69/69/69 86/86/86 87/87/87
f 69/69/69 87/87/87 70/70/70
f 70/70/70 87/87/87 88/88/88
f 70/70/70 88/88/88 71/71/71
f 71/71/71 88/88/88 89/89/89
f 71/71/71 89/89/89 90/90/90
f 71/71/71 90/90/90 72/72/72
f 72/72/72 90/90/90 73/73/73
f 73/73/73 90/90/90 91/91/91
f 73/73/73 91/91/91 74/74/74
f 74/74/74 91/91/91 92/92/92
f 74/74/74 92/92/92 93/93/93
f 74/74/74 93/93/93 75/75/75
f 75/75/75 93/93/93 94/94/94
f 76/76/76 95/95/95 77/77/77
f 77/77/77 95/95/95 96/96/96
f 77/77/77 96/96/96 78/78/78
f 78/78/78 96/96/96 97/97/97
f 78/78/78 97/97/97 98/98/98
f 78/78/78 98/98/98 79/79/79
f 79/79/79 98/98/98 99/99/99
f 79/79/79 99/99/99 80/80/80
f 80/80/80 99/99/99 100/100/100
f 80/80/80 100/100/100 81/81/81
f 81/81/81 100/100/100 101/101/101
f 81/81/81 101/101/101 102/102/102
f 81/81/81 102/102/102 82/82/82
f 82/82/82 102/102/102 103/103/103
f 82/82/82 103/103/103 83/83/83
f 83/83/83 103/103/103 104/104/104
f 83/83/83 104/104/104 84/84/84
f 84/84/84 104/104/104 105/105/105
f 84/84/84 105/105/105 85/85/85
f 85/85/85 105/105/105 106/106/106
f 85/85/85 106/106/106 86/86/86
f 86/86/86 106/106/106 107/107/107
f 86/86/86 107/107/107 108/108/108
f 86/86/86 108/108/108 87/87/87
f 87/87/87 108/108/108 109/109/109
f 87/87/87 109/109/109 110/110/110
f 87/87/87 110/110/110 88/88/88
f 88/88/88 110/110/110 111/111/111
f 88/88/88 111/111/111 89/89/89
f 89/89/89 111/111/111 112/112/112
f 89/89/89 112/112/112 90/90/90
f 90/90/90 112/112/112 113/113/113
f 90/90/90 113/113/113 114/114/114
f 90/90/90 114/114/114 91/91/91
f 91/91/91 114/114/114 115/115/115
f 91/91/91 115/115/115 116/116/116
f 91/91/91 116/116/116 92/92/92
f 92/92/92 116/116/116 117/117/117
f 92/92/92 117/117/117 93/93/93
f 93/93/93 117/117/117 118/118/118
f 93/93/93 118/118/118 94/94/94
f 94/94/94 118/118/118 119/119/119
f 95/95/95 120/120/120 96/96/96
f 96/96/96 120/120/120 121/121/121
f 96/96/96 121/121/121 97/97/97
f 97/97/97 121/121/121 122/122/122
f 97/97/97 122/122/122 98/98/98
f 98/98/98 122/122/122 123/123/123
f 98/98/98 123/123/123 99/99/99
f 99/99/99 123/123/123 124/124/124
f 99/99/99 124/124/124 100/100/100
f 100/100/100 124/124/124 125/125/125
f 100/100/100 125/125/125 101/101/101
f 101/101/101 125/125/125 126/126/126
f 101/101/101 126/126/126 102/102/102
f 102/102/102 126/126/126 127/127/127
f 102/102/102 127/127/127 103/103/103
f 103/103/103 127/127/127 128/128/128
f 103/103/103 128/128/128 104/104/104
f 104/104/104 128/128/128 129/129/129
f 104/104/104 129/129/129 105/105/105
f 105/105/105 129/129/129 130/130/130
f 105/105/105 130/130/130 106/106/106
f 106/106/106 130/130/130 131/131/131
f 106/106/106 131/131/131 107/107/107
f 107/107/107 131/131/131 132/132/132
f 107/107/107 132/132/132 108/108/108
f 108/108/108 132/132/132 133/133/133
f 108/108/108 133/133/133 109/109/109
f 109/109/109 133/133/133 134/134/134
f 109/109/109 134/134/134 110/110/110
f 110/110/110 134/134/134 135/135/135
f 110/110/110 135/135/135 111/111/111
f 111/111/111 135/135/135 136/136/136
f 111/111/111 136/136/136 112/112/112
f 112/112/112 136/136/136 137/137/137
f 112/112/112 137/137/137 113/113/113
f 113/113/113 137/137/137 138/138/138
f 113/113/113 138/138/138 114/114/114
f 114/114/114 138/138/138 139/139/139
f 114/114/114 139/139/139 115/115/115
f 115/115/115 139/139/139 140/140/140
f 115/115/115 140/140/140 116/116/116
f 116/116/116 140/140/140 141/141/141
f 116/116/116 141/141/141 117/117/117
f 117/117/117 141/141/141 142/142/142
f 117/117/117 142/142/142 118/118/118
f 118/118/118 142/142/142 143/143/143
f 118/118/118 143/143/143 119/119/119
f 119/119/119 143/143/143 144/144/144
f 120/120/120 145/145/145 121/121/121
f 121/121/121 145/145/145 146/146/146
f 121/121/121 146/146/146 122/122/122
f 122/122/122 146/146/146 147/147/147
f 122/122/122 147/147/147 123/123/123
f 123/123/123 147/147/147 148/148/148
f 123/123/123 148/148/148 124/124/124
f 124/124/124 148/148/148 149/149/149
f 124/124/124 149/149/149 125/125/125
f 125/125/125 149/149/149 150/150/150
f 125/125/125 150/150/150 126/126/126
f 126/126/126 150/150/150 151/151/151
f 126/126/126 151/151/151 127/127/127
f 127/127/127 151/151/151 152/152/152
f 127/127/127 152/152/152 128/128/128
f 128/128/128 152/152/152 153/153/153
f 128/128/128 153/153/153 129/129/129
f 129/129/129 153/153/153 154/154/154
f 129/129/129 154/154/154 130/130/130
f 130/130/130 154/154/154 155/155/155
f 130/130/130 155/155/155 131/131/131
f 131/131/131 155/155/155 156/156/156
f 131/131/131 156/156/156 132/132/132
f 132/132/132 156/156/156 157/157/157
f 132/132/132 157/157/157 133/133/133
f 133/133/133 157/157/157 158/158/158
f 133/133/133 158/158/158 134/134/134
f 134/134/134 158/158/158 159/159/159
f 134/134/134 159/159/159 135/135/135
f 135/135/135 159/159/159 160/160/160
f 135/135/135 160/160/160 136/136/136
f 136/136/136 160/160/160 161/161/161
f 136/136/136 161/161/161 137/137/137
f 137/137/137 161/161/161 162/162/162
f 137/137/137 162/162/162 138/138/138
f 138/138/138 162/162/162 163/163/163
f 138/138/138 163/163/163 139/139/139
f 139/139/139 163/163/163 164/164/164
f 139/139/139 164/164/164 140/140/140
f 140/140/140 164/164/164 165/165/165
f 140/140/140 165/165/165 141/141/141
f 141/141/141 165/165/165 166/166/166
f 141/141/141 166/166/166 142/142/142
f 142/142/142 166/166/166 167/167/167
f 142/142/142 167/167/167 143/143/143
f 143/143/143 167/167/167 168/168/168
f 143/143/143 168/168/168 144/144/144
f 144/144/144 168/168/168 169/169/169
f 145/145/145 170/170/170 146/146/146
f 146/146/146 170/170/170 171/171/171
f 146/146/146 171/171/171 147/147/147
f 147/147/147 171/171/171 172/172/172
f 147/147/147 172/172/172 148/148/148
f 148/148/148 172/172/172 173/173/173
f 148/148/148 173/173/173 149/149/149
f 149/149/149 173/173/173 174/174/174
f 149/149/149 174/174/174 150/150/150
f 150/150/150 174/174/174 175/175/175
f 150/150/150 175/175/175 151/151/151
f 151/151/151 175/175/175 176/176/176
f 151/151/151 176/176/176 152/152/152
f 152/152/152 176/176/176 153/153/153
f 153/153/153 176/176/176 177/177/177
f 153/153/153 177/177/177 154/154/154
f 154/154/154 177/177/177 178/178/178
f 154/154/154 178/178/178 155/155/155
f 155/155/155 178/178/178 179/179/179
f 155/155/155 179/179/179 156/156/156
f 156/156/156 179/179/179 180/180/180
f 156/156/156 180/180/180 157/157/157
f 157/157/157 180/180/180 181/181/181
f 157/157/157 181/181/181 158/158/158
f 158/158/158 181/181/181 159/159/159
f 159/159/159 181/181/181 182/182/182
f 159/159/159 182/182/182 160/160/160
f 160/160/160 182/182/182 183/183/183
f 160/160/160 183/183/183 161/161/161
f 161/161/161 183/183/183 184/184/184
f 161/161/161 184/184/184 162/162/162
f 162/162/162 184/184/184 185/185/185
f 162/162/162 185/185/185 163/163/163
f 163/163/163 185/185/185 186/186/186
f 163/163/163 186/186/186 164/164/164
f 164/164/164 186/186/186 165/165/165
f 165/165/165 186/186/186 187/187/187
f 165/165/165 187/187/187 166/166/166
f 166/166/166 187/187/187 188/188/188
f 166/166/166 188/188/188 167/167/167
f 167/167/167 188/188/188 189/189/189
f 167/167/167 189/189/189 168/168/168
f 168/168/168 189/189/189 190/190/190
f 168/168/168 190/190/190 169/169/169
f 169/169/169 190/190/190 191/191/191
f 170/170/170 192/192/192 171/171/171
f 171/171/171 192/192/192 193/193/193
f 171/171/171 193/193/193 172/172/172
f 172/172/172 193/193/193 173/173/173
f 173/173/173 193/193/193 194/194/194
f 173/173/173 194/194/194 174/174/174
f 174/174/174 194/194/194 195/195/195
f 174/174/174 195/195/195 175/175/175
f 175/175/175 195/195/195 176/176/176
f 176/176/176 195/195/195 196/196/196
f 176/176/176 196/196/196 197/197/197
f 176/176/176 197/197/197 177/177/177
f 177/177/177 197/197/197 178/178/178
f 178/178/178 197/197/197 198/198/198
f 178/178/178 198/198/198 179/179/179
f 179/179/179 198/198/198 199/199/199
f 179/179/179 199/199/199 180/180/180
f 180/180/180 199/199/199 181/181/181
f 181/181/181 199/199/199 200/200/200
f 181/181/181 200/200/200 201/201/201
f 181/181/181 201/201/201 182/182/182
f 182/182/182 201/201/201 183/183/183
f 183/183/183 201/201/201 202/202/202
f 183/183/183 202/202/202 184/184/184
f 184/184/184 202/202/202 203/203/203
f 184/184/184 203/203/203 185/185/185
f 185/185/185 203/203/203 186/186/186
f 186/186/186 203/203/203 204/204/204
f 186/186/186 204/204/204 205/205/205
f 186/186/186 205/205/205 187/187/187
f 187/187/187 205/205/205 188/188/188
f 188/188/188 205/205/205 206/206/206
f 188/188/188 206/206/206 189/189/189
f 189/189/189 206/206/206 207/207/207
f 189/189/189 207/207/207 190/190/190
f 190/190/190 207/207/207 191/191/191
f 191/191/191 207/207/207 208/208/208
f 192/192/192 209/209/209 193/193/193
f 193/193/193 209/209/209 210/210/210
f 193/193/193 210/210/210 194/194/194
f 194/194/194 210/210/210 195/195/195
f 195/195/195 210/210/210 211/211/211
f 195/195/195 211/211/211 196/196/196
f 196/196/196 211/211/211 212/212/212
f 196/196/196 212/212/212 197/197/197
f 197/197/197 212/212/212 213/213/213
f 197/197/197 213/213/213 198/198/198
f 198/198/198 213/213/213 199/199/199
f 199/199/199 213/213/213 214/214/214
f 199/199/199 214/214/214 200/200/200
f 200/200/200 214/214/214 215/215/215
f 200/200/200 215/215/215 201/201/201
f 201/201/201 215/215/215 216/216/216
f 201/201/201 216/216/216 202/202/202
f 202/202/202 216/216/216 203/203/203
f 203/203/203 216/216/216 217/217/217
f 203/203/203 217/217/217 204/204/204
f 204/204/204 217/217/217 218/218/218
f 204/204/204 218/218/218 205/205/205
f 205/205/205 218/218/218 219/219/219
f 205/205/205 219/219/219 206/206/206
f 206/206/206 219/219/219 207/207/207
f 207/207/207 219/219/219 220/220/220
f 207/207/207 220/220/220 208/208/208
f 208/208/208 220/220/220 221/221/221
f 209/209/209 222/222/222 223/223/223
f 209/209/209 223/223/223 210/210/210
f 210/210/210 223/223/223 224/224/224
f 210/210/210 224/224/224 225/225/225
f 210/210/210 225/225/225 211/211/211
f 211/211/211 225/225/225 226/226/226
f 211/211/211 226/226/226 227/227/227
f 211/211/211 227/227/227 212/212/212
f 212/212/212 227/227/227 228/228/228
f 212/212/212 228/228/228 229/229/229
f 212/212/212 229/229/229 213/213/213
f 213/213/213 229/229/229 230/230/230
f 213/213/213 230/230/230 231/231/231
f 213/213/213 231/231/231 214/214/214
f 214/214/214 231/231/231 232/232/232
f 214/214/214 232/232/232 233/233/233
f 214/214/214 233/233/233 215/215/215
f 215/215/215 233/233/233 234/234/234
f 215/215/215 234/234/234 235/235/235
f 215/215/215 235/235/235 216/216/216
f 216/216/216 235/235/235 236/236/236
f 216/216/216 236/236/236 237/237/237
f 216/216/216 237/237/237 217/217/217
f 217/217/217 237/237/237 238/238/238
f 217/217/217 238/238/238 239/239/239
f 217/217/217 239/239/239 218/218/218
f 218/218/218 239/239/239 240/240/240
f 218/218/218 240/240/240 241/241/241
f 218/218/218 241/241/241 219/219/219
f 219/219/219 241/241/241 242/242/242
f 219/219/219 242/242/242 243/243/243
f 219/219/219 243/243/243 220/220/220
f 220/220/220 243/243/243 244/244/244
f 220/220/220 244/244/244 245/245/245
f 220/220/220 245/245/245 221/221/221
f 222/222/222 246/246/246 223/223/223
f 223/223/223 247/247/247 224/224/224
f 224/224/224 248/248/248 225/225/225
f 225/225/225 249/249/249 226/226/226
f 226/226/226 250/250/250 227/227/227
f 227/227/227 251/251/251 228/228/228
f 228/228/228 252/252/252 229/229/229
f 229/229/229 253/253/253 230/230/230
f 230/230/230 254/254/254 231/231/231
f 231/231/231 255/255/255 232/232/232
f 232/232/232 256/256/256 233/233/233
f 233/233/233 257/257/257 234/234/234
f 234/234/234 258/258/258 235/235/235
f 235/235/235 259/259/259 236/236/236
f 236/236/236 260/260/260 237/237/237
f 237/237/237 261/261/261 238/238/238
f 238/238/238 262/262/262 239/239/239
f 239/239/239 263/263/263 240/240/240
f 240/240/240 264/264/264 241/241/241
f 241/241/241 265/265/265 242/242/242
f 242/242/242 266/266/266 243/243/243
f 243/243/243 267/267/267 244/244/244
f 244/244/244 268/268/268 245/245/245
f 245/245/245 269/269/269 221/221/221
