# Blender 5.1.2
# www.blender.org
o justed_inferno_v32_ground_roll_01
v 5.500276 0.399974 -0.000369
v 5.376769 0.627370 0.325616
v 5.279397 0.612536 0.298989
v 5.290000 0.365757 0.285293
v 5.307817 0.242311 0.344595
v 5.402868 0.256782 0.350078
v 5.543227 0.376755 0.416988
v 5.508903 0.507371 0.392102
v 5.204745 0.767640 0.642823
v 5.074234 0.714148 0.589955
v 4.829837 0.522984 1.093093
v 5.064329 0.325456 0.624336
v 5.162505 0.180952 0.682548
v 5.289785 0.191050 0.738307
v 5.368637 0.296802 0.762919
v 5.498446 0.403231 0.810190
v 5.403085 0.583117 0.749702
v 5.319310 0.696547 0.701016
v 5.015007 0.854163 0.932942
v 4.884907 0.753868 0.873653
v 4.882560 0.302437 0.919824
v 5.021540 0.172710 1.008047
v 5.138184 0.199826 1.111282
v 5.250687 0.304421 1.117196
v 5.381557 0.453695 1.171754
v 5.236071 0.617188 1.136711
v 5.099924 0.806047 1.125255
v 4.814815 0.908116 1.202177
v 4.710732 0.759004 1.152591
v 4.601014 0.303537 1.377724
v 4.791404 0.208121 1.449405
v 5.105659 0.324506 1.452053
v 5.203579 0.511042 1.493555
v 4.553483 0.979033 1.494149
v 4.532262 0.762887 1.414665
v 4.540074 0.561574 1.444379
v 4.930847 0.332191 1.794706
v 4.997710 0.563764 1.785318
v 4.488271 0.849674 2.121936
v 4.341380 0.776602 1.651141
v 4.307566 0.579129 1.646929
v 4.182818 0.314501 1.867935
v 4.330369 0.229974 2.057739
v 4.493063 0.301798 2.112830
v 4.780923 0.340859 2.088615
v 4.779674 0.609639 2.053269
v 4.377987 1.032293 1.998614
v 4.167817 1.087236 1.848144
v 4.146565 0.793375 1.867234
v 4.070390 0.597170 1.817369
v 4.590022 0.344593 2.377108
v 4.542105 0.647309 2.286927
v 3.970589 1.091847 2.046241
v 3.791410 0.819804 2.234992
v 3.833294 0.626462 2.002887
v 3.938531 0.369769 2.117448
v 4.074945 0.283289 2.290776
v 4.043503 0.359218 2.524929
v 4.351304 0.373164 2.601954
v 4.266608 0.666170 2.488402
v 4.229745 0.889701 2.381236
v 4.121226 1.071340 2.226336
v 3.786935 1.046723 2.254001
v 3.575237 0.508997 2.449891
v 3.679408 0.426862 2.617268
v 4.071828 0.430917 2.747509
v 3.847625 0.893667 2.647779
v 3.778794 1.044900 2.512562
v 3.598644 0.998483 2.446053
v 3.564394 0.840402 2.420103
v 3.493162 0.695006 2.332028
v 3.702854 0.417376 2.722551
v 3.583245 0.523710 2.928735
v 3.570795 0.712792 2.849198
v 3.398135 0.994060 2.596957
v 3.351694 0.888128 2.529787
v 3.295243 0.734447 2.453398
v 3.323125 0.556815 2.594519
v 3.465706 0.410554 2.850401
v 3.519627 0.911385 2.848631
v 3.449909 1.076117 2.732377
v 3.193522 1.037716 2.708844
v 3.132146 0.978833 2.579248
v 2.990024 0.797666 2.523947
v 3.057110 0.576756 2.639827
v 3.170280 0.480002 2.790698
v 3.232062 0.333857 2.971385
v 3.290196 0.517510 3.062863
v 3.203777 0.660006 3.109484
v 3.148125 1.006113 3.117688
v 2.947729 1.113989 2.816604
v 2.923666 1.103424 2.593824
v 2.811587 0.454864 2.816985
v 2.994958 0.222114 3.060723
v 3.053969 0.497765 3.154051
v 3.069569 1.256237 2.978774
v 2.737836 1.219534 2.621706
v 2.694344 0.890437 2.572751
v 2.695351 0.594364 2.684390
v 2.759429 0.153480 3.093378
v 2.763556 0.513035 3.216153
v 2.864902 0.713522 3.298725
v 2.890420 1.034084 3.281066
v 2.867412 1.301184 3.094625
v 2.607903 1.188507 2.958499
v 2.482877 1.303113 2.728140
v 2.372908 0.963916 2.691311
v 2.516095 0.643866 2.714895
v 2.519302 0.407925 2.848719
v 2.539715 0.172687 3.078025
v 2.636066 0.696112 3.357361
v 2.666721 1.029806 3.364076
v 2.654536 1.274261 3.176064
v 2.419556 1.224917 3.019913
v 2.347998 0.698203 2.748972
v 2.333021 0.418143 2.826256
v 2.341786 0.248150 3.044471
v 2.380730 0.528086 3.197228
v 2.343837 0.679810 3.371741
v 2.345702 1.002186 3.425313
v 2.439497 1.215265 3.218848
v 2.235427 1.282331 3.069777
v 2.231362 1.329045 2.826873
v 2.204322 1.010376 2.732696
v 2.184909 0.741402 2.762221
v 2.161088 0.418227 2.781808
v 2.160826 0.320785 3.008990
v 2.181755 0.524514 3.185651
v 2.232188 1.169511 3.238940
v 2.054730 1.365794 3.113573
v 2.063911 1.355769 2.864898
v 1.986037 1.075528 2.739646
v 2.028882 0.772348 2.744595
v 2.004899 0.402323 2.712811
v 1.992566 0.372097 2.971712
v 1.992905 0.493041 3.171154
v 1.827145 0.629519 3.370821
v 1.856843 0.973985 3.475372
v 2.034476 1.147431 3.248602
v 1.873664 1.439596 3.147349
v 1.897455 1.366686 2.888568
v 1.770054 0.839549 2.690286
v 1.801747 0.415722 2.625765
v 1.835857 0.424452 2.935274
v 1.815127 0.458079 3.144284
v 1.751889 1.128109 3.240406
v 1.644815 1.440264 3.147598
v 1.723979 1.327081 2.905715
v 1.672764 1.052406 2.746604
v 1.649601 0.514868 2.914014
v 1.651487 0.459826 3.100189
v 1.622164 0.627702 3.314898
v 1.623426 0.950652 3.400820
v 1.539479 0.853422 2.682414
v 1.596888 0.545596 2.655267
v 1.442949 0.547906 3.019207
v 1.431141 0.669905 3.210363
v 1.461882 0.932865 3.278021
v 1.393881 1.073513 3.126461
v 1.248028 1.206471 2.985556
v 1.409871 1.168153 2.877146
v 1.447993 0.646360 2.702640
v 1.399460 0.651284 2.861609
v 1.321276 0.922049 3.143186
v 1.257140 1.119476 2.843703
v 1.295646 0.860029 2.659099
v 1.299959 0.711647 2.719005
v 1.259822 0.688166 2.826745
v 1.176682 0.657142 2.915401
v 1.153603 0.751301 3.036230
v 1.190760 1.051800 3.035869
v 1.001227 1.178029 2.851770
v 1.129783 1.109390 2.788636
v 1.162403 0.734316 2.694872
v 1.117235 0.676532 2.764745
v 1.000278 0.916625 2.936143
v 1.041505 1.081513 2.980651
v 0.891063 1.110520 2.636672
v 1.061953 0.835551 2.525756
v 1.005468 0.742605 2.630533
v 0.842682 0.627044 2.800181
v 0.807622 0.765174 2.900086
v 0.893077 1.120408 2.930287
v 0.800997 1.170936 2.711850
v 0.925492 0.998203 2.555053
v 0.971591 0.818059 2.477836
v 0.818962 0.615795 2.654592
v 0.690293 0.956032 2.781588
v 0.756583 1.148964 2.857692
v 0.770613 0.973664 2.446033
v 0.841979 0.804989 2.442188
v 0.672335 0.731253 2.516383
v 0.633159 0.653011 2.714118
v 0.638152 0.802174 2.778755
v 0.605241 1.137299 2.717934
v 0.521696 1.083644 2.470267
v 0.609003 0.937754 2.329053
v 0.705591 0.799429 2.411723
v 0.523281 0.650657 2.528429
v 0.519731 0.894615 2.677863
v 0.582823 0.785912 2.375777
v 0.340590 0.699898 2.540846
v 0.387051 0.833004 2.547579
v 0.337010 0.978688 2.533250
v 0.377705 1.087243 2.472072
v 0.439183 0.892613 2.176449
v 0.420558 0.719519 2.336865
v 0.258954 0.643111 2.384902
v 0.276399 1.028612 2.197369
v 0.322906 0.785586 2.215249
v 0.231459 0.672982 2.247405
v 0.129324 0.725938 2.384163
v 0.134304 0.860798 2.331199
v 0.122660 0.995609 2.344557
v 0.208878 1.052621 2.275166
v 0.220424 0.943213 2.073709
v 0.250594 0.844260 2.062330
v 0.079591 0.670327 2.253868
v -0.057124 0.743511 1.999352
v -0.003637 0.779921 2.191054
v -0.012801 0.940819 2.127722
v 0.013567 0.940018 2.047146
v -0.099464 0.837897 1.844913
v -0.043551 0.808250 1.910684
v -0.105572 0.751198 2.002013
v -0.108250 0.836640 2.008204
v -0.152360 0.850559 1.843844
v -0.174339 0.767878 1.848135
v -0.261323 0.807869 1.733320
v -0.222328 0.783112 1.744086
v -0.342500 0.781193 1.564832
v 4.267383 0.629449 2.106744
v 4.203197 0.879888 2.110760
v 4.136727 0.828532 2.101853
v 4.068905 0.763302 2.174555
v 4.062653 0.656573 2.239911
v 4.112668 0.656423 2.296649
v 4.171702 0.696083 2.312235
v 4.232682 0.780418 2.272396
v 4.222302 0.837566 2.199246
v 3.975679 1.150320 2.220813
v 4.007280 0.943162 2.191758
v 3.947017 0.758547 2.363859
v 3.932967 0.880943 2.506137
v 4.082571 0.819368 2.448697
v 4.128213 0.924492 2.364556
v 3.818860 0.961940 2.331065
v 3.843076 0.885114 2.452782
v 3.979634 0.931870 2.570868
v 4.001254 1.045318 2.446877
v 4.011101 1.134377 2.340101
v 3.839432 1.222768 2.396273
v 3.792226 1.168504 2.389410
v 3.733008 1.085624 2.414174
v 3.779435 1.005447 2.575670
v 3.824381 1.069496 2.599935
v 3.893808 1.237190 2.444429
v 3.689402 1.349793 2.383235
v 3.607288 1.195157 2.451027
v 3.608275 1.109750 2.561020
v 3.597389 0.989468 2.696707
v 3.700852 1.129792 2.680513
v 3.777236 1.245023 2.653785
v 3.837167 1.400272 2.550484
v 3.662146 1.465768 2.581418
v 3.609234 1.480856 2.473363
v 3.530071 1.308323 2.539609
v 3.459661 1.167745 2.583488
v 3.467071 1.085872 2.691790
v 3.565194 1.211040 2.713277
v 3.662864 1.306642 2.768528
v 3.691500 1.435184 2.667313
v 3.589743 1.612322 2.685301
v 3.508684 1.557306 2.589287
v 3.424680 1.397677 2.593886
v 3.320211 1.215834 2.582692
v 3.369688 1.195237 2.696259
v 3.430283 1.226409 2.778134
v 3.533859 1.346802 2.849998
v 3.474955 1.483198 2.797179
v 3.330215 1.593538 2.807247
v 3.313506 1.477297 2.676380
v 3.275831 1.335183 2.663501
v 3.325556 1.293596 2.804703
v 3.384258 1.406157 2.835742
v 3.142209 1.489265 2.757263
v 3.186425 1.401804 2.757919
v 3.203334 1.359702 2.795417
v 3.176497 1.385016 2.875545
v 3.259164 1.536781 2.869197
v 3.134565 1.595671 2.850199
v 3.069769 1.555128 2.814837
v 3.090397 1.491460 2.925043
v 3.153316 1.572016 2.901408
v 3.001257 1.565959 2.873168
v 2.950639 1.452316 2.854607
v 2.975788 1.407315 2.891252
v 2.960065 1.384614 2.949027
v 3.041080 1.420826 2.938993
v 3.017250 1.562997 2.918185
v 2.879640 1.519350 2.929670
v 2.882101 1.490317 2.871614
v 2.910201 1.448332 2.974169
v 2.696789 1.358137 2.981704
v 2.794276 1.393033 2.963613
v 2.757959 1.404834 2.970047
v 2.323927 0.836422 3.035653
v 2.350217 1.061465 2.951253
v 2.186476 0.949931 2.952256
v 2.119571 0.901442 3.036408
v 2.126482 0.904151 3.109789
v 2.169320 0.932077 3.167236
v 2.263665 0.998515 3.117661
v 2.333272 1.048515 3.046002
v 2.244059 1.188810 2.983173
v 2.208776 1.169767 2.961483
v 2.075920 1.114537 2.960372
v 2.043850 1.048039 3.030100
v 2.033724 1.040748 3.098465
v 2.048133 1.101876 3.144144
v 2.222679 1.184254 3.073778
v 2.176029 1.336921 3.005071
v 2.023099 1.222473 2.925344
v 1.900681 1.136156 3.081299
v 1.951069 1.174859 3.148821
v 2.165730 1.331458 3.092831
v 2.071590 1.442418 2.972699
v 1.943822 1.355886 2.921379
v 1.792422 1.229013 3.029507
v 1.858634 1.285694 3.102580
v 1.947919 1.358424 3.133431
v 2.063108 1.449948 3.131025
v 2.005607 1.591751 3.082961
v 2.051149 1.621316 2.962933
v 1.883697 1.479385 2.902449
v 1.773126 1.365568 2.889118
v 1.654994 1.265456 2.949440
v 1.676644 1.419486 3.046666
v 1.824760 1.440015 3.191641
v 1.969338 1.568920 3.186208
v 1.929117 1.722124 3.116595
v 1.943158 1.718038 2.988173
v 1.698618 1.434260 2.824676
v 1.638220 1.385123 2.925981
v 1.718113 1.508759 3.188494
v 1.834721 1.626441 3.147195
v 1.813801 1.799724 3.093887
v 1.778066 1.725683 2.986887
v 1.729582 1.643199 2.917554
v 1.647618 1.516642 2.854725
v 1.630260 1.516913 2.955667
v 1.597260 1.489702 3.030571
v 1.657425 1.592282 3.117552
v 1.726378 1.680616 3.093881
v 1.689992 1.836400 3.031436
v 1.574134 1.696299 2.889126
v 1.644352 1.684083 2.886864
v 1.589571 1.580736 2.903212
v 1.568730 1.564505 2.964589
v 1.539706 1.537716 3.040066
v 1.563522 1.638202 3.043495
v 1.626459 1.774684 3.065192
v 1.568732 1.803462 2.954351
v 1.495615 1.586515 2.978976
v 1.453981 1.637948 3.041226
v 1.456655 1.813844 2.896852
v 1.484848 1.789230 2.847445
v 1.483883 1.672406 2.868705
v 1.467029 1.610482 2.939384
v 1.447665 1.541884 3.020201
v 1.437488 1.739817 3.027119
v 1.447758 1.852499 2.972661
v 1.361472 1.709410 2.845618
v 1.405042 1.665362 2.891223
v 1.391720 1.617709 2.942482
v 1.372327 1.616378 2.989678
v 1.349970 1.722687 2.978005
v 1.360800 1.773610 2.918587
v 1.288075 1.701692 2.864484
v 1.234039 1.583008 2.889292
v 1.272885 1.665349 2.933267
v 1.166464 1.527340 2.853418
v 1.238122 1.605502 2.863548
v 0.964056 0.895945 2.762652
v 1.013949 1.090483 2.733836
v 0.921302 1.032137 2.637412
v 0.773054 0.985593 2.697407
v 0.798548 1.000463 2.773045
v 0.979080 1.099154 2.811172
v 0.940815 1.234304 2.690051
v 0.853875 1.179762 2.611925
v 0.697625 1.158643 2.611477
v 0.759476 1.159408 2.736496
v 0.858825 1.282971 2.787799
v 0.869216 1.395470 2.748569
v 0.887931 1.539257 2.669777
v 0.833402 1.330122 2.580908
v 0.739097 1.271406 2.536548
v 0.623646 1.273699 2.598170
v 0.701933 1.311443 2.740378
v 0.818728 1.553530 2.771362
v 0.792535 1.470926 2.525264
v 0.694719 1.377542 2.437788
v 0.575996 1.315572 2.442446
v 0.552912 1.469534 2.707140
v 0.720062 1.511262 2.803318
v 0.752835 1.682739 2.745185
v 0.815469 1.679723 2.640423
v 0.643737 1.472436 2.381479
v 0.535985 1.419225 2.413728
v 0.512785 1.453175 2.535727
v 0.647725 1.618555 2.745535
v 0.712383 1.810398 2.697931
v 0.728018 1.762075 2.566949
v 0.666345 1.660842 2.456575
v 0.571406 1.532966 2.342370
v 0.492299 1.517143 2.427939
v 0.439439 1.522159 2.516175
v 0.478786 1.620797 2.654422
v 0.556003 1.905732 2.464083
v 0.569130 1.727285 2.426285
v 0.511970 1.627059 2.412353
v 0.422269 1.622995 2.517153
v 0.482562 1.715036 2.563466
v 0.542102 1.781363 2.574075
v 0.540071 1.826446 2.415184
v 0.526861 1.730591 2.350529
v 0.443831 1.663648 2.405257
v 0.385173 1.627558 2.453567
v 0.352019 1.661347 2.527528
v 0.420843 1.791728 2.509936
v 0.500410 1.900099 2.532271
v 0.457853 1.883409 2.381661
v 0.485617 1.848121 2.335161
v 0.437366 1.739803 2.335280
v 0.323623 1.655463 2.462269
v 0.340665 1.732753 2.488468
v 0.430193 1.940161 2.434435
v 0.348558 1.921417 2.342127
v 0.440684 1.849201 2.247736
v 0.359567 1.674255 2.391103
v 0.298524 1.635764 2.476209
v 0.290580 1.846628 2.426011
v 0.298131 1.831176 2.260515
v 0.340461 1.798154 2.250012
v 0.302236 1.692521 2.333852
v 0.282072 1.700914 2.391026
v 0.239376 1.782969 2.330744
v 0.189724 1.687939 2.217022
v 0.260128 1.727125 2.245865
v 0.227661 1.692840 2.307148
v 0.184751 1.618096 2.211681
v 0.138005 1.558856 2.180648
vn -0.0531 -0.8157 -0.5761
vn -0.3344 0.3472 -0.8761
vn 0.2687 0.9003 -0.3423
vn -0.7813 -0.2804 -0.5576
vn -0.3142 -0.8319 -0.4575
vn 0.5020 -0.8523 -0.1468
vn 0.9556 -0.1649 -0.2441
vn 0.8594 0.5107 -0.0252
vn -0.7596 0.2529 -0.5992
vn 0.1131 0.9570 -0.2672
vn -0.8378 -0.0449 -0.5441
vn -0.8045 -0.1738 -0.5680
vn -0.3750 -0.8888 -0.2634
vn 0.4677 -0.8788 0.0949
vn 0.6823 -0.7015 0.2059
vn 0.9755 0.0061 0.2200
vn 0.8251 0.5298 0.1965
vn 0.6271 0.7770 0.0554
vn -0.7914 0.2374 -0.5633
vn -0.0319 0.9649 -0.2607
vn -0.7925 -0.3729 -0.4825
vn -0.2908 -0.9462 -0.1419
vn 0.3634 -0.9086 0.2060
vn 0.6837 -0.6526 0.3266
vn 0.9250 0.0945 0.3681
vn 0.7241 0.6249 0.2918
vn 0.5887 0.7796 0.2137
vn -0.7831 0.2207 -0.5814
vn -0.1836 0.9321 -0.3122
vn -0.6912 -0.5064 -0.5156
vn -0.1348 -0.9904 -0.0300
vn 0.7482 -0.5195 0.4128
vn 0.8539 0.1905 0.4843
vn -0.7435 0.1882 -0.6417
vn -0.3189 0.8088 -0.4941
vn -0.7450 -0.1218 -0.6558
vn 0.6250 -0.5861 0.5156
vn 0.8159 0.2774 0.5072
vn 0.6074 0.6510 0.4553
vn -0.7007 0.2513 -0.6677
vn -0.6533 -0.1737 -0.7369
vn -0.5448 -0.6705 -0.5035
vn -0.0563 -0.9977 0.0380
vn 0.1801 -0.9625 0.2031
vn 0.7313 -0.6182 0.2882
vn 0.7576 0.3249 0.5661
vn 0.4332 0.8662 0.2489
vn -0.6737 0.2293 -0.7025
vn -0.4237 0.7165 -0.5542
vn -0.6587 -0.1243 -0.7421
vn 0.7135 -0.3575 0.6026
vn 0.6664 0.3832 0.6396
vn -0.6464 0.3036 -0.7000
vn -0.5039 0.7231 -0.4724
vn -0.7055 -0.0580 -0.7063
vn -0.5753 -0.7029 -0.4183
vn -0.2247 -0.9738 0.0341
vn -0.0227 -0.9540 0.2988
vn 0.5045 -0.3138 0.8044
vn 0.5449 0.4176 0.7271
vn 0.5206 0.6094 0.5980
vn 0.3059 0.8987 0.3143
vn -0.5173 0.7448 -0.4215
vn -0.5074 -0.7431 -0.4363
vn -0.2827 -0.9463 -0.1566
vn 0.3867 -0.2952 0.8737
vn 0.4653 0.5012 0.7295
vn 0.2049 0.9265 0.3157
vn -0.5038 0.3814 -0.7751
vn -0.4194 0.7934 -0.4411
vn -0.6105 -0.0464 -0.7907
vn 0.1148 -0.9539 0.2771
vn 0.4275 -0.1984 0.8820
vn 0.4907 0.2842 0.8237
vn -0.2254 0.4545 -0.8618
vn -0.1712 0.8386 -0.5171
vn -0.3581 -0.1054 -0.9277
vn -0.2793 -0.7577 -0.5899
vn 0.1620 -0.9674 0.1947
vn 0.5704 0.4100 0.7117
vn 0.3048 0.9441 0.1254
vn 0.0629 0.4991 -0.8643
vn 0.0775 0.8709 -0.4853
vn -0.1475 -0.1344 -0.9799
vn -0.1428 -0.6768 -0.7222
vn -0.1403 -0.7949 -0.5904
vn 0.3458 -0.9206 0.1816
vn 0.4182 -0.3203 0.8500
vn 0.4777 0.0131 0.8784
vn 0.5700 0.3491 0.7438
vn 0.1662 0.5919 -0.7887
vn 0.1624 0.9348 -0.3158
vn -0.0127 -0.7109 -0.7032
vn 0.3057 -0.9309 0.1997
vn 0.3492 -0.3326 0.8760
vn 0.3224 0.9386 0.1228
vn 0.0934 0.7090 -0.6989
vn -0.2267 -0.0607 -0.9721
vn -0.1646 -0.5094 -0.8446
vn 0.0914 -0.9661 0.2415
vn 0.1107 -0.4180 0.9017
vn 0.3413 -0.1588 0.9264
vn 0.4148 0.3085 0.8560
vn 0.2560 0.9315 0.2585
vn -0.0765 0.8363 -0.5429
vn 0.1214 0.9906 -0.0629
vn -0.2736 -0.0162 -0.9617
vn -0.2429 -0.3328 -0.9112
vn -0.0426 -0.6550 -0.7544
vn -0.1785 -0.9527 0.2458
vn 0.1712 -0.2718 0.9470
vn 0.2089 0.3020 0.9301
vn 0.0476 0.8903 0.4529
vn 0.1623 0.9824 0.0927
vn -0.1375 -0.1788 -0.9742
vn -0.0046 -0.6142 -0.7891
vn -0.2694 -0.9420 0.2002
vn -0.0963 -0.5681 0.8173
vn 0.0250 -0.4383 0.8985
vn 0.0732 0.2735 0.9591
vn -0.0096 0.8218 0.5697
vn 0.0521 0.8295 -0.5561
vn 0.2804 0.9300 0.2374
vn -0.1246 0.1146 -0.9856
vn 0.0369 -0.0734 -0.9966
vn 0.1362 -0.5887 -0.7968
vn -0.2063 -0.9669 0.1501
vn -0.0363 -0.6839 0.7286
vn 0.0080 0.7210 0.6929
vn 0.0776 0.8118 -0.5787
vn 0.3088 0.8752 0.3722
vn -0.0116 0.2368 -0.9715
vn 0.1844 0.0431 -0.9819
vn 0.1863 -0.5713 -0.7993
vn -0.1650 -0.9825 0.0869
vn 0.0087 -0.7915 0.6111
vn -0.1144 -0.5186 0.8473
vn -0.0782 0.2412 0.9673
vn 0.0385 0.6353 0.7713
vn -0.0338 0.7812 -0.6234
vn 0.0850 0.8671 0.4908
vn 0.0608 0.1766 -0.9824
vn -0.0472 -0.5229 -0.8511
vn -0.2605 -0.9654 0.0116
vn -0.0947 -0.8762 0.4726
vn -0.1948 0.5745 0.7950
vn -0.2013 0.7523 -0.6273
vn -0.3224 0.8056 0.4970
vn -0.1064 0.4057 -0.9078
vn -0.4179 -0.9028 -0.1019
vn -0.3398 -0.9010 0.2696
vn -0.3860 -0.4950 0.7785
vn -0.4054 0.1646 0.8992
vn -0.0696 0.2163 -0.9738
vn -0.3376 -0.4436 -0.8302
vn -0.4548 -0.8880 0.0680
vn -0.5754 -0.4499 0.6830
vn -0.6162 0.0552 0.7856
vn -0.4914 0.3712 0.7879
vn -0.1766 0.6877 -0.7042
vn -0.3937 0.8578 0.3305
vn -0.4021 -0.4065 -0.8204
vn -0.3498 -0.9071 -0.2342
vn -0.6513 0.0202 0.7585
vn 0.0561 0.7377 -0.6727
vn 0.1940 0.1176 -0.9739
vn -0.0172 -0.5854 -0.8106
vn -0.0898 -0.9662 -0.2417
vn -0.2212 -0.9501 0.2201
vn -0.5058 -0.3569 0.7854
vn -0.4699 0.2539 0.8454
vn 0.2782 0.7392 -0.6133
vn 0.0336 0.9943 0.1009
vn 0.1859 -0.6098 -0.7704
vn 0.1471 -0.9362 -0.3191
vn -0.4130 0.0275 0.9103
vn -0.2424 0.3747 0.8949
vn 0.3074 0.7592 -0.5738
vn 0.4887 -0.1751 -0.8547
vn 0.3309 -0.7407 -0.5847
vn -0.2251 -0.8426 0.4893
vn -0.4440 -0.2037 0.8726
vn -0.3983 0.3716 0.8386
vn 0.0259 0.9869 -0.1593
vn 0.4811 0.5003 -0.7199
vn 0.3040 -0.1943 -0.9327
vn 0.1120 -0.9187 -0.3787
vn -0.5568 0.0468 0.8293
vn -0.4098 0.4443 0.7967
vn 0.4068 0.3296 -0.8520
vn 0.3544 -0.2711 -0.8949
vn 0.2537 -0.7498 -0.6111
vn -0.4657 -0.6555 0.5945
vn -0.5889 -0.1666 0.7909
vn -0.6536 0.5339 0.5364
vn 0.4903 0.2245 -0.8422
vn 0.1423 0.9063 -0.3980
vn 0.2661 -0.3190 -0.9096
vn 0.0635 -0.9664 -0.2491
vn -0.6726 0.0031 0.7400
vn 0.3440 -0.5352 -0.7715
vn -0.5414 -0.3172 0.7787
vn -0.6122 -0.0218 0.7904
vn -0.5917 0.3092 0.7445
vn -0.4316 0.8240 0.3671
vn 0.6060 -0.0803 -0.7914
vn 0.4520 -0.7737 -0.4440
vn -0.0993 -0.9896 0.1040
vn 0.1917 0.8319 -0.5208
vn 0.4497 -0.6603 -0.6015
vn 0.2549 -0.8354 -0.4870
vn -0.7096 -0.2188 0.6698
vn -0.7262 0.0876 0.6819
vn -0.7162 0.4126 0.5629
vn -0.2775 0.9584 0.0669
vn 0.5248 -0.2521 -0.8130
vn 0.5086 0.4511 -0.7334
vn -0.4821 -0.8712 0.0927
vn 0.0876 -0.9124 -0.3997
vn -0.8772 -0.0893 0.4718
vn -0.7239 0.5718 0.3860
vn -0.2587 0.9391 -0.2261
vn 0.5138 0.3055 -0.8017
vn 0.4933 -0.5323 -0.6880
vn -0.6708 -0.7108 0.2115
vn -0.8904 0.0764 0.4487
vn -0.0284 0.9435 -0.3301
vn 0.4462 -0.8036 -0.3939
vn -0.8885 0.3849 0.2500
vn 0.5678 -0.7038 -0.4269
vn 0.3239 -0.0448 -0.9450
vn -0.3049 -0.7747 -0.5540
vn -0.1938 -0.0865 -0.9772
vn 0.3429 0.3538 -0.8702
vn -0.6377 -0.3601 -0.6809
vn -0.5569 -0.7929 -0.2473
vn 0.0251 -0.8991 0.4370
vn 0.6563 -0.5863 0.4750
vn 0.9305 0.0087 0.3661
vn 0.9156 0.4002 0.0383
vn -0.4896 0.0346 -0.8713
vn 0.0104 0.7537 -0.6572
vn -0.7330 -0.6774 -0.0615
vn -0.2681 -0.6764 0.6860
vn 0.6627 -0.1194 0.7393
vn 0.8034 0.2889 0.5207
vn -0.8073 -0.3065 -0.5042
vn -0.7522 -0.6570 -0.0511
vn 0.5584 -0.1447 0.8169
vn 0.7279 0.3910 0.5633
vn 0.7292 0.6695 0.1415
vn -0.4511 0.0423 -0.8915
vn 0.2329 0.7069 -0.6679
vn -0.7115 -0.3172 -0.6270
vn -0.3385 -0.7421 0.5786
vn 0.4875 -0.0977 0.8676
vn 0.8151 0.5743 0.0766
vn -0.2699 0.2018 -0.9415
vn -0.5647 -0.2401 -0.7896
vn -0.4551 -0.7251 -0.5169
vn -0.1549 -0.8983 0.4111
vn 0.3761 -0.2716 0.8859
vn 0.7478 0.0342 0.6630
vn 0.7624 0.5871 0.2720
vn -0.2353 0.5530 -0.7992
vn 0.5308 0.7766 -0.3393
vn -0.5343 0.0282 -0.8449
vn -0.4843 -0.5644 -0.6686
vn -0.4792 -0.8446 0.2388
vn 0.1569 -0.3933 0.9059
vn 0.5361 0.0040 0.8441
vn 0.6744 0.4297 0.6005
vn -0.2859 0.7205 -0.6318
vn 0.3957 0.9136 0.0940
vn -0.4904 0.2024 -0.8477
vn -0.6292 -0.2413 -0.7388
vn -0.6729 -0.7179 0.1783
vn -0.0371 -0.5296 0.8474
vn 0.2754 -0.0945 0.9567
vn 0.3890 0.3735 0.8421
vn -0.5081 0.4464 -0.7366
vn 0.1640 0.9331 0.3199
vn -0.8727 -0.0059 -0.4881
vn -0.1968 -0.5550 0.8083
vn 0.0413 -0.1483 0.9881
vn -0.4091 0.1845 -0.8937
vn -0.5816 -0.3185 -0.7486
vn 0.0223 -0.9992 0.0344
vn 0.1665 -0.5770 0.7996
vn 0.2979 0.2662 0.9167
vn -0.3300 0.5048 -0.7977
vn -0.0152 0.9998 0.0155
vn 0.2391 0.0584 0.9692
vn 0.0694 0.6488 0.7578
vn -0.3090 0.9392 -0.1497
vn -0.3217 -0.3075 -0.8955
vn -0.2567 -0.7534 -0.6054
vn -0.0447 -0.9483 0.3141
vn 0.2963 -0.3512 0.8882
vn -0.0918 0.5386 0.8376
vn -0.5367 0.2079 -0.8178
vn -0.2335 0.8330 0.5015
vn 0.0376 0.0847 0.9957
vn -0.4697 -0.8291 0.3034
vn -0.0779 -0.9927 -0.0918
vn -0.0521 0.0669 0.9964
vn -0.0372 -0.9514 -0.3056
vn -0.1761 -0.4582 -0.8712
vn 0.7107 0.1813 -0.6797
vn -0.6528 -0.6808 -0.3320
vn -0.4935 -0.7773 0.3902
vn 0.1513 -0.5433 0.8258
vn 0.5585 0.0942 0.8242
vn 0.8563 0.2507 0.4516
vn 0.2153 0.1532 -0.9645
vn 0.7451 0.5722 -0.3426
vn -0.2901 -0.3090 -0.9057
vn -0.6570 -0.4918 -0.5714
vn -0.7141 -0.5950 0.3688
vn -0.0535 -0.1558 0.9863
vn 0.6438 0.3461 0.6825
vn 0.8187 0.5256 -0.2314
vn -0.3801 -0.3050 -0.8732
vn -0.6877 -0.6958 0.2072
vn -0.2639 -0.1535 0.9522
vn 0.6489 0.3505 0.6753
vn 0.6482 0.4503 -0.6140
vn 0.0879 -0.1428 -0.9858
vn -0.6045 -0.7914 0.0903
vn -0.4538 -0.3358 0.8254
vn 0.0700 -0.1512 0.9860
vn 0.5542 0.1891 0.8106
vn 0.8760 0.1423 -0.4608
vn 0.8540 0.4387 0.2799
vn 0.2386 0.0819 -0.9677
vn 0.0612 -0.4752 -0.8778
vn -0.5562 -0.8029 -0.2148
vn -0.6595 -0.4209 0.6228
vn -0.1291 -0.2422 0.9616
vn 0.3036 0.1295 0.9440
vn 0.4056 0.7151 -0.5693
vn 0.4946 0.7690 0.4050
vn -0.1012 -0.0278 -0.9945
vn -0.8448 -0.3556 -0.3998
vn -0.4658 -0.0919 0.8801
vn -0.1135 0.3149 0.9423
vn 0.2345 0.7866 -0.5712
vn 0.1591 0.9018 0.4017
vn 0.1676 0.3478 -0.9225
vn -0.1661 -0.1083 -0.9801
vn -0.8580 -0.3281 -0.3953
vn -0.7674 -0.3749 0.5201
vn -0.5531 -0.0205 0.8328
vn -0.2196 0.3616 0.9061
vn 0.0896 0.0315 -0.9955
vn 0.0982 0.9627 0.2520
vn 0.1134 0.2996 -0.9473
vn -0.3754 0.0300 -0.9264
vn -0.6440 -0.7085 -0.2887
vn -0.5610 -0.5021 0.6582
vn -0.2917 0.0581 0.9547
vn -0.3490 0.4822 0.8036
vn 0.0336 0.9434 -0.3299
vn -0.0546 -0.9935 -0.1003
vn -0.3043 -0.1381 0.9425
vn 0.5133 0.4590 -0.7252
vn -0.1277 0.8858 -0.4461
vn 0.2040 -0.3448 -0.9162
vn 0.0179 -0.7736 -0.6334
vn -0.2502 -0.8773 0.4096
vn -0.2818 0.3681 0.8861
vn -0.3343 0.7607 0.5564
vn -0.0325 0.0079 -0.9994
vn 0.1172 -0.5404 -0.8332
vn 0.0804 -0.9005 -0.4273
vn -0.3687 -0.8557 0.3631
vn -0.6326 0.3674 0.6818
vn -0.6897 0.6755 0.2607
vn -0.6385 0.6408 -0.4263
vn 0.2939 -0.9234 0.2469
vn -0.7489 0.2729 0.6038
vn 0.3278 -0.4067 -0.8527
vn -0.9117 -0.3662 -0.1862
vn -0.4765 -0.5343 0.6982
vn 0.3008 -0.3445 -0.8893
vn 0.9721 0.1531 -0.1775
vn -0.7331 -0.6434 -0.2204
vn -0.5163 -0.3715 0.7716
vn 0.4477 0.2064 0.8700
vn 0.3628 -0.1661 -0.9170
vn 0.9043 0.3581 -0.2322
vn -0.6154 -0.7128 -0.3365
vn -0.7234 -0.1181 0.6803
vn 0.1249 0.0734 0.9894
vn 0.9414 0.2346 -0.2425
vn 0.8168 0.1755 0.5496
vn 0.6918 -0.0742 -0.7183
vn 0.3643 -0.4941 -0.7894
vn -0.8177 -0.4851 0.3100
vn -0.5131 -0.3477 0.7848
vn 0.6046 0.3062 0.7353
vn 0.7436 0.0836 -0.6634
vn 0.4619 -0.3169 -0.8284
vn -0.4801 -0.6872 -0.5452
vn -0.7217 -0.1980 0.6633
vn -0.2225 0.0121 0.9749
vn 0.8529 0.4723 -0.2223
vn 0.4567 0.5263 0.7172
vn 0.4100 -0.0522 -0.9106
vn -0.5304 -0.4568 -0.7142
vn -0.8475 -0.4848 0.2164
vn -0.5785 0.3017 0.7578
vn 0.6239 0.6829 -0.3800
vn 0.3438 0.8289 0.4413
vn 0.5593 0.3174 -0.7658
vn 0.2594 0.0181 -0.9656
vn -0.6841 -0.2037 -0.7004
vn -0.9410 -0.2928 0.1695
vn -0.8224 0.0734 0.5641
vn 0.6044 0.1613 -0.7802
vn 0.4355 0.9002 -0.0013
vn -0.1839 0.4221 -0.8877
vn -0.8551 -0.1687 0.4903
vn -0.7328 0.1938 0.6523
vn -0.4090 0.5462 0.7311
vn 0.7811 0.1300 -0.6107
vn 0.5775 -0.1800 -0.7963
vn -0.0668 -0.4480 -0.8915
vn -0.2738 -0.9604 0.0526
vn -0.4714 -0.2428 0.8478
vn -0.4645 0.3231 0.8245
vn -0.1607 0.6859 0.7097
vn 0.7804 0.0724 -0.6211
vn 0.3365 0.8923 -0.3009
vn 0.2104 -0.5468 -0.8104
vn 0.0943 -0.7972 0.5963
vn -0.6649 0.0130 0.7468
vn -0.3902 0.8667 0.3108
vn 0.5027 -0.0055 -0.8645
vn -0.4653 0.8507 -0.2445
vn 0.2559 -0.9191 -0.2996
vn -0.7890 -0.5249 0.3192
vn -0.6298 0.5973 0.4965
vn 0.1427 -0.0465 -0.9887
vn -0.3801 0.5678 -0.7302
vn 0.1505 -0.8966 -0.4164
vn -0.8060 -0.5905 0.0412
vn -0.9395 0.2841 0.1914
vn 0.4495 -0.2878 -0.8457
vn -0.6304 0.3105 -0.7115
vn -0.6650 -0.3700 0.6487
vn 0.6624 -0.4864 -0.5698
vn 0.4901 -0.7071 -0.5096
vt 0.464704 0.000000
vt 0.904508 0.047368
vt 0.996460 0.047368
vt 0.375387 0.047368
vt 0.095491 0.047368
vt 0.009927 0.047368
vt 0.345491 0.047368
vt 0.654508 0.047368
vt 0.904508 0.094737
vt 1.000000 0.094737
vt 0.654508 0.170303
vt 0.345491 0.094737
vt 0.095491 0.094737
vt 0.000000 0.094737
vt 0.654508 0.094737
vt 0.904508 0.142105
vt 1.000000 0.142105
vt 0.345491 0.142105
vt 0.095491 0.142105
vt 0.000000 0.147180
vt 0.654508 0.148763
vt 0.904508 0.158900
vt 0.904508 0.189474
vt 1.000000 0.189474
vt 0.345491 0.219929
vt 0.095491 0.211416
vt 0.095491 0.189474
vt 0.345491 0.189474
vt 0.904508 0.236842
vt 1.000000 0.247849
vt 0.654508 0.236842
vt 0.093134 0.236842
vt 0.345491 0.236842
vt 0.654508 0.323097
vt 0.904508 0.284211
vt 0.654508 0.284211
vt 0.345492 0.320086
vt 0.095491 0.323864
vt 0.000000 0.313894
vt 0.095491 0.284211
vt 0.345491 0.284211
vt 0.904508 0.324178
vt 0.904508 0.331579
vt 1.000000 0.331579
vt 0.654508 0.331579
vt 0.095491 0.331579
vt 0.345491 0.331579
vt 0.904508 0.419772
vt 1.000000 0.378947
vt 0.654508 0.384589
vt 0.345491 0.378947
vt 0.095491 0.378947
vt 0.000000 0.407988
vt 0.345492 0.381882
vt 0.654508 0.378947
vt 0.904508 0.378947
vt 1.000000 0.426316
vt 0.345491 0.469011
vt 0.095491 0.467156
vt 0.095491 0.426316
vt 0.654508 0.454382
vt 0.904508 0.454094
vt 0.904508 0.473684
vt 1.000000 0.473684
vt 0.654508 0.473684
vt 0.000000 0.473684
vt 0.095491 0.511393
vt 0.345491 0.509925
vt 0.904508 0.521053
vt 1.000000 0.521053
vt 0.654508 0.521053
vt 0.335094 0.521053
vt 0.000000 0.521053
vt 0.904508 0.525571
vt 0.904508 0.568421
vt 1.000000 0.568421
vt 0.654508 0.589412
vt 0.345491 0.580859
vt 0.095491 0.568421
vt 0.000000 0.568421
vt 0.345491 0.591141
vt 0.654508 0.605703
vt 0.904508 0.615789
vt 1.000000 0.626764
vt 0.095491 0.642529
vt 0.000000 0.615789
vt 0.095491 0.615789
vt 0.904508 0.663158
vt 0.654508 0.663158
vt 0.345491 0.663158
vt 0.000000 0.663158
vt 0.095491 0.675045
vt 0.904508 0.734853
vt 1.000000 0.710526
vt 0.654508 0.754925
vt 0.345491 0.710526
vt 0.095491 0.710526
vt 0.000000 0.710526
vt 0.654508 0.710526
vt 0.904508 0.710526
vt 1.000000 0.757895
vt 0.345491 0.757895
vt 0.095491 0.757895
vt 0.000000 0.757895
vt 0.345491 0.772990
vt 0.654508 0.779110
vt 0.904508 0.757895
vt 0.904508 0.805263
vt 1.000000 0.805263
vt 0.654508 0.805263
vt 0.345491 0.805263
vt 0.095491 0.805263
vt 0.000000 0.805263
vt 0.904508 0.852632
vt 1.000000 0.852632
vt 0.654508 0.872846
vt 0.345491 0.852632
vt 0.095491 0.852632
vt 0.000000 0.852632
vt 0.345491 0.893609
vt 0.654508 0.889243
vt 0.904508 0.900000
vt 1.000000 0.900000
vt 0.345491 0.939414
vt 0.095491 0.922656
vt 0.000000 0.900000
vt 0.095491 0.900000
vt 0.904508 0.923974
vt 0.904508 0.949499
vt 1.000000 0.959055
vt 0.654508 0.969952
vt 0.000000 0.958855
vt 0.095491 0.947368
vt 0.345491 0.947368
vt 0.654508 0.947368
vt 0.345491 1.016095
vt 0.095491 0.994737
vt 0.095491 1.014524
vt 0.345491 1.004796
vt 0.654508 0.994737
vt 0.904508 1.025313
vt 0.898127 1.042105
vt 1.000000 1.079727
vt 0.095491 1.042105
vt 0.000000 1.042105
vt 0.654508 1.042105
vt 0.909976 1.089474
vt 0.345491 1.098963
vt 0.095491 1.089474
vt 0.000000 1.089474
vt 0.095491 1.104622
vt 0.345491 1.098233
vt 0.886857 1.089474
vt 0.911813 1.136842
vt 1.000000 1.164455
vt 0.095491 1.136842
vt 0.000000 1.141577
vt 0.654508 1.153739
vt 0.904508 1.136842
vt 0.904508 1.227882
vt 0.343381 1.184211
vt 0.095491 1.195518
vt 0.095491 1.218946
vt 0.345491 1.213174
vt 0.904508 1.184211
vt 1.000000 1.241559
vt 0.654508 1.231579
vt 0.345491 1.231579
vt 0.000000 1.249698
vt 0.654508 1.263160
vt 0.904508 1.231579
vt 0.654508 1.298088
vt 0.345491 1.278947
vt 0.095491 1.317072
vt 0.095491 1.292990
vt 0.904508 1.294937
vt 0.666883 1.371339
vt 0.977175 1.357579
vt 0.345491 1.326316
vt 0.000000 1.358159
vt 0.507722 1.326316
vt 0.327556 1.373684
vt 0.095491 1.403916
vt 0.345491 1.387708
vt 0.654508 1.401457
vt 0.904508 1.400896
vt 0.654508 1.451602
vt 0.165436 1.421053
vt 0.000000 1.458495
vt 0.983392 1.487773
vt 0.345492 1.476259
vt 0.095491 1.495576
vt 0.095491 1.488836
vt 0.345491 1.496589
vt 0.654508 1.493117
vt 0.904508 1.485827
vt 0.654508 1.530578
vt 0.904508 1.532604
vt 0.000000 1.531349
vt 0.219873 1.598100
vt 0.112304 1.563158
vt 0.654508 1.575949
vt 0.904463 1.590879
vt 0.904508 1.671170
vt 0.610482 1.640786
vt 0.000000 1.632924
vt 0.312814 1.622451
vt 0.911056 1.682644
vt 0.095491 1.687373
vt 0.347119 1.734586
vt 0.378174 1.724217
vt 0.457237 1.799892
vt 0.502421 0.000000
vt 0.853553 0.057143
vt 1.000000 0.057143
vt 0.500000 0.066907
vt 0.146447 0.057143
vt 0.000000 0.057143
vt 0.500000 0.057143
vt 0.853553 0.058485
vt 0.853553 0.114286
vt 1.000000 0.164431
vt 0.146447 0.114286
vt 0.000000 0.161597
vt 0.500000 0.114286
vt 0.502073 0.171429
vt 0.146447 0.171429
vt 0.500000 0.171429
vt 0.853553 0.171429
vt 0.853553 0.228571
vt 1.000000 0.230340
vt 0.500000 0.228571
vt 0.005959 0.228571
vt 0.152461 0.228571
vt 0.853553 0.285714
vt 0.500000 0.285714
vt 0.146447 0.285714
vt 0.000000 0.285714
vt 0.853553 0.342857
vt 1.000000 0.342857
vt 0.500000 0.342857
vt 0.146447 0.342857
vt 0.000000 0.342857
vt 0.853553 0.400000
vt 1.000000 0.400000
vt 0.500000 0.400000
vt 0.146447 0.400000
vt 0.000000 0.400000
vt 0.853553 0.432069
vt 0.559628 0.457143
vt 1.000000 0.494707
vt 0.144815 0.457143
vt 0.146447 0.457143
vt 0.500000 0.457143
vt 0.504374 0.538737
vt 0.146447 0.523460
vt 0.000000 0.519695
vt 0.146447 0.550428
vt 0.831034 0.514286
vt 0.853553 0.592042
vt 1.000000 0.571429
vt 0.500000 0.601056
vt 0.853553 0.571429
vt 1.000000 0.628571
vt 0.500000 0.656069
vt 0.146447 0.654013
vt 0.000000 0.674092
vt 0.146447 0.628571
vt 0.853553 0.628571
vt 0.853553 0.685714
vt 0.882011 0.685714
vt 0.319807 0.685714
vt 0.527660 0.799976
vt 0.161763 0.742857
vt 0.203687 0.742857
vt 0.477565 0.090000
vt 0.500000 0.147143
vt 0.994959 0.147143
vt 0.146447 0.147143
vt 0.000000 0.147143
vt 0.853553 0.147143
vt 0.853553 0.208518
vt 1.000000 0.204286
vt 0.431840 0.215302
vt 0.146447 0.204286
vt 0.000000 0.204286
vt 0.213598 0.215139
vt 0.807436 0.204286
vt 1.000000 0.261429
vt 0.500000 0.261429
vt 0.000000 0.261429
vt 0.146447 0.261429
vt 0.853553 0.261429
vt 0.872353 0.318571
vt 0.466245 0.318571
vt 0.000000 0.318571
vt 0.146447 0.318571
vt 0.500000 0.318571
vt 0.853553 0.318571
vt 0.853553 0.375714
vt 1.000000 0.375714
vt 0.500000 0.379893
vt 0.146447 0.375714
vt 0.000000 0.375714
vt 0.146447 0.424431
vt 0.500000 0.375714
vt 0.853553 0.432857
vt 1.000000 0.432857
vt 0.146447 0.432857
vt 0.000000 0.432857
vt 0.500000 0.432857
vt 0.853553 0.490000
vt 1.000000 0.490000
vt 0.500000 0.490000
vt 0.146447 0.490000
vt 0.000000 0.490000
vt 0.544040 0.597168
vt 1.000000 0.547143
vt 0.500000 0.547143
vt 0.146447 0.547143
vt 0.000000 0.547143
vt 0.500000 0.560832
vt 0.853553 0.558761
vt 0.972362 0.604286
vt 0.004665 0.604286
vt 0.146447 0.648368
vt 0.853553 0.661429
vt 1.000000 0.668305
vt 0.500000 0.661429
vt 0.146447 0.661429
vt 0.000000 0.661429
vt 0.853553 0.743523
vt 0.500000 0.718571
vt 0.146447 0.728610
vt 0.000000 0.733951
vt 0.475405 0.718571
vt 0.853553 0.718571
vt 0.962287 0.775714
vt 0.041760 0.833294
vt 0.424914 0.775714
vt 0.815237 0.832857
vt 0.451822 0.889578
vt 0.522999 0.180000
vt 0.500000 0.237143
vt 0.966334 0.237143
vt 0.003626 0.237143
vt 0.161191 0.237143
vt 0.853553 0.237143
vt 0.428571 0.294286
vt 0.873977 0.294286
vt 0.000000 0.312475
vt 0.286756 0.294286
vt 0.853553 0.313515
vt 0.853553 0.402150
vt 1.000000 0.351429
vt 0.500000 0.351429
vt 0.146447 0.351429
vt 0.146447 0.370723
vt 1.000000 0.408571
vt 0.500000 0.413072
vt 0.146447 0.408571
vt 0.000000 0.408571
vt 0.500000 0.438743
vt 0.853553 0.408571
vt 0.853553 0.465714
vt 1.000000 0.465714
vt 0.146447 0.465714
vt 0.000000 0.465714
vt 0.853553 0.522857
vt 0.996147 0.522857
vt 0.500000 0.522857
vt 0.146447 0.522857
vt 0.000000 0.522857
vt 0.529336 0.580000
vt 1.000000 0.636255
vt 0.147150 0.580000
vt 0.146447 0.580000
vt 0.500000 0.580000
vt 0.853553 0.580000
vt 0.853553 0.637143
vt 0.500000 0.637143
vt 0.146447 0.637143
vt 0.000000 0.637143
vt 0.500000 0.649827
vt 0.853553 0.694286
vt 1.000000 0.694286
vt 0.500000 0.713893
vt 0.013625 0.694286
vt 0.146447 0.694286
vt 0.853553 0.751429
vt 0.866155 0.751429
vt 0.146447 0.751429
vt 0.000000 0.751429
vt 0.485550 0.751429
vt 0.853553 0.808571
vt 0.983896 0.808571
vt 0.155302 0.827064
vt 0.014516 0.808571
vt 0.500000 0.827359
vt 0.769293 0.865714
vt 0.964917 0.903403
vt 0.132110 0.871853
vt 0.388983 0.922857
vt 0.400240 0.980000
s 1
f 1/1/1 3/2/2 2/3/3
f 1/1/1 4/4/4 3/2/2
f 1/1/1 5/5/5 4/4/4
f 1/1/1 6/6/6 5/5/5
f 1/1/1 7/7/7 6/6/6
f 1/1/1 8/8/8 7/7/7
f 1/1/1 2/3/3 8/8/8
f 2/3/3 3/2/2 10/9/9
f 2/3/3 10/9/9 9/10/10
f 3/2/2 4/4/4 11/11/11
f 3/2/2 11/11/11 10/9/9
f 4/4/4 12/12/12 11/11/11
f 4/4/4 5/5/5 13/13/13
f 4/4/4 13/13/13 12/12/12
f 5/5/5 6/6/6 14/14/14
f 5/5/5 14/14/14 13/13/13
f 6/6/6 15/13/15 14/14/14
f 6/6/6 7/7/7 16/12/16
f 6/6/6 16/12/16 15/13/15
f 7/7/7 8/8/8 17/15/17
f 7/7/7 17/15/17 16/12/16
f 8/8/8 2/3/3 18/9/18
f 8/8/8 18/9/18 17/15/17
f 2/3/3 9/10/10 18/9/18
f 9/10/10 10/9/9 20/16/19
f 9/10/10 20/16/19 19/17/20
f 10/9/9 11/11/11 20/16/19
f 11/11/11 12/12/12 21/18/21
f 12/12/12 13/13/13 22/19/22
f 12/12/12 22/19/22 21/18/21
f 13/13/13 14/14/14 23/20/23
f 13/13/13 23/20/23 22/19/22
f 14/14/14 15/13/15 24/19/24
f 14/14/14 24/19/24 23/20/23
f 15/13/15 16/12/16 25/18/25
f 15/13/15 25/18/25 24/19/24
f 16/12/16 17/15/17 26/21/26
f 16/12/16 26/21/26 25/18/25
f 17/15/17 18/9/18 27/22/27
f 17/15/17 27/22/27 26/21/26
f 18/9/18 9/10/10 19/17/20
f 18/9/18 19/17/20 27/22/27
f 19/17/20 20/16/19 29/23/28
f 19/17/20 29/23/28 28/24/29
f 20/16/19 11/11/11 29/23/28
f 11/11/11 21/18/21 30/25/30
f 21/18/21 22/19/22 31/26/31
f 21/18/21 31/26/31 30/25/30
f 22/19/22 23/20/23 31/26/31
f 23/20/23 24/19/24 32/27/32
f 24/19/24 25/18/25 33/28/33
f 24/19/24 33/28/33 32/27/32
f 25/18/25 26/21/26 33/28/33
f 27/22/27 19/17/20 28/24/29
f 28/24/29 29/23/28 35/29/34
f 28/24/29 35/29/34 34/30/35
f 29/23/28 11/11/11 36/31/36
f 29/23/28 36/31/36 35/29/34
f 11/11/11 30/25/30 36/31/36
f 31/26/31 23/20/23 37/32/37
f 23/20/23 32/27/32 37/32/37
f 32/27/32 33/28/33 38/33/38
f 32/27/32 38/33/38 37/32/37
f 33/28/33 26/21/26 39/34/39
f 33/28/33 39/34/39 38/33/38
f 26/21/26 27/22/27 39/34/39
f 27/22/27 28/24/29 34/30/35
f 34/30/35 35/29/34 40/35/40
f 35/29/34 36/31/36 41/36/41
f 35/29/34 41/36/41 40/35/40
f 36/31/36 30/25/30 42/37/42
f 36/31/36 42/37/42 41/36/41
f 30/25/30 31/26/31 43/38/43
f 30/25/30 43/38/43 42/37/42
f 31/26/31 37/32/37 44/39/44
f 31/26/31 44/39/44 43/38/43
f 37/32/37 45/40/45 44/39/44
f 37/32/37 38/33/38 46/41/46
f 37/32/37 46/41/46 45/40/45
f 38/33/38 39/34/39 46/41/46
f 39/34/39 27/22/27 47/42/47
f 27/22/27 34/30/35 47/42/47
f 34/30/35 40/35/40 49/43/48
f 34/30/35 49/43/48 48/44/49
f 40/35/40 41/36/41 50/45/50
f 40/35/40 50/45/50 49/43/48
f 41/36/41 42/37/42 50/45/50
f 44/39/44 45/40/45 51/46/51
f 45/40/45 46/41/46 52/47/52
f 45/40/45 52/47/52 51/46/51
f 46/41/46 39/34/39 52/47/52
f 47/42/47 34/30/35 48/44/49
f 48/44/49 49/43/48 54/48/53
f 48/44/49 54/48/53 53/49/54
f 49/43/48 50/45/50 55/50/55
f 49/43/48 55/50/55 54/48/53
f 50/45/50 42/37/42 56/51/56
f 50/45/50 56/51/56 55/50/55
f 42/37/42 43/38/43 57/52/57
f 42/37/42 57/52/57 56/51/56
f 43/38/43 44/39/44 58/53/58
f 43/38/43 58/53/58 57/52/57
f 44/39/44 51/46/51 59/52/59
f 44/39/44 59/52/59 58/53/58
f 51/46/51 52/47/52 60/54/60
f 51/46/51 60/54/60 59/52/59
f 52/47/52 39/34/39 61/55/61
f 52/47/52 61/55/61 60/54/60
f 39/34/39 47/42/47 62/56/62
f 39/34/39 62/56/62 61/55/61
f 47/42/47 48/44/49 53/49/54
f 47/42/47 53/49/54 62/56/62
f 53/49/54 54/48/53 63/57/63
f 55/50/55 56/51/56 64/58/64
f 56/51/56 57/52/57 65/59/65
f 56/51/56 65/59/65 64/58/64
f 57/52/57 58/53/58 65/59/65
f 58/53/58 59/52/59 66/60/66
f 59/52/59 60/54/60 66/60/66
f 60/54/60 61/55/61 67/61/67
f 61/55/61 62/56/62 68/62/68
f 61/55/61 68/62/68 67/61/67
f 62/56/62 53/49/54 63/57/63
f 62/56/62 63/57/63 68/62/68
f 63/57/63 54/48/53 70/63/69
f 63/57/63 70/63/69 69/64/70
f 54/48/53 55/50/55 71/65/71
f 54/48/53 71/65/71 70/63/69
f 55/50/55 64/58/64 71/65/71
f 65/59/65 58/53/58 72/66/72
f 58/53/58 66/60/66 73/67/73
f 58/53/58 73/67/73 72/66/72
f 66/60/66 60/54/60 74/68/74
f 66/60/66 74/68/74 73/67/73
f 60/54/60 67/61/67 74/68/74
f 68/62/68 63/57/63 69/64/70
f 69/64/70 70/63/69 76/69/75
f 69/64/70 76/69/75 75/70/76
f 70/63/69 71/65/71 77/71/77
f 70/63/69 77/71/77 76/69/75
f 71/65/71 64/58/64 78/72/78
f 71/65/71 78/72/78 77/71/77
f 64/58/64 65/59/65 78/72/78
f 65/59/65 72/66/72 79/73/79
f 65/59/65 79/73/79 78/72/78
f 72/66/72 73/67/73 79/73/79
f 74/68/74 67/61/67 80/71/80
f 67/61/67 68/62/68 81/74/81
f 67/61/67 81/74/81 80/71/80
f 68/62/68 69/64/70 75/70/76
f 68/62/68 75/70/76 81/74/81
f 75/70/76 76/69/75 83/75/82
f 75/70/76 83/75/82 82/76/83
f 76/69/75 77/71/77 84/77/84
f 76/69/75 84/77/84 83/75/82
f 77/71/77 78/72/78 85/78/85
f 77/71/77 85/78/85 84/77/84
f 78/72/78 86/79/86 85/78/85
f 78/72/78 79/73/79 87/80/87
f 78/72/78 87/80/87 86/79/86
f 79/73/79 73/67/73 88/79/88
f 79/73/79 88/79/88 87/80/87
f 73/67/73 74/68/74 89/81/89
f 73/67/73 89/81/89 88/79/88
f 74/68/74 80/71/80 90/82/90
f 74/68/74 90/82/90 89/81/89
f 80/71/80 81/74/81 90/82/90
f 81/74/81 75/70/76 82/76/83
f 82/76/83 83/75/82 92/83/91
f 82/76/83 92/83/91 91/84/92
f 83/75/82 84/77/84 92/83/91
f 85/78/85 86/79/86 93/85/93
f 86/79/86 87/80/87 94/86/94
f 86/79/86 94/86/94 93/85/93
f 87/80/87 88/79/88 95/87/95
f 87/80/87 95/87/95 94/86/94
f 88/79/88 89/81/89 95/87/95
f 90/82/90 81/74/81 96/83/96
f 81/74/81 82/76/83 91/84/92
f 81/74/81 91/84/92 96/83/96
f 91/84/92 92/83/91 97/88/97
f 92/83/91 84/77/84 98/89/98
f 92/83/91 98/89/98 97/88/97
f 84/77/84 85/78/85 99/90/99
f 84/77/84 99/90/99 98/89/98
f 85/78/85 93/85/93 99/90/99
f 93/85/93 94/86/94 100/91/100
f 94/86/94 95/87/95 101/92/101
f 94/86/94 101/92/101 100/91/100
f 95/87/95 89/81/89 102/90/102
f 95/87/95 102/90/102 101/92/101
f 89/81/89 90/82/90 103/89/103
f 89/81/89 103/89/103 102/90/102
f 90/82/90 96/83/96 104/88/104
f 90/82/90 104/88/104 103/89/103
f 96/83/96 91/84/92 104/88/104
f 91/84/92 97/88/97 106/93/105
f 91/84/92 106/93/105 105/94/106
f 97/88/97 98/89/98 107/95/107
f 97/88/97 107/95/107 106/93/105
f 98/89/98 99/90/99 108/96/108
f 98/89/98 108/96/108 107/95/107
f 99/90/99 93/85/93 109/97/109
f 99/90/99 109/97/109 108/96/108
f 93/85/93 100/91/100 110/98/110
f 93/85/93 110/98/110 109/97/109
f 100/91/100 101/92/101 110/98/110
f 101/92/101 102/90/102 111/96/111
f 102/90/102 103/89/103 112/99/112
f 102/90/102 112/99/112 111/96/111
f 103/89/103 104/88/104 113/100/113
f 103/89/103 113/100/113 112/99/112
f 104/88/104 91/84/92 105/94/106
f 104/88/104 105/94/106 113/100/113
f 105/94/106 106/93/105 114/101/114
f 107/95/107 108/96/108 115/102/115
f 108/96/108 109/97/109 116/103/116
f 108/96/108 116/103/116 115/102/115
f 109/97/109 110/98/110 117/104/117
f 109/97/109 117/104/117 116/103/116
f 110/98/110 101/92/101 118/103/118
f 110/98/110 118/103/118 117/104/117
f 101/92/101 111/96/111 119/105/119
f 101/92/101 119/105/119 118/103/118
f 111/96/111 112/99/112 120/106/120
f 111/96/111 120/106/120 119/105/119
f 112/99/112 113/100/113 121/107/121
f 112/99/112 121/107/121 120/106/120
f 113/100/113 105/94/106 114/101/114
f 113/100/113 114/101/114 121/107/121
f 114/101/114 106/93/105 123/108/122
f 114/101/114 123/108/122 122/109/123
f 106/93/105 107/95/107 124/110/124
f 106/93/105 124/110/124 123/108/122
f 107/95/107 115/102/115 125/111/125
f 107/95/107 125/111/125 124/110/124
f 115/102/115 116/103/116 126/112/126
f 115/102/115 126/112/126 125/111/125
f 116/103/116 117/104/117 127/113/127
f 116/103/116 127/113/127 126/112/126
f 117/104/117 118/103/118 128/112/128
f 117/104/117 128/112/128 127/113/127
f 118/103/118 119/105/119 128/112/128
f 120/106/120 121/107/121 129/108/129
f 121/107/121 114/101/114 122/109/123
f 121/107/121 122/109/123 129/108/129
f 122/109/123 123/108/122 131/114/130
f 122/109/123 131/114/130 130/115/131
f 123/108/122 124/110/124 132/116/132
f 123/108/122 132/116/132 131/114/130
f 124/110/124 125/111/125 133/117/133
f 124/110/124 133/117/133 132/116/132
f 125/111/125 126/112/126 134/118/134
f 125/111/125 134/118/134 133/117/133
f 126/112/126 127/113/127 135/119/135
f 126/112/126 135/119/135 134/118/134
f 127/113/127 128/112/128 136/118/136
f 127/113/127 136/118/136 135/119/135
f 128/112/128 119/105/119 137/120/137
f 128/112/128 137/120/137 136/118/136
f 119/105/119 120/106/120 138/121/138
f 119/105/119 138/121/138 137/120/137
f 120/106/120 129/108/129 139/114/139
f 120/106/120 139/114/139 138/121/138
f 129/108/129 122/109/123 130/115/131
f 129/108/129 130/115/131 139/114/139
f 130/115/131 131/114/130 141/122/140
f 130/115/131 141/122/140 140/123/141
f 131/114/130 132/116/132 141/122/140
f 132/116/132 133/117/133 142/124/142
f 133/117/133 134/118/134 143/125/143
f 133/117/133 143/125/143 142/124/142
f 134/118/134 135/119/135 144/126/144
f 134/118/134 144/126/144 143/125/143
f 135/119/135 136/118/136 145/127/145
f 135/119/135 145/127/145 144/126/144
f 136/118/136 137/120/137 145/127/145
f 138/121/138 139/114/139 146/128/146
f 139/114/139 130/115/131 140/123/141
f 139/114/139 140/123/141 146/128/146
f 140/123/141 141/122/140 148/129/147
f 140/123/141 148/129/147 147/130/148
f 141/122/140 132/116/132 149/131/149
f 141/122/140 149/131/149 148/129/147
f 132/116/132 142/124/142 149/131/149
f 143/125/143 144/126/144 150/132/150
f 144/126/144 145/127/145 151/133/151
f 144/126/144 151/133/151 150/132/150
f 145/127/145 137/120/137 152/134/152
f 145/127/145 152/134/152 151/133/151
f 137/120/137 138/121/138 153/135/153
f 137/120/137 153/135/153 152/134/152
f 138/121/138 146/128/146 153/135/153
f 146/128/146 140/123/141 147/130/148
f 149/131/149 142/124/142 154/136/154
f 142/124/142 143/125/143 155/137/155
f 142/124/142 155/137/155 154/136/154
f 143/125/143 150/132/150 155/137/155
f 150/132/150 151/133/151 156/138/156
f 151/133/151 152/134/152 157/139/157
f 151/133/151 157/139/157 156/138/156
f 152/134/152 153/135/153 158/140/158
f 152/134/152 158/140/158 157/139/157
f 153/135/153 146/128/146 159/141/159
f 153/135/153 159/141/159 158/140/158
f 146/128/146 147/130/148 159/141/159
f 147/130/148 148/129/147 161/142/160
f 147/130/148 161/142/160 160/143/161
f 148/129/147 149/131/149 161/142/160
f 149/131/149 154/136/154 161/142/160
f 154/136/154 155/137/155 162/144/162
f 155/137/155 150/132/150 163/145/163
f 155/137/155 163/145/163 162/144/162
f 150/132/150 156/138/156 163/145/163
f 157/139/157 158/140/158 164/146/164
f 158/140/158 159/141/159 164/146/164
f 159/141/159 147/130/148 160/143/161
f 160/143/161 161/142/160 165/147/165
f 161/142/160 154/136/154 166/148/166
f 161/142/160 166/148/166 165/147/165
f 154/136/154 162/144/162 167/149/167
f 154/136/154 167/149/167 166/148/166
f 162/144/162 163/145/163 168/150/168
f 162/144/162 168/150/168 167/149/167
f 163/145/163 156/138/156 169/151/169
f 163/145/163 169/151/169 168/150/168
f 156/138/156 157/139/157 170/152/170
f 156/138/156 170/152/170 169/151/169
f 157/139/157 164/146/164 171/153/171
f 157/139/157 171/153/171 170/152/170
f 164/146/164 159/141/159 171/153/171
f 159/141/159 160/143/161 171/153/171
f 160/143/161 165/147/165 173/154/172
f 160/143/161 173/154/172 172/155/173
f 165/147/165 166/148/166 173/154/172
f 166/148/166 167/149/167 174/156/174
f 167/149/167 168/150/168 175/157/175
f 167/149/167 175/157/175 174/156/174
f 168/150/168 169/151/169 175/157/175
f 170/152/170 171/153/171 176/158/176
f 171/153/171 177/159/177 176/158/176
f 171/153/171 160/143/161 172/155/173
f 171/153/171 172/155/173 177/159/177
f 172/155/173 173/154/172 178/160/178
f 173/154/172 179/161/179 178/160/178
f 173/154/172 166/148/166 179/161/179
f 166/148/166 174/156/174 180/162/180
f 166/148/166 180/162/180 179/161/179
f 174/156/174 175/157/175 180/162/180
f 175/157/175 169/151/169 181/163/181
f 169/151/169 170/152/170 182/164/182
f 169/151/169 182/164/182 181/163/181
f 170/152/170 176/158/176 182/164/182
f 176/158/176 177/159/177 183/165/183
f 177/159/177 172/155/173 183/165/183
f 172/155/173 178/160/178 184/166/184
f 178/160/178 179/161/179 185/167/185
f 179/161/179 186/168/186 185/167/185
f 179/161/179 180/162/180 186/168/186
f 180/162/180 175/157/175 187/169/187
f 175/157/175 181/163/181 187/169/187
f 182/164/182 176/158/176 188/170/188
f 176/158/176 183/165/183 189/171/189
f 176/158/176 189/171/189 188/170/188
f 183/165/183 172/155/173 184/166/184
f 183/165/183 184/166/184 189/171/189
f 178/160/178 185/167/185 190/172/190
f 185/167/185 186/168/186 191/173/191
f 185/167/185 191/173/191 190/172/190
f 186/168/186 180/162/180 192/174/192
f 186/168/186 192/174/192 191/173/191
f 180/162/180 187/169/187 192/174/192
f 187/169/187 181/163/181 193/175/193
f 181/163/181 182/164/182 194/173/194
f 181/163/181 194/173/194 193/175/193
f 182/164/182 188/170/188 194/173/194
f 188/170/188 189/171/189 195/176/195
f 189/171/189 184/166/184 195/176/195
f 184/166/184 178/160/178 197/177/196
f 184/166/184 197/177/196 196/178/197
f 178/160/178 190/172/190 197/177/196
f 190/172/190 191/173/191 198/179/198
f 191/173/191 192/174/192 198/179/198
f 192/174/192 187/169/187 199/180/199
f 187/169/187 193/175/193 199/180/199
f 193/175/193 194/173/194 200/181/200
f 194/173/194 188/170/188 200/181/200
f 188/170/188 195/176/195 200/181/200
f 195/176/195 184/166/184 196/178/197
f 190/172/190 198/179/198 201/182/201
f 190/172/190 201/182/201 197/177/196
f 198/179/198 192/174/192 201/182/201
f 192/174/192 199/180/199 201/182/201
f 199/180/199 193/175/193 202/183/202
f 193/175/193 200/181/200 203/184/203
f 193/175/193 203/184/203 202/183/202
f 200/181/200 204/185/204 203/184/203
f 200/181/200 195/176/195 205/186/205
f 200/181/200 205/186/205 204/185/204
f 195/176/195 196/178/197 205/186/205
f 196/178/197 197/177/196 206/187/206
f 197/177/196 201/182/201 207/188/207
f 197/177/196 207/188/207 206/187/206
f 201/182/201 199/180/199 208/189/208
f 201/182/201 208/189/208 207/188/207
f 199/180/199 202/183/202 208/189/208
f 196/178/197 206/187/206 209/190/209
f 206/187/206 207/188/207 210/191/210
f 207/188/207 211/192/211 210/191/210
f 207/188/207 208/189/208 211/192/211
f 208/189/208 202/183/202 212/193/212
f 202/183/202 203/184/203 213/194/213
f 202/183/202 213/194/213 212/193/212
f 203/184/203 204/185/204 214/195/214
f 203/184/203 214/195/214 213/194/213
f 204/185/204 205/186/205 215/196/215
f 204/185/204 215/196/215 214/195/214
f 205/186/205 196/178/197 209/190/209
f 205/186/205 209/190/209 215/196/215
f 209/190/209 206/187/206 217/197/216
f 209/190/209 217/197/216 216/198/217
f 206/187/206 210/191/210 217/197/216
f 211/192/211 208/189/208 218/199/218
f 208/189/208 212/193/212 218/199/218
f 217/197/216 210/191/210 219/200/219
f 210/191/210 211/192/211 219/200/219
f 211/192/211 218/199/218 219/200/219
f 218/199/218 212/193/212 220/201/220
f 212/193/212 213/194/213 220/201/220
f 213/194/213 214/195/214 221/202/221
f 213/194/213 221/202/221 220/201/220
f 214/195/214 215/196/215 222/203/222
f 214/195/214 222/203/222 221/202/221
f 215/196/215 209/190/209 222/203/222
f 209/190/209 216/198/217 223/204/223
f 209/190/209 223/204/223 222/203/222
f 216/198/217 217/197/216 224/205/224
f 216/198/217 224/205/224 223/204/223
f 217/197/216 219/200/219 224/205/224
f 219/200/219 218/199/218 225/206/225
f 218/199/218 220/201/220 226/207/226
f 218/199/218 226/207/226 225/206/225
f 220/201/220 221/202/221 226/207/226
f 222/203/222 223/204/223 227/208/227
f 219/200/219 228/209/228 224/205/224
f 219/200/219 225/206/225 228/209/228
f 225/206/225 226/207/226 229/210/229
f 226/207/226 221/202/221 229/210/229
f 221/202/221 222/203/222 227/208/227
f 221/202/221 227/208/227 229/210/229
f 223/204/223 224/205/224 230/211/230
f 224/205/224 228/209/228 230/211/230
f 228/209/228 225/206/225 231/212/231
f 225/206/225 229/210/229 231/212/231
f 227/208/227 223/204/223 231/212/231
f 223/204/223 230/211/230 231/212/231
f 230/211/230 228/209/228 231/212/231
f 229/210/229 227/208/227 231/212/231
f 232/213/232 234/214/233 233/215/234
f 232/213/232 235/216/235 234/214/233
f 232/213/232 236/217/236 235/216/235
f 232/213/232 237/218/237 236/217/236
f 232/213/232 238/217/238 237/218/237
f 232/213/232 239/219/239 238/217/238
f 232/213/232 240/220/240 239/219/239
f 232/213/232 233/215/234 240/220/240
f 233/215/234 234/214/233 242/221/241
f 233/215/234 242/221/241 241/222/242
f 234/214/233 235/216/235 242/221/241
f 235/216/235 236/217/236 243/223/243
f 236/217/236 237/218/237 244/224/244
f 236/217/236 244/224/244 243/223/243
f 237/218/237 238/217/238 245/223/245
f 237/218/237 245/223/245 244/224/244
f 238/217/238 239/219/239 246/225/246
f 238/217/238 246/225/246 245/223/245
f 239/219/239 240/220/240 246/225/246
f 240/220/240 233/215/234 241/222/242
f 241/222/242 242/221/241 247/226/247
f 242/221/241 235/216/235 247/226/247
f 235/216/235 243/223/243 248/227/248
f 235/216/235 248/227/248 247/226/247
f 243/223/243 244/224/244 248/227/248
f 244/224/244 245/223/245 249/227/249
f 245/223/245 246/225/246 250/228/250
f 245/223/245 250/228/250 249/227/249
f 246/225/246 240/220/240 251/229/251
f 246/225/246 251/229/251 250/228/250
f 240/220/240 241/222/242 251/229/251
f 241/222/242 247/226/247 253/230/252
f 241/222/242 253/230/252 252/231/253
f 247/226/247 254/232/254 253/230/252
f 247/226/247 248/227/248 255/233/255
f 247/226/247 255/233/255 254/232/254
f 248/227/248 244/224/244 255/233/255
f 244/224/244 249/227/249 256/234/256
f 244/224/244 256/234/256 255/233/255
f 249/227/249 250/228/250 256/234/256
f 250/228/250 251/229/251 257/230/257
f 250/228/250 257/230/257 256/234/256
f 251/229/251 241/222/242 252/231/253
f 251/229/251 252/231/253 257/230/257
f 252/231/253 253/230/252 258/235/258
f 253/230/252 254/232/254 259/236/259
f 253/230/252 259/236/259 258/235/258
f 254/232/254 255/233/255 260/237/260
f 254/232/254 260/237/260 259/236/259
f 255/233/255 261/238/261 260/237/260
f 255/233/255 256/234/256 262/237/262
f 255/233/255 262/237/262 261/238/261
f 256/234/256 263/236/263 262/237/262
f 256/234/256 257/230/257 264/235/264
f 256/234/256 264/235/264 263/236/263
f 257/230/257 252/231/253 264/235/264
f 252/231/253 258/235/258 266/239/265
f 252/231/253 266/239/265 265/240/266
f 258/235/258 259/236/259 267/241/267
f 258/235/258 267/241/267 266/239/265
f 259/236/259 260/237/260 268/242/268
f 259/236/259 268/242/268 267/241/267
f 260/237/260 261/238/261 269/243/269
f 260/237/260 269/243/269 268/242/268
f 261/238/261 262/237/262 270/242/270
f 261/238/261 270/242/270 269/243/269
f 262/237/262 263/236/263 271/241/271
f 262/237/262 271/241/271 270/242/270
f 263/236/263 264/235/264 272/239/272
f 263/236/263 272/239/272 271/241/271
f 264/235/264 252/231/253 265/240/266
f 264/235/264 265/240/266 272/239/272
f 265/240/266 266/239/265 274/244/273
f 265/240/266 274/244/273 273/245/274
f 266/239/265 267/241/267 275/246/275
f 266/239/265 275/246/275 274/244/273
f 267/241/267 268/242/268 276/247/276
f 267/241/267 276/247/276 275/246/275
f 268/242/268 269/243/269 277/248/277
f 268/242/268 277/248/277 276/247/276
f 269/243/269 270/242/270 278/247/278
f 269/243/269 278/247/278 277/248/277
f 270/242/270 271/241/271 279/246/279
f 270/242/270 279/246/279 278/247/278
f 271/241/271 272/239/272 280/249/280
f 271/241/271 280/249/280 279/246/279
f 272/239/272 265/240/266 273/245/274
f 272/239/272 273/245/274 280/249/280
f 273/245/274 274/244/273 282/250/281
f 273/245/274 282/250/281 281/251/282
f 274/244/273 275/246/275 282/250/281
f 275/246/275 276/247/276 283/252/283
f 275/246/275 283/252/283 282/250/281
f 276/247/276 277/248/277 283/252/283
f 277/248/277 278/247/278 284/253/284
f 277/248/277 284/253/284 283/252/283
f 278/247/278 279/246/279 285/254/285
f 278/247/278 285/254/285 284/253/284
f 279/246/279 280/249/280 285/254/285
f 280/249/280 273/245/274 281/251/282
f 281/251/282 282/250/281 286/255/286
f 282/250/281 283/252/283 287/256/287
f 282/250/281 287/256/287 286/255/286
f 283/252/283 288/257/288 287/256/287
f 283/252/283 284/253/284 289/258/289
f 283/252/283 289/258/289 288/257/288
f 284/253/284 285/254/285 290/259/290
f 284/253/284 290/259/290 289/258/289
f 285/254/285 280/249/280 290/259/290
f 280/249/280 281/251/282 290/259/290
f 281/251/282 286/255/286 292/260/291
f 281/251/282 292/260/291 291/261/292
f 289/258/289 290/259/290 293/262/293
f 290/259/290 294/263/294 293/262/293
f 290/259/290 281/251/282 291/261/292
f 290/259/290 291/261/292 294/263/294
f 291/261/292 292/260/291 295/264/295
f 292/260/291 286/255/286 296/265/296
f 286/255/286 287/256/287 297/266/297
f 286/255/286 297/266/297 296/265/296
f 287/256/287 288/257/288 298/267/298
f 287/256/287 298/267/298 297/266/297
f 288/257/288 289/258/289 299/268/299
f 288/257/288 299/268/299 298/267/298
f 289/258/289 293/262/293 299/268/299
f 293/262/293 294/263/294 300/269/300
f 294/263/294 291/261/292 295/264/295
f 294/263/294 295/264/295 300/269/300
f 295/264/295 292/260/291 302/270/301
f 295/264/295 302/270/301 301/271/302
f 292/260/291 296/265/296 302/270/301
f 298/267/298 299/268/299 303/272/303
f 299/268/299 293/262/293 303/272/303
f 293/262/293 300/269/300 301/271/302
f 293/262/293 301/271/302 303/272/303
f 300/269/300 295/264/295 301/271/302
f 301/271/302 302/270/301 304/273/304
f 302/270/301 296/265/296 305/274/305
f 302/270/301 305/274/305 304/273/304
f 296/265/296 297/266/297 305/274/305
f 297/266/297 298/267/298 305/274/305
f 298/267/298 303/272/303 306/275/306
f 298/267/298 306/275/306 305/274/305
f 303/272/303 301/271/302 306/275/306
f 301/271/302 304/273/304 306/275/306
f 305/274/305 306/275/306 304/273/304
f 307/276/307 309/277/308 308/278/309
f 307/276/307 310/279/310 309/277/308
f 307/276/307 311/280/311 310/279/310
f 307/276/307 312/279/312 311/280/311
f 307/276/307 313/277/313 312/279/312
f 307/276/307 314/281/314 313/277/313
f 307/276/307 308/278/309 314/281/314
f 308/278/309 316/282/315 315/283/316
f 308/278/309 309/277/308 317/284/317
f 308/278/309 317/284/317 316/282/315
f 309/277/308 310/279/310 318/285/318
f 309/277/308 318/285/318 317/284/317
f 310/279/310 311/280/311 319/286/319
f 310/279/310 319/286/319 318/285/318
f 311/280/311 312/279/312 320/287/320
f 311/280/311 320/287/320 319/286/319
f 312/279/312 313/277/313 321/288/321
f 312/279/312 321/288/321 320/287/320
f 313/277/313 314/281/314 321/288/321
f 314/281/314 308/278/309 315/283/316
f 314/281/314 315/283/316 321/288/321
f 315/283/316 316/282/315 322/289/322
f 316/282/315 317/284/317 323/290/323
f 318/285/318 319/286/319 324/291/324
f 318/285/318 324/291/324 317/284/317
f 319/286/319 320/287/320 325/292/325
f 319/286/319 325/292/325 324/291/324
f 321/288/321 326/293/326 320/287/320
f 321/288/321 315/283/316 322/289/322
f 321/288/321 322/289/322 326/293/326
f 322/289/322 316/282/315 327/294/327
f 316/282/315 323/290/323 328/295/328
f 316/282/315 328/295/328 327/294/327
f 323/290/323 317/284/317 328/295/328
f 317/284/317 324/291/324 329/296/329
f 317/284/317 329/296/329 328/295/328
f 324/291/324 325/292/325 330/297/330
f 324/291/324 330/297/330 329/296/329
f 325/292/325 320/287/320 331/298/331
f 325/292/325 331/298/331 330/297/330
f 320/287/320 326/293/326 332/299/332
f 320/287/320 332/299/332 331/298/331
f 326/293/326 322/289/322 327/294/327
f 326/293/326 327/294/327 332/299/332
f 327/294/327 334/300/333 333/301/334
f 327/294/327 328/295/328 335/302/335
f 327/294/327 335/302/335 334/300/333
f 328/295/328 336/303/336 335/302/335
f 328/295/328 329/296/329 337/304/337
f 328/295/328 337/304/337 336/303/336
f 329/296/329 330/297/330 338/305/338
f 329/296/329 338/305/338 337/304/337
f 330/297/330 331/298/331 339/306/339
f 330/297/330 339/306/339 338/305/338
f 331/298/331 332/299/332 340/300/340
f 331/298/331 340/300/340 339/306/339
f 332/299/332 327/294/327 333/301/334
f 332/299/332 333/301/334 340/300/340
f 333/301/334 334/300/333 342/307/341
f 333/301/334 342/307/341 341/308/342
f 334/300/333 335/302/335 342/307/341
f 335/302/335 336/303/336 343/309/343
f 336/303/336 337/304/337 344/310/344
f 336/303/336 344/310/344 343/309/343
f 337/304/337 338/305/338 344/310/344
f 338/305/338 339/306/339 345/311/345
f 339/306/339 340/300/340 346/307/346
f 339/306/339 346/307/346 345/311/345
f 340/300/340 333/301/334 341/308/342
f 340/300/340 341/308/342 346/307/346
f 341/308/342 342/307/341 348/312/347
f 341/308/342 348/312/347 347/313/348
f 342/307/341 335/302/335 349/314/349
f 342/307/341 349/314/349 348/312/347
f 335/302/335 343/309/343 350/315/350
f 335/302/335 350/315/350 349/314/349
f 343/309/343 344/310/344 351/316/351
f 343/309/343 351/316/351 350/315/350
f 344/310/344 338/305/338 352/315/352
f 344/310/344 352/315/352 351/316/351
f 338/305/338 345/311/345 353/314/353
f 338/305/338 353/314/353 352/315/352
f 345/311/345 346/307/346 354/312/354
f 345/311/345 354/312/354 353/314/353
f 346/307/346 341/308/342 347/313/348
f 346/307/346 347/313/348 354/312/354
f 347/313/348 348/312/347 356/317/355
f 347/313/348 356/317/355 355/318/356
f 348/312/347 349/314/349 357/319/357
f 348/312/347 357/319/357 356/317/355
f 349/314/349 350/315/350 358/320/358
f 349/314/349 358/320/358 357/319/357
f 350/315/350 351/316/351 359/321/359
f 350/315/350 359/321/359 358/320/358
f 351/316/351 352/315/352 360/320/360
f 351/316/351 360/320/360 359/321/359
f 352/315/352 353/314/353 361/322/361
f 352/315/352 361/322/361 360/320/360
f 353/314/353 354/312/354 362/323/362
f 353/314/353 362/323/362 361/322/361
f 354/312/354 347/313/348 355/318/356
f 354/312/354 355/318/356 362/323/362
f 355/318/356 356/317/355 363/324/363
f 357/319/357 358/320/358 364/325/364
f 357/319/357 364/325/364 356/317/355
f 358/320/358 359/321/359 364/325/364
f 359/321/359 360/320/360 365/326/365
f 359/321/359 365/326/365 364/325/364
f 360/320/360 361/322/361 365/326/365
f 362/323/362 355/318/356 363/324/363
f 363/324/363 367/327/366 366/328/367
f 363/324/363 356/317/355 368/329/368
f 363/324/363 368/329/368 367/327/366
f 356/317/355 364/325/364 369/330/369
f 356/317/355 369/330/369 368/329/368
f 364/325/364 370/331/370 369/330/369
f 364/325/364 365/326/365 370/331/370
f 365/326/365 361/322/361 371/329/371
f 361/322/361 362/323/362 372/327/372
f 361/322/361 372/327/372 371/329/371
f 362/323/362 363/324/363 366/328/367
f 362/323/362 366/328/367 372/327/372
f 366/328/367 367/327/366 373/332/373
f 367/327/366 368/329/368 374/333/374
f 367/327/366 374/333/374 373/332/373
f 368/329/368 369/330/369 375/334/375
f 368/329/368 375/334/375 374/333/374
f 369/330/369 370/331/370 376/335/376
f 369/330/369 376/335/376 375/334/375
f 370/331/370 365/326/365 377/336/377
f 370/331/370 377/336/377 376/335/376
f 365/326/365 371/329/371 377/336/377
f 371/329/371 372/327/372 378/337/378
f 371/329/371 378/337/378 377/336/377
f 372/327/372 366/328/367 378/337/378
f 366/328/367 373/332/373 379/338/379
f 373/332/373 374/333/374 380/339/380
f 374/333/374 375/334/375 380/339/380
f 376/335/376 377/336/377 381/340/381
f 377/336/377 378/337/378 379/338/379
f 377/336/377 379/338/379 381/340/381
f 378/337/378 366/328/367 379/338/379
f 379/338/379 373/332/373 383/341/382
f 379/338/379 383/341/382 382/342/383
f 373/332/373 380/339/380 383/341/382
f 375/334/375 376/335/376 380/339/380
f 376/335/376 381/340/381 380/339/380
f 381/340/381 382/342/383 380/339/380
f 381/340/381 379/338/379 382/342/383
f 383/341/382 380/339/380 382/342/383
f 384/343/384 386/344/385 385/345/386
f 384/343/384 387/346/387 386/344/385
f 384/343/384 388/347/388 387/346/387
f 384/343/384 389/348/389 388/347/388
f 384/343/384 385/345/386 389/348/389
f 385/345/386 386/344/385 391/349/390
f 385/345/386 391/349/390 390/350/391
f 386/344/385 387/346/387 391/349/390
f 387/346/387 392/351/392 391/349/390
f 387/346/387 388/347/388 393/352/393
f 387/346/387 393/352/393 392/351/392
f 388/347/388 389/348/389 394/353/394
f 388/347/388 394/353/394 393/352/393
f 389/348/389 385/345/386 390/350/391
f 389/348/389 390/350/391 394/353/394
f 390/350/391 396/354/395 395/355/396
f 390/350/391 391/349/390 397/356/397
f 390/350/391 397/356/397 396/354/395
f 391/349/390 398/357/398 397/356/397
f 391/349/390 392/351/392 398/357/398
f 392/351/392 393/352/393 399/358/399
f 393/352/393 400/356/400 399/358/399
f 393/352/393 394/353/394 400/356/400
f 394/353/394 390/350/391 395/355/396
f 395/355/396 396/354/395 401/359/401
f 396/354/395 397/356/397 402/360/402
f 397/356/397 398/357/398 403/361/403
f 397/356/397 403/361/403 402/360/402
f 398/357/398 392/351/392 404/362/404
f 398/357/398 404/362/404 403/361/403
f 392/351/392 399/358/399 404/362/404
f 399/358/399 400/356/400 405/363/405
f 400/356/400 394/353/394 406/364/406
f 400/356/400 406/364/406 405/363/405
f 394/353/394 395/355/396 401/359/401
f 394/353/394 401/359/401 406/364/406
f 401/359/401 396/354/395 408/365/407
f 401/359/401 408/365/407 407/366/408
f 396/354/395 402/360/402 408/365/407
f 402/360/402 403/361/403 409/367/409
f 403/361/403 404/362/404 410/368/410
f 403/361/403 410/368/410 409/367/409
f 404/362/404 399/358/399 411/367/411
f 404/362/404 411/367/411 410/368/410
f 399/358/399 405/363/405 411/367/411
f 405/363/405 406/364/406 412/365/412
f 406/364/406 401/359/401 407/366/408
f 406/364/406 407/366/408 412/365/412
f 407/366/408 408/365/407 414/369/413
f 407/366/408 414/369/413 413/370/414
f 408/365/407 402/360/402 415/371/415
f 408/365/407 415/371/415 414/369/413
f 402/360/402 409/367/409 416/372/416
f 402/360/402 416/372/416 415/371/415
f 409/367/409 410/368/410 417/373/417
f 409/367/409 417/373/417 416/372/416
f 410/368/410 411/367/411 418/372/418
f 410/368/410 418/372/418 417/373/417
f 411/367/411 405/363/405 419/371/419
f 411/367/411 419/371/419 418/372/418
f 405/363/405 412/365/412 413/370/414
f 405/363/405 413/370/414 419/371/419
f 412/365/412 407/366/408 413/370/414
f 413/370/414 414/369/413 421/374/420
f 413/370/414 421/374/420 420/375/421
f 414/369/413 415/371/415 421/374/420
f 415/371/415 416/372/416 422/376/422
f 415/371/415 422/376/422 421/374/420
f 416/372/416 417/373/417 422/376/422
f 417/373/417 418/372/418 423/377/423
f 417/373/417 423/377/423 422/376/422
f 418/372/418 419/371/419 424/378/424
f 418/372/418 424/378/424 423/377/423
f 419/371/419 413/370/414 425/379/425
f 419/371/419 425/379/425 424/378/424
f 413/370/414 420/375/421 425/379/425
f 420/375/421 421/374/420 426/380/426
f 421/374/420 427/381/427 426/380/426
f 421/374/420 422/376/422 428/382/428
f 421/374/420 428/382/428 427/381/427
f 422/376/422 429/383/429 428/382/428
f 422/376/422 423/377/423 430/382/430
f 422/376/422 430/382/430 429/383/429
f 423/377/423 424/378/424 431/384/431
f 423/377/423 431/384/431 430/382/430
f 424/378/424 425/379/425 432/380/432
f 424/378/424 432/380/432 431/384/431
f 425/379/425 420/375/421 432/380/432
f 420/375/421 426/380/426 434/385/433
f 420/375/421 434/385/433 433/386/434
f 426/380/426 427/381/427 435/387/435
f 426/380/426 435/387/435 434/385/433
f 427/381/427 428/382/428 436/388/436
f 427/381/427 436/388/436 435/387/435
f 428/382/428 429/383/429 436/388/436
f 429/383/429 430/382/430 437/389/437
f 429/383/429 437/389/437 436/388/436
f 430/382/430 431/384/431 437/389/437
f 431/384/431 432/380/432 438/385/438
f 432/380/432 420/375/421 433/386/434
f 432/380/432 433/386/434 438/385/438
f 433/386/434 434/385/433 440/390/439
f 433/386/434 440/390/439 439/391/440
f 434/385/433 435/387/435 440/390/439
f 435/387/435 436/388/436 441/392/441
f 436/388/436 442/393/442 441/392/441
f 436/388/436 437/389/437 443/394/443
f 436/388/436 443/394/443 442/393/442
f 437/389/437 431/384/431 443/394/443
f 431/384/431 438/385/438 439/391/440
f 431/384/431 439/391/440 443/394/443
f 438/385/438 433/386/434 439/391/440
f 439/391/440 440/390/439 445/395/444
f 439/391/440 445/395/444 444/396/445
f 440/390/439 435/387/435 446/397/446
f 440/390/439 446/397/446 445/395/444
f 435/387/435 441/392/441 446/397/446
f 441/392/441 442/393/442 447/398/447
f 441/392/441 447/398/447 446/397/446
f 442/393/442 443/394/443 447/398/447
f 443/394/443 448/399/448 447/398/447
f 443/394/443 439/391/440 444/396/445
f 443/394/443 444/396/445 448/399/448
f 444/396/445 445/395/444 450/400/449
f 444/396/445 450/400/449 449/401/450
f 445/395/444 446/397/446 450/400/449
f 446/397/446 447/398/447 451/402/451
f 447/398/447 448/399/448 451/402/451
f 448/399/448 444/396/445 449/401/450
f 449/401/450 450/400/449 452/403/452
f 450/400/449 446/397/446 452/403/452
f 446/397/446 451/402/451 452/403/452
f 449/401/450 452/403/452 453/404/453
f 452/403/452 451/402/451 453/404/453
f 451/402/451 448/399/448 453/404/453
f 448/399/448 449/401/450 453/404/453
