# Blender 5.1.2
# www.blender.org
o justed_inferno_v32_ground_roll_03
v 5.467608 0.399757 0.598434
v 5.286591 0.631105 0.750453
v 5.224015 0.481562 0.739139
v 5.217454 0.302903 0.758901
v 5.355086 0.261395 0.863428
v 5.453681 0.300085 0.913790
v 5.468718 0.424307 0.903758
v 5.406971 0.512056 0.849360
v 5.369596 0.634520 0.805345
v 5.145863 0.725761 0.912611
v 4.889026 0.533173 0.999726
v 4.891161 0.292335 1.013601
v 5.153233 0.269220 1.013762
v 5.244071 0.199918 1.093922
v 5.345846 0.264402 1.158942
v 5.372901 0.441262 1.148365
v 5.232323 0.603607 1.208868
v 5.186998 0.866306 1.165652
v 5.023702 0.809836 1.106888
v 4.903013 0.284440 1.262548
v 5.087711 0.143201 1.287912
v 5.205873 0.238874 1.370401
v 5.242674 0.452421 1.361223
v 4.800553 0.789280 1.228397
v 4.650282 0.635223 1.207945
v 4.699250 0.358569 1.190435
v 4.886706 0.135494 1.460969
v 5.011032 0.241848 1.557073
v 5.075082 0.466365 1.529692
v 4.974643 0.664305 1.584875
v 5.007988 0.924093 1.452123
v 4.690591 0.806392 1.374733
v 4.582890 0.436143 1.343002
v 4.667364 0.345022 1.454411
v 4.885273 0.489925 1.657583
v 4.573082 0.835249 1.535046
v 4.450951 0.712020 1.424336
v 4.464811 0.506612 1.489822
v 4.504498 0.381836 1.567329
v 4.558807 0.240175 1.666486
v 4.660227 0.320913 1.769692
v 4.700064 0.516619 1.771301
v 4.761036 0.693243 1.802940
v 4.734687 0.879212 1.727001
v 4.446364 0.905546 1.680368
v 4.283969 0.789867 1.533943
v 4.321473 0.556729 1.605017
v 4.323885 0.383496 1.651964
v 4.346117 0.244466 1.782735
v 4.438951 0.316188 1.909472
v 4.534135 0.530214 1.897221
v 4.626692 0.718090 1.974082
v 4.585579 0.892477 1.874885
v 4.370537 1.015353 1.891271
v 4.269818 1.006918 1.743635
v 4.154806 0.593908 1.682276
v 4.117367 0.341916 1.693551
v 4.284875 0.478965 2.127829
v 4.413024 0.771877 2.357316
v 4.383522 0.983847 2.108220
v 4.245184 1.132472 2.031768
v 4.128163 1.156895 1.832654
v 3.973967 0.966964 1.631890
v 3.866653 0.662606 1.764444
v 3.902500 0.290574 1.702026
v 3.991181 0.126435 1.893311
v 4.133341 0.238146 2.095987
v 4.088699 1.218868 2.182989
v 3.986768 1.284913 1.927616
v 3.830702 1.025318 1.719459
v 3.653517 0.278530 1.727786
v 3.770597 0.098399 1.949438
v 3.956134 0.240814 2.171225
v 4.081719 0.449007 2.338928
v 4.245212 0.776381 2.541113
v 3.895663 1.243556 2.309260
v 3.837811 1.357567 2.027471
v 3.697003 1.034254 1.841949
v 3.643155 0.699191 1.832890
v 3.784651 0.293286 2.233238
v 3.916761 0.425618 2.457357
v 4.051892 0.778678 2.622874
v 3.637937 1.398663 2.142140
v 3.557176 1.020917 1.966429
v 3.478179 0.727675 1.880630
v 3.302531 0.376541 1.890605
v 3.385520 0.208614 2.109634
v 3.617554 0.354225 2.295808
v 3.746695 0.416730 2.559520
v 3.845050 0.787991 2.664521
v 3.687502 1.267227 2.424579
v 3.403340 1.016240 2.064722
v 3.304712 0.746510 1.907776
v 3.389380 0.376902 2.382835
v 3.578480 0.406378 2.666603
v 3.646287 0.807146 2.710593
v 3.637018 1.085213 2.605786
v 3.429258 1.379021 2.538649
v 3.330975 1.474045 2.249973
v 3.134694 1.043263 2.164674
v 3.123337 0.752669 1.912278
v 3.099440 0.372749 1.961044
v 3.173995 0.222605 2.203067
v 3.411979 0.394538 2.783407
v 3.456319 0.834821 2.771035
v 3.312448 1.198082 2.757364
v 3.246992 1.463267 2.600495
v 3.144128 1.475661 2.293807
v 2.947882 0.746175 1.928455
v 2.942658 0.364667 2.024382
v 3.019904 0.249469 2.285589
v 3.112343 0.337276 2.532323
v 3.238160 0.412591 2.881049
v 3.263888 0.868198 2.823911
v 3.046448 1.492910 2.628292
v 2.951361 1.395701 2.341494
v 2.885845 1.040945 2.226629
v 2.791018 0.735590 2.000541
v 2.798821 0.388129 2.126271
v 2.871544 0.328529 2.384130
v 2.943316 0.333789 2.620191
v 3.047731 0.487116 2.921732
v 3.075197 1.213183 2.796977
v 2.832070 1.442103 2.627106
v 2.759037 1.261525 2.402041
v 2.709906 1.021518 2.284229
v 2.647897 0.734039 2.131157
v 2.551112 0.518035 2.357602
v 2.719578 0.446537 2.483768
v 2.771055 0.385465 2.695787
v 2.841845 0.599590 2.902858
v 2.731039 0.898317 2.837867
v 2.716933 1.153910 2.777857
v 2.617164 1.353073 2.619306
v 2.569175 1.141932 2.465831
v 2.532890 0.993880 2.346528
v 2.499998 0.742954 2.271165
v 2.554725 0.553515 2.567036
v 2.591600 0.467735 2.754632
v 2.631613 0.702566 2.866088
v 2.309735 1.290673 2.614439
v 2.378587 1.080849 2.511738
v 2.320749 0.974954 2.387367
v 2.265653 0.740170 2.392325
v 2.347893 0.583307 2.486209
v 2.376096 0.605974 2.632280
v 2.350030 0.535038 2.837254
v 2.347866 0.784555 2.863415
v 2.421081 0.967949 2.831082
v 2.428452 1.148770 2.762138
v 2.118979 1.083337 2.527256
v 2.059458 0.573117 2.580835
v 2.188479 0.594091 2.692060
v 2.225471 1.195220 2.776578
v 2.003495 1.324114 2.584241
v 1.968786 0.957257 2.344836
v 1.968086 0.692499 2.423319
v 1.995804 0.543092 2.757725
v 2.016967 0.530226 2.980273
v 2.023008 1.040755 2.904701
v 2.021315 1.272374 2.784880
v 1.802912 1.297920 2.563063
v 1.794662 1.101212 2.481127
v 1.783572 0.931368 2.328757
v 1.746406 0.656936 2.459618
v 1.767724 0.591351 2.626738
v 1.798290 0.497335 2.825175
v 1.809773 0.564200 3.031555
v 1.808492 1.091116 2.911088
v 1.813663 1.331187 2.769399
v 1.605047 1.229684 2.556121
v 1.603705 1.096653 2.451687
v 1.601576 0.900423 2.347333
v 1.594841 0.486573 2.877415
v 1.596198 0.631439 3.026135
v 1.605678 1.106633 2.895303
v 1.605903 1.341276 2.733958
v 1.409048 1.161502 2.553873
v 1.416465 1.083152 2.421858
v 1.418461 0.875227 2.374935
v 1.273310 0.671757 2.529459
v 1.291738 0.641814 2.701614
v 1.386153 0.499426 2.906219
v 1.382166 0.696946 2.986664
v 1.267625 0.915190 2.928004
v 1.281023 1.118625 2.845373
v 1.326959 1.308082 2.676503
v 1.168312 1.118895 2.530020
v 1.234887 1.075365 2.374484
v 1.158464 0.844797 2.370016
v 1.039050 0.502207 2.925123
v 1.169245 0.737324 2.946488
v 0.920894 1.072293 2.250580
v 1.070017 0.667120 2.523136
v 0.842631 0.747268 2.895271
v 0.784856 0.954032 2.877498
v 0.971286 1.155322 2.800541
v 1.006505 1.297354 2.596390
v 0.689876 1.122017 2.384928
v 0.809591 0.820299 2.293096
v 0.790416 0.659526 2.489195
v 0.802593 0.565200 2.659215
v 0.744763 0.496021 2.895121
v 0.763780 1.180201 2.759736
v 0.815905 1.272068 2.544525
v 0.727463 1.051687 2.209661
v 0.611085 0.544899 2.612088
v 0.546951 0.540113 2.808210
v 0.525835 0.947897 2.782277
v 0.508632 1.166609 2.672762
v 0.629000 1.205760 2.495680
v 0.463770 1.104455 2.342403
v 0.417271 0.994828 2.219022
v 0.343172 0.751833 2.365802
v 0.385472 0.577551 2.517717
v 0.371637 0.615781 2.674307
v 0.325036 0.922623 2.661776
v 0.243375 1.038055 2.263911
v 0.343806 0.837934 2.256984
v 0.214413 0.689445 2.527322
v 0.088622 0.883685 2.473471
v 0.087572 1.002353 2.409314
v 0.152232 0.984284 2.328518
v 0.109077 0.935862 2.166861
v 0.126665 0.835047 2.207602
v 0.062237 0.676544 2.310118
v 0.018230 0.778353 2.393336
v -0.164143 0.967353 2.046228
v -0.041064 0.813300 2.122726
v -0.231108 0.847518 2.202466
v -0.169035 0.928964 2.201750
v -0.199050 0.902163 1.981875
v -0.228006 0.715838 2.054385
v -0.317996 0.776513 2.075527
v -0.323653 0.898292 2.010261
v -0.264039 0.776981 1.948950
v -0.406719 0.819380 1.996972
v -0.454277 0.871994 1.785237
v -0.409507 0.853171 1.805252
v -0.494715 0.772676 1.797055
v -0.515833 0.844777 1.737536
v -0.540554 0.824177 1.650908
v -0.501909 0.781508 1.692988
v -0.572702 0.791343 1.655668
v -0.636252 0.780358 1.469181
v 4.412756 0.629378 1.782132
v 4.381251 0.825687 1.745114
v 4.263282 0.745256 1.774996
v 4.255843 0.680614 1.928316
v 4.331526 0.705830 1.943117
v 4.432118 0.835141 1.812913
v 4.288038 0.951505 1.802927
v 4.188283 0.877275 1.836929
v 4.121652 0.830672 1.971317
v 4.257819 0.852938 1.976272
v 4.329792 0.993848 1.924929
v 4.252432 1.242133 1.966563
v 4.197122 1.245701 1.869927
v 4.086106 0.970675 1.872920
v 4.054526 0.938023 2.044615
v 4.210933 0.996256 2.044090
v 4.040160 1.150503 1.878587
v 3.929480 1.036430 1.915742
v 3.888785 0.958178 2.016626
v 4.086647 1.132262 2.175783
v 4.225581 1.224638 2.089088
v 4.175693 1.379116 2.038117
v 4.112763 1.375450 1.933552
v 3.837289 1.123497 1.945628
v 3.824168 1.058820 2.051111
v 3.915720 1.100086 2.131672
v 4.091123 1.507405 2.063585
v 3.990381 1.444632 1.985110
v 3.878473 1.327632 1.980467
v 3.751482 1.179840 2.001428
v 3.792580 1.161552 2.110087
v 3.845288 1.167350 2.198366
v 3.971823 1.281350 2.235554
v 4.028592 1.391669 2.148920
v 3.792003 1.576386 2.103155
v 3.782738 1.390972 2.064265
v 3.760510 1.282526 2.100363
v 3.810200 1.279240 2.229107
v 3.869635 1.379207 2.202168
v 3.899794 1.451246 2.157921
v 3.742519 1.496412 2.093513
v 3.682429 1.398754 2.073638
v 3.694767 1.330552 2.171448
v 3.711642 1.293783 2.245208
v 3.760643 1.328208 2.309432
v 3.764215 1.460972 2.247094
v 3.825340 1.571450 2.184162
v 3.663193 1.560080 2.156385
v 3.632196 1.525422 2.111482
v 3.638587 1.419653 2.130144
v 3.665035 1.315703 2.315481
v 3.693012 1.412113 2.314672
v 3.701354 1.615819 2.203372
v 3.576997 1.616061 2.236728
v 3.520505 1.542830 2.117384
v 3.548365 1.433187 2.198185
v 3.575609 1.366209 2.270709
v 3.615520 1.327350 2.367394
v 3.607185 1.541619 2.332647
v 3.453223 1.553392 2.256588
v 3.453295 1.514267 2.217933
v 3.474124 1.404478 2.305942
v 3.523085 1.405821 2.346066
v 3.461594 1.498611 2.350533
v 3.313704 1.456223 2.355444
v 3.384751 1.466985 2.299497
v 3.409902 1.428642 2.361762
v 3.224516 1.361300 2.399381
v 2.885823 0.836308 2.508696
v 2.850548 1.013717 2.489401
v 2.782639 0.982714 2.466593
v 2.624782 1.063736 2.486370
v 2.615446 0.946910 2.536860
v 2.742158 0.934327 2.576594
v 2.870996 1.021988 2.582718
v 2.802396 1.146587 2.630766
v 2.827372 1.137019 2.490640
v 2.709251 1.075119 2.650463
v 2.749055 1.350021 2.621816
v 2.734328 1.336978 2.521194
v 2.486758 1.172749 2.461294
v 2.448263 1.127846 2.541928
v 2.503036 1.155839 2.625238
v 2.495277 1.324030 2.776432
v 2.686373 1.291104 2.674778
v 2.729693 1.549550 2.646081
v 2.648013 1.501182 2.518778
v 2.505094 1.386387 2.459365
v 2.339053 1.243184 2.443599
v 2.319931 1.203119 2.569437
v 2.354270 1.211067 2.690033
v 2.617021 1.440808 2.724154
v 2.560084 1.623195 2.613392
v 2.370036 1.612564 2.535859
v 2.389171 1.469299 2.504476
v 2.284901 1.356129 2.537795
v 2.279732 1.332820 2.631021
v 2.309774 1.346232 2.720738
v 2.419815 1.454283 2.744469
v 2.428396 1.717660 2.579818
v 2.271599 1.532564 2.524415
v 2.199759 1.426715 2.599356
v 2.207135 1.417075 2.689432
v 2.243195 1.445087 2.771573
v 2.335626 1.566351 2.746306
v 2.401488 1.663152 2.678747
v 2.282458 1.728920 2.580065
v 2.170951 1.584459 2.570153
v 2.147825 1.526020 2.653097
v 2.151659 1.515904 2.721538
v 2.182632 1.554685 2.774323
v 2.200493 1.715785 2.705632
v 2.270591 1.728407 2.660332
v 2.142647 1.797930 2.572945
v 2.110869 1.729181 2.534968
v 2.064266 1.602175 2.564037
v 2.002295 1.571518 2.699292
v 2.055648 1.509463 2.793520
v 2.097297 1.607531 2.817516
v 2.170873 1.844966 2.652100
v 1.891541 1.778542 2.573941
v 1.999864 1.770625 2.520644
v 1.983774 1.641313 2.596815
v 1.982856 1.520178 2.812192
v 2.004862 1.653303 2.789151
v 2.022597 1.761739 2.768452
v 2.032077 1.868935 2.666062
v 1.893434 1.810716 2.635187
v 1.897767 1.680590 2.638690
v 1.892173 1.594746 2.674176
v 1.892108 1.590433 2.749572
v 1.893574 1.751153 2.778234
v 1.898001 1.805193 2.694738
v 1.773594 1.789725 2.668877
v 1.776575 1.734297 2.645094
v 1.811758 1.637338 2.740849
v 1.567365 1.625175 2.711514
v 1.691217 1.660520 2.671625
v 1.703783 1.626741 2.682024
v 1.706469 1.625116 2.724192
v 1.690536 1.678963 2.722170
v 1.488309 1.527402 2.699485
v 1.184476 0.896199 2.674964
v 1.114446 1.049021 2.727736
v 1.104556 1.029366 2.617051
v 1.060885 1.019511 2.703870
v 1.097350 1.282679 2.730041
v 1.142611 1.303181 2.640040
v 0.947143 1.313777 2.540739
v 0.920284 1.121145 2.489459
v 0.839514 1.069466 2.540092
v 0.885488 1.117441 2.646524
v 0.900343 1.170400 2.774791
v 1.027797 1.236933 2.764574
v 1.059887 1.474727 2.710524
v 1.020518 1.423692 2.591470
v 0.785144 1.217686 2.451334
v 0.756859 1.215283 2.563412
v 0.742332 1.219933 2.654907
v 0.826476 1.303950 2.764825
v 1.006924 1.643059 2.633051
v 0.902066 1.531861 2.532675
v 0.811817 1.435989 2.445534
v 0.658574 1.309897 2.462905
v 0.638250 1.318204 2.577971
v 0.600795 1.313361 2.699239
v 0.754430 1.451838 2.736172
v 0.878655 1.563320 2.701110
v 0.818214 1.675978 2.547551
v 0.746314 1.622655 2.491452
v 0.598940 1.593898 2.444810
v 0.604462 1.460932 2.521290
v 0.546390 1.467351 2.600535
v 0.575710 1.477641 2.674177
v 0.679238 1.593593 2.648300
v 0.694830 1.749648 2.493368
v 0.516490 1.548999 2.515409
v 0.455810 1.639201 2.638892
v 0.594066 1.856601 2.536224
v 0.571146 1.863226 2.438267
v 0.538212 1.817618 2.357028
v 0.364089 1.616801 2.460701
v 0.325862 1.574323 2.566368
v 0.427631 1.796623 2.592539
v 0.425152 1.710772 2.368631
v 0.296830 1.700197 2.552455
v 0.456353 1.926515 2.500853
v 0.353540 1.941983 2.394288
v 0.385824 1.905682 2.315449
v 0.260031 1.701334 2.353763
v 0.311064 1.638945 2.388283
v 0.263527 1.594394 2.473715
v 0.266365 1.825499 2.540072
v 0.316151 1.931185 2.469063
v 0.223566 1.895719 2.377857
v 0.237055 1.859583 2.336037
v 0.220736 1.701421 2.410749
v 0.187691 1.790856 2.444856
v 0.092302 1.838174 2.325022
v 0.158253 1.789429 2.296070
v 0.177646 1.709322 2.303724
v 0.131987 1.696016 2.365397
v 0.032931 1.685491 2.234452
v 0.092325 1.687731 2.282516
v -0.005801 1.717015 2.272608
v -0.028887 1.671028 2.223460
v -0.036248 1.595197 2.228110
v -0.088009 1.559051 2.183111
vn 0.2865 -0.7840 -0.5507
vn -0.5249 0.0851 -0.8469
vn -0.1797 0.6312 -0.7545
vn -0.2721 -0.6642 -0.6962
vn 0.2420 -0.9547 -0.1730
vn 0.8679 -0.4883 -0.0915
vn 0.9615 0.2643 0.0755
vn 0.8406 0.5090 0.1853
vn 0.6827 0.6633 -0.3064
vn -0.6261 0.1018 -0.7731
vn -0.5368 -0.6492 -0.5389
vn -0.2407 -0.9241 -0.2969
vn 0.2226 -0.9591 -0.1748
vn 0.7985 -0.4804 0.3628
vn 0.8811 0.2400 0.4076
vn 0.8405 0.3409 0.4212
vn 0.6202 0.7816 0.0669
vn -0.2804 0.7220 -0.6325
vn -0.4169 -0.8525 -0.3154
vn 0.0090 -0.9961 -0.0873
vn 0.6935 -0.4705 0.5456
vn 0.8045 0.1580 0.5726
vn -0.2782 0.8698 -0.4075
vn -0.4321 0.7675 -0.4736
vn -0.7078 0.2184 -0.6718
vn -0.6845 -0.5135 -0.5174
vn -0.2308 -0.9721 -0.0411
vn 0.5055 -0.4619 0.7288
vn 0.6580 0.0018 0.7531
vn 0.7040 0.1933 0.6834
vn 0.5884 0.7519 0.2974
vn -0.3862 0.8128 -0.4360
vn -0.7972 -0.3756 -0.4726
vn -0.5285 -0.7489 -0.3998
vn 0.5679 -0.0926 0.8179
vn -0.6081 0.2168 -0.7637
vn -0.1909 0.8980 -0.3965
vn -0.6910 -0.3144 -0.6509
vn -0.4764 -0.6543 -0.5873
vn -0.2225 -0.9646 -0.1413
vn 0.4086 -0.4985 0.7646
vn 0.5536 -0.2568 0.7922
vn 0.7112 0.0895 0.6973
vn 0.5143 0.7470 0.4212
vn -0.3259 0.1923 -0.9256
vn 0.1585 0.8841 -0.4395
vn -0.5071 -0.2277 -0.8312
vn -0.2532 -0.5518 -0.7946
vn 0.0882 -0.9689 -0.2312
vn 0.5071 -0.6039 0.6150
vn 0.6139 -0.4202 0.6683
vn 0.8034 0.0115 0.5954
vn 0.6314 0.7095 0.3129
vn 0.3282 0.7186 -0.6132
vn 0.5243 0.8356 -0.1641
vn -0.3186 -0.1600 -0.9343
vn -0.0676 -0.4345 -0.8982
vn 0.6025 -0.5559 0.5727
vn 0.7838 -0.0381 0.6198
vn 0.6636 0.6685 0.3359
vn 0.2761 0.7659 -0.5807
vn 0.6045 0.7966 -0.0004
vn -0.2298 0.2541 -0.9395
vn -0.3172 -0.0461 -0.9472
vn -0.0818 -0.3541 -0.9316
vn 0.1688 -0.9670 -0.1908
vn 0.4260 -0.7420 0.5177
vn 0.1101 0.8549 -0.5070
vn 0.5039 0.8049 0.3134
vn -0.3791 0.3579 -0.8533
vn -0.3044 -0.2823 -0.9097
vn -0.0814 -0.9967 -0.0025
vn 0.1805 -0.8307 0.5267
vn 0.4899 -0.6127 0.6201
vn 0.6249 -0.0741 0.7772
vn -0.0801 0.8944 -0.4400
vn 0.3723 0.7799 0.5031
vn -0.4960 0.4426 -0.7470
vn -0.3679 0.1149 -0.9228
vn -0.0303 -0.8708 0.4907
vn 0.3482 -0.6344 0.6901
vn 0.3862 -0.0604 0.9205
vn -0.0874 0.8590 -0.5044
vn -0.4558 0.4718 -0.7548
vn -0.3000 0.1685 -0.9389
vn -0.3179 -0.3471 -0.8823
vn -0.1479 -0.9861 0.0757
vn -0.0099 -0.9171 0.3986
vn 0.3063 -0.6396 0.7051
vn 0.3141 -0.0257 0.9490
vn 0.4166 0.7526 0.5100
vn -0.3052 0.4847 -0.8197
vn -0.1898 0.2205 -0.9567
vn 0.1402 -0.9371 0.3197
vn 0.3698 -0.6182 0.6936
vn 0.3650 0.0018 0.9310
vn 0.4833 0.4538 0.7486
vn -0.0565 0.7886 -0.6123
vn 0.4392 0.7993 0.4102
vn -0.2471 0.4591 -0.8533
vn -0.1545 0.2330 -0.9601
vn -0.2614 -0.4807 -0.8370
vn -0.0260 -0.9994 -0.0236
vn 0.3836 -0.5928 0.7081
vn 0.3562 0.0292 0.9340
vn 0.3170 0.3773 0.8702
vn -0.1744 0.7787 -0.6026
vn 0.2416 0.8892 0.3886
vn -0.3234 0.2476 -0.9133
vn -0.3953 -0.5710 -0.7195
vn -0.2313 -0.9717 -0.0491
vn 0.0921 -0.9492 0.3010
vn 0.1822 -0.5161 0.8369
vn 0.2328 0.1027 0.9671
vn -0.4078 0.7487 -0.5227
vn -0.1159 0.9227 0.3676
vn -0.3354 0.4560 -0.8244
vn -0.5420 0.2251 -0.8097
vn -0.6040 -0.5967 -0.5284
vn -0.4739 -0.8799 -0.0350
vn -0.1155 -0.9055 0.4084
vn -0.0687 -0.4129 0.9082
vn 0.0435 0.3758 0.9257
vn -0.5012 0.6957 -0.5146
vn -0.3520 0.8940 0.2771
vn -0.4225 0.4323 -0.7966
vn -0.6375 0.1049 -0.7633
vn -0.5999 -0.6677 -0.4408
vn -0.5375 -0.8422 -0.0431
vn -0.2992 -0.8250 0.4794
vn -0.1836 -0.2901 0.9392
vn -0.0357 0.2039 0.9783
vn -0.1131 0.3946 0.9119
vn -0.4065 0.6701 -0.6211
vn -0.3492 0.9321 0.0964
vn -0.3768 0.4056 -0.8328
vn -0.5569 0.0076 -0.8306
vn -0.4356 -0.8969 -0.0768
vn -0.2674 -0.8001 0.5370
vn -0.1000 -0.2088 0.9728
vn -0.1775 0.6345 -0.7522
vn 0.0366 0.9482 -0.3156
vn -0.1420 0.3178 -0.9375
vn -0.2179 -0.2779 -0.9356
vn -0.2973 -0.8480 -0.4388
vn -0.1665 -0.9773 -0.1307
vn 0.1200 -0.6760 0.7271
vn 0.0486 -0.0236 0.9985
vn 0.1042 0.2622 0.9594
vn 0.0563 0.5547 0.8301
vn 0.0556 0.5454 -0.8364
vn 0.0257 -0.9056 -0.4233
vn 0.0428 -0.9932 -0.1086
vn 0.1886 0.6556 0.7312
vn 0.1442 0.8614 -0.4871
vn 0.0549 0.2212 -0.9737
vn -0.0108 -0.5463 -0.8375
vn 0.1782 -0.9839 0.0126
vn 0.2502 -0.4941 0.8326
vn 0.1790 0.3028 0.9361
vn 0.2012 0.7816 0.5904
vn 0.0717 0.4806 -0.8740
vn -0.0308 0.8567 -0.5149
vn -0.0186 0.0833 -0.9964
vn -0.0351 -0.6945 -0.7186
vn -0.1074 -0.9103 -0.3998
vn 0.0180 -0.9969 0.0763
vn 0.0594 -0.3876 0.9199
vn 0.0471 0.3822 0.9229
vn 0.0395 0.8797 0.4739
vn 0.0204 0.4576 -0.8889
vn -0.1499 0.8252 -0.5445
vn -0.1110 -0.0234 -0.9935
vn -0.0798 -0.9729 0.2170
vn -0.1046 -0.2667 0.9581
vn -0.0671 0.4436 0.8937
vn -0.1224 0.9352 0.3322
vn 0.0541 0.4492 -0.8918
vn -0.0883 0.8004 -0.5929
vn -0.0073 -0.2053 -0.9787
vn 0.0157 -0.8238 -0.5666
vn -0.0058 -0.9157 -0.4018
vn -0.1161 -0.9457 0.3037
vn -0.1553 -0.1580 0.9751
vn -0.1052 0.2834 0.9532
vn -0.0949 0.5694 0.8166
vn -0.0771 0.9870 0.1413
vn 0.1992 0.4390 -0.8761
vn 0.0821 0.7908 -0.6066
vn 0.1824 -0.4165 -0.8906
vn -0.0367 -0.8455 0.5327
vn -0.0949 -0.0219 0.9952
vn 0.2043 0.4137 -0.8872
vn 0.0747 -0.8251 -0.5601
vn -0.1872 0.0466 0.9812
vn -0.2373 0.2571 0.9368
vn -0.0764 0.6704 0.7381
vn 0.0562 0.9981 -0.0234
vn -0.0111 0.8343 -0.5511
vn 0.1340 -0.5257 -0.8401
vn 0.1281 -0.7920 -0.5970
vn 0.1515 -0.9494 -0.2751
vn -0.2105 -0.7847 0.5830
vn -0.2005 0.7378 0.6446
vn -0.1320 0.9905 -0.0396
vn 0.0627 0.3813 -0.9223
vn -0.0010 -0.9569 -0.2903
vn -0.4489 -0.7345 0.5089
vn -0.4158 0.2328 0.8792
vn -0.4142 0.7365 0.5348
vn -0.2400 0.9623 -0.1283
vn 0.0690 0.2844 -0.9562
vn -0.1895 0.8864 -0.4224
vn 0.1536 -0.6945 -0.7029
vn -0.0870 -0.9147 -0.3946
vn -0.5803 -0.6695 0.4637
vn -0.5888 0.2004 0.7830
vn -0.1965 0.9358 -0.2928
vn 0.1030 -0.5260 -0.8442
vn -0.6390 -0.6701 0.3778
vn -0.6495 0.1274 0.7496
vn -0.5024 0.7614 0.4097
vn -0.2554 0.9666 -0.0237
vn 0.3767 0.0401 -0.9255
vn 0.3115 -0.4764 -0.8222
vn 0.0352 -0.9458 -0.3227
vn -0.6369 -0.4087 0.6537
vn -0.0922 0.9885 -0.1198
vn 0.4902 -0.4471 -0.7482
vn -0.7288 0.1185 0.6743
vn -0.5055 0.7401 0.4436
vn 0.5754 0.1813 -0.7975
vn 0.1721 -0.9316 -0.3201
vn -0.6333 -0.5583 0.5359
vn -0.5872 0.7640 0.2674
vn 0.6166 -0.4028 -0.6764
vn -0.8584 0.0438 0.5112
vn 0.6206 0.2926 -0.7275
vn -0.1247 0.9812 -0.1476
vn 0.7139 -0.4513 -0.5355
vn -0.6231 -0.7438 0.2419
vn -0.7335 0.6604 0.1609
vn 0.3752 0.7516 -0.5425
vn -0.9603 -0.1393 0.2419
vn 0.1788 0.1915 -0.9651
vn 0.4786 -0.5438 0.6893
vn -0.5934 -0.3665 -0.7166
vn 0.2620 0.2908 -0.9202
vn -0.4289 -0.7693 0.4735
vn 0.5004 -0.3833 0.7763
vn 0.9369 0.3476 0.0373
vn -0.6283 -0.1902 -0.7544
vn 0.1447 0.4852 -0.8623
vn -0.4847 -0.8194 0.3060
vn 0.2875 -0.1706 0.9424
vn 0.9072 0.1952 0.3726
vn 0.3857 0.2308 -0.8933
vn 0.8791 0.4459 -0.1682
vn -0.4067 -0.2770 -0.8706
vn -0.0283 -0.5705 0.8208
vn 0.5096 -0.3369 0.7917
vn -0.2256 0.1123 -0.9677
vn -0.4926 -0.3121 -0.8124
vn -0.5934 -0.7987 0.1004
vn 0.2872 -0.2418 0.9269
vn 0.7464 0.1074 0.6568
vn 0.1167 0.5698 -0.8134
vn 0.7707 0.6291 -0.1015
vn -0.6081 -0.0875 -0.7890
vn -0.7928 -0.6018 0.0964
vn -0.1269 -0.5752 0.8081
vn -0.1228 0.6873 -0.7159
vn 0.4388 0.8901 0.1231
vn -0.4466 0.3043 -0.8414
vn -0.7247 -0.0571 -0.6867
vn -0.8766 -0.4167 0.2408
vn -0.2142 -0.4186 0.8825
vn 0.1448 -0.0028 0.9895
vn 0.4175 0.3835 0.8238
vn -0.4579 0.1103 -0.8822
vn 0.1688 0.9107 -0.3770
vn -0.9608 0.1008 -0.2581
vn 0.0858 -0.2677 0.9597
vn 0.2566 0.1312 0.9576
vn 0.4525 0.5526 0.6999
vn -0.1934 0.1647 -0.9672
vn -0.4637 -0.2198 -0.8583
vn -0.6735 -0.6119 -0.4146
vn -0.0472 -0.9664 0.2526
vn 0.5031 -0.2263 0.8341
vn 0.5237 0.3165 0.7909
vn 0.5473 0.6839 0.4825
vn -0.2936 0.0346 -0.9553
vn -0.0464 0.8795 -0.4737
vn -0.6777 -0.2522 -0.6907
vn -0.0316 -0.7979 0.6020
vn 0.3377 -0.0256 0.9409
vn 0.1643 0.8611 0.4811
vn -0.5112 -0.0241 -0.8591
vn -0.2414 0.9441 0.2245
vn -0.4554 -0.5951 -0.6621
vn -0.3629 -0.8894 -0.2779
vn -0.2647 -0.6985 0.6648
vn 0.2633 0.5908 0.7626
vn -0.7805 0.1160 -0.6143
vn -0.6181 0.7830 -0.0699
vn -0.4855 -0.8368 -0.2531
vn -0.3720 -0.4799 0.7945
vn -0.1247 0.4614 0.8784
vn -0.6181 -0.1937 -0.7619
vn -0.6754 0.7037 0.2205
vn 0.2026 -0.2455 0.9480
vn -0.3920 -0.6570 0.6439
vn 0.5284 -0.5311 0.6624
vn -0.0887 -0.1685 -0.9817
vn 0.6971 0.3671 -0.6159
vn -0.2476 -0.2373 -0.9393
vn -0.4328 -0.8771 -0.2083
vn -0.0882 -0.5760 0.8127
vn 0.7277 0.0413 0.6847
vn 0.6465 0.3490 -0.6784
vn 0.6522 0.2022 0.7306
vn 0.0530 -0.2971 0.9534
vn 0.6192 0.2754 -0.7354
vn 0.9826 0.1753 0.0611
vn -0.1560 -0.3748 -0.9139
vn -0.5193 -0.8397 -0.1590
vn -0.2609 -0.6691 0.6959
vn 0.0239 -0.1828 0.9829
vn 0.5055 -0.0141 0.8627
vn 0.4160 0.4191 -0.8070
vn 0.7839 0.5914 0.1892
vn 0.0348 0.1482 -0.9883
vn -0.4171 -0.0797 -0.9053
vn -0.7549 -0.6515 -0.0753
vn -0.3404 -0.5730 0.7455
vn 0.3498 0.2189 0.9109
vn 0.0022 0.2946 -0.9556
vn 0.4702 0.8791 0.0778
vn -0.1980 0.1435 -0.9696
vn -0.6390 0.0195 -0.7689
vn -0.8730 -0.4826 0.0713
vn -0.3486 -0.3521 0.8686
vn -0.0426 0.0731 0.9964
vn 0.3873 0.9035 -0.1835
vn -0.3431 0.0101 -0.9392
vn -0.7170 -0.2845 -0.6363
vn -0.7420 -0.6284 0.2334
vn -0.1347 -0.2347 0.9627
vn 0.1811 0.2047 0.9619
vn 0.3015 0.6175 0.7265
vn 0.2605 0.8169 -0.5146
vn -0.3046 -0.2923 -0.9066
vn -0.6120 -0.5903 -0.5262
vn -0.3787 -0.7957 0.4726
vn 0.1792 -0.0549 0.9823
vn 0.3902 0.4500 0.8033
vn 0.4666 0.7525 0.4648
vn 0.1888 -0.1168 -0.9750
vn 0.2855 0.7568 -0.5880
vn -0.1898 -0.5644 -0.8034
vn -0.2946 -0.8798 -0.3732
vn -0.0526 -0.8120 0.5813
vn 0.2242 0.0366 0.9738
vn 0.3805 0.8379 0.3912
vn -0.2570 0.0868 -0.9625
vn -0.5054 0.3232 -0.8001
vn -0.3540 -0.4960 -0.7929
vn -0.4906 -0.5749 0.6548
vn -0.1507 0.0628 0.9866
vn 0.1012 0.5510 0.8283
vn 0.2208 0.9029 0.3688
vn -0.3996 -0.4062 -0.8218
vn -0.3140 -0.7096 -0.6307
vn -0.5241 -0.7411 0.4196
vn -0.2380 0.3755 0.8957
vn -0.2301 0.8172 0.5284
vn -0.2794 0.8894 -0.3619
vn -0.4438 0.0567 -0.8943
vn -0.4843 0.8709 -0.0835
vn -0.3736 -0.4903 0.7874
vn -0.3062 0.2767 0.9109
vn -0.2685 -0.0891 -0.9592
vn -0.8201 0.5084 0.2625
vn -0.1532 -0.8051 -0.5730
vn 0.1199 -0.5517 0.8253
vn -0.6924 -0.3762 0.6156
vn -0.1979 -0.9744 -0.1063
vn 0.3854 -0.1362 0.9126
vn -0.4382 -0.4017 0.8041
vn 0.8266 0.1667 -0.5376
vn 0.8502 0.2085 0.4833
vn 0.7563 0.0146 -0.6541
vn 0.4624 0.0725 -0.8837
vn 0.2309 -0.3034 -0.9245
vn -0.5300 -0.7983 -0.2859
vn -0.5592 -0.6475 0.5178
vn -0.3562 -0.3145 0.8799
vn 0.1208 0.0234 0.9924
vn 0.7366 0.2826 -0.6145
vn 0.8183 0.4577 0.3476
vn -0.1748 -0.1361 -0.9752
vn -0.6752 -0.6727 -0.3028
vn -0.4789 -0.5649 0.6719
vn -0.2934 -0.1381 0.9460
vn 0.5609 0.2612 -0.7856
vn 0.6481 0.7379 0.1884
vn 0.2076 -0.0074 -0.9782
vn -0.2842 -0.2247 -0.9321
vn -0.7865 -0.6048 -0.1251
vn -0.5679 -0.3138 0.7610
vn -0.2408 0.1262 0.9623
vn 0.0648 0.4884 0.8702
vn 0.3715 0.1236 -0.9202
vn 0.3785 0.9256 -0.0029
vn 0.0648 -0.3738 -0.9252
vn -0.5236 -0.2220 -0.8225
vn -0.8201 -0.5675 0.0735
vn -0.5192 -0.0760 0.8513
vn -0.1438 0.3249 0.9348
vn 0.7332 0.6062 -0.3082
vn -0.3171 -0.6957 -0.6445
vn -0.2570 0.0439 0.9654
vn 0.3908 0.6917 0.6073
vn 0.3843 0.0841 -0.9194
vn 0.5882 0.7485 -0.3063
vn 0.0412 -0.8331 -0.5515
vn -0.5902 -0.7320 0.3403
vn -0.1287 0.4017 0.9067
vn 0.1432 -0.4011 -0.9048
vn -0.6475 -0.0451 0.7607
vn 0.0303 0.8625 0.5052
vn 0.0503 0.3498 -0.9355
vn -0.0027 0.9659 -0.2590
vn -0.0884 -0.6399 -0.7634
vn -0.0319 -0.6646 -0.7465
vn -0.7340 -0.6733 -0.0891
vn -0.5728 0.3240 0.7530
vn -0.3230 0.7771 0.5402
vn -0.1678 0.4699 -0.8666
vn -0.5204 0.8294 -0.2033
vn -0.7233 -0.6807 0.1157
vn -0.7326 0.0049 0.6806
vn 0.1664 0.2359 -0.9574
vn -0.6323 0.7538 -0.1787
vn 0.2611 -0.5060 -0.8221
vn -0.1101 -0.7393 0.6643
vn 0.2714 0.0029 -0.9625
vn 0.3883 -0.6488 -0.6544
vn -0.9393 0.2329 0.2519
vn -0.5875 0.3524 -0.7284
vn 0.0951 -0.9189 0.3829
vn -0.8858 0.3831 0.2621
vt 0.512465 0.180000
vt 0.757768 0.227368
vt 1.000442 0.227149
vt 0.345491 0.227368
vt 0.023189 0.227368
vt 0.095491 0.227368
vt 0.654508 0.227368
vt 0.904508 0.227368
vt 0.654508 0.314628
vt 0.345491 0.309491
vt 0.095491 0.274737
vt 0.000000 0.274737
vt 0.345491 0.274737
vt 0.654508 0.305162
vt 0.904508 0.311784
vt 1.001387 0.274049
vt 0.095491 0.348049
vt 0.000000 0.322105
vt 0.095491 0.322105
vt 0.345491 0.322105
vt 1.000000 0.322105
vt 0.919843 0.369474
vt 0.654508 0.390436
vt 0.345491 0.369474
vt 0.000000 0.376298
vt 0.095491 0.375756
vt 0.654508 0.398535
vt 0.904508 0.381868
vt 0.914494 0.416842
vt 0.345491 0.416842
vt 0.095491 0.416842
vt 0.654508 0.464211
vt 0.923818 0.464211
vt 0.345491 0.464211
vt 0.095491 0.464211
vt 0.000000 0.464211
vt 0.904508 0.464211
vt 0.654509 0.517217
vt 0.938615 0.511579
vt 0.345491 0.511579
vt 0.095491 0.511579
vt 0.000000 0.520333
vt 0.095491 0.523533
vt 0.654508 0.511579
vt 0.904508 0.511579
vt 0.904508 0.558947
vt 1.000000 0.558947
vt 0.345491 0.558947
vt 0.095491 0.558947
vt 0.345491 0.588505
vt 0.654508 0.600156
vt 0.904508 0.583171
vt 0.904508 0.606316
vt 1.000000 0.606316
vt 0.654508 0.606316
vt 0.345491 0.637984
vt 0.095491 0.606316
vt 0.000000 0.606316
vt 0.904508 0.653684
vt 0.999049 0.653684
vt 0.654508 0.653684
vt 0.095491 0.669732
vt 0.000000 0.663293
vt 0.095491 0.653684
vt 0.345491 0.653684
vt 0.904508 0.701053
vt 0.994082 0.719465
vt 0.654508 0.701053
vt 0.345491 0.701053
vt 0.095491 0.701053
vt 0.904508 0.759901
vt 0.654508 0.748421
vt 0.345491 0.748421
vt 0.095491 0.782602
vt 0.000000 0.779989
vt 0.095491 0.748421
vt 0.978969 0.785357
vt 0.654508 0.795789
vt 0.345491 0.795789
vt 0.095491 0.811658
vt 0.904508 0.795789
vt 0.904508 0.843158
vt 1.000000 0.843158
vt 0.654508 0.871369
vt 0.345491 0.843158
vt 0.095491 0.843158
vt 0.000000 0.843158
vt 0.654508 0.843158
vt 0.904508 0.882664
vt 0.904508 0.890526
vt 1.000000 0.890526
vt 0.345491 0.890526
vt 0.095491 0.890526
vt 0.000000 0.890526
vt 0.654508 0.890526
vt 0.904508 0.937895
vt 1.000000 0.937895
vt 0.654508 0.937895
vt 0.345491 0.937895
vt 0.095491 0.937895
vt 0.000000 0.937895
vt 0.907255 0.937895
vt 0.904508 0.985263
vt 1.000000 0.985263
vt 0.654508 0.985263
vt 0.345491 0.985263
vt 0.095491 1.020843
vt 0.000000 0.985263
vt 0.095491 0.985263
vt 0.654508 1.010813
vt 0.904508 1.015682
vt 0.904508 1.032632
vt 1.000000 1.032632
vt 0.654508 1.032632
vt 0.345491 1.032632
vt 0.000000 1.032632
vt 0.095491 1.032632
vt 0.904508 1.080000
vt 1.000000 1.103064
vt 0.654508 1.087161
vt 0.345492 1.098518
vt 0.095491 1.080000
vt 0.000000 1.080000
vt 0.095491 1.093841
vt 0.345491 1.098337
vt 0.654508 1.082381
vt 0.904508 1.143266
vt 0.095491 1.155152
vt 0.000000 1.127368
vt 0.904508 1.127368
vt 1.000000 1.174737
vt 0.654508 1.174737
vt 0.345491 1.174737
vt 0.000000 1.174737
vt 0.095491 1.174737
vt 0.638927 1.174737
vt 0.904508 1.174737
vt 0.904508 1.222105
vt 1.000000 1.222105
vt 0.654508 1.222105
vt 0.345491 1.231857
vt 0.095491 1.227459
vt 0.000000 1.222105
vt 0.095491 1.222105
vt 0.655532 1.222105
vt 0.904508 1.269474
vt 1.000000 1.269474
vt 0.654508 1.269474
vt 0.000000 1.269474
vt 0.095491 1.269474
vt 0.652201 1.269474
vt 0.904508 1.316842
vt 1.000000 1.316842
vt 0.654508 1.316842
vt 0.345491 1.350737
vt 0.095491 1.342260
vt 0.000000 1.316842
vt 0.095491 1.316842
vt 0.345491 1.342847
vt 0.654508 1.341611
vt 0.904508 1.334543
vt 0.904508 1.364210
vt 1.000000 1.375920
vt 0.654508 1.384626
vt 0.000000 1.393645
vt 0.095491 1.364210
vt 0.904508 1.451948
vt 0.343566 1.411579
vt 0.095491 1.436749
vt 0.345491 1.449344
vt 0.654508 1.411579
vt 0.904508 1.411579
vt 1.000000 1.500973
vt 0.654508 1.479564
vt 0.345491 1.471770
vt 0.095491 1.458947
vt 0.000000 1.458947
vt 0.654508 1.458947
vt 0.904508 1.458947
vt 0.904508 1.506316
vt 0.095491 1.506316
vt 0.000000 1.506316
vt 0.348082 1.506316
vt 0.654508 1.519764
vt 0.904508 1.585665
vt 0.980730 1.553684
vt 0.345491 1.589596
vt 0.095491 1.565359
vt 0.000000 1.553684
vt 0.336504 1.553684
vt 1.000000 1.622015
vt 0.654508 1.601053
vt 0.000000 1.601053
vt 0.383591 1.624135
vt 0.654508 1.638511
vt 0.904508 1.635421
vt 0.904508 1.668169
vt 0.598397 1.648421
vt 0.095491 1.661305
vt 0.068864 1.655986
vt 1.000000 1.748477
vt 0.539025 1.709936
vt 0.345491 1.736093
vt 0.654508 1.722635
vt 0.904508 1.769270
vt 0.095491 1.764477
vt 0.072747 1.771618
vt 0.735510 1.789768
vt 0.484059 1.799649
vt 0.345491 1.808094
vt 0.847762 1.837895
vt 1.000000 1.863089
vt 0.275809 1.897258
vt 0.074317 1.858198
vt 0.894054 1.883951
vt 0.881850 1.908297
vt 0.579565 1.914421
vt 0.457589 1.979937
vt 0.522586 0.180000
vt 0.500000 0.237143
vt 0.966284 0.237143
vt 0.003628 0.237143
vt 0.161121 0.237143
vt 0.853553 0.237143
vt 0.428886 0.294286
vt 0.873990 0.294286
vt 0.000000 0.311499
vt 0.286261 0.294286
vt 0.853553 0.312813
vt 0.853553 0.402310
vt 1.000000 0.401825
vt 0.306253 0.351429
vt 0.146447 0.371483
vt 0.500000 0.351429
vt 0.500000 0.411801
vt 0.146447 0.408571
vt 0.000000 0.408571
vt 0.500000 0.437490
vt 0.853553 0.419010
vt 0.853553 0.465714
vt 1.000000 0.465714
vt 0.146447 0.465714
vt 0.000000 0.465714
vt 0.853553 0.522857
vt 1.000000 0.522857
vt 0.500000 0.522857
vt 0.146447 0.522857
vt 0.000000 0.522857
vt 0.520788 0.580000
vt 1.000000 0.635690
vt 0.147056 0.580000
vt 0.146447 0.580000
vt 0.500000 0.580000
vt 0.853553 0.580000
vt 0.853553 0.637143
vt 0.500000 0.637143
vt 0.146447 0.637143
vt 0.000000 0.637143
vt 0.500000 0.651957
vt 0.853553 0.694286
vt 1.000000 0.694286
vt 0.516056 0.694286
vt 0.000000 0.694286
vt 0.146447 0.694286
vt 0.853553 0.751429
vt 0.865031 0.751429
vt 0.500000 0.751429
vt 0.146447 0.751429
vt 0.000000 0.751429
vt 0.486004 0.751429
vt 0.853553 0.808571
vt 0.982971 0.808571
vt 0.148186 0.828888
vt 0.009429 0.808571
vt 0.511898 0.835642
vt 0.766965 0.865714
vt 0.968122 0.905866
vt 0.131281 0.872945
vt 0.400943 0.979588
vt 0.512532 0.270051
vt 0.500000 0.327143
vt 0.867289 0.327143
vt 0.146447 0.381415
vt 0.000000 0.354694
vt 0.146447 0.327143
vt 0.853553 0.327143
vt 0.795365 0.384286
vt 0.872866 0.384286
vt 0.496241 0.384286
vt 0.842249 0.441429
vt 1.000000 0.441429
vt 0.146447 0.441429
vt 0.000000 0.441429
vt 0.500000 0.499547
vt 0.853553 0.441429
vt 0.853553 0.498571
vt 1.000000 0.498571
vt 0.500000 0.498571
vt 0.146447 0.498571
vt 0.000000 0.498571
vt 0.853553 0.500003
vt 0.853553 0.603780
vt 1.000000 0.555714
vt 0.500000 0.555714
vt 0.146447 0.555714
vt 0.000000 0.555714
vt 1.000000 0.612857
vt 0.500000 0.612857
vt 0.146447 0.612857
vt 0.000000 0.612857
vt 0.853553 0.612857
vt 0.998737 0.670000
vt 0.500000 0.670000
vt 0.146447 0.670000
vt 0.000000 0.670000
vt 0.500000 0.698050
vt 0.853553 0.670000
vt 0.853553 0.727143
vt 1.000000 0.727143
vt 0.500000 0.727143
vt 0.146447 0.769881
vt 0.000000 0.727143
vt 0.146447 0.727143
vt 0.853553 0.784286
vt 0.855753 0.840570
vt 0.500000 0.784286
vt 0.000000 0.784286
vt 0.146447 0.784286
vt 0.500000 0.841429
vt 0.146447 0.850436
vt 0.019494 0.841429
vt 0.500000 0.847390
vt 0.853553 0.841429
vt 1.000000 0.841429
vt 0.817294 0.898571
vt 1.000000 0.898571
vt 0.104871 0.898571
vt 0.707476 0.951594
vt 0.526874 0.957584
vt 0.849430 1.013689
vt 0.133446 0.955714
vt 0.146447 0.957426
vt 0.538016 1.069942
vt 0.527900 0.360079
vt 0.880680 0.417143
vt 0.461453 0.417143
vt 0.853553 0.474286
vt 1.000000 0.474286
vt 0.393589 0.417143
vt 0.500000 0.519393
vt 0.146447 0.474286
vt 0.000000 0.474286
vt 0.519957 0.477511
vt 0.853553 0.531429
vt 1.000000 0.531429
vt 0.146447 0.531429
vt 0.000000 0.531429
vt 0.500000 0.531429
vt 0.853553 0.588571
vt 1.000000 0.588571
vt 0.500000 0.588571
vt 0.146447 0.588571
vt 0.000000 0.588571
vt 0.853553 0.592347
vt 0.853553 0.654982
vt 1.000000 0.645714
vt 0.500000 0.698558
vt 0.146447 0.645714
vt 0.000000 0.658985
vt 0.500000 0.652570
vt 1.000000 0.702857
vt 0.146447 0.702857
vt 0.146447 0.736894
vt 0.853553 0.754014
vt 0.853553 0.790723
vt 1.000000 0.775404
vt 0.146447 0.806021
vt 0.000000 0.791308
vt 0.500000 0.792249
vt 0.500000 0.817143
vt 0.146447 0.841010
vt 0.853553 0.817143
vt 0.853553 0.874286
vt 1.000000 0.874286
vt 0.153951 0.930216
vt 0.146447 0.874286
vt 0.000000 0.874286
vt 0.500000 0.874286
vt 0.843942 0.931429
vt 0.998550 0.931429
vt 0.049966 0.931429
vt 0.500000 0.935637
vt 0.623889 0.988571
vt 0.974354 1.001433
vt 0.131182 0.988571
vt 0.146447 1.001563
vt 0.460548 1.077435
vt 0.089601 1.045714
vt 0.851069 1.072191
vt 0.931548 1.102857
vt 0.327832 1.102857
vt 0.551380 1.160000
s 1
f 1/1/1 3/2/2 2/3/3
f 1/1/1 4/4/4 3/2/2
f 1/1/1 5/5/5 4/4/4
f 1/1/1 6/6/6 5/5/5
f 1/1/1 7/4/7 6/6/6
f 1/1/1 8/7/8 7/4/7
f 1/1/1 9/8/9 8/7/8
f 1/1/1 2/3/3 9/8/9
f 3/2/2 11/9/10 2/3/3
f 3/2/2 4/4/4 12/10/11
f 3/2/2 12/10/11 11/9/10
f 4/4/4 5/5/5 13/11/12
f 4/4/4 13/11/12 12/10/11
f 5/5/5 14/12/13 13/11/12
f 5/5/5 6/6/6 15/11/14
f 5/5/5 15/11/14 14/12/13
f 6/6/6 7/4/7 16/13/15
f 6/6/6 16/13/15 15/11/14
f 7/4/7 8/7/8 17/14/16
f 7/4/7 17/14/16 16/13/15
f 8/7/8 9/8/9 18/15/17
f 8/7/8 18/15/17 17/14/16
f 9/8/9 2/3/3 10/16/18
f 9/8/9 10/16/18 18/15/17
f 2/3/3 11/9/10 10/16/18
f 12/10/11 13/11/12 20/17/19
f 13/11/12 14/12/13 21/18/20
f 13/11/12 21/18/20 20/17/19
f 14/12/13 15/11/14 22/19/21
f 14/12/13 22/19/21 21/18/20
f 15/11/14 16/13/15 23/20/22
f 15/11/14 23/20/22 22/19/21
f 16/13/15 17/14/16 23/20/22
f 18/15/17 10/16/18 19/21/23
f 19/21/23 10/16/18 24/22/24
f 10/16/18 11/9/10 25/23/25
f 10/16/18 25/23/25 24/22/24
f 11/9/10 12/10/11 26/24/26
f 11/9/10 26/24/26 25/23/25
f 12/10/11 20/17/19 26/24/26
f 20/17/19 21/18/20 27/25/27
f 21/18/20 22/19/21 28/26/28
f 21/18/20 28/26/28 27/25/27
f 22/19/21 23/20/22 29/24/29
f 22/19/21 29/24/29 28/26/28
f 23/20/22 17/14/16 30/27/30
f 23/20/22 30/27/30 29/24/29
f 17/14/16 18/15/17 31/28/31
f 17/14/16 31/28/31 30/27/30
f 18/15/17 19/21/23 24/22/24
f 18/15/17 24/22/24 31/28/31
f 24/22/24 25/23/25 32/29/32
f 25/23/25 26/24/26 33/30/33
f 26/24/26 20/17/19 34/31/34
f 26/24/26 34/31/34 33/30/33
f 20/17/19 27/25/27 34/31/34
f 28/26/28 29/24/29 35/30/35
f 29/24/29 30/27/30 35/30/35
f 31/28/31 24/22/24 32/29/32
f 32/29/32 25/23/25 37/32/36
f 32/29/32 37/32/36 36/33/37
f 25/23/25 33/30/33 38/34/38
f 25/23/25 38/34/38 37/32/36
f 33/30/33 34/31/34 39/35/39
f 33/30/33 39/35/39 38/34/38
f 34/31/34 27/25/27 40/36/40
f 34/31/34 40/36/40 39/35/39
f 27/25/27 28/26/28 41/35/41
f 27/25/27 41/35/41 40/36/40
f 28/26/28 35/30/35 42/34/42
f 28/26/28 42/34/42 41/35/41
f 35/30/35 30/27/30 43/32/43
f 35/30/35 43/32/43 42/34/42
f 30/27/30 31/28/31 44/37/44
f 30/27/30 44/37/44 43/32/43
f 31/28/31 32/29/32 36/33/37
f 31/28/31 36/33/37 44/37/44
f 36/33/37 37/32/36 46/38/45
f 36/33/37 46/38/45 45/39/46
f 37/32/36 38/34/38 47/40/47
f 37/32/36 47/40/47 46/38/45
f 38/34/38 39/35/39 48/41/48
f 38/34/38 48/41/48 47/40/47
f 39/35/39 40/36/40 49/42/49
f 39/35/39 49/42/49 48/41/48
f 40/36/40 41/35/41 50/43/50
f 40/36/40 50/43/50 49/42/49
f 41/35/41 42/34/42 51/40/51
f 41/35/41 51/40/51 50/43/50
f 42/34/42 43/32/43 52/44/52
f 42/34/42 52/44/52 51/40/51
f 43/32/43 44/37/44 53/45/53
f 43/32/43 53/45/53 52/44/52
f 44/37/44 36/33/37 45/39/46
f 44/37/44 45/39/46 53/45/53
f 45/39/46 55/46/54 54/47/55
f 45/39/46 46/38/45 55/46/54
f 46/38/45 47/40/47 56/48/56
f 47/40/47 48/41/48 57/49/57
f 47/40/47 57/49/57 56/48/56
f 48/41/48 49/42/49 57/49/57
f 50/43/50 51/40/51 58/50/58
f 51/40/51 52/44/52 59/51/59
f 51/40/51 59/51/59 58/50/58
f 52/44/52 53/45/53 60/52/60
f 52/44/52 60/52/60 59/51/59
f 53/45/53 45/39/46 54/47/55
f 53/45/53 54/47/55 60/52/60
f 54/47/55 55/46/54 62/53/61
f 54/47/55 62/53/61 61/54/62
f 55/46/54 46/38/45 63/55/63
f 55/46/54 63/55/63 62/53/61
f 46/38/45 56/48/56 64/56/64
f 46/38/45 64/56/64 63/55/63
f 56/48/56 57/49/57 65/57/65
f 56/48/56 65/57/65 64/56/64
f 57/49/57 49/42/49 66/58/66
f 57/49/57 66/58/66 65/57/65
f 49/42/49 50/43/50 67/57/67
f 49/42/49 67/57/67 66/58/66
f 50/43/50 58/50/58 67/57/67
f 60/52/60 54/47/55 61/54/62
f 61/54/62 62/53/61 69/59/68
f 61/54/62 69/59/68 68/60/69
f 62/53/61 63/55/63 70/61/70
f 62/53/61 70/61/70 69/59/68
f 63/55/63 64/56/64 70/61/70
f 64/56/64 65/57/65 71/62/71
f 65/57/65 66/58/66 72/63/72
f 65/57/65 72/63/72 71/62/71
f 66/58/66 67/57/67 73/64/73
f 66/58/66 73/64/73 72/63/72
f 67/57/67 58/50/58 74/65/74
f 67/57/67 74/65/74 73/64/73
f 58/50/58 59/51/59 75/61/75
f 58/50/58 75/61/75 74/65/74
f 59/51/59 60/52/60 68/60/69
f 59/51/59 68/60/69 75/61/75
f 60/52/60 61/54/62 68/60/69
f 68/60/69 69/59/68 77/66/76
f 68/60/69 77/66/76 76/67/77
f 69/59/68 70/61/70 78/68/78
f 69/59/68 78/68/78 77/66/76
f 70/61/70 64/56/64 79/69/79
f 70/61/70 79/69/79 78/68/78
f 64/56/64 71/62/71 79/69/79
f 72/63/72 73/64/73 80/70/80
f 73/64/73 74/65/74 81/69/81
f 73/64/73 81/69/81 80/70/80
f 74/65/74 75/61/75 82/68/82
f 74/65/74 82/68/82 81/69/81
f 75/61/75 68/60/69 76/67/77
f 75/61/75 76/67/77 82/68/82
f 76/67/77 77/66/76 83/71/83
f 77/66/76 78/68/78 84/72/84
f 77/66/76 84/72/84 83/71/83
f 78/68/78 79/69/79 85/73/85
f 78/68/78 85/73/85 84/72/84
f 79/69/79 71/62/71 86/74/86
f 79/69/79 86/74/86 85/73/85
f 71/62/71 72/63/72 87/75/87
f 71/62/71 87/75/87 86/74/86
f 72/63/72 80/70/80 88/76/88
f 72/63/72 88/76/88 87/75/87
f 80/70/80 81/69/81 89/73/89
f 80/70/80 89/73/89 88/76/88
f 81/69/81 82/68/82 90/72/90
f 81/69/81 90/72/90 89/73/89
f 82/68/82 76/67/77 91/77/91
f 82/68/82 91/77/91 90/72/90
f 76/67/77 83/71/83 91/77/91
f 83/71/83 84/72/84 92/78/92
f 84/72/84 85/73/85 93/79/93
f 84/72/84 93/79/93 92/78/92
f 85/73/85 86/74/86 93/79/93
f 87/75/87 88/76/88 94/80/94
f 88/76/88 89/73/89 95/79/95
f 88/76/88 95/79/95 94/80/94
f 89/73/89 90/72/90 96/78/96
f 89/73/89 96/78/96 95/79/95
f 90/72/90 91/77/91 97/81/97
f 90/72/90 97/81/97 96/78/96
f 91/77/91 83/71/83 99/82/98
f 91/77/91 99/82/98 98/83/99
f 83/71/83 92/78/92 100/84/100
f 83/71/83 100/84/100 99/82/98
f 92/78/92 93/79/93 101/85/101
f 92/78/92 101/85/101 100/84/100
f 93/79/93 86/74/86 102/86/102
f 93/79/93 102/86/102 101/85/101
f 86/74/86 87/75/87 103/87/103
f 86/74/86 103/87/103 102/86/102
f 87/75/87 94/80/94 103/87/103
f 94/80/94 95/79/95 104/85/104
f 95/79/95 96/78/96 105/88/105
f 95/79/95 105/88/105 104/85/104
f 96/78/96 97/81/97 106/89/106
f 96/78/96 106/89/106 105/88/105
f 97/81/97 91/77/91 98/83/99
f 97/81/97 98/83/99 106/89/106
f 98/83/99 99/82/98 108/90/107
f 98/83/99 108/90/107 107/91/108
f 99/82/98 100/84/100 108/90/107
f 100/84/100 101/85/101 109/92/109
f 101/85/101 102/86/102 110/93/110
f 101/85/101 110/93/110 109/92/109
f 102/86/102 103/87/103 111/94/111
f 102/86/102 111/94/111 110/93/110
f 103/87/103 94/80/94 112/93/112
f 103/87/103 112/93/112 111/94/111
f 94/80/94 104/85/104 113/92/113
f 94/80/94 113/92/113 112/93/112
f 104/85/104 105/88/105 114/95/114
f 104/85/104 114/95/114 113/92/113
f 105/88/105 106/89/106 114/95/114
f 106/89/106 98/83/99 107/91/108
f 107/91/108 108/90/107 116/96/115
f 107/91/108 116/96/115 115/97/116
f 108/90/107 100/84/100 117/98/117
f 108/90/107 117/98/117 116/96/115
f 100/84/100 109/92/109 118/99/118
f 100/84/100 118/99/118 117/98/117
f 109/92/109 110/93/110 119/100/119
f 109/92/109 119/100/119 118/99/118
f 110/93/110 111/94/111 120/101/120
f 110/93/110 120/101/120 119/100/119
f 111/94/111 112/93/112 121/100/121
f 111/94/111 121/100/121 120/101/120
f 112/93/112 113/92/113 122/99/122
f 112/93/112 122/99/122 121/100/121
f 113/92/113 114/95/114 123/102/123
f 113/92/113 123/102/123 122/99/122
f 114/95/114 106/89/106 123/102/123
f 106/89/106 107/91/108 115/97/116
f 106/89/106 115/97/116 123/102/123
f 115/97/116 116/96/115 125/103/124
f 115/97/116 125/103/124 124/104/125
f 116/96/115 117/98/117 126/105/126
f 116/96/115 126/105/126 125/103/124
f 117/98/117 118/99/118 127/106/127
f 117/98/117 127/106/127 126/105/126
f 118/99/118 119/100/119 128/107/128
f 118/99/118 128/107/128 127/106/127
f 119/100/119 120/101/120 129/108/129
f 119/100/119 129/108/129 128/107/128
f 120/101/120 121/100/121 130/109/130
f 120/101/120 130/109/130 129/108/129
f 121/100/121 122/99/122 131/106/131
f 121/100/121 131/106/131 130/109/130
f 122/99/122 123/102/123 132/110/132
f 122/99/122 132/110/132 131/106/131
f 123/102/123 133/111/133 132/110/132
f 123/102/123 115/97/116 124/104/125
f 123/102/123 124/104/125 133/111/133
f 124/104/125 125/103/124 135/112/134
f 124/104/125 135/112/134 134/113/135
f 125/103/124 126/105/126 136/114/136
f 125/103/124 136/114/136 135/112/134
f 126/105/126 127/106/127 137/115/137
f 126/105/126 137/115/137 136/114/136
f 127/106/127 128/107/128 137/115/137
f 128/107/128 129/108/129 138/116/138
f 129/108/129 130/109/130 139/117/139
f 129/108/129 139/117/139 138/116/138
f 130/109/130 131/106/131 140/115/140
f 130/109/130 140/115/140 139/117/139
f 131/106/131 132/110/132 140/115/140
f 133/111/133 124/104/125 134/113/135
f 134/113/135 135/112/134 142/118/141
f 134/113/135 142/118/141 141/119/142
f 135/112/134 136/114/136 143/120/143
f 135/112/134 143/120/143 142/118/141
f 136/114/136 137/115/137 144/121/144
f 136/114/136 144/121/144 143/120/143
f 137/115/137 128/107/128 145/122/145
f 137/115/137 145/122/145 144/121/144
f 128/107/128 138/116/138 146/123/146
f 128/107/128 146/123/146 145/122/145
f 138/116/138 139/117/139 147/124/147
f 138/116/138 147/124/147 146/123/146
f 139/117/139 140/115/140 148/125/148
f 139/117/139 148/125/148 147/124/147
f 140/115/140 132/110/132 149/126/149
f 140/115/140 149/126/149 148/125/148
f 132/110/132 133/111/133 150/118/150
f 132/110/132 150/118/150 149/126/149
f 133/111/133 134/113/135 141/119/142
f 133/111/133 141/119/142 150/118/150
f 141/119/142 142/118/141 151/127/151
f 142/118/141 143/120/143 151/127/151
f 144/121/144 145/122/145 152/128/152
f 145/122/145 146/123/146 153/129/153
f 145/122/145 153/129/153 152/128/152
f 146/123/146 147/124/147 153/129/153
f 149/126/149 150/118/150 154/130/154
f 150/118/150 141/119/142 154/130/154
f 141/119/142 151/127/151 155/131/155
f 151/127/151 143/120/143 156/132/156
f 143/120/143 144/121/144 157/133/157
f 143/120/143 157/133/157 156/132/156
f 144/121/144 152/128/152 157/133/157
f 152/128/152 153/129/153 158/134/158
f 153/129/153 147/124/147 159/135/159
f 153/129/153 159/135/159 158/134/158
f 147/124/147 148/125/148 160/136/160
f 147/124/147 160/136/160 159/135/159
f 148/125/148 149/126/149 160/136/160
f 149/126/149 154/130/154 161/137/161
f 149/126/149 161/137/161 160/136/160
f 154/130/154 141/119/142 155/131/155
f 154/130/154 155/131/155 161/137/161
f 155/131/155 151/127/151 163/138/162
f 155/131/155 163/138/162 162/139/163
f 151/127/151 156/132/156 164/140/164
f 151/127/151 164/140/164 163/138/162
f 156/132/156 157/133/157 165/141/165
f 156/132/156 165/141/165 164/140/164
f 157/133/157 152/128/152 166/142/166
f 157/133/157 166/142/166 165/141/165
f 152/128/152 158/134/158 167/143/167
f 152/128/152 167/143/167 166/142/166
f 158/134/158 159/135/159 168/144/168
f 158/134/158 168/144/168 167/143/167
f 159/135/159 160/136/160 169/145/169
f 159/135/159 169/145/169 168/144/168
f 160/136/160 161/137/161 170/138/170
f 160/136/160 170/138/170 169/145/169
f 161/137/161 155/131/155 162/139/163
f 161/137/161 162/139/163 170/138/170
f 162/139/163 163/138/162 172/146/171
f 162/139/163 172/146/171 171/147/172
f 163/138/162 164/140/164 173/148/173
f 163/138/162 173/148/173 172/146/171
f 164/140/164 165/141/165 173/148/173
f 166/142/166 167/143/167 174/149/174
f 167/143/167 168/144/168 175/150/175
f 167/143/167 175/150/175 174/149/174
f 168/144/168 169/145/169 176/151/176
f 168/144/168 176/151/176 175/150/175
f 169/145/169 170/138/170 177/146/177
f 169/145/169 177/146/177 176/151/176
f 170/138/170 162/139/163 171/147/172
f 170/138/170 171/147/172 177/146/177
f 171/147/172 172/146/171 179/152/178
f 171/147/172 179/152/178 178/153/179
f 172/146/171 173/148/173 180/154/180
f 172/146/171 180/154/180 179/152/178
f 173/148/173 165/141/165 181/155/181
f 173/148/173 181/155/181 180/154/180
f 165/141/165 166/142/166 182/156/182
f 165/141/165 182/156/182 181/155/181
f 166/142/166 174/149/174 183/157/183
f 166/142/166 183/157/183 182/156/182
f 174/149/174 175/150/175 184/158/184
f 174/149/174 184/158/184 183/157/183
f 175/150/175 176/151/176 185/159/185
f 175/150/175 185/159/185 184/158/184
f 176/151/176 186/160/186 185/159/185
f 176/151/176 177/146/177 187/161/187
f 176/151/176 187/161/187 186/160/186
f 177/146/177 171/147/172 178/153/179
f 177/146/177 178/153/179 187/161/187
f 178/153/179 179/152/178 189/162/188
f 178/153/179 189/162/188 188/163/189
f 179/152/178 180/154/180 190/164/190
f 179/152/178 190/164/190 189/162/188
f 180/154/180 181/155/181 190/164/190
f 182/156/182 183/157/183 191/165/191
f 183/157/183 184/158/184 192/166/192
f 183/157/183 192/166/192 191/165/191
f 184/158/184 185/159/185 192/166/192
f 187/161/187 178/153/179 188/163/189
f 188/163/189 189/162/188 193/167/193
f 189/162/188 190/164/190 193/167/193
f 190/164/190 181/155/181 194/168/194
f 181/155/181 182/156/182 194/168/194
f 182/156/182 191/165/191 194/168/194
f 191/165/191 192/166/192 195/169/195
f 192/166/192 185/159/185 196/170/196
f 192/166/192 196/170/196 195/169/195
f 185/159/185 186/160/186 197/171/197
f 185/159/185 197/171/197 196/170/196
f 186/160/186 187/161/187 198/172/198
f 186/160/186 198/172/198 197/171/197
f 187/161/187 188/163/189 198/172/198
f 188/163/189 193/167/193 199/173/199
f 193/167/193 190/164/190 200/174/200
f 190/164/190 194/168/194 201/175/201
f 190/164/190 201/175/201 200/174/200
f 194/168/194 202/176/202 201/175/201
f 194/168/194 191/165/191 203/177/203
f 194/168/194 203/177/203 202/176/202
f 191/165/191 195/169/195 203/177/203
f 196/170/196 197/171/197 204/178/204
f 197/171/197 198/172/198 205/179/205
f 197/171/197 205/179/205 204/178/204
f 198/172/198 188/163/189 199/173/199
f 198/172/198 199/173/199 205/179/205
f 199/173/199 193/167/193 206/180/206
f 193/167/193 200/174/200 206/180/206
f 201/175/201 202/176/202 207/181/207
f 202/176/202 203/177/203 208/182/208
f 202/176/202 208/182/208 207/181/207
f 203/177/203 195/169/195 209/183/209
f 203/177/203 209/183/209 208/182/208
f 195/169/195 196/170/196 209/183/209
f 196/170/196 204/178/204 210/184/210
f 196/170/196 210/184/210 209/183/209
f 204/178/204 205/179/205 211/180/211
f 204/178/204 211/180/211 210/184/210
f 205/179/205 199/173/199 211/180/211
f 199/173/199 206/180/206 213/185/212
f 199/173/199 213/185/212 212/186/213
f 206/180/206 200/174/200 213/185/212
f 200/174/200 201/175/201 214/187/214
f 201/175/201 207/181/207 215/188/215
f 201/175/201 215/188/215 214/187/214
f 207/181/207 208/182/208 216/189/216
f 207/181/207 216/189/216 215/188/215
f 208/182/208 209/183/209 217/190/217
f 208/182/208 217/190/217 216/189/216
f 209/183/209 210/184/210 217/190/217
f 210/184/210 211/180/211 212/186/213
f 211/180/211 199/173/199 212/186/213
f 212/186/213 213/185/212 218/191/218
f 213/185/212 200/174/200 219/192/219
f 200/174/200 214/187/214 219/192/219
f 215/188/215 216/189/216 220/193/220
f 216/189/216 217/190/217 221/194/221
f 216/189/216 221/194/221 220/193/220
f 217/190/217 210/184/210 222/195/222
f 217/190/217 222/195/222 221/194/221
f 210/184/210 212/186/213 223/196/223
f 210/184/210 223/196/223 222/195/222
f 212/186/213 218/191/218 223/196/223
f 218/191/218 213/185/212 224/197/224
f 213/185/212 219/192/219 225/198/225
f 213/185/212 225/198/225 224/197/224
f 219/192/219 214/187/214 225/198/225
f 214/187/214 215/188/215 226/199/226
f 214/187/214 226/199/226 225/198/225
f 215/188/215 220/193/220 227/200/227
f 215/188/215 227/200/227 226/199/226
f 220/193/220 221/194/221 227/200/227
f 218/191/218 224/197/224 228/201/228
f 224/197/224 225/198/225 229/202/229
f 225/198/225 226/199/226 229/202/229
f 227/200/227 221/194/221 230/203/230
f 221/194/221 222/195/222 231/204/231
f 221/194/221 231/204/231 230/203/230
f 222/195/222 223/196/223 231/204/231
f 223/196/223 218/191/218 228/201/228
f 228/201/228 224/197/224 232/205/232
f 224/197/224 229/202/229 232/205/232
f 229/202/229 226/199/226 233/206/233
f 226/199/226 227/200/227 234/207/234
f 226/199/226 234/207/234 233/206/233
f 227/200/227 230/203/230 234/207/234
f 231/204/231 223/196/223 235/208/235
f 223/196/223 228/201/228 235/208/235
f 232/205/232 229/202/229 236/209/236
f 229/202/229 233/206/233 236/209/236
f 234/207/234 230/203/230 237/210/237
f 230/203/230 231/204/231 235/208/235
f 230/203/230 235/208/235 237/210/237
f 228/201/228 232/205/232 239/211/238
f 228/201/228 239/211/238 238/212/239
f 232/205/232 236/209/236 239/211/238
f 236/209/236 233/206/233 243/213/240
f 233/206/233 234/207/234 240/214/241
f 233/206/233 240/214/241 243/213/240
f 234/207/234 237/210/237 240/214/241
f 237/210/237 235/208/235 241/215/242
f 235/208/235 228/201/228 238/212/239
f 235/208/235 238/212/239 241/215/242
f 238/212/239 239/211/238 242/216/243
f 239/211/238 236/209/236 243/213/240
f 239/211/238 243/213/240 242/216/243
f 240/214/241 237/210/237 244/217/244
f 237/210/237 241/215/242 244/217/244
f 243/213/240 240/214/241 245/218/245
f 240/214/241 244/217/244 245/218/245
f 241/215/242 238/212/239 242/216/243
f 242/216/243 243/213/240 245/218/245
f 244/217/244 241/215/242 245/218/245
f 241/215/242 242/216/243 245/218/245
f 246/219/246 248/220/247 247/221/248
f 246/219/246 249/222/249 248/220/247
f 246/219/246 250/223/250 249/222/249
f 246/219/246 251/224/251 250/223/250
f 246/219/246 247/221/248 251/224/251
f 247/221/248 248/220/247 253/225/252
f 247/221/248 253/225/252 252/226/253
f 248/220/247 249/222/249 253/225/252
f 249/222/249 254/227/254 253/225/252
f 249/222/249 250/223/250 255/228/255
f 249/222/249 255/228/255 254/227/254
f 250/223/250 251/224/251 256/229/256
f 250/223/250 256/229/256 255/228/255
f 251/224/251 247/221/248 252/226/253
f 251/224/251 252/226/253 256/229/256
f 252/226/253 258/230/257 257/231/258
f 252/226/253 253/225/252 259/232/259
f 252/226/253 259/232/259 258/230/257
f 253/225/252 254/227/254 259/232/259
f 254/227/254 255/228/255 260/233/260
f 255/228/255 261/234/261 260/233/260
f 255/228/255 256/229/256 261/234/261
f 256/229/256 252/226/253 257/231/258
f 258/230/257 259/232/259 262/235/262
f 259/232/259 263/236/263 262/235/262
f 259/232/259 254/227/254 264/237/264
f 259/232/259 264/237/264 263/236/263
f 254/227/254 260/233/260 264/237/264
f 260/233/260 261/234/261 265/238/265
f 261/234/261 256/229/256 266/239/266
f 261/234/261 266/239/266 265/238/265
f 256/229/256 257/231/258 266/239/266
f 257/231/258 258/230/257 268/240/267
f 257/231/258 268/240/267 267/241/268
f 258/230/257 262/235/262 268/240/267
f 262/235/262 263/236/263 269/242/269
f 263/236/263 264/237/264 270/243/270
f 263/236/263 270/243/270 269/242/269
f 264/237/264 260/233/260 271/242/271
f 264/237/264 271/242/271 270/243/270
f 260/233/260 265/238/265 271/242/271
f 266/239/266 257/231/258 267/241/268
f 267/241/268 268/240/267 273/244/272
f 267/241/268 273/244/272 272/245/273
f 268/240/267 262/235/262 274/246/274
f 268/240/267 274/246/274 273/244/272
f 262/235/262 269/242/269 275/247/275
f 262/235/262 275/247/275 274/246/274
f 269/242/269 270/243/270 276/248/276
f 269/242/269 276/248/276 275/247/275
f 270/243/270 271/242/271 277/247/277
f 270/243/270 277/247/277 276/248/276
f 271/242/271 265/238/265 278/246/278
f 271/242/271 278/246/278 277/247/277
f 265/238/265 266/239/266 279/244/279
f 265/238/265 279/244/279 278/246/278
f 266/239/266 267/241/268 272/245/273
f 266/239/266 272/245/273 279/244/279
f 272/245/273 273/244/272 281/249/280
f 272/245/273 281/249/280 280/250/281
f 273/244/272 274/246/274 281/249/280
f 274/246/274 275/247/275 282/251/282
f 274/246/274 282/251/282 281/249/280
f 275/247/275 276/248/276 282/251/282
f 276/248/276 277/247/277 283/252/283
f 276/248/276 283/252/283 282/251/282
f 277/247/277 278/246/278 284/253/284
f 277/247/277 284/253/284 283/252/283
f 278/246/278 279/244/279 285/254/285
f 278/246/278 285/254/285 284/253/284
f 279/244/279 272/245/273 280/250/281
f 279/244/279 280/250/281 285/254/285
f 280/250/281 281/249/280 286/255/286
f 281/249/280 287/256/287 286/255/286
f 281/249/280 282/251/282 288/257/288
f 281/249/280 288/257/288 287/256/287
f 282/251/282 289/258/289 288/257/288
f 282/251/282 283/252/283 290/257/290
f 282/251/282 290/257/290 289/258/289
f 283/252/283 284/253/284 291/259/291
f 283/252/283 291/259/291 290/257/290
f 284/253/284 285/254/285 292/255/292
f 284/253/284 292/255/292 291/259/291
f 285/254/285 280/250/281 292/255/292
f 280/250/281 286/255/286 294/260/293
f 280/250/281 294/260/293 293/261/294
f 286/255/286 287/256/287 295/262/295
f 286/255/286 295/262/295 294/260/293
f 287/256/287 288/257/288 295/262/295
f 288/257/288 289/258/289 296/263/296
f 288/257/288 296/263/296 295/262/295
f 289/258/289 290/257/290 297/264/297
f 289/258/289 297/264/297 296/263/296
f 290/257/290 291/259/291 297/264/297
f 291/259/291 292/255/292 298/260/298
f 292/255/292 280/250/281 293/261/294
f 292/255/292 293/261/294 298/260/298
f 293/261/294 294/260/293 300/265/299
f 293/261/294 300/265/299 299/266/300
f 294/260/293 295/262/295 301/267/301
f 294/260/293 301/267/301 300/265/299
f 295/262/295 302/268/302 301/267/301
f 295/262/295 296/263/296 303/269/303
f 295/262/295 303/269/303 302/268/302
f 296/263/296 297/264/297 304/270/304
f 296/263/296 304/270/304 303/269/303
f 297/264/297 291/259/291 304/270/304
f 291/259/291 298/260/298 299/266/300
f 291/259/291 299/266/300 304/270/304
f 298/260/298 293/261/294 299/266/300
f 299/266/300 300/265/299 306/271/305
f 299/266/300 306/271/305 305/272/306
f 300/265/299 301/267/301 307/273/307
f 300/265/299 307/273/307 306/271/305
f 301/267/301 302/268/302 307/273/307
f 302/268/302 303/269/303 308/274/308
f 302/268/302 308/274/308 307/273/307
f 303/269/303 304/270/304 308/274/308
f 304/270/304 309/275/309 308/274/308
f 304/270/304 299/266/300 305/272/306
f 304/270/304 305/272/306 309/275/309
f 305/272/306 306/271/305 311/276/310
f 305/272/306 311/276/310 310/277/311
f 306/271/305 307/273/307 311/276/310
f 307/273/307 308/274/308 312/278/312
f 308/274/308 309/275/309 312/278/312
f 305/272/306 310/277/311 309/275/309
f 310/277/311 311/276/310 313/279/313
f 311/276/310 307/273/307 313/279/313
f 307/273/307 312/278/312 313/279/313
f 312/278/312 309/275/309 313/279/313
f 309/275/309 310/277/311 313/279/313
f 314/280/314 316/281/315 315/282/316
f 314/280/314 317/283/317 316/281/315
f 314/280/314 318/284/318 317/283/317
f 314/280/314 319/285/319 318/284/318
f 314/280/314 315/282/316 320/286/320
f 315/282/316 322/287/321 321/288/322
f 315/282/316 316/281/315 322/287/321
f 316/281/315 317/283/317 322/287/321
f 318/284/318 319/285/319 323/289/323
f 319/285/319 314/280/314 323/289/323
f 314/280/314 320/286/320 321/288/322
f 314/280/314 321/288/322 323/289/323
f 320/286/320 315/282/316 321/288/322
f 321/288/322 322/287/321 325/290/324
f 321/288/322 325/290/324 324/291/325
f 322/287/321 317/283/317 326/292/326
f 322/287/321 326/292/326 325/290/324
f 317/283/317 318/284/318 327/293/327
f 317/283/317 327/293/327 326/292/326
f 318/284/318 323/289/323 328/292/328
f 318/284/318 328/292/328 327/293/327
f 323/289/323 329/294/329 328/292/328
f 323/289/323 321/288/322 330/295/330
f 323/289/323 330/295/330 329/294/329
f 321/288/322 324/291/325 330/295/330
f 324/291/325 325/290/324 332/296/331
f 324/291/325 332/296/331 331/297/332
f 325/290/324 333/298/333 332/296/331
f 325/290/324 326/292/326 334/299/334
f 325/290/324 334/299/334 333/298/333
f 326/292/326 327/293/327 335/300/335
f 326/292/326 335/300/335 334/299/334
f 327/293/327 328/292/328 336/299/336
f 327/293/327 336/299/336 335/300/335
f 328/292/328 329/294/329 336/299/336
f 329/294/329 330/295/330 337/301/337
f 330/295/330 324/291/325 331/297/332
f 330/295/330 331/297/332 337/301/337
f 331/297/332 332/296/331 339/302/338
f 331/297/332 339/302/338 338/303/339
f 332/296/331 333/298/333 340/304/340
f 332/296/331 340/304/340 339/302/338
f 333/298/333 334/299/334 341/305/341
f 333/298/333 341/305/341 340/304/340
f 334/299/334 335/300/335 342/306/342
f 334/299/334 342/306/342 341/305/341
f 335/300/335 336/299/336 343/305/343
f 335/300/335 343/305/343 342/306/342
f 336/299/336 329/294/329 344/304/344
f 336/299/336 344/304/344 343/305/343
f 329/294/329 337/301/337 344/304/344
f 337/301/337 331/297/332 338/303/339
f 338/303/339 339/302/338 345/307/345
f 339/302/338 340/304/340 346/308/346
f 340/304/340 341/305/341 347/309/347
f 340/304/340 347/309/347 346/308/346
f 341/305/341 342/306/342 348/310/348
f 341/305/341 348/310/348 347/309/347
f 342/306/342 343/305/343 349/309/349
f 342/306/342 349/309/349 348/310/348
f 343/305/343 344/304/344 350/308/350
f 343/305/343 350/308/350 349/309/349
f 344/304/344 337/301/337 351/311/351
f 344/304/344 351/311/351 350/308/350
f 337/301/337 338/303/339 345/307/345
f 337/301/337 345/307/345 351/311/351
f 345/307/345 339/302/338 352/312/352
f 339/302/338 346/308/346 353/313/353
f 339/302/338 353/313/353 352/312/352
f 346/308/346 347/309/347 354/314/354
f 346/308/346 354/314/354 353/313/353
f 347/309/347 348/310/348 355/315/355
f 347/309/347 355/315/355 354/314/354
f 348/310/348 349/309/349 356/314/356
f 348/310/348 356/314/356 355/315/355
f 349/309/349 350/308/350 357/316/357
f 349/309/349 357/316/357 356/314/356
f 350/308/350 351/311/351 358/317/358
f 350/308/350 358/317/358 357/316/357
f 351/311/351 345/307/345 352/312/352
f 351/311/351 352/312/352 358/317/358
f 352/312/352 360/318/359 359/319/360
f 352/312/352 353/313/353 361/320/361
f 352/312/352 361/320/361 360/318/359
f 353/313/353 354/314/354 362/321/362
f 353/313/353 362/321/362 361/320/361
f 354/314/354 355/315/355 363/322/363
f 354/314/354 363/322/363 362/321/362
f 355/315/355 356/314/356 364/323/364
f 355/315/355 364/323/364 363/322/363
f 356/314/356 357/316/357 364/323/364
f 357/316/357 358/317/358 365/318/365
f 358/317/358 352/312/352 359/319/360
f 358/317/358 359/319/360 365/318/365
f 359/319/360 360/318/359 367/324/366
f 359/319/360 367/324/366 366/325/367
f 360/318/359 361/320/361 368/326/368
f 360/318/359 368/326/368 367/324/366
f 361/320/361 362/321/362 368/326/368
f 362/321/362 363/322/363 369/327/369
f 363/322/363 364/323/364 370/328/370
f 363/322/363 370/328/370 369/327/369
f 364/323/364 357/316/357 371/326/371
f 364/323/364 371/326/371 370/328/370
f 357/316/357 365/318/365 372/324/372
f 357/316/357 372/324/372 371/326/371
f 365/318/365 359/319/360 366/325/367
f 365/318/365 366/325/367 372/324/372
f 367/324/366 368/326/368 374/329/373
f 367/324/366 374/329/373 366/325/367
f 368/326/368 362/321/362 375/330/374
f 368/326/368 375/330/374 374/329/373
f 362/321/362 369/327/369 376/331/375
f 362/321/362 376/331/375 375/330/374
f 369/327/369 370/328/370 376/331/375
f 370/328/370 371/326/371 377/332/376
f 370/328/370 377/332/376 376/331/375
f 371/326/371 372/324/372 378/333/377
f 371/326/371 378/333/377 377/332/376
f 372/324/372 366/325/367 373/334/378
f 372/324/372 373/334/378 378/333/377
f 373/334/378 366/325/367 380/335/379
f 373/334/378 380/335/379 379/336/380
f 366/325/367 374/329/373 380/335/379
f 374/329/373 375/330/374 380/335/379
f 375/330/374 376/331/375 381/337/381
f 376/331/375 377/332/376 381/337/381
f 377/332/376 378/333/377 386/338/382
f 378/333/377 373/334/378 379/336/380
f 378/333/377 379/336/380 386/338/382
f 379/336/380 380/335/379 383/339/383
f 379/336/380 383/339/383 382/340/384
f 380/335/379 375/330/374 384/341/385
f 380/335/379 384/341/385 383/339/383
f 375/330/374 381/337/381 384/341/385
f 381/337/381 385/342/386 384/341/385
f 381/337/381 377/332/376 386/338/382
f 381/337/381 386/338/382 385/342/386
f 386/338/382 379/336/380 382/340/384
f 383/339/383 384/341/385 387/343/387
f 384/341/385 385/342/386 387/343/387
f 385/342/386 386/338/382 382/340/384
f 382/340/384 383/339/383 387/343/387
f 385/342/386 382/340/384 387/343/387
f 388/344/388 389/345/389 391/346/390
f 389/345/389 388/344/388 393/347/391
f 389/345/389 393/347/391 392/348/392
f 388/344/388 390/349/393 394/350/394
f 388/344/388 394/350/394 393/347/391
f 390/349/393 395/351/395 394/350/394
f 390/349/393 388/344/388 396/352/396
f 390/349/393 396/352/396 395/351/395
f 388/344/388 391/346/390 397/351/397
f 388/344/388 397/351/397 396/352/396
f 391/346/390 398/353/398 397/351/397
f 391/346/390 389/345/389 399/347/399
f 391/346/390 399/347/399 398/353/398
f 389/345/389 392/348/392 399/347/399
f 392/348/392 393/347/391 401/354/400
f 392/348/392 401/354/400 400/355/401
f 393/347/391 394/350/394 401/354/400
f 394/350/394 395/351/395 402/356/402
f 395/351/395 396/352/396 403/357/403
f 395/351/395 403/357/403 402/356/402
f 396/352/396 397/351/397 404/356/404
f 396/352/396 404/356/404 403/357/403
f 397/351/397 398/353/398 405/358/405
f 397/351/397 405/358/405 404/356/404
f 399/347/399 392/348/392 400/355/401
f 399/347/399 400/355/401 398/353/398
f 400/355/401 401/354/400 407/359/406
f 400/355/401 407/359/406 406/360/407
f 401/354/400 394/350/394 408/361/408
f 401/354/400 408/361/408 407/359/406
f 394/350/394 402/356/402 409/362/409
f 394/350/394 409/362/409 408/361/408
f 402/356/402 403/357/403 410/363/410
f 402/356/402 410/363/410 409/362/409
f 403/357/403 404/356/404 411/362/411
f 403/357/403 411/362/411 410/363/410
f 404/356/404 405/358/405 412/361/412
f 404/356/404 412/361/412 411/362/411
f 405/358/405 398/353/398 413/364/413
f 405/358/405 413/364/413 412/361/412
f 398/353/398 400/355/401 406/360/407
f 398/353/398 406/360/407 413/364/413
f 406/360/407 407/359/406 415/365/414
f 406/360/407 415/365/414 414/366/415
f 407/359/406 408/361/408 416/367/416
f 407/359/406 416/367/416 415/365/414
f 408/361/408 409/362/409 417/368/417
f 408/361/408 417/368/417 416/367/416
f 409/362/409 410/363/410 418/369/418
f 409/362/409 418/369/418 417/368/417
f 410/363/410 411/362/411 419/368/419
f 410/363/410 419/368/419 418/369/418
f 411/362/411 412/361/412 420/370/420
f 411/362/411 420/370/420 419/368/419
f 412/361/412 413/364/413 420/370/420
f 413/364/413 406/360/407 414/366/415
f 414/366/415 415/365/414 421/371/421
f 416/367/416 417/368/417 422/372/422
f 417/368/417 418/369/418 422/372/422
f 418/369/418 419/368/419 423/373/423
f 419/368/419 420/370/420 423/373/423
f 420/370/420 413/364/413 424/374/424
f 413/364/413 414/366/415 421/371/421
f 413/364/413 421/371/421 424/374/424
f 421/371/421 415/365/414 426/375/425
f 421/371/421 426/375/425 425/376/426
f 415/365/414 416/367/416 426/375/425
f 416/367/416 422/372/422 427/377/427
f 422/372/422 418/369/418 428/378/428
f 422/372/422 428/378/428 427/377/427
f 418/369/418 423/373/423 428/378/428
f 423/373/423 420/370/420 429/379/429
f 420/370/420 424/374/424 429/379/429
f 424/374/424 421/371/421 425/376/426
f 426/375/425 416/367/416 430/380/430
f 416/367/416 427/377/427 430/380/430
f 428/378/428 423/373/423 431/381/431
f 423/373/423 429/379/429 431/381/431
f 429/379/429 424/374/424 432/382/432
f 424/374/424 425/376/426 432/382/432
f 425/376/426 426/375/425 434/383/433
f 425/376/426 434/383/433 433/384/434
f 426/375/425 430/380/430 435/385/435
f 426/375/425 435/385/435 434/383/433
f 430/380/430 427/377/427 436/386/436
f 430/380/430 436/386/436 435/385/435
f 427/377/427 428/378/428 437/387/437
f 427/377/427 437/387/437 436/386/436
f 428/378/428 431/381/431 437/387/437
f 431/381/431 429/379/429 438/388/438
f 429/379/429 432/382/432 439/383/439
f 429/379/429 439/383/439 438/388/438
f 432/382/432 425/376/426 433/384/434
f 432/382/432 433/384/434 439/383/439
f 433/384/434 434/383/433 441/389/440
f 433/384/434 441/389/440 440/390/441
f 434/383/433 435/385/435 441/389/440
f 436/386/436 437/387/437 442/391/442
f 436/386/436 442/391/442 435/385/435
f 437/387/437 431/381/431 442/391/442
f 431/381/431 438/388/438 443/392/443
f 431/381/431 443/392/443 442/391/442
f 438/388/438 439/383/439 440/390/441
f 438/388/438 440/390/441 443/392/443
f 439/383/439 433/384/434 440/390/441
f 440/390/441 441/389/440 445/393/444
f 440/390/441 445/393/444 444/394/445
f 441/389/440 435/385/435 446/395/446
f 441/389/440 446/395/446 445/393/444
f 435/385/435 442/391/442 446/395/446
f 442/391/442 447/396/447 446/395/446
f 442/391/442 443/392/443 447/396/447
f 443/392/443 440/390/441 444/394/445
f 445/393/444 448/397/448 444/394/445
f 445/393/444 446/395/446 449/398/449
f 445/393/444 449/398/449 448/397/448
f 446/395/446 447/396/447 449/398/449
f 447/396/447 443/392/443 450/399/450
f 443/392/443 444/394/445 450/399/450
f 444/394/445 448/397/448 451/400/451
f 449/398/449 452/401/452 448/397/448
f 449/398/449 447/396/447 452/401/452
f 447/396/447 450/399/450 452/401/452
f 450/399/450 444/394/445 451/400/451
f 451/400/451 448/397/448 453/402/453
f 448/397/448 452/401/452 453/402/453
f 452/401/452 450/399/450 453/402/453
f 450/399/450 451/400/451 453/402/453
