# Blender 5.1.2
# www.blender.org
o justed_inferno_v32_fold_01
v 5.530427 0.359902 -0.000659
v 5.445784 0.668437 0.281479
v 5.343292 0.652232 0.257395
v 5.343338 0.488314 0.283638
v 5.323826 0.320939 0.301262
v 5.361942 0.155137 0.335877
v 5.463264 0.151029 0.363290
v 5.529433 0.244820 0.366918
v 5.624208 0.323784 0.380308
v 5.599011 0.501023 0.347418
v 5.327077 0.862535 0.560237
v 5.093102 0.880955 0.626919
v 5.155282 0.296580 0.590023
v 5.244737 0.100000 0.655321
v 5.400494 0.108499 0.660611
v 5.637025 0.339204 0.744731
v 5.557225 0.602536 0.677394
v 5.394951 0.838125 0.787343
v 5.182269 1.017223 0.818792
v 4.959357 0.595866 1.001512
v 4.953228 0.263697 0.928076
v 5.135129 0.100000 0.961516
v 5.312291 0.100689 1.076533
v 5.606689 0.377488 1.096673
v 5.466574 0.689182 0.988573
v 5.023717 1.131889 1.057283
v 4.782721 1.015767 1.076761
v 4.950180 0.097237 1.430590
v 5.338921 0.216324 1.370640
v 5.525719 0.434602 1.423980
v 5.210898 1.003399 1.186708
v 4.860007 1.213873 1.275524
v 4.671399 0.661189 1.456954
v 4.586384 0.274772 1.546105
v 5.096917 0.100000 1.624100
v 5.231843 0.242047 1.671891
v 5.398367 0.502515 1.718520
v 5.178762 0.807337 1.585547
v 5.034778 1.105508 1.463967
v 4.634325 1.304020 1.537069
v 4.554490 1.041207 1.426432
v 4.778658 0.100000 1.771290
v 4.959367 0.143938 1.881146
v 5.109658 0.272074 1.955004
v 5.240232 0.572705 1.980208
v 4.418454 1.054837 1.620462
v 4.440042 0.716834 1.714019
v 4.319461 0.315228 1.910044
v 4.564174 0.145331 2.105161
v 4.766407 0.235906 2.247467
v 4.980160 0.296367 2.224828
v 5.068577 0.639920 2.214541
v 4.464894 1.116709 2.504110
v 4.656293 1.276559 1.930901
v 4.316780 1.459920 1.809111
v 4.279994 1.076627 1.790764
v 4.262642 0.753706 1.857664
v 4.847746 0.309621 2.486193
v 4.893072 0.702596 2.426110
v 4.141981 1.104902 1.938881
v 4.080421 0.790806 1.967038
v 4.003937 0.358254 2.216620
v 4.198915 0.191126 2.518262
v 4.428950 0.282805 2.601593
v 4.709138 0.315289 2.736901
v 4.713922 0.760795 2.613825
v 4.307076 1.474259 2.259958
v 3.988182 1.628370 2.044087
v 3.971774 1.134241 2.108568
v 3.905153 0.828558 2.051457
v 4.554614 0.325266 2.963015
v 4.527122 0.814422 2.771779
v 3.681771 0.888911 2.166104
v 3.773390 0.439501 2.414385
v 3.926612 0.275607 2.723426
v 4.025838 0.368055 2.947248
v 4.375537 0.354249 3.142614
v 4.286420 0.859177 2.926874
v 4.168570 1.249058 2.751208
v 4.056812 1.569017 2.461719
v 3.825666 1.630637 2.215764
v 3.682078 1.203325 2.398839
v 4.098787 0.437587 3.286654
v 3.716171 1.589093 2.359640
v 3.445134 0.989325 2.377817
v 3.365010 0.734641 2.726772
v 3.565082 0.514254 2.937268
v 3.793950 0.445187 3.052996
v 3.850290 0.988356 3.054596
v 3.858913 1.285536 2.934063
v 3.806319 1.567999 2.657794
v 3.600713 1.538025 2.504684
v 3.528919 1.235416 2.532256
v 3.619057 0.508546 3.114410
v 3.589325 0.649777 3.336835
v 3.476415 1.507326 2.631134
v 3.403189 1.277285 2.611849
v 3.221338 1.091600 2.556461
v 3.378901 0.639003 2.958682
v 3.448848 0.554218 3.168509
v 3.463644 1.031799 3.186694
v 3.510759 1.332705 3.091932
v 3.575113 1.568388 2.813633
v 3.346169 1.516244 2.728793
v 3.271299 1.344186 2.659281
v 3.163689 0.816675 2.808583
v 3.279647 0.558887 3.229285
v 3.375903 0.715347 3.363904
v 3.408890 1.631189 2.916259
v 3.213783 1.566012 2.801525
v 3.135688 1.445569 2.671043
v 2.970045 1.202154 2.598867
v 3.027518 0.845466 2.821233
v 3.008886 0.700658 3.064575
v 3.105366 0.508189 3.300607
v 3.205503 0.733542 3.413754
v 3.257510 1.079522 3.297661
v 3.285299 1.415124 3.238628
v 3.080066 1.642975 2.861831
v 2.999713 1.582324 2.656312
v 2.788815 0.871434 2.819725
v 2.922251 0.409063 3.372152
v 3.036280 0.729517 3.471645
v 3.035544 0.991993 3.463866
v 3.094878 1.936442 3.124412
v 2.942696 1.728455 2.921828
v 2.864978 1.741369 2.636933
v 2.687080 1.347765 2.591294
v 2.629058 0.666728 3.061934
v 2.732251 0.292975 3.425020
v 2.864329 0.721554 3.518655
v 2.938083 1.600298 3.509873
v 2.736315 1.840953 3.014376
v 2.729716 1.897510 2.638395
v 2.544157 0.908285 2.813091
v 2.456509 0.179172 3.442561
v 2.688922 0.725877 3.543596
v 2.793717 1.100329 3.612282
v 2.923473 2.058923 3.247695
v 2.589453 2.024281 2.676630
v 2.427984 1.487128 2.656650
v 2.389546 0.959294 2.821197
v 2.373333 0.623404 3.070635
v 2.442240 0.783739 3.553997
v 2.618153 1.097515 3.684467
v 2.619267 1.655075 3.681871
v 2.758395 2.095309 3.344238
v 2.481498 1.933707 3.134199
v 2.373327 2.131855 2.789172
v 2.237114 1.026110 2.845789
v 2.198302 0.631309 3.053778
v 2.182639 0.222461 3.390351
v 2.430345 1.099035 3.726583
v 2.570755 2.079833 3.427207
v 2.308763 1.989832 3.208053
v 2.042557 1.601536 2.825247
v 2.081477 1.098630 2.880410
v 2.022386 0.652887 3.032561
v 2.012029 0.315715 3.346467
v 2.141442 0.829491 3.525991
v 2.232560 1.106412 3.746445
v 2.230815 1.662390 3.789179
v 2.366660 2.036049 3.491991
v 2.128369 2.056301 3.279205
v 1.975409 2.210947 2.993061
v 1.917966 1.167022 2.912779
v 1.842520 0.674433 3.004206
v 1.839848 0.423341 3.307135
v 1.947594 0.860924 3.517630
v 1.954357 1.117502 3.759815
v 2.153392 1.991420 3.541669
v 1.941797 2.144055 3.348339
v 1.816836 1.679822 2.888620
v 1.745051 1.226132 2.931379
v 1.657121 0.683409 2.962415
v 1.661360 0.519163 3.273354
v 1.745108 0.871706 3.513492
v 1.914873 1.672137 3.859509
v 1.935396 1.963293 3.582373
v 1.748719 2.254565 3.417133
v 1.730058 2.265396 3.079707
v 1.636620 1.737009 2.915673
v 1.564674 1.276139 2.930803
v 1.468526 0.678375 2.903540
v 1.476127 0.597418 3.241405
v 1.533821 0.860134 3.509054
v 1.468714 1.121719 3.797199
v 1.523877 1.692160 3.939097
v 1.713351 1.954435 3.617220
v 1.546172 2.373051 3.483975
v 1.531724 2.308501 3.132131
v 1.363838 1.821163 2.937365
v 1.380687 1.320381 2.913379
v 1.282641 0.673282 2.833902
v 1.287126 0.669238 3.209056
v 1.316059 0.836220 3.497194
v 1.432406 1.963190 3.648110
v 1.330253 2.470388 3.540080
v 1.324334 2.331081 3.173687
v 1.117848 1.464061 2.885637
v 1.104984 0.691604 2.771255
v 1.097769 0.749856 3.177584
v 1.096531 0.819898 3.471864
v 0.986922 1.122754 3.775451
v 1.078794 1.702114 3.946819
v 1.099927 2.515920 3.570629
v 1.070229 2.311913 3.208174
v 0.965333 1.859496 2.964462
v 0.877755 0.784499 2.732227
v 0.909630 0.847406 3.149251
v 0.880767 0.832985 3.430964
v 0.867957 1.965264 3.634472
v 0.859973 2.494524 3.562108
v 0.733717 1.475525 2.842378
v 0.627957 1.015895 3.115893
v 0.603441 0.912837 3.354682
v 0.662938 1.176714 3.685479
v 0.711738 1.697727 3.820870
v 0.528620 2.374727 3.483019
v 0.497445 2.142138 3.182744
v 0.524960 1.788548 2.965554
v 0.460655 1.111151 2.801363
v 0.361712 1.267042 3.550347
v 0.483942 1.695021 3.688029
v 0.406203 1.941765 3.508336
v 0.386733 1.549173 2.827513
v 0.349242 1.182837 3.063681
v 0.173641 1.154578 3.199006
v 0.274080 1.697197 3.538880
v 0.047750 2.184374 3.255662
v 0.229034 2.060586 3.109785
v 0.237806 1.265760 2.829192
v 0.166200 1.267479 3.015505
v -0.028577 1.407746 3.322265
v -0.008125 1.750361 3.330142
v 0.116851 1.944943 3.380481
v 0.031891 2.037412 3.034909
v 0.118518 1.591742 2.759177
v 0.060891 1.352851 2.810237
v -0.009907 1.319991 2.948560
v -0.151087 1.282763 3.049138
v -0.173361 1.980431 3.241601
v -0.284365 2.177456 3.047570
v -0.135859 2.046349 2.942964
v -0.059752 1.609811 2.656828
v -0.102941 1.405992 2.756129
v -0.201071 1.342382 2.830285
v -0.604329 1.512417 2.981892
v -0.348689 1.750147 3.101031
v -0.267979 2.073519 2.846947
v -0.250737 1.436364 2.678202
v -0.554708 1.305935 2.808733
v -0.451648 2.066317 3.100446
v -0.547361 2.234497 2.817636
v -0.515324 2.124079 2.597275
v -0.389076 1.900937 2.545200
v -0.322805 1.624435 2.408495
v -0.423346 1.467349 2.558426
v -0.546458 1.302867 2.596387
v -0.698926 1.828888 2.837981
v -0.615310 2.134970 2.994589
v -0.725214 1.315063 2.681030
v -0.806931 1.560960 2.805137
v -0.754129 2.192074 2.867913
v -0.723590 2.238307 2.570715
v -0.544856 1.947352 2.338640
v -0.516488 1.645566 2.250381
v -0.682821 1.524535 2.335351
v -0.757781 1.326654 2.401672
v -0.905398 1.363320 2.506258
v -0.951574 1.625151 2.608434
v -0.924835 1.907524 2.573528
v -0.895031 2.231828 2.660415
v -0.727101 2.092134 2.269866
v -0.874031 2.195506 2.221466
v -0.657146 1.953069 2.137664
v -0.711150 1.691863 2.085886
v -0.827339 1.581880 2.142666
v -0.951944 1.426910 2.157781
v -1.080038 1.475017 2.238379
v -1.055703 1.777681 2.372969
v -1.005662 2.218145 2.330002
v -1.103784 1.952450 2.215522
v -0.911949 2.194056 2.001217
v -0.711806 1.953496 1.956476
v -0.826387 1.729643 1.903999
v -0.915627 1.602554 1.945883
v -1.075743 1.488350 1.905311
v -1.200023 1.563095 1.946933
v -1.132343 1.794653 2.062927
v -1.164808 2.028824 2.011261
v -1.047906 2.219421 2.031632
v -0.903981 2.212793 1.678250
v -0.719029 1.956557 1.816344
v -1.168824 1.837587 1.855867
v -0.815887 2.102007 1.712141
v -0.988559 1.599826 1.700537
v -1.147496 1.528542 1.647337
v -1.253651 1.633821 1.687055
v -1.198121 2.104455 1.738219
v -1.039204 2.233841 1.766944
v -0.735799 1.949397 1.611737
v -0.898171 1.784257 1.612243
v -1.023002 1.636839 1.463328
v -1.176613 1.883167 1.650223
v -0.799406 2.105429 1.490385
v -1.153454 1.615799 1.415445
v -1.216928 1.738463 1.445267
v -1.150832 1.934116 1.444169
v -1.150137 2.133659 1.492115
v -0.997686 2.205417 1.539823
v -0.792026 1.947572 1.385768
v -0.919376 1.857726 1.257075
v -0.797628 2.060591 1.179397
v -1.073168 1.762499 1.172529
v -1.116028 1.856459 1.243470
v -1.042925 2.102630 1.244910
v -0.926382 2.118665 1.220556
v -0.823817 1.966510 1.105199
v -0.938259 1.842019 1.065345
v -0.996740 1.979423 1.053870
v -0.856312 2.073816 0.995446
v -0.939732 1.888191 0.938455
v -0.907499 2.061753 0.978175
v -0.746089 2.042767 0.885165
v -0.800757 1.969708 0.917225
v -0.805980 1.944827 0.785024
v -0.799666 2.016759 0.737756
v -0.724810 1.987913 0.711627
v -0.754362 1.976277 0.669057
v -0.739673 2.059025 0.723404
v -0.625851 2.038381 0.519452
v -0.577008 2.049138 0.519520
v -0.565775 2.020415 0.471148
v -0.378828 2.050194 0.294679
v 4.472536 0.749541 2.172874
v 4.419529 1.013638 2.171231
v 4.362331 0.944246 2.172549
v 4.314476 0.860064 2.249978
v 4.304598 0.723672 2.331828
v 4.353595 0.716129 2.382514
v 4.416410 0.761594 2.384986
v 4.472680 0.865030 2.333374
v 4.458746 0.947739 2.245521
v 4.197608 1.097273 2.302692
v 4.137478 0.849529 2.559422
v 4.353855 0.850016 2.524676
v 4.347799 1.045209 2.506404
v 4.301326 1.162898 2.384520
v 4.178760 1.316071 2.314349
v 4.031368 1.061090 2.476537
v 4.285936 0.928679 2.668070
v 4.045945 0.978429 2.636400
v 4.105311 0.978825 2.707381
v 4.185611 1.017518 2.760876
v 4.119572 1.350634 2.564397
v 4.205760 1.295227 2.475668
v 4.044937 1.347780 2.510607
v 3.943986 1.176553 2.565634
v 3.995236 1.064245 2.754349
v 4.035519 1.142401 2.780887
v 3.959718 1.495597 2.626139
v 3.918851 1.430764 2.531006
v 3.835212 1.259768 2.598339
v 3.849277 1.171531 2.723855
v 3.838998 1.034127 2.868265
v 3.932478 1.178076 2.848178
v 3.994512 1.321849 2.778416
v 4.060934 1.512016 2.661350
v 3.853212 1.591193 2.556510
v 3.751150 1.352277 2.649196
v 3.703913 1.191476 2.750400
v 3.678396 1.025527 2.896879
v 3.804836 1.234961 2.882529
v 3.909298 1.383947 2.898586
v 3.975945 1.592497 2.777071
v 3.825253 1.661964 2.780271
v 3.773414 1.667474 2.667840
v 3.673951 1.434985 2.724285
v 3.575259 1.231215 2.750153
v 3.581967 1.143131 2.862539
v 3.682998 1.290631 2.904473
v 3.789368 1.420883 2.976668
v 3.828900 1.588115 2.870443
v 3.755604 1.800371 2.878588
v 3.671877 1.720763 2.768656
v 3.508463 1.557349 2.793368
v 3.442548 1.271945 2.735261
v 3.491854 1.236722 2.857900
v 3.553088 1.283311 2.950406
v 3.661349 1.450616 3.033589
v 3.623974 1.630954 2.982559
v 3.611630 1.801427 2.955739
v 3.535379 1.685495 2.867134
v 3.456153 1.329504 2.968314
v 3.441506 1.734288 2.985772
v 3.355692 1.586033 2.881290
v 3.326221 1.470289 2.888891
v 3.353432 1.433091 2.987665
v 3.415273 1.630723 3.028286
v 3.286385 1.757967 3.013924
v 3.242162 1.617005 2.909528
v 3.237649 1.435890 2.973819
v 3.260604 1.447370 3.037736
v 3.315207 1.701800 3.064983
v 3.113886 1.700519 2.986933
v 3.087786 1.606769 2.972318
v 3.085342 1.524104 3.012505
v 3.101564 1.463047 3.057100
v 3.119932 1.509858 3.098011
v 3.122208 1.615287 3.101404
v 3.136388 1.723261 3.083066
v 2.920024 1.710663 3.055695
v 2.906059 1.672378 3.023409
v 2.916314 1.583734 3.039119
v 2.842264 1.557831 3.100779
v 2.950982 1.484599 3.141994
v 2.951165 1.547680 3.158327
v 2.938370 1.637344 3.140129
v 2.918773 1.709285 3.096174
v 2.702493 1.588304 3.130332
v 2.814073 1.541436 3.163868
v 2.679693 1.555651 3.166272
v 2.654567 1.571670 3.167876
v 2.589164 1.548724 3.180132
v 2.589379 1.260332 3.180146
v 2.605885 1.520186 3.069860
v 2.531116 1.479533 3.069815
v 2.418693 1.349314 3.121827
v 2.365349 1.258095 3.243746
v 2.393639 1.259320 3.319842
v 2.446275 1.295611 3.371613
v 2.516935 1.404245 3.306771
v 2.597066 1.485039 3.177611
v 2.500771 1.647591 3.096368
v 2.269627 1.344969 3.360034
v 2.330547 1.396137 3.410203
v 2.501030 1.621647 3.206072
v 2.371703 1.749020 3.159790
v 2.331080 1.721615 3.140324
v 2.192010 1.571630 3.170550
v 2.159676 1.476604 3.269355
v 2.153020 1.448542 3.358520
v 2.187667 1.510635 3.406066
v 2.365485 1.729110 3.270112
v 2.267699 1.895080 3.206416
v 2.090704 1.671762 3.147896
v 1.982975 1.480749 3.370153
v 2.051579 1.557942 3.436682
v 2.243067 1.900116 3.336199
v 2.111183 1.976698 3.280392
v 2.083309 1.950824 3.192492
v 1.950503 1.782343 3.172811
v 1.834932 1.539833 3.337006
v 1.913975 1.648075 3.406973
v 2.011662 1.797096 3.415036
v 1.949510 2.102907 3.468408
v 1.976071 2.126985 3.216395
v 1.845544 1.897319 3.176580
v 1.751114 1.720907 3.209335
v 1.660851 1.544676 3.286290
v 1.763601 1.713312 3.390589
v 1.853924 1.862208 3.478335
v 1.842590 2.266161 3.414339
v 1.854094 2.311590 3.249612
v 1.703735 1.993983 3.185597
v 1.576302 1.726385 3.118636
v 1.504781 1.558359 3.224261
v 1.472477 1.807565 3.372532
v 1.674712 1.904206 3.563214
v 1.800686 2.162405 3.518853
v 1.656094 2.341259 3.447260
v 1.634958 2.293839 3.299317
v 1.545247 2.059815 3.228686
v 1.402448 1.847078 3.134192
v 1.433054 1.760898 3.246615
v 1.474025 2.151111 3.457726
v 1.459725 2.395594 3.438495
v 1.369890 2.260864 3.310457
v 1.379255 2.113565 3.229059
v 1.315333 1.900324 3.281376
v 1.301930 1.859666 3.374466
v 1.354508 2.042231 3.476659
v 1.259824 2.424178 3.392012
v 1.209564 2.149122 3.202226
v 1.167475 1.958644 3.207594
v 1.035317 1.992475 3.315938
v 1.143219 1.893799 3.395839
v 1.188133 2.107864 3.434646
v 1.222460 2.265086 3.437984
v 1.081815 2.339152 3.330478
v 0.957645 2.151686 3.209333
v 1.013986 2.052207 3.268221
v 0.900920 2.039524 3.394861
v 0.977844 2.306190 3.371908
v 0.867468 2.341151 3.267482
v 0.871330 2.291658 3.213429
v 0.828867 1.959067 3.344254
v 0.841914 2.191744 3.373027
v 0.857920 2.361310 3.347081
v 0.671764 2.340035 3.206217
v 0.705583 2.306297 3.130725
v 0.696875 2.139237 3.176139
v 0.640155 2.051766 3.261317
v 0.659213 1.943444 3.376607
v 0.658071 2.086090 3.383825
v 0.662219 2.222998 3.362633
v 0.678027 2.381638 3.279079
v 0.424792 2.219506 3.109178
v 0.489831 2.142076 3.179580
v 0.478378 2.036614 3.328664
v 0.388005 2.210170 3.264459
v 0.411175 2.271666 3.191868
v 0.324706 2.236180 3.119679
v 0.270657 2.072996 3.190053
v 0.266139 2.079516 3.239358
v 0.062685 2.109887 3.071739
v 0.150813 2.145580 3.151547
v 0.022034 2.071499 3.082967
v -0.090320 2.044202 3.018718
v 0.270579 1.630465 3.172693
v 0.273780 1.883335 3.106615
v 0.163995 1.731186 3.007288
v 0.063029 1.682561 3.034198
v 0.005488 1.617794 3.111752
v 0.023946 1.658136 3.181479
v 0.225054 1.887038 3.183184
v 0.134236 2.037092 3.082369
v 0.142430 1.997739 3.002804
v 0.059716 1.865820 2.928132
v -0.156494 1.677891 2.993233
v -0.129195 1.761377 3.084146
v -0.078148 2.115795 3.092589
v 0.089270 2.040045 3.165645
v 0.004775 2.131862 2.976243
v -0.087826 1.963249 2.865175
v -0.236551 1.818150 2.876546
v -0.219073 1.893136 2.969153
v -0.190224 1.970076 3.033655
v -0.245389 2.479087 3.002685
v -0.143072 2.456092 2.890936
v -0.140021 2.133409 2.783126
v -0.239755 1.965730 2.707464
v -0.431133 1.872770 2.574088
v -0.357315 2.390565 3.053621
v -0.329202 2.233060 2.544111
v -0.307376 2.034985 2.552658
v -0.487212 1.993923 2.720773
v -0.540610 2.184399 2.878694
v -0.410711 2.590938 2.911320
v -0.305421 2.587711 2.797978
v -0.382190 2.124864 2.456676
v -0.501081 1.995591 2.463530
v -0.568289 2.091554 2.621454
v -0.517257 2.470655 2.913423
v -0.509220 2.753840 2.837365
v -0.399384 2.694387 2.689728
v -0.419715 2.433524 2.510392
v -0.453745 2.150235 2.326786
v -0.588587 2.063720 2.386786
v -0.679526 2.132447 2.523847
v -0.736528 2.328940 2.726379
v -0.621645 2.564272 2.798120
v -0.586149 2.817478 2.673474
v -0.523347 2.676061 2.534763
v -0.523219 2.482592 2.415932
v -0.567156 2.224806 2.294066
v -0.676691 2.216946 2.379812
v -0.771987 2.215414 2.457667
v -0.784308 2.431670 2.600564
v -0.744608 2.611891 2.512966
v -0.679138 2.791683 2.397272
v -0.637290 2.527641 2.313975
v -0.686609 2.349992 2.301646
v -0.839018 2.334145 2.396370
v -0.800918 2.517107 2.454532
v -0.695100 2.831686 2.319432
v -0.670968 2.520187 2.190391
v -0.782704 2.382622 2.228457
v -0.868193 2.337687 2.267799
v -0.956903 2.362323 2.331839
v -0.865995 2.577902 2.344666
v -0.801644 2.770803 2.366874
v -0.754132 2.788150 2.170065
v -0.719731 2.700153 2.135545
v -0.731806 2.519905 2.109164
v -0.978668 2.322625 2.205767
v -1.014019 2.442928 2.246688
v -0.923455 2.621660 2.230641
v -0.837804 2.838978 2.224269
v -0.815553 2.740737 2.047142
v -0.734367 2.707337 2.009878
v -0.803471 2.529372 2.050552
v -1.060929 2.338608 2.139936
v -1.031459 2.511834 2.133716
v -0.984748 2.653648 2.118623
v -0.872849 2.829138 2.075995
v -0.839609 2.745576 1.923344
v -0.737871 2.706064 1.891981
v -0.866762 2.530638 1.954666
v -0.975399 2.410347 2.004694
v -1.115139 2.346903 2.059753
v -1.064349 2.527222 2.023735
v -1.060156 2.678101 1.980788
v -0.912219 2.795313 1.943536
v -0.911071 2.692528 1.801157
v -0.843782 2.647103 1.820475
v -0.998896 2.428782 1.913301
v -1.074002 2.437923 1.931548
v -0.938109 2.574866 1.742081
v -1.001782 2.457181 1.799676
v -1.054528 2.490767 1.791610
v -1.042814 2.555696 1.742363
v -0.999238 2.517274 1.585938
v -0.989049 2.465633 1.603705
v -1.012709 2.411419 1.546051
v -1.047660 2.452154 1.640505
v -1.001379 2.373260 1.457677
vn -0.5552 -0.1512 -0.8179
vn -0.3145 0.1831 -0.9314
vn 0.3509 0.8075 -0.4742
vn -0.8603 -0.0258 -0.5091
vn -0.7896 -0.1749 -0.5881
vn -0.4382 -0.7680 -0.4670
vn 0.4939 -0.8125 -0.3097
vn 0.7598 -0.6481 -0.0520
vn 0.8907 -0.2739 -0.3629
vn 0.9053 0.3880 -0.1730
vn -0.7768 0.2184 -0.5906
vn 0.3020 0.8460 -0.4393
vn -0.8245 -0.3094 -0.4738
vn -0.5057 -0.8200 -0.2682
vn 0.4037 -0.9149 -0.0047
vn 0.9971 -0.0438 0.0614
vn 0.9107 0.4115 0.0364
vn 0.7361 0.6768 -0.0115
vn 0.2193 0.9267 -0.3051
vn -0.8624 -0.0728 -0.5009
vn -0.8178 -0.3424 -0.4625
vn -0.3907 -0.8985 -0.2001
vn 0.3588 -0.9248 0.1265
vn 0.9877 0.0082 0.1560
vn 0.8634 0.4709 0.1811
vn -0.8008 0.1324 -0.5842
vn 0.1186 0.9325 -0.3411
vn -0.2924 -0.9458 -0.1412
vn 0.9579 0.0581 0.2813
vn 0.6646 -0.6887 0.2899
vn 0.6971 0.7053 0.1287
vn -0.0096 0.9553 -0.2955
vn -0.8184 -0.1265 -0.5605
vn -0.7601 -0.4257 -0.4910
vn 0.2813 -0.9365 0.2096
vn 0.7130 -0.5871 0.3834
vn 0.9019 0.1482 0.4057
vn 0.7440 0.5920 0.3097
vn 0.6570 0.7167 0.2337
vn -0.7805 0.0759 -0.6206
vn -0.1420 0.8951 -0.4227
vn -0.2607 -0.9654 -0.0095
vn 0.2505 -0.9302 0.2683
vn 0.7338 -0.5080 0.4512
vn 0.8524 0.2174 0.4756
vn -0.7517 0.1149 -0.6494
vn -0.7262 -0.1789 -0.6638
vn -0.6348 -0.5447 -0.5480
vn -0.1693 -0.9850 -0.0344
vn 0.2116 -0.9449 0.2498
vn 0.7325 -0.4622 0.4998
vn 0.8233 0.2767 0.4955
vn 0.6633 0.5978 0.4503
vn 0.6485 0.7260 0.2288
vn -0.6823 0.0463 -0.7296
vn -0.2238 0.7232 -0.6534
vn -0.6482 -0.1975 -0.7354
vn 0.7973 -0.3768 0.4716
vn 0.7903 0.3116 0.5275
vn -0.6505 0.1010 -0.7528
vn -0.5601 -0.2227 -0.7979
vn -0.5587 -0.6958 -0.4514
vn -0.1529 -0.9882 0.0081
vn 0.1020 -0.9700 0.2206
vn 0.7013 -0.3617 0.6143
vn 0.7384 0.3582 0.5714
vn 0.5790 0.7703 0.2673
vn -0.6352 0.1020 -0.7656
vn -0.3548 0.6614 -0.6608
vn -0.5731 -0.1860 -0.7981
vn 0.7035 -0.2957 0.6463
vn 0.6656 0.3997 0.6303
vn -0.6750 -0.1188 -0.7282
vn -0.6218 -0.6453 -0.4438
vn -0.3567 -0.9336 0.0344
vn -0.1169 -0.9520 0.2828
vn 0.4580 -0.2393 0.8561
vn 0.5292 0.4331 0.7297
vn 0.5394 0.5832 0.6074
vn 0.4210 0.8326 0.3599
vn -0.6580 0.2118 -0.7226
vn -0.5698 0.6838 -0.4557
vn 0.3256 -0.1610 0.9317
vn -0.5976 0.6929 -0.4033
vn -0.6740 -0.0841 -0.7339
vn -0.6313 -0.6681 -0.3938
vn -0.5035 -0.8602 -0.0805
vn -0.3013 -0.8948 0.3296
vn 0.3588 0.4126 0.8373
vn 0.4188 0.5250 0.7409
vn 0.2611 0.8775 0.4024
vn -0.5659 0.2947 -0.7700
vn -0.5769 0.7134 -0.3977
vn -0.1983 -0.9215 0.3339
vn 0.0896 -0.0264 0.9956
vn -0.3865 0.3273 -0.8623
vn -0.3816 0.7527 -0.5364
vn -0.4215 -0.1615 -0.8924
vn -0.4551 -0.8343 -0.3113
vn -0.1995 -0.9511 0.2356
vn 0.4053 0.3052 0.8617
vn 0.5040 0.4287 0.7498
vn 0.3195 0.8943 0.3132
vn -0.0947 0.3359 -0.9371
vn -0.0925 0.7638 -0.6389
vn -0.3255 -0.7583 -0.5649
vn 0.0601 -0.9867 0.1511
vn 0.2950 -0.0844 0.9518
vn 0.4975 0.8458 0.1928
vn 0.1914 0.3161 -0.9292
vn 0.1925 0.7604 -0.6203
vn -0.0898 -0.2303 -0.9690
vn -0.1800 -0.6969 -0.6942
vn -0.0625 -0.7755 -0.6282
vn 0.2804 -0.9545 0.1014
vn 0.4046 -0.1507 0.9020
vn 0.5031 0.1718 0.8470
vn 0.6494 0.2920 0.7022
vn 0.3362 0.3263 -0.8835
vn 0.3484 0.7588 -0.5504
vn -0.0659 -0.6260 -0.7770
vn 0.4476 -0.8873 0.1107
vn 0.3706 -0.1893 0.9093
vn 0.4869 0.0320 0.8729
vn 0.6789 0.7304 0.0752
vn 0.3936 0.3900 -0.8324
vn 0.3761 0.8169 -0.4373
vn -0.1040 -0.1744 -0.9792
vn 0.0655 -0.7144 -0.6966
vn 0.3736 -0.9181 0.1322
vn 0.3059 -0.2163 0.9272
vn 0.5777 0.2496 0.7772
vn 0.2859 0.5309 -0.7978
vn 0.3251 0.9118 -0.2509
vn -0.1151 -0.5331 -0.8382
vn -0.0103 -0.9588 0.2838
vn 0.1314 -0.2490 0.9596
vn 0.4188 -0.0652 0.9058
vn 0.4487 0.8624 0.2344
vn 0.1419 0.6424 -0.7531
vn -0.3036 -0.0357 -0.9521
vn -0.2340 -0.4126 -0.8804
vn 0.0165 -0.6306 -0.7760
vn -0.0458 -0.3100 0.9496
vn 0.2613 -0.1491 0.9537
vn 0.3334 0.2538 0.9080
vn 0.3447 0.8817 0.3221
vn -0.1512 0.7893 -0.5951
vn 0.2414 0.9692 -0.0491
vn -0.2724 -0.3093 -0.9111
vn -0.0510 -0.5847 -0.8097
vn -0.2834 -0.8924 0.3512
vn 0.1741 -0.2088 0.9623
vn 0.0866 0.8664 0.4917
vn 0.2451 0.9671 0.0677
vn -0.3214 0.0631 -0.9448
vn -0.2630 -0.2091 -0.9419
vn -0.0704 -0.5429 -0.8369
vn -0.4044 -0.8526 0.3309
vn -0.1508 -0.4070 0.9009
vn 0.0322 -0.2728 0.9615
vn 0.1719 0.2293 0.9581
vn 0.1146 0.8264 0.5512
vn -0.0827 0.7578 -0.6472
vn 0.3326 0.9273 0.1716
vn -0.1414 -0.1206 -0.9826
vn -0.0202 -0.5143 -0.8574
vn -0.3758 -0.8736 0.3092
vn -0.1385 -0.5015 0.8540
vn 0.0640 -0.3693 0.9271
vn 0.0839 0.7504 0.6556
vn 0.4012 0.8685 0.2912
vn -0.1784 0.1147 -0.9772
vn -0.0338 -0.0649 -0.9973
vn 0.0736 -0.4990 -0.8635
vn -0.2939 -0.9156 0.2744
vn -0.0650 -0.6020 0.7959
vn 0.1660 0.2204 0.9612
vn 0.1690 0.6752 0.7180
vn 0.0701 0.7269 -0.6832
vn 0.4435 0.8138 0.3755
vn -0.0799 0.1569 -0.9844
vn 0.0823 0.0059 -0.9966
vn 0.1501 -0.4918 -0.8577
vn -0.2378 -0.9444 0.2270
vn -0.0312 -0.6951 0.7182
vn 0.0113 -0.4474 0.8943
vn 0.1238 0.1879 0.9743
vn 0.1895 0.5893 0.7853
vn 0.0476 0.7227 -0.6895
vn 0.3886 0.7874 0.4786
vn -0.0254 0.2548 -0.9667
vn 0.1406 0.0760 -0.9871
vn 0.1492 -0.4876 -0.8602
vn -0.2561 -0.9516 0.1698
vn -0.0519 -0.7612 0.6464
vn 0.0467 0.5554 0.8303
vn -0.0171 0.7138 -0.7001
vn 0.2457 0.8050 0.5400
vn 0.1005 0.1657 -0.9810
vn 0.0102 -0.4647 -0.8854
vn -0.3383 -0.9355 0.1018
vn -0.1347 -0.8211 0.5547
vn -0.2016 -0.4555 0.8671
vn -0.0850 0.1564 0.9840
vn -0.0953 0.7161 -0.6914
vn 0.0007 0.8004 0.5994
vn -0.0303 0.3706 -0.9283
vn -0.3618 -0.7808 -0.5094
vn -0.4277 -0.9036 0.0239
vn -0.3014 -0.8481 0.4358
vn -0.1695 0.3846 0.9074
vn -0.2882 0.7659 0.5748
vn 0.0181 0.2338 -0.9721
vn -0.5047 -0.8553 -0.1177
vn -0.4917 -0.8332 0.2530
vn -0.4093 -0.4187 0.8106
vn -0.3500 0.1103 0.9302
vn -0.0798 0.6660 -0.7417
vn -0.4185 0.7668 0.4867
vn 0.0093 0.4606 -0.8876
vn -0.2553 -0.4358 -0.8631
vn -0.5540 -0.3872 0.7370
vn -0.5129 0.0520 0.8569
vn -0.4103 0.2990 0.8615
vn 0.0946 0.2613 -0.9606
vn -0.4255 -0.8794 -0.2135
vn -0.5195 -0.8476 0.1077
vn -0.5566 0.0462 0.8295
vn 0.0937 0.6637 -0.7421
vn -0.2553 0.8987 0.3566
vn -0.2465 -0.3799 -0.8916
vn -0.3076 -0.9112 -0.2739
vn -0.5634 -0.3310 0.7570
vn -0.5214 0.0105 0.8532
vn -0.4412 0.2633 0.8579
vn 0.2945 0.6862 -0.6651
vn 0.3261 0.1713 -0.9297
vn 0.0974 -0.5292 -0.8429
vn -0.1170 -0.9465 -0.3009
vn -0.3401 -0.9109 0.2335
vn -0.4868 0.1847 0.8538
vn 0.4368 0.6800 -0.5889
vn 0.0256 0.9826 0.1838
vn 0.5299 0.0832 -0.8440
vn 0.2323 -0.5522 -0.8007
vn 0.1092 -0.9205 -0.3753
vn -0.5981 -0.2374 0.7655
vn -0.5502 -0.0092 0.8350
vn 0.5631 0.6615 -0.4954
vn 0.4134 -0.5909 -0.6928
vn -0.3620 -0.8371 0.4102
vn -0.5020 0.2320 0.8332
vn 0.5958 0.6788 -0.4293
vn 0.1456 0.9887 0.0356
vn 0.7134 0.4222 -0.5592
vn 0.6640 -0.0501 -0.7461
vn 0.4420 -0.6259 -0.6426
vn 0.2162 -0.8998 -0.3789
vn -0.7009 -0.0059 0.7132
vn -0.4639 0.2599 0.8469
vn -0.4803 -0.7751 0.4106
vn -0.7254 -0.1912 0.6613
vn -0.7608 0.3354 0.5557
vn 0.2120 0.9682 -0.1324
vn 0.7293 0.3839 -0.5664
vn 0.4957 -0.3970 -0.7725
vn 0.4604 -0.6374 -0.6179
vn 0.2119 -0.8666 -0.4518
vn -0.7258 -0.6327 0.2702
vn -0.8537 -0.1408 0.5014
vn -0.8570 0.0594 0.5119
vn -0.7225 0.4083 0.5580
vn 0.6203 0.6854 -0.3813
vn 0.3840 0.9115 -0.1476
vn 0.8607 0.2303 -0.4540
vn 0.7688 -0.3352 -0.5447
vn 0.5390 -0.6704 -0.5099
vn 0.1879 -0.9011 -0.3907
vn -0.8748 -0.4451 0.1912
vn -0.9157 0.0347 0.4004
vn -0.7023 0.6018 0.3804
vn -0.9329 0.1426 0.3306
vn 0.9745 0.0908 -0.2052
vn 0.4793 0.8775 -0.0142
vn 0.8150 -0.4890 -0.3107
vn 0.6245 -0.7010 -0.3444
vn 0.0603 -0.9751 -0.2136
vn -0.9547 -0.2639 0.1377
vn -0.9638 0.0128 0.2664
vn -0.9423 0.2581 0.2132
vn -0.6137 0.7671 0.1867
vn 0.9913 -0.0913 -0.0943
vn -0.9844 0.0792 0.1568
vn 0.4412 0.8969 -0.0312
vn 0.8367 0.5464 0.0377
vn 0.6101 -0.7670 -0.1988
vn -0.1847 -0.9560 -0.2281
vn -0.9920 -0.1217 -0.0337
vn -0.9282 0.3721 -0.0013
vn -0.4054 0.9108 0.0776
vn 0.9645 -0.2485 -0.0893
vn 0.7783 -0.6021 -0.1780
vn 0.6201 -0.7282 -0.2918
vn -0.9902 0.1355 -0.0338
vn 0.8810 0.4579 -0.1193
vn -0.4006 -0.7649 -0.5044
vn -0.9527 -0.0304 -0.3022
vn -0.9550 0.1995 -0.2197
vn -0.8410 0.4897 -0.2300
vn -0.1985 0.9652 -0.1700
vn 0.9130 -0.3608 -0.1902
vn 0.7754 -0.6229 -0.1039
vn 0.9271 0.3610 -0.1010
vn -0.4567 -0.6415 -0.6164
vn -0.9013 0.0877 -0.4243
vn -0.7132 0.6237 -0.3200
vn 0.0096 0.9786 -0.2055
vn 0.8730 -0.4877 0.0090
vn 0.5795 -0.8043 -0.1314
vn -0.8453 0.2683 -0.4621
vn 0.0264 0.9912 -0.1294
vn -0.5696 -0.5556 -0.6057
vn -0.5994 0.6955 -0.3963
vn 0.9405 0.1513 0.3041
vn 0.8110 -0.5735 0.1153
vn 0.4952 -0.8687 0.0105
vn -0.7437 0.4587 -0.4863
vn -0.2420 0.9407 -0.2378
vn 0.6786 -0.6713 0.2979
vn -0.5609 -0.5520 -0.6170
vn 0.7188 0.6439 0.2621
vn -0.5427 0.5088 -0.6683
vn 0.0869 -0.9282 -0.3617
vn 0.1708 -0.9370 -0.3047
vn -0.2905 -0.6791 -0.6741
vn -0.2424 -0.1215 -0.9625
vn 0.2841 0.4019 -0.8705
vn -0.6920 -0.3430 -0.6352
vn -0.5662 -0.7600 -0.3190
vn 0.2149 -0.9055 0.3659
vn 0.7656 -0.5759 0.2867
vn 0.9737 -0.0089 0.2275
vn 0.9325 0.3579 -0.0490
vn -0.6515 -0.0578 -0.7565
vn -0.6442 -0.7648 0.0083
vn 0.8614 -0.1252 0.4923
vn 0.8683 0.3185 0.3803
vn 0.8292 0.5544 0.0716
vn -0.1074 0.7790 -0.6177
vn -0.8356 -0.3066 -0.4558
vn 0.6964 -0.0011 0.7177
vn -0.8687 -0.4945 0.0289
vn -0.2261 -0.7266 0.6488
vn 0.5883 0.0476 0.8072
vn 0.6429 0.7653 -0.0321
vn 0.6962 0.6842 0.2173
vn -0.1990 0.6467 -0.7364
vn -0.6991 -0.3497 -0.6236
vn -0.3070 -0.8017 0.5129
vn 0.5118 -0.0193 0.8589
vn 0.1293 0.0051 -0.9916
vn 0.3997 0.7145 -0.5742
vn -0.5036 -0.3468 -0.7912
vn -0.3180 -0.7441 -0.5875
vn 0.1130 -0.9163 0.3841
vn 0.4969 -0.1351 0.8572
vn 0.7589 0.0920 0.6447
vn 0.8026 0.5495 0.2320
vn -0.2197 0.2897 -0.9316
vn -0.5655 -0.1019 -0.8184
vn -0.3365 -0.5951 -0.7298
vn -0.2915 -0.8830 0.3679
vn 0.1927 -0.1829 0.9641
vn 0.6104 0.0371 0.7912
vn 0.7602 0.4495 0.4690
vn -0.3107 0.5774 -0.7550
vn 0.5770 0.7966 -0.1803
vn -0.4774 0.0779 -0.8753
vn -0.3417 -0.4436 -0.8285
vn -0.5292 -0.8142 0.2386
vn 0.1005 -0.3583 0.9282
vn 0.4166 -0.0440 0.9080
vn 0.5797 0.3585 0.7317
vn -0.3112 0.6645 -0.6794
vn 0.4347 0.8843 0.1707
vn -0.4669 0.3238 -0.8229
vn -0.7987 -0.4994 -0.3356
vn -0.6484 -0.7453 0.1554
vn -0.0158 -0.5313 0.8470
vn 0.2114 -0.0761 0.9744
vn 0.3348 0.2676 0.9035
vn -0.4350 0.6787 -0.5916
vn 0.0008 0.8681 0.4965
vn -0.2993 -0.5135 0.8042
vn -0.3394 0.3222 -0.8837
vn 0.0162 0.9048 0.4256
vn -0.5718 -0.2290 -0.7877
vn -0.0992 -0.6186 0.7794
vn 0.1880 0.1194 0.9749
vn -0.2585 0.2182 -0.9410
vn 0.1696 0.9855 -0.0029
vn -0.2965 -0.9257 -0.2349
vn 0.3241 -0.6872 0.6502
vn 0.3744 0.1502 0.9150
vn -0.2476 0.4593 -0.8531
vn -0.3910 -0.0581 -0.9186
vn -0.4060 -0.4795 -0.7780
vn -0.2142 -0.9767 -0.0142
vn 0.2359 -0.3288 0.9145
vn 0.2075 0.0609 0.9763
vn 0.1762 0.4799 0.8594
vn -0.3141 0.9161 -0.2491
vn -0.2634 0.2214 -0.9389
vn -0.2712 -0.5142 -0.8136
vn -0.3229 -0.6240 -0.7116
vn -0.1598 -0.9611 0.2254
vn 0.2232 -0.0255 0.9744
vn 0.1495 0.3511 0.9243
vn -0.0169 0.6611 0.7501
vn -0.6358 0.1513 -0.7569
vn -0.3232 -0.8025 0.5015
vn -0.3977 -0.9170 0.0295
vn -0.2040 0.5351 0.8198
vn -0.2717 -0.9458 0.1778
vn 0.2361 -0.7177 -0.6551
vn -0.0360 -0.1894 -0.9812
vn 0.6168 0.0407 -0.7861
vn -0.2687 -0.4965 -0.8254
vn -0.4831 -0.8098 -0.3329
vn -0.0934 -0.9326 0.3485
vn 0.5273 -0.6096 0.5919
vn 0.6806 0.1524 0.7166
vn 0.9086 0.2536 0.3317
vn 0.4491 0.6410 -0.6224
vn -0.5062 -0.6953 0.5101
vn 0.1873 0.0335 0.9817
vn 0.7009 0.5231 0.4848
vn -0.0534 0.2070 -0.9769
vn 0.5312 0.7286 -0.4323
vn -0.3383 -0.3381 -0.8782
vn -0.5054 -0.6310 -0.5885
vn -0.4240 -0.8180 0.3888
vn 0.1577 -0.1103 0.9813
vn 0.6885 0.4881 0.5363
vn 0.5846 0.7182 -0.3773
vn -0.3740 -0.3742 -0.8486
vn -0.3725 -0.8922 0.2556
vn 0.0114 -0.1295 0.9915
vn 0.5141 0.4204 0.7476
vn 0.1543 0.3179 -0.9355
vn 0.5931 0.8006 -0.0855
vn -0.1387 -0.1339 -0.9812
vn -0.3685 -0.9141 0.1689
vn -0.1732 -0.2684 0.9476
vn 0.2631 -0.0365 0.9641
vn 0.3164 0.3735 -0.8720
vn 0.6773 0.2185 0.7026
vn 0.0865 0.0432 -0.9953
vn 0.1618 -0.4177 -0.8941
vn -0.0808 -0.9920 0.0966
vn -0.1623 -0.5048 0.8478
vn 0.2571 -0.2159 0.9420
vn 0.3888 0.5280 -0.7551
vn 0.5457 0.7715 0.3270
vn -0.0004 0.2371 -0.9715
vn 0.0040 -0.1963 -0.9805
vn -0.4669 -0.8768 -0.1150
vn -0.4175 -0.6074 0.6758
vn -0.0887 -0.2692 0.9590
vn 0.1792 0.2065 0.9619
vn -0.0391 0.7319 -0.6802
vn 0.0927 0.9053 0.4144
vn -0.0538 0.3458 -0.9368
vn -0.1897 0.0370 -0.9811
vn -0.7514 -0.6209 -0.2232
vn -0.1119 0.1985 0.9737
vn 0.0420 0.5690 -0.8212
vn 0.1149 0.9047 0.4103
vn 0.0210 0.3225 -0.9463
vn -0.5341 -0.8179 -0.2141
vn -0.3011 -0.6207 0.7239
vn -0.2214 -0.2081 0.9527
vn -0.1639 0.9390 0.3025
vn 0.0043 0.2700 -0.9628
vn -0.2935 -0.0588 -0.9541
vn -0.4086 -0.8552 -0.3190
vn -0.2729 -0.5850 0.7638
vn -0.2508 -0.1259 0.9598
vn -0.1737 0.2553 0.9511
vn -0.1557 0.9772 -0.1443
vn 0.0967 -0.1331 -0.9864
vn -0.1733 -0.4425 -0.8799
vn -0.0206 -0.1681 0.9856
vn -0.1010 0.6103 0.7857
vn 0.4752 0.2919 -0.8301
vn 0.1815 0.9498 -0.2549
vn -0.0281 -0.9845 0.1728
vn -0.1000 0.1958 0.9755
vn -0.2937 0.7271 0.6205
vn 0.2221 0.0819 -0.9716
vn -0.0742 0.8976 -0.4346
vn 0.1314 -0.4204 -0.8978
vn -0.0183 -0.7446 -0.6673
vn -0.1806 -0.9598 0.2148
vn -0.1442 0.0121 0.9895
vn -0.1992 0.3607 0.9112
vn -0.2266 0.7316 0.6430
vn 0.1523 -0.0777 -0.9853
vn 0.1478 -0.5120 -0.8462
vn -0.3966 -0.8049 0.4415
vn -0.3854 0.4890 0.7825
vn -0.3427 0.8484 0.4035
vn -0.2571 0.8484 -0.4627
vn 0.1426 -0.8828 -0.4477
vn -0.5256 -0.4818 0.7012
vn -0.1979 0.5341 -0.8219
vn -0.5879 0.5470 0.5959
vn -0.1377 -0.9653 0.2218
vn -0.4903 0.6525 -0.5779
vn 0.1311 -0.2346 0.9632
vn 0.4507 -0.4596 -0.7653
vn 0.9396 0.2862 -0.1877
vn 0.1219 -0.6947 -0.7088
vn -0.1672 -0.9780 0.1246
vn -0.2121 -0.3515 0.9119
vn 0.3964 0.3557 0.8464
vn 0.7828 0.2670 -0.5621
vn 0.6492 0.7525 0.1110
vn 0.3695 -0.1587 -0.9156
vn -0.5486 -0.8037 -0.2305
vn -0.6886 -0.1608 0.7071
vn -0.0278 0.4588 0.8881
vn -0.0849 0.4514 0.8883
vn 0.8376 0.4754 -0.2692
vn 0.5565 -0.1865 -0.8096
vn -0.3861 -0.8991 -0.2060
vn -0.9780 0.1679 0.1238
vn -0.5749 -0.1460 0.8051
vn 0.9341 0.3553 0.0345
vn 0.3836 0.6422 0.6636
vn 0.8040 0.0334 -0.5937
vn 0.7085 -0.3658 -0.6035
vn -0.2331 -0.9029 -0.3611
vn -0.3493 0.0718 0.9343
vn 0.8098 0.1822 -0.5577
vn 0.7215 -0.2367 -0.6507
vn -0.7524 -0.5774 0.3170
vn -0.7163 -0.3149 0.6227
vn 0.7577 0.5978 -0.2619
vn 0.1518 0.6867 0.7109
vn 0.7039 -0.2088 -0.6789
vn -0.1805 -0.8404 -0.5110
vn -0.7379 -0.6229 0.2598
vn -0.6368 0.1023 0.7642
vn 0.7398 0.5979 -0.3086
vn -0.0051 0.8223 0.5690
vn 0.7490 0.3075 -0.5869
vn 0.6476 -0.0832 -0.7574
vn -0.2765 -0.7196 -0.6369
vn -0.7453 -0.6185 0.2489
vn -0.8582 -0.1828 0.4796
vn -0.7557 0.2099 0.6204
vn 0.5483 0.6526 -0.5230
vn -0.3140 0.9384 0.1440
vn 0.6508 0.2809 -0.7053
vn 0.3049 0.1065 -0.9464
vn -0.4413 -0.4627 -0.7689
vn -0.9070 -0.4137 0.0794
vn -0.9252 0.0357 0.3777
vn -0.8044 0.3754 0.4605
vn 0.8046 0.0867 -0.5875
vn 0.1211 0.9886 0.0897
vn 0.1145 -0.1056 -0.9878
vn -0.8569 -0.2965 0.4216
vn -0.8964 0.0680 0.4380
vn 0.8533 -0.2123 -0.4763
vn 0.4546 -0.5472 -0.7028
vn -0.0643 -0.9854 0.1578
vn -0.6646 -0.2060 0.7182
vn -0.7855 0.2175 0.5794
vn -0.6150 0.5843 0.5295
vn 0.4647 0.8720 0.1535
vn 0.9574 0.0233 -0.2877
vn 0.3677 0.9013 -0.2289
vn 0.5674 -0.7503 -0.3393
vn -0.4160 -0.9084 -0.0425
vn -0.8693 0.0293 0.4933
vn -0.7760 0.3924 0.4939
vn -0.6205 0.7277 0.2922
vn 0.9590 -0.0757 -0.2730
vn 0.4910 0.8368 -0.2423
vn 0.6237 -0.6525 -0.4304
vn -0.5856 -0.8054 0.0914
vn -0.9028 0.1473 0.4040
vn -0.7515 0.5239 0.4010
vn -0.5250 0.8349 0.1652
vn 0.8791 -0.1209 -0.4610
vn 0.4612 0.7905 -0.4031
vn 0.7044 -0.6213 -0.3433
vn 0.4293 -0.8848 -0.1813
vn -0.7166 -0.6561 -0.2369
vn -0.9671 0.1479 0.2068
vn -0.8640 0.5030 0.0231
vn -0.5112 0.8489 -0.1343
vn 0.7211 -0.0916 -0.6867
vn -0.0345 0.6899 -0.7231
vn 0.2259 -0.8755 -0.4271
vn -0.7400 -0.4970 -0.4533
vn 0.8802 -0.3166 -0.3536
vn 0.3509 -0.8393 -0.4154
vn -0.8944 -0.3746 -0.2443
vn -0.8747 0.3725 -0.3101
vn 0.9691 -0.1241 -0.2133
vn -0.1747 0.6094 -0.7734
vn 0.5712 -0.7695 0.2857
vn -0.9287 -0.3503 -0.1214
vn -0.2369 -0.9715 -0.0002
vt 0.483506 0.000000
vt 0.904508 0.050000
vt 1.000171 0.050000
vt 0.654508 0.050331
vt 0.345491 0.050000
vt 0.095491 0.050000
vt 0.000000 0.050000
vt 0.654508 0.050000
vt 0.904508 0.123508
vt 1.000000 0.100000
vt 0.345491 0.100000
vt 0.095491 0.100000
vt 0.004776 0.100000
vt 0.654508 0.100000
vt 0.904508 0.129467
vt 1.000000 0.150000
vt 0.654508 0.182196
vt 0.345491 0.162858
vt 0.095491 0.150000
vt 0.054791 0.165356
vt 0.345491 0.150000
vt 0.654508 0.150000
vt 0.904508 0.219378
vt 1.000000 0.200000
vt 0.095491 0.232904
vt 0.345491 0.200000
vt 0.095491 0.200000
vt 0.901905 0.200000
vt 1.000000 0.250000
vt 0.654508 0.280348
vt 0.345492 0.290827
vt 0.000000 0.250000
vt 0.095491 0.250000
vt 0.345491 0.250000
vt 0.654508 0.257109
vt 0.904508 0.260377
vt 0.904508 0.300000
vt 1.000000 0.318868
vt 0.095491 0.300000
vt 0.000000 0.300000
vt 0.345491 0.300000
vt 0.904508 0.350000
vt 0.654508 0.350000
vt 0.345491 0.382794
vt 0.095491 0.375130
vt 0.000000 0.375187
vt 0.095491 0.350000
vt 0.345491 0.350000
vt 0.654508 0.486142
vt 0.904508 0.378565
vt 0.904508 0.400000
vt 1.000000 0.415352
vt 0.654508 0.400000
vt 0.095491 0.400000
vt 0.345491 0.400000
vt 0.904508 0.450000
vt 0.654508 0.450000
vt 0.345491 0.484112
vt 0.095491 0.489036
vt 0.000000 0.469576
vt 0.095491 0.450000
vt 0.345491 0.450000
vt 0.904508 0.493303
vt 0.904508 0.514605
vt 1.000000 0.530046
vt 0.654508 0.500000
vt 0.095491 0.500000
vt 0.345491 0.500000
vt 0.654508 0.574882
vt 0.345492 0.565252
vt 0.095491 0.570282
vt 0.000000 0.586490
vt 0.095491 0.550000
vt 0.345492 0.561652
vt 0.654508 0.581072
vt 0.904508 0.580903
vt 0.904508 0.636050
vt 1.000000 0.600000
vt 0.095491 0.617576
vt 1.000000 0.650000
vt 0.654508 0.681191
vt 0.345491 0.732976
vt 0.095491 0.689507
vt 0.000000 0.650000
vt 0.345491 0.672162
vt 0.654508 0.674035
vt 0.904508 0.669404
vt 0.904508 0.700000
vt 1.000000 0.700000
vt 0.000000 0.700000
vt 0.095491 0.741082
vt 0.904508 0.750000
vt 1.000000 0.750000
vt 0.654508 0.781610
vt 0.095491 0.750000
vt 0.000000 0.750000
vt 0.345491 0.782202
vt 0.654508 0.781143
vt 0.904508 0.800000
vt 1.000000 0.800000
vt 0.337846 0.800000
vt 0.000000 0.800000
vt 0.095491 0.800000
vt 0.904508 0.811189
vt 0.904508 0.850000
vt 1.000000 0.850000
vt 0.654508 0.872573
vt 0.345491 0.850000
vt 0.095491 0.868378
vt 0.000000 0.850000
vt 0.095491 0.850000
vt 0.654508 0.860636
vt 0.904508 0.900000
vt 1.000000 0.900000
vt 0.345491 0.924037
vt 0.000000 0.900000
vt 0.095491 0.900000
vt 0.345491 0.924386
vt 0.904508 0.938070
vt 0.904508 0.950000
vt 1.000000 0.950000
vt 0.654508 0.970707
vt 0.095491 0.976584
vt 0.000000 0.950000
vt 0.095491 0.950000
vt 0.654508 0.986246
vt 0.904508 1.000000
vt 1.000000 1.020530
vt 0.345491 1.000000
vt 0.000000 1.023598
vt 0.095491 1.000000
vt 0.904508 1.050000
vt 0.654508 1.061576
vt 0.345491 1.050000
vt 0.095491 1.050000
vt 0.095491 1.069690
vt 0.654508 1.079486
vt 0.904508 1.120857
vt 1.000000 1.100000
vt 0.345491 1.100000
vt 0.095491 1.100000
vt 0.000000 1.100000
vt 0.904508 1.100000
vt 1.000000 1.150000
vt 0.654508 1.183763
vt 0.345491 1.150000
vt 0.095491 1.150000
vt 0.000000 1.150000
vt 0.654508 1.176578
vt 0.904508 1.150000
vt 0.904508 1.235245
vt 1.000000 1.200000
vt 0.345491 1.200000
vt 0.095491 1.200000
vt 0.000000 1.200000
vt 0.345492 1.216930
vt 0.904508 1.200000
vt 1.000000 1.250000
vt 0.654508 1.250000
vt 0.345491 1.250000
vt 0.095491 1.250000
vt 0.000000 1.250000
vt 0.904508 1.250000
vt 0.904508 1.300000
vt 1.000000 1.300000
vt 0.654508 1.300000
vt 0.345491 1.300000
vt 0.095491 1.300000
vt 0.000000 1.300000
vt 0.345491 1.326810
vt 0.654508 1.334702
vt 0.904508 1.350000
vt 1.000000 1.350000
vt 0.654508 1.373626
vt 0.345491 1.350000
vt 0.095491 1.350000
vt 0.000000 1.350000
vt 0.904508 1.361578
vt 0.904508 1.400000
vt 1.000000 1.400000
vt 0.345491 1.426198
vt 0.095491 1.400000
vt 0.000000 1.400000
vt 0.345491 1.429444
vt 0.654508 1.424748
vt 0.904508 1.458382
vt 1.000000 1.450000
vt 0.654508 1.475531
vt 0.095491 1.466614
vt 0.000000 1.450000
vt 0.095491 1.450000
vt 0.904508 1.481228
vt 1.000000 1.500000
vt 0.345491 1.527166
vt 0.000000 1.524843
vt 0.095491 1.516762
vt 0.345491 1.500000
vt 0.654508 1.500000
vt 0.904508 1.586940
vt 1.000000 1.569626
vt 0.654508 1.584976
vt 0.095491 1.588586
vt 0.345492 1.569874
vt 0.654508 1.550000
vt 0.904508 1.581756
vt 0.345491 1.621934
vt 0.000000 1.600000
vt 0.095491 1.629861
vt 0.654508 1.600000
vt 0.904124 1.650000
vt 1.000000 1.682969
vt 0.095491 1.650000
vt 0.000000 1.650000
vt 0.345491 1.670221
vt 0.654508 1.674570
vt 0.904508 1.650000
vt 0.907468 1.700000
vt 0.345491 1.700000
vt 0.095491 1.700000
vt 0.000000 1.700000
vt 0.095491 1.719797
vt 0.904508 1.723938
vt 0.908817 1.750000
vt 1.000000 1.776811
vt 0.345491 1.761969
vt 0.095491 1.750000
vt 0.000000 1.760767
vt 0.345491 1.830457
vt 0.654508 1.769755
vt 0.908469 1.800000
vt 0.095491 1.800000
vt 0.095491 1.841512
vt 0.904508 1.800000
vt 0.904508 1.906855
vt 1.000000 1.871159
vt 0.654508 1.879847
vt 0.345491 1.883428
vt 0.095491 1.866504
vt 0.000000 1.880255
vt 0.654508 1.883195
vt 0.904508 1.850000
vt 0.095491 1.900000
vt 0.345491 1.900000
vt 0.904508 1.900000
vt 1.000000 1.960277
vt 0.654508 1.974526
vt 0.345491 1.979960
vt 0.095491 1.984097
vt 0.000000 1.971441
vt 0.095491 1.973747
vt 0.345491 1.967941
vt 0.654508 1.982562
vt 0.904508 1.969340
vt 0.904508 2.041906
vt 1.002934 2.091646
vt 0.654508 2.069314
vt 0.345491 2.083836
vt 0.095491 2.075616
vt 0.000000 2.081525
vt 0.095491 2.076308
vt 0.437125 2.050000
vt 0.904508 2.072292
vt 0.630837 2.100000
vt 0.651847 2.150000
vt 0.980684 2.160114
vt 0.345491 2.177299
vt 0.095491 2.160951
vt 0.000000 2.184601
vt 0.095491 2.182758
vt 0.345491 2.150000
vt 0.654508 2.180488
vt 0.904508 2.173723
vt 0.654508 2.223281
vt 0.345492 2.224437
vt 1.000000 2.305663
vt 0.904508 2.286119
vt 0.092162 2.250000
vt 0.000000 2.284039
vt 0.095491 2.275824
vt 0.654508 2.279131
vt 0.904508 2.272443
vt 0.654508 2.323513
vt 0.345492 2.311403
vt 0.095491 2.360694
vt 0.345491 2.300000
vt 0.904508 2.385801
vt 0.000000 2.373384
vt 0.095491 2.365731
vt 0.345491 2.378087
vt 0.654508 2.369248
vt 0.904509 2.361029
vt 0.654508 2.424138
vt 0.345491 2.460525
vt 0.911901 2.513945
vt 0.000000 2.473395
vt 0.121253 2.450000
vt 0.654508 2.464748
vt 0.905963 2.487323
vt 0.644382 2.532788
vt 0.095491 2.528487
vt 0.350332 2.524489
vt 0.903049 2.572127
vt 0.000000 2.572135
vt 0.654508 2.569608
vt 0.904508 2.622049
vt 0.519598 2.600000
vt 0.095491 2.638793
vt 0.487631 2.633500
vt 0.781176 2.669296
vt 0.366028 2.674649
vt 0.000000 2.679790
vt 0.944914 2.745414
vt 0.375219 2.724920
vt 0.086970 2.750000
vt 0.462953 2.800000
vt 0.498406 0.000000
vt 0.853553 0.055556
vt 1.000000 0.060426
vt 0.500000 0.063346
vt 0.146447 0.055556
vt 0.000000 0.056365
vt 0.500000 0.055556
vt 0.853553 0.147481
vt 0.146171 0.158618
vt 0.146447 0.111111
vt 0.500000 0.147445
vt 0.853553 0.156896
vt 1.000000 0.200868
vt 0.500000 0.212308
vt 0.146447 0.166667
vt 0.146447 0.222222
vt 0.000000 0.222222
vt 0.827013 0.273607
vt 0.853553 0.222222
vt 0.986338 0.277778
vt 0.500000 0.277778
vt 0.004504 0.277778
vt 0.157970 0.277778
vt 0.853553 0.333333
vt 1.000000 0.352055
vt 0.500000 0.333333
vt 0.146447 0.333333
vt 0.000000 0.333333
vt 0.853553 0.388889
vt 0.500000 0.388889
vt 0.146447 0.388889
vt 0.000000 0.388889
vt 0.853553 0.444444
vt 1.000000 0.444444
vt 0.500000 0.444444
vt 0.146447 0.444444
vt 0.000000 0.444444
vt 0.853553 0.500000
vt 1.000000 0.500000
vt 0.500000 0.537696
vt 0.146447 0.505590
vt 0.000000 0.500000
vt 0.146447 0.500000
vt 0.500000 0.502237
vt 0.853553 0.533409
vt 0.853553 0.555556
vt 1.000000 0.555556
vt 0.147291 0.555556
vt 0.497524 0.611111
vt 1.000000 0.611111
vt 0.146447 0.615805
vt 0.132461 0.611111
vt 0.750834 0.613538
vt 0.532838 0.666667
vt 1.000000 0.675483
vt 0.000000 0.666667
vt 0.146447 0.666667
vt 0.853553 0.666667
vt 0.853553 0.739355
vt 0.500000 0.745922
vt 0.146447 0.750490
vt 0.000000 0.747542
vt 0.146447 0.745723
vt 0.500000 0.747959
vt 0.853553 0.742425
vt 1.000000 0.829795
vt 0.853553 0.833333
vt 0.500000 0.833333
vt 0.291003 0.873488
vt 0.000000 0.833333
vt 0.146447 0.833333
vt 0.500000 0.834139
vt 0.853553 0.835709
vt 0.886773 0.920742
vt 0.043608 0.888889
vt 0.235276 0.944444
vt 0.141811 0.944444
vt 0.540647 1.000000
vt 0.462468 0.090000
vt 0.853553 0.154022
vt 1.000000 0.145556
vt 0.500000 0.150200
vt 0.146447 0.147268
vt 0.000000 0.145556
vt 0.146447 0.145556
vt 0.500000 0.152311
vt 0.853553 0.145556
vt 1.000000 0.201111
vt 0.000000 0.201111
vt 0.146447 0.201111
vt 0.853553 0.201111
vt 0.853553 0.264249
vt 1.000000 0.256667
vt 0.463858 0.262346
vt 0.146447 0.256667
vt 0.000000 0.256667
vt 0.169413 0.260276
vt 0.825799 0.256667
vt 1.000000 0.312222
vt 0.500000 0.312222
vt 0.000000 0.312222
vt 0.146447 0.312222
vt 0.853553 0.324452
vt 0.853553 0.367778
vt 1.000000 0.367778
vt 0.462786 0.367778
vt 0.000000 0.367778
vt 0.146447 0.367778
vt 0.500000 0.367778
vt 0.853553 0.423333
vt 0.848916 0.423333
vt 0.500000 0.423333
vt 0.146447 0.423333
vt 0.000000 0.423333
vt 0.853553 0.478889
vt 1.000000 0.478889
vt 0.500000 0.478889
vt 0.146447 0.478889
vt 0.000000 0.478889
vt 0.146447 0.528030
vt 0.500000 0.481333
vt 0.853553 0.534444
vt 1.000000 0.534444
vt 0.500000 0.534444
vt 0.146447 0.555342
vt 0.000000 0.534444
vt 0.853553 0.566288
vt 0.853553 0.604795
vt 1.000000 0.590000
vt 0.500000 0.590000
vt 0.000000 0.590000
vt 0.146447 0.590000
vt 1.000000 0.645556
vt 0.500000 0.645556
vt 0.146447 0.645556
vt 0.000000 0.689850
vt 0.853553 0.645556
vt 1.004730 0.701111
vt 0.470081 0.724016
vt 0.146447 0.701111
vt 0.146447 0.733266
vt 0.854650 0.701111
vt 0.853553 0.756667
vt 1.000000 0.756667
vt 0.000000 0.756667
vt 0.500000 0.756667
vt 0.853553 0.812222
vt 1.000000 0.817683
vt 0.500000 0.812222
vt 0.146447 0.825769
vt 0.000000 0.812222
vt 0.146447 0.812222
vt 0.853553 0.904358
vt 0.500000 0.879942
vt 0.014540 0.867778
vt 0.500000 0.902740
vt 0.853553 0.899772
vt 1.000000 0.933868
vt 0.146447 0.952788
vt 0.065801 0.940368
vt 0.850517 1.024424
vt 0.511862 0.986115
vt 0.007899 1.034445
vt 0.403712 1.090000
vt 0.470011 0.180000
vt 0.500000 0.235556
vt 0.985457 0.235556
vt 0.146447 0.244658
vt 0.000000 0.235556
vt 0.162029 0.235556
vt 0.853553 0.235556
vt 0.853553 0.291111
vt 1.000000 0.291111
vt 0.500000 0.291111
vt 0.000000 0.291111
vt 0.146447 0.291111
vt 0.843200 0.345040
vt 0.876080 0.346667
vt 0.370630 0.346667
vt 0.003459 0.347979
vt 0.146447 0.346667
vt 0.500000 0.348585
vt 0.853553 0.445277
vt 1.000000 0.450647
vt 0.500000 0.402222
vt 0.146447 0.402222
vt 0.000000 0.448750
vt 0.853553 0.449209
vt 0.500000 0.499918
vt 0.146447 0.457778
vt 0.500000 0.476342
vt 0.853553 0.513333
vt 1.000000 0.513333
vt 0.146447 0.513333
vt 0.000000 0.513333
vt 0.853553 0.568889
vt 1.000000 0.568889
vt 0.500000 0.568889
vt 0.146447 0.568889
vt 0.000000 0.568889
vt 0.853553 0.624444
vt 1.000000 0.624444
vt 0.500000 0.624444
vt 0.146447 0.624444
vt 0.000000 0.624444
vt 0.853553 0.666169
vt 0.518082 0.680000
vt 0.960161 0.695113
vt 0.144706 0.680000
vt 0.146447 0.680000
vt 0.500000 0.680000
vt 0.488210 0.737408
vt 0.146447 0.735556
vt 0.000000 0.735556
vt 0.500000 0.735556
vt 0.853553 0.735556
vt 1.000000 0.735556
vt 0.853553 0.791111
vt 1.000000 0.791111
vt 0.500000 0.791111
vt 0.000000 0.791111
vt 0.146447 0.791111
vt 0.853553 0.846667
vt 1.000000 0.846667
vt 0.502810 0.846667
vt 0.000000 0.846667
vt 0.146447 0.846667
vt 0.500000 0.846667
vt 0.853553 0.902222
vt 1.000000 0.902222
vt 0.500000 0.902222
vt 0.146447 0.902222
vt 0.000000 0.902222
vt 0.500000 0.911491
vt 0.853553 0.957778
vt 0.966808 0.970882
vt 0.144355 0.957778
vt -0.000451 0.957778
vt 0.824345 1.013333
vt 0.146447 1.013333
vt 0.095044 1.013333
vt 0.514932 1.013333
vt 0.584648 1.100700
vt 0.969769 1.089974
vt 0.103612 1.125500
vt 0.280225 1.071493
vt 0.377419 1.180000
s 1
f 1/1/1 3/2/2 2/3/3
f 1/1/1 4/4/4 3/2/2
f 1/1/1 5/5/5 4/4/4
f 1/1/1 6/6/6 5/5/5
f 1/1/1 7/7/7 6/6/6
f 1/1/1 8/6/8 7/7/7
f 1/1/1 9/5/9 8/6/8
f 1/1/1 10/8/10 9/5/9
f 1/1/1 2/3/3 10/8/10
f 2/3/3 3/2/2 12/9/11
f 2/3/3 12/9/11 11/10/12
f 3/2/2 4/4/4 12/9/11
f 4/4/4 5/5/5 13/11/13
f 5/5/5 6/6/6 14/12/14
f 5/5/5 14/12/14 13/11/13
f 6/6/6 7/7/7 15/13/15
f 6/6/6 15/13/15 14/12/14
f 7/7/7 8/6/8 15/13/15
f 8/6/8 9/5/9 16/11/16
f 8/6/8 16/11/16 15/13/15
f 9/5/9 10/8/10 17/14/17
f 9/5/9 17/14/17 16/11/16
f 10/8/10 2/3/3 18/15/18
f 10/8/10 18/15/18 17/14/17
f 2/3/3 11/10/12 18/15/18
f 11/10/12 12/9/11 19/16/19
f 12/9/11 4/4/4 20/17/20
f 4/4/4 13/11/13 21/18/21
f 4/4/4 21/18/21 20/17/20
f 13/11/13 14/12/14 22/19/22
f 13/11/13 22/19/22 21/18/21
f 14/12/14 15/13/15 23/20/23
f 14/12/14 23/20/23 22/19/22
f 15/13/15 16/11/16 24/21/24
f 15/13/15 24/21/24 23/20/23
f 16/11/16 17/14/17 25/22/25
f 16/11/16 25/22/25 24/21/24
f 17/14/17 18/15/18 25/22/25
f 18/15/18 11/10/12 19/16/19
f 19/16/19 12/9/11 27/23/26
f 19/16/19 27/23/26 26/24/27
f 12/9/11 20/17/20 27/23/26
f 21/18/21 22/19/22 28/25/28
f 22/19/22 23/20/23 28/25/28
f 23/20/23 24/21/24 30/26/29
f 23/20/23 30/26/29 29/27/30
f 24/21/24 25/22/25 31/28/31
f 24/21/24 31/28/31 30/26/29
f 25/22/25 18/15/18 31/28/31
f 18/15/18 19/16/19 26/24/27
f 18/15/18 26/24/27 31/28/31
f 26/24/27 27/23/26 32/29/32
f 27/23/26 20/17/20 33/30/33
f 20/17/20 21/18/21 34/31/34
f 20/17/20 34/31/34 33/30/33
f 21/18/21 28/25/28 34/31/34
f 28/25/28 23/20/23 35/32/35
f 23/20/23 29/27/30 36/33/36
f 23/20/23 36/33/36 35/32/35
f 29/27/30 30/26/29 37/34/37
f 29/27/30 37/34/37 36/33/36
f 30/26/29 31/28/31 38/35/38
f 30/26/29 38/35/38 37/34/37
f 31/28/31 39/36/39 38/35/38
f 31/28/31 26/24/27 32/29/32
f 31/28/31 32/29/32 39/36/39
f 32/29/32 27/23/26 41/37/40
f 32/29/32 41/37/40 40/38/41
f 27/23/26 33/30/33 41/37/40
f 34/31/34 28/25/28 42/39/42
f 28/25/28 35/32/35 43/40/43
f 28/25/28 43/40/43 42/39/42
f 35/32/35 36/33/36 44/39/44
f 35/32/35 44/39/44 43/40/43
f 36/33/36 37/34/37 45/41/45
f 36/33/36 45/41/45 44/39/44
f 37/34/37 38/35/38 45/41/45
f 39/36/39 32/29/32 40/38/41
f 40/38/41 41/37/40 46/42/46
f 41/37/40 33/30/33 47/43/47
f 41/37/40 47/43/47 46/42/46
f 33/30/33 34/31/34 48/44/48
f 33/30/33 48/44/48 47/43/47
f 34/31/34 42/39/42 49/45/49
f 34/31/34 49/45/49 48/44/48
f 42/39/42 43/40/43 50/46/50
f 42/39/42 50/46/50 49/45/49
f 43/40/43 44/39/44 51/47/51
f 43/40/43 51/47/51 50/46/50
f 44/39/44 45/41/45 52/48/52
f 44/39/44 52/48/52 51/47/51
f 45/41/45 38/35/38 53/49/53
f 45/41/45 53/49/53 52/48/52
f 38/35/38 39/36/39 54/50/54
f 38/35/38 54/50/54 53/49/53
f 39/36/39 40/38/41 54/50/54
f 40/38/41 46/42/46 56/51/55
f 40/38/41 56/51/55 55/52/56
f 46/42/46 47/43/47 57/53/57
f 46/42/46 57/53/57 56/51/55
f 47/43/47 48/44/48 57/53/57
f 50/46/50 51/47/51 58/54/58
f 51/47/51 52/48/52 59/55/59
f 51/47/51 59/55/59 58/54/58
f 52/48/52 53/49/53 59/55/59
f 54/50/54 40/38/41 55/52/56
f 55/52/56 56/51/55 60/56/60
f 56/51/55 57/53/57 61/57/61
f 56/51/55 61/57/61 60/56/60
f 57/53/57 48/44/48 62/58/62
f 57/53/57 62/58/62 61/57/61
f 48/44/48 49/45/49 63/59/63
f 48/44/48 63/59/63 62/58/62
f 49/45/49 50/46/50 64/60/64
f 49/45/49 64/60/64 63/59/63
f 50/46/50 58/54/58 65/61/65
f 50/46/50 65/61/65 64/60/64
f 58/54/58 59/55/59 66/62/66
f 58/54/58 66/62/66 65/61/65
f 59/55/59 53/49/53 66/62/66
f 53/49/53 54/50/54 67/63/67
f 54/50/54 55/52/56 67/63/67
f 55/52/56 60/56/60 69/64/68
f 55/52/56 69/64/68 68/65/69
f 60/56/60 61/57/61 70/66/70
f 60/56/60 70/66/70 69/64/68
f 61/57/61 62/58/62 70/66/70
f 64/60/64 65/61/65 71/67/71
f 65/61/65 66/62/66 72/68/72
f 65/61/65 72/68/72 71/67/71
f 66/62/66 53/49/53 72/68/72
f 67/63/67 55/52/56 68/65/69
f 69/64/68 70/66/70 73/69/73
f 70/66/70 62/58/62 74/70/74
f 70/66/70 74/70/74 73/69/73
f 62/58/62 63/59/63 75/71/75
f 62/58/62 75/71/75 74/70/74
f 63/59/63 64/60/64 76/72/76
f 63/59/63 76/72/76 75/71/75
f 64/60/64 71/67/71 77/73/77
f 64/60/64 77/73/77 76/72/76
f 71/67/71 72/68/72 78/74/78
f 71/67/71 78/74/78 77/73/77
f 72/68/72 53/49/53 79/75/79
f 72/68/72 79/75/79 78/74/78
f 53/49/53 67/63/67 80/76/80
f 53/49/53 80/76/80 79/75/79
f 67/63/67 68/65/69 80/76/80
f 68/65/69 69/64/68 82/77/81
f 68/65/69 82/77/81 81/78/82
f 69/64/68 73/69/73 82/77/81
f 76/72/76 77/73/77 83/79/83
f 77/73/77 78/74/78 83/79/83
f 80/76/80 68/65/69 81/78/82
f 81/78/82 82/77/81 84/80/84
f 82/77/81 73/69/73 85/81/85
f 73/69/73 74/70/74 86/82/86
f 73/69/73 86/82/86 85/81/85
f 74/70/74 75/71/75 87/83/87
f 74/70/74 87/83/87 86/82/86
f 75/71/75 76/72/76 88/84/88
f 75/71/75 88/84/88 87/83/87
f 76/72/76 83/79/83 88/84/88
f 83/79/83 78/74/78 89/85/89
f 78/74/78 79/75/79 90/86/90
f 78/74/78 90/86/90 89/85/89
f 79/75/79 80/76/80 91/87/91
f 79/75/79 91/87/91 90/86/90
f 80/76/80 81/78/82 84/80/84
f 80/76/80 84/80/84 91/87/91
f 84/80/84 82/77/81 93/88/92
f 84/80/84 93/88/92 92/89/93
f 82/77/81 85/81/85 93/88/92
f 87/83/87 88/84/88 94/90/94
f 88/84/88 83/79/83 95/91/95
f 88/84/88 95/91/95 94/90/94
f 83/79/83 89/85/89 95/91/95
f 91/87/91 84/80/84 92/89/93
f 92/89/93 93/88/92 97/92/96
f 92/89/93 97/92/96 96/93/97
f 93/88/92 85/81/85 98/94/98
f 93/88/92 98/94/98 97/92/96
f 85/81/85 86/82/86 98/94/98
f 86/82/86 87/83/87 99/95/99
f 87/83/87 94/90/94 100/96/100
f 87/83/87 100/96/100 99/95/99
f 94/90/94 95/91/95 100/96/100
f 95/91/95 89/85/89 101/97/101
f 89/85/89 90/86/90 102/98/102
f 89/85/89 102/98/102 101/97/101
f 90/86/90 91/87/91 103/92/103
f 90/86/90 103/92/103 102/98/102
f 91/87/91 92/89/93 96/93/97
f 91/87/91 96/93/97 103/92/103
f 96/93/97 97/92/96 105/99/104
f 96/93/97 105/99/104 104/100/105
f 97/92/96 98/94/98 105/99/104
f 98/94/98 86/82/86 106/101/106
f 86/82/86 99/95/99 106/101/106
f 99/95/99 100/96/100 107/102/107
f 99/95/99 107/102/107 106/101/106
f 100/96/100 95/91/95 108/103/108
f 100/96/100 108/103/108 107/102/107
f 95/91/95 101/97/101 108/103/108
f 102/98/102 103/92/103 109/104/109
f 103/92/103 96/93/97 104/100/105
f 103/92/103 104/100/105 109/104/109
f 104/100/105 105/99/104 111/105/110
f 104/100/105 111/105/110 110/106/111
f 105/99/104 98/94/98 112/107/112
f 105/99/104 112/107/112 111/105/110
f 98/94/98 106/101/106 113/108/113
f 98/94/98 113/108/113 112/107/112
f 106/101/106 114/109/114 113/108/113
f 106/101/106 107/102/107 115/110/115
f 106/101/106 115/110/115 114/109/114
f 107/102/107 108/103/108 116/111/116
f 107/102/107 116/111/116 115/110/115
f 108/103/108 101/97/101 117/108/117
f 108/103/108 117/108/117 116/111/116
f 101/97/101 102/98/102 118/112/118
f 101/97/101 118/112/118 117/108/117
f 102/98/102 109/104/109 118/112/118
f 109/104/109 104/100/105 110/106/111
f 110/106/111 111/105/110 120/113/119
f 110/106/111 120/113/119 119/114/120
f 111/105/110 112/107/112 120/113/119
f 112/107/112 113/108/113 121/115/121
f 113/108/113 114/109/114 121/115/121
f 114/109/114 115/110/115 122/116/122
f 115/110/115 116/111/116 123/117/123
f 115/110/115 123/117/123 122/116/122
f 116/111/116 117/108/117 124/118/124
f 116/111/116 124/118/124 123/117/123
f 117/108/117 118/112/118 124/118/124
f 118/112/118 109/104/109 125/119/125
f 109/104/109 110/106/111 119/114/120
f 109/104/109 119/114/120 125/119/125
f 119/114/120 120/113/119 127/120/126
f 119/114/120 127/120/126 126/121/127
f 120/113/119 112/107/112 128/122/128
f 120/113/119 128/122/128 127/120/126
f 112/107/112 121/115/121 128/122/128
f 121/115/121 114/109/114 129/123/129
f 114/109/114 122/116/122 130/124/130
f 114/109/114 130/124/130 129/123/129
f 122/116/122 123/117/123 131/125/131
f 122/116/122 131/125/131 130/124/130
f 123/117/123 124/118/124 131/125/131
f 124/118/124 118/112/118 132/126/132
f 118/112/118 125/119/125 132/126/132
f 125/119/125 119/114/120 126/121/127
f 126/121/127 127/120/126 134/127/133
f 126/121/127 134/127/133 133/128/134
f 127/120/126 128/122/128 134/127/133
f 128/122/128 121/115/121 135/129/135
f 121/115/121 129/123/129 135/129/135
f 129/123/129 130/124/130 136/130/136
f 130/124/130 131/125/131 137/131/137
f 130/124/130 137/131/137 136/130/136
f 131/125/131 124/118/124 138/129/138
f 131/125/131 138/129/138 137/131/137
f 124/118/124 132/126/132 138/129/138
f 132/126/132 125/119/125 139/127/139
f 125/119/125 126/121/127 133/128/134
f 125/119/125 133/128/134 139/127/139
f 133/128/134 134/127/133 140/132/140
f 134/127/133 128/122/128 141/133/141
f 134/127/133 141/133/141 140/132/140
f 128/122/128 135/129/135 142/134/142
f 128/122/128 142/134/142 141/133/141
f 135/129/135 129/123/129 143/135/143
f 135/129/135 143/135/143 142/134/142
f 129/123/129 136/130/136 143/135/143
f 136/130/136 137/131/137 144/136/144
f 137/131/137 138/129/138 145/134/145
f 137/131/137 145/134/145 144/136/144
f 138/129/138 132/126/132 146/137/146
f 138/129/138 146/137/146 145/134/145
f 132/126/132 139/127/139 147/132/147
f 132/126/132 147/132/147 146/137/146
f 139/127/139 133/128/134 147/132/147
f 133/128/134 140/132/140 149/138/148
f 133/128/134 149/138/148 148/139/149
f 140/132/140 141/133/141 149/138/148
f 141/133/141 142/134/142 150/140/150
f 142/134/142 143/135/143 151/141/151
f 142/134/142 151/141/151 150/140/150
f 143/135/143 136/130/136 152/142/152
f 143/135/143 152/142/152 151/141/151
f 136/130/136 144/136/144 152/142/152
f 144/136/144 145/134/145 153/140/153
f 145/134/145 146/137/146 153/140/153
f 146/137/146 147/132/147 154/143/154
f 147/132/147 133/128/134 148/139/149
f 147/132/147 148/139/149 154/143/154
f 148/139/149 149/138/148 155/144/155
f 149/138/148 141/133/141 156/145/156
f 141/133/141 150/140/150 157/146/157
f 141/133/141 157/146/157 156/145/156
f 150/140/150 151/141/151 158/147/158
f 150/140/150 158/147/158 157/146/157
f 151/141/151 152/142/152 159/148/159
f 151/141/151 159/148/159 158/147/158
f 152/142/152 144/136/144 160/147/160
f 152/142/152 160/147/160 159/148/159
f 144/136/144 153/140/153 161/146/161
f 144/136/144 161/146/161 160/147/160
f 153/140/153 146/137/146 162/149/162
f 153/140/153 162/149/162 161/146/161
f 146/137/146 154/143/154 163/150/163
f 146/137/146 163/150/163 162/149/162
f 154/143/154 148/139/149 155/144/155
f 154/143/154 155/144/155 163/150/163
f 155/144/155 149/138/148 165/151/164
f 155/144/155 165/151/164 164/152/165
f 149/138/148 156/145/156 165/151/164
f 156/145/156 157/146/157 166/153/166
f 157/146/157 158/147/158 167/154/167
f 157/146/157 167/154/167 166/153/166
f 158/147/158 159/148/159 168/155/168
f 158/147/158 168/155/168 167/154/167
f 159/148/159 160/147/160 169/154/169
f 159/148/159 169/154/169 168/155/168
f 160/147/160 161/146/161 170/156/170
f 160/147/160 170/156/170 169/154/169
f 161/146/161 162/149/162 170/156/170
f 162/149/162 163/150/163 171/157/171
f 163/150/163 155/144/155 164/152/165
f 163/150/163 164/152/165 171/157/171
f 164/152/165 165/151/164 172/158/172
f 165/151/164 156/145/156 173/159/173
f 156/145/156 166/153/166 174/160/174
f 156/145/156 174/160/174 173/159/173
f 166/153/166 167/154/167 175/161/175
f 166/153/166 175/161/175 174/160/174
f 167/154/167 168/155/168 176/162/176
f 167/154/167 176/162/176 175/161/175
f 168/155/168 169/154/169 177/161/177
f 168/155/168 177/161/177 176/162/176
f 169/154/169 170/156/170 177/161/177
f 170/156/170 162/149/162 178/159/178
f 162/149/162 171/157/171 179/163/179
f 162/149/162 179/163/179 178/159/178
f 171/157/171 164/152/165 172/158/172
f 171/157/171 172/158/172 179/163/179
f 172/158/172 165/151/164 181/164/180
f 172/158/172 181/164/180 180/165/181
f 165/151/164 173/159/173 182/166/182
f 165/151/164 182/166/182 181/164/180
f 173/159/173 174/160/174 183/167/183
f 173/159/173 183/167/183 182/166/182
f 174/160/174 175/161/175 184/168/184
f 174/160/174 184/168/184 183/167/183
f 175/161/175 176/162/176 185/169/185
f 175/161/175 185/169/185 184/168/184
f 176/162/176 177/161/177 186/168/186
f 176/162/176 186/168/186 185/169/185
f 177/161/177 170/156/170 187/170/187
f 177/161/177 187/170/187 186/168/186
f 170/156/170 178/159/178 188/171/188
f 170/156/170 188/171/188 187/170/187
f 178/159/178 179/163/179 189/164/189
f 178/159/178 189/164/189 188/171/188
f 179/163/179 172/158/172 180/165/181
f 179/163/179 180/165/181 189/164/189
f 180/165/181 181/164/180 191/172/190
f 180/165/181 191/172/190 190/173/191
f 181/164/180 182/166/182 192/174/192
f 181/164/180 192/174/192 191/172/190
f 182/166/182 183/167/183 193/175/193
f 182/166/182 193/175/193 192/174/192
f 183/167/183 184/168/184 194/176/194
f 183/167/183 194/176/194 193/175/193
f 184/168/184 185/169/185 195/177/195
f 184/168/184 195/177/195 194/176/194
f 185/169/185 186/168/186 196/176/196
f 185/169/185 196/176/196 195/177/195
f 186/168/186 187/170/187 196/176/196
f 188/171/188 189/164/189 197/178/197
f 189/164/189 180/165/181 190/173/191
f 189/164/189 190/173/191 197/178/197
f 190/173/191 191/172/190 199/179/198
f 190/173/191 199/179/198 198/180/199
f 191/172/190 192/174/192 199/179/198
f 192/174/192 193/175/193 200/181/200
f 193/175/193 194/176/194 201/182/201
f 193/175/193 201/182/201 200/181/200
f 194/176/194 195/177/195 202/183/202
f 194/176/194 202/183/202 201/182/201
f 195/177/195 196/176/196 203/182/203
f 195/177/195 203/182/203 202/183/202
f 196/176/196 187/170/187 204/184/204
f 196/176/196 204/184/204 203/182/203
f 187/170/187 188/171/188 205/185/205
f 187/170/187 205/185/205 204/184/204
f 188/171/188 197/178/197 205/185/205
f 197/178/197 190/173/191 198/180/199
f 198/180/199 199/179/198 207/186/206
f 198/180/199 207/186/206 206/187/207
f 199/179/198 192/174/192 208/188/208
f 199/179/198 208/188/208 207/186/206
f 192/174/192 200/181/200 208/188/208
f 200/181/200 201/182/201 209/189/209
f 201/182/201 202/183/202 210/190/210
f 201/182/201 210/190/210 209/189/209
f 202/183/202 203/182/203 211/191/211
f 202/183/202 211/191/211 210/190/210
f 203/182/203 204/184/204 211/191/211
f 205/185/205 197/178/197 212/192/212
f 197/178/197 198/180/199 206/187/207
f 197/178/197 206/187/207 212/192/212
f 206/187/207 207/186/206 213/193/213
f 208/188/208 200/181/200 214/194/214
f 200/181/200 209/189/209 214/194/214
f 209/189/209 210/190/210 215/195/215
f 210/190/210 211/191/211 216/196/216
f 210/190/210 216/196/216 215/195/215
f 211/191/211 204/184/204 217/197/217
f 211/191/211 217/197/217 216/196/216
f 204/184/204 205/185/205 218/198/218
f 204/184/204 218/198/218 217/197/217
f 205/185/205 212/192/212 218/198/218
f 212/192/212 206/187/207 213/193/213
f 213/193/213 207/186/206 220/199/219
f 213/193/213 220/199/219 219/200/220
f 207/186/206 208/188/208 221/201/221
f 207/186/206 221/201/221 220/199/219
f 208/188/208 214/194/214 221/201/221
f 214/194/214 209/189/209 222/202/222
f 209/189/209 215/195/215 222/202/222
f 216/196/216 217/197/217 223/203/223
f 217/197/217 218/198/218 224/204/224
f 217/197/217 224/204/224 223/203/223
f 218/198/218 212/192/212 225/205/225
f 218/198/218 225/205/225 224/204/224
f 212/192/212 213/193/213 219/200/220
f 212/192/212 219/200/220 225/205/225
f 221/201/221 214/194/214 226/206/226
f 214/194/214 222/202/222 226/206/226
f 222/202/222 215/195/215 227/207/227
f 215/195/215 216/196/216 228/208/228
f 215/195/215 228/208/228 227/207/227
f 216/196/216 223/203/223 228/208/228
f 223/203/223 224/204/224 229/209/229
f 224/204/224 225/205/225 229/209/229
f 219/200/220 220/199/219 231/210/230
f 219/200/220 231/210/230 230/211/231
f 220/199/219 221/201/221 231/210/230
f 221/201/221 226/206/226 231/210/230
f 226/206/226 222/202/222 232/212/232
f 222/202/222 227/207/227 233/213/233
f 222/202/222 233/213/233 232/212/232
f 227/207/227 228/208/228 233/213/233
f 228/208/228 223/203/223 234/214/234
f 223/203/223 229/209/229 235/215/235
f 223/203/223 235/215/235 234/214/234
f 229/209/229 225/205/225 236/216/236
f 229/209/229 236/216/236 235/215/235
f 225/205/225 219/200/220 230/211/231
f 225/205/225 230/211/231 236/216/236
f 230/211/231 231/210/230 237/217/237
f 231/210/230 226/206/226 238/218/238
f 231/210/230 238/218/238 237/217/237
f 226/206/226 232/212/232 239/219/239
f 226/206/226 239/219/239 238/218/238
f 232/212/232 233/213/233 240/220/240
f 232/212/232 240/220/240 239/219/239
f 233/213/233 228/208/228 241/221/241
f 233/213/233 241/221/241 240/220/240
f 228/208/228 234/214/234 241/221/241
f 235/215/235 236/216/236 242/222/242
f 236/216/236 230/211/231 242/222/242
f 230/211/231 237/217/237 244/223/243
f 230/211/231 244/223/243 243/224/244
f 237/217/237 238/218/238 245/225/245
f 237/217/237 245/225/245 244/223/243
f 238/218/238 239/219/239 246/226/246
f 238/218/238 246/226/246 245/225/245
f 239/219/239 240/220/240 247/227/247
f 239/219/239 247/227/247 246/226/246
f 240/220/240 241/221/241 247/227/247
f 241/221/241 234/214/234 248/228/248
f 234/214/234 235/215/235 249/229/249
f 234/214/234 249/229/249 248/228/248
f 235/215/235 242/222/242 249/229/249
f 242/222/242 230/211/231 243/224/244
f 243/224/244 244/223/243 250/230/250
f 244/223/243 245/225/245 250/230/250
f 245/225/245 246/226/246 251/231/251
f 246/226/246 247/227/247 251/231/251
f 247/227/247 241/221/241 252/232/252
f 241/221/241 248/228/248 252/232/252
f 249/229/249 242/222/242 253/233/253
f 242/222/242 243/224/244 253/233/253
f 243/224/244 250/230/250 255/234/254
f 243/224/244 255/234/254 254/235/255
f 250/230/250 256/236/256 255/234/254
f 250/230/250 245/225/245 257/237/257
f 250/230/250 257/237/257 256/236/256
f 245/225/245 251/231/251 258/238/258
f 245/225/245 258/238/258 257/237/257
f 251/231/251 247/227/247 259/239/259
f 251/231/251 259/239/259 258/238/258
f 247/227/247 252/232/252 259/239/259
f 248/228/248 249/229/249 260/240/260
f 249/229/249 253/233/253 261/241/261
f 249/229/249 261/241/261 260/240/260
f 253/233/253 243/224/244 254/235/255
f 253/233/253 254/235/255 261/241/261
f 259/239/259 252/232/252 262/242/262
f 252/232/252 248/228/248 263/243/263
f 252/232/252 263/243/263 262/242/262
f 248/228/248 260/240/260 263/243/263
f 260/240/260 261/241/261 264/244/264
f 261/241/261 254/235/255 264/244/264
f 254/235/255 255/234/254 265/245/265
f 255/234/254 256/236/256 266/246/266
f 256/236/256 257/237/257 267/247/267
f 256/236/256 267/247/267 266/246/266
f 257/237/257 258/238/258 268/248/268
f 257/237/257 268/248/268 267/247/267
f 258/238/258 259/239/259 269/249/269
f 258/238/258 269/249/269 268/248/268
f 259/239/259 262/242/262 270/250/270
f 259/239/259 270/250/270 269/249/269
f 262/242/262 263/243/263 271/251/271
f 262/242/262 271/251/271 270/250/270
f 263/243/263 260/240/260 272/252/272
f 263/243/263 272/252/272 271/251/271
f 260/240/260 264/244/264 273/253/273
f 260/240/260 273/253/273 272/252/272
f 264/244/264 254/235/255 265/245/265
f 264/244/264 265/245/265 273/253/273
f 265/245/265 255/234/254 274/254/274
f 255/234/254 266/246/266 274/254/274
f 265/245/265 274/254/274 275/255/275
f 274/254/274 266/246/266 276/256/276
f 266/246/266 267/247/267 277/257/277
f 266/246/266 277/257/277 276/256/276
f 267/247/267 268/248/268 278/258/278
f 267/247/267 278/258/278 277/257/277
f 268/248/268 269/249/269 279/259/279
f 268/248/268 279/259/279 278/258/278
f 269/249/269 270/250/270 280/260/280
f 269/249/269 280/260/280 279/259/279
f 270/250/270 271/251/271 281/261/281
f 270/250/270 281/261/281 280/260/280
f 271/251/271 272/252/272 281/261/281
f 272/252/272 273/253/273 282/262/282
f 272/252/272 282/262/282 281/261/281
f 273/253/273 265/245/265 275/255/275
f 273/253/273 275/255/275 282/262/282
f 274/254/274 276/256/276 275/255/275
f 280/260/280 281/261/281 283/263/283
f 281/261/281 282/262/282 283/263/283
f 275/255/275 285/264/284 284/265/285
f 275/255/275 276/256/276 285/264/284
f 276/256/276 277/257/277 286/266/286
f 276/256/276 286/266/286 285/264/284
f 277/257/277 278/258/278 287/267/287
f 277/257/277 287/267/287 286/266/286
f 278/258/278 279/259/279 288/268/288
f 278/258/278 288/268/288 287/267/287
f 279/259/279 280/260/280 289/269/289
f 279/259/279 289/269/289 288/268/288
f 280/260/280 283/263/283 290/270/290
f 280/260/280 290/270/290 289/269/289
f 283/263/283 291/271/291 290/270/290
f 283/263/283 282/262/282 292/272/292
f 283/263/283 292/272/292 291/271/291
f 282/262/282 275/255/275 284/265/285
f 282/262/282 284/265/285 292/272/292
f 285/264/284 294/273/293 284/265/285
f 285/264/284 286/266/286 294/273/293
f 289/269/289 290/270/290 295/274/294
f 290/270/290 291/271/291 295/274/294
f 292/272/292 284/265/285 293/275/295
f 293/275/295 284/265/285 296/276/296
f 284/265/285 294/273/293 296/276/296
f 294/273/293 286/266/286 297/277/297
f 286/266/286 287/267/287 297/277/297
f 287/267/287 288/268/288 298/278/298
f 287/267/287 298/278/298 297/277/297
f 288/268/288 289/269/289 299/279/299
f 288/268/288 299/279/299 298/278/298
f 289/269/289 295/274/294 299/279/299
f 295/274/294 291/271/291 300/280/300
f 291/271/291 292/272/292 301/281/301
f 291/271/291 301/281/301 300/280/300
f 292/272/292 293/275/295 301/281/301
f 296/276/296 294/273/293 302/282/302
f 294/273/293 297/277/297 303/283/303
f 294/273/293 303/283/303 302/282/302
f 297/277/297 304/284/304 303/283/303
f 297/277/297 298/278/298 304/284/304
f 299/279/299 295/274/294 305/285/305
f 295/274/294 300/280/300 305/285/305
f 293/275/295 296/276/296 306/286/306
f 296/276/296 302/282/302 306/286/306
f 304/284/304 298/278/298 307/287/307
f 298/278/298 299/279/299 308/288/308
f 298/278/298 308/288/308 307/287/307
f 299/279/299 305/285/305 309/289/309
f 299/279/299 309/289/309 308/288/308
f 305/285/305 300/280/300 310/290/310
f 305/285/305 310/290/310 309/289/309
f 300/280/300 301/281/301 311/291/311
f 300/280/300 311/291/311 310/290/310
f 301/281/301 293/275/295 311/291/311
f 306/286/306 302/282/302 312/292/312
f 302/282/302 303/283/303 313/293/313
f 302/282/302 313/293/313 312/292/312
f 303/283/303 304/284/304 313/293/313
f 293/275/295 306/286/306 314/294/314
f 304/284/304 307/287/307 315/295/315
f 307/287/307 308/288/308 316/296/316
f 307/287/307 316/296/316 315/295/315
f 308/288/308 309/289/309 316/296/316
f 309/289/309 310/290/310 317/297/317
f 309/289/309 317/297/317 316/296/316
f 310/290/310 311/291/311 318/298/318
f 310/290/310 318/298/318 317/297/317
f 311/291/311 293/275/295 314/294/314
f 311/291/311 314/294/314 318/298/318
f 306/286/306 312/292/312 319/299/319
f 306/286/306 319/299/319 314/294/314
f 312/292/312 313/293/313 319/299/319
f 313/293/313 304/284/304 320/300/320
f 304/284/304 315/295/315 320/300/320
f 315/295/315 316/296/316 321/301/321
f 316/296/316 317/297/317 321/301/321
f 318/298/318 314/294/314 322/302/322
f 313/293/313 320/300/320 319/299/319
f 320/300/320 315/295/315 323/303/323
f 315/295/315 321/301/321 323/303/323
f 321/301/321 317/297/317 324/304/324
f 317/297/317 318/298/318 322/302/322
f 317/297/317 322/302/322 324/304/324
f 322/302/322 314/294/314 325/305/325
f 314/294/314 319/299/319 326/306/326
f 314/294/314 326/306/326 325/305/325
f 319/299/319 320/300/320 327/307/327
f 319/299/319 327/307/327 326/306/326
f 320/300/320 323/303/323 327/307/327
f 323/303/323 321/301/321 328/308/328
f 321/301/321 324/304/324 328/308/328
f 322/302/322 325/305/325 331/309/329
f 325/305/325 326/306/326 329/310/330
f 326/306/326 327/307/327 329/310/330
f 327/307/327 323/303/323 330/311/331
f 323/303/323 328/308/328 330/311/331
f 328/308/328 324/304/324 331/309/329
f 324/304/324 322/302/322 331/309/329
f 331/309/329 325/305/325 333/312/332
f 325/305/325 329/310/330 333/312/332
f 330/311/331 328/308/328 332/313/333
f 328/308/328 331/309/329 332/313/333
f 333/312/332 329/310/330 334/314/334
f 329/310/330 327/307/327 334/314/334
f 327/307/327 330/311/331 334/314/334
f 330/311/331 332/313/333 334/314/334
f 331/309/329 333/312/332 332/313/333
f 333/312/332 334/314/334 335/315/335
f 334/314/334 332/313/333 335/315/335
f 332/313/333 333/312/332 335/315/335
f 336/316/336 338/317/337 337/318/338
f 336/316/336 339/319/339 338/317/337
f 336/316/336 340/320/340 339/319/339
f 336/316/336 341/321/341 340/320/340
f 336/316/336 342/320/342 341/321/341
f 336/316/336 343/322/343 342/320/342
f 336/316/336 344/317/344 343/322/343
f 336/316/336 337/318/338 344/317/344
f 337/318/338 338/317/337 345/323/345
f 338/317/337 339/319/339 345/323/345
f 339/319/339 340/320/340 346/324/346
f 340/320/340 341/321/341 346/324/346
f 341/321/341 342/320/342 347/325/347
f 342/320/342 343/322/343 348/326/348
f 342/320/342 348/326/348 347/325/347
f 343/322/343 344/317/344 349/327/349
f 343/322/343 349/327/349 348/326/348
f 344/317/344 337/318/338 349/327/349
f 337/318/338 345/323/345 350/328/350
f 345/323/345 339/319/339 351/329/351
f 339/319/339 346/324/346 351/329/351
f 341/321/341 347/325/347 352/330/352
f 341/321/341 352/330/352 346/324/346
f 347/325/347 348/326/348 352/330/352
f 349/327/349 337/318/338 350/328/350
f 351/329/351 346/324/346 353/331/353
f 346/324/346 354/332/354 353/331/353
f 346/324/346 352/330/352 355/331/355
f 346/324/346 355/331/355 354/332/354
f 352/330/352 348/326/348 356/333/356
f 352/330/352 356/333/356 355/331/355
f 348/326/348 349/327/349 357/334/357
f 348/326/348 357/334/357 356/333/356
f 349/327/349 350/328/350 357/334/357
f 350/328/350 345/323/345 358/335/358
f 345/323/345 351/329/351 359/336/359
f 345/323/345 359/336/359 358/335/358
f 351/329/351 353/331/353 360/337/360
f 351/329/351 360/337/360 359/336/359
f 353/331/353 354/332/354 360/337/360
f 354/332/354 355/331/355 361/338/361
f 354/332/354 361/338/361 360/337/360
f 355/331/355 356/333/356 361/338/361
f 357/334/357 350/328/350 358/335/358
f 357/334/357 358/335/358 356/333/356
f 358/335/358 363/339/362 362/340/363
f 358/335/358 359/336/359 364/341/364
f 358/335/358 364/341/364 363/339/362
f 359/336/359 360/337/360 365/342/365
f 359/336/359 365/342/365 364/341/364
f 360/337/360 366/343/366 365/342/365
f 360/337/360 361/338/361 367/342/367
f 360/337/360 367/342/367 366/343/366
f 361/338/361 368/341/368 367/342/367
f 361/338/361 356/333/356 369/339/369
f 361/338/361 369/339/369 368/341/368
f 356/333/356 358/335/358 362/340/363
f 356/333/356 362/340/363 369/339/369
f 362/340/363 363/339/362 370/344/370
f 363/339/362 364/341/364 371/345/371
f 363/339/362 371/345/371 370/344/370
f 364/341/364 365/342/365 372/346/372
f 364/341/364 372/346/372 371/345/371
f 365/342/365 366/343/366 373/347/373
f 365/342/365 373/347/373 372/346/372
f 366/343/366 367/342/367 374/346/374
f 366/343/366 374/346/374 373/347/373
f 367/342/367 368/341/368 375/345/375
f 367/342/367 375/345/375 374/346/374
f 368/341/368 369/339/369 376/344/376
f 368/341/368 376/344/376 375/345/375
f 369/339/369 362/340/363 376/344/376
f 362/340/363 370/344/370 378/348/377
f 362/340/363 378/348/377 377/349/378
f 370/344/370 371/345/371 379/350/379
f 370/344/370 379/350/379 378/348/377
f 371/345/371 372/346/372 380/351/380
f 371/345/371 380/351/380 379/350/379
f 372/346/372 373/347/373 381/352/381
f 372/346/372 381/352/381 380/351/380
f 373/347/373 374/346/374 382/351/382
f 373/347/373 382/351/382 381/352/381
f 374/346/374 375/345/375 383/350/383
f 374/346/374 383/350/383 382/351/382
f 375/345/375 376/344/376 384/348/384
f 375/345/375 384/348/384 383/350/383
f 376/344/376 362/340/363 377/349/378
f 376/344/376 377/349/378 384/348/384
f 377/349/378 378/348/377 386/353/385
f 377/349/378 386/353/385 385/354/386
f 378/348/377 379/350/379 387/355/387
f 378/348/377 387/355/387 386/353/385
f 379/350/379 380/351/380 388/356/388
f 379/350/379 388/356/388 387/355/387
f 380/351/380 381/352/381 389/357/389
f 380/351/380 389/357/389 388/356/388
f 381/352/381 382/351/382 390/358/390
f 381/352/381 390/358/390 389/357/389
f 382/351/382 383/350/383 391/359/391
f 382/351/382 391/359/391 390/358/390
f 383/350/383 384/348/384 392/360/392
f 383/350/383 392/360/392 391/359/391
f 384/348/384 377/349/378 385/354/386
f 384/348/384 385/354/386 392/360/392
f 385/354/386 386/353/385 394/361/393
f 385/354/386 394/361/393 393/362/394
f 386/353/385 387/355/387 394/361/393
f 388/356/388 389/357/389 395/363/395
f 389/357/389 390/358/390 395/363/395
f 390/358/390 391/359/391 395/363/395
f 392/360/392 385/354/386 393/362/394
f 393/362/394 394/361/393 397/364/396
f 393/362/394 397/364/396 396/365/397
f 394/361/393 387/355/387 397/364/396
f 387/355/387 388/356/388 398/366/398
f 387/355/387 398/366/398 397/364/396
f 388/356/388 395/363/395 399/367/399
f 388/356/388 399/367/399 398/366/398
f 395/363/395 391/359/391 400/368/400
f 395/363/395 400/368/400 399/367/399
f 391/359/391 392/360/392 400/368/400
f 392/360/392 393/362/394 396/365/397
f 392/360/392 396/365/397 400/368/400
f 396/365/397 397/364/396 402/369/401
f 396/365/397 402/369/401 401/370/402
f 397/364/396 398/366/398 402/369/401
f 398/366/398 399/367/399 403/371/403
f 399/367/399 404/372/404 403/371/403
f 399/367/399 400/368/400 404/372/404
f 400/368/400 396/365/397 401/370/402
f 400/368/400 401/370/402 405/373/405
f 401/370/402 402/369/401 406/374/406
f 402/369/401 407/375/407 406/374/406
f 402/369/401 398/366/398 408/376/408
f 402/369/401 408/376/408 407/375/407
f 398/366/398 403/371/403 409/377/409
f 398/366/398 409/377/409 408/376/408
f 403/371/403 404/372/404 410/378/410
f 403/371/403 410/378/410 409/377/409
f 404/372/404 400/368/400 411/379/411
f 404/372/404 411/379/411 410/378/410
f 400/368/400 405/373/405 412/380/412
f 400/368/400 412/380/412 411/379/411
f 405/373/405 401/370/402 412/380/412
f 401/370/402 406/374/406 413/381/413
f 412/380/412 401/370/402 413/381/413
f 413/381/413 406/374/406 414/382/414
f 406/374/406 407/375/407 415/383/415
f 406/374/406 415/383/415 414/382/414
f 407/375/407 408/376/408 416/384/416
f 407/375/407 416/384/416 415/383/415
f 408/376/408 409/377/409 417/385/417
f 408/376/408 417/385/417 416/384/416
f 409/377/409 410/378/410 418/386/418
f 409/377/409 418/386/418 417/385/417
f 410/378/410 411/379/411 419/387/419
f 410/378/410 419/387/419 418/386/418
f 411/379/411 412/380/412 420/388/420
f 411/379/411 420/388/420 419/387/419
f 412/380/412 413/381/413 420/388/420
f 413/381/413 414/382/414 421/389/421
f 414/382/414 415/383/415 416/384/416
f 414/382/414 416/384/416 421/389/421
f 416/384/416 417/385/417 422/390/422
f 417/385/417 418/386/418 422/390/422
f 418/386/418 419/387/419 422/390/422
f 420/388/420 413/381/413 421/389/421
f 421/389/421 416/384/416 423/391/423
f 416/384/416 422/390/422 423/391/423
f 422/390/422 424/392/424 423/391/423
f 422/390/422 419/387/419 424/392/424
f 419/387/419 420/388/420 424/392/424
f 420/388/420 421/389/421 424/392/424
f 421/389/421 423/391/423 425/393/425
f 423/391/423 424/392/424 425/393/425
f 424/392/424 421/389/421 425/393/425
f 426/394/426 428/395/427 427/396/428
f 426/394/426 429/397/429 428/395/427
f 426/394/426 430/398/430 429/397/429
f 426/394/426 431/399/431 430/398/430
f 426/394/426 432/400/432 431/399/431
f 426/394/426 433/401/433 432/400/432
f 426/394/426 434/402/434 433/401/433
f 426/394/426 427/396/428 434/402/434
f 427/396/428 428/395/427 435/403/435
f 430/398/430 431/399/431 436/404/436
f 431/399/431 432/400/432 437/405/437
f 431/399/431 437/405/437 436/404/436
f 432/400/432 433/401/433 437/405/437
f 433/401/433 434/402/434 438/406/438
f 434/402/434 427/396/428 435/403/435
f 434/402/434 435/403/435 438/406/438
f 435/403/435 428/395/427 440/407/439
f 435/403/435 440/407/439 439/408/440
f 428/395/427 429/397/429 441/409/441
f 428/395/427 441/409/441 440/407/439
f 429/397/429 430/398/430 442/410/442
f 429/397/429 442/410/442 441/409/441
f 430/398/430 436/404/436 443/411/443
f 430/398/430 443/411/443 442/410/442
f 436/404/436 437/405/437 444/412/444
f 436/404/436 444/412/444 443/411/443
f 437/405/437 433/401/433 445/413/445
f 437/405/437 445/413/445 444/412/444
f 433/401/433 438/406/438 445/413/445
f 438/406/438 435/403/435 439/408/440
f 438/406/438 439/408/440 445/413/445
f 439/408/440 440/407/439 446/414/446
f 440/407/439 441/409/441 447/415/447
f 442/410/442 443/411/443 448/416/448
f 442/410/442 448/416/448 441/409/441
f 443/411/443 444/412/444 449/417/449
f 443/411/443 449/417/449 448/416/448
f 445/413/445 450/418/450 444/412/444
f 445/413/445 439/408/440 446/414/446
f 445/413/445 446/414/446 450/418/450
f 446/414/446 440/407/439 452/419/451
f 446/414/446 452/419/451 451/420/452
f 440/407/439 447/415/447 453/421/453
f 440/407/439 453/421/453 452/419/451
f 447/415/447 441/409/441 453/421/453
f 441/409/441 448/416/448 454/422/454
f 441/409/441 454/422/454 453/421/453
f 448/416/448 449/417/449 455/423/455
f 448/416/448 455/423/455 454/422/454
f 449/417/449 444/412/444 456/424/456
f 449/417/449 456/424/456 455/423/455
f 444/412/444 450/418/450 456/424/456
f 450/418/450 446/414/446 451/420/452
f 451/420/452 452/419/451 458/425/457
f 451/420/452 458/425/457 457/426/458
f 452/419/451 453/421/453 459/427/459
f 452/419/451 459/427/459 458/425/457
f 453/421/453 460/428/460 459/427/459
f 453/421/453 454/422/454 461/429/461
f 453/421/453 461/429/461 460/428/460
f 454/422/454 455/423/455 462/428/462
f 454/422/454 462/428/462 461/429/461
f 455/423/455 456/424/456 463/427/463
f 455/423/455 463/427/463 462/428/462
f 456/424/456 450/418/450 457/426/458
f 456/424/456 457/426/458 463/427/463
f 450/418/450 451/420/452 457/426/458
f 457/426/458 458/425/457 465/430/464
f 457/426/458 465/430/464 464/431/465
f 458/425/457 459/427/459 466/432/466
f 458/425/457 466/432/466 465/430/464
f 459/427/459 460/428/460 467/433/467
f 459/427/459 467/433/467 466/432/466
f 460/428/460 461/429/461 468/434/468
f 460/428/460 468/434/468 467/433/467
f 461/429/461 462/428/462 469/435/469
f 461/429/461 469/435/469 468/434/468
f 462/428/462 463/427/463 470/436/470
f 462/428/462 470/436/470 469/435/469
f 463/427/463 457/426/458 471/430/471
f 463/427/463 471/430/471 470/436/470
f 457/426/458 464/431/465 471/430/471
f 464/431/465 465/430/464 473/437/472
f 464/431/465 473/437/472 472/438/473
f 465/430/464 466/432/466 474/439/474
f 465/430/464 474/439/474 473/437/472
f 466/432/466 467/433/467 475/440/475
f 466/432/466 475/440/475 474/439/474
f 467/433/467 468/434/468 476/441/476
f 467/433/467 476/441/476 475/440/475
f 468/434/468 469/435/469 476/441/476
f 470/436/470 471/430/471 477/442/477
f 471/430/471 464/431/465 472/438/473
f 471/430/471 472/438/473 477/442/477
f 472/438/473 473/437/472 479/443/478
f 472/438/473 479/443/478 478/444/479
f 473/437/472 474/439/474 480/445/480
f 473/437/472 480/445/480 479/443/478
f 474/439/474 475/440/475 480/445/480
f 475/440/475 476/441/476 481/446/481
f 476/441/476 469/435/469 482/447/482
f 476/441/476 482/447/482 481/446/481
f 469/435/469 470/436/470 483/445/483
f 469/435/469 483/445/483 482/447/482
f 470/436/470 477/442/477 483/445/483
f 477/442/477 472/438/473 478/444/479
f 478/444/479 479/443/478 484/448/484
f 479/443/478 480/445/480 485/449/485
f 480/445/480 475/440/475 486/450/486
f 480/445/480 486/450/486 485/449/485
f 475/440/475 481/446/481 487/451/487
f 475/440/475 487/451/487 486/450/486
f 481/446/481 482/447/482 488/450/488
f 481/446/481 488/450/488 487/451/487
f 482/447/482 483/445/483 489/449/489
f 482/447/482 489/449/489 488/450/488
f 483/445/483 477/442/477 490/452/490
f 483/445/483 490/452/490 489/449/489
f 477/442/477 478/444/479 484/448/484
f 477/442/477 484/448/484 490/452/490
f 484/448/484 479/443/478 491/453/491
f 479/443/478 485/449/485 492/454/492
f 479/443/478 492/454/492 491/453/491
f 485/449/485 486/450/486 493/455/493
f 485/449/485 493/455/493 492/454/492
f 486/450/486 487/451/487 493/455/493
f 487/451/487 488/450/488 494/456/494
f 488/450/488 489/449/489 495/457/495
f 488/450/488 495/457/495 494/456/494
f 489/449/489 490/452/490 495/457/495
f 490/452/490 484/448/484 491/453/491
f 490/452/490 491/453/491 495/457/495
f 491/453/491 497/458/496 496/459/497
f 491/453/491 492/454/492 497/458/496
f 493/455/493 487/451/487 498/460/498
f 493/455/493 498/460/498 492/454/492
f 487/451/487 494/456/494 498/460/498
f 494/456/494 495/457/495 499/461/499
f 495/457/495 500/458/500 499/461/499
f 495/457/495 491/453/491 496/459/497
f 495/457/495 496/459/497 500/458/500
f 496/459/497 497/458/496 502/462/501
f 496/459/497 502/462/501 501/463/502
f 497/458/496 492/454/492 503/464/503
f 497/458/496 503/464/503 502/462/501
f 492/454/492 504/465/504 503/464/503
f 492/454/492 498/460/498 505/466/505
f 492/454/492 505/466/505 504/465/504
f 498/460/498 494/456/494 506/467/506
f 498/460/498 506/467/506 505/466/505
f 494/456/494 499/461/499 507/464/507
f 494/456/494 507/464/507 506/467/506
f 499/461/499 500/458/500 508/462/508
f 499/461/499 508/462/508 507/464/507
f 500/458/500 496/459/497 501/463/502
f 500/458/500 501/463/502 508/462/508
f 501/463/502 502/462/501 509/468/509
f 502/462/501 503/464/503 510/469/510
f 502/462/501 510/469/510 509/468/509
f 503/464/503 504/465/504 510/469/510
f 504/465/504 505/466/505 511/470/511
f 505/466/505 506/467/506 511/470/511
f 506/467/506 507/464/507 512/471/512
f 506/467/506 512/471/512 511/470/511
f 507/464/507 508/462/508 513/472/513
f 507/464/507 513/472/513 512/471/512
f 508/462/508 501/463/502 513/472/513
f 501/463/502 509/468/509 514/473/514
f 510/469/510 504/465/504 515/474/515
f 504/465/504 511/470/511 516/475/516
f 504/465/504 516/475/516 515/474/515
f 511/470/511 512/471/512 516/475/516
f 513/472/513 501/463/502 514/473/514
f 514/473/514 509/468/509 517/476/517
f 509/468/509 510/469/510 517/476/517
f 510/469/510 515/474/515 517/476/517
f 516/475/516 512/471/512 518/477/518
f 512/471/512 513/472/513 518/477/518
f 517/476/517 515/474/515 519/478/519
f 515/474/515 516/475/516 519/478/519
f 516/475/516 518/477/518 519/478/519
f 513/472/513 514/473/514 517/476/517
f 513/472/513 517/476/517 518/477/518
f 517/476/517 519/478/519 520/479/520
f 519/478/519 518/477/518 520/479/520
f 518/477/518 517/476/517 520/479/520
f 521/480/521 523/481/522 522/482/523
f 521/480/521 524/483/524 523/481/522
f 521/480/521 525/484/525 524/483/524
f 521/480/521 526/485/526 525/484/525
f 521/480/521 527/486/527 526/485/526
f 521/480/521 522/482/523 527/486/527
f 522/482/523 529/487/528 528/488/529
f 522/482/523 523/481/522 530/489/530
f 522/482/523 530/489/530 529/487/528
f 523/481/522 524/483/524 530/489/530
f 524/483/524 525/484/525 531/490/531
f 525/484/525 526/485/526 532/491/532
f 525/484/525 532/491/532 531/490/531
f 526/485/526 533/492/533 532/491/532
f 526/485/526 527/486/527 534/487/534
f 526/485/526 534/487/534 533/492/533
f 527/486/527 522/482/523 528/488/529
f 527/486/527 528/488/529 534/487/534
f 528/488/529 529/487/528 535/493/535
f 529/487/528 530/489/530 536/494/536
f 529/487/528 536/494/536 535/493/535
f 530/489/530 524/483/524 536/494/536
f 524/483/524 531/490/531 537/495/537
f 524/483/524 537/495/537 536/494/536
f 531/490/531 532/491/532 538/496/538
f 531/490/531 538/496/538 537/495/537
f 532/491/532 533/492/533 539/497/539
f 532/491/532 539/497/539 538/496/538
f 534/487/534 528/488/529 535/493/535
f 534/487/534 535/493/535 533/492/533
f 535/493/535 541/498/540 540/499/541
f 535/493/535 536/494/536 542/500/542
f 535/493/535 542/500/542 541/498/540
f 536/494/536 543/501/543 542/500/542
f 536/494/536 537/495/537 544/502/544
f 536/494/536 544/502/544 543/501/543
f 538/496/538 539/497/539 537/495/537
f 539/497/539 533/492/533 545/503/545
f 533/492/533 535/493/535 540/499/541
f 533/492/533 540/499/541 545/503/545
f 541/498/540 542/500/542 546/504/546
f 542/500/542 543/501/543 547/505/547
f 542/500/542 547/505/547 546/504/546
f 543/501/543 544/502/544 547/505/547
f 544/502/544 537/495/537 548/505/548
f 537/495/537 539/497/539 549/506/549
f 537/495/537 549/506/549 548/505/548
f 539/497/539 545/503/545 549/506/549
f 540/499/541 541/498/540 551/507/550
f 540/499/541 551/507/550 550/508/551
f 541/498/540 546/504/546 551/507/550
f 546/504/546 547/505/547 552/509/552
f 547/505/547 544/502/544 553/510/553
f 547/505/547 553/510/553 552/509/552
f 544/502/544 548/505/548 554/509/554
f 544/502/544 554/509/554 553/510/553
f 548/505/548 549/506/549 554/509/554
f 549/506/549 545/503/545 555/507/555
f 545/503/545 540/499/541 550/508/551
f 545/503/545 550/508/551 555/507/555
f 550/508/551 551/507/550 557/511/556
f 550/508/551 557/511/556 556/512/557
f 551/507/550 546/504/546 558/513/558
f 551/507/550 558/513/558 557/511/556
f 546/504/546 552/509/552 559/514/559
f 546/504/546 559/514/559 558/513/558
f 552/509/552 553/510/553 560/515/560
f 552/509/552 560/515/560 559/514/559
f 553/510/553 554/509/554 561/514/561
f 553/510/553 561/514/561 560/515/560
f 554/509/554 549/506/549 562/513/562
f 554/509/554 562/513/562 561/514/561
f 549/506/549 555/507/555 563/511/563
f 549/506/549 563/511/563 562/513/562
f 555/507/555 550/508/551 556/512/557
f 555/507/555 556/512/557 563/511/563
f 556/512/557 557/511/556 565/516/564
f 556/512/557 565/516/564 564/517/565
f 557/511/556 558/513/558 566/518/566
f 557/511/556 566/518/566 565/516/564
f 558/513/558 559/514/559 567/519/567
f 558/513/558 567/519/567 566/518/566
f 559/514/559 560/515/560 568/520/568
f 559/514/559 568/520/568 567/519/567
f 560/515/560 561/514/561 569/519/569
f 560/515/560 569/519/569 568/520/568
f 561/514/561 562/513/562 570/518/570
f 561/514/561 570/518/570 569/519/569
f 562/513/562 563/511/563 571/521/571
f 562/513/562 571/521/571 570/518/570
f 563/511/563 556/512/557 564/517/565
f 563/511/563 564/517/565 571/521/571
f 564/517/565 565/516/564 573/522/572
f 564/517/565 573/522/572 572/523/573
f 565/516/564 566/518/566 573/522/572
f 566/518/566 567/519/567 574/524/574
f 566/518/566 574/524/574 573/522/572
f 567/519/567 568/520/568 574/524/574
f 568/520/568 569/519/569 575/525/575
f 568/520/568 575/525/575 574/524/574
f 569/519/569 570/518/570 576/526/576
f 569/519/569 576/526/576 575/525/575
f 570/518/570 571/521/571 576/526/576
f 571/521/571 564/517/565 572/523/573
f 573/522/572 578/527/577 572/523/573
f 573/522/572 574/524/574 579/528/578
f 573/522/572 579/528/578 578/527/577
f 574/524/574 580/529/579 579/528/578
f 574/524/574 575/525/575 581/528/580
f 574/524/574 581/528/580 580/529/579
f 575/525/575 576/526/576 582/530/581
f 575/525/575 582/530/581 581/528/580
f 576/526/576 571/521/571 583/531/582
f 576/526/576 583/531/582 582/530/581
f 571/521/571 572/523/573 577/532/583
f 571/521/571 577/532/583 583/531/582
f 577/532/583 572/523/573 585/533/584
f 577/532/583 585/533/584 584/534/585
f 572/523/573 578/527/577 586/535/586
f 572/523/573 586/535/586 585/533/584
f 579/528/578 580/529/579 587/536/587
f 579/528/578 587/536/587 578/527/577
f 580/529/579 581/528/580 588/537/588
f 580/529/579 588/537/588 587/536/587
f 581/528/580 582/530/581 589/535/589
f 581/528/580 589/535/589 588/537/588
f 582/530/581 583/531/582 590/533/590
f 582/530/581 590/533/590 589/535/589
f 583/531/582 577/532/583 584/534/585
f 583/531/582 584/534/585 590/533/590
f 584/534/585 585/533/584 592/538/591
f 584/534/585 592/538/591 591/539/592
f 585/533/584 586/535/586 593/540/593
f 585/533/584 593/540/593 592/538/591
f 586/535/586 578/527/577 593/540/593
f 578/527/577 587/536/587 594/541/594
f 578/527/577 594/541/594 593/540/593
f 587/536/587 588/537/588 595/542/595
f 587/536/587 595/542/595 594/541/594
f 588/537/588 589/535/589 596/543/596
f 588/537/588 596/543/596 595/542/595
f 589/535/589 590/533/590 597/538/597
f 589/535/589 597/538/597 596/543/596
f 590/533/590 584/534/585 591/539/592
f 590/533/590 591/539/592 597/538/597
f 591/539/592 592/538/591 599/544/598
f 591/539/592 599/544/598 598/545/599
f 592/538/591 593/540/593 600/546/600
f 592/538/591 600/546/600 599/544/598
f 593/540/593 601/547/601 600/546/600
f 593/540/593 594/541/594 602/548/602
f 593/540/593 602/548/602 601/547/601
f 594/541/594 595/542/595 603/547/603
f 594/541/594 603/547/603 602/548/602
f 595/542/595 596/543/596 604/549/604
f 595/542/595 604/549/604 603/547/603
f 596/543/596 597/538/597 605/544/605
f 596/543/596 605/544/605 604/549/604
f 597/538/597 591/539/592 598/545/599
f 597/538/597 598/545/599 605/544/605
f 598/545/599 599/544/598 607/550/606
f 598/545/599 607/550/606 606/551/607
f 599/544/598 600/546/600 608/552/608
f 599/544/598 608/552/608 607/550/606
f 600/546/600 601/547/601 608/552/608
f 601/547/601 602/548/602 609/553/609
f 601/547/601 609/553/609 608/552/608
f 602/548/602 603/547/603 609/553/609
f 603/547/603 604/549/604 609/553/609
f 604/549/604 605/544/605 606/551/607
f 605/544/605 598/545/599 606/551/607
f 606/551/607 607/550/606 610/554/610
f 607/550/606 608/552/608 610/554/610
f 608/552/608 611/555/611 610/554/610
f 608/552/608 609/553/609 612/556/612
f 608/552/608 612/556/612 611/555/611
f 609/553/609 604/549/604 613/557/613
f 609/553/609 613/557/613 612/556/612
f 604/549/604 606/551/607 613/557/613
f 606/551/607 610/554/610 615/558/614
f 606/551/607 615/558/614 614/559/615
f 610/554/610 611/555/611 616/560/616
f 610/554/610 616/560/616 615/558/614
f 611/555/611 612/556/612 617/561/617
f 611/555/611 617/561/617 616/560/616
f 612/556/612 613/557/613 617/561/617
f 613/557/613 614/559/615 617/561/617
f 613/557/613 606/551/607 614/559/615
f 614/559/615 615/558/614 618/562/618
f 615/558/614 616/560/616 618/562/618
f 616/560/616 617/561/617 618/562/618
f 617/561/617 614/559/615 618/562/618
