# Blender 5.1.2
# www.blender.org
o inferno_scorch_v4
v 0.000000 0.003000 -0.000000
v 1.102319 0.003000 0.367747
v 0.123361 0.003000 1.156914
v -0.988927 0.003000 0.493604
v -0.725533 0.003000 -0.896628
v 0.724401 0.003000 -0.815974
v 2.500690 0.003000 0.167155
v 1.908586 0.003000 1.303834
v 0.871584 0.003000 2.253545
v -0.378140 0.003000 2.374109
v -1.582388 0.003000 1.754620
v -2.373317 0.003000 0.219795
v -2.052897 0.003000 -1.359549
v -0.849236 0.003000 -2.226963
v 0.364385 0.003000 -2.361670
v 1.249321 0.003000 -2.024499
v 2.090751 0.003000 -1.070813
v 3.751035 0.003000 0.250732
v 3.162838 0.003000 1.427617
v 2.562922 0.003000 2.483884
v 1.825516 0.003000 3.401512
v 0.789235 0.003000 3.359124
v -0.567210 0.003000 3.561163
v -1.895443 0.003000 3.136474
v -2.851722 0.003000 2.127387
v -3.672940 0.003000 0.879676
v -3.447013 0.003000 -0.220290
v -3.432342 0.003000 -1.560620
v -2.726348 0.003000 -2.518028
v -1.692780 0.003000 -2.988581
v -0.854928 0.003000 -3.692307
v 0.546578 0.003000 -3.542506
v 1.873981 0.003000 -3.036748
v 2.899544 0.003000 -2.210901
v 3.372710 0.003000 -1.001537
v 4.953699 0.003000 -0.156958
v 5.049061 0.003000 0.825577
v 4.217117 0.003000 1.903490
v 3.748183 0.003000 2.973902
v 3.086275 0.003000 3.649789
v 2.434022 0.003000 4.535349
v 1.052313 0.003000 4.478832
v -0.165441 0.003000 4.802061
v -1.347119 0.003000 4.694374
v -2.527257 0.003000 4.181965
v -3.333674 0.003000 3.115978
v -4.270917 0.003000 2.557053
v -4.897252 0.003000 1.172901
v -4.596017 0.003000 -0.293720
v -4.576456 0.003000 -2.080826
v -3.635131 0.003000 -3.357370
v -2.257040 0.003000 -3.984775
v -1.139904 0.003000 -4.923076
v 0.150432 0.003000 -4.846872
v 1.307109 0.003000 -4.599809
v 2.498642 0.003000 -4.048998
v 3.712508 0.003000 -3.483492
v 4.019609 0.003000 -2.412246
v 4.496947 0.003000 -1.335383
v 6.192123 0.003000 -0.196197
v 6.311326 0.003000 1.031971
v 5.271396 0.003000 2.379362
v 4.685229 0.003000 3.717378
v 3.857843 0.003000 4.562236
v 3.042528 0.003000 5.669187
v 1.315392 0.003000 5.598540
v -0.206802 0.003000 6.002577
v -1.683898 0.003000 5.867968
v -2.932544 0.003000 5.724301
v -3.385599 0.003000 4.730611
v -4.167093 0.003000 3.894973
v -5.338646 0.003000 3.196316
v -5.857591 0.003000 1.877311
v -6.385541 0.003000 1.054941
v -5.894923 0.003000 0.199492
v -5.595119 0.003000 -0.933792
v -5.720571 0.003000 -2.601032
v -4.543915 0.003000 -4.196713
v -3.257654 0.003000 -4.687159
v -2.384945 0.003000 -5.274777
v -1.424881 0.003000 -6.153845
v 0.188040 0.003000 -6.058591
v 1.633886 0.003000 -5.749761
v 2.587997 0.003000 -5.022927
v 3.658607 0.003000 -5.099567
v 4.640635 0.003000 -4.354364
v 5.024512 0.003000 -3.015307
v 5.621183 0.003000 -1.669229
v 7.430548 0.003000 -0.235437
v 7.803287 0.003000 0.767261
v 7.343895 0.003000 1.709470
v 6.632462 0.003000 2.491274
v 6.018889 0.003000 3.219196
v 5.622275 0.003000 4.460854
v 4.629412 0.003000 5.474684
v 4.174703 0.003002 6.717119
v 3.127363 0.003002 6.888928
v 2.053241 0.003002 6.758596
v 1.103698 0.003002 6.677900
v 0.225738 0.003002 7.059338
v -0.722062 0.003002 7.346846
v -2.020678 0.003002 7.041561
v -3.260641 0.003002 7.195566
v -3.920090 0.003000 6.109746
v -5.000511 0.003000 4.673968
v -6.406375 0.003000 3.835579
v -7.029109 0.003000 2.252774
v -7.662649 0.003000 1.265929
v -7.073908 0.003000 0.239390
v -6.714143 0.003000 -1.120549
v -6.949616 0.003000 -2.620658
v -6.779751 0.003000 -3.621820
v -5.734189 0.003000 -4.552521
v -5.171205 0.003000 -5.519589
v -3.989689 0.003000 -6.082867
v -2.861934 0.003000 -6.329733
v -2.159436 0.002998 -7.128738
v -1.260278 0.002998 -7.640491
v -0.249089 0.002998 -7.445118
v 0.700385 0.002998 -7.095500
v 1.960664 0.002998 -6.899713
v 3.105597 0.003000 -6.027513
v 4.390329 0.003000 -6.119481
v 5.286119 0.003000 -5.643784
v 5.851406 0.003000 -4.806691
v 6.029414 0.003000 -3.618368
v 6.776835 0.003000 -2.549814
v 6.714005 0.003000 -1.456335
v 8.668973 0.003000 -0.274676
v 9.103834 0.003000 0.895137
v 8.567878 0.003000 1.994381
v 7.737872 0.003000 2.906486
v 7.022038 0.003000 3.755728
v 6.559321 0.003000 5.204329
v 5.540781 0.003000 5.917757
v 5.261181 0.003002 6.856504
v 4.870487 0.003002 7.836639
v 3.648591 0.003002 8.037083
v 2.395448 0.003002 7.885029
v 1.287648 0.003002 7.790884
v 0.263361 0.003002 8.235895
v -0.842406 0.003002 8.571320
v -1.893957 0.003002 8.120034
v -2.820958 0.003002 8.310275
v -3.804081 0.003002 8.394827
v -4.407041 0.003002 7.633218
v -4.739839 0.003002 6.622856
v -5.406714 0.003000 5.772863
v -6.261146 0.003000 5.133061
v -7.474104 0.003000 4.474843
v -8.200626 0.003000 2.628235
v -8.939756 0.003000 1.476917
v -8.688475 0.003000 0.139644
v -7.745568 0.003000 -0.764384
v -7.920765 0.003000 -1.850231
v -8.107886 0.003000 -3.057435
v -7.909710 0.003000 -4.225457
v -6.689887 0.003000 -5.311275
v -6.033072 0.003000 -6.439521
v -5.051238 0.003000 -6.582901
v -3.338923 0.002998 -7.384688
v -2.519341 0.002998 -8.316861
v -1.470324 0.002998 -8.913905
v -0.290603 0.002998 -8.685970
v 0.817116 0.002998 -8.278084
v 2.287441 0.002998 -8.049664
v 3.623197 0.002998 -7.032099
v 5.122051 0.002998 -7.139395
v 6.167139 0.003000 -6.584414
v 6.826640 0.003000 -5.607807
v 7.034317 0.003000 -4.221430
v 7.906307 0.003000 -2.974783
v 7.833006 0.003000 -1.699058
v 9.907398 0.003000 -0.313915
v 10.404383 0.003000 1.023014
v 9.791861 0.003000 2.279293
v 8.843282 0.003000 3.321698
v 8.025186 0.003000 4.292261
v 7.496367 0.003000 5.947804
v 6.332321 0.003002 6.763151
v 6.012778 0.003002 7.836005
v 5.566271 0.003002 8.956160
v 4.169818 0.003002 9.185238
v 2.737655 0.003002 9.011461
v 1.471598 0.003002 8.903868
v 0.300985 0.003002 9.412451
v -0.962749 0.003002 9.795794
v -2.164522 0.003002 9.280039
v -3.223952 0.003002 9.497458
v -4.347521 0.003002 9.594088
v -5.036618 0.003002 8.723678
v -5.416958 0.003002 7.568978
v -6.179102 0.003000 6.597558
v -7.155595 0.003000 5.866356
v -8.190973 0.003000 5.473033
v -8.892694 0.003000 4.755178
v -9.073658 0.003000 3.416158
v -9.670632 0.003000 2.591238
v -10.216866 0.003000 1.687905
v -10.002131 0.003000 0.319187
v -8.852077 0.003000 -0.873582
v -9.052303 0.003000 -2.114550
v -9.266155 0.003000 -3.494211
v -9.039669 0.003000 -4.829093
v -7.895251 0.003000 -5.654008
v -7.395921 0.003000 -6.486048
v -6.894940 0.002998 -7.359452
v -5.772843 0.002998 -7.523316
v -4.651649 0.002998 -7.475593
v -3.815912 0.002998 -8.439644
v -2.879248 0.002998 -9.504984
v -1.680370 0.002998 -10.187321
v -0.332118 0.002998 -9.926824
v 0.933846 0.002998 -9.460667
v 2.229321 0.002998 -9.564125
v 2.999116 0.002998 -8.835110
v 3.638209 0.002998 -8.030794
v 4.643383 0.002998 -8.042574
v 5.853772 0.002998 -8.159308
v 7.048159 0.002998 -7.525045
v 7.801874 0.003000 -6.408922
v 7.906279 0.003000 -5.282806
v 8.172160 0.003000 -4.366176
v 9.035780 0.003000 -3.399752
v 9.029692 0.003000 -2.419499
v 8.874323 0.003000 -1.464062
v 11.515434 0.003000 -0.000000
v 11.704929 0.003000 1.150891
v 11.015842 0.003000 2.564204
v 9.948692 0.003000 3.736910
v 9.028334 0.003000 4.828794
v 8.812164 0.003000 6.318812
v 8.054660 0.003002 7.063747
v 7.123861 0.003002 7.608544
v 6.764375 0.003002 8.815505
v 6.262054 0.003002 10.075680
v 4.691045 0.003002 10.333393
v 3.079862 0.003002 10.137894
v 1.655547 0.003002 10.016851
v 0.338607 0.003002 10.589007
v -1.083093 0.003002 11.020267
v -2.435087 0.003002 10.440043
v -3.626946 0.003002 10.684640
v -4.890962 0.003002 10.793348
v -5.666195 0.003002 9.814137
v -6.094078 0.003002 8.515100
v -6.951490 0.003002 7.422253
v -7.708826 0.003002 6.760458
v -8.803054 0.003000 6.298003
v -10.004280 0.003000 5.349576
v -10.207865 0.003000 3.843177
v -10.879461 0.003000 2.915143
v -11.493973 0.003000 1.898894
v -10.957157 0.003000 0.718170
v -9.958588 0.003000 -0.982780
v -10.183842 0.003000 -2.378869
v -10.424425 0.003000 -3.930988
v -10.169626 0.003000 -5.432731
v -8.882157 0.003000 -6.360760
v -8.320411 0.002998 -7.296804
v -7.756807 0.002998 -8.279385
v -6.494449 0.002998 -8.463731
v -5.233106 0.002998 -8.410042
v -4.292901 0.002998 -9.494600
v -3.239153 0.002998 -10.693108
v -1.890416 0.002998 -11.460735
v -0.373633 0.002998 -11.167677
v 1.050577 0.002998 -10.643250
v 2.507986 0.002998 -10.759640
v 3.374005 0.002998 -9.939498
v 4.092985 0.002998 -9.034643
v 5.223805 0.002998 -9.047895
v 6.585494 0.002998 -9.179222
v 7.929179 0.002998 -8.465675
v 8.777109 0.002998 -7.210037
v 8.894564 0.003000 -5.943157
v 9.193680 0.003000 -4.911948
v 10.165253 0.003000 -3.824721
v 10.158403 0.003000 -2.721936
v 9.983612 0.003000 -1.647070
v 10.776211 0.003000 -0.706310
v 12.794927 0.003000 -0.000000
v 13.112767 0.003000 0.859456
v 12.898189 0.003000 1.698079
v 12.472624 0.003000 2.480959
v 12.007027 0.003000 3.217273
v 11.413592 0.003000 3.874393
v 10.694613 0.003000 4.429853
v 10.126557 0.003000 4.993865
v 9.936407 0.003000 5.736787
v 9.928987 0.003002 6.634336
v 9.653602 0.003002 7.407469
v 8.949622 0.003002 7.848608
v 8.152854 0.003002 8.152854
v 7.677948 0.003002 8.755023
v 7.515973 0.003002 9.795006
v 7.272441 0.003002 10.883977
v 6.643236 0.003002 11.506421
v 5.703681 0.003002 11.565922
v 4.720864 0.003002 11.397173
v 3.833912 0.003002 11.294339
v 3.010225 0.003002 11.234314
v 2.213454 0.003002 11.127787
v 1.465540 0.003002 11.131883
v 0.752461 0.003002 11.480330
v 0.000000 0.003002 12.050797
v -0.810237 0.003002 12.361826
v -1.596637 0.003002 12.127658
v -2.319816 0.003002 11.662503
v -3.091489 0.003002 11.537594
v -4.029941 0.003002 11.871822
v -5.034667 0.003002 12.154760
v -5.834137 0.003002 11.830459
v -6.295772 0.003002 10.904597
v -6.586246 0.003002 9.857015
v -6.956149 0.003002 9.065430
v -7.457428 0.003002 8.503567
v -7.990327 0.003002 7.990327
v -8.565362 0.003002 7.511621
v -9.323627 0.003002 7.154270
v -10.238717 0.003002 6.841292
v -10.978797 0.003000 6.338612
v -11.252937 0.003000 5.549335
v -11.238263 0.003000 4.655041
v -11.445881 0.003000 3.885353
v -12.088290 0.003000 3.239048
v -12.742725 0.003000 2.534686
v -12.799438 0.003000 1.685078
v -12.174619 0.003000 0.797967
v -11.405073 0.003000 -0.000000
v -11.035419 0.003000 -0.723300
v -11.094777 0.003000 -1.460655
v -11.262381 0.003000 -2.240227
v -11.368379 0.003000 -3.046148
v -11.502117 0.003000 -3.904443
v -11.663272 0.003000 -4.831085
v -11.577764 0.003000 -5.709521
v -11.021408 0.003000 -6.363213
v -10.192578 0.002998 -6.810463
v -9.545549 0.002998 -7.324557
v -9.244901 0.002998 -8.107560
v -8.959130 0.002998 -8.959130
v -8.278220 0.002998 -9.439501
v -7.216054 0.002998 -9.404145
v -6.172359 0.002998 -9.237588
v -5.456765 0.002998 -9.451393
v -4.999705 0.002998 -10.138399
v -4.540075 0.002998 -10.960711
v -3.944923 0.002998 -11.621369
v -3.253196 0.002998 -12.141090
v -2.507731 0.002998 -12.607218
v -1.693194 0.002998 -12.861083
v -0.830295 0.002998 -12.667856
v 0.000000 0.002998 -12.149202
v 0.772519 0.002998 -11.786360
v 1.562097 0.002998 -11.865308
v 2.401370 0.002998 -12.072500
v 3.171932 0.002998 -11.837811
v 3.748894 0.002998 -11.043887
v 4.226272 0.002998 -10.203124
v 4.869250 0.002998 -9.873861
v 5.804228 0.002998 -10.053218
v 6.858553 0.002998 -10.264550
v 7.775877 0.002998 -10.133720
v 8.498741 0.002998 -9.690956
v 9.121656 0.002998 -9.121656
v 9.629162 0.002998 -8.444548
v 9.875525 0.002998 -7.577757
v 9.882848 0.003000 -6.603508
v 9.979017 0.003000 -5.761388
v 10.451384 0.003000 -5.154052
v 11.119621 0.003000 -4.605898
v 11.469828 0.003000 -3.893482
v 11.287115 0.003000 -3.024373
v 10.992278 0.003000 -2.186500
v 11.193528 0.003000 -1.473656
v 11.973567 0.003000 -0.784789
vn -0.0000 1.0000 -0.0000
vt 0.500000 0.500000
vt 0.504235 0.539715
vt 0.537841 0.512624
vt 0.466052 0.516945
vt 0.475094 0.469220
vt 0.524868 0.471988
vt 0.565518 0.544758
vt 0.585845 0.505738
vt 0.529920 0.577361
vt 0.487019 0.581499
vt 0.445679 0.560233
vt 0.418528 0.507545
vt 0.429528 0.453329
vt 0.470847 0.423552
vt 0.512509 0.418928
vt 0.542887 0.430502
vt 0.571772 0.463241
vt 0.608575 0.549008
vt 0.628767 0.508607
vt 0.587981 0.585268
vt 0.562667 0.616768
vt 0.527093 0.615313
vt 0.480529 0.622249
vt 0.434933 0.607670
vt 0.402105 0.573030
vt 0.373914 0.530198
vt 0.381670 0.492438
vt 0.382173 0.446427
vt 0.406409 0.413560
vt 0.441890 0.397407
vt 0.470652 0.373249
vt 0.518763 0.378392
vt 0.564331 0.395753
vt 0.599537 0.424103
vt 0.615780 0.465619
vt 0.673326 0.528341
vt 0.670052 0.494612
vt 0.644767 0.565344
vt 0.628669 0.602089
vt 0.605947 0.625291
vt 0.583556 0.655691
vt 0.536124 0.653751
vt 0.494321 0.664847
vt 0.453756 0.661150
vt 0.413243 0.643560
vt 0.385560 0.606966
vt 0.353386 0.587779
vt 0.331886 0.540264
vt 0.342227 0.489917
vt 0.342898 0.428569
vt 0.375212 0.384747
vt 0.422520 0.363209
vt 0.460869 0.330999
vt 0.505164 0.333615
vt 0.544871 0.342096
vt 0.585774 0.361004
vt 0.627444 0.380417
vt 0.637987 0.417192
vt 0.654373 0.454158
vt 0.716658 0.535426
vt 0.712565 0.493265
vt 0.680959 0.581680
vt 0.660836 0.627611
vt 0.632433 0.656614
vt 0.604445 0.694614
vt 0.545155 0.692189
vt 0.492901 0.706059
vt 0.442195 0.701438
vt 0.399331 0.696506
vt 0.383778 0.662394
vt 0.356951 0.633708
vt 0.316733 0.609724
vt 0.298918 0.564445
vt 0.280795 0.536214
vt 0.297637 0.506848
vt 0.307929 0.467945
vt 0.303622 0.410711
vt 0.344015 0.355934
vt 0.388170 0.339098
vt 0.418129 0.318926
vt 0.451086 0.288749
vt 0.506455 0.292019
vt 0.556089 0.302620
vt 0.588842 0.327571
vt 0.625594 0.324940
vt 0.659306 0.350522
vt 0.672483 0.396489
vt 0.692966 0.442699
vt 0.767874 0.526339
vt 0.755078 0.491918
vt 0.752104 0.558683
vt 0.727682 0.585521
vt 0.706619 0.610510
vt 0.693003 0.653134
vt 0.658921 0.687937
vt 0.643311 0.730588
vt 0.607357 0.736486
vt 0.570484 0.732011
vt 0.537888 0.729241
vt 0.507749 0.742335
vt 0.475213 0.752205
vt 0.430633 0.741725
vt 0.388068 0.747012
vt 0.365430 0.709737
vt 0.328341 0.660450
vt 0.280079 0.631669
vt 0.258702 0.577334
vt 0.236954 0.543457
vt 0.257164 0.508218
vt 0.269515 0.461533
vt 0.261431 0.410037
vt 0.267262 0.375669
vt 0.303155 0.343719
vt 0.322481 0.310522
vt 0.363041 0.291185
vt 0.401754 0.282711
vt 0.425870 0.255282
vt 0.456737 0.237715
vt 0.491449 0.244421
vt 0.524043 0.256423
vt 0.567307 0.263144
vt 0.606610 0.293086
vt 0.650713 0.289928
vt 0.681464 0.306258
vt 0.700869 0.334994
vt 0.706980 0.375787
vt 0.732638 0.412469
vt 0.730481 0.450006
vt 0.812520 0.530729
vt 0.797592 0.490571
vt 0.794121 0.568464
vt 0.765628 0.599775
vt 0.741055 0.628928
vt 0.725171 0.678656
vt 0.690206 0.703147
vt 0.680608 0.735372
vt 0.667196 0.769019
vt 0.625250 0.775900
vt 0.582232 0.770680
vt 0.544203 0.767448
vt 0.509041 0.782725
vt 0.471082 0.794239
vt 0.434984 0.778747
vt 0.403161 0.785278
vt 0.369412 0.788181
vt 0.348713 0.762036
vt 0.337289 0.727352
vt 0.314396 0.698173
vt 0.285065 0.676210
vt 0.243426 0.653614
vt 0.218486 0.590223
vt 0.193113 0.550700
vt 0.201739 0.504794
vt 0.234107 0.473760
vt 0.228093 0.436485
vt 0.221670 0.395043
vt 0.228473 0.354947
vt 0.270347 0.317672
vt 0.292894 0.278942
vt 0.326599 0.274020
vt 0.385380 0.246496
vt 0.413515 0.214496
vt 0.449526 0.194000
vt 0.490024 0.201825
vt 0.528050 0.215827
vt 0.578524 0.223668
vt 0.624379 0.258600
vt 0.675832 0.254916
vt 0.711708 0.273968
vt 0.734347 0.307493
vt 0.741477 0.355085
vt 0.771411 0.397881
vt 0.768894 0.441675
vt 0.857165 0.535118
vt 0.840104 0.489224
vt 0.836138 0.578244
vt 0.803575 0.614028
vt 0.775491 0.647346
vt 0.757338 0.704178
vt 0.717378 0.732168
vt 0.706409 0.768997
vt 0.691081 0.807450
vt 0.643143 0.815314
vt 0.593979 0.809349
vt 0.550518 0.805655
vt 0.510332 0.823114
vt 0.466950 0.836274
vt 0.425696 0.818568
vt 0.389327 0.826032
vt 0.350757 0.829349
vt 0.327101 0.799469
vt 0.314045 0.759831
vt 0.287882 0.726483
vt 0.254360 0.701382
vt 0.218817 0.687880
vt 0.194728 0.663237
vt 0.188516 0.617271
vt 0.168023 0.588953
vt 0.149272 0.557943
vt 0.156643 0.510957
vt 0.196123 0.470011
vt 0.189249 0.427411
vt 0.181908 0.380049
vt 0.189683 0.334225
vt 0.228969 0.305907
vt 0.246110 0.277345
vt 0.263308 0.247362
vt 0.301828 0.241737
vt 0.340317 0.243375
vt 0.369006 0.210281
vt 0.401160 0.173710
vt 0.442316 0.150286
vt 0.488599 0.159229
vt 0.532057 0.175231
vt 0.576529 0.171679
vt 0.602955 0.196705
vt 0.624894 0.224316
vt 0.659400 0.223912
vt 0.700950 0.219904
vt 0.741952 0.241678
vt 0.767825 0.279992
vt 0.771410 0.318650
vt 0.780537 0.350116
vt 0.810184 0.383292
vt 0.809974 0.416943
vt 0.804641 0.449741
vt 0.901811 0.539508
vt 0.895306 0.500000
vt 0.878155 0.588025
vt 0.841523 0.628282
vt 0.809928 0.665765
vt 0.802507 0.716914
vt 0.776503 0.742487
vt 0.744550 0.761189
vt 0.732210 0.802622
vt 0.714966 0.845881
vt 0.661036 0.854728
vt 0.605727 0.848017
vt 0.556832 0.843862
vt 0.511624 0.863504
vt 0.462819 0.878308
vt 0.416407 0.858389
vt 0.375493 0.866786
vt 0.332101 0.870518
vt 0.305489 0.836903
vt 0.290801 0.792310
vt 0.261367 0.754794
vt 0.235369 0.732075
vt 0.197805 0.716200
vt 0.156570 0.683643
vt 0.149581 0.631930
vt 0.126526 0.600072
vt 0.105431 0.565186
vt 0.123859 0.524654
vt 0.158138 0.466263
vt 0.150405 0.418337
vt 0.142146 0.365056
vt 0.150894 0.313503
vt 0.195090 0.281645
vt 0.214374 0.249513
vt 0.233722 0.215782
vt 0.277056 0.209454
vt 0.320356 0.211297
vt 0.352632 0.174066
vt 0.388805 0.132923
vt 0.435105 0.106571
vt 0.487174 0.116632
vt 0.536065 0.134635
vt 0.586095 0.130639
vt 0.615824 0.158793
vt 0.640505 0.189856
vt 0.679325 0.189401
vt 0.726069 0.184892
vt 0.772195 0.209388
vt 0.801304 0.252491
vt 0.805336 0.295981
vt 0.815604 0.331381
vt 0.848956 0.368704
vt 0.848721 0.406560
vt 0.842721 0.443459
vt 0.869930 0.475753
vt 0.950140 0.529504
vt 0.939229 0.500000
vt 0.942774 0.558292
vt 0.928165 0.585167
vt 0.912181 0.610444
vt 0.891810 0.633002
vt 0.867128 0.652070
vt 0.847628 0.671431
vt 0.841101 0.696935
vt 0.840846 0.727746
vt 0.831392 0.754286
vt 0.807226 0.769430
vt 0.779874 0.779874
vt 0.763571 0.800546
vt 0.758011 0.836246
vt 0.749651 0.873629
vt 0.728051 0.894997
vt 0.695798 0.897039
vt 0.662059 0.891246
vt 0.631612 0.887716
vt 0.603336 0.885656
vt 0.575984 0.881999
vt 0.550310 0.882139
vt 0.525831 0.894101
vt 0.500000 0.913684
vt 0.472186 0.924361
vt 0.445190 0.916323
vt 0.420364 0.900355
vt 0.393874 0.896067
vt 0.361659 0.907540
vt 0.327168 0.917253
vt 0.299724 0.906120
vt 0.283877 0.874337
vt 0.273905 0.838375
vt 0.261207 0.811201
vt 0.243999 0.791914
vt 0.225705 0.774295
vt 0.205965 0.757862
vt 0.179935 0.745594
vt 0.148522 0.734850
vt 0.123116 0.717594
vt 0.113705 0.690499
vt 0.114209 0.659800
vt 0.107082 0.633378
vt 0.085029 0.611191
vt 0.062563 0.587012
vt 0.060616 0.557846
vt 0.082065 0.527393
vt 0.108483 0.500000
vt 0.121172 0.475170
vt 0.119135 0.449858
vt 0.113381 0.423097
vt 0.109742 0.395431
vt 0.105151 0.365967
vt 0.099619 0.334157
vt 0.102554 0.304002
vt 0.121653 0.281561
vt 0.150106 0.266208
vt 0.172317 0.248560
vt 0.182638 0.221681
vt 0.192448 0.192448
vt 0.215822 0.175957
vt 0.252285 0.177171
vt 0.288113 0.182889
vt 0.312678 0.175549
vt 0.328368 0.151965
vt 0.344147 0.123737
vt 0.364577 0.101057
vt 0.388323 0.083216
vt 0.413914 0.067215
vt 0.441875 0.058500
vt 0.471497 0.065133
vt 0.500000 0.082938
vt 0.526519 0.095394
vt 0.553624 0.092684
vt 0.582435 0.085571
vt 0.608887 0.093627
vt 0.628693 0.120881
vt 0.645081 0.149743
vt 0.667153 0.161047
vt 0.699250 0.154889
vt 0.735443 0.147635
vt 0.766933 0.152126
vt 0.791748 0.167325
vt 0.813132 0.186869
vt 0.830553 0.210112
vt 0.839011 0.239868
vt 0.839262 0.273312
vt 0.842563 0.302221
vt 0.858779 0.323070
vt 0.881718 0.341887
vt 0.893740 0.366343
vt 0.887468 0.396178
vt 0.877347 0.424941
vt 0.884255 0.449412
vt 0.911033 0.473060
s 1
f 1/1/1 3/2/1 2/3/1
f 1/1/1 4/4/1 3/2/1
f 1/1/1 5/5/1 4/4/1
f 1/1/1 6/6/1 5/5/1
f 1/1/1 2/3/1 6/6/1
f 2/3/1 8/7/1 7/8/1
f 2/3/1 3/2/1 9/9/1
f 2/3/1 9/9/1 8/7/1
f 3/2/1 10/10/1 9/9/1
f 3/2/1 4/4/1 11/11/1
f 3/2/1 11/11/1 10/10/1
f 4/4/1 12/12/1 11/11/1
f 4/4/1 5/5/1 13/13/1
f 4/4/1 13/13/1 12/12/1
f 5/5/1 14/14/1 13/13/1
f 5/5/1 6/6/1 15/15/1
f 5/5/1 15/15/1 14/14/1
f 6/6/1 16/16/1 15/15/1
f 6/6/1 17/17/1 16/16/1
f 6/6/1 2/3/1 7/8/1
f 6/6/1 7/8/1 17/17/1
f 7/8/1 8/7/1 19/18/1
f 7/8/1 19/18/1 18/19/1
f 8/7/1 20/20/1 19/18/1
f 8/7/1 9/9/1 21/21/1
f 8/7/1 21/21/1 20/20/1
f 9/9/1 22/22/1 21/21/1
f 9/9/1 10/10/1 23/23/1
f 9/9/1 23/23/1 22/22/1
f 10/10/1 11/11/1 24/24/1
f 10/10/1 24/24/1 23/23/1
f 11/11/1 25/25/1 24/24/1
f 11/11/1 12/12/1 26/26/1
f 11/11/1 26/26/1 25/25/1
f 12/12/1 27/27/1 26/26/1
f 12/12/1 13/13/1 28/28/1
f 12/12/1 28/28/1 27/27/1
f 13/13/1 29/29/1 28/28/1
f 13/13/1 14/14/1 30/30/1
f 13/13/1 30/30/1 29/29/1
f 14/14/1 31/31/1 30/30/1
f 14/14/1 15/15/1 32/32/1
f 14/14/1 32/32/1 31/31/1
f 15/15/1 16/16/1 33/33/1
f 15/15/1 33/33/1 32/32/1
f 16/16/1 17/17/1 34/34/1
f 16/16/1 34/34/1 33/33/1
f 17/17/1 35/35/1 34/34/1
f 17/17/1 7/8/1 18/19/1
f 17/17/1 18/19/1 35/35/1
f 18/19/1 37/36/1 36/37/1
f 18/19/1 19/18/1 38/38/1
f 18/19/1 38/38/1 37/36/1
f 19/18/1 20/20/1 39/39/1
f 19/18/1 39/39/1 38/38/1
f 20/20/1 40/40/1 39/39/1
f 20/20/1 21/21/1 41/41/1
f 20/20/1 41/41/1 40/40/1
f 21/21/1 22/22/1 42/42/1
f 21/21/1 42/42/1 41/41/1
f 22/22/1 23/23/1 43/43/1
f 22/22/1 43/43/1 42/42/1
f 23/23/1 44/44/1 43/43/1
f 23/23/1 24/24/1 45/45/1
f 23/23/1 45/45/1 44/44/1
f 24/24/1 25/25/1 46/46/1
f 24/24/1 46/46/1 45/45/1
f 25/25/1 47/47/1 46/46/1
f 25/25/1 26/26/1 48/48/1
f 25/25/1 48/48/1 47/47/1
f 26/26/1 27/27/1 49/49/1
f 26/26/1 49/49/1 48/48/1
f 27/27/1 28/28/1 50/50/1
f 27/27/1 50/50/1 49/49/1
f 28/28/1 29/29/1 51/51/1
f 28/28/1 51/51/1 50/50/1
f 29/29/1 30/30/1 52/52/1
f 29/29/1 52/52/1 51/51/1
f 30/30/1 31/31/1 53/53/1
f 30/30/1 53/53/1 52/52/1
f 31/31/1 32/32/1 54/54/1
f 31/31/1 54/54/1 53/53/1
f 32/32/1 55/55/1 54/54/1
f 32/32/1 33/33/1 56/56/1
f 32/32/1 56/56/1 55/55/1
f 33/33/1 34/34/1 57/57/1
f 33/33/1 57/57/1 56/56/1
f 34/34/1 58/58/1 57/57/1
f 34/34/1 35/35/1 59/59/1
f 34/34/1 59/59/1 58/58/1
f 35/35/1 18/19/1 36/37/1
f 35/35/1 36/37/1 59/59/1
f 36/37/1 37/36/1 61/60/1
f 36/37/1 61/60/1 60/61/1
f 37/36/1 38/38/1 62/62/1
f 37/36/1 62/62/1 61/60/1
f 38/38/1 39/39/1 63/63/1
f 38/38/1 63/63/1 62/62/1
f 39/39/1 40/40/1 64/64/1
f 39/39/1 64/64/1 63/63/1
f 40/40/1 41/41/1 65/65/1
f 40/40/1 65/65/1 64/64/1
f 41/41/1 42/42/1 66/66/1
f 41/41/1 66/66/1 65/65/1
f 42/42/1 43/43/1 67/67/1
f 42/42/1 67/67/1 66/66/1
f 43/43/1 44/44/1 68/68/1
f 43/43/1 68/68/1 67/67/1
f 44/44/1 45/45/1 69/69/1
f 44/44/1 69/69/1 68/68/1
f 45/45/1 70/70/1 69/69/1
f 45/45/1 46/46/1 71/71/1
f 45/45/1 71/71/1 70/70/1
f 46/46/1 47/47/1 72/72/1
f 46/46/1 72/72/1 71/71/1
f 47/47/1 48/48/1 73/73/1
f 47/47/1 73/73/1 72/72/1
f 48/48/1 74/74/1 73/73/1
f 48/48/1 49/49/1 75/75/1
f 48/48/1 75/75/1 74/74/1
f 49/49/1 76/76/1 75/75/1
f 49/49/1 50/50/1 77/77/1
f 49/49/1 77/77/1 76/76/1
f 50/50/1 51/51/1 78/78/1
f 50/50/1 78/78/1 77/77/1
f 51/51/1 52/52/1 79/79/1
f 51/51/1 79/79/1 78/78/1
f 52/52/1 80/80/1 79/79/1
f 52/52/1 53/53/1 81/81/1
f 52/52/1 81/81/1 80/80/1
f 53/53/1 54/54/1 82/82/1
f 53/53/1 82/82/1 81/81/1
f 54/54/1 55/55/1 83/83/1
f 54/54/1 83/83/1 82/82/1
f 55/55/1 56/56/1 84/84/1
f 55/55/1 84/84/1 83/83/1
f 56/56/1 85/85/1 84/84/1
f 56/56/1 57/57/1 86/86/1
f 56/56/1 86/86/1 85/85/1
f 57/57/1 58/58/1 87/87/1
f 57/57/1 87/87/1 86/86/1
f 58/58/1 59/59/1 88/88/1
f 58/58/1 88/88/1 87/87/1
f 59/59/1 36/37/1 60/61/1
f 59/59/1 60/61/1 88/88/1
f 60/61/1 61/60/1 90/89/1
f 60/61/1 90/89/1 89/90/1
f 61/60/1 91/91/1 90/89/1
f 61/60/1 62/62/1 92/92/1
f 61/60/1 92/92/1 91/91/1
f 62/62/1 93/93/1 92/92/1
f 62/62/1 63/63/1 94/94/1
f 62/62/1 94/94/1 93/93/1
f 63/63/1 64/64/1 95/95/1
f 63/63/1 95/95/1 94/94/1
f 64/64/1 65/65/1 96/96/1
f 64/64/1 96/96/1 95/95/1
f 65/65/1 97/97/1 96/96/1
f 65/65/1 66/66/1 98/98/1
f 65/65/1 98/98/1 97/97/1
f 66/66/1 99/99/1 98/98/1
f 66/66/1 67/67/1 100/100/1
f 66/66/1 100/100/1 99/99/1
f 67/67/1 101/101/1 100/100/1
f 67/67/1 68/68/1 102/102/1
f 67/67/1 102/102/1 101/101/1
f 68/68/1 69/69/1 103/103/1
f 68/68/1 103/103/1 102/102/1
f 69/69/1 104/104/1 103/103/1
f 69/69/1 70/70/1 104/104/1
f 70/70/1 71/71/1 105/105/1
f 70/70/1 105/105/1 104/104/1
f 71/71/1 72/72/1 106/106/1
f 71/71/1 106/106/1 105/105/1
f 72/72/1 73/73/1 107/107/1
f 72/72/1 107/107/1 106/106/1
f 73/73/1 74/74/1 108/108/1
f 73/73/1 108/108/1 107/107/1
f 74/74/1 75/75/1 109/109/1
f 74/74/1 109/109/1 108/108/1
f 75/75/1 76/76/1 110/110/1
f 75/75/1 110/110/1 109/109/1
f 76/76/1 77/77/1 111/111/1
f 76/76/1 111/111/1 110/110/1
f 77/77/1 112/112/1 111/111/1
f 77/77/1 78/78/1 113/113/1
f 77/77/1 113/113/1 112/112/1
f 78/78/1 114/114/1 113/113/1
f 78/78/1 79/79/1 115/115/1
f 78/78/1 115/115/1 114/114/1
f 79/79/1 80/80/1 116/116/1
f 79/79/1 116/116/1 115/115/1
f 80/80/1 81/81/1 117/117/1
f 80/80/1 117/117/1 116/116/1
f 81/81/1 118/118/1 117/117/1
f 81/81/1 82/82/1 119/119/1
f 81/81/1 119/119/1 118/118/1
f 82/82/1 120/120/1 119/119/1
f 82/82/1 83/83/1 121/121/1
f 82/82/1 121/121/1 120/120/1
f 83/83/1 84/84/1 122/122/1
f 83/83/1 122/122/1 121/121/1
f 84/84/1 85/85/1 123/123/1
f 84/84/1 123/123/1 122/122/1
f 85/85/1 86/86/1 124/124/1
f 85/85/1 124/124/1 123/123/1
f 86/86/1 125/125/1 124/124/1
f 86/86/1 87/87/1 126/126/1
f 86/86/1 126/126/1 125/125/1
f 87/87/1 88/88/1 127/127/1
f 87/87/1 127/127/1 126/126/1
f 88/88/1 128/128/1 127/127/1
f 88/88/1 60/61/1 89/90/1
f 88/88/1 89/90/1 128/128/1
f 89/90/1 90/89/1 130/129/1
f 89/90/1 130/129/1 129/130/1
f 90/89/1 91/91/1 131/131/1
f 90/89/1 131/131/1 130/129/1
f 91/91/1 92/92/1 132/132/1
f 91/91/1 132/132/1 131/131/1
f 92/92/1 93/93/1 133/133/1
f 92/92/1 133/133/1 132/132/1
f 93/93/1 94/94/1 134/134/1
f 93/93/1 134/134/1 133/133/1
f 94/94/1 95/95/1 135/135/1
f 94/94/1 135/135/1 134/134/1
f 95/95/1 136/136/1 135/135/1
f 95/95/1 96/96/1 137/137/1
f 95/95/1 137/137/1 136/136/1
f 96/96/1 97/97/1 138/138/1
f 96/96/1 138/138/1 137/137/1
f 97/97/1 98/98/1 139/139/1
f 97/97/1 139/139/1 138/138/1
f 98/98/1 99/99/1 140/140/1
f 98/98/1 140/140/1 139/139/1
f 99/99/1 100/100/1 141/141/1
f 99/99/1 141/141/1 140/140/1
f 100/100/1 101/101/1 142/142/1
f 100/100/1 142/142/1 141/141/1
f 101/101/1 102/102/1 143/143/1
f 101/101/1 143/143/1 142/142/1
f 102/102/1 144/144/1 143/143/1
f 102/102/1 103/103/1 145/145/1
f 102/102/1 145/145/1 144/144/1
f 103/103/1 104/104/1 146/146/1
f 103/103/1 146/146/1 145/145/1
f 104/104/1 147/147/1 146/146/1
f 104/104/1 105/105/1 148/148/1
f 104/104/1 148/148/1 147/147/1
f 105/105/1 149/149/1 148/148/1
f 105/105/1 106/106/1 150/150/1
f 105/105/1 150/150/1 149/149/1
f 106/106/1 107/107/1 151/151/1
f 106/106/1 151/151/1 150/150/1
f 107/107/1 108/108/1 152/152/1
f 107/107/1 152/152/1 151/151/1
f 108/108/1 109/109/1 153/153/1
f 108/108/1 153/153/1 152/152/1
f 109/109/1 110/110/1 154/154/1
f 109/109/1 154/154/1 153/153/1
f 110/110/1 155/155/1 154/154/1
f 110/110/1 111/111/1 156/156/1
f 110/110/1 156/156/1 155/155/1
f 111/111/1 112/112/1 157/157/1
f 111/111/1 157/157/1 156/156/1
f 112/112/1 113/113/1 158/158/1
f 112/112/1 158/158/1 157/157/1
f 113/113/1 114/114/1 159/159/1
f 113/113/1 159/159/1 158/158/1
f 114/114/1 115/115/1 160/160/1
f 114/114/1 160/160/1 159/159/1
f 115/115/1 116/116/1 161/161/1
f 116/116/1 117/117/1 162/162/1
f 116/116/1 162/162/1 161/161/1
f 117/117/1 118/118/1 163/163/1
f 117/117/1 163/163/1 162/162/1
f 118/118/1 119/119/1 164/164/1
f 118/118/1 164/164/1 163/163/1
f 119/119/1 120/120/1 165/165/1
f 119/119/1 165/165/1 164/164/1
f 120/120/1 121/121/1 166/166/1
f 120/120/1 166/166/1 165/165/1
f 121/121/1 122/122/1 167/167/1
f 121/121/1 167/167/1 166/166/1
f 122/122/1 123/123/1 168/168/1
f 122/122/1 168/168/1 167/167/1
f 123/123/1 124/124/1 169/169/1
f 123/123/1 169/169/1 168/168/1
f 124/124/1 125/125/1 170/170/1
f 124/124/1 170/170/1 169/169/1
f 125/125/1 126/126/1 171/171/1
f 125/125/1 171/171/1 170/170/1
f 126/126/1 127/127/1 172/172/1
f 126/126/1 172/172/1 171/171/1
f 127/127/1 128/128/1 173/173/1
f 127/127/1 173/173/1 172/172/1
f 128/128/1 89/90/1 129/130/1
f 128/128/1 129/130/1 173/173/1
f 129/130/1 130/129/1 175/174/1
f 129/130/1 175/174/1 174/175/1
f 130/129/1 131/131/1 176/176/1
f 130/129/1 176/176/1 175/174/1
f 131/131/1 132/132/1 177/177/1
f 131/131/1 177/177/1 176/176/1
f 132/132/1 133/133/1 178/178/1
f 132/132/1 178/178/1 177/177/1
f 133/133/1 134/134/1 179/179/1
f 133/133/1 179/179/1 178/178/1
f 134/134/1 135/135/1 180/180/1
f 134/134/1 180/180/1 179/179/1
f 135/135/1 136/136/1 181/181/1
f 135/135/1 181/181/1 180/180/1
f 136/136/1 137/137/1 182/182/1
f 136/136/1 182/182/1 181/181/1
f 137/137/1 138/138/1 183/183/1
f 137/137/1 183/183/1 182/182/1
f 138/138/1 139/139/1 184/184/1
f 138/138/1 184/184/1 183/183/1
f 139/139/1 140/140/1 185/185/1
f 139/139/1 185/185/1 184/184/1
f 140/140/1 141/141/1 186/186/1
f 140/140/1 186/186/1 185/185/1
f 141/141/1 142/142/1 187/187/1
f 141/141/1 187/187/1 186/186/1
f 142/142/1 143/143/1 188/188/1
f 142/142/1 188/188/1 187/187/1
f 143/143/1 144/144/1 189/189/1
f 143/143/1 189/189/1 188/188/1
f 144/144/1 145/145/1 190/190/1
f 144/144/1 190/190/1 189/189/1
f 145/145/1 146/146/1 191/191/1
f 145/145/1 191/191/1 190/190/1
f 146/146/1 147/147/1 192/192/1
f 146/146/1 192/192/1 191/191/1
f 147/147/1 148/148/1 193/193/1
f 147/147/1 193/193/1 192/192/1
f 148/148/1 149/149/1 194/194/1
f 148/148/1 194/194/1 193/193/1
f 149/149/1 150/150/1 195/195/1
f 149/149/1 195/195/1 194/194/1
f 150/150/1 196/196/1 195/195/1
f 150/150/1 151/151/1 197/197/1
f 150/150/1 197/197/1 196/196/1
f 151/151/1 198/198/1 197/197/1
f 151/151/1 152/152/1 199/199/1
f 151/151/1 199/199/1 198/198/1
f 152/152/1 153/153/1 200/200/1
f 152/152/1 200/200/1 199/199/1
f 153/153/1 154/154/1 201/201/1
f 154/154/1 155/155/1 202/202/1
f 154/154/1 202/202/1 201/201/1
f 155/155/1 156/156/1 203/203/1
f 155/155/1 203/203/1 202/202/1
f 156/156/1 157/157/1 204/204/1
f 156/156/1 204/204/1 203/203/1
f 157/157/1 158/158/1 205/205/1
f 157/157/1 205/205/1 204/204/1
f 158/158/1 206/206/1 205/205/1
f 158/158/1 159/159/1 207/207/1
f 158/158/1 207/207/1 206/206/1
f 159/159/1 160/160/1 208/208/1
f 159/159/1 208/208/1 207/207/1
f 160/160/1 115/115/1 209/209/1
f 160/160/1 209/209/1 208/208/1
f 115/115/1 161/161/1 210/210/1
f 115/115/1 210/210/1 209/209/1
f 161/161/1 162/162/1 211/211/1
f 161/161/1 211/211/1 210/210/1
f 162/162/1 163/163/1 212/212/1
f 162/162/1 212/212/1 211/211/1
f 163/163/1 164/164/1 213/213/1
f 163/163/1 213/213/1 212/212/1
f 164/164/1 165/165/1 214/214/1
f 164/164/1 214/214/1 213/213/1
f 165/165/1 166/166/1 215/215/1
f 165/165/1 215/215/1 214/214/1
f 166/166/1 216/216/1 215/215/1
f 166/166/1 167/167/1 217/217/1
f 166/166/1 217/217/1 216/216/1
f 167/167/1 218/218/1 217/217/1
f 167/167/1 168/168/1 219/219/1
f 167/167/1 219/219/1 218/218/1
f 168/168/1 169/169/1 220/220/1
f 168/168/1 220/220/1 219/219/1
f 169/169/1 170/170/1 221/221/1
f 169/169/1 221/221/1 220/220/1
f 170/170/1 171/171/1 222/222/1
f 170/170/1 222/222/1 221/221/1
f 171/171/1 223/223/1 222/222/1
f 171/171/1 172/172/1 224/224/1
f 171/171/1 224/224/1 223/223/1
f 172/172/1 173/173/1 225/225/1
f 172/172/1 225/225/1 224/224/1
f 173/173/1 226/226/1 225/225/1
f 173/173/1 129/130/1 174/175/1
f 173/173/1 174/175/1 226/226/1
f 174/175/1 175/174/1 228/227/1
f 174/175/1 228/227/1 227/228/1
f 175/174/1 176/176/1 229/229/1
f 175/174/1 229/229/1 228/227/1
f 176/176/1 177/177/1 230/230/1
f 176/176/1 230/230/1 229/229/1
f 177/177/1 178/178/1 231/231/1
f 177/177/1 231/231/1 230/230/1
f 178/178/1 179/179/1 232/232/1
f 178/178/1 232/232/1 231/231/1
f 179/179/1 233/233/1 232/232/1
f 179/179/1 180/180/1 234/234/1
f 179/179/1 234/234/1 233/233/1
f 180/180/1 181/181/1 235/235/1
f 180/180/1 235/235/1 234/234/1
f 181/181/1 182/182/1 236/236/1
f 181/181/1 236/236/1 235/235/1
f 182/182/1 183/183/1 237/237/1
f 182/182/1 237/237/1 236/236/1
f 183/183/1 184/184/1 238/238/1
f 183/183/1 238/238/1 237/237/1
f 184/184/1 185/185/1 239/239/1
f 184/184/1 239/239/1 238/238/1
f 185/185/1 186/186/1 240/240/1
f 185/185/1 240/240/1 239/239/1
f 186/186/1 187/187/1 241/241/1
f 186/186/1 241/241/1 240/240/1
f 187/187/1 188/188/1 242/242/1
f 187/187/1 242/242/1 241/241/1
f 188/188/1 189/189/1 243/243/1
f 188/188/1 243/243/1 242/242/1
f 189/189/1 190/190/1 244/244/1
f 189/189/1 244/244/1 243/243/1
f 190/190/1 191/191/1 245/245/1
f 190/190/1 245/245/1 244/244/1
f 191/191/1 192/192/1 246/246/1
f 191/191/1 246/246/1 245/245/1
f 192/192/1 193/193/1 247/247/1
f 192/192/1 247/247/1 246/246/1
f 193/193/1 194/194/1 248/248/1
f 193/193/1 248/248/1 247/247/1
f 194/194/1 249/249/1 248/248/1
f 194/194/1 195/195/1 249/249/1
f 195/195/1 196/196/1 250/250/1
f 195/195/1 250/250/1 249/249/1
f 196/196/1 197/197/1 251/251/1
f 196/196/1 251/251/1 250/250/1
f 197/197/1 198/198/1 252/252/1
f 197/197/1 252/252/1 251/251/1
f 198/198/1 199/199/1 253/253/1
f 198/198/1 253/253/1 252/252/1
f 199/199/1 200/200/1 254/254/1
f 199/199/1 254/254/1 253/253/1
f 153/153/1 201/201/1 255/255/1
f 153/153/1 255/255/1 200/200/1
f 201/201/1 202/202/1 256/256/1
f 201/201/1 256/256/1 255/255/1
f 202/202/1 203/203/1 257/257/1
f 202/202/1 257/257/1 256/256/1
f 203/203/1 204/204/1 258/258/1
f 203/203/1 258/258/1 257/257/1
f 204/204/1 205/205/1 259/259/1
f 204/204/1 259/259/1 258/258/1
f 205/205/1 206/206/1 260/260/1
f 205/205/1 260/260/1 259/259/1
f 206/206/1 207/207/1 261/261/1
f 206/206/1 261/261/1 260/260/1
f 207/207/1 208/208/1 262/262/1
f 207/207/1 262/262/1 261/261/1
f 208/208/1 209/209/1 263/263/1
f 208/208/1 263/263/1 262/262/1
f 209/209/1 210/210/1 264/264/1
f 209/209/1 264/264/1 263/263/1
f 210/210/1 211/211/1 265/265/1
f 210/210/1 265/265/1 264/264/1
f 211/211/1 212/212/1 266/266/1
f 211/211/1 266/266/1 265/265/1
f 212/212/1 213/213/1 267/267/1
f 212/212/1 267/267/1 266/266/1
f 213/213/1 214/214/1 268/268/1
f 213/213/1 268/268/1 267/267/1
f 214/214/1 215/215/1 269/269/1
f 214/214/1 269/269/1 268/268/1
f 215/215/1 216/216/1 270/270/1
f 215/215/1 270/270/1 269/269/1
f 216/216/1 217/217/1 271/271/1
f 216/216/1 271/271/1 270/270/1
f 217/217/1 218/218/1 272/272/1
f 217/217/1 272/272/1 271/271/1
f 218/218/1 219/219/1 273/273/1
f 218/218/1 273/273/1 272/272/1
f 219/219/1 220/220/1 274/274/1
f 219/219/1 274/274/1 273/273/1
f 220/220/1 221/221/1 275/275/1
f 220/220/1 275/275/1 274/274/1
f 221/221/1 222/222/1 276/276/1
f 221/221/1 276/276/1 275/275/1
f 222/222/1 223/223/1 277/277/1
f 222/222/1 277/277/1 276/276/1
f 223/223/1 224/224/1 278/278/1
f 223/223/1 278/278/1 277/277/1
f 224/224/1 225/225/1 279/279/1
f 224/224/1 279/279/1 278/278/1
f 225/225/1 226/226/1 280/280/1
f 225/225/1 280/280/1 279/279/1
f 226/226/1 174/175/1 281/281/1
f 226/226/1 281/281/1 280/280/1
f 174/175/1 227/228/1 281/281/1
f 227/228/1 228/227/1 283/282/1
f 227/228/1 283/282/1 282/283/1
f 228/227/1 284/284/1 283/282/1
f 228/227/1 229/229/1 285/285/1
f 228/227/1 285/285/1 284/284/1
f 229/229/1 286/286/1 285/285/1
f 229/229/1 230/230/1 287/287/1
f 229/229/1 287/287/1 286/286/1
f 230/230/1 288/288/1 287/287/1
f 230/230/1 231/231/1 289/289/1
f 230/230/1 289/289/1 288/288/1
f 231/231/1 290/290/1 289/289/1
f 231/231/1 232/232/1 291/291/1
f 231/231/1 291/291/1 290/290/1
f 232/232/1 292/292/1 291/291/1
f 232/232/1 233/233/1 293/293/1
f 232/232/1 293/293/1 292/292/1
f 233/233/1 234/234/1 294/294/1
f 233/233/1 294/294/1 293/293/1
f 234/234/1 295/295/1 294/294/1
f 234/234/1 235/235/1 296/296/1
f 234/234/1 296/296/1 295/295/1
f 235/235/1 236/236/1 297/297/1
f 235/235/1 297/297/1 296/296/1
f 236/236/1 298/298/1 297/297/1
f 236/236/1 237/237/1 299/299/1
f 236/236/1 299/299/1 298/298/1
f 237/237/1 300/300/1 299/299/1
f 237/237/1 238/238/1 301/301/1
f 237/237/1 301/301/1 300/300/1
f 238/238/1 302/302/1 301/301/1
f 238/238/1 239/239/1 303/303/1
f 238/238/1 303/303/1 302/302/1
f 239/239/1 304/304/1 303/303/1
f 239/239/1 240/240/1 305/305/1
f 239/239/1 305/305/1 304/304/1
f 240/240/1 306/306/1 305/305/1
f 240/240/1 241/241/1 307/307/1
f 240/240/1 307/307/1 306/306/1
f 241/241/1 308/308/1 307/307/1
f 241/241/1 242/242/1 309/309/1
f 241/241/1 309/309/1 308/308/1
f 242/242/1 310/310/1 309/309/1
f 242/242/1 243/243/1 311/311/1
f 242/242/1 311/311/1 310/310/1
f 243/243/1 244/244/1 312/312/1
f 243/243/1 312/312/1 311/311/1
f 244/244/1 313/313/1 312/312/1
f 244/244/1 245/245/1 314/314/1
f 244/244/1 314/314/1 313/313/1
f 245/245/1 246/246/1 315/315/1
f 245/245/1 315/315/1 314/314/1
f 246/246/1 316/316/1 315/315/1
f 246/246/1 247/247/1 317/317/1
f 246/246/1 317/317/1 316/316/1
f 247/247/1 318/318/1 317/317/1
f 247/247/1 248/248/1 319/319/1
f 247/247/1 319/319/1 318/318/1
f 248/248/1 249/249/1 320/320/1
f 248/248/1 320/320/1 319/319/1
f 249/249/1 321/321/1 320/320/1
f 249/249/1 250/250/1 322/322/1
f 249/249/1 322/322/1 321/321/1
f 250/250/1 323/323/1 322/322/1
f 250/250/1 251/251/1 324/324/1
f 250/250/1 324/324/1 323/323/1
f 251/251/1 325/325/1 324/324/1
f 251/251/1 252/252/1 326/326/1
f 251/251/1 326/326/1 325/325/1
f 252/252/1 253/253/1 327/327/1
f 252/252/1 327/327/1 326/326/1
f 253/253/1 328/328/1 327/327/1
f 253/253/1 254/254/1 329/329/1
f 253/253/1 329/329/1 328/328/1
f 254/254/1 200/200/1 330/330/1
f 254/254/1 330/330/1 329/329/1
f 200/200/1 255/255/1 331/331/1
f 200/200/1 331/331/1 330/330/1
f 255/255/1 332/332/1 331/331/1
f 255/255/1 256/256/1 333/333/1
f 255/255/1 333/333/1 332/332/1
f 256/256/1 334/334/1 333/333/1
f 256/256/1 257/257/1 335/335/1
f 256/256/1 335/335/1 334/334/1
f 257/257/1 336/336/1 335/335/1
f 257/257/1 258/258/1 337/337/1
f 257/257/1 337/337/1 336/336/1
f 258/258/1 338/338/1 337/337/1
f 258/258/1 259/259/1 339/339/1
f 258/258/1 339/339/1 338/338/1
f 259/259/1 340/340/1 339/339/1
f 259/259/1 260/260/1 341/341/1
f 259/259/1 341/341/1 340/340/1
f 260/260/1 261/261/1 342/342/1
f 260/260/1 342/342/1 341/341/1
f 261/261/1 343/343/1 342/342/1
f 261/261/1 262/262/1 344/344/1
f 261/261/1 344/344/1 343/343/1
f 262/262/1 263/263/1 345/345/1
f 262/262/1 345/345/1 344/344/1
f 263/263/1 346/346/1 345/345/1
f 263/263/1 264/264/1 347/347/1
f 263/263/1 347/347/1 346/346/1
f 264/264/1 348/348/1 347/347/1
f 264/264/1 265/265/1 349/349/1
f 264/264/1 349/349/1 348/348/1
f 265/265/1 350/350/1 349/349/1
f 265/265/1 266/266/1 351/351/1
f 265/265/1 351/351/1 350/350/1
f 266/266/1 352/352/1 351/351/1
f 266/266/1 267/267/1 353/353/1
f 266/266/1 353/353/1 352/352/1
f 267/267/1 354/354/1 353/353/1
f 267/267/1 268/268/1 355/355/1
f 267/267/1 355/355/1 354/354/1
f 268/268/1 356/356/1 355/355/1
f 268/268/1 269/269/1 357/357/1
f 268/268/1 357/357/1 356/356/1
f 269/269/1 358/358/1 357/357/1
f 269/269/1 270/270/1 359/359/1
f 269/269/1 359/359/1 358/358/1
f 270/270/1 271/271/1 360/360/1
f 270/270/1 360/360/1 359/359/1
f 271/271/1 361/361/1 360/360/1
f 271/271/1 272/272/1 362/362/1
f 271/271/1 362/362/1 361/361/1
f 272/272/1 273/273/1 363/363/1
f 272/272/1 363/363/1 362/362/1
f 273/273/1 364/364/1 363/363/1
f 273/273/1 274/274/1 365/365/1
f 273/273/1 365/365/1 364/364/1
f 274/274/1 366/366/1 365/365/1
f 274/274/1 275/275/1 367/367/1
f 274/274/1 367/367/1 366/366/1
f 275/275/1 368/368/1 367/367/1
f 275/275/1 276/276/1 369/369/1
f 275/275/1 369/369/1 368/368/1
f 276/276/1 277/277/1 370/370/1
f 276/276/1 370/370/1 369/369/1
f 277/277/1 371/371/1 370/370/1
f 277/277/1 278/278/1 372/372/1
f 277/277/1 372/372/1 371/371/1
f 278/278/1 373/373/1 372/372/1
f 278/278/1 279/279/1 374/374/1
f 278/278/1 374/374/1 373/373/1
f 279/279/1 280/280/1 375/375/1
f 279/279/1 375/375/1 374/374/1
f 280/280/1 376/376/1 375/375/1
f 280/280/1 281/281/1 377/377/1
f 280/280/1 377/377/1 376/376/1
f 281/281/1 227/228/1 282/283/1
f 281/281/1 282/283/1 377/377/1
