# Blender 5.1.2
# www.blender.org
o justed_inferno_v32_fold_03
v 6.118096 0.359344 0.389213
v 5.898698 0.724263 0.558637
v 5.873353 0.569185 0.562057
v 5.885608 0.232881 0.657651
v 6.025005 0.160275 0.716703
v 6.201722 0.239113 0.777235
v 6.227077 0.404876 0.751842
v 6.102523 0.554233 0.705585
v 6.024424 0.672850 0.617607
v 5.669715 1.012581 0.863453
v 5.521752 0.819484 0.955480
v 5.588696 0.172417 1.043675
v 5.847999 0.110108 1.109772
v 6.037097 0.131668 1.064126
v 6.144141 0.189332 1.296072
v 6.190748 0.479456 1.223836
v 5.847210 1.036840 1.009776
v 5.906044 0.095588 1.466135
v 5.903779 0.774028 1.304029
v 5.499754 1.185702 1.135467
v 5.321965 0.968064 1.226253
v 5.238376 0.681651 1.341646
v 5.271146 0.197030 1.409878
v 5.626201 0.140052 1.483637
v 6.007841 0.178834 1.701613
v 6.050518 0.548914 1.630639
v 5.728965 1.239890 1.258327
v 5.380336 1.266615 1.368159
v 5.476661 0.193899 1.685995
v 5.671973 0.100000 1.857382
v 5.867422 0.195131 1.947145
v 5.903041 0.592974 1.861729
v 5.641683 0.919447 1.812702
v 5.626336 1.347570 1.469348
v 5.051025 1.016495 1.687028
v 5.003851 0.803810 1.640938
v 5.014573 0.377788 1.773117
v 5.204829 0.330371 1.995198
v 5.500712 0.100000 2.052110
v 5.692849 0.238374 2.152422
v 5.718208 0.638728 2.056753
v 5.492054 1.396306 1.728607
v 5.049276 1.310703 2.005564
v 5.186234 0.230204 2.329860
v 5.194444 0.397028 2.566957
v 5.513503 0.687600 2.225853
v 5.377257 0.966911 2.209226
v 4.810927 0.903227 1.900044
v 4.842311 0.539905 2.036116
v 4.997966 0.431302 2.205497
v 5.197737 0.826301 2.462578
v 5.115940 1.399945 2.294118
v 4.919181 1.355438 2.200567
v 4.806912 1.181260 2.146062
v 4.606100 1.008152 2.113522
v 4.700548 0.633290 2.209423
v 4.818179 0.484180 2.366111
v 4.934530 0.311070 2.528788
v 5.142130 1.083952 2.494200
v 4.768079 1.436491 2.394451
v 4.646665 1.266648 2.320740
v 4.531115 0.706503 2.370126
v 4.617413 0.501735 2.520154
v 4.681861 0.319292 2.733068
v 4.845624 0.425790 2.877254
v 4.846449 0.848868 2.805733
v 4.995786 1.151749 2.713657
v 4.927293 1.465653 2.549173
v 4.608622 1.552406 2.583946
v 4.445530 1.480660 2.565943
v 4.233698 1.194729 2.344411
v 4.337107 0.766393 2.517490
v 4.391967 0.486345 2.661964
v 4.774373 1.276604 3.090227
v 4.692083 1.604835 2.872558
v 4.440605 1.680472 2.778326
v 4.126638 0.822816 2.655751
v 4.145030 0.455439 2.787126
v 4.060583 0.189602 3.120810
v 4.468817 0.378214 3.199537
v 4.412019 0.876812 3.248978
v 4.258847 1.792487 2.981900
v 4.084940 1.679758 2.787172
v 3.740768 1.451464 2.641019
v 3.796246 0.904750 2.859162
v 3.776116 0.434078 2.938117
v 4.224198 0.369020 3.359996
v 4.412432 1.395793 3.601400
v 4.341643 1.757713 3.304945
v 4.056190 1.869858 3.191082
v 3.881378 1.820939 2.953130
v 3.746630 0.164757 3.255935
v 3.960689 0.400216 3.494568
v 4.086932 0.896132 3.528038
v 3.828337 1.913190 3.397230
v 3.666614 1.941607 3.128165
v 3.448855 1.558006 2.895548
v 3.447080 1.013313 3.060123
v 3.245171 0.512330 3.147406
v 3.361600 0.202857 3.396968
v 3.684556 0.470822 3.609151
v 3.831986 0.904593 3.713137
v 3.963839 1.430033 3.958568
v 3.860564 1.809385 3.724972
v 3.576716 1.940836 3.592568
v 3.436855 2.046197 3.304367
v 3.237883 1.606562 3.083198
v 3.201211 1.077900 3.185822
v 3.400330 0.560816 3.713717
v 3.557513 0.911460 3.887364
v 3.307240 1.978415 3.774350
v 3.191056 2.152730 3.471330
v 3.007406 1.648298 3.259041
v 2.939375 1.136892 3.291371
v 2.847622 0.599340 3.282938
v 2.914304 0.274602 3.533679
v 3.108743 0.643973 3.814753
v 3.267158 0.910892 4.055382
v 3.279188 1.462379 4.315846
v 3.207852 1.874801 4.129163
v 3.026314 2.046345 3.944424
v 2.931410 2.280591 3.621455
v 2.755991 1.694598 3.408321
v 2.661112 1.188509 3.364294
v 2.467309 0.637601 3.362643
v 2.554322 0.292542 3.614452
v 2.808432 0.701405 3.912157
v 2.963327 0.894902 4.222379
v 2.596076 2.161284 4.264334
v 2.485243 2.530814 3.826806
v 2.488142 1.748730 3.526595
v 2.371770 1.233305 3.398043
v 2.498821 0.727635 4.001154
v 2.645706 0.860611 4.387604
v 2.622597 1.520583 4.615972
v 2.597970 2.014734 4.462430
v 2.210330 1.805688 3.617233
v 2.081714 1.273428 3.398288
v 1.738898 0.620763 3.365766
v 1.807934 0.263819 3.693642
v 1.976176 0.718588 4.112527
v 2.312813 0.817325 4.539895
v 2.128824 2.425245 4.381560
v 2.087376 2.706473 3.952777
v 1.927989 1.856823 3.686125
v 1.801740 1.311247 3.383704
v 1.965777 0.786716 4.659472
v 2.089349 1.568068 4.778439
v 2.134535 2.103396 4.643277
v 1.805281 2.543261 4.473277
v 1.782349 2.747266 4.017399
v 1.535982 1.908471 3.754497
v 1.338036 1.369015 3.386064
v 1.444739 0.633142 3.357848
v 1.449159 0.351542 3.732227
v 1.541511 0.712084 4.170178
v 1.611199 0.793534 4.726073
v 1.723848 1.601669 4.824660
v 1.780119 2.144236 4.709671
v 1.472024 2.614167 4.514687
v 1.468319 2.697569 4.053040
v 1.198907 0.685353 3.383509
v 1.186609 0.489100 3.778195
v 1.228423 0.726354 4.187807
v 1.260400 0.851869 4.728857
v 1.359716 1.634570 4.809018
v 1.420822 2.152568 4.709945
v 1.138302 2.627749 4.499818
v 1.153120 2.577129 4.058906
v 0.931562 1.927148 3.803910
v 0.961690 0.774035 3.437263
v 0.930311 0.670483 3.829041
v 0.925507 0.770295 4.186417
v 0.925165 0.956397 4.672106
v 1.009107 1.666527 4.737655
v 0.988762 2.147260 4.627046
v 0.816068 2.595829 4.435479
v 0.846547 2.428939 4.037358
v 0.611283 1.490269 3.534492
v 0.593194 0.950216 3.535352
v 0.675591 0.860136 3.867765
v 0.634895 0.840206 4.166485
v 0.612846 1.084914 4.573403
v 0.595231 1.709758 4.596125
v 0.515450 2.549017 4.338024
v 0.569337 2.285827 3.975194
v 0.422850 1.023773 3.878971
v 0.356818 0.918148 4.128990
v 0.324083 1.210297 4.455487
v 0.146202 2.515044 4.179506
v 0.292334 2.210452 3.923635
v 0.316298 1.922981 3.721310
v 0.321023 1.521244 3.534647
v 0.255646 1.079900 3.565310
v 0.176319 1.140603 3.856118
v 0.089910 0.980354 4.076603
v 0.054547 1.313674 4.336507
v -0.341218 1.838730 4.176089
v -0.036980 2.142704 4.215127
v 0.054904 2.171440 3.835052
v 0.102488 1.941042 3.636706
v 0.019789 1.537605 3.457512
v -0.082977 1.152994 3.515377
v -0.133934 1.220617 3.780302
v -0.167847 1.012206 4.013446
v -0.339857 1.422436 4.162261
v -0.215951 2.571019 3.967064
v -0.280188 2.187885 3.666038
v -0.114065 1.972892 3.500677
v -0.417106 1.019456 3.942327
v -0.329989 2.181757 4.089564
v -0.400052 2.607925 3.819627
v -0.336795 1.535448 3.253872
v -0.363438 1.183856 3.417936
v -0.648060 1.225062 3.560756
v -0.654596 1.026156 3.861586
v -0.667640 1.502149 3.997183
v -0.736176 1.930586 3.944362
v -0.541114 2.261559 3.969897
v -0.556897 2.610700 3.659958
v -0.446093 1.999746 3.216804
v -0.543988 1.222650 3.349035
v -0.872332 1.059367 3.765376
v -0.868807 1.557078 3.865667
v -0.724898 2.338366 3.833105
v -0.692259 2.566719 3.495650
v -0.700075 2.188416 3.258543
v -0.598524 1.538966 3.098645
v -0.714013 1.285483 3.277979
v -0.860851 1.222850 3.435266
v -1.060901 1.131424 3.648397
v -1.040508 1.616471 3.716797
v -1.036303 1.996516 3.647662
v -0.878199 2.394659 3.677251
v -0.812317 2.489474 3.334933
v -0.698270 1.975797 3.009024
v -0.870611 1.364556 3.198275
v -1.024748 1.240929 3.326893
v -1.215824 1.232644 3.511250
v -1.222098 1.718991 3.500818
v -1.001973 2.424287 3.508129
v -0.913115 2.407448 3.187760
v -0.883546 1.581947 2.916077
v -1.083090 1.480157 3.042518
v -1.173663 1.267923 3.211503
v -1.342111 1.338901 3.361287
v -1.271446 2.033435 3.290634
v -1.101174 2.437099 3.335404
v -1.012007 2.348636 3.033600
v -0.917133 2.192594 2.945001
v -0.883587 1.952637 2.796065
v -1.311694 1.286210 3.089669
v -1.452409 1.427162 3.208059
v -1.181287 2.453495 3.166712
v -1.085383 2.322523 2.887998
v -0.966061 2.212464 2.803080
v -1.075883 1.590595 2.691967
v -1.271022 1.534639 2.823282
v -1.446408 1.280143 2.963495
v -1.559338 1.487482 3.057475
v -1.744817 1.888927 2.722566
v -1.447310 2.161494 2.951685
v -1.263737 2.506104 2.946555
v -1.151358 2.327788 2.704671
v -0.983969 2.257174 2.626295
v -0.966040 1.941372 2.533196
v -1.583344 1.249298 2.834172
v -1.725401 1.537954 2.830986
v -1.209961 1.573311 2.437314
v -1.475434 1.486318 2.508855
v -1.718896 1.212330 2.700082
v -1.570753 2.222551 2.749261
v -1.323148 2.605579 2.687878
v -1.214092 2.370074 2.329939
v -0.973110 2.313225 2.276904
v -1.003582 1.927400 2.269482
v -1.838448 1.197515 2.557625
v -1.859352 1.583201 2.603367
v -1.637799 2.287243 2.596515
v -1.345083 2.636410 2.529511
v -1.304616 1.597993 2.261249
v -1.565446 1.456676 2.322852
v -1.923217 1.226433 2.404075
v -1.918979 1.623867 2.438621
v -1.854570 1.970049 2.376745
v -1.686821 2.338053 2.436723
v -1.366660 2.620758 2.370935
v -1.263855 2.352429 2.067441
v -1.014983 2.290321 2.105007
v -1.086767 1.913094 2.066946
v -1.404944 1.652666 2.087883
v -1.624926 1.455966 2.175955
v -1.961506 1.302219 2.239854
v -1.949615 1.692834 2.212292
v -1.715751 2.363307 2.269770
v -1.395018 2.558799 2.212833
v -1.109242 2.240091 1.930833
v -1.667814 1.481242 2.024378
v -1.955832 1.409481 2.068420
v -1.853217 2.021300 2.022025
v -1.726783 2.359689 2.097750
v -1.430952 2.468507 2.055043
v -1.313976 2.316867 1.875089
v -1.278135 1.938277 1.738353
v -1.504938 1.784233 1.772657
v -1.698931 1.543842 1.815553
v -1.898033 1.575985 1.811013
v -1.887272 1.812166 1.756354
v -1.722935 2.328437 1.886887
v -1.469046 2.374509 1.896629
v -1.363351 2.282990 1.685257
v -1.266194 2.170705 1.631197
v -1.501223 2.265335 1.656029
v -1.368642 1.962818 1.481190
v -1.533653 1.854998 1.483760
v -1.694086 1.643292 1.495047
v -1.808482 1.728526 1.474815
v -1.733865 2.040677 1.138712
v -1.694485 2.251387 1.494868
v -1.390173 2.253625 1.393594
v -1.322937 2.149376 1.369096
v -1.778477 1.900084 1.265523
v -1.531670 2.199359 1.332889
v -1.394922 1.987244 1.165196
v -1.494741 1.896415 1.165266
v -1.625595 1.724616 1.115676
v -1.704249 1.812248 1.106873
v -1.637659 2.204419 1.142042
v -1.369207 2.228357 1.020319
v -1.321781 2.141487 1.027096
v -1.666546 1.928126 0.934748
v -1.394472 1.946738 0.856986
v -1.504745 1.810626 0.815512
v -1.505770 1.898296 0.696446
v -1.594402 2.037573 0.768642
v -1.533695 2.152089 0.838329
v -1.400130 2.129029 0.654000
v -1.304464 2.171549 0.694282
v -1.274505 2.115742 0.709403
v -1.293623 1.967271 0.595662
v -1.301257 1.926273 0.507127
v -1.375010 2.034398 0.477085
v -1.126274 2.108831 0.360464
v -1.172376 2.087618 0.462676
v -1.199703 1.983698 0.351019
v -1.073980 2.075623 0.337211
v -1.042880 2.010544 0.290443
v -1.002755 2.004413 0.217823
v -1.063068 2.037649 0.225579
v -0.946419 2.084127 0.209866
v -0.944743 2.067068 0.225164
v -0.771768 2.068914 0.121324
v -0.764189 2.030566 0.116378
v -0.785111 2.040362 0.101441
v -0.478299 2.049448 0.039298
v 5.026701 0.831123 2.247247
v 4.924308 1.083227 2.242920
v 4.839731 0.915247 2.340984
v 4.917258 0.808337 2.467109
v 5.001753 0.853849 2.493354
v 4.992268 1.056817 2.317801
v 4.853546 1.193673 2.372922
v 4.694781 0.990361 2.704071
v 4.828290 0.880580 2.615084
v 4.892477 0.941395 2.617937
v 4.913450 1.183985 2.431488
v 4.765563 1.273472 2.532802
v 4.725832 1.246168 2.512714
v 4.657582 1.103248 2.574651
v 4.754434 1.050323 2.710063
v 4.813299 1.259651 2.595938
v 4.687819 1.424691 2.657793
v 4.416688 1.302691 2.735348
v 4.417365 1.141057 2.799823
v 4.487375 1.014406 2.845557
v 4.618245 1.093685 2.845406
v 4.732144 1.419797 2.743637
v 4.447203 1.610282 2.820360
v 4.565882 1.309692 2.951350
v 4.640401 1.501009 2.894268
v 4.466265 1.630467 2.963229
v 4.284450 1.443423 2.866280
v 4.204947 1.258831 2.894547
v 4.035576 1.153856 3.056109
v 4.434579 1.357400 3.088082
v 4.503177 1.573893 3.047897
v 4.357279 1.791542 3.108914
v 4.269876 1.797358 2.986789
v 4.005139 1.275559 2.954638
v 4.149870 1.275286 3.152440
v 4.296782 1.423088 3.258620
v 4.349768 1.649909 3.187800
v 4.170724 1.854638 3.227771
v 4.075994 1.773986 3.133292
v 3.780592 1.457978 3.210395
v 3.879177 1.361580 3.075252
v 3.939648 1.337839 3.178042
v 4.001217 1.353325 3.260303
v 4.112799 1.509120 3.337260
v 3.936166 1.862386 3.320437
v 3.799337 1.666892 3.246768
v 3.818852 1.472818 3.306042
v 3.851309 1.435221 3.376942
v 3.950753 1.606612 3.382822
v 3.731064 1.917011 3.394816
v 3.537109 1.779740 3.426953
v 3.623161 1.666181 3.311070
v 3.620531 1.517521 3.369095
v 3.652981 1.498772 3.433966
v 3.694484 1.473243 3.517588
v 3.724265 1.664006 3.489490
v 3.747236 1.811723 3.467573
v 3.501420 1.871200 3.479449
v 3.311967 1.695868 3.505948
v 3.458231 1.539341 3.581420
v 3.521537 1.575497 3.619220
v 3.413871 1.774767 3.620647
v 3.442284 1.884925 3.574638
v 3.226667 1.841348 3.529764
v 3.137731 1.542264 3.841268
v 3.313857 1.530614 3.709722
v 3.332006 1.643885 3.718798
v 3.012344 1.887737 3.662771
v 3.043877 1.849372 3.562011
v 3.058661 1.703637 3.642411
v 3.091007 1.617789 3.731646
v 3.129631 1.794475 3.798397
v 3.094488 1.933015 3.688003
v 2.778218 1.673514 3.860418
v 2.813348 1.675597 3.906245
v 2.877981 1.864791 3.776708
v 2.456551 1.808599 3.907686
v 2.541775 1.784238 3.864508
v 2.620162 1.787800 3.937440
v 2.240682 1.723423 4.015134
v 2.200661 1.749443 4.003613
v 2.029861 1.713583 4.051097
v 2.030041 1.425656 4.050892
v 1.880191 1.651557 4.047176
v 1.740540 1.573638 4.002343
v 1.658964 1.502619 4.067375
v 1.746683 1.400661 4.124141
v 1.779398 1.447220 4.169220
v 1.709006 1.599507 4.194024
v 1.890205 1.662922 4.127584
v 1.657892 1.813239 4.050287
v 1.489496 1.437304 4.115927
v 1.547279 1.535617 4.181761
v 1.692348 1.808266 4.207070
v 1.469760 1.922936 4.096376
v 1.357975 1.707691 4.033119
v 1.243079 1.586665 4.079388
v 1.387815 1.729856 4.228630
v 1.422695 1.893712 4.242736
v 1.080454 2.293488 4.267110
v 1.118454 2.251637 4.108210
v 1.108434 1.739818 3.960057
v 0.844949 1.633863 3.976792
v 0.927145 1.901616 4.311941
v 0.971113 2.051336 3.979291
v 0.891590 1.766776 3.876478
v 0.846597 1.717713 4.131042
v 1.009107 2.148396 4.328415
v 0.849359 2.371375 4.222446
v 0.689401 2.358310 4.028096
v 0.698622 1.860859 3.880253
v 0.519857 1.828946 3.981972
v 0.648126 1.823713 4.112409
v 0.496758 2.098804 4.220470
v 0.639503 2.480875 4.147539
v 0.574933 2.162825 3.917323
v 0.495198 1.909192 3.865573
v 0.439148 1.896019 4.105192
v 0.567182 2.309900 4.199346
v 0.430164 2.533617 4.030700
v 0.408201 2.379493 3.934849
v 0.370336 2.204802 3.873369
v 0.298040 1.981111 3.881210
v 0.266839 1.976211 3.989067
v 0.240598 1.986377 4.096063
v 0.296635 2.206259 4.142993
v 0.361414 2.376287 4.101303
v 0.252808 2.471285 3.943469
v 0.167708 2.239155 3.845284
v 0.117801 2.098915 3.914817
v 0.068361 2.118419 4.045393
v 0.038982 2.326652 3.985385
v 0.162473 2.404699 3.990470
v 0.043915 2.520494 3.803608
v -0.000953 2.245634 3.755067
v -0.072002 2.150195 3.862480
v -0.119758 2.093395 3.951857
v -0.135539 2.162303 4.026941
v -0.009459 2.521839 3.899862
v -0.149893 2.517824 3.707478
v -0.132680 2.446158 3.648573
v -0.175390 2.255682 3.680156
v -0.324761 2.071531 3.940563
v -0.313341 2.238509 3.954831
v -0.176040 2.599297 3.788435
v -0.331191 2.483910 3.639576
v -0.287980 2.455267 3.556243
v -0.346795 2.270640 3.658599
v -0.579063 2.146649 3.795892
v -0.460964 2.405375 3.788899
v -0.353329 2.561576 3.690980
v -0.481278 2.504784 3.543237
v -0.434623 2.465590 3.469188
v -0.595892 2.294531 3.549252
v -0.550338 2.188498 3.656511
v -0.689741 2.299705 3.639372
v -0.626431 2.431571 3.694869
v -0.521117 2.521169 3.606636
v -0.636921 2.487772 3.468532
v -0.613915 2.428859 3.444808
v -0.763191 2.252574 3.467507
v -0.706049 2.232961 3.600000
v -0.846095 2.391070 3.370984
v -0.785275 2.350337 3.401255
v -0.820715 2.286775 3.486347
v -0.892152 2.332908 3.396074
v -0.981714 2.245171 3.255023
v -1.045768 2.270406 3.203540
v -1.095028 2.214251 3.137105
v -0.857105 1.805322 3.399066
v -0.877339 1.944618 3.354720
v -0.884439 1.946321 3.251615
v -0.941750 1.813081 3.242038
v -0.975116 1.998629 3.388422
v -1.015272 2.167616 3.296839
v -0.961152 2.339514 3.249351
v -0.927895 2.005164 3.085478
v -1.015491 1.847104 2.966056
v -1.135716 2.014584 2.970424
v -1.126932 2.014510 3.208417
v -1.095136 2.150606 3.329098
v -1.097032 2.355364 3.251145
v -1.023183 2.290445 2.919579
v -0.967794 2.034114 2.868446
v -1.066736 1.936234 2.829500
v -1.278135 2.152508 3.060297
v -1.176278 2.270026 3.213250
v -1.152647 2.555301 3.196141
v -1.033762 2.498490 3.084836
v -1.007669 2.089232 2.708542
v -1.140017 2.044086 2.736332
v -1.242729 2.078138 2.819166
v -1.158804 2.784781 3.130859
v -1.052707 2.617912 2.947715
v -1.019966 2.401320 2.759681
v -1.073432 2.109564 2.552577
v -1.234905 2.087807 2.611673
v -1.383005 2.082844 2.677817
v -1.410978 2.341593 2.897174
v -1.296108 2.560166 3.016919
v -1.160318 2.810279 2.903284
v -1.109879 2.646284 2.766972
v -1.091692 2.459235 2.628831
v -1.204365 2.231934 2.520349
v -1.395640 2.309345 2.507456
v -1.454434 2.220228 2.622392
v -1.407227 2.466017 2.772582
v -1.306044 2.667582 2.868223
v -1.194731 2.790807 2.682927
v -1.172896 2.669251 2.602760
v -1.186824 2.511029 2.515831
v -1.306290 2.359506 2.476239
v -1.483328 2.377450 2.559571
v -1.411297 2.565060 2.639810
v -1.313312 2.727719 2.694760
v -1.198428 2.864221 2.521234
v -1.185836 2.731231 2.454096
v -1.231661 2.544892 2.384315
v -1.385797 2.400839 2.375802
v -1.509410 2.361197 2.404535
v -1.567691 2.452877 2.469802
v -1.460702 2.654265 2.523226
v -1.330994 2.836319 2.534601
v -1.280335 2.886719 2.239184
v -1.249184 2.776674 2.252973
v -1.315382 2.599179 2.219970
v -1.442570 2.478900 2.288900
v -1.564718 2.434789 2.316618
v -1.623940 2.576674 2.290731
v -1.503279 2.726634 2.342232
v -1.640949 2.420921 2.207539
v -1.439518 3.017951 2.103072
v -1.232363 2.876820 2.023845
v -1.352564 2.624542 2.036618
v -1.509055 2.510586 1.992201
v -1.708832 2.365358 2.109329
v -1.677491 2.591810 2.123823
v -1.615704 2.800760 2.128036
v -1.429922 2.907766 1.928741
v -1.420584 2.847354 1.801921
v -1.429606 2.674519 1.932295
v -1.644895 2.450241 1.985918
v -1.633634 2.624921 1.980579
v -1.643886 2.781229 1.980536
v -1.518429 2.919154 1.949175
v -1.498495 2.886704 1.788554
v -1.484693 2.691076 1.811125
v -1.509871 2.539801 1.813885
v -1.601747 2.538037 1.849251
v -1.652559 2.715353 1.742990
v -1.586873 2.798538 1.772205
v -1.553129 2.858699 1.643128
v -1.504739 2.763084 1.659253
v -1.619157 2.581122 1.710270
v -1.593538 2.704833 1.444300
v -1.538019 2.656722 1.545391
v -1.549963 2.582888 1.545663
v -1.610835 2.571892 1.567407
v -1.617018 2.666730 1.541769
v -1.550769 2.458770 1.133042
v -1.607575 2.610493 1.328429
v -1.572763 2.568772 1.260826
v -1.567105 2.472321 1.228145
vn 0.3399 -0.7696 -0.5406
vn -0.6799 -0.0891 -0.7279
vn -0.2717 0.4392 -0.8563
vn -0.4526 -0.6424 -0.6184
vn 0.1102 -0.9504 -0.2910
vn 0.8245 -0.4662 -0.3208
vn 0.9413 0.2062 -0.2673
vn 0.8349 0.5430 -0.0902
vn 0.7026 0.5735 -0.4213
vn -0.7635 0.0536 -0.6436
vn -0.2661 0.6253 -0.7336
vn -0.5881 -0.6696 -0.4535
vn -0.1092 -0.9838 -0.1421
vn 0.3693 -0.9235 -0.1037
vn 0.8808 -0.4302 0.1979
vn 0.9241 0.3594 0.1299
vn 0.7211 0.6709 -0.1730
vn 0.1572 -0.9854 0.0651
vn 0.8388 0.5159 0.1737
vn -0.7871 0.1930 -0.5859
vn -0.3733 0.7003 -0.6085
vn -0.8050 -0.1070 -0.5835
vn -0.6922 -0.6214 -0.3671
vn -0.1961 -0.9799 -0.0356
vn 0.8336 -0.4029 0.3780
vn 0.8763 0.3551 0.3257
vn 0.6958 0.7178 -0.0239
vn -0.5046 0.7413 -0.4425
vn -0.3253 -0.9456 0.0044
vn 0.0244 -0.9945 0.1021
vn 0.7096 -0.3431 0.6154
vn 0.7965 0.3313 0.5058
vn 0.7902 0.4584 0.4068
vn 0.7060 0.7057 0.0599
vn -0.7532 0.3993 -0.5227
vn -0.8450 -0.0062 -0.5348
vn -0.7610 -0.5575 -0.3318
vn -0.4835 -0.8742 -0.0451
vn -0.1408 -0.9777 0.1557
vn 0.6443 -0.2656 0.7172
vn 0.7266 0.3111 0.6126
vn 0.5369 0.7662 0.3532
vn -0.4910 0.7805 -0.3870
vn -0.2874 -0.9506 0.1170
vn 0.5415 -0.2465 0.8037
vn 0.6642 0.2298 0.7114
vn 0.7382 0.3594 0.5708
vn -0.8020 0.0334 -0.5964
vn -0.7793 -0.5010 -0.3765
vn -0.5390 -0.8216 -0.1856
vn 0.7232 0.1335 0.6776
vn 0.6241 0.7390 0.2537
vn -0.5296 0.6619 -0.5305
vn -0.3099 0.8078 -0.5014
vn -0.6547 0.0194 -0.7557
vn -0.7199 -0.4868 -0.4948
vn -0.4960 -0.7835 -0.3743
vn -0.1904 -0.9806 -0.0467
vn 0.8129 0.2762 0.5127
vn -0.2987 0.6182 -0.7271
vn -0.1495 0.8252 -0.5447
vn -0.6340 -0.4608 -0.6210
vn -0.4242 -0.7264 -0.5407
vn -0.0259 -0.9881 -0.1516
vn 0.6372 -0.3036 0.7084
vn 0.7276 -0.0442 0.6845
vn 0.8226 0.1701 0.5426
vn 0.6658 0.7195 0.1976
vn -0.1689 0.6735 -0.7196
vn 0.0119 0.8664 -0.4991
vn -0.5075 0.0442 -0.8605
vn -0.5685 -0.4186 -0.7082
vn -0.3501 -0.6438 -0.6805
vn 0.8180 0.0845 0.5690
vn 0.6979 0.6972 0.1639
vn 0.1561 0.8798 -0.4489
vn -0.5292 -0.3524 -0.7719
vn -0.3331 -0.5679 -0.7527
vn 0.0356 -0.9935 -0.1082
vn 0.5618 -0.3885 0.7304
vn 0.6600 -0.2222 0.7177
vn -0.0735 0.7268 -0.6829
vn 0.2294 0.9402 -0.2516
vn -0.5239 0.1464 -0.8391
vn -0.5352 -0.2354 -0.8113
vn -0.3734 -0.4543 -0.8088
vn 0.5308 -0.4729 0.7032
vn 0.7101 0.0217 0.7038
vn 0.6088 0.7242 0.3239
vn -0.1050 0.7844 -0.6113
vn 0.2554 0.9650 -0.0602
vn -0.0431 -0.9989 0.0154
vn 0.3470 -0.4970 0.7954
vn 0.5504 -0.3241 0.7694
vn -0.1283 0.8174 -0.5616
vn 0.2931 0.9466 0.1346
vn -0.5431 0.2247 -0.8091
vn -0.5287 -0.1235 -0.8398
vn -0.3855 -0.3107 -0.8688
vn -0.1659 -0.9773 0.1316
vn 0.2328 -0.5577 0.7967
vn 0.4732 -0.3915 0.7892
vn 0.5726 -0.0219 0.8195
vn 0.4770 0.7134 0.5134
vn -0.1142 0.8320 -0.5429
vn 0.3341 0.9107 0.2427
vn -0.5145 0.2670 -0.8149
vn -0.4497 -0.0633 -0.8909
vn 0.1417 -0.6324 0.7616
vn 0.4058 -0.4466 0.7974
vn -0.0482 0.8236 -0.5651
vn 0.3972 0.8492 0.3481
vn -0.4318 0.2979 -0.8514
vn -0.3457 0.0118 -0.9383
vn -0.2978 -0.2558 -0.9197
vn -0.1129 -0.9762 0.1854
vn 0.1287 -0.7037 0.6988
vn 0.3904 -0.5022 0.7716
vn 0.4875 -0.0437 0.8720
vn 0.4895 0.6186 0.6146
vn 0.0522 0.7968 -0.6019
vn 0.4899 0.7818 0.3858
vn -0.3217 0.3247 -0.8894
vn -0.2168 0.0722 -0.9736
vn -0.1230 -0.2574 -0.9584
vn 0.0159 -0.9845 0.1744
vn 0.1307 -0.7758 0.6173
vn 0.3670 -0.5469 0.7524
vn 0.0812 0.8033 -0.5901
vn 0.4954 0.7184 0.4884
vn -0.2173 0.3487 -0.9117
vn -0.0779 0.1259 -0.9890
vn 0.1446 -0.8292 0.5399
vn 0.3714 -0.5742 0.7296
vn 0.4026 -0.0389 0.9145
vn 0.4677 0.4721 0.7473
vn -0.1426 0.3831 -0.9126
vn 0.0034 0.1805 -0.9836
vn -0.0108 -0.3119 -0.9500
vn -0.0806 -0.9866 0.1417
vn 0.0781 -0.8780 0.4722
vn 0.2948 -0.5952 0.7476
vn 0.0647 0.7872 -0.6133
vn 0.4202 0.7288 0.5407
vn -0.1035 0.4034 -0.9091
vn 0.0119 0.2362 -0.9716
vn 0.2460 -0.5981 0.7628
vn 0.2345 -0.0274 0.9717
vn 0.3224 0.3785 0.8677
vn -0.0228 0.7968 -0.6038
vn 0.2468 0.7660 0.5936
vn -0.0966 0.4373 -0.8941
vn -0.0825 0.3032 -0.9494
vn -0.1176 -0.3464 -0.9307
vn -0.2430 -0.9675 0.0703
vn -0.0326 -0.9012 0.4322
vn -0.0148 -0.5807 0.8140
vn 0.0646 -0.0055 0.9979
vn 0.1294 0.3234 0.9374
vn -0.1372 0.7845 -0.6047
vn 0.0226 0.8011 0.5982
vn -0.3385 -0.3615 -0.8688
vn -0.4295 -0.9030 -0.0121
vn -0.1596 -0.8977 0.4107
vn -0.1859 -0.5428 0.8191
vn -0.1043 0.0208 0.9943
vn -0.0684 0.2788 0.9579
vn -0.2125 0.7648 -0.6083
vn -0.1838 0.8165 0.5473
vn -0.0585 0.4726 -0.8793
vn -0.3843 -0.3763 -0.8430
vn -0.5206 -0.8469 -0.1083
vn -0.2882 -0.8822 0.3724
vn -0.3432 -0.4918 0.8002
vn -0.2442 0.0402 0.9689
vn -0.2467 0.2532 0.9354
vn -0.1734 0.7252 -0.6663
vn -0.3049 0.8335 0.4608
vn -0.0470 0.2701 -0.9617
vn -0.2776 -0.4992 -0.8208
vn -0.5064 -0.8411 -0.1901
vn -0.3748 -0.8678 0.3263
vn -0.4313 -0.4413 0.7869
vn -0.3713 0.0762 0.9254
vn -0.0291 0.6371 -0.7703
vn -0.3133 0.8703 0.3801
vn -0.4148 -0.8682 -0.2723
vn -0.3926 -0.8698 0.2988
vn -0.4611 -0.3929 0.7956
vn 0.1205 0.6832 -0.7202
vn -0.1197 0.9541 0.2744
vn 0.2656 0.4363 -0.8597
vn 0.1390 0.1875 -0.9724
vn -0.1352 -0.5954 -0.7920
vn -0.2435 -0.9229 -0.2983
vn -0.3517 -0.8804 0.3181
vn -0.4410 -0.3396 0.8307
vn -0.4284 0.0806 0.9000
vn -0.3650 0.2881 0.8853
vn 0.3122 0.6547 -0.6884
vn 0.4008 0.4433 -0.8018
vn 0.3799 0.0353 -0.9244
vn 0.1503 -0.7289 -0.6680
vn -0.0230 -0.9583 -0.2847
vn -0.2578 -0.8810 0.3966
vn -0.4228 -0.2359 0.8750
vn 0.5099 0.5621 -0.6512
vn 0.1551 0.9808 0.1186
vn 0.5054 0.4330 -0.7464
vn -0.2209 -0.8590 0.4618
vn -0.3749 0.3376 0.8634
vn 0.2205 0.9746 0.0387
vn 0.4887 -0.1487 -0.8597
vn 0.2324 -0.7516 -0.6173
vn 0.0615 -0.9519 -0.3001
vn -0.3672 -0.7890 0.4926
vn -0.4867 -0.1409 0.8621
vn -0.5664 0.1288 0.8140
vn -0.4323 0.3916 0.8123
vn 0.1623 0.9815 -0.1019
vn 0.5617 0.3584 -0.7457
vn 0.1189 -0.7248 -0.6786
vn -0.3458 -0.7777 0.5250
vn -0.6011 -0.0728 0.7959
vn -0.5242 0.4724 0.7086
vn 0.5966 0.5387 -0.5949
vn 0.1133 0.9592 -0.2589
vn 0.4540 -0.3046 -0.8373
vn 0.1493 -0.7159 -0.6821
vn -0.0083 -0.9597 -0.2808
vn -0.6578 -0.6284 0.4152
vn -0.6855 0.0035 0.7281
vn -0.7319 0.2015 0.6510
vn -0.5942 0.5357 0.5999
vn 0.1280 0.9129 -0.3877
vn 0.6642 0.2111 -0.7172
vn 0.1537 -0.6914 -0.7059
vn -0.0687 -0.9443 -0.3220
vn -0.7512 -0.5254 0.3997
vn -0.7851 0.1335 0.6048
vn -0.6774 0.6135 0.4059
vn 0.2337 0.8707 -0.4328
vn 0.5297 -0.5190 -0.6709
vn 0.3069 -0.7724 -0.5561
vn -0.0796 -0.9423 -0.3252
vn -0.8078 -0.4383 0.3942
vn -0.8172 0.2670 0.5107
vn -0.5928 0.6883 0.4181
vn 0.8588 0.3928 -0.3288
vn 0.3990 0.8575 -0.3247
vn 0.8717 -0.0014 -0.4900
vn -0.0560 -0.9841 -0.1687
vn -0.8221 -0.3318 0.4626
vn -0.5815 0.7750 0.2475
vn 0.8752 0.4394 -0.2022
vn 0.5638 0.8073 -0.1746
vn 0.6451 -0.6891 -0.3302
vn 0.4553 -0.8241 -0.3371
vn -0.0305 -0.9995 -0.0100
vn -0.7962 -0.2022 0.5702
vn -0.8419 0.2555 0.4752
vn -0.7605 0.3888 0.5201
vn -0.3107 0.8284 0.4661
vn 0.9079 0.4155 -0.0546
vn 0.6617 0.7488 -0.0393
vn 0.9496 -0.2026 -0.2392
vn -0.0170 -0.9764 0.2155
vn -0.8003 -0.0791 0.5944
vn 0.6294 -0.7448 -0.2217
vn 0.4905 -0.8471 -0.2043
vn -0.1374 -0.9632 0.2311
vn -0.7134 0.4866 0.5043
vn -0.1622 0.8978 0.4096
vn 0.8698 0.4448 -0.2134
vn 0.6286 0.7687 -0.1183
vn 0.8917 -0.3570 -0.2781
vn -0.3126 -0.9456 0.0896
vn -0.8937 0.0166 0.4483
vn -0.7451 0.5379 0.3944
vn -0.1629 0.9618 0.2199
vn 0.5884 -0.7074 -0.3916
vn 0.4286 -0.8737 -0.2303
vn -0.4299 -0.8999 -0.0735
vn -0.9520 0.0852 0.2941
vn -0.9268 0.3063 0.2174
vn -0.7701 0.5864 0.2511
vn -0.1927 0.9807 -0.0320
vn 0.8254 0.4027 -0.3955
vn 0.4885 0.8085 -0.3282
vn 0.7890 -0.4741 -0.3909
vn 0.5738 -0.7131 -0.4028
vn 0.3920 -0.8600 -0.3267
vn -0.5440 -0.7847 -0.2973
vn -0.9854 0.1638 0.0465
vn -0.7618 0.6457 0.0529
vn -0.2080 0.9407 -0.2680
vn 0.8062 0.3320 -0.4897
vn 0.3458 -0.8593 -0.3768
vn -0.5893 -0.6751 -0.4439
vn -0.9469 0.3188 -0.0420
vn -0.7418 0.6670 -0.0698
vn -0.1236 0.9266 -0.3551
vn 0.4149 0.8340 -0.3638
vn 0.7530 -0.5323 -0.3868
vn 0.6291 -0.7101 -0.3162
vn 0.3605 -0.8647 -0.3499
vn -0.6650 -0.6152 -0.4235
vn -0.9765 0.1301 -0.1719
vn -0.6974 0.6867 -0.2051
vn -0.0890 0.9294 -0.3581
vn 0.9137 0.1828 -0.3630
vn 0.3540 0.8896 -0.2887
vn -0.0333 0.9718 -0.2332
vn 0.7976 -0.5710 -0.1946
vn 0.6883 -0.7155 -0.1199
vn 0.3638 -0.9128 -0.1854
vn -0.7861 -0.5328 -0.3133
vn -0.9064 0.3064 -0.2907
vn -0.6226 0.7751 -0.1075
vn 0.9916 0.0467 -0.1209
vn 0.2504 0.9602 -0.1239
vn -0.9643 -0.0335 -0.2626
vn -0.0578 0.9897 -0.1313
vn 0.8376 -0.5462 0.0019
vn 0.7263 -0.6866 0.0318
vn 0.3158 -0.9479 -0.0414
vn -0.7969 -0.4879 -0.3563
vn -0.4941 0.8029 -0.3335
vn 0.9981 -0.0351 0.0504
vn 0.1235 0.9874 -0.0991
vn -0.8896 -0.1797 -0.4199
vn 0.8063 -0.5684 0.1638
vn 0.3033 -0.9525 -0.0281
vn -0.6346 -0.5057 -0.5844
vn -0.8160 0.2930 -0.4984
vn -0.5777 0.7530 -0.3152
vn -0.4211 0.8142 -0.3998
vn 0.9636 -0.0077 0.2672
vn 0.1817 0.9784 -0.0985
vn 0.7808 -0.5377 0.3184
vn 0.2983 -0.9545 0.0009
vn -0.6928 0.2320 -0.6828
vn 0.8604 0.0188 0.5092
vn 0.0138 0.9922 -0.1236
vn -0.4498 -0.5818 -0.6776
vn 0.7131 0.1878 0.6754
vn 0.6910 -0.4130 0.5933
vn 0.0196 -0.9104 -0.4133
vn -0.5007 0.1010 -0.8597
vn 0.5718 0.3227 0.7542
vn 0.1305 0.9786 -0.1588
vn 0.3004 0.9244 0.2352
vn 0.3386 -0.7943 0.5044
vn -0.3086 -0.1189 -0.9437
vn 0.1852 -0.3311 -0.9252
vn 0.3219 -0.9466 -0.0150
vn -0.7370 -0.4595 -0.4957
vn -0.1281 0.3776 -0.9171
vn -0.0843 -0.9710 0.2236
vn 0.8833 -0.3188 0.3439
vn 0.8730 0.4570 -0.1704
vn -0.1925 -0.9151 0.3543
vn -0.0862 -0.8296 0.5517
vn 0.6813 -0.0754 0.7281
vn 0.7845 0.6001 0.1562
vn -0.0048 0.8119 -0.5838
vn -0.5570 0.3170 -0.7676
vn 0.2577 0.8285 -0.4972
vn -0.7347 -0.2973 -0.6098
vn 0.6232 -0.1680 0.7638
vn 0.8027 0.5653 0.1903
vn 0.3640 0.7629 -0.5343
vn -0.5848 0.0230 -0.8109
vn -0.5800 -0.4272 -0.6936
vn -0.1392 -0.9644 0.2249
vn 0.4857 -0.3730 0.7905
vn 0.8493 0.4745 0.2313
vn -0.2496 0.5921 -0.7662
vn 0.6669 -0.1890 0.7208
vn 0.8343 0.2667 0.4825
vn 0.6555 0.7421 -0.1401
vn -0.4253 0.1406 -0.8941
vn -0.4853 -0.2233 -0.8453
vn -0.3800 -0.9179 0.1146
vn 0.5816 -0.3823 0.7180
vn 0.7709 0.1541 0.6180
vn -0.2708 0.6552 -0.7052
vn 0.5383 0.8348 0.1156
vn -0.6799 -0.3067 -0.6661
vn 0.2594 -0.6965 0.6690
vn 0.4804 -0.2994 0.8243
vn 0.5969 0.1516 0.7879
vn -0.4340 0.7107 -0.5537
vn 0.2099 0.8965 0.3901
vn -0.8762 -0.2815 -0.3913
vn -0.9650 -0.0691 -0.2531
vn -0.6727 -0.7249 0.1481
vn 0.0924 -0.6089 0.7879
vn 0.2651 -0.2259 0.9374
vn 0.1574 0.9737 0.1649
vn -0.4798 0.3488 -0.8050
vn -0.4468 -0.8934 0.0467
vn 0.2496 -0.5505 0.7967
vn 0.3261 -0.0075 0.9453
vn -0.3633 0.3592 -0.8596
vn 0.1378 0.9816 -0.1319
vn -0.4060 0.1014 -0.9082
vn -0.6993 -0.3473 -0.6248
vn -0.2348 -0.9706 0.0526
vn 0.3750 -0.4061 0.8333
vn 0.4496 0.0153 0.8931
vn 0.4849 0.3828 0.7863
vn -0.0134 0.9701 -0.2423
vn -0.4391 -0.3341 -0.8340
vn -0.2888 -0.9517 0.1042
vn 0.4573 -0.1868 0.8695
vn 0.4576 0.3097 0.8335
vn 0.3296 0.6459 0.6886
vn -0.5086 0.3950 -0.7650
vn 0.0528 -0.8353 0.5472
vn 0.0972 -0.9631 0.2508
vn 0.4514 -0.0255 0.8920
vn -0.0474 0.4546 -0.8894
vn -0.3293 0.8192 -0.4695
vn -0.4102 -0.5246 -0.7460
vn -0.3146 -0.8227 -0.4735
vn 0.3203 0.4295 0.8444
vn 0.2831 0.8586 0.4273
vn -0.3374 -0.8586 -0.3860
vn -0.1028 -0.6201 0.7778
vn 0.1097 0.4974 0.8606
vn 0.0684 0.8363 0.5440
vn -0.4078 -0.2172 -0.8869
vn -0.3296 0.9166 -0.2262
vn -0.3121 -0.8561 0.4119
vn -0.5136 0.6860 -0.5155
vn -0.4456 -0.8191 -0.3612
vn 0.3307 -0.4488 0.8302
vn -0.0653 -0.1529 -0.9861
vn 0.4776 0.5927 -0.6485
vn -0.1696 -0.5196 -0.8374
vn 0.0507 -0.9899 -0.1327
vn 0.3252 -0.4138 0.8503
vn 0.1787 -0.0619 0.9820
vn 0.6695 0.5988 0.4396
vn 0.1596 0.7401 -0.6533
vn -0.3614 -0.9322 -0.0208
vn -0.1289 -0.3876 0.9128
vn 0.2575 0.4088 0.8756
vn 0.0384 -0.0940 -0.9948
vn 0.3811 0.6418 -0.6655
vn -0.1832 -0.9765 -0.1138
vn -0.0186 -0.3291 0.9441
vn 0.3494 0.2156 0.9118
vn 0.6736 0.5778 -0.4609
vn 0.4255 0.7940 0.4343
vn 0.2708 -0.1995 -0.9417
vn -0.2589 -0.9418 -0.2144
vn -0.1443 -0.3162 0.9376
vn 0.2993 0.2799 -0.9122
vn 0.0303 -0.0974 -0.9948
vn -0.2584 -0.7183 0.6460
vn 0.0157 0.1341 0.9908
vn 0.3372 0.5472 -0.7660
vn 0.2148 0.8699 0.4440
vn -0.0102 -0.0420 -0.9991
vn -0.3748 -0.9024 -0.2128
vn -0.3795 -0.6240 0.6831
vn -0.3416 -0.1425 0.9290
vn 0.1595 0.9390 0.3048
vn 0.1993 0.2246 -0.9539
vn 0.0164 -0.1958 -0.9805
vn -0.2877 -0.6091 0.7390
vn -0.2713 0.2842 0.9196
vn 0.3031 0.4143 -0.8582
vn -0.0850 0.9868 0.1380
vn 0.1495 0.0800 -0.9855
vn -0.1638 -0.2388 -0.9572
vn -0.5160 -0.8373 -0.1808
vn -0.4985 -0.4082 0.7648
vn -0.3759 0.0421 0.9257
vn -0.3421 0.4304 0.8353
vn -0.0210 0.9875 -0.1560
vn 0.2312 -0.1862 -0.9549
vn -0.4083 -0.6813 -0.6076
vn -0.3292 -0.1777 0.9274
vn -0.2560 0.3203 0.9121
vn -0.2244 0.6112 0.7590
vn 0.3403 -0.4093 -0.8466
vn 0.4420 0.7782 -0.4460
vn 0.0871 -0.7485 -0.6574
vn 0.0904 -0.9297 0.3571
vn -0.2031 -0.0218 0.9789
vn -0.1400 0.7184 0.6814
vn 0.6761 -0.0307 -0.7361
vn 0.2622 0.8283 -0.4952
vn 0.2136 -0.7153 -0.6654
vn -0.3414 -0.8643 0.3693
vn -0.4497 0.1795 0.8749
vn -0.0830 0.8155 0.5728
vn 0.4186 -0.1137 -0.9010
vn 0.2315 0.8153 -0.5308
vn 0.1953 -0.6440 -0.7397
vn -0.5185 -0.7941 0.3171
vn -0.4417 0.4687 0.7650
vn -0.4413 0.8429 0.3078
vn 0.3803 -0.0779 -0.9216
vn 0.1777 0.8504 -0.4951
vn 0.3862 -0.5620 -0.7314
vn 0.1280 -0.8744 -0.4680
vn -0.7354 0.0797 0.6729
vn -0.5303 0.5122 0.6756
vn -0.3860 0.8683 0.3116
vn 0.2787 0.0063 -0.9604
vn -0.1117 0.8766 -0.4681
vn 0.4132 -0.7222 -0.5546
vn -0.5170 -0.8465 0.1272
vn -0.2411 0.8924 -0.3815
vn 0.4727 -0.1991 -0.8584
vn -0.6752 -0.2676 0.6874
vn -0.8294 0.3168 0.4602
vn 0.6450 -0.6062 -0.4653
vn -0.5855 0.7500 -0.3076
vn -0.6449 -0.4202 -0.6384
vn 0.0205 -0.4601 0.8876
vn 0.9678 0.1461 -0.2050
vn 0.7589 0.5746 0.3063
vn -0.1652 -0.9835 0.0734
vn -0.3515 -0.0129 0.9361
vn 0.9350 0.2825 0.2146
vn 0.1925 0.3598 0.9129
vn 0.9641 0.0043 -0.2653
vn -0.0615 -0.9667 -0.2484
vn -0.7139 -0.6978 0.0582
vn -0.8054 -0.4194 0.4188
vn -0.5879 -0.1062 0.8019
vn 0.0508 0.4395 0.8968
vn 0.9817 0.1455 -0.1231
vn 0.8957 -0.2407 -0.3739
vn 0.0348 -0.8935 -0.4477
vn -0.8365 -0.3749 0.3997
vn -0.7903 0.0106 0.6126
vn 0.9242 0.3244 0.2015
vn 0.1453 0.3924 0.9083
vn 0.8806 -0.1900 -0.4341
vn 0.0309 -0.9208 -0.3887
vn -0.6604 -0.7250 0.1955
vn 0.9312 0.3637 0.0230
vn 0.0363 0.7461 0.6648
vn 0.9468 0.1303 -0.2944
vn 0.7773 -0.1399 -0.6134
vn -0.1385 -0.8181 -0.5581
vn -0.7916 -0.5859 0.1736
vn -0.9350 -0.1118 0.3365
vn -0.8166 0.2819 0.5036
vn 0.8910 0.3906 -0.2314
vn -0.1134 0.9899 0.0849
vn 0.8251 0.1502 -0.5446
vn 0.4965 0.0464 -0.8668
vn -0.3318 -0.6565 -0.6775
vn -0.9586 -0.2847 -0.0081
vn -0.9653 0.1471 0.2158
vn -0.8175 0.5128 0.2621
vn 0.9612 0.1665 -0.2201
vn 0.2724 0.9490 0.1588
vn 0.8442 -0.1125 -0.5240
vn 0.4835 -0.3521 -0.8014
vn -0.9222 -0.1611 0.3516
vn -0.8802 0.2582 0.3982
vn -0.7050 0.6121 0.3581
vn 0.9772 -0.0191 -0.2117
vn 0.5660 0.8038 0.1834
vn 0.8119 -0.3727 -0.4493
vn 0.4347 -0.6389 -0.6347
vn -0.4364 -0.8588 -0.2685
vn -0.8848 -0.0137 0.4658
vn -0.7813 0.3708 0.5020
vn -0.5689 0.6940 0.4414
vn 0.9649 -0.1096 -0.2385
vn 0.6848 0.7164 0.1336
vn 0.7354 -0.5638 -0.3759
vn 0.3932 -0.7309 -0.5578
vn -0.5490 -0.8352 -0.0319
vn -0.8718 0.1906 0.4513
vn -0.7520 0.4704 0.4617
vn -0.4778 -0.7732 0.4170
vn -0.4386 0.8782 0.1908
vn 0.8030 0.3000 -0.5150
vn 0.7556 -0.5396 -0.3714
vn 0.5775 -0.7693 -0.2734
vn -0.6762 -0.7343 0.0593
vn -0.9843 0.1341 0.1144
vn -0.8231 0.5045 0.2609
vn 0.8379 0.1240 -0.5316
vn 0.2573 0.8560 -0.4484
vn 0.7639 -0.4047 -0.5027
vn -0.3965 -0.7006 -0.5933
vn -0.9758 -0.0243 -0.2175
vn -0.9192 0.3905 -0.0517
vn -0.6297 0.7651 -0.1349
vn 0.0570 0.9201 -0.3875
vn 0.8925 -0.2822 -0.3517
vn 0.7857 -0.5589 -0.2652
vn -0.5415 -0.7698 -0.3378
vn -0.9780 0.1726 -0.1172
vn -0.7692 0.6251 -0.1325
vn 0.8938 0.1024 -0.4366
vn -0.1893 0.8847 -0.4259
vn -0.7721 -0.5889 -0.2390
vn 0.9750 0.0073 -0.2222
vn -0.3369 0.8438 -0.4178
vn 0.6967 -0.6934 -0.1838
vn -0.5238 -0.7527 0.3989
vn -0.9735 0.1493 -0.1735
vn -0.3628 -0.1006 -0.9264
vn -0.9066 0.2596 -0.3327
vn 0.2863 0.5950 -0.7510
vn -0.3354 -0.9284 0.1596
vt 0.394118 0.131400
vt 0.892718 0.181400
vt 1.000000 0.181400
vt 0.345491 0.181400
vt 0.088602 0.181400
vt 0.095491 0.181400
vt 0.654508 0.186762
vt 0.904508 0.181400
vt 0.926469 0.272715
vt 1.000000 0.261304
vt 0.345491 0.264237
vt 0.095491 0.251956
vt 0.000000 0.231400
vt 0.095491 0.261317
vt 0.345491 0.257308
vt 0.904508 0.271136
vt 0.000000 0.300719
vt 0.654508 0.303468
vt 0.904508 0.356553
vt 1.000000 0.331400
vt 0.654508 0.372776
vt 0.345491 0.358300
vt 0.095491 0.331400
vt 0.345491 0.331400
vt 0.904508 0.331400
vt 1.000000 0.388347
vt 0.095491 0.381400
vt 0.000000 0.381400
vt 0.345491 0.381400
vt 0.654508 0.415225
vt 0.904508 0.381400
vt 0.904508 0.469900
vt 0.654508 0.458735
vt 0.345491 0.458560
vt 0.095491 0.468187
vt 0.000000 0.431400
vt 0.095491 0.431400
vt 0.345491 0.431400
vt 0.904508 0.440110
vt 0.994824 0.525223
vt 0.000000 0.516640
vt 0.095491 0.556623
vt 0.345491 0.481400
vt 0.654508 0.507775
vt 0.654508 0.531400
vt 0.345491 0.531400
vt 0.095491 0.531400
vt 0.345491 0.559286
vt 0.904508 0.570492
vt 0.904508 0.581400
vt 1.000000 0.581400
vt 0.654508 0.596878
vt 0.345491 0.581400
vt 0.095491 0.581400
vt 0.000000 0.581400
vt 0.654508 0.581400
vt 0.904508 0.631400
vt 1.000000 0.631400
vt 0.345491 0.631400
vt 0.095491 0.631400
vt 0.000000 0.643127
vt 0.095491 0.643943
vt 0.345492 0.650636
vt 0.654508 0.631400
vt 0.904508 0.701183
vt 1.000000 0.681400
vt 0.654508 0.690604
vt 0.345491 0.681400
vt 0.095491 0.681400
vt 0.654508 0.708573
vt 0.904508 0.705862
vt 1.000000 0.731400
vt 0.345491 0.731400
vt 0.095491 0.731400
vt 0.000000 0.772791
vt 0.345491 0.760326
vt 0.904508 0.781400
vt 1.000000 0.781400
vt 0.654508 0.808250
vt 0.345491 0.805682
vt 0.095491 0.802426
vt 0.095491 0.781400
vt 0.654508 0.809735
vt 0.904508 0.801219
vt 0.904508 0.831400
vt 1.000000 0.831400
vt 0.000000 0.831400
vt 0.095491 0.831400
vt 0.345491 0.831400
vt 0.904508 0.881400
vt 1.000000 0.881400
vt 0.654508 0.881400
vt 0.345491 0.881400
vt 0.095491 0.905701
vt 0.000000 0.901783
vt 0.095491 0.881400
vt 0.654508 0.896308
vt 0.904508 0.900790
vt 0.904508 0.931400
vt 1.000000 0.931400
vt 0.654508 0.931400
vt 0.345491 0.931400
vt 0.095491 0.931400
vt 0.904508 0.981400
vt 1.000000 0.981400
vt 0.654508 0.981400
vt 0.345491 0.981400
vt 0.095491 0.981400
vt 0.000000 0.981400
vt 0.654508 1.006727
vt 0.904508 1.013714
vt 0.904508 1.031400
vt 1.000000 1.031400
vt 0.654508 1.031400
vt 0.345491 1.031400
vt 0.095491 1.048999
vt 0.000000 1.042322
vt 0.095491 1.031400
vt 0.904508 1.112929
vt 1.000000 1.107421
vt 0.654508 1.081400
vt 0.345491 1.081400
vt 0.095491 1.081400
vt 0.654508 1.106053
vt 0.904508 1.112430
vt 0.654508 1.131400
vt 0.345491 1.131400
vt 0.095491 1.175654
vt 0.000000 1.167009
vt 0.095491 1.163450
vt 0.904508 1.181400
vt 1.000000 1.181400
vt 0.654508 1.181400
vt 0.345491 1.181400
vt 0.904508 1.231400
vt 1.000000 1.231400
vt 0.654508 1.250843
vt 0.345491 1.270722
vt 0.095491 1.231400
vt 0.000000 1.231400
vt 0.345491 1.231400
vt 0.654508 1.231400
vt 0.904508 1.281400
vt 1.000000 1.281400
vt 0.095491 1.281400
vt 0.000000 1.281400
vt 0.345491 1.281400
vt 0.654508 1.281400
vt 0.904508 1.331400
vt 1.000000 1.331400
vt 0.654508 1.359831
vt 0.095491 1.331400
vt 0.000000 1.331400
vt 0.345491 1.331400
vt 0.654508 1.331400
vt 0.904508 1.343484
vt 0.904508 1.381400
vt 1.000000 1.381400
vt 0.345492 1.419832
vt 0.095491 1.409862
vt 0.000000 1.381400
vt 0.095491 1.381400
vt 0.345491 1.381400
vt 0.654510 1.394260
vt 0.894067 1.431400
vt 1.000000 1.431400
vt 0.000000 1.431400
vt 0.095491 1.431400
vt 0.345491 1.431400
vt 0.904508 1.481400
vt 1.000000 1.500636
vt 0.654508 1.481400
vt 0.345491 1.481400
vt 0.095491 1.481400
vt 0.000000 1.481400
vt 0.654508 1.568570
vt 0.904508 1.521403
vt 0.904508 1.531400
vt 0.654508 1.531400
vt 0.345491 1.554024
vt 0.095491 1.559575
vt 0.000000 1.548097
vt 0.095491 1.531400
vt 0.345491 1.559947
vt 0.904508 1.614451
vt 1.000000 1.581400
vt 0.654508 1.591856
vt 0.095491 1.581400
vt 0.904508 1.581400
vt 1.000000 1.631400
vt 0.345491 1.661088
vt 0.095491 1.631400
vt 0.000000 1.672052
vt 0.345491 1.631400
vt 0.654508 1.659629
vt 0.904508 1.631400
vt 1.000000 1.681400
vt 0.654508 1.709607
vt 0.095491 1.681400
vt 0.345491 1.681400
vt 0.904508 1.681400
vt 0.904508 1.764444
vt 1.000000 1.731400
vt 0.345492 1.750819
vt 0.095491 1.731400
vt 0.000000 1.731400
vt 0.345491 1.731400
vt 0.654508 1.751773
vt 0.904508 1.731400
vt 1.000000 1.781400
vt 0.654508 1.811355
vt 0.095491 1.781400
vt 0.000000 1.781400
vt 0.345491 1.799660
vt 0.904508 1.781400
vt 0.999989 1.831400
vt 0.345491 1.858927
vt 0.095491 1.861067
vt 0.000000 1.831400
vt 0.095491 1.831400
vt 0.654508 1.855452
vt 0.904508 1.831400
vt 0.904508 1.881400
vt 1.000000 1.881400
vt 0.654508 1.908016
vt 0.000000 1.881400
vt 0.095491 1.881400
vt 0.904508 1.931400
vt 1.000000 1.931400
vt 0.345491 1.959594
vt 0.095491 1.950125
vt 0.000000 1.931400
vt 0.095491 1.931400
vt 0.345491 2.047542
vt 0.654508 1.963581
vt 0.904508 1.949251
vt 0.904508 1.991886
vt 1.000000 1.994557
vt 0.654508 2.007698
vt 0.000000 1.981400
vt 0.095491 2.008018
vt 0.345491 2.060849
vt 0.095491 2.066906
vt 0.000000 2.031400
vt 0.654508 2.031400
vt 0.904508 2.031400
vt 0.904508 2.114829
vt 1.000000 2.123198
vt 0.654508 2.107498
vt 0.000000 2.081400
vt 0.095491 2.081400
vt 0.654508 2.081400
vt 0.904508 2.081400
vt 0.345491 2.131400
vt 0.095491 2.131400
vt 0.000000 2.131400
vt 0.345491 2.151637
vt 0.654508 2.131400
vt 0.904508 2.131400
vt 0.904508 2.181400
vt 1.000000 2.214569
vt 0.654508 2.190239
vt 0.345492 2.199147
vt 0.095491 2.181400
vt 0.000000 2.181400
vt 0.095491 2.196692
vt 0.654508 2.181400
vt 0.904508 2.250592
vt 0.095491 2.231400
vt 0.000000 2.231400
vt 0.345491 2.252114
vt 0.654508 2.231400
vt 0.904508 2.231400
vt 1.000000 2.281400
vt 0.654508 2.319279
vt 0.345491 2.310523
vt 0.095491 2.297682
vt 0.000000 2.305700
vt 0.095492 2.323988
vt 0.654508 2.291790
vt 0.904508 2.281400
vt 0.904508 2.361381
vt 1.000000 2.345780
vt 0.904508 2.356283
vt 0.654508 2.408633
vt 0.345491 2.403887
vt 0.095491 2.395810
vt 0.000000 2.402288
vt 0.345491 2.500458
vt 0.654508 2.404618
vt 0.904508 2.450184
vt 1.000000 2.441338
vt 0.095491 2.462900
vt 0.904508 2.455328
vt 0.654508 2.511524
vt 0.345491 2.504329
vt 0.095491 2.509284
vt 0.000000 2.508366
vt 0.654508 2.506389
vt 0.904508 2.562958
vt 1.000000 2.561482
vt 0.095491 2.557854
vt 0.454257 2.608829
vt 0.095491 2.602901
vt 0.018058 2.634080
vt 0.345491 2.607584
vt 0.654508 2.596880
vt 0.752652 2.663964
vt 0.904508 2.664212
vt 1.000000 2.664101
vt 0.455073 2.696082
vt 0.095491 2.709451
vt 0.345491 2.704773
vt 0.855596 2.731400
vt 0.889725 2.762594
vt 0.025532 2.758854
vt 0.856090 2.781400
vt 0.345491 2.803512
vt 0.057422 2.821904
vt 0.345491 2.809603
vt 0.862626 2.831400
vt 0.901112 2.831400
vt 0.924770 2.881400
vt 0.105662 2.881400
vt 0.276675 2.881400
vt 0.465268 2.931400
vt 0.402922 0.131400
vt 0.512899 0.191500
vt 0.996226 0.188387
vt 0.049127 0.186956
vt 0.148787 0.187323
vt 0.833292 0.186956
vt -0.002399 0.298977
vt 0.000000 0.242511
vt 0.146447 0.242511
vt 0.853553 0.242511
vt 1.000000 0.242511
vt 0.853553 0.299037
vt 1.000000 0.298067
vt 0.419796 0.298067
vt 0.151569 0.298872
vt 0.830402 0.298067
vt 1.000000 0.353622
vt 0.500000 0.398992
vt 0.146447 0.389653
vt -0.002573 0.368906
vt 0.146447 0.353622
vt 0.868437 0.359268
vt 0.853553 0.444411
vt 0.500000 0.409178
vt 0.853553 0.409178
vt 1.000000 0.464733
vt 0.500000 0.464733
vt 0.146447 0.464733
vt 0.000000 0.517372
vt 0.481573 0.464733
vt 0.853553 0.464733
vt 0.853553 0.520289
vt 1.000000 0.520289
vt 0.145358 0.520289
vt 0.146447 0.520289
vt 0.500000 0.520289
vt 0.853553 0.575844
vt 1.000000 0.575844
vt 0.167232 0.628134
vt 0.146447 0.575844
vt 0.000000 0.575844
vt 0.500000 0.575844
vt 1.002432 0.632322
vt 0.572059 0.631400
vt 0.000000 0.631400
vt 0.146447 0.631400
vt 0.550803 0.631400
vt 0.853553 0.725319
vt 1.000000 0.686956
vt 0.500000 0.686956
vt 0.146447 0.686956
vt 0.000000 0.686956
vt 0.853553 0.686956
vt 1.000000 0.742511
vt 0.500000 0.780897
vt 0.003312 0.742511
vt 0.146447 0.742511
vt 0.500000 0.773793
vt 0.853553 0.765973
vt 0.861432 0.798067
vt 0.002098 0.852826
vt 0.000000 0.798067
vt 0.146447 0.798067
vt 0.853553 0.852052
vt 1.000000 0.868478
vt 0.500000 0.853622
vt 0.146447 0.853622
vt 0.456443 0.853622
vt 0.853553 0.853622
vt 0.164196 0.933390
vt 0.001152 0.934606
vt 0.413715 0.982001
vt 0.853553 0.909178
vt 0.819935 0.993745
vt 0.977994 1.007934
vt 0.106214 1.075260
vt 1.139690 1.075844
vt 0.352271 1.131400
vt 0.486670 0.221400
vt 0.500000 0.293496
vt 0.958679 0.276956
vt 0.146447 0.304293
vt 0.000000 0.276956
vt 0.146447 0.276956
vt 0.500000 0.307863
vt 0.853553 0.276956
vt 0.857071 0.332511
vt 0.000000 0.332511
vt 0.146447 0.332511
vt 0.853553 0.332511
vt 0.269494 0.388067
vt 0.862774 0.388067
vt 0.026584 0.398152
vt 0.462716 0.388067
vt 0.853553 0.394412
vt 0.853553 0.491833
vt 1.000000 0.499264
vt 0.167596 0.443622
vt 0.000000 0.494711
vt 0.500000 0.495701
vt 0.500000 0.506771
vt 0.146447 0.499178
vt 0.853553 0.500382
vt 0.853553 0.595340
vt 1.000000 0.554733
vt 0.146447 0.554733
vt 0.000000 0.591233
vt 0.500000 0.608022
vt 1.000000 0.610289
vt 0.500000 0.610289
vt 0.146447 0.610289
vt 0.853553 0.610289
vt 0.853553 0.665844
vt 1.000000 0.665844
vt 0.500000 0.665844
vt 0.146447 0.665844
vt 0.000000 0.665844
vt 1.006499 0.721400
vt 0.500000 0.721400
vt 0.118818 0.721400
vt 0.146447 0.721400
vt 0.500000 0.747352
vt 0.853553 0.721400
vt 0.505636 0.776070
vt 0.995330 0.776956
vt 0.146447 0.776956
vt 0.000000 0.776956
vt 0.853553 0.776956
vt 0.853553 0.832511
vt 1.000000 0.832511
vt 0.500000 0.832511
vt 0.000000 0.832511
vt 0.165312 0.832511
vt 0.853553 0.888067
vt 1.000000 0.888067
vt 0.437644 0.888067
vt 0.000000 0.927064
vt 0.449363 0.888067
vt 0.853553 0.943622
vt 1.000000 0.943622
vt 0.500000 0.976060
vt 0.146447 0.943622
vt 0.146447 0.985259
vt 0.500000 0.956501
vt 0.853553 0.999178
vt 1.000000 0.999178
vt 0.146447 1.043679
vt 0.000000 0.999178
vt 0.990726 1.080675
vt 0.743212 1.058924
vt 0.138416 1.054501
vt 0.627806 1.084339
vt 0.146447 1.157342
vt 0.817629 1.165844
vt 0.477846 1.221370
vt 0.545961 0.311408
vt 0.476526 0.366956
vt 0.899540 0.366956
vt 0.073815 0.366956
vt 0.853553 0.366956
vt 0.853553 0.460854
vt 1.000000 0.422511
vt 0.274226 0.422511
vt 0.000000 0.422511
vt 0.146447 0.472974
vt 0.500000 0.422511
vt 0.853553 0.422511
vt 1.000000 0.478067
vt 0.500000 0.527801
vt 0.146447 0.478067
vt 0.000000 0.478067
vt 0.514818 0.494416
vt 0.853553 0.478067
vt 0.853553 0.533622
vt 1.000000 0.533622
vt 0.146447 0.533622
vt 0.000000 0.533622
vt 0.853553 0.589178
vt 1.000000 0.589178
vt 0.500000 0.589178
vt 0.146447 0.589178
vt 0.000000 0.589178
vt 0.853553 0.644733
vt 1.000000 0.644733
vt 0.500000 0.644733
vt 0.146447 0.644733
vt 0.000000 0.692504
vt 0.853553 0.700289
vt 1.000000 0.700289
vt 0.500000 0.700289
vt 0.146447 0.700289
vt 0.853553 0.755844
vt 1.000000 0.755844
vt 0.500000 0.755844
vt 0.146447 0.755844
vt 0.000000 0.755844
vt 0.853553 0.763139
vt 0.853553 0.835471
vt 1.000000 0.854593
vt 0.500000 0.837266
vt 0.146447 0.811400
vt 0.000000 0.811400
vt 0.146447 0.847715
vt 0.500000 0.829546
vt -0.002031 0.866956
vt 0.853553 0.921774
vt 0.856147 0.922511
vt 0.500000 0.922511
vt 0.146447 0.960091
vt 0.000000 0.922511
vt 0.146447 0.922511
vt 0.853553 1.024975
vt 1.000000 0.978067
vt 0.500000 0.978067
vt 0.000000 0.978067
vt 0.146447 0.978067
vt 0.853553 0.978067
vt 1.000000 1.033622
vt 0.500000 1.033622
vt 0.146447 1.043421
vt 0.009016 1.033622
vt 0.500000 1.069027
vt 0.853553 1.050435
vt 0.802065 1.089178
vt 1.000000 1.089178
vt 0.124369 1.089178
vt 0.553913 1.145170
vt 1.000000 1.174224
vt 0.113950 1.148738
vt 0.146447 1.147542
vt 0.664951 1.144733
vt 0.620565 1.311297
vt 0.853815 1.224464
vt 0.973182 1.255844
vt 0.095570 1.255844
s 1
f 1/1/1 3/2/2 2/3/3
f 1/1/1 4/4/4 3/2/2
f 1/1/1 5/5/5 4/4/4
f 1/1/1 6/6/6 5/5/5
f 1/1/1 7/4/7 6/6/6
f 1/1/1 8/7/8 7/4/7
f 1/1/1 9/8/9 8/7/8
f 1/1/1 2/3/3 9/8/9
f 2/3/3 3/2/2 11/9/10
f 2/3/3 11/9/10 10/10/11
f 3/2/2 4/4/4 12/11/12
f 3/2/2 12/11/12 11/9/10
f 4/4/4 5/5/5 13/12/13
f 4/4/4 13/12/13 12/11/12
f 5/5/5 14/13/14 13/12/13
f 5/5/5 6/6/6 15/14/15
f 5/5/5 15/14/15 14/13/14
f 6/6/6 7/4/7 16/15/16
f 6/6/6 16/15/16 15/14/15
f 7/4/7 8/7/8 16/15/16
f 8/7/8 9/8/9 17/16/17
f 9/8/9 2/3/3 10/10/11
f 9/8/9 10/10/11 17/16/17
f 13/12/13 14/13/14 18/17/18
f 14/13/14 15/14/15 18/17/18
f 16/15/16 8/7/8 19/18/19
f 8/7/8 17/16/17 19/18/19
f 10/10/11 11/9/10 21/19/20
f 10/10/11 21/19/20 20/20/21
f 11/9/10 22/21/22 21/19/20
f 11/9/10 12/11/12 23/22/23
f 11/9/10 23/22/23 22/21/22
f 12/11/12 13/12/13 24/23/24
f 12/11/12 24/23/24 23/22/23
f 13/12/13 18/17/18 24/23/24
f 18/17/18 15/14/15 25/23/25
f 15/14/15 16/15/16 26/24/26
f 15/14/15 26/24/26 25/23/25
f 16/15/16 19/18/19 26/24/26
f 19/18/19 17/16/17 27/25/27
f 17/16/17 10/10/11 20/20/21
f 17/16/17 20/20/21 27/25/27
f 20/20/21 21/19/20 28/26/28
f 23/22/23 24/23/24 29/27/29
f 24/23/24 18/17/18 30/28/30
f 24/23/24 30/28/30 29/27/29
f 18/17/18 25/23/25 31/27/31
f 18/17/18 31/27/31 30/28/30
f 25/23/25 26/24/26 32/29/32
f 25/23/25 32/29/32 31/27/31
f 26/24/26 19/18/19 33/30/33
f 26/24/26 33/30/33 32/29/32
f 19/18/19 27/25/27 34/31/34
f 19/18/19 34/31/34 33/30/33
f 27/25/27 20/20/21 28/26/28
f 27/25/27 28/26/28 34/31/34
f 28/26/28 21/19/20 35/32/35
f 21/19/20 22/21/22 36/33/36
f 21/19/20 36/33/36 35/32/35
f 22/21/22 23/22/23 37/34/37
f 22/21/22 37/34/37 36/33/36
f 23/22/23 29/27/29 38/35/38
f 23/22/23 38/35/38 37/34/37
f 29/27/29 30/28/30 39/36/39
f 29/27/29 39/36/39 38/35/38
f 30/28/30 31/27/31 40/37/40
f 30/28/30 40/37/40 39/36/39
f 31/27/31 32/29/32 41/38/41
f 31/27/31 41/38/41 40/37/40
f 32/29/32 33/30/33 41/38/41
f 33/30/33 34/31/34 42/39/42
f 34/31/34 28/26/28 42/39/42
f 28/26/28 35/32/35 43/40/43
f 38/35/38 39/36/39 44/41/44
f 39/36/39 40/37/40 45/42/45
f 39/36/39 45/42/45 44/41/44
f 40/37/40 41/38/41 46/43/46
f 40/37/40 46/43/46 45/42/45
f 41/38/41 33/30/33 47/44/47
f 41/38/41 47/44/47 46/43/46
f 33/30/33 42/39/42 47/44/47
f 42/39/42 28/26/28 43/40/43
f 35/32/35 36/33/36 48/45/48
f 35/32/35 48/45/48 43/40/43
f 36/33/36 37/34/37 49/46/49
f 36/33/36 49/46/49 48/45/48
f 37/34/37 38/35/38 50/47/50
f 37/34/37 50/47/50 49/46/49
f 38/35/38 44/41/44 50/47/50
f 45/42/45 46/43/46 51/48/51
f 46/43/46 47/44/47 51/48/51
f 47/44/47 42/39/42 52/49/52
f 42/39/42 43/40/43 52/49/52
f 43/40/43 54/50/53 53/51/54
f 43/40/43 48/45/48 55/52/55
f 43/40/43 55/52/55 54/50/53
f 48/45/48 49/46/49 56/53/56
f 48/45/48 56/53/56 55/52/55
f 49/46/49 50/47/50 57/54/57
f 49/46/49 57/54/57 56/53/56
f 50/47/50 44/41/44 58/55/58
f 50/47/50 58/55/58 57/54/57
f 44/41/44 45/42/45 58/55/58
f 51/48/51 47/44/47 59/56/59
f 47/44/47 52/49/52 59/56/59
f 52/49/52 43/40/43 53/51/54
f 53/51/54 54/50/53 61/57/60
f 53/51/54 61/57/60 60/58/61
f 54/50/53 55/52/55 61/57/60
f 55/52/55 56/53/56 62/59/62
f 56/53/56 57/54/57 63/60/63
f 56/53/56 63/60/63 62/59/62
f 57/54/57 58/55/58 64/61/64
f 57/54/57 64/61/64 63/60/63
f 58/55/58 45/42/45 65/62/65
f 58/55/58 65/62/65 64/61/64
f 45/42/45 51/48/51 66/63/66
f 45/42/45 66/63/66 65/62/65
f 51/48/51 59/56/59 67/64/67
f 51/48/51 67/64/67 66/63/66
f 59/56/59 52/49/52 68/57/68
f 59/56/59 68/57/68 67/64/67
f 52/49/52 53/51/54 60/58/61
f 52/49/52 60/58/61 68/57/68
f 60/58/61 61/57/60 70/65/69
f 60/58/61 70/65/69 69/66/70
f 61/57/60 55/52/55 71/67/71
f 61/57/60 71/67/71 70/65/69
f 55/52/55 62/59/62 72/68/72
f 55/52/55 72/68/72 71/67/71
f 62/59/62 63/60/63 73/69/73
f 62/59/62 73/69/73 72/68/72
f 63/60/63 64/61/64 73/69/73
f 66/63/66 67/64/67 74/70/74
f 67/64/67 68/57/68 75/71/75
f 67/64/67 75/71/75 74/70/74
f 68/57/68 60/58/61 69/66/70
f 68/57/68 69/66/70 75/71/75
f 69/66/70 70/65/69 76/72/76
f 71/67/71 72/68/72 77/73/77
f 72/68/72 73/69/73 78/74/78
f 72/68/72 78/74/78 77/73/77
f 73/69/73 64/61/64 79/75/79
f 73/69/73 79/75/79 78/74/78
f 64/61/64 65/62/65 80/74/80
f 64/61/64 80/74/80 79/75/79
f 65/62/65 66/63/66 81/76/81
f 65/62/65 81/76/81 80/74/80
f 66/63/66 74/70/74 81/76/81
f 75/71/75 69/66/70 76/72/76
f 76/72/76 70/65/69 83/77/82
f 76/72/76 83/77/82 82/78/83
f 70/65/69 71/67/71 84/79/84
f 70/65/69 84/79/84 83/77/82
f 71/67/71 77/73/77 85/80/85
f 71/67/71 85/80/85 84/79/84
f 77/73/77 78/74/78 86/81/86
f 77/73/77 86/81/86 85/80/85
f 78/74/78 79/75/79 86/81/86
f 79/75/79 80/74/80 87/82/87
f 80/74/80 81/76/81 87/82/87
f 81/76/81 74/70/74 88/83/88
f 74/70/74 75/71/75 89/84/89
f 74/70/74 89/84/89 88/83/88
f 75/71/75 76/72/76 82/78/83
f 75/71/75 82/78/83 89/84/89
f 82/78/83 83/77/82 91/85/90
f 82/78/83 91/85/90 90/86/91
f 83/77/82 84/79/84 91/85/90
f 86/81/86 79/75/79 92/87/92
f 79/75/79 87/82/87 93/88/93
f 79/75/79 93/88/93 92/87/92
f 87/82/87 81/76/81 94/89/94
f 87/82/87 94/89/94 93/88/93
f 81/76/81 88/83/88 94/89/94
f 89/84/89 82/78/83 90/86/91
f 90/86/91 91/85/90 96/90/95
f 90/86/91 96/90/95 95/91/96
f 91/85/90 84/79/84 97/92/97
f 91/85/90 97/92/97 96/90/95
f 84/79/84 85/80/85 98/93/98
f 84/79/84 98/93/98 97/92/97
f 85/80/85 86/81/86 99/94/99
f 85/80/85 99/94/99 98/93/98
f 86/81/86 92/87/92 100/95/100
f 86/81/86 100/95/100 99/94/99
f 92/87/92 93/88/93 101/96/101
f 92/87/92 101/96/101 100/95/100
f 93/88/93 94/89/94 102/93/102
f 93/88/93 102/93/102 101/96/101
f 94/89/94 88/83/88 103/97/103
f 94/89/94 103/97/103 102/93/102
f 88/83/88 89/84/89 104/98/104
f 88/83/88 104/98/104 103/97/103
f 89/84/89 90/86/91 95/91/96
f 89/84/89 95/91/96 104/98/104
f 95/91/96 96/90/95 106/99/105
f 95/91/96 106/99/105 105/100/106
f 96/90/95 97/92/97 107/101/107
f 96/90/95 107/101/107 106/99/105
f 97/92/97 98/93/98 108/102/108
f 97/92/97 108/102/108 107/101/107
f 98/93/98 99/94/99 108/102/108
f 100/95/100 101/96/101 109/103/109
f 101/96/101 102/93/102 110/102/110
f 101/96/101 110/102/110 109/103/109
f 102/93/102 103/97/103 110/102/110
f 104/98/104 95/91/96 105/100/106
f 105/100/106 106/99/105 112/104/111
f 105/100/106 112/104/111 111/105/112
f 106/99/105 107/101/107 113/106/113
f 106/99/105 113/106/113 112/104/111
f 107/101/107 108/102/108 114/107/114
f 107/101/107 114/107/114 113/106/113
f 108/102/108 99/94/99 115/108/115
f 108/102/108 115/108/115 114/107/114
f 99/94/99 100/95/100 116/109/116
f 99/94/99 116/109/116 115/108/115
f 100/95/100 109/103/109 117/108/117
f 100/95/100 117/108/117 116/109/116
f 109/103/109 110/102/110 118/107/118
f 109/103/109 118/107/118 117/108/117
f 110/102/110 103/97/103 119/110/119
f 110/102/110 119/110/119 118/107/118
f 103/97/103 104/98/104 120/111/120
f 103/97/103 120/111/120 119/110/119
f 104/98/104 105/100/106 111/105/112
f 104/98/104 111/105/112 120/111/120
f 111/105/112 112/104/111 122/112/121
f 111/105/112 122/112/121 121/113/122
f 112/104/111 113/106/113 123/114/123
f 112/104/111 123/114/123 122/112/121
f 113/106/113 114/107/114 124/115/124
f 113/106/113 124/115/124 123/114/123
f 114/107/114 115/108/115 125/116/125
f 114/107/114 125/116/125 124/115/124
f 115/108/115 116/109/116 126/117/126
f 115/108/115 126/117/126 125/116/125
f 116/109/116 117/108/117 127/118/127
f 116/109/116 127/118/127 126/117/126
f 117/108/117 118/107/118 128/115/128
f 117/108/117 128/115/128 127/118/127
f 118/107/118 119/110/119 128/115/128
f 120/111/120 111/105/112 121/113/122
f 121/113/122 122/112/121 130/119/129
f 121/113/122 130/119/129 129/120/130
f 122/112/121 123/114/123 131/121/131
f 122/112/121 131/121/131 130/119/129
f 123/114/123 124/115/124 132/122/132
f 123/114/123 132/122/132 131/121/131
f 124/115/124 125/116/125 132/122/132
f 126/117/126 127/118/127 133/123/133
f 127/118/127 128/115/128 134/122/134
f 127/118/127 134/122/134 133/123/133
f 128/115/128 119/110/119 135/124/135
f 128/115/128 135/124/135 134/122/134
f 119/110/119 120/111/120 136/125/136
f 119/110/119 136/125/136 135/124/135
f 120/111/120 121/113/122 129/120/130
f 120/111/120 129/120/130 136/125/136
f 130/119/129 131/121/131 137/126/137
f 131/121/131 132/122/132 138/127/138
f 131/121/131 138/127/138 137/126/137
f 132/122/132 125/116/125 139/128/139
f 132/122/132 139/128/139 138/127/138
f 125/116/125 126/117/126 140/129/140
f 125/116/125 140/129/140 139/128/139
f 126/117/126 133/123/133 141/130/141
f 126/117/126 141/130/141 140/129/140
f 133/123/133 134/122/134 142/127/142
f 133/123/133 142/127/142 141/130/141
f 134/122/134 135/124/135 142/127/142
f 129/120/130 130/119/129 144/131/143
f 129/120/130 144/131/143 143/132/144
f 130/119/129 137/126/137 145/133/145
f 130/119/129 145/133/145 144/131/143
f 137/126/137 138/127/138 146/134/146
f 137/126/137 146/134/146 145/133/145
f 138/127/138 139/128/139 146/134/146
f 141/130/141 142/127/142 147/134/147
f 142/127/142 135/124/135 148/133/148
f 142/127/142 148/133/148 147/134/147
f 135/124/135 136/125/136 149/131/149
f 135/124/135 149/131/149 148/133/148
f 136/125/136 129/120/130 143/132/144
f 136/125/136 143/132/144 149/131/149
f 143/132/144 144/131/143 151/135/150
f 143/132/144 151/135/150 150/136/151
f 144/131/143 145/133/145 152/137/152
f 144/131/143 152/137/152 151/135/150
f 145/133/145 146/134/146 153/138/153
f 145/133/145 153/138/153 152/137/152
f 146/134/146 139/128/139 154/139/154
f 146/134/146 154/139/154 153/138/153
f 139/128/139 140/129/140 155/140/155
f 139/128/139 155/140/155 154/139/154
f 140/129/140 141/130/141 156/139/156
f 140/129/140 156/139/156 155/140/155
f 141/130/141 147/134/147 157/141/157
f 141/130/141 157/141/157 156/139/156
f 147/134/147 148/133/148 158/142/158
f 147/134/147 158/142/158 157/141/157
f 148/133/148 149/131/149 159/135/159
f 148/133/148 159/135/159 158/142/158
f 149/131/149 143/132/144 150/136/151
f 149/131/149 150/136/151 159/135/159
f 150/136/151 151/135/150 161/143/160
f 150/136/151 161/143/160 160/144/161
f 151/135/150 152/137/152 161/143/160
f 153/138/153 154/139/154 162/145/162
f 154/139/154 155/140/155 163/146/163
f 154/139/154 163/146/163 162/145/162
f 155/140/155 156/139/156 164/145/164
f 155/140/155 164/145/164 163/146/163
f 156/139/156 157/141/157 165/147/165
f 156/139/156 165/147/165 164/145/164
f 157/141/157 158/142/158 166/148/166
f 157/141/157 166/148/166 165/147/165
f 158/142/158 159/135/159 167/143/167
f 158/142/158 167/143/167 166/148/166
f 159/135/159 150/136/151 160/144/161
f 159/135/159 160/144/161 167/143/167
f 160/144/161 161/143/160 169/149/168
f 160/144/161 169/149/168 168/150/169
f 161/143/160 152/137/152 170/151/170
f 161/143/160 170/151/170 169/149/168
f 152/137/152 153/138/153 170/151/170
f 153/138/153 162/145/162 171/152/171
f 162/145/162 163/146/163 172/153/172
f 162/145/162 172/153/172 171/152/171
f 163/146/163 164/145/164 173/152/173
f 163/146/163 173/152/173 172/153/172
f 164/145/164 165/147/165 174/154/174
f 164/145/164 174/154/174 173/152/173
f 165/147/165 166/148/166 175/155/175
f 165/147/165 175/155/175 174/154/174
f 166/148/166 167/143/167 176/156/176
f 166/148/166 176/156/176 175/155/175
f 167/143/167 160/144/161 168/150/169
f 167/143/167 168/150/169 176/156/176
f 168/150/169 169/149/168 178/157/177
f 168/150/169 178/157/177 177/158/178
f 169/149/168 170/151/170 178/157/177
f 170/151/170 153/138/153 179/159/179
f 153/138/153 171/152/171 180/160/180
f 153/138/153 180/160/180 179/159/179
f 171/152/171 172/153/172 181/161/181
f 171/152/171 181/161/181 180/160/180
f 172/153/172 173/152/173 182/162/182
f 172/153/172 182/162/182 181/161/181
f 173/152/173 174/154/174 183/163/183
f 173/152/173 183/163/183 182/162/182
f 174/154/174 175/155/175 184/164/184
f 174/154/174 184/164/184 183/163/183
f 175/155/175 176/156/176 184/164/184
f 176/156/176 168/150/169 177/158/178
f 177/158/178 178/157/177 186/165/185
f 177/158/178 186/165/185 185/166/186
f 178/157/177 170/151/170 186/165/185
f 170/151/170 179/159/179 186/165/185
f 180/160/180 181/161/181 187/167/187
f 181/161/181 182/162/182 188/168/188
f 181/161/181 188/168/188 187/167/187
f 182/162/182 183/163/183 189/169/189
f 182/162/182 189/169/189 188/168/188
f 183/163/183 184/164/184 189/169/189
f 176/156/176 177/158/178 185/166/186
f 176/156/176 185/166/186 184/164/184
f 185/166/186 186/165/185 191/170/190
f 185/166/186 191/170/190 190/171/191
f 186/165/185 192/172/192 191/170/190
f 186/165/185 179/159/179 193/173/193
f 186/165/185 193/173/193 192/172/192
f 179/159/179 180/160/180 194/174/194
f 179/159/179 194/174/194 193/173/193
f 180/160/180 187/167/187 195/175/195
f 180/160/180 195/175/195 194/174/194
f 187/167/187 188/168/188 196/174/196
f 187/167/187 196/174/196 195/175/195
f 188/168/188 189/169/189 197/173/197
f 188/168/188 197/173/197 196/174/196
f 189/169/189 184/164/184 198/176/198
f 189/169/189 198/176/198 197/173/197
f 184/164/184 199/177/199 198/176/198
f 184/164/184 185/166/186 190/171/191
f 184/164/184 190/171/191 199/177/199
f 190/171/191 191/170/190 200/178/200
f 191/170/190 192/172/192 201/179/201
f 191/170/190 201/179/201 200/178/200
f 192/172/192 193/173/193 202/180/202
f 192/172/192 202/180/202 201/179/201
f 193/173/193 194/174/194 203/181/203
f 193/173/193 203/181/203 202/180/202
f 194/174/194 195/175/195 204/182/204
f 194/174/194 204/182/204 203/181/203
f 195/175/195 196/174/196 205/183/205
f 195/175/195 205/183/205 204/182/204
f 196/174/196 197/173/197 206/184/206
f 196/174/196 206/184/206 205/183/205
f 197/173/197 198/176/198 206/184/206
f 190/171/191 200/178/200 208/185/207
f 190/171/191 208/185/207 207/186/208
f 200/178/200 201/179/201 209/187/209
f 200/178/200 209/187/209 208/185/207
f 201/179/201 202/180/202 209/187/209
f 204/182/204 205/183/205 210/188/210
f 205/183/205 206/184/206 210/188/210
f 198/176/198 199/177/199 211/189/211
f 199/177/199 190/171/191 207/186/208
f 199/177/199 207/186/208 211/189/211
f 207/186/208 208/185/207 212/190/212
f 209/187/209 202/180/202 213/191/213
f 202/180/202 203/181/203 214/192/214
f 202/180/202 214/192/214 213/191/213
f 203/181/203 204/182/204 215/193/215
f 203/181/203 215/193/215 214/192/214
f 204/182/204 210/188/210 216/192/216
f 204/182/204 216/192/216 215/193/215
f 210/188/210 206/184/206 217/194/217
f 210/188/210 217/194/217 216/192/216
f 206/184/206 198/176/198 218/195/218
f 206/184/206 218/195/218 217/194/217
f 198/176/198 211/189/211 219/196/219
f 198/176/198 219/196/219 218/195/218
f 211/189/211 207/186/208 212/190/212
f 211/189/211 212/190/212 219/196/219
f 212/190/212 208/185/207 220/197/220
f 208/185/207 209/187/209 221/198/221
f 209/187/209 213/191/213 221/198/221
f 213/191/213 214/192/214 222/199/222
f 214/192/214 215/193/215 222/199/222
f 215/193/215 216/192/216 223/199/223
f 216/192/216 217/194/217 224/200/224
f 216/192/216 224/200/224 223/199/223
f 217/194/217 218/195/218 224/200/224
f 218/195/218 219/196/219 225/201/225
f 219/196/219 212/190/212 220/197/220
f 219/196/219 220/197/220 225/201/225
f 220/197/220 208/185/207 227/202/226
f 220/197/220 227/202/226 226/203/227
f 208/185/207 221/198/221 227/202/226
f 221/198/221 213/191/213 228/204/228
f 213/191/213 222/199/222 229/205/229
f 213/191/213 229/205/229 228/204/228
f 222/199/222 215/193/215 230/206/230
f 222/199/222 230/206/230 229/205/229
f 215/193/215 223/199/223 231/205/231
f 215/193/215 231/205/231 230/206/230
f 223/199/223 224/200/224 232/207/232
f 223/199/223 232/207/232 231/205/231
f 224/200/224 218/195/218 233/208/233
f 224/200/224 233/208/233 232/207/232
f 218/195/218 225/201/225 234/209/234
f 218/195/218 234/209/234 233/208/233
f 225/201/225 220/197/220 226/203/227
f 225/201/225 226/203/227 234/209/234
f 226/203/227 227/202/226 235/210/235
f 227/202/226 221/198/221 236/211/236
f 221/198/221 228/204/228 236/211/236
f 228/204/228 229/205/229 237/212/237
f 229/205/229 230/206/230 238/213/238
f 229/205/229 238/213/238 237/212/237
f 230/206/230 231/205/231 239/212/239
f 230/206/230 239/212/239 238/213/238
f 231/205/231 232/207/232 240/214/240
f 231/205/231 240/214/240 239/212/239
f 232/207/232 233/208/233 240/214/240
f 233/208/233 234/209/234 241/215/241
f 234/209/234 226/203/227 235/210/235
f 234/209/234 235/210/235 241/215/241
f 235/210/235 227/202/226 242/216/242
f 227/202/226 236/211/236 242/216/242
f 236/211/236 228/204/228 243/217/243
f 228/204/228 237/212/237 244/218/244
f 228/204/228 244/218/244 243/217/243
f 237/212/237 238/213/238 245/219/245
f 237/212/237 245/219/245 244/218/244
f 238/213/238 239/212/239 246/220/246
f 238/213/238 246/220/246 245/219/245
f 239/212/239 240/214/240 246/220/246
f 240/214/240 233/208/233 247/221/247
f 233/208/233 241/215/241 248/222/248
f 233/208/233 248/222/248 247/221/247
f 241/215/241 235/210/235 242/216/242
f 241/215/241 242/216/242 248/222/248
f 242/216/242 250/223/249 249/224/250
f 242/216/242 236/211/236 251/225/251
f 242/216/242 251/225/251 250/223/249
f 236/211/236 243/217/243 251/225/251
f 244/218/244 245/219/245 252/226/252
f 245/219/245 246/220/246 253/227/253
f 245/219/245 253/227/253 252/226/252
f 246/220/246 240/214/240 253/227/253
f 247/221/247 248/222/248 254/223/254
f 248/222/248 242/216/242 249/224/250
f 248/222/248 249/224/250 254/223/254
f 249/224/250 250/223/249 256/228/255
f 249/224/250 256/228/255 255/229/256
f 250/223/249 251/225/251 256/228/255
f 251/225/251 243/217/243 257/230/257
f 243/217/243 244/218/244 258/231/258
f 243/217/243 258/231/258 257/230/257
f 244/218/244 252/226/252 259/232/259
f 244/218/244 259/232/259 258/231/258
f 252/226/252 253/227/253 260/233/260
f 252/226/252 260/233/260 259/232/259
f 253/227/253 240/214/240 261/234/261
f 253/227/253 261/234/261 260/233/260
f 240/214/240 247/221/247 262/235/262
f 240/214/240 262/235/262 261/234/261
f 247/221/247 254/223/254 263/236/263
f 247/221/247 263/236/263 262/235/262
f 254/223/254 249/224/250 255/229/256
f 254/223/254 255/229/256 263/236/263
f 255/229/256 256/228/255 265/237/264
f 255/229/256 265/237/264 264/238/265
f 256/228/255 251/225/251 266/239/266
f 256/228/255 266/239/266 265/237/264
f 251/225/251 257/230/257 266/239/266
f 258/231/258 259/232/259 267/240/267
f 259/232/259 260/233/260 268/241/268
f 259/232/259 268/241/268 267/240/267
f 260/233/260 261/234/261 268/241/268
f 263/236/263 255/229/256 264/238/265
f 266/239/266 257/230/257 269/242/269
f 257/230/257 258/231/258 270/243/270
f 257/230/257 270/243/270 269/242/269
f 258/231/258 267/240/267 271/244/271
f 258/231/258 271/244/271 270/243/270
f 267/240/267 268/241/268 271/244/271
f 261/234/261 262/235/262 272/245/272
f 262/235/262 263/236/263 273/246/273
f 262/235/262 273/246/273 272/245/272
f 263/236/263 264/238/265 273/246/273
f 264/238/265 265/237/264 275/247/274
f 264/238/265 275/247/274 274/248/275
f 265/237/264 266/239/266 276/249/276
f 265/237/264 276/249/276 275/247/274
f 266/239/266 269/242/269 276/249/276
f 270/243/270 271/244/271 277/250/277
f 271/244/271 268/241/268 278/251/278
f 271/244/271 278/251/278 277/250/277
f 268/241/268 261/234/261 278/251/278
f 261/234/261 272/245/272 279/252/279
f 272/245/272 273/246/273 280/253/280
f 272/245/272 280/253/280 279/252/279
f 273/246/273 264/238/265 274/248/275
f 273/246/273 274/248/275 280/253/280
f 276/249/276 269/242/269 281/254/281
f 269/242/269 270/243/270 282/255/282
f 269/242/269 282/255/282 281/254/281
f 270/243/270 277/250/277 283/256/283
f 270/243/270 283/256/283 282/255/282
f 277/250/277 278/251/278 284/255/284
f 277/250/277 284/255/284 283/256/283
f 278/251/278 261/234/261 285/257/285
f 278/251/278 285/257/285 284/255/284
f 261/234/261 279/252/279 286/258/286
f 261/234/261 286/258/286 285/257/285
f 279/252/279 280/253/280 287/259/287
f 279/252/279 287/259/287 286/258/286
f 280/253/280 274/248/275 287/259/287
f 274/248/275 275/247/274 289/260/288
f 274/248/275 289/260/288 288/261/289
f 275/247/274 276/249/276 290/262/290
f 275/247/274 290/262/290 289/260/288
f 276/249/276 281/254/281 291/263/291
f 276/249/276 291/263/291 290/262/290
f 281/254/281 282/255/282 292/264/292
f 281/254/281 292/264/292 291/263/291
f 282/255/282 283/256/283 293/265/293
f 282/255/282 293/265/293 292/264/292
f 283/256/283 284/255/284 294/266/294
f 283/256/283 294/266/294 293/265/293
f 284/255/284 285/257/285 294/266/294
f 285/257/285 286/258/286 295/267/295
f 286/258/286 287/259/287 296/260/296
f 286/258/286 296/260/296 295/267/295
f 287/259/287 274/248/275 288/261/289
f 287/259/287 288/261/289 296/260/296
f 288/261/289 289/260/288 297/268/297
f 289/260/288 290/262/290 297/268/297
f 291/263/291 292/264/292 298/269/298
f 292/264/292 293/265/293 299/270/299
f 292/264/292 299/270/299 298/269/298
f 293/265/293 294/266/294 299/270/299
f 294/266/294 285/257/285 300/271/300
f 285/257/285 295/267/295 301/272/301
f 285/257/285 301/272/301 300/271/300
f 295/267/295 296/260/296 302/273/302
f 295/267/295 302/273/302 301/272/301
f 296/260/296 288/261/289 302/273/302
f 288/261/289 297/268/297 303/274/303
f 297/268/297 290/262/290 304/275/304
f 290/262/290 291/263/291 305/276/305
f 290/262/290 305/276/305 304/275/304
f 291/263/291 298/269/298 306/277/306
f 291/263/291 306/277/306 305/276/305
f 298/269/298 299/270/299 307/278/307
f 298/269/298 307/278/307 306/277/306
f 299/270/299 294/266/294 308/279/308
f 299/270/299 308/279/308 307/278/307
f 294/266/294 300/271/300 308/279/308
f 300/271/300 301/272/301 309/280/309
f 301/272/301 302/273/302 310/281/310
f 301/272/301 310/281/310 309/280/309
f 302/273/302 288/261/289 303/274/303
f 302/273/302 303/274/303 310/281/310
f 303/274/303 297/268/297 312/282/311
f 303/274/303 312/282/311 311/283/312
f 297/268/297 304/275/304 312/282/311
f 309/280/309 310/281/310 313/284/313
f 310/281/310 303/274/303 311/283/312
f 310/281/310 311/283/312 313/284/313
f 312/282/311 304/275/304 314/285/314
f 304/275/304 305/276/305 315/286/315
f 304/275/304 315/286/315 314/285/314
f 305/276/305 306/277/306 316/287/316
f 305/276/305 316/287/316 315/286/315
f 306/277/306 307/278/307 317/288/317
f 306/277/306 317/288/317 316/287/316
f 307/278/307 308/279/308 317/288/317
f 308/279/308 300/271/300 318/289/318
f 300/271/300 309/280/309 319/290/319
f 300/271/300 319/290/319 318/289/318
f 309/280/309 313/284/313 319/290/319
f 311/283/312 312/282/311 321/291/320
f 311/283/312 321/291/320 320/292/321
f 312/282/311 314/285/314 321/291/320
f 317/288/317 308/279/308 322/293/322
f 308/279/308 318/289/318 322/293/322
f 319/290/319 313/284/313 323/294/323
f 313/284/313 311/283/312 320/292/321
f 313/284/313 320/292/321 323/294/323
f 321/291/320 314/285/314 324/295/324
f 314/285/314 315/286/315 325/296/325
f 314/285/314 325/296/325 324/295/324
f 315/286/315 316/287/316 326/297/326
f 315/286/315 326/297/326 325/296/325
f 316/287/316 317/288/317 327/298/327
f 316/287/316 327/298/327 326/297/326
f 317/288/317 322/293/322 327/298/327
f 318/289/318 319/290/319 328/299/328
f 319/290/319 323/294/323 328/299/328
f 320/292/321 321/291/320 330/300/329
f 320/292/321 330/300/329 329/301/330
f 321/291/320 324/295/324 330/300/329
f 327/298/327 322/293/322 331/302/331
f 322/293/322 318/289/318 331/302/331
f 323/294/323 320/292/321 329/301/330
f 330/300/329 324/295/324 332/303/332
f 324/295/324 325/296/325 332/303/332
f 325/296/325 326/297/326 333/304/333
f 325/296/325 333/304/333 332/303/332
f 326/297/326 327/298/327 334/305/334
f 326/297/326 334/305/334 333/304/333
f 327/298/327 331/302/331 334/305/334
f 331/302/331 318/289/318 335/306/335
f 318/289/318 328/299/328 336/307/336
f 318/289/318 336/307/336 335/306/335
f 328/299/328 323/294/323 337/308/337
f 328/299/328 337/308/337 336/307/336
f 323/294/323 329/301/330 337/308/337
f 329/301/330 330/300/329 339/309/338
f 329/301/330 339/309/338 338/310/339
f 330/300/329 332/303/332 339/309/338
f 331/302/331 335/306/335 334/305/334
f 337/308/337 329/301/330 338/310/339
f 339/309/338 332/303/332 340/311/340
f 332/303/332 333/304/333 341/312/341
f 332/303/332 341/312/341 340/311/340
f 333/304/333 334/305/334 341/312/341
f 334/305/334 335/306/335 342/313/342
f 335/306/335 336/307/336 337/308/337
f 335/306/335 337/308/337 342/313/342
f 338/310/339 339/309/338 344/314/343
f 338/310/339 344/314/343 343/315/344
f 339/309/338 340/311/340 344/314/343
f 341/312/341 334/305/334 345/316/345
f 334/305/334 342/313/342 345/316/345
f 342/313/342 337/308/337 343/315/344
f 337/308/337 338/310/339 343/315/344
f 343/315/344 344/314/343 346/317/346
f 344/314/343 340/311/340 347/318/347
f 344/314/343 347/318/347 346/317/346
f 340/311/340 341/312/341 348/319/348
f 340/311/340 348/319/348 347/318/347
f 341/312/341 345/316/345 348/319/348
f 345/316/345 342/313/342 349/320/349
f 342/313/342 343/315/344 349/320/349
f 343/315/344 346/317/346 351/321/350
f 343/315/344 351/321/350 350/322/351
f 346/317/346 347/318/347 351/321/350
f 345/316/345 349/320/349 348/319/348
f 349/320/349 343/315/344 350/322/351
f 350/322/351 351/321/350 352/323/352
f 351/321/350 347/318/347 353/324/353
f 351/321/350 353/324/353 352/323/352
f 347/318/347 348/319/348 353/324/353
f 348/319/348 354/325/354 353/324/353
f 348/319/348 349/320/349 354/325/354
f 349/320/349 350/322/351 352/323/352
f 349/320/349 352/323/352 354/325/354
f 352/323/352 353/324/353 355/326/355
f 353/324/353 354/325/354 355/326/355
f 354/325/354 352/323/352 355/326/355
f 356/327/356 358/328/357 357/329/358
f 356/327/356 359/330/359 358/328/357
f 356/327/356 360/331/360 359/330/359
f 356/327/356 361/332/361 360/331/360
f 356/327/356 357/329/358 361/332/361
f 358/328/357 359/330/359 363/333/362
f 359/330/359 364/334/363 363/333/362
f 359/330/359 360/331/360 365/335/364
f 359/330/359 365/335/364 364/334/363
f 361/332/361 366/336/365 360/331/360
f 361/332/361 357/329/358 362/337/366
f 361/332/361 362/337/366 366/336/365
f 362/337/366 357/329/358 368/338/367
f 362/337/366 368/338/367 367/339/368
f 357/329/358 358/328/357 369/340/369
f 357/329/358 369/340/369 368/338/367
f 358/328/357 363/333/362 369/340/369
f 364/334/363 365/335/364 370/341/370
f 364/334/363 370/341/370 363/333/362
f 365/335/364 360/331/360 371/342/371
f 365/335/364 371/342/371 370/341/370
f 360/331/360 366/336/365 371/342/371
f 366/336/365 362/337/366 367/339/368
f 366/336/365 367/339/368 371/342/371
f 367/339/368 368/338/367 372/343/372
f 368/338/367 369/340/369 373/344/373
f 369/340/369 374/345/374 373/344/373
f 369/340/369 363/333/362 375/346/375
f 369/340/369 375/346/375 374/345/374
f 363/333/362 370/341/370 376/347/376
f 363/333/362 376/347/376 375/346/375
f 371/342/371 377/348/377 370/341/370
f 371/342/371 367/339/368 372/343/372
f 371/342/371 372/343/372 377/348/377
f 372/343/372 368/338/367 378/349/378
f 372/343/372 378/349/378 377/348/377
f 368/338/367 373/344/373 378/349/378
f 376/347/376 370/341/370 379/350/379
f 376/347/376 379/350/379 375/346/375
f 370/341/370 377/348/377 380/351/380
f 370/341/370 380/351/380 379/350/379
f 377/348/377 378/349/378 381/352/381
f 378/349/378 373/344/373 382/353/382
f 373/344/373 374/345/374 383/354/383
f 373/344/373 383/354/383 382/353/382
f 374/345/374 375/346/375 384/355/384
f 374/345/374 384/355/384 383/354/383
f 375/346/375 385/356/385 384/355/384
f 375/346/375 379/350/379 385/356/385
f 379/350/379 380/351/380 386/357/386
f 379/350/379 386/357/386 385/356/385
f 380/351/380 377/348/377 381/352/381
f 380/351/380 381/352/381 386/357/386
f 381/352/381 378/349/378 388/358/387
f 381/352/381 388/358/387 387/359/388
f 378/349/378 382/353/382 389/360/389
f 378/349/378 389/360/389 388/358/387
f 382/353/382 383/354/383 389/360/389
f 383/354/383 384/355/384 389/360/389
f 384/355/384 385/356/385 390/361/390
f 385/356/385 391/362/391 390/361/390
f 385/356/385 386/357/386 392/358/392
f 385/356/385 392/358/392 391/362/391
f 386/357/386 381/352/381 387/359/388
f 386/357/386 387/359/388 392/358/392
f 387/359/388 388/358/387 394/363/393
f 387/359/388 394/363/393 393/364/394
f 388/358/387 389/360/389 395/365/395
f 388/358/387 395/365/395 394/363/393
f 389/360/389 396/366/396 395/365/395
f 389/360/389 384/355/384 397/367/397
f 389/360/389 397/367/397 396/366/396
f 384/355/384 390/361/390 398/366/398
f 384/355/384 398/366/398 397/367/397
f 390/361/390 391/362/391 399/368/399
f 390/361/390 399/368/399 398/366/398
f 391/362/391 392/358/392 400/369/400
f 391/362/391 400/369/400 399/368/399
f 392/358/392 387/359/388 393/364/394
f 392/358/392 393/364/394 400/369/400
f 393/364/394 394/363/393 401/370/401
f 393/364/394 401/370/401 400/369/400
f 394/363/393 395/365/395 401/370/401
f 396/366/396 397/367/397 402/371/402
f 396/366/396 402/371/402 395/365/395
f 397/367/397 398/366/398 403/372/403
f 397/367/397 403/372/403 402/371/402
f 398/366/398 399/368/399 404/373/404
f 398/366/398 404/373/404 403/372/403
f 399/368/399 400/369/400 404/373/404
f 400/369/400 401/370/401 406/374/405
f 400/369/400 406/374/405 405/375/406
f 401/370/401 407/376/407 406/374/405
f 401/370/401 395/365/395 408/377/408
f 401/370/401 408/377/408 407/376/407
f 395/365/395 402/371/402 409/378/409
f 395/365/395 409/378/409 408/377/408
f 402/371/402 403/372/403 410/377/410
f 402/371/402 410/377/410 409/378/409
f 403/372/403 404/373/404 411/376/411
f 403/372/403 411/376/411 410/377/410
f 404/373/404 412/379/412 411/376/411
f 404/373/404 400/369/400 405/375/406
f 404/373/404 405/375/406 412/379/412
f 405/375/406 406/374/405 413/380/413
f 406/374/405 407/376/407 414/381/414
f 407/376/407 408/377/408 415/382/415
f 407/376/407 415/382/415 414/381/414
f 408/377/408 409/378/409 415/382/415
f 409/378/409 410/377/410 416/383/416
f 409/378/409 416/383/416 415/382/415
f 410/377/410 411/376/411 417/384/417
f 410/377/410 417/384/417 416/383/416
f 411/376/411 412/379/412 418/385/418
f 411/376/411 418/385/418 417/384/417
f 412/379/412 405/375/406 413/380/413
f 412/379/412 413/380/413 418/385/418
f 413/380/413 406/374/405 419/386/419
f 406/374/405 414/381/414 419/386/419
f 414/381/414 415/382/415 420/387/420
f 415/382/415 421/388/421 420/387/420
f 415/382/415 416/383/416 422/389/422
f 415/382/415 422/389/422 421/388/421
f 416/383/416 417/384/417 422/389/422
f 418/385/418 413/380/413 419/386/419
f 419/386/419 424/390/423 423/391/424
f 419/386/419 414/381/414 425/392/425
f 419/386/419 425/392/425 424/390/423
f 414/381/414 420/387/420 426/393/426
f 414/381/414 426/393/426 425/392/425
f 421/388/421 422/389/422 427/394/427
f 421/388/421 427/394/427 420/387/420
f 422/389/422 417/384/417 427/394/427
f 417/384/417 418/385/418 428/395/428
f 417/384/417 428/395/428 427/394/427
f 418/385/418 419/386/419 423/391/424
f 418/385/418 423/391/424 428/395/428
f 424/390/423 425/392/425 429/396/429
f 425/392/425 426/393/426 429/396/429
f 426/393/426 420/387/420 430/397/430
f 426/393/426 430/397/430 429/396/429
f 420/387/420 427/394/427 430/397/430
f 427/394/427 434/398/431 430/397/430
f 427/394/427 428/395/428 431/399/432
f 427/394/427 431/399/432 434/398/431
f 428/395/428 423/391/424 431/399/432
f 423/391/424 424/390/423 433/400/433
f 423/391/424 433/400/433 432/401/434
f 424/390/423 429/396/429 433/400/433
f 434/398/431 431/399/432 432/401/434
f 431/399/432 423/391/424 432/401/434
f 429/396/429 430/397/430 435/402/435
f 430/397/430 434/398/431 435/402/435
f 432/401/434 433/400/433 436/403/436
f 433/400/433 429/396/429 435/402/435
f 433/400/433 435/402/435 436/403/436
f 434/398/431 432/401/434 436/403/436
f 436/403/436 435/402/435 437/404/437
f 435/402/435 434/398/431 437/404/437
f 434/398/431 436/403/436 437/404/437
f 438/405/438 440/406/439 439/407/440
f 438/405/438 441/408/441 440/406/439
f 438/405/438 442/409/442 441/408/441
f 438/405/438 443/410/443 442/409/442
f 438/405/438 444/411/444 443/410/443
f 438/405/438 445/412/445 444/411/444
f 438/405/438 439/407/440 445/412/445
f 439/407/440 440/406/439 446/413/446
f 441/408/441 442/409/442 447/414/447
f 442/409/442 443/410/443 448/415/448
f 442/409/442 448/415/448 447/414/447
f 443/410/443 444/411/444 448/415/448
f 444/411/444 445/412/445 449/416/449
f 445/412/445 439/407/440 446/413/446
f 445/412/445 446/413/446 449/416/449
f 446/413/446 440/406/439 451/417/450
f 446/413/446 451/417/450 450/418/451
f 440/406/439 441/408/441 451/417/450
f 441/408/441 447/414/447 452/419/452
f 441/408/441 452/419/452 451/417/450
f 447/414/447 448/415/448 453/420/453
f 447/414/447 453/420/453 452/419/452
f 448/415/448 444/411/444 453/420/453
f 444/411/444 449/416/449 454/421/454
f 444/411/444 454/421/454 453/420/453
f 449/416/449 446/413/446 450/418/451
f 449/416/449 450/418/451 454/421/454
f 450/418/451 456/422/455 455/423/456
f 450/418/451 451/417/450 457/424/457
f 450/418/451 457/424/457 456/422/455
f 451/417/450 452/419/452 458/425/458
f 451/417/450 458/425/458 457/424/457
f 453/420/453 459/426/459 452/419/452
f 453/420/453 454/421/454 459/426/459
f 454/421/454 450/418/451 455/423/456
f 456/422/455 457/424/457 460/427/460
f 457/424/457 461/428/461 460/427/460
f 457/424/457 458/425/458 461/428/461
f 458/425/458 452/419/452 462/428/462
f 452/419/452 459/426/459 462/428/462
f 459/426/459 454/421/454 463/429/463
f 454/421/454 455/423/456 463/429/463
f 455/423/456 456/422/455 465/430/464
f 455/423/456 465/430/464 464/431/465
f 456/422/455 460/427/460 465/430/464
f 460/427/460 461/428/461 466/432/466
f 461/428/461 458/425/458 467/433/467
f 461/428/461 467/433/467 466/432/466
f 458/425/458 462/428/462 468/432/468
f 458/425/458 468/432/468 467/433/467
f 462/428/462 459/426/459 469/434/469
f 462/428/462 469/434/469 468/432/468
f 459/426/459 463/429/463 469/434/469
f 463/429/463 455/423/456 464/431/465
f 464/431/465 465/430/464 470/435/470
f 465/430/464 460/427/460 471/436/471
f 460/427/460 466/432/466 472/437/472
f 460/427/460 472/437/472 471/436/471
f 466/432/466 467/433/467 472/437/472
f 467/433/467 468/432/468 473/437/473
f 468/432/468 469/434/469 473/437/473
f 469/434/469 463/429/463 474/438/474
f 463/429/463 464/431/465 470/435/470
f 463/429/463 470/435/470 474/438/474
f 470/435/470 465/430/464 476/439/475
f 470/435/470 476/439/475 475/440/476
f 465/430/464 471/436/471 477/441/477
f 465/430/464 477/441/477 476/439/475
f 471/436/471 472/437/472 478/442/478
f 471/436/471 478/442/478 477/441/477
f 472/437/472 467/433/467 479/443/479
f 472/437/472 479/443/479 478/442/478
f 467/433/467 473/437/473 480/442/480
f 467/433/467 480/442/480 479/443/479
f 473/437/473 469/434/469 481/441/481
f 473/437/473 481/441/481 480/442/480
f 469/434/469 474/438/474 482/439/482
f 469/434/469 482/439/482 481/441/481
f 474/438/474 470/435/470 475/440/476
f 474/438/474 475/440/476 482/439/482
f 475/440/476 476/439/475 483/444/483
f 476/439/475 477/441/477 484/445/484
f 476/439/475 484/445/484 483/444/483
f 477/441/477 478/442/478 485/446/485
f 477/441/477 485/446/485 484/445/484
f 478/442/478 479/443/479 485/446/485
f 479/443/479 480/442/480 486/447/486
f 479/443/479 486/447/486 485/446/485
f 480/442/480 481/441/481 487/448/487
f 480/442/480 487/448/487 486/447/486
f 481/441/481 482/439/482 488/449/488
f 481/441/481 488/449/488 487/448/487
f 482/439/482 475/440/476 483/444/483
f 482/439/482 483/444/483 488/449/488
f 483/444/483 484/445/484 490/450/489
f 483/444/483 490/450/489 489/451/490
f 484/445/484 485/446/485 491/452/491
f 484/445/484 491/452/491 490/450/489
f 485/446/485 492/453/492 491/452/491
f 485/446/485 486/447/486 493/452/493
f 485/446/485 493/452/493 492/453/492
f 486/447/486 487/448/487 493/452/493
f 487/448/487 488/449/488 494/454/494
f 488/449/488 483/444/483 489/451/490
f 488/449/488 489/451/490 494/454/494
f 489/451/490 496/455/495 495/456/496
f 489/451/490 490/450/489 497/457/497
f 489/451/490 497/457/497 496/455/495
f 491/452/491 492/453/492 498/458/498
f 491/452/491 498/458/498 490/450/489
f 492/453/492 493/452/493 499/459/499
f 492/453/492 499/459/499 498/458/498
f 493/452/493 487/448/487 499/459/499
f 487/448/487 494/454/494 500/455/500
f 487/448/487 500/455/500 499/459/499
f 494/454/494 489/451/490 495/456/496
f 494/454/494 495/456/496 500/455/500
f 495/456/496 496/455/495 502/460/501
f 495/456/496 502/460/501 501/461/502
f 496/455/495 497/457/497 503/462/503
f 496/455/495 503/462/503 502/460/501
f 497/457/497 490/450/489 503/462/503
f 490/450/489 498/458/498 504/463/504
f 490/450/489 504/463/504 503/462/503
f 498/458/498 499/459/499 505/464/505
f 498/458/498 505/464/505 504/463/504
f 499/459/499 500/455/500 506/460/506
f 499/459/499 506/460/506 505/464/505
f 500/455/500 495/456/496 501/461/502
f 500/455/500 501/461/502 506/460/506
f 501/461/502 502/460/501 508/465/507
f 501/461/502 508/465/507 507/466/508
f 502/460/501 503/462/503 509/467/509
f 502/460/501 509/467/509 508/465/507
f 503/462/503 510/468/510 509/467/509
f 503/462/503 504/463/504 510/468/510
f 504/463/504 505/464/505 511/469/511
f 505/464/505 512/470/512 511/469/511
f 505/464/505 506/460/506 513/465/513
f 505/464/505 513/465/513 512/470/512
f 506/460/506 501/461/502 507/466/508
f 506/460/506 507/466/508 513/465/513
f 507/466/508 508/465/507 515/471/514
f 507/466/508 515/471/514 514/472/515
f 508/465/507 509/467/509 515/471/514
f 509/467/509 510/468/510 516/473/516
f 510/468/510 504/463/504 517/474/517
f 510/468/510 517/474/517 516/473/516
f 504/463/504 511/469/511 517/474/517
f 512/470/512 513/465/513 518/475/518
f 513/465/513 507/466/508 514/472/515
f 513/465/513 514/472/515 518/475/518
f 514/472/515 515/471/514 519/476/519
f 514/472/515 519/476/519 518/475/518
f 515/471/514 509/467/509 519/476/519
f 509/467/509 516/473/516 519/476/519
f 516/473/516 517/474/517 520/477/520
f 517/474/517 511/469/511 520/477/520
f 511/469/511 512/470/512 521/478/521
f 511/469/511 521/478/521 520/477/520
f 512/470/512 518/475/518 521/478/521
f 519/476/519 516/473/516 522/479/522
f 516/473/516 520/477/520 522/479/522
f 518/475/518 519/476/519 523/480/523
f 519/476/519 524/481/524 523/480/523
f 519/476/519 522/479/522 524/481/524
f 522/479/522 520/477/520 524/481/524
f 520/477/520 521/478/521 523/480/523
f 520/477/520 523/480/523 524/481/524
f 521/478/521 518/475/518 523/480/523
f 525/482/525 527/483/526 526/484/527
f 525/482/525 528/485/528 527/483/526
f 525/482/525 526/484/527 529/486/529
f 526/484/527 531/487/530 530/488/531
f 526/484/527 527/483/526 532/489/532
f 526/484/527 532/489/532 531/487/530
f 527/483/526 528/485/528 533/490/533
f 527/483/526 533/490/533 532/489/532
f 528/485/528 534/491/534 533/490/533
f 528/485/528 525/482/525 535/492/535
f 528/485/528 535/492/535 534/491/534
f 525/482/525 529/486/529 536/493/536
f 525/482/525 536/493/536 535/492/535
f 529/486/529 526/484/527 530/488/531
f 529/486/529 530/488/531 536/493/536
f 530/488/531 531/487/530 537/494/537
f 531/487/530 532/489/532 538/495/538
f 532/489/532 539/496/539 538/495/538
f 532/489/532 533/490/533 540/497/540
f 532/489/532 540/497/540 539/496/539
f 533/490/533 534/491/534 540/497/540
f 534/491/534 535/492/535 541/498/541
f 535/492/535 536/493/536 542/499/542
f 535/492/535 542/499/542 541/498/541
f 536/493/536 530/488/531 537/494/537
f 536/493/536 537/494/537 542/499/542
f 537/494/537 531/487/530 544/500/543
f 537/494/537 544/500/543 543/501/544
f 531/487/530 538/495/538 544/500/543
f 538/495/538 539/496/539 545/502/545
f 539/496/539 540/497/540 546/503/546
f 539/496/539 546/503/546 545/502/545
f 540/497/540 534/491/534 547/502/547
f 540/497/540 547/502/547 546/503/546
f 534/491/534 541/498/541 547/502/547
f 542/499/542 537/494/537 543/501/544
f 542/499/542 543/501/544 541/498/541
f 543/501/544 544/500/543 549/504/548
f 543/501/544 549/504/548 548/505/549
f 544/500/543 538/495/538 550/506/550
f 544/500/543 550/506/550 549/504/548
f 538/495/538 545/502/545 551/507/551
f 538/495/538 551/507/551 550/506/550
f 545/502/545 546/503/546 552/508/552
f 545/502/545 552/508/552 551/507/551
f 546/503/546 547/502/547 553/507/553
f 546/503/546 553/507/553 552/508/552
f 547/502/547 541/498/541 554/506/554
f 547/502/547 554/506/554 553/507/553
f 541/498/541 555/504/555 554/506/554
f 541/498/541 543/501/544 548/505/549
f 541/498/541 548/505/549 555/504/555
f 548/505/549 549/504/548 557/509/556
f 548/505/549 557/509/556 556/510/557
f 549/504/548 550/506/550 558/511/558
f 549/504/548 558/511/558 557/509/556
f 550/506/550 551/507/551 559/512/559
f 550/506/550 559/512/559 558/511/558
f 551/507/551 552/508/552 560/513/560
f 551/507/551 560/513/560 559/512/559
f 552/508/552 553/507/553 561/512/561
f 552/508/552 561/512/561 560/513/560
f 553/507/553 554/506/554 562/511/562
f 553/507/553 562/511/562 561/512/561
f 554/506/554 555/504/555 563/509/563
f 554/506/554 563/509/563 562/511/562
f 555/504/555 548/505/549 556/510/557
f 555/504/555 556/510/557 563/509/563
f 556/510/557 557/509/556 565/514/564
f 556/510/557 565/514/564 564/515/565
f 557/509/556 558/511/558 566/516/566
f 557/509/556 566/516/566 565/514/564
f 558/511/558 559/512/559 567/517/567
f 558/511/558 567/517/567 566/516/566
f 559/512/559 560/513/560 567/517/567
f 560/513/560 561/512/561 568/517/568
f 561/512/561 562/511/562 569/516/569
f 561/512/561 569/516/569 568/517/568
f 562/511/562 563/509/563 570/514/570
f 562/511/562 570/514/570 569/516/569
f 563/509/563 556/510/557 564/515/565
f 563/509/563 564/515/565 570/514/570
f 564/515/565 565/514/564 572/518/571
f 564/515/565 572/518/571 571/519/572
f 565/514/564 566/516/566 573/520/573
f 565/514/564 573/520/573 572/518/571
f 566/516/566 567/517/567 574/521/574
f 566/516/566 574/521/574 573/520/573
f 567/517/567 560/513/560 575/522/575
f 567/517/567 575/522/575 574/521/574
f 560/513/560 568/517/568 576/521/576
f 560/513/560 576/521/576 575/522/575
f 568/517/568 569/516/569 577/520/577
f 568/517/568 577/520/577 576/521/576
f 569/516/569 570/514/570 578/523/578
f 569/516/569 578/523/578 577/520/577
f 570/514/570 564/515/565 571/519/572
f 570/514/570 571/519/572 578/523/578
f 571/519/572 572/518/571 580/524/579
f 571/519/572 580/524/579 579/525/580
f 572/518/571 573/520/573 581/526/581
f 572/518/571 581/526/581 580/524/579
f 573/520/573 574/521/574 582/527/582
f 573/520/573 582/527/582 581/526/581
f 574/521/574 575/522/575 583/528/583
f 574/521/574 583/528/583 582/527/582
f 575/522/575 576/521/576 584/529/584
f 575/522/575 584/529/584 583/528/583
f 576/521/576 577/520/577 585/530/585
f 576/521/576 585/530/585 584/529/584
f 577/520/577 578/523/578 585/530/585
f 578/523/578 571/519/572 579/525/580
f 581/526/581 582/527/582 586/531/586
f 582/527/582 583/528/583 586/531/586
f 583/528/583 584/529/584 586/531/586
f 585/530/585 578/523/578 587/532/587
f 578/523/578 579/525/580 587/532/587
f 579/525/580 580/524/579 588/533/588
f 580/524/579 581/526/581 589/534/589
f 580/524/579 589/534/589 588/533/588
f 581/526/581 586/531/586 590/535/590
f 581/526/581 590/535/590 589/534/589
f 586/531/586 591/536/591 590/535/590
f 586/531/586 584/529/584 592/537/592
f 586/531/586 592/537/592 591/536/591
f 584/529/584 585/530/585 593/534/593
f 584/529/584 593/534/593 592/537/592
f 585/530/585 587/532/587 593/534/593
f 587/532/587 579/525/580 588/533/588
f 588/533/588 595/538/594 594/539/595
f 588/533/588 589/534/589 596/540/596
f 588/533/588 596/540/596 595/538/594
f 589/534/589 590/535/590 596/540/596
f 590/535/590 591/536/591 597/541/597
f 591/536/591 592/537/592 598/542/598
f 591/536/591 598/542/598 597/541/597
f 592/537/592 593/534/593 599/540/599
f 592/537/592 599/540/599 598/542/598
f 593/534/593 587/532/587 600/543/600
f 593/534/593 600/543/600 599/540/599
f 587/532/587 588/533/588 594/539/595
f 587/532/587 594/539/595 600/543/600
f 594/539/595 595/538/594 601/544/601
f 595/538/594 596/540/596 602/545/602
f 596/540/596 590/535/590 603/546/603
f 596/540/596 603/546/603 602/545/602
f 590/535/590 597/541/597 604/547/604
f 590/535/590 604/547/604 603/546/603
f 597/541/597 598/542/598 604/547/604
f 598/542/598 599/540/599 605/548/605
f 598/542/598 605/548/605 604/547/604
f 599/540/599 600/543/600 606/549/606
f 599/540/599 606/549/606 605/548/605
f 600/543/600 594/539/595 601/544/601
f 600/543/600 601/544/601 606/549/606
f 601/544/601 595/538/594 608/550/607
f 601/544/601 608/550/607 607/551/608
f 595/538/594 602/545/602 608/550/607
f 602/545/602 603/546/603 608/550/607
f 603/546/603 604/547/604 609/552/609
f 604/547/604 605/548/605 609/552/609
f 606/549/606 601/544/601 607/551/608
f 607/551/608 608/550/607 611/553/610
f 607/551/608 611/553/610 610/554/611
f 608/550/607 603/546/603 612/555/612
f 608/550/607 612/555/612 611/553/610
f 603/546/603 609/552/609 612/555/612
f 609/552/609 613/556/613 612/555/612
f 609/552/609 605/548/605 614/557/614
f 609/552/609 614/557/614 613/556/613
f 605/548/605 606/549/606 614/557/614
f 606/549/606 607/551/608 610/554/611
f 606/549/606 610/554/611 614/557/614
f 611/553/610 612/555/612 615/558/615
f 613/556/613 614/557/614 616/559/616
f 614/557/614 610/554/611 616/559/616
f 610/554/611 611/553/610 617/560/617
f 611/553/610 615/558/615 617/560/617
f 615/558/615 612/555/612 618/561/618
f 612/555/612 613/556/613 618/561/618
f 613/556/613 616/559/616 618/561/618
f 616/559/616 610/554/611 617/560/617
f 618/561/618 616/559/616 615/558/615
f 616/559/616 617/560/617 615/558/615
