# Blender 5.1.2
# www.blender.org
o justed_inferno_v32_core_crown
v 0.762747 -0.397158 -0.000155
v 0.768947 -0.285823 0.043283
v 0.738838 -0.316872 0.070780
v 0.750563 -0.381467 0.086935
v 0.775358 -0.446753 0.096117
v 0.818976 -0.455438 0.075081
v 0.844818 -0.424122 0.049845
v 0.850413 -0.363527 0.025531
v 0.810588 -0.314133 0.030213
v 0.785291 -0.227418 0.126773
v 0.753811 -0.289594 0.148857
v 0.790137 -0.360519 0.203913
v 0.816774 -0.461166 0.165565
v 0.871008 -0.451563 0.138341
v 0.928414 -0.408218 0.123207
v 0.908717 -0.322954 0.090819
v 0.843929 -0.271508 0.095766
v 0.801338 -0.270443 0.272571
v 0.893481 -0.448695 0.300366
v 0.895421 -0.210898 0.240232
v 0.824089 -0.141290 0.323270
v 0.819569 -0.357564 0.316968
v 1.026367 -0.380846 0.254681
v 0.976349 -0.269395 0.242026
v 0.836751 -0.333004 0.423589
v 0.920379 -0.416553 0.394857
v 0.988623 -0.397756 0.375725
v 1.062368 -0.358821 0.353498
v 0.994140 -0.251275 0.339014
v 0.927348 -0.168672 0.333238
v 0.877488 -0.160263 0.438669
v 0.929802 -0.355974 0.473279
v 0.991718 -0.368715 0.471136
v 0.986668 -0.227070 0.517511
v 0.955917 -0.151504 0.481547
v 0.900519 -0.160265 0.522185
v 0.868366 -0.204034 0.529696
v 0.854134 -0.285075 0.546307
v 0.925439 -0.317590 0.557571
v 0.985986 -0.360238 0.570376
v 1.024606 -0.305200 0.560824
v 0.897948 -0.114386 0.625110
v 0.827769 -0.146458 0.596116
v 0.820428 -0.263420 0.617313
v 0.897967 -0.317365 0.644560
v 0.972976 -0.404973 0.677818
v 1.011944 -0.303929 0.666549
v 1.006335 -0.206517 0.646364
v 0.976704 -0.079421 0.615211
v 0.790460 -0.081512 0.655148
v 0.795359 -0.233878 0.682481
v 0.847676 -0.327030 0.718622
v 0.923521 -0.438256 0.767045
v 0.969705 -0.299154 0.762049
v 1.013029 -0.194949 0.761743
v 0.976262 -0.054333 0.723815
v 0.864575 -0.068881 0.786863
v 0.777377 -0.051707 0.731711
v 0.783377 -0.205735 0.755165
v 0.789150 -0.324458 0.773941
v 0.854250 -0.407760 0.824181
v 0.906354 -0.286440 0.840212
v 0.976104 -0.198819 0.871291
v 0.932729 -0.079945 0.829666
v 0.825194 -0.035180 0.877498
v 0.751543 -0.040079 0.813086
v 0.747505 -0.187559 0.820745
v 0.723802 -0.324652 0.810317
v 0.787900 -0.370977 0.870220
v 0.842456 -0.292811 0.912267
v 0.913370 -0.209178 0.968286
v 0.867458 -0.102495 0.919791
v 0.767451 0.004344 0.967110
v 0.704390 -0.040356 0.887642
v 0.687636 -0.174819 0.866530
v 0.651540 -0.324771 0.835351
v 0.723710 -0.343758 0.920602
v 0.774912 -0.322100 0.976512
v 0.831765 -0.221955 1.048156
v 0.792212 -0.112633 0.998313
v 0.682184 -0.012025 1.033976
v 0.643959 -0.079769 0.954513
v 0.624856 -0.171351 0.907831
v 0.695472 -0.330333 1.020310
v 0.721389 -0.225430 1.081308
v 0.700219 -0.128819 1.053499
v 0.583619 -0.078252 1.059473
v 0.554283 -0.178850 0.959347
v 0.564962 -0.268497 0.946812
v 0.573011 -0.295756 1.055478
v 0.607600 -0.222175 1.081861
v 0.550194 -0.160102 1.087888
v 0.486316 -0.119273 1.067994
v 0.478863 -0.200622 0.979756
v 0.496781 -0.264529 0.984336
v 0.505532 -0.286623 1.020269
v 0.413184 -0.235114 1.098822
v 0.365783 -0.139065 1.060193
v 0.352055 -0.178874 1.009749
v 0.366091 -0.230413 0.973035
v 0.372674 -0.294558 0.998084
v 0.423855 -0.319087 1.030372
v 0.422191 -0.314948 1.083187
v 0.393976 -0.168815 1.106581
v 0.298565 -0.344384 1.035416
v 0.324203 -0.320363 1.081249
v 0.308094 -0.252720 1.089126
v 0.293218 -0.182307 1.086268
v 0.186121 -0.210089 0.989772
v 0.211316 -0.229116 0.966880
v 0.218284 -0.285911 0.957115
v 0.224139 -0.327446 0.991594
v 0.160031 -0.328231 1.039289
v 0.155326 -0.274689 1.037237
v 0.158420 -0.218137 1.021198
v 0.081832 -0.379026 0.983182
v 0.066385 -0.258359 0.912891
v 0.084023 -0.282445 0.889995
v 0.068852 -0.343891 0.897041
v 0.048159 -0.342580 0.983723
v 0.027150 -0.295696 0.959432
v 0.047613 -0.249561 0.942043
v -0.050374 -0.365666 0.843318
v -0.038384 -0.373510 0.895959
v -0.047636 -0.316022 0.855231
v -0.061345 -0.348064 0.817219
v -0.173238 -0.395429 0.742332
v -0.065426 -0.229477 0.826207
v -0.112878 -0.112874 0.793377
v -0.153111 -0.218399 0.791805
v -0.164210 -0.274239 0.846742
v -0.119202 -0.245498 0.916790
v -0.106170 -0.176150 0.893009
v -0.102614 -0.132017 0.847671
v -0.183401 -0.057847 0.802225
v -0.219438 -0.117607 0.796890
v -0.242142 -0.207391 0.803265
v -0.242200 -0.267584 0.873880
v -0.226090 -0.263358 0.933642
v -0.190487 -0.222884 0.976783
v -0.171193 -0.138004 0.932823
v -0.167878 -0.073221 0.876955
v -0.329401 -0.016533 0.867210
v -0.370596 -0.145090 0.845759
v -0.380963 -0.195576 0.908405
v -0.339704 -0.071565 0.965123
v -0.362192 -0.047260 0.851877
v -0.391322 -0.201347 0.959896
v -0.385445 -0.158997 1.004293
v -0.330094 -0.019266 0.931214
v -0.414439 0.037915 0.891622
v -0.513400 -0.077421 0.827710
v -0.550631 -0.157417 0.904265
v -0.492695 -0.198692 0.964341
v -0.473114 -0.152116 1.017820
v -0.472974 0.060365 0.983048
v -0.502719 0.069613 0.913399
v -0.510652 0.034665 0.854283
v -0.591105 -0.190037 0.944685
v -0.575730 -0.132661 1.004182
v -0.614937 0.088798 0.995170
v -0.601182 0.086473 0.922631
v -0.589780 0.080121 0.856062
v -0.621113 -0.023468 0.821254
v -0.677532 -0.169841 0.906172
v -0.668548 -0.101609 0.966992
v -0.648530 -0.018271 0.996265
v -0.695366 0.129395 0.918292
v -0.660297 0.150892 0.837159
v -0.682640 0.021182 0.797653
v -0.715244 -0.079998 0.809256
v -0.758598 -0.182155 0.850142
v -0.796762 -0.097530 0.905837
v -0.761106 -0.006169 0.995493
v -0.726016 0.120961 0.997340
v -0.791872 0.190579 0.905677
v -0.731191 0.228066 0.810305
v -0.760507 0.030426 0.751748
v -0.764273 -0.086213 0.731262
v -0.818880 -0.195868 0.783232
v -0.883440 -0.006204 0.987066
v -0.841032 0.143759 0.975605
v -0.892459 0.225494 0.866272
v -0.823022 0.236815 0.778499
v -0.802633 -0.074436 0.675894
v -0.865434 -0.143116 0.741007
v -0.916059 -0.077308 0.823090
v -0.983116 0.001725 0.920634
v -0.933888 0.132734 0.897637
v -0.978578 0.224608 0.792418
v -0.912946 0.192533 0.727295
v -0.891919 0.081309 0.695818
v -0.883966 -0.036734 0.634279
v -0.922674 -0.068749 0.708980
v -0.975809 -0.060453 0.759845
v -1.050931 0.110218 0.723871
v -1.044954 0.228478 0.702068
v -0.978155 0.160540 0.657188
v -0.938600 0.083795 0.630613
v -0.977330 -0.035512 0.653023
v -1.034191 -0.064162 0.694837
v -1.083912 0.031265 0.728242
v -1.085617 0.223305 0.598406
v -0.996501 0.055026 0.486554
v -0.964156 0.076956 0.555277
v -0.959950 -0.033366 0.562643
v -1.089401 -0.074176 0.625171
v -1.119460 0.039619 0.629315
v -1.112105 0.123999 0.618856
v -1.094680 0.170365 0.495116
v -1.023570 0.025363 0.416104
v -1.022207 -0.020856 0.504784
v -1.066530 -0.039840 0.519815
v -1.126363 -0.054579 0.538429
v -1.138569 0.115143 0.509887
v -1.089669 0.117834 0.411065
v -1.094790 -0.054995 0.430861
v -1.145004 -0.039227 0.440664
v -1.137911 0.097439 0.376891
v -1.078789 0.090221 0.308577
v -1.039472 0.063144 0.317487
v -1.013474 -0.035221 0.278217
v -1.122736 -0.099946 0.357041
v -1.162046 -0.052480 0.342728
v -1.149091 0.018743 0.324422
v -1.135302 0.103448 0.302580
v -1.001967 0.041943 0.240540
v -1.074900 -0.089502 0.263692
v -1.142310 -0.140478 0.266589
v -1.159778 -0.066708 0.240357
v -1.148781 0.005680 0.220006
v -1.105233 0.090340 0.202086
v -1.006379 -0.006129 0.101212
v -0.979194 -0.005103 0.165405
v -1.015948 -0.075124 0.177565
v -1.056388 -0.125495 0.131989
v -1.126613 -0.142528 0.163893
v -1.124379 -0.077126 0.141717
v -1.107464 -0.018194 0.108310
v -1.061243 0.038633 0.122416
v -0.950926 -0.080129 0.040757
v -0.992867 -0.110110 0.061604
v -1.081387 -0.140923 0.068126
v -1.041137 -0.114515 -0.004820
v -0.998880 -0.038916 0.018452
v -0.892761 -0.129026 -0.103653
v -0.978631 -0.168162 -0.032160
v -1.005393 -0.161079 -0.045742
v -0.992076 -0.094844 -0.058247
v -0.962901 -0.150251 -0.096317
v -0.843486 -0.199876 -0.186587
v -0.831193 -0.203377 -0.209835
v -0.789708 -0.229170 -0.251720
v -0.847669 -0.051681 -0.135274
v -0.823532 0.046555 -0.172477
v -0.799270 -0.032579 -0.225117
v -0.876512 -0.080091 -0.237005
v -0.921095 -0.057231 -0.219756
v -0.868926 0.047338 -0.171188
v -0.840739 0.106814 -0.238791
v -0.809899 0.094728 -0.277865
v -0.790716 0.003860 -0.298006
v -0.902974 -0.079485 -0.321548
v -0.943439 -0.037731 -0.301713
v -0.908306 0.120237 -0.243439
v -0.875610 0.171569 -0.400140
v -0.820764 0.094229 -0.439272
v -0.894931 -0.039049 -0.419642
v -0.840273 0.166074 -0.405619
v -0.844648 0.047049 -0.462622
v -0.882177 0.002110 -0.483615
v -0.918032 0.040587 -0.478631
v -0.947438 0.091683 -0.446457
v -0.941846 0.169893 -0.422308
v -0.905258 0.237443 -0.477487
v -0.840210 0.235333 -0.472550
v -0.805143 0.151088 -0.508654
v -0.812921 0.073457 -0.545574
v -0.854674 0.015088 -0.576601
v -0.922861 0.313639 -0.556674
v -0.837144 0.336063 -0.556755
v -0.756595 0.217532 -0.615358
v -0.738402 0.110814 -0.650219
v -0.795959 0.017186 -0.681246
v -0.881899 0.057830 -0.676594
v -0.979157 0.149031 -0.642397
v -0.987286 0.266863 -0.591362
v -0.909959 0.372798 -0.699716
v -0.942425 0.185114 -0.781121
v -0.971295 0.299373 -0.697851
v -0.774144 0.425928 -0.759306
v -0.732279 0.278651 -0.720822
v -0.686999 0.159823 -0.738453
v -0.707700 0.099592 -0.828945
v -0.819661 0.128466 -0.818983
v -0.887762 0.354420 -0.862616
v -0.844933 0.449715 -0.841437
v -0.633911 0.166780 -0.785376
v -0.730580 0.152798 -0.961769
v -0.871972 0.229005 -0.934081
v -0.776497 0.492034 -0.919605
v -0.692777 0.442491 -0.855625
v -0.624435 0.326170 -0.867873
v -0.595067 0.170325 -0.832999
v -0.662489 0.140381 -0.905347
v -0.805360 0.260089 -1.010932
v -0.672554 0.473330 -0.978352
v -0.625308 0.400922 -0.928890
v -0.581422 0.200755 -0.903852
v -0.669461 0.192941 -1.023648
v -0.704685 0.294014 -1.047939
v -0.628950 0.370529 -1.045372
v -0.547065 0.435519 -1.027613
v -0.528530 0.311096 -0.959883
v -0.550718 0.229940 -0.970663
v -0.603243 0.221272 -1.072433
v -0.604543 0.311977 -1.074744
v -0.473867 0.437886 -1.039206
v -0.462780 0.290778 -0.970357
v -0.488370 0.221305 -1.018616
v -0.508534 0.211556 -1.068812
v -0.532374 0.217213 -1.132809
v -0.513919 0.317069 -1.111469
v -0.500018 0.399935 -1.097462
v -0.379533 0.411723 -1.046028
v -0.385754 0.345914 -1.016790
v -0.394404 0.259815 -0.980846
v -0.420408 0.212604 -1.057303
v -0.440725 0.175855 -1.117161
v -0.446236 0.217044 -1.177998
v -0.418746 0.313433 -1.137696
v -0.394351 0.417302 -1.117914
v -0.298223 0.355470 -1.052790
v -0.305362 0.318703 -1.013515
v -0.328398 0.233041 -1.010233
v -0.340835 0.207221 -1.084953
v -0.359313 0.157396 -1.153041
v -0.343737 0.228540 -1.180294
v -0.291858 0.394311 -1.110509
v -0.217291 0.310582 -1.048903
v -0.228942 0.287572 -0.994630
v -0.267160 0.212578 -1.029658
v -0.268962 0.134108 -1.174177
v -0.241180 0.216397 -1.168757
v -0.220073 0.281906 -1.149938
v -0.197872 0.358524 -1.092200
v -0.068868 0.244981 -0.999813
v -0.132565 0.238771 -0.957989
v -0.176235 0.175540 -1.030146
v -0.180646 0.131915 -1.093657
v -0.174578 0.103170 -1.178375
v -0.112176 0.259348 -1.142350
v -0.110656 0.317950 -1.067318
v -0.090162 0.092647 -1.073266
v -0.076767 0.094719 -1.132555
v -0.023183 0.223104 -1.112019
v -0.037269 0.252452 -1.042284
v 0.026755 0.183308 -0.977835
v 0.003633 0.156747 -0.966086
v 0.037383 0.069272 -1.016073
v 0.011684 0.093515 -1.073313
v 0.129642 0.111385 -0.931034
v 0.087577 0.099692 -0.946598
v 0.103800 0.075201 -1.009321
v 0.152698 0.081783 -0.969813
v 0.178141 0.035332 -0.950450
v 0.241191 0.023839 -0.858558
v 0.266935 -0.022417 -0.834707
v 0.323756 -0.051028 -0.793867
v 0.199999 0.128447 -0.826418
v 0.242260 0.210567 -0.809043
v 0.262520 0.170719 -0.775822
v 0.288611 0.114977 -0.819192
v 0.284477 0.131504 -0.845075
v 0.255434 0.225150 -0.868936
v 0.334398 0.293530 -0.848121
v 0.333228 0.326718 -0.791591
v 0.361915 0.244238 -0.755979
v 0.381516 0.208451 -0.764766
v 0.448772 0.133092 -0.784202
v 0.390751 0.170739 -0.847372
v 0.450855 0.246148 -0.895072
v 0.379096 0.313386 -0.905311
v 0.440799 0.383355 -0.855812
v 0.477999 0.457060 -0.791180
v 0.497771 0.257113 -0.723035
v 0.552734 0.201413 -0.750428
v 0.466703 0.351643 -0.896487
v 0.510814 0.457933 -0.863029
v 0.563076 0.283437 -0.686167
v 0.611464 0.236270 -0.727162
v 0.612999 0.265651 -0.802628
v 0.552696 0.399766 -0.887127
v 0.575368 0.558708 -0.871633
v 0.547415 0.538066 -0.767059
v 0.637567 0.462137 -0.643145
v 0.630168 0.301274 -0.615435
v 0.686438 0.253244 -0.687254
v 0.712534 0.268165 -0.778146
v 0.705465 0.351203 -0.888342
v 0.638210 0.463364 -0.887274
v 0.650778 0.632818 -0.842449
v 0.619149 0.583004 -0.730069
v 0.686661 0.323118 -0.580028
v 0.752097 0.281268 -0.658241
v 0.798287 0.286473 -0.750444
v 0.789622 0.400622 -0.855724
v 0.722513 0.523753 -0.860913
v 0.766975 0.651516 -0.732992
v 0.756585 0.597818 -0.644389
v 0.751676 0.504730 -0.592747
v 0.795543 0.395925 -0.573996
v 0.849101 0.372407 -0.627673
v 0.894759 0.384796 -0.689233
v 0.848363 0.456872 -0.788174
v 0.811316 0.571855 -0.775081
v 0.959196 0.537527 -0.655929
v 0.851640 0.688404 -0.602975
v 0.844328 0.614133 -0.529757
v 0.834658 0.514173 -0.503157
v 0.895980 0.423232 -0.511757
v 0.925988 0.401677 -0.578126
v 0.978907 0.427136 -0.629868
v 0.916770 0.633605 -0.640606
v 0.894550 0.685149 -0.514741
v 1.015924 0.454841 -0.474523
v 1.030700 0.460664 -0.569255
v 1.004522 0.566676 -0.567600
v 0.971133 0.647245 -0.533055
v 0.952999 0.643085 -0.374734
v 0.918844 0.588893 -0.424949
v 0.921934 0.510326 -0.403293
v 0.967608 0.462521 -0.447501
v 1.077826 0.499671 -0.456786
v 1.042208 0.574793 -0.439631
v 0.933109 0.581129 -0.349223
v 1.001954 0.459597 -0.385845
v 1.064804 0.439056 -0.408034
v 1.016934 0.658923 -0.365733
v 0.966808 0.631119 -0.256779
v 0.914416 0.574372 -0.268559
v 0.931778 0.465261 -0.297328
v 1.028491 0.426675 -0.297886
v 1.118314 0.390903 -0.347331
v 1.141723 0.482650 -0.329754
v 1.095554 0.574363 -0.300079
v 1.029874 0.679770 -0.263777
v 0.904454 0.553909 -0.197079
v 0.952262 0.449644 -0.234209
v 1.140092 0.364613 -0.270725
v 1.135290 0.469247 -0.235271
v 1.111361 0.556415 -0.204901
v 1.032299 0.648261 -0.170645
v 1.030049 0.566064 -0.088537
v 0.923869 0.497873 -0.087816
v 0.977826 0.439612 -0.158548
v 1.037298 0.391496 -0.173949
v 1.100377 0.356564 -0.123355
v 1.098977 0.444960 -0.125000
v 1.104242 0.518886 -0.113453
v 0.973036 0.505710 -0.035169
v 0.986612 0.401198 -0.069024
v 1.023801 0.354970 -0.101362
v 1.089133 0.473674 -0.026270
v 1.020146 0.507880 -0.023782
v 0.951454 0.460088 0.061458
v 0.923024 0.438228 0.015193
v 0.997292 0.314819 -0.027529
v 1.053222 0.331520 -0.013514
v 1.054511 0.411711 0.062656
v 1.000196 0.440432 0.051258
v 0.926228 0.373516 0.089003
v 1.000589 0.310468 0.104703
v 0.902641 0.321725 0.197384
v 0.908220 0.299494 0.151123
v 0.916298 0.265873 0.157466
v 0.943051 0.298210 0.183231
v 0.850269 0.198536 0.252813
v 0.874610 0.198441 0.263025
v 0.854564 0.231862 0.288546
v 0.834877 0.233013 0.292330
v 0.798308 0.180923 0.308465
v 0.758727 0.127703 0.381577
vn -0.7441 -0.5623 -0.3606
vn -0.9460 0.1241 -0.2995
vn -0.5900 0.5830 -0.5586
vn -0.9495 -0.2921 0.1143
vn -0.6904 -0.7195 -0.0745
vn -0.0276 -0.9099 -0.4140
vn 0.3841 -0.5308 -0.7555
vn 0.4417 0.0248 -0.8968
vn 0.2276 0.5249 -0.8202
vn -0.9742 0.1006 0.2020
vn -0.4855 0.8262 -0.2859
vn -0.8769 -0.3112 0.3662
vn -0.5128 -0.8274 0.2292
vn 0.3170 -0.9330 -0.1703
vn 0.8022 -0.2854 -0.5244
vn 0.7147 0.3293 -0.6170
vn 0.4047 0.7110 -0.5750
vn -0.9692 0.0482 0.2415
vn -0.3154 -0.9043 0.2878
vn 0.4112 0.7813 -0.4695
vn -0.5255 0.8477 0.0728
vn -0.8429 -0.4619 0.2758
vn 0.9258 -0.2291 -0.3008
vn 0.7552 0.4750 -0.4518
vn -0.8628 -0.3528 0.3622
vn -0.3271 -0.8472 0.4185
vn 0.4468 -0.8783 0.1700
vn 0.9642 -0.1820 -0.1930
vn 0.8371 0.5054 -0.2094
vn 0.5027 0.8258 -0.2558
vn -0.5331 0.8353 0.1348
vn -0.3959 -0.8095 0.4335
vn 0.3789 -0.8744 0.3030
vn 0.9287 0.3531 -0.1130
vn 0.5812 0.7796 -0.2332
vn -0.9193 0.2073 -0.3345
vn -0.4259 0.8651 -0.2649
vn -0.8930 -0.4495 -0.0210
vn -0.5398 -0.8415 0.0198
vn 0.3843 -0.9232 0.0089
vn 0.9922 -0.1081 0.0614
vn -0.7730 0.2665 -0.5758
vn -0.1894 0.8961 -0.4013
vn -0.8516 -0.3929 -0.3471
vn -0.5658 -0.7502 -0.3423
vn 0.3821 -0.9202 -0.0853
vn 0.9585 -0.2330 0.1645
vn 0.9793 0.1875 -0.0759
vn 0.6014 0.7296 -0.3256
vn -0.7414 0.4247 -0.5196
vn -0.9265 -0.2124 -0.3106
vn -0.6158 -0.6541 -0.4392
vn 0.1998 -0.9652 0.1690
vn 0.8150 -0.3583 0.4554
vn 0.9694 0.0950 0.2265
vn 0.6884 0.7251 0.0175
vn -0.7200 0.6202 -0.3115
vn 0.1173 0.9821 -0.1475
vn -0.9249 -0.0459 -0.3773
vn -0.6464 -0.5498 -0.5290
vn -0.0250 -0.9500 0.3112
vn 0.6455 -0.4986 0.5786
vn 0.8584 -0.0067 0.5129
vn 0.6666 0.6332 0.3933
vn -0.5770 0.6396 -0.5080
vn 0.3076 0.9505 -0.0441
vn -0.7480 0.0814 -0.6587
vn -0.5652 -0.4549 -0.6882
vn -0.0916 -0.9823 0.1633
vn 0.5787 -0.6430 0.5017
vn 0.7627 -0.0892 0.6406
vn 0.6584 0.5149 0.5490
vn -0.5739 0.6726 -0.4673
vn 0.2396 0.9401 0.2426
vn -0.6140 0.2086 -0.7612
vn -0.5389 -0.7234 -0.4316
vn -0.1907 -0.9736 0.1256
vn 0.4060 -0.7404 0.5357
vn 0.5552 -0.1662 0.8150
vn 0.5418 0.4065 0.7357
vn -0.6655 0.6595 -0.3496
vn -0.0893 0.8292 0.5517
vn -0.6463 0.2725 -0.7128
vn 0.0879 -0.7669 0.6357
vn 0.2157 -0.2406 0.9464
vn 0.2746 0.3057 0.9117
vn -0.5531 0.3593 -0.7517
vn -0.2362 0.8029 0.5474
vn -0.7135 -0.4006 -0.5748
vn -0.0156 -0.7694 0.6385
vn 0.0559 -0.3113 0.9487
vn 0.0495 0.2228 0.9736
vn -0.1849 0.2944 -0.9376
vn -0.2288 0.8983 0.3751
vn -0.2021 -0.3717 -0.9061
vn 0.1355 -0.9316 -0.3374
vn 0.0187 -0.1491 0.9886
vn -0.0741 0.6588 -0.7487
vn -0.1555 0.9850 0.0745
vn 0.0049 0.0949 -0.9955
vn 0.1158 -0.4937 -0.8619
vn 0.2016 -0.9537 -0.2231
vn 0.1185 -0.6358 0.7627
vn -0.0931 0.3538 0.9307
vn 0.0834 -0.9935 -0.0773
vn -0.0601 -0.5662 0.8221
vn -0.2078 -0.0707 0.9756
vn -0.3745 0.3787 0.8464
vn 0.1654 0.4450 -0.8801
vn -0.1821 0.9412 -0.2845
vn 0.3428 -0.1415 -0.9287
vn 0.3118 -0.6159 -0.7235
vn -0.2858 -0.3307 0.8994
vn -0.4398 0.1409 0.8870
vn -0.4623 0.6157 0.6381
vn -0.0878 -0.9638 0.2516
vn 0.3766 0.2201 -0.8998
vn -0.0789 0.8698 -0.4870
vn 0.4294 -0.5501 -0.7162
vn -0.5556 -0.1565 0.8166
vn -0.6582 0.3062 0.6877
vn -0.5161 0.7763 0.3618
vn 0.5018 -0.6966 -0.5129
vn -0.3744 -0.8778 0.2988
vn -0.6262 0.7797 -0.0007
vn 0.4362 0.1991 -0.8775
vn -0.5516 -0.4379 -0.7099
vn 0.5336 -0.8449 -0.0363
vn 0.1065 -0.4501 -0.8866
vn 0.5041 0.3159 -0.8038
vn 0.0922 -0.9428 -0.3204
vn 0.7628 -0.4492 0.4651
vn 0.7908 0.2686 0.5499
vn 0.8469 0.5027 0.1735
vn -0.1987 0.1032 -0.9746
vn 0.2311 0.7425 -0.6287
vn -0.2987 -0.4349 -0.8495
vn -0.3473 -0.8760 -0.3348
vn -0.0954 -0.8996 0.4262
vn 0.4554 -0.2324 0.8594
vn 0.5017 0.4162 0.7583
vn 0.5425 0.7296 0.4163
vn 0.2265 0.8391 -0.4946
vn -0.2738 -0.3645 -0.8901
vn -0.2961 -0.8420 -0.4510
vn 0.3706 0.3455 0.8621
vn 0.0152 0.2893 -0.9571
vn -0.1132 -0.9304 0.3487
vn 0.0691 -0.2496 0.9659
vn 0.4772 0.7181 0.5065
vn 0.4104 0.8403 -0.3543
vn -0.0530 -0.2254 -0.9728
vn -0.0598 -0.7125 -0.6991
vn -0.1614 -0.9637 0.2126
vn 0.0089 -0.2509 0.9680
vn 0.3433 0.6259 0.7003
vn 0.2145 0.4599 -0.8616
vn 0.2648 0.9514 -0.1575
vn -0.2345 -0.9639 0.1262
vn -0.2678 -0.3390 0.9019
vn 0.1216 0.6765 0.7264
vn 0.4444 0.5325 -0.7204
vn 0.3468 0.9332 0.0936
vn 0.2046 -0.1523 -0.9669
vn -0.1620 -0.9866 0.0177
vn -0.3528 -0.4828 0.8015
vn -0.0821 -0.0694 0.9942
vn 0.6695 0.5352 -0.5151
vn 0.4305 0.8329 0.3477
vn 0.5234 0.0481 -0.8508
vn 0.5919 -0.4522 -0.6672
vn 0.0499 -0.9952 0.0843
vn -0.3879 -0.6632 0.6400
vn -0.1332 -0.2103 0.9685
vn 0.0861 0.4339 0.8968
vn 0.5504 0.6847 -0.4777
vn 0.2013 0.8681 0.4538
vn 0.5282 0.1941 -0.8266
vn 0.6568 -0.3334 -0.6764
vn -0.0584 -0.9939 -0.0934
vn -0.3833 -0.2533 0.8882
vn -0.2850 0.3951 0.8733
vn 0.2605 0.7856 -0.5612
vn -0.2238 0.9079 0.3545
vn 0.4429 -0.1852 -0.8772
vn -0.3362 -0.8187 -0.4655
vn -0.5520 -0.7651 0.3315
vn -0.7435 -0.2867 0.6042
vn -0.6644 0.3518 0.6594
vn 0.2608 0.7731 -0.5782
vn -0.4258 0.8741 0.2340
vn 0.5734 0.3346 -0.7478
vn 0.6094 -0.2789 -0.7422
vn -0.2162 -0.8300 -0.5141
vn -0.5812 -0.7841 0.2178
vn -0.8239 0.2780 0.4939
vn 0.4612 0.7378 -0.4930
vn -0.3771 0.9090 0.1774
vn 0.7644 0.3317 -0.5528
vn 0.0846 -0.9610 -0.2632
vn -0.5486 -0.7811 0.2983
vn -0.8675 -0.2195 0.4464
vn 0.8750 0.1323 -0.4656
vn -0.3447 0.9376 -0.0463
vn 0.8217 0.2675 -0.5033
vn 0.7220 -0.3950 -0.5680
vn -0.6369 -0.7491 0.1823
vn -0.9486 -0.1897 0.2534
vn -0.9077 0.3038 0.2895
vn 0.9901 -0.0738 -0.1190
vn -0.2765 0.8969 -0.3450
vn 0.7150 -0.4779 -0.5103
vn 0.1403 -0.9870 -0.0789
vn -0.7446 -0.6669 0.0293
vn -0.9378 0.3471 -0.0053
vn 0.2081 0.9091 -0.3609
vn 0.2066 -0.9765 0.0608
vn -0.8791 -0.4496 0.1580
vn -0.7515 0.6499 -0.1132
vn 0.8259 0.4035 0.3937
vn 0.2782 0.9424 -0.1858
vn 0.8790 -0.4130 0.2381
vn -0.2070 -0.8859 0.4151
vn -0.9637 -0.2217 0.1486
vn -0.9800 0.1955 -0.0367
vn -0.6400 0.7173 -0.2756
vn 0.8865 0.4600 -0.0508
vn 0.5522 -0.7791 0.2969
vn -0.3340 -0.9306 0.1498
vn -0.9823 -0.1417 -0.1222
vn -0.9143 0.3056 -0.2658
vn -0.5478 0.7364 -0.3971
vn 0.9336 0.3165 0.1682
vn 0.6039 0.7567 -0.2504
vn 0.8046 -0.5134 0.2984
vn 0.4270 -0.8689 0.2505
vn -0.3680 -0.9244 -0.1004
vn -0.9280 -0.0734 -0.3653
vn -0.7614 0.3525 -0.5441
vn -0.3039 0.7719 -0.5584
vn 0.9254 -0.0456 0.3763
vn 0.6773 -0.5686 0.4669
vn -0.5579 -0.7983 -0.2271
vn -0.8096 0.0088 -0.5869
vn -0.0835 0.8396 -0.5368
vn 0.6566 0.7132 -0.2453
vn 0.2022 -0.9097 0.3626
vn -0.5897 -0.7503 -0.2988
vn -0.4984 0.4594 -0.7352
vn -0.6801 -0.0277 -0.7326
vn 0.4303 -0.7574 0.4911
vn -0.6964 -0.0585 -0.7153
vn 0.4688 0.1080 -0.8767
vn 0.0850 -0.5263 0.8460
vn 0.8757 -0.4808 0.0439
vn 0.6351 0.4390 0.6356
vn -0.0588 -0.9943 0.0885
vn -0.7926 -0.3748 0.4809
vn -0.3431 0.4509 0.8240
vn 0.8956 0.4100 0.1725
vn 0.3541 0.8077 0.4714
vn 0.9548 -0.2595 -0.1446
vn -0.1990 -0.9591 -0.2013
vn -0.9376 -0.3472 0.0170
vn -0.6646 0.5830 0.4673
vn 0.0511 0.8596 0.5084
vn 0.9929 -0.1120 0.0410
vn -0.0595 -0.8475 -0.5275
vn 0.7180 0.4854 0.4988
vn 0.8268 -0.5555 0.0881
vn 0.0243 -0.9326 -0.3601
vn -0.8043 -0.5383 -0.2516
vn -0.9807 -0.1893 0.0493
vn -0.8220 0.4010 0.4044
vn 0.6362 0.4959 0.5911
vn -0.1196 0.6949 0.7091
vn 0.9306 0.0138 0.3658
vn 0.8288 -0.4881 0.2736
vn 0.0425 -0.9987 -0.0292
vn 0.4727 0.6974 0.5387
vn -0.4174 0.7589 0.4998
vn 0.8744 0.1998 0.4422
vn 0.8784 -0.3037 0.3689
vn 0.2219 -0.9650 -0.1396
vn -0.5633 -0.7416 -0.3643
vn -0.9306 -0.3265 -0.1657
vn -0.9480 0.2599 0.1835
vn -0.5344 0.8297 0.1612
vn -0.8262 -0.3240 -0.4608
vn -0.9421 0.2751 -0.1915
vn 0.4140 0.7252 0.5502
vn 0.8002 0.3124 0.5119
vn 0.8498 -0.1979 0.4886
vn 0.2753 -0.9474 -0.1629
vn -0.4058 -0.7704 -0.4918
vn -0.8523 0.2902 -0.4351
vn -0.5115 0.8580 0.0477
vn 0.7899 -0.2449 0.5621
vn -0.2030 -0.7481 -0.6318
vn -0.7574 -0.2563 -0.6005
vn 0.5236 0.7244 0.4485
vn -0.2338 0.9436 -0.2346
vn 0.7673 0.3096 0.5616
vn 0.8520 -0.2430 0.4637
vn 0.4643 -0.8524 -0.2404
vn -0.5041 -0.1355 -0.8529
vn 0.6413 0.6656 0.3818
vn 0.0288 0.9183 -0.3948
vn 0.9714 -0.1772 0.1579
vn -0.0367 -0.6831 -0.7294
vn -0.3590 -0.0525 -0.9318
vn -0.3291 0.4360 -0.8376
vn 0.5464 0.1056 0.8308
vn 0.1650 0.9719 -0.1677
vn 0.6892 -0.6463 0.3277
vn -0.5035 -0.5223 -0.6882
vn -0.3826 0.0389 -0.9231
vn 0.1514 -0.1524 0.9766
vn 0.1829 -0.7339 0.6542
vn -0.3482 -0.9371 0.0234
vn -0.5432 -0.2465 -0.8026
vn -0.3510 0.1971 -0.9154
vn -0.2660 0.6471 -0.7145
vn 0.0044 0.9588 0.2840
vn 0.1723 0.3097 0.9351
vn 0.2715 0.8900 0.3664
vn 0.1419 -0.3241 0.9353
vn 0.0847 -0.8174 0.5699
vn -0.2399 -0.9518 -0.1909
vn -0.2637 -0.1467 -0.9534
vn -0.1563 0.3210 -0.9341
vn 0.0172 0.7185 -0.6953
vn 0.0713 0.1929 0.9786
vn 0.3772 0.7994 0.4677
vn 0.0559 -0.4760 0.8776
vn -0.0818 -0.8600 0.5036
vn -0.1418 -0.9170 -0.3727
vn 0.0045 -0.0205 -0.9998
vn 0.2535 0.7760 -0.5775
vn -0.1223 0.0936 0.9881
vn 0.2395 0.7746 0.5854
vn -0.1512 -0.6227 0.7677
vn -0.2152 -0.7761 -0.5927
vn 0.0883 0.0336 -0.9955
vn 0.0890 0.5306 -0.8429
vn 0.3927 0.8380 -0.3788
vn -0.1505 -0.0179 0.9884
vn 0.3320 0.6965 0.6361
vn -0.3497 -0.6057 0.7148
vn -0.4420 -0.8445 0.3022
vn -0.0247 -0.7677 -0.6403
vn 0.3305 0.4935 -0.8045
vn 0.4792 0.8483 -0.2252
vn -0.2762 -0.9332 0.2297
vn 0.3130 -0.7220 -0.6171
vn 0.6692 0.3917 -0.6314
vn 0.6434 0.7621 -0.0719
vn -0.1574 -0.1046 0.9820
vn 0.4291 0.6815 0.5927
vn -0.0789 -0.9807 0.1790
vn 0.4900 -0.6052 -0.6274
vn -0.4587 -0.1840 0.8694
vn 0.3142 0.7913 0.5246
vn 0.5505 -0.2910 -0.7825
vn 0.7620 0.3489 -0.5456
vn 0.5391 -0.4285 -0.7251
vn -0.5744 -0.0678 0.8158
vn 0.4176 0.6878 0.5937
vn 0.6835 -0.5086 0.5235
vn 0.0365 -0.6213 -0.7828
vn -0.3845 -0.2463 0.8897
vn -0.6846 0.5977 0.4172
vn 0.1067 -0.9939 -0.0270
vn -0.0505 -0.5942 -0.8027
vn -0.6177 0.4114 -0.6702
vn -0.7286 0.4314 0.5320
vn -0.6339 0.7214 -0.2789
vn -0.2827 0.0744 0.9563
vn -0.0964 -0.3845 0.9181
vn 0.3306 -0.9369 0.1139
vn 0.3067 -0.6902 -0.6555
vn 0.1814 -0.3876 -0.9038
vn -0.3246 0.2173 -0.9205
vn -0.7181 0.5430 0.4353
vn -0.5856 0.6614 -0.4687
vn -0.2652 -0.2157 0.9398
vn 0.3100 -0.9097 0.2763
vn -0.0362 0.2004 -0.9790
vn -0.6310 0.5192 -0.5765
vn -0.4717 -0.3768 0.7972
vn 0.1286 -0.9552 0.2665
vn 0.2885 -0.8353 -0.4681
vn -0.1052 0.1331 -0.9855
vn -0.7491 0.5536 0.3639
vn -0.5382 0.5780 -0.6134
vn -0.5327 0.2916 0.7944
vn -0.4222 -0.3777 0.8241
vn 0.0978 -0.9571 0.2729
vn 0.3234 -0.8220 -0.4687
vn 0.3096 -0.3524 -0.8832
vn 0.0716 0.1329 -0.9885
vn -0.5732 0.6708 0.4706
vn -0.1371 0.8524 -0.5046
vn -0.1468 -0.1728 0.9740
vn 0.3613 -0.8293 0.4263
vn 0.6260 -0.6896 -0.3641
vn 0.6144 -0.1826 -0.7676
vn 0.3822 0.3082 -0.8712
vn -0.5952 0.6129 0.5197
vn 0.0330 0.9624 -0.2696
vn -0.5647 0.1873 0.8038
vn -0.2578 -0.3566 0.8980
vn 0.3868 -0.8360 0.3893
vn 0.7773 -0.5384 -0.3256
vn 0.7490 -0.0375 -0.6615
vn 0.5340 0.4628 -0.7076
vn 0.7753 0.1636 -0.6100
vn -0.7772 0.3565 0.5186
vn -0.2247 0.9721 -0.0676
vn -0.7092 -0.1241 0.6939
vn -0.3531 -0.6727 0.6503
vn 0.2865 -0.9412 0.1791
vn 0.7876 -0.3957 -0.4724
vn 0.5866 0.6283 -0.5110
vn -0.1585 0.9666 0.2015
vn 0.3286 -0.9443 0.0162
vn 0.9001 -0.2523 -0.3553
vn 0.8339 0.3219 -0.4483
vn 0.6463 0.7107 -0.2778
vn -0.8750 0.1916 0.4446
vn -0.5538 0.8251 0.1123
vn -0.8397 -0.4475 0.3076
vn -0.3692 -0.8595 0.3535
vn 0.8824 0.0809 -0.4636
vn 0.8399 0.4492 -0.3048
vn -0.9940 0.1051 -0.0317
vn -0.4690 -0.8800 -0.0756
vn 0.3767 -0.7837 -0.4938
vn 0.4347 0.8881 -0.1492
vn -0.9942 0.1057 -0.0200
vn -0.6153 0.7650 0.1901
vn -0.8077 -0.5799 -0.1061
vn -0.4161 -0.8869 -0.2008
vn 0.5114 -0.7334 -0.4478
vn 0.9614 0.1276 -0.2436
vn 0.8321 0.5392 -0.1298
vn 0.3412 0.9384 -0.0546
vn -0.9889 0.0357 0.1439
vn -0.7819 -0.6234 -0.0032
vn 0.5738 -0.8179 -0.0420
vn 0.9935 0.0251 0.1110
vn 0.8527 0.4886 0.1849
vn 0.3633 0.7983 0.4803
vn -0.9918 -0.0161 0.1266
vn 0.2558 0.7528 0.6065
vn -0.7935 -0.6033 -0.0791
vn -0.4104 -0.8722 -0.2662
vn 0.5894 -0.8078 0.0084
vn 0.9662 -0.0705 0.2481
vn 0.8284 0.4119 0.3796
vn -0.4602 0.8129 0.3570
vn -0.8239 -0.4724 -0.3132
vn -0.4616 -0.8028 -0.3774
vn 0.8200 0.3291 0.4683
vn 0.2965 0.7379 0.6063
vn -0.9961 0.0504 -0.0722
vn -0.3449 0.6817 0.6452
vn -0.5800 -0.7016 -0.4141
vn 0.6712 -0.7269 0.1452
vn 0.8030 0.1856 0.5664
vn 0.3194 0.6280 0.7096
vn -0.9931 -0.0220 -0.1152
vn 0.7235 -0.5617 0.4013
vn -0.8976 -0.1023 -0.4287
vn -0.2414 0.7940 0.5579
vn -0.4100 -0.7923 -0.4518
vn 0.6486 0.1534 0.7455
vn -0.3671 -0.7602 -0.5360
vn 0.7437 -0.6269 0.2322
vn 0.4871 0.3561 0.7974
vn -0.4603 0.6952 0.5522
vn -0.9057 0.0455 -0.4215
vn -0.2544 -0.6466 0.7191
vt 0.501817 0.000000
vt 0.853553 0.050000
vt 1.000000 0.050000
vt 0.500000 0.050000
vt 0.146447 0.050000
vt 0.000000 0.050000
vt 0.853553 0.100000
vt 1.000000 0.106748
vt 0.500000 0.128624
vt 0.146447 0.100000
vt 0.000000 0.101993
vt 0.146447 0.115754
vt 0.500000 0.106867
vt 0.853553 0.183686
vt 0.146447 0.192103
vt 0.853553 0.192763
vt 1.000000 0.235193
vt 0.500000 0.200000
vt 0.146121 0.200000
vt 0.500000 0.268387
vt 0.146447 0.250000
vt 0.000000 0.250000
vt 0.146447 0.251464
vt 0.500000 0.250000
vt 0.853553 0.250000
vt 0.995977 0.300000
vt 0.146447 0.300000
vt 0.000000 0.300000
vt 0.500000 0.338025
vt 0.853553 0.328670
vt 0.853553 0.350000
vt 1.000000 0.350000
vt 0.500000 0.350000
vt 0.146447 0.350000
vt 0.000000 0.350000
vt 0.853553 0.400000
vt 1.000000 0.410830
vt 0.500000 0.400000
vt 0.146447 0.400000
vt 0.000000 0.400000
vt 0.853553 0.450000
vt 0.500000 0.450000
vt 0.146447 0.450000
vt 0.000000 0.450000
vt 0.853553 0.500000
vt 1.000000 0.500000
vt 0.500000 0.500000
vt 0.146447 0.500000
vt 0.000000 0.500000
vt 0.853553 0.550000
vt 1.000000 0.550000
vt 0.500000 0.550000
vt 0.146447 0.550000
vt 0.000000 0.550000
vt 0.853553 0.600000
vt 1.000000 0.600000
vt 0.500000 0.600000
vt 0.146447 0.606934
vt 0.000000 0.603272
vt 0.146447 0.600000
vt 0.853553 0.650000
vt 1.000000 0.650000
vt 0.500000 0.650000
vt 0.146447 0.650000
vt 0.525760 0.700000
vt 1.000000 0.700000
vt 0.140321 0.700000
vt 0.146447 0.718253
vt 0.500000 0.700000
vt 0.853553 0.724136
vt 0.497498 0.750000
vt 1.000000 0.750000
vt 0.146447 0.750000
vt 0.000000 0.750000
vt 0.500000 0.796974
vt 0.853553 0.825176
vt 1.000000 0.811676
vt 0.500000 0.824779
vt 0.146447 0.827146
vt 0.000000 0.800000
vt 0.146447 0.800000
vt 0.853553 0.800000
vt 0.000000 0.870224
vt 0.146447 0.850000
vt 0.500000 0.850000
vt 0.853553 0.850000
vt 0.853553 0.911974
vt 1.000000 0.918221
vt 0.500000 0.917564
vt 0.146447 0.913346
vt 0.146447 0.935315
vt 0.500000 0.931602
vt 0.853553 0.926582
vt 0.000000 0.989903
vt 0.853553 1.002558
vt 1.000000 1.000912
vt 0.427386 1.000000
vt 0.146447 1.000000
vt 0.500000 1.010249
vt 0.853553 1.000000
vt 0.350837 1.087133
vt 0.019679 1.069202
vt 0.862120 1.080375
vt 0.853553 1.105642
vt 0.489341 1.198676
vt 0.495931 0.090000
vt 0.550454 0.140000
vt 1.000000 0.140000
vt 0.146447 0.140000
vt 0.129815 0.140000
vt 0.500000 0.140000
vt 0.853553 0.140000
vt 0.853553 0.195753
vt 1.000000 0.190000
vt 0.500000 0.190000
vt 0.146447 0.190000
vt 0.000000 0.192843
vt 0.146447 0.190221
vt 0.853553 0.191867
vt 1.000000 0.284288
vt 0.500000 0.279041
vt 0.146447 0.280905
vt 0.500000 0.287444
vt 0.853553 0.295917
vt 0.000000 0.290000
vt 0.180799 0.294858
vt 0.853553 0.290000
vt 1.000000 0.340000
vt 0.500000 0.371097
vt 0.146447 0.373957
vt 0.000000 0.340000
vt 0.146447 0.340000
vt 0.853553 0.373031
vt 0.853553 0.390000
vt 1.000000 0.390000
vt 0.000000 0.390000
vt 0.146447 0.390000
vt 0.853201 0.439950
vt 0.853553 0.440000
vt 1.000000 0.440000
vt 0.472836 0.440000
vt 0.000000 0.440000
vt 0.146447 0.440000
vt 0.500000 0.440000
vt 0.853553 0.490000
vt 1.000000 0.490000
vt 0.500000 0.490000
vt 0.146447 0.490000
vt 0.000000 0.490000
vt 0.146447 0.511893
vt 0.853553 0.540000
vt 1.000000 0.540000
vt 0.500000 0.546040
vt 0.146447 0.540000
vt 0.000000 0.540000
vt 0.500000 0.540000
vt 0.853553 0.590000
vt 1.000000 0.590000
vt 0.146447 0.590000
vt 0.000000 0.590000
vt 0.500000 0.592465
vt 0.853553 0.640000
vt 1.000000 0.640000
vt 0.500000 0.640000
vt 0.146447 0.664398
vt 0.000000 0.640000
vt 0.146447 0.640000
vt 0.853553 0.683098
vt 0.853553 0.690000
vt 1.000000 0.690000
vt 0.500000 0.690000
vt 0.000000 0.691791
vt 0.146447 0.690000
vt 0.501858 0.789737
vt 1.000000 0.740000
vt 0.500000 0.740000
vt 0.146447 0.740000
vt 0.853553 0.740000
vt 0.505682 0.839196
vt 1.000000 0.790000
vt 0.146447 0.790000
vt 0.000000 0.790000
vt 0.842942 0.790000
vt 0.996887 0.840000
vt 0.007359 0.840000
vt 0.146447 0.840000
vt 0.858622 0.840000
vt 0.853553 0.890000
vt 1.000000 0.890000
vt 0.500000 0.928557
vt 0.000000 0.890000
vt 0.146447 0.890000
vt 0.500000 0.890000
vt 0.857776 0.940000
vt 0.146447 0.940000
vt 0.000000 0.940000
vt 0.500000 0.940000
vt 0.853553 0.940000
vt 0.853553 0.990000
vt 1.000000 1.017117
vt 0.500000 0.990000
vt 0.146447 1.013783
vt 0.000000 0.990000
vt 0.146447 0.990000
vt 0.500000 0.998184
vt 0.853553 1.072556
vt 0.500000 1.057637
vt 0.000000 1.040000
vt 0.146447 1.075655
vt 0.853553 1.062842
vt 1.000000 1.163664
vt 0.146447 1.113455
vt 0.000000 1.110218
vt 0.500000 1.107189
vt 0.146447 1.141473
vt -0.198995 1.226199
vt -0.009446 1.226400
vt 0.436128 1.289968
vt 0.545183 0.180000
vt 0.491089 0.231260
vt 0.990783 0.230000
vt 0.023957 0.230000
vt 0.154496 0.231138
vt 0.854558 0.230000
vt 0.853553 0.295473
vt 1.000000 0.280000
vt 0.500000 0.280000
vt 0.000000 0.280000
vt 0.146330 0.283989
vt 0.853553 0.290906
vt 1.000000 0.377472
vt 0.500000 0.378677
vt 0.007441 0.330000
vt 0.853553 0.380000
vt 0.146447 0.380000
vt 0.000000 0.380000
vt 0.146447 0.387437
vt 0.500000 0.383548
vt 0.853553 0.388824
vt 0.853553 0.430000
vt 1.000000 0.430000
vt 0.500000 0.430000
vt 0.146447 0.430000
vt 0.000000 0.430000
vt 0.853553 0.494028
vt 1.000000 0.480000
vt 0.500000 0.506737
vt 0.146447 0.505175
vt 0.000000 0.490963
vt 0.146447 0.488658
vt 0.500000 0.480000
vt 0.853553 0.480000
vt 1.000000 0.552202
vt 0.500000 0.548705
vt 0.853553 0.530000
vt 0.853553 0.613863
vt 0.500000 0.582424
vt 0.146447 0.580000
vt 0.000000 0.613013
vt 0.853553 0.615695
vt 1.000000 0.630000
vt 0.146447 0.630000
vt 0.146447 0.677518
vt 0.500000 0.630000
vt 0.853553 0.680000
vt 1.000111 0.680000
vt 0.500000 0.701042
vt 0.146447 0.680000
vt 0.000000 0.680000
vt 0.500000 0.680000
vt 0.853553 0.730000
vt 1.000000 0.730000
vt 0.146447 0.730000
vt 0.144605 0.730000
vt 0.500000 0.730000
vt 0.853553 0.762512
vt 0.507272 0.780000
vt 0.974635 0.788660
vt 0.146183 0.780000
vt 0.146447 0.780000
vt 0.500000 0.780000
vt 0.500000 0.830000
vt 0.146447 0.830000
vt 0.000000 0.830000
vt 0.853553 0.830000
vt 1.000000 0.830000
vt 0.853553 0.880000
vt 1.000000 0.880000
vt 0.500000 0.880000
vt 0.146447 0.880000
vt 0.000000 0.880000
vt 0.853553 0.930000
vt 1.000000 0.930000
vt 0.500000 0.930000
vt 0.146447 0.930000
vt 0.000000 0.930000
vt 0.156801 0.930000
vt 0.853553 0.980000
vt 1.000000 0.980000
vt 0.504713 0.980000
vt 0.000000 0.980000
vt 0.146447 0.980000
vt 0.500000 0.980000
vt 0.853553 1.048059
vt 1.000000 1.073643
vt 0.500000 1.030000
vt 0.146447 1.030000
vt 0.000000 1.030000
vt 0.496494 1.030000
vt 0.853553 1.030000
vt 0.157039 1.080000
vt 0.006553 1.080000
vt 0.500000 1.081445
vt 0.853553 1.080000
vt 0.836282 1.130000
vt 0.987990 1.130000
vt 0.143680 1.158937
vt 0.013399 1.130000
vt 0.798510 1.189336
vt 0.991939 1.204083
vt 0.108761 1.180000
vt 0.504410 1.211100
vt 0.136242 1.241626
vt 0.036529 1.331952
vt 1.047506 1.283587
vt 0.483279 1.379548
vt 0.481777 0.270000
vt 0.500000 0.320000
vt 0.911340 0.320000
vt 0.022543 0.320000
vt 0.141466 0.319355
vt 0.853553 0.332850
vt 0.853553 0.404925
vt 1.000000 0.394742
vt 0.500000 0.394470
vt 0.146447 0.392860
vt 0.000000 0.403460
vt 0.146447 0.384452
vt 0.500000 0.433712
vt 0.853553 0.420000
vt 0.853553 0.513265
vt 1.000000 0.470000
vt 0.168659 0.470000
vt -0.000538 0.470000
vt 0.853553 0.470000
vt 1.000000 0.520000
vt 0.155843 0.520000
vt 0.000000 0.520000
vt 0.146447 0.520000
vt 0.853553 0.520000
vt 0.853553 0.570000
vt 1.000000 0.570000
vt 0.500000 0.617921
vt 0.146447 0.570000
vt 0.000000 0.570000
vt 0.500000 0.570000
vt 0.853553 0.620000
vt 1.000000 0.620000
vt 0.146447 0.620000
vt 0.000000 0.620000
vt 0.500000 0.620000
vt 0.853553 0.705813
vt 1.000000 0.692394
vt 0.500000 0.703670
vt 0.146447 0.707936
vt 0.000000 0.706066
vt 0.146447 0.705194
vt 0.500000 0.670000
vt 0.853553 0.681902
vt 0.500000 0.766322
vt 0.853553 0.790115
vt 1.000000 0.770000
vt 0.500000 0.788628
vt 0.146447 0.797492
vt 0.000000 0.770000
vt 0.146447 0.770000
vt 0.853553 0.770000
vt 1.000000 0.820000
vt 0.000000 0.867275
vt 0.146447 0.820000
vt 0.500000 0.820000
vt 0.853553 0.830788
vt 0.853553 0.870000
vt 1.000000 0.905125
vt 0.500000 0.885077
vt 0.146447 0.870000
vt 0.146447 0.891530
vt 0.500000 0.891040
vt 0.853553 0.920000
vt 0.146447 0.920000
vt 0.000000 0.920000
vt 0.853553 0.970000
vt 1.000000 0.973602
vt 0.500000 0.970000
vt 0.146447 0.986276
vt 0.000000 0.970000
vt 0.146447 0.970000
vt 0.853553 1.020000
vt 0.500000 1.020000
vt 0.000000 1.020000
vt 0.146447 1.020000
vt 0.853553 1.099370
vt 0.860397 1.070000
vt 0.500000 1.070000
vt 0.146447 1.070000
vt 0.000000 1.101176
vt 0.146447 1.080106
vt 1.000000 1.120000
vt 0.500000 1.128439
vt 0.146447 1.120000
vt 0.500000 1.120000
vt 0.853553 1.120000
vt 0.853553 1.170000
vt 1.000000 1.180466
vt 0.146447 1.171865
vt 0.010202 1.170000
vt 0.500000 1.177186
vt 0.853553 1.173391
vt 0.818557 1.220000
vt 0.131017 1.229463
vt 0.581645 1.275988
vt 1.000000 1.288456
vt 0.040770 1.273268
vt 0.526748 1.278881
vt 0.033819 1.361852
vt 0.146447 1.358924
vt 0.826752 1.365043
vt 0.994374 1.370000
vt 0.551280 1.399020
vt 0.536619 1.469728
s 1
f 1/1/1 3/2/2 2/3/3
f 1/1/1 4/4/4 3/2/2
f 1/1/1 5/5/5 4/4/4
f 1/1/1 6/6/6 5/5/5
f 1/1/1 7/5/7 6/6/6
f 1/1/1 8/4/8 7/5/7
f 1/1/1 9/2/9 8/4/8
f 1/1/1 2/3/3 9/2/9
f 2/3/3 3/2/2 11/7/10
f 2/3/3 11/7/10 10/8/11
f 3/2/2 4/4/4 12/9/12
f 3/2/2 12/9/12 11/7/10
f 4/4/4 5/5/5 13/10/13
f 4/4/4 13/10/13 12/9/12
f 5/5/5 6/6/6 14/11/14
f 5/5/5 14/11/14 13/10/13
f 6/6/6 7/5/7 15/12/15
f 6/6/6 15/12/15 14/11/14
f 7/5/7 8/4/8 16/13/16
f 7/5/7 16/13/16 15/12/15
f 8/4/8 9/2/9 17/7/17
f 8/4/8 17/7/17 16/13/16
f 9/2/9 2/3/3 10/8/11
f 9/2/9 10/8/11 17/7/17
f 10/8/11 11/7/10 18/14/18
f 11/7/10 12/9/12 18/14/18
f 12/9/12 13/10/13 19/15/19
f 13/10/13 14/11/14 19/15/19
f 16/13/16 17/7/17 20/16/20
f 17/7/17 10/8/11 20/16/20
f 10/8/11 18/14/18 21/17/21
f 18/14/18 12/9/12 22/18/22
f 12/9/12 19/15/19 22/18/22
f 19/15/19 14/11/14 23/19/23
f 14/11/14 15/12/15 23/19/23
f 15/12/15 16/13/16 24/18/24
f 15/12/15 24/18/24 23/19/23
f 16/13/16 20/16/20 24/18/24
f 20/16/20 10/8/11 21/17/21
f 18/14/18 22/18/22 25/20/25
f 22/18/22 19/15/19 26/21/26
f 22/18/22 26/21/26 25/20/25
f 19/15/19 23/19/23 27/22/27
f 19/15/19 27/22/27 26/21/26
f 23/19/23 28/23/28 27/22/27
f 23/19/23 24/18/24 29/24/29
f 23/19/23 29/24/29 28/23/28
f 24/18/24 20/16/20 30/25/30
f 24/18/24 30/25/30 29/24/29
f 20/16/20 21/17/21 30/25/30
f 21/17/21 18/14/18 31/26/31
f 18/14/18 25/20/25 31/26/31
f 25/20/25 26/21/26 32/27/32
f 26/21/26 27/22/27 33/28/33
f 26/21/26 33/28/33 32/27/32
f 27/22/27 28/23/28 33/28/33
f 28/23/28 29/24/29 34/29/34
f 29/24/29 30/25/30 35/30/35
f 29/24/29 35/30/35 34/29/34
f 30/25/30 21/17/21 31/26/31
f 30/25/30 31/26/31 35/30/35
f 31/26/31 37/31/36 36/32/37
f 31/26/31 25/20/25 38/33/38
f 31/26/31 38/33/38 37/31/36
f 25/20/25 32/27/32 39/34/39
f 25/20/25 39/34/39 38/33/38
f 32/27/32 33/28/33 40/35/40
f 32/27/32 40/35/40 39/34/39
f 33/28/33 28/23/28 41/34/41
f 33/28/33 41/34/41 40/35/40
f 28/23/28 34/29/34 41/34/41
f 35/30/35 31/26/31 36/32/37
f 36/32/37 37/31/36 43/36/42
f 36/32/37 43/36/42 42/37/43
f 37/31/36 38/33/38 44/38/44
f 37/31/36 44/38/44 43/36/42
f 38/33/38 39/34/39 45/39/45
f 38/33/38 45/39/45 44/38/44
f 39/34/39 40/35/40 46/40/46
f 39/34/39 46/40/46 45/39/45
f 40/35/40 41/34/41 47/39/47
f 40/35/40 47/39/47 46/40/46
f 41/34/41 34/29/34 48/38/48
f 41/34/41 48/38/48 47/39/47
f 34/29/34 35/30/35 49/36/49
f 34/29/34 49/36/49 48/38/48
f 35/30/35 36/32/37 42/37/43
f 35/30/35 42/37/43 49/36/49
f 42/37/43 43/36/42 50/41/50
f 43/36/42 44/38/44 51/42/51
f 43/36/42 51/42/51 50/41/50
f 44/38/44 45/39/45 52/43/52
f 44/38/44 52/43/52 51/42/51
f 45/39/45 46/40/46 53/44/53
f 45/39/45 53/44/53 52/43/52
f 46/40/46 47/39/47 54/43/54
f 46/40/46 54/43/54 53/44/53
f 47/39/47 48/38/48 55/42/55
f 47/39/47 55/42/55 54/43/54
f 48/38/48 49/36/49 56/41/56
f 48/38/48 56/41/56 55/42/55
f 49/36/49 42/37/43 56/41/56
f 42/37/43 50/41/50 58/45/57
f 42/37/43 58/45/57 57/46/58
f 50/41/50 51/42/51 59/47/59
f 50/41/50 59/47/59 58/45/57
f 51/42/51 52/43/52 60/48/60
f 51/42/51 60/48/60 59/47/59
f 52/43/52 53/44/53 61/49/61
f 52/43/52 61/49/61 60/48/60
f 53/44/53 54/43/54 62/48/62
f 53/44/53 62/48/62 61/49/61
f 54/43/54 55/42/55 63/47/63
f 54/43/54 63/47/63 62/48/62
f 55/42/55 56/41/56 64/45/64
f 55/42/55 64/45/64 63/47/63
f 56/41/56 42/37/43 57/46/58
f 56/41/56 57/46/58 64/45/64
f 57/46/58 58/45/57 66/50/65
f 57/46/58 66/50/65 65/51/66
f 58/45/57 59/47/59 67/52/67
f 58/45/57 67/52/67 66/50/65
f 59/47/59 60/48/60 68/53/68
f 59/47/59 68/53/68 67/52/67
f 60/48/60 61/49/61 69/54/69
f 60/48/60 69/54/69 68/53/68
f 61/49/61 62/48/62 70/53/70
f 61/49/61 70/53/70 69/54/69
f 62/48/62 63/47/63 71/52/71
f 62/48/62 71/52/71 70/53/70
f 63/47/63 64/45/64 72/50/72
f 63/47/63 72/50/72 71/52/71
f 64/45/64 57/46/58 65/51/66
f 64/45/64 65/51/66 72/50/72
f 65/51/66 66/50/65 74/55/73
f 65/51/66 74/55/73 73/56/74
f 66/50/65 67/52/67 75/57/75
f 66/50/65 75/57/75 74/55/73
f 67/52/67 68/53/68 76/58/76
f 67/52/67 76/58/76 75/57/75
f 68/53/68 69/54/69 77/59/77
f 68/53/68 77/59/77 76/58/76
f 69/54/69 70/53/70 78/60/78
f 69/54/69 78/60/78 77/59/77
f 70/53/70 71/52/71 79/57/79
f 70/53/70 79/57/79 78/60/78
f 71/52/71 72/50/72 80/55/80
f 71/52/71 80/55/80 79/57/79
f 72/50/72 65/51/66 73/56/74
f 72/50/72 73/56/74 80/55/80
f 73/56/74 74/55/73 82/61/81
f 73/56/74 82/61/81 81/62/82
f 74/55/73 75/57/75 83/63/83
f 74/55/73 83/63/83 82/61/81
f 75/57/75 76/58/76 83/63/83
f 77/59/77 78/60/78 84/64/84
f 78/60/78 79/57/79 85/63/85
f 78/60/78 85/63/85 84/64/84
f 79/57/79 80/55/80 86/61/86
f 79/57/79 86/61/86 85/63/85
f 80/55/80 73/56/74 81/62/82
f 80/55/80 81/62/82 86/61/86
f 81/62/82 82/61/81 88/65/87
f 81/62/82 88/65/87 87/66/88
f 82/61/81 83/63/83 88/65/87
f 83/63/83 76/58/76 89/67/89
f 83/63/83 89/67/89 88/65/87
f 76/58/76 77/59/77 89/67/89
f 77/59/77 84/64/84 90/68/90
f 77/59/77 90/68/90 89/67/89
f 84/64/84 85/63/85 91/69/91
f 84/64/84 91/69/91 90/68/90
f 85/63/85 86/61/86 92/70/92
f 85/63/85 92/70/92 91/69/91
f 86/61/86 81/62/82 87/66/88
f 86/61/86 87/66/88 92/70/92
f 87/66/88 88/65/87 94/71/93
f 87/66/88 94/71/93 93/72/94
f 88/65/87 89/67/89 95/73/95
f 88/65/87 95/73/95 94/71/93
f 89/67/89 96/74/96 95/73/95
f 89/67/89 90/68/90 96/74/96
f 90/68/90 91/69/91 97/75/97
f 91/69/91 92/70/92 97/75/97
f 92/70/92 87/66/88 93/72/94
f 93/72/94 94/71/93 99/76/98
f 93/72/94 99/76/98 98/77/99
f 94/71/93 100/78/100 99/76/98
f 94/71/93 95/73/95 101/79/101
f 94/71/93 101/79/101 100/78/100
f 95/73/95 96/74/96 102/80/102
f 95/73/95 102/80/102 101/79/101
f 96/74/96 90/68/90 103/81/103
f 96/74/96 103/81/103 102/80/102
f 90/68/90 97/75/97 103/81/103
f 97/75/97 92/70/92 104/82/104
f 92/70/92 93/72/94 98/77/99
f 92/70/92 98/77/99 104/82/104
f 101/79/101 102/80/102 105/83/105
f 102/80/102 103/81/103 106/84/106
f 102/80/102 106/84/106 105/83/105
f 103/81/103 97/75/97 107/85/107
f 103/81/103 107/85/107 106/84/106
f 97/75/97 104/82/104 108/86/108
f 97/75/97 108/86/108 107/85/107
f 104/82/104 98/77/99 108/86/108
f 98/77/99 99/76/98 110/87/109
f 98/77/99 110/87/109 109/88/110
f 99/76/98 100/78/100 111/89/111
f 99/76/98 111/89/111 110/87/109
f 100/78/100 101/79/101 112/90/112
f 100/78/100 112/90/112 111/89/111
f 101/79/101 105/83/105 112/90/112
f 105/83/105 106/84/106 113/91/113
f 106/84/106 107/85/107 114/92/114
f 106/84/106 114/92/114 113/91/113
f 107/85/107 108/86/108 115/93/115
f 107/85/107 115/93/115 114/92/114
f 108/86/108 98/77/99 109/88/110
f 108/86/108 109/88/110 115/93/115
f 112/90/112 105/83/105 116/94/116
f 105/83/105 113/91/113 116/94/116
f 109/88/110 110/87/109 118/95/117
f 109/88/110 118/95/117 117/96/118
f 110/87/109 111/89/111 119/97/119
f 110/87/109 119/97/119 118/95/117
f 111/89/111 112/90/112 119/97/119
f 112/90/112 116/94/116 119/97/119
f 116/94/116 113/91/113 120/98/120
f 113/91/113 114/92/114 121/99/121
f 113/91/113 121/99/121 120/98/120
f 114/92/114 115/93/115 122/100/122
f 114/92/114 122/100/122 121/99/121
f 115/93/115 109/88/110 117/96/118
f 115/93/115 117/96/118 122/100/122
f 118/95/117 119/97/119 123/101/123
f 119/97/119 116/94/116 124/102/124
f 119/97/119 124/102/124 123/101/123
f 116/94/116 120/98/120 124/102/124
f 120/98/120 121/99/121 124/102/124
f 121/99/121 122/100/122 125/103/125
f 122/100/122 117/96/118 125/103/125
f 117/96/118 118/95/117 126/104/126
f 117/96/118 126/104/126 125/103/125
f 118/95/117 123/101/123 126/104/126
f 124/102/124 121/99/121 127/105/127
f 121/99/121 125/103/125 127/105/127
f 125/103/125 126/104/126 127/105/127
f 126/104/126 123/101/123 127/105/127
f 123/101/123 124/102/124 127/105/127
f 128/106/128 130/107/129 129/108/130
f 128/106/128 131/109/131 130/107/129
f 128/106/128 132/110/132 131/109/131
f 128/106/128 133/111/133 132/110/132
f 128/106/128 134/112/134 133/111/133
f 128/106/128 129/108/130 134/112/134
f 129/108/130 130/107/129 136/113/135
f 129/108/130 136/113/135 135/114/136
f 130/107/129 137/115/137 136/113/135
f 130/107/129 131/109/131 138/116/138
f 130/107/129 138/116/138 137/115/137
f 131/109/131 132/110/132 139/117/139
f 131/109/131 139/117/139 138/116/138
f 132/110/132 140/118/140 139/117/139
f 132/110/132 133/111/133 141/115/141
f 132/110/132 141/115/141 140/118/140
f 133/111/133 134/112/134 142/119/142
f 133/111/133 142/119/142 141/115/141
f 134/112/134 129/108/130 135/114/136
f 134/112/134 135/114/136 142/119/142
f 135/114/136 136/113/135 143/120/143
f 136/113/135 137/115/137 144/121/144
f 137/115/137 138/116/138 145/122/145
f 137/115/137 145/122/145 144/121/144
f 138/116/138 139/117/139 145/122/145
f 140/118/140 141/115/141 146/123/146
f 141/115/141 142/119/142 146/123/146
f 142/119/142 135/114/136 143/120/143
f 143/120/143 136/113/135 147/124/147
f 136/113/135 144/121/144 147/124/147
f 145/122/145 139/117/139 148/125/148
f 139/117/139 140/118/140 149/126/149
f 139/117/139 149/126/149 148/125/148
f 140/118/140 146/123/146 149/126/149
f 146/123/146 142/119/142 150/127/150
f 142/119/142 143/120/143 150/127/150
f 143/120/143 147/124/147 151/128/151
f 147/124/147 144/121/144 152/129/152
f 144/121/144 145/122/145 153/130/153
f 144/121/144 153/130/153 152/129/152
f 145/122/145 148/125/148 154/131/154
f 145/122/145 154/131/154 153/130/153
f 148/125/148 149/126/149 155/132/155
f 148/125/148 155/132/155 154/131/154
f 146/123/146 150/127/150 156/133/156
f 146/123/146 156/133/156 149/126/149
f 150/127/150 143/120/143 151/128/151
f 150/127/150 151/128/151 156/133/156
f 151/128/151 147/124/147 158/134/157
f 151/128/151 158/134/157 157/135/158
f 147/124/147 152/129/152 158/134/157
f 153/130/153 154/131/154 159/136/159
f 154/131/154 155/132/155 160/137/160
f 154/131/154 160/137/160 159/136/159
f 155/132/155 149/126/149 161/138/161
f 155/132/155 161/138/161 160/137/160
f 149/126/149 156/133/156 161/138/161
f 156/133/156 151/128/151 157/135/158
f 157/135/158 158/134/157 163/139/162
f 157/135/158 163/139/162 162/140/163
f 158/134/157 152/129/152 164/141/164
f 158/134/157 164/141/164 163/139/162
f 152/129/152 153/130/153 164/141/164
f 153/130/153 159/136/159 165/142/165
f 153/130/153 165/142/165 164/141/164
f 159/136/159 160/137/160 166/143/166
f 159/136/159 166/143/166 165/142/165
f 160/137/160 161/138/161 167/144/167
f 160/137/160 167/144/167 166/143/166
f 156/133/156 157/135/158 162/140/163
f 156/133/156 162/140/163 161/138/161
f 162/140/163 163/139/162 169/145/168
f 162/140/163 169/145/168 168/146/169
f 163/139/162 164/141/164 170/147/170
f 163/139/162 170/147/170 169/145/168
f 164/141/164 171/148/171 170/147/170
f 164/141/164 165/142/165 172/149/172
f 164/141/164 172/149/172 171/148/171
f 165/142/165 166/143/166 173/150/173
f 165/142/165 173/150/173 172/149/172
f 166/143/166 167/144/167 174/147/174
f 166/143/166 174/147/174 173/150/173
f 167/144/167 161/138/161 175/145/175
f 167/144/167 175/145/175 174/147/174
f 161/138/161 162/140/163 168/146/169
f 161/138/161 168/146/169 175/145/175
f 168/146/169 169/145/168 177/151/176
f 168/146/169 177/151/176 176/152/177
f 169/145/168 170/147/170 178/153/178
f 169/145/168 178/153/178 177/151/176
f 170/147/170 171/148/171 179/154/179
f 170/147/170 179/154/179 178/153/178
f 171/148/171 172/149/172 180/155/180
f 171/148/171 180/155/180 179/154/179
f 172/149/172 173/150/173 180/155/180
f 173/150/173 174/147/174 181/156/181
f 174/147/174 175/145/175 182/151/182
f 174/147/174 182/151/182 181/156/181
f 175/145/175 168/146/169 176/152/177
f 175/145/175 176/152/177 182/151/182
f 176/152/177 177/151/176 184/157/183
f 176/152/177 184/157/183 183/158/184
f 177/151/176 178/153/178 184/157/183
f 178/153/178 179/154/179 185/159/185
f 179/154/179 180/155/180 186/160/186
f 179/154/179 186/160/186 185/159/185
f 180/155/180 173/150/173 187/159/187
f 180/155/180 187/159/187 186/160/186
f 173/150/173 181/156/181 188/161/188
f 173/150/173 188/161/188 187/159/187
f 181/156/181 182/151/182 189/157/189
f 181/156/181 189/157/189 188/161/188
f 182/151/182 176/152/177 183/158/184
f 182/151/182 183/158/184 189/157/189
f 183/158/184 184/157/183 191/162/190
f 183/158/184 191/162/190 190/163/191
f 184/157/183 178/153/178 192/164/192
f 184/157/183 192/164/192 191/162/190
f 178/153/178 185/159/185 193/165/193
f 178/153/178 193/165/193 192/164/192
f 185/159/185 186/160/186 194/166/194
f 185/159/185 194/166/194 193/165/193
f 186/160/186 187/159/187 195/167/195
f 186/160/186 195/167/195 194/166/194
f 187/159/187 188/161/188 195/167/195
f 188/161/188 189/157/189 196/168/196
f 189/157/189 183/158/184 190/163/191
f 189/157/189 190/163/191 196/168/196
f 190/163/191 191/162/190 198/169/197
f 190/163/191 198/169/197 197/170/198
f 191/162/190 192/164/192 199/171/199
f 191/162/190 199/171/199 198/169/197
f 192/164/192 193/165/193 199/171/199
f 193/165/193 194/166/194 200/172/200
f 194/166/194 195/167/195 201/173/201
f 194/166/194 201/173/201 200/172/200
f 195/167/195 188/161/188 202/171/202
f 195/167/195 202/171/202 201/173/201
f 188/161/188 196/168/196 202/171/202
f 196/168/196 190/163/191 197/170/198
f 197/170/198 198/169/197 204/174/203
f 197/170/198 204/174/203 203/175/204
f 198/169/197 199/171/199 205/176/205
f 198/169/197 205/176/205 204/174/203
f 199/171/199 193/165/193 206/177/206
f 199/171/199 206/177/206 205/176/205
f 193/165/193 200/172/200 206/177/206
f 200/172/200 201/173/201 207/177/207
f 201/173/201 202/171/202 208/176/208
f 201/173/201 208/176/208 207/177/207
f 202/171/202 196/168/196 209/178/209
f 202/171/202 209/178/209 208/176/208
f 196/168/196 197/170/198 203/175/204
f 196/168/196 203/175/204 209/178/209
f 203/175/204 204/174/203 211/179/210
f 203/175/204 211/179/210 210/180/211
f 205/176/205 206/177/206 212/181/212
f 205/176/205 212/181/212 204/174/203
f 206/177/206 200/172/200 213/182/213
f 206/177/206 213/182/213 212/181/212
f 200/172/200 207/177/207 214/181/214
f 200/172/200 214/181/214 213/182/213
f 207/177/207 208/176/208 215/183/215
f 207/177/207 215/183/215 214/181/214
f 208/176/208 209/178/209 215/183/215
f 209/178/209 203/175/204 210/180/211
f 209/178/209 210/180/211 215/183/215
f 210/180/211 211/179/210 216/184/216
f 204/174/203 212/181/212 217/185/217
f 204/174/203 217/185/217 211/179/210
f 212/181/212 213/182/213 217/185/217
f 213/182/213 214/181/214 218/186/218
f 213/182/213 218/186/218 217/185/217
f 214/181/214 215/183/215 219/187/219
f 214/181/214 219/187/219 218/186/218
f 215/183/215 210/180/211 216/184/216
f 215/183/215 216/184/216 219/187/219
f 216/184/216 221/188/220 220/189/221
f 216/184/216 211/179/210 222/190/222
f 216/184/216 222/190/222 221/188/220
f 217/185/217 223/191/223 211/179/210
f 217/185/217 218/186/218 224/192/224
f 217/185/217 224/192/224 223/191/223
f 218/186/218 219/187/219 225/193/225
f 218/186/218 225/193/225 224/192/224
f 219/187/219 226/188/226 225/193/225
f 219/187/219 216/184/216 220/189/221
f 219/187/219 220/189/221 226/188/226
f 220/189/221 221/188/220 227/194/227
f 221/188/220 222/190/222 227/194/227
f 222/190/222 211/179/210 228/195/228
f 211/179/210 223/191/223 229/196/229
f 211/179/210 229/196/229 228/195/228
f 223/191/223 224/192/224 230/195/230
f 223/191/223 230/195/230 229/196/229
f 224/192/224 225/193/225 231/197/231
f 224/192/224 231/197/231 230/195/230
f 225/193/225 226/188/226 232/198/232
f 225/193/225 232/198/232 231/197/231
f 226/188/226 220/189/221 227/194/227
f 226/188/226 227/194/227 232/198/232
f 227/194/227 234/199/233 233/200/234
f 227/194/227 222/190/222 235/201/235
f 227/194/227 235/201/235 234/199/233
f 222/190/222 228/195/228 236/202/236
f 222/190/222 236/202/236 235/201/235
f 228/195/228 229/196/229 237/203/237
f 228/195/228 237/203/237 236/202/236
f 229/196/229 230/195/230 238/204/238
f 229/196/229 238/204/238 237/203/237
f 230/195/230 231/197/231 239/205/239
f 230/195/230 239/205/239 238/204/238
f 231/197/231 232/198/232 240/199/240
f 231/197/231 240/199/240 239/205/239
f 232/198/232 227/194/227 233/200/234
f 232/198/232 233/200/234 240/199/240
f 233/200/234 234/199/233 241/206/241
f 234/199/233 235/201/235 242/207/242
f 234/199/233 242/207/242 241/206/241
f 235/201/235 236/202/236 242/207/242
f 236/202/236 237/203/237 243/208/243
f 237/203/237 238/204/238 244/209/244
f 237/203/237 244/209/244 243/208/243
f 238/204/238 239/205/239 244/209/244
f 239/205/239 240/199/240 245/210/245
f 240/199/240 233/200/234 245/210/245
f 233/200/234 241/206/241 246/211/246
f 242/207/242 236/202/236 247/212/247
f 236/202/236 243/208/243 248/213/248
f 236/202/236 248/213/248 247/212/247
f 243/208/243 244/209/244 248/213/248
f 244/209/244 239/205/239 249/214/249
f 239/205/239 245/210/245 249/214/249
f 245/210/245 233/200/234 246/211/246
f 248/213/248 244/209/244 250/215/250
f 244/209/244 249/214/249 250/215/250
f 246/211/246 241/206/241 251/216/251
f 241/206/241 242/207/242 251/216/251
f 242/207/242 247/212/247 251/216/251
f 247/212/247 248/213/248 252/217/252
f 247/212/247 252/217/252 251/216/251
f 248/213/248 250/215/250 252/217/252
f 250/215/250 249/214/249 252/217/252
f 249/214/249 245/210/245 252/217/252
f 245/210/245 246/211/246 252/217/252
f 246/211/246 251/216/251 253/218/253
f 252/217/252 246/211/246 253/218/253
f 251/216/251 252/217/252 253/218/253
f 254/219/254 256/220/255 255/221/256
f 254/219/254 257/222/257 256/220/255
f 254/219/254 258/223/258 257/222/257
f 254/219/254 259/224/259 258/223/258
f 254/219/254 255/221/256 259/224/259
f 255/221/256 261/225/260 260/226/261
f 255/221/256 256/220/255 262/227/262
f 255/221/256 262/227/262 261/225/260
f 257/222/257 263/228/263 256/220/255
f 257/222/257 258/223/258 264/229/264
f 257/222/257 264/229/264 263/228/263
f 259/224/259 265/230/265 258/223/258
f 259/224/259 255/221/256 260/226/261
f 259/224/259 260/226/261 265/230/265
f 260/226/261 261/225/260 266/231/266
f 261/225/260 262/227/262 267/232/267
f 262/227/262 256/220/255 268/233/268
f 262/227/262 268/233/268 267/232/267
f 256/220/255 263/228/263 268/233/268
f 263/228/263 264/229/264 268/233/268
f 258/223/258 265/230/265 264/229/264
f 265/230/265 260/226/261 266/231/266
f 266/231/266 261/225/260 269/234/269
f 261/225/260 267/232/267 269/234/269
f 267/232/267 268/233/268 270/235/270
f 268/233/268 271/236/271 270/235/270
f 268/233/268 264/229/264 272/237/272
f 268/233/268 272/237/272 271/236/271
f 264/229/264 273/238/273 272/237/272
f 264/229/264 265/230/265 274/239/274
f 264/229/264 274/239/274 273/238/273
f 265/230/265 266/231/266 274/239/274
f 266/231/266 269/234/269 276/240/275
f 266/231/266 276/240/275 275/241/276
f 269/234/269 267/232/267 277/242/277
f 269/234/269 277/242/277 276/240/275
f 267/232/267 270/235/270 278/243/278
f 267/232/267 278/243/278 277/242/277
f 270/235/270 271/236/271 279/244/279
f 270/235/270 279/244/279 278/243/278
f 271/236/271 272/237/272 279/244/279
f 274/239/274 266/231/266 275/241/276
f 275/241/276 276/240/275 281/245/280
f 275/241/276 281/245/280 280/246/281
f 276/240/275 277/242/277 282/247/282
f 276/240/275 282/247/282 281/245/280
f 277/242/277 278/243/278 283/248/283
f 277/242/277 283/248/283 282/247/282
f 278/243/278 279/244/279 284/249/284
f 278/243/278 284/249/284 283/248/283
f 279/244/279 272/237/272 285/250/285
f 279/244/279 285/250/285 284/249/284
f 272/237/272 273/238/273 286/251/286
f 272/237/272 286/251/286 285/250/285
f 273/238/273 274/239/274 287/252/287
f 273/238/273 287/252/287 286/251/286
f 274/239/274 275/241/276 280/246/281
f 274/239/274 280/246/281 287/252/287
f 280/246/281 281/245/280 288/253/288
f 285/250/285 286/251/286 289/254/289
f 286/251/286 287/252/287 290/255/290
f 286/251/286 290/255/290 289/254/289
f 287/252/287 280/246/281 288/253/288
f 287/252/287 288/253/288 290/255/290
f 288/253/288 281/245/280 291/256/291
f 281/245/280 282/247/282 292/257/292
f 281/245/280 292/257/292 291/256/291
f 282/247/282 283/248/283 293/258/293
f 282/247/282 293/258/293 292/257/292
f 283/248/283 284/249/284 294/259/294
f 283/248/283 294/259/294 293/258/293
f 284/249/284 285/250/285 295/258/295
f 284/249/284 295/258/295 294/259/294
f 285/250/285 289/254/289 295/258/295
f 289/254/289 290/255/290 296/260/296
f 290/255/290 288/253/288 296/260/296
f 288/253/288 291/256/291 297/261/297
f 292/257/292 293/258/293 298/262/298
f 293/258/293 294/259/294 298/262/298
f 294/259/294 295/258/295 299/263/299
f 295/258/295 289/254/289 300/264/300
f 295/258/295 300/264/300 299/263/299
f 289/254/289 296/260/296 300/264/300
f 296/260/296 288/253/288 297/261/297
f 297/261/297 291/256/291 302/265/301
f 297/261/297 302/265/301 301/266/302
f 291/256/291 292/257/292 303/267/303
f 291/256/291 303/267/303 302/265/301
f 292/257/292 298/262/298 304/268/304
f 292/257/292 304/268/304 303/267/303
f 298/262/298 294/259/294 305/269/305
f 298/262/298 305/269/305 304/268/304
f 294/259/294 299/263/299 305/269/305
f 299/263/299 300/264/300 306/270/306
f 300/264/300 296/260/296 301/266/302
f 300/264/300 301/266/302 306/270/306
f 296/260/296 297/261/297 301/266/302
f 301/266/302 302/265/301 308/271/307
f 301/266/302 308/271/307 307/272/308
f 302/265/301 303/267/303 308/271/307
f 303/267/303 304/268/304 309/273/309
f 304/268/304 305/269/305 310/274/310
f 304/268/304 310/274/310 309/273/309
f 305/269/305 299/263/299 310/274/310
f 299/263/299 306/270/306 311/275/311
f 299/263/299 311/275/311 310/274/310
f 306/270/306 301/266/302 312/276/312
f 306/270/306 312/276/312 311/275/311
f 301/266/302 307/272/308 312/276/312
f 307/272/308 308/271/307 314/277/313
f 307/272/308 314/277/313 313/278/314
f 308/271/307 303/267/303 314/277/313
f 303/267/303 309/273/309 315/279/315
f 303/267/303 315/279/315 314/277/313
f 309/273/309 310/274/310 315/279/315
f 310/274/310 316/280/316 315/279/315
f 310/274/310 311/275/311 317/281/317
f 310/274/310 317/281/317 316/280/316
f 311/275/311 312/276/312 317/281/317
f 312/276/312 307/272/308 313/278/314
f 314/277/313 319/282/318 313/278/314
f 314/277/313 315/279/315 320/283/319
f 314/277/313 320/283/319 319/282/318
f 315/279/315 321/284/320 320/283/319
f 315/279/315 316/280/316 322/283/321
f 315/279/315 322/283/321 321/284/320
f 316/280/316 317/281/317 323/282/322
f 316/280/316 323/282/322 322/283/321
f 317/281/317 312/276/312 324/285/323
f 317/281/317 324/285/323 323/282/322
f 312/276/312 313/278/314 318/286/324
f 312/276/312 318/286/324 324/285/323
f 318/286/324 313/278/314 326/287/325
f 318/286/324 326/287/325 325/288/326
f 313/278/314 319/282/318 327/289/327
f 313/278/314 327/289/327 326/287/325
f 319/282/318 320/283/319 328/290/328
f 319/282/318 328/290/328 327/289/327
f 320/283/319 321/284/320 329/291/329
f 320/283/319 329/291/329 328/290/328
f 321/284/320 322/283/321 330/290/330
f 321/284/320 330/290/330 329/291/329
f 322/283/321 323/282/322 331/289/331
f 322/283/321 331/289/331 330/290/330
f 323/282/322 324/285/323 332/287/332
f 323/282/322 332/287/332 331/289/331
f 324/285/323 318/286/324 325/288/326
f 324/285/323 325/288/326 332/287/332
f 325/288/326 326/287/325 334/292/333
f 325/288/326 334/292/333 333/293/334
f 326/287/325 327/289/327 335/294/335
f 326/287/325 335/294/335 334/292/333
f 327/289/327 328/290/328 336/295/336
f 327/289/327 336/295/336 335/294/335
f 328/290/328 329/291/329 337/296/337
f 328/290/328 337/296/337 336/295/336
f 329/291/329 330/290/330 338/297/338
f 329/291/329 338/297/338 337/296/337
f 330/290/330 331/289/331 338/297/338
f 331/289/331 332/287/332 339/292/339
f 331/289/331 339/292/339 338/297/338
f 332/287/332 325/288/326 333/293/334
f 332/287/332 333/293/334 339/292/339
f 333/293/334 334/292/333 341/298/340
f 333/293/334 341/298/340 340/299/341
f 334/292/333 335/294/335 342/300/342
f 334/292/333 342/300/342 341/298/340
f 335/294/335 336/295/336 342/300/342
f 336/295/336 337/296/337 343/301/343
f 336/295/336 343/301/343 342/300/342
f 337/296/337 338/297/338 344/302/344
f 337/296/337 344/302/344 343/301/343
f 338/297/338 345/303/345 344/302/344
f 338/297/338 339/292/339 346/298/346
f 338/297/338 346/298/346 345/303/345
f 339/292/339 333/293/334 340/299/341
f 339/292/339 340/299/341 346/298/346
f 340/299/341 341/298/340 348/304/347
f 340/299/341 348/304/347 347/305/348
f 341/298/340 342/300/342 349/306/349
f 341/298/340 349/306/349 348/304/347
f 342/300/342 350/307/350 349/306/349
f 342/300/342 343/301/343 351/308/351
f 342/300/342 351/308/351 350/307/350
f 343/301/343 344/302/344 352/309/352
f 343/301/343 352/309/352 351/308/351
f 344/302/344 345/303/345 352/309/352
f 345/303/345 346/298/346 353/310/353
f 345/303/345 353/310/353 352/309/352
f 346/298/346 340/299/341 347/305/348
f 346/298/346 347/305/348 353/310/353
f 348/304/347 349/306/349 354/311/354
f 349/306/349 350/307/350 354/311/354
f 350/307/350 351/308/351 355/312/355
f 350/307/350 355/312/355 354/311/354
f 351/308/351 352/309/352 355/312/355
f 352/309/352 356/313/356 355/312/355
f 352/309/352 353/310/353 357/314/357
f 352/309/352 357/314/357 356/313/356
f 353/310/353 347/305/348 357/314/357
f 347/305/348 348/304/347 359/315/358
f 347/305/348 359/315/358 358/316/359
f 348/304/347 354/311/354 359/315/358
f 354/311/354 360/317/360 359/315/358
f 354/311/354 355/312/355 361/318/361
f 354/311/354 361/318/361 360/317/360
f 355/312/355 356/313/356 361/318/361
f 356/313/356 357/314/357 358/316/359
f 357/314/357 347/305/348 358/316/359
f 358/316/359 359/315/358 363/319/362
f 358/316/359 363/319/362 362/320/363
f 359/315/358 360/317/360 363/319/362
f 360/317/360 361/318/361 364/321/364
f 361/318/361 356/313/356 365/322/365
f 361/318/361 365/322/365 364/321/364
f 356/313/356 358/316/359 365/322/365
f 358/316/359 362/320/363 365/322/365
f 360/317/360 364/321/364 366/323/366
f 364/321/364 365/322/365 366/323/366
f 362/320/363 363/319/362 368/324/367
f 362/320/363 368/324/367 367/325/368
f 363/319/362 360/317/360 368/324/367
f 365/322/365 362/320/363 367/325/368
f 367/325/368 368/324/367 369/326/369
f 368/324/367 360/317/360 369/326/369
f 360/317/360 366/323/366 369/326/369
f 366/323/366 365/322/365 369/326/369
f 365/322/365 367/325/368 369/326/369
f 370/327/370 372/328/371 371/329/372
f 370/327/370 373/330/373 372/328/371
f 370/327/370 374/331/374 373/330/373
f 370/327/370 375/332/375 374/331/374
f 370/327/370 371/329/372 375/332/375
f 371/329/372 377/333/376 376/334/377
f 371/329/372 372/328/371 378/335/378
f 371/329/372 378/335/378 377/333/376
f 372/328/371 373/330/373 379/336/379
f 372/328/371 379/336/379 378/335/378
f 373/330/373 380/337/380 379/336/379
f 373/330/373 374/331/374 381/338/381
f 373/330/373 381/338/381 380/337/380
f 375/332/375 371/329/372 376/334/377
f 381/338/381 374/331/374 382/339/382
f 374/331/374 375/332/375 383/340/383
f 374/331/374 383/340/383 382/339/382
f 375/332/375 376/334/377 383/340/383
f 376/334/377 377/333/376 385/341/384
f 376/334/377 385/341/384 384/342/385
f 377/333/376 378/335/378 386/343/386
f 377/333/376 386/343/386 385/341/384
f 378/335/378 379/336/379 386/343/386
f 379/336/379 380/337/380 387/344/387
f 379/336/379 387/344/387 386/343/386
f 380/337/380 381/338/381 387/344/387
f 381/338/381 382/339/382 387/344/387
f 382/339/382 383/340/383 388/345/388
f 383/340/383 376/334/377 384/342/385
f 383/340/383 384/342/385 388/345/388
f 384/342/385 385/341/384 389/346/389
f 385/341/384 386/343/386 390/347/390
f 386/343/386 387/344/387 391/348/391
f 386/343/386 391/348/391 390/347/390
f 387/344/387 392/349/392 391/348/391
f 387/344/387 382/339/382 392/349/392
f 382/339/382 388/345/388 393/350/393
f 388/345/388 384/342/385 389/346/389
f 388/345/388 389/346/389 393/350/393
f 389/346/389 385/341/384 395/351/394
f 389/346/389 395/351/394 394/352/395
f 385/341/384 390/347/390 396/353/396
f 385/341/384 396/353/396 395/351/394
f 390/347/390 397/354/397 396/353/396
f 390/347/390 391/348/391 398/355/398
f 390/347/390 398/355/398 397/354/397
f 391/348/391 392/349/392 399/354/399
f 391/348/391 399/354/399 398/355/398
f 392/349/392 382/339/382 400/356/400
f 392/349/392 400/356/400 399/354/399
f 382/339/382 393/350/393 401/351/401
f 382/339/382 401/351/401 400/356/400
f 393/350/393 389/346/389 394/352/395
f 393/350/393 394/352/395 401/351/401
f 394/352/395 395/351/394 403/357/402
f 394/352/395 403/357/402 402/358/403
f 395/351/394 396/353/396 403/357/402
f 396/353/396 397/354/397 404/359/404
f 397/354/397 398/355/398 405/360/405
f 397/354/397 405/360/405 404/359/404
f 398/355/398 399/354/399 406/359/406
f 398/355/398 406/359/406 405/360/405
f 399/354/399 400/356/400 407/361/407
f 399/354/399 407/361/407 406/359/406
f 400/356/400 401/351/401 408/357/408
f 400/356/400 408/357/408 407/361/407
f 401/351/401 394/352/395 402/358/403
f 401/351/401 402/358/403 408/357/408
f 402/358/403 403/357/402 410/362/409
f 402/358/403 410/362/409 409/363/410
f 403/357/402 396/353/396 411/364/411
f 403/357/402 411/364/411 410/362/409
f 396/353/396 404/359/404 412/365/412
f 396/353/396 412/365/412 411/364/411
f 404/359/404 405/360/405 413/366/413
f 404/359/404 413/366/413 412/365/412
f 405/360/405 406/359/406 414/367/414
f 405/360/405 414/367/414 413/366/413
f 406/359/406 407/361/407 415/368/415
f 406/359/406 415/368/415 414/367/414
f 407/361/407 408/357/408 416/369/416
f 407/361/407 416/369/416 415/368/415
f 408/357/408 402/358/403 409/363/410
f 408/357/408 409/363/410 416/369/416
f 414/367/414 415/368/415 417/370/417
f 415/368/415 416/369/416 417/370/417
f 409/363/410 410/362/409 419/371/418
f 409/363/410 419/371/418 418/372/419
f 410/362/409 411/364/411 420/373/420
f 410/362/409 420/373/420 419/371/418
f 411/364/411 412/365/412 421/374/421
f 411/364/411 421/374/421 420/373/420
f 412/365/412 413/366/413 422/375/422
f 412/365/412 422/375/422 421/374/421
f 413/366/413 414/367/414 423/376/423
f 413/366/413 423/376/423 422/375/422
f 414/367/414 417/370/417 423/376/423
f 417/370/417 416/369/416 424/377/424
f 416/369/416 409/363/410 418/372/419
f 416/369/416 418/372/419 424/377/424
f 418/372/419 419/371/418 425/378/425
f 421/374/421 422/375/422 426/379/426
f 422/375/422 423/376/423 427/380/427
f 422/375/422 427/380/427 426/379/426
f 423/376/423 417/370/417 428/381/428
f 423/376/423 428/381/428 427/380/427
f 417/370/417 424/377/424 429/382/429
f 417/370/417 429/382/429 428/381/428
f 424/377/424 418/372/419 425/378/425
f 424/377/424 425/378/425 429/382/429
f 425/378/425 419/371/418 431/383/430
f 425/378/425 431/383/430 430/384/431
f 419/371/418 420/373/420 432/385/432
f 419/371/418 432/385/432 431/383/430
f 420/373/420 421/374/421 433/386/433
f 420/373/420 433/386/433 432/385/432
f 421/374/421 426/379/426 433/386/433
f 426/379/426 427/380/427 434/387/434
f 427/380/427 428/381/428 435/388/435
f 427/380/427 435/388/435 434/387/434
f 428/381/428 429/382/429 435/388/435
f 429/382/429 425/378/425 430/384/431
f 430/384/431 431/383/430 436/389/436
f 431/383/430 432/385/432 436/389/436
f 432/385/432 433/386/433 437/390/437
f 433/386/433 426/379/426 438/391/438
f 433/386/433 438/391/438 437/390/437
f 426/379/426 434/387/434 438/391/438
f 435/388/435 429/382/429 439/389/439
f 429/382/429 430/384/431 439/389/439
f 430/384/431 436/389/436 441/392/440
f 430/384/431 441/392/440 440/393/441
f 436/389/436 432/385/432 442/394/442
f 436/389/436 442/394/442 441/392/440
f 432/385/432 437/390/437 443/395/443
f 432/385/432 443/395/443 442/394/442
f 437/390/437 438/391/438 444/396/444
f 437/390/437 444/396/444 443/395/443
f 438/391/438 434/387/434 445/397/445
f 438/391/438 445/397/445 444/396/444
f 434/387/434 435/388/435 446/394/446
f 434/387/434 446/394/446 445/397/445
f 435/388/435 439/389/439 447/392/447
f 435/388/435 447/392/447 446/394/446
f 439/389/439 430/384/431 440/393/441
f 439/389/439 440/393/441 447/392/447
f 440/393/441 441/392/440 448/398/448
f 441/392/440 442/394/442 449/399/449
f 441/392/440 449/399/449 448/398/448
f 442/394/442 443/395/443 449/399/449
f 443/395/443 444/396/444 450/400/450
f 444/396/444 445/397/445 451/401/451
f 444/396/444 451/401/451 450/400/450
f 445/397/445 446/394/446 452/399/452
f 445/397/445 452/399/452 451/401/451
f 446/394/446 447/392/447 453/398/453
f 446/394/446 453/398/453 452/399/452
f 447/392/447 440/393/441 453/398/453
f 440/393/441 448/398/448 455/402/454
f 440/393/441 455/402/454 454/403/455
f 448/398/448 449/399/449 456/404/456
f 448/398/448 456/404/456 455/402/454
f 449/399/449 443/395/443 457/405/457
f 449/399/449 457/405/457 456/404/456
f 443/395/443 450/400/450 458/406/458
f 443/395/443 458/406/458 457/405/457
f 450/400/450 451/401/451 459/407/459
f 450/400/450 459/407/459 458/406/458
f 451/401/451 452/399/452 460/404/460
f 451/401/451 460/404/460 459/407/459
f 452/399/452 453/398/453 454/403/455
f 452/399/452 454/403/455 460/404/460
f 453/398/453 440/393/441 454/403/455
f 454/403/455 455/402/454 461/408/461
f 455/402/454 456/404/456 462/409/462
f 456/404/456 457/405/457 463/410/463
f 456/404/456 463/410/463 462/409/462
f 457/405/457 458/406/458 463/410/463
f 459/407/459 460/404/460 464/411/464
f 460/404/460 454/403/455 465/412/465
f 460/404/460 465/412/465 464/411/464
f 454/403/455 461/408/461 465/412/465
f 461/408/461 455/402/454 467/413/466
f 461/408/461 467/413/466 466/414/467
f 455/402/454 462/409/462 467/413/466
f 462/409/462 463/410/463 468/415/468
f 463/410/463 458/406/458 469/416/469
f 463/410/463 469/416/469 468/415/468
f 458/406/458 459/407/459 469/416/469
f 459/407/459 464/411/464 470/417/470
f 459/407/459 470/417/470 469/416/469
f 464/411/464 465/412/465 471/418/471
f 464/411/464 471/418/471 470/417/470
f 465/412/465 461/408/461 466/414/467
f 465/412/465 466/414/467 471/418/471
f 466/414/467 467/413/466 472/419/472
f 467/413/466 462/409/462 472/419/472
f 462/409/462 468/415/468 472/419/472
f 468/415/468 469/416/469 473/420/473
f 469/416/469 470/417/470 473/420/473
f 466/414/467 472/419/472 475/421/474
f 466/414/467 475/421/474 474/422/475
f 472/419/472 468/415/468 476/423/476
f 472/419/472 476/423/476 475/421/474
f 468/415/468 473/420/473 476/423/476
f 473/420/473 470/417/470 477/424/477
f 470/417/470 471/418/471 477/424/477
f 471/418/471 466/414/467 474/422/475
f 471/418/471 474/422/475 477/424/477
f 475/421/474 476/423/476 478/425/478
f 476/423/476 473/420/473 479/426/479
f 473/420/473 477/424/477 479/426/479
f 477/424/477 474/422/475 480/427/480
f 474/422/475 475/421/474 481/428/481
f 475/421/474 482/429/482 481/428/481
f 475/421/474 478/425/478 482/429/482
f 476/423/476 479/426/479 478/425/478
f 479/426/479 477/424/477 480/427/480
f 480/427/480 474/422/475 481/428/481
f 481/428/481 482/429/482 483/430/483
f 482/429/482 478/425/478 483/430/483
f 478/425/478 479/426/479 483/430/483
f 479/426/479 480/427/480 483/430/483
f 480/427/480 481/428/481 483/430/483
