# Blender 5.1.2
# www.blender.org
o justed_inferno_v32_curl_01
v 3.670245 0.519941 -0.000326
v 3.595241 0.738762 0.264364
v 3.523050 0.727567 0.249427
v 3.530827 0.514933 0.246410
v 3.538243 0.410740 0.311431
v 3.609550 0.419461 0.307083
v 3.718726 0.521104 0.341249
v 3.697265 0.633572 0.314792
v 3.481211 0.886806 0.525619
v 3.323805 0.887116 0.583768
v 3.307273 0.701409 0.715112
v 3.294199 0.516994 0.684228
v 3.432322 0.382642 0.606608
v 3.532139 0.386243 0.643171
v 3.594782 0.477203 0.648658
v 3.696971 0.561959 0.670132
v 3.633157 0.723315 0.614540
v 3.566949 0.819441 0.570895
v 3.342679 0.998725 0.769506
v 3.322326 0.393551 0.887306
v 3.441571 0.405000 0.916308
v 3.621970 0.622620 0.981946
v 3.458680 0.922291 0.837605
v 3.136332 1.104096 1.071296
v 3.087336 0.973380 0.963603
v 3.030821 0.788712 1.165212
v 3.001760 0.569411 1.182564
v 3.198970 0.435791 1.151218
v 3.310196 0.458567 1.211645
v 3.392694 0.546300 1.240416
v 3.493175 0.694512 1.266091
v 3.375342 0.866393 1.157669
v 3.234274 1.048552 1.204623
v 2.941029 1.005446 1.188018
v 2.980907 0.512782 1.509800
v 3.082341 0.572486 1.632039
v 3.254082 0.591045 1.513529
v 3.326989 0.767903 1.522233
v 3.136364 0.963514 1.498777
v 2.803375 1.247963 1.431579
v 2.784386 1.022310 1.388383
v 2.667544 0.641072 1.600256
v 3.099881 0.628665 1.777141
v 3.141098 0.837898 1.756258
v 2.611545 1.084490 1.578738
v 2.574431 0.907810 1.593362
v 2.560966 0.599308 1.972170
v 2.702888 0.648828 2.016539
v 2.930660 0.657792 2.031661
v 2.940813 0.903696 1.968907
v 2.702087 1.146225 1.984246
v 2.643692 1.317447 1.834563
v 2.375528 1.420786 1.775807
v 2.433942 1.129004 1.745598
v 2.367738 0.956625 1.722496
v 2.302904 0.729727 1.916225
v 2.737218 0.689304 2.262042
v 2.722666 0.964891 2.152259
v 2.139063 1.195982 1.991710
v 2.171309 1.008046 1.842022
v 2.252929 0.695354 2.186603
v 2.244524 0.760274 2.364143
v 2.511207 0.738655 2.441810
v 2.486567 1.020833 2.298040
v 2.357244 1.241209 2.259211
v 2.395923 1.395872 2.022319
v 2.106679 1.436853 2.006205
v 1.865597 1.104243 2.057437
v 1.853058 0.930718 2.224602
v 2.196930 0.834464 2.573232
v 2.204219 1.089825 2.416901
v 2.134701 1.429278 2.203454
v 1.919921 1.423727 2.158158
v 1.881326 1.252586 2.165213
v 1.880139 0.868746 2.369050
v 1.930005 0.850324 2.488774
v 1.828325 1.325688 2.501254
v 1.724932 1.427502 2.281556
v 1.686663 1.306535 2.255140
v 1.633340 1.181373 2.188990
v 1.634918 1.010481 2.331368
v 1.698815 0.900991 2.563766
v 1.595830 1.008667 2.693830
v 1.608969 1.185308 2.620178
v 1.773406 1.470407 2.389623
v 1.528253 1.467184 2.366495
v 1.491652 1.384543 2.300542
v 1.443204 1.242895 2.242562
v 1.434909 1.070680 2.367130
v 1.450670 1.002334 2.490006
v 1.465598 0.910216 2.631278
v 1.569425 1.381084 2.603451
v 1.553656 1.547704 2.482571
v 1.336771 1.536681 2.421436
v 1.306546 1.493633 2.302719
v 1.176980 1.338041 2.248663
v 1.228382 1.105154 2.378009
v 1.231536 1.018569 2.516024
v 1.226007 0.871280 2.686612
v 1.273061 1.043003 2.758891
v 1.319717 1.243820 2.724909
v 1.217399 1.507468 2.743575
v 1.151508 1.615866 2.460532
v 1.138773 1.624064 2.283654
v 1.031411 1.137528 2.360591
v 0.916786 1.038458 2.480728
v 0.984128 0.811582 2.709640
v 1.047522 1.056593 2.783510
v 1.065565 1.811571 2.650674
v 0.878041 1.723879 2.504335
v 0.984374 1.748615 2.273683
v 0.873856 1.479260 2.233867
v 0.851512 1.183276 2.333484
v 0.669236 0.779640 2.665029
v 0.826694 1.082392 2.770910
v 0.874355 1.286235 2.843431
v 0.942384 1.575827 2.824054
v 0.756698 1.871284 2.300065
v 0.687844 1.245592 2.310711
v 0.628759 1.040671 2.430496
v 0.533455 1.154868 2.707236
v 0.654690 1.303422 2.843852
v 0.726991 1.609963 2.847671
v 0.796789 1.848218 2.695869
v 0.612420 1.805240 2.522373
v 0.605283 1.578575 2.250771
v 0.534926 1.315431 2.291466
v 0.463973 1.073837 2.365299
v 0.388813 0.885639 2.536879
v 0.384073 1.328609 2.787283
v 0.411495 1.636805 2.825530
v 0.590080 1.836497 2.693603
v 0.441909 1.868380 2.520153
v 0.508598 1.934901 2.328849
v 0.455803 1.631474 2.246923
v 0.390111 1.381194 2.263423
v 0.316775 1.107198 2.286872
v 0.242045 0.978498 2.450837
v 0.260711 1.209252 2.594718
v 0.392274 1.821409 2.664896
v 0.279968 1.950101 2.510068
v 0.352437 1.977548 2.326125
v 0.316858 1.686133 2.220632
v 0.256089 1.437470 2.215916
v 0.187165 1.127820 2.191109
v 0.107871 1.058119 2.364428
v 0.094765 1.227764 2.520701
v -0.019737 1.374998 2.649724
v -0.022773 1.684123 2.731060
v 0.207952 1.821293 2.621335
v 0.124028 2.046236 2.495099
v 0.204366 2.024399 2.306353
v 0.190194 1.742424 2.177370
v 0.136551 1.485872 2.149461
v 0.077795 1.139726 2.081909
v -0.014803 1.124639 2.276605
v -0.061726 1.228695 2.438683
v 0.036337 1.835198 2.567770
v -0.030384 2.130363 2.468699
v 0.060033 2.056999 2.273139
v 0.009468 1.803339 2.102639
v -0.011611 1.607835 2.050639
v -0.013496 1.165211 1.979410
v -0.124959 1.194051 2.191176
v -0.202446 1.230139 2.346024
v -0.260139 1.390069 2.524636
v -0.240908 1.707643 2.641590
v -0.193018 1.861179 2.469984
v -0.181982 2.168821 2.415525
v -0.083141 2.058096 2.225074
v -0.123758 1.250910 1.895447
v -0.251445 1.294791 2.105648
v -0.320987 1.256157 2.245762
v -0.394132 1.417563 2.419249
v -0.383019 1.720117 2.526859
v -0.359480 2.132615 2.294951
v -0.317439 2.004450 2.106690
v -0.260833 1.786950 1.972668
v -0.213259 1.639599 1.920503
v -0.417200 1.318108 2.144634
v -0.526005 1.481336 2.260420
v -0.487715 1.730373 2.379322
v -0.468417 1.877427 2.245814
v -0.300585 1.434533 1.852933
v -0.408771 1.457021 1.971814
v -0.550827 1.463145 1.981361
v -0.562293 1.743032 2.221732
v -0.592294 2.023159 2.000340
v -0.458668 1.955052 1.980275
v -0.363533 1.690289 1.828976
v -0.406197 1.529524 1.819832
v -0.493120 1.526731 1.894534
v -0.670823 1.605295 2.001468
v -0.650731 1.793046 2.015527
v -0.628983 1.892334 2.044272
v -0.546342 1.954223 1.880121
v -0.452954 1.720371 1.733197
v -0.504040 1.588096 1.759813
v -0.666146 1.548285 1.825270
v -0.715573 2.056630 1.787088
v -0.607548 1.976912 1.781220
v -0.567455 1.629518 1.678358
v -0.639721 1.576010 1.687367
v -0.852579 1.682218 1.719523
v -0.797405 1.828509 1.756315
v -0.760073 1.962855 1.873666
v -0.655795 2.008126 1.659821
v -0.553213 1.751820 1.495810
v -0.636139 1.661666 1.565134
v -0.826555 1.575631 1.568721
v -0.832895 2.018670 1.769377
v -0.782053 2.092361 1.590418
v -0.628216 1.921405 1.526784
v -0.765424 1.580179 1.453718
v -0.923177 1.732595 1.550140
v -0.895598 1.896389 1.535498
v -0.884826 2.065418 1.654683
v -0.738603 2.025215 1.377193
v -0.661391 1.939478 1.383951
v -0.649123 1.780985 1.330945
v -0.776987 1.732700 1.274810
v -0.905603 1.629231 1.394150
v -0.912047 2.092500 1.490812
v -0.821313 2.081185 1.243503
v -0.850644 1.656295 1.235888
v -0.945182 1.824341 1.371174
v -0.686318 1.948970 1.201993
v -0.731932 1.818925 1.153829
v -0.954089 1.719155 1.152373
v -0.948895 1.947979 1.240828
v -0.901708 2.095335 1.216804
v -0.805690 1.755493 1.084738
v -0.891231 1.705919 1.011051
v -0.939572 1.879570 1.069677
v -0.954185 2.011407 1.066138
v -0.764406 2.105019 0.922900
v -0.669413 1.958929 1.011956
v -0.743910 1.860828 0.984717
v -0.964250 1.779302 0.915144
v -0.873012 2.111353 1.045383
v -0.700963 2.049158 0.888993
v -0.656734 1.957657 0.899166
v -0.805501 1.773501 0.834357
v -0.893941 1.729670 0.872624
v -0.905168 1.939274 0.830850
v -0.934675 2.051243 0.910807
v -0.831741 2.115933 0.899208
v -0.740167 1.885736 0.760673
v -0.863934 1.786978 0.712247
v -0.919434 1.840052 0.760845
v -0.877034 2.069448 0.761882
v -0.647052 2.035174 0.643392
v -0.658282 1.960467 0.745576
v -0.724809 1.887626 0.561098
v -0.858562 1.889264 0.661491
v -0.703058 2.059013 0.574290
v -0.640095 1.978013 0.565487
v -0.742684 1.899983 0.511987
v -0.752647 1.982727 0.527476
v -0.744311 2.047720 0.560673
v -0.584006 2.015944 0.345597
v -0.528871 2.029270 0.383200
v -0.547969 1.991678 0.364745
v -0.546246 1.983304 0.316063
v -0.571417 2.042036 0.372104
v -0.428512 2.034214 0.221848
v -0.377492 2.042510 0.216363
v -0.381813 2.021000 0.200018
v -0.198792 2.050113 0.094175
v 1.737936 1.166224 2.409121
v 1.667217 1.388949 2.394611
v 1.629957 1.337694 2.370268
v 1.556968 1.288448 2.399595
v 1.527350 1.175196 2.452929
v 1.542675 1.171698 2.502789
v 1.579178 1.207985 2.531143
v 1.635583 1.284662 2.522855
v 1.661518 1.343236 2.460094
v 1.408032 1.485716 2.402247
v 1.413764 1.274329 2.558920
v 1.447390 1.304954 2.602113
v 1.509180 1.400037 2.562626
v 1.415449 1.580821 2.496260
v 1.429870 1.628416 2.392935
v 1.255914 1.463317 2.439763
v 1.241988 1.343022 2.544277
v 1.309483 1.388715 2.675185
v 1.377036 1.504044 2.590433
v 1.270269 1.677000 2.459543
v 1.152347 1.477832 2.547254
v 1.148713 1.459961 2.612073
v 1.178652 1.494183 2.660598
v 1.293432 1.661253 2.529473
v 1.140430 1.744993 2.504745
v 1.117265 1.714028 2.460942
v 1.056177 1.617678 2.464709
v 1.033491 1.572044 2.546112
v 0.995257 1.502494 2.623552
v 1.039376 1.590336 2.651061
v 1.165452 1.776755 2.565759
v 0.923493 1.941588 2.560891
v 1.037314 1.867614 2.430370
v 0.944778 1.706392 2.453184
v 0.888320 1.605877 2.518086
v 0.820939 1.485331 2.609401
v 0.905538 1.630515 2.640907
v 0.968935 1.738932 2.673523
v 1.054259 1.888995 2.619156
v 0.920896 1.953160 2.473789
v 0.838314 1.790832 2.481009
v 0.768683 1.653049 2.471391
v 0.731713 1.584651 2.548097
v 0.785582 1.694295 2.607984
v 0.828780 1.784221 2.690418
v 0.890514 1.902565 2.633344
v 0.805617 2.063407 2.608619
v 0.790993 2.009368 2.507019
v 0.665376 1.906508 2.469297
v 0.661885 1.688672 2.411007
v 0.646684 1.672175 2.508594
v 0.653183 1.703480 2.591081
v 0.694178 1.818284 2.688011
v 0.674102 1.946479 2.632137
v 0.653479 2.066025 2.601900
v 0.638328 1.989246 2.523275
v 0.577480 1.794082 2.435699
v 0.553482 1.754225 2.561552
v 0.583036 1.865380 2.620127
v 0.511696 2.034425 2.556756
v 0.494267 1.936614 2.461797
v 0.476354 1.855791 2.462128
v 0.475507 1.834937 2.495003
v 0.464490 1.824492 2.539008
v 0.482978 1.975535 2.578976
v 0.395584 2.056123 2.515702
v 0.382366 2.019017 2.466555
v 0.370808 1.953459 2.429613
v 0.365600 1.829746 2.482190
v 0.363214 1.844318 2.529509
v 0.343115 1.943167 2.539127
v 0.380913 2.023956 2.556906
v 0.189703 2.024390 2.414667
v 0.249861 1.879891 2.445335
v 0.191965 1.901671 2.491664
v 0.180873 2.023461 2.452649
v 0.184382 1.990761 2.378119
v 0.169334 1.930415 2.386435
v 0.128585 1.864765 2.455121
v 0.168385 1.959471 2.474432
v 0.070801 1.973801 2.383202
v 0.018133 1.891254 2.384676
v 0.063429 1.928927 2.420557
v -0.031680 1.896788 2.334450
v -0.083395 1.875472 2.313103
v -0.293938 1.663220 2.172722
v -0.243486 1.844294 2.130590
v -0.319868 1.739572 2.051989
v -0.421361 1.677566 2.062501
v -0.460477 1.681700 2.104836
v -0.465612 1.707117 2.159566
v -0.383559 1.775624 2.176391
v -0.307552 1.828755 2.169378
v -0.386330 1.952794 1.989908
v -0.425855 1.884376 1.950857
v -0.518452 1.835709 1.954429
v -0.426225 1.998726 2.082904
v -0.433553 2.099908 2.006398
v -0.578188 1.834156 1.960877
v -0.636242 1.926075 1.952499
v -0.549784 1.966725 2.026863
v -0.429830 2.085602 1.948152
v -0.464234 1.998654 1.870338
v -0.550425 1.932311 1.860397
v -0.632435 1.875424 1.858556
v -0.510791 2.114671 2.050424
v -0.474726 2.180413 1.920274
v -0.516682 2.065707 1.808245
v -0.651828 1.921045 1.758181
v -0.663048 1.997144 1.847733
v -0.656123 2.075270 1.926082
v -0.597259 2.183827 1.998666
v -0.601124 2.301463 1.939592
v -0.498733 2.332786 1.900822
v -0.555582 2.136031 1.720556
v -0.567787 2.023759 1.666423
v -0.663349 1.920139 1.635290
v -0.727946 2.071101 1.706878
v -0.761948 2.114884 1.876162
v -0.684815 2.259743 1.956696
v -0.670223 2.375901 1.882007
v -0.588318 2.358171 1.821513
v -0.586033 2.090432 1.602185
v -0.664052 2.036409 1.629245
v -0.793706 2.159528 1.794775
v -0.744223 2.288835 1.769669
v -0.716056 2.421080 1.790945
v -0.659286 2.343633 1.718891
v -0.632129 2.258885 1.657822
v -0.689332 2.138773 1.609582
v -0.756750 2.108602 1.637375
v -0.791070 2.214022 1.713614
v -0.737045 2.441661 1.682263
v -0.690498 2.290457 1.535202
v -0.652031 2.283549 1.584900
v -0.679066 2.175148 1.555766
v -0.796584 2.134653 1.592244
v -0.794457 2.260355 1.638912
v -0.782995 2.354191 1.669396
v -0.745641 2.392214 1.571557
v -0.770818 2.190466 1.526969
v -0.814451 2.204678 1.551843
v -0.796922 2.385293 1.546183
v -0.754544 2.401536 1.474341
v -0.711959 2.375573 1.460316
v -0.712215 2.274379 1.457913
v -0.785628 2.206339 1.466631
v -0.829043 2.145572 1.491480
v -0.854250 2.222593 1.501295
v -0.838946 2.313997 1.498727
v -0.807735 2.426131 1.491667
v -0.801546 2.393594 1.393192
v -0.718635 2.352316 1.383023
v -0.753807 2.264931 1.404605
v -0.865443 2.172251 1.446395
v -0.864425 2.307393 1.423112
v -0.791226 2.305575 1.279883
v -0.769238 2.294595 1.304502
v -0.828006 2.216689 1.340925
v -0.866991 2.216970 1.356798
v -0.817710 2.315717 1.297635
v -0.845384 2.201024 1.205609
v -0.860858 2.270106 1.283552
v -0.839555 2.198316 1.171871
v -0.827121 2.219012 1.204289
v -0.842045 2.171412 1.140313
vn -0.1940 -0.8244 -0.5317
vn -0.3679 0.2591 -0.8930
vn 0.3075 0.8553 -0.4171
vn -0.8519 -0.2539 -0.4581
vn -0.4264 -0.8362 -0.3450
vn 0.5053 -0.8529 -0.1312
vn 0.9381 -0.2163 -0.2705
vn 0.8942 0.4371 -0.0972
vn -0.7962 0.2146 -0.5656
vn 0.2087 0.9037 -0.3739
vn -0.8777 -0.0513 -0.4765
vn -0.8410 -0.2864 -0.4591
vn -0.4771 -0.8482 -0.2301
vn 0.4997 -0.8551 0.1383
vn 0.7021 -0.6747 0.2275
vn 0.9870 -0.0137 0.1599
vn 0.8820 0.4511 0.1362
vn 0.7100 0.7034 -0.0335
vn 0.0891 0.9509 -0.2962
vn -0.4795 -0.8746 -0.0710
vn 0.4024 -0.8776 0.2607
vn 0.9439 0.0780 0.3209
vn 0.6947 0.7089 0.1218
vn -0.8022 0.1486 -0.5783
vn -0.0733 0.9325 -0.3536
vn -0.8193 -0.1119 -0.5623
vn -0.7862 -0.4168 -0.4563
vn -0.3504 -0.9353 -0.0484
vn 0.2985 -0.8946 0.3326
vn 0.7099 -0.5879 0.3878
vn 0.8964 0.1473 0.4180
vn 0.7576 0.5841 0.2912
vn 0.6530 0.7248 0.2194
vn -0.7780 0.1829 -0.6010
vn -0.2128 -0.9764 0.0363
vn 0.1999 -0.9314 0.3042
vn 0.6927 -0.4913 0.5280
vn 0.8363 0.2402 0.4928
vn 0.6870 0.6366 0.3505
vn -0.7281 0.0579 -0.6831
vn -0.2547 0.7682 -0.5874
vn -0.6208 -0.5757 -0.5321
vn 0.7587 -0.3912 0.5209
vn 0.7873 0.3079 0.5342
vn -0.6526 0.1525 -0.7422
vn -0.5999 -0.1842 -0.7786
vn -0.1870 -0.9804 0.0629
vn 0.0672 -0.9630 0.2610
vn 0.6538 -0.3550 0.6682
vn 0.7270 0.3463 0.5929
vn 0.6256 0.6144 0.4807
vn 0.5479 0.7973 0.2530
vn -0.6098 0.1467 -0.7788
vn -0.3445 0.6807 -0.6465
vn -0.5819 -0.1931 -0.7900
vn -0.5521 -0.6681 -0.4989
vn 0.6507 -0.3039 0.6959
vn 0.6390 0.3960 0.6594
vn -0.5572 0.2057 -0.8045
vn -0.6173 -0.1117 -0.7788
vn -0.3570 -0.9340 0.0126
vn -0.1364 -0.9450 0.2974
vn 0.4121 -0.2360 0.8801
vn 0.5241 0.4032 0.7502
vn 0.4901 0.5672 0.6618
vn 0.4217 0.8438 0.3320
vn -0.3970 0.7089 -0.5830
vn -0.5653 -0.0812 -0.8209
vn -0.5307 -0.6867 -0.4968
vn 0.3051 -0.1996 0.9312
vn 0.4194 0.4318 0.7985
vn 0.2837 0.8702 0.4028
vn -0.4410 0.2836 -0.8515
vn -0.3512 0.7622 -0.5438
vn -0.4506 -0.8778 -0.1625
vn -0.2162 -0.9376 0.2723
vn 0.4071 0.4562 0.7913
vn -0.2444 0.3460 -0.9058
vn -0.1673 0.7755 -0.6087
vn -0.3887 -0.1080 -0.9150
vn -0.4065 -0.7299 -0.5495
vn -0.0987 -0.9581 0.2688
vn 0.2388 -0.1216 0.9634
vn 0.3539 0.2779 0.8930
vn 0.2296 0.9340 0.2736
vn 0.0308 0.3918 -0.9195
vn 0.0876 0.8050 -0.5867
vn -0.1654 -0.1633 -0.9726
vn -0.2559 -0.7029 -0.6636
vn -0.2361 -0.8189 -0.5232
vn 0.0268 -0.9725 0.2315
vn 0.4502 0.3690 0.8131
vn 0.4362 0.8752 0.2092
vn 0.2723 0.4223 -0.8646
vn 0.2827 0.8321 -0.4772
vn 0.0149 -0.1808 -0.9834
vn -0.1060 -0.6669 -0.7375
vn -0.0283 -0.7831 -0.6212
vn 0.1489 -0.9569 0.2494
vn 0.1975 -0.2015 0.9594
vn 0.3326 0.1079 0.9369
vn 0.4006 0.3051 0.8640
vn 0.3729 0.4946 -0.7851
vn 0.3487 0.8808 -0.3205
vn -0.0469 -0.6003 -0.7984
vn 0.0683 -0.7033 -0.7076
vn 0.0744 -0.9596 0.2712
vn 0.0451 -0.2847 0.9576
vn 0.3768 0.8694 0.3196
vn 0.3306 0.6373 -0.6961
vn 0.2994 0.9470 -0.1167
vn 0.0097 -0.0640 -0.9979
vn -0.0070 -0.4952 -0.8687
vn -0.2004 -0.9432 0.2648
vn -0.1374 -0.3051 0.9424
vn 0.0728 -0.0954 0.9928
vn 0.2246 0.2651 0.9377
vn 0.2467 0.7584 -0.6032
vn 0.0057 -0.3670 -0.9302
vn 0.1028 -0.6270 -0.7722
vn -0.3523 -0.3888 0.8513
vn -0.1313 -0.2135 0.9681
vn 0.0287 0.2646 0.9639
vn 0.1493 0.8706 0.4688
vn 0.2510 0.9618 0.1091
vn 0.0025 0.0313 -0.9995
vn 0.0729 -0.2299 -0.9705
vn 0.1443 -0.5778 -0.8034
vn -0.4215 -0.8912 0.1675
vn -0.2778 -0.3444 0.8968
vn -0.1535 0.2412 0.9583
vn -0.0117 0.8215 0.5701
vn 0.2644 0.7857 -0.5593
vn 0.2771 0.9167 0.2878
vn 0.1204 0.0882 -0.9888
vn 0.2474 -0.1217 -0.9612
vn 0.2473 -0.5499 -0.7978
vn -0.4452 -0.8902 0.0964
vn -0.4255 -0.5279 0.7350
vn -0.1084 0.7418 0.6618
vn 0.3680 0.7567 -0.5403
vn 0.3002 0.8384 0.4549
vn 0.2897 0.1398 -0.9469
vn 0.4311 -0.0402 -0.9014
vn 0.3790 -0.5427 -0.7495
vn -0.3806 -0.9228 0.0593
vn -0.4065 -0.6559 0.6360
vn -0.3870 -0.4545 0.8023
vn -0.2633 0.2078 0.9421
vn -0.0904 0.6400 0.7630
vn 0.4082 0.7430 -0.5305
vn 0.2354 0.7834 0.5753
vn 0.4132 0.2126 -0.8855
vn 0.5567 0.0362 -0.8299
vn 0.4449 -0.5364 -0.7172
vn -0.3536 -0.9353 -0.0106
vn -0.3868 -0.7496 0.5372
vn -0.2048 0.5385 0.8173
vn 0.3309 0.7540 -0.5674
vn 0.0187 0.7869 0.6168
vn 0.4079 0.3505 -0.8431
vn 0.5527 0.1419 -0.8212
vn 0.3524 -0.4866 -0.7994
vn -0.4026 -0.9056 -0.1334
vn -0.4398 -0.8180 0.3707
vn -0.5261 -0.4717 0.7076
vn -0.4531 0.1767 0.8738
vn -0.3947 0.4655 0.7922
vn 0.2495 0.7417 -0.6226
vn -0.2958 0.8068 0.5115
vn 0.0856 -0.7006 -0.7084
vn -0.4541 -0.8409 -0.2945
vn -0.5435 -0.8302 0.1241
vn -0.7064 -0.4309 0.5616
vn -0.6785 0.1614 0.7167
vn 0.2480 0.7097 -0.6594
vn -0.5120 0.7910 0.3350
vn 0.4236 0.5009 -0.7548
vn 0.4652 0.2553 -0.8476
vn -0.5938 -0.8008 -0.0779
vn -0.8528 -0.3714 0.3672
vn -0.8325 0.1053 0.5439
vn -0.7218 0.3672 0.5866
vn 0.0209 -0.2471 -0.9688
vn -0.3882 -0.7746 -0.4993
vn -0.5488 -0.8034 -0.2310
vn -0.8854 0.0891 0.4563
vn 0.4208 0.7090 -0.5659
vn -0.3557 0.8987 0.2565
vn 0.5939 0.2275 -0.7717
vn 0.2328 -0.4029 -0.8851
vn -0.1985 -0.8559 -0.4775
vn -0.8751 -0.3028 0.3775
vn -0.8783 0.0238 0.4776
vn -0.7842 0.2800 0.5538
vn 0.6124 0.7006 -0.3663
vn 0.7884 0.1178 -0.6038
vn 0.3191 -0.6295 -0.7084
vn -0.4329 -0.9011 0.0250
vn 0.7065 0.6732 -0.2183
vn 0.0904 0.9555 0.2807
vn 0.5913 -0.5459 -0.5936
vn 0.2797 -0.9163 -0.2868
vn -0.8728 -0.2197 0.4359
vn -0.8779 -0.0144 0.4787
vn -0.7262 0.2656 0.6341
vn 0.7368 0.6655 -0.1191
vn 0.9023 -0.0714 -0.4251
vn 0.6161 -0.6746 -0.4066
vn -0.5836 -0.8051 0.1064
vn -0.8321 0.3202 0.4528
vn 0.2301 0.9690 0.0902
vn 0.8931 0.4041 -0.1978
vn 0.3117 -0.8716 -0.3783
vn -0.9649 -0.1145 0.2364
vn -0.9573 0.0114 0.2887
vn -0.8252 0.3534 0.4407
vn 0.6876 0.7158 -0.1218
vn 0.8977 0.3646 -0.2474
vn 0.8954 -0.2207 -0.3866
vn 0.6407 -0.6661 -0.3819
vn -0.7968 -0.6030 -0.0386
vn -0.8705 0.4892 0.0539
vn 0.4074 0.9128 0.0288
vn 0.2772 -0.8772 -0.3920
vn -0.9986 -0.0504 -0.0156
vn 0.9851 0.1347 -0.1065
vn 0.8862 -0.4291 -0.1746
vn -0.9340 -0.3569 -0.0182
vn -0.9663 0.1716 0.1917
vn -0.6928 0.7134 0.1051
vn 0.6681 -0.7236 -0.1733
vn 0.0449 -0.9785 -0.2012
vn -0.9985 0.0435 -0.0319
vn -0.9580 0.2803 -0.0596
vn 0.9802 -0.0406 0.1937
vn 0.4409 0.8922 0.0975
vn 0.8144 -0.5798 -0.0237
vn -0.9754 -0.1621 -0.1494
vn -0.4727 0.8767 -0.0889
vn 0.8278 0.5367 0.1636
vn 0.9792 -0.1857 0.0815
vn 0.6510 -0.7469 -0.1350
vn -0.1477 -0.9467 -0.2862
vn -0.9625 0.1288 -0.2389
vn -0.9070 0.4062 -0.1114
vn -0.3003 0.9532 -0.0357
vn 0.7792 -0.6268 0.0077
vn -0.2650 -0.7936 -0.5478
vn -0.9194 -0.0634 -0.3881
vn -0.7585 0.5136 -0.4011
vn 0.8901 0.4400 0.1192
vn 0.9476 -0.3072 0.0878
vn 0.5739 -0.8166 -0.0616
vn -0.7962 -0.0241 -0.6045
vn 0.0036 0.9914 -0.1310
vn 0.8211 -0.5372 0.1931
vn -0.4167 -0.6261 -0.6591
vn -0.7470 0.2261 -0.6251
vn -0.6184 0.5975 -0.5105
vn -0.6360 0.3928 -0.6643
vn 0.7992 0.2233 0.5580
vn -0.2271 0.9312 -0.2851
vn 0.6042 -0.7467 0.2782
vn -0.1526 -0.8410 -0.5190
vn -0.3876 0.4501 -0.8044
vn 0.5326 0.6568 0.5337
vn 0.1911 -0.8975 -0.3975
vn 0.2587 -0.9326 -0.2517
vn 0.0071 -0.6973 -0.7168
vn 0.2507 -0.0816 -0.9646
vn 0.6563 0.4761 -0.5854
vn -0.2803 -0.3329 -0.9003
vn -0.4897 -0.7169 -0.4962
vn -0.0735 -0.9245 0.3739
vn 0.4298 -0.5381 0.7250
vn 0.6513 0.0427 0.7576
vn 0.7720 0.4263 0.4714
vn -0.1751 -0.0313 -0.9841
vn -0.3518 -0.8147 0.4611
vn 0.3270 -0.1273 0.9364
vn 0.5178 0.3047 0.7994
vn 0.5684 0.6514 0.5025
vn 0.2928 0.7673 -0.5706
vn -0.4262 -0.2836 -0.8590
vn -0.7539 -0.6500 -0.0958
vn 0.1768 0.0123 0.9842
vn 0.4292 0.4070 0.8063
vn 0.1930 0.7999 -0.5683
vn -0.6054 -0.6208 -0.4981
vn -0.3512 -0.8374 0.4189
vn 0.0002 0.0130 0.9999
vn 0.4906 0.7075 0.5087
vn 0.3197 0.0165 -0.9474
vn 0.5823 0.7377 -0.3416
vn -0.1920 -0.3407 -0.9204
vn -0.2256 -0.7219 -0.6542
vn -0.2150 -0.8617 0.4596
vn 0.0703 -0.0461 0.9965
vn 0.5088 0.7409 0.4384
vn 0.2119 0.2880 -0.9339
vn 0.4659 0.8619 0.2002
vn -0.0837 -0.1718 -0.9816
vn -0.0569 -0.6276 -0.7765
vn -0.3689 -0.8977 0.2411
vn -0.1805 -0.2315 0.9560
vn 0.2369 0.0321 0.9710
vn 0.3943 0.5632 0.7262
vn 0.5396 0.5138 -0.6670
vn -0.0168 0.0572 -0.9982
vn 0.0042 -0.4846 -0.8747
vn -0.5328 -0.8444 -0.0548
vn -0.3257 -0.3775 0.8669
vn -0.0300 -0.0233 0.9993
vn 0.1971 0.3933 0.8980
vn 0.0863 0.6853 -0.7231
vn 0.2863 0.8970 0.3368
vn 0.0053 0.3316 -0.9434
vn -0.0434 -0.2323 -0.9717
vn -0.6012 -0.7775 -0.1847
vn -0.4246 -0.5323 0.7324
vn -0.2527 -0.1253 0.9594
vn -0.1336 0.2819 0.9501
vn -0.0035 0.7012 -0.7130
vn -0.1542 0.8787 0.4518
vn -0.5576 -0.1398 -0.8183
vn -0.6035 -0.5327 0.5933
vn -0.4842 -0.1541 0.8613
vn 0.1864 0.2891 -0.9390
vn -0.0598 0.9282 0.3672
vn -0.0053 -0.3109 -0.9504
vn -0.1886 -0.9358 -0.2977
vn -0.3675 -0.6477 0.6674
vn -0.2707 0.1745 0.9467
vn 0.2834 0.5372 -0.7945
vn 0.0735 0.9924 0.0990
vn 0.1864 0.0931 -0.9780
vn -0.1623 -0.9524 -0.2581
vn -0.2262 -0.5350 0.8140
vn -0.3031 -0.0594 0.9511
vn -0.3613 0.4575 0.8125
vn -0.1117 0.9480 -0.2980
vn 0.1028 -0.5488 -0.8296
vn -0.3558 -0.1920 0.9146
vn -0.3844 0.6228 0.6814
vn 0.2896 0.2802 -0.9152
vn 0.2964 -0.3360 -0.8940
vn -0.3345 -0.9301 0.1515
vn -0.4511 0.2570 0.8547
vn -0.4638 0.8651 0.1912
vn 0.4556 -0.2693 -0.8485
vn -0.5952 0.2027 0.7776
vn 0.3697 -0.1796 -0.9116
vn -0.2803 -0.5163 -0.8093
vn 0.0749 -0.9972 0.0011
vn 0.5895 -0.4525 -0.6691
vn 0.9388 0.3421 0.0409
vn -0.1051 -0.7869 -0.6081
vn -0.5348 -0.8443 0.0337
vn -0.3550 -0.4775 0.8037
vn -0.1509 0.1478 0.9774
vn 0.1878 0.3420 0.9208
vn 0.8015 0.1051 -0.5887
vn 0.5255 -0.3114 -0.7918
vn 0.1851 -0.6409 -0.7450
vn -0.0767 0.4008 0.9130
vn 0.7026 0.6083 0.3693
vn -0.5774 -0.8012 -0.1570
vn -0.8718 -0.1206 0.4748
vn -0.5801 0.0913 0.8094
vn 0.9394 0.1665 -0.2997
vn 0.7017 -0.1526 -0.6959
vn 0.4939 -0.5270 -0.6917
vn -0.4658 -0.8195 -0.3337
vn -0.2302 0.3604 0.9040
vn 0.8041 0.5920 0.0540
vn 0.8743 -0.1640 -0.4569
vn -0.2720 -0.9373 -0.2178
vn -0.8868 -0.4059 0.2209
vn -0.6818 -0.2056 0.7020
vn -0.3444 0.1169 0.9315
vn 0.8447 0.3289 0.4224
vn 0.1846 0.6139 0.7675
vn 0.8983 0.1458 -0.4144
vn 0.8095 -0.3151 -0.4953
vn -0.1056 -0.8619 -0.4960
vn -0.8325 -0.5403 -0.1225
vn -0.8402 -0.2453 0.4836
vn -0.6373 0.1574 0.7544
vn 0.5916 0.7671 -0.2480
vn -0.1943 0.8801 0.4332
vn 0.2832 -0.3392 -0.8971
vn -0.2334 -0.3743 -0.8975
vn -0.9853 -0.0782 0.1517
vn -0.8743 0.2907 0.3886
vn 0.6131 0.7392 -0.2787
vn -0.3002 0.9023 0.3094
vn 0.8296 0.3430 -0.4406
vn -0.2307 -0.5514 -0.8017
vn -0.8641 -0.4888 -0.1201
vn -0.9888 -0.1068 0.1042
vn 0.8793 0.0655 -0.4718
vn -0.2568 0.9637 0.0736
vn 0.8223 0.2863 -0.4918
vn 0.6197 -0.1030 -0.7780
vn -0.8538 -0.5095 -0.1069
vn -0.9911 -0.0529 0.1219
vn -0.9119 0.3401 0.2295
vn 0.1597 0.9769 -0.1423
vn 0.0862 -0.8883 -0.4511
vn -0.8958 -0.3660 0.2522
vn -0.6534 0.6927 0.3053
vn 0.9288 0.3213 0.1847
vn 0.3443 0.9384 -0.0295
vn 0.9256 -0.2788 -0.2560
vn 0.6124 -0.6957 -0.3755
vn -0.1786 -0.9589 0.2203
vn -0.9168 -0.1660 0.3633
vn -0.9087 0.2632 0.3240
vn -0.6284 0.7722 -0.0939
vn 0.9272 0.0508 -0.3712
vn -0.4023 0.7446 -0.5326
vn 0.8126 -0.4424 -0.3795
vn -0.4263 -0.8298 -0.3601
vn -0.9409 0.3360 0.0412
vn 0.9144 -0.0974 -0.3928
vn 0.3945 0.5637 -0.7257
vn 0.4947 -0.8608 -0.1197
vn -0.5238 -0.8415 -0.1325
vn -0.5584 0.7071 -0.4338
vn -0.8586 0.3868 -0.3366
vn -0.3172 -0.9483 0.0079
vn 0.8990 -0.4071 -0.1617
vn -0.5261 0.6937 -0.4920
vn -0.3928 0.3801 -0.8374
vt 0.475724 0.000000
vt 0.904508 0.045454
vt 0.998381 0.045454
vt 0.376302 0.045454
vt 0.095491 0.045454
vt 0.011430 0.045454
vt 0.345491 0.045454
vt 0.654508 0.045454
vt 0.904508 0.108279
vt 1.000000 0.090909
vt 0.654508 0.122464
vt 0.345491 0.113680
vt 0.095491 0.090909
vt 0.000000 0.090909
vt 0.345491 0.090909
vt 0.654508 0.090909
vt 0.904508 0.090909
vt 1.000000 0.136364
vt 0.095491 0.136364
vt 0.000860 0.136364
vt 0.345491 0.136364
vt 0.889169 0.136364
vt 0.904508 0.181818
vt 1.000000 0.196871
vt 0.654508 0.208797
vt 0.345491 0.206705
vt 0.095491 0.181818
vt 0.000000 0.181818
vt 0.345491 0.181818
vt 0.654508 0.181818
vt 0.904508 0.204566
vt 0.904508 0.227273
vt 0.095491 0.249285
vt 0.000000 0.256422
vt 0.095491 0.227273
vt 0.345491 0.227273
vt 0.654508 0.247274
vt 0.881460 0.272727
vt 1.000000 0.282589
vt 0.345491 0.298230
vt 0.095491 0.272727
vt 0.345491 0.272727
vt 0.904508 0.318182
vt 0.654508 0.318182
vt 0.095491 0.352749
vt 0.000000 0.341918
vt 0.095491 0.318182
vt 0.345491 0.318182
vt 0.654508 0.355312
vt 0.904508 0.352619
vt 0.904508 0.363636
vt 1.000000 0.387137
vt 0.654508 0.363636
vt 0.345491 0.386156
vt 0.095491 0.363636
vt 0.345491 0.363636
vt 0.904508 0.437796
vt 0.654508 0.409091
vt 0.095491 0.419511
vt 0.000000 0.439112
vt 0.095491 0.409091
vt 0.345491 0.409091
vt 0.654508 0.431423
vt 0.904508 0.409091
vt 1.000000 0.454545
vt 0.654508 0.487241
vt 0.345491 0.495915
vt 0.095491 0.465638
vt 0.345491 0.461541
vt 0.904509 0.467636
vt 0.904508 0.500000
vt 1.000000 0.500000
vt 0.095491 0.500000
vt 0.000000 0.500000
vt 0.654508 0.536837
vt 0.904508 0.545455
vt 1.000000 0.545455
vt 0.654508 0.545455
vt 0.320346 0.545455
vt 0.000000 0.545455
vt 0.095491 0.575150
vt 0.345491 0.576463
vt 0.904508 0.590909
vt 1.000000 0.590909
vt 0.654508 0.590909
vt 0.345491 0.590909
vt 0.095491 0.590909
vt 0.000000 0.590909
vt 0.904508 0.595513
vt 0.904508 0.636364
vt 1.000000 0.636364
vt 0.654508 0.656051
vt 0.345491 0.636364
vt 0.095491 0.636364
vt 0.000000 0.636364
vt 0.099105 0.637021
vt 0.654508 0.668589
vt 0.904508 0.681818
vt 1.000000 0.681818
vt 0.345491 0.681818
vt 0.095491 0.704705
vt 0.000000 0.681818
vt 0.095491 0.681818
vt 0.904508 0.713205
vt 0.904508 0.727273
vt 1.000000 0.750786
vt 0.654508 0.740064
vt 0.345491 0.727273
vt 0.000000 0.746171
vt 0.095491 0.727273
vt 0.654508 0.727273
vt 0.904508 0.794282
vt 0.345491 0.772727
vt 0.095491 0.772727
vt 0.095491 0.794069
vt 0.654508 0.772727
vt 0.904508 0.772727
vt 1.000000 0.818182
vt 0.654508 0.818182
vt 0.345491 0.818182
vt 0.095491 0.818182
vt 0.000000 0.818182
vt 0.345491 0.832963
vt 0.654508 0.841263
vt 0.904508 0.818182
vt 0.904508 0.863636
vt 1.000000 0.863636
vt 0.654508 0.863636
vt 0.345491 0.863636
vt 0.095491 0.863636
vt 0.000000 0.863636
vt 0.904508 0.909091
vt 1.000000 0.909091
vt 0.654508 0.909091
vt 0.345491 0.909091
vt 0.095491 0.909091
vt 0.000000 0.909091
vt 0.345491 0.932614
vt 0.654508 0.943122
vt 0.904508 0.954545
vt 1.000000 0.954545
vt 0.654508 0.954545
vt 0.345491 0.954545
vt 0.095491 0.954545
vt 0.000000 0.954545
vt 0.904508 1.000000
vt 1.000000 1.000000
vt 0.654508 1.022655
vt 0.345491 1.025340
vt 0.095491 1.000000
vt 0.000000 1.000000
vt 0.345491 1.000000
vt 0.654508 1.000000
vt 0.904508 1.020817
vt 0.904508 1.045455
vt 1.000000 1.045455
vt 0.095491 1.057358
vt 0.000000 1.055000
vt 0.095491 1.045455
vt 0.345491 1.045455
vt 0.654508 1.045455
vt 0.904508 1.123410
vt 1.000000 1.104109
vt 0.654508 1.124932
vt 0.345491 1.112227
vt 0.095491 1.090909
vt 0.345491 1.104440
vt 0.654508 1.090909
vt 0.904508 1.120733
vt 0.095491 1.136364
vt 0.000000 1.136364
vt 0.095491 1.168532
vt 0.654508 1.136364
vt 0.903455 1.181818
vt 1.000000 1.212629
vt 0.345491 1.181818
vt 0.095491 1.181818
vt 0.000000 1.181818
vt 0.345491 1.198861
vt 0.654508 1.203859
vt 0.904508 1.199312
vt 0.907396 1.227273
vt 0.345491 1.236540
vt 0.087281 1.227273
vt 0.095491 1.240395
vt 0.908345 1.272727
vt 1.000000 1.297221
vt 0.095491 1.272727
vt 0.000000 1.280135
vt 0.345491 1.313950
vt 0.654508 1.304141
vt 0.904508 1.272727
vt 0.860229 1.341412
vt 0.345491 1.350032
vt 0.095491 1.329334
vt 0.095491 1.351521
vt 0.904508 1.318182
vt 1.000000 1.374082
vt 0.654508 1.363636
vt 0.000000 1.385221
vt 0.345491 1.380601
vt 0.654508 1.393403
vt 0.904508 1.363636
vt 0.904508 1.445446
vt 0.654508 1.428769
vt 0.345491 1.437896
vt 0.095491 1.470164
vt 0.095491 1.426409
vt 0.904508 1.422760
vt 1.004453 1.515568
vt 0.000000 1.485264
vt 0.400204 1.454545
vt 0.654508 1.513078
vt 0.345491 1.527038
vt 0.095491 1.525731
vt 0.625621 1.500000
vt 0.904508 1.522867
vt 0.095491 1.553846
vt 0.000000 1.580283
vt 0.345491 1.566516
vt 0.654508 1.575304
vt 0.651364 1.590909
vt 1.000000 1.646567
vt 0.345491 1.605801
vt 0.095491 1.618590
vt 0.904508 1.590909
vt 0.904508 1.664376
vt 0.654508 1.658139
vt 0.095491 1.660941
vt 0.000000 1.636364
vt 0.345491 1.662547
vt 0.654508 1.636364
vt 0.904508 1.651638
vt 0.345491 1.704656
vt 0.000000 1.702376
vt 0.095491 1.681818
vt 0.654508 1.696943
vt 0.904508 1.773895
vt 0.654508 1.727273
vt 0.095491 1.782127
vt 0.099800 1.727273
vt 0.904351 1.790534
vt 0.630342 1.795820
vt 0.000000 1.795930
vt 0.275637 1.790835
vt 0.654508 1.786326
vt 0.304119 1.881458
vt 0.904508 1.885318
vt 0.796416 1.879402
vt 0.434851 1.884104
vt -0.044735 1.893402
vt 0.357604 1.940970
vt 0.891338 1.954546
vt 0.095820 1.954545
vt 0.460489 2.000000
vt 0.506409 0.000000
vt 0.853553 0.050000
vt 1.000000 0.052569
vt 0.500000 0.059805
vt 0.146447 0.050915
vt 0.000000 0.050000
vt 0.146447 0.050000
vt 0.500000 0.050000
vt 0.853553 0.130459
vt 0.000000 0.100000
vt 0.146447 0.100000
vt 0.500000 0.100000
vt 0.853553 0.149864
vt 1.000000 0.150000
vt 0.500000 0.166308
vt 0.141041 0.150000
vt 0.146447 0.150000
vt 0.500000 0.150000
vt 0.997786 0.200000
vt 0.146447 0.200000
vt 0.000000 0.200000
vt 0.847701 0.200000
vt 0.853553 0.250000
vt 1.000000 0.250000
vt 0.500000 0.250000
vt 0.146447 0.250000
vt 0.000000 0.250000
vt 0.174234 0.250000
vt 0.853553 0.300000
vt 1.000000 0.346485
vt 0.500000 0.300000
vt 0.146447 0.300000
vt 0.000000 0.300000
vt 0.853553 0.350000
vt 0.500000 0.350000
vt 0.146447 0.350000
vt 0.000000 0.350000
vt 0.853553 0.400000
vt 1.000000 0.400000
vt 0.500000 0.432165
vt 0.146447 0.400000
vt 0.000000 0.400000
vt 0.500000 0.400000
vt 0.853553 0.427341
vt 0.853553 0.450000
vt 1.000000 0.450000
vt 0.139657 0.450000
vt 0.146447 0.450000
vt 0.500000 0.450000
vt 0.497120 0.500000
vt 0.146447 0.505201
vt 0.146447 0.500000
vt 0.820082 0.500000
vt 0.853553 0.558526
vt 1.000000 0.550000
vt 0.500000 0.564674
vt 0.000000 0.554027
vt 0.146447 0.550000
vt 0.500000 0.563726
vt 0.853553 0.550000
vt 1.000000 0.647652
vt 0.146447 0.619352
vt 0.146447 0.639130
vt 0.853553 0.645608
vt 0.853553 0.657409
vt 0.500000 0.665905
vt 0.000000 0.676365
vt 0.500000 0.650000
vt 0.884479 0.700000
vt 0.031584 0.739217
vt 0.352360 0.700000
vt 0.997254 0.750000
vt 0.535201 0.799839
vt 0.459547 0.090000
vt 0.561063 0.140000
vt 1.000000 0.139263
vt 0.146447 0.140000
vt 0.000000 0.141656
vt 0.146447 0.140129
vt 0.500000 0.140000
vt 0.853553 0.140942
vt 0.853553 0.229432
vt 0.500000 0.225911
vt 0.146447 0.229059
vt 0.816444 0.234752
vt 1.000000 0.279853
vt 0.000000 0.240000
vt 0.146447 0.281601
vt 0.500000 0.260270
vt 0.853553 0.290000
vt 0.500000 0.290000
vt 0.146447 0.290000
vt 0.000000 0.290000
vt 0.856982 0.340000
vt 0.415981 0.340000
vt 0.000000 0.340000
vt 0.146447 0.340000
vt 0.500000 0.340000
vt 0.853553 0.340000
vt 0.853553 0.390000
vt 1.000000 0.390000
vt 0.500000 0.402323
vt 0.146447 0.390000
vt 0.000000 0.390000
vt 0.146447 0.432629
vt 0.500000 0.390000
vt 0.853553 0.440000
vt 1.000000 0.440000
vt 0.146447 0.452326
vt 0.000000 0.440000
vt 0.500000 0.440000
vt 0.853553 0.474907
vt 0.853553 0.490000
vt 1.000000 0.490000
vt 0.500000 0.490000
vt 0.000000 0.494686
vt 0.146447 0.490000
vt 0.534005 0.585191
vt 1.000000 0.540000
vt 0.500000 0.540000
vt 0.146447 0.540000
vt 0.853553 0.540000
vt 0.997378 0.590000
vt 0.011041 0.590000
vt 0.146447 0.590000
vt 0.859487 0.590000
vt 0.853553 0.640000
vt 1.000000 0.640000
vt 0.500000 0.640000
vt 0.146447 0.653511
vt 0.000000 0.640000
vt 0.146447 0.640000
vt 0.853553 0.690000
vt 0.868083 0.690000
vt 0.500000 0.690000
vt 0.000000 0.690000
vt 0.409976 0.691092
vt 0.853553 0.756411
vt 1.000000 0.770915
vt 0.170589 0.749657
vt 0.000000 0.751446
vt 0.853553 0.760934
vt 0.347507 0.777365
vt 0.019936 0.841275
vt 0.813532 0.840000
vt 0.381001 0.840000
vt 0.423947 0.890000
s 1
f 1/1/1 3/2/2 2/3/3
f 1/1/1 4/4/4 3/2/2
f 1/1/1 5/5/5 4/4/4
f 1/1/1 6/6/6 5/5/5
f 1/1/1 7/7/7 6/6/6
f 1/1/1 8/8/8 7/7/7
f 1/1/1 2/3/3 8/8/8
f 2/3/3 3/2/2 10/9/9
f 2/3/3 10/9/9 9/10/10
f 3/2/2 4/4/4 11/11/11
f 3/2/2 11/11/11 10/9/9
f 4/4/4 12/12/12 11/11/11
f 4/4/4 5/5/5 13/13/13
f 4/4/4 13/13/13 12/12/12
f 5/5/5 6/6/6 14/14/14
f 5/5/5 14/14/14 13/13/13
f 6/6/6 15/13/15 14/14/14
f 6/6/6 7/7/7 16/15/16
f 6/6/6 16/15/16 15/13/15
f 7/7/7 8/8/8 17/16/17
f 7/7/7 17/16/17 16/15/16
f 8/8/8 2/3/3 18/17/18
f 8/8/8 18/17/18 17/16/17
f 2/3/3 9/10/10 18/17/18
f 9/10/10 10/9/9 19/18/19
f 12/12/12 13/13/13 20/19/20
f 13/13/13 14/14/14 21/20/21
f 13/13/13 21/20/21 20/19/20
f 14/14/14 15/13/15 21/20/21
f 15/13/15 16/15/16 22/21/22
f 15/13/15 22/21/22 21/20/21
f 16/15/16 17/16/17 23/22/23
f 16/15/16 23/22/23 22/21/22
f 17/16/17 18/17/18 23/22/23
f 18/17/18 9/10/10 19/18/19
f 18/17/18 19/18/19 23/22/23
f 19/18/19 10/9/9 25/23/24
f 19/18/19 25/23/24 24/24/25
f 10/9/9 11/11/11 26/25/26
f 10/9/9 26/25/26 25/23/24
f 11/11/11 12/12/12 27/26/27
f 11/11/11 27/26/27 26/25/26
f 12/12/12 20/19/20 28/27/28
f 12/12/12 28/27/28 27/26/27
f 20/19/20 21/20/21 29/28/29
f 20/19/20 29/28/29 28/27/28
f 21/20/21 30/27/30 29/28/29
f 21/20/21 22/21/22 31/29/31
f 21/20/21 31/29/31 30/27/30
f 22/21/22 23/22/23 32/30/32
f 22/21/22 32/30/32 31/29/31
f 23/22/23 33/31/33 32/30/32
f 23/22/23 19/18/19 24/24/25
f 23/22/23 24/24/25 33/31/33
f 24/24/25 25/23/24 34/32/34
f 25/23/24 26/25/26 34/32/34
f 27/26/27 28/27/28 35/33/35
f 28/27/28 29/28/29 36/34/36
f 28/27/28 36/34/36 35/33/35
f 29/28/29 30/27/30 37/35/37
f 29/28/29 37/35/37 36/34/36
f 30/27/30 31/29/31 38/36/38
f 30/27/30 38/36/38 37/35/37
f 31/29/31 32/30/32 39/37/39
f 31/29/31 39/37/39 38/36/38
f 32/30/32 33/31/33 39/37/39
f 24/24/25 34/32/34 41/38/40
f 24/24/25 41/38/40 40/39/41
f 34/32/34 26/25/26 41/38/40
f 26/25/26 27/26/27 42/40/42
f 26/25/26 42/40/42 41/38/40
f 27/26/27 35/33/35 42/40/42
f 36/34/36 37/35/37 43/41/43
f 37/35/37 38/36/38 44/42/44
f 37/35/37 44/42/44 43/41/43
f 38/36/38 39/37/39 44/42/44
f 33/31/33 24/24/25 40/39/41
f 40/39/41 41/38/40 45/43/45
f 41/38/40 46/44/46 45/43/45
f 41/38/40 42/40/42 46/44/46
f 42/40/42 35/33/35 47/45/47
f 35/33/35 36/34/36 48/46/48
f 35/33/35 48/46/48 47/45/47
f 36/34/36 43/41/43 49/47/49
f 36/34/36 49/47/49 48/46/48
f 43/41/43 44/42/44 50/48/50
f 43/41/43 50/48/50 49/47/49
f 44/42/44 39/37/39 51/49/51
f 44/42/44 51/49/51 50/48/50
f 39/37/39 33/31/33 52/50/52
f 39/37/39 52/50/52 51/49/51
f 33/31/33 40/39/41 52/50/52
f 40/39/41 45/43/45 54/51/53
f 40/39/41 54/51/53 53/52/54
f 45/43/45 46/44/46 55/53/55
f 45/43/45 55/53/55 54/51/53
f 46/44/46 42/40/42 56/54/56
f 46/44/46 56/54/56 55/53/55
f 42/40/42 47/45/47 56/54/56
f 48/46/48 49/47/49 57/55/57
f 49/47/49 50/48/50 58/56/58
f 49/47/49 58/56/58 57/55/57
f 50/48/50 51/49/51 58/56/58
f 52/50/52 40/39/41 53/52/54
f 53/52/54 54/51/53 59/57/59
f 54/51/53 55/53/55 60/58/60
f 54/51/53 60/58/60 59/57/59
f 55/53/55 56/54/56 60/58/60
f 56/54/56 47/45/47 61/59/61
f 47/45/47 48/46/48 62/60/62
f 47/45/47 62/60/62 61/59/61
f 48/46/48 57/55/57 63/61/63
f 48/46/48 63/61/63 62/60/62
f 57/55/57 58/56/58 64/62/64
f 57/55/57 64/62/64 63/61/63
f 58/56/58 51/49/51 65/63/65
f 58/56/58 65/63/65 64/62/64
f 51/49/51 52/50/52 66/64/66
f 51/49/51 66/64/66 65/63/65
f 52/50/52 53/52/54 66/64/66
f 53/52/54 59/57/59 67/65/67
f 59/57/59 60/58/60 68/66/68
f 60/58/60 56/54/56 69/67/69
f 60/58/60 69/67/69 68/66/68
f 56/54/56 61/59/61 69/67/69
f 62/60/62 63/61/63 70/68/70
f 63/61/63 64/62/64 71/69/71
f 63/61/63 71/69/71 70/68/70
f 64/62/64 65/63/65 71/69/71
f 65/63/65 66/64/66 72/70/72
f 66/64/66 53/52/54 67/65/67
f 66/64/66 67/65/67 72/70/72
f 67/65/67 59/57/59 74/71/73
f 67/65/67 74/71/73 73/72/74
f 59/57/59 68/66/68 74/71/73
f 69/67/69 61/59/61 75/73/75
f 61/59/61 62/60/62 76/74/76
f 61/59/61 76/74/76 75/73/75
f 62/60/62 70/68/70 76/74/76
f 71/69/71 65/63/65 77/75/77
f 65/63/65 72/70/72 77/75/77
f 72/70/72 67/65/67 73/72/74
f 73/72/74 74/71/73 79/76/78
f 73/72/74 79/76/78 78/77/79
f 74/71/73 68/66/68 80/78/80
f 74/71/73 80/78/80 79/76/78
f 68/66/68 69/67/69 81/79/81
f 68/66/68 81/79/81 80/78/80
f 69/67/69 75/73/75 81/79/81
f 75/73/75 76/74/76 82/80/82
f 75/73/75 82/80/82 81/79/81
f 76/74/76 70/68/70 83/81/83
f 76/74/76 83/81/83 82/80/82
f 70/68/70 71/69/71 84/82/84
f 70/68/70 84/82/84 83/81/83
f 71/69/71 77/75/77 84/82/84
f 77/75/77 72/70/72 85/76/85
f 72/70/72 73/72/74 78/77/79
f 72/70/72 78/77/79 85/76/85
f 78/77/79 79/76/78 87/83/86
f 78/77/79 87/83/86 86/84/87
f 79/76/78 80/78/80 88/85/88
f 79/76/78 88/85/88 87/83/86
f 80/78/80 81/79/81 89/86/89
f 80/78/80 89/86/89 88/85/88
f 81/79/81 90/87/90 89/86/89
f 81/79/81 82/80/82 91/88/91
f 81/79/81 91/88/91 90/87/90
f 82/80/82 83/81/83 91/88/91
f 84/82/84 77/75/77 92/85/92
f 77/75/77 85/76/85 93/89/93
f 77/75/77 93/89/93 92/85/92
f 85/76/85 78/77/79 86/84/87
f 85/76/85 86/84/87 93/89/93
f 86/84/87 87/83/86 95/90/94
f 86/84/87 95/90/94 94/91/95
f 87/83/86 88/85/88 96/92/96
f 87/83/86 96/92/96 95/90/94
f 88/85/88 89/86/89 97/93/97
f 88/85/88 97/93/97 96/92/96
f 89/86/89 90/87/90 98/94/98
f 89/86/89 98/94/98 97/93/97
f 90/87/90 91/88/91 99/95/99
f 90/87/90 99/95/99 98/94/98
f 91/88/91 83/81/83 100/96/100
f 91/88/91 100/96/100 99/95/99
f 83/81/83 84/82/84 101/93/101
f 83/81/83 101/93/101 100/96/100
f 84/82/84 92/85/92 102/97/102
f 84/82/84 102/97/102 101/93/101
f 92/85/92 93/89/93 102/97/102
f 93/89/93 86/84/87 94/91/95
f 94/91/95 95/90/94 104/98/103
f 94/91/95 104/98/103 103/99/104
f 95/90/94 96/92/96 104/98/103
f 96/92/96 97/93/97 105/100/105
f 97/93/97 98/94/98 106/101/106
f 97/93/97 106/101/106 105/100/105
f 98/94/98 99/95/99 107/102/107
f 98/94/98 107/102/107 106/101/106
f 99/95/99 100/96/100 108/103/108
f 99/95/99 108/103/108 107/102/107
f 101/93/101 102/97/102 100/96/100
f 102/97/102 93/89/93 109/104/109
f 93/89/93 94/91/95 103/99/104
f 93/89/93 103/99/104 109/104/109
f 103/99/104 104/98/103 111/105/110
f 103/99/104 111/105/110 110/106/111
f 104/98/103 96/92/96 112/107/112
f 104/98/103 112/107/112 111/105/110
f 96/92/96 105/100/105 113/108/113
f 96/92/96 113/108/113 112/107/112
f 105/100/105 106/101/106 113/108/113
f 106/101/106 107/102/107 114/109/114
f 107/102/107 108/103/108 115/110/115
f 107/102/107 115/110/115 114/109/114
f 108/103/108 100/96/100 116/108/116
f 108/103/108 116/108/116 115/110/115
f 100/96/100 102/97/102 117/111/117
f 100/96/100 117/111/117 116/108/116
f 102/97/102 109/104/109 117/111/117
f 109/104/109 103/99/104 110/106/111
f 110/106/111 111/105/110 118/112/118
f 111/105/110 112/107/112 118/112/118
f 112/107/112 113/108/113 119/113/119
f 113/108/113 106/101/106 120/114/120
f 113/108/113 120/114/120 119/113/119
f 106/101/106 114/109/114 120/114/120
f 114/109/114 115/110/115 121/115/121
f 115/110/115 116/108/116 122/113/122
f 115/110/115 122/113/122 121/115/121
f 116/108/116 117/111/117 123/116/123
f 116/108/116 123/116/123 122/113/122
f 117/111/117 109/104/109 124/117/124
f 117/111/117 124/117/124 123/116/123
f 109/104/109 110/106/111 124/117/124
f 110/106/111 118/112/118 125/118/125
f 118/112/118 112/107/112 126/119/126
f 112/107/112 119/113/119 127/120/127
f 112/107/112 127/120/127 126/119/126
f 119/113/119 120/114/120 128/121/128
f 119/113/119 128/121/128 127/120/127
f 120/114/120 114/109/114 129/122/129
f 120/114/120 129/122/129 128/121/128
f 114/109/114 121/115/121 129/122/129
f 121/115/121 122/113/122 130/123/130
f 122/113/122 123/116/123 131/124/131
f 122/113/122 131/124/131 130/123/130
f 123/116/123 124/117/124 132/125/132
f 123/116/123 132/125/132 131/124/131
f 124/117/124 110/106/111 125/118/125
f 124/117/124 125/118/125 132/125/132
f 125/118/125 118/112/118 134/126/133
f 125/118/125 134/126/133 133/127/134
f 118/112/118 126/119/126 135/128/135
f 118/112/118 135/128/135 134/126/133
f 126/119/126 127/120/127 136/129/136
f 126/119/126 136/129/136 135/128/135
f 127/120/127 128/121/128 137/130/137
f 127/120/127 137/130/137 136/129/136
f 128/121/128 129/122/129 138/131/138
f 128/121/128 138/131/138 137/130/137
f 129/122/129 121/115/121 139/130/139
f 129/122/129 139/130/139 138/131/138
f 121/115/121 130/123/130 139/130/139
f 131/124/131 132/125/132 140/126/140
f 132/125/132 125/118/125 133/127/134
f 132/125/132 133/127/134 140/126/140
f 133/127/134 134/126/133 142/132/141
f 133/127/134 142/132/141 141/133/142
f 134/126/133 135/128/135 143/134/143
f 134/126/133 143/134/143 142/132/141
f 135/128/135 136/129/136 144/135/144
f 135/128/135 144/135/144 143/134/143
f 136/129/136 137/130/137 145/136/145
f 136/129/136 145/136/145 144/135/144
f 137/130/137 138/131/138 146/137/146
f 137/130/137 146/137/146 145/136/145
f 138/131/138 139/130/139 147/136/147
f 138/131/138 147/136/147 146/137/146
f 139/130/139 130/123/130 148/138/148
f 139/130/139 148/138/148 147/136/147
f 130/123/130 131/124/131 149/139/149
f 130/123/130 149/139/149 148/138/148
f 131/124/131 140/126/140 150/132/150
f 131/124/131 150/132/150 149/139/149
f 140/126/140 133/127/134 141/133/142
f 140/126/140 141/133/142 150/132/150
f 141/133/142 142/132/141 152/140/151
f 141/133/142 152/140/151 151/141/152
f 142/132/141 143/134/143 153/142/153
f 142/132/141 153/142/153 152/140/151
f 143/134/143 144/135/144 154/143/154
f 143/134/143 154/143/154 153/142/153
f 144/135/144 145/136/145 155/144/155
f 144/135/144 155/144/155 154/143/154
f 145/136/145 146/137/146 156/145/156
f 145/136/145 156/145/156 155/144/155
f 146/137/146 147/136/147 157/144/157
f 146/137/146 157/144/157 156/145/156
f 147/136/147 148/138/148 157/144/157
f 149/139/149 150/132/150 158/140/158
f 150/132/150 141/133/142 151/141/152
f 150/132/150 151/141/152 158/140/158
f 151/141/152 152/140/151 160/146/159
f 151/141/152 160/146/159 159/147/160
f 152/140/151 153/142/153 161/148/161
f 152/140/151 161/148/161 160/146/159
f 153/142/153 154/143/154 162/149/162
f 153/142/153 162/149/162 161/148/161
f 154/143/154 155/144/155 163/150/163
f 154/143/154 163/150/163 162/149/162
f 155/144/155 156/145/156 164/151/164
f 155/144/155 164/151/164 163/150/163
f 156/145/156 157/144/157 165/150/165
f 156/145/156 165/150/165 164/151/164
f 157/144/157 148/138/148 166/152/166
f 157/144/157 166/152/166 165/150/165
f 148/138/148 149/139/149 167/153/167
f 148/138/148 167/153/167 166/152/166
f 149/139/149 158/140/158 168/154/168
f 149/139/149 168/154/168 167/153/167
f 158/140/158 151/141/152 159/147/160
f 158/140/158 159/147/160 168/154/168
f 159/147/160 160/146/159 170/155/169
f 159/147/160 170/155/169 169/156/170
f 160/146/159 161/148/161 170/155/169
f 162/149/162 163/150/163 171/157/171
f 163/150/163 164/151/164 172/158/172
f 163/150/163 172/158/172 171/157/171
f 164/151/164 165/150/165 173/159/173
f 164/151/164 173/159/173 172/158/172
f 165/150/165 166/152/166 174/160/174
f 165/150/165 174/160/174 173/159/173
f 166/152/166 167/153/167 175/161/175
f 166/152/166 175/161/175 174/160/174
f 167/153/167 168/154/168 175/161/175
f 168/154/168 159/147/160 169/156/170
f 169/156/170 170/155/169 177/162/176
f 169/156/170 177/162/176 176/163/177
f 170/155/169 161/148/161 178/164/178
f 170/155/169 178/164/178 177/162/176
f 161/148/161 162/149/162 179/165/179
f 161/148/161 179/165/179 178/164/178
f 162/149/162 171/157/171 179/165/179
f 172/158/172 173/159/173 180/166/180
f 173/159/173 174/160/174 181/167/181
f 173/159/173 181/167/181 180/166/180
f 174/160/174 175/161/175 182/168/182
f 174/160/174 182/168/182 181/167/181
f 175/161/175 168/154/168 183/169/183
f 175/161/175 183/169/183 182/168/182
f 168/154/168 169/156/170 176/163/177
f 168/154/168 176/163/177 183/169/183
f 179/165/179 171/157/171 184/170/184
f 171/157/171 172/158/172 185/171/185
f 171/157/171 185/171/185 184/170/184
f 172/158/172 180/166/180 186/172/186
f 172/158/172 186/172/186 185/171/185
f 180/166/180 181/167/181 186/172/186
f 181/167/181 182/168/182 187/173/187
f 182/168/182 183/169/183 187/173/187
f 176/163/177 177/162/176 189/174/188
f 176/163/177 189/174/188 188/175/189
f 177/162/176 178/164/178 189/174/188
f 178/164/178 179/165/179 190/176/190
f 178/164/178 190/176/190 189/174/188
f 179/165/179 184/170/184 191/177/191
f 179/165/179 191/177/191 190/176/190
f 184/170/184 185/171/185 192/178/192
f 184/170/184 192/178/192 191/177/191
f 185/171/185 186/172/186 192/178/192
f 186/172/186 181/167/181 193/179/193
f 181/167/181 187/173/187 194/180/194
f 181/167/181 194/180/194 193/179/193
f 187/173/187 183/169/183 195/181/195
f 187/173/187 195/181/195 194/180/194
f 183/169/183 176/163/177 188/175/189
f 183/169/183 188/175/189 195/181/195
f 188/175/189 189/174/188 196/182/196
f 189/174/188 190/176/190 197/183/197
f 189/174/188 197/183/197 196/182/196
f 190/176/190 191/177/191 198/184/198
f 190/176/190 198/184/198 197/183/197
f 191/177/191 192/178/192 198/184/198
f 192/178/192 186/172/186 199/185/199
f 192/178/192 199/185/199 198/184/198
f 186/172/186 193/179/193 199/185/199
f 188/175/189 196/182/196 201/186/200
f 188/175/189 201/186/200 200/187/201
f 196/182/196 197/183/197 201/186/200
f 197/183/197 198/184/198 202/188/202
f 198/184/198 203/189/203 202/188/202
f 198/184/198 199/185/199 203/189/203
f 199/185/199 193/179/193 204/190/204
f 193/179/193 194/180/194 205/191/205
f 193/179/193 205/191/205 204/190/204
f 194/180/194 195/181/195 206/192/206
f 194/180/194 206/192/206 205/191/205
f 195/181/195 188/175/189 200/187/201
f 195/181/195 200/187/201 206/192/206
f 200/187/201 201/186/200 207/193/207
f 201/186/200 197/183/197 208/194/208
f 201/186/200 208/194/208 207/193/207
f 197/183/197 202/188/202 209/195/209
f 197/183/197 209/195/209 208/194/208
f 202/188/202 203/189/203 209/195/209
f 203/189/203 199/185/199 210/196/210
f 199/185/199 204/190/204 210/196/210
f 205/191/205 206/192/206 211/197/211
f 206/192/206 200/187/201 211/197/211
f 200/187/201 207/193/207 212/198/212
f 207/193/207 208/194/208 213/199/213
f 209/195/209 203/189/203 214/200/214
f 203/189/203 210/196/210 214/200/214
f 210/196/210 204/190/204 215/201/215
f 204/190/204 205/191/205 216/202/216
f 204/190/204 216/202/216 215/201/215
f 205/191/205 211/197/211 217/203/217
f 205/191/205 217/203/217 216/202/216
f 211/197/211 200/187/201 212/198/212
f 211/197/211 212/198/212 217/203/217
f 212/198/212 207/193/207 218/204/218
f 207/193/207 213/199/213 219/205/219
f 207/193/207 219/205/219 218/204/218
f 213/199/213 208/194/208 220/206/220
f 213/199/213 220/206/220 219/205/219
f 208/194/208 209/195/209 221/207/221
f 208/194/208 221/207/221 220/206/220
f 209/195/209 214/200/214 221/207/221
f 214/200/214 210/196/210 222/208/222
f 210/196/210 215/201/215 222/208/222
f 216/202/216 217/203/217 223/209/223
f 217/203/217 212/198/212 223/209/223
f 212/198/212 218/204/218 224/210/224
f 221/207/221 214/200/214 225/211/225
f 214/200/214 222/208/222 225/211/225
f 222/208/222 215/201/215 226/212/226
f 215/201/215 216/202/216 226/212/226
f 216/202/216 223/209/223 226/212/226
f 223/209/223 212/198/212 224/210/224
f 218/204/218 219/205/219 227/213/227
f 218/204/218 227/213/227 224/210/224
f 219/205/219 220/206/220 228/214/228
f 219/205/219 228/214/228 227/213/227
f 220/206/220 221/207/221 228/214/228
f 225/211/225 222/208/222 229/215/229
f 222/208/222 226/212/226 230/216/230
f 222/208/222 230/216/230 229/215/229
f 226/212/226 223/209/223 231/217/231
f 226/212/226 231/217/231 230/216/230
f 223/209/223 224/210/224 231/217/231
f 228/214/228 221/207/221 232/218/232
f 221/207/221 225/211/225 233/219/233
f 221/207/221 233/219/233 232/218/232
f 225/211/225 229/215/229 233/219/233
f 229/215/229 230/216/230 234/220/234
f 230/216/230 235/221/235 234/220/234
f 230/216/230 231/217/231 235/221/235
f 224/210/224 237/222/236 236/223/237
f 224/210/224 227/213/227 237/222/236
f 227/213/227 228/214/228 238/224/238
f 227/213/227 238/224/238 237/222/236
f 228/214/228 232/218/232 238/224/238
f 233/219/233 229/215/229 239/225/239
f 229/215/229 234/220/234 239/225/239
f 235/221/235 231/217/231 240/226/240
f 231/217/231 224/210/224 236/223/237
f 231/217/231 236/223/237 240/226/240
f 236/223/237 237/222/236 241/227/241
f 237/222/236 242/228/242 241/227/241
f 237/222/236 238/224/238 242/228/242
f 238/224/238 232/218/232 243/229/243
f 232/218/232 233/219/233 244/230/244
f 232/218/232 244/230/244 243/229/243
f 233/219/233 239/225/239 244/230/244
f 239/225/239 234/220/234 245/231/245
f 234/220/234 235/221/235 246/232/246
f 234/220/234 246/232/246 245/231/245
f 235/221/235 240/226/240 247/233/247
f 235/221/235 247/233/247 246/232/246
f 240/226/240 236/223/237 247/233/247
f 242/228/242 238/224/238 248/234/248
f 238/224/238 243/229/243 248/234/248
f 243/229/243 244/230/244 249/235/249
f 244/230/244 239/225/239 250/236/250
f 244/230/244 250/236/250 249/235/249
f 239/225/239 245/231/245 250/236/250
f 245/231/245 246/232/246 251/237/251
f 246/232/246 247/233/247 251/237/251
f 236/223/237 241/227/241 252/238/252
f 241/227/241 242/228/242 253/239/253
f 241/227/241 253/239/253 252/238/252
f 242/228/242 248/234/248 253/239/253
f 248/234/248 243/229/243 254/240/254
f 243/229/243 249/235/249 254/240/254
f 249/235/249 250/236/250 255/241/255
f 250/236/250 245/231/245 255/241/255
f 245/231/245 251/237/251 255/241/255
f 251/237/251 247/233/247 256/242/256
f 247/233/247 236/223/237 256/242/256
f 236/223/237 252/238/252 256/242/256
f 252/238/252 253/239/253 257/243/257
f 253/239/253 248/234/248 257/243/257
f 248/234/248 254/240/254 257/243/257
f 254/240/254 249/235/249 258/244/258
f 249/235/249 255/241/255 259/245/259
f 249/235/249 259/245/259 258/244/258
f 255/241/255 251/237/251 260/246/260
f 255/241/255 260/246/260 259/245/259
f 251/237/251 256/242/256 260/246/260
f 258/244/258 259/245/259 261/247/261
f 256/242/256 252/238/252 262/248/262
f 256/242/256 262/248/262 265/249/263
f 252/238/252 257/243/257 263/250/264
f 252/238/252 263/250/264 262/248/262
f 257/243/257 254/240/254 264/251/265
f 257/243/257 264/251/265 263/250/264
f 254/240/254 258/244/258 264/251/265
f 258/244/258 261/247/261 264/251/265
f 259/245/259 260/246/260 265/249/263
f 259/245/259 265/249/263 261/247/261
f 260/246/260 256/242/256 265/249/263
f 264/251/265 261/247/261 266/252/266
f 265/249/263 262/248/262 267/253/267
f 262/248/262 263/250/264 268/254/268
f 262/248/262 268/254/268 267/253/267
f 263/250/264 264/251/265 268/254/268
f 264/251/265 266/252/266 268/254/268
f 261/247/261 265/249/263 266/252/266
f 265/249/263 267/253/267 266/252/266
f 267/253/267 268/254/268 269/255/269
f 268/254/268 266/252/266 269/255/269
f 266/252/266 267/253/267 269/255/269
f 270/256/270 272/257/271 271/258/272
f 270/256/270 273/259/273 272/257/271
f 270/256/270 274/260/274 273/259/273
f 270/256/270 275/261/275 274/260/274
f 270/256/270 276/262/276 275/261/275
f 270/256/270 277/263/277 276/262/276
f 270/256/270 278/257/278 277/263/277
f 270/256/270 271/258/272 278/257/278
f 271/258/272 272/257/271 279/264/279
f 272/257/271 273/259/273 279/264/279
f 274/260/274 275/261/275 280/265/280
f 275/261/275 276/262/276 281/266/281
f 275/261/275 281/266/281 280/265/280
f 276/262/276 277/263/277 282/267/282
f 276/262/276 282/267/282 281/266/281
f 277/263/277 278/257/278 283/268/283
f 277/263/277 283/268/283 282/267/282
f 278/257/278 271/258/272 283/268/283
f 271/258/272 279/264/279 284/269/284
f 279/264/279 273/259/273 285/270/285
f 273/259/273 274/260/274 286/271/286
f 273/259/273 286/271/286 285/270/285
f 274/260/274 280/265/280 286/271/286
f 280/265/280 281/266/281 287/272/287
f 280/265/280 287/272/287 286/271/286
f 281/266/281 282/267/282 288/273/288
f 281/266/281 288/273/288 287/272/287
f 282/267/282 283/268/283 288/273/288
f 283/268/283 271/258/272 284/269/284
f 284/269/284 279/264/279 289/274/289
f 279/264/279 285/270/285 289/274/289
f 285/270/285 286/271/286 290/275/290
f 286/271/286 291/276/291 290/275/290
f 286/271/286 287/272/287 292/275/292
f 286/271/286 292/275/292 291/276/291
f 287/272/287 288/273/288 293/277/293
f 287/272/287 293/277/293 292/275/292
f 288/273/288 283/268/283 293/277/293
f 283/268/283 284/269/284 289/274/289
f 283/268/283 289/274/289 293/277/293
f 289/274/289 295/278/294 294/279/295
f 289/274/289 285/270/285 296/280/296
f 289/274/289 296/280/296 295/278/294
f 285/270/285 290/275/290 297/281/297
f 285/270/285 297/281/297 296/280/296
f 290/275/290 291/276/291 298/282/298
f 290/275/290 298/282/298 297/281/297
f 291/276/291 292/275/292 299/283/299
f 291/276/291 299/283/299 298/282/298
f 292/275/292 293/277/293 299/283/299
f 293/277/293 300/278/300 299/283/299
f 293/277/293 289/274/289 294/279/295
f 293/277/293 294/279/295 300/278/300
f 294/279/295 295/278/294 302/284/301
f 294/279/295 302/284/301 301/285/302
f 295/278/294 296/280/296 303/286/303
f 295/278/294 303/286/303 302/284/301
f 296/280/296 297/281/297 304/287/304
f 296/280/296 304/287/304 303/286/303
f 297/281/297 298/282/298 305/288/305
f 297/281/297 305/288/305 304/287/304
f 298/282/298 299/283/299 306/287/306
f 298/282/298 306/287/306 305/288/305
f 299/283/299 307/286/307 306/287/306
f 299/283/299 300/278/300 308/284/308
f 299/283/299 308/284/308 307/286/307
f 300/278/300 294/279/295 301/285/302
f 300/278/300 301/285/302 308/284/308
f 301/285/302 302/284/301 309/289/309
f 302/284/301 303/286/303 310/290/310
f 302/284/301 310/290/310 309/289/309
f 303/286/303 304/287/304 311/291/311
f 303/286/303 311/291/311 310/290/310
f 304/287/304 305/288/305 312/292/312
f 304/287/304 312/292/312 311/291/311
f 305/288/305 306/287/306 313/291/313
f 305/288/305 313/291/313 312/292/312
f 306/287/306 307/286/307 314/290/314
f 306/287/306 314/290/314 313/291/313
f 307/286/307 308/284/308 315/289/315
f 307/286/307 315/289/315 314/290/314
f 308/284/308 301/285/302 315/289/315
f 301/285/302 309/289/309 317/293/316
f 301/285/302 317/293/316 316/294/317
f 309/289/309 310/290/310 318/295/318
f 309/289/309 318/295/318 317/293/316
f 310/290/310 311/291/311 319/296/319
f 310/290/310 319/296/319 318/295/318
f 311/291/311 312/292/312 320/297/320
f 311/291/311 320/297/320 319/296/319
f 312/292/312 313/291/313 321/296/321
f 312/292/312 321/296/321 320/297/320
f 313/291/313 314/290/314 322/298/322
f 313/291/313 322/298/322 321/296/321
f 314/290/314 315/289/315 323/299/323
f 314/290/314 323/299/323 322/298/322
f 315/289/315 301/285/302 316/294/317
f 315/289/315 316/294/317 323/299/323
f 316/294/317 317/293/316 325/300/324
f 316/294/317 325/300/324 324/301/325
f 317/293/316 318/295/318 325/300/324
f 318/295/318 319/296/319 326/302/326
f 319/296/319 320/297/320 326/302/326
f 320/297/320 321/296/321 327/303/327
f 320/297/320 327/303/327 326/302/326
f 321/296/321 322/298/322 328/304/328
f 321/296/321 328/304/328 327/303/327
f 322/298/322 323/299/323 328/304/328
f 323/299/323 316/294/317 324/301/325
f 324/301/325 325/300/324 330/305/329
f 324/301/325 330/305/329 329/72/330
f 325/300/324 318/295/318 330/305/329
f 318/295/318 326/302/326 331/306/331
f 318/295/318 331/306/331 330/305/329
f 326/302/326 332/74/332 331/306/331
f 326/302/326 327/303/327 333/307/333
f 326/302/326 333/307/333 332/74/332
f 327/303/327 328/304/328 334/308/334
f 327/303/327 334/308/334 333/307/333
f 328/304/328 323/299/323 334/308/334
f 323/299/323 324/301/325 329/72/330
f 323/299/323 329/72/330 334/308/334
f 329/72/330 330/305/329 336/309/335
f 329/72/330 336/309/335 335/310/336
f 330/305/329 337/311/337 336/309/335
f 330/305/329 331/306/331 337/311/337
f 331/306/331 332/74/332 338/312/338
f 332/74/332 333/307/333 339/313/339
f 332/74/332 339/313/339 338/312/338
f 333/307/333 334/308/334 340/314/340
f 333/307/333 340/314/340 339/313/339
f 334/308/334 341/315/341 340/314/340
f 334/308/334 329/72/330 335/310/336
f 334/308/334 335/310/336 341/315/341
f 335/310/336 336/309/335 342/316/342
f 337/311/337 331/306/331 343/317/343
f 331/306/331 338/312/338 343/317/343
f 338/312/338 339/313/339 344/318/344
f 339/313/339 340/314/340 344/318/344
f 340/314/340 341/315/341 345/319/345
f 341/315/341 335/310/336 342/316/342
f 341/315/341 342/316/342 345/319/345
f 342/316/342 336/309/335 346/320/346
f 336/309/335 337/311/337 347/321/347
f 336/309/335 347/321/347 346/320/346
f 337/311/337 343/317/343 347/321/347
f 343/317/343 338/312/338 348/322/348
f 338/312/338 344/318/344 348/322/348
f 344/318/344 340/314/340 349/323/349
f 340/314/340 345/319/345 349/323/349
f 342/316/342 346/320/346 350/324/350
f 347/321/347 343/317/343 351/325/351
f 343/317/343 348/322/348 351/325/351
f 348/322/348 344/318/344 352/326/352
f 344/318/344 349/323/349 352/326/352
f 349/323/349 345/319/345 350/324/350
f 349/323/349 350/324/350 352/326/352
f 345/319/345 342/316/342 350/324/350
f 350/324/350 346/320/346 353/327/353
f 346/320/346 347/321/347 353/327/353
f 347/321/347 351/325/351 353/327/353
f 348/322/348 352/326/352 354/328/354
f 348/322/348 354/328/354 351/325/351
f 352/326/352 350/324/350 354/328/354
f 350/324/350 353/327/353 354/328/354
f 353/327/353 351/325/351 354/328/354
f 355/329/355 357/330/356 356/331/357
f 355/329/355 358/332/358 357/330/356
f 355/329/355 359/333/359 358/332/358
f 355/329/355 360/334/360 359/333/359
f 355/329/355 361/335/361 360/334/360
f 355/329/355 362/336/362 361/335/361
f 355/329/355 356/331/357 362/336/362
f 356/331/357 357/330/356 363/337/363
f 357/330/356 364/338/364 363/337/363
f 357/330/356 358/332/358 365/339/365
f 357/330/356 365/339/365 364/338/364
f 358/332/358 359/333/359 365/339/365
f 360/334/360 361/335/361 366/340/366
f 361/335/361 362/336/362 366/340/366
f 356/331/357 363/337/363 367/341/367
f 365/339/365 359/333/359 368/342/368
f 359/333/359 360/334/360 369/343/369
f 359/333/359 369/343/369 368/342/368
f 360/334/360 366/340/366 370/344/370
f 360/334/360 370/344/370 369/343/369
f 362/336/362 356/331/357 367/341/367
f 362/336/362 367/341/367 366/340/366
f 367/341/367 363/337/363 371/345/371
f 363/337/363 364/338/364 372/346/372
f 363/337/363 372/346/372 371/345/371
f 364/338/364 365/339/365 373/347/373
f 364/338/364 373/347/373 372/346/372
f 365/339/365 368/342/368 374/348/374
f 365/339/365 374/348/374 373/347/373
f 368/342/368 369/343/369 374/348/374
f 370/344/370 366/340/366 375/345/375
f 366/340/366 367/341/367 375/345/375
f 367/341/367 371/345/371 376/349/376
f 371/345/371 372/346/372 377/350/377
f 371/345/371 377/350/377 376/349/376
f 372/346/372 373/347/373 377/350/377
f 373/347/373 374/348/374 378/351/378
f 373/347/373 378/351/378 377/350/377
f 374/348/374 369/343/369 379/352/379
f 374/348/374 379/352/379 378/351/378
f 369/343/369 370/344/370 380/353/380
f 369/343/369 380/353/380 379/352/379
f 370/344/370 375/345/375 381/354/381
f 370/344/370 381/354/381 380/353/380
f 375/345/375 367/341/367 376/349/376
f 375/345/375 376/349/376 381/354/381
f 376/349/376 383/355/382 382/356/383
f 376/349/376 377/350/377 384/357/384
f 376/349/376 384/357/384 383/355/382
f 377/350/377 385/358/385 384/357/384
f 377/350/377 378/351/378 386/359/386
f 377/350/377 386/359/386 385/358/385
f 378/351/378 379/352/379 387/360/387
f 378/351/378 387/360/387 386/359/386
f 379/352/379 380/353/380 388/361/388
f 379/352/379 388/361/388 387/360/387
f 380/353/380 381/354/381 389/355/389
f 380/353/380 389/355/389 388/361/388
f 381/354/381 376/349/376 382/356/383
f 381/354/381 382/356/383 389/355/389
f 382/356/383 383/355/382 391/362/390
f 382/356/383 391/362/390 390/363/391
f 383/355/382 384/357/384 391/362/390
f 384/357/384 385/358/385 392/364/392
f 385/358/385 386/359/386 393/365/393
f 385/358/385 393/365/393 392/364/392
f 386/359/386 387/360/387 393/365/393
f 387/360/387 388/361/388 394/366/394
f 388/361/388 389/355/389 395/367/395
f 388/361/388 395/367/395 394/366/394
f 389/355/389 382/356/383 390/363/391
f 389/355/389 390/363/391 395/367/395
f 390/363/391 391/362/390 397/368/396
f 390/363/391 397/368/396 396/369/397
f 391/362/390 384/357/384 398/370/398
f 391/362/390 398/370/398 397/368/396
f 384/357/384 392/364/392 398/370/398
f 392/364/392 393/365/393 399/371/399
f 393/365/393 387/360/387 400/372/400
f 393/365/393 400/372/400 399/371/399
f 387/360/387 394/366/394 401/370/401
f 387/360/387 401/370/401 400/372/400
f 394/366/394 395/367/395 401/370/401
f 395/367/395 390/363/391 396/369/397
f 396/369/397 397/368/396 403/373/402
f 396/369/397 403/373/402 402/374/403
f 397/368/396 398/370/398 404/375/404
f 397/368/396 404/375/404 403/373/402
f 398/370/398 392/364/392 405/376/405
f 398/370/398 405/376/405 404/375/404
f 392/364/392 399/371/399 405/376/405
f 399/371/399 400/372/400 406/376/406
f 400/372/400 401/370/401 407/375/407
f 400/372/400 407/375/407 406/376/406
f 401/370/401 395/367/395 408/377/408
f 401/370/401 408/377/408 407/375/407
f 395/367/395 396/369/397 402/374/403
f 395/367/395 402/374/403 408/377/408
f 402/374/403 403/373/402 409/378/409
f 404/375/404 405/376/405 410/379/410
f 404/375/404 410/379/410 403/373/402
f 405/376/405 399/371/399 410/379/410
f 399/371/399 406/376/406 411/380/411
f 399/371/399 411/380/411 410/379/410
f 406/376/406 407/375/407 412/381/412
f 406/376/406 412/381/412 411/380/411
f 407/375/407 408/377/408 412/381/412
f 408/377/408 402/374/403 409/378/409
f 408/377/408 409/378/409 412/381/412
f 409/378/409 414/382/413 413/383/414
f 409/378/409 403/373/402 415/384/415
f 409/378/409 415/384/415 414/382/413
f 403/373/402 410/379/410 416/385/416
f 403/373/402 416/385/416 415/384/415
f 410/379/410 417/386/417 416/385/416
f 410/379/410 411/380/411 418/387/418
f 410/379/410 418/387/418 417/386/417
f 411/380/411 412/381/412 419/384/419
f 411/380/411 419/384/419 418/387/418
f 412/381/412 420/382/420 419/384/419
f 412/381/412 409/378/409 413/383/414
f 412/381/412 413/383/414 420/382/420
f 413/383/414 414/382/413 422/388/421
f 413/383/414 422/388/421 421/389/422
f 414/382/413 415/384/415 423/390/423
f 414/382/413 423/390/423 422/388/421
f 415/384/415 416/385/416 423/390/423
f 416/385/416 417/386/417 424/391/424
f 417/386/417 418/387/418 425/392/425
f 417/386/417 425/392/425 424/391/424
f 418/387/418 419/384/419 425/392/425
f 419/384/419 420/382/420 421/389/422
f 419/384/419 421/389/422 425/392/425
f 420/382/420 413/383/414 421/389/422
f 421/389/422 422/388/421 427/393/426
f 421/389/422 427/393/426 426/394/427
f 422/388/421 423/390/423 428/395/428
f 422/388/421 428/395/428 427/393/426
f 423/390/423 416/385/416 428/395/428
f 416/385/416 424/391/424 429/396/429
f 416/385/416 429/396/429 428/395/428
f 424/391/424 425/392/425 429/396/429
f 425/392/425 421/389/422 430/397/430
f 425/392/425 430/397/430 432/398/431
f 421/389/422 426/394/427 430/397/430
f 427/393/426 428/395/428 431/399/432
f 429/396/429 425/392/425 432/398/431
f 426/394/427 427/393/426 434/400/433
f 426/394/427 434/400/433 433/401/434
f 427/393/426 431/399/432 434/400/433
f 428/395/428 429/396/429 431/399/432
f 429/396/429 432/398/431 431/399/432
f 432/398/431 433/401/434 431/399/432
f 432/398/431 430/397/430 433/401/434
f 430/397/430 426/394/427 433/401/434
f 433/401/434 434/400/433 435/402/435
f 434/400/433 431/399/432 435/402/435
f 431/399/432 433/401/434 435/402/435
