# Blender 5.1.2
# www.blender.org
o inferno_rolling_front_v20
v 4.350286 0.024774 -0.000179
v 4.733333 0.496221 -0.000000
v 4.925000 0.585000 -0.000000
v 5.127083 0.491300 -0.000135
v 5.500000 0.025000 -0.000000
v 4.390596 0.025000 0.432436
v 4.767843 0.523368 0.437385
v 4.962828 0.621716 0.488796
v 5.157846 0.524382 0.507431
v 5.535059 0.025000 0.545156
v 4.343371 0.025000 0.863950
v 4.710884 0.502359 0.937871
v 4.907323 0.597710 0.976127
v 5.107661 0.503401 0.993731
v 5.471274 0.025000 1.088304
v 4.198778 0.025000 1.273685
v 4.559092 0.495045 1.378743
v 4.749019 0.588860 1.440599
v 4.948412 0.495129 1.479886
v 5.299260 0.025000 1.607513
v 3.990592 0.025000 1.652957
v 4.369115 0.504343 1.748427
v 4.521822 0.595797 1.873000
v 4.717112 0.503923 1.922122
v 5.053053 0.025000 2.093043
v 3.768842 0.025000 2.014488
v 3.581954 0.023217 2.347048
v 4.106912 0.465445 2.195190
v 4.275947 0.548426 2.285541
v 4.444982 0.465445 2.375892
v 4.614017 0.252834 2.466243
v 4.783051 0.025000 2.556594
v 3.720951 0.202493 2.486260
v 3.880316 0.368126 2.592744
v 4.039680 0.432772 2.699228
v 4.199046 0.368126 2.805712
v 4.358410 0.202493 2.912197
v 4.517776 0.025000 3.018681
v 3.357491 0.023607 2.755315
v 3.652855 0.296530 2.997820
v 3.801015 0.347687 3.119412
v 3.949175 0.296530 3.241004
v 4.097336 0.165458 3.362597
v 4.245496 0.025000 3.484189
v 3.115915 0.025000 3.115915
v 3.251443 0.185697 3.251443
v 3.386972 0.335657 3.386972
v 3.522501 0.394185 3.522501
v 3.658030 0.335657 3.658030
v 3.793559 0.185697 3.793559
v 3.929087 0.025000 3.929087
v 2.810118 0.025000 3.424139
v 2.931710 0.249616 3.572299
v 3.053302 0.459224 3.720459
v 3.174894 0.541032 3.868619
v 3.296486 0.459224 4.016780
v 3.418078 0.249616 4.164940
v 3.539670 0.025000 4.313100
v 2.441423 0.025000 3.653848
v 2.547908 0.298481 3.813213
v 2.654392 0.553688 3.972578
v 2.760876 0.653294 4.131943
v 2.854151 0.551637 4.301280
v 3.080329 0.025000 4.610038
v 2.039629 0.025000 3.815877
v 2.261145 0.551095 4.134541
v 2.310682 0.650499 4.322982
v 2.401033 0.551336 4.492016
v 2.491384 0.297264 4.661051
v 2.587929 0.025853 4.828526
v 1.636389 0.025000 3.950592
v 1.626340 0.273775 4.165677
v 1.594616 0.476035 4.371088
v 1.606432 0.557096 4.571448
v 1.669286 0.471215 4.754916
v 1.832857 0.247787 4.908020
v 1.242258 0.025000 4.095175
v 1.074700 0.024731 5.377398
v 0.845598 0.025000 4.251109
v 0.951278 0.452306 4.611386
v 0.957775 0.533948 4.815060
v 1.029195 0.452628 4.996815
v 0.431349 0.025000 4.379560
v 0.440285 0.403496 4.756406
v 0.487709 0.485790 4.951792
v 0.506495 0.412740 5.142536
v 0.525282 0.225571 5.333279
v 0.544069 0.025000 5.524023
v 0.000000 0.025000 4.430000
v -0.018052 0.330086 4.794318
v 0.000000 0.400000 5.005000
v 0.000000 0.340550 5.196667
v 0.000000 0.188229 5.388333
v 0.000000 0.025000 5.580000
v -0.431349 0.025000 4.379560
v -0.450136 0.175587 4.570304
v -0.468922 0.316112 4.761048
v -0.487709 0.370958 4.951792
v -0.506495 0.316112 5.142536
v -0.525282 0.175587 5.333279
v -0.544069 0.025000 5.524023
v -0.845598 0.025000 4.251109
v -0.882990 0.217514 4.439093
v -0.920383 0.397164 4.627076
v -0.957775 0.467280 4.815060
v -0.995167 0.397164 5.003044
v -1.032560 0.217514 5.191028
v -1.069952 0.025000 5.379012
v -1.242258 0.025000 4.095175
v -1.297896 0.284855 4.278588
v -1.353534 0.527346 4.462002
v -1.409171 0.621989 4.645415
v -1.464809 0.527346 4.828829
v -1.520447 0.284855 5.012243
v -1.742629 0.026315 5.136788
v -1.636389 0.025000 3.950592
v -1.787651 0.587162 4.300370
v -1.856432 0.695918 4.481822
v -1.937079 0.586975 4.658655
v -2.039629 0.025000 3.815877
v -2.205820 0.538576 4.152993
v -2.310682 0.638737 4.322982
v -2.401033 0.541439 4.492016
v -2.491384 0.292145 4.661051
v -2.581735 0.025000 4.830086
v -2.441423 0.025000 3.653848
v -2.662630 0.443027 3.951047
v -2.760876 0.535599 4.131943
v -2.867360 0.454652 4.291308
v -2.973845 0.247252 4.450673
v -3.080329 0.025000 4.610038
v -2.809396 0.026326 3.422837
v -3.053302 0.411624 3.720459
v -3.174894 0.484464 3.868619
v -3.271118 0.408673 4.049898
v -3.539670 0.025000 4.313100
v -3.115915 0.025000 3.115915
v -3.383653 0.404050 3.380760
v -3.605732 0.476375 3.422251
v -3.647220 0.405078 3.679752
v -3.929087 0.025000 3.929087
v -3.356534 0.025000 2.754636
v -3.650537 0.381179 2.985881
v -3.924633 0.385877 3.289713
v -4.245496 0.025000 3.484189
v -3.572499 0.025120 2.359980
v -3.880316 0.348427 2.592744
v -4.039680 0.409361 2.699228
v -4.199046 0.348427 2.805712
v -4.472007 0.025301 3.098174
v -3.768842 0.025000 2.014488
v -3.937877 0.200853 2.104839
v -4.106912 0.364955 2.195190
v -4.287707 0.429901 2.289514
v -4.444982 0.364955 2.375892
v -4.614017 0.200853 2.466243
v -4.783051 0.025000 2.556594
v -3.990592 0.025000 1.652957
v -4.167669 0.253465 1.726305
v -4.344746 0.466664 1.799652
v -4.698899 0.466664 1.946348
v -4.875976 0.253465 2.019696
v -5.053053 0.025000 2.093043
v -4.198778 0.025000 1.273685
v -4.382192 0.310811 1.329323
v -4.565606 0.577524 1.384961
v -4.749019 0.681621 1.440599
v -4.932433 0.577524 1.496237
v -5.115846 0.310811 1.551875
v -5.299260 0.025000 1.607513
v -4.343371 0.025000 0.863950
v -4.717293 0.588158 0.937396
v -4.907323 0.697486 0.976127
v -5.095306 0.590875 1.013520
v -5.283290 0.317717 1.050912
v -5.471274 0.025000 1.088304
v -4.390596 0.025000 0.432436
v -4.581340 0.269573 0.451223
v -4.772084 0.497805 0.470009
v -4.962828 0.586882 0.488796
v -5.153572 0.497805 0.507582
v -5.344316 0.269573 0.526369
v -5.535059 0.025000 0.545156
v -4.350000 0.025000 -0.000000
v -4.541667 0.216521 -0.000000
v -4.733333 0.395245 -0.000000
v -4.925000 0.465000 -0.000000
v -5.116667 0.395245 -0.000000
v -5.308333 0.216521 -0.000000
v -5.500000 0.025000 -0.000000
v -4.258530 0.025126 -0.466343
v -4.648998 0.364350 -0.457886
v -4.839742 0.428284 -0.476673
v -5.030486 0.364350 -0.495460
v -5.418731 0.025409 -0.496106
v -4.188746 0.027360 -0.824260
v -4.563691 0.387768 -0.944695
v -4.713962 0.460234 -1.196741
v -4.867746 0.394940 -1.407580
v -5.317364 0.025000 -1.057689
v -4.126603 0.025000 -1.251791
v -4.224711 0.206607 -1.732544
v -5.229628 0.027546 -1.585779
v -4.047160 0.025000 -1.676389
v -4.401314 0.386160 -1.823084
v -4.578391 0.454203 -1.896432
v -4.658553 0.400455 -2.298757
v -5.110625 0.025860 -2.116222
v -3.903873 0.025000 -2.086664
v -4.072908 0.232441 -2.177015
v -4.241943 0.426021 -2.267366
v -4.410978 0.501574 -2.357717
v -4.749048 0.232441 -2.538419
v -4.918083 0.025000 -2.628770
v -3.672200 0.025000 -2.453686
v -3.831565 0.282782 -2.560170
v -3.990930 0.523340 -2.666654
v -4.150295 0.617228 -2.773139
v -4.309660 0.523340 -2.879623
v -4.469025 0.282782 -2.986107
v -4.628390 0.025000 -3.092592
v -3.366066 0.026103 -2.765023
v -3.291816 0.341542 -3.102944
v -3.664978 0.594936 -3.007769
v -3.813138 0.702313 -3.129361
v -3.961702 0.592649 -3.253075
v -4.257619 0.025000 -3.494138
v -3.306972 0.555809 -3.306972
v -3.442501 0.655815 -3.442501
v -3.578030 0.555809 -3.578030
v -3.713558 0.299578 -3.713558
v -3.849087 0.025000 -3.849087
v -2.709104 0.025000 -3.301052
v -2.830696 0.235659 -3.449213
v -2.952288 0.432243 -3.597373
v -3.073880 0.508968 -3.745533
v -3.195472 0.432243 -3.893694
v -3.317064 0.235659 -4.041854
v -3.438656 0.025000 -4.190014
v -2.396879 0.024559 -3.576371
v -2.605006 0.337778 -3.898668
v -2.711491 0.396706 -4.058033
v -2.817975 0.337778 -4.217398
v -2.924459 0.186794 -4.376763
v -3.030944 0.025000 -4.536128
v -2.061523 0.025000 -3.856838
v -2.151874 0.188011 -4.025873
v -2.242225 0.340130 -4.194908
v -2.332576 0.399501 -4.363943
v -2.327614 0.345130 -4.608954
v -2.603629 0.025000 -4.871047
v -1.692957 0.025000 -4.087160
v -1.766305 0.216498 -4.264237
v -1.839653 0.395201 -4.441314
v -1.913000 0.464947 -4.618391
v -1.950827 0.395005 -4.818623
v -2.133043 0.025000 -5.149621
v -1.283219 0.025000 -4.230206
v -1.424878 0.423093 -4.582932
v -1.450133 0.504139 -4.780447
v -1.479879 0.419757 -4.983950
v -1.617046 0.025000 -5.330688
v -0.851688 0.025000 -4.281723
v -0.942643 0.432170 -4.645850
v -0.963865 0.516052 -4.845675
v -1.076541 0.026402 -5.411229
v -0.421400 0.025000 -4.278546
v -0.091995 0.212698 -4.406955
v -0.458973 0.478727 -4.660034
v -0.477760 0.564210 -4.850778
v -0.444937 0.480291 -5.049885
v -0.534120 0.025000 -5.423009
v 0.000000 0.025000 -4.270000
v 0.000000 0.550916 -4.653333
v 0.000000 0.650000 -4.845000
v 0.000000 0.550916 -5.036667
v 0.501419 0.575882 -5.038723
v 0.000000 0.025000 -5.420000
v 0.421400 0.025000 -4.278546
v 0.443555 0.573226 -4.657290
v 0.477760 0.679042 -4.850778
v 0.515333 0.309688 -5.232265
v 0.534120 0.025000 -5.423009
v 0.851688 0.025000 -4.281723
v 0.889080 0.267762 -4.469707
v 0.926472 0.494303 -4.657691
v 0.963865 0.582720 -4.845675
v 1.001257 0.494303 -5.033659
v 1.038649 0.267761 -5.221642
v 1.076042 0.025000 -5.409626
v 1.283219 0.025000 -4.230206
v 1.338857 0.200421 -4.413620
v 1.394495 0.364121 -4.597034
v 1.450133 0.428011 -4.780447
v 1.505771 0.364121 -4.963861
v 1.561409 0.200421 -5.147274
v 1.617046 0.025000 -5.330688
v 1.693208 0.023728 -4.088241
v 1.839653 0.301911 -4.441314
v 1.913000 0.354082 -4.618391
v 1.986348 0.301911 -4.795468
v 2.059695 0.168241 -4.972545
v 2.132903 0.023917 -5.148718
v 2.061523 0.025000 -3.856838
v 2.151874 0.193131 -4.025873
v 2.242225 0.350027 -4.194908
v 2.332576 0.411263 -4.363943
v 2.760413 0.424922 -4.266228
v 2.603629 0.025000 -4.871047
v 2.392038 0.025000 -3.579938
v 2.498522 0.238024 -3.739303
v 2.605006 0.436814 -3.898668
v 2.711491 0.514400 -4.058033
v 3.173593 0.478042 -3.911928
v 3.030944 0.025000 -4.536128
v 2.709104 0.025000 -3.301052
v 2.848072 0.278652 -3.456843
v 2.952288 0.479843 -3.597373
v 3.073880 0.565536 -3.745533
v 3.657022 0.484293 -3.519735
v 3.438656 0.025000 -4.190014
v 3.366141 0.025164 -2.766838
v 3.592833 0.496818 -3.073372
v 3.701210 0.583199 -3.229634
v 3.849087 0.025000 -3.849087
v 3.516817 0.273752 -2.886177
v 4.028427 0.507339 -3.196038
v 4.257619 0.025000 -3.494138
v 3.672200 0.025000 -2.453686
v 3.964897 0.538595 -2.692166
v 4.150295 0.640639 -2.773139
v 4.314424 0.540213 -2.880402
v 4.628390 0.025000 -3.092592
v 3.903873 0.025000 -2.086664
v 4.072908 0.284422 -2.177015
v 4.241943 0.526511 -2.267366
v 4.410978 0.620997 -2.357717
v 4.580013 0.526511 -2.448068
v 4.749048 0.284422 -2.538419
v 4.918083 0.025000 -2.628770
v 4.047160 0.025000 -1.676389
v 4.224237 0.231810 -1.749736
v 4.401314 0.424802 -1.823084
v 4.578391 0.500125 -1.896432
v 4.755468 0.424802 -1.969779
v 4.932545 0.231810 -2.043127
v 5.109622 0.025000 -2.116475
v 4.126603 0.025000 -1.251791
v 4.310016 0.174464 -1.307429
v 4.493430 0.313942 -1.363067
v 4.676843 0.368379 -1.418705
v 4.860257 0.313942 -1.474343
v 5.043670 0.174464 -1.529981
v 5.227084 0.025000 -1.585619
v 4.189461 0.025000 -0.833336
v 4.377445 0.167559 -0.870728
v 4.565429 0.300592 -0.908120
v 4.758992 0.353434 -0.945508
v 4.941396 0.300592 -0.982905
v 5.129380 0.167559 -1.020297
v 5.317364 0.025000 -1.057689
v 4.267510 0.025000 -0.420313
v 4.458254 0.215702 -0.439100
v 4.648998 0.393661 -0.457886
v 5.030486 0.393661 -0.495460
v 5.221229 0.215702 -0.514246
v 5.411973 0.025000 -0.533033
v 4.350000 0.025000 -0.000000
v 4.541667 0.268754 -0.000000
v 4.733333 0.496221 -0.000000
v 4.925000 0.585000 -0.000000
v 5.116667 0.496221 -0.000000
v 5.308333 0.268754 -0.000000
v 5.500000 0.025000 -0.000000
vn -0.7871 0.6136 0.0636
vn -0.7952 0.6061 0.0172
vn -0.6021 0.7983 -0.0107
vn -0.6983 0.7157 0.0115
vn -0.1571 0.9859 -0.0575
vn 0.0035 0.9996 -0.0263
vn 0.6103 0.7883 -0.0782
vn 0.6359 0.7712 0.0308
vn 0.7939 0.6047 -0.0637
vn 0.7915 0.6094 0.0471
vn -0.7792 0.6112 -0.1388
vn -0.6243 0.7731 -0.1119
vn 0.0086 0.9998 0.0178
vn 0.6296 0.7643 0.1397
vn 0.7593 0.6197 0.1985
vn -0.7280 0.6177 -0.2974
vn -0.5837 0.7733 -0.2476
vn 0.0121 0.9999 -0.0075
vn 0.5952 0.7677 0.2373
vn 0.7161 0.6202 0.3202
vn -0.6850 0.6155 -0.3898
vn -0.5572 0.7867 -0.2658
vn -0.0040 0.9991 0.0423
vn 0.5182 0.7898 0.3281
vn 0.6769 0.6278 0.3843
vn -0.6760 0.6245 -0.3910
vn -0.6362 0.7042 -0.3153
vn -0.5574 0.8055 -0.2011
vn -0.0522 0.9867 0.1543
vn 0.4688 0.7859 0.4032
vn 0.6212 0.6585 0.4250
vn 0.6308 0.6716 0.3885
vn -0.6275 0.7302 -0.2703
vn -0.5138 0.8497 -0.1181
vn -0.0809 0.9807 0.1781
vn 0.3896 0.8406 0.3763
vn 0.5521 0.7394 0.3854
vn 0.5568 0.7566 0.3429
vn -0.5461 0.7854 -0.2913
vn -0.4105 0.8870 -0.2113
vn -0.0115 0.9994 0.0327
vn 0.3820 0.8875 0.2578
vn 0.5127 0.7944 0.3257
vn 0.5157 0.7897 0.3322
vn -0.5048 0.7711 -0.3881
vn -0.4595 0.7659 -0.4497
vn -0.2863 0.8596 -0.4232
vn 0.1218 0.9811 -0.1500
vn 0.4658 0.8605 0.2062
vn 0.5379 0.7581 0.3687
vn 0.5292 0.7227 0.4447
vn -0.4454 0.6859 -0.5755
vn -0.3914 0.6622 -0.6390
vn -0.2298 0.7754 -0.5882
vn 0.1796 0.9659 -0.1863
vn 0.4887 0.7991 0.3501
vn 0.5203 0.6702 0.5293
vn 0.4834 0.6194 0.6186
vn -0.3648 0.5937 -0.7173
vn -0.3312 0.5937 -0.7333
vn -0.2358 0.7320 -0.6392
vn 0.0975 0.9925 -0.0739
vn 0.3306 0.7626 0.5560
vn 0.3688 0.5843 0.7229
vn -0.2940 0.5774 -0.7617
vn -0.2752 0.7754 -0.5684
vn -0.0461 0.9981 0.0399
vn 0.2129 0.7322 0.6470
vn 0.2783 0.5911 0.7571
vn 0.2877 0.5903 0.7542
vn -0.2764 0.6020 -0.7491
vn -0.2953 0.6363 -0.7127
vn -0.2682 0.7811 -0.5639
vn -0.0629 0.9973 0.0391
vn 0.1777 0.7759 0.6053
vn 0.2471 0.6411 0.7265
vn -0.2777 0.6310 -0.7244
vn 0.2128 0.6667 0.7143
vn -0.2622 0.6557 -0.7080
vn -0.2354 0.8169 -0.5266
vn -0.0563 0.9982 0.0227
vn 0.1268 0.8125 0.5690
vn -0.1895 0.6828 -0.7056
vn -0.2068 0.8330 -0.5132
vn -0.1135 0.9931 0.0295
vn 0.0221 0.8272 0.5615
vn 0.0912 0.7064 0.7020
vn 0.0978 0.7131 0.6942
vn -0.0567 0.7373 -0.6732
vn -0.0799 0.8671 -0.4917
vn -0.0994 0.9949 0.0178
vn -0.0625 0.8625 0.5021
vn -0.0255 0.7636 0.6452
vn -0.0266 0.7700 0.6375
vn 0.1019 0.7760 -0.6225
vn 0.1412 0.7790 -0.6109
vn 0.1395 0.8766 -0.4605
vn 0.0756 0.9971 0.0072
vn -0.0280 0.8800 0.4742
vn -0.0843 0.7786 0.6218
vn -0.1223 0.7585 0.6400
vn 0.2412 0.7254 -0.6447
vn 0.3071 0.6986 -0.6462
vn 0.3474 0.7996 -0.4898
vn 0.2478 0.9685 0.0234
vn 0.0020 0.8354 0.5496
vn -0.1412 0.7108 0.6891
vn -0.2111 0.6656 0.7158
vn 0.3088 0.6238 -0.7180
vn 0.3520 0.6044 -0.7147
vn 0.3761 0.7395 -0.5583
vn 0.2194 0.9749 0.0385
vn -0.0929 0.7623 0.6406
vn -0.2219 0.6150 0.7566
vn -0.2612 0.5811 0.7708
vn 0.2850 0.5719 -0.7692
vn 0.2150 0.7649 -0.6071
vn 0.0152 0.9999 0.0057
vn -0.2520 0.7480 0.6140
vn 0.2647 0.5749 -0.7742
vn 0.1198 0.7542 -0.6456
vn -0.1408 0.9888 -0.0497
vn -0.3339 0.7417 0.5817
vn -0.3363 0.5983 0.7273
vn -0.3203 0.6028 0.7308
vn 0.3092 0.6260 -0.7159
vn 0.1912 0.7855 -0.5886
vn -0.1258 0.9905 -0.0559
vn -0.3560 0.7879 0.5025
vn -0.3928 0.6536 0.6469
vn -0.3795 0.6695 0.6385
vn 0.4252 0.6992 -0.5747
vn 0.3231 0.8247 -0.4642
vn -0.0454 0.9989 -0.0136
vn -0.3773 0.8147 0.4403
vn -0.4689 0.6993 0.5395
vn 0.5335 0.7033 -0.4699
vn 0.3824 0.8514 -0.3591
vn -0.0582 0.9981 -0.0206
vn -0.4248 0.8403 0.3369
vn -0.5523 0.7116 0.4343
vn 0.5894 0.7123 -0.3812
vn 0.4143 0.8495 -0.3267
vn -0.4653 0.8539 0.2331
vn -0.5818 0.7275 0.3636
vn 0.5707 0.7495 -0.3356
vn 0.4251 0.8645 -0.2684
vn -0.0183 0.9998 -0.0106
vn -0.4526 0.8570 0.2464
vn -0.5753 0.7519 0.3220
vn 0.5819 0.7390 -0.3393
vn 0.5988 0.7363 -0.3152
vn 0.4979 0.8472 -0.1853
vn 0.0532 0.9917 0.1170
vn -0.4072 0.8446 0.3475
vn -0.5623 0.7328 0.3833
vn -0.6041 0.7017 0.3779
vn 0.6525 0.6712 -0.3519
vn 0.6933 0.6526 -0.3057
vn 0.6068 0.7814 -0.1459
vn -0.4501 0.7786 0.4372
vn -0.6333 0.6471 0.4244
vn -0.6912 0.6071 0.3920
vn 0.7452 0.5823 -0.3249
vn 0.7660 0.5790 -0.2794
vn 0.6674 0.7239 -0.1747
vn 0.0598 0.9888 0.1370
vn -0.5964 0.7259 0.3426
vn -0.7416 0.5791 0.3387
vn -0.7766 0.5517 0.3043
vn 0.7993 0.5610 -0.2153
vn 0.6037 0.7657 -0.2220
vn -0.0273 0.9973 -0.0687
vn -0.6889 0.7175 0.1030
vn -0.8051 0.5738 0.1503
vn -0.8101 0.5700 0.1376
vn 0.8058 0.5891 -0.0603
vn 0.7673 0.6341 -0.0953
vn 0.6062 0.7795 -0.1576
vn -0.0582 0.9773 -0.2039
vn -0.6536 0.7487 -0.1109
vn -0.7787 0.6264 -0.0357
vn -0.7648 0.6440 -0.0209
vn 0.7373 0.6727 0.0627
vn 0.7054 0.7079 0.0359
vn 0.5410 0.8397 -0.0469
vn -0.0308 0.9882 -0.1498
vn -0.5628 0.8113 -0.1583
vn -0.7001 0.7049 -0.1141
vn -0.6976 0.7108 -0.0898
vn 0.6626 0.7407 0.1115
vn 0.5177 0.8519 0.0792
vn -0.0081 0.9999 -0.0150
vn -0.5233 0.8464 -0.0988
vn -0.6617 0.7407 -0.1166
vn 0.6672 0.7335 0.1296
vn 0.5165 0.8485 0.1155
vn -0.0018 0.9999 0.0134
vn -0.5167 0.8490 -0.1103
vn -0.6868 0.7169 -0.1197
vn 0.7270 0.6787 0.1037
vn 0.6675 0.7221 0.1815
vn -0.6726 0.7281 -0.1324
vn 0.6801 0.7144 0.1646
vn 0.5149 0.8392 0.1751
vn -0.0098 0.9991 0.0409
vn -0.5655 0.8129 -0.1396
vn -0.6701 0.7212 -0.1753
vn 0.6575 0.6909 0.3007
vn 0.6339 0.6830 0.3629
vn 0.4720 0.8042 0.3614
vn -0.0586 0.9831 0.1735
vn -0.6725 0.6833 -0.2844
vn -0.6776 0.6495 -0.3450
vn 0.6147 0.6207 0.4868
vn 0.5795 0.6076 0.5432
vn 0.4336 0.7381 0.5169
vn -0.0976 0.9782 0.1834
vn -0.5807 0.7607 -0.2901
vn -0.6551 0.6163 -0.4371
vn -0.6396 0.5774 -0.5075
vn 0.5674 0.5528 0.6103
vn 0.5443 0.5848 0.6014
vn 0.4514 0.7110 0.5392
vn -0.0313 0.9989 0.0354
vn -0.4548 0.7457 -0.4869
vn -0.5619 0.5624 -0.6067
vn 0.5080 0.7464 0.4300
vn 0.1112 0.9816 -0.1554
vn -0.3442 0.7233 -0.5987
vn -0.4756 0.5876 -0.6546
vn -0.4963 0.6017 -0.6258
vn 0.5189 0.6371 0.5700
vn 0.5279 0.6741 0.5166
vn 0.5003 0.8097 0.3068
vn 0.1672 0.9675 -0.1899
vn -0.2574 0.7882 -0.5591
vn -0.4171 0.6778 -0.6055
vn -0.4426 0.7017 -0.5583
vn 0.4699 0.7439 0.4753
vn 0.3920 0.8597 0.3274
vn 0.0744 0.9943 -0.0758
vn -0.2743 0.8604 -0.4294
vn -0.3987 0.7560 -0.5191
vn -0.4068 0.7614 -0.5049
vn 0.3945 0.7588 0.5182
vn 0.3635 0.7629 0.5347
vn 0.2441 0.8686 0.4312
vn -0.0569 0.9977 0.0359
vn -0.3369 0.8563 -0.3915
vn -0.3809 0.7402 -0.5541
vn 0.3039 0.7254 0.6176
vn 0.2579 0.7204 0.6438
vn 0.1488 0.8393 0.5229
vn -0.1034 0.9933 0.0509
vn -0.2694 0.8396 -0.4718
vn -0.2878 0.7030 -0.6503
vn 0.1794 0.6938 0.6975
vn 0.1038 0.8437 0.5266
vn -0.0609 0.9980 0.0150
vn -0.1385 0.8133 -0.5651
vn -0.1560 0.6820 -0.7145
vn 0.0551 0.6734 0.7372
vn 0.0040 0.8014 0.5981
vn -0.0726 0.9963 0.0468
vn -0.0811 0.6785 -0.7301
vn -0.0345 0.6343 0.7723
vn -0.0299 0.5991 0.8001
vn -0.0848 0.7696 0.6329
vn -0.1287 0.9915 0.0197
vn -0.0857 0.7771 -0.6235
vn -0.0184 0.6146 -0.7886
vn -0.0034 0.5970 0.8023
vn -0.0764 0.7353 0.6734
vn -0.1120 0.9937 0.0105
vn -0.0536 0.6167 -0.7854
vn 0.0820 0.7584 -0.6466
vn -0.0025 0.5637 -0.8260
vn 0.0068 0.5740 0.8188
vn 0.0522 0.7663 0.6404
vn 0.0650 0.9979 -0.0029
vn 0.0241 0.5846 -0.8109
vn 0.0254 0.5758 -0.8172
vn -0.0093 0.5921 0.8058
vn 0.0345 0.6308 0.7751
vn 0.1150 0.7670 0.6313
vn 0.2286 0.9735 0.0090
vn 0.1945 0.7658 -0.6130
vn 0.1279 0.6387 -0.7587
vn 0.1020 0.6551 -0.7486
vn -0.0948 0.6932 0.7145
vn -0.0713 0.7312 0.6784
vn 0.0474 0.8479 0.5280
vn 0.2047 0.9785 0.0235
vn 0.2526 0.8373 -0.4848
vn 0.2118 0.7371 -0.6417
vn 0.1877 0.7582 -0.6244
vn -0.2424 0.7901 0.5630
vn -0.1836 0.8880 0.4216
vn 0.0087 0.9999 -0.0080
vn 0.1908 0.8851 -0.4244
vn 0.2435 0.7920 -0.5598
vn 0.2392 0.7948 -0.5577
vn -0.3740 0.7576 0.5350
vn -0.4217 0.7532 0.5048
vn -0.3974 0.8463 0.3546
vn -0.1524 0.9872 -0.0475
vn 0.2740 0.8161 -0.5087
vn -0.4864 0.6895 0.5367
vn -0.5158 0.6801 0.5209
vn -0.4665 0.7983 0.3810
vn -0.1331 0.9880 -0.0780
vn 0.3511 0.8150 -0.4610
vn 0.3759 0.7332 -0.5667
vn 0.4763 0.6521 -0.5898
vn -0.5042 0.6455 0.5737
vn -0.5081 0.6470 0.5685
vn -0.4349 0.7828 0.4450
vn -0.0473 0.9982 -0.0370
vn 0.3970 0.7843 -0.4768
vn 0.5012 0.6277 -0.5956
vn -0.5293 0.6145 0.5850
vn -0.4560 0.7716 0.4436
vn -0.0230 0.9990 -0.0386
vn 0.5028 0.6251 -0.5970
vn -0.5490 0.6170 0.5638
vn 0.4163 0.7637 -0.4935
vn 0.5594 0.6020 -0.5698
vn -0.6165 0.5990 0.5111
vn -0.4820 0.7871 0.3849
vn -0.0207 0.9993 -0.0313
vn 0.5146 0.7662 -0.3849
vn 0.6538 0.5944 -0.4682
vn -0.7108 0.5916 0.3805
vn -0.6911 0.6169 0.3765
vn -0.5375 0.7673 0.3498
vn 0.0765 0.9926 0.0947
vn 0.6229 0.7521 -0.2153
vn 0.7244 0.6170 -0.3075
vn 0.7209 0.6209 -0.3078
vn -0.7219 0.6476 0.2440
vn -0.6660 0.6946 0.2718
vn -0.4671 0.8277 0.3110
vn 0.1264 0.9714 0.2010
vn 0.6136 0.7893 -0.0227
vn 0.7151 0.6849 -0.1399
vn 0.6837 0.7116 -0.1619
vn -0.6460 0.7487 0.1489
vn -0.5962 0.7834 0.1759
vn -0.4149 0.8880 0.1983
vn 0.0683 0.9894 0.1281
vn 0.5032 0.8642 -0.0052
vn 0.6241 0.7766 -0.0860
vn 0.6007 0.7920 -0.1091
vn -0.5955 0.7968 0.1021
vn -0.6029 0.7935 0.0828
vn -0.4627 0.8863 0.0187
vn -0.0129 0.9966 -0.0809
vn 0.4332 0.8892 -0.1473
vn 0.5907 0.7929 -0.1495
vn 0.6240 0.7697 -0.1348
vn -0.6669 0.7385 0.0993
vn -0.6948 0.7175 0.0505
vn -0.5510 0.8320 -0.0647
vn 0.5017 0.8269 -0.2538
vn 0.6739 0.7141 -0.1894
vn 0.7248 0.6731 -0.1468
vn -0.7444 0.6597 0.1030
vn -0.7479 0.6627 0.0371
vn -0.5579 0.8251 -0.0894
vn 0.1145 0.9629 -0.2442
vn 0.6309 0.7393 -0.2353
vn 0.7424 0.6484 -0.1687
vn 0.7795 0.6130 -0.1287
vt -0.000000 0.000000
vt 0.000000 0.078125
vt 0.329265 0.078125
vt 0.333333 0.000000
vt 0.500000 0.000000
vt 0.500000 0.078125
vt 0.672536 0.000000
vt 0.669242 0.078125
vt 1.000000 0.000000
vt 1.000000 0.078125
vt 0.000000 0.156250
vt 0.328413 0.156250
vt 0.500000 0.156250
vt 0.671070 0.156250
vt 1.000000 0.156250
vt 0.000000 0.234375
vt 0.328561 0.234375
vt 0.500000 0.234375
vt 0.672301 0.234375
vt 1.000000 0.234375
vt 0.000000 0.312500
vt 0.333950 0.312500
vt 0.500000 0.312500
vt 0.669925 0.312500
vt 1.000000 0.312500
vt 0.000000 0.390625
vt 0.010068 0.464030
vt 0.333333 0.390625
vt 0.500000 0.390625
vt 0.666667 0.390625
vt 0.833333 0.390625
vt 1.000000 0.390625
vt 0.166667 0.468750
vt 0.333333 0.468750
vt 0.500000 0.468750
vt 0.666667 0.468750
vt 0.833333 0.468750
vt 1.000000 0.468750
vt 0.000084 0.546875
vt 0.333333 0.546875
vt 0.500000 0.546875
vt 0.666667 0.546875
vt 0.833333 0.546875
vt 1.000000 0.546875
vt 0.000000 0.625000
vt 0.166667 0.625000
vt 0.333333 0.625000
vt 0.500000 0.625000
vt 0.666667 0.625000
vt 0.833333 0.625000
vt 1.000000 0.625000
vt 0.000000 0.703125
vt 0.166667 0.703125
vt 0.333333 0.703125
vt 0.500000 0.703125
vt 0.666667 0.703125
vt 0.833333 0.703125
vt 1.000000 0.703125
vt 0.000000 0.781250
vt 0.166667 0.781250
vt 0.333333 0.781250
vt 0.500000 0.781250
vt 0.667822 0.781250
vt 1.000000 0.781250
vt 0.000000 0.859375
vt 0.333903 0.859375
vt 0.500000 0.859375
vt 0.666667 0.859375
vt 0.833333 0.859375
vt 1.000000 0.858451
vt 0.000000 0.937500
vt 0.166667 0.953717
vt 0.333333 0.971693
vt 0.500000 0.981148
vt 0.666667 0.981381
vt 0.833333 0.965649
vt 0.000000 1.015625
vt 1.000000 1.093022
vt 0.000000 1.093750
vt 0.329155 1.093750
vt 0.500000 1.093750
vt 0.667154 1.093750
vt 0.000000 1.171875
vt 0.326010 1.171875
vt 0.500000 1.171875
vt 0.666667 1.171875
vt 0.833333 1.171875
vt 1.000000 1.171875
vt 0.000000 1.250000
vt 0.318767 1.250000
vt 0.500000 1.250000
vt 0.666667 1.250000
vt 0.833333 1.250000
vt 1.000000 1.250000
vt 0.000000 1.328125
vt 0.166667 1.328125
vt 0.333333 1.328125
vt 0.500000 1.328125
vt 0.666667 1.328125
vt 0.833333 1.328125
vt 1.000000 1.328125
vt 0.000000 1.406250
vt 0.166667 1.406250
vt 0.333333 1.406250
vt 0.500000 1.406250
vt 0.666667 1.406250
vt 0.833333 1.406250
vt 1.000000 1.406250
vt 0.000000 1.484375
vt 0.166667 1.484375
vt 0.333333 1.484375
vt 0.500000 1.484375
vt 0.666667 1.484375
vt 0.833333 1.484375
vt 1.000000 1.510281
vt 0.000000 1.562500
vt 0.331694 1.562500
vt 0.500000 1.562500
vt 0.668461 1.562500
vt 0.000000 1.640625
vt 0.329649 1.640625
vt 0.500000 1.640625
vt 0.666667 1.640625
vt 0.833333 1.640625
vt 1.000000 1.640625
vt 0.000000 1.718750
vt 0.322957 1.718750
vt 0.500000 1.718750
vt 0.666667 1.718750
vt 0.833333 1.718750
vt 1.000000 1.718750
vt -0.000034 1.796875
vt 0.333333 1.796875
vt 0.500000 1.796875
vt 0.672193 1.796875
vt 1.000000 1.796875
vt 0.000000 1.875000
vt 0.328984 1.875000
vt 0.500000 1.895662
vt 0.671011 1.875000
vt 1.000000 1.875000
vt 0.000000 1.953125
vt 0.326964 1.953125
vt 0.672224 1.953125
vt 1.000000 1.953125
vt -0.000898 2.031250
vt 0.333333 2.031250
vt 0.500000 2.031250
vt 0.666667 2.031250
vt 1.002885 2.031250
vt 0.000000 2.109375
vt 0.166667 2.109375
vt 0.333333 2.109375
vt 0.500000 2.109809
vt 0.666667 2.109375
vt 0.833333 2.109375
vt 1.000000 2.109375
vt 0.000000 2.187500
vt 0.166667 2.187500
vt 0.333333 2.187500
vt 0.666667 2.187500
vt 0.833333 2.187500
vt 1.000000 2.187500
vt 0.000000 2.265625
vt 0.166667 2.265625
vt 0.333333 2.265625
vt 0.500000 2.265625
vt 0.666667 2.265625
vt 0.833333 2.265625
vt 1.000000 2.265625
vt 0.000000 2.343750
vt 0.331572 2.343750
vt 0.500000 2.343750
vt 0.666667 2.343750
vt 0.833333 2.343750
vt 1.000000 2.343750
vt 0.000000 2.421875
vt 0.166667 2.421875
vt 0.333333 2.421875
vt 0.500000 2.421875
vt 0.666667 2.421875
vt 0.833333 2.421875
vt 1.000000 2.421875
vt 0.000000 2.500000
vt 0.166667 2.500000
vt 0.333333 2.500000
vt 0.500000 2.500000
vt 0.666667 2.500000
vt 0.833333 2.500000
vt 1.000000 2.500000
vt -0.002038 2.578125
vt 0.333333 2.578125
vt 0.500000 2.578125
vt 0.666667 2.578125
vt 1.001292 2.578125
vt -0.000081 2.656250
vt 0.333333 2.662431
vt 0.500000 2.697707
vt 0.667059 2.723916
vt 1.000000 2.656250
vt 0.000000 2.734375
vt 0.166667 2.809564
vt 0.999982 2.734375
vt 0.000000 2.812500
vt 0.333333 2.812500
vt 0.500000 2.812500
vt 0.666667 2.864832
vt 0.999996 2.812500
vt 0.000000 2.890625
vt 0.166667 2.890625
vt 0.333333 2.890625
vt 0.500000 2.890625
vt 0.833333 2.890625
vt 1.000000 2.890625
vt 0.000000 2.968750
vt 0.166667 2.968750
vt 0.333333 2.968750
vt 0.500000 2.968750
vt 0.666667 2.968750
vt 0.833333 2.968750
vt 1.000000 2.968750
vt 0.000000 3.047291
vt 0.166667 3.100924
vt 0.333333 3.046875
vt 0.500000 3.046875
vt 0.668071 3.046875
vt 1.000000 3.046875
vt 0.333333 3.125000
vt 0.500000 3.125000
vt 0.666667 3.125000
vt 0.833333 3.125000
vt 1.000000 3.125000
vt 0.000000 3.203125
vt 0.166667 3.203125
vt 0.333333 3.203125
vt 0.500000 3.203125
vt 0.666667 3.203125
vt 0.833333 3.203125
vt 1.000000 3.203125
vt -0.000329 3.281250
vt 0.333333 3.281250
vt 0.500000 3.281250
vt 0.666667 3.281250
vt 0.833333 3.281250
vt 1.000000 3.281250
vt 0.000000 3.359375
vt 0.166667 3.359375
vt 0.333333 3.359375
vt 0.500000 3.359375
vt 0.676327 3.359375
vt 1.000000 3.359375
vt 0.000000 3.437500
vt 0.166667 3.437500
vt 0.333333 3.437500
vt 0.500000 3.437500
vt 0.670380 3.437500
vt 1.000000 3.437500
vt 0.000000 3.515625
vt 0.329121 3.515625
vt 0.500000 3.515625
vt 0.669996 3.518425
vt 1.000000 3.515625
vt 0.000000 3.593750
vt 0.327181 3.593750
vt 0.500000 3.593750
vt 1.000041 3.593750
vt 0.000000 3.671875
vt 0.166667 3.732700
vt 0.333333 3.671875
vt 0.500000 3.671875
vt 0.667224 3.671875
vt 1.000000 3.671875
vt 0.000000 3.750000
vt 0.333333 3.750000
vt 0.500000 3.750000
vt 0.666667 3.750000
vt 0.665232 3.828798
vt 1.000000 3.750000
vt 0.000000 3.828125
vt 0.331192 3.828125
vt 0.500000 3.828125
vt 0.833333 3.828125
vt 1.000000 3.828125
vt 0.000000 3.906250
vt 0.166667 3.906250
vt 0.333333 3.906250
vt 0.500000 3.906250
vt 0.666667 3.906250
vt 0.833333 3.906250
vt 1.000000 3.906250
vt 0.000000 3.984375
vt 0.166667 3.984375
vt 0.333333 3.984375
vt 0.500000 3.984375
vt 0.666667 3.984375
vt 0.833333 3.984375
vt 1.000000 3.984375
vt 0.000080 4.062500
vt 0.333333 4.062500
vt 0.500000 4.062500
vt 0.666667 4.062500
vt 0.833333 4.062500
vt 0.999924 4.062535
vt 0.000000 4.140625
vt 0.166667 4.140625
vt 0.333333 4.140625
vt 0.500000 4.140625
vt 0.666667 4.207119
vt 0.000000 4.218750
vt 0.166667 4.218750
vt 0.333333 4.218750
vt 0.500000 4.218750
vt 0.673590 4.293630
vt 1.000000 4.140625
vt 1.000000 4.218750
vt 0.000000 4.296875
vt 0.166667 4.298429
vt 0.333333 4.296875
vt 0.500000 4.296875
vt 0.639494 4.383631
vt 1.000000 4.296875
vt 0.000000 4.452511
vt 0.333333 4.436776
vt 0.500000 4.428894
vt 1.000000 4.375000
vt 0.166667 4.453125
vt 0.672057 4.453125
vt 1.000000 4.453125
vt 0.000000 4.531250
vt 0.329063 4.531250
vt 0.500000 4.531250
vt 0.669267 4.531250
vt 1.000000 4.531250
vt 0.000000 4.609375
vt 0.166667 4.609375
vt 0.333333 4.609375
vt 0.500000 4.609375
vt 0.666667 4.609375
vt 0.833333 4.609375
vt 1.000000 4.609375
vt 0.000000 4.687500
vt 0.166667 4.687500
vt 0.333333 4.687500
vt 0.500000 4.687500
vt 0.666667 4.687500
vt 0.833333 4.687500
vt 1.000000 4.687500
vt 0.000000 4.765625
vt 0.166667 4.765625
vt 0.333333 4.765625
vt 0.500000 4.765625
vt 0.666667 4.765625
vt 0.833333 4.765625
vt 1.000000 4.765625
vt 0.000000 4.843750
vt 0.166667 4.843750
vt 0.333333 4.843750
vt 0.500000 4.843941
vt 0.666667 4.843750
vt 0.833333 4.843750
vt 1.000000 4.843750
vt 0.000000 4.921875
vt 0.166667 4.921875
vt 0.333333 4.921875
vt 0.666667 4.921875
vt 0.833333 4.921875
vt 1.000000 4.921875
vt 0.000000 5.000000
vt 0.166667 5.000000
vt 0.333333 5.000000
vt 0.500000 5.000000
vt 0.666667 5.000000
vt 0.833333 5.000000
vt 1.000000 5.000000
s 1
f 1/1/1 6/2/2 7/3/3
f 1/1/1 7/3/3 2/4/4
f 2/4/4 7/3/3 3/5/5
f 3/5/5 7/3/3 8/6/6
f 3/5/5 8/6/6 4/7/7
f 4/7/7 8/6/6 9/8/8
f 4/7/7 9/8/8 5/9/9
f 5/9/9 9/8/8 10/10/10
f 6/2/2 11/11/11 7/3/3
f 7/3/3 11/11/11 12/12/12
f 7/3/3 12/12/12 8/6/6
f 8/6/6 12/12/12 13/13/13
f 8/6/6 13/13/13 9/8/8
f 9/8/8 13/13/13 14/14/14
f 9/8/8 14/14/14 10/10/10
f 10/10/10 14/14/14 15/15/15
f 11/11/11 16/16/16 12/12/12
f 12/12/12 16/16/16 17/17/17
f 12/12/12 17/17/17 13/13/13
f 13/13/13 17/17/17 18/18/18
f 13/13/13 18/18/18 14/14/14
f 14/14/14 18/18/18 19/19/19
f 14/14/14 19/19/19 15/15/15
f 15/15/15 19/19/19 20/20/20
f 16/16/16 21/21/21 17/17/17
f 17/17/17 21/21/21 22/22/22
f 17/17/17 22/22/22 18/18/18
f 18/18/18 22/22/22 23/23/23
f 18/18/18 23/23/23 19/19/19
f 19/19/19 23/23/23 24/24/24
f 19/19/19 24/24/24 20/20/20
f 20/20/20 24/24/24 25/25/25
f 21/21/21 26/26/26 22/22/22
f 22/22/22 26/26/26 27/27/27
f 22/22/22 27/27/27 28/28/28
f 22/22/22 28/28/28 23/23/23
f 23/23/23 28/28/28 29/29/29
f 23/23/23 29/29/29 24/24/24
f 24/24/24 29/29/29 30/30/30
f 24/24/24 30/30/30 31/31/31
f 24/24/24 31/31/31 25/25/25
f 25/25/25 31/31/31 32/32/32
f 27/27/27 33/33/33 28/28/28
f 28/28/28 33/33/33 34/34/34
f 28/28/28 34/34/34 29/29/29
f 29/29/29 34/34/34 35/35/35
f 29/29/29 35/35/35 30/30/30
f 30/30/30 35/35/35 36/36/36
f 30/30/30 36/36/36 31/31/31
f 31/31/31 36/36/36 37/37/37
f 31/31/31 37/37/37 32/32/32
f 32/32/32 37/37/37 38/38/38
f 27/27/27 39/39/39 33/33/33
f 33/33/33 39/39/39 34/34/34
f 34/34/34 39/39/39 40/40/40
f 34/34/34 40/40/40 35/35/35
f 35/35/35 40/40/40 41/41/41
f 35/35/35 41/41/41 36/36/36
f 36/36/36 41/41/41 42/42/42
f 36/36/36 42/42/42 37/37/37
f 37/37/37 42/42/42 43/43/43
f 37/37/37 43/43/43 38/38/38
f 38/38/38 43/43/43 44/44/44
f 39/39/39 45/45/45 46/46/46
f 39/39/39 46/46/46 40/40/40
f 40/40/40 46/46/46 47/47/47
f 40/40/40 47/47/47 41/41/41
f 41/41/41 47/47/47 48/48/48
f 41/41/41 48/48/48 42/42/42
f 42/42/42 48/48/48 49/49/49
f 42/42/42 49/49/49 43/43/43
f 43/43/43 49/49/49 50/50/50
f 43/43/43 50/50/50 44/44/44
f 44/44/44 50/50/50 51/51/51
f 45/45/45 52/52/52 46/46/46
f 46/46/46 52/52/52 53/53/53
f 46/46/46 53/53/53 47/47/47
f 47/47/47 53/53/53 54/54/54
f 47/47/47 54/54/54 48/48/48
f 48/48/48 54/54/54 55/55/55
f 48/48/48 55/55/55 49/49/49
f 49/49/49 55/55/55 56/56/56
f 49/49/49 56/56/56 50/50/50
f 50/50/50 56/56/56 57/57/57
f 50/50/50 57/57/57 51/51/51
f 51/51/51 57/57/57 58/58/58
f 52/52/52 59/59/59 53/53/53
f 53/53/53 59/59/59 60/60/60
f 53/53/53 60/60/60 54/54/54
f 54/54/54 60/60/60 61/61/61
f 54/54/54 61/61/61 55/55/55
f 55/55/55 61/61/61 62/62/62
f 55/55/55 62/62/62 56/56/56
f 56/56/56 62/62/62 63/63/63
f 56/56/56 63/63/63 57/57/57
f 57/57/57 63/63/63 58/58/58
f 58/58/58 63/63/63 64/64/64
f 59/59/59 65/65/65 60/60/60
f 60/60/60 65/65/65 66/66/66
f 60/60/60 66/66/66 61/61/61
f 61/61/61 66/66/66 62/62/62
f 62/62/62 66/66/66 67/67/67
f 62/62/62 67/67/67 63/63/63
f 63/63/63 67/67/67 68/68/68
f 63/63/63 68/68/68 69/69/69
f 63/63/63 69/69/69 64/64/64
f 64/64/64 69/69/69 70/70/70
f 65/65/65 71/71/71 66/66/66
f 66/66/66 71/71/71 72/72/72
f 66/66/66 72/72/72 73/73/73
f 66/66/66 73/73/73 67/67/67
f 67/67/67 73/73/73 74/74/74
f 67/67/67 74/74/74 68/68/68
f 68/68/68 74/74/74 75/75/75
f 68/68/68 75/75/75 69/69/69
f 69/69/69 75/75/75 76/76/76
f 69/69/69 76/76/76 70/70/70
f 71/71/71 77/77/77 72/72/72
f 70/70/70 76/76/76 78/78/78
f 77/77/77 79/79/79 72/72/72
f 72/72/72 79/79/79 80/80/80
f 72/72/72 80/80/80 73/73/73
f 73/73/73 80/80/80 74/74/74
f 74/74/74 80/80/80 81/81/81
f 74/74/74 81/81/81 75/75/75
f 75/75/75 81/81/81 82/82/82
f 75/75/75 82/82/82 76/76/76
f 76/76/76 82/82/82 78/78/78
f 79/79/79 83/83/83 80/80/80
f 80/80/80 83/83/83 84/84/84
f 80/80/80 84/84/84 81/81/81
f 81/81/81 84/84/84 85/85/85
f 81/81/81 85/85/85 82/82/82
f 82/82/82 85/85/85 86/86/86
f 82/82/82 86/86/86 87/87/87
f 82/82/82 87/87/87 78/78/78
f 78/78/78 87/87/87 88/88/88
f 83/83/83 89/89/89 84/84/84
f 84/84/84 89/89/89 90/90/90
f 84/84/84 90/90/90 85/85/85
f 85/85/85 90/90/90 91/91/91
f 85/85/85 91/91/91 86/86/86
f 86/86/86 91/91/91 92/92/92
f 86/86/86 92/92/92 87/87/87
f 87/87/87 92/92/92 93/93/93
f 87/87/87 93/93/93 88/88/88
f 88/88/88 93/93/93 94/94/94
f 89/89/89 95/95/95 90/90/90
f 90/90/90 95/95/95 96/96/96
f 90/90/90 96/96/96 97/97/97
f 90/90/90 97/97/97 91/91/91
f 91/91/91 97/97/97 98/98/98
f 91/91/91 98/98/98 92/92/92
f 92/92/92 98/98/98 99/99/99
f 92/92/92 99/99/99 93/93/93
f 93/93/93 99/99/99 100/100/100
f 93/93/93 100/100/100 94/94/94
f 94/94/94 100/100/100 101/101/101
f 95/95/95 102/102/102 96/96/96
f 96/96/96 102/102/102 103/103/103
f 96/96/96 103/103/103 97/97/97
f 97/97/97 103/103/103 104/104/104
f 97/97/97 104/104/104 98/98/98
f 98/98/98 104/104/104 105/105/105
f 98/98/98 105/105/105 99/99/99
f 99/99/99 105/105/105 106/106/106
f 99/99/99 106/106/106 100/100/100
f 100/100/100 106/106/106 107/107/107
f 100/100/100 107/107/107 101/101/101
f 101/101/101 107/107/107 108/108/108
f 102/102/102 109/109/109 103/103/103
f 103/103/103 109/109/109 110/110/110
f 103/103/103 110/110/110 104/104/104
f 104/104/104 110/110/110 111/111/111
f 104/104/104 111/111/111 105/105/105
f 105/105/105 111/111/111 112/112/112
f 105/105/105 112/112/112 106/106/106
f 106/106/106 112/112/112 113/113/113
f 106/106/106 113/113/113 107/107/107
f 107/107/107 113/113/113 114/114/114
f 107/107/107 114/114/114 108/108/108
f 108/108/108 114/114/114 115/115/115
f 109/109/109 116/116/116 110/110/110
f 110/110/110 116/116/116 117/117/117
f 110/110/110 117/117/117 111/111/111
f 111/111/111 117/117/117 112/112/112
f 112/112/112 117/117/117 118/118/118
f 112/112/112 118/118/118 113/113/113
f 113/113/113 118/118/118 119/119/119
f 113/113/113 119/119/119 114/114/114
f 114/114/114 119/119/119 115/115/115
f 116/116/116 120/120/120 117/117/117
f 117/117/117 120/120/120 121/121/121
f 117/117/117 121/121/121 118/118/118
f 118/118/118 121/121/121 122/122/122
f 118/118/118 122/122/122 119/119/119
f 119/119/119 122/122/122 123/123/123
f 119/119/119 123/123/123 124/124/124
f 119/119/119 124/124/124 115/115/115
f 115/115/115 124/124/124 125/125/125
f 120/120/120 126/126/126 121/121/121
f 121/121/121 126/126/126 127/127/127
f 121/121/121 127/127/127 122/122/122
f 122/122/122 127/127/127 128/128/128
f 122/122/122 128/128/128 123/123/123
f 123/123/123 128/128/128 129/129/129
f 123/123/123 129/129/129 124/124/124
f 124/124/124 129/129/129 130/130/130
f 124/124/124 130/130/130 125/125/125
f 125/125/125 130/130/130 131/131/131
f 126/126/126 132/132/132 127/127/127
f 127/127/127 132/132/132 133/133/133
f 127/127/127 133/133/133 128/128/128
f 128/128/128 133/133/133 134/134/134
f 128/128/128 134/134/134 129/129/129
f 129/129/129 134/134/134 135/135/135
f 129/129/129 135/135/135 130/130/130
f 130/130/130 135/135/135 131/131/131
f 131/131/131 135/135/135 136/136/136
f 132/132/132 137/137/137 138/138/138
f 132/132/132 138/138/138 133/133/133
f 133/133/133 138/138/138 134/134/134
f 134/134/134 138/138/138 139/139/139
f 134/134/134 139/139/139 135/135/135
f 135/135/135 139/139/139 140/140/140
f 135/135/135 140/140/140 136/136/136
f 136/136/136 140/140/140 141/141/141
f 137/137/137 142/142/142 138/138/138
f 138/138/138 142/142/142 143/143/143
f 138/138/138 143/143/143 139/139/139
f 140/140/140 139/139/139 144/144/144
f 140/140/140 144/144/144 141/141/141
f 141/141/141 144/144/144 145/145/145
f 142/142/142 146/146/146 143/143/143
f 143/143/143 146/146/146 147/147/147
f 143/143/143 147/147/147 139/139/139
f 139/139/139 147/147/147 148/148/148
f 139/139/139 148/148/148 144/144/144
f 144/144/144 148/148/148 149/149/149
f 144/144/144 149/149/149 150/150/150
f 144/144/144 150/150/150 145/145/145
f 146/146/146 151/151/151 152/152/152
f 146/146/146 152/152/152 147/147/147
f 147/147/147 152/152/152 153/153/153
f 147/147/147 153/153/153 148/148/148
f 148/148/148 153/153/153 154/154/154
f 148/148/148 154/154/154 149/149/149
f 149/149/149 154/154/154 155/155/155
f 149/149/149 155/155/155 150/150/150
f 150/150/150 155/155/155 156/156/156
f 150/150/150 156/156/156 157/157/157
f 151/151/151 158/158/158 152/152/152
f 152/152/152 158/158/158 159/159/159
f 152/152/152 159/159/159 153/153/153
f 153/153/153 159/159/159 160/160/160
f 153/153/153 160/160/160 154/154/154
f 155/155/155 154/154/154 161/161/161
f 155/155/155 161/161/161 156/156/156
f 156/156/156 161/161/161 162/162/162
f 156/156/156 162/162/162 157/157/157
f 157/157/157 162/162/162 163/163/163
f 158/158/158 164/164/164 159/159/159
f 159/159/159 164/164/164 165/165/165
f 159/159/159 165/165/165 160/160/160
f 160/160/160 165/165/165 166/166/166
f 160/160/160 166/166/166 154/154/154
f 154/154/154 166/166/166 167/167/167
f 154/154/154 167/167/167 161/161/161
f 161/161/161 167/167/167 168/168/168
f 161/161/161 168/168/168 162/162/162
f 162/162/162 168/168/168 169/169/169
f 162/162/162 169/169/169 163/163/163
f 163/163/163 169/169/169 170/170/170
f 164/164/164 171/171/171 165/165/165
f 165/165/165 171/171/171 172/172/172
f 165/165/165 172/172/172 166/166/166
f 166/166/166 172/172/172 167/167/167
f 167/167/167 172/172/172 173/173/173
f 167/167/167 173/173/173 168/168/168
f 168/168/168 173/173/173 174/174/174
f 168/168/168 174/174/174 169/169/169
f 169/169/169 174/174/174 175/175/175
f 169/169/169 175/175/175 170/170/170
f 170/170/170 175/175/175 176/176/176
f 171/171/171 177/177/177 172/172/172
f 172/172/172 177/177/177 178/178/178
f 172/172/172 178/178/178 179/179/179
f 172/172/172 179/179/179 173/173/173
f 173/173/173 179/179/179 180/180/180
f 173/173/173 180/180/180 174/174/174
f 174/174/174 180/180/180 181/181/181
f 174/174/174 181/181/181 175/175/175
f 175/175/175 181/181/181 182/182/182
f 175/175/175 182/182/182 176/176/176
f 176/176/176 182/182/182 183/183/183
f 177/177/177 184/184/184 178/178/178
f 178/178/178 184/184/184 185/185/185
f 178/178/178 185/185/185 179/179/179
f 179/179/179 185/185/185 186/186/186
f 179/179/179 186/186/186 180/180/180
f 180/180/180 186/186/186 187/187/187
f 180/180/180 187/187/187 181/181/181
f 181/181/181 187/187/187 188/188/188
f 181/181/181 188/188/188 182/182/182
f 182/182/182 188/188/188 189/189/189
f 182/182/182 189/189/189 183/183/183
f 183/183/183 189/189/189 190/190/190
f 184/184/184 191/191/191 185/185/185
f 185/185/185 191/191/191 186/186/186
f 186/186/186 191/191/191 192/192/192
f 186/186/186 192/192/192 187/187/187
f 187/187/187 192/192/192 193/193/193
f 187/187/187 193/193/193 188/188/188
f 188/188/188 193/193/193 194/194/194
f 188/188/188 194/194/194 189/189/189
f 189/189/189 194/194/194 195/195/195
f 189/189/189 195/195/195 190/190/190
f 191/191/191 196/196/196 192/192/192
f 192/192/192 196/196/196 197/197/197
f 192/192/192 197/197/197 193/193/193
f 193/193/193 197/197/197 198/198/198
f 193/193/193 198/198/198 194/194/194
f 194/194/194 198/198/198 199/199/199
f 194/194/194 199/199/199 195/195/195
f 195/195/195 199/199/199 200/200/200
f 196/196/196 201/201/201 202/202/202
f 196/196/196 202/202/202 197/197/197
f 199/199/199 203/203/203 200/200/200
f 201/201/201 204/204/204 202/202/202
f 197/197/197 202/202/202 205/205/205
f 197/197/197 205/205/205 198/198/198
f 198/198/198 205/205/205 206/206/206
f 198/198/198 206/206/206 199/199/199
f 199/199/199 206/206/206 207/207/207
f 199/199/199 207/207/207 203/203/203
f 203/203/203 207/207/207 208/208/208
f 204/204/204 209/209/209 202/202/202
f 202/202/202 209/209/209 210/210/210
f 202/202/202 210/210/210 205/205/205
f 205/205/205 210/210/210 211/211/211
f 205/205/205 211/211/211 206/206/206
f 206/206/206 211/211/211 212/212/212
f 206/206/206 212/212/212 207/207/207
f 208/208/208 207/207/207 213/213/213
f 208/208/208 213/213/213 214/214/214
f 209/209/209 215/215/215 210/210/210
f 210/210/210 215/215/215 216/216/216
f 210/210/210 216/216/216 211/211/211
f 211/211/211 216/216/216 217/217/217
f 211/211/211 217/217/217 212/212/212
f 212/212/212 217/217/217 218/218/218
f 212/212/212 218/218/218 207/207/207
f 207/207/207 218/218/218 219/219/219
f 207/207/207 219/219/219 213/213/213
f 213/213/213 219/219/219 220/220/220
f 213/213/213 220/220/220 214/214/214
f 214/214/214 220/220/220 221/221/221
f 215/215/215 222/222/222 216/216/216
f 216/216/216 222/222/222 223/223/223
f 216/216/216 223/223/223 217/217/217
f 217/217/217 223/223/223 224/224/224
f 217/217/217 224/224/224 218/218/218
f 218/218/218 224/224/224 225/225/225
f 218/218/218 225/225/225 219/219/219
f 219/219/219 225/225/225 226/226/226
f 219/219/219 226/226/226 220/220/220
f 220/220/220 226/226/226 221/221/221
f 221/221/221 226/226/226 227/227/227
f 224/224/224 223/223/223 228/228/228
f 224/224/224 228/228/228 225/225/225
f 225/225/225 228/228/228 229/229/229
f 225/225/225 229/229/229 226/226/226
f 226/226/226 229/229/229 230/230/230
f 226/226/226 230/230/230 231/231/231
f 226/226/226 231/231/231 227/227/227
f 227/227/227 231/231/231 232/232/232
f 222/222/222 233/233/233 223/223/223
f 223/223/223 233/233/233 234/234/234
f 223/223/223 234/234/234 228/228/228
f 228/228/228 234/234/234 235/235/235
f 228/228/228 235/235/235 229/229/229
f 229/229/229 235/235/235 236/236/236
f 229/229/229 236/236/236 230/230/230
f 230/230/230 236/236/236 237/237/237
f 230/230/230 237/237/237 231/231/231
f 231/231/231 237/237/237 238/238/238
f 231/231/231 238/238/238 232/232/232
f 232/232/232 238/238/238 239/239/239
f 233/233/233 240/240/240 234/234/234
f 234/234/234 240/240/240 235/235/235
f 235/235/235 240/240/240 241/241/241
f 235/235/235 241/241/241 236/236/236
f 236/236/236 241/241/241 242/242/242
f 236/236/236 242/242/242 237/237/237
f 237/237/237 242/242/242 243/243/243
f 237/237/237 243/243/243 238/238/238
f 238/238/238 243/243/243 244/244/244
f 238/238/238 244/244/244 239/239/239
f 239/239/239 244/244/244 245/245/245
f 240/240/240 246/246/246 247/247/247
f 240/240/240 247/247/247 241/241/241
f 241/241/241 247/247/247 248/248/248
f 241/241/241 248/248/248 242/242/242
f 242/242/242 248/248/248 249/249/249
f 242/242/242 249/249/249 243/243/243
f 243/243/243 249/249/249 250/250/250
f 243/243/243 250/250/250 244/244/244
f 244/244/244 250/250/250 245/245/245
f 245/245/245 250/250/250 251/251/251
f 246/246/246 252/252/252 247/247/247
f 247/247/247 252/252/252 253/253/253
f 247/247/247 253/253/253 248/248/248
f 248/248/248 253/253/253 254/254/254
f 248/248/248 254/254/254 249/249/249
f 249/249/249 254/254/254 255/255/255
f 249/249/249 255/255/255 250/250/250
f 250/250/250 255/255/255 256/256/256
f 250/250/250 256/256/256 251/251/251
f 251/251/251 256/256/256 257/257/257
f 252/252/252 258/258/258 253/253/253
f 253/253/253 258/258/258 259/259/259
f 253/253/253 259/259/259 254/254/254
f 254/254/254 259/259/259 255/255/255
f 255/255/255 259/259/259 260/260/260
f 255/255/255 260/260/260 256/256/256
f 256/256/256 260/260/260 261/261/261
f 256/256/256 261/261/261 257/257/257
f 257/257/257 261/261/261 262/262/262
f 258/258/258 263/263/263 259/259/259
f 259/259/259 263/263/263 264/264/264
f 259/259/259 264/264/264 260/260/260
f 260/260/260 264/264/264 265/265/265
f 260/260/260 265/265/265 261/261/261
f 261/261/261 266/266/266 262/262/262
f 263/263/263 267/267/267 264/264/264
f 264/264/264 267/267/267 268/268/268
f 264/264/264 268/268/268 269/269/269
f 264/264/264 269/269/269 265/265/265
f 265/265/265 269/269/269 270/270/270
f 265/265/265 270/270/270 261/261/261
f 261/261/261 270/270/270 271/271/271
f 261/261/261 271/271/271 266/266/266
f 266/266/266 271/271/271 272/272/272
f 267/267/267 273/273/273 268/268/268
f 269/269/269 268/268/268 274/274/274
f 269/269/269 274/274/274 270/270/270
f 270/270/270 274/274/274 275/275/275
f 270/270/270 275/275/275 271/271/271
f 271/271/271 275/275/275 276/276/276
f 271/271/271 276/276/276 277/277/277
f 271/271/271 277/277/277 272/272/272
f 272/272/272 277/277/277 278/278/278
f 273/273/273 279/279/279 268/268/268
f 268/268/268 279/279/279 280/280/280
f 268/268/268 280/280/280 274/274/274
f 274/274/274 280/280/280 275/275/275
f 275/275/275 280/280/280 281/281/281
f 275/275/275 281/281/281 276/276/276
f 276/276/276 281/281/281 277/277/277
f 277/277/277 282/282/282 278/278/278
f 278/278/278 282/282/282 283/283/283
f 279/279/279 284/284/284 280/280/280
f 280/280/280 284/284/284 285/285/285
f 280/280/280 285/285/285 286/286/286
f 280/280/280 286/286/286 281/281/281
f 281/281/281 286/286/286 287/287/287
f 281/281/281 287/287/287 277/277/277
f 277/277/277 287/287/287 288/288/288
f 277/277/277 288/288/288 282/282/282
f 282/282/282 288/288/288 289/289/289
f 282/282/282 289/289/289 283/283/283
f 283/283/283 289/289/289 290/290/290
f 284/284/284 291/291/291 285/285/285
f 285/285/285 291/291/291 292/292/292
f 285/285/285 292/292/292 286/286/286
f 286/286/286 292/292/292 293/293/293
f 286/286/286 293/293/293 287/287/287
f 287/287/287 293/293/293 294/294/294
f 287/287/287 294/294/294 288/288/288
f 288/288/288 294/294/294 295/295/295
f 288/288/288 295/295/295 289/289/289
f 289/289/289 295/295/295 296/296/296
f 289/289/289 296/296/296 290/290/290
f 290/290/290 296/296/296 297/297/297
f 291/291/291 298/298/298 292/292/292
f 292/292/292 298/298/298 293/293/293
f 293/293/293 298/298/298 299/299/299
f 293/293/293 299/299/299 294/294/294
f 294/294/294 299/299/299 300/300/300
f 294/294/294 300/300/300 295/295/295
f 295/295/295 300/300/300 301/301/301
f 295/295/295 301/301/301 296/296/296
f 296/296/296 301/301/301 302/302/302
f 296/296/296 302/302/302 297/297/297
f 297/297/297 302/302/302 303/303/303
f 298/298/298 304/304/304 305/305/305
f 298/298/298 305/305/305 299/299/299
f 299/299/299 305/305/305 306/306/306
f 299/299/299 306/306/306 300/300/300
f 300/300/300 306/306/306 307/307/307
f 300/300/300 307/307/307 301/301/301
f 301/301/301 307/307/307 308/308/308
f 301/301/301 308/308/308 302/302/302
f 302/302/302 308/308/308 303/303/303
f 304/304/304 310/309/309 305/305/305
f 305/305/305 310/309/309 311/310/310
f 305/305/305 311/310/310 306/306/306
f 306/306/306 311/310/310 312/311/311
f 306/306/306 312/311/311 307/307/307
f 307/307/307 312/311/311 313/312/312
f 307/307/307 313/312/312 308/308/308
f 303/303/303 308/308/308 314/313/313
f 303/303/303 314/313/313 309/314/314
f 309/314/314 314/313/313 315/315/315
f 310/309/309 316/316/316 311/310/310
f 311/310/310 316/316/316 317/317/317
f 311/310/310 317/317/317 312/311/311
f 312/311/311 317/317/317 318/318/318
f 312/311/311 318/318/318 313/312/312
f 313/312/312 318/318/318 319/319/319
f 313/312/312 319/319/319 308/308/308
f 308/308/308 319/319/319 314/313/313
f 314/313/313 320/320/320 315/315/315
f 315/315/315 320/320/320 321/321/321
f 316/316/316 322/322/322 317/317/317
f 318/318/318 317/317/317 323/323/323
f 318/318/318 323/323/323 319/319/319
f 319/319/319 323/323/323 324/324/324
f 319/319/319 324/324/324 314/313/313
f 314/313/313 324/324/324 320/320/320
f 321/321/321 320/320/320 325/325/325
f 317/317/317 322/322/322 326/326/326
f 317/317/317 326/326/326 323/323/323
f 320/320/320 324/324/324 327/327/327
f 320/320/320 327/327/327 325/325/325
f 325/325/325 327/327/327 328/328/328
f 322/322/322 329/329/329 326/326/326
f 326/326/326 329/329/329 330/330/330
f 326/326/326 330/330/330 323/323/323
f 323/323/323 330/330/330 324/324/324
f 324/324/324 330/330/330 331/331/331
f 324/324/324 331/331/331 327/327/327
f 327/327/327 331/331/331 332/332/332
f 327/327/327 332/332/332 328/328/328
f 328/328/328 332/332/332 333/333/333
f 329/329/329 334/334/334 330/330/330
f 330/330/330 334/334/334 335/335/335
f 330/330/330 335/335/335 336/336/336
f 330/330/330 336/336/336 331/331/331
f 331/331/331 336/336/336 337/337/337
f 331/331/331 337/337/337 332/332/332
f 332/332/332 337/337/337 338/338/338
f 332/332/332 338/338/338 339/339/339
f 332/332/332 339/339/339 333/333/333
f 333/333/333 339/339/339 340/340/340
f 334/334/334 341/341/341 335/335/335
f 335/335/335 341/341/341 342/342/342
f 335/335/335 342/342/342 336/336/336
f 336/336/336 342/342/342 343/343/343
f 336/336/336 343/343/343 337/337/337
f 337/337/337 343/343/343 344/344/344
f 337/337/337 344/344/344 338/338/338
f 338/338/338 344/344/344 345/345/345
f 338/338/338 345/345/345 339/339/339
f 339/339/339 345/345/345 346/346/346
f 339/339/339 346/346/346 340/340/340
f 340/340/340 346/346/346 347/347/347
f 341/341/341 348/348/348 342/342/342
f 342/342/342 348/348/348 349/349/349
f 342/342/342 349/349/349 343/343/343
f 343/343/343 349/349/349 350/350/350
f 343/343/343 350/350/350 344/344/344
f 344/344/344 350/350/350 351/351/351
f 344/344/344 351/351/351 345/345/345
f 345/345/345 351/351/351 352/352/352
f 345/345/345 352/352/352 346/346/346
f 346/346/346 352/352/352 353/353/353
f 346/346/346 353/353/353 347/347/347
f 347/347/347 353/353/353 354/354/354
f 348/348/348 355/355/355 349/349/349
f 349/349/349 355/355/355 356/356/356
f 349/349/349 356/356/356 350/350/350
f 350/350/350 356/356/356 357/357/357
f 350/350/350 357/357/357 351/351/351
f 351/351/351 357/357/357 358/358/358
f 351/351/351 358/358/358 352/352/352
f 352/352/352 358/358/358 359/359/359
f 352/352/352 359/359/359 353/353/353
f 353/353/353 359/359/359 360/360/360
f 353/353/353 360/360/360 354/354/354
f 354/354/354 360/360/360 361/361/361
f 355/355/355 362/362/362 356/356/356
f 356/356/356 362/362/362 363/363/363
f 356/356/356 363/363/363 357/357/357
f 357/357/357 363/363/363 364/364/364
f 357/357/357 364/364/364 358/358/358
f 359/359/359 358/358/358 365/365/365
f 359/359/359 365/365/365 360/360/360
f 360/360/360 365/365/365 366/366/366
f 360/360/360 366/366/366 361/361/361
f 361/361/361 366/366/366 367/367/367
f 362/362/362 368/368/368 363/363/363
f 363/363/363 368/368/368 369/369/369
f 363/363/363 369/369/369 364/364/364
f 364/364/364 369/369/369 370/370/370
f 364/364/364 370/370/370 358/358/358
f 358/358/358 370/370/370 371/371/371
f 358/358/358 371/371/371 365/365/365
f 365/365/365 371/371/371 372/372/372
f 365/365/365 372/372/372 366/366/366
f 366/366/366 372/372/372 373/373/373
f 366/366/366 373/373/373 367/367/367
f 367/367/367 373/373/373 374/374/374
